<?xml version="1.0" encoding="utf-8"?>
<!-- Generator: Adobe Illustrator 16.0.0, SVG Export Plug-In . SVG Version: 6.00 Build 0)  -->
<!DOCTYPE svg PUBLIC "-//W3C//DTD SVG 1.1//EN" "http://www.w3.org/Graphics/SVG/1.1/DTD/svg11.dtd">
<svg version="1.1" id="Layer_1" xmlns="http://www.w3.org/2000/svg" xmlns:xlink="http://www.w3.org/1999/xlink" x="0px" y="0px"
	 width="68.354px" height="51.926px" viewBox="0 0 68.354 51.926" enable-background="new 0 0 68.354 51.926" xml:space="preserve">
<g>
	<g>
		<rect x="0" y="-0.001" fill="none" width="68.354" height="51.928"/>
	</g>
</g>
<g opacity="0.6">
	<path fill="#FFFFFF" d="M21.493,26.163c0.675,3.617,3.153,4.165,4.597,4.165s3.934-0.548,4.6-4.165
		c0.873-0.332,1.446-1.731,1.514-1.906c0.18-0.457,0.095-1.115-0.188-1.572c-0.11-0.17-0.241-0.312-0.396-0.406
		c0.315-1.493,0.006-3.416-0.771-4.642c-1.092-1.722-3.167-2.386-4.771-2.438c-1.575,0.052-3.648,0.716-4.739,2.438
		c-0.783,1.226-1.086,3.148-0.77,4.642c-0.152,0.095-0.288,0.236-0.396,0.406c-0.293,0.457-0.372,1.115-0.193,1.572
		C20.054,24.432,20.627,25.835,21.493,26.163z M20.943,23.173c0.062-0.095,0.132-0.147,0.201-0.154
		c0.134-0.004,0.26-0.073,0.345-0.193c0.08-0.112,0.104-0.257,0.059-0.395c-0.395-1.289-0.152-3.184,0.559-4.306
		c0.907-1.415,2.662-1.973,3.973-2.017c1.345,0.043,3.098,0.602,3.998,2.017c0.717,1.122,0.959,3.017,0.559,4.306
		c-0.036,0.137-0.016,0.283,0.062,0.395c0.079,0.12,0.211,0.189,0.348,0.193c0.068,0.006,0.133,0.059,0.196,0.154
		c0.146,0.226,0.181,0.585,0.112,0.749c-0.266,0.676-0.799,1.392-1.028,1.392c-0.232-0.021-0.451,0.157-0.479,0.389
		c-0.463,3.066-2.294,3.714-3.753,3.714c-1.457,0-3.287-0.647-3.749-3.714c-0.025-0.225-0.252-0.389-0.479-0.389
		c-0.229,0-0.767-0.716-1.028-1.392C20.764,23.759,20.8,23.399,20.943,23.173z"/>
	<path fill="#FFFFFF" d="M38.149,23.54c0.67,3.245,2.96,4.011,4.278,4.011c1.316,0,3.607-0.767,4.273-4.011
		c0.773-0.407,1.247-1.529,1.34-1.762c0.188-0.482,0.109-1.154-0.195-1.636c-0.077-0.122-0.168-0.229-0.271-0.318
		c0.229-1.366-0.066-3.022-0.746-4.097c-1.014-1.601-2.943-2.402-4.408-2.448l-0.007-0.001l-0.011,0.001
		c-1.453,0.046-3.365,0.848-4.382,2.448c-0.679,1.075-0.977,2.731-0.746,4.097c-0.103,0.089-0.191,0.196-0.271,0.318
		c-0.305,0.48-0.385,1.152-0.191,1.634C36.904,22.01,37.377,23.132,38.149,23.54z"/>
	<path fill="#FFFFFF" d="M38.633,36.027h16.271c0-2.295-0.511-3.453-1.591-4.605c-2.368-2.521-7.294-3.431-7.294-3.431l-2.578,5.37
		l-0.598-3.486l0.659-0.842l-0.659-0.674h-0.841l-0.658,0.674l0.658,0.842l-0.596,3.486l-2.579-5.37c0,0-4.197,0.78-6.704,2.892
		c-0.005-0.001-0.009-0.004-0.015-0.004c0.003-0.003,0.006-0.006,0.006-0.011c-1.201-0.358-2.189-0.548-2.932-0.646
		c-0.005,0-0.012,0.002-0.02,0c-0.002,0-0.01,0-0.012,0c-0.249-0.027-0.476,0.148-0.506,0.399c-0.037,0.246,0.144,0.474,0.391,0.512
		c1.329,0.167,3.497,0.652,6.307,1.978c2.269,1.068,2.433,2.979,2.445,4.623h-6.514H20.876h-6.513
		c0.015-1.645,0.178-3.555,2.445-4.623c2.811-1.324,4.979-1.811,6.307-1.978c0.247-0.038,0.426-0.266,0.391-0.512
		c-0.031-0.251-0.258-0.427-0.505-0.399c-1.397,0.185-3.666,0.685-6.585,2.063c-2.971,1.397-2.971,4.065-2.971,5.831v0.531h7.017
		H31.69h7.02v-0.531c0-0.919-0.011-2.081-0.433-3.184C38.438,35.293,38.555,35.662,38.633,36.027z M46.014,32.623h3.081v1.812
		h-3.081V32.623z"/>
</g>
</svg>
