<?xml version="1.0" encoding="utf-8"?>
<!-- Generator: Adobe Illustrator 16.0.4, SVG Export Plug-In . SVG Version: 6.00 Build 0)  -->
<!DOCTYPE svg PUBLIC "-//W3C//DTD SVG 1.1//EN" "http://www.w3.org/Graphics/SVG/1.1/DTD/svg11.dtd">
<svg version="1.1" id="Layer_1" xmlns="http://www.w3.org/2000/svg" xmlns:xlink="http://www.w3.org/1999/xlink" x="0px" y="0px"
	 width="68.354px" height="51.926px" viewBox="0 0 68.354 51.926" enable-background="new 0 0 68.354 51.926" xml:space="preserve">
<g>
	<g>
		<rect x="0.376" y="-0.037" fill="none" width="67.978" height="51.963"/>
	</g>
</g>
<g>
	<path fill="#A7A7A7" d="M15.302,26.262c1.004,5.383,4.692,6.2,6.842,6.2c2.15,0,5.855-0.817,6.847-6.2
		c1.299-0.494,2.152-2.576,2.254-2.837c0.267-0.68,0.141-1.658-0.281-2.339c-0.163-0.253-0.359-0.465-0.589-0.604
		c0.468-2.223,0.009-5.084-1.148-6.91c-1.625-2.562-4.714-3.551-7.101-3.628c-2.345,0.077-5.431,1.065-7.054,3.628
		c-1.166,1.826-1.616,4.687-1.147,6.91c-0.225,0.141-0.427,0.352-0.588,0.604c-0.436,0.681-0.554,1.659-0.288,2.339
		C13.16,23.686,14.013,25.773,15.302,26.262z M14.483,21.812c0.093-0.141,0.198-0.22,0.3-0.229c0.199-0.006,0.386-0.11,0.514-0.287
		c0.118-0.168,0.154-0.384,0.087-0.588c-0.589-1.918-0.227-4.74,0.832-6.41c1.35-2.105,3.962-2.936,5.915-3.003
		c2.001,0.064,4.61,0.897,5.951,3.003c1.067,1.67,1.427,4.492,0.832,6.41c-0.054,0.204-0.023,0.42,0.093,0.588
		c0.116,0.177,0.314,0.281,0.518,0.287c0.102,0.009,0.198,0.088,0.292,0.229c0.217,0.336,0.269,0.871,0.166,1.115
		c-0.396,1.005-1.189,2.072-1.529,2.072c-0.346-0.032-0.671,0.232-0.714,0.578c-0.689,4.564-3.414,5.528-5.586,5.528
		c-2.168,0-4.893-0.964-5.58-5.528c-0.038-0.334-0.375-0.578-0.712-0.578c-0.341,0-1.142-1.067-1.53-2.072
		C14.217,22.684,14.271,22.147,14.483,21.812z"/>
	<path fill="#A7A7A7" d="M40.093,22.358c0.997,4.829,4.405,5.969,6.368,5.969c1.959,0,5.369-1.141,6.36-5.969
		c1.149-0.606,1.854-2.276,1.994-2.624c0.279-0.717,0.161-1.717-0.29-2.434c-0.115-0.183-0.25-0.341-0.403-0.474
		c0.341-2.033-0.099-4.499-1.11-6.099c-1.51-2.383-4.381-3.574-6.562-3.643l-0.01-0.003l-0.018,0.003
		c-2.161,0.068-5.008,1.262-6.522,3.643c-1.01,1.6-1.453,4.065-1.11,6.099c-0.152,0.133-0.283,0.291-0.402,0.474
		c-0.453,0.714-0.572,1.714-0.285,2.431C38.24,20.08,38.945,21.75,40.093,22.358z"/>
	<path fill="#A7A7A7" d="M40.814,40.944h24.218c0-3.416-0.76-5.14-2.368-6.854c-3.524-3.754-10.856-5.106-10.856-5.106l-3.837,7.993
		l-0.89-5.189l0.981-1.253l-0.981-1.003h-1.252l-0.979,1.003l0.979,1.253l-0.887,5.189l-3.839-7.993c0,0-6.247,1.161-9.978,4.304
		c-0.007-0.002-0.013-0.006-0.023-0.006c0.004-0.004,0.01-0.009,0.01-0.016c-1.788-0.534-3.259-0.815-4.365-0.961
		c-0.007,0-0.017,0.003-0.029,0c-0.003,0-0.016,0-0.019,0c-0.371-0.041-0.708,0.22-0.753,0.593
		c-0.055,0.366,0.215,0.706,0.583,0.762c1.978,0.249,5.205,0.971,9.387,2.945c3.377,1.59,3.621,4.433,3.64,6.881h-9.696H14.384
		H4.689c0.023-2.449,0.266-5.291,3.64-6.881c4.185-1.972,7.412-2.696,9.389-2.945c0.366-0.056,0.634-0.396,0.582-0.762
		c-0.047-0.373-0.384-0.637-0.751-0.593c-2.08,0.274-5.457,1.019-9.801,3.069c-4.423,2.079-4.423,6.05-4.423,8.68v0.789h10.445
		h16.711h10.45v-0.789c0-1.368-0.017-3.098-0.646-4.74C40.524,39.852,40.698,40.4,40.814,40.944z M51.8,35.877h4.586v2.698H51.8
		V35.877z"/>
</g>
</svg>
