<?xml version="1.0" encoding="utf-8"?>
<!-- Generator: Adobe Illustrator 16.0.4, SVG Export Plug-In . SVG Version: 6.00 Build 0)  -->
<!DOCTYPE svg PUBLIC "-//W3C//DTD SVG 1.1//EN" "http://www.w3.org/Graphics/SVG/1.1/DTD/svg11.dtd">
<svg version="1.1" id="Layer_1" xmlns="http://www.w3.org/2000/svg" xmlns:xlink="http://www.w3.org/1999/xlink" x="0px" y="0px"
	 width="68.354px" height="51.926px" viewBox="0 0 68.354 51.926" enable-background="new 0 0 68.354 51.926" xml:space="preserve">
<g>
	<g>
		<rect x="0.376" y="-0.037" fill="none" width="67.978" height="51.963"/>
	</g>
</g>
<g>
	<path fill="#A7A7A7" d="M53.519,39.018c-4.182-4.452-12.875-6.058-12.875-6.058l-4.553,9.482l-1.055-6.153l1.164-1.487
		l-1.164-1.187h-0.743h-0.231h-0.745l-1.16,1.187l1.16,1.487l-1.055,6.153L27.71,32.96c0,0-8.691,1.605-12.872,6.058
		c-1.906,2.035-2.81,4.079-2.81,8.132h22.034h0.231h22.032C56.325,43.097,55.425,41.053,53.519,39.018z M46.818,43.812h-5.041
		v-2.783h5.041V43.812z"/>
	<g>
		<path fill="#A7A7A7" d="M34.148,32.052c-2.648,0-5.105-1.711-6.412-4.462c-0.45-0.949-0.99-2.041-1.693-3.034
			c-0.958-1.347-1.382-2.881-1.263-4.565l0.007-0.126c0.029-0.479,0.07-1.133,0.707-1.566c0.053-0.035,0.064-0.085,0.059-0.354
			c-0.001-0.082-0.001-0.161,0-0.241c0.018-0.403,0.031-0.813,0.045-1.214c0.022-0.662,0.044-1.352,0.083-2.026
			c0.199-3.745,2.83-6.583,6.545-7.06c0.465-0.063,0.921-0.091,1.359-0.119c0.187-0.012,0.364-0.021,0.538-0.037h0.026h0.026
			c4.822,0.16,7.636,2.325,8.361,6.433c0.15,0.849,0.146,1.722,0.143,2.562c-0.002,0.357-0.006,0.725,0.004,1.083l0.002,0.044
			c0.016,0.514,0.027,0.855,0.365,1.217c0.75,0.793,0.592,1.861,0.459,2.713l-0.018,0.117c-0.266,1.785-3.479,7.583-4.908,8.863
			C37.288,31.443,35.755,32.052,34.148,32.052z M34.172,8.176c-0.17,0.015-0.346,0.026-0.529,0.037
			c-0.424,0.025-0.862,0.053-1.296,0.111c-3.256,0.417-5.562,2.909-5.739,6.19c-0.037,0.666-0.059,1.346-0.085,2.006
			c-0.013,0.408-0.028,0.817-0.042,1.223c-0.001,0.058-0.001,0.12,0.001,0.178c0.007,0.303,0.019,0.814-0.467,1.145
			c-0.25,0.17-0.274,0.41-0.305,0.858l-0.009,0.135c-0.097,1.461,0.271,2.796,1.1,3.965c0.747,1.052,1.307,2.187,1.774,3.173
			c1.169,2.461,3.252,3.929,5.575,3.929c1.376,0,2.693-0.531,3.814-1.532c1.234-1.104,4.381-6.776,4.609-8.312l0.021-0.113
			c0.115-0.761,0.219-1.479-0.219-1.941c-0.584-0.618-0.602-1.261-0.619-1.829v-0.042c-0.012-0.375-0.012-0.75-0.008-1.116
			c0.006-0.84,0.01-1.631-0.125-2.398C40.976,10.185,38.538,8.33,34.172,8.176z"/>
		<path fill="#A7A7A7" d="M23.827,18.48c0,1.156-0.003,2.319,0,3.479c0.003,0.785,0.094,1.602-1.06,1.679
			c-1.139,0.072-2.287-0.517-2.329-1.454c-0.092-2.199-0.072-4.404,0.003-6.603c0.023-0.706,0.665-1.089,1.325-1.306
			c0.368-0.121,0.652-0.219,0.766-0.711C23.679,8.56,27.058,5.813,31.907,5c4.87-0.815,9.104,0.568,12.206,4.646
			c0.801,1.06,1.359,2.249,1.578,3.57c0.098,0.591,0.338,0.939,0.961,1.124c0.92,0.27,1.332,0.985,1.33,1.944
			c-0.006,1.739-0.008,3.477,0,5.215c0.004,0.855-0.354,1.485-1.107,1.884c-1.18,0.624-1.537,2.394-0.705,3.48
			c0.611,0.788,0.684,1.646,0.193,2.483c-0.447,0.77-1.205,1.094-2.076,0.966c-0.93-0.144-1.525-0.729-1.725-1.651
			c-0.207-0.944,0.148-1.736,0.963-2.159c0.615-0.33,0.766-0.747,0.826-1.366c0.342-3.546,0.191-7.104,0.105-10.649
			c-0.053-2.162-1.18-3.954-2.758-5.446c-4.414-4.186-12.318-3.672-16.065,1.066c-1.188,1.499-1.849,3.188-1.808,5.133
			C23.847,16.316,23.827,17.398,23.827,18.48z"/>
	</g>
</g>
</svg>
