<?xml version="1.0" encoding="utf-8"?>
<!-- Generator: Adobe Illustrator 16.0.4, SVG Export Plug-In . SVG Version: 6.00 Build 0)  -->
<!DOCTYPE svg PUBLIC "-//W3C//DTD SVG 1.1//EN" "http://www.w3.org/Graphics/SVG/1.1/DTD/svg11.dtd">
<svg version="1.1" id="Layer_1" xmlns="http://www.w3.org/2000/svg" xmlns:xlink="http://www.w3.org/1999/xlink" x="0px" y="0px"
	 width="68.354px" height="51.926px" viewBox="0 0 68.354 51.926" enable-background="new 0 0 68.354 51.926" xml:space="preserve">
<g>
	<g>
		<rect x="0.376" y="-0.037" fill="none" width="67.978" height="51.963"/>
	</g>
</g>
<g>
	<g>
		<g>
			<ellipse fill="#A7A7A7" cx="30.207" cy="22.076" rx="1.52" ry="0.773"/>
			<path fill="#A7A7A7" d="M10.627,26.993c2.375-0.085,6.154-0.16,7.462-0.162c-0.034,2.394,4.124,3.148,5.388,3.148
				c1.259,0,2.389,0,3.808,0c1.42,0,2.358-0.712,2.358-2.455c0-1.744-0.36-3.236-0.36-3.236c-0.33-0.74-1.114-0.837-2.912-0.837
				c-1.796,0-4.651,0-5.603,0c-2.324,0-2.587,0.76-2.747,1.546c-0.171-0.322-0.474-0.372-0.884-0.478
				c-0.407-0.112-5.204-1.396-6.312-1.722c-1.109-0.332-3.221-1.023-3.547,0.089c-0.32,1.118-0.827,3.086,0.834,3.086
				C8.045,26.959,8.748,27.061,10.627,26.993z M18.82,24.803c0.317-0.513,0.834-0.855,1.792-0.841
				c1.282,0.019,5.684,0.133,6.46,0.199c0.779,0.066,1.428,0.319,1.523,1.475c0.092,1.152,0.347,2.626-0.488,3.17
				c-0.829,0.543-3.906,0.421-5.122,0.288c-1.22-0.13-3.972-0.704-4.165-1.793C18.628,26.212,18.496,25.315,18.82,24.803z"/>
			<path fill="#A7A7A7" d="M43.034,39.744h17.366v-10.39H43.034V39.744z M56.001,32.427h3.721v3.081h-3.721V32.427z M56.001,35.954
				h3.721v3.082h-3.721V35.954z M51.906,32.427h3.724v3.081h-3.724V32.427z M51.906,35.954h3.724v3.082h-3.724V35.954z
				 M47.809,32.427h3.722v3.081h-3.722V32.427z M47.809,35.954h3.722v3.082h-3.722V35.954z M43.713,32.427h3.722v3.081h-3.722
				V32.427z M43.713,35.954h3.722v3.082h-3.722V35.954z"/>
			<path fill="#A7A7A7" d="M50.883,32.815c-0.023-0.056-0.045-0.083-0.069-0.083c-0.01,0-0.024,0.006-0.037,0.012
				c-0.136,0.087-0.352,0.298-0.646,0.633c-0.08,0.097-0.183,0.237-0.308,0.423c-0.124,0.186-0.201,0.315-0.229,0.389
				c-0.032,0.079-0.062,0.118-0.083,0.118c-0.018,0-0.039-0.027-0.062-0.081c-0.041-0.085-0.116-0.18-0.228-0.282
				c-0.111-0.104-0.217-0.18-0.316-0.229c-0.03-0.014-0.05-0.02-0.061-0.02c-0.016,0-0.032,0.008-0.053,0.025
				c-0.04,0.032-0.079,0.07-0.119,0.119c-0.065,0.079-0.115,0.14-0.146,0.175c-0.012,0.012-0.019,0.024-0.019,0.044
				c0,0.032,0.017,0.055,0.05,0.065c0.113,0.042,0.186,0.068,0.211,0.083c0.05,0.026,0.123,0.083,0.22,0.168
				c0.203,0.18,0.345,0.377,0.424,0.594c0.01,0.026,0.02,0.073,0.029,0.132c0.006,0.038,0.016,0.057,0.031,0.057
				c0.039,0,0.098-0.019,0.171-0.052c0.024-0.013,0.04-0.056,0.051-0.135c0.02-0.149,0.028-0.231,0.032-0.242
				c0.036-0.186,0.12-0.406,0.253-0.662c0.122-0.237,0.242-0.431,0.363-0.582c0.064-0.079,0.147-0.16,0.252-0.241
				c0.104-0.087,0.182-0.134,0.235-0.147c0.004-0.002,0.032-0.008,0.089-0.017c0.018-0.006,0.026-0.014,0.026-0.027
				c0-0.008-0.004-0.024-0.01-0.047C50.912,32.909,50.895,32.845,50.883,32.815z"/>
			<path fill="#A7A7A7" d="M58.86,36.32c-0.021-0.056-0.043-0.083-0.065-0.083c-0.012,0-0.023,0.005-0.038,0.017
				c-0.136,0.083-0.351,0.294-0.643,0.632c-0.083,0.097-0.187,0.235-0.311,0.42c-0.125,0.188-0.201,0.314-0.231,0.389
				c-0.031,0.079-0.06,0.118-0.081,0.118c-0.019,0-0.039-0.027-0.062-0.079c-0.042-0.086-0.116-0.181-0.229-0.286
				c-0.11-0.101-0.215-0.175-0.314-0.223c-0.03-0.019-0.053-0.023-0.062-0.023c-0.014,0-0.031,0.008-0.051,0.025
				c-0.04,0.034-0.079,0.073-0.118,0.12c-0.067,0.079-0.117,0.139-0.147,0.174c-0.01,0.012-0.018,0.028-0.018,0.046
				c0,0.029,0.016,0.055,0.052,0.066c0.112,0.042,0.184,0.066,0.207,0.081c0.049,0.027,0.124,0.082,0.219,0.167
				c0.207,0.181,0.348,0.379,0.427,0.595c0.01,0.026,0.021,0.07,0.029,0.132c0.004,0.038,0.017,0.056,0.031,0.056
				c0.039,0,0.097-0.018,0.172-0.052c0.021-0.01,0.039-0.053,0.049-0.132c0.019-0.151,0.03-0.234,0.032-0.244
				c0.037-0.187,0.124-0.405,0.254-0.663c0.12-0.237,0.241-0.431,0.363-0.582c0.064-0.077,0.146-0.158,0.253-0.241
				c0.103-0.085,0.181-0.132,0.233-0.146c0.004-0.002,0.033-0.009,0.089-0.017c0.021-0.006,0.027-0.015,0.027-0.027
				c0-0.011-0.004-0.025-0.01-0.05C58.892,36.416,58.874,36.353,58.86,36.32z"/>
			<path fill="#A7A7A7" d="M46.466,26.428c0.227,0,0.41-0.182,0.41-0.407V22.12c0-0.227-0.185-0.411-0.41-0.411
				s-0.411,0.184-0.411,0.411v3.901C46.055,26.247,46.24,26.428,46.466,26.428z"/>
			<path fill="#A7A7A7" d="M57.057,26.428c0.227,0,0.409-0.182,0.409-0.407V22.12c0-0.227-0.184-0.411-0.409-0.411
				s-0.408,0.184-0.408,0.411v3.901C56.649,26.247,56.832,26.428,57.057,26.428z"/>
			<path fill="#A7A7A7" d="M62.023,23.312h-2.476v-1.479c0-1.373-1.117-2.49-2.49-2.49c-1.374,0-2.491,1.118-2.491,2.49v1.479
				h-5.611v-1.479c0-1.373-1.115-2.49-2.489-2.49c-1.375,0-2.49,1.118-2.49,2.49v1.479h-2.477c-1.598,0-2.9,1.302-2.9,2.901v15.461
				c0,1.601,1.303,2.899,2.9,2.899h20.523c1.601,0,2.901-1.299,2.901-2.899V26.213C64.925,24.614,63.623,23.312,62.023,23.312z
				 M63.409,41.674c0,0.766-0.621,1.389-1.387,1.389H41.499c-0.766,0-1.387-0.623-1.387-1.389V26.213
				c0-0.766,0.621-1.388,1.387-1.388h2.477h1.513v-2.993c0-0.539,0.438-0.977,0.978-0.977c0.538,0,0.977,0.438,0.977,0.977v2.993
				h1.513h5.611h1.514v-2.993c0-0.539,0.438-0.977,0.978-0.977c0.537,0,0.979,0.438,0.979,0.977v2.993h1.512h2.476
				c0.766,0,1.387,0.622,1.387,1.388L63.409,41.674L63.409,41.674z"/>
			<path fill="#A7A7A7" d="M31.134,24.288c0,0-0.361,1.493-0.361,3.236s0.942,2.455,2.36,2.455c1.025,0,1.898,0,2.778,0v-0.787
				c-1.368,0.046-3.027-0.012-3.602-0.387c-0.834-0.544-0.578-2.018-0.487-3.17c0.095-1.155,0.742-1.408,1.521-1.475
				c0.343-0.029,1.393-0.068,2.569-0.104v-0.608c-0.663,0-1.314,0-1.865,0C32.248,23.451,31.463,23.548,31.134,24.288z"/>
		</g>
		<path fill="#A7A7A7" d="M35.91,32.499l-5.166,0.023l-10.343-0.047c-0.456-0.866-2.431-1.154-5.19-1.41
			c-2.756-0.259-4.386-0.45-5.162-0.479c-0.779-0.034-1.745-0.235-1.683,1.28c0.057,1.518,0.184,2.547,1.882,2.742
			c1.697,0.199,4.719,0.377,6.52,0.509c1.8,0.142,4.29,0.454,4.089-0.33c1.74-0.075,0.703,0.583,2.063,0.622
			c1.354,0.036,7.822,0,7.822,0s2.851,0.018,5.166,0.018L35.91,32.499L35.91,32.499z"/>
		<path fill="#A7A7A7" d="M53.066,19.162c-0.837-0.627-1.689-1.172-2.342-1.565h0.613c0.555,0,2.245,0,2.245-1.538
			c0-1.17-1.322-1.516-2.026-1.536c0,0-0.746-0.004-1.377,0c-0.398,0.004-1.212,0.012-1.255,0.825
			c-1.385-2.626-3.83-5.904-5.733-7.172c-0.669-0.443-1.484-0.458-1.492-0.458h-0.006c-4.9-0.36-11.353-0.366-11.416-0.366h-0.111
			c-0.063,0-6.523,0.006-11.396,0.367c-0.089,0-0.866,0.023-1.518,0.458c-1.919,1.277-4.384,4.585-5.761,7.223
			c-0.012-0.864-0.85-0.872-1.256-0.876c-0.631-0.004-1.375,0-1.383,0c-0.697,0.021-2.019,0.365-2.019,1.536
			c0,1.538,1.69,1.538,2.247,1.538h0.637c-1.543,0.925-4.029,2.595-5.072,4.287c-0.911,1.484-1.235,7.348-1.212,9.009
			c0.014,1.207,0.122,3.074,0.229,4.881l0.16,3.004c0.059,1.61,0.801,2.362,2.332,2.362h6.059c0.863,0,1.536-0.273,2.005-0.808
			c0.055-0.062,0.107-0.132,0.167-0.219l0.042-0.069c0.038-0.055,0.07-0.112,0.107-0.188l0.026-0.047
			c0.038-0.077,0.071-0.153,0.099-0.232l0.011-0.026c0.025-0.071,0.047-0.139,0.064-0.203l0.021-0.07
			c0.014-0.058,0.026-0.112,0.037-0.165l0.013-0.062c0.014-0.07,0.022-0.141,0.034-0.205l0.004-0.044
			c0.006-0.051,0.01-0.104,0.012-0.15c0.071,0,0.138-0.002,0.205-0.002c1.559,0,2.55,0.203,3.291,0.351
			c0.104,0.022,0.205,0.044,0.3,0.06c0.906,0.174,5.43,0.35,5.483,0.354l6.002,0.033l5.779-0.031v-1.126l-5.609,0.028l-6.148-0.03
			c-1.805-0.073-4.706-0.222-5.295-0.333c-0.093-0.021-0.19-0.04-0.302-0.062c-0.773-0.155-1.83-0.371-3.5-0.371
			c-0.254,0-0.518,0.007-0.772,0.019c-3.843-0.071-8.228-0.187-9-0.28c-0.373-0.048-0.412-0.053-0.459-0.854L4.784,35.71
			c-0.105-1.792-0.213-3.645-0.228-4.832c-0.026-2.216,0.428-7.393,1.048-8.403c1.283-2.082,5.373-4.311,5.864-4.573h37.5
			c0.249,0.132,1.406,0.761,2.671,1.629l0.058,0.037h1.91L53.066,19.162z M12.272,16.354c1.246-2.559,3.725-5.989,5.605-7.237
			c0.366-0.245,0.874-0.269,0.939-0.271c4.867-0.361,11.285-0.365,11.349-0.365h0.111c0.063,0,6.481,0.004,11.379,0.367
			c0.006,0,0.529,0.016,0.908,0.269c1.881,1.252,4.366,4.693,5.605,7.237H12.272z"/>
	</g>
</g>
</svg>
