<?xml version="1.0" encoding="utf-8"?>
<!-- Generator: Adobe Illustrator 16.0.4, SVG Export Plug-In . SVG Version: 6.00 Build 0)  -->
<!DOCTYPE svg PUBLIC "-//W3C//DTD SVG 1.1//EN" "http://www.w3.org/Graphics/SVG/1.1/DTD/svg11.dtd">
<svg version="1.1" id="Layer_1" xmlns="http://www.w3.org/2000/svg" xmlns:xlink="http://www.w3.org/1999/xlink" x="0px" y="0px"
	 width="68.354px" height="51.926px" viewBox="0 0 68.354 51.926" enable-background="new 0 0 68.354 51.926" xml:space="preserve">
<g>
	<g>
		<rect x="0.376" y="-0.037" fill="none" width="67.978" height="51.963"/>
	</g>
</g>
<g>
	<path fill="#A7A7A7" d="M54.718,38.517c-4.439-4.729-13.672-6.435-13.672-6.435L36.21,42.153l-1.119-6.535l1.234-1.58l-1.234-1.26
		h-0.791h-0.246h-0.792l-1.231,1.26l1.231,1.58l-1.12,6.535l-4.836-10.071c0,0-9.23,1.706-13.671,6.435
		c-2.024,2.161-2.984,4.332-2.984,8.636h23.402h0.246h23.4C57.7,42.849,56.745,40.678,54.718,38.517z M47.603,43.608h-5.355v-2.956
		h5.355V43.608z"/>
	<g>
		<path fill="#A7A7A7" d="M34.147,31.118c-2.813,0-5.422-1.818-6.811-4.74c-0.478-1.008-1.051-2.167-1.798-3.222
			c-1.018-1.431-1.468-3.061-1.342-4.849l0.008-0.134c0.031-0.508,0.075-1.203,0.751-1.663c0.056-0.038,0.068-0.091,0.062-0.377
			c-0.002-0.087-0.002-0.171,0-0.256c0.019-0.428,0.032-0.863,0.048-1.289c0.023-0.703,0.047-1.436,0.089-2.152
			c0.211-3.978,3.006-6.991,6.952-7.498c0.493-0.066,0.978-0.097,1.443-0.126c0.199-0.013,0.387-0.021,0.572-0.039h0.028h0.028
			c5.12,0.17,8.108,2.47,8.88,6.833c0.158,0.901,0.156,1.828,0.15,2.721c-0.002,0.38-0.006,0.77,0.006,1.15l0.002,0.047
			c0.014,0.546,0.029,0.908,0.389,1.292c0.795,0.843,0.627,1.977,0.486,2.882l-0.02,0.124c-0.281,1.896-3.693,8.054-5.211,9.414
			C37.482,30.471,35.855,31.118,34.147,31.118z M34.172,5.76c-0.181,0.016-0.367,0.027-0.563,0.039
			c-0.449,0.026-0.916,0.056-1.376,0.118c-3.458,0.442-5.907,3.089-6.096,6.574c-0.039,0.707-0.062,1.429-0.09,2.13
			c-0.014,0.434-0.03,0.868-0.045,1.299C26,15.981,26,16.047,26.004,16.109c0.007,0.321,0.02,0.864-0.496,1.216
			c-0.266,0.181-0.291,0.436-0.324,0.911l-0.009,0.144c-0.103,1.552,0.288,2.97,1.168,4.21c0.793,1.118,1.389,2.323,1.884,3.37
			c1.243,2.614,3.454,4.174,5.921,4.174c1.462,0,2.861-0.564,4.05-1.628c1.312-1.173,4.654-7.197,4.896-8.828l0.021-0.119
			c0.123-0.809,0.234-1.571-0.23-2.062c-0.621-0.656-0.639-1.339-0.658-1.942v-0.045c-0.012-0.397-0.012-0.796-0.008-1.185
			c0.004-0.893,0.01-1.732-0.133-2.547C41.4,7.893,38.81,5.923,34.172,5.76z"/>
	</g>
</g>
</svg>
