<?xml version="1.0" encoding="utf-8"?>
<!-- Generator: Adobe Illustrator 16.0.4, SVG Export Plug-In . SVG Version: 6.00 Build 0)  -->
<!DOCTYPE svg PUBLIC "-//W3C//DTD SVG 1.1//EN" "http://www.w3.org/Graphics/SVG/1.1/DTD/svg11.dtd">
<svg version="1.1" id="Layer_1" xmlns="http://www.w3.org/2000/svg" xmlns:xlink="http://www.w3.org/1999/xlink" x="0px" y="0px"
	 width="68.354px" height="51.926px" viewBox="0 0 68.354 51.926" enable-background="new 0 0 68.354 51.926" xml:space="preserve">
<g>
	<g>
		<rect x="0.376" y="-0.037" fill="none" width="67.978" height="51.963"/>
	</g>
</g>
<g>
	<ellipse fill="#A7A7A7" cx="26.793" cy="22.113" rx="1.33" ry="0.673"/>
	<path fill="#A7A7A7" d="M9.692,26.406c2.076-0.071,5.375-0.137,6.517-0.141c-0.03,2.089,3.6,2.747,4.703,2.747
		c1.1,0,2.087,0,3.328,0c1.238,0,2.059-0.618,2.059-2.148c0-1.517-0.314-2.823-0.314-2.823c-0.292-0.646-0.975-0.732-2.547-0.732
		c-1.568,0-4.062,0-4.891,0c-2.029,0-2.261,0.663-2.397,1.354c-0.15-0.286-0.413-0.326-0.773-0.419
		c-0.356-0.097-4.544-1.216-5.512-1.503c-0.973-0.29-2.815-0.895-3.095,0.077c-0.28,0.975-0.726,2.691,0.729,2.691
		C7.44,26.378,8.054,26.469,9.692,26.406z M16.849,24.496c0.277-0.444,0.729-0.745,1.562-0.734c1.12,0.017,4.964,0.119,5.647,0.174
		c0.676,0.058,1.244,0.279,1.323,1.286c0.088,1.008,0.308,2.296-0.423,2.769c-0.723,0.472-3.412,0.37-4.471,0.253
		c-1.064-0.118-3.47-0.614-3.639-1.565C16.677,25.724,16.565,24.94,16.849,24.496z"/>
	<path fill="#A7A7A7" d="M40.989,25.915c0.202,0,0.359-0.16,0.359-0.358v-3.401c0-0.202-0.157-0.362-0.359-0.362
		c-0.194,0-0.353,0.16-0.353,0.362v3.401C40.636,25.754,40.794,25.915,40.989,25.915z"/>
	<path fill="#A7A7A7" d="M50.242,25.915c0.198,0,0.354-0.16,0.354-0.358v-3.401c0-0.202-0.155-0.362-0.354-0.362
		c-0.201,0-0.358,0.16-0.358,0.362v3.401C49.884,25.754,50.041,25.915,50.242,25.915z"/>
	<path fill="#A7A7A7" d="M27.601,24.045c0,0-0.314,1.306-0.314,2.824c0,1.524,0.824,2.148,2.061,2.148c0.897,0,1.659,0,2.423,0
		V28.33c-1.19,0.04-2.638-0.012-3.145-0.334c-0.733-0.473-0.501-1.764-0.424-2.772c0.082-1.005,0.647-1.229,1.327-1.286
		c0.299-0.025,1.212-0.058,2.239-0.089V23.32c-0.576,0-1.146,0-1.623,0C28.575,23.314,27.888,23.4,27.601,24.045z"/>
	<path fill="#A7A7A7" d="M31.771,31.212l-4.507,0.022l-9.037-0.039c-0.393-0.755-2.12-1.005-4.526-1.228
		c-2.412-0.228-3.832-0.393-4.513-0.422c-0.679-0.029-1.521-0.206-1.473,1.119c0.053,1.325,0.164,2.22,1.647,2.394
		c1.488,0.174,4.123,0.326,5.694,0.446c1.574,0.12,3.748,0.392,3.574-0.293c1.513-0.063,0.611,0.51,1.797,0.545
		c1.184,0.03,6.831,0,6.831,0s2.493,0.015,4.515,0.015v-2.56H31.771z"/>
	<path fill="#A7A7A7" d="M46.753,19.57c-0.732-0.546-1.474-1.022-2.047-1.366h0.54c0.485,0,1.96,0,1.96-1.342
		c0-1.021-1.154-1.325-1.771-1.339c0,0-0.647-0.008-1.202,0c-0.345,0.002-1.059,0.005-1.095,0.719
		c-1.208-2.296-3.34-5.156-5.005-6.269c-0.58-0.385-1.296-0.396-1.303-0.396h-0.003c-4.282-0.316-9.917-0.319-9.975-0.319H26.76
		c-0.06,0-5.7,0.003-9.957,0.319c-0.076,0-0.754,0.021-1.324,0.396c-1.68,1.118-3.829,4.006-5.032,6.312
		c-0.008-0.755-0.738-0.761-1.097-0.763c-0.549-0.008-1.202,0-1.207,0c-0.611,0.014-1.761,0.319-1.761,1.339
		c0,1.342,1.476,1.342,1.959,1.342h0.562c-1.35,0.81-3.517,2.266-4.434,3.744c-0.795,1.295-1.08,6.417-1.059,7.862
		c0.014,1.06,0.109,2.686,0.203,4.268l0.138,2.617c0.054,1.414,0.7,2.065,2.039,2.065h5.291c0.754,0,1.339-0.237,1.748-0.704
		c0.05-0.053,0.094-0.113,0.147-0.19l0.036-0.058c0.03-0.05,0.06-0.103,0.095-0.169l0.021-0.041c0.032-0.063,0.06-0.133,0.087-0.197
		l0.008-0.029c0.024-0.058,0.042-0.119,0.06-0.173l0.018-0.063c0.011-0.05,0.022-0.098,0.033-0.147l0.011-0.05
		c0.008-0.061,0.02-0.121,0.026-0.183l0.004-0.03c0.007-0.047,0.01-0.091,0.013-0.135c0.062-0.003,0.12-0.003,0.179-0.003
		c1.361,0,2.227,0.177,2.874,0.31c0.093,0.018,0.182,0.03,0.265,0.05c0.788,0.148,4.742,0.304,4.787,0.309l5.238,0.03l5.045-0.03
		v-0.982l-4.892,0.03l-5.376-0.036c-1.581-0.063-4.112-0.19-4.624-0.293c-0.082-0.012-0.171-0.03-0.265-0.048
		c-0.675-0.138-1.599-0.324-3.056-0.324c-0.221,0-0.453,0.007-0.676,0.013c-3.356-0.06-7.188-0.159-7.86-0.24
		c-0.324-0.045-0.359-0.05-0.4-0.749l-0.036-0.6c-0.088-1.568-0.188-3.19-0.2-4.223c-0.029-1.937,0.373-6.456,0.918-7.336
		c1.119-1.816,4.688-3.764,5.117-3.992h32.747c0.217,0.11,1.229,0.663,2.334,1.421l0.047,0.031h1.667L46.753,19.57z M11.129,17.116
		c1.09-2.235,3.255-5.23,4.894-6.322c0.323-0.213,0.762-0.232,0.824-0.238c4.251-0.313,9.854-0.317,9.913-0.317h0.092
		c0.06,0,5.661,0.004,9.941,0.32c0.006,0,0.462,0.017,0.797,0.235c1.639,1.094,3.803,4.1,4.894,6.322H11.129z"/>
	<rect x="37.494" y="28.146" fill="#A7A7A7" width="10.911" height="2.307"/>
	<rect x="37.494" y="32.27" fill="#A7A7A7" width="8.12" height="2.304"/>
	<rect x="37.494" y="36.39" fill="#A7A7A7" width="8.12" height="2.301"/>
	<path fill="#A7A7A7" d="M59.919,38.19c-0.136,0.003-0.237-0.061-0.336-0.147c-0.735-0.664-1.478-1.326-2.221-1.989
		c-0.076-0.071-0.148-0.11-0.261-0.11c-0.427-0.011-0.818-0.306-0.951-0.688c-0.147-0.443-0.03-0.901,0.319-1.181
		c0.108-0.082,0.147-0.169,0.147-0.301c0.037-0.912,0.088-1.824,0.138-2.738c0.017-0.255,0.188-0.431,0.414-0.427
		c0.219,0.003,0.376,0.186,0.391,0.443c0.039,0.917,0.086,1.83,0.117,2.752c0.009,0.099,0.033,0.165,0.113,0.222
		c0.264,0.193,0.409,0.449,0.431,0.774c0.003,0.078,0.039,0.139,0.087,0.191c0.678,0.768,1.351,1.54,2.029,2.306
		c0.141,0.161,0.195,0.336,0.101,0.538C60.327,38.045,60.163,38.18,59.919,38.19z"/>
	<path fill="#A7A7A7" d="M57.146,42.666c-4.297-0.014-7.775-3.499-7.772-7.791c0.011-4.301,3.506-7.795,7.803-7.773
		c4.298,0.014,7.777,3.509,7.768,7.796C64.924,39.193,61.434,42.674,57.146,42.666z M63.21,34.263
		c-0.012-0.403-0.273-1.36-0.474-1.812c-0.466-1.034-1.152-1.886-2.076-2.539c-0.794-0.565-1.68-0.905-2.635-1.054
		c-0.103-0.02-0.222-0.06-0.285-0.022c-0.088,0.053-0.03,0.187-0.035,0.287c-0.019,0.251-0.192,0.472-0.4,0.524
		c-0.257,0.061-0.5-0.047-0.621-0.276c-0.066-0.138-0.066-0.289-0.063-0.436c0.005-0.089-0.022-0.116-0.113-0.11
		c-0.63,0.082-1.237,0.245-1.825,0.505c-1.032,0.464-1.869,1.165-2.521,2.09c-0.544,0.794-0.881,1.663-1.021,2.608
		c-0.017,0.092-0.061,0.216-0.021,0.285c0.044,0.074,0.179,0.018,0.272,0.018c0.259,0.023,0.487,0.2,0.539,0.413
		c0.052,0.259-0.061,0.499-0.29,0.618c-0.136,0.07-0.287,0.07-0.438,0.066c-0.079-0.009-0.106,0.015-0.097,0.097
		c0.076,0.622,0.234,1.229,0.49,1.803c0.449,1.029,1.148,1.869,2.066,2.521c0.793,0.568,1.678,0.911,2.641,1.06
		c0.091,0.014,0.217,0.06,0.281,0.017c0.081-0.05,0.022-0.184,0.033-0.278c0.021-0.254,0.185-0.48,0.396-0.53
		c0.258-0.058,0.501,0.05,0.623,0.276c0.073,0.138,0.073,0.289,0.062,0.438c-0.003,0.089,0.014,0.116,0.113,0.104
		c0.63-0.078,1.239-0.239,1.825-0.501c1.035-0.459,1.868-1.163,2.522-2.094c0.544-0.781,0.878-1.655,1.023-2.604
		c0.021-0.094,0.062-0.218,0.021-0.281c-0.044-0.074-0.183-0.016-0.271-0.024c-0.024-0.003-0.041-0.003-0.064-0.012
		c-0.303-0.05-0.497-0.269-0.489-0.556c0.004-0.267,0.197-0.466,0.491-0.516c0.087-0.014,0.173-0.014,0.259-0.012
		C63.197,34.34,63.231,34.323,63.21,34.263z"/>
	<path fill="#A7A7A7" d="M49.884,40.44H36.657c-0.671,0-1.212-0.546-1.212-1.212V25.727c0-0.668,0.544-1.212,1.212-1.212h2.159
		h1.322v-2.613c0-0.47,0.382-0.852,0.853-0.852s0.856,0.382,0.856,0.852v2.613h1.319h4.903h1.322v-2.613
		c0-0.47,0.384-0.852,0.854-0.852c0.469,0,0.852,0.382,0.852,0.852v2.613h1.323h2.159c0.671,0,1.213,0.544,1.213,1.212v0.188h1.323
		v-0.188c0-1.395-1.137-2.532-2.536-2.532h-2.157v-1.293c0-1.2-0.975-2.175-2.173-2.175c-1.205,0-2.179,0.976-2.179,2.175v1.293
		H43.17v-1.293c0-1.2-0.974-2.175-2.176-2.175c-1.198,0-2.17,0.976-2.17,2.175v1.293h-2.161c-1.397,0-2.533,1.135-2.533,2.532
		v13.501c0,1.396,1.136,2.535,2.533,2.535H49.89V40.44H49.884z"/>
</g>
</svg>
