<?xml version="1.0" encoding="utf-8"?>
<!-- Generator: Adobe Illustrator 16.0.4, SVG Export Plug-In . SVG Version: 6.00 Build 0)  -->
<!DOCTYPE svg PUBLIC "-//W3C//DTD SVG 1.1//EN" "http://www.w3.org/Graphics/SVG/1.1/DTD/svg11.dtd">
<svg version="1.1" id="Layer_1" xmlns="http://www.w3.org/2000/svg" xmlns:xlink="http://www.w3.org/1999/xlink" x="0px" y="0px"
	 width="68.354px" height="51.926px" viewBox="0 0 68.354 51.926" enable-background="new 0 0 68.354 51.926" xml:space="preserve">
<g>
	<g>
		<rect x="0.376" y="-0.037" fill="none" width="67.978" height="51.963"/>
	</g>
</g>
<g>
	<path fill="#A7A7A7" d="M48.834,41.119c0,0.687-0.563,1.248-1.251,1.248H7.17c-0.686,0-1.244-0.562-1.244-1.248V10.806
		c0-0.685,0.558-1.247,1.244-1.247h40.414c0.688,0,1.251,0.558,1.251,1.247v10.311c0.752-0.33,1.492-0.607,2.22-0.848v-9.463
		c0-1.914-1.554-3.472-3.471-3.472H7.17c-1.911,0-3.473,1.558-3.473,3.472v30.313c0,1.911,1.562,3.473,3.473,3.473h40.414
		c1.917,0,3.471-1.562,3.471-3.473V29.584c-0.763,0.224-1.504,0.481-2.22,0.778V41.119z"/>
	<rect x="11.028" y="15.68" fill="#A7A7A7" width="31.209" height="3.171"/>
	<rect x="11.14" y="23.63" fill="#A7A7A7" width="25.808" height="3.163"/>
	<rect x="11.29" y="31.606" fill="#A7A7A7" width="17.783" height="3.168"/>
	<path fill="#A7A7A7" d="M56.512,17.156l-0.023,4.033l-0.574,0.019c-1.53,0.044-6.784,0.494-10.176,4.402
		c-3.481,4.013-3.814,8.584-3.851,9.336c0.587-0.856,5.485-7.667,12.931-7.667c0.352,0,0.711,0.018,1.066,0.045l0.536,0.048
		l0.078,5.411l8.158-8.251L56.512,17.156z"/>
</g>
</svg>
