<?xml version="1.0" encoding="utf-8"?>
<!-- Generator: Adobe Illustrator 16.0.0, SVG Export Plug-In . SVG Version: 6.00 Build 0)  -->
<!DOCTYPE svg PUBLIC "-//W3C//DTD SVG 1.1//EN" "http://www.w3.org/Graphics/SVG/1.1/DTD/svg11.dtd">
<svg version="1.1" id="Layer_1" xmlns="http://www.w3.org/2000/svg" xmlns:xlink="http://www.w3.org/1999/xlink" x="0px" y="0px"
	 width="110.5px" height="84.559px" viewBox="0 0 110.5 84.559" enable-background="new 0 0 110.5 84.559" xml:space="preserve">
<g>
	<path fill="#787367" d="M99.559,16.113c-0.545-0.744-1.41-1.183-2.33-1.183H32.462c-0.125,0-0.252,0.007-0.373,0.023l-2.666-7.681
		c-0.275-0.794-0.883-1.429-1.665-1.737L14.325,0.259c-1.48-0.58-3.15,0.148-3.732,1.626c-0.582,1.48,0.146,3.15,1.625,3.735
		l12.202,4.793l14.934,43.046c-0.658,0.228-1.219,0.734-1.471,1.442l-4.318,11.995c-0.265,0.734-0.157,1.552,0.294,2.19
		c0.45,0.642,1.182,1.021,1.964,1.021h2.217c-1.375,1.53-2.217,3.542-2.217,5.756c0,4.762,3.875,8.637,8.635,8.637
		c4.762,0,8.636-3.875,8.636-8.637c0-2.214-0.844-4.229-2.218-5.756h18.829c-1.375,1.53-2.219,3.542-2.219,5.756
		c0,4.762,3.875,8.637,8.637,8.637c4.76,0,8.633-3.875,8.633-8.637c0-2.214-0.842-4.229-2.217-5.756h2.697
		c1.324,0,2.398-1.074,2.398-2.399s-1.074-2.397-2.398-2.397h-46l2.675-7.431c0.345,0.146,0.719,0.232,1.108,0.232h42.219
		c1.252,0,2.357-0.81,2.74-1.998l11.992-37.425C100.252,17.811,100.098,16.856,99.559,16.113z"/>
	
		<linearGradient id="SVGID_1_" gradientUnits="userSpaceOnUse" x1="48.9775" y1="32.7522" x2="56.6523" y2="32.7522" gradientTransform="matrix(1 0 0 -1 -8.3599 108.6138)">
		<stop  offset="0" style="stop-color:#FFFFFF"/>
		<stop  offset="1" style="stop-color:#C8C8C8"/>
	</linearGradient>
	<circle fill="url(#SVGID_1_)" cx="44.456" cy="75.862" r="3.836"/>
	
		<linearGradient id="SVGID_2_" gradientUnits="userSpaceOnUse" x1="80.6445" y1="32.7522" x2="88.3184" y2="32.7522" gradientTransform="matrix(1 0 0 -1 -8.3599 108.6138)">
		<stop  offset="0" style="stop-color:#FFFFFF"/>
		<stop  offset="1" style="stop-color:#C8C8C8"/>
	</linearGradient>
	<circle fill="url(#SVGID_2_)" cx="76.121" cy="75.862" r="3.836"/>
	
		<linearGradient id="SVGID_3_" gradientUnits="userSpaceOnUse" x1="84.8789" y1="84.6868" x2="101.6426" y2="84.6868" gradientTransform="matrix(1 0 0 -1 -8.3599 108.6138)">
		<stop  offset="0" style="stop-color:#FFFFFF"/>
		<stop  offset="1" style="stop-color:#C8C8C8"/>
	</linearGradient>
	<polygon fill="url(#SVGID_3_)" points="91.209,27.166 76.52,27.166 76.52,20.688 93.283,20.688 	"/>
	
		<linearGradient id="SVGID_4_" gradientUnits="userSpaceOnUse" x1="84.8789" y1="71.9719" x2="97.7227" y2="71.9719" gradientTransform="matrix(1 0 0 -1 -8.3599 108.6138)">
		<stop  offset="0" style="stop-color:#FFFFFF"/>
		<stop  offset="1" style="stop-color:#C8C8C8"/>
	</linearGradient>
	<polygon fill="url(#SVGID_4_)" points="86.979,40.359 76.52,40.359 76.52,32.924 89.363,32.924 	"/>
	
		<linearGradient id="SVGID_5_" gradientUnits="userSpaceOnUse" x1="65.8477" y1="71.9719" x2="79.123" y2="71.9719" gradientTransform="matrix(1 0 0 -1 -8.3599 108.6138)">
		<stop  offset="0" style="stop-color:#FFFFFF"/>
		<stop  offset="1" style="stop-color:#C8C8C8"/>
	</linearGradient>
	<rect x="57.488" y="32.924" fill="url(#SVGID_5_)" width="13.275" height="7.436"/>
	
		<linearGradient id="SVGID_6_" gradientUnits="userSpaceOnUse" x1="65.8477" y1="59.3792" x2="79.123" y2="59.3792" gradientTransform="matrix(1 0 0 -1 -8.3599 108.6138)">
		<stop  offset="0" style="stop-color:#FFFFFF"/>
		<stop  offset="1" style="stop-color:#C8C8C8"/>
	</linearGradient>
	<rect x="57.488" y="46.116" fill="url(#SVGID_6_)" width="13.275" height="6.237"/>
	
		<linearGradient id="SVGID_7_" gradientUnits="userSpaceOnUse" x1="46.6831" y1="71.9719" x2="60.0938" y2="71.9719" gradientTransform="matrix(1 0 0 -1 -8.3599 108.6138)">
		<stop  offset="0" style="stop-color:#FFFFFF"/>
		<stop  offset="1" style="stop-color:#C8C8C8"/>
	</linearGradient>
	<polygon fill="url(#SVGID_7_)" points="38.323,32.924 51.734,32.924 51.734,40.359 40.903,40.359 	"/>
	
		<linearGradient id="SVGID_8_" gradientUnits="userSpaceOnUse" x1="65.8477" y1="84.6868" x2="79.123" y2="84.6868" gradientTransform="matrix(1 0 0 -1 -8.3599 108.6138)">
		<stop  offset="0" style="stop-color:#FFFFFF"/>
		<stop  offset="1" style="stop-color:#C8C8C8"/>
	</linearGradient>
	<rect x="57.488" y="20.688" fill="url(#SVGID_8_)" width="13.275" height="6.478"/>
	
		<linearGradient id="SVGID_9_" gradientUnits="userSpaceOnUse" x1="42.4395" y1="84.6868" x2="60.0938" y2="84.6868" gradientTransform="matrix(1 0 0 -1 -8.3599 108.6138)">
		<stop  offset="0" style="stop-color:#FFFFFF"/>
		<stop  offset="1" style="stop-color:#C8C8C8"/>
	</linearGradient>
	<polygon fill="url(#SVGID_9_)" points="51.734,20.688 51.734,27.166 36.325,27.166 34.08,20.688 	"/>
	
		<linearGradient id="SVGID_10_" gradientUnits="userSpaceOnUse" x1="51.2612" y1="59.3792" x2="60.0938" y2="59.3792" gradientTransform="matrix(1 0 0 -1 -8.3599 108.6138)">
		<stop  offset="0" style="stop-color:#FFFFFF"/>
		<stop  offset="1" style="stop-color:#C8C8C8"/>
	</linearGradient>
	<polygon fill="url(#SVGID_10_)" points="42.901,46.116 51.734,46.116 51.734,52.354 45.064,52.354 	"/>
	
		<linearGradient id="SVGID_11_" gradientUnits="userSpaceOnUse" x1="84.8789" y1="59.3792" x2="93.4961" y2="59.3792" gradientTransform="matrix(1 0 0 -1 -8.3599 108.6138)">
		<stop  offset="0" style="stop-color:#FFFFFF"/>
		<stop  offset="1" style="stop-color:#C8C8C8"/>
	</linearGradient>
	<polygon fill="url(#SVGID_11_)" points="76.52,52.354 76.52,46.116 85.137,46.116 83.139,52.354 	"/>
</g>
</svg>
