<?xml version="1.0" encoding="utf-8"?>
<!-- Generator: Adobe Illustrator 16.0.0, SVG Export Plug-In . SVG Version: 6.00 Build 0)  -->
<!DOCTYPE svg PUBLIC "-//W3C//DTD SVG 1.1//EN" "http://www.w3.org/Graphics/SVG/1.1/DTD/svg11.dtd">
<svg version="1.1" id="Layer_1" xmlns="http://www.w3.org/2000/svg" xmlns:xlink="http://www.w3.org/1999/xlink" x="0px" y="0px"
	 width="110.5px" height="84.559px" viewBox="0 0 110.5 84.559" enable-background="new 0 0 110.5 84.559" xml:space="preserve">
<g>
	<line fill="none" x1="42.526" y1="61.57" x2="42.526" y2="59.065"/>
	<line fill="none" x1="31.859" y1="60.438" x2="31.859" y2="57.933"/>
	
		<linearGradient id="SVGID_1_" gradientUnits="userSpaceOnUse" x1="32.0605" y1="693.9377" x2="109.3574" y2="693.9377" gradientTransform="matrix(1 0 0 1 -16.7197 -637.7207)">
		<stop  offset="0" style="stop-color:#FFFFFF"/>
		<stop  offset="1" style="stop-color:#C8C8C8"/>
	</linearGradient>
	<path fill="url(#SVGID_1_)" d="M92.485,57.581c-0.34-6.538-9.886-8.266-9.886-8.266l-8.353,5.955h-5.302l-11.944-7.499
		c0.062-0.015,0.124-0.029,0.181-0.043c-3.13-2.474-7.454-3.259-7.454-3.259l-8.963,6.392h-5.69l-8.963-6.391
		c0,0-10.244,1.854-10.608,8.87c-0.367,7.014,0,12.003,0,12.003h21.604h1.625h7.231c0.001,0.016,0.002,2.619,0.002,2.619H70.84
		h1.515h20.132C92.485,67.963,92.827,64.116,92.485,57.581z M53.733,48.863c-1.393,0.692-3.051,1.667-4.48,2.912
		C50.541,50.451,52.214,49.51,53.733,48.863z"/>
	
		<linearGradient id="SVGID_2_" gradientUnits="userSpaceOnUse" x1="77.6494" y1="678.3342" x2="99.2705" y2="678.3342" gradientTransform="matrix(1 0 0 1 -16.7197 -637.7207)">
		<stop  offset="0" style="stop-color:#FFFFFF"/>
		<stop  offset="1" style="stop-color:#C8C8C8"/>
	</linearGradient>
	<path fill="url(#SVGID_2_)" d="M82.155,40.188c-0.891-0.422-1.902-0.898-1.902-0.898s0.758-3.233,0.566-6.106
		c-0.187-2.873-4.161-4.188-6.053-4.848c-1.892-0.66-4.162-0.66-6.055,0c-1.89,0.659-5.862,1.975-6.052,4.848
		c-0.189,2.872,0.566,6.106,0.566,6.106s-1.011,0.476-1.901,0.898c-0.891,0.42,0,3.591,0,3.591l1.901,1.976
		c0,0,3.216,7.004,5.865,7.361c2.648,0.358,2.648,0.358,5.296,0c2.648-0.357,5.865-7.361,5.865-7.361l1.9-1.976
		C82.155,43.779,83.046,40.608,82.155,40.188z"/>
	<g>
		<path fill="#777266" d="M90.386,58.109c-0.309-5.253-8.958-6.641-8.958-6.641l-7.567,4.784h-4.804l-7.567-4.784
			c0,0-8.648,1.388-8.957,6.641c-0.309,5.248,0,8.338,0,8.338h18.241h1.372h18.241C90.386,66.447,90.694,63.357,90.386,58.109z"/>
		<path fill="#777266" d="M79.961,40.166c-0.727-0.362-1.552-0.772-1.552-0.772s0.618-2.78,0.462-5.25
			c-0.153-2.47-3.397-3.603-4.941-4.169c-1.544-0.567-3.398-0.567-4.941,0c-1.544,0.567-4.788,1.699-4.942,4.169
			c-0.153,2.472,0.463,5.25,0.463,5.25s-0.825,0.41-1.553,0.772c-0.727,0.362,0,3.088,0,3.088l1.553,1.701
			c0,0,2.625,6.023,4.788,6.331c2.162,0.307,2.162,0.307,4.324,0c2.162-0.309,4.786-6.331,4.786-6.331l1.553-1.701
			C79.961,43.254,80.688,40.528,79.961,40.166z"/>
		<path opacity="0.6" fill="#C1BAAC" enable-background="new    " d="M73.86,56.252h-4.804l-7.567-4.784
			c0,0-8.648,1.388-8.957,6.641c-0.309,5.248,0,8.338,0,8.338L73.86,56.252z"/>
	</g>
	<path opacity="0.6" fill="#C1BAAC" enable-background="new    " d="M79.961,40.166c-0.727-0.362-1.552-0.772-1.552-0.772
		s0.618-2.78,0.462-5.25c-0.153-2.47-3.397-3.603-4.941-4.169c-1.544-0.567-3.398-0.567-4.941,0
		c-1.544,0.567-4.788,1.699-4.942,4.169c-0.153,2.472,0.463,5.25,0.463,5.25s-0.825,0.41-1.553,0.772c-0.727,0.362,0,3.088,0,3.088
		l1.553,1.701c0,0,2.625,6.024,4.788,6.332c2.162,0.307,2.162,0.307,4.324,0c2.162-0.309,4.786-6.332,4.786-6.332l1.553-1.701
		C79.961,43.254,80.688,40.528,79.961,40.166z M79.087,43.539l-1.285,1.407c0,0-2.173,4.985-3.964,5.244
		c-1.79,0.253-1.79,0.253-3.58,0c-1.79-0.259-3.964-5.244-3.964-5.244l-1.285-1.407c0,0-0.603-2.258,0-2.558
		c0.602-0.3,1.285-0.639,1.285-0.639s-0.512-2.302-0.383-4.348c0.128-2.045,2.813-2.983,4.091-3.453
		c1.278-0.469,2.813-0.469,4.092,0c1.277,0.47,3.963,1.407,4.091,3.453c0.129,2.046-0.385,4.348-0.385,4.348
		s0.685,0.339,1.286,0.639C79.689,41.281,79.087,43.539,79.087,43.539z"/>
	<path fill="#777266" d="M49.063,57.049c0.227-3.858,4.645-5.772,7.411-6.597c-2.741-2.826-8.005-3.672-8.005-3.672l-8.121,5.134
		h-5.155l-8.12-5.135c0,0-9.281,1.49-9.612,7.126c-0.332,5.633,0,8.949,0,8.949h19.574h1.473h10.415
		C48.902,61.377,48.924,59.422,49.063,57.049z"/>
	<path opacity="0.6" fill="#C1BAAC" enable-background="new    " d="M40.349,51.914h-5.155l-8.12-5.135c0,0-9.281,1.49-9.612,7.126
		c-0.332,5.633,0,8.949,0,8.949L40.349,51.914z"/>
	
		<linearGradient id="SVGID_3_" gradientUnits="userSpaceOnUse" x1="42.5" y1="669.9045" x2="65.7021" y2="669.9045" gradientTransform="matrix(1 0 0 1 -16.7197 -637.7207)">
		<stop  offset="0" style="stop-color:#FFFFFF"/>
		<stop  offset="1" style="stop-color:#C8C8C8"/>
	</linearGradient>
	<path fill="url(#SVGID_3_)" d="M48.558,31.727c-0.955-0.453-2.041-0.963-2.041-0.963s0.812-3.469,0.607-6.552
		c-0.2-3.083-4.466-4.495-6.494-5.202c-2.03-0.708-4.467-0.708-6.498,0c-2.028,0.707-6.291,2.119-6.494,5.202
		c-0.202,3.083,0.608,6.552,0.608,6.552s-1.085,0.511-2.041,0.963c-0.956,0.451,0,3.854,0,3.854l2.041,2.12
		c0,0,3.451,7.516,6.294,7.899c2.842,0.385,2.842,0.385,5.684,0c2.842-0.384,6.293-7.899,6.293-7.899l2.041-2.12
		C48.558,35.581,49.514,32.178,48.558,31.727z"/>
	<g>
		<path fill="#777266" d="M46.203,31.703c-0.778-0.388-1.665-0.828-1.665-0.828s0.663-2.983,0.496-5.635
			c-0.164-2.652-3.646-3.866-5.303-4.475c-1.656-0.608-3.646-0.608-5.303,0c-1.657,0.609-5.137,1.823-5.303,4.475
			s0.497,5.635,0.497,5.635s-0.886,0.439-1.666,0.828c-0.78,0.389,0,3.315,0,3.315l1.666,1.823c0,0,2.817,6.464,5.138,6.795
			c2.32,0.329,2.32,0.329,4.64,0c2.321-0.331,5.138-6.795,5.138-6.795l1.665-1.823C46.203,35.019,46.985,32.092,46.203,31.703z"/>
	</g>
	<path opacity="0.6" fill="#C1BAAC" enable-background="new    " d="M46.203,31.703c-0.778-0.388-1.665-0.828-1.665-0.828
		s0.663-2.983,0.496-5.635c-0.164-2.652-3.646-3.866-5.303-4.475c-1.656-0.608-3.646-0.608-5.303,0
		c-1.657,0.609-5.137,1.823-5.303,4.475s0.497,5.635,0.497,5.635s-0.886,0.439-1.666,0.828c-0.78,0.389,0,3.315,0,3.315l1.666,1.823
		c0,0,2.817,6.465,5.138,6.796c2.32,0.329,2.32,0.329,4.64,0c2.321-0.331,5.138-6.796,5.138-6.796l1.665-1.823
		C46.203,35.019,46.985,32.092,46.203,31.703z M45.265,35.323l-1.379,1.51c0,0-2.332,5.352-4.254,5.627
		c-1.92,0.272-1.92,0.272-3.842,0c-1.921-0.275-4.253-5.627-4.253-5.627l-1.38-1.51c0,0-0.646-2.422,0-2.744
		c0.646-0.322,1.38-0.686,1.38-0.686s-0.549-2.47-0.412-4.666c0.137-2.195,3.019-3.201,4.391-3.705c1.372-0.503,3.019-0.503,4.391,0
		c1.371,0.504,4.254,1.51,4.39,3.705c0.139,2.195-0.411,4.666-0.411,4.666s0.733,0.364,1.379,0.686
		C45.912,32.9,45.265,35.323,45.265,35.323z"/>
</g>
</svg>
