<?xml version="1.0" encoding="utf-8"?>
<!-- Generator: Adobe Illustrator 16.0.0, SVG Export Plug-In . SVG Version: 6.00 Build 0)  -->
<!DOCTYPE svg PUBLIC "-//W3C//DTD SVG 1.1//EN" "http://www.w3.org/Graphics/SVG/1.1/DTD/svg11.dtd">
<svg version="1.1" id="Layer_1" xmlns="http://www.w3.org/2000/svg" xmlns:xlink="http://www.w3.org/1999/xlink" x="0px" y="0px"
	 width="107.354px" height="84.559px" viewBox="0 0 107.354 84.559" enable-background="new 0 0 107.354 84.559"
	 xml:space="preserve">
<g>
	<g>
		<path fill="#787366" d="M59.74,5.903c4.126,4.844,8.249,9.692,12.378,14.53c0.465,0.541,0.999,0.973,1.76,1.003c0,0,0,0,0.002,0
			c0.711,0.087,1.248-0.251,1.624-0.792c0.516-0.738,0.834-1.581,1.104-2.432l0,0c0.574-1.318,1.17-2.636,1.739-3.968
			c0.162-0.372,0.79-2.22,0.87-2.78c0.159-1.081,0.007-1.428-1.047-1.745c-1.261-0.374-2.456-0.918-3.687-1.352
			c-1.028-0.372-2.108-0.619-3.104-1.086l0,0c-1.181-0.494-2.401-0.887-3.604-1.32c-2.367-0.833-4.716-1.716-7.061-2.595
			c-1.115-0.426-2.268-0.742-3.35-1.271c-0.173,0-0.344,0-0.518,0c-0.088,0.344,0.115,0.563,0.317,0.783
			C58.02,3.904,58.882,4.906,59.74,5.903z"/>
		
			<linearGradient id="SVGID_1_" gradientUnits="userSpaceOnUse" x1="64.1077" y1="96.842" x2="88.7122" y2="96.842" gradientTransform="matrix(1 0 0 -1 -8.3599 108.6138)">
			<stop  offset="0" style="stop-color:#E6E6E6"/>
			<stop  offset="0.5398" style="stop-color:#FFFFFF"/>
			<stop  offset="1" style="stop-color:#C8C8C8"/>
		</linearGradient>
		<path fill="url(#SVGID_1_)" d="M57.367,2.096c1.082,0.529,2.233,0.845,3.35,1.271c2.345,0.878,4.693,1.763,7.061,2.595
			c1.202,0.432,2.423,0.826,3.604,1.32c0.995,0.467,2.075,0.715,3.104,1.086c1.231,0.435,2.425,0.977,3.686,1.352
			c1.054,0.315,1.206,0.664,1.047,1.745c-0.079,0.56-0.706,2.408-0.87,2.78c-0.569,1.331-1.165,2.65-1.738,3.968
			c-0.271,0.851-0.591,1.693-1.105,2.432c-0.337,0.485-0.802,0.806-1.405,0.806c-0.071,0-0.145-0.004-0.219-0.014
			c-0.002,0-0.002,0-0.002,0c-0.761-0.03-1.295-0.461-1.76-1.003c-4.129-4.838-8.251-9.687-12.377-14.53
			c-0.858-0.997-1.721-2-2.574-3.024c-0.202-0.22-0.405-0.438-0.317-0.783C57.023,2.096,57.195,2.096,57.367,2.096 M57.618,1.015
			h-0.251H56.85h-0.838l-0.208,0.812c-0.233,0.907,0.32,1.513,0.558,1.771c0.833,1,1.699,2.009,2.561,3.01l4.465,5.242
			c2.635,3.097,5.271,6.193,7.908,9.284c0.485,0.565,1.268,1.316,2.501,1.38c0.104,0.01,0.203,0.016,0.304,0.016
			c0.911,0,1.727-0.451,2.295-1.271c0.604-0.865,0.961-1.829,1.23-2.666c0.227-0.523,0.458-1.046,0.69-1.571
			c0.346-0.782,0.691-1.565,1.028-2.353c0.172-0.389,0.848-2.353,0.947-3.055c0.202-1.372-0.027-2.397-1.808-2.932
			c-0.731-0.218-1.438-0.494-2.185-0.787c-0.482-0.188-0.965-0.377-1.453-0.549c-0.381-0.137-0.777-0.262-1.172-0.384
			c-0.65-0.204-1.266-0.395-1.832-0.661c-0.919-0.386-1.816-0.699-2.682-1c-0.34-0.118-0.678-0.236-1.016-0.358
			c-2.223-0.783-4.462-1.622-6.628-2.434l-0.42-0.158c-0.382-0.146-0.775-0.281-1.168-0.416c-0.734-0.253-1.428-0.492-2.084-0.812
			L57.618,1.015L57.618,1.015z"/>
	</g>
	<g>
		<path fill="#787366" d="M69.78,26.763c-0.349-0.428-0.873-0.554-1.395-0.617c-1.58-0.188-3.165-0.354-4.742-0.526
			c-1.308-0.15-2.621-0.273-3.921-0.455c-1.388-0.201-2.783-0.224-4.171-0.468c-0.83-0.148-1.689-0.151-2.536-0.265
			c-1.279-0.169-2.568-0.261-3.853-0.436c-1.4-0.185-2.818-0.329-4.227-0.468c-1.497-0.149-2.991-0.331-4.487-0.5
			c-1.168-0.137-2.332-0.252-3.498-0.411c-2.081-0.265-3.581,0.933-3.518,2.995c0.024,0.646,0.146,1.28,0.203,1.905
			c0.08,0.922,0.14,1.837,0.244,2.745c0.149,1.407,0.378,2.816,0.467,4.226c0.098,1.575,0.29,3.134,0.471,4.698
			c0.173,1.586,0.288,3.173,0.463,4.766c0.14,1.214,0.28,2.432,0.358,3.665c0.092,1.532,0.315,3.06,0.502,4.587
			c0.089,0.648,0.113,1.314,0.477,1.896c0.307,0.498,2.405,0.263,2.854-0.112c1.477-1.229,2.929-2.478,4.385-3.726
			c0.725-0.62,1.396-1.307,2.158-1.889c0.743-0.574,1.45-1.175,2.144-1.81c0,0,0,0,0-0.01c0.924-0.765,1.854-1.521,2.755-2.31
			c1.542-1.334,3.094-2.649,4.653-3.95c2.118-1.75,8.457-7.2,9.379-7.93c0.829-0.657,2.372-2.132,2.381-2.125
			c0.077-0.036,1.597-1.238,2.213-1.863C70.069,27.857,70.134,27.193,69.78,26.763z M67.167,30.021
			c0.003,0.015,0.011,0.028,0.017,0.042C67.178,30.049,67.17,30.035,67.167,30.021z"/>
		
			<linearGradient id="SVGID_2_" gradientUnits="userSpaceOnUse" x1="40.7087" y1="70.134" x2="79.4465" y2="70.134" gradientTransform="matrix(1 0 0 -1 -8.3599 108.6138)">
			<stop  offset="0" style="stop-color:#E6E6E6"/>
			<stop  offset="0.5398" style="stop-color:#FFFFFF"/>
			<stop  offset="1" style="stop-color:#C8C8C8"/>
		</linearGradient>
		<path fill="url(#SVGID_2_)" d="M36.391,22.581c0.18,0,0.369,0.013,0.56,0.037c1.167,0.158,2.331,0.273,3.498,0.411
			c1.496,0.17,2.99,0.352,4.487,0.501c1.409,0.139,2.826,0.283,4.227,0.468c1.284,0.175,2.573,0.268,3.853,0.436
			c0.846,0.114,1.706,0.117,2.536,0.265c1.388,0.245,2.783,0.268,4.171,0.468c1.3,0.182,2.613,0.305,3.921,0.455
			c1.577,0.173,3.162,0.338,4.742,0.526c0.521,0.063,1.046,0.188,1.395,0.617c0.354,0.429,0.289,1.092-0.241,1.611
			c-0.616,0.625-2.136,1.827-2.213,1.863l0,0c-0.016,0-1.555,1.469-2.381,2.125c-0.922,0.73-7.261,6.179-9.379,7.93
			c-1.559,1.301-3.111,2.617-4.653,3.951c-0.901,0.787-1.83,1.543-2.755,2.309c0,0.009,0,0.009,0,0.009
			c-0.695,0.634-1.401,1.236-2.144,1.811c-0.762,0.581-1.433,1.269-2.158,1.888c-1.456,1.249-2.908,2.499-4.385,3.726
			c-0.267,0.224-1.115,0.396-1.824,0.396c-0.484,0-0.905-0.081-1.03-0.283c-0.363-0.581-0.387-1.247-0.476-1.896
			c-0.188-1.527-0.411-3.055-0.503-4.587c-0.077-1.234-0.219-2.452-0.358-3.666c-0.175-1.592-0.291-3.177-0.464-4.765
			c-0.18-1.564-0.372-3.123-0.471-4.699c-0.09-1.41-0.318-2.818-0.467-4.225c-0.105-0.909-0.165-1.823-0.244-2.745
			c-0.057-0.625-0.179-1.26-0.203-1.906C33.377,23.74,34.606,22.581,36.391,22.581 M67.184,30.063
			c-0.006-0.014-0.014-0.027-0.017-0.042C67.17,30.035,67.178,30.049,67.184,30.063 M36.391,21.499
			c-1.186,0-2.241,0.415-2.972,1.169c-0.734,0.757-1.104,1.786-1.068,2.976c0.017,0.449,0.071,0.865,0.124,1.269
			c0.031,0.235,0.062,0.469,0.083,0.7c0.023,0.277,0.046,0.556,0.067,0.833c0.052,0.65,0.106,1.296,0.18,1.938
			c0.053,0.51,0.119,1.029,0.185,1.548c0.109,0.865,0.223,1.758,0.276,2.622c0.09,1.446,0.258,2.888,0.421,4.284l0.055,0.47
			c0.083,0.77,0.154,1.545,0.225,2.322c0.074,0.811,0.148,1.623,0.238,2.438l0.008,0.07c0.133,1.16,0.271,2.362,0.346,3.543
			c0.075,1.244,0.234,2.49,0.389,3.694l0.12,0.957l0.039,0.312c0.072,0.595,0.161,1.334,0.594,2.025
			c0.328,0.53,0.965,0.791,1.948,0.791c0.646,0,1.904-0.136,2.518-0.647c1.424-1.186,2.849-2.407,4.226-3.59l0.171-0.146
			c0.282-0.243,0.559-0.494,0.834-0.747c0.432-0.396,0.841-0.771,1.276-1.103c0.745-0.577,1.469-1.188,2.216-1.87l0.09-0.08
			l0.346-0.286c0.759-0.626,1.544-1.273,2.302-1.937c1.479-1.278,3.038-2.603,4.636-3.933c1.038-0.858,3.062-2.582,5.02-4.248
			c1.996-1.699,3.882-3.305,4.337-3.665c0.643-0.509,1.624-1.422,2.151-1.912c0.123-0.114,0.211-0.197,0.25-0.23
			c0.591-0.42,1.88-1.519,2.291-1.936c0.901-0.881,1.035-2.173,0.305-3.058c-0.598-0.736-1.437-0.923-2.1-1.001
			c-1.204-0.145-2.41-0.275-3.612-0.405l-1.143-0.125c-0.386-0.044-0.779-0.086-1.173-0.129c-0.895-0.097-1.819-0.196-2.715-0.322
			c-0.643-0.092-1.285-0.15-1.908-0.204c-0.772-0.066-1.501-0.131-2.227-0.258c-0.522-0.094-1.042-0.134-1.543-0.173
			c-0.346-0.027-0.692-0.053-1.036-0.099c-0.631-0.083-1.263-0.149-1.893-0.214c-0.653-0.067-1.306-0.134-1.957-0.223
			c-1.38-0.182-2.75-0.321-4.267-0.472c-1.076-0.107-2.15-0.231-3.226-0.356l-1.245-0.143c-0.391-0.045-0.785-0.09-1.179-0.134
			c-0.766-0.085-1.531-0.17-2.297-0.273C36.852,21.515,36.618,21.499,36.391,21.499L36.391,21.499z"/>
	</g>
	<g>
		<path fill="#787366" d="M49.205,72.021c0.626-0.646,3.11-2.913,3.664-3.461c1.251-1.241,1.091-2.404-0.416-3.312
			c0,0,0,0-0.003,0.003c-0.234-0.204-0.532-0.23-0.812-0.312c-0.774-0.23-1.55-0.446-2.326-0.676
			c-2.157-0.616-9.394-2.7-10.859-3.123c0,0.003,0,0.003,0,0.003c-1.301-0.426-2.647-0.307-3.981-0.256h-0.002
			c-0.115-0.01-0.247-0.027-0.357-0.018c-1.892,0.247-3.682,0.86-5.483,1.443c0,0,0,0,0,0.002c-1.236,0.319-2.453,0.674-3.665,1.077
			l0,0c-1.238,0.358-2.475,0.717-3.706,1.085c-0.298,0.087-0.598,0.199-0.837,0.395c-0.002,0-0.002,0-0.005,0
			c-1.201,0.561-1.26,0.897-0.261,1.733c0.012,0.01,0.025,0.027,0.042,0.043c2.724,2.277,5.444,4.556,8.165,6.831
			c2.76,2.314,5.521,4.627,8.291,6.924c1.366,1.144,2.44,1.149,3.787,0.036c1.6-1.321,3.032-2.826,4.529-4.253
			C46.39,74.81,47.822,73.442,49.205,72.021z"/>
		
			<linearGradient id="SVGID_3_" gradientUnits="userSpaceOnUse" x1="26.7327" y1="37.5901" x2="63.1497" y2="37.5901" gradientTransform="matrix(1 0 0 -1 -8.3599 108.6138)">
			<stop  offset="0" style="stop-color:#E6E6E6"/>
			<stop  offset="0.5398" style="stop-color:#FFFFFF"/>
			<stop  offset="1" style="stop-color:#C8C8C8"/>
		</linearGradient>
		<path fill="url(#SVGID_3_)" d="M36.155,60.83c0.773,0,1.542,0.063,2.295,0.311c0,0,0,0,0-0.003
			c1.467,0.423,8.704,2.505,10.86,3.123c0.777,0.229,1.553,0.445,2.327,0.676c0.281,0.082,0.579,0.108,0.812,0.312
			c0.003-0.003,0.003-0.003,0.003-0.003c1.507,0.909,1.668,2.07,0.416,3.312c-0.554,0.548-3.038,2.815-3.664,3.46
			c-1.383,1.422-2.815,2.79-4.238,4.166c-1.497,1.426-2.929,2.932-4.529,4.253c-0.667,0.552-1.268,0.829-1.87,0.829
			c-0.613,0-1.228-0.288-1.917-0.865c-2.77-2.297-5.531-4.61-8.291-6.924c-2.721-2.276-5.441-4.554-8.166-6.831
			c-0.016-0.016-0.029-0.033-0.042-0.043c-0.997-0.835-0.939-1.173,0.262-1.733c0.003,0,0.003,0,0.005,0
			c0.24-0.197,0.54-0.308,0.836-0.395c1.231-0.368,2.468-0.727,3.706-1.085c1.211-0.403,2.429-0.758,3.664-1.077
			c0-0.002,0-0.002,0-0.002c1.801-0.583,3.592-1.196,5.483-1.443c0.023-0.002,0.047-0.003,0.071-0.003
			c0.093,0,0.194,0.014,0.286,0.021h0.002C35.032,60.864,35.594,60.83,36.155,60.83 M37.368,59.7v0.111
			c-0.462-0.054-0.881-0.063-1.213-0.063l0,0l0,0c-0.429,0-0.856,0.02-1.285,0.037l-0.374,0.016h-0.002
			c-0.104-0.01-0.211-0.019-0.312-0.019c-0.061,0-0.119,0.003-0.174,0.009c-1.88,0.244-3.614,0.809-5.293,1.354l-0.419,0.137h-0.001
			c-1.285,0.335-2.486,0.688-3.671,1.081c-1.201,0.347-2.439,0.706-3.674,1.075c-0.311,0.091-0.71,0.229-1.08,0.492
			c-0.52,0.245-1.367,0.687-1.483,1.569c-0.118,0.908,0.62,1.551,1.042,1.906l0.073,0.067l4.143,3.466l4.022,3.365
			c2.76,2.315,5.523,4.63,8.293,6.929c0.896,0.746,1.75,1.113,2.608,1.113c0.846,0,1.683-0.353,2.558-1.077
			c1.172-0.968,2.259-2.032,3.31-3.062c0.425-0.417,0.848-0.832,1.278-1.241l0.618-0.597c1.206-1.164,2.454-2.366,3.649-3.596
			c0.351-0.361,1.388-1.327,2.223-2.104c0.63-0.586,1.195-1.111,1.428-1.341c0.867-0.862,1.249-1.759,1.142-2.669
			c-0.109-0.907-0.691-1.689-1.731-2.322c-0.104-0.077-0.208-0.139-0.312-0.188l-0.44-0.268l-0.082,0.083
			c-0.039-0.011-0.077-0.021-0.112-0.027c-0.051-0.012-0.102-0.024-0.151-0.039c-0.396-0.116-0.798-0.232-1.198-0.348
			c-0.375-0.107-0.75-0.215-1.126-0.327c-2.165-0.619-9.4-2.702-10.867-3.126l-0.134-0.038c-0.026-0.008-0.053-0.016-0.08-0.022
			L37.368,59.7L37.368,59.7z"/>
	</g>
	<g>
		<path fill="#787366" d="M79.556,59.227c0.196-0.369,0.365-0.747,0.38-1.188c0.024-0.574-0.34-0.911-0.92-0.827
			c-0.437,0.063-0.838,0.229-1.238,0.417c-1.176,0.55-2.366,1.082-3.545,1.637c-2.737,1.292-5.476,2.561-8.22,3.85l0,0
			c-1.187,0.474-2.364,0.977-3.461,1.616c-0.838,0.493-1.383,1.241-1.428,2.27l0,0c-0.154,0.778,0.062,1.478,0.44,2.131
			c0.479,0.807,0.978,1.613,1.466,2.405c1.386,2.253,2.778,4.505,4.161,6.747c0.062,0.121,0.118,0.256,0.196,0.364
			c0.698,1.035,1.497,0.819,2.079-0.473C70.049,76.883,76.61,64.787,79.556,59.227z"/>
		
			<linearGradient id="SVGID_4_" gradientUnits="userSpaceOnUse" x1="68.3518" y1="40.363" x2="89.3801" y2="40.363" gradientTransform="matrix(1 0 0 -1 -8.3599 108.6138)">
			<stop  offset="0" style="stop-color:#E6E6E6"/>
			<stop  offset="0.5398" style="stop-color:#FFFFFF"/>
			<stop  offset="1" style="stop-color:#C8C8C8"/>
		</linearGradient>
		<path fill="url(#SVGID_4_)" d="M79.185,57.199c0.479,0,0.774,0.325,0.751,0.84c-0.015,0.439-0.184,0.818-0.38,1.188
			c-2.948,5.562-9.507,17.656-10.089,18.949c-0.335,0.741-0.74,1.128-1.156,1.128c-0.31,0-0.625-0.214-0.923-0.655
			c-0.077-0.108-0.135-0.243-0.196-0.364c-1.382-2.242-2.773-4.494-4.161-6.747c-0.488-0.791-0.986-1.599-1.466-2.405
			c-0.38-0.653-0.595-1.353-0.44-2.131c0.045-1.027,0.59-1.776,1.428-2.27c1.098-0.64,2.275-1.143,3.461-1.616
			c2.743-1.288,5.481-2.557,8.22-3.85c1.18-0.555,2.369-1.087,3.545-1.637c0.399-0.188,0.8-0.354,1.238-0.417
			C79.075,57.203,79.131,57.199,79.185,57.199 M79.185,56.117c-0.104,0-0.21,0.009-0.323,0.023c-0.595,0.088-1.112,0.308-1.544,0.51
			c-0.557,0.26-1.119,0.519-1.683,0.776c-0.621,0.285-1.243,0.569-1.864,0.861c-1.575,0.743-3.151,1.479-4.727,2.216
			c-1.152,0.538-2.309,1.077-3.462,1.619c-1.167,0.468-2.406,0.993-3.575,1.674c-1.186,0.698-1.877,1.787-1.959,3.076
			c-0.162,0.932,0.027,1.85,0.583,2.803c0.488,0.821,0.989,1.634,1.481,2.429c0.857,1.395,1.718,2.79,2.578,4.184l1.555,2.52
			l0.019,0.037c0.06,0.122,0.132,0.273,0.243,0.428c0.615,0.916,1.323,1.111,1.805,1.111c0.615,0,1.485-0.307,2.143-1.765
			c0.349-0.778,3.229-6.142,5.771-10.873c1.599-2.982,3.191-5.947,4.287-8.014c0.236-0.445,0.482-0.993,0.505-1.657
			c0.023-0.546-0.154-1.052-0.502-1.414C80.18,56.311,79.707,56.117,79.185,56.117L79.185,56.117z"/>
	</g>
	<g>
		<path fill="#787366" d="M33.089,46.526c-0.183-1.562-0.382-3.12-0.508-4.688c-0.056-0.82-0.136-1.633-0.234-2.436
			c-0.143-1.244-0.304-2.474-0.394-3.716c-0.058-0.817-0.124-1.624-0.234-2.432c-0.214-1.614-0.333-3.238-0.502-4.852
			c-0.087-0.888-0.087-1.81-0.42-2.659c-0.252-0.668-0.814-1.034-1.513-1.066c-0.887-0.033-1.482,0.537-2.119,1.003
			c-2.475,1.812-4.953,3.634-7.403,5.485c-0.815,0.615-2.974,2.224-3.241,2.421c-1.848,1.396-1.994,3.318-0.342,4.924
			c1.248,1.208,2.518,2.396,3.771,3.602c1.87,1.8,3.742,3.58,5.599,5.385c1.586,1.535,3.144,3.096,4.755,4.612
			c0.564,0.534,1.083,1.123,1.75,1.55c0.392,0.247,0.804,0.449,1.197-0.012c0.301-0.255,0.372-0.589,0.393-0.963
			c0.036-0.856-0.123-1.7-0.227-2.538C33.262,48.943,33.227,47.726,33.089,46.526z"/>
		
			<linearGradient id="SVGID_5_" gradientUnits="userSpaceOnUse" x1="22.3088" y1="69.3157" x2="43.0901" y2="69.3157" gradientTransform="matrix(1 0 0 -1 -8.3599 108.6138)">
			<stop  offset="0" style="stop-color:#E6E6E6"/>
			<stop  offset="0.5398" style="stop-color:#FFFFFF"/>
			<stop  offset="1" style="stop-color:#C8C8C8"/>
		</linearGradient>
		<path fill="url(#SVGID_5_)" d="M29.209,24.677c0.024,0,0.05,0,0.073,0.001c0.698,0.033,1.26,0.399,1.513,1.066
			c0.333,0.849,0.333,1.771,0.42,2.659c0.17,1.614,0.288,3.239,0.502,4.852c0.111,0.807,0.176,1.614,0.234,2.432
			c0.09,1.242,0.25,2.472,0.394,3.716c0.097,0.803,0.179,1.616,0.234,2.436c0.126,1.567,0.324,3.125,0.507,4.688
			c0.14,1.199,0.175,2.416,0.327,3.62c0.104,0.837,0.263,1.682,0.227,2.538c-0.022,0.374-0.092,0.707-0.393,0.963
			c-0.172,0.201-0.347,0.276-0.521,0.276c-0.227,0-0.455-0.125-0.676-0.265c-0.667-0.427-1.185-1.015-1.75-1.55
			c-1.611-1.516-3.168-3.077-4.755-4.612c-1.857-1.804-3.729-3.584-5.599-5.385c-1.253-1.206-2.524-2.393-3.771-3.602
			c-1.652-1.605-1.506-3.529,0.342-4.925c0.267-0.196,2.426-1.804,3.241-2.42c2.45-1.85,4.929-3.673,7.403-5.486
			C27.783,25.227,28.363,24.677,29.209,24.677 M29.209,23.595c-1.091,0-1.837,0.569-2.437,1.027
			c-0.083,0.062-0.165,0.125-0.248,0.187c-2.508,1.837-4.961,3.641-7.416,5.494c-0.812,0.613-2.963,2.216-3.229,2.412
			c-1.189,0.897-1.849,2.005-1.924,3.21c-0.074,1.193,0.434,2.355,1.469,3.36c0.687,0.667,1.379,1.323,2.074,1.982
			c0.567,0.54,1.136,1.079,1.7,1.622c0.668,0.643,1.336,1.283,2.004,1.924c1.2,1.148,2.398,2.299,3.591,3.455
			c0.566,0.549,1.126,1.098,1.687,1.646c1.001,0.981,2.036,1.995,3.081,2.979c0.13,0.123,0.26,0.249,0.389,0.379
			c0.452,0.448,0.919,0.913,1.521,1.295c0.343,0.217,0.756,0.435,1.258,0.435c0.343,0,0.839-0.105,1.287-0.592
			c0.578-0.531,0.68-1.202,0.708-1.666c0.034-0.789-0.067-1.514-0.165-2.216c-0.023-0.173-0.048-0.346-0.069-0.518
			c-0.077-0.608-0.122-1.214-0.17-1.856c-0.043-0.572-0.088-1.165-0.156-1.755l-0.104-0.891c-0.146-1.233-0.298-2.509-0.398-3.759
			c-0.053-0.786-0.132-1.6-0.239-2.479l-0.091-0.78c-0.117-0.992-0.227-1.927-0.297-2.884c-0.057-0.795-0.125-1.65-0.242-2.5
			c-0.135-1.025-0.235-2.087-0.332-3.115c-0.054-0.569-0.108-1.137-0.167-1.704c-0.016-0.169-0.031-0.349-0.044-0.527
			c-0.057-0.745-0.123-1.59-0.445-2.414c-0.392-1.038-1.316-1.698-2.468-1.753H29.209L29.209,23.595z"/>
	</g>
	<g>
		<path fill="#787366" d="M53.423,62.874c2.004,0.729,4.422-0.418,5.222-2.357c1.555-3.745,3.187-7.479,4.77-11.232
			c1.059-2.533,2.196-5.027,3.178-7.591c0.571-1.506,3.477-7.778,3.916-9.587c-0.087-0.578-0.354-0.686-0.944-0.298
			c-0.867,0.574-1.639,1.245-2.376,1.971c-0.063,0.039-0.119,0.062-0.165,0.11c-2.935,2.477-5.863,4.958-8.792,7.438
			c-1.414,1.2-7.51,6.399-9.161,7.776c-1.959,1.644-3.906,3.3-5.849,4.953c-0.886,0.752-1.794,1.485-2.631,2.301
			c-1.018,0.984-0.729,2.31,0.574,2.854c0.367,0.153,3.65,1.118,4.912,1.476C47.253,61.022,52.173,62.407,53.423,62.874z"/>
		
			<linearGradient id="SVGID_6_" gradientUnits="userSpaceOnUse" x1="47.2546" y1="61.2756" x2="79.9661" y2="61.2756" gradientTransform="matrix(1 0 0 -1 -8.3599 108.6138)">
			<stop  offset="0" style="stop-color:#E6E6E6"/>
			<stop  offset="0.5398" style="stop-color:#FFFFFF"/>
			<stop  offset="1" style="stop-color:#C8C8C8"/>
		</linearGradient>
		<path fill="url(#SVGID_6_)" d="M70.121,31.58c0.216,0,0.335,0.178,0.387,0.527c-0.439,1.809-3.345,8.081-3.916,9.587
			c-0.98,2.562-2.119,5.058-3.178,7.591c-1.583,3.753-3.215,7.487-4.77,11.232c-0.635,1.538-2.288,2.578-3.943,2.578
			c-0.432,0-0.864-0.069-1.278-0.221c-1.25-0.467-6.17-1.853-7.349-2.186c-1.262-0.357-4.544-1.323-4.911-1.476
			c-1.304-0.545-1.594-1.869-0.574-2.854c0.835-0.815,1.745-1.548,2.631-2.301c1.943-1.652,3.89-3.311,5.849-4.953
			c1.651-1.375,7.748-6.575,9.161-7.776c2.929-2.479,5.857-4.962,8.791-7.438c0.047-0.047,0.104-0.071,0.166-0.11
			c0.738-0.726,1.51-1.397,2.376-1.971C69.797,31.656,69.981,31.58,70.121,31.58 M70.121,30.499c-0.362,0-0.728,0.129-1.149,0.406
			c-0.812,0.539-1.59,1.177-2.443,2.009c-0.068,0.041-0.148,0.096-0.229,0.17c-2.308,1.95-4.614,3.903-6.918,5.854l-1.849,1.565
			l-1.943,1.654c-2.39,2.033-6.001,5.108-7.21,6.115c-1.824,1.529-3.632,3.066-5.438,4.604l-0.42,0.356l-0.56,0.473
			c-0.707,0.594-1.438,1.207-2.126,1.879c-0.737,0.712-1.064,1.642-0.896,2.542c0.173,0.917,0.833,1.677,1.808,2.085
			c0.492,0.204,4.147,1.268,5.034,1.518l0.213,0.061c3.92,1.108,6.293,1.816,7.052,2.099c0.531,0.193,1.084,0.289,1.656,0.289
			c2.122,0,4.155-1.334,4.943-3.248c0.908-2.186,1.862-4.413,2.784-6.565c0.662-1.552,1.328-3.103,1.983-4.658
			c0.363-0.87,0.734-1.733,1.104-2.594c0.705-1.636,1.433-3.326,2.084-5.028c0.181-0.477,0.624-1.494,1.14-2.673
			c1.113-2.559,2.501-5.744,2.817-7.047l0.049-0.205l-0.029-0.21C71.37,30.57,70.328,30.499,70.121,30.499L70.121,30.499z"/>
	</g>
	<g>
		<path fill="#787366" d="M41.046,13.881c-0.589,0.542-1.203,1.051-1.786,1.596c-0.81,0.762-1.637,1.51-2.41,2.315
			c-0.866,0.901-0.586,1.891,0.598,2.292c0.099,0.036,0.201,0.086,0.301,0.09c1.271,0.151,2.542,0.28,3.819,0.435
			c1.131,0.125,2.268,0.264,3.408,0.38c1.063,0.11,2.113,0.301,3.186,0.342c0.226,0.025,0.452,0.05,0.676,0.076
			c1.254,0.153,2.512,0.312,3.759,0.45c1.741,0.198,3.483,0.379,5.221,0.572c1.409,0.155,2.832,0.318,4.238,0.486
			c1.778,0.203,3.556,0.417,5.334,0.598c0.661,0.067,1.336,0.251,2.013,0.037c0.676-0.204,0.948-0.698,0.695-1.36
			c-0.174-0.44-0.462-0.812-0.776-1.167c-1.17-1.352-2.35-2.691-3.495-4.054c-1.15-1.349-2.245-2.739-3.382-4.093
			c-1.816-2.163-3.654-4.323-5.497-6.484c-0.777-0.928-1.565-1.86-2.392-2.759c-0.604-0.655-1.184-0.748-1.801-0.388
			C52.497,3.325,52.293,3.49,52.1,3.66c-1.629,1.489-3.256,2.978-4.87,4.472C45.163,10.047,43.11,11.968,41.046,13.881z"/>
		
			<linearGradient id="SVGID_7_" gradientUnits="userSpaceOnUse" x1="43.6218" y1="95.2698" x2="79.6331" y2="95.2698" gradientTransform="matrix(1 0 0 -1 -8.3599 108.6138)">
			<stop  offset="0" style="stop-color:#E6E6E6"/>
			<stop  offset="0.5398" style="stop-color:#FFFFFF"/>
			<stop  offset="1" style="stop-color:#C8C8C8"/>
		</linearGradient>
		<path fill="url(#SVGID_7_)" d="M53.445,3.037c0.37,0,0.736,0.19,1.109,0.596c0.826,0.899,1.614,1.83,2.392,2.759
			c1.843,2.161,3.681,4.32,5.497,6.484c1.137,1.354,2.23,2.745,3.382,4.093c1.146,1.363,2.325,2.704,3.495,4.055
			c0.313,0.354,0.603,0.726,0.776,1.167c0.253,0.663-0.02,1.158-0.695,1.36c-0.235,0.074-0.471,0.101-0.705,0.101
			c-0.439,0-0.877-0.093-1.308-0.137c-1.779-0.181-3.556-0.396-5.334-0.598c-1.406-0.167-2.83-0.331-4.238-0.486
			c-1.737-0.192-3.479-0.374-5.221-0.571c-1.247-0.137-2.505-0.297-3.759-0.45c-0.224-0.026-0.449-0.051-0.676-0.076
			c-1.072-0.042-2.122-0.234-3.185-0.342c-1.141-0.116-2.277-0.256-3.408-0.38c-1.278-0.155-2.549-0.284-3.819-0.435
			c-0.101-0.003-0.203-0.054-0.301-0.09c-1.184-0.401-1.464-1.39-0.598-2.292c0.774-0.806,1.6-1.554,2.41-2.315
			c0.583-0.545,1.197-1.054,1.786-1.596c2.064-1.914,4.117-3.833,6.183-5.748c1.614-1.493,3.242-2.981,4.871-4.472
			c0.193-0.171,0.397-0.336,0.654-0.416C52.988,3.108,53.217,3.037,53.445,3.037 M53.445,1.956c-0.382,0-0.763,0.101-1.136,0.299
			c-0.391,0.149-0.688,0.385-0.93,0.601l-0.148,0.135c-1.583,1.448-3.167,2.896-4.736,4.348c-1.131,1.049-2.259,2.099-3.386,3.148
			c-0.932,0.867-1.863,1.734-2.797,2.602c-0.263,0.241-0.535,0.479-0.806,0.717c-0.331,0.289-0.662,0.58-0.983,0.879l-0.519,0.486
			c-0.641,0.598-1.305,1.216-1.934,1.871c-0.675,0.703-0.94,1.525-0.747,2.317c0.193,0.793,0.842,1.431,1.777,1.749
			c0.13,0.052,0.316,0.124,0.549,0.143c0.597,0.071,1.193,0.137,1.792,0.203c0.663,0.074,1.329,0.148,1.996,0.227l1.245,0.142
			c0.727,0.083,1.454,0.168,2.184,0.242c0.362,0.038,0.726,0.086,1.088,0.133c0.685,0.09,1.394,0.183,2.123,0.212l0.251,0.028
			l0.378,0.043l0.995,0.123c0.927,0.113,1.854,0.228,2.775,0.33c0.982,0.111,1.966,0.217,2.95,0.323
			c0.757,0.083,1.514,0.164,2.271,0.249c1.405,0.154,2.825,0.317,4.229,0.485l1.383,0.158c1.323,0.152,2.645,0.306,3.967,0.44
			c0.131,0.014,0.265,0.033,0.397,0.052c0.307,0.043,0.653,0.092,1.021,0.092c0.373,0,0.71-0.049,1.033-0.152
			c0.789-0.238,1.171-0.718,1.349-1.079c0.173-0.355,0.32-0.939,0.027-1.7c-0.247-0.629-0.633-1.11-0.978-1.498l-0.897-1.035
			c-0.867-0.996-1.731-1.99-2.578-2.999c-0.644-0.753-1.266-1.515-1.884-2.275c-0.498-0.608-0.994-1.216-1.498-1.817
			c-1.817-2.166-3.657-4.327-5.503-6.49c-0.747-0.893-1.557-1.853-2.416-2.788C54.772,2.273,54.131,1.956,53.445,1.956L53.445,1.956
			z"/>
	</g>
	<g>
		<path fill="#787366" d="M64.383,78.709C64.389,78.709,64.389,78.709,64.383,78.709c-0.237-0.413-0.455-0.842-0.705-1.254
			c-1.229-1.994-2.418-4.007-3.625-6.015c-0.438-0.735-0.835-1.515-1.636-1.956c-0.907-0.599-2.106-0.552-3.038,0.191
			c-0.877,0.7-1.653,1.522-2.442,2.323c-1.843,1.779-8.342,7.967-9.674,9.351c-0.217,0.223-0.463,0.485-0.288,0.832
			c0.157,0.285,0.489,0.282,0.786,0.282c7.15,0,14.299,0,21.45-0.004c0.705,0,0.95-0.329,0.705-1.002
			C65.563,80.459,65.048,79.54,64.383,78.709z"/>
		
			<linearGradient id="SVGID_8_" gradientUnits="userSpaceOnUse" x1="50.1912" y1="32.8459" x2="75.4504" y2="32.8459" gradientTransform="matrix(1 0 0 -1 -8.3599 108.6138)">
			<stop  offset="0" style="stop-color:#E6E6E6"/>
			<stop  offset="0.5398" style="stop-color:#FFFFFF"/>
			<stop  offset="1" style="stop-color:#C8C8C8"/>
		</linearGradient>
		<path fill="url(#SVGID_8_)" d="M57.05,69.073c0.481,0.001,0.955,0.14,1.369,0.412c0.799,0.44,1.195,1.221,1.635,1.956
			c1.206,2.008,2.396,4.021,3.626,6.015c0.249,0.412,0.468,0.841,0.704,1.254c0.665,0.831,1.18,1.75,1.533,2.748
			c0.245,0.673,0,1.002-0.705,1.002c-7.151,0.004-14.3,0.004-21.45,0.004c-0.006,0-0.013,0-0.019,0
			c-0.293,0-0.613-0.004-0.766-0.282c-0.175-0.346,0.072-0.608,0.289-0.833c1.331-1.382,7.831-7.569,9.675-9.35
			c0.789-0.801,1.564-1.623,2.441-2.324C55.887,69.271,56.473,69.073,57.05,69.073 M64.387,78.709c0,0-0.001,0-0.004,0
			C64.386,78.709,64.387,78.709,64.387,78.709 M57.05,67.991L57.05,67.991c-0.846,0-1.657,0.29-2.345,0.839
			c-0.811,0.646-1.527,1.378-2.22,2.087l-0.317,0.322c-0.488,0.473-1.348,1.295-2.354,2.26c-2.68,2.566-6.349,6.082-7.33,7.101
			c-0.664,0.681-0.824,1.378-0.473,2.071c0.483,0.873,1.389,0.873,1.73,0.873c7.169,0,14.318,0,21.469-0.003
			c0.907,0,1.371-0.388,1.598-0.713c0.229-0.325,0.434-0.892,0.125-1.74c-0.381-1.07-0.937-2.077-1.652-2.987
			c-0.08-0.141-0.158-0.284-0.236-0.427c-0.144-0.261-0.286-0.522-0.44-0.778c-0.903-1.466-1.78-2.935-2.659-4.402l-0.966-1.61
			l-0.129-0.22c-0.431-0.734-0.921-1.565-1.872-2.104C58.401,68.188,57.736,67.992,57.05,67.991L57.05,67.991z"/>
	</g>
	<g>
		<path fill="#787366" d="M87.052,61.989L87.052,61.989c-0.503-1.006-1.012-2.021-1.523-3.019c-0.069-0.158-0.202-0.286-0.308-0.422
			c-0.555-0.686-1.728-0.75-2.32-0.049c-0.252,0.298-0.451,0.605-0.64,0.949c-1.616,3.071-3.235,6.149-4.86,9.215
			c-0.812,1.542-1.604,3.075-2.412,4.612c-0.715,1.233-1.38,2.483-1.979,3.779c-0.07,0.146-0.124,0.326-0.152,0.495
			c-0.038,0.364,0.14,0.499,0.465,0.331c0.276-0.139,0.535-0.326,0.777-0.525c2.766-2.305,5.523-4.615,8.285-6.924
			c1.656-1.401,3.329-2.797,4.989-4.191c0.503-0.426,0.899-0.894,0.724-1.613C87.875,63.704,87.564,62.812,87.052,61.989z"/>
		
			<linearGradient id="SVGID_9_" gradientUnits="userSpaceOnUse" x1="80.1292" y1="40.636" x2="97.5803" y2="40.636" gradientTransform="matrix(1 0 0 -1 -8.3599 108.6138)">
			<stop  offset="0" style="stop-color:#E6E6E6"/>
			<stop  offset="0.5398" style="stop-color:#FFFFFF"/>
			<stop  offset="1" style="stop-color:#C8C8C8"/>
		</linearGradient>
		<path fill="url(#SVGID_9_)" d="M84.022,58.003c0.455,0,0.911,0.189,1.198,0.546c0.106,0.136,0.238,0.264,0.308,0.422
			c0.513,0.998,1.021,2.013,1.522,3.019c0.513,0.823,0.824,1.716,1.047,2.637c0.176,0.72-0.221,1.188-0.724,1.613
			c-1.66,1.395-3.333,2.79-4.989,4.191c-2.762,2.31-5.52,4.619-8.285,6.924c-0.242,0.2-0.501,0.387-0.777,0.525
			c-0.094,0.05-0.176,0.071-0.243,0.071c-0.167,0-0.249-0.143-0.222-0.402c0.027-0.169,0.081-0.349,0.152-0.495
			c0.6-1.296,1.265-2.546,1.979-3.779c0.807-1.537,1.6-3.07,2.412-4.612c1.625-3.065,3.244-6.144,4.86-9.215
			c0.188-0.344,0.387-0.651,0.64-0.949C83.185,58.163,83.602,58.003,84.022,58.003 M84.022,56.921c-0.765,0-1.475,0.321-1.948,0.882
			c-0.278,0.329-0.521,0.688-0.761,1.127l-0.274,0.518c-1.526,2.903-3.058,5.812-4.594,8.709c-0.474,0.898-0.938,1.788-1.401,2.681
			l-1.012,1.938c-0.767,1.316-1.43,2.582-2.005,3.826c-0.106,0.22-0.193,0.502-0.239,0.776l-0.004,0.03l-0.003,0.031
			c-0.062,0.591,0.149,0.965,0.338,1.174c0.245,0.271,0.586,0.422,0.959,0.422c0.244,0,0.492-0.064,0.739-0.192
			c0.307-0.154,0.619-0.363,0.97-0.654c2.248-1.872,4.487-3.747,6.729-5.62l1.562-1.307c1.133-0.959,2.269-1.912,3.402-2.862
			l1.589-1.331c0.396-0.336,1.437-1.221,1.078-2.696c-0.28-1.159-0.648-2.087-1.152-2.908c-0.494-0.989-0.992-1.986-1.496-2.966
			c-0.112-0.235-0.254-0.406-0.36-0.531l-0.065-0.077C85.582,57.276,84.82,56.921,84.022,56.921L84.022,56.921z"/>
	</g>
	<g>
		<path fill="#787366" d="M77.796,22.029c-0.391,1.328-0.131,2.568,0.893,3.581c0.95,0.98,9.182,4.424,12.095,5.682
			c0.214,0.093,0.463,0.149,0.702,0.175c0.608,0.066,0.884-0.3,0.66-0.866c-0.062-0.163-0.148-0.312-0.231-0.463
			c-0.599-1.042-1.197-2.084-1.801-3.126c-1.083-1.854-2.171-3.714-3.259-5.569c-1.439-2.518-2.886-5.033-4.333-7.54
			c-0.144-0.25-0.228-0.547-0.5-0.71l0,0c-0.336-0.239-0.479,0.044-0.592,0.262c-0.367,0.688-0.674,1.405-0.921,2.148l0,0
			c-0.494,1.021-0.936,2.067-1.331,3.132C78.651,19.793,78.133,20.883,77.796,22.029z"/>
		
			<linearGradient id="SVGID_10_" gradientUnits="userSpaceOnUse" x1="84.9026" y1="86.3254" x2="101.6653" y2="86.3254" gradientTransform="matrix(1 0 0 -1 -8.3599 108.6138)">
			<stop  offset="0" style="stop-color:#E6E6E6"/>
			<stop  offset="0.5398" style="stop-color:#FFFFFF"/>
			<stop  offset="1" style="stop-color:#C8C8C8"/>
		</linearGradient>
		<path fill="url(#SVGID_10_)" d="M81.79,13.101c0.068,0,0.143,0.025,0.233,0.091c0.274,0.164,0.356,0.46,0.501,0.71
			c1.446,2.506,2.893,5.022,4.333,7.54c1.087,1.855,2.175,3.715,3.258,5.569c0.604,1.042,1.202,2.084,1.801,3.126
			c0.083,0.152,0.169,0.3,0.231,0.463c0.207,0.522-0.012,0.875-0.525,0.875c-0.043,0-0.086-0.002-0.135-0.008
			c-0.24-0.026-0.488-0.083-0.702-0.175c-2.912-1.259-11.144-4.703-12.095-5.681c-1.023-1.013-1.284-2.253-0.893-3.582
			c0.337-1.146,0.854-2.236,1.383-3.294c0.396-1.066,0.838-2.111,1.331-3.133c0.247-0.744,0.555-1.461,0.921-2.148
			C81.514,13.293,81.614,13.101,81.79,13.101 M81.79,12.019c-0.833,0-1.195,0.7-1.316,0.931c-0.379,0.711-0.706,1.467-0.967,2.243
			c-0.475,0.987-0.92,2.032-1.322,3.109c-0.502,1.007-1.062,2.181-1.426,3.421c-0.516,1.748-0.101,3.402,1.17,4.657
			c0.811,0.834,4.534,2.525,11.12,5.344l1.304,0.561c0.296,0.128,0.636,0.214,1.01,0.258c0.096,0.011,0.179,0.015,0.258,0.015
			c0.6,0,1.114-0.253,1.415-0.697c0.183-0.269,0.44-0.84,0.115-1.658c-0.076-0.202-0.174-0.377-0.259-0.533l-0.028-0.054
			l-0.314-0.548c-0.499-0.866-0.996-1.733-1.499-2.599c-1.085-1.859-2.173-3.719-3.263-5.574c-1.433-2.51-2.881-5.025-4.328-7.533
			c-0.021-0.041-0.044-0.084-0.065-0.129c-0.122-0.249-0.325-0.661-0.778-0.946C82.355,12.109,82.077,12.019,81.79,12.019
			L81.79,12.019z"/>
	</g>
	<g>
		<path fill="#787366" d="M81.488,49.695c-0.518-1.803-1.059-3.614-1.754-5.366l0,0c-0.264-0.853-0.517-1.704-0.821-2.532
			c-0.255-0.682-0.492-1.39-0.708-2.078c-0.335-1.062-0.677-2.11-1.051-3.155c-0.391-1.183-0.544-2.087-1.054-3.227
			c-0.049-0.417-0.323-1.105-0.55-1.465c-0.572-0.967-1.391-0.969-1.94,0.021c-0.664,1.19-1.149,2.478-1.638,3.753l0,0
			c-0.749,1.646-2.129,4.995-2.122,4.995l-0.007,0.002c-0.371,0.664-0.607,1.388-0.905,2.087c-2.398,5.633-4.8,11.251-7.197,16.89
			c-0.157,0.366-0.292,0.746-0.293,1.151c-0.003,0.688,0.348,1.006,1.038,0.972v-0.002c0.311,0.023,0.566-0.113,0.827-0.235
			c1.678-0.685,3.308-1.471,4.947-2.239c3.692-1.708,7.392-3.393,11.075-5.124C80.981,53.374,81.979,51.412,81.488,49.695z"/>
		
			<linearGradient id="SVGID_11_" gradientUnits="userSpaceOnUse" x1="68.7258" y1="62.1663" x2="91.053" y2="62.1663" gradientTransform="matrix(1 0 0 -1 -8.3599 108.6138)">
			<stop  offset="0" style="stop-color:#E6E6E6"/>
			<stop  offset="0.5398" style="stop-color:#FFFFFF"/>
			<stop  offset="1" style="stop-color:#C8C8C8"/>
		</linearGradient>
		<path fill="url(#SVGID_11_)" d="M74.577,31.148c0.343,0,0.688,0.244,0.974,0.724c0.227,0.36,0.502,1.049,0.55,1.465
			c0.51,1.141,0.662,2.044,1.054,3.227c0.375,1.044,0.716,2.093,1.051,3.155c0.218,0.688,0.453,1.397,0.708,2.078
			c0.305,0.828,0.558,1.68,0.821,2.532c0.697,1.752,1.237,3.563,1.754,5.366c0.49,1.718-0.508,3.68-2.151,4.448
			c-3.684,1.732-7.383,3.416-11.075,5.124c-1.641,0.769-3.269,1.556-4.947,2.239c-0.239,0.113-0.476,0.237-0.757,0.237
			c-0.022,0-0.047,0-0.068-0.002v0.002c-0.033,0.001-0.063,0.003-0.095,0.003c-0.628,0-0.947-0.319-0.943-0.975
			c0.002-0.405,0.136-0.786,0.292-1.151c2.397-5.639,4.801-11.257,7.198-16.89c0.298-0.699,0.533-1.423,0.905-2.087l0.006-0.002
			c-0.006,0,1.373-3.348,2.122-4.995c0.489-1.277,0.973-2.563,1.638-3.753C73.887,31.395,74.232,31.148,74.577,31.148
			 M74.577,30.066c-0.445,0-1.283,0.169-1.912,1.301c-0.675,1.21-1.168,2.498-1.646,3.741l-0.045,0.121
			c-1.282,2.813-1.871,4.181-2.094,4.921c-0.282,0.51-0.485,1.029-0.684,1.529c-0.082,0.21-0.165,0.419-0.253,0.627l-2.906,6.815
			c-1.432,3.356-2.863,6.712-4.293,10.075c-0.186,0.429-0.377,0.957-0.38,1.569c-0.003,0.78,0.299,1.249,0.556,1.506
			c0.251,0.254,0.712,0.556,1.47,0.556c0.038,0,0.077-0.001,0.117-0.002c0.016,0,0.029,0,0.046,0c0.082,0,0.161-0.004,0.238-0.014
			l0.774-0.036v-0.194c0.05-0.023,0.097-0.045,0.142-0.067l0.062-0.027c1.393-0.567,2.813-1.237,4.185-1.881l0.762-0.359
			c1.18-0.545,2.365-1.09,3.548-1.635c2.513-1.157,5.024-2.312,7.529-3.492c2.159-1.009,3.36-3.523,2.731-5.725
			c-0.502-1.743-1.05-3.6-1.774-5.428l-0.1-0.326c-0.225-0.729-0.456-1.484-0.727-2.221c-0.219-0.584-0.438-1.226-0.694-2.031
			c-0.392-1.25-0.731-2.267-1.062-3.194c-0.125-0.378-0.229-0.748-0.331-1.106c-0.184-0.644-0.371-1.31-0.694-2.062
			c-0.11-0.585-0.417-1.314-0.683-1.734C75.836,30.23,75.011,30.066,74.577,30.066L74.577,30.066z"/>
	</g>
	<g>
		<path fill="#787366" d="M25.091,60.659c0.318-0.07,0.637-0.138,0.95-0.232c1.346-0.44,2.729-0.735,4.048-1.254l0,0
			c1.346-0.628,1.743-1.684,0.863-2.91c-0.123-0.172-0.273-0.317-0.426-0.459c-0.754-0.729-1.504-1.446-2.259-2.174
			c-2.277-2.198-4.549-4.401-6.829-6.601c-1.09-1.046-2.185-2.073-3.274-3.103c-1.521-1.468-3.033-2.927-4.558-4.39
			c-0.292-0.271-0.551-0.256-0.757,0.095c0,0.316,0,0.628,0,0.937c0.313,1.014,0.394,2.072,0.589,3.103
			c0.358,1.906,0.625,3.818,0.989,5.724c0.221,1.169,0.373,2.346,0.699,3.495c0.036,0.919,0.288,1.801,0.435,2.706
			c0.246,1.473,0.535,2.952,0.8,4.42c0.099-0.007,0.092-0.012-0.002,0c0.036,0.544,0.134,1.068,0.349,1.562
			c0.352,0.777,0.914,1.08,1.745,0.953C19.329,62.403,23.747,61.106,25.091,60.659z"/>
		
			<linearGradient id="SVGID_12_" gradientUnits="userSpaceOnUse" x1="20.1306" y1="57.6594" x2="40.865" y2="57.6594" gradientTransform="matrix(1 0 0 -1 -8.3599 108.6138)">
			<stop  offset="0" style="stop-color:#E6E6E6"/>
			<stop  offset="0.5398" style="stop-color:#FFFFFF"/>
			<stop  offset="1" style="stop-color:#C8C8C8"/>
		</linearGradient>
		<path fill="url(#SVGID_12_)" d="M13.233,39.349c0.116,0,0.243,0.064,0.376,0.188c1.524,1.463,3.036,2.921,4.557,4.39
			c1.09,1.029,2.184,2.057,3.274,3.103c2.28,2.198,4.551,4.4,6.829,6.601c0.755,0.728,1.505,1.445,2.259,2.174
			c0.152,0.142,0.303,0.287,0.425,0.459c0.879,1.228,0.482,2.282-0.863,2.91c-1.319,0.519-2.703,0.813-4.048,1.254
			c-0.312,0.095-0.63,0.161-0.949,0.232c-1.346,0.446-5.764,1.743-6.638,1.872c-0.122,0.02-0.237,0.026-0.348,0.026
			c-0.643,0-1.096-0.317-1.397-0.979c-0.214-0.494-0.312-1.019-0.348-1.562c0.001,0,0.001,0,0.002,0l0,0
			c0.057-0.003,0.078-0.007,0.07-0.007c-0.006,0-0.031,0.002-0.07,0.007c-0.264-1.467-0.553-2.947-0.799-4.42
			c-0.147-0.905-0.399-1.787-0.436-2.706c-0.326-1.149-0.478-2.326-0.699-3.495c-0.363-1.905-0.63-3.817-0.987-5.724
			c-0.196-1.03-0.278-2.089-0.59-3.103c0-0.309,0-0.621,0-0.937C12.964,39.441,13.092,39.349,13.233,39.349 M13.233,38.267
			c-0.251,0-0.882,0.08-1.313,0.818l-0.149,0.252v0.293v0.937v0.163l0.049,0.156c0.184,0.598,0.281,1.235,0.382,1.909
			c0.055,0.359,0.11,0.721,0.178,1.077c0.172,0.913,0.322,1.831,0.473,2.749c0.161,0.973,0.326,1.98,0.517,2.976
			c0.06,0.321,0.115,0.645,0.172,0.967c0.141,0.815,0.285,1.657,0.516,2.5c0.038,0.651,0.162,1.262,0.28,1.852
			c0.058,0.283,0.115,0.566,0.162,0.853c0.164,0.972,0.343,1.942,0.523,2.908c0.09,0.483,0.179,0.968,0.265,1.448
			c0.052,0.712,0.193,1.33,0.433,1.883c0.479,1.059,1.325,1.633,2.389,1.633c0.164,0,0.336-0.013,0.51-0.039
			c0.999-0.148,5.509-1.485,6.762-1.898l0.067-0.015c0.293-0.065,0.598-0.132,0.912-0.227c0.536-0.176,1.055-0.321,1.575-0.469
			c0.837-0.236,1.704-0.479,2.555-0.813l0.031-0.014l0.031-0.015c1.27-0.592,1.72-1.417,1.875-2.004
			c0.148-0.565,0.166-1.461-0.589-2.515c-0.178-0.252-0.379-0.445-0.568-0.622l-1.308-1.258l-0.938-0.902l-2.999-2.899
			c-1.277-1.234-2.552-2.468-3.83-3.701c-0.802-0.77-1.604-1.524-2.404-2.278l-0.878-0.83c-1.515-1.462-3.027-2.921-4.551-4.386
			C13.92,38.349,13.505,38.267,13.233,38.267L13.233,38.267z"/>
	</g>
	<g>
		<path fill="#787366" d="M27.435,15.589c-0.152-0.297-0.312-0.575-0.479-0.852c-0.122-0.205-0.203-0.352-0.203-0.352
			c-0.009,0-0.014,0.006-0.024,0.006c-0.124-0.188-0.241-0.392-0.377-0.575c-0.665-0.884-1.221-0.854-1.792,0.099
			c-0.846,1.404-1.64,2.835-2.462,4.253c-2.352,4.06-4.717,8.118-7.062,12.187c-0.117,0.203-0.36,0.456-0.098,0.699
			c0.257,0.248,0.571,0.113,0.821-0.05c0.319-0.232,0.628-0.485,0.941-0.715c1.33-0.985,2.655-1.973,3.983-2.96l0,0
			c0,0,4.37-2.593,5.561-3.374c1.19-0.78,4.041-2.38,3.934-3.107C30.102,20.337,28.414,17.301,27.435,15.589z"/>
		
			<linearGradient id="SVGID_13_" gradientUnits="userSpaceOnUse" x1="22.0974" y1="86.428" x2="39.6204" y2="86.428" gradientTransform="matrix(1 0 0 -1 -8.3599 108.6138)">
			<stop  offset="0" style="stop-color:#E6E6E6"/>
			<stop  offset="0.5398" style="stop-color:#FFFFFF"/>
			<stop  offset="1" style="stop-color:#C8C8C8"/>
		</linearGradient>
		<path fill="url(#SVGID_13_)" d="M25.451,13.179c0.284,0,0.58,0.213,0.9,0.64c0.136,0.182,0.253,0.387,0.377,0.575
			c0.011,0,0.016-0.006,0.024-0.006c0,0,0.081,0.147,0.203,0.352c0.167,0.277,0.328,0.555,0.479,0.852
			c0.979,1.712,2.667,4.749,2.741,5.26c0.107,0.726-2.745,2.328-3.934,3.107c-1.191,0.78-5.561,3.373-5.561,3.373
			c-1.328,0.989-2.653,1.978-3.982,2.96c-0.313,0.229-0.622,0.483-0.941,0.715c-0.151,0.098-0.324,0.186-0.495,0.186
			c-0.113,0-0.224-0.037-0.325-0.135c-0.262-0.245-0.019-0.498,0.098-0.699c2.346-4.068,4.71-8.125,7.062-12.188
			c0.822-1.417,1.616-2.849,2.462-4.253C24.855,13.424,25.146,13.179,25.451,13.179 M25.451,12.097L25.451,12.097
			c-0.706,0-1.317,0.424-1.82,1.264c-0.561,0.929-1.106,1.883-1.633,2.806c-0.278,0.488-0.557,0.975-0.837,1.459
			c-0.904,1.561-1.81,3.122-2.716,4.682c-1.452,2.501-2.904,5.001-4.349,7.507l-0.033,0.051c-0.676,1.04-0.134,1.73,0.131,1.978
			c0.294,0.278,0.664,0.428,1.066,0.428c0.358,0,0.714-0.117,1.086-0.362l0.023-0.015l0.022-0.016
			c0.175-0.128,0.347-0.26,0.519-0.393c0.141-0.111,0.284-0.22,0.426-0.324c1.007-0.746,2.009-1.491,3.01-2.238l0.932-0.694
			c0.508-0.301,4.411-2.62,5.553-3.37c0.207-0.136,0.469-0.3,0.756-0.479c2.614-1.627,3.828-2.523,3.655-3.691
			c-0.033-0.223-0.119-0.824-2.872-5.639c-0.141-0.277-0.312-0.576-0.492-0.873c-0.105-0.178-0.181-0.312-0.183-0.317l-0.31-0.558
			h-0.076c-0.032-0.045-0.064-0.091-0.097-0.136C27.017,12.904,26.41,12.097,25.451,12.097L25.451,12.097z"/>
	</g>
	<g>
		<path fill="#787366" d="M94.459,37.665c0-0.006,0-0.01,0-0.021c0-0.008-0.006-0.018-0.006-0.023
			c-0.207-1.776-1.384-2.331-2.158-2.786c-0.066-0.036-0.134-0.071-0.196-0.115c-0.006-0.002-0.018-0.013-0.032-0.016
			c-0.456-0.305-3.652-1.731-6.663-3.062c-0.064-0.023-0.128-0.059-0.191-0.081c-1.636-0.717-3.204-1.406-4.221-1.846
			c-0.339-0.193-0.695-0.342-1.06-0.455c-0.09-0.038-0.138-0.059-0.138-0.059l0.009,0.015c-0.125-0.032-0.245-0.085-0.37-0.104
			c-0.986-0.205-1.618,0.424-1.505,1.419c0.076,0.634,0.279,1.209,0.529,1.782c0.452,1.484,0.918,2.966,1.467,4.407l0,0
			c0.073,0.264,0.149,0.53,0.235,0.795c0.985,2.938,1.967,5.879,2.95,8.812c0.004,0,0.018,0,0.013,0.006
			c0.199,0.605,0.394,1.218,0.592,1.833c0.903,2.734,4.459,10.442,5.084,11.651c0.264,0.484,0.562,0.975,0.991,1.332
			c0.428,0.354,0.69,0.282,0.815-0.248c0.027-0.091,0.039-0.183,0.054-0.274c0-0.007,0.007,0.002,0.007,0
			c0.227-0.935,3.481-18.666,3.806-21.734C94.518,38.424,94.504,38.031,94.459,37.665z"/>
		
			<linearGradient id="SVGID_14_" gradientUnits="userSpaceOnUse" x1="85.1926" y1="63.9495" x2="103.9436" y2="63.9495" gradientTransform="matrix(1 0 0 -1 -8.3599 108.6138)">
			<stop  offset="0" style="stop-color:#E6E6E6"/>
			<stop  offset="0.5398" style="stop-color:#FFFFFF"/>
			<stop  offset="1" style="stop-color:#C8C8C8"/>
		</linearGradient>
		<path fill="url(#SVGID_14_)" d="M79.073,29.07c0.111,0,0.233,0.014,0.359,0.039c0.125,0.018,0.245,0.072,0.37,0.104l-0.009-0.015
			c0,0,0.048,0.022,0.138,0.059c0.365,0.113,0.721,0.262,1.059,0.455c1.018,0.44,2.587,1.129,4.221,1.845
			c0.064,0.022,0.128,0.058,0.192,0.081c3.011,1.331,6.207,2.757,6.663,3.063c0.016,0.003,0.026,0.014,0.032,0.016
			c0.062,0.045,0.13,0.08,0.196,0.115c0.774,0.456,1.951,1.01,2.158,2.786c0,0.005,0.006,0.015,0.006,0.022c0,0.013,0,0.016,0,0.022
			c0.045,0.366,0.06,0.76,0.011,1.229c-0.324,3.066-3.579,20.798-3.806,21.734l0,0c-0.001,0-0.004-0.003-0.006-0.003
			c0,0-0.001,0-0.001,0.003c-0.015,0.092-0.025,0.184-0.054,0.274c-0.074,0.313-0.197,0.468-0.371,0.468
			c-0.121,0-0.27-0.073-0.444-0.219c-0.431-0.357-0.728-0.848-0.991-1.332c-0.625-1.209-4.182-8.917-5.084-11.651
			c-0.2-0.615-0.394-1.229-0.592-1.833c0.004-0.006-0.01-0.006-0.014-0.006c-0.981-2.935-1.963-5.875-2.95-8.812
			c-0.085-0.266-0.16-0.531-0.234-0.795c-0.55-1.441-1.015-2.924-1.467-4.407c-0.25-0.572-0.453-1.148-0.53-1.782
			C77.828,29.659,78.296,29.07,79.073,29.07 M77.22,26.874l0.781,1.369c-0.224,0.117-0.426,0.272-0.597,0.464
			c-0.442,0.496-0.639,1.188-0.552,1.946c0.1,0.821,0.362,1.513,0.589,2.035c0.409,1.343,0.892,2.89,1.455,4.371
			c0.073,0.261,0.147,0.524,0.232,0.788c0.681,2.028,1.355,4.044,2.029,6.061l0.925,2.766l0.247,0.738h0.003
			c0.052,0.161,0.104,0.322,0.156,0.482l0.194,0.606c0.915,2.77,4.498,10.548,5.154,11.817c0.322,0.594,0.689,1.192,1.259,1.668
			c0.384,0.315,0.755,0.469,1.138,0.469c0.213,0,0.837-0.063,1.215-0.742h0.066l0.093-0.383c0.015-0.046,0.027-0.094,0.04-0.145
			c0.024-0.085,0.043-0.171,0.058-0.257l0.012-0.044c0.293-1.216,3.506-18.826,3.827-21.874c0.052-0.486,0.051-0.934-0.003-1.405
			v-0.139l-0.027-0.083c-0.293-2.106-1.676-2.904-2.508-3.384l-0.162-0.097c-0.068-0.038-0.096-0.051-0.12-0.066l-0.1-0.073
			l-0.045-0.018l-0.086-0.052l-0.017-0.003c-0.663-0.37-2.529-1.223-6.638-3.04l-0.03-0.014l-0.032-0.012
			c-0.06-0.027-0.113-0.05-0.161-0.07l-0.453-0.198c-1.433-0.627-2.773-1.216-3.692-1.614c-0.362-0.202-0.753-0.37-1.162-0.5
			l-0.075-0.034L77.22,26.874L77.22,26.874z"/>
	</g>
	<g>
		<path fill="#787366" d="M49.255,2.581c-0.163-0.3-0.424-0.038-0.642-0.011c-0.039,0.002-0.064,0.026-0.097,0.035
			c-3.804,1.388-7.612,2.772-11.413,4.158c-2.648,0.955-5.295,1.917-7.938,2.881c-0.649,0.242-0.857,0.517-0.851,1.093h-0.013
			c0,0,0.002,0.861,0.328,1.625c0.026,0.06,0.062,0.149,0.101,0.234c0.026,0.077,0.062,0.149,0.1,0.229
			c0.509,1.164,1.634,3.589,2.524,3.893c0.041,0.016,0.09,0.016,0.123,0.028c0.791,0.425,1.743,0.461,2.628-0.039
			c0.129-0.077,0.235-0.196,0.352-0.282c0.081-0.047,0.182-0.078,0.247-0.131c0.06-0.051,0.25-0.226,0.498-0.444
			c0.286-0.265,0.586-0.53,0.875-0.804c1.205-1.113,3.053-2.825,4.982-4.605c0.201-0.173,0.39-0.36,0.586-0.542
			c1.51-1.39,2.998-2.774,4.246-3.92c1.027-0.95,2.045-1.906,3.081-2.852C49.124,2.986,49.408,2.843,49.255,2.581z"/>
		
			<linearGradient id="SVGID_15_" gradientUnits="userSpaceOnUse" x1="35.5793" y1="98.8577" x2="58.7434" y2="98.8577" gradientTransform="matrix(1 0 0 -1 -8.3599 108.6138)">
			<stop  offset="0" style="stop-color:#E6E6E6"/>
			<stop  offset="0.5398" style="stop-color:#FFFFFF"/>
			<stop  offset="1" style="stop-color:#C8C8C8"/>
		</linearGradient>
		<path fill="url(#SVGID_15_)" d="M49.05,2.438c0.076,0,0.148,0.036,0.206,0.143c0.153,0.263-0.132,0.405-0.285,0.549
			c-1.036,0.946-2.054,1.902-3.081,2.852c-1.248,1.146-2.735,2.529-4.246,3.92c-0.196,0.182-0.385,0.369-0.586,0.542
			c-1.929,1.78-3.777,3.492-4.982,4.605c-0.291,0.273-0.589,0.54-0.875,0.804c-0.247,0.218-0.438,0.393-0.498,0.444
			c-0.065,0.053-0.166,0.083-0.247,0.131c-0.115,0.086-0.223,0.205-0.352,0.282c-0.444,0.251-0.902,0.366-1.351,0.366
			c-0.447,0-0.881-0.115-1.277-0.327c-0.033-0.012-0.082-0.012-0.123-0.028c-0.89-0.304-2.015-2.729-2.524-3.893
			c-0.039-0.081-0.074-0.152-0.1-0.229c-0.039-0.086-0.074-0.175-0.101-0.234c-0.326-0.765-0.328-1.625-0.328-1.625h0.013
			c-0.006-0.577,0.202-0.851,0.851-1.093c2.644-0.964,5.291-1.926,7.938-2.881c3.801-1.385,7.609-2.77,11.413-4.158
			c0.033-0.009,0.059-0.033,0.097-0.035C48.753,2.552,48.911,2.438,49.05,2.438 M49.05,1.356c-0.292,0-0.519,0.094-0.654,0.152
			c-0.004,0.001-0.007,0.002-0.01,0.003c-0.108,0.022-0.196,0.055-0.265,0.086l-5.527,2.013L36.73,5.749
			c-2.645,0.954-5.293,1.916-7.937,2.881c-0.457,0.169-1.011,0.448-1.321,1.026h-0.244l-0.008,1.086c0,0.11,0.016,1.104,0.414,2.044
			l0.04,0.092l0.05,0.115c0.035,0.091,0.074,0.178,0.119,0.272c1.542,3.521,2.465,4.24,3.164,4.479
			c0.032,0.011,0.069,0.022,0.109,0.031c0.516,0.25,1.081,0.381,1.64,0.381c0.656,0,1.29-0.171,1.884-0.507
			c0.187-0.113,0.312-0.222,0.401-0.301c0.004-0.003,0.007-0.006,0.012-0.011c0.09-0.041,0.21-0.103,0.332-0.202l0.16-0.141
			c0.09-0.08,0.22-0.197,0.372-0.332l0.374-0.341c0.178-0.161,0.356-0.324,0.531-0.49l1.538-1.422l3.436-3.174
			c0.118-0.103,0.26-0.235,0.402-0.37l0.185-0.173c0.722-0.665,1.441-1.33,2.13-1.967c0.749-0.694,1.463-1.354,2.112-1.95
			l1.108-1.03c0.655-0.608,1.309-1.217,1.97-1.821l0.043-0.035c0.966-0.777,0.586-1.616,0.448-1.855
			C49.965,1.621,49.533,1.356,49.05,1.356L49.05,1.356z"/>
	</g>
	<g opacity="0.6" enable-background="new    ">
		<g>
			<path fill="#C0B9AB" d="M74.486,8.304c-1.029-0.372-2.109-0.618-3.104-1.085l0,0C70.2,6.724,68.98,6.333,67.778,5.9
				c-2.367-0.832-4.716-1.716-7.061-2.595c-1.115-0.425-2.268-0.741-3.35-1.271c-0.173,0-0.344,0-0.518,0
				c-0.088,0.345,0.115,0.564,0.317,0.784c0.854,1.023,1.716,2.028,2.574,3.024c2.595,3.045,5.188,6.094,7.783,9.14"/>
		</g>
	</g>
	<g opacity="0.6" enable-background="new    ">
		<g>
			<path fill="#C0B9AB" d="M57.247,24.849c-0.566-0.054-1.133-0.115-1.696-0.214c-0.83-0.148-1.689-0.152-2.536-0.265
				c-1.279-0.17-2.568-0.262-3.853-0.437c-1.401-0.185-2.818-0.328-4.227-0.467c-1.497-0.149-2.991-0.331-4.487-0.501
				c-1.168-0.137-2.332-0.253-3.498-0.411c-2.081-0.265-3.581,0.932-3.518,2.994c0.024,0.646,0.146,1.281,0.203,1.905
				c0.08,0.923,0.14,1.837,0.244,2.745c0.149,1.408,0.378,2.816,0.467,4.227c0.098,1.576,0.29,3.133,0.471,4.698
				c0.173,1.587,0.288,3.174,0.463,4.765c0.071,0.617,0.142,1.235,0.205,1.854 M67.167,29.958c0.003,0.014,0.011,0.028,0.017,0.042
				C67.178,29.987,67.17,29.972,67.167,29.958z"/>
		</g>
	</g>
	<g opacity="0.6" enable-background="new    ">
		<g>
			<path fill="#C0B9AB" d="M33.228,48.031c-0.039-0.524-0.08-1.048-0.14-1.567c-0.182-1.562-0.381-3.119-0.507-4.688
				c-0.056-0.818-0.136-1.632-0.234-2.436c-0.143-1.243-0.304-2.474-0.394-3.714c-0.058-0.819-0.124-1.625-0.234-2.433
				c-0.214-1.614-0.333-3.238-0.502-4.852c-0.087-0.889-0.087-1.809-0.42-2.658c-0.252-0.669-0.814-1.035-1.513-1.068
				c-0.887-0.032-1.482,0.537-2.119,1.004c-2.475,1.812-4.953,3.633-7.403,5.485c-0.815,0.616-2.974,2.224-3.241,2.42
				c-1.848,1.396-1.994,3.319-0.342,4.924c1.248,1.208,2.518,2.396,3.771,3.601c1.87,1.8,3.742,3.58,5.599,5.385
				c1.36,1.317,2.699,2.653,4.068,3.962"/>
		</g>
	</g>
	<g opacity="0.6" enable-background="new    ">
		<path fill="#C0B9AB" d="M65.824,16.904c-1.15-1.349-2.245-2.738-3.382-4.093c-1.816-2.163-3.654-4.322-5.497-6.483
			c-0.777-0.928-1.565-1.861-2.392-2.76c-0.605-0.654-1.184-0.747-1.8-0.386c-0.257,0.08-0.462,0.244-0.654,0.416
			c-1.629,1.489-3.257,2.977-4.87,4.471c-2.067,1.915-4.12,3.834-6.183,5.749c-0.589,0.542-1.203,1.05-1.786,1.595
			c-0.809,0.761-1.637,1.51-2.41,2.316c-0.866,0.901-0.586,1.891,0.598,2.291c0.099,0.036,0.201,0.086,0.301,0.09
			c1.271,0.152,2.542,0.281,3.819,0.435c1.131,0.125,2.268,0.265,3.408,0.381c1.062,0.11,2.112,0.3,3.185,0.341
			c0.227,0.026,0.452,0.05,0.675,0.077c1.255,0.152,2.512,0.312,3.76,0.45c1.741,0.196,3.483,0.378,5.221,0.57
			c0.601,0.066,1.202,0.134,1.805,0.203"/>
	</g>
	<g opacity="0.6" enable-background="new    ">
		<g>
			<path fill="#C0B9AB" d="M27.781,53.098c-2.115-2.044-4.225-4.089-6.343-6.132c-1.09-1.046-2.184-2.072-3.274-3.1
				c-1.521-1.47-3.033-2.928-4.557-4.392c-0.293-0.271-0.552-0.255-0.757,0.095c0,0.315,0,0.628,0,0.938
				c0.312,1.013,0.394,2.072,0.589,3.102c0.358,1.904,0.625,3.818,0.988,5.724c0.221,1.171,0.373,2.348,0.699,3.495
				c0.036,0.92,0.289,1.8,0.435,2.707c0.246,1.472,0.535,2.952,0.8,4.419c0.099-0.007,0.092-0.012-0.002,0
				c0.036,0.545,0.134,1.068,0.349,1.562c0.352,0.778,0.914,1.079,1.745,0.952"/>
		</g>
	</g>
	<g opacity="0.6" enable-background="new    ">
		<path fill="#C0B9AB" d="M27.435,15.527c-0.152-0.298-0.312-0.575-0.479-0.851c-0.122-0.206-0.203-0.352-0.203-0.352
			c-0.009,0-0.014,0.005-0.024,0.005c-0.124-0.187-0.241-0.392-0.377-0.574c-0.665-0.883-1.221-0.854-1.792,0.099
			c-0.846,1.405-1.64,2.836-2.462,4.253c-2.352,4.06-4.717,8.117-7.062,12.187c-0.117,0.204-0.36,0.456-0.098,0.7
			c0.257,0.246,0.571,0.112,0.821-0.051c0.319-0.232,0.628-0.485,0.941-0.715c1.33-0.986,2.655-1.974,3.983-2.962l0,0
			c0,0,4.37-2.592,5.561-3.373c1.19-0.78,4.041-2.38,3.934-3.107C30.102,20.274,28.414,17.239,27.435,15.527z"/>
	</g>
	<g opacity="0.6" enable-background="new    ">
		<path fill="#C0B9AB" d="M49.257,2.518c-0.163-0.301-0.426-0.039-0.644-0.011c-0.039,0.002-0.064,0.025-0.098,0.035
			C44.711,3.929,40.903,5.314,37.102,6.7c-2.649,0.955-5.295,1.916-7.938,2.881c-0.649,0.241-0.857,0.516-0.851,1.093H28.3
			c0,0,0.002,0.86,0.328,1.625c0.026,0.06,0.062,0.149,0.101,0.234c0.026,0.078,0.062,0.15,0.1,0.229
			c0.509,1.164,1.634,3.59,2.524,3.894c0.041,0.015,0.09,0.015,0.123,0.026c0.791,0.427,1.743,0.462,2.628-0.038
			c0.128-0.077,0.235-0.197,0.352-0.283c0.081-0.047,0.182-0.077,0.247-0.131c0.06-0.051,0.25-0.226,0.498-0.442
			c0.286-0.265,0.586-0.53,0.875-0.804c1.205-1.113,3.053-2.825,4.982-4.604c0.201-0.173,0.39-0.36,0.586-0.543
			c1.511-1.389,2.999-2.773,4.246-3.92c1.025-0.95,2.044-1.906,3.082-2.852C49.124,2.924,49.408,2.781,49.257,2.518z"/>
	</g>
</g>
</svg>
