<?xml version="1.0" encoding="utf-8"?>
<!-- Generator: Adobe Illustrator 16.0.0, SVG Export Plug-In . SVG Version: 6.00 Build 0)  -->
<!DOCTYPE svg PUBLIC "-//W3C//DTD SVG 1.1//EN" "http://www.w3.org/Graphics/SVG/1.1/DTD/svg11.dtd">
<svg version="1.1" id="Layer_1" xmlns="http://www.w3.org/2000/svg" xmlns:xlink="http://www.w3.org/1999/xlink" x="0px" y="0px"
	 width="466px" height="345.991px" viewBox="0 0 466 345.991" enable-background="new 0 0 466 345.991" xml:space="preserve">
<g>
	<g opacity="0.6">
		<g>
			<path fill="#FFFFFF" d="M228.938,260.497c-4.155,0-6.837,0.367-8.427,0.732v53.846c1.593,0.367,4.157,0.367,6.474,0.367
				c16.846,0.119,27.837-9.156,27.837-28.816C254.94,269.53,244.933,260.497,228.938,260.497z"/>
			<path fill="#FFFFFF" d="M157.011,260.254c-3.783,0-6.347,0.365-7.693,0.729v24.301c1.59,0.365,3.545,0.492,6.221,0.492
				c9.897,0,16-5.01,16-13.434C171.538,264.774,166.285,260.254,157.011,260.254z"/>
			<path fill="#FFFFFF" d="M359.44,82.913c-0.021-1.587-0.524-3.154-1.613-4.393L291.114,2.321
				c-0.014-0.022-0.039-0.028-0.053-0.048c-0.397-0.444-0.854-0.811-1.345-1.133c-0.146-0.093-0.299-0.179-0.451-0.266
				c-0.425-0.23-0.868-0.42-1.337-0.56c-0.12-0.037-0.239-0.089-0.365-0.121C287.06,0.072,286.537,0,286.014,0H122.062
				c-7.48,0-13.568,6.089-13.568,13.57v318.853c0,7.484,6.088,13.568,13.568,13.568h223.875c7.48,0,13.568-6.084,13.568-13.568
				V83.673C359.506,83.417,359.467,83.167,359.44,82.913z M182.404,291.385c-6.348,5.982-15.75,8.672-26.741,8.672
				c-2.438,0-4.643-0.125-6.345-0.361v29.42h-18.436v-81.197c5.734-0.973,13.798-1.709,25.155-1.709
				c11.474,0,19.656,2.199,25.148,6.592c5.253,4.154,8.784,10.99,8.784,19.047C189.971,279.911,187.292,286.749,182.404,291.385z
				 M260.918,319.352c-8.659,7.201-21.847,10.619-37.958,10.619c-9.648,0-16.482-0.609-21.13-1.219v-80.834
				c6.839-1.092,15.756-1.709,25.155-1.709c15.62,0,25.757,2.811,33.697,8.791c8.549,6.35,13.922,16.484,13.922,31.014
				C274.598,301.768,268.861,312.633,260.918,319.352z M337.125,262.084h-31.627v18.803h29.547v15.143h-29.547v33.088h-18.677
				v-82.291h50.304V262.084z M122.062,230.379V13.57h157.167v69.42c0,3.745,3.034,6.784,6.784,6.784h59.924l0.007,140.605H122.062z"
				/>
			<path fill="#FFFFFF" d="M303.603,145.818c-0.397-0.037-9.957-0.91-24.632-0.91c-4.597,0-9.229,0.09-13.8,0.261
				c-28.979-21.746-52.714-43.51-65.421-55.708c0.231-1.343,0.392-2.404,0.465-3.219c1.677-17.692-0.188-29.636-5.519-35.5
				c-3.492-3.833-8.619-5.108-13.966-3.647c-3.32,0.87-9.468,4.091-11.435,10.648c-2.174,7.246,1.319,16.042,10.495,26.24
				c0.146,0.155,3.26,3.417,8.917,8.946c-3.678,17.535-13.304,55.371-17.974,73.541c-10.97,5.86-20.109,12.922-27.185,21.022
				l-0.464,0.527l-0.3,0.639c-0.729,1.529-4.212,9.477-1.597,15.859c1.194,2.902,3.432,5.023,6.472,6.135l0.814,0.221
				c0,0,0.735,0.158,2.027,0.158c5.659,0,19.63-2.975,27.122-30.588l1.816-6.997c26.156-12.714,58.85-16.815,82.549-17.958
				c12.19,9.04,24.32,17.345,36.074,24.698l0.383,0.223c0.57,0.291,5.725,2.836,11.761,2.842l0,0
				c8.625,0,14.926-5.295,17.271-14.519l0.119-0.632c0.655-5.271-0.669-10.023-3.83-13.738
				C317.112,146.538,304.717,145.855,303.603,145.818z M150.714,200.85c-0.054-0.062-0.078-0.121-0.104-0.189
				c-0.562-1.354,0.112-4.639,1.106-7.047c4.267-4.771,9.388-9.148,15.298-13.092C161.258,199.151,152.889,200.762,150.714,200.85z
				 M187.255,77.072L187.255,77.072c-8.838-9.836-8.705-14.715-8.229-16.357c0.78-2.745,4.301-3.782,4.331-3.791
				c1.773-0.482,2.851-0.388,3.81,0.665c2.167,2.381,4.029,9.568,3.294,22.75C188.373,78.242,187.255,77.072,187.255,77.072z
				 M182.688,160.852l0.152-0.582l-0.02,0.006c4.425-17.332,10.807-42.712,14.477-59.015l0.132,0.127l0.014-0.078
				c11.872,11.179,30.076,27.533,51.874,44.541l-0.246,0.01l0.36,0.271C228.898,147.867,204.374,151.915,182.688,160.852z
				 M317.536,166.539c-1.563,5.743-4.571,6.528-7.327,6.528l0,0c-3.2,0-6.28-1.33-6.982-1.652
				c-8.004-5.017-16.192-10.482-24.454-16.33c0.065,0,0.125,0,0.198,0c14.164,0,23.6,0.859,23.969,0.885
				c2.365,0.089,9.853,1.194,13.079,4.988C317.283,162.443,317.769,164.221,317.536,166.539z"/>
		</g>
	</g>
	<rect fill="none" width="466" height="343.969"/>
</g>
</svg>
