<?xml version="1.0" encoding="utf-8"?>
<!-- Generator: Adobe Illustrator 16.0.0, SVG Export Plug-In . SVG Version: 6.00 Build 0)  -->
<!DOCTYPE svg PUBLIC "-//W3C//DTD SVG 1.1//EN" "http://www.w3.org/Graphics/SVG/1.1/DTD/svg11.dtd">
<svg version="1.1" id="Layer_1" xmlns="http://www.w3.org/2000/svg" xmlns:xlink="http://www.w3.org/1999/xlink" x="0px" y="0px"
	 width="466px" height="345.991px" viewBox="-534.25 -115.189 466 345.991" enable-background="new -534.25 -115.189 466 345.991"
	 xml:space="preserve">
<g>
	<g opacity="0.6">
		<g>
			<path fill="#de4415" d="M-382.269,199.087c-4.253,0-7.723-3.439-7.723-7.724V-36.924c0-4.254,3.47-7.723,7.723-7.723
				c4.284,0,7.724,3.469,7.724,7.723v228.288C-374.545,195.648-377.984,199.087-382.269,199.087L-382.269,199.087z"/>
		</g>
		<g>
			<path fill="#de4415" d="M-264.82,161.558c-46.521,0-84.353-37.833-84.353-84.353c0-46.49,37.831-84.322,84.353-84.322
				c46.489,0,84.321,37.832,84.321,84.322C-180.499,123.725-218.331,161.558-264.82,161.558L-264.82,161.558z M-264.82,8.329
				c-37.983,0-68.907,30.893-68.907,68.876c0,38.012,30.924,68.906,68.907,68.906c37.981,0,68.875-30.895,68.875-68.906
				C-195.945,39.222-226.839,8.329-264.82,8.329L-264.82,8.329z"/>
		</g>
		<g>
			<path fill="#de4415" d="M-158.083,200.023h-286.304c-16.079,0-29.143-13.063-29.143-29.143V-16.409
				c0-16.05,13.063-29.143,29.143-29.143h96.934l28.178-35.901c1.447-1.871,3.711-2.957,6.063-2.957h96.782
				c2.383,0,4.615,1.086,6.063,2.957l28.208,35.901h24.075c16.05,0,29.112,13.093,29.112,29.143V170.88
				C-128.971,186.959-142.033,200.023-158.083,200.023L-158.083,200.023z M-444.387-30.105c-7.542,0-13.696,6.154-13.696,13.696
				V170.88c0,7.572,6.154,13.695,13.696,13.695h286.304c7.542,0,13.666-6.123,13.666-13.695V-16.409
				c0-7.542-6.124-13.696-13.666-13.696h-27.847c-2.353,0-4.615-1.087-6.063-2.957l-28.178-35.901h-89.27l-28.178,35.901
				c-1.479,1.87-3.711,2.957-6.095,2.957H-444.387L-444.387-30.105z"/>
		</g>
	</g>
	<g>
		<rect x="-534.25" y="-115.189" fill="none" width="466" height="343.969"/>
	</g>
</g>
</svg>
