<?xml version="1.0" encoding="utf-8"?>
<!-- Generator: Adobe Illustrator 16.0.0, SVG Export Plug-In . SVG Version: 6.00 Build 0)  -->
<!DOCTYPE svg PUBLIC "-//W3C//DTD SVG 1.1//EN" "http://www.w3.org/Graphics/SVG/1.1/DTD/svg11.dtd">
<svg version="1.1" id="Layer_1" xmlns="http://www.w3.org/2000/svg" xmlns:xlink="http://www.w3.org/1999/xlink" x="0px" y="0px"
	 width="197px" height="155.17px" viewBox="-44.823 -35.305 197 155.17" enable-background="new -44.823 -35.305 197 155.17"
	 xml:space="preserve">
<g>
	<linearGradient id="SVGID_1_" gradientUnits="userSpaceOnUse" x1="1.0608" y1="42.2795" x2="106.2917" y2="42.2795">
		<stop  offset="0" style="stop-color:#E5E5E5"/>
		<stop  offset="0.5398" style="stop-color:#FFFFFF"/>
		<stop  offset="1" style="stop-color:#C8C8C8"/>
	</linearGradient>
	<path fill="url(#SVGID_1_)" d="M106.272,3.317c-0.42-10.111-23.795-18.263-52.59-18.263C24.879-14.946,1.5-6.794,1.08,3.317
		c-0.004-0.093-0.02-0.184-0.02-0.276v8.525v8.873V27.5v1.464v8.57v7.363v6.334v3.698v8.571v5.125v12.276h0.008
		c0,0.012-0.008,0.037-0.008,0.062c0,10.243,23.557,18.541,52.621,18.541c29.053,0,52.61-8.3,52.61-18.541
		c0-0.024-0.014-0.05-0.014-0.062h0.014l0,0V68.626v-5.125V54.93v-3.698v-6.334v-7.363v-8.57V27.5v-7.062v-8.873V3.04
		C106.292,3.133,106.276,3.224,106.272,3.317z"/>
	<g>
		<path fill="#787366" d="M102.096,77.853h-0.012c0,0.011,0.014,0.034,0.014,0.057c0,9.347-21.5,16.921-48.014,16.921
			c-26.524,0-48.023-7.573-48.023-16.921c0-0.022,0.008-0.046,0.008-0.057H6.061V61.972c0,9.347,21.498,16.919,48.023,16.919
			c26.518,0,48.014-7.571,48.014-16.919v15.881H102.096L102.096,77.853z M102.096,54.15h-0.012c0,0.02,0.014,0.04,0.014,0.062
			c0,9.344-21.5,16.92-48.014,16.92c-26.524,0-48.023-7.574-48.023-16.92c0-0.022,0.008-0.043,0.008-0.062H6.061V38.275
			c0,9.347,21.498,16.922,48.023,16.922c26.518,0,48.014-7.575,48.014-16.922V54.15H102.096L102.096,54.15z M102.096,30.452h-0.012
			c0,0.016,0.014,0.037,0.014,0.061c0,9.343-21.5,16.917-48.014,16.917c-26.524,0-48.023-7.574-48.023-16.917
			c0-0.023,0.008-0.045,0.008-0.061H6.061V14.574c0,9.347,21.498,16.921,48.023,16.921c26.518,0,48.014-7.573,48.014-16.921v15.878
			H102.096L102.096,30.452z M54.084,24.222c-26.524,0-48.023-7.578-48.023-16.925c0-9.344,21.498-16.918,48.023-16.918
			c26.518,0,48.014,7.574,48.014,16.918C102.096,16.644,80.598,24.222,54.084,24.222L54.084,24.222L54.084,24.222z"/>
	</g>
	<g opacity="0.6">
		<path fill="#C0B9AB" d="M54.084,78.35c-26.525,0-48.023-7.572-48.023-16.919v3c0,9.347,21.498,16.919,48.023,16.919
			c26.518,0,48.014-7.571,48.014-16.919v-3C102.098,70.779,80.602,78.35,54.084,78.35z"/>
		<path fill="#C0B9AB" d="M54.084-7.162c25.083,0,45.659,6.777,47.815,15.417c0.123-0.494,0.199-0.993,0.199-1.499
			c0-9.344-21.496-16.918-48.014-16.918c-26.525,0-48.023,7.574-48.023,16.918c0,0.506,0.074,1.005,0.198,1.5
			C8.414-0.385,28.994-7.162,54.084-7.162z"/>
		<path fill="#C0B9AB" d="M54.084,54.656c-26.525,0-48.023-7.575-48.023-16.922v3c0,9.347,21.498,16.922,48.023,16.922
			c26.518,0,48.014-7.575,48.014-16.922v-3C102.098,47.08,80.602,54.656,54.084,54.656z"/>
		<path fill="#C0B9AB" d="M54.084,30.954c-26.525,0-48.023-7.574-48.023-16.921v3c0,9.347,21.498,16.921,48.023,16.921
			c26.518,0,48.014-7.573,48.014-16.921v-3C102.098,23.381,80.602,30.954,54.084,30.954z"/>
	</g>
</g>
</svg>
