<?xml version="1.0" encoding="utf-8"?>
<!-- Generator: Adobe Illustrator 16.0.0, SVG Export Plug-In . SVG Version: 6.00 Build 0)  -->
<!DOCTYPE svg PUBLIC "-//W3C//DTD SVG 1.1//EN" "http://www.w3.org/Graphics/SVG/1.1/DTD/svg11.dtd">
<svg version="1.1" id="Layer_1" xmlns="http://www.w3.org/2000/svg" xmlns:xlink="http://www.w3.org/1999/xlink" x="0px" y="0px"
	 width="197px" height="155.17px" viewBox="-44.823 -35.305 197 155.17" enable-background="new -44.823 -35.305 197 155.17"
	 xml:space="preserve">
<g>
	<linearGradient id="SVGID_1_" gradientUnits="userSpaceOnUse" x1="-24.342" y1="42.2795" x2="131.6951" y2="42.2795">
		<stop  offset="0" style="stop-color:#E5E5E5"/>
		<stop  offset="0.5398" style="stop-color:#FFFFFF"/>
		<stop  offset="1" style="stop-color:#C8C8C8"/>
	</linearGradient>
	<path fill="url(#SVGID_1_)" d="M131.695,105.959c0,4.373-3.666,7.918-8.187,7.918H-16.156c-4.521,0-8.187-3.545-8.187-7.918
		v-127.36c0-4.374,3.665-7.917,8.187-7.917h139.664c4.521,0,8.187,3.543,8.187,7.917V105.959z"/>
	<path fill="#787366" d="M126.321,101.339c0,4.071-3.413,7.372-7.623,7.372H-11.345c-4.21,0-7.622-3.301-7.622-7.372V-17.249
		c0-4.073,3.412-7.372,7.622-7.372h130.043c4.21,0,7.623,3.299,7.623,7.372V101.339z"/>
	<path opacity="0.6" fill="#C0B9AB" d="M26.749,9.542c0-4.073,3.413-7.372,7.622-7.372h91.95v-19.419
		c0-4.073-3.413-7.372-7.623-7.372H-11.345c-4.21,0-7.622,3.299-7.622,7.372v118.588c0,4.071,3.412,7.372,7.622,7.372h38.094V9.542z
		"/>
	<linearGradient id="SVGID_2_" gradientUnits="userSpaceOnUse" x1="-4.2102" y1="2.0764" x2="14.3621" y2="2.0764">
		<stop  offset="0" style="stop-color:#E5E5E5"/>
		<stop  offset="0.5398" style="stop-color:#FFFFFF"/>
		<stop  offset="1" style="stop-color:#C8C8C8"/>
	</linearGradient>
	<polygon fill="url(#SVGID_2_)" points="-0.661,10.906 0.433,4.515 -4.21,-0.01 2.209,-0.939 5.075,-6.754 7.945,-0.939 
		14.362,-0.01 9.72,4.515 10.814,10.906 5.075,7.889 	"/>
	<linearGradient id="SVGID_3_" gradientUnits="userSpaceOnUse" x1="20.0916" y1="1.5706" x2="38.6638" y2="1.5706">
		<stop  offset="0" style="stop-color:#E5E5E5"/>
		<stop  offset="0.5398" style="stop-color:#FFFFFF"/>
		<stop  offset="1" style="stop-color:#C8C8C8"/>
	</linearGradient>
	<polygon fill="url(#SVGID_3_)" points="23.64,10.4 24.735,4.009 20.092,-0.515 26.51,-1.445 29.377,-7.259 32.247,-1.445 
		38.664,-0.515 34.022,4.009 35.116,10.4 29.377,7.384 	"/>
	<linearGradient id="SVGID_4_" gradientUnits="userSpaceOnUse" x1="43.9265" y1="2.3293" x2="62.4988" y2="2.3293">
		<stop  offset="0" style="stop-color:#E5E5E5"/>
		<stop  offset="0.5398" style="stop-color:#FFFFFF"/>
		<stop  offset="1" style="stop-color:#C8C8C8"/>
	</linearGradient>
	<polygon fill="url(#SVGID_4_)" points="47.474,11.159 48.57,4.768 43.927,0.243 50.344,-0.686 53.212,-6.501 56.082,-0.686 
		62.499,0.243 57.857,4.768 58.95,11.159 53.212,8.142 	"/>
	<linearGradient id="SVGID_5_" gradientUnits="userSpaceOnUse" x1="68.2283" y1="1.8235" x2="86.8005" y2="1.8235">
		<stop  offset="0" style="stop-color:#E5E5E5"/>
		<stop  offset="0.5398" style="stop-color:#FFFFFF"/>
		<stop  offset="1" style="stop-color:#C8C8C8"/>
	</linearGradient>
	<polygon fill="url(#SVGID_5_)" points="71.776,10.653 72.871,4.262 68.228,-0.262 74.646,-1.192 77.513,-7.006 80.384,-1.192 
		86.801,-0.262 82.159,4.262 83.253,10.653 77.513,7.636 	"/>
	<linearGradient id="SVGID_6_" gradientUnits="userSpaceOnUse" x1="93.9314" y1="1.8235" x2="112.5037" y2="1.8235">
		<stop  offset="0" style="stop-color:#E5E5E5"/>
		<stop  offset="0.5398" style="stop-color:#FFFFFF"/>
		<stop  offset="1" style="stop-color:#C8C8C8"/>
	</linearGradient>
	<polygon fill="url(#SVGID_6_)" points="97.479,10.653 98.575,4.262 93.931,-0.262 100.35,-1.192 103.218,-7.006 106.087,-1.192 
		112.504,-0.262 107.862,4.262 108.956,10.653 103.218,7.636 	"/>
	<linearGradient id="SVGID_7_" gradientUnits="userSpaceOnUse" x1="-5.1448" y1="27.3948" x2="13.4275" y2="27.3948">
		<stop  offset="0" style="stop-color:#E5E5E5"/>
		<stop  offset="0.5398" style="stop-color:#FFFFFF"/>
		<stop  offset="1" style="stop-color:#C8C8C8"/>
	</linearGradient>
	<polygon fill="url(#SVGID_7_)" points="-1.596,36.225 -0.501,29.833 -5.145,25.309 1.274,24.38 4.14,18.565 7.01,24.38 
		13.427,25.309 8.786,29.833 9.88,36.225 4.14,33.208 	"/>
	<linearGradient id="SVGID_8_" gradientUnits="userSpaceOnUse" x1="19.157" y1="26.8889" x2="37.7292" y2="26.8889">
		<stop  offset="0" style="stop-color:#E5E5E5"/>
		<stop  offset="0.5398" style="stop-color:#FFFFFF"/>
		<stop  offset="1" style="stop-color:#C8C8C8"/>
	</linearGradient>
	<polygon fill="url(#SVGID_8_)" points="22.706,35.719 23.801,29.328 19.157,24.803 25.576,23.874 28.442,18.059 31.312,23.874 
		37.729,24.803 33.088,29.328 34.181,35.719 28.442,32.702 	"/>
	<linearGradient id="SVGID_9_" gradientUnits="userSpaceOnUse" x1="42.991" y1="27.6477" x2="61.5642" y2="27.6477">
		<stop  offset="0" style="stop-color:#E5E5E5"/>
		<stop  offset="0.5398" style="stop-color:#FFFFFF"/>
		<stop  offset="1" style="stop-color:#C8C8C8"/>
	</linearGradient>
	<polygon fill="url(#SVGID_9_)" points="46.54,36.477 47.635,30.086 42.991,25.562 49.41,24.633 52.276,18.818 55.147,24.633 
		61.564,25.562 56.923,30.086 58.015,36.477 52.276,33.461 	"/>
	<linearGradient id="SVGID_10_" gradientUnits="userSpaceOnUse" x1="67.2937" y1="27.1418" x2="85.866" y2="27.1418">
		<stop  offset="0" style="stop-color:#E5E5E5"/>
		<stop  offset="0.5398" style="stop-color:#FFFFFF"/>
		<stop  offset="1" style="stop-color:#C8C8C8"/>
	</linearGradient>
	<polygon fill="url(#SVGID_10_)" points="70.842,35.972 71.936,29.58 67.294,25.056 73.712,24.127 76.579,18.312 79.449,24.127 
		85.866,25.056 81.224,29.58 82.317,35.972 76.579,32.955 	"/>
	<linearGradient id="SVGID_11_" gradientUnits="userSpaceOnUse" x1="92.9968" y1="27.1418" x2="111.5691" y2="27.1418">
		<stop  offset="0" style="stop-color:#E5E5E5"/>
		<stop  offset="0.5398" style="stop-color:#FFFFFF"/>
		<stop  offset="1" style="stop-color:#C8C8C8"/>
	</linearGradient>
	<polygon fill="url(#SVGID_11_)" points="96.545,35.972 97.64,29.58 92.997,25.056 99.416,24.127 102.283,18.312 105.152,24.127 
		111.569,25.056 106.927,29.58 108.021,35.972 102.283,32.955 	"/>
	<linearGradient id="SVGID_12_" gradientUnits="userSpaceOnUse" x1="-4.677" y1="57.2502" x2="13.8953" y2="57.2502">
		<stop  offset="0" style="stop-color:#E5E5E5"/>
		<stop  offset="0.5398" style="stop-color:#FFFFFF"/>
		<stop  offset="1" style="stop-color:#C8C8C8"/>
	</linearGradient>
	<polygon fill="url(#SVGID_12_)" points="-1.129,66.079 -0.033,59.689 -4.677,55.163 1.741,54.235 4.608,48.42 7.478,54.235 
		13.895,55.163 9.254,59.689 10.346,66.079 4.608,63.063 	"/>
	<linearGradient id="SVGID_13_" gradientUnits="userSpaceOnUse" x1="19.6248" y1="56.7444" x2="38.197" y2="56.7444">
		<stop  offset="0" style="stop-color:#E5E5E5"/>
		<stop  offset="0.5398" style="stop-color:#FFFFFF"/>
		<stop  offset="1" style="stop-color:#C8C8C8"/>
	</linearGradient>
	<polygon fill="url(#SVGID_13_)" points="23.173,65.574 24.268,59.183 19.625,54.658 26.043,53.729 28.91,47.914 31.78,53.729 
		38.197,54.658 33.555,59.183 34.648,65.574 28.91,62.557 	"/>
	<linearGradient id="SVGID_14_" gradientUnits="userSpaceOnUse" x1="43.4587" y1="57.5022" x2="62.031" y2="57.5022">
		<stop  offset="0" style="stop-color:#E5E5E5"/>
		<stop  offset="0.5398" style="stop-color:#FFFFFF"/>
		<stop  offset="1" style="stop-color:#C8C8C8"/>
	</linearGradient>
	<polygon fill="url(#SVGID_14_)" points="47.008,66.332 48.102,59.942 43.459,55.416 49.878,54.488 52.744,48.673 55.614,54.488 
		62.031,55.416 57.389,59.942 58.483,66.332 52.744,63.316 	"/>
	<linearGradient id="SVGID_15_" gradientUnits="userSpaceOnUse" x1="67.7605" y1="56.9963" x2="86.3328" y2="56.9963">
		<stop  offset="0" style="stop-color:#E5E5E5"/>
		<stop  offset="0.5398" style="stop-color:#FFFFFF"/>
		<stop  offset="1" style="stop-color:#C8C8C8"/>
	</linearGradient>
	<polygon fill="url(#SVGID_15_)" points="71.308,65.826 72.404,59.436 67.76,54.911 74.179,53.982 77.047,48.167 79.916,53.982 
		86.333,54.911 81.691,59.436 82.785,65.826 77.047,62.81 	"/>
	<linearGradient id="SVGID_16_" gradientUnits="userSpaceOnUse" x1="93.4646" y1="56.9963" x2="112.0369" y2="56.9963">
		<stop  offset="0" style="stop-color:#E5E5E5"/>
		<stop  offset="0.5398" style="stop-color:#FFFFFF"/>
		<stop  offset="1" style="stop-color:#C8C8C8"/>
	</linearGradient>
	<polygon fill="url(#SVGID_16_)" points="97.012,65.826 98.108,59.436 93.465,54.911 99.883,53.982 102.75,48.167 105.62,53.982 
		112.037,54.911 107.395,59.436 108.489,65.826 102.75,62.81 	"/>
	<linearGradient id="SVGID_17_" gradientUnits="userSpaceOnUse" x1="-5.6125" y1="82.5686" x2="12.9597" y2="82.5686">
		<stop  offset="0" style="stop-color:#E5E5E5"/>
		<stop  offset="0.5398" style="stop-color:#FFFFFF"/>
		<stop  offset="1" style="stop-color:#C8C8C8"/>
	</linearGradient>
	<polygon fill="url(#SVGID_17_)" points="-2.064,91.399 -0.968,85.007 -5.613,80.483 0.806,79.553 3.674,73.739 6.544,79.553 
		12.96,80.483 8.319,85.007 9.412,91.399 3.674,88.381 	"/>
	<linearGradient id="SVGID_18_" gradientUnits="userSpaceOnUse" x1="18.6892" y1="82.0627" x2="37.2615" y2="82.0627">
		<stop  offset="0" style="stop-color:#E5E5E5"/>
		<stop  offset="0.5398" style="stop-color:#FFFFFF"/>
		<stop  offset="1" style="stop-color:#C8C8C8"/>
	</linearGradient>
	<polygon fill="url(#SVGID_18_)" points="22.238,90.893 23.334,84.501 18.689,79.977 25.108,79.047 27.974,73.233 30.845,79.047 
		37.261,79.977 32.621,84.501 33.714,90.893 27.974,87.876 	"/>
	<linearGradient id="SVGID_19_" gradientUnits="userSpaceOnUse" x1="42.5242" y1="82.8206" x2="61.0964" y2="82.8206">
		<stop  offset="0" style="stop-color:#E5E5E5"/>
		<stop  offset="0.5398" style="stop-color:#FFFFFF"/>
		<stop  offset="1" style="stop-color:#C8C8C8"/>
	</linearGradient>
	<polygon fill="url(#SVGID_19_)" points="46.072,91.651 47.168,85.26 42.524,80.736 48.943,79.806 51.809,73.991 54.679,79.806 
		61.096,80.736 56.455,85.26 57.549,91.651 51.809,88.634 	"/>
	<linearGradient id="SVGID_20_" gradientUnits="userSpaceOnUse" x1="66.8259" y1="82.3157" x2="85.3982" y2="82.3157">
		<stop  offset="0" style="stop-color:#E5E5E5"/>
		<stop  offset="0.5398" style="stop-color:#FFFFFF"/>
		<stop  offset="1" style="stop-color:#C8C8C8"/>
	</linearGradient>
	<polygon fill="url(#SVGID_20_)" points="70.374,91.146 71.469,84.754 66.826,80.23 73.245,79.3 76.112,73.486 78.981,79.3 
		85.398,80.23 80.757,84.754 81.85,91.146 76.112,88.129 	"/>
	<linearGradient id="SVGID_21_" gradientUnits="userSpaceOnUse" x1="92.53" y1="82.3157" x2="111.1023" y2="82.3157">
		<stop  offset="0" style="stop-color:#E5E5E5"/>
		<stop  offset="0.5398" style="stop-color:#FFFFFF"/>
		<stop  offset="1" style="stop-color:#C8C8C8"/>
	</linearGradient>
	<polygon fill="url(#SVGID_21_)" points="96.078,91.146 97.173,84.754 92.53,80.23 98.948,79.3 101.815,73.486 104.685,79.3 
		111.102,80.23 106.461,84.754 107.554,91.146 101.815,88.129 	"/>
</g>
</svg>
