<?xml version="1.0" encoding="utf-8"?>
<!-- Generator: Adobe Illustrator 16.0.0, SVG Export Plug-In . SVG Version: 6.00 Build 0)  -->
<!DOCTYPE svg PUBLIC "-//W3C//DTD SVG 1.1//EN" "http://www.w3.org/Graphics/SVG/1.1/DTD/svg11.dtd">
<svg version="1.1" id="Layer_1" xmlns="http://www.w3.org/2000/svg" xmlns:xlink="http://www.w3.org/1999/xlink" x="0px" y="0px"
	 width="197px" height="155.17px" viewBox="0 0 197 155.17" enable-background="new 0 0 197 155.17" xml:space="preserve">
<g>
	<linearGradient id="SVGID_1_" gradientUnits="userSpaceOnUse" x1="69.6831" y1="28.7671" x2="127.835" y2="28.7671">
		<stop  offset="0" style="stop-color:#E5E5E5"/>
		<stop  offset="0.5398" style="stop-color:#FFFFFF"/>
		<stop  offset="1" style="stop-color:#C8C8C8"/>
	</linearGradient>
	<path fill="url(#SVGID_1_)" d="M98.757,21.135c12.245,0,22.172,9.926,22.172,22.169h6.906c0-16.057-13.021-29.075-29.078-29.075
		c-16.056,0-29.074,13.018-29.074,29.075h6.904C76.587,31.061,86.515,21.135,98.757,21.135z"/>
	<linearGradient id="SVGID_2_" gradientUnits="userSpaceOnUse" x1="52.0859" y1="92.4316" x2="144.0742" y2="92.4316">
		<stop  offset="0" style="stop-color:#E5E5E5"/>
		<stop  offset="0.5398" style="stop-color:#FFFFFF"/>
		<stop  offset="1" style="stop-color:#C8C8C8"/>
	</linearGradient>
	<path fill="url(#SVGID_2_)" d="M137.582,49.597c0-3.389-2.75-6.135-6.141-6.135H65.797c-3.391,0-6.135,2.748-6.135,6.135
		l-7.576,85.669c0,3.387,2.746,6.135,6.136,6.135h79.718c3.386,0,6.135-2.748,6.135-6.135L137.582,49.597z"/>
</g>
<path fill="#787366" d="M98.302,22.312c11.457,0,20.745,9.287,20.745,20.742h6.462c0-15.023-12.183-27.204-27.207-27.204
	c-15.022,0-27.202,12.18-27.202,27.204h6.459C77.56,31.599,86.848,22.312,98.302,22.312z"/>
<path fill="#787366" d="M135.542,52.241c0-3.195-2.591-5.783-5.788-5.783H67.873c-3.196,0-5.783,2.59-5.783,5.783l-7.142,80.757
	c0,3.192,2.589,5.783,5.784,5.783h75.147c3.192,0,5.783-2.591,5.783-5.783L135.542,52.241z"/>
<g opacity="0.6">
	<path fill="#C0B9AB" d="M101.926,18.159c4.607,0,8.945,1.149,12.749,3.171c-4.556-3.438-10.226-5.479-16.373-5.479
		c-15.022,0-27.202,12.18-27.202,27.204h3.729C76.001,29.112,87.682,18.159,101.926,18.159z"/>
</g>
<path opacity="0.6" fill="#C0B9AB" d="M89.293,63.24c0-3.192,2.587-5.783,5.783-5.783h40.861l-0.396-5.217
	c0-3.195-2.591-5.783-5.788-5.783H67.873c-3.196,0-5.783,2.59-5.783,5.783l-7.142,80.757c0,3.192,2.589,5.783,5.784,5.783h21.881
	L89.293,63.24z"/>
<linearGradient id="SVGID_3_" gradientUnits="userSpaceOnUse" x1="72.9263" y1="101.0537" x2="92.7949" y2="101.0537">
	<stop  offset="0" style="stop-color:#E5E5E5"/>
	<stop  offset="0.5398" style="stop-color:#FFFFFF"/>
	<stop  offset="1" style="stop-color:#C8C8C8"/>
</linearGradient>
<polygon fill="url(#SVGID_3_)" points="88.998,110.502 82.86,107.271 76.719,110.502 77.894,103.662 72.926,98.821 79.79,97.827 
	82.86,91.604 85.929,97.827 92.795,98.821 87.829,103.662 "/>
<linearGradient id="SVGID_4_" gradientUnits="userSpaceOnUse" x1="86.9521" y1="78.3525" x2="106.8223" y2="78.3525">
	<stop  offset="0" style="stop-color:#E5E5E5"/>
	<stop  offset="0.5398" style="stop-color:#FFFFFF"/>
	<stop  offset="1" style="stop-color:#C8C8C8"/>
</linearGradient>
<polygon fill="url(#SVGID_4_)" points="90.749,87.8 91.92,80.962 86.952,76.121 93.819,75.127 96.886,68.906 99.957,75.127 
	106.822,76.121 101.856,80.962 103.026,87.8 96.886,84.572 "/>
<linearGradient id="SVGID_5_" gradientUnits="userSpaceOnUse" x1="100.9805" y1="101.0537" x2="120.8477" y2="101.0537">
	<stop  offset="0" style="stop-color:#E5E5E5"/>
	<stop  offset="0.5398" style="stop-color:#FFFFFF"/>
	<stop  offset="1" style="stop-color:#C8C8C8"/>
</linearGradient>
<polygon fill="url(#SVGID_5_)" points="117.056,110.502 110.914,107.271 104.776,110.502 105.948,103.662 100.98,98.821 
	107.846,97.827 110.914,91.604 113.982,97.827 120.848,98.821 115.882,103.662 "/>
</svg>
