<?xml version="1.0" encoding="utf-8"?>
<!-- Generator: Adobe Illustrator 16.0.4, SVG Export Plug-In . SVG Version: 6.00 Build 0)  -->
<!DOCTYPE svg PUBLIC "-//W3C//DTD SVG 1.1//EN" "http://www.w3.org/Graphics/SVG/1.1/DTD/svg11.dtd">
<svg version="1.1" id="Layer_1" xmlns="http://www.w3.org/2000/svg" xmlns:xlink="http://www.w3.org/1999/xlink" x="0px" y="0px"
	 width="68.354px" height="51.926px" viewBox="0 0 68.354 51.926" enable-background="new 0 0 68.354 51.926" xml:space="preserve">
<g>
	<g>
		<g>
			<g>
				<rect x="0.376" y="-0.037" fill="none" width="67.978" height="51.963"/>
			</g>
		</g>
	</g>
	<g>
		<polygon fill="#A7A7A7" points="37.624,18.377 34.276,26.323 30.928,18.377 27.193,18.377 31.409,27.923 29.157,27.923 
			29.157,29.913 32.303,29.913 32.303,31.954 29.157,31.954 29.157,33.935 32.303,33.935 32.303,38.097 36.083,38.097 
			36.083,33.935 39.229,33.935 39.229,31.954 36.083,31.954 36.083,29.913 39.229,29.913 39.229,27.923 36.946,27.923 
			41.161,18.377 		"/>
		<rect x="25.189" y="4.97" fill="#A7A7A7" width="17.973" height="5.322"/>
		<path fill="#A7A7A7" d="M48.684,6.848h-3.676v1.805h3.675c1.196,0,2.167,0.968,2.167,2.17v32.159c0,1.196-0.976,2.168-2.167,2.168
			H19.671c-1.197,0-2.168-0.972-2.168-2.168V10.823c0-1.202,0.971-2.17,2.168-2.17h3.671V6.848h-3.671
			c-2.191,0-3.976,1.78-3.976,3.973v32.161c0,2.19,1.79,3.975,3.976,3.975h29.013c2.191,0,3.976-1.787,3.976-3.975V10.823
			C52.659,8.628,50.872,6.848,48.684,6.848z"/>
	</g>
</g>
</svg>
