<?xml version="1.0" encoding="utf-8"?>
<!-- Generator: Adobe Illustrator 16.0.4, SVG Export Plug-In . SVG Version: 6.00 Build 0)  -->
<!DOCTYPE svg PUBLIC "-//W3C//DTD SVG 1.1//EN" "http://www.w3.org/Graphics/SVG/1.1/DTD/svg11.dtd">
<svg version="1.1" id="Layer_1" xmlns="http://www.w3.org/2000/svg" xmlns:xlink="http://www.w3.org/1999/xlink" x="0px" y="0px"
	 width="68.354px" height="51.926px" viewBox="0 0 68.354 51.926" enable-background="new 0 0 68.354 51.926" xml:space="preserve">
<g>
	<g>
		<g>
			<g>
				<rect x="0.376" y="-0.037" fill="none" width="67.978" height="51.963"/>
			</g>
		</g>
	</g>
	<g>
		<path fill="#A7A7A7" d="M52.077,40.336c0.602-0.23,1.103-0.424,1.823-0.703c-0.641,2.02-1.215,3.861-1.84,5.834
			c-1.797-0.967-3.483-1.879-5.337-2.869c0.639-0.297,1.118-0.52,1.672-0.775c-1.871-3.828-5.298-4.678-9.11-4.914v-3.863
			C44.854,33.191,49.456,34.951,52.077,40.336"/>
		<path fill="#A7A7A7" d="M44.341,32.256c2.247-1.502,3.135-2.332,4.069-4.217c-0.528-0.258-1-0.48-1.663-0.801
			c1.854-1.017,3.563-1.943,5.362-2.917c0.608,1.989,1.166,3.853,1.782,5.857c-0.704-0.256-1.234-0.439-1.582-0.566
			c-1.12,1.367-2.343,3.156-3.765,4.436C47.578,33.553,45.892,32.752,44.341,32.256"/>
		<path fill="#A7A7A7" d="M55.929,32.992c0.056-0.662,0.096-1.191,0.151-1.959c1.663,1.367,3.165,2.605,4.763,3.924
			c-1.59,1.287-3.1,2.502-4.763,3.846c-0.056-0.738-0.096-1.264-0.151-1.928c-1.042,0-1.821,0.025-2.838,0.018
			c-0.975-0.008-1.463,0.018-1.463,0.018c-0.44-0.785-1.183-1.504-1.862-1.959c0,0,1.23-1.199,1.838-2.021
			C51.606,32.936,54.706,32.992,55.929,32.992"/>
		<g>
			<polygon fill="#A7A7A7" points="31.514,21.034 29.652,25.448 27.791,21.034 25.71,21.034 28.055,26.344 26.802,26.344 
				26.802,27.445 28.553,27.445 28.553,28.582 26.802,28.582 26.802,29.682 28.553,29.682 28.553,32.002 30.652,32.002 
				30.652,29.682 32.401,29.682 32.401,28.582 30.652,28.582 30.652,27.445 32.401,27.445 32.401,26.344 31.138,26.344 
				33.484,21.034 			"/>
			<path fill="#A7A7A7" d="M7.511,6.459v29.152h28.386l-2.457-2.082H9.595V18.953h38.873v4.234l2.078-1.978v-2.257v-5.936V6.459
				H7.511z M48.464,13.012H9.595v-4.47h38.869V13.012z"/>
		</g>
	</g>
</g>
</svg>
