<?xml version="1.0" encoding="utf-8"?>
<!-- Generator: Adobe Illustrator 16.0.4, SVG Export Plug-In . SVG Version: 6.00 Build 0)  -->
<!DOCTYPE svg PUBLIC "-//W3C//DTD SVG 1.1//EN" "http://www.w3.org/Graphics/SVG/1.1/DTD/svg11.dtd">
<svg version="1.1" id="Layer_1" xmlns="http://www.w3.org/2000/svg" xmlns:xlink="http://www.w3.org/1999/xlink" x="0px" y="0px"
	 width="68.354px" height="51.926px" viewBox="0 0 68.354 51.926" enable-background="new 0 0 68.354 51.926" xml:space="preserve">
<g>
	<g>
		<g>
			<g>
				<rect x="0.376" y="-0.037" fill="none" width="67.978" height="51.963"/>
			</g>
		</g>
	</g>
</g>
<g>
	<path fill="#A7A7A7" d="M61.519,28.459c-0.74-1.738-3.066-3.024-5.917-1.981c-1.567,0.571-7.253,2.717-10.281,3.861
		c2.666-2.651,4.229-6.269,4.229-10.086c0-7.849-6.388-14.235-14.235-14.235c-7.854,0-14.237,6.386-14.237,14.235
		c0,1.887,0.388,3.747,1.107,5.475c-2.348-0.292-4.713-0.078-7.079,0.667c-5.897,1.857-8.356,8.469-8.458,8.745
		c-0.202,0.557,0.083,1.168,0.635,1.37c0.552,0.205,1.164-0.086,1.367-0.634c0.024-0.063,2.218-5.91,7.097-7.447
		c4.398-1.382,8.635-0.752,12.959,1.919l0.197,0.121l0.228,0.031c5.734,0.741,9.889,1.073,11.661,1.221l0.306,0.027
		c0.816,0.064,1.349,0.34,1.673,0.697c0.054,0.146,0.136,0.266,0.236,0.371c0.127,0.261,0.18,0.545,0.158,0.821
		c-0.055,0.807-0.65,1.594-1.859,1.534l-19.695-0.977c-0.021-0.003-0.037-0.003-0.055-0.003c-0.568,0-1.034,0.442-1.066,1.012
		c-0.027,0.589,0.425,1.09,1.014,1.119L41.2,37.301c0.08,0.005,0.156,0.007,0.239,0.007c2.355,0,3.742-1.783,3.856-3.526
		c0.022-0.369-0.005-0.744-0.094-1.121c2.639-0.993,9.405-3.547,11.133-4.179c1.716-0.629,2.918,0.096,3.221,0.81
		c0.311,0.731-0.221,1.521-1.421,2.106c-5.831,2.856-18.622,8.94-22.023,10.328c-2.917,1.186-5.792,0.973-10.088,0.169
		c-5.642-1.061-9.933,1.238-10.988,2.127c-0.454,0.38-0.512,1.053-0.132,1.506c0.213,0.251,0.515,0.381,0.818,0.381
		c0.243,0,0.488-0.084,0.686-0.248c0.701-0.587,4.311-2.592,9.224-1.671c4.584,0.861,7.902,1.094,11.29-0.29
		c3.441-1.401,16.301-7.522,22.155-10.384C61.653,32.054,62.161,29.966,61.519,28.459z M40.965,29.597
		c-1.738-0.142-5.769-0.467-11.337-1.181c-1.78-1.081-3.578-1.846-5.389-2.304c-0.952-1.797-1.462-3.811-1.462-5.857
		c0-6.908,5.624-12.532,12.535-12.532c6.91,0,12.529,5.62,12.529,12.532c0,3.838-1.784,7.452-4.784,9.827
		c-0.505-0.234-1.092-0.402-1.783-0.461L40.965,29.597z"/>
	<polygon fill="#A7A7A7" points="37.865,12.588 35.387,18.474 32.908,12.588 30.135,12.588 33.256,19.655 31.594,19.655 
		31.594,21.133 33.92,21.133 33.92,22.644 31.594,22.644 31.594,24.112 33.92,24.112 33.92,27.197 36.721,27.197 36.721,24.112 
		39.051,24.112 39.051,22.644 36.721,22.644 36.721,21.133 39.051,21.133 39.051,19.655 37.362,19.655 40.483,12.588 	"/>
</g>
</svg>
