<?xml version="1.0" encoding="utf-8"?>
<!-- Generator: Adobe Illustrator 16.0.4, SVG Export Plug-In . SVG Version: 6.00 Build 0)  -->
<!DOCTYPE svg PUBLIC "-//W3C//DTD SVG 1.1//EN" "http://www.w3.org/Graphics/SVG/1.1/DTD/svg11.dtd">
<svg version="1.1" id="Layer_1" xmlns="http://www.w3.org/2000/svg" xmlns:xlink="http://www.w3.org/1999/xlink" x="0px" y="0px"
	 width="68.354px" height="51.926px" viewBox="0 0 68.354 51.926" enable-background="new 0 0 68.354 51.926" xml:space="preserve">
<g>
	<g>
		<g>
			<g>
				<rect x="0.376" y="-0.037" fill="none" width="67.978" height="51.963"/>
			</g>
		</g>
	</g>
</g>
<g>
	<polygon fill="#A7A7A7" points="33.16,23.007 31.251,27.531 29.344,23.007 27.211,23.007 29.615,28.448 28.331,28.448 
		28.331,29.58 30.126,29.58 30.126,30.743 28.331,30.743 28.331,31.874 30.126,31.874 30.126,34.249 32.278,34.249 32.278,31.874 
		34.07,31.874 34.07,30.743 32.278,30.743 32.278,29.58 34.07,29.58 34.07,28.448 32.778,28.448 35.18,23.007 	"/>
	<path fill="#A7A7A7" d="M8.552,8.063v29.889h29.104l-2.521-2.137H10.688V20.872h39.858v4.341l2.132-2.028v-2.313v-6.088V8.063
		H8.552z M50.54,14.781H10.688v-4.582h39.854L50.54,14.781L50.54,14.781z"/>
	<path fill="#A7A7A7" d="M54.325,41.489c-1.279,0-2.56,0.013-3.842-0.007c-0.392-0.009-0.545,0.12-0.518,0.516
		c0.024,0.413,0.018,0.828,0,1.242c-0.021,0.48-0.27,0.693-0.733,0.602c-0.234-0.049-0.469-0.146-0.677-0.266
		c-1.96-1.119-3.915-2.243-5.864-3.375c-0.662-0.384-0.662-0.633,0.005-1.019c1.919-1.109,3.844-2.215,5.766-3.315
		c0.165-0.094,0.335-0.171,0.512-0.236c0.686-0.253,0.99-0.04,0.999,0.695c0.005,0.337,0.029,0.678-0.005,1.013
		c-0.048,0.466,0.152,0.572,0.585,0.567c2.409-0.018,4.817-0.01,7.226-0.007c0.226,0,0.453-0.008,0.676,0.021
		c1.088,0.137,1.347,0.436,1.348,1.527c0,0.149,0,0.301,0,0.45c0,1.18-0.356,1.56-1.581,1.584
		C56.923,41.509,55.623,41.489,54.325,41.489C54.325,41.486,54.325,41.486,54.325,41.489z"/>
	<path fill="#A7A7A7" d="M42.202,32.812c0-1.475,0.312-1.795,1.805-1.8c2.465-0.009,4.929-0.017,7.39,0.007
		c0.49,0.005,0.69-0.123,0.639-0.631c-0.038-0.369-0.017-0.751-0.004-1.127c0.015-0.5,0.29-0.714,0.775-0.584
		c0.268,0.072,0.528,0.195,0.769,0.332c1.908,1.094,3.812,2.191,5.716,3.294c0.655,0.381,0.654,0.64,0.002,1.016
		c-1.903,1.103-3.81,2.196-5.716,3.296c-0.064,0.036-0.128,0.072-0.198,0.106c-1.017,0.517-1.35,0.316-1.35-0.815
		c-0.001-1.304-0.001-1.304-1.301-1.304c-2.106,0-4.21,0-6.316,0c-0.132,0-0.266,0-0.396,0C42.5,34.594,42.202,34.299,42.202,32.812
		z"/>
</g>
</svg>
