<?xml version="1.0" encoding="utf-8"?>
<!-- Generator: Adobe Illustrator 16.0.4, SVG Export Plug-In . SVG Version: 6.00 Build 0)  -->
<!DOCTYPE svg PUBLIC "-//W3C//DTD SVG 1.1//EN" "http://www.w3.org/Graphics/SVG/1.1/DTD/svg11.dtd">
<svg version="1.1" id="Layer_1" xmlns="http://www.w3.org/2000/svg" xmlns:xlink="http://www.w3.org/1999/xlink" x="0px" y="0px"
	 width="68.354px" height="51.926px" viewBox="0 0 68.354 51.926" enable-background="new 0 0 68.354 51.926" xml:space="preserve">
<g>
	<g>
		<g>
			<g>
				<rect x="0.376" y="-0.037" fill="none" width="67.978" height="51.963"/>
			</g>
		</g>
	</g>
</g>
<g>
	<g>
		<g>
			<rect x="16.226" y="22.812" fill="#A7A7A7" width="19.341" height="1.575"/>
			<rect x="16.226" y="26.237" fill="#A7A7A7" width="16.77" height="1.577"/>
			<rect x="16.226" y="31.953" fill="#A7A7A7" width="19.341" height="1.573"/>
			<rect x="16.226" y="35.378" fill="#A7A7A7" width="13.512" height="1.576"/>
		</g>
		<path fill="#A7A7A7" d="M26.425,42.646c-1.029,0.137-2.049,0.308-3.088,0.348c-0.57,0.022-1.152,0.014-1.713-0.104
			c-0.406-0.085-0.86-0.239-1.094-0.604c-0.058-0.091-0.166-0.118-0.262-0.072c-0.256,0.134-0.512,0.002-0.763-0.084
			c0.038-0.156,0.08-0.314,0.166-0.456c0.115-0.188-0.146-0.379-0.299-0.229c-0.21,0.202-0.46,0.37-0.745,0.433
			c0.091-0.721,0.572-1.357,0.832-2.022c0.082-0.199-0.251-0.336-0.348-0.146c-0.283,0.562-0.598,1.121-1.013,1.602
			c-0.383,0.449-0.948,0.899-1.527,0.5c-0.204-0.141-0.394,0.192-0.196,0.331c0.698,0.481,1.353,0.143,1.892-0.431
			c-0.024,0.124-0.036,0.25-0.039,0.381c0,0.103,0.087,0.195,0.19,0.191c0.252-0.009,0.489-0.078,0.703-0.191
			c-0.009,0.038-0.019,0.081-0.028,0.121c-0.025,0.094,0.028,0.215,0.134,0.234c0.2,0.039,0.38,0.127,0.575,0.179
			c0.17,0.043,0.336,0.034,0.496-0.017c0.628,0.768,1.911,0.785,2.811,0.769c1.115-0.019,2.213-0.206,3.316-0.352
			C26.664,42.998,26.669,42.614,26.425,42.646z"/>
	</g>
	<path fill="#A7A7A7" d="M42.897,39.57c0,2.521,0,3.234,0,5.758c-9.823,0-19.65,0-29.515,0c0-12.913,0-25.784,0-38.691
		c6.143,0,12.277,0,18.447,0c0,3.66,0,7.318,0,11.034c3.703,0,7.374,0,11.065,0c0,3.742,0,4.499,0,8.229l1.857-1.858
		c0.001-3.396,0.001-3.816,0.004-7.211c0.001-0.344-0.097-0.591-0.337-0.831c-3.64-3.628-7.271-7.259-10.9-10.898
		c-0.25-0.253-0.51-0.361-0.869-0.359C25.801,4.751,18.95,4.749,12.101,4.749c-0.16,0-0.324,0-0.542,0c0,14.179,0,28.293,0,42.436
		c11.067,0,22.111,0,33.194,0c0-0.196,0-0.359,0-0.522c0-3.58,0-5.363,0-8.945L42.897,39.57z"/>
	<g>
		<path fill="#A7A7A7" d="M48.529,22.842l4.445,4.448L41.718,38.547l-4.445-4.446L48.529,22.842z M56.348,21.77l-1.981-1.984
			c-0.768-0.766-2.012-0.766-2.78,0l-1.9,1.902l4.448,4.447l2.214-2.216C56.945,23.322,56.945,22.364,56.348,21.77z M34.946,40.349
			c-0.081,0.366,0.25,0.693,0.611,0.602l4.957-1.199l-4.446-4.448L34.946,40.349z"/>
	</g>
</g>
</svg>
