<?xml version="1.0" encoding="utf-8"?>
<!-- Generator: Adobe Illustrator 16.0.4, SVG Export Plug-In . SVG Version: 6.00 Build 0)  -->
<!DOCTYPE svg PUBLIC "-//W3C//DTD SVG 1.1//EN" "http://www.w3.org/Graphics/SVG/1.1/DTD/svg11.dtd">
<svg version="1.1" id="Layer_1" xmlns="http://www.w3.org/2000/svg" xmlns:xlink="http://www.w3.org/1999/xlink" x="0px" y="0px"
	 width="68.354px" height="51.926px" viewBox="0 0 68.354 51.926" enable-background="new 0 0 68.354 51.926" xml:space="preserve">
<g>
	<g>
		<g>
			<g>
				<rect x="0.376" y="-0.037" fill="none" width="67.978" height="51.963"/>
			</g>
		</g>
	</g>
</g>
<g>
	<polygon fill="#A7A7A7" points="48.791,29.219 45.651,36.676 42.51,29.219 39.006,29.219 42.961,38.174 40.849,38.174 
		40.849,40.041 43.801,40.041 43.801,41.957 40.849,41.957 40.849,43.815 43.801,43.815 43.801,47.719 47.347,47.719 47.347,43.815 
		50.296,43.815 50.296,41.957 47.347,41.957 47.347,40.041 50.296,40.041 50.296,38.174 48.155,38.174 52.11,29.219 	"/>
	<path fill="#A7A7A7" d="M34.376,37.433c0-5.725,2.968-10.623,7.177-12.661h-3.738v-5.333h5.331v4.719
		c0.887-0.258,1.811-0.396,2.759-0.396c0.301,0,0.601,0.015,0.896,0.041V6.111c0-1.052-0.851-1.904-1.905-1.904H18.148
		c-1.052,0-1.903,0.853-1.903,1.904v38.854c0,1.052,0.852,1.904,1.903,1.904h19.419C35.588,44.418,34.376,41.093,34.376,37.433z
		 M19.894,8.151h23.25v6.889h-23.25V8.151z M25.228,42.081h-5.334V36.75h5.334V42.081z M25.228,33.426h-5.334v-5.335h5.334V33.426z
		 M25.228,24.771h-5.334v-5.332h5.334V24.771z M34.182,42.081h-5.331V36.75h5.331V42.081z M34.182,33.426h-5.331v-5.335h5.331
		V33.426z M34.182,24.771h-5.331v-5.332h5.331V24.771z"/>
</g>
</svg>
