<?xml version="1.0" encoding="utf-8"?>
<!-- Generator: Adobe Illustrator 16.0.4, SVG Export Plug-In . SVG Version: 6.00 Build 0)  -->
<!DOCTYPE svg PUBLIC "-//W3C//DTD SVG 1.1//EN" "http://www.w3.org/Graphics/SVG/1.1/DTD/svg11.dtd">
<svg version="1.1" id="Layer_1" xmlns="http://www.w3.org/2000/svg" xmlns:xlink="http://www.w3.org/1999/xlink" x="0px" y="0px"
	 width="68.354px" height="51.926px" viewBox="0 0 68.354 51.926" enable-background="new 0 0 68.354 51.926" xml:space="preserve">
<g>
	<g>
		<g>
			<g>
				<rect x="0.376" y="-0.037" fill="none" width="67.978" height="51.963"/>
			</g>
		</g>
	</g>
</g>
<g>
	<path fill="#A7A7A7" d="M50.525,15.612c-3.658-3.646-7.31-7.298-10.956-10.956c-0.25-0.254-0.51-0.362-0.874-0.36
		C31.81,4.305,24.922,4.302,18.037,4.302c-0.164,0-0.328,0-0.55,0c0,14.253,0,28.444,0,42.661c11.125,0,22.229,0,33.369,0
		c0-0.197,0-0.361,0-0.525c0-9.996-0.002-19.992,0.01-29.99C50.865,16.102,50.767,15.855,50.525,15.612z M48.993,45.096
		c-9.873,0-19.754,0-29.669,0c0-12.979,0-25.919,0-38.895c6.175,0,12.34,0,18.542,0c0,3.679,0,7.358,0,11.094
		c3.727,0,7.419,0,11.129,0C48.993,26.588,48.993,35.822,48.993,45.096z"/>
	<g>
		<rect x="22.201" y="23.64" fill="#A7A7A7" width="1.537" height="1.584"/>
		<rect x="25.986" y="23.64" fill="#A7A7A7" width="19.444" height="1.584"/>
		<rect x="25.986" y="27.084" fill="#A7A7A7" width="16.86" height="1.584"/>
		<rect x="22.201" y="32.83" fill="#A7A7A7" width="1.537" height="1.582"/>
		<rect x="25.986" y="32.83" fill="#A7A7A7" width="19.444" height="1.582"/>
		<rect x="25.986" y="36.271" fill="#A7A7A7" width="13.583" height="1.584"/>
	</g>
</g>
</svg>
