<?xml version="1.0" encoding="utf-8"?>
<!-- Generator: Adobe Illustrator 16.0.4, SVG Export Plug-In . SVG Version: 6.00 Build 0)  -->
<!DOCTYPE svg PUBLIC "-//W3C//DTD SVG 1.1//EN" "http://www.w3.org/Graphics/SVG/1.1/DTD/svg11.dtd">
<svg version="1.1" id="Layer_1" xmlns="http://www.w3.org/2000/svg" xmlns:xlink="http://www.w3.org/1999/xlink" x="0px" y="0px"
	 width="68.354px" height="51.926px" viewBox="0 0 68.354 51.926" enable-background="new 0 0 68.354 51.926" xml:space="preserve">
<g>
	<g>
		<g>
			<g>
				<rect x="0.376" y="-0.037" fill="none" width="67.978" height="51.963"/>
			</g>
		</g>
	</g>
</g>
<g>
	<rect x="24.984" y="4.487" fill="#A7A7A7" width="18.385" height="5.442"/>
	<path fill="#A7A7A7" d="M49.018,6.409h-3.762v1.846h3.762c1.223,0,2.216,0.99,2.216,2.22v32.897c0,1.224-0.998,2.215-2.216,2.215
		H19.337c-1.224,0-2.215-0.991-2.215-2.215V10.476c0-1.229,0.991-2.22,2.215-2.22h3.758V6.41h-3.758
		c-2.238,0-4.066,1.822-4.066,4.064v32.897c0,2.238,1.828,4.066,4.066,4.066h29.681c2.238,0,4.065-1.828,4.065-4.066V10.476
		C53.083,8.231,51.256,6.409,49.018,6.409z"/>
	<path fill="#A7A7A7" d="M41.727,32.958c1.004-1.327,1.554-2.747,1.618-4.224c0.052-0.983,0.045-1.984,0.045-2.954v-4.377
		c0-0.845-0.518-1.421-1.387-1.539l-0.371-0.044c-0.499-0.059-0.97-0.115-1.423-0.219c-1.641-0.364-3.225-1.108-4.983-2.334
		c-0.279-0.19-0.583-0.408-1.038-0.408c-0.452,0-0.758,0.218-1.028,0.408c-2.356,1.626-4.472,2.443-6.653,2.574
		c-0.577,0.029-1.531,0.27-1.531,1.627l-0.009,2.188c-0.007,1.474-0.007,2.957,0.009,4.428c0,0.591,0.074,1.209,0.228,1.896
		c0.328,1.471,1.108,2.823,2.383,4.121c1.563,1.583,3.533,2.809,6.062,3.759c0.167,0.058,0.345,0.08,0.526,0.08l0,0
		c0.247,0,0.496-0.061,0.672-0.146l0.643-0.279c0.521-0.225,1.055-0.459,1.597-0.728C39.064,35.752,40.588,34.491,41.727,32.958z
		 M36.066,34.819c-0.481,0.24-0.979,0.453-1.467,0.664c-0.139,0.059-0.276,0.119-0.424,0.185v-8.07h-6.989
		c-0.007-1.313-0.007-2.627-0.007-3.934l0.007-1.655c2.327-0.24,4.575-1.123,6.989-2.749v8.347h6.981
		c-0.007,0.344-0.007,0.693-0.028,1.027c-0.044,1.037-0.431,2.008-1.183,2.997C39.013,32.9,37.738,33.951,36.066,34.819z"/>
</g>
</svg>
