<?xml version="1.0" encoding="utf-8"?>
<!-- Generator: Adobe Illustrator 16.0.4, SVG Export Plug-In . SVG Version: 6.00 Build 0)  -->
<!DOCTYPE svg PUBLIC "-//W3C//DTD SVG 1.1//EN" "http://www.w3.org/Graphics/SVG/1.1/DTD/svg11.dtd">
<svg version="1.1" id="Layer_1" xmlns="http://www.w3.org/2000/svg" xmlns:xlink="http://www.w3.org/1999/xlink" x="0px" y="0px"
	 width="316.176px" height="272.059px" viewBox="0 0 316.176 272.059" enable-background="new 0 0 316.176 272.059"
	 xml:space="preserve">
<g>
	<g>
		<g>
			<rect x="0" y="0" fill="none" width="316.176" height="272.059"/>
		</g>
	</g>
	<g>
		<path opacity="0.6" fill-rule="evenodd" clip-rule="evenodd" fill="#FFFFFF" d="M266.587,99.295
			c2.378-0.408,2.785-0.865,2.844-3.212c0.134-5.103-3.755-9.389-9.661-10.513c-6.283-1.196-12.616-0.641-19.089-0.495
			c0.62,0.907,1.327,0.674,2.07,0.654c4.208-0.114,8.415-0.125,12.61,0.381C263.414,87.082,267.68,92.053,266.587,99.295z"/>
		<g>
			<g opacity="0.6">
				<path fill="#FFFFFF" d="M254.394,155.349l2.965,1.127c0.987-5.843,1.522-11.835,1.522-17.954c0-8.514-1.012-16.789-2.887-24.737
					h-3.184c1.93,7.937,2.953,16.218,2.953,24.737C255.764,144.251,255.282,149.869,254.394,155.349z"/>
			</g>
			<g opacity="0.6">
				<path fill="#FFFFFF" d="M123.878,37.305c-0.198-1.044-0.396-2.07-0.603-3.069c-15.11,4.02-28.932,11.238-40.684,20.894
					c0.408,0.948,0.874,1.935,1.392,2.9C95.469,48.453,109.03,41.288,123.878,37.305z"/>
			</g>
			<g opacity="0.6">
				<path fill="#FFFFFF" d="M230.823,70.792v-4.651c-11.77-12.965-26.585-23.118-43.379-29.165l-0.561,3.101
					C204.092,46.372,219.174,57.079,230.823,70.792z"/>
			</g>
			<g opacity="0.6">
				<path fill="#FFFFFF" d="M239.876,193.899c-12.287,19.659-30.925,34.927-52.993,43.015v3.33
					c23.358-8.276,43.062-24.351,55.911-45.117L239.876,193.899z"/>
			</g>
			<g opacity="0.6">
				<path fill="#FFFFFF" d="M72.605,207.964v4.586c19.369,20.483,46.636,33.426,76.892,33.837v-3.118
					C118.94,242.843,91.511,229.264,72.605,207.964z"/>
				<path fill="#FFFFFF" d="M52.084,173.105c-3.799-10.832-5.888-22.463-5.888-34.583c0-11.058,1.736-21.714,4.923-31.731
					l-3.124-0.493c-3.19,10.181-4.917,21.007-4.917,32.224c0,12.096,2.031,23.718,5.718,34.58
					C49.881,173.105,50.979,173.105,52.084,173.105z"/>
			</g>
			<g opacity="0.6">
				<path fill-rule="evenodd" clip-rule="evenodd" fill="#FFFFFF" d="M162.186,247.481c-2.226,0.459-2.606-0.461-2.394-1.916
					c0.244-1.689-0.882-4.003,2.175-4.365c0.795-0.095,0.365-1.015,0.414-1.55c0.271-3.23,0.523-6.467,0.728-9.707
					c0.085-1.339,0.691-1.841,2.028-1.725c1.123,0.097,2.265,0.021,3.4,0.021c3.126,0,3.147,0,3.367,3.258
					c0.182,2.71,0.334,5.426,0.457,8.141c0.042,0.949,0.088,1.491,1.339,1.796c2.052,0.501,1.133,2.47,1.315,3.86
					c0.201,1.496-0.003,2.705-2.101,2.357c0.841,0.943,1.459,5.767,1.021,6.768c-0.247,0.569-0.707,0.475-1.14,0.475
					c-3.554,0.007-7.103,0.013-10.659-0.009c-0.35,0-0.809-0.029-1.032-0.243C160.499,254.069,161.12,248.65,162.186,247.481z"/>
				<path fill-rule="evenodd" clip-rule="evenodd" fill="#FFFFFF" d="M172.422,260.858c0,5.283,0,5.283-5.231,5.283
					c-1.211,0-2.423,0.009-3.632-0.007c-0.502-0.003-1.162,0.116-1.136-0.694c0.019-0.483-0.396-1.215,0.762-1.173
					c0.949,0.034,0.683-0.681,0.293-1.174c-0.12-0.149-0.457-0.11-0.609-0.253c-0.664-0.625-0.868-0.969,0.285-1.478
					c1.493-0.656,0.168-0.961-0.35-1.449c-0.696-0.654-0.785-1.171,0.497-1.382c0.712-0.116,0.73-0.676-0.037-1.193
					c-0.451-0.307-0.999-0.414-0.834-1.09c0.22-0.874,0.98-0.514,1.503-0.526c2.345-0.04,4.693,0.055,7.033-0.043
					c1.255-0.055,1.55,0.423,1.474,1.554C172.358,258.434,172.422,259.652,172.422,260.858z"/>
				<path fill-rule="evenodd" clip-rule="evenodd" fill="#FFFFFF" d="M169.414,223.665c0.024,0.325,0,0.858,0.121,1.355
					c0.46,1.86-0.121,2.521-2.131,2.499c-1.991-0.016-2.686-0.562-2.052-2.502c0.112-0.351,0.201-0.795,0.078-1.112
					c-0.943-2.456,0.464-2.511,2.312-2.515C169.365,221.386,170.048,221.809,169.414,223.665z"/>
				<path fill-rule="evenodd" clip-rule="evenodd" fill="#FFFFFF" d="M167.538,270.306c-0.529-0.275-1.57,0.611-1.991-0.49
					c-0.39-1.019,1.377-1.265,0.987-2.363c0.596-0.079,1.33-0.64,1.698,0.289c0.749,1.903,1.528,1.054,1.937-0.073
					c0.305-0.84,0.719-1.2,1.413-0.907c0.715,0.305,0.377,1.081,0.194,1.586C171.078,270.292,169.444,270.448,167.538,270.306z"/>
			</g>
			<path opacity="0.6" fill-rule="evenodd" clip-rule="evenodd" fill="#FFFFFF" d="M238.181,107.777
				c-2.841,0.524-5.724-0.475-8.162-3.014c-2.096-2.183-4.877-2.962-7.776-3.257c-1.521-0.152-2.128-0.737-2.157-2.329
				c-0.062-3.164,0.157-6.275,1.013-9.322c0.359-1.291,1.041-2.14,2.606-2.223c2.886-0.157,5.307-1.396,7.315-3.528
				c2.047-2.167,4.716-3.336,7.594-3.74c7.857-1.103,15.749-1.344,23.558,0.327c7.913,1.694,12.871,7.936,12.958,15.949
				c0.059,4.975-2.919,8.36-7.894,8.786C257.76,106.237,248.281,106.967,238.181,107.777z M248.054,83.41
				c-2.965,0.003-7.02-0.081-10.923,1.169c-3.429,1.098-4.805,2.919-4.969,6.504c-0.086,1.972-0.046,3.949-0.024,5.925
				c0.046,4.277,1.851,6.092,6.144,5.818c9.401-0.603,18.791-1.309,28.187-2.031c3.206-0.247,4.362-1.644,4.338-4.904
				c-0.039-5.336-3.711-9.824-9.392-11.361C257.395,83.442,253.263,83.338,248.054,83.41z"/>
			<path opacity="0.6" fill-rule="evenodd" clip-rule="evenodd" fill="#FFFFFF" d="M251.178,194.237
				c-8.451,0.019-15.46-5.849-17.034-14.168c-0.302-1.594-0.009-2.251,1.724-1.758c0.594,0.171,1.257,0.197,1.879,0.155
				c1.747-0.119,2.542,0.56,3.117,2.342c1.626,4.999,6.618,7.836,11.958,7.142c4.695-0.607,8.675-4.7,9.195-9.455
				c0.581-5.269-2.284-9.987-7.128-11.799c-0.745-0.279-1.908-0.027-2.085-1.159c-0.262-1.711-0.566-3.458-0.457-5.167
				c0.049-0.785,1.225-0.362,1.858-0.259c6.694,1.093,12.366,6.583,13.804,13.305C270.311,184.187,262.205,194.215,251.178,194.237z
				"/>
			<path opacity="0.6" fill-rule="evenodd" clip-rule="evenodd" fill="#FFFFFF" d="M260.632,177.151
				c-0.034,5.256-4.205,9.417-9.445,9.423c-5.343,0.01-9.6-4.256-9.557-9.572c0.043-5.312,4.354-9.501,9.707-9.432
				C256.543,167.637,260.664,171.887,260.632,177.151z M247.896,177.063c-0.015,1.656,1.44,3.172,3.118,3.255
				c1.754,0.085,3.355-1.453,3.361-3.231c0.006-1.673-1.435-3.189-3.101-3.26C249.516,173.753,247.908,175.29,247.896,177.063z
				 M251.477,183.222c-0.18-0.811-0.682-1.31-1.459-1.254c-0.657,0.049-1.171,0.551-1.169,1.238c0.007,0.779,0.49,1.354,1.304,1.346
				C250.949,184.54,251.366,183.983,251.477,183.222z M258.241,179.017c-0.158-0.633-0.585-1.129-1.456-0.979
				c-0.724,0.124-1.089,0.618-1.021,1.342c0.078,0.855,0.639,1.245,1.454,1.13C257.934,180.409,258.296,179.921,258.241,179.017z
				 M246.37,178.631c-0.097-0.831-0.587-1.267-1.412-1.216c-0.733,0.049-1.145,0.558-1.123,1.261
				c0.021,0.688,0.401,1.193,1.162,1.228C245.856,179.944,246.282,179.468,246.37,178.631z M256.814,172.599
				c-0.106-0.812-0.527-1.297-1.392-1.245c-0.767,0.043-1.132,0.533-1.129,1.24c0.002,0.855,0.526,1.303,1.354,1.25
				C256.371,173.799,256.756,173.324,256.814,172.599z M249.263,171.662c-0.069-0.826-0.48-1.312-1.348-1.268
				c-0.743,0.043-1.151,0.518-1.157,1.225c-0.007,0.852,0.511,1.29,1.346,1.266C248.852,172.861,249.208,172.39,249.263,171.662z"/>
			<path opacity="0.6" fill-rule="evenodd" clip-rule="evenodd" fill="#FFFFFF" d="M250.74,163.618
				c0.816,1.817-0.377,2.305-2.526,2.84c-4.427,1.105-7.094,4.238-7.956,8.711c-0.246,1.294-0.558,1.729-1.896,1.522
				c-1.942-0.302-3.909-0.457-5.872-0.558c-1.088-0.058-1.24-0.479-1.137-1.479c0.896-8.744,8.652-16.538,17.323-17.411
				c1.173-0.119,1.479,0.233,1.522,1.346C250.249,160.077,250.506,161.561,250.74,163.618z"/>
			<path opacity="0.6" fill-rule="evenodd" clip-rule="evenodd" fill="#FFFFFF" d="M60.664,193.272
				c0.067,3.459-0.421,6.841-1.299,10.182c-0.211,0.81-0.429,1.482-1.365,1.826c-4.326,1.587-10.835-0.441-14.182-4.49
				c-3.309-3.995-3.722-9.53-0.883-13.929c3.75-5.795,9.409-6.619,14.781-5.932c1.028,0.132,1.262,0.871,1.487,1.693
				C60.155,186.108,60.715,189.646,60.664,193.272z"/>
			<path opacity="0.6" fill-rule="evenodd" clip-rule="evenodd" fill="#FFFFFF" d="M69.533,199.054c1.305,0,2.614-0.024,3.92,0.006
				c1.256,0.03,1.975,0.682,2.006,1.964c0.034,1.278-0.615,2.045-1.888,2.07c-2.694,0.046-5.392,0.049-8.085-0.007
				c-1.265-0.027-1.938-0.804-1.895-2.076c0.045-1.257,0.74-1.942,2.018-1.957C66.918,199.038,68.225,199.054,69.533,199.054z"/>
			<path opacity="0.6" fill-rule="evenodd" clip-rule="evenodd" fill="#FFFFFF" d="M69.487,191.147
				c1.226-0.003,2.451,0.006,3.675-0.003c1.338-0.016,2.227,0.514,2.292,1.951c0.065,1.422-0.735,2.122-2.091,2.138
				c-2.612,0.03-5.224,0.03-7.838-0.021c-1.263-0.021-1.944-0.768-1.935-2.04c0.009-1.278,0.734-1.957,1.978-2.013
				C66.872,191.107,68.181,191.15,69.487,191.147z"/>
			<path opacity="0.6" fill-rule="evenodd" clip-rule="evenodd" fill="#FFFFFF" d="M69.63,187.32c-1.304,0-2.612,0.007-3.917,0
				c-1.387-0.009-2.151-0.703-2.119-2.101c0.029-1.278,0.781-1.924,2.04-1.933c2.611-0.013,5.222-0.02,7.835,0.005
				c1.27,0.013,1.979,0.701,1.986,1.973c0.006,1.404-0.753,2.078-2.152,2.059C72.08,187.311,70.854,187.32,69.63,187.32z"/>
			<g opacity="0.6">
				<path fill-rule="evenodd" clip-rule="evenodd" fill="#FFFFFF" d="M82.88,71.679c0.028-1.847-0.638-2.188-2.305-2.178
					c-11.68,0.062-23.362,0.068-35.042-0.006c-1.816-0.009-2.43,0.449-2.399,2.348c0.108,7.08,0.122,14.161-0.008,21.237
					c-0.038,2.001,0.714,2.275,2.438,2.251c5.751-0.098,11.505-0.036,17.256-0.036c5.93,0,11.859-0.055,17.788,0.03
					c1.64,0.024,2.308-0.277,2.276-2.144C82.764,86.016,82.774,78.848,82.88,71.679z M62.083,91.117
					c-0.337,0.531-0.759,1.126-1.467,0.744c-0.655-0.356-0.035-0.924,0.008-1.39c0.03-0.342,0.221-0.666,0.301-1.007
					c0.357-1.53,1.741-3.207,1.075-4.465c-0.609-1.145-2.736-0.023-4.316-0.648c1.218-3.346,2.389-6.648,3.624-9.927
					c0.354-0.94,4.699-1.691,5.457-0.979c0.502,0.475,0.072,0.94-0.101,1.404c-0.701,1.883-1.394,3.768-2.152,5.823
					c1.405,0.073,2.58,0.135,4.066,0.213C66.306,84.465,64.199,87.793,62.083,91.117z"/>
				<path fill-rule="evenodd" clip-rule="evenodd" fill="#FFFFFF" d="M62.745,99.651c-6.018,0-12.037,0.016-18.054-0.016
					c-0.912-0.005-2.186,0.549-2.113-1.364c0.063-1.65,1.006-1.537,2.113-1.534c12.214,0.009,24.428,0.006,36.643,0
					c1.083,0,2.06-0.164,2.116,1.522c0.064,1.909-1.198,1.371-2.116,1.376C75.136,99.667,68.943,99.651,62.745,99.651z"/>
				<path fill-rule="evenodd" clip-rule="evenodd" fill="#FFFFFF" d="M72.381,66.985c-0.114-2.094,0.926-2.793,3.058-2.723
					c1.832,0.061,2.818,0.41,2.791,2.426C78.189,69.44,72.506,69.262,72.381,66.985z"/>
				<path fill-rule="evenodd" clip-rule="evenodd" fill="#FFFFFF" d="M47.806,66.924c-0.156-2.01,0.721-2.663,2.806-2.674
					c2.141-0.01,3.166,0.686,3.038,2.748C53.51,69.236,47.997,69.401,47.806,66.924z"/>
			</g>
			<g opacity="0.6">
				<path fill="#FFFFFF" d="M172.651,48.716c-0.549-7.426-0.959-14.862-1.413-22.295c-0.197-3.219-1.531-5.774-4.028-7.89
					c-3.787-3.209-7.459-6.561-11.082-9.953c-1.63-1.524-3.368-2.461-5.631-2.227c-0.758,0.078-1.387,0.04-1.767-0.335V3.302
					c0-0.899-0.876-1.628-1.956-1.628h-6.061c-1.081,0-1.956,0.729-1.956,1.628v3.081c-2.563,0.184-2.95,0.897-2.954,4.021
					c-0.004,12.703,0.05,25.406-0.041,38.11c-0.02,2.687,0.857,3.772,3.632,3.745c9.933-0.104,19.868-0.09,29.8-0.008
					C171.777,52.272,172.845,51.385,172.651,48.716z M153.26,46.841c-5.289-0.256-9.535-4.856-9.28-10.056
					c0.26-5.311,4.776-9.467,10.052-9.251c5.305,0.219,9.476,4.734,9.257,10.023C163.069,42.838,158.475,47.09,153.26,46.841z
					 M165.417,24.678c-2.36,0-11.056-2.93-11.056-2.93s-1.227-0.378-1.417-1.796c-0.188-1.416-1.51-7.652-0.755-8.596
					c0.755-0.946,2.362,0.094,2.362,0.094l12.755,11.527C167.307,22.977,167.78,24.678,165.417,24.678z"/>
				<path fill-rule="evenodd" clip-rule="evenodd" fill="#FFFFFF" d="M153.65,31.271c1.352,1.894,2.548,3.375,3.525,4.992
					c1.136,1.883,0.782,3.726-0.9,5.11c-1.669,1.375-3.562,1.375-5.237,0.004c-1.685-1.375-2.074-3.198-0.92-5.091
					C151.1,34.673,152.286,33.186,153.65,31.271z"/>
			</g>
			<path opacity="0.6" fill="#FFFFFF" enable-background="new    " d="M202.418,136.068c-3.918,0-7.582,1.084-10.733,2.934
				l-0.132-0.511l-0.247-1.005l-0.335,0.031l2.906-2.721l7.66-2.246l4.218,0.084c0.36,0.638,1.038,1.51,2.236,2.224
				c0.528,0.303,1.03,0.462,1.506,0.462c1.321,0,2.042-1.114,2.157-2.149l0.018-0.124l-0.014-0.119l-0.074-0.802l3.703-0.061
				c1.5,6.159,5.119,8.294,5.278,8.387l0.272,0.15h0.316h0.788h2.294l-1.32-1.868c-3.223-4.552-3.037-5.252-2.58-6.943
				c0.058-0.224,0.123-0.475,0.193-0.752c0.744-3.094-0.809-4.495-0.986-4.644l-0.29-0.238l-0.369-0.03l-9.554-0.851
				c-0.084-0.264-0.189-0.55-0.326-0.88c-1.232-3.096-3.597-3.333-4.287-3.333c-0.143,0-0.265,0.003-0.344,0.009h-15.057h-1.049
				l-0.127,1.043c-0.014,0.078-0.022,0.149-0.031,0.225c-0.457-0.12-1.021-0.19-1.721-0.19c-0.296,0-0.498,0.013-0.52,0.018
				l-0.146,0.009l-0.146,0.043c-6.916,2.307-12.051,3.429-15.703,3.429c-3.223,0-5.037-0.827-6.764-2.078
				c-3.609-2.607-8.012-4.67-8.197-4.763l-0.102-0.04l-0.092-0.027c-6.111-1.62-11.456-2.443-15.884-2.443
				c-4.888,0-7.863,0.994-9.633,1.99c-0.74-1.77-2.483-2.615-3.549-2.985l-3.508-1.021l-0.833-0.802l-0.141-0.122l-0.467-4.772
				c0,0,1.559,0.185,4.447-1.291c1.391-0.712,1.686-2.373,1.686-2.373l2.769-1.58c0.652-1.303-0.853-2.333-1.682-1.88l-2.474,1.581
				c0,0-2.712-0.11-2.571-1.871c0.37-4.526,1.823-7.656,1.823-7.656c0.013,0,1.065,0.136,1.065,0.136
				c2.712,0,2.853-1.483,2.853-1.483s1.057-6.195-0.501-6.195c-0.088,0-0.185,0.021-0.291,0.057
				c-3.866,1.396-4.649,9.993-4.649,9.993l-1.286,6.129l-1.585,1.185c-0.194-0.023-0.378-0.036-0.554-0.036
				c-1.875,0-2.104,0.695-2.704,1.326c-0.607,0.62-0.669,3.864,2.466,3.75c0.224,1.325,0.545,3.632,0.704,4.772l-0.291,0.154
				l-4.081,0.981l-0.031-0.052c0,0-0.74-2.907-3.293-3.883c-1.409-0.533-3.584-0.528-5.283,1.378
				c-1.18,1.315-1.638,3.143-1.374,5.419c0.062,0.559,0.167,1.219,0.352,1.88c-0.501-0.087-0.964-0.127-1.352-0.127h-1.774h-0.749
				l-0.326,0.668c-1.232,2.571-1.355,5.53-1.101,8.053v0.013v0.009c0.317,3.1,1.188,5.525,1.255,5.701l0.115,0.322l0.172,0.457
				h0.827h1.884h0.731l0.176-0.36c0.159,0.426,0.379,0.779,0.599,1.06l-3.25,6.11c-1.488-0.205-3.028-0.312-4.596-0.312
				c-7.255,0-12.767,2.197-12.996,2.289l-2.554,1.035l2.51,1.145l1.285,0.591c-5.662,3.618-9.43,9.939-9.43,17.144
				c0,11.217,9.122,20.344,20.339,20.344c10.39,0,18.966-7.837,20.177-17.9c0.454,3.623,7.348,7.153,10.65,7.646
				c7.097,1.049,19.045,0.955,39.152-2.853l0.383,0.349l1.029,0.28c0,0,0.273-0.048,0.73-0.065c0.556,0.105,1.172,0.172,1.858,0.172
				c0.159,0.025,0.308,0.044,0.458,0.083c0.405,0.097,0.792,0.142,1.145,0.142c0.801,0,1.383-0.243,1.787-0.573
				c2.492,0.973,8.123,1.356,8.123,1.356l0.172-0.035c0.026-0.005,1.021-0.233,2.589-0.617c3.909,4.574,9.702,7.484,16.175,7.484
				c11.736,0,21.281-9.549,21.281-21.29C223.699,145.619,214.155,136.068,202.418,136.068z M215.762,156.33l-2.742-1.233
				l0.854-0.541l1.69,0.488C215.653,155.466,215.718,155.893,215.762,156.33z M212.785,154.987l-1.663-0.752l0.471-0.335
				l2.008,0.581L212.785,154.987z M215.511,154.811l-1.399-0.4l1.118-0.706C215.335,154.067,215.424,154.438,215.511,154.811z
				 M215.155,153.508l-1.312,0.813l-2.038-0.581l2.649-1.915C214.723,152.367,214.956,152.926,215.155,153.508z M214.362,151.627
				l-2.812,2.043l-1.462-0.428l-0.062,0.202l1.308,0.38l-0.431,0.312l-0.014-0.009l-0.01,0.021l-0.537,0.394l0.124,0.167
				l0.458-0.331l1.646,0.74l-1.854,1.162c-0.232-1.594-0.885-3.052-1.867-4.25l0.973-2.037l3.496-0.066
				C213.707,150.47,214.059,151.038,214.362,151.627z M210.475,160.63l0.285-0.03l0.331,0.453l-1.013-0.034
				c0.123-0.287,0.246-0.586,0.34-0.891l0.202,0.27l-0.172,0.018L210.475,160.63z M211.003,160.574l1.805-0.194l0.647,0.766
				l-2.091-0.078L211.003,160.574z M209.696,149.782l-1.915,0.04l0.272-0.506l2.021-0.33L209.696,149.782z M213.16,149.722
				l-3.231,0.061l0.396-0.84l1.92-0.313C212.571,148.982,212.878,149.343,213.16,149.722z M212.076,148.44l-1.637,0.274l0.594-1.247
				C211.399,147.772,211.742,148.101,212.076,148.44z M210.862,147.334l-0.678,1.418l-1.998,0.33l1.436-2.627
				C210.052,146.731,210.466,147.024,210.862,147.334z M209.444,146.35l-1.522,2.771l-1.505,0.247l0.035,0.208l1.338-0.22
				l-0.256,0.47h-0.008v0.022l-0.317,0.576l0.185,0.102l0.269-0.488l1.929-0.044l-0.885,1.871c-0.621-0.718-1.355-1.33-2.171-1.814
				l0.079-0.043l-1.232-2.373l1.396-2.536C207.719,145.419,208.608,145.838,209.444,146.35z M206.971,165.364
				c0.334-0.142,0.633-0.26,0.889-0.383l0.027-0.014l0.391-0.102l0.199,1.159L206.971,165.364z M208.52,166.266l0.168,0.957
				l-1.771-1.111l-0.062-0.572L208.52,166.266z M205.262,147.86l1.074,2.068c-0.563-0.312-1.176-0.56-1.812-0.739L205.262,147.86z
				 M204.316,149.131c-0.049-0.01-0.093-0.022-0.136-0.04l-0.221-0.351l0.739-1.956l0.44,0.851L204.316,149.131z M206.636,165.499
				l0.052,0.477l-0.496-0.312C206.345,165.606,206.494,165.548,206.636,165.499z M206.582,145.028l-1.316,2.391l-0.471-0.902
				l0.67-1.778C205.843,144.822,206.221,144.913,206.582,145.028z M205.262,144.684l-0.599,1.582l-0.934-1.801
				C204.249,144.509,204.76,144.574,205.262,144.684z M202.576,144.408c0.309,0,0.607,0.021,0.906,0.051l1.084,2.07l-0.744,1.977
				l-2.034-3.347l-0.18,0.11l0.739,1.216l-0.881,0.414l-10.848,5.071C192.75,147.506,197.302,144.408,202.576,144.408z
				 M172.604,159.93c-0.73,0.485-1.545,0.503-2.069,0.428l1.488-1.338c0.498-0.153,0.999-0.445,1.409-0.995l-0.164-0.128
				l2.418-2.179l4.13,3.179l-0.986,0.462l-0.132,1.392l-5.072-1.851l-1.109,1.005L172.604,159.93z M170.069,160.494l-5.072,4.57
				l5.107-13.446l0.035-0.079c1.33,0.01,2.465-0.559,2.826-1.417c0.291-0.684,4.481-2.36,7.256-3.338
				c0.123,0.027,0.537,0.093,1.074,0.105c1.215,0.019,2.826-0.268,3.627-1.796c0.229-0.458,0.265-0.833,0.098-1.117
				c-0.115-0.186-0.305-0.326-0.572-0.423l0.316-0.031l3.857-4.549l1.787-0.202l0.289,1.192l-4.736,5.539v0.692l-10.443,9.395
				l-3.601,3.244c-0.969,0.282-1.894,0-1.911,0l-0.062,0.194c0,0,0.462,0.154,1.075,0.154c0.176,0,0.359-0.014,0.555-0.045
				l-1.312,1.189c-0.141-0.036-0.251-0.071-0.251-0.071l-0.066,0.203C169.945,160.459,169.997,160.472,170.069,160.494z
				 M176.584,154.996l-0.238,0.136l9.105-8.202l-3.25,4.108l4.346,4.151l15.422-7.216c0,0,0.127,0.167,0.316,0.458l-21.404,9.967
				L176.584,154.996z M132.052,124.631c1.333,0,2.417,0.748,2.417,1.678c0,0.915-1.083,1.673-2.417,1.673
				c-1.334,0-2.417-0.758-2.417-1.673C129.635,125.379,130.718,124.631,132.052,124.631z M86.283,144.02
				c0,0,5.442-2.205,12.552-2.205c1.674,0,3.434,0.122,5.248,0.423l4.05-7.608c0,0-1.083-0.797-1.083-2.083h-1.682l-0.089,0.181
				c-1.145-2.77-0.854-10.07-0.409-12.64c0,0,4.354-0.063,5.745,1.479c1.884,2.074,1.673,4.75,1.673,4.75s0.789-3.729-1.074-5.124
				c-1.897-1.431-2.298-1.51-4.182-2.183c-1.162-5.186,3.742-7.709,5.626-7.075c2.421,0.818,3.98,5.688,3.98,5.688l0.326,0.057
				l-0.493-1.835l4.024-1.492l1.778,1.685l1.383,0.388c0,0,4.156,0.405,4.649,2.971c0.035,0.194,0.089,0.617,0.124,0.864
				c0,0-1.955,1.817-2.985,6.229c-1.901,1.026-4.86,5.987-4.755,7.212c0.115,1.238,8.409,8.012,8.409,8.012
				s10.302-0.083,13.842-1.418c0,0-2.703-1.998-4.279-5.484c-1.321-2.919-0.678-4.76,0.299-5.896
				c2.527-2.937,5.974-3.239,8.686-3.315c8.929-0.22,12.622,3.989,12.833,4.2c0.89,0.885,1.762,1.841,2.59,2.799h3.372l0.026,0.075
				c0.009,0.005,0.502,1.123,6.498,3.457c4.139-0.295,10.795-0.96,11.076-1.488c0.432-0.797,5.107-4.157,5.301-4.302l0.045-0.017
				l18.059-3.531c0.049-0.062,0.907-0.688,0.938-0.419l10.395,0.933c0,0,1.189,0.987,0.6,3.461c-0.6,2.469-1.383,3.064,2.565,8.656
				h-0.788c0,0-3.262-1.955-4.746-7.768c-0.158-0.616-0.492-0.792-0.492-0.792l-5.636,0.097l0.194,2.083
				c0,0-0.123,1.082-0.978,1.082c-0.237,0-0.537-0.079-0.898-0.294c-1.682-0.99-2.077-2.373-2.077-2.373l-5.143-0.102l-8.109,2.373
				l-9.792,9.197l0.071,0.457c-0.089,0-0.172-0.018-0.265-0.018c-1.146-0.017-2.412,0.247-2.452,0.256l-8.185,1.136
				c-2.989-1.268-6.353-3.381-6.37-3.438c-0.031-0.141-0.162-0.206-0.832-0.22c-0.361-0.005-0.828,0.008-1.285,0.025
				c1.752-0.576,2.721-2.27,2.588-2.434c-0.039-0.048-5.6-7.475-8.633-9.629c-3.034-2.139-7.128-2.887-11.636-2.373
				c-4.508,0.516-6.48,2.629-6.718,2.907c-3.54,4.12,4.139,10.187,4.139,10.187c0.026-0.01,18.429,1.95,18.429,1.95
				s0.062-0.022,0.163-0.048c0,0,0.03-0.018,0.048-0.026l5.23,6.336c0,0.021,0,0.062,0,0.062c-0.084,0.034-0.176,0.056-0.272,0.104
				c-0.185,0.102-4.192,1.55-8.343,2.694c-0.305-1.17-1.352-2.047-2.602-2.047c-1.269,0-2.333,0.895-2.615,2.093l-2.236,0.525
				c0,0-0.282-0.03-0.304-0.063l-0.048-0.055l-10.522,3.812c-1.018-1.856-2.369-3.283-5.103-3.283c-2.655,0-7.031,1.285-9.558,2.755
				c-0.379-0.66-1.436-2.244-2.751-2.249c-0.48,0-1,0.215-1.537,0.774c-0.532,0.551-0.959,0.771-1.294,0.771
				c-1.153,0-1.276-2.554-1.276-2.554l0.529-3.954l-2.206-0.599l-1.589-4.446c0,0-0.326,0.326-0.67,0.326
				c-0.287,0-0.581-0.212-0.713-1.018l0.793-2.967c0,0,0-0.789-2.668-1.387l-1.118,1.294l0.766-1.941l6.226-12.557l0.713-1.589
				c0.105-0.036,0.176-0.084,0.211-0.158c0.167-0.349-0.515-1.035-1.523-1.52c-1.013-0.489-1.972-0.603-2.135-0.26l-0.031,0.075
				v-0.009l-6.524,14.137l-1.933,3.904l-2.162,5.328c0,0-3.169-0.454-5.635-0.56c-1.749-0.062-1.013,1.255-0.423,2.043
				c-0.379-0.019-0.757-0.026-1.163-0.026c-2.025,0-4.411,0.181-7.22,0.642L86.283,144.02z M107.156,163.18
				c-0.018-0.25-0.048-0.492-0.088-0.735l1.162,0.34l-0.81,0.505L107.156,163.18z M107.199,163.425l-0.026,0.023
				c0,0-0.008-0.023-0.008-0.039L107.199,163.425z M107.032,162.22l-0.005-0.026l3.228-2.334c0.132,0.48,0.229,0.969,0.304,1.471
				l-2.087,1.304L107.032,162.22z M106.989,161.964c-0.344-1.57-1.101-2.983-2.148-4.138l0.149-0.312l4.072-0.567
				c0.479,0.845,0.867,1.743,1.14,2.693L106.989,161.964z M105.716,168.802l0.691,1.021l-1.308-0.185
				C105.32,169.375,105.527,169.098,105.716,168.802z M104.408,157.381c-0.189-0.172-0.378-0.347-0.581-0.506l1.436-0.418
				l-0.415,0.863L104.408,157.381z M104.743,157.545l-0.061,0.119c-0.027-0.036-0.053-0.066-0.08-0.094L104.743,157.545z
				 M104.682,153.103l0.132-0.34h0.378c0.467,0.325,0.919,0.666,1.347,1.049l-1.153,2.39l-1.77,0.516
				c-0.062-0.049-0.119-0.094-0.177-0.137l1.374-3.421L104.682,153.103z M105.095,157.284l0.44-0.911l1.981-0.571l-0.062-0.208
				l-1.796,0.524l1.039-2.166c0.872,0.823,1.63,1.762,2.241,2.795L105.095,157.284z M102.638,151.772l-1.655,3.559
				c-0.264-0.084-0.537-0.146-0.815-0.208l0.991-1.862l1.145-1.91C102.392,151.491,102.498,151.627,102.638,151.772z
				 M94.573,154.621l-0.334-2.303l0.542,0.217l0.744,2.544L94.573,154.621z M95.463,155.274c-0.255,0.078-0.511,0.175-0.757,0.277
				l-0.098-0.683L95.463,155.274z M91.518,157.768l-0.599,0.103l-2.518-2.681c0.73-0.886,1.559-1.66,2.492-2.316
				c0.92-0.647,1.919-1.17,2.993-1.554l0.097,0.66l-0.414-0.158l-0.079,0.198l0.52,0.206l0.334,2.285l-3.451-1.638l-0.088,0.19
				l3.575,1.697l0.123,0.872C93.358,156.136,92.35,156.871,91.518,157.768z M92.258,170.704l-0.722,0.541l0.105-1.118
				C91.835,170.333,92.042,170.519,92.258,170.704z M91.28,158.025c-0.025,0.039-0.07,0.074-0.105,0.118l-0.088-0.088L91.28,158.025
				z M90.84,158.091l0.202,0.22c-0.158,0.198-0.299,0.396-0.44,0.604l-0.801-0.639L90.84,158.091z M89.573,158.091l-2.061-1.64
				c0.237-0.377,0.493-0.743,0.766-1.09l2.391,2.548L89.573,158.091z M94.08,151.243c0.098-0.03,0.194-0.074,0.291-0.104
				l0.335,1.135l-0.494-0.196L94.08,151.243z M95.031,152.631l2.026,0.807l-0.554,1.61c-0.238,0.049-0.485,0.084-0.723,0.145
				L95.031,152.631z M94.952,152.372l-0.379-1.291c1.127-0.335,2.325-0.522,3.566-0.522c0.097,0,0.198,0.012,0.299,0.012
				c-0.317,0.269-0.546,0.41-0.546,0.41l-0.766,2.253L94.952,152.372z M87.402,156.633l1.893,1.51l-2.875,0.484
				C86.688,157.927,87.01,157.263,87.402,156.633z M86.341,158.852l3.179-0.532l0.924,0.739l-4.495,1.061
				C86.059,159.694,86.187,159.271,86.341,158.852z M85.891,160.353l4.492-1.064c-0.767,1.276-1.219,2.747-1.268,4.332l-0.172,0.105
				l-3.315-1.708C85.68,161.445,85.768,160.896,85.891,160.353z M89.15,164.813l-1.062-0.304l0.863-0.541l0.158,0.092
				C89.115,164.312,89.132,164.573,89.15,164.813z M85.571,163.127c0-0.299,0.021-0.586,0.048-0.88l3.118,1.615l-0.916,0.568
				l-2.219-0.635C85.592,163.573,85.571,163.357,85.571,163.127z M85.618,164.017l1.959,0.562l-1.748,1.102
				C85.724,165.134,85.654,164.579,85.618,164.017z M85.887,165.888l1.959-1.229l1.347,0.391c0.009,0.129,0.026,0.256,0.053,0.384
				l-2.871,2.082C86.182,166.984,86.015,166.447,85.887,165.888z M86.455,167.724l2.826-2.057c0.317,1.576,1.057,2.989,2.078,4.151
				l-2.738,1.498C87.705,170.25,86.975,169.04,86.455,167.724z M91.13,173.552c-0.404-0.272-0.783-0.572-1.145-0.881l1.304-0.977
				L91.13,173.552z M89.827,172.531c-0.375-0.335-0.722-0.686-1.057-1.056l2.667-1.457l-0.127,1.399L89.827,172.531z
				 M91.333,173.671l0.186-2.145l0.898-0.678c0.193,0.149,0.396,0.3,0.599,0.444l-0.067,3.118l0.212,0.003l0.062-2.992
				c1.307,0.854,2.857,1.368,4.512,1.435l-0.845,2.773C94.851,175.428,92.962,174.728,91.333,173.671z M97.1,175.64l0.845-2.774
				c0.053,0,0.106,0.01,0.154,0.01l0.049-0.006c0.018,0,0.031,0.006,0.031,0.006c0.065,0,0.11-0.01,0.163-0.01l0.097,0.114
				l-0.418,2.712C97.713,175.683,97.404,175.66,97.1,175.64z M98.232,175.692l0.383-2.491l1.858,2.263
				C99.746,175.6,99.002,175.683,98.232,175.692z M100.711,175.422l-2.052-2.499l0.008-0.07c0.493-0.027,0.978-0.084,1.449-0.186
				l2.17,2.303C101.776,175.155,101.248,175.309,100.711,175.422z M102.498,174.891l-2.149-2.289
				c1.726-0.423,3.253-1.343,4.429-2.607l1.347,2.818C105.052,173.707,103.827,174.397,102.498,174.891z M106.288,172.667
				l-1.36-2.835l1.629,0.229l0.95,1.414C107.13,171.897,106.724,172.301,106.288,172.667z M107.649,171.311l-0.805-1.215l1.58,0.234
				C108.177,170.664,107.922,170.998,107.649,171.311z M108.565,170.132l-1.884-0.27l-0.841-1.26
				c0.075-0.113,0.154-0.236,0.224-0.364l3.417,0.251C109.207,169.062,108.913,169.612,108.565,170.132z M109.577,168.286
				l-3.408-0.245c0.652-1.25,1.026-2.66,1.026-4.161c0-0.065-0.014-0.129-0.014-0.189l0.246-0.158l3.126,1.408
				C110.387,166.116,110.052,167.243,109.577,168.286z M110.59,164.729l-2.941-1.334l0.854-0.536l1.981,0.572l0.062-0.198
				l-1.805-0.52l1.849-1.157c0.07,0.51,0.105,1.033,0.105,1.571C110.704,163.668,110.652,164.201,110.59,164.729z M107.781,147.595
				l3.161-7.189l0.555-1.4v7.784l3.46,3.259l-0.59,0.791L107.781,147.595z M117.933,158.834c-0.511-2.531-1.497-4.877-2.844-6.973
				l0.229-0.31l0.59-0.791l0.634-0.846l-0.767-0.727l-3.09-2.915v-7.058l0.515-0.594c0.466,0.141,0.762,0.268,0.938,0.361
				l-0.626,2.351l-0.065,0.255l0.049,0.251c0.299,1.818,1.409,2.013,1.875,2.013c0.775,0,0.973,2.249,1.083,3.082l0.092,0.743
				l0.708,0.233l1.154,0.383l-0.282,2.929l-0.004,0.087l0.004,0.08c0.079,1.783,0.775,3.689,2.457,3.689
				c0.713,0,1.423-0.379,2.153-1.146c0.18-0.181,0.444-0.404,0.682-0.404c0.317,0,0.713,0.316,1.074,0.73
				c-0.845,0.313-2.042,0.802-3.609,1.542C119.421,156.485,118.506,157.632,117.933,158.834z M161.51,166.637
				c-0.674,0.356-0.485,1.474,0.211,1.98c-7.924,3.05-28.339,3.209-32.402,2.319c-4.055-0.876-9.377-4.886-9-7.414
				c0.37-2.491,0.114-3.341,3.311-3.741l-0.009,0.07c0,0,2.21,4.987,5.802,5.529c10.117,1.563,11.975-4.051,12.442-6.736
				l10.804-3.583l0.009-0.065c0.048-0.221,0.203-0.212,0.203-0.212l2.597-0.761c0.325,0.145,0.686,0.227,1.074,0.227
				c1.32,0,2.413-0.954,2.641-2.219c2.889-0.694,6.031-1.601,8.664-2.729c0.088,0.616,0.291,1.281,0.705,1.721
				c-0.348,1.049-4.402,13.389-5.936,14.864c-0.602-0.484-5.049-4.056-7.774-6.635l-0.035-0.036l-1.215,0.198L161.51,166.637z
				 M174.352,166.099l-3.104-0.102c0,0-2.496-1.392-3.602,0c-0.748,0.947-0.66,1.65-0.528,2.008
				c-0.034,0.075-0.097,0.167-0.185,0.269l-2.747-0.027c0.044-0.051,0.087-0.097,0.118-0.154c0.242-0.465,0.039-0.978-0.031-1.126
				l0.561-1.475l5.489-4.949c0.189,0.032,0.423,0.066,0.696,0.066c0.555,0,1.24-0.123,1.848-0.581l5.707,2.117l-0.018,0.193
				C178.557,162.338,175.352,162.74,174.352,166.099z M182.457,166.099l-0.996,1.581l-4.807,0.202l2.404-2.276l2.297,0.29
				l24.506-9.191c0.07,0.148,0.176,0.348,0.29,0.599L182.457,166.099z M200.6,167.428c0.356-0.105,0.691-0.198,1.021-0.295
				l-1.008,1.805l-0.361-1.056L200.6,167.428z M200.173,167.64l-0.026-0.079c0.035-0.015,0.078-0.022,0.078-0.022L200.173,167.64z
				 M195.515,168.828c-0.058,0.021-0.124,0.031-0.185,0.049c0.299-0.079,0.604-0.159,0.906-0.238
				c1.348-0.365,2.562-0.695,3.707-1.021l0.07,0.221l-1.779,2.334C197.268,169.836,196.373,169.361,195.515,168.828z
				 M198.447,170.25l1.655-2.176l0.379,1.111l-0.783,1.408C199.266,170.505,198.852,170.383,198.447,170.25z M199.9,170.647
				l0.678-1.198l0.467,1.374C200.657,170.782,200.279,170.722,199.9,170.647z M202.576,170.924c-0.439,0-0.871-0.03-1.294-0.065
				l-0.572-1.66l1.03-1.845l1.482,3.53C203.008,170.897,202.796,170.924,202.576,170.924z M203.448,170.871l-1.576-3.757
				l0.035-0.069c1.118-0.335,2.147-0.646,3.003-0.934c0.369-0.127,0.704-0.241,1.03-0.361l0.774,0.489l0.414,3.849
				C205.966,170.519,204.735,170.788,203.448,170.871z M207.331,170.018l-0.388-3.634l1.797,1.11l0.299,1.727
				C208.493,169.532,207.921,169.792,207.331,170.018z M209.233,169.101l-0.255-1.453l1.281,0.798
				C209.929,168.678,209.586,168.904,209.233,169.101z M210.44,168.314l-1.51-0.942l-0.172-1.003l2.633,1.161
				C211.082,167.812,210.766,168.072,210.44,168.314z M211.567,167.374l-2.854-1.249l-0.232-1.32l0.057-0.182
				c0.551-0.334,1.092-0.827,1.049-1.588c-0.018-0.247-0.071-0.543-0.158-0.869c0.201-0.303,0.395-0.606,0.549-0.937l1.277,0.048
				l2.395,3.295l0.172-0.121l-2.298-3.169l2.113,0.084l1.171,1.399C214.063,164.531,212.94,166.099,211.567,167.374z
				 M214.886,162.541l-0.968-1.166l1.364,0.049C215.168,161.806,215.035,162.176,214.886,162.541z M215.33,161.212l-1.598-0.058
				l-0.669-0.805l2.536-0.27C215.529,160.468,215.432,160.838,215.33,161.212z M215.635,159.865l-2.738,0.29l-1.682-2.021
				l-0.164,0.128l1.599,1.919l-1.796,0.198l-0.309-0.437l-0.097,0.075c0.237-0.783,0.365-1.62,0.365-2.492
				c0-0.343-0.021-0.682-0.062-1.012l2.047-1.289l2.977,1.341c0.025,0.362,0.057,0.727,0.057,1.101
				C215.832,158.417,215.749,159.148,215.635,159.865z"/>
		</g>
	</g>
</g>
</svg>
