<?xml version="1.0" encoding="utf-8"?>
<!-- Generator: Adobe Illustrator 16.0.0, SVG Export Plug-In . SVG Version: 6.00 Build 0)  -->
<!DOCTYPE svg PUBLIC "-//W3C//DTD SVG 1.1//EN" "http://www.w3.org/Graphics/SVG/1.1/DTD/svg11.dtd">
<svg version="1.1" id="Layer_1" xmlns="http://www.w3.org/2000/svg" xmlns:xlink="http://www.w3.org/1999/xlink" x="0px" y="0px"
	 width="316.176px" height="272.059px" viewBox="0 0 316.176 272.059" enable-background="new 0 0 316.176 272.059"
	 xml:space="preserve">
<g>
	<g>
		<g>
			<g>
				<g>
					<g>
						<g>
							<g>
								<rect x="0" y="0" fill="none" width="316.176" height="272.059"/>
							</g>
						</g>
					</g>
				</g>
			</g>
		</g>
	</g>
	<g opacity="0.6">
		<g>
			<path fill="#FFFFFF" d="M172.157,173.058c-0.624,0.823-1.17,1.824-1.54,3.066l-5.45-0.174c0,0-4.396-2.435-6.332,0
				c-1.313,1.656-1.163,2.896-0.935,3.525c-0.058,0.135-0.164,0.297-0.328,0.468l-4.815-0.044c0.072-0.09,0.153-0.173,0.207-0.275
				c0.413-0.812,0.066-1.708-0.057-1.974l0.985-2.59l9.657-8.693c0.324,0.055,0.731,0.109,1.209,0.109
				c0.978,0,2.184-0.213,3.24-1.019l4.16,1.54v-2.491l-2.817-1.031l-1.95,1.757l0.153,0.057c-1.281,0.854-2.72,0.875-3.638,0.756
				l2.623-2.364c0.873-0.273,1.754-0.776,2.471-1.752l-0.288-0.212l3.446-3.104v-0.5l-5.821,5.242c-1.697,0.506-3.33,0.008-3.354,0
				l-0.117,0.354c0.015,0.004,0.817,0.263,1.892,0.263c0.31,0,0.643-0.026,0.985-0.083l-2.309,2.083
				c-0.261-0.058-0.445-0.107-0.451-0.111l-0.117,0.354c0.006,0.002,0.098,0.027,0.229,0.062l-8.917,8.027l8.976-23.616l0.054-0.138
				c2.343,0.003,4.338-0.986,4.977-2.506c0.223-0.53,1.831-1.418,3.974-2.392V138l-4.543,0.632
				c-5.24-2.237-11.162-5.948-11.186-6.049c-0.059-0.249-0.287-0.359-1.458-0.38c-0.641-0.013-1.463,0.012-2.261,0.045
				c3.082-1.016,4.788-4,4.551-4.28c-0.071-0.082-9.843-13.147-15.174-16.912c-5.331-3.766-12.529-5.08-20.452-4.177
				c-7.922,0.902-11.379,4.618-11.805,5.116c-6.222,7.233,7.278,17.897,7.286,17.897c0.04-0.014,32.364,3.421,32.364,3.421
				s0.119-0.039,0.29-0.095c0.031-0.01,0.061-0.02,0.097-0.034l9.188,11.134c0,0.032,0,0.111,0,0.16
				c-0.158,0.005-0.316,0.041-0.482,0.132c-0.328,0.18-7.365,2.72-14.665,4.736c-0.522-2.066-2.361-3.602-4.569-3.602
				c-2.235,0-4.096,1.568-4.597,3.67l-3.937,0.937c0,0-0.479-0.059-0.527-0.116l-0.083-0.104l-18.491,6.705
				c-1.787-3.257-4.156-5.763-8.961-5.763c-4.663,0-12.361,2.26-16.8,4.841c-0.669-1.163-2.51-3.961-4.834-3.963
				c-0.847,0-1.761,0.381-2.7,1.358c-0.94,0.979-1.686,1.357-2.274,1.357c-2.036,0-2.245-4.484-2.245-4.484l0.931-6.939
				l-3.884-1.057l-2.78-7.815c0,0-0.577,0.577-1.185,0.577c-0.498,0-1.014-0.385-1.246-1.795l1.389-5.21c0,0,0-1.392-4.694-2.434
				l-1.967,2.269l1.346-3.408l10.947-22.067l1.254-2.791c0.176-0.059,0.303-0.15,0.365-0.278c0.296-0.612-0.901-1.808-2.675-2.671
				c-1.778-0.86-3.459-1.062-3.754-0.449c-0.021,0.041-0.033,0.084-0.041,0.127c-0.006-0.008-0.011-0.013-0.016-0.018
				l-11.466,24.844l-3.389,6.863l-3.806,9.359c0,0-5.559-0.796-9.903-0.97c-3.066-0.124-1.771,2.192-0.744,3.568
				c-0.653-0.023-1.329-0.034-2.033-0.034c-3.555,0-7.759,0.311-12.691,1.118l-7.992-3.646c0,0,9.567-3.874,22.058-3.874
				c2.94,0,6.041,0.214,9.218,0.743l7.124-13.38c0,0-1.91-1.389-1.91-3.647h-2.955l-0.158,0.317
				c-2.001-4.872-1.5-17.697-0.711-22.212c0,0,7.642-0.105,10.093,2.591c3.314,3.647,2.938,8.357,2.938,8.357
				s1.393-6.559-1.875-9.011c-3.34-2.505-4.054-2.648-7.355-3.84c-2.043-9.105,6.578-13.53,9.887-12.419
				c4.256,1.428,6.991,9.979,6.991,9.979l0.581,0.111l-0.872-3.226l7.068-2.618l3.125,2.955l2.433,0.692
				c0,0,7.296,0.697,8.166,5.213c0.065,0.344,0.156,1.083,0.212,1.53c0,0-3.437,3.176-5.25,10.928
				c-3.335,1.809-8.534,10.526-8.339,12.683c0.196,2.16,14.768,14.075,14.768,14.075s18.1-0.143,24.319-2.492
				c0,0-4.75-3.502-7.518-9.638c-2.312-5.125-1.187-8.364,0.533-10.359c4.432-5.158,10.488-5.692,15.263-5.815
				c15.68-0.407,22.171,6.996,22.547,7.369c1.573,1.549,3.096,3.233,4.562,4.919h5.923l0.039,0.129
				c0.007,0.016,0.88,1.981,11.421,6.079c1.226-0.087,2.576-0.195,3.976-0.315v-0.392c0-4.557,3.695-8.252,8.253-8.252h14.887
				c0.915-0.676,1.571-1.149,1.665-1.216l0.073-0.03l31.736-6.208c0.085-0.095,1.599-1.198,1.642-0.725l18.276,1.631
				c0,0,2.085,1.736,1.043,6.081c-0.039,0.163-0.079,0.312-0.118,0.467h2.15c1.295-5.433-1.425-7.888-1.738-8.148l-0.503-0.419
				l-0.648-0.057l-16.794-1.498c-0.146-0.453-0.335-0.96-0.57-1.543c-2.173-5.439-6.319-5.86-7.54-5.86
				c-0.253,0-0.459,0.016-0.607,0.03H196.91h-1.847l-0.221,1.833c-0.019,0.129-0.034,0.259-0.052,0.392
				c-0.805-0.209-1.799-0.334-3.025-0.334c-0.52,0-0.874,0.022-0.912,0.028l-0.261,0.017l-0.25,0.085
				c-12.148,4.046-21.18,6.018-27.598,6.018c-5.666,0-8.845-1.458-11.876-3.647c-6.343-4.581-14.088-8.214-14.414-8.367
				l-0.168-0.077l-0.177-0.048c-10.729-2.848-20.119-4.293-27.911-4.293c-8.572,0-13.82,1.75-16.917,3.491
				c-1.306-3.108-4.363-4.594-6.245-5.235l-6.159-1.802l-1.47-1.391l-0.239-0.224l-0.821-8.399c0,0,2.745,0.334,7.818-2.259
				c2.447-1.252,2.955-4.171,2.955-4.171l4.865-2.781c1.142-2.284-1.504-4.1-2.953-3.301l-4.345,2.781c0,0-4.771-0.193-4.518-3.302
				c0.645-7.949,3.204-13.433,3.204-13.433c0.019,0,1.873,0.229,1.891,0.229c4.752,0,4.984-2.606,4.984-2.606
				s1.866-10.886-0.877-10.886c-0.152,0-0.323,0.044-0.511,0.112c-6.795,2.447-8.17,17.55-8.17,17.55l-2.259,10.773l-2.777,2.083
				c-0.342-0.042-0.669-0.063-0.978-0.063c-3.305,0-3.696,1.226-4.757,2.324c-1.063,1.097-1.172,6.794,4.343,6.603
				c0.39,2.321,0.958,6.381,1.232,8.376l-0.512,0.277l-7.175,1.719l-0.058-0.087c0,0-1.29-5.107-5.784-6.823
				c-2.469-0.942-6.289-0.932-9.277,2.418c-2.063,2.316-2.874,5.523-2.414,9.534c0.112,0.973,0.299,2.127,0.622,3.289
				c-0.886-0.155-1.696-0.225-2.374-0.225h-3.127h-1.311l-0.567,1.18c-2.172,4.51-2.381,9.72-1.936,14.153l-0.001,0.012l0.005,0.026
				c0.551,5.443,2.084,9.707,2.201,10.022l0.203,0.552l0.299,0.814h1.453h3.303h1.287l0.316-0.633
				c0.277,0.749,0.666,1.373,1.051,1.864l-5.713,10.732c-2.617-0.363-5.325-0.547-8.071-0.547c-12.751,0-22.433,3.861-22.838,4.025
				l-4.493,1.816l4.408,2.014l2.276,1.039c-9.955,6.353-16.585,17.466-16.585,30.123c0,19.706,16.033,35.742,35.745,35.742
				c18.256,0,33.333-13.769,35.459-31.457c0.788,6.376,12.913,12.591,18.712,13.446c12.468,1.837,33.466,1.674,68.792-5.022
				l0.68,0.612l1.805,0.495c0,0,0.492-0.082,1.286-0.105c0.986,0.176,2.062,0.296,3.273,0.291c0.268,0.05,0.536,0.08,0.804,0.144
				c0.713,0.172,1.388,0.256,2.005,0.256c1.275,0,2.218-0.362,2.916-0.862V173.058z M168.581,161.833
				c-0.336,0.423-0.706,0.737-1.095,0.987L168.581,161.833z M96.283,103.259c2.346,0,4.248,1.317,4.248,2.942
				c0,1.624-1.902,2.942-4.248,2.942c-2.348,0-4.25-1.318-4.25-2.942C92.033,104.576,93.935,103.259,96.283,103.259z
				 M55.676,159.693l-6.757,0.946l0.771-1.602l3.483-1.013l-0.104-0.354l-3.165,0.919l1.829-3.803
				C53.269,156.223,54.597,157.871,55.676,159.693z M52.539,170.988c-0.032-0.43-0.089-0.855-0.156-1.278l2.045,0.588l-1.432,0.898
				L52.539,170.988z M52.619,171.43l-0.055,0.036c0-0.021-0.002-0.04-0.003-0.061L52.619,171.43z M52.321,169.306
				c-0.002-0.013-0.004-0.027-0.008-0.043l5.671-4.102c0.227,0.841,0.402,1.698,0.529,2.577l-3.666,2.296L52.321,169.306z
				 M52.234,168.862c-0.601-2.763-1.932-5.25-3.774-7.267l0.267-0.554l7.16-1.005c0.842,1.481,1.515,3.07,1.999,4.74L52.234,168.862
				z M50.009,180.875l1.205,1.798l-2.295-0.325C49.311,181.882,49.674,181.389,50.009,180.875z M47.702,160.808
				c-0.326-0.312-0.663-0.612-1.017-0.896l2.525-0.733l-0.731,1.523L47.702,160.808z M48.285,161.101l-0.093,0.198
				c-0.05-0.055-0.097-0.109-0.147-0.163L48.285,161.101z M48.183,153.29l0.238-0.598h0.664c0.823,0.564,1.621,1.167,2.36,1.835
				l-2.02,4.202l-3.109,0.904c-0.104-0.08-0.207-0.156-0.31-0.233l2.412-6.016L48.183,153.29z M41.991,153.565l2.017-3.343
				c0.154,0.239,0.343,0.485,0.591,0.735l-2.908,6.248c-0.466-0.152-0.95-0.252-1.431-0.363L41.991,153.565z M36.687,148.823
				c0.178,0,0.351,0.021,0.528,0.025c-0.55,0.463-0.958,0.721-0.958,0.721l-1.353,3.949l-3.814-1.512l-0.667-2.265
				C32.411,149.152,34.51,148.823,36.687,148.823z M30.424,155.957l-0.583-4.049l0.946,0.377l1.32,4.473L30.424,155.957z
				 M31.988,157.111c-0.453,0.138-0.895,0.304-1.33,0.479l-0.173-1.195L31.988,157.111z M31.224,152.459l3.562,1.411l-0.971,2.836
				c-0.424,0.083-0.851,0.149-1.261,0.259L31.224,152.459z M30.066,149.839l0.587,1.993l-0.875-0.348l-0.209-1.461
				C29.736,149.963,29.897,149.892,30.066,149.839z M29.213,150.153l0.17,1.174l-0.723-0.285l-0.137,0.345l0.92,0.365l0.578,4.015
				l-6.054-2.882C25.572,151.747,27.334,150.831,29.213,150.153z M23.965,152.887l-0.157,0.332l6.278,2.985l0.22,1.537
				c-2.006,0.875-3.785,2.164-5.255,3.748l-1.042,0.173l-4.42-4.707C20.853,155.408,22.331,154.044,23.965,152.887z M26.355,184.22
				l-1.259,0.945l0.174-1.966C25.614,183.556,25.975,183.896,26.355,184.22z M24.647,161.931c-0.061,0.072-0.13,0.139-0.19,0.21
				l-0.145-0.152L24.647,161.931z M24.227,162.439c-0.272,0.346-0.535,0.698-0.777,1.063l-1.419-1.131l1.842-0.31L24.227,162.439z
				 M19.361,157.259l4.208,4.479l-1.926,0.323l-3.626-2.894C18.433,158.509,18.879,157.869,19.361,157.259z M17.822,159.491
				l3.33,2.654l-5.055,0.852C16.568,161.77,17.147,160.602,17.822,159.491z M15.948,163.395l5.592-0.939l1.62,1.292l-7.888,1.875
				C15.459,164.864,15.686,164.12,15.948,163.395z M15.167,166.028l7.886-1.872c-1.339,2.243-2.136,4.836-2.215,7.612l-0.309,0.193
				l-5.824-3.005C14.794,167.957,14.95,166.983,15.167,166.028z M20.899,173.873l-1.868-0.538l1.514-0.947l0.285,0.145
				C20.838,172.983,20.854,173.433,20.899,173.873z M14.608,170.902c0-0.52,0.042-1.028,0.078-1.538l5.479,2.825l-1.611,1.008
				l-3.886-1.116C14.645,171.686,14.608,171.3,14.608,170.902z M14.687,172.472l3.443,0.99l-3.065,1.921
				C14.87,174.433,14.756,173.457,14.687,172.472z M15.162,175.759l3.445-2.158l2.356,0.677c0.03,0.229,0.063,0.457,0.103,0.682
				l-5.042,3.649C15.675,177.684,15.384,176.737,15.162,175.759z M16.155,178.968l4.976-3.601c0.559,2.763,1.85,5.256,3.648,7.293
				l-4.809,2.624C18.366,183.422,17.071,181.292,16.155,178.968z M24.368,189.214c-0.7-0.472-1.361-0.992-2-1.539l2.285-1.714
				L24.368,189.214z M22.088,187.42c-0.657-0.579-1.277-1.201-1.86-1.854l4.686-2.556l-0.215,2.454L22.088,187.42z M24.721,189.43
				l0.331-3.77l1.588-1.191c0.337,0.274,0.687,0.536,1.044,0.782l-0.116,5.481l0.37,0.008l0.112-5.254
				c2.301,1.494,5.011,2.395,7.925,2.514l-1.487,4.868C30.912,192.515,27.593,191.29,24.721,189.43z M34.871,192.889l1.486-4.869
				c0.09,0,0.178,0.012,0.267,0.012c0.029,0,0.056-0.003,0.083-0.003c0.031,0,0.057,0.003,0.087,0.003
				c0.084,0,0.166-0.009,0.249-0.012l0.167,0.202l-0.731,4.75C35.938,192.966,35.404,192.933,34.871,192.889z M36.856,192.974
				l0.67-4.366l3.265,3.976C39.513,192.825,38.2,192.964,36.856,192.974z M41.209,192.512l-3.609-4.396l0.02-0.124
				c0.868-0.047,1.721-0.151,2.548-0.33l3.811,4.055C43.078,192.034,42.16,192.312,41.209,192.512z M44.356,191.58l-3.779-4.024
				c3.031-0.749,5.714-2.368,7.777-4.584l2.375,4.955C48.844,189.486,46.687,190.711,44.356,191.58z M51.014,187.667l-2.391-4.985
				l2.863,0.402l1.664,2.479C52.484,186.312,51.775,187.019,51.014,187.667z M53.407,185.282l-1.426-2.129l2.779,0.393
				C54.338,184.148,53.885,184.725,53.407,185.282z M55.009,183.209l-3.306-0.466l-1.483-2.216c0.131-0.212,0.268-0.42,0.391-0.64
				l6.012,0.44C56.149,181.33,55.621,182.3,55.009,183.209z M56.797,179.972l-5.997-0.441c1.145-2.189,1.803-4.671,1.803-7.306
				c0-0.113-0.015-0.226-0.017-0.338l0.437-0.273l5.487,2.478C58.209,176.156,57.631,178.13,56.797,179.972z M58.568,173.71
				l-5.169-2.333l1.505-0.942l3.484,1.002l0.104-0.354l-3.167-0.911l3.249-2.035c0.116,0.907,0.194,1.827,0.194,2.766
				C58.768,171.856,58.686,172.788,58.568,173.71z M53.635,143.611l5.557-12.636l0.971-2.457v13.67l6.084,5.735l-1.046,1.392
				L53.635,143.611z M71.466,163.354c-0.889-4.439-2.62-8.57-4.995-12.256l-0.638,0.853l1.036-1.387l1.045-1.39l1.117-1.49
				l-1.355-1.277l-5.427-5.116v-12.395l0.908-1.049c0.817,0.238,1.338,0.465,1.655,0.636l-1.104,4.134l-0.115,0.439l0.075,0.442
				c0.53,3.193,2.487,3.535,3.304,3.535c1.363,0,1.708,3.951,1.897,5.422l0.167,1.3l1.241,0.414l2.03,0.677l-0.491,5.142
				l-0.016,0.146l0.009,0.149c0.145,3.127,1.358,6.472,4.326,6.472c1.249,0,2.488-0.653,3.777-1.997
				c0.314-0.326,0.777-0.718,1.198-0.718c0.559,0,1.255,0.558,1.883,1.279c-1.486,0.558-3.59,1.416-6.34,2.71
				C74.093,159.231,72.485,161.249,71.466,163.354z M148.052,177.073c-1.192,0.622-0.864,2.584,0.361,3.483
				c-13.92,5.354-49.792,5.632-56.926,4.082c-7.135-1.55-16.49-8.595-15.823-13.032c0.657-4.39,0.204-5.876,5.823-6.578
				l-0.023,0.117c0,0,3.884,8.759,10.201,9.732c17.772,2.736,21.039-7.124,21.869-11.85l18.984-6.306l0.019-0.104
				c0.08-0.392,0.346-0.371,0.346-0.371l4.567-1.343c0.579,0.255,1.216,0.4,1.889,0.4c2.314,0,4.234-1.68,4.646-3.896
				c5.062-1.223,10.596-2.819,15.213-4.798c0.164,1.082,0.522,2.251,1.232,3.024c-0.603,1.847-7.725,23.522-10.417,26.115
				c-1.064-0.854-8.878-7.121-13.667-11.654l-0.063-0.061l-2.136,0.354L148.052,177.073z"/>
		</g>
		<path fill="#FFFFFF" d="M249.913,179.316c-1.438,1.514-2.769,2.61-3.982,3.271c-1.473,0.8-3.25,1.193-5.326,1.193
			c-2.617,0-4.669-0.877-6.146-2.621c-1.406-1.631-2.102-3.82-2.102-6.575c0-4.267,1.289-8.08,3.866-11.442
			c2.449-3.154,5.644-4.727,9.588-4.727c3.192,0,5.472,0.999,6.83,2.99l0.515-2.167h7.172l-3.56,14.924
			c-0.184,0.787-0.275,1.553-0.275,2.273c0,1.665,0.875,2.502,2.646,2.502c2.238,0,4.045-0.896,5.406-2.705
			c1.387-1.841,2.066-4.28,2.066-7.319c0-4.152-1.425-7.706-4.292-10.669c-3.676-3.801-8.827-5.696-15.398-5.696
			c-5.199,0-9.567,1.397-13.098,4.184c-2.54,2.037-4.409,4.689-5.606,7.967c-0.782,2.109-1.163,4.429-1.163,6.955
			c0,5.312,1.632,9.575,4.891,12.779c3.402,3.339,8.354,5.007,14.856,5.007c4.024,0,7.928-0.62,11.678-1.879l1.508,4.932
			c-4.628,1.377-9.064,2.069-13.291,2.069c-9.207,0-16.135-2.854-20.783-8.566c-3.059-3.774-4.585-8.672-4.585-14.691
			c0-4.263,1.068-8.218,3.188-11.841c1.936-3.303,4.533-5.956,7.806-7.971c4.192-2.6,9.249-3.902,15.163-3.902
			c7.209,0,13.241,2.12,18.054,6.355c2.585,2.251,4.447,4.997,5.584,8.224c0.698,2.012,1.048,4.21,1.048,6.606
			c0,4.69-1.411,8.429-4.212,11.207c-2.621,2.604-6.172,3.905-10.651,3.905C252.704,183.891,250.236,182.365,249.913,179.316z
			 M246.873,163.793c-1.825,0-3.389,0.923-4.697,2.76c-0.745,1.048-1.318,2.33-1.736,3.846c-0.379,1.389-0.574,2.588-0.574,3.614
			c0,2.983,1.284,4.469,3.847,4.469c2.295,0,4.095-1.239,5.409-3.728c1.102-2.08,1.645-4.243,1.645-6.49
			C250.77,165.287,249.474,163.793,246.873,163.793z"/>
		<path fill="#FFFFFF" d="M308.444,121.985H186.301c-4.096,0-7.277,2.948-7.277,6.529v85.512c0,3.58,3.412,6.529,7.277,6.529
			h122.143c3.864,0,7.052-2.949,7.052-6.529v-85.512C315.495,124.932,312.308,121.985,308.444,121.985z M184.99,174.263
			c-1.459,0-2.644-1.18-2.644-2.641c0-1.457,1.185-2.64,2.644-2.64c1.458,0,2.641,1.183,2.641,2.64
			C187.63,173.083,186.448,174.263,184.99,174.263z M302.752,209.599c0,0.215-0.224,0.422-0.451,0.422v0.007H192.215
			c-0.224,0-0.455-0.214-0.455-0.429v-76.454c0-0.204,0.231-0.418,0.455-0.418h110.086c0.23,0,0.451,0.214,0.451,0.418V209.599z
			 M310.04,182.474c0,0.566-0.495,1.015-1.102,1.015c-0.61,0-1.102-0.455-1.102-1.015v-16.977c0-0.569,0.495-1.021,1.102-1.021
			s1.102,0.458,1.102,1.021V182.474z M308.735,161.875c-0.84,0-1.52-0.695-1.52-1.553s0.68-1.55,1.52-1.55
			c0.838,0,1.52,0.692,1.52,1.55S309.573,161.875,308.735,161.875z"/>
	</g>
</g>
</svg>
