<?xml version="1.0" encoding="utf-8"?>
<!-- Generator: Adobe Illustrator 16.0.0, SVG Export Plug-In . SVG Version: 6.00 Build 0)  -->
<!DOCTYPE svg PUBLIC "-//W3C//DTD SVG 1.1//EN" "http://www.w3.org/Graphics/SVG/1.1/DTD/svg11.dtd">
<svg version="1.1" id="Layer_1" xmlns="http://www.w3.org/2000/svg" xmlns:xlink="http://www.w3.org/1999/xlink" x="0px" y="0px"
	 width="316.176px" height="272.059px" viewBox="0 0 316.176 272.059" enable-background="new 0 0 316.176 272.059"
	 xml:space="preserve">
<g>
	<g>
		<g>
			<g>
				<g>
					<g>
						<g>
							<rect x="0" y="0" fill="none" width="316.176" height="272.059"/>
						</g>
					</g>
				</g>
			</g>
		</g>
	</g>
	<g>
		<g opacity="0.6">
			<path fill="#FFFFFF" d="M266.573,151.569c1.354,0,2.449-1.097,2.449-2.446v-1.812c0-1.354-1.098-2.451-2.449-2.451h-39.654
				c-1.355,0-2.451,1.098-2.451,2.451v1.812c0,1.351,1.098,2.446,2.451,2.446H266.573z"/>
			<path fill="#FFFFFF" d="M204.998,162.235v1.213c0,1.354,1.098,2.448,2.451,2.448h80.516c1.35,0,2.447-1.096,2.447-2.448v-1.213
				c0-1.354-1.098-2.451-2.447-2.451h-80.516C206.096,159.782,204.998,160.88,204.998,162.235z"/>
			<path fill="#FFFFFF" d="M292.729,210.511c0.074-0.469-0.051-0.952-0.342-1.326l-2.258-2.916l2.258-2.918
				c0.291-0.375,0.416-0.856,0.342-1.327c-0.074-0.473-0.342-0.891-0.732-1.156l-3.049-2.076l1.242-3.476
				c0.162-0.447,0.129-0.944-0.088-1.37c-0.217-0.423-0.598-0.739-1.057-0.87l-3.539-1.037l0.111-3.688
				c0.014-0.475-0.168-0.935-0.504-1.271c-0.34-0.335-0.797-0.496-1.275-0.507l-3.686,0.11l-1.037-3.538
				c-0.131-0.458-0.447-0.84-0.873-1.058c-0.416-0.215-0.916-0.244-1.369-0.087l-3.473,1.246l-2.076-3.048
				c-0.268-0.396-0.686-0.662-1.158-0.736c-0.473-0.064-0.947,0.051-1.326,0.341l-2.918,2.259l-2.916-2.259
				c-0.379-0.29-0.854-0.405-1.326-0.341c-0.473,0.074-0.893,0.341-1.158,0.736l-2.078,3.048L254.971,182
				c-0.445-0.157-0.945-0.128-1.367,0.087c-0.426,0.218-0.742,0.6-0.873,1.058l-1.039,3.538l-3.686-0.11
				c-0.477,0.021-0.936,0.172-1.273,0.507c-0.338,0.338-0.52,0.798-0.506,1.271l0.111,3.688l-3.537,1.037
				c-0.459,0.131-0.842,0.447-1.059,0.871c-0.215,0.425-0.248,0.922-0.086,1.369l1.242,3.476l-3.047,2.076
				c-0.393,0.267-0.66,0.685-0.734,1.156c-0.074,0.471,0.051,0.952,0.342,1.327l2.258,2.918l-2.258,2.916
				c-0.291,0.374-0.416,0.857-0.342,1.326c0.074,0.472,0.342,0.891,0.734,1.159l3.047,2.075l-1.242,3.476
				c-0.162,0.446-0.129,0.944,0.086,1.369c0.217,0.424,0.6,0.74,1.059,0.87l3.537,1.038l-0.111,3.687
				c-0.014,0.478,0.168,0.936,0.506,1.271c0.336,0.339,0.787,0.537,1.273,0.507l3.686-0.112l-1.295,0.042v33.785l14.59-10.603
				l14.594,10.603v-31.866l0.572-1.961l3.688,0.112c0.492,0.044,0.936-0.168,1.273-0.507c0.338-0.337,0.52-0.795,0.506-1.271
				l-0.111-3.687l3.539-1.038c0.459-0.13,0.84-0.446,1.057-0.87c0.217-0.425,0.25-0.923,0.088-1.369l-1.242-3.476l3.047-2.075
				C292.387,211.402,292.655,210.983,292.729,210.511z M276.121,252.893l-9.344-6.789v-14.97l-0.855-0.658l-2.725,2.108v13.52
				l-9.344,6.789v-22.38c0.363,0.123,0.752,0.152,1.117,0.022l3.473-1.247l2.078,3.051c0.266,0.395,0.686,0.658,1.158,0.733
				c0.473,0.072,0.947-0.047,1.326-0.34l2.916-2.258l2.918,2.258c0.303,0.233,0.674,0.36,1.057,0.36c0.09,0,0.178-0.008,0.27-0.021
				c0.473-0.075,0.891-0.34,1.158-0.733l2.076-3.051l2.721,0.975V252.893L276.121,252.893z M286.578,207.325l1.949,2.521
				l-2.631,1.794c-0.652,0.443-0.922,1.271-0.656,2.014l1.078,3.006l-3.062,0.894c-0.758,0.219-1.27,0.922-1.246,1.711l0.098,3.188
				l-3.189-0.098c-0.793-0.019-1.488,0.491-1.711,1.246l-0.893,3.06l-3.004-1.076c-0.752-0.269-1.57,0-2.014,0.655l-1.795,2.634
				l-2.523-1.949c-0.311-0.242-0.682-0.361-1.057-0.361s-0.746,0.119-1.055,0.361l-2.523,1.949l-1.795-2.634
				c-0.439-0.655-1.266-0.915-2.014-0.655l-3.004,1.076l-0.891-3.06c-0.221-0.755-0.963-1.275-1.713-1.246l-3.189,0.098l0.098-3.188
				c0.023-0.789-0.488-1.492-1.246-1.711l-3.062-0.894l1.076-3.006c0.27-0.741-0.002-1.569-0.654-2.014l-2.633-1.794l1.951-2.521
				c0.482-0.622,0.482-1.492,0-2.113l-1.951-2.522l2.633-1.797c0.652-0.44,0.924-1.27,0.654-2.012l-1.076-3.005l3.062-0.892
				c0.758-0.224,1.27-0.926,1.246-1.712l-0.098-3.189l3.189,0.098c0.76,0.041,1.492-0.489,1.713-1.246l0.891-3.058l3.004,1.076
				c0.74,0.258,1.57-0.004,2.014-0.655l1.795-2.637l2.523,1.951c0.619,0.479,1.492,0.479,2.111,0l2.523-1.951l1.795,2.637
				c0.441,0.651,1.27,0.919,2.014,0.655l3.004-1.076l0.891,3.058c0.223,0.757,0.908,1.276,1.711,1.246l3.191-0.098l-0.098,3.189
				c-0.023,0.786,0.488,1.488,1.246,1.712l3.061,0.892l-1.078,3.005c-0.266,0.742,0.006,1.57,0.656,2.012l2.631,1.797l-1.947,2.522
				C286.094,205.833,286.094,206.703,286.578,207.325z"/>
			<path fill="#FFFFFF" d="M309.285,118.528H186.819c-3.254,0-5.902,2.65-5.902,5.906v93.174c0,3.261,2.648,5.908,5.902,5.908h50.9
				v-6.912h-49.891v-91.162H308.28v91.162h-14.166v6.912h15.172c3.26,0,5.908-2.647,5.908-5.908v-93.174
				C315.194,121.178,312.543,118.528,309.285,118.528z"/>
		</g>
		<g opacity="0.6">
			<path fill="#FFFFFF" d="M174.606,172.832c-0.633,0.834-1.186,1.847-1.561,3.104l-5.52-0.176c0,0-4.449-2.465-6.408,0
				c-1.332,1.678-1.18,2.932-0.947,3.569c-0.059,0.137-0.166,0.301-0.332,0.474l-4.877-0.044c0.074-0.091,0.156-0.175,0.209-0.279
				c0.42-0.821,0.068-1.729-0.057-1.998l0.996-2.622l9.777-8.802c0.328,0.057,0.742,0.11,1.227,0.11
				c0.988,0,2.209-0.216,3.279-1.032l4.213,1.562v-2.523l-2.852-1.043l-1.979,1.778l0.154,0.057
				c-1.297,0.864-2.752,0.887-3.682,0.765l2.656-2.393c0.883-0.277,1.773-0.786,2.5-1.773l-0.291-0.215l3.49-3.142v-0.507
				l-5.895,5.308c-1.721,0.512-3.371,0.008-3.396,0l-0.117,0.357c0.014,0.004,0.826,0.266,1.916,0.266
				c0.312,0,0.648-0.025,0.996-0.083l-2.338,2.108c-0.264-0.059-0.449-0.108-0.457-0.112l-0.117,0.356
				c0.004,0.003,0.098,0.028,0.232,0.062l-9.027,8.128l9.086-23.912l0.055-0.14c2.371,0.004,4.391-0.998,5.039-2.537
				c0.225-0.536,1.855-1.437,4.023-2.421v-7.747l-4.6,0.64c-5.307-2.266-11.301-6.021-11.328-6.125
				c-0.061-0.251-0.289-0.363-1.479-0.385c-0.646-0.013-1.479,0.013-2.285,0.046c3.117-1.029,4.848-4.05,4.605-4.333
				c-0.072-0.083-9.965-13.312-15.365-17.125c-5.395-3.812-12.686-5.143-20.707-4.229c-8.02,0.913-11.52,4.676-11.949,5.18
				c-6.303,7.324,7.367,18.121,7.377,18.121c0.039-0.015,32.77,3.464,32.77,3.464s0.119-0.04,0.293-0.097
				c0.031-0.011,0.061-0.021,0.096-0.034l9.305,11.273c0,0.032,0,0.112,0,0.162c-0.16,0.005-0.32,0.041-0.488,0.135
				c-0.332,0.182-7.457,2.753-14.848,4.795c-0.527-2.094-2.391-3.646-4.627-3.646c-2.262,0-4.148,1.588-4.652,3.715l-3.988,0.949
				c0,0-0.482-0.06-0.529-0.118l-0.09-0.104l-18.721,6.789c-1.809-3.299-4.207-5.834-9.074-5.834c-4.721,0-12.516,2.285-17.01,4.899
				c-0.676-1.178-2.541-4.01-4.893-4.012c-0.859,0-1.785,0.386-2.736,1.375c-0.949,0.991-1.705,1.374-2.303,1.374
				c-2.061,0-2.273-4.541-2.273-4.541l0.945-7.026l-3.934-1.067l-2.814-7.913c0,0-0.584,0.583-1.199,0.583
				c-0.506,0-1.027-0.391-1.262-1.818l1.404-5.276c0,0,0-1.409-4.752-2.464l-1.99,2.297l1.363-3.45l11.084-22.344l1.268-2.824
				c0.18-0.061,0.311-0.153,0.371-0.282c0.299-0.62-0.912-1.831-2.709-2.704c-1.799-0.872-3.502-1.075-3.801-0.455
				c-0.021,0.042-0.033,0.085-0.041,0.128c-0.006-0.007-0.012-0.012-0.016-0.017l-11.609,25.154l-3.432,6.95l-3.854,9.477
				c0,0-5.631-0.807-10.029-0.981c-3.104-0.125-1.791,2.221-0.75,3.613c-0.664-0.023-1.348-0.036-2.061-0.036
				c-3.602,0-7.855,0.316-12.852,1.134l-8.092-3.691c0,0,9.686-3.923,22.334-3.923c2.975,0,6.117,0.218,9.332,0.752l7.213-13.547
				c0,0-1.934-1.406-1.934-3.692h-2.99l-0.162,0.32c-2.025-4.933-1.518-17.919-0.719-22.488c0,0,7.736-0.106,10.219,2.624
				c3.355,3.691,2.975,8.462,2.975,8.462s1.41-6.643-1.896-9.124c-3.383-2.536-4.105-2.682-7.447-3.889
				c-2.066-9.219,6.66-13.698,10.012-12.574c4.307,1.444,7.078,10.104,7.078,10.104l0.588,0.112l-0.883-3.268l7.156-2.649
				l3.166,2.992l2.463,0.7c0,0,7.385,0.705,8.268,5.278c0.066,0.35,0.158,1.097,0.215,1.549c0,0-3.48,3.217-5.314,11.065
				c-3.377,1.831-8.641,10.657-8.445,12.841c0.199,2.188,14.955,14.251,14.955,14.251s18.326-0.145,24.623-2.522
				c0,0-4.811-3.547-7.609-9.759c-2.344-5.188-1.203-8.47,0.535-10.489c4.488-5.223,10.619-5.764,15.455-5.889
				c15.875-0.412,22.449,7.083,22.828,7.46c1.592,1.569,3.139,3.273,4.619,4.981h5.998l0.039,0.13
				c0.008,0.016,0.891,2.006,11.562,6.155c1.242-0.088,2.609-0.198,4.027-0.319v-0.396c0-4.615,3.74-8.356,8.355-8.356h15.07
				c0.93-0.684,1.594-1.163,1.688-1.231l0.074-0.029l32.135-6.286c0.084-0.096,1.619-1.213,1.662-0.734l18.504,1.651
				c0,0,2.113,1.758,1.057,6.157c-0.041,0.165-0.08,0.316-0.119,0.473h2.176c1.312-5.5-1.441-7.987-1.76-8.25l-0.508-0.424
				l-0.658-0.059l-17.004-1.517c-0.146-0.458-0.338-0.972-0.576-1.562c-2.199-5.508-6.398-5.935-7.635-5.935
				c-0.256,0-0.465,0.017-0.615,0.031h-26.785h-1.867l-0.225,1.855c-0.02,0.131-0.035,0.263-0.053,0.396
				c-0.814-0.212-1.82-0.339-3.064-0.339c-0.523,0-0.885,0.022-0.922,0.028l-0.264,0.018l-0.254,0.086
				c-12.301,4.098-21.443,6.093-27.943,6.093c-5.736,0-8.955-1.476-12.023-3.691c-6.422-4.639-14.264-8.317-14.594-8.472
				l-0.172-0.078l-0.178-0.049c-10.863-2.883-20.371-4.347-28.262-4.347c-8.678,0-13.992,1.771-17.127,3.534
				c-1.324-3.146-4.42-4.651-6.324-5.3l-6.236-1.825l-1.49-1.409l-0.24-0.228l-0.832-8.504c0,0,2.779,0.338,7.916-2.288
				c2.479-1.268,2.992-4.223,2.992-4.223l4.926-2.815c1.156-2.312-1.523-4.151-2.988-3.343l-4.4,2.815c0,0-4.828-0.195-4.572-3.343
				c0.652-8.049,3.24-13.603,3.24-13.603c0.02,0,1.896,0.232,1.918,0.232c4.811,0,5.045-2.64,5.045-2.64s1.891-11.021-0.887-11.021
				c-0.154,0-0.328,0.045-0.52,0.113c-6.879,2.478-8.271,17.77-8.271,17.77l-2.287,10.908l-2.812,2.108
				c-0.346-0.043-0.678-0.063-0.99-0.063c-3.346,0-3.74,1.241-4.816,2.353c-1.074,1.111-1.186,6.88,4.396,6.687
				c0.396,2.35,0.971,6.461,1.248,8.48l-0.518,0.281l-7.268,1.74l-0.059-0.088c0,0-1.307-5.171-5.855-6.908
				c-2.5-0.954-6.365-0.943-9.393,2.449c-2.088,2.345-2.91,5.593-2.445,9.653c0.113,0.984,0.307,2.153,0.631,3.33
				c-0.896-0.156-1.717-0.228-2.402-0.228h-3.166H44.93l-0.576,1.195c-2.199,4.566-2.408,9.842-1.961,14.331l-0.002,0.012
				l0.008,0.027c0.559,5.511,2.109,9.827,2.23,10.146l0.205,0.559l0.305,0.824h1.469h3.346h1.303l0.318-0.641
				c0.281,0.758,0.676,1.389,1.066,1.887l-5.785,10.867c-2.65-0.368-5.393-0.554-8.172-0.554c-12.912,0-22.715,3.908-23.125,4.074
				l-4.547,1.841l4.461,2.038l2.303,1.052c-10.078,6.433-16.791,17.685-16.791,30.5c0,19.954,16.234,36.189,36.191,36.189
				c18.484,0,33.75-13.94,35.902-31.852c0.799,6.456,13.072,12.749,18.943,13.614c12.625,1.859,33.891,1.694,69.654-5.085
				l0.689,0.619l1.828,0.502c0,0,0.496-0.084,1.301-0.105c0.998,0.177,2.086,0.299,3.314,0.294c0.271,0.05,0.541,0.081,0.814,0.146
				c0.721,0.175,1.4,0.26,2.027,0.26c1.293,0,2.246-0.366,2.953-0.873v-10.998H174.606z M170.985,161.468
				c-0.34,0.428-0.715,0.745-1.105,0.999L170.985,161.468z M97.78,102.159c2.379,0,4.305,1.334,4.305,2.979
				c0,1.646-1.926,2.979-4.305,2.979c-2.375,0-4.301-1.334-4.301-2.979C93.479,103.493,95.405,102.159,97.78,102.159z
				 M56.666,159.299l-6.842,0.96l0.779-1.622l3.525-1.026l-0.105-0.357l-3.205,0.93l1.854-3.85
				C54.229,155.785,55.574,157.455,56.666,159.299z M53.49,170.737c-0.033-0.436-0.09-0.866-0.16-1.296l2.07,0.598l-1.449,0.909
				L53.49,170.737z M53.571,171.184l-0.055,0.036c-0.002-0.021-0.004-0.04-0.004-0.062L53.571,171.184z M53.27,169.033
				c-0.004-0.014-0.004-0.028-0.008-0.044l5.74-4.152c0.23,0.851,0.408,1.72,0.537,2.607l-3.711,2.324L53.27,169.033z
				 M53.182,168.583c-0.609-2.798-1.957-5.315-3.822-7.357l0.271-0.562l7.248-1.018c0.854,1.5,1.535,3.108,2.023,4.801
				L53.182,168.583z M50.926,180.747l1.221,1.819l-2.32-0.327C50.221,181.767,50.586,181.267,50.926,180.747z M48.592,160.429
				c-0.332-0.314-0.672-0.62-1.029-0.907l2.559-0.744l-0.742,1.543L48.592,160.429z M49.184,160.726l-0.096,0.199
				c-0.051-0.055-0.098-0.11-0.15-0.165L49.184,160.726z M49.08,152.818l0.24-0.604h0.672c0.834,0.571,1.641,1.183,2.391,1.856
				l-2.045,4.257l-3.15,0.915c-0.104-0.081-0.207-0.158-0.311-0.236l2.439-6.092L49.08,152.818z M42.811,153.095l2.041-3.385
				c0.156,0.242,0.35,0.492,0.6,0.744l-2.945,6.326c-0.469-0.154-0.959-0.256-1.447-0.367L42.811,153.095z M37.44,148.293
				c0.184,0,0.355,0.021,0.533,0.024c-0.555,0.47-0.969,0.729-0.969,0.729l-1.367,4l-3.863-1.53l-0.676-2.294
				C33.11,148.626,35.235,148.293,37.44,148.293z M31.098,155.517l-0.592-4.098l0.959,0.381l1.336,4.529L31.098,155.517z
				 M32.68,156.685c-0.457,0.142-0.904,0.31-1.344,0.486l-0.176-1.21L32.68,156.685z M31.908,151.975l3.605,1.432l-0.982,2.87
				c-0.428,0.083-0.861,0.15-1.277,0.263L31.908,151.975z M30.735,149.323l0.598,2.019l-0.887-0.352l-0.215-1.48
				C30.401,149.448,30.565,149.376,30.735,149.323z M29.871,149.641l0.172,1.188l-0.73-0.29l-0.141,0.35l0.932,0.37l0.586,4.064
				l-6.129-2.917C26.186,151.255,27.969,150.327,29.871,149.641z M24.557,152.409l-0.158,0.336l6.355,3.021l0.225,1.558
				c-2.031,0.887-3.834,2.19-5.32,3.795l-1.057,0.176l-4.475-4.769C21.406,154.961,22.903,153.58,24.557,152.409z M26.977,184.134
				l-1.271,0.957l0.176-1.99C26.227,183.462,26.594,183.806,26.977,184.134z M25.25,161.567c-0.064,0.073-0.133,0.14-0.195,0.212
				l-0.145-0.153L25.25,161.567z M24.824,162.081c-0.273,0.349-0.541,0.706-0.785,1.075l-1.439-1.146l1.865-0.313L24.824,162.081z
				 M19.897,156.835l4.262,4.535l-1.949,0.327l-3.674-2.931C18.957,158.101,19.408,157.453,19.897,156.835z M18.336,159.096
				l3.373,2.688l-5.119,0.86C17.069,161.404,17.655,160.22,18.336,159.096z M16.442,163.048l5.66-0.951l1.643,1.31l-7.984,1.896
				C15.946,164.534,16.176,163.783,16.442,163.048z M15.651,165.714l7.984-1.896c-1.355,2.271-2.162,4.896-2.244,7.708l-0.311,0.195
				l-5.896-3.042C15.272,167.667,15.43,166.68,15.651,165.714z M21.455,173.658l-1.893-0.547l1.533-0.959l0.287,0.147
				C21.393,172.756,21.408,173.211,21.455,173.658z M15.084,170.649c0-0.525,0.041-1.042,0.078-1.558l5.547,2.861l-1.631,1.021
				l-3.934-1.131C15.121,171.443,15.084,171.052,15.084,170.649z M15.164,172.24l3.484,1.003l-3.102,1.942
				C15.35,174.225,15.235,173.239,15.164,172.24z M15.647,175.567l3.486-2.186l2.385,0.687c0.029,0.231,0.066,0.463,0.105,0.689
				l-5.105,3.694C16.164,177.515,15.869,176.557,15.647,175.567z M16.649,178.817l5.039-3.646c0.566,2.797,1.875,5.32,3.693,7.384
				l-4.867,2.657C18.889,183.325,17.578,181.169,16.649,178.817z M24.965,189.191c-0.707-0.478-1.377-1.005-2.023-1.559l2.312-1.735
				L24.965,189.191z M22.656,187.374c-0.666-0.587-1.291-1.216-1.883-1.878l4.742-2.587l-0.217,2.483L22.656,187.374z
				 M25.324,189.409l0.334-3.816l1.609-1.206c0.34,0.277,0.695,0.542,1.057,0.791l-0.117,5.55l0.375,0.008l0.113-5.318
				c2.33,1.513,5.076,2.425,8.025,2.545l-1.508,4.93C31.592,192.531,28.233,191.293,25.324,189.409z M35.6,192.912l1.506-4.933
				c0.092,0,0.182,0.015,0.271,0.015c0.027,0,0.057-0.004,0.086-0.004s0.057,0.004,0.086,0.004c0.086,0,0.168-0.011,0.252-0.015
				l0.17,0.205l-0.74,4.811C36.682,192.99,36.141,192.956,35.6,192.912z M37.61,192.997l0.682-4.421l3.307,4.024
				C40.301,192.847,38.971,192.989,37.61,192.997z M42.018,192.529l-3.65-4.448l0.02-0.126c0.879-0.047,1.742-0.153,2.578-0.334
				l3.855,4.104C43.91,192.046,42.981,192.327,42.018,192.529z M45.205,191.586l-3.828-4.075c3.07-0.758,5.787-2.396,7.873-4.641
				l2.408,5.017C49.748,189.466,47.565,190.706,45.205,191.586z M51.946,187.624l-2.42-5.048l2.9,0.406l1.682,2.512
				C53.434,186.251,52.717,186.968,51.946,187.624z M54.367,185.21l-1.443-2.156l2.814,0.398
				C55.311,184.062,54.854,184.646,54.367,185.21z M55.99,183.111l-3.346-0.473l-1.504-2.242c0.135-0.215,0.271-0.426,0.396-0.647
				l6.088,0.446C57.145,181.207,56.612,182.191,55.99,183.111z M57.801,179.832l-6.072-0.447c1.158-2.217,1.824-4.729,1.824-7.396
				c0-0.114-0.014-0.229-0.016-0.344l0.441-0.275l5.557,2.509C59.231,175.97,58.643,177.968,57.801,179.832z M59.594,173.493
				l-5.234-2.363l1.523-0.954l3.529,1.016l0.104-0.358l-3.205-0.923l3.291-2.062c0.115,0.919,0.193,1.851,0.193,2.8
				C59.795,171.615,59.713,172.56,59.594,173.493z M54.598,143.017l5.629-12.795l0.982-2.487v13.843l6.158,5.808l-1.057,1.408
				L54.598,143.017z M72.653,163.007c-0.898-4.496-2.65-8.679-5.057-12.41l-0.645,0.864L68,150.057l1.057-1.407l1.133-1.509
				l-1.373-1.294l-5.492-5.181v-12.549l0.918-1.062c0.824,0.241,1.354,0.471,1.676,0.645l-1.117,4.186l-0.117,0.445l0.076,0.446
				c0.537,3.233,2.518,3.579,3.346,3.579c1.379,0,1.729,4.001,1.92,5.49l0.168,1.315l1.256,0.419l2.057,0.686l-0.498,5.207
				l-0.014,0.146L73,149.769c0.148,3.167,1.377,6.555,4.381,6.555c1.266,0,2.521-0.661,3.826-2.022
				c0.318-0.331,0.787-0.727,1.213-0.727c0.566,0,1.27,0.563,1.904,1.296c-1.504,0.562-3.635,1.433-6.418,2.743
				C75.313,158.831,73.684,160.876,72.653,163.007z M150.199,176.898c-1.207,0.631-0.877,2.617,0.363,3.526
				c-14.092,5.422-50.414,5.703-57.637,4.135c-7.225-1.569-16.697-8.703-16.021-13.194c0.664-4.445,0.205-5.95,5.896-6.661
				l-0.023,0.119c0,0,3.932,8.866,10.328,9.854c17.994,2.771,21.303-7.214,22.143-11.997l19.221-6.386l0.021-0.105
				c0.078-0.396,0.35-0.375,0.35-0.375l4.623-1.358c0.586,0.258,1.232,0.403,1.912,0.403c2.342,0,4.287-1.699,4.703-3.942
				c5.127-1.239,10.73-2.855,15.406-4.858c0.164,1.096,0.529,2.279,1.246,3.062c-0.609,1.869-7.82,23.815-10.547,26.441
				c-1.078-0.863-8.988-7.211-13.836-11.801l-0.064-0.062l-2.162,0.358L150.199,176.898z"/>
		</g>
	</g>
</g>
</svg>
