<?xml version="1.0" encoding="utf-8"?>
<!-- Generator: Adobe Illustrator 16.0.0, SVG Export Plug-In . SVG Version: 6.00 Build 0)  -->
<!DOCTYPE svg PUBLIC "-//W3C//DTD SVG 1.1//EN" "http://www.w3.org/Graphics/SVG/1.1/DTD/svg11.dtd">
<svg version="1.1" id="Layer_1" xmlns="http://www.w3.org/2000/svg" xmlns:xlink="http://www.w3.org/1999/xlink" x="0px" y="0px"
	 width="128.75px" height="84.559px" viewBox="-5.25 0 128.75 84.559" enable-background="new -5.25 0 128.75 84.559"
	 xml:space="preserve">
<g>
	<g>
		<path fill="#777266" d="M87.402,26.866v16.581c0,7.311-5.948,13.262-13.264,13.262H54.952l-6.453,6.342
			c1.358,0.776,2.925,1.225,4.603,1.225h15.562L81.44,76.833v-12.56H84.8c5.145,0,9.316-4.172,9.316-9.316V35.808
			C94.114,31.567,91.279,27.994,87.402,26.866z"/>
		<path fill="#777266" d="M74.139,53.857c5.741,0,10.411-4.671,10.411-10.409V26.49H53.101c-5.145,0-9.315,4.171-9.315,9.32v19.149
			c0,2.432,0.939,4.643,2.47,6.302l7.53-7.403H74.139L74.139,53.857z"/>
	</g>
	<path fill="#777266" d="M73.735,7.919H35.507c-6.21,0-11.239,5.03-11.239,11.24v23.094c0,6.209,5.029,11.239,11.239,11.239h4.051
		v15.146l15.409-15.146h18.769c6.209,0,11.238-5.03,11.238-11.239V19.158C84.974,12.949,79.942,7.919,73.735,7.919L73.735,7.919z"/>
	<g opacity="0.6" enable-background="new    ">
		<path fill="#C1BAAC" d="M74.001,8.06c-0.133-0.005-0.266-0.007-0.398-0.007l0,0H35.373c-6.21,0-11.239,5.03-11.239,11.24v23.093"
			/>
	</g>
	<g>
		<linearGradient id="SVGID_1_" gradientUnits="userSpaceOnUse" x1="30.958" y1="19.4841" x2="75.4307" y2="19.4841">
			<stop  offset="0" style="stop-color:#E5E5E5"/>
			<stop  offset="0.5398" style="stop-color:#FFFFFF"/>
			<stop  offset="1" style="stop-color:#C8C8C8"/>
		</linearGradient>
		<path fill="url(#SVGID_1_)" d="M73.97,20.952H32.428c-0.816,0-1.47-0.66-1.47-1.468c0-0.814,0.653-1.468,1.47-1.468h41.535
			c0.818,0,1.468,0.654,1.468,1.468C75.431,20.292,74.779,20.952,73.97,20.952z"/>
		<linearGradient id="SVGID_2_" gradientUnits="userSpaceOnUse" x1="30.958" y1="29.24" x2="75.4307" y2="29.24">
			<stop  offset="0" style="stop-color:#E5E5E5"/>
			<stop  offset="0.5398" style="stop-color:#FFFFFF"/>
			<stop  offset="1" style="stop-color:#C8C8C8"/>
		</linearGradient>
		<path fill="url(#SVGID_2_)" d="M73.97,30.71H32.428c-0.816,0-1.47-0.662-1.47-1.47c0-0.812,0.653-1.47,1.47-1.47h41.535
			c0.818,0,1.468,0.658,1.468,1.47C75.431,30.048,74.779,30.71,73.97,30.71z"/>
		<linearGradient id="SVGID_3_" gradientUnits="userSpaceOnUse" x1="30.9561" y1="38.9963" x2="56.4307" y2="38.9963">
			<stop  offset="0" style="stop-color:#E5E5E5"/>
			<stop  offset="0.5398" style="stop-color:#FFFFFF"/>
			<stop  offset="1" style="stop-color:#C8C8C8"/>
		</linearGradient>
		<path fill="url(#SVGID_3_)" d="M54.967,40.466H32.426c-0.814,0-1.47-0.66-1.47-1.47c0-0.812,0.655-1.47,1.47-1.47h22.537
			c0.814,0,1.468,0.657,1.468,1.47C56.431,39.806,55.777,40.466,54.967,40.466z"/>
	</g>
</g>
</svg>
