<?xml version="1.0" encoding="utf-8"?>
<!-- Generator: Adobe Illustrator 16.0.0, SVG Export Plug-In . SVG Version: 6.00 Build 0)  -->
<!DOCTYPE svg PUBLIC "-//W3C//DTD SVG 1.1//EN" "http://www.w3.org/Graphics/SVG/1.1/DTD/svg11.dtd">
<svg version="1.1" id="Layer_1" xmlns="http://www.w3.org/2000/svg" xmlns:xlink="http://www.w3.org/1999/xlink" x="0px" y="0px"
	 width="107.354px" height="84.559px" viewBox="0 0 107.354 84.559" enable-background="new 0 0 107.354 84.559"
	 xml:space="preserve">
<g>
	<g>
		
			<linearGradient id="SVGID_1_" gradientUnits="userSpaceOnUse" x1="150.8333" y1="-100.7532" x2="217.5022" y2="-100.7532" gradientTransform="matrix(1 0 0 -1 -140.8799 -66.3462)">
			<stop  offset="0" style="stop-color:#E6E6E6"/>
			<stop  offset="0.5398" style="stop-color:#FFFFFF"/>
			<stop  offset="1" style="stop-color:#C8C8C8"/>
		</linearGradient>
		<path fill="url(#SVGID_1_)" d="M72.227,65.078h-57.88c-2.423,0-4.394-1.92-4.394-4.279V8.016c0-2.359,1.971-4.28,4.394-4.28
			h57.881c2.423,0,4.395,1.921,4.395,4.28v52.783C76.62,63.158,74.649,65.078,72.227,65.078z M14.347,5.736
			c-1.32,0-2.394,1.023-2.394,2.28v52.783c0,1.257,1.073,2.279,2.394,2.279h57.88c1.319,0,2.395-1.022,2.395-2.279l0.001-52.783
			c0-1.257-1.073-2.28-2.395-2.28H14.347z"/>
		<path fill="#777266" d="M72.228,5.736H14.347c-1.32,0-2.394,1.023-2.394,2.28v52.783c0,1.257,1.073,2.279,2.394,2.279h57.88
			c1.319,0,2.395-1.022,2.395-2.279l0.001-52.783C74.621,6.759,73.548,5.736,72.228,5.736z"/>
		<path opacity="0.6" fill="#C1BAAC" enable-background="new    " d="M72.228,5.736H14.347c-1.32,0-2.394,1.023-2.394,2.28v30.06
			l62.668-21.9V8.016C74.621,6.759,73.548,5.736,72.228,5.736z"/>
	</g>
	<path id="path2428_8_" fill="#81A2BF" d="M61.907,35.119l-1.462,2.992c-0.015,0.028-0.036,0.052-0.065,0.062
		c-0.008,0.004-0.017,0.009-0.022,0.012l-3.271,0.469l2.374,2.31c0.031,0.032,0.045,0.078,0.035,0.122l-0.559,3.263l2.934-1.545
		c0.037-0.019,0.082-0.019,0.119,0l2.924,1.538l-0.562-3.27c-0.008-0.041,0.004-0.085,0.035-0.114l2.373-2.32l-3.271-0.462
		c-0.045-0.006-0.08-0.03-0.102-0.067L61.907,35.119z"/>
	<path id="path2428_14_" fill="#FFFFFF" d="M61.993,46.259L60.53,49.25c-0.013,0.028-0.034,0.052-0.063,0.062
		c-0.008,0.005-0.016,0.008-0.022,0.012l-3.271,0.469l2.373,2.311c0.033,0.03,0.045,0.075,0.035,0.121l-0.559,3.262l2.934-1.543
		c0.037-0.021,0.082-0.021,0.119,0l2.924,1.538l-0.563-3.271c-0.006-0.041,0.006-0.084,0.037-0.114l2.373-2.318l-3.271-0.463
		c-0.041-0.006-0.078-0.03-0.1-0.068L61.993,46.259z"/>
	
		<linearGradient id="SVGID_2_" gradientUnits="userSpaceOnUse" x1="314.3293" y1="546.0149" x2="324.0032" y2="546.0149" gradientTransform="matrix(1 0 0 1 -281.7598 -528.252)">
		<stop  offset="0" style="stop-color:#FFFFFF"/>
		<stop  offset="1" style="stop-color:#C8C8C8"/>
	</linearGradient>
	<path fill="url(#SVGID_2_)" d="M38.87,16.134l-1.479-2.983l-1.462,2.992c-0.015,0.027-0.037,0.052-0.063,0.062
		c-0.01,0.004-0.018,0.007-0.024,0.009l-3.271,0.471l2.374,2.31c0.032,0.031,0.045,0.077,0.035,0.122l-0.558,3.26l2.933-1.542
		c0.037-0.02,0.081-0.02,0.118,0l2.924,1.538l-0.562-3.27c-0.007-0.042,0.006-0.084,0.036-0.115l2.374-2.319l-3.271-0.463
		C38.928,16.198,38.891,16.171,38.87,16.134z"/>
	
		<linearGradient id="SVGID_3_" gradientUnits="userSpaceOnUse" x1="301.4446" y1="546.0374" x2="311.1155" y2="546.0374" gradientTransform="matrix(1 0 0 1 -281.7598 -528.252)">
		<stop  offset="0" style="stop-color:#FFFFFF"/>
		<stop  offset="1" style="stop-color:#C8C8C8"/>
	</linearGradient>
	<path fill="url(#SVGID_3_)" d="M25.985,16.158l-1.479-2.985l-1.462,2.992c-0.014,0.027-0.037,0.051-0.064,0.063
		c-0.007,0.004-0.017,0.006-0.023,0.009l-3.271,0.47l2.374,2.31c0.031,0.03,0.044,0.077,0.035,0.12L21.535,22.4l2.933-1.543
		c0.036-0.02,0.08-0.02,0.117,0.001l2.926,1.538l-0.564-3.271c-0.008-0.042,0.007-0.085,0.035-0.114l2.374-2.319l-3.271-0.463
		C26.041,16.22,26.004,16.196,25.985,16.158z"/>
	
		<linearGradient id="SVGID_4_" gradientUnits="userSpaceOnUse" x1="338.9348" y1="546.0042" x2="348.6038" y2="546.0042" gradientTransform="matrix(1 0 0 1 -281.7598 -528.252)">
		<stop  offset="0" style="stop-color:#FFFFFF"/>
		<stop  offset="1" style="stop-color:#C8C8C8"/>
	</linearGradient>
	<path fill="url(#SVGID_4_)" d="M59.579,19.103l-0.559,3.262l2.934-1.544c0.037-0.02,0.082-0.02,0.119,0l2.924,1.539l-0.563-3.271
		c-0.006-0.042,0.006-0.084,0.037-0.113l2.373-2.319l-3.271-0.464c-0.041-0.005-0.078-0.031-0.1-0.068l-1.479-2.982l-1.463,2.99
		c-0.014,0.029-0.035,0.053-0.063,0.062c-0.009,0.006-0.017,0.008-0.023,0.011l-3.271,0.469l2.373,2.31
		C59.577,19.012,59.588,19.059,59.579,19.103z"/>
	
		<linearGradient id="SVGID_5_" gradientUnits="userSpaceOnUse" x1="326.0471" y1="546.0266" x2="335.718" y2="546.0266" gradientTransform="matrix(1 0 0 1 -281.7598 -528.252)">
		<stop  offset="0" style="stop-color:#FFFFFF"/>
		<stop  offset="1" style="stop-color:#C8C8C8"/>
	</linearGradient>
	<path fill="url(#SVGID_5_)" d="M46.694,19.126l-0.557,3.261l2.932-1.543c0.037-0.018,0.082-0.018,0.119,0l2.925,1.538l-0.562-3.27
		c-0.008-0.041,0.007-0.083,0.035-0.113l2.373-2.321l-3.271-0.463c-0.043-0.004-0.08-0.029-0.101-0.067l-1.479-2.984l-1.462,2.993
		c-0.014,0.027-0.037,0.051-0.063,0.062c-0.007,0.004-0.018,0.009-0.023,0.012l-3.271,0.47l2.375,2.309
		C46.691,19.036,46.704,19.081,46.694,19.126z"/>
	
		<linearGradient id="SVGID_6_" gradientUnits="userSpaceOnUse" x1="314.3293" y1="556.7385" x2="324.0042" y2="556.7385" gradientTransform="matrix(1 0 0 1 -281.7598 -528.252)">
		<stop  offset="0" style="stop-color:#FFFFFF"/>
		<stop  offset="1" style="stop-color:#C8C8C8"/>
	</linearGradient>
	<path fill="url(#SVGID_6_)" d="M38.87,26.859l-1.479-2.984l-1.462,2.993c-0.015,0.027-0.037,0.051-0.063,0.062
		c-0.01,0.007-0.018,0.009-0.024,0.011l-3.271,0.47l2.374,2.309c0.032,0.032,0.047,0.078,0.035,0.121L34.422,33.1l2.933-1.542
		c0.037-0.021,0.081-0.021,0.118,0.001l2.924,1.535l-0.562-3.269c-0.007-0.042,0.006-0.084,0.036-0.114l2.374-2.318l-3.271-0.465
		C38.928,26.922,38.891,26.898,38.87,26.859z"/>
	
		<linearGradient id="SVGID_7_" gradientUnits="userSpaceOnUse" x1="301.4446" y1="556.7639" x2="311.1165" y2="556.7639" gradientTransform="matrix(1 0 0 1 -281.7598 -528.252)">
		<stop  offset="0" style="stop-color:#FFFFFF"/>
		<stop  offset="1" style="stop-color:#C8C8C8"/>
	</linearGradient>
	<path fill="url(#SVGID_7_)" d="M25.985,26.881l-1.479-2.982l-1.462,2.992c-0.014,0.026-0.037,0.052-0.064,0.062
		c-0.007,0.004-0.017,0.007-0.023,0.009l-3.271,0.471l2.374,2.31c0.031,0.031,0.044,0.077,0.035,0.122l-0.558,3.261l2.933-1.543
		c0.036-0.02,0.08-0.02,0.117,0l2.926,1.538l-0.563-3.27c-0.009-0.042,0.006-0.083,0.034-0.114l2.374-2.32l-3.271-0.463
		C26.041,26.946,26.004,26.92,25.985,26.881z"/>
	
		<linearGradient id="SVGID_8_" gradientUnits="userSpaceOnUse" x1="326.0471" y1="556.7512" x2="335.718" y2="556.7512" gradientTransform="matrix(1 0 0 1 -281.7598 -528.252)">
		<stop  offset="0" style="stop-color:#FFFFFF"/>
		<stop  offset="1" style="stop-color:#C8C8C8"/>
	</linearGradient>
	<path fill="url(#SVGID_8_)" d="M46.694,29.851l-0.557,3.261l2.932-1.544c0.037-0.021,0.082-0.021,0.119,0l2.925,1.538l-0.562-3.27
		c-0.008-0.042,0.007-0.085,0.035-0.113l2.373-2.32l-3.271-0.463c-0.043-0.005-0.08-0.031-0.101-0.068l-1.479-2.984l-1.462,2.991
		c-0.014,0.029-0.037,0.052-0.063,0.063c-0.007,0.004-0.018,0.008-0.023,0.011l-3.271,0.469l2.375,2.311
		C46.691,29.76,46.704,29.807,46.694,29.851z"/>
	
		<linearGradient id="SVGID_9_" gradientUnits="userSpaceOnUse" x1="314.2424" y1="567.9993" x2="323.9143" y2="567.9993" gradientTransform="matrix(1 0 0 1 -281.7598 -528.252)">
		<stop  offset="0" style="stop-color:#FFFFFF"/>
		<stop  offset="1" style="stop-color:#C8C8C8"/>
	</linearGradient>
	<path fill="url(#SVGID_9_)" d="M42.155,38.65l-3.271-0.463c-0.042-0.005-0.078-0.03-0.099-0.068l-1.479-2.984l-1.462,2.992
		c-0.015,0.027-0.037,0.051-0.066,0.063c-0.008,0.004-0.016,0.007-0.023,0.011l-3.271,0.469l2.374,2.311
		c0.032,0.029,0.044,0.074,0.035,0.121l-0.558,3.261l2.934-1.543c0.037-0.021,0.081-0.021,0.118,0l2.925,1.538l-0.562-3.271
		c-0.01-0.042,0.005-0.085,0.036-0.114L42.155,38.65z"/>
	
		<linearGradient id="SVGID_10_" gradientUnits="userSpaceOnUse" x1="301.3577" y1="568.0217" x2="311.0286" y2="568.0217" gradientTransform="matrix(1 0 0 1 -281.7598 -528.252)">
		<stop  offset="0" style="stop-color:#FFFFFF"/>
		<stop  offset="1" style="stop-color:#C8C8C8"/>
	</linearGradient>
	<path fill="url(#SVGID_10_)" d="M29.269,38.672l-3.271-0.464c-0.042-0.004-0.08-0.031-0.101-0.067l-1.479-2.983l-1.462,2.991
		c-0.016,0.026-0.037,0.052-0.065,0.062c-0.009,0.005-0.017,0.008-0.022,0.009l-3.271,0.472L21.972,41
		c0.031,0.032,0.045,0.079,0.034,0.122l-0.556,3.262l2.932-1.544c0.037-0.02,0.081-0.02,0.118,0l2.925,1.538l-0.563-3.271
		c-0.007-0.041,0.007-0.084,0.035-0.112L29.269,38.672z"/>
	
		<linearGradient id="SVGID_11_" gradientUnits="userSpaceOnUse" x1="314.3284" y1="579.1389" x2="324.0002" y2="579.1389" gradientTransform="matrix(1 0 0 1 -281.7598 -528.252)">
		<stop  offset="0" style="stop-color:#FFFFFF"/>
		<stop  offset="1" style="stop-color:#C8C8C8"/>
	</linearGradient>
	<path fill="url(#SVGID_11_)" d="M42.24,49.788l-3.271-0.463c-0.042-0.007-0.08-0.032-0.1-0.068l-1.479-2.983l-1.462,2.991
		c-0.015,0.027-0.037,0.051-0.064,0.062c-0.009,0.004-0.017,0.007-0.023,0.009l-3.271,0.472l2.374,2.31
		c0.032,0.03,0.046,0.076,0.035,0.12L34.42,55.5l2.933-1.544c0.037-0.019,0.081-0.019,0.118,0l2.924,1.539l-0.562-3.271
		c-0.007-0.041,0.006-0.083,0.036-0.114L42.24,49.788z"/>
	
		<linearGradient id="SVGID_12_" gradientUnits="userSpaceOnUse" x1="301.4436" y1="579.1614" x2="311.1145" y2="579.1614" gradientTransform="matrix(1 0 0 1 -281.7598 -528.252)">
		<stop  offset="0" style="stop-color:#FFFFFF"/>
		<stop  offset="1" style="stop-color:#C8C8C8"/>
	</linearGradient>
	<path fill="url(#SVGID_12_)" d="M29.355,49.812l-3.271-0.463c-0.042-0.007-0.079-0.03-0.101-0.069l-1.479-2.983l-1.462,2.992
		c-0.014,0.026-0.037,0.051-0.064,0.062c-0.007,0.004-0.017,0.007-0.023,0.01l-3.271,0.471l2.374,2.308
		c0.031,0.032,0.044,0.078,0.034,0.122l-0.557,3.263l2.932-1.542c0.037-0.021,0.081-0.021,0.118,0l2.926,1.537l-0.564-3.271
		c-0.008-0.042,0.007-0.085,0.035-0.115L29.355,49.812z"/>
	
		<linearGradient id="SVGID_13_" gradientUnits="userSpaceOnUse" x1="325.9602" y1="580.4827" x2="379.9895" y2="580.4827" gradientTransform="matrix(1 0 0 1 -281.7598 -528.252)">
		<stop  offset="0" style="stop-color:#FFFFFF"/>
		<stop  offset="1" style="stop-color:#C8C8C8"/>
	</linearGradient>
	<path fill="url(#SVGID_13_)" d="M73.077,30.294c-2.914,0-5.714,0.502-8.315,1.415l-0.328-1.896
		c-0.006-0.042,0.006-0.084,0.037-0.114l2.373-2.32l-3.271-0.464c-0.041-0.005-0.078-0.031-0.1-0.066l-1.479-2.984l-1.463,2.991
		c-0.014,0.027-0.035,0.052-0.063,0.062c-0.009,0.003-0.017,0.006-0.023,0.009l-3.271,0.472l2.373,2.309
		c0.033,0.032,0.045,0.078,0.035,0.122l-0.559,3.261l2.934-1.543c0.037-0.02,0.082-0.02,0.119,0l1.312,0.688
		c-4.88,2.04-8.976,5.572-11.722,10.023l-0.202-1.163c-0.007-0.042,0.008-0.084,0.036-0.112l2.373-2.32L50.603,38.2
		c-0.043-0.006-0.08-0.031-0.101-0.068l-1.479-2.983l-1.462,2.993c-0.015,0.026-0.037,0.051-0.063,0.062
		c-0.009,0.004-0.018,0.006-0.024,0.009L44.2,38.68l2.374,2.312c0.03,0.03,0.044,0.077,0.033,0.12l-0.557,3.263l2.932-1.544
		c0.038-0.02,0.082-0.02,0.119,0l1.724,0.906c-0.538,1.02-1.012,2.078-1.405,3.175l-0.312-0.624l-1.462,2.991
		c-0.013,0.027-0.037,0.052-0.063,0.062c-0.007,0.005-0.018,0.009-0.023,0.011l-3.271,0.472l2.375,2.308
		c0.029,0.032,0.045,0.078,0.035,0.121l-0.559,3.262l1.814-0.953c-0.011,0.296-0.021,0.591-0.021,0.892
		c0,13.889,11.259,25.146,25.147,25.146c13.892,0,25.148-11.26,25.148-25.146C98.228,41.553,86.968,30.294,73.077,30.294z"/>
	<circle fill="#777266" cx="72.972" cy="55.207" r="23.343"/>
	<path opacity="0.6" fill="#C1BAAC" enable-background="new    " d="M79.857,41.423c5.308,0,10.248,1.558,14.4,4.234
		c-3.653-8.125-11.8-13.792-21.285-13.792c-12.893,0-23.343,10.451-23.343,23.343c0,4.573,1.335,8.825,3.606,12.427
		C53.462,53.121,65.289,41.423,79.857,41.423z"/>
	<text transform="matrix(1 0 0 1 68.4368 66.7415)" fill="#F7F7F7" font-family="'MyriadPro-Regular'" font-size="39.4309">!</text>
</g>
</svg>
