<?xml version="1.0" encoding="utf-8"?>
<!-- Generator: Adobe Illustrator 16.0.0, SVG Export Plug-In . SVG Version: 6.00 Build 0)  -->
<!DOCTYPE svg PUBLIC "-//W3C//DTD SVG 1.1//EN" "http://www.w3.org/Graphics/SVG/1.1/DTD/svg11.dtd">
<svg version="1.1" id="Layer_1" xmlns="http://www.w3.org/2000/svg" xmlns:xlink="http://www.w3.org/1999/xlink" x="0px" y="0px"
	 width="107.354px" height="84.559px" viewBox="0 0 107.354 84.559" enable-background="new 0 0 107.354 84.559"
	 xml:space="preserve">
<linearGradient id="SVGID_1_" gradientUnits="userSpaceOnUse" x1="1.0002" y1="33.3528" x2="33.2927" y2="33.3528">
	<stop  offset="0" style="stop-color:#E6E6E6"/>
	<stop  offset="0.5398" style="stop-color:#FFFFFF"/>
	<stop  offset="1" style="stop-color:#C8C8C8"/>
</linearGradient>
<path fill="url(#SVGID_1_)" d="M1,19.381v21.911h22.899l5.365,6.032l0.023-5.985h4.005V19.381H1z"/>
<linearGradient id="SVGID_2_" gradientUnits="userSpaceOnUse" x1="38.2283" y1="38.0315" x2="48.5597" y2="47.2702">
	<stop  offset="0" style="stop-color:#E6E6E6"/>
	<stop  offset="0.5398" style="stop-color:#FFFFFF"/>
	<stop  offset="1" style="stop-color:#C8C8C8"/>
</linearGradient>
<path fill="url(#SVGID_2_)" d="M51.24,42.123c0,4.66-3.776,8.436-8.433,8.436c-4.659,0-8.434-3.775-8.434-8.436
	c0-4.655,3.775-8.431,8.434-8.431C47.464,33.693,51.24,37.468,51.24,42.123z"/>
<linearGradient id="SVGID_3_" gradientUnits="userSpaceOnUse" x1="58.5159" y1="40.5696" x2="68.8467" y2="49.8078">
	<stop  offset="0" style="stop-color:#E6E6E6"/>
	<stop  offset="0.5398" style="stop-color:#FFFFFF"/>
	<stop  offset="1" style="stop-color:#C8C8C8"/>
</linearGradient>
<circle fill="url(#SVGID_3_)" cx="63.094" cy="44.662" r="8.433"/>
<linearGradient id="SVGID_4_" gradientUnits="userSpaceOnUse" x1="40.7234" y1="55.9417" x2="70.5334" y2="82.5988">
	<stop  offset="0" style="stop-color:#E6E6E6"/>
	<stop  offset="0.5398" style="stop-color:#FFFFFF"/>
	<stop  offset="1" style="stop-color:#C8C8C8"/>
</linearGradient>
<path fill="url(#SVGID_4_)" d="M25.005,71.936h57.833c0,0,2.486-16.703-18.786-16.703c-2.303,0-8.013,0-8.013,0
	s-0.832-0.996-2.486-1.102c-6.63-0.429-15.838-0.736-21.317,2.609C27.575,59.587,25.005,62.85,25.005,71.936z"/>
<path fill="#777266" d="M73.298,57.775c-4.938-1.808-10.204-1.598-10.204-1.598s-5.267-0.21-10.204,1.598
	c-6.841,2.501-8.221,9.146-8.221,12.884h18.425h18.425c0,0,0-0.502,0-2.294C81.519,65.265,78.238,59.578,73.298,57.775z"/>
<path fill="#777266" d="M2.119,20.412v20.288H24.31l4.438,4.906l0.158-4.906h3.33V20.412H2.119z"/>
<path opacity="0.6" fill="#C1BAAC" d="M70.543,44.662c0,4.115-3.336,7.451-7.449,7.451s-7.449-3.336-7.449-7.451
	c0-4.112,3.336-7.447,7.449-7.447S70.543,40.551,70.543,44.662z"/>
<path opacity="0.6" fill="#C1BAAC" d="M50.255,42.123c0,4.116-3.334,7.451-7.448,7.451c-4.114,0-7.448-3.335-7.448-7.451
	c0-4.111,3.334-7.446,7.448-7.446C46.92,34.677,50.255,38.012,50.255,42.123z"/>
<path fill="#777266" d="M41.923,70.658c0-9.751,7.069-15.402,11.906-15.402c-7.875,0-17.718-0.561-22.68,3.902
	c-4.672,4.208-4.938,9.065-4.938,11.5C27.537,70.658,41.923,70.658,41.923,70.658z"/>
<polygon opacity="0.6" fill="#C1BAAC" points="32.235,20.412 2.119,20.412 2.119,40.699 4.628,40.699 32.235,21.888 "/>
<linearGradient id="SVGID_5_" gradientUnits="userSpaceOnUse" x1="6.8743" y1="30.5579" x2="27.7957" y2="30.5579">
	<stop  offset="0" style="stop-color:#FFFFFF"/>
	<stop  offset="1" style="stop-color:#C8C8C8"/>
</linearGradient>
<rect x="6.874" y="29.923" fill="url(#SVGID_5_)" width="20.921" height="1.269"/>
<linearGradient id="SVGID_6_" gradientUnits="userSpaceOnUse" x1="10.0452" y1="35.3113" x2="27.7957" y2="35.3113">
	<stop  offset="0" style="stop-color:#FFFFFF"/>
	<stop  offset="1" style="stop-color:#C8C8C8"/>
</linearGradient>
<rect x="10.045" y="34.677" fill="url(#SVGID_6_)" width="17.75" height="1.269"/>
<linearGradient id="SVGID_7_" gradientUnits="userSpaceOnUse" x1="6.8743" y1="25.8015" x2="27.7957" y2="25.8015">
	<stop  offset="0" style="stop-color:#FFFFFF"/>
	<stop  offset="1" style="stop-color:#C8C8C8"/>
</linearGradient>
<rect x="6.874" y="25.168" fill="url(#SVGID_7_)" width="20.921" height="1.267"/>
<linearGradient id="SVGID_8_" gradientUnits="userSpaceOnUse" x1="-1910.1833" y1="33.3528" x2="-1877.8904" y2="33.3528" gradientTransform="matrix(-1 0 0 1 -1805.0601 0)">
	<stop  offset="0" style="stop-color:#E6E6E6"/>
	<stop  offset="0.5398" style="stop-color:#FFFFFF"/>
	<stop  offset="1" style="stop-color:#C8C8C8"/>
</linearGradient>
<path fill="url(#SVGID_8_)" d="M72.83,19.381v21.958h4.006l0.023,5.985l5.363-6.032h22.9V19.381H72.83z"/>
<path fill="#777266" d="M73.888,20.412v20.288h3.33l0.158,4.906l4.438-4.906h22.19V20.412H73.888z"/>
<polygon opacity="0.6" fill="#C1BAAC" points="104.004,20.412 73.888,20.412 73.888,40.699 76.397,40.699 104.004,21.888 "/>
<linearGradient id="SVGID_9_" gradientUnits="userSpaceOnUse" x1="-1904.3093" y1="30.5579" x2="-1883.3875" y2="30.5579" gradientTransform="matrix(-1 0 0 1 -1805.0601 0)">
	<stop  offset="0" style="stop-color:#FFFFFF"/>
	<stop  offset="1" style="stop-color:#C8C8C8"/>
</linearGradient>
<rect x="78.327" y="29.923" fill="url(#SVGID_9_)" width="20.922" height="1.269"/>
<linearGradient id="SVGID_10_" gradientUnits="userSpaceOnUse" x1="-1901.1394" y1="35.3113" x2="-1883.3875" y2="35.3113" gradientTransform="matrix(-1 0 0 1 -1805.0601 0)">
	<stop  offset="0" style="stop-color:#FFFFFF"/>
	<stop  offset="1" style="stop-color:#C8C8C8"/>
</linearGradient>
<rect x="78.327" y="34.677" fill="url(#SVGID_10_)" width="17.752" height="1.269"/>
<linearGradient id="SVGID_11_" gradientUnits="userSpaceOnUse" x1="-1904.3093" y1="25.8015" x2="-1883.3875" y2="25.8015" gradientTransform="matrix(-1 0 0 1 -1805.0601 0)">
	<stop  offset="0" style="stop-color:#FFFFFF"/>
	<stop  offset="1" style="stop-color:#C8C8C8"/>
</linearGradient>
<rect x="78.327" y="25.168" fill="url(#SVGID_11_)" width="20.922" height="1.267"/>
<path fill="#777266" d="M69.775,45.604c0,3.301-2.676,5.978-5.974,5.978c-3.302,0-5.977-2.677-5.977-5.978
	c0-3.298,2.675-5.974,5.977-5.974C67.099,39.63,69.775,42.306,69.775,45.604z"/>
<circle fill="#777266" cx="43.54" cy="43.189" r="5.975"/>
<path opacity="0.6" fill="#C1BAAC" d="M70.543,58.059c6.374,0.903,9.384,5.436,10.766,8.806c-0.786-3.173-3.789-7.548-8.011-9.09
	c-4.938-1.808-10.204-1.598-10.204-1.598s-5.267-0.21-10.204,1.598c-6.841,2.501-8.221,9.146-8.221,12.884h9.053
	C52.723,64.844,61.411,56.764,70.543,58.059z"/>
<path opacity="0.6" fill="#C1BAAC" d="M37.566,59.78c3.061-3.188,5.899-3.916,15.674-4.526c-7.772-0.023-17.25-0.45-22.09,3.905
	c-4.672,4.208-4.938,9.065-4.938,11.5c0.589,0,3.755,0,7.093,0C33.415,68.358,34.077,63.415,37.566,59.78z"/>
</svg>
