<?xml version="1.0" encoding="utf-8"?>
<!-- Generator: Adobe Illustrator 16.0.0, SVG Export Plug-In . SVG Version: 6.00 Build 0)  -->
<!DOCTYPE svg PUBLIC "-//W3C//DTD SVG 1.1//EN" "http://www.w3.org/Graphics/SVG/1.1/DTD/svg11.dtd">
<svg version="1.1" id="Layer_1" xmlns="http://www.w3.org/2000/svg" xmlns:xlink="http://www.w3.org/1999/xlink" x="0px" y="0px"
	 width="107.354px" height="84.559px" viewBox="0 0 107.354 84.559" enable-background="new 0 0 107.354 84.559"
	 xml:space="preserve">
<g>
	<g>
		<path fill="#777266" d="M75.589,23.437c0-2.606-2.158-4.727-4.811-4.727H30.008c-2.652,0-4.81,2.12-4.81,4.727v47.454
			c0,2.606,2.158,4.727,4.81,4.727h40.771c2.652,0,4.811-2.12,4.811-4.727V23.437z"/>
		<linearGradient id="SVGID_1_" gradientUnits="userSpaceOnUse" x1="23.698" y1="47.1643" x2="77.0891" y2="47.1643">
			<stop  offset="0" style="stop-color:#FFFFFF"/>
			<stop  offset="1" style="stop-color:#C8C8C8"/>
		</linearGradient>
		<path fill="url(#SVGID_1_)" d="M70.779,77.117H30.008c-3.479,0-6.31-2.793-6.31-6.227V23.437c0-3.433,2.831-6.227,6.31-6.227
			h40.771c3.48,0,6.311,2.793,6.311,6.227v47.454C77.089,74.324,74.259,77.117,70.779,77.117z M30.008,18.711
			c-2.652,0-4.81,2.12-4.81,4.727v47.454c0,2.606,2.158,4.727,4.81,4.727h40.771c2.652,0,4.811-2.12,4.811-4.727V23.437
			c0-2.606-2.158-4.727-4.811-4.727H30.008z"/>
	</g>
</g>
<path opacity="0.6" fill="#C1BAAC" d="M75.589,23.437c0-2.606-2.158-4.727-4.811-4.727H30.008c-2.652,0-4.81,2.12-4.81,4.727v18.96
	l50.391-14.698V23.437z"/>
<g>
	<linearGradient id="SVGID_2_" gradientUnits="userSpaceOnUse" x1="30.9636" y1="29.8928" x2="53.3562" y2="29.8928">
		<stop  offset="0" style="stop-color:#FFFFFF"/>
		<stop  offset="1" style="stop-color:#C8C8C8"/>
	</linearGradient>
	<path fill="url(#SVGID_2_)" d="M52.235,31.016H32.084c-0.617,0-1.12-0.503-1.12-1.122c0-0.622,0.503-1.125,1.12-1.125h20.151
		c0.621,0,1.122,0.503,1.122,1.125C53.356,30.513,52.855,31.016,52.235,31.016z"/>
	<linearGradient id="SVGID_3_" gradientUnits="userSpaceOnUse" x1="30.9636" y1="38.5544" x2="53.3562" y2="38.5544">
		<stop  offset="0" style="stop-color:#FFFFFF"/>
		<stop  offset="1" style="stop-color:#C8C8C8"/>
	</linearGradient>
	<path fill="url(#SVGID_3_)" d="M52.235,39.677H32.084c-0.617,0-1.12-0.503-1.12-1.123c0-0.62,0.503-1.124,1.12-1.124h20.151
		c0.621,0,1.122,0.503,1.122,1.124C53.356,39.175,52.855,39.677,52.235,39.677z"/>
	<linearGradient id="SVGID_4_" gradientUnits="userSpaceOnUse" x1="31.2073" y1="47.2151" x2="53.6013" y2="47.2151">
		<stop  offset="0" style="stop-color:#FFFFFF"/>
		<stop  offset="1" style="stop-color:#C8C8C8"/>
	</linearGradient>
	<path fill="url(#SVGID_4_)" d="M52.481,48.339H32.33c-0.621,0-1.123-0.505-1.123-1.122c0-0.623,0.502-1.125,1.123-1.125h20.15
		c0.622,0,1.122,0.502,1.122,1.125C53.601,47.834,53.101,48.339,52.481,48.339z"/>
	<linearGradient id="SVGID_5_" gradientUnits="userSpaceOnUse" x1="31.2073" y1="55.8752" x2="53.6013" y2="55.8752">
		<stop  offset="0" style="stop-color:#FFFFFF"/>
		<stop  offset="1" style="stop-color:#C8C8C8"/>
	</linearGradient>
	<path fill="url(#SVGID_5_)" d="M52.481,56.998H32.33c-0.621,0-1.123-0.502-1.123-1.123c0-0.62,0.502-1.122,1.123-1.122h20.15
		c0.622,0,1.122,0.502,1.122,1.122C53.601,56.496,53.101,56.998,52.481,56.998z"/>
	<linearGradient id="SVGID_6_" gradientUnits="userSpaceOnUse" x1="31.2073" y1="64.5374" x2="53.6013" y2="64.5374">
		<stop  offset="0" style="stop-color:#FFFFFF"/>
		<stop  offset="1" style="stop-color:#C8C8C8"/>
	</linearGradient>
	<path fill="url(#SVGID_6_)" d="M52.481,65.659H32.33c-0.621,0-1.123-0.502-1.123-1.122c0-0.619,0.502-1.123,1.123-1.123h20.15
		c0.622,0,1.122,0.504,1.122,1.123C53.601,65.157,53.101,65.659,52.481,65.659z"/>
</g>
<g>
	<linearGradient id="SVGID_7_" gradientUnits="userSpaceOnUse" x1="55.3743" y1="32.9773" x2="86.1106" y2="32.9773">
		<stop  offset="0" style="stop-color:#FFFFFF"/>
		<stop  offset="1" style="stop-color:#C8C8C8"/>
	</linearGradient>
	<path fill="url(#SVGID_7_)" d="M60.171,59.606L58.492,59l1.847-5.131l0.27,0.004l0,0c0.531,0,0.988-0.319,1.159-0.795
		c0.11-0.305,0.093-0.635-0.046-0.928c-0.138-0.292-0.379-0.512-0.682-0.619c-0.625-0.226-1.327,0.115-1.538,0.722
		c-0.181,0.492-0.026,1.036,0.382,1.36l0.211,0.168l-1.852,5.135l-1.61-0.585l-1.259-7.835l2.604-3.15l8.168,2.941l-0.24,4.403
		L60.171,59.606z M59.452,58.549l0.562,0.203l5.159-4.423l0.192-3.525l-7.146-2.573l-2.052,2.481l1.136,7.064l0.489,0.178
		l1.421-3.94c-0.508-0.533-0.677-1.311-0.418-2.014c0.342-0.982,1.502-1.536,2.498-1.175c0.489,0.175,0.883,0.53,1.105,1.005
		c0.226,0.475,0.252,1.008,0.074,1.502c-0.25,0.697-0.878,1.188-1.604,1.277L59.452,58.549z M66.859,50.043l-3.656-1.316
		c-1.754-0.633-3.51-1.266-5.271-1.895l-0.323-0.115l0.087-0.332c1.217-4.689,2.437-8.948,3.729-13.021l0.118-0.372l11.059,3.982
		l-0.145,0.361c-1.669,4.158-3.503,8.331-5.451,12.401L66.859,50.043z M58.507,46.241c1.653,0.592,3.303,1.187,4.949,1.779
		l3.019,1.087c1.831-3.842,3.558-7.771,5.14-11.691l-9.594-3.455C60.808,37.813,59.656,41.838,58.507,46.241z M72.876,36.286
		l-11.111-3.995l0.113-0.346c2.006-6.178,4.166-11.944,6.602-17.627c2.137-4.99,5.031-7.969,7.742-7.969
		c2.216,0,3.676,2.023,3.846,5.301l6.043,2.176l-0.82,1.595c-1.498,2.897-6.975,13.737-7.391,15.277
		c0.036,0.007,0.085,0.012,0.148,0.012l0.506-0.055l-0.008,0.496l-0.549,2.782l-0.307,0.002c-0.09,0-2.109-0.025-2.834-2.232
		c-0.044-0.136-0.043-0.343-0.002-0.613c-0.596,1.626-1.211,3.247-1.845,4.858L72.876,36.286z M62.703,31.831l9.741,3.503
		c2.26-5.77,4.275-11.655,5.99-17.499c0.359-1.224,0.613-2.389,0.759-3.462l0.062-0.46l3.464,1.252l-0.191,0.378
		C77.08,26.291,75.375,30.84,75.57,31.47c0.412,1.254,1.338,1.592,1.817,1.682l0.341-1.724c-0.391-0.084-0.529-0.319-0.578-0.471
		c-0.288-0.887,7.396-15.733,7.475-15.882l0.429-0.833l-5.716-2.058l-0.008-0.255c-0.092-2.979-1.283-4.83-3.107-4.83
		c-1.854,0-4.681,1.974-7.053,7.515C66.788,20.17,64.671,25.806,62.703,31.831z M79.869,14.932c-0.155,0.98-0.396,2.026-0.715,3.114
		c-0.813,2.773-1.694,5.555-2.638,8.33c1.354-3.145,3.318-7.169,5.15-10.794L79.869,14.932z"/>
</g>
<g>
	<path fill="#777266" d="M79.337,12.184l-0.008-0.255c-0.092-2.979-1.283-4.83-3.107-4.83c-1.854,0-4.681,1.974-7.053,7.515
		c-2.381,5.557-4.498,11.192-6.466,17.218l9.741,3.503c2.26-5.77,4.275-11.655,5.99-17.499c0.359-1.224,0.613-2.389,0.759-3.462
		l0.062-0.46l3.464,1.252l-0.191,0.378C77.08,26.291,75.375,30.84,75.57,31.47c0.412,1.254,1.338,1.592,1.817,1.682l0.341-1.724
		c-0.391-0.084-0.529-0.319-0.578-0.471c-0.288-0.887,7.396-15.733,7.475-15.882l0.429-0.833L79.337,12.184z"/>
	<path fill="#777266" d="M65.366,50.804l-7.146-2.573l-2.052,2.481l1.136,7.064l0.489,0.178l1.421-3.94
		c-0.508-0.533-0.677-1.311-0.418-2.014c0.342-0.982,1.502-1.536,2.498-1.175c0.489,0.175,0.883,0.53,1.105,1.005
		c0.226,0.475,0.252,1.008,0.074,1.502c-0.25,0.697-0.878,1.188-1.604,1.277l-1.418,3.939l0.562,0.203l5.159-4.423L65.366,50.804z"
		/>
	<path fill="#777266" d="M62.021,33.962c-1.213,3.851-2.365,7.875-3.514,12.279c1.653,0.592,3.303,1.187,4.949,1.779l3.019,1.087
		c1.831-3.842,3.558-7.771,5.14-11.691L62.021,33.962z"/>
</g>
<path opacity="0.6" fill="#C1BAAC" d="M79.146,10.357c-0.401-2.035-1.449-3.258-2.924-3.258c-1.854,0-4.681,1.974-7.053,7.515
	c-2.381,5.557-4.498,11.192-6.466,17.218l2.777,0.999C67.345,22.304,72.505,13.883,79.146,10.357z"/>
<path opacity="0.6" fill="#C1BAAC" d="M64.833,34.974l-2.812-1.012c-1.213,3.851-2.365,7.875-3.514,12.279
	c0.896,0.321,1.789,0.644,2.684,0.965C61.806,42.699,63.072,38.549,64.833,34.974z"/>
</svg>
