<?xml version="1.0" encoding="utf-8"?>
<!-- Generator: Adobe Illustrator 16.0.0, SVG Export Plug-In . SVG Version: 6.00 Build 0)  -->
<!DOCTYPE svg PUBLIC "-//W3C//DTD SVG 1.1//EN" "http://www.w3.org/Graphics/SVG/1.1/DTD/svg11.dtd">
<svg version="1.1" id="Layer_1" xmlns="http://www.w3.org/2000/svg" xmlns:xlink="http://www.w3.org/1999/xlink" x="0px" y="0px"
	 width="107.354px" height="84.559px" viewBox="0 0 107.354 84.559" enable-background="new 0 0 107.354 84.559"
	 xml:space="preserve">
<g>
	
		<linearGradient id="SVGID_1_" gradientUnits="userSpaceOnUse" x1="159.8362" y1="-108.1951" x2="232.3645" y2="-108.1951" gradientTransform="matrix(1 0 0 -1 -140.8799 -66.3462)">
		<stop  offset="0" style="stop-color:#E6E6E6"/>
		<stop  offset="0.5398" style="stop-color:#FFFFFF"/>
		<stop  offset="1" style="stop-color:#C8C8C8"/>
	</linearGradient>
	<path fill="url(#SVGID_1_)" d="M52.835,80.474c-13.711,0-26.501-7.392-33.379-19.289l-0.5-0.866l6.926-4.004l0.5,0.866
		C31.833,66.612,41.97,72.47,52.835,72.47c0.001,0,0.001,0,0.002,0c4.884-0.001,9.776-1.204,14.149-3.479
		c7.252-3.773,12.601-10.145,15.061-17.938c2.459-7.796,1.735-16.082-2.036-23.333c-3.773-7.251-10.144-12.6-17.938-15.059
		c-7.707-2.433-16.164-1.693-23.333,2.037l-0.888,0.461L34.16,8.062L35.048,7.6c5.503-2.863,11.648-4.376,17.773-4.376
		c3.935,0,7.857,0.608,11.658,1.808c9.832,3.102,17.869,9.849,22.628,18.995c4.76,9.147,5.671,19.601,2.568,29.433
		s-9.849,17.868-18.995,22.627C65.165,78.957,58.994,80.474,52.835,80.474z M21.7,61.043c6.631,10.776,18.469,17.431,31.135,17.431
		c5.84,0,11.69-1.438,16.922-4.161c8.674-4.513,15.07-12.133,18.012-21.455s2.077-19.233-2.436-27.907
		C80.82,16.276,73.2,9.88,63.878,6.938c-3.606-1.137-7.326-1.714-11.057-1.714c-5.476,0-10.972,1.277-15.958,3.701l1.848,3.55
		c7.442-3.588,16.075-4.212,23.963-1.722c8.305,2.62,15.091,8.317,19.11,16.043c4.02,7.725,4.79,16.552,2.17,24.856
		c-2.621,8.306-8.318,15.093-16.044,19.11c-4.657,2.424-9.869,3.705-15.073,3.706c-0.001,0-0.002,0-0.002,0
		c-11.244,0-21.754-5.888-27.671-15.431L21.7,61.043z"/>
	<path fill="#777266" d="M86.22,24.49c-4.635-8.91-12.463-15.482-22.041-18.505c-9.578-3.021-19.759-2.133-28.67,2.503l2.77,5.322
		c7.489-3.896,16.046-4.644,24.096-2.103c8.05,2.54,14.628,8.062,18.523,15.551c3.896,7.488,4.644,16.045,2.104,24.095
		c-2.541,8.05-8.064,14.628-15.553,18.524h0.001c-15.039,7.826-33.457,2.468-41.934-12.195l-5.193,3.002
		c6.95,12.024,19.517,18.79,32.513,18.79c5.865,0,11.819-1.379,17.384-4.273l0,0c8.91-4.637,15.481-12.464,18.503-22.041
		C91.745,43.58,90.857,33.399,86.22,24.49z"/>
	<g>
		<path opacity="0.6" fill="#C1BAAC" enable-background="new    " d="M62.374,11.707c1.205,0.38,2.373,0.835,3.508,1.346
			c2.753-0.917,5.612-1.6,8.559-2.018c-3.104-2.168-6.549-3.879-10.262-5.051c-9.578-3.021-19.759-2.133-28.67,2.503l2.77,5.322
			C45.768,9.914,54.324,9.166,62.374,11.707z"/>
		<path opacity="0.6" fill="#C1BAAC" enable-background="new    " d="M32.857,66.326c-2.869-2.352-5.375-5.244-7.34-8.645
			l-5.193,3.002c3.581,6.195,8.659,10.982,14.513,14.179C33.932,72.116,33.264,69.264,32.857,66.326z"/>
	</g>
</g>
<g>
	<g>
		<path fill="#777266" d="M17.231,27.398c-0.333,0.922-0.567,1.983-0.698,3.159l3.886,0.311c0.058-0.556,0.151-1.159,0.282-1.801
			c0.155-0.767,0.473-1.447,0.94-2.022c0.494-0.604,1.158-0.911,1.975-0.911c0.898,0,1.602,0.289,2.089,0.858
			c0.483,0.566,0.72,1.454,0.72,2.714c0,0.622-0.148,1.308-0.439,2.039c-0.29,0.727-0.756,1.467-1.386,2.199
			c-0.619,0.722-1.425,1.509-2.396,2.34c-0.484,0.422-1.029,0.927-1.617,1.499c-0.577,0.562-1.191,1.278-1.825,2.132
			c-0.63,0.847-1.154,1.811-1.557,2.864c-0.4,1.048-0.604,2.146-0.604,3.266v0.862h13.884v-3.569h-9.068l0.139-0.344
			c0.166-0.409,0.403-0.825,0.706-1.238c0.296-0.404,0.633-0.801,1-1.179c0.281-0.281,1.514-1.424,3.666-3.396
			c0.42-0.41,0.936-0.942,1.528-1.576c0.582-0.622,1.104-1.454,1.551-2.473c0.445-1.012,0.67-2.133,0.67-3.333
			c0-1.059-0.19-2.151-0.566-3.248c-0.366-1.07-1.082-1.96-2.126-2.646c-1.05-0.689-2.413-1.039-4.051-1.039
			c-1.171,0-2.204,0.176-3.07,0.521c-0.859,0.344-1.599,0.857-2.194,1.524C18.067,25.585,17.584,26.421,17.231,27.398z"/>
		<path opacity="0.6" fill="#C1BAAC" enable-background="new    " d="M17.231,27.398c-0.333,0.922-0.567,1.983-0.698,3.159
			l3.886,0.311c0.058-0.556,0.151-1.159,0.282-1.801c0.155-0.767,0.473-1.447,0.94-2.022c0.494-0.604,1.158-0.911,1.975-0.911
			c0.898,0,1.602,0.289,2.089,0.858c0.483,0.566,0.72,1.454,0.72,2.714c0,0.622-0.148,1.308-0.439,2.039
			c-0.29,0.727-0.756,1.467-1.386,2.199c-0.619,0.722-1.425,1.509-2.396,2.34c-0.484,0.422-1.029,0.927-1.617,1.499
			c-0.577,0.562-1.191,1.278-1.825,2.132c-0.63,0.847-1.154,1.811-1.557,2.864c-0.4,1.048-0.604,2.146-0.604,3.266v0.862h13.884
			v-3.569h-9.068l0.139-0.344c0.166-0.409,0.403-0.825,0.706-1.238c0.296-0.404,0.633-0.801,1-1.179
			c0.281-0.281,1.514-1.424,3.666-3.396c0.42-0.41,0.936-0.942,1.528-1.576c0.582-0.622,1.104-1.454,1.551-2.473
			c0.445-1.012,0.67-2.133,0.67-3.333c0-1.059-0.19-2.151-0.566-3.248c-0.366-1.07-1.082-1.96-2.126-2.646
			c-1.05-0.689-2.413-1.039-4.051-1.039c-1.171,0-2.204,0.176-3.07,0.521c-0.859,0.344-1.599,0.857-2.194,1.524
			C18.067,25.585,17.584,26.421,17.231,27.398z"/>
		
			<linearGradient id="SVGID_2_" gradientUnits="userSpaceOnUse" x1="156.8645" y1="-101.2332" x2="172.0569" y2="-101.2332" gradientTransform="matrix(1 0 0 -1 -140.8799 -66.3462)">
			<stop  offset="0" style="stop-color:#E6E6E6"/>
			<stop  offset="0.5398" style="stop-color:#FFFFFF"/>
			<stop  offset="1" style="stop-color:#C8C8C8"/>
		</linearGradient>
		<path fill="url(#SVGID_2_)" d="M30.986,47.406H16.102v-1.362c0-1.182,0.214-2.34,0.637-3.443c0.42-1.097,0.966-2.101,1.622-2.984
			c0.649-0.874,1.281-1.611,1.878-2.192c0.596-0.578,1.146-1.089,1.64-1.52c0.953-0.815,1.741-1.585,2.344-2.286
			c0.593-0.69,1.031-1.385,1.3-2.06c0.269-0.672,0.404-1.295,0.404-1.854c0-1.12-0.202-1.923-0.6-2.391
			c-0.395-0.459-0.953-0.683-1.709-0.683c-0.668,0-1.188,0.238-1.588,0.727c-0.417,0.513-0.698,1.12-0.838,1.808
			c-0.146,0.719-0.246,1.388-0.298,1.99l-0.021,0.247l-4.889-0.39l0.024-0.253c0.128-1.317,0.382-2.506,0.753-3.533
			c0.375-1.038,0.891-1.929,1.534-2.647c0.647-0.727,1.45-1.282,2.382-1.655c0.925-0.371,2.021-0.558,3.256-0.558
			c1.737,0,3.192,0.377,4.325,1.121c1.139,0.748,1.921,1.725,2.324,2.901c0.394,1.149,0.594,2.296,0.594,3.41
			c0,1.269-0.24,2.458-0.712,3.534c-0.47,1.069-1.023,1.949-1.645,2.612c-0.597,0.64-1.118,1.177-1.549,1.598
			c-2.152,1.974-3.38,3.109-3.653,3.384c-0.349,0.359-0.67,0.738-0.953,1.124c-0.192,0.262-0.356,0.525-0.488,0.786h8.81
			L30.986,47.406L30.986,47.406z M16.602,46.906h13.884v-3.569h-9.068l0.139-0.344c0.166-0.409,0.403-0.825,0.706-1.238
			c0.296-0.404,0.633-0.801,1-1.179c0.281-0.281,1.514-1.424,3.666-3.396c0.42-0.41,0.936-0.942,1.528-1.576
			c0.582-0.622,1.104-1.454,1.551-2.473c0.445-1.012,0.67-2.133,0.67-3.333c0-1.06-0.19-2.151-0.566-3.248
			c-0.366-1.07-1.082-1.96-2.126-2.646c-1.05-0.689-2.413-1.039-4.051-1.039c-1.171,0-2.204,0.176-3.07,0.521
			c-0.859,0.344-1.599,0.857-2.194,1.524c-0.602,0.672-1.084,1.508-1.438,2.484c-0.333,0.922-0.567,1.983-0.698,3.159l3.886,0.311
			c0.058-0.556,0.151-1.159,0.282-1.801c0.155-0.767,0.473-1.447,0.94-2.022c0.494-0.604,1.158-0.911,1.975-0.911
			c0.898,0,1.602,0.289,2.089,0.857c0.483,0.567,0.72,1.455,0.72,2.715c0,0.622-0.148,1.308-0.439,2.039
			c-0.29,0.727-0.756,1.467-1.386,2.199c-0.619,0.722-1.425,1.509-2.396,2.339c-0.484,0.423-1.029,0.928-1.617,1.499
			c-0.577,0.562-1.191,1.279-1.825,2.133c-0.63,0.847-1.154,1.811-1.557,2.864c-0.4,1.048-0.604,2.146-0.604,3.266L16.602,46.906
			L16.602,46.906z"/>
	</g>
	<g>
		<path fill="#777266" d="M41.545,47.156v-5.245h-8.917v-4.229l8.758-14.575h4.562v15.195h1.954v3.607h-1.954v5.244h-4.403V47.156z
			 M36.11,38.304h5.437v-9.219L36.11,38.304z"/>
		
			<linearGradient id="SVGID_3_" gradientUnits="userSpaceOnUse" x1="173.2581" y1="-101.4783" x2="189.0325" y2="-101.4783" gradientTransform="matrix(1 0 0 -1 -140.8799 -66.3462)">
			<stop  offset="0" style="stop-color:#E6E6E6"/>
			<stop  offset="0.5398" style="stop-color:#FFFFFF"/>
			<stop  offset="1" style="stop-color:#C8C8C8"/>
		</linearGradient>
		<path fill="url(#SVGID_3_)" d="M46.198,47.406h-4.903v-5.245h-8.917v-4.547l0.036-0.061l8.831-14.696h4.953v15.195h1.954v4.107
			h-1.954V47.406z M41.795,46.906h3.903v-5.245h1.954v-3.107h-1.954V23.359h-4.171l-8.648,14.396v3.908h8.917L41.795,46.906
			L41.795,46.906z M41.795,38.554h-6.123l6.123-10.385V38.554z M36.547,38.054h4.748v-8.053L36.547,38.054z"/>
	</g>
	<path opacity="0.6" fill="#C1BAAC" enable-background="new    " d="M37.092,38.554h-1.42l6.123-10.385v2.497
		c1.203-1.647,2.508-3.213,3.903-4.696v-2.612h-4.171l-8.648,14.396v3.908h2.877C36.169,40.609,36.61,39.57,37.092,38.554z"/>
</g>
<g>
	
		<linearGradient id="SVGID_4_" gradientUnits="userSpaceOnUse" x1="189.6418" y1="-107.344" x2="205.4592" y2="-107.344" gradientTransform="matrix(1 0 0 -1 -140.8799 -66.3462)">
		<stop  offset="0" style="stop-color:#E6E6E6"/>
		<stop  offset="0.5398" style="stop-color:#FFFFFF"/>
		<stop  offset="1" style="stop-color:#C8C8C8"/>
	</linearGradient>
	<path fill="url(#SVGID_4_)" d="M53.569,63.035c-0.901,0-1.636-0.677-1.636-1.504V46.927c-1.885-0.685-3.171-2.484-3.171-4.501
		c0-2.65,2.156-4.807,4.807-4.807c0.055,0,0.107,0.002,0.161,0.007l7.222-17.493c0.391-0.944,1.523-1.427,2.465-1.037
		c0.464,0.191,0.825,0.552,1.018,1.017c0.194,0.47,0.194,0.986-0.001,1.457l-7.287,17.654c0.796,0.885,1.231,2.009,1.231,3.201
		c0,2.016-1.286,3.815-3.172,4.501V61.53C55.204,62.36,54.471,63.035,53.569,63.035z M53.569,38.619
		c-2.099,0-3.807,1.708-3.807,3.807c0,1.697,1.153,3.199,2.804,3.654l0.367,0.102v15.351c0,0.271,0.291,0.504,0.636,0.504
		c0.352,0,0.636-0.228,0.636-0.504V46.182l0.366-0.102c1.651-0.455,2.806-1.958,2.806-3.654c0-1.033-0.414-2.002-1.166-2.73
		l-0.244-0.235l7.541-18.271c0.094-0.224,0.094-0.47,0.002-0.69c-0.09-0.219-0.259-0.388-0.475-0.477
		c-0.447-0.185-0.976,0.048-1.16,0.495l-7.511,18.192l-0.521-0.062C53.752,38.633,53.662,38.619,53.569,38.619z M53.569,43.234
		c-0.444,0-0.807-0.361-0.807-0.808c0-0.445,0.362-0.807,0.807-0.807c0.445,0,0.809,0.361,0.809,0.807
		C54.376,42.871,54.014,43.234,53.569,43.234z M53.569,42.234c-0.105,0-0.191,0.086-0.191,0.192c0,0.213,0.386,0.212,0.386,0
		C53.762,42.32,53.675,42.234,53.569,42.234z"/>
</g>
<g>
	<g>
		<path fill="#777266" d="M65.57,61.623c0.201-1.717,0.543-3.457,1.025-5.222s1.067-3.497,1.756-5.197
			c0.689-1.7,1.471-3.346,2.345-4.936s1.805-3.066,2.79-4.435h-9.647v-4.26h14.098V41.5c-1.049,1.548-1.979,3.143-2.789,4.784
			c-0.811,1.643-1.522,3.312-2.138,5.007c-0.615,1.694-1.134,3.409-1.558,5.142c-0.425,1.733-0.77,3.463-1.033,5.189L65.57,61.623
			L65.57,61.623z"/>
		
			<linearGradient id="SVGID_5_" gradientUnits="userSpaceOnUse" x1="204.4661" y1="-115.9456" x2="219.0637" y2="-115.9456" gradientTransform="matrix(1 0 0 -1 -140.8799 -66.3462)">
			<stop  offset="0" style="stop-color:#E6E6E6"/>
			<stop  offset="0.5398" style="stop-color:#FFFFFF"/>
			<stop  offset="1" style="stop-color:#C8C8C8"/>
		</linearGradient>
		<path fill="url(#SVGID_5_)" d="M70.632,61.873h-5.344l0.032-0.279c0.201-1.721,0.55-3.49,1.032-5.258
			c0.481-1.765,1.076-3.522,1.767-5.227c0.688-1.697,1.48-3.366,2.355-4.962c0.791-1.438,1.639-2.802,2.524-4.062h-9.413v-4.76
			h14.598v4.252l-0.043,0.062c-1.037,1.531-1.97,3.13-2.771,4.755c-0.806,1.629-1.521,3.306-2.127,4.98
			c-0.608,1.678-1.131,3.397-1.552,5.116c-0.42,1.72-0.766,3.458-1.027,5.168L70.632,61.873z M65.852,61.373h4.352
			c0.261-1.655,0.599-3.336,1.006-4.999c0.424-1.734,0.95-3.474,1.563-5.167s1.337-3.388,2.148-5.033
			c0.802-1.622,1.729-3.22,2.764-4.75v-3.599H64.087v3.76h9.887l-0.286,0.396c-0.976,1.354-1.909,2.837-2.771,4.41
			c-0.867,1.576-1.652,3.229-2.332,4.907c-0.684,1.685-1.271,3.425-1.747,5.171C66.386,58.116,66.054,59.765,65.852,61.373z"/>
	</g>
</g>
<path fill="#777266" d="M63.225,19.559c-0.706-0.292-1.518,0.052-1.812,0.767l-7.366,17.843c-0.159-0.019-0.314-0.048-0.479-0.048
	c-2.375,0-4.307,1.932-4.307,4.307c0,1.979,1.35,3.635,3.171,4.137v14.97c0,0.555,0.509,1.004,1.136,1.004s1.136-0.449,1.136-1.004
	V46.563c1.821-0.503,3.172-2.156,3.172-4.137c0-1.213-0.509-2.306-1.318-3.09l7.412-17.957
	C64.266,20.665,63.932,19.851,63.225,19.559z M53.569,42.119c0.169,0,0.309,0.138,0.309,0.307s-0.139,0.308-0.309,0.308
	c-0.169,0-0.307-0.138-0.307-0.308C53.262,42.257,53.4,42.119,53.569,42.119z"/>
<linearGradient id="SVGID_6_" gradientUnits="userSpaceOnUse" x1="333.0217" y1="570.678" x2="337.636" y2="570.678" gradientTransform="matrix(1 0 0 1 -281.7598 -528.252)">
	<stop  offset="0" style="stop-color:#FFFFFF"/>
	<stop  offset="1" style="stop-color:#C8C8C8"/>
</linearGradient>
<circle fill="url(#SVGID_6_)" cx="53.569" cy="42.427" r="2.307"/>
</svg>
