<?xml version="1.0" encoding="utf-8"?>
<!-- Generator: Adobe Illustrator 16.0.0, SVG Export Plug-In . SVG Version: 6.00 Build 0)  -->
<!DOCTYPE svg PUBLIC "-//W3C//DTD SVG 1.1//EN" "http://www.w3.org/Graphics/SVG/1.1/DTD/svg11.dtd">
<svg version="1.1" id="Layer_1" xmlns="http://www.w3.org/2000/svg" xmlns:xlink="http://www.w3.org/1999/xlink" x="0px" y="0px"
	 width="107.354px" height="84.559px" viewBox="0 0 107.354 84.559" enable-background="new 0 0 107.354 84.559"
	 xml:space="preserve">
<g>
	<g>
		<g>
			<linearGradient id="SVGID_1_" gradientUnits="userSpaceOnUse" x1="8.0588" y1="41.8889" x2="75.1692" y2="41.8889">
				<stop  offset="0" style="stop-color:#E6E6E6"/>
				<stop  offset="0.5398" style="stop-color:#FFFFFF"/>
				<stop  offset="1" style="stop-color:#C8C8C8"/>
			</linearGradient>
			<path fill="url(#SVGID_1_)" d="M70.317,68.27H12.91c-2.675,0-4.852-2.178-4.852-4.854V20.36c0-2.675,2.176-4.852,4.852-4.852
				h57.405c2.676,0,4.853,2.176,4.854,4.85v43.058C75.169,66.092,72.992,68.27,70.317,68.27z M12.91,17.008
				c-1.848,0-3.352,1.503-3.352,3.352v43.057c0,1.85,1.503,3.354,3.352,3.354h57.406c1.849,0,3.353-1.504,3.353-3.354V20.359
				c-0.001-1.847-1.506-3.351-3.354-3.351H12.91z"/>
			<path fill="#777266" d="M73.669,20.359c-0.001-1.847-1.506-3.351-3.354-3.351H12.91c-1.848,0-3.352,1.503-3.352,3.352v43.057
				c0,1.85,1.503,3.354,3.352,3.354h57.406c1.849,0,3.353-1.504,3.353-3.354V20.359z"/>
			<path opacity="0.6" fill="#C1BAAC" d="M73.669,20.359c-0.001-1.847-1.506-3.351-3.354-3.351H12.91
				c-1.848,0-3.352,1.503-3.352,3.352v24.66l64.11-22.508V20.359z"/>
		</g>
		<linearGradient id="SVGID_2_" gradientUnits="userSpaceOnUse" x1="12.9094" y1="41.8884" x2="70.3176" y2="41.8884">
			<stop  offset="0" style="stop-color:#FFFFFF"/>
			<stop  offset="1" style="stop-color:#C8C8C8"/>
		</linearGradient>
		<path fill="url(#SVGID_2_)" d="M66.217,23.436H17.01c-2.265,0-4.101,1.835-4.101,4.1V56.24c0,2.264,1.836,4.102,4.101,4.102
			h49.205c2.265,0,4.101-1.838,4.101-4.102l0.002-28.704C70.318,25.271,68.482,23.436,66.217,23.436z M50.966,53.546H19.445v-2.818
			h31.521V53.546z M50.966,46.43H19.445v-2.819h31.521V46.43z M56.35,39.311H19.445v-2.818H56.35V39.311z M63.781,32.194H19.445
			v-2.818h44.336V32.194z"/>
	</g>
</g>
<g>
	<path fill="#777266" d="M59.333,55.086c0,0,0.117-8.961,6.811-16.678c7.135-8.228,18.941-7.791,18.941-7.791l0.032-7.203
		L99.63,36.545L85.118,51.224l-0.141-9.606C69.187,39.611,59.333,55.086,59.333,55.086z"/>
	
		<linearGradient id="SVGID_3_" gradientUnits="userSpaceOnUse" x1="239.2678" y1="-531.905" x2="279.4084" y2="-531.905" gradientTransform="matrix(0.992 0.1261 -0.1261 0.992 -244.0659 535.9885)">
		<stop  offset="0" style="stop-color:#E6E6E6"/>
		<stop  offset="0.5398" style="stop-color:#FFFFFF"/>
		<stop  offset="1" style="stop-color:#C8C8C8"/>
	</linearGradient>
	<path fill="url(#SVGID_3_)" d="M58.286,58.582l0.047-3.509c0.006-0.381,0.201-9.419,7.055-17.321
		c6.197-7.145,15.582-8.039,18.702-8.131l0.037-8.452l16.948,15.335L84.153,53.623l-0.161-11.105
		c-14.469-1.246-23.722,12.96-23.814,13.106L58.286,58.582z M86.107,25.658l-0.025,5.994l-1.031-0.036
		c-0.113-0.004-11.424-0.309-18.15,7.447c-3.791,4.37-5.395,9.199-6.072,12.406c3.882-4.554,12.402-12.353,24.277-10.843
		l0.861,0.109l0.117,8.089l12.102-12.239L86.107,25.658z"/>
</g>
<path fill="#777266" d="M59.333,55.086c0,0,0.117-8.961,6.811-16.678c7.135-8.228,18.941-7.791,18.941-7.791l0.032-7.203
	L99.63,36.545L85.118,51.224l-0.141-9.606C69.187,39.611,59.333,55.086,59.333,55.086z"/>
<path fill="#C1BAAC" d="M59.333,55.086c0,0,0.117-8.961,6.811-16.678c7.135-8.228,18.941-7.791,18.941-7.791l0.032-7.203
	l9.546,8.637c0,0-16.824,2.65-23.748,7.552C62.702,45.417,59.333,55.087,59.333,55.086z"/>
</svg>
