<?xml version="1.0" encoding="utf-8"?>
<!-- Generator: Adobe Illustrator 16.0.0, SVG Export Plug-In . SVG Version: 6.00 Build 0)  -->
<!DOCTYPE svg PUBLIC "-//W3C//DTD SVG 1.1//EN" "http://www.w3.org/Graphics/SVG/1.1/DTD/svg11.dtd">
<svg version="1.1" id="Layer_1" xmlns="http://www.w3.org/2000/svg" xmlns:xlink="http://www.w3.org/1999/xlink" x="0px" y="0px"
	 width="107.354px" height="84.559px" viewBox="0 0 107.354 84.559" enable-background="new 0 0 107.354 84.559"
	 xml:space="preserve">
<g>
	<path fill="#777266" d="M50.299,42.465c0,0,0.118-8.962,6.81-16.679c7.136-8.228,18.942-7.791,18.942-7.791l0.031-7.203
		l14.514,13.131L76.083,38.602l-0.14-9.606C60.153,26.989,50.299,42.465,50.299,42.465z"/>
	
		<linearGradient id="SVGID_1_" gradientUnits="userSpaceOnUse" x1="228.7131" y1="-543.2869" x2="268.8547" y2="-543.2869" gradientTransform="matrix(0.992 0.1261 -0.1261 0.992 -244.0659 535.9885)">
		<stop  offset="0" style="stop-color:#E6E6E6"/>
		<stop  offset="0.5398" style="stop-color:#FFFFFF"/>
		<stop  offset="1" style="stop-color:#C8C8C8"/>
	</linearGradient>
	<path fill="url(#SVGID_1_)" d="M49.252,45.96l0.046-3.508c0.005-0.381,0.202-9.419,7.055-17.321
		c6.197-7.145,15.582-8.039,18.701-8.131l0.037-8.452l16.949,15.335L75.117,41.001l-0.161-11.105
		c-14.469-1.246-23.721,12.959-23.814,13.106L49.252,45.96z M77.073,13.037l-0.026,5.994l-1.031-0.036
		c-0.113-0.004-11.424-0.309-18.15,7.447c-3.79,4.37-5.395,9.199-6.072,12.406c3.882-4.554,12.402-12.353,24.277-10.843l0.861,0.109
		l0.117,8.09l12.102-12.24L77.073,13.037z"/>
</g>
<g>
	<path fill="#777266" d="M44.165,47.373c6.391,6.342,13.789,12.402,16.689,9.477c4.158-4.188,6.719-7.832,15.943-0.475
		c9.229,7.363,2.182,12.316-1.848,16.375c-4.646,4.682-22.053,0.328-39.306-16.793C18.395,38.831,13.91,21.46,18.559,16.777
		c4.027-4.062,8.932-11.143,16.354-1.971c7.431,9.168,3.806,11.756-0.354,15.945C31.66,33.678,37.773,41.029,44.165,47.373z"/>
	<linearGradient id="SVGID_2_" gradientUnits="userSpaceOnUse" x1="15.3137" y1="42.4153" x2="82.8362" y2="42.4153">
		<stop  offset="0" style="stop-color:#E6E6E6"/>
		<stop  offset="0.5398" style="stop-color:#FFFFFF"/>
		<stop  offset="1" style="stop-color:#C8C8C8"/>
	</linearGradient>
	<path fill="url(#SVGID_2_)" d="M69.381,76.01c-7.225,0-20.672-4.973-34.794-18.988C17.346,39.903,11.741,21.515,17.495,15.72
		c0.391-0.395,0.792-0.82,1.203-1.255C21.07,11.95,24.022,8.82,27.83,8.82c2.805,0,5.504,1.649,8.25,5.042
		c7.31,9.019,4.843,12.684,0.247,17.246l-0.703,0.701c-0.253,0.255-2.145,2.844,9.598,14.5c8.59,8.525,12.261,9.799,13.685,9.799
		h0.001c0.506,0,0.737-0.168,0.882-0.312l0.698-0.711c2.229-2.279,4.335-4.432,7.647-4.432c2.656,0,5.705,1.445,9.598,4.551
		c3.307,2.637,4.974,5.238,5.097,7.953c0.179,3.932-3.005,6.98-5.562,9.432c-0.435,0.416-0.858,0.822-1.252,1.219
		C74.584,75.248,72.29,76.01,69.381,76.01z M27.83,11.82c-2.514,0-4.871,2.499-6.951,4.704c-0.428,0.454-0.846,0.896-1.255,1.309
		C15.622,21.864,20.393,38.7,36.7,54.893C49.311,67.408,62.2,73.01,69.38,73.01c2.063,0,3.663-0.467,4.505-1.316
		c0.411-0.414,0.854-0.838,1.307-1.271c2.229-2.137,4.758-4.559,4.641-7.131c-0.08-1.773-1.416-3.705-3.971-5.742
		c-3.286-2.623-5.813-3.896-7.727-3.896c-1.955,0-3.298,1.275-5.504,3.529l-0.713,0.727c-0.778,0.783-1.819,1.199-3.011,1.199
		c-0.001,0-0.001,0-0.001,0c-3.444,0-8.465-3.391-15.798-10.67c-9.694-9.623-12.749-15.578-9.615-18.742l0.72-0.717
		c3.666-3.637,5.685-5.641-0.465-13.228C31.638,13.142,29.647,11.82,27.83,11.82z"/>
</g>
<path fill="#777266" d="M44.165,47.373c6.391,6.342,13.789,12.402,16.689,9.477c4.158-4.188,6.719-7.832,15.943-0.475
	c9.229,7.363,2.182,12.316-1.848,16.375c-4.646,4.682-22.053,0.328-39.306-16.793C18.395,38.831,13.91,21.46,18.559,16.777
	c4.027-4.062,8.932-11.143,16.354-1.971c7.431,9.168,3.806,11.756-0.354,15.945C31.66,33.678,37.773,41.029,44.165,47.373z"/>
<path fill="#777266" d="M50.299,42.465c0,0,0.118-8.962,6.81-16.679c7.136-8.228,18.942-7.791,18.942-7.791l0.031-7.203
	l14.514,13.131L76.083,38.602l-0.14-9.606C60.153,26.989,50.299,42.465,50.299,42.465z"/>
<linearGradient id="SVGID_3_" gradientUnits="userSpaceOnUse" x1="19.8635" y1="20.9504" x2="37.5383" y2="20.9504">
	<stop  offset="0" style="stop-color:#E6E6E6"/>
	<stop  offset="0.5398" style="stop-color:#FFFFFF"/>
	<stop  offset="1" style="stop-color:#C8C8C8"/>
</linearGradient>
<path fill="url(#SVGID_3_)" d="M32.276,28.19c-5.54,0-10.031-4.492-10.031-10.032c0-2.476,0.901-4.738,2.388-6.487
	c-2.858,1.768-4.769,4.921-4.769,8.528c0,5.54,4.492,10.031,10.032,10.031c3.064,0,5.803-1.378,7.643-3.543
	C36.007,27.634,34.208,28.19,32.276,28.19z"/>
<linearGradient id="SVGID_4_" gradientUnits="userSpaceOnUse" x1="60.5979" y1="63.0598" x2="78.2737" y2="63.0598">
	<stop  offset="0" style="stop-color:#E6E6E6"/>
	<stop  offset="0.5398" style="stop-color:#FFFFFF"/>
	<stop  offset="1" style="stop-color:#C8C8C8"/>
</linearGradient>
<path fill="url(#SVGID_4_)" d="M73.01,70.299c-5.539,0-10.031-4.49-10.031-10.031c0-2.477,0.902-4.738,2.389-6.488
	c-2.858,1.768-4.77,4.922-4.77,8.529c0,5.539,4.492,10.031,10.032,10.031c3.063,0,5.804-1.379,7.644-3.543
	C76.742,69.742,74.944,70.299,73.01,70.299z"/>
<path fill="#C1BAAC" d="M50.299,42.465c0,0,0.118-8.962,6.81-16.679c7.136-8.228,18.942-7.791,18.942-7.791l0.031-7.203l9.547,8.637
	c0,0-16.825,2.65-23.748,7.552C53.667,32.796,50.299,42.466,50.299,42.465z"/>
</svg>
