<?xml version="1.0" encoding="utf-8"?>
<!-- Generator: Adobe Illustrator 16.0.0, SVG Export Plug-In . SVG Version: 6.00 Build 0)  -->
<!DOCTYPE svg PUBLIC "-//W3C//DTD SVG 1.1//EN" "http://www.w3.org/Graphics/SVG/1.1/DTD/svg11.dtd">
<svg version="1.1" id="Layer_1" xmlns="http://www.w3.org/2000/svg" xmlns:xlink="http://www.w3.org/1999/xlink" x="0px" y="0px"
	 width="107.354px" height="84.559px" viewBox="0 0 107.354 84.559" enable-background="new 0 0 107.354 84.559"
	 xml:space="preserve">
<g>
	<g>
		<g>
			<linearGradient id="SVGID_1_" gradientUnits="userSpaceOnUse" x1="15.9221" y1="33.8928" x2="77.0276" y2="33.8928">
				<stop  offset="0" style="stop-color:#E6E6E6"/>
				<stop  offset="0.5398" style="stop-color:#FFFFFF"/>
				<stop  offset="1" style="stop-color:#C8C8C8"/>
			</linearGradient>
			<path fill="url(#SVGID_1_)" d="M15.922,58.989l8.554-10.246c-4.211-4.352-6.519-9.783-6.519-15.387
				c0-13.541,13.25-24.558,29.535-24.558c16.286,0,29.535,11.016,29.535,24.557c0,13.542-13.249,24.558-29.535,24.558
				c-5.827,0-11.444-1.403-16.279-4.063L15.922,58.989z M31.421,51.669l0.389,0.222c4.621,2.631,10.044,4.021,15.683,4.021
				c15.183,0,27.535-10.119,27.535-22.558c0-12.438-12.353-22.557-27.535-22.557S19.957,20.917,19.957,33.355
				c0,5.343,2.332,10.53,6.567,14.606l0.671,0.646l-5.203,6.23L31.421,51.669z"/>
			<path fill="#777266" d="M47.492,10.798c-15.183,0-27.535,10.119-27.535,22.558c0,5.343,2.332,10.53,6.567,14.606l0.671,0.646
				l-5.203,6.23l9.428-3.169l0.389,0.222c4.621,2.631,10.044,4.021,15.683,4.021c15.183,0,27.535-10.119,27.535-22.558
				C75.028,20.916,62.675,10.798,47.492,10.798z"/>
			<path opacity="0.6" fill="#C1BAAC" d="M61.125,20.595c3.333,0,6.576,0.282,9.698,0.8c-4.875-6.359-13.508-10.598-23.331-10.598
				c-15.183,0-27.535,10.119-27.535,22.558c0,2.119,0.382,4.21,1.088,6.22C28.033,28.374,43.346,20.595,61.125,20.595z"/>
		</g>
	</g>
</g>
<g>
	<linearGradient id="SVGID_2_" gradientUnits="userSpaceOnUse" x1="45.2913" y1="55.177" x2="93.8958" y2="55.177">
		<stop  offset="0" style="stop-color:#E6E6E6"/>
		<stop  offset="0.5398" style="stop-color:#FFFFFF"/>
		<stop  offset="1" style="stop-color:#C8C8C8"/>
	</linearGradient>
	<path fill="url(#SVGID_2_)" d="M93.896,75.113l-12.584-4.229c-3.791,2.065-8.184,3.154-12.735,3.154
		c-12.839,0-23.285-8.701-23.285-19.396c0-10.697,10.446-19.4,23.285-19.4c12.84,0,23.285,8.703,23.285,19.398
		c0,4.375-1.774,8.613-5.016,12.027L93.896,75.113z M68.576,37.241c-11.736,0-21.285,7.805-21.285,17.4
		c0,9.592,9.549,17.396,21.285,17.396c4.364,0,8.562-1.076,12.141-3.111l0.389-0.222l6.722,2.259l-3.697-4.43l0.671-0.646
		c3.264-3.14,5.061-7.135,5.061-11.248C89.862,45.045,80.314,37.241,68.576,37.241z"/>
	<path fill="#777266" d="M84.13,66.533l0.671-0.646c3.264-3.14,5.061-7.135,5.061-11.248c0-9.594-9.548-17.398-21.285-17.398
		c-11.736,0-21.285,7.805-21.285,17.4c0,9.592,9.549,17.396,21.285,17.396c4.364,0,8.562-1.076,12.141-3.111l0.389-0.222
		l6.722,2.259L84.13,66.533z"/>
	<path opacity="0.6" fill="#C1BAAC" d="M76.028,44.397c4.201,0,8.157,0.941,11.64,2.597c-3.471-5.766-10.713-9.752-19.091-9.752
		c-11.736,0-21.285,7.805-21.285,17.4c0,3.656,1.395,7.05,3.763,9.854C52.57,53.17,63.169,44.397,76.028,44.397z"/>
</g>
</svg>
