<?xml version="1.0" encoding="utf-8"?>
<!-- Generator: Adobe Illustrator 16.0.0, SVG Export Plug-In . SVG Version: 6.00 Build 0)  -->
<!DOCTYPE svg PUBLIC "-//W3C//DTD SVG 1.1//EN" "http://www.w3.org/Graphics/SVG/1.1/DTD/svg11.dtd">
<svg version="1.1" id="Layer_1" xmlns="http://www.w3.org/2000/svg" xmlns:xlink="http://www.w3.org/1999/xlink" x="0px" y="0px"
	 width="117px" height="84.559px" viewBox="0 0 117 84.559" enable-background="new 0 0 117 84.559" xml:space="preserve">
<g>
	<linearGradient id="SVGID_1_" gradientUnits="userSpaceOnUse" x1="20.1328" y1="42.2795" x2="96.8662" y2="42.2795">
		<stop  offset="0" style="stop-color:#FFFFFF"/>
		<stop  offset="1" style="stop-color:#C8C8C8"/>
	</linearGradient>
	<path fill="url(#SVGID_1_)" d="M94.851,37.965v-8.21l-16.32,0l-7.333-5.004l-7.838,5.197h-8.425V12.356
		c0-3.099-1.944-5.907-5.617-5.907H25.653c-3.411,0-5.52,2.518-5.52,5.229V70.77c0,3.584,3.156,4.725,4.976,4.725h19.61v2.615
		h52.148V37.965H94.851z"/>
	<linearGradient id="SVGID_2_" gradientUnits="userSpaceOnUse" x1="23.9287" y1="41.0872" x2="51.1465" y2="41.0872">
		<stop  offset="0" style="stop-color:#FFFFFF"/>
		<stop  offset="1" style="stop-color:#C8C8C8"/>
	</linearGradient>
	<polygon fill="url(#SVGID_2_)" points="23.929,17.271 51.146,17.271 51.146,30.078 47.522,30.078 47.522,38.793 44.767,40.497 
		44.767,64.903 23.929,64.903 	"/>
	<g>
		<g>
			<polygon fill="#787367" points="46.974,76.541 70.855,60.104 94.738,76.541 			"/>
		</g>
		<polygon fill="#787367" points="46.082,43.668 66.08,62.778 46.082,76.541 		"/>
		<polygon fill="#787367" points="95.63,43.668 75.63,62.778 95.63,76.541 		"/>
		<g>
			<path fill="#787367" d="M72.354,42.316C72.041,42.105,71.684,42,71.281,42c-0.899,0-1.666,0.444-2.298,1.334
				c-0.357,0.504-0.637,1.123-0.839,1.855c-0.184,0.67-0.275,1.252-0.275,1.748c0,1.439,0.615,2.158,1.843,2.158
				c1.118,0,1.994-0.6,2.628-1.801c0.531-1.01,0.797-2.055,0.797-3.137C73.137,43.27,72.876,42.655,72.354,42.316z"/>
			<path fill="#787367" d="M48.899,31.503v13.673l17.529,16.789l4.427-3.047l4.42,3.043L93.496,44.52V31.503H48.899z M81.444,49.824
				c-1.266,1.258-2.976,1.887-5.13,1.887c-2.237,0-3.435-0.738-3.59-2.215c-0.697,0.732-1.339,1.26-1.925,1.582
				c-0.716,0.383-1.573,0.576-2.573,0.576c-1.266,0-2.256-0.42-2.971-1.266c-0.679-0.787-1.018-1.848-1.018-3.176
				c0-1.43,0.325-2.797,0.977-4.1c0.559-1.119,1.251-1.976,2.077-2.572c1.026-0.762,2.173-1.142,3.438-1.142
				c1.55,0,2.655,0.48,3.315,1.444l0.248-1.046h3.466l-1.72,7.208c-0.092,0.385-0.138,0.746-0.138,1.086
				c0,0.816,0.427,1.225,1.279,1.225c1.082,0,1.954-0.436,2.613-1.307c0.67-0.889,1.004-2.068,1.004-3.535
				c0-2.007-0.692-3.727-2.077-5.157c-1.778-1.835-4.259-2.752-7.439-2.752c-2.514,0-4.622,0.675-6.328,2.022
				c-1.229,0.98-2.132,2.265-2.71,3.851c-0.376,1.018-0.563,2.137-0.563,3.356c0,2.568,0.788,4.627,2.366,6.176
				c1.642,1.613,4.034,2.422,7.18,2.422c1.943,0,3.823-0.303,5.639-0.908l0.729,2.379c-1.266,0.375-2.363,0.637-3.295,0.785
				c-0.93,0.146-1.974,0.219-3.129,0.219c-4.447,0-7.794-1.379-10.04-4.141c-1.477-1.824-2.215-4.189-2.215-7.096
				c0-2.064,0.515-3.971,1.54-5.722c0.937-1.596,2.192-2.879,3.77-3.852c2.025-1.256,4.47-1.884,7.33-1.884
				c3.485,0,6.392,1.023,8.721,3.068c1.247,1.091,2.146,2.416,2.696,3.975c0.339,0.972,0.509,2.037,0.509,3.191
				C83.48,46.67,82.801,48.477,81.444,49.824z"/>
		</g>
		<g>
			<polygon fill="#787367" points="48.225,40.661 46.082,42 48.225,44.305 			"/>
			<polygon fill="#787367" points="94.074,41.027 94.074,43.674 95.63,42 			"/>
			<polygon fill="#787367" points="77.852,30.888 70.855,26.515 63.859,30.888 			"/>
		</g>
	</g>
	<path fill="#787367" d="M44.767,64.903H23.929V17.271h27.218v12.774h2.328V12.26c0-2.243-1.818-4.061-4.061-4.061H25.662
		c-2.243,0-4.061,1.818-4.061,4.061v57.536c0,2.242,1.818,4.061,4.061,4.061h19.105V64.903z M33.3,13.451h8.476
		c0.263,0,0.478,0.214,0.478,0.478s-0.214,0.478-0.478,0.478H33.3c-0.264,0-0.478-0.214-0.478-0.478S33.036,13.451,33.3,13.451z
		 M37.538,72.065c-1.451,0-2.626-1.176-2.626-2.625c0-1.451,1.175-2.627,2.626-2.627c1.45,0,2.626,1.176,2.626,2.627
		C40.164,70.889,38.988,72.065,37.538,72.065z"/>
	<path opacity="0.6" fill="#C0BAAB" d="M43.883,17.271l3.64-9.072H25.662c-2.243,0-4.061,1.818-4.061,4.061v57.536
		c0,0.676,0.167,1.312,0.46,1.875l2.714-6.768h-0.847V17.271H43.883z M33.3,13.451h8.476c0.263,0,0.478,0.214,0.478,0.478
		s-0.214,0.478-0.478,0.478H33.3c-0.264,0-0.478-0.214-0.478-0.478S33.036,13.451,33.3,13.451z"/>
	<g opacity="0.6">
		<path fill="#C0BAAB" d="M58.915,45.631c0-2.064,0.515-3.971,1.54-5.722c0.937-1.596,2.192-2.879,3.77-3.852
			c2.025-1.256,4.47-1.884,7.33-1.884c2.173,0,4.122,0.398,5.847,1.193c2.361-1.403,4.575-2.721,6.492-3.863H48.899v13.673
			l4.505,4.312c1.528-0.877,3.417-1.977,5.525-3.209C58.921,46.067,58.915,45.85,58.915,45.631z"/>
		<path fill="#C0BAAB" d="M64.953,38.589c-1.229,0.98-2.132,2.265-2.71,3.851c-0.252,0.684-0.418,1.415-0.501,2.19
			c1.264-0.742,2.578-1.518,3.919-2.307c0.469-0.74,1.012-1.333,1.631-1.78c0.989-0.733,2.091-1.11,3.302-1.137
			c1.371-0.812,2.739-1.624,4.081-2.42c-1.025-0.277-2.155-0.419-3.394-0.419C68.768,36.566,66.659,37.241,64.953,38.589z"/>
	</g>
	<polygon fill="#C0BAAB" points="46.082,57.194 54.238,51.461 46.082,43.668 	"/>
</g>
</svg>
