<?xml version="1.0" encoding="utf-8"?>
<!-- Generator: Adobe Illustrator 16.0.4, SVG Export Plug-In . SVG Version: 6.00 Build 0)  -->
<!DOCTYPE svg PUBLIC "-//W3C//DTD SVG 1.1//EN" "http://www.w3.org/Graphics/SVG/1.1/DTD/svg11.dtd">
<svg version="1.1" id="Layer_1" xmlns="http://www.w3.org/2000/svg" xmlns:xlink="http://www.w3.org/1999/xlink" x="0px" y="0px"
	 width="107.354px" height="84.559px" viewBox="0 0 107.354 84.559" enable-background="new 0 0 107.354 84.559"
	 xml:space="preserve">
<linearGradient id="SVGID_1_" gradientUnits="userSpaceOnUse" x1="37.6311" y1="30.3225" x2="67.3181" y2="30.3225">
	<stop  offset="0" style="stop-color:#E5E5E4"/>
	<stop  offset="0.5398" style="stop-color:#FFFFFF"/>
	<stop  offset="1" style="stop-color:#C7C8C8"/>
</linearGradient>
<path fill="url(#SVGID_1_)" d="M52.475,5.744c-8.199,0-14.844,6.646-14.844,14.844c0,1.172,0.15,2.307,0.406,3.4
	c0.012,0.064,0.015,0.123,0.032,0.19c2.112,8.405,8.678,20.492,14.405,30.723c5.727-10.23,12.292-22.317,14.405-30.723
	c0.017-0.065,0.02-0.122,0.031-0.185c0.258-1.095,0.407-2.231,0.407-3.406C67.318,12.39,60.674,5.744,52.475,5.744z"/>
<path fill="#767266" d="M52.475,6.613c-7.768,0-14.064,6.297-14.064,14.064c0,1.11,0.142,2.185,0.385,3.221
	c0.012,0.061,0.014,0.117,0.03,0.18c2.001,7.964,8.222,19.417,13.648,29.107c5.426-9.689,11.647-21.143,13.648-29.107
	c0.016-0.062,0.019-0.116,0.029-0.175c0.244-1.038,0.387-2.114,0.387-3.227C66.539,12.91,60.243,6.613,52.475,6.613z M52.475,28.241
	c-4.178,0-7.564-3.387-7.564-7.564c0-4.178,3.386-7.564,7.564-7.564c4.177,0,7.564,3.386,7.564,7.564
	C60.039,24.855,56.652,28.241,52.475,28.241z"/>
<g>
	<polygon fill="#767266" points="74.918,65.835 73.961,65.835 73.961,64.118 74.918,64.118 74.918,57.867 73.961,57.867 
		73.961,56.151 74.918,56.151 74.918,49.9 68.028,49.9 68.028,56.151 68.985,56.151 68.985,57.867 68.028,57.867 68.028,64.118 
		68.985,64.118 68.985,65.835 68.028,65.835 68.028,72.085 68.985,72.085 68.985,79.606 73.961,79.606 73.961,72.085 74.918,72.085 
			"/>
	<linearGradient id="SVGID_2_" gradientUnits="userSpaceOnUse" x1="67.6511" y1="64.7522" x2="75.2957" y2="64.7522">
		<stop  offset="0" style="stop-color:#FFFFFF"/>
		<stop  offset="1" style="stop-color:#C7C8C8"/>
	</linearGradient>
	<path fill="url(#SVGID_2_)" d="M74.339,79.984h-5.73v-7.521h-0.957v-7.005h0.957v-0.962h-0.957V57.49h0.957v-0.961h-0.957v-7.007
		h7.645v7.007h-0.957v0.961h0.957v7.007h-0.957v0.962h0.957v7.005h-0.957V79.984z M68.985,79.606h4.976v-7.521h0.957v-6.25h-0.957
		v-1.717h0.957v-6.251h-0.957v-1.717h0.957V49.9h-6.89v6.251h0.957v1.717h-0.957v6.251h0.957v1.717h-0.957v6.25h0.957V79.606z"/>
</g>
<polygon opacity="0.6" fill="#BFB8AA" points="74.918,54.262 74.918,49.9 68.028,49.9 68.028,56.151 68.985,56.151 68.985,57.867 
	68.028,57.867 68.028,64.118 "/>
<path fill="#767266" d="M33.791,79.347v0.896h42.542v-0.896H62.702L62.52,79.35l-0.002-0.064l-0.006-17.397h2.994v-5.485H34.135
	v5.485h2.805l0.186-0.001l0.003,0.19v17.27H33.791z M53.004,79.347H39.817v-8.026h13.187V79.347z M53.265,61.888h6.566v8.535h-6.566
	V61.888z M53.265,71.321h6.566v8.026h-6.566V71.321z M46.636,61.888h6.368v8.535h-6.368V61.888z M39.81,61.888h6.567v8.535H39.81
	V61.888z"/>
<g>
	<linearGradient id="SVGID_3_" gradientUnits="userSpaceOnUse" x1="43.4578" y1="76.9651" x2="49.5012" y2="76.9651">
		<stop  offset="0" style="stop-color:#E5E5E4"/>
		<stop  offset="0.5398" style="stop-color:#FFFFFF"/>
		<stop  offset="1" style="stop-color:#C7C8C8"/>
	</linearGradient>
	<rect x="43.458" y="75.163" fill="url(#SVGID_3_)" width="6.043" height="3.603"/>
	<g>
		<linearGradient id="SVGID_4_" gradientUnits="userSpaceOnUse" x1="41.5657" y1="76.1477" x2="43.9817" y2="76.1477">
			<stop  offset="0" style="stop-color:#E5E5E4"/>
			<stop  offset="0.5398" style="stop-color:#FFFFFF"/>
			<stop  offset="1" style="stop-color:#C7C8C8"/>
		</linearGradient>
		<polygon fill="url(#SVGID_4_)" points="41.617,75.957 41.846,75.525 42.456,75.322 43.525,75.423 43.982,76.185 43.949,76.651 
			43.6,76.948 42.151,76.974 41.566,76.617 		"/>
		<linearGradient id="SVGID_5_" gradientUnits="userSpaceOnUse" x1="49.0164" y1="76.1477" x2="51.4314" y2="76.1477">
			<stop  offset="0" style="stop-color:#E5E5E4"/>
			<stop  offset="0.5398" style="stop-color:#FFFFFF"/>
			<stop  offset="1" style="stop-color:#C7C8C8"/>
		</linearGradient>
		<polygon fill="url(#SVGID_5_)" points="51.381,75.957 51.152,75.525 50.542,75.322 49.474,75.423 49.016,76.185 49.048,76.651 
			49.398,76.948 50.847,76.974 51.431,76.617 		"/>
	</g>
	<g>
		<path fill="#767266" d="M42.645,75.628c0,0,0.298,0.115,0.606,0.14h0.303l0.443,0.885c0,0,0.158,0.151,0.255,0.35
			c0,0,0.23,0.753,0.398,0.934l1.853,0.023l0,0h0.006h0.006l0,0l1.852-0.023c0.167-0.18,0.396-0.934,0.396-0.934
			c0.099-0.198,0.257-0.35,0.257-0.35l0.443-0.885h0.304c0.307-0.024,0.606-0.14,0.606-0.14c0.233-0.103,0.466-0.047,0.466-0.047
			c0.25,0.052,0.558,0.187,0.558,0.187c-0.094-0.228-0.583-0.582-0.583-0.582c-0.219-0.212-0.211-0.201-0.536-0.397l-0.138-0.139
			h0.419c0.336-0.052,0.326-0.257,0.326-0.257c-0.029-0.284-0.373-0.304-0.373-0.304h-0.209c-0.187,0.032-0.163,0.117-0.163,0.117
			v0.209c-0.051,0-0.071,0.046-0.071,0.046c-0.256-0.554-0.652-1.024-0.652-1.024c-0.308-0.341-0.49-0.467-0.49-0.467
			c-0.106-0.061-0.232-0.07-0.232-0.07c-0.951-0.07-2.191-0.07-2.191-0.07l0,0c-0.129,0-1.282,0.004-2.18,0.07
			c0,0-0.125,0.01-0.233,0.07c0,0-0.182,0.126-0.489,0.467c0,0-0.397,0.472-0.653,1.024c0,0-0.02-0.046-0.07-0.046v-0.209
			c0,0,0.023-0.085-0.163-0.117h-0.211c0,0-0.344,0.019-0.372,0.304c0,0-0.01,0.205,0.326,0.257h0.42l-0.139,0.139
			c-0.325,0.196-0.317,0.186-0.537,0.397c0,0-0.489,0.354-0.583,0.582c0,0,0.307-0.136,0.56-0.187
			C42.178,75.581,42.411,75.526,42.645,75.628z M46.501,75.347L46.501,75.347c0.002,0,0.003,0.001,0.006,0
			c0.001,0.001,0.004,0,0.006,0.001v-0.001c0.267-0.018,0.268,0.141,0.268,0.141c-0.024,0.118-0.217,0.119-0.268,0.117l0,0
			c0,0-0.003,0-0.006,0c-0.004,0-0.006,0-0.006,0l0,0c-0.051,0.002-0.244,0.001-0.267-0.117
			C46.234,75.488,46.234,75.329,46.501,75.347z"/>
		<path fill="#767266" d="M51.395,75.815l-0.187-0.071c0,0,0.178,0.389,0.024,0.63c0,0-0.066,0.159-0.745,0.21
			c0,0-1.06,0.079-1.422,0.094c0,0-0.126,0.058-0.257,0.349c0,0-0.069,0.205-0.255,0.675c0,0-0.042,0.205-0.42,0.678
			c0,0-0.099,0.268-0.559,0.256h-1.038h-0.059h-1.037c-0.459,0.012-0.558-0.256-0.558-0.256c-0.379-0.472-0.42-0.678-0.42-0.678
			c-0.187-0.47-0.257-0.675-0.257-0.675c-0.129-0.291-0.256-0.349-0.256-0.349c-0.364-0.014-1.421-0.094-1.421-0.094
			c-0.681-0.051-0.745-0.21-0.745-0.21c-0.155-0.241,0.022-0.63,0.022-0.63l-0.186,0.071c-0.274,0.727-0.14,1.631-0.14,1.631
			c0.035,0.851,0.07,1.354,0.07,1.354c0.053,0.522,0.514,0.511,0.514,0.511h0.955c0.269,0.006,0.28-0.186,0.28-0.186
			c0.449-0.018,0.955,0,0.955,0c0.31,0,0.491-0.07,0.491-0.07c0.349-0.058,0.746-0.046,0.746-0.046l1.019-0.022l1.018,0.022
			c0,0,0.397-0.012,0.747,0.046c0,0,0.181,0.07,0.489,0.07c0,0,0.507-0.018,0.956,0c0,0,0.012,0.191,0.28,0.186h0.956
			c0,0,0.46,0.012,0.513-0.511c0,0,0.035-0.502,0.07-1.354C51.535,77.446,51.669,76.542,51.395,75.815z"/>
	</g>
	<linearGradient id="SVGID_6_" gradientUnits="userSpaceOnUse" x1="43.3357" y1="73.7659" x2="49.6785" y2="73.7659">
		<stop  offset="0" style="stop-color:#E5E5E4"/>
		<stop  offset="0.5398" style="stop-color:#FFFFFF"/>
		<stop  offset="1" style="stop-color:#C7C8C8"/>
	</linearGradient>
	<path fill="url(#SVGID_6_)" d="M49.654,74.357c-0.318-0.707-0.862-1.188-0.862-1.188c-0.847-0.124-2.284-0.141-2.284-0.141
		s-1.438,0.017-2.284,0.141c0,0-0.544,0.481-0.862,1.188c0,0-0.121,0.182,0.164,0.14c0,0,1.957-0.085,2.983-0.07
		c1.025-0.015,2.983,0.07,2.983,0.07C49.772,74.538,49.654,74.357,49.654,74.357z"/>
	<g>
		<linearGradient id="SVGID_7_" gradientUnits="userSpaceOnUse" x1="44.2224" y1="76.2795" x2="46.4236" y2="76.2795">
			<stop  offset="0" style="stop-color:#E5E5E4"/>
			<stop  offset="0.5398" style="stop-color:#FFFFFF"/>
			<stop  offset="1" style="stop-color:#C7C8C8"/>
		</linearGradient>
		<path fill="url(#SVGID_7_)" d="M45.994,75.628c0,0-0.661-0.032-1.329-0.023c0,0-0.276,0-0.373,0.163c0,0-0.073,0.05-0.07,0.396
			c0,0,0.008,0.296,0.187,0.489c0,0,0.144,0.206,0.651,0.28c0,0,0.494,0.048,0.979,0c0,0,0.323-0.011,0.35-0.28
			c0,0,0.058-0.478,0.023-0.697C46.413,75.955,46.359,75.628,45.994,75.628z"/>
		<linearGradient id="SVGID_8_" gradientUnits="userSpaceOnUse" x1="46.5891" y1="76.2786" x2="48.7908" y2="76.2786">
			<stop  offset="0" style="stop-color:#E5E5E4"/>
			<stop  offset="0.5398" style="stop-color:#FFFFFF"/>
			<stop  offset="1" style="stop-color:#C7C8C8"/>
		</linearGradient>
		<path fill="url(#SVGID_8_)" d="M48.721,75.768c-0.097-0.163-0.372-0.163-0.372-0.163c-0.668-0.009-1.329,0.023-1.329,0.023
			c-0.365,0-0.419,0.327-0.419,0.327c-0.035,0.22,0.023,0.697,0.023,0.697c0.027,0.269,0.35,0.28,0.35,0.28
			c0.485,0.048,0.978,0,0.978,0c0.51-0.074,0.653-0.28,0.653-0.28c0.179-0.193,0.186-0.489,0.186-0.489
			C48.796,75.818,48.721,75.768,48.721,75.768z"/>
	</g>
	<g>
		<linearGradient id="SVGID_9_" gradientUnits="userSpaceOnUse" x1="44.4592" y1="76.2727" x2="46.2463" y2="76.2727">
			<stop  offset="0" style="stop-color:#E5E5E4"/>
			<stop  offset="0.5398" style="stop-color:#FFFFFF"/>
			<stop  offset="1" style="stop-color:#C7C8C8"/>
		</linearGradient>
		<path fill="url(#SVGID_9_)" d="M45.897,75.745c0,0-0.535-0.026-1.077-0.02c0,0-0.225,0-0.304,0.132c0,0-0.06,0.043-0.056,0.322
			c0,0,0.006,0.24,0.151,0.397c0,0,0.117,0.166,0.531,0.227c0,0,0.4,0.037,0.793,0c0,0,0.262-0.009,0.283-0.227
			c0,0,0.048-0.389,0.02-0.566C46.237,76.01,46.192,75.745,45.897,75.745z"/>
		<linearGradient id="SVGID_10_" gradientUnits="userSpaceOnUse" x1="46.7678" y1="76.2717" x2="48.5544" y2="76.2717">
			<stop  offset="0" style="stop-color:#E5E5E4"/>
			<stop  offset="0.5398" style="stop-color:#FFFFFF"/>
			<stop  offset="1" style="stop-color:#C7C8C8"/>
		</linearGradient>
		<path fill="url(#SVGID_10_)" d="M48.498,75.858c-0.079-0.132-0.303-0.132-0.303-0.132c-0.542-0.007-1.079,0.019-1.079,0.019
			c-0.296,0-0.339,0.266-0.339,0.266c-0.029,0.178,0.018,0.566,0.018,0.566c0.023,0.218,0.284,0.227,0.284,0.227
			c0.394,0.037,0.794,0,0.794,0c0.413-0.061,0.53-0.227,0.53-0.227c0.145-0.157,0.152-0.397,0.152-0.397
			C48.557,75.9,48.498,75.858,48.498,75.858z"/>
	</g>
	<g>
		<linearGradient id="SVGID_11_" gradientUnits="userSpaceOnUse" x1="50.4524" y1="78.2405" x2="51.1316" y2="78.2405">
			<stop  offset="0" style="stop-color:#E5E5E4"/>
			<stop  offset="0.5398" style="stop-color:#FFFFFF"/>
			<stop  offset="1" style="stop-color:#C7C8C8"/>
		</linearGradient>
		<path fill="url(#SVGID_11_)" d="M51.132,78.24c0,0.188-0.152,0.339-0.34,0.339c-0.187,0-0.339-0.151-0.339-0.339
			c0-0.188,0.152-0.34,0.339-0.34C50.98,77.901,51.132,78.052,51.132,78.24z"/>
		<linearGradient id="SVGID_12_" gradientUnits="userSpaceOnUse" x1="41.8816" y1="78.2405" x2="42.5618" y2="78.2405">
			<stop  offset="0" style="stop-color:#E5E5E4"/>
			<stop  offset="0.5398" style="stop-color:#FFFFFF"/>
			<stop  offset="1" style="stop-color:#C7C8C8"/>
		</linearGradient>
		<path fill="url(#SVGID_12_)" d="M42.562,78.24c0,0.188-0.152,0.339-0.341,0.339c-0.187,0-0.339-0.151-0.339-0.339
			c0-0.188,0.152-0.34,0.339-0.34C42.41,77.901,42.562,78.052,42.562,78.24z"/>
	</g>
</g>
<linearGradient id="SVGID_13_" gradientUnits="userSpaceOnUse" x1="33.4133" y1="68.3225" x2="76.7107" y2="68.3225">
	<stop  offset="0" style="stop-color:#FFFFFF"/>
	<stop  offset="1" style="stop-color:#C7C8C8"/>
</linearGradient>
<path fill="url(#SVGID_13_)" d="M76.711,80.621H33.602h-0.189v-0.188v-1.464h3.337V62.266h-2.805l-0.188-0.001l-0.001-0.188v-6.053
	h31.939h0.191l-0.002,0.188v6.053H62.89v16.703h13.632l0.188,0.003v0.186V80.621z M33.791,80.243h42.542v-0.896H62.702L62.52,79.35
	l-0.002-0.064l-0.006-17.397h2.994v-5.485H34.135v5.485h2.805l0.186-0.001l0.003,0.19v17.27h-3.337V80.243z M59.831,79.347h-6.566
	v-8.026h6.566V79.347z M53.642,78.969h5.812v-7.271h-5.812V78.969z M53.004,79.347H39.817v-8.026h13.187V79.347z M40.163,78.969
	h12.463v-7.271H40.163V78.969z M59.831,70.423h-6.566v-8.535h6.566V70.423z M53.642,70.045h5.812v-7.779h-5.812V70.045z
	 M53.004,70.423h-6.368v-8.535h6.368V70.423z M47.013,70.045h5.613v-7.779h-5.613V70.045z M46.377,70.423H39.81v-8.535h6.567V70.423
	z M40.188,70.045h5.812v-7.779h-5.812V70.045z"/>
<path opacity="0.6" fill="#BFB8AA" d="M39.81,68.414v-6.526h6.567v4.429l0.259-0.129v-4.3h6.369v2.204l0.26-0.085v-2.119h6.566l0,0
	l5.676-1.897v-3.588H34.135v5.485h2.805l0.186-0.001l0.003,0.19v7.305L39.81,68.414z"/>
<linearGradient id="SVGID_14_" gradientUnits="userSpaceOnUse" x1="68.3738" y1="60.7805" x2="74.9177" y2="60.7805">
	<stop  offset="0" style="stop-color:#E5E5E4"/>
	<stop  offset="0.5398" style="stop-color:#FFFFFF"/>
	<stop  offset="1" style="stop-color:#C7C8C8"/>
</linearGradient>
<rect x="68.374" y="57.843" fill="url(#SVGID_14_)" width="6.544" height="5.875"/>
<linearGradient id="SVGID_15_" gradientUnits="userSpaceOnUse" x1="68.3738" y1="68.7717" x2="74.9177" y2="68.7717">
	<stop  offset="0" style="stop-color:#E5E5E4"/>
	<stop  offset="0.5398" style="stop-color:#FFFFFF"/>
	<stop  offset="1" style="stop-color:#C7C8C8"/>
</linearGradient>
<rect x="68.374" y="65.788" fill="url(#SVGID_15_)" width="6.544" height="5.967"/>
<linearGradient id="SVGID_16_" gradientUnits="userSpaceOnUse" x1="68.3738" y1="52.8108" x2="74.9177" y2="52.8108">
	<stop  offset="0" style="stop-color:#E5E5E4"/>
	<stop  offset="0.5398" style="stop-color:#FFFFFF"/>
	<stop  offset="1" style="stop-color:#C7C8C8"/>
</linearGradient>
<rect x="68.374" y="49.9" fill="url(#SVGID_16_)" width="6.544" height="5.823"/>
<g>
	
		<linearGradient id="SVGID_17_" gradientUnits="userSpaceOnUse" x1="220.8855" y1="404.0686" x2="220.8855" y2="408.1488" gradientTransform="matrix(1 0 0 1 -149.2397 -353.291)">
		<stop  offset="0" style="stop-color:#FFFFFF"/>
		<stop  offset="1" style="stop-color:#9E9B99"/>
	</linearGradient>
	<circle fill="url(#SVGID_17_)" stroke="#817D7C" stroke-miterlimit="10" cx="71.645" cy="52.812" r="2.089"/>
	<g>
		
			<linearGradient id="SVGID_18_" gradientUnits="userSpaceOnUse" x1="219.8406" y1="404.0403" x2="219.8406" y2="406.0828" gradientTransform="matrix(1 0 0 1 -149.2397 -353.291)">
			<stop  offset="0" style="stop-color:#155A9D"/>
			<stop  offset="1" style="stop-color:#104A89"/>
		</linearGradient>
		<path fill="url(#SVGID_18_)" d="M69.557,52.812h2.089v-2.091C70.493,50.719,69.557,51.657,69.557,52.812z"/>
		
			<linearGradient id="SVGID_19_" gradientUnits="userSpaceOnUse" x1="221.9304" y1="406.1292" x2="221.9304" y2="408.1707" gradientTransform="matrix(1 0 0 1 -149.2397 -353.291)">
			<stop  offset="0" style="stop-color:#155A9D"/>
			<stop  offset="1" style="stop-color:#104A89"/>
		</linearGradient>
		<path fill="url(#SVGID_19_)" d="M71.646,52.81v2.091c1.153,0,2.089-0.936,2.089-2.091H71.646z"/>
	</g>
	<linearGradient id="SVGID_20_" gradientUnits="userSpaceOnUse" x1="69.0574" y1="52.8118" x2="74.2351" y2="52.8118">
		<stop  offset="0" style="stop-color:#FFFFFF"/>
		<stop  offset="1" style="stop-color:#C7C8C8"/>
	</linearGradient>
	<circle fill="none" stroke="url(#SVGID_20_)" stroke-miterlimit="10" cx="71.645" cy="52.812" r="2.089"/>
</g>
<path opacity="0.6" fill="#BFB8AA" d="M44.911,20.677c0-2.688,1.407-5.043,3.52-6.385c1.07-5.638,11.118-6.758,15.386-1.907
	c-2.559-3.494-6.679-5.773-11.342-5.773c-7.768,0-14.064,6.297-14.064,14.064c0,1.11,0.142,2.185,0.385,3.221
	c0.012,0.061,0.014,0.117,0.03,0.18c2.001,7.964,8.222,19.417,13.648,29.107c-1.418-5.893-4.398-17.493-5.157-26.986
	C45.84,24.82,44.911,22.859,44.911,20.677z"/>
</svg>
