<?xml version="1.0" encoding="utf-8"?>
<!-- Generator: Adobe Illustrator 16.0.0, SVG Export Plug-In . SVG Version: 6.00 Build 0)  -->
<!DOCTYPE svg PUBLIC "-//W3C//DTD SVG 1.1//EN" "http://www.w3.org/Graphics/SVG/1.1/DTD/svg11.dtd">
<svg version="1.1" id="Layer_1" xmlns="http://www.w3.org/2000/svg" xmlns:xlink="http://www.w3.org/1999/xlink" x="0px" y="0px"
	 width="107.354px" height="84.559px" viewBox="0 0 107.354 84.559" enable-background="new 0 0 107.354 84.559"
	 xml:space="preserve">
<g>
	<g>
		
			<linearGradient id="SVGID_1_" gradientUnits="userSpaceOnUse" x1="160.5051" y1="-101.0374" x2="216.7249" y2="-101.0374" gradientTransform="matrix(1 0 0 -1 -140.8799 -66.3462)">
			<stop  offset="0" style="stop-color:#E6E6E6"/>
			<stop  offset="0.5398" style="stop-color:#FFFFFF"/>
			<stop  offset="1" style="stop-color:#C8C8C8"/>
		</linearGradient>
		<path fill="url(#SVGID_1_)" d="M47.735,62.801c-15.5,0-28.109-12.61-28.109-28.11S32.235,6.581,47.735,6.581
			s28.11,12.609,28.11,28.109c0,6.089-1.908,11.857-5.525,16.728l3.262,3.261l-5.731,5.73l-3.242-3.242
			C59.708,60.855,53.89,62.801,47.735,62.801z M47.735,8.124c-14.648,0-26.565,11.918-26.565,26.565
			c0,14.648,11.917,26.566,26.565,26.566c6.034,0,11.726-1.979,16.458-5.722l0.539-0.427l2.899,2.899l3.58-3.515l-2.943-2.945
			l0.42-0.538c3.672-4.706,5.612-10.351,5.612-16.32C74.301,20.042,62.383,8.124,47.735,8.124z"/>
		<path fill="#777266" d="M74.298,34.691c0-14.67-11.894-26.562-26.563-26.562S21.173,20.022,21.173,34.691
			s11.893,26.562,26.562,26.562c6.218,0,11.932-2.143,16.458-5.721l3.574,3.458l4.483-4.457l-3.565-3.523
			C72.198,46.506,74.298,40.845,74.298,34.691z"/>
	</g>
	
		<linearGradient id="SVGID_2_" gradientUnits="userSpaceOnUse" x1="164.4739" y1="-101.2864" x2="212.5754" y2="-101.2864" gradientTransform="matrix(1 0 0 -1 -140.8799 -66.3462)">
		<stop  offset="0" style="stop-color:#E6E6E6"/>
		<stop  offset="0.5398" style="stop-color:#FFFFFF"/>
		<stop  offset="1" style="stop-color:#C8C8C8"/>
	</linearGradient>
	<circle fill="url(#SVGID_2_)" cx="47.645" cy="34.94" r="24.051"/>
	<path opacity="0.5" fill="#F8F8F8" enable-background="new    " d="M28.667,44.02c0-13.283,10.769-24.05,24.052-24.05
		c7.146,0,13.562,3.12,17.966,8.068c-2.967-9.918-12.157-17.149-23.04-17.149c-13.283,0-24.052,10.769-24.052,24.051
		c0,6.138,2.302,11.732,6.084,15.982C29.023,48.735,28.667,46.42,28.667,44.02z"/>
	<polygon fill="#777266" points="39.926,19.969 47.902,30.744 55.876,19.969 60.533,19.969 50.23,33.894 50.244,33.911 
		50.251,33.911 50.251,36.915 59.075,36.915 59.075,39.916 50.251,39.916 50.251,42.92 59.263,42.92 59.263,45.926 50.251,45.926 
		50.251,52.307 45.56,52.307 45.56,45.926 36.923,45.926 36.923,42.92 45.56,42.92 45.56,39.916 36.735,39.916 36.735,36.915 
		45.56,36.915 45.56,33.911 45.573,33.894 35.268,19.969 	"/>
</g>
<g>
	<polygon fill="#777266" points="89.21,68.083 75.984,54.645 67.886,62.615 81.111,76.053 	"/>
	
		<linearGradient id="SVGID_3_" gradientUnits="userSpaceOnUse" x1="208.0588" y1="-131.6951" x2="230.7981" y2="-131.6951" gradientTransform="matrix(1 0 0 -1 -140.8799 -66.3462)">
		<stop  offset="0" style="stop-color:#E6E6E6"/>
		<stop  offset="0.5398" style="stop-color:#FFFFFF"/>
		<stop  offset="1" style="stop-color:#C8C8C8"/>
	</linearGradient>
	<path fill="url(#SVGID_3_)" d="M81.105,76.76L67.179,62.608l8.812-8.67l13.928,14.151L81.105,76.76z M68.593,62.619l12.523,12.727
		l7.387-7.269L75.978,55.352L68.593,62.619z"/>
</g>
</svg>
