<?xml version="1.0" encoding="utf-8"?>
<!-- Generator: Adobe Illustrator 16.0.0, SVG Export Plug-In . SVG Version: 6.00 Build 0)  -->
<!DOCTYPE svg PUBLIC "-//W3C//DTD SVG 1.1//EN" "http://www.w3.org/Graphics/SVG/1.1/DTD/svg11.dtd">
<svg version="1.1" id="Layer_1" xmlns="http://www.w3.org/2000/svg" xmlns:xlink="http://www.w3.org/1999/xlink" x="0px" y="0px"
	 width="107.354px" height="84.559px" viewBox="0 0 107.354 84.559" enable-background="new 0 0 107.354 84.559"
	 xml:space="preserve">
<linearGradient id="SVGID_1_" gradientUnits="userSpaceOnUse" x1="332.9514" y1="587.8987" x2="370.2092" y2="587.8987" gradientTransform="matrix(1 0 0 1 -281.7598 -528.252)">
	<stop  offset="0" style="stop-color:#E6E6E6"/>
	<stop  offset="0.5398" style="stop-color:#FFFFFF"/>
	<stop  offset="1" style="stop-color:#C8C8C8"/>
</linearGradient>
<path fill="url(#SVGID_1_)" d="M69.796,78.277c-10.287-0.021-18.619-8.369-18.604-18.644c0.016-10.297,8.396-18.654,18.668-18.614
	c10.295,0.04,18.619,8.396,18.59,18.66C88.415,69.971,80.062,78.299,69.796,78.277z"/>
<g>
	<g>
		
			<linearGradient id="SVGID_2_" gradientUnits="userSpaceOnUse" x1="299.6633" y1="568.0237" x2="365.8567" y2="568.0237" gradientTransform="matrix(1 0 0 1 -281.7598 -528.252)">
			<stop  offset="0" style="stop-color:#E6E6E6"/>
			<stop  offset="0.5398" style="stop-color:#FFFFFF"/>
			<stop  offset="1" style="stop-color:#C8C8C8"/>
		</linearGradient>
		<path fill="url(#SVGID_2_)" d="M46.667,58.658c0.018-12.784,10.426-23.162,23.18-23.111c5.383,0.021,10.328,1.878,14.25,4.968
			V17.041c0-2.212-1.793-4.006-4.006-4.006h-58.18c-2.213,0-4.008,1.794-4.008,4.006v45.46c0,2.213,1.795,4.008,4.008,4.008H48.03
			C47.146,64.056,46.663,61.413,46.667,58.658z"/>
		
			<linearGradient id="SVGID_3_" gradientUnits="userSpaceOnUse" x1="298.1633" y1="568.0237" x2="367.3567" y2="568.0237" gradientTransform="matrix(1 0 0 1 -281.7598 -528.252)">
			<stop  offset="0" style="stop-color:#E6E6E6"/>
			<stop  offset="0.5398" style="stop-color:#FFFFFF"/>
			<stop  offset="1" style="stop-color:#C8C8C8"/>
		</linearGradient>
		<path fill="url(#SVGID_3_)" d="M50.165,68.009H21.911c-3.035,0-5.508-2.471-5.508-5.508v-45.46c0-3.036,2.473-5.506,5.508-5.506
			h58.18c3.037,0,5.506,2.47,5.506,5.506v26.562l-2.428-1.913c-3.834-3.02-8.443-4.626-13.328-4.646
			c-11.973,0-21.656,9.695-21.674,21.613c-0.004,2.518,0.426,4.985,1.271,7.34L50.165,68.009z M21.911,14.535
			c-1.383,0-2.508,1.124-2.508,2.506v45.46c0,1.383,1.125,2.508,2.508,2.508H45.99c-0.551-2.065-0.824-4.193-0.822-6.353
			c0.02-13.57,11.049-24.609,24.588-24.609c4.645,0.018,9.012,1.254,12.842,3.598V17.041c0-1.382-1.123-2.506-2.506-2.506H21.911z"
			/>
	</g>
</g>
<path fill="#777266" d="M46.667,58.658c0.018-12.784,10.426-23.162,23.18-23.111c5.383,0.021,10.328,1.878,14.25,4.968V17.041
	c0-2.212-1.793-4.006-4.006-4.006h-58.18c-2.213,0-4.008,1.794-4.008,4.006v45.46c0,2.213,1.795,4.008,4.008,4.008H48.03
	C47.146,64.056,46.663,61.413,46.667,58.658z"/>
<g>
	<g>
		
			<linearGradient id="SVGID_4_" gradientUnits="userSpaceOnUse" x1="330.9485" y1="587.8997" x2="372.2102" y2="587.8997" gradientTransform="matrix(1 0 0 1 -281.7598 -528.252)">
			<stop  offset="0" style="stop-color:#E6E6E6"/>
			<stop  offset="0.5398" style="stop-color:#FFFFFF"/>
			<stop  offset="1" style="stop-color:#C8C8C8"/>
		</linearGradient>
		<path fill="url(#SVGID_4_)" d="M69.838,80.279h-0.046c-11.376-0.022-20.618-9.285-20.604-20.646
			c0.017-11.368,9.254-20.615,20.596-20.615c11.466,0.044,20.698,9.316,20.666,20.666C90.413,71.039,81.167,80.279,69.838,80.279z
			 M69.862,40.095c-10.821,0-19.576,8.764-19.592,19.537c-0.016,10.766,8.744,19.544,19.526,19.567l0.044,0.54v-0.54
			c10.736,0,19.498-8.756,19.533-19.521C89.404,48.923,80.652,40.138,69.862,40.095z M68.141,75.838
			c-0.169,0-0.331-0.036-0.473-0.068l-0.163-0.034c-2.616-0.407-4.983-1.355-7.039-2.817c-2.448-1.741-4.302-4.009-5.512-6.737
			c-0.652-1.471-1.092-3.084-1.303-4.797c-0.032-0.263,0.022-0.476,0.163-0.636c0.139-0.157,0.334-0.235,0.58-0.235l0.068,0.002
			c0.354,0.018,0.661-0.005,0.858-0.104c0.381-0.192,0.553-0.564,0.458-0.999c-0.069-0.324-0.463-0.604-0.894-0.633
			c-0.048,0-0.097,0.01-0.147,0.016c-0.553,0.066-0.88-0.175-0.979-0.335c-0.192-0.312-0.117-0.67-0.062-0.932
			c0.014-0.057,0.024-0.11,0.032-0.163c0.394-2.574,1.315-4.91,2.738-6.948c1.738-2.485,4.003-4.367,6.729-5.59
			c1.496-0.675,3.136-1.125,4.87-1.342l0.155-0.012c0.277,0,0.446,0.118,0.54,0.218c0.216,0.229,0.2,0.521,0.195,0.63
			c-0.02,0.358-0.007,0.627,0.108,0.845c0.194,0.37,0.585,0.544,1.001,0.446c0.314-0.074,0.587-0.462,0.623-0.882
			c0.004-0.046-0.007-0.1-0.013-0.152c-0.027-0.236-0.085-0.728,0.356-0.997c0.265-0.157,0.641-0.115,0.929-0.055
			c0.057,0.014,0.113,0.025,0.166,0.033c2.624,0.41,4.992,1.361,7.044,2.821c2.438,1.732,4.299,4.012,5.535,6.77
			c0.525,1.176,1.226,3.65,1.279,4.817c0.05,0.261-0.036,0.442-0.119,0.552c-0.205,0.266-0.52,0.266-0.622,0.266l-0.142-0.002
			c-0.152,0-0.305,0.005-0.452,0.026c-0.518,0.079-0.816,0.373-0.826,0.809c-0.01,0.462,0.299,0.793,0.822,0.886l0.064,0.55
			l0.072-0.534c0.05,0,0.098-0.009,0.144-0.014c0.543-0.064,0.854,0.177,0.951,0.337c0.194,0.308,0.115,0.669,0.06,0.933
			l-0.032,0.162c-0.391,2.567-1.312,4.903-2.736,6.944c-1.734,2.483-3.998,4.363-6.728,5.59c-1.49,0.673-3.131,1.124-4.872,1.34
			l-0.154,0.01c-0.274,0-0.444-0.113-0.537-0.213c-0.216-0.225-0.202-0.517-0.198-0.626c0.02-0.354,0.008-0.633-0.108-0.85
			c-0.193-0.372-0.587-0.547-1.001-0.447c-0.313,0.073-0.588,0.463-0.624,0.884c-0.004,0.044,0.007,0.098,0.014,0.15
			c0.026,0.236,0.086,0.725-0.357,0.997C68.468,75.799,68.315,75.838,68.141,75.838z M54.767,61.597
			c0.215,1.485,0.607,2.875,1.172,4.146c1.132,2.549,2.863,4.668,5.15,6.296c1.918,1.362,4.133,2.25,6.584,2.633
			c0.063,0.011,0.134,0.022,0.202,0.041c-0.006-0.081-0.009-0.16-0.003-0.235c0.079-0.9,0.675-1.657,1.449-1.841
			c0.882-0.208,1.784,0.192,2.205,0.994c0.186,0.35,0.235,0.712,0.239,1.065c1.521-0.22,2.938-0.623,4.233-1.206
			c2.549-1.146,4.663-2.903,6.285-5.227c1.327-1.903,2.188-4.086,2.556-6.49c0.009-0.059,0.021-0.117,0.033-0.181
			c-0.027,0.001-0.058,0.003-0.083,0.003l-0.346-0.034c-1.026-0.181-1.717-0.973-1.697-1.967c0.021-0.965,0.702-1.69,1.735-1.852
			c0.131-0.022,0.266-0.031,0.399-0.036c-0.136-1.067-0.692-3.071-1.161-4.117c-1.154-2.58-2.896-4.71-5.175-6.33
			c-1.915-1.365-4.129-2.249-6.583-2.634c-0.062-0.009-0.133-0.022-0.203-0.04c0.006,0.081,0.009,0.16,0.003,0.233
			c-0.078,0.899-0.673,1.655-1.449,1.841c-0.889,0.212-1.784-0.194-2.207-0.994c-0.183-0.349-0.232-0.712-0.236-1.067
			c-1.518,0.22-2.935,0.625-4.232,1.21c-2.547,1.145-4.661,2.9-6.287,5.225c-1.328,1.901-2.188,4.086-2.556,6.489
			c-0.008,0.058-0.021,0.12-0.034,0.185c0.043-0.003,0.084-0.005,0.124-0.005c0.991,0.065,1.777,0.688,1.948,1.481
			c0.199,0.915-0.203,1.774-1.024,2.189C55.431,61.562,55.044,61.595,54.767,61.597z"/>
		<path fill="#777266" d="M69.794,79.617c-11.027-0.023-19.959-8.974-19.943-19.985c0.017-11.038,9-19.997,20.012-19.954
			c11.036,0.043,19.959,9.001,19.928,20.003C89.754,70.714,80.799,79.642,69.794,79.617z M85.357,58.045
			c-0.031-1.017-0.707-3.475-1.228-4.636c-1.189-2.654-2.956-4.827-5.324-6.512c-2.035-1.449-4.308-2.323-6.77-2.71
			c-0.245-0.036-0.558-0.155-0.729-0.054c-0.216,0.133-0.065,0.478-0.088,0.732c-0.058,0.646-0.483,1.223-1.03,1.353
			c-0.646,0.153-1.28-0.124-1.593-0.716c-0.185-0.35-0.188-0.738-0.17-1.117c0.014-0.219-0.042-0.302-0.28-0.271
			c-1.627,0.201-3.193,0.616-4.688,1.289c-2.655,1.19-4.807,2.994-6.471,5.373c-1.404,2.015-2.258,4.254-2.63,6.678
			c-0.034,0.246-0.149,0.56-0.046,0.729c0.119,0.193,0.462,0.054,0.703,0.067c0.666,0.047,1.254,0.49,1.374,1.05
			c0.146,0.661-0.137,1.279-0.738,1.585c-0.35,0.175-0.736,0.177-1.12,0.159c-0.2-0.011-0.277,0.039-0.25,0.262
			c0.196,1.597,0.6,3.145,1.253,4.618c1.172,2.643,2.944,4.801,5.298,6.477c2.037,1.448,4.31,2.325,6.771,2.71
			c0.244,0.038,0.558,0.156,0.729,0.055c0.215-0.133,0.065-0.479,0.088-0.73c0.057-0.647,0.482-1.226,1.028-1.354
			c0.648-0.155,1.282,0.122,1.595,0.716c0.185,0.349,0.188,0.738,0.168,1.117c-0.01,0.219,0.04,0.301,0.284,0.27
			c1.627-0.201,3.192-0.614,4.688-1.288c2.651-1.189,4.803-2.995,6.466-5.375c1.406-2.012,2.261-4.251,2.632-6.678
			c0.036-0.245,0.152-0.558,0.047-0.727c-0.119-0.193-0.465-0.04-0.703-0.071c-0.054-0.007-0.106-0.008-0.156-0.02
			c-0.781-0.138-1.274-0.692-1.263-1.421c0.015-0.688,0.503-1.2,1.273-1.318c0.217-0.034,0.443-0.034,0.664-0.032
			C85.309,58.254,85.401,58.219,85.357,58.045z"/>
	</g>
	<g>
		<path fill="#777266" d="M76.907,68.13c-0.348,0.009-0.611-0.147-0.855-0.369c-1.9-1.702-3.805-3.398-5.701-5.104
			c-0.199-0.185-0.395-0.277-0.676-0.285c-1.092-0.032-2.092-0.781-2.43-1.779c-0.385-1.133-0.082-2.303,0.812-3.023
			c0.268-0.215,0.355-0.434,0.369-0.768c0.105-2.341,0.23-4.68,0.355-7.02c0.033-0.662,0.475-1.11,1.051-1.103
			c0.566,0.014,0.979,0.473,1.012,1.144c0.104,2.354,0.207,4.703,0.297,7.059c0.012,0.258,0.088,0.418,0.299,0.573
			c0.664,0.489,1.047,1.154,1.1,1.988c0.014,0.2,0.104,0.341,0.229,0.479c1.734,1.97,3.467,3.944,5.201,5.913
			c0.365,0.416,0.5,0.873,0.254,1.385C77.96,67.765,77.534,68.101,76.907,68.13z"/>
		
			<linearGradient id="SVGID_5_" gradientUnits="userSpaceOnUse" x1="348.3401" y1="586.6584" x2="360.6125" y2="586.6584" gradientTransform="matrix(1 0 0 1 -281.7598 -528.252)">
			<stop  offset="0" style="stop-color:#E6E6E6"/>
			<stop  offset="0.5398" style="stop-color:#FFFFFF"/>
			<stop  offset="1" style="stop-color:#C8C8C8"/>
		</linearGradient>
		<path fill="url(#SVGID_5_)" d="M76.88,68.631c-0.549,0-0.928-0.285-1.164-0.5l-2.136-1.91c-1.188-1.062-2.378-2.126-3.563-3.193
			c-0.128-0.114-0.211-0.15-0.354-0.154c-1.292-0.039-2.479-0.91-2.89-2.119c-0.458-1.354-0.084-2.725,0.977-3.573
			c0.128-0.104,0.173-0.177,0.183-0.397c0.104-2.34,0.229-4.674,0.354-7.009c0.05-0.93,0.692-1.592,1.53-1.592
			c0.871,0.021,1.488,0.688,1.53,1.619c0.104,2.354,0.208,4.708,0.298,7.062c0.006,0.12,0.021,0.135,0.098,0.189
			c0.793,0.587,1.24,1.404,1.301,2.363c0.002,0.038,0.011,0.072,0.102,0.176l5.203,5.916c0.674,0.765,0.551,1.473,0.328,1.932
			c-0.358,0.744-0.961,1.155-1.742,1.191H76.88z M69.823,49.181c-0.312,0-0.521,0.246-0.539,0.627
			c-0.126,2.353-0.25,4.685-0.354,7.018c-0.021,0.495-0.188,0.836-0.554,1.134c-0.727,0.582-0.978,1.527-0.655,2.475
			c0.272,0.811,1.101,1.414,1.969,1.439c0.39,0.011,0.696,0.139,1,0.416c1.184,1.062,2.37,2.126,3.561,3.188l2.138,1.913
			c0.19,0.172,0.333,0.242,0.495,0.242v0.5l0.016-0.501c0.397-0.021,0.682-0.218,0.877-0.626c0.104-0.213,0.152-0.462-0.179-0.838
			l-5.2-5.912c-0.148-0.168-0.329-0.412-0.352-0.777c-0.041-0.676-0.335-1.205-0.896-1.621c-0.327-0.238-0.48-0.533-0.501-0.95
			c-0.09-2.356-0.191-4.706-0.298-7.062C70.333,49.53,70.188,49.19,69.823,49.181z"/>
	</g>
</g>
<path opacity="0.6" fill="#C1BAAC" enable-background="new    " d="M84.097,17.041c0-2.212-1.793-4.006-4.006-4.006h-58.18
	c-2.213,0-4.008,1.794-4.008,4.006V38.8C17.906,41.013,84.097,17.041,84.097,17.041z"/>
<path fill="#777266" d="M63.113,8.292c0-2.213,1.797-4.009,4.012-4.009h2.061c2.213,0,4.01,1.796,4.01,4.009v9.484
	c0,2.215-1.797,4.011-4.01,4.011h-2.061c-2.215,0-4.012-1.796-4.012-4.011V8.292z"/>
<linearGradient id="SVGID_6_" gradientUnits="userSpaceOnUse" x1="344.3704" y1="541.2874" x2="355.4524" y2="541.2874" gradientTransform="matrix(1 0 0 1 -281.7598 -528.252)">
	<stop  offset="0" style="stop-color:#E6E6E6"/>
	<stop  offset="0.5398" style="stop-color:#FFFFFF"/>
	<stop  offset="1" style="stop-color:#C8C8C8"/>
</linearGradient>
<path fill="url(#SVGID_6_)" d="M69.183,22.287h-2.061c-2.487,0-4.512-2.022-4.512-4.511V8.292c0-2.486,2.022-4.509,4.512-4.509
	h2.061c2.486,0,4.51,2.021,4.51,4.509v9.484C73.693,20.265,71.669,22.287,69.183,22.287z M67.122,4.783
	c-1.938,0-3.512,1.572-3.512,3.509v9.484c0,1.937,1.574,3.511,3.512,3.511h2.061c1.938,0,3.51-1.574,3.51-3.511V8.292
	c0-1.937-1.572-3.509-3.51-3.509H67.122z"/>
<path fill="#777266" d="M28.927,8.292c0-2.213,1.795-4.009,4.01-4.009h2.062c2.213,0,4.01,1.796,4.01,4.009v9.484
	c0,2.215-1.797,4.011-4.01,4.011h-2.062c-2.215,0-4.01-1.796-4.01-4.011V8.292z"/>
<linearGradient id="SVGID_7_" gradientUnits="userSpaceOnUse" x1="310.1848" y1="541.2874" x2="321.2668" y2="541.2874" gradientTransform="matrix(1 0 0 1 -281.7598 -528.252)">
	<stop  offset="0" style="stop-color:#E6E6E6"/>
	<stop  offset="0.5398" style="stop-color:#FFFFFF"/>
	<stop  offset="1" style="stop-color:#C8C8C8"/>
</linearGradient>
<path fill="url(#SVGID_7_)" d="M34.997,22.287h-2.062c-2.485,0-4.51-2.022-4.51-4.511V8.292c0-2.486,2.021-4.509,4.51-4.509h2.062
	c2.484,0,4.51,2.021,4.51,4.509v9.484C39.507,20.265,37.484,22.287,34.997,22.287z M32.937,4.783c-1.936,0-3.51,1.572-3.51,3.509
	v9.484c0,1.937,1.574,3.511,3.51,3.511h2.062c1.936,0,3.51-1.574,3.51-3.511V8.292c0-1.937-1.574-3.509-3.51-3.509H32.937z"/>
<path opacity="0.6" fill="#C1BAAC" enable-background="new    " d="M34.707,8.481c1.492,0,2.837,0.622,3.798,1.618
	c0.409-4.035-1.511-5.246-3.593-5.362h-1.861c-2.001,0-3.622,1.622-3.622,3.621v5.401C29.429,10.844,31.792,8.481,34.707,8.481z"/>
<path opacity="0.6" fill="#C1BAAC" enable-background="new    " d="M68.865,8.481c1.49,0,2.838,0.622,3.798,1.618
	c0.407-4.035-1.513-5.246-3.595-5.362h-1.859c-2,0-3.621,1.622-3.621,3.621v5.401C63.587,10.844,65.95,8.481,68.865,8.481z"/>
<linearGradient id="SVGID_8_" gradientUnits="userSpaceOnUse" x1="446.2346" y1="-620.5881" x2="499.9612" y2="-620.5881" gradientTransform="matrix(1 0 0 -1 -422.6396 -594.5981)">
	<stop  offset="0" style="stop-color:#FFFFFF"/>
	<stop  offset="1" style="stop-color:#C8C8C8"/>
</linearGradient>
<rect x="23.595" y="24.607" fill="url(#SVGID_8_)" width="53.727" height="2.767"/>
<linearGradient id="SVGID_9_" gradientUnits="userSpaceOnUse" x1="446.2346" y1="-625.8894" x2="499.9612" y2="-625.8894" gradientTransform="matrix(1 0 0 -1 -422.6396 -594.5981)">
	<stop  offset="0" style="stop-color:#FFFFFF"/>
	<stop  offset="1" style="stop-color:#C8C8C8"/>
</linearGradient>
<rect x="23.595" y="29.908" fill="url(#SVGID_9_)" width="53.727" height="2.766"/>
<linearGradient id="SVGID_10_" gradientUnits="userSpaceOnUse" x1="446.2346" y1="-631.1912" x2="472.3088" y2="-631.1912" gradientTransform="matrix(1 0 0 -1 -422.6396 -594.5981)">
	<stop  offset="0" style="stop-color:#FFFFFF"/>
	<stop  offset="1" style="stop-color:#C8C8C8"/>
</linearGradient>
<rect x="23.595" y="35.21" fill="url(#SVGID_10_)" width="26.074" height="2.766"/>
<linearGradient id="SVGID_11_" gradientUnits="userSpaceOnUse" x1="446.2346" y1="-636.4919" x2="466.9768" y2="-636.4919" gradientTransform="matrix(1 0 0 -1 -422.6396 -594.5981)">
	<stop  offset="0" style="stop-color:#FFFFFF"/>
	<stop  offset="1" style="stop-color:#C8C8C8"/>
</linearGradient>
<rect x="23.595" y="40.511" fill="url(#SVGID_11_)" width="20.742" height="2.766"/>
<linearGradient id="SVGID_12_" gradientUnits="userSpaceOnUse" x1="446.2346" y1="-641.7952" x2="459.2717" y2="-641.7952" gradientTransform="matrix(1 0 0 -1 -422.6396 -594.5981)">
	<stop  offset="0" style="stop-color:#FFFFFF"/>
	<stop  offset="1" style="stop-color:#C8C8C8"/>
</linearGradient>
<rect x="23.595" y="45.813" fill="url(#SVGID_12_)" width="13.037" height="2.769"/>
</svg>
