<?xml version="1.0" encoding="utf-8"?>
<!-- Generator: Adobe Illustrator 16.0.0, SVG Export Plug-In . SVG Version: 6.00 Build 0)  -->
<!DOCTYPE svg PUBLIC "-//W3C//DTD SVG 1.1//EN" "http://www.w3.org/Graphics/SVG/1.1/DTD/svg11.dtd">
<svg version="1.1" id="Layer_1" xmlns="http://www.w3.org/2000/svg" xmlns:xlink="http://www.w3.org/1999/xlink" x="0px" y="0px"
	 width="110.5px" height="115.779px" viewBox="0 0 110.5 115.779" enable-background="new 0 0 110.5 115.779" xml:space="preserve">
<g>
	<g>
		<g>
			<path fill="#787366" d="M72.005,22.856c1.272,1.168,7.619,14.595,7.619,14.595l1.253,1.562l1.096-1.252l-0.314-2.031
				c0,0-0.083-1.41,0.626-2.19c0.706-0.781,2.501-0.782,2.501-0.782s1.945,0.073,3.283,0.938c1.34,0.866,1.598,1.254,1.722,2.032
				s-0.316,1.247-0.781,1.877c-0.464,0.634-2.189,0.938-2.189,0.938l-2.814,0.625l-1.094,2.031l3.283,3.756
				c0,0,2.22,5.172,2.502,7.193c0.279,2.02-0.626,10.632-0.626,10.632s-0.307,15.309-0.78,17.047
				c-0.477,1.738-1.095,2.033-1.095,2.033h-7.507l-0.936-2.033l-4.068-3.752H48.38h-1.91h-25.3l-4.065,3.752l-0.938,2.033H8.659
				c0,0-0.619-0.295-1.094-2.033C7.09,78.091,6.784,62.78,6.784,62.78s-0.906-8.613-0.626-10.632
				c0.281-2.021,2.502-7.193,2.502-7.193l3.285-3.756l-1.095-2.031l-2.816-0.625c0,0-1.724-0.305-2.188-0.938
				c-0.465-0.63-0.906-1.099-0.782-1.877c0.123-0.776,0.381-1.169,1.719-2.032c1.339-0.864,3.283-0.938,3.283-0.938
				s1.794,0.001,2.503,0.782c0.709,0.778,0.626,2.19,0.626,2.19l-0.313,2.031l1.094,1.252l1.252-1.562
				c0,0,6.009-13.429,7.283-14.595H72.005z"/>
			
				<linearGradient id="SVGID_1_" gradientUnits="userSpaceOnUse" x1="21.3364" y1="729.4705" x2="106.9551" y2="729.4705" gradientTransform="matrix(1 0 0 1 -16.7197 -677.1113)">
				<stop  offset="0" style="stop-color:#FFFFFF"/>
				<stop  offset="1" style="stop-color:#C8C8C8"/>
			</linearGradient>
			<path fill="url(#SVGID_1_)" d="M86.29,82.286h-7.875l-1.016-2.203l-3.88-3.584H21.337l-3.881,3.584l-1.017,2.203H8.563
				l-0.087-0.041c-0.133-0.062-0.82-0.473-1.322-2.305c-0.479-1.754-0.779-16.287-0.796-17.129C6.3,62.257,5.456,54.115,5.736,52.09
				c0.286-2.056,2.441-7.091,2.532-7.302l0.027-0.061l3.134-3.582l-0.862-1.602l-2.625-0.582c-0.298-0.055-1.902-0.371-2.442-1.102
				c-0.05-0.068-0.101-0.14-0.151-0.205c-0.415-0.551-0.845-1.121-0.708-1.991c0.152-0.964,0.545-1.442,1.91-2.325
				c1.419-0.916,3.414-1.002,3.499-1.005c0,0,0,0,0.003,0c0.229,0,2.021,0.028,2.83,0.921c0.818,0.9,0.739,2.435,0.734,2.5
				l-0.004,0.04l-0.282,1.837l0.63,0.719l0.898-1.127c0.716-1.597,6.077-13.503,7.364-14.682l0.122-0.11H72.17l0.12,0.11
				c1.286,1.177,6.949,13.102,7.698,14.682l0.902,1.127l0.631-0.719l-0.29-1.877c-0.001-0.062-0.081-1.597,0.735-2.498
				c0.812-0.897,2.613-0.922,2.815-0.923c0.102,0.005,2.094,0.09,3.518,1.007c1.366,0.883,1.757,1.359,1.909,2.323
				c0.139,0.87-0.295,1.44-0.707,1.993c-0.05,0.066-0.1,0.135-0.149,0.203c-0.539,0.733-2.143,1.05-2.459,1.104l-2.607,0.582
				l-0.862,1.602l3.134,3.581l0.027,0.062c0.092,0.214,2.248,5.247,2.532,7.301c0.279,2.023-0.563,10.166-0.621,10.72
				c-0.02,0.846-0.316,15.377-0.796,17.129c-0.502,1.832-1.19,2.242-1.323,2.307L86.29,82.286z M86.879,73.548
				c0.38-1.381,0.682-6.531,0.765-10.773l0.003-0.037c0.012-0.084,0.898-8.581,0.627-10.529c-0.254-1.827-2.196-6.436-2.445-7.021
				l-3.434-3.924l1.326-2.464l3.006-0.667c0.663-0.12,1.69-0.438,1.938-0.776c0.053-0.071,0.104-0.14,0.156-0.211
				c0.414-0.545,0.625-0.856,0.547-1.347c-0.096-0.61-0.256-0.915-1.532-1.74c-1.229-0.794-3.051-0.871-3.071-0.871
				c-0.431,0-1.694,0.119-2.171,0.641c-0.536,0.598-0.519,1.711-0.516,1.865l0.339,2.205l-1.561,1.78l-1.6-2l-0.021-0.042
				c-2.447-5.182-6.351-13.076-7.42-14.352H22.695c-1.053,1.274-4.761,9.165-7.079,14.342l-0.021,0.049l-1.602,2.003l-1.561-1.783
				l0.34-2.205c0.004-0.148,0.022-1.266-0.518-1.862c-0.475-0.523-1.74-0.641-2.188-0.642c0,0.001-1.83,0.08-3.052,0.872
				c-1.277,0.824-1.434,1.133-1.532,1.74c-0.077,0.49,0.136,0.799,0.548,1.347c0.051,0.068,0.105,0.14,0.157,0.211
				c0.251,0.339,1.273,0.656,1.921,0.772l3.024,0.671l1.327,2.464l-3.433,3.924c-0.25,0.584-2.192,5.194-2.446,7.021
				c-0.271,1.947,0.618,10.445,0.627,10.529l0.001,0.037c0.085,4.242,0.107,9.529,0.485,10.912
				c0.314,1.15,13.311,1.967,13.311,1.967h52.843c0,0,11.133-0.836,12.823-1.883C86.785,73.694,86.856,73.622,86.879,73.548z"/>
		</g>
		<path opacity="0.8" fill="#3F3F3F" enable-background="new    " d="M87.201,71.063c0,0,0.533,9.252-1.312,10.281
			c-1.843,1.025-7.194,0.18-7.194,0.18s-0.887-0.461-0.958-2.836c-0.07-2.375,0.029-3.422,0.029-3.422
			c-0.59,0.059,8.939-0.846,9.113-1.719C87.05,72.675,87.222,71.352,87.201,71.063z"/>
		<g opacity="0.8">
			<path fill="#5E5E5E" d="M78.315,38.808c0,0-5.895-15.159-7.648-15.44c-1.452-0.232-17.14-0.463-22.5-0.536
				c0-0.014-0.001-0.024-0.001-0.024s-0.323,0.004-0.89,0.011c-0.568-0.005-0.892-0.011-0.892-0.011s0,0.01,0,0.024
				c-5.359,0.073-21.045,0.304-22.497,0.536c-1.754,0.283-7.65,15.44-7.65,15.44s28.653-0.251,31.038-0.234
				C49.662,38.591,78.315,38.808,78.315,38.808z"/>
			
				<linearGradient id="SVGID_2_" gradientUnits="userSpaceOnUse" x1="32.6475" y1="707.9187" x2="95.3486" y2="707.9187" gradientTransform="matrix(1 0 0 1 -16.7197 -677.1113)">
				<stop  offset="0" style="stop-color:#FFFFFF"/>
				<stop  offset="1" style="stop-color:#C8C8C8"/>
			</linearGradient>
			<path fill="url(#SVGID_2_)" d="M48.167,22.807c0,0,0.002,0.01,0.002,0.024c5.357,0.073,21.045,0.304,22.498,0.536
				c1.754,0.281,7.648,15.437,7.648,15.437s-28.654-0.214-31.037-0.231c-0.082,0-0.193,0-0.336,0
				c-3.977,0-30.701,0.231-30.701,0.231s5.894-15.157,7.648-15.437c1.452-0.232,17.138-0.463,22.496-0.536
				c0-0.016,0.002-0.024,0.002-0.024s0.322,0.003,0.891,0.01C47.844,22.81,48.167,22.807,48.167,22.807 M46.183,22.592v0.027
				c-6.403,0.09-20.904,0.31-22.328,0.538c-0.328,0.053-0.863,0.399-2.088,2.637c-0.71,1.298-1.571,3.086-2.556,5.312
				c-1.676,3.785-3.155,7.581-3.169,7.621l-0.114,0.294l0.314-0.003c0.268-0.003,26.77-0.23,30.701-0.23c0.145,0,0.254,0,0.334,0
				l31.039,0.23l0.313,0.003l-0.117-0.294c-0.012-0.037-1.493-3.836-3.169-7.62c-0.984-2.226-1.843-4.013-2.555-5.311
				c-1.224-2.238-1.759-2.586-2.087-2.639c-1.425-0.227-15.927-0.449-22.329-0.538l-0.002-0.025l-0.205,0.001l-0.892,0.011
				l-0.886-0.011L46.183,22.592L46.183,22.592z"/>
		</g>
		<path opacity="0.6" fill="#C0B9AB" enable-background="new    " d="M71.231,38.808h-6.38c0,0-2.766,4.726-3.402,6.648
			c-0.639,1.924-2.339,7.045-2.339,7.045s6.467,1.166,6.699,0.623c0.113-0.258,0.795-4.121,1.916-7.088
			C68.843,43.072,71.231,38.808,71.231,38.808z"/>
		<path opacity="0.6" fill="#C0B9AB" enable-background="new    " d="M23.858,38.808h6.38c0,0,2.766,4.726,3.402,6.648
			c0.638,1.924,2.339,7.045,2.339,7.045s-6.467,1.166-6.7,0.623c-0.111-0.258-0.794-4.121-1.913-7.088
			C26.248,43.072,23.858,38.808,23.858,38.808z"/>
		<path opacity="0.8" fill="#C0B9AB" enable-background="new    " d="M73.021,64.716c0,0.666-1.008,1.207-2.251,1.207H24.244
			c-1.245,0-2.251-0.541-2.251-1.207v-3.502c0-0.664,1.007-1.205,2.251-1.205h46.527c1.244,0,2.251,0.539,2.251,1.205V64.716z"/>
		
			<linearGradient id="SVGID_3_" gradientUnits="userSpaceOnUse" x1="37.562" y1="737.405" x2="90.9414" y2="737.405" gradientTransform="matrix(1 0 0 1 -16.7197 -677.1113)">
			<stop  offset="0" style="stop-color:#FFFFFF"/>
			<stop  offset="1" style="stop-color:#C8C8C8"/>
		</linearGradient>
		<path fill="url(#SVGID_3_)" d="M68.091,53.831c-3.976-1.664-6.146-1.189-6.146-1.189L47.554,52.17l-0.001-0.003l-0.03,0.001
			l-0.031-0.001v0.003l-14.393,0.472c0,0-2.168-0.475-6.144,1.189c-3.975,1.665-6.065,5.847-6.072,7.292
			c-0.007,1.447-0.505,3.799,2.169,5.629c2.674,1.828,14.89,1.662,18.72,1.662c1.797,0,3.419,0,4.634,0c1.375,0,2.23,0,2.23,0
			c1.216,0,2.839,0,4.636,0c3.831,0,16.045,0.166,18.719-1.662s2.221-4.83,2.169-5.629C74.11,60.325,72.064,55.496,68.091,53.831z"
			/>
		<path opacity="0.8" fill="#5E5E5E" enable-background="new    " d="M66.57,54.548c-3.705-1.491-4.326-1.019-5.726-1.062
			c-1.399-0.045-13.414-0.421-13.414-0.421v-0.006l-0.029,0.004l-0.028-0.004v0.006L33.96,53.486c0,0-2.021-0.427-5.727,1.062
			c-3.705,1.489-5.699,4.832-5.659,6.523c0.042,1.691-0.471,3.398,2.021,5.033c2.493,1.635,13.877,1.488,17.447,1.488
			c1.674,0,3.187,0,4.319,0c1.281,0,2.079,0,2.079,0c1.133,0,2.646,0,4.321,0c3.569,0,14.954,0.146,17.447-1.488
			c2.489-1.635,2.1-4.225,2.021-5.033C72.147,60.262,70.276,56.037,66.57,54.548z"/>
		<g>
			<line fill="none" x1="24.566" y1="56.776" x2="69.872" y2="56.776"/>
			<rect x="24.566" y="56.565" fill="#B1B1B1" width="45.306" height="0.424"/>
		</g>
		<g>
			<line fill="none" x1="23.232" y1="58.62" x2="71.231" y2="58.62"/>
			<rect x="23.232" y="58.407" fill="#B1B1B1" width="47.999" height="0.426"/>
		</g>
		<g>
			<line fill="none" x1="27.259" y1="54.793" x2="67.599" y2="54.793"/>
			<rect x="27.259" y="54.579" fill="#B1B1B1" width="40.34" height="0.424"/>
		</g>
		
			<linearGradient id="SVGID_4_" gradientUnits="userSpaceOnUse" x1="36.501" y1="1476.9431" x2="43.4077" y2="1476.9431" gradientTransform="matrix(1 0 0 1 -25.1348 -1409.6387)">
			<stop  offset="0" style="stop-color:#FFFFFF"/>
			<stop  offset="1" style="stop-color:#C8C8C8"/>
		</linearGradient>
		<path opacity="0.8" fill="url(#SVGID_4_)" enable-background="new    " d="M14.931,70.669c1.879-0.053,3.356-1.559,3.342-3.393
			c-0.014-1.814-1.543-3.322-3.406-3.338c-1.936-0.018-3.58,1.646-3.498,3.52C11.458,69.239,13.1,70.725,14.931,70.669z"/>
		
			<linearGradient id="SVGID_5_" gradientUnits="userSpaceOnUse" x1="101.4414" y1="1476.9431" x2="108.3477" y2="1476.9431" gradientTransform="matrix(1 0 0 1 -25.1348 -1409.6387)">
			<stop  offset="0" style="stop-color:#FFFFFF"/>
			<stop  offset="1" style="stop-color:#C8C8C8"/>
		</linearGradient>
		<path opacity="0.8" fill="url(#SVGID_5_)" enable-background="new    " d="M79.87,70.669c1.878-0.053,3.357-1.559,3.343-3.393
			c-0.014-1.814-1.545-3.322-3.406-3.338c-1.934-0.018-3.58,1.646-3.497,3.52C76.396,69.239,78.038,70.725,79.87,70.669z"/>
		
			<linearGradient id="SVGID_6_" gradientUnits="userSpaceOnUse" x1="41.8535" y1="748.6873" x2="86.418" y2="748.6873" gradientTransform="matrix(1 0 0 1 -16.7197 -677.1113)">
			<stop  offset="0" style="stop-color:#FFFFFF"/>
			<stop  offset="1" style="stop-color:#C8C8C8"/>
		</linearGradient>
		<path opacity="0.8" fill="url(#SVGID_6_)" enable-background="new    " d="M48.175,69.594h-1.518H25.134c0,0,0,2.289,1.064,2.725
			c1.062,0.43,3.687,0.805,5.175,0.928c1.2,0.1,11.38,0.24,15.285,0.291v0.02c0,0,0.277-0.004,0.759-0.012
			c0.48,0.008,0.759,0.012,0.759,0.012v-0.02c3.902-0.051,14.086-0.191,15.286-0.291c1.487-0.123,4.11-0.498,5.175-0.928
			c1.062-0.432,1.062-2.725,1.062-2.725H48.175z"/>
		
			<linearGradient id="SVGID_7_" gradientUnits="userSpaceOnUse" x1="60.5215" y1="727.1101" x2="67.874" y2="727.1101" gradientTransform="matrix(1 0 0 1 -16.7197 -677.1113)">
			<stop  offset="0" style="stop-color:#FFFFFF"/>
			<stop  offset="1" style="stop-color:#C8C8C8"/>
		</linearGradient>
		<path fill="url(#SVGID_7_)" d="M47.797,48.711c0.019,0.003,0.037,0.006,0.056,0.01c0.006,0.007,0.012,0.016,0.018,0.019
			c0.203,0.031,0.379,0.136,0.577,0.186c0.001,0.006,0.003,0.013,0.005,0.019c-0.006,0.021,0.011,0.03,0.023,0.036
			c0.127,0.066,0.23,0.16,0.318,0.265c0.034,0.038,0.064,0.05,0.114,0.049c0.269-0.001,0.538,0,0.808-0.001
			c0.166,0,0.33-0.005,0.496-0.01c0.313,0,0.629,0,0.941-0.001c0.008,0.034-0.021,0.056-0.043,0.08
			c-0.264,0.312-0.564,0.593-0.887,0.855c-0.098,0.08-0.193,0.143-0.328,0.12c-0.274,0-0.545-0.002-0.818-0.002
			c-0.021,0-0.043-0.004-0.055,0.021c-0.035,0.071-0.068,0.145-0.104,0.219c0.11,0.041,0.136-0.039,0.159-0.104
			c0.02-0.059,0.053-0.078,0.117-0.081c0.232-0.009,0.467-0.021,0.701-0.037c0.043,0.004,0.086-0.031,0.148,0.019
			c-0.02,0.006-0.032,0.009-0.043,0.018c-0.151,0.1-0.306,0.198-0.454,0.302c-0.1,0.071-0.204,0.103-0.331,0.093
			c-0.086-0.009-0.171,0.005-0.255-0.003c-0.155-0.013-0.296,0.006-0.396,0.137c-0.008,0.008-0.019,0.012-0.027,0.019
			c-0.375,0.271-0.803,0.383-1.271,0.352c-0.421-0.03-0.793-0.173-1.09-0.467c-0.028-0.024-0.059-0.032-0.095-0.032
			c-0.156,0.001-0.312-0.005-0.465,0.002c-0.106,0.008-0.197-0.019-0.283-0.076c-0.158-0.111-0.33-0.209-0.468-0.34
			c0.007-0.01,0.014-0.015,0.027-0.013c0.285,0.028,0.572,0.024,0.857,0.043c0.057,0.004,0.104,0.004,0.123,0.079
			c0.009-0.109-0.02-0.143-0.105-0.143c-0.285,0-0.569,0-0.854,0c-0.02,0.002-0.05-0.013-0.062,0.021
			c-0.005-0.001-0.013-0.001-0.019-0.001c-0.014-0.016-0.028-0.024-0.05-0.026c-0.004,0-0.007-0.002-0.007-0.005
			c-0.026-0.043-0.069-0.067-0.108-0.096c0-0.003-0.003-0.006-0.007-0.005c-0.004-0.005-0.01-0.01-0.014-0.014
			c-0.039-0.03-0.08-0.061-0.117-0.093c-0.204-0.18-0.382-0.38-0.558-0.581c-0.062-0.074-0.134-0.141-0.171-0.232
			c0.729-0.002,1.459-0.006,2.188-0.006c0.113-0.001,0.244-0.088,0.289-0.196l-0.002,0.001c0.043-0.053,0.117-0.055,0.167-0.098
			c0.065-0.057,0.147-0.084,0.224-0.126c0.127-0.068,0.267-0.114,0.404-0.143c0.143-0.028,0.299-0.044,0.451-0.037
			C47.618,48.704,47.707,48.732,47.797,48.711z M44.721,49.491c-0.01-0.004-0.02-0.012-0.029-0.012c-0.217,0-0.431,0-0.647,0
			c-0.013,0-0.027,0.003-0.024,0.021c0.007,0.003,0.016,0.009,0.021,0.009c0.218,0.013,0.437-0.019,0.653,0.016
			c0.009,0.003,0.019-0.011,0.027-0.016c0.27,0.01,0.539,0.016,0.809,0.021c0.121,0.003,0.241,0.007,0.362,0.01
			c0.028,0.001,0.054-0.006,0.053-0.034c0-0.034-0.031-0.018-0.052-0.02c-0.018-0.002-0.038,0-0.059,0
			C45.465,49.49,45.093,49.49,44.721,49.491z M50.144,49.915c0.104,0.01,0.211-0.009,0.313-0.012c0-0.002,0-0.004-0.001-0.013
			c-0.102-0.01-0.209-0.006-0.312,0.001c-0.303,0-0.607,0.002-0.91,0.003c-0.131,0-0.137,0-0.135,0.123
			c0.004,0.035-0.057,0.108,0.029,0.108c0.076,0.003,0.045-0.073,0.044-0.11c-0.005-0.063,0.022-0.068,0.08-0.068
			C49.55,49.939,49.847,49.926,50.144,49.915z M47.5,48.833c-0.406,0.004-0.766,0.113-1.069,0.363
			c-0.555,0.456-0.547,1.185,0.017,1.614c0.618,0.475,1.641,0.391,2.163-0.176c0.395-0.429,0.375-1.015-0.053-1.413
			C48.262,48.949,47.9,48.839,47.5,48.833z M50.603,49.497c0-0.006,0-0.01,0-0.015c-0.537,0-1.077,0-1.617,0
			c0.025,0.067,0.049,0.13,0.07,0.19c0.006,0.02,0.016,0.033,0.041,0.027c0.031-0.008,0.016-0.027,0.011-0.042
			c-0.011-0.026-0.017-0.052-0.028-0.074c-0.027-0.046-0.013-0.056,0.039-0.056c0.329-0.006,0.656-0.015,0.984-0.021
			C50.269,49.507,50.437,49.501,50.603,49.497z M44.477,49.907c0.006,0.026,0.021,0.021,0.034,0.021
			c0.371,0.012,0.743,0.021,1.116,0.03c0.088,0.003,0.176-0.01,0.176,0.109c0,0.003,0.007,0.005,0.014,0.012
			c0-0.031-0.004-0.062,0.002-0.091c0.016-0.077-0.02-0.093-0.098-0.092c-0.389,0.004-0.777,0.002-1.167,0.003
			C44.528,49.902,44.504,49.905,44.477,49.907z M50.642,49.468c0.104,0.015,0.212,0.053,0.317,0
			C50.854,49.468,50.748,49.468,50.642,49.468z"/>
		<path fill="none" d="M49.896,50.338c0.135,0.021,0.23-0.039,0.328-0.119c0.322-0.263,0.621-0.545,0.887-0.857
			c0.021-0.022,0.051-0.044,0.043-0.079c0.002-0.01,0.002-0.017,0.002-0.021c0.026-0.008,0.055-0.012,0.084,0.005
			c-0.152,0.202-0.322,0.386-0.502,0.558c-0.381,0.369-0.803,0.693-1.265,0.965c-0.044,0.026-0.089,0.038-0.14,0.038
			c-0.167-0.001-0.334,0.003-0.498-0.001c-0.068-0.002-0.118,0.02-0.166,0.062c-0.629,0.558-1.708,0.599-2.377,0.09
			c-0.016-0.012-0.033-0.021-0.045-0.036c-0.082-0.104-0.191-0.13-0.324-0.115c-0.089,0.01-0.179-0.006-0.266,0.003
			c-0.152,0.021-0.277-0.027-0.395-0.113c-0.148-0.106-0.308-0.203-0.445-0.324c0.017-0.006,0.02-0.021,0.021-0.032
			c0.007,0,0.013,0,0.019,0l-0.001-0.003c-0.001,0.015,0.001,0.021,0.019,0.019l-0.003-0.001c0.14,0.134,0.311,0.229,0.468,0.34
			c0.088,0.058,0.178,0.084,0.284,0.076c0.153-0.007,0.308-0.001,0.464-0.002c0.037,0,0.066,0.008,0.096,0.032
			c0.298,0.295,0.668,0.437,1.09,0.467c0.467,0.031,0.895-0.08,1.271-0.352c0.008-0.007,0.02-0.011,0.025-0.019
			c0.101-0.131,0.24-0.147,0.396-0.137c0.085,0.008,0.17-0.006,0.256,0.003c0.125,0.013,0.229-0.02,0.331-0.093
			c0.147-0.104,0.3-0.202,0.45-0.302c0.015-0.009,0.026-0.012,0.046-0.018c-0.062-0.05-0.106-0.015-0.147-0.017
			C49.896,50.35,49.896,50.344,49.896,50.338z"/>
		<path fill="none" d="M46.283,49.103c-0.045,0.109-0.176,0.195-0.289,0.197c-0.729,0.002-1.457,0.004-2.189,0.008
			c-0.02-0.014-0.04-0.018-0.062-0.015c0.011-0.037,0.044-0.021,0.065-0.021c0.327-0.002,0.653,0,0.979-0.002
			c0.414,0,0.828-0.006,1.243-0.006c0.044,0,0.074-0.015,0.105-0.045C46.179,49.177,46.211,49.118,46.283,49.103z"/>
		<path fill="none" d="M47.797,48.711c-0.091,0.021-0.18-0.007-0.27-0.011c-0.153-0.005-0.308,0.01-0.452,0.039
			c-0.137,0.027-0.277,0.074-0.405,0.14c-0.074,0.043-0.158,0.071-0.223,0.128c-0.052,0.042-0.126,0.045-0.167,0.098
			c0.145-0.158,0.338-0.245,0.539-0.316c0.062-0.021,0.126-0.037,0.188-0.055c0.028,0.024,0.04,0.015,0.043-0.019
			c0.211-0.035,0.425-0.054,0.641-0.034C47.729,48.685,47.771,48.673,47.797,48.711z"/>
		<path fill="none" d="M43.742,49.293c0.023-0.003,0.044,0.001,0.062,0.015c0.039,0.088,0.111,0.158,0.173,0.23
			c0.175,0.204,0.354,0.402,0.558,0.58c0.037,0.032,0.077,0.062,0.117,0.093c-0.019,0.003-0.036,0.005-0.053,0.006
			c-0.325-0.261-0.6-0.567-0.846-0.894C43.749,49.312,43.747,49.302,43.742,49.293z"/>
		<path fill="#787366" d="M47.5,48.833c0.399,0.006,0.762,0.116,1.054,0.389c0.432,0.398,0.449,0.984,0.055,1.413
			c-0.521,0.566-1.543,0.65-2.162,0.176c-0.563-0.43-0.57-1.161-0.018-1.614C46.736,48.947,47.095,48.837,47.5,48.833z
			 M47.531,48.898c-0.343,0-0.629,0.072-0.887,0.234c-0.703,0.436-0.709,1.271-0.018,1.693c0.545,0.335,1.351,0.264,1.82-0.157
			c0.472-0.42,0.473-1.046-0.002-1.445C48.175,48.997,47.853,48.902,47.531,48.898z"/>
		<path fill="#E8E7E7" d="M50.642,49.468c0.104,0,0.212,0,0.317,0C50.853,49.52,50.748,49.482,50.642,49.468z"/>
		<path fill="#F9F9F9" d="M44.854,50.352c0.012,0.004,0.027-0.003,0.019,0.02C44.856,50.374,44.853,50.367,44.854,50.352z"/>
		<path fill="#E8E7E7" d="M47.531,48.898c0.322,0.004,0.646,0.099,0.916,0.326c0.477,0.401,0.473,1.024,0.001,1.445
			c-0.471,0.421-1.275,0.494-1.82,0.157c-0.692-0.422-0.687-1.255,0.018-1.693C46.902,48.97,47.187,48.898,47.531,48.898z
			 M47.411,50.968c0.312,0.007,0.624-0.088,0.876-0.262c0.59-0.407,0.58-1.155-0.023-1.537c-0.506-0.322-1.252-0.277-1.711,0.103
			c-0.484,0.402-0.485,1.024,0.002,1.413C46.798,50.882,47.091,50.963,47.411,50.968z"/>
		<path fill="#787366" d="M47.411,50.969c-0.319-0.006-0.612-0.087-0.856-0.284c-0.487-0.389-0.486-1.012-0.002-1.413
			c0.457-0.38,1.205-0.425,1.711-0.103c0.605,0.382,0.615,1.131,0.023,1.537C48.035,50.88,47.722,50.975,47.411,50.969z
			 M46.521,49.921c0.006-0.002,0.012-0.002,0.016-0.002c0.034,0.078,0.07,0.152,0.103,0.231c0.011,0.026,0.021,0.054,0.062,0.051
			c0.038-0.001,0.071,0.002,0.094-0.043c0.034-0.069,0.076-0.138,0.115-0.206c0.009-0.014,0.014-0.031,0.033-0.024
			c0.021,0.004,0.016,0.022,0.016,0.038c-0.003,0.058-0.006,0.114-0.01,0.173c-0.003,0.033-0.01,0.074,0.049,0.06
			c0.041-0.011,0.118,0.046,0.121-0.053c0.006-0.154,0.016-0.305,0.021-0.457c0-0.021,0.007-0.039-0.01-0.057
			c-0.033-0.023-0.199,0.009-0.222,0.046c-0.058,0.096-0.112,0.189-0.171,0.287c-0.01-0.008-0.014-0.012-0.015-0.013
			c-0.031-0.066-0.062-0.133-0.093-0.2c-0.059-0.128-0.059-0.127-0.202-0.122c-0.038,0.001-0.052,0.014-0.055,0.049
			c-0.011,0.153-0.028,0.306-0.042,0.459c-0.002,0.025-0.021,0.073,0.037,0.061c0.045-0.011,0.123,0.049,0.132-0.054
			C46.506,50.073,46.517,49.997,46.521,49.921z M48.067,49.959c-0.099-0.11-0.185-0.2-0.265-0.297
			c-0.053-0.059-0.121-0.037-0.18-0.03c-0.039,0.008-0.017,0.061-0.02,0.09c-0.006,0.139-0.004,0.277-0.012,0.416
			c-0.002,0.05,0.011,0.073,0.066,0.063c0.043-0.01,0.112,0.03,0.105-0.06c-0.006-0.086,0-0.173,0-0.258
			c0.102,0.088,0.188,0.175,0.264,0.27c0.053,0.068,0.121,0.045,0.186,0.045c0.027,0.003,0.024-0.021,0.024-0.038
			c-0.001-0.161-0.006-0.325-0.007-0.486c-0.002-0.079-0.062-0.038-0.098-0.044c-0.034-0.008-0.072-0.01-0.068,0.045
			C48.072,49.764,48.067,49.851,48.067,49.959z M48.552,49.921c-0.004,0-0.01,0-0.015,0c0-0.08,0-0.162,0-0.242
			c0-0.094-0.075-0.043-0.117-0.054c-0.046-0.011-0.06,0.011-0.06,0.058c0.008,0.135,0.008,0.268,0.012,0.406
			c0.004,0.124,0.004,0.122,0.137,0.112c0.034-0.003,0.045-0.014,0.045-0.048C48.552,50.077,48.552,49.999,48.552,49.921z
			 M47.289,49.923c-0.005,0-0.012,0-0.018,0c0,0.076,0.004,0.148-0.003,0.225c-0.001,0.043,0.013,0.059,0.056,0.054
			c0.021-0.003,0.045-0.003,0.065,0c0.038,0.005,0.059-0.006,0.059-0.051c0.001-0.156,0.007-0.31,0.015-0.466
			c0.002-0.045-0.016-0.064-0.061-0.057c-0.039,0.013-0.113-0.04-0.112,0.055C47.29,49.764,47.289,49.843,47.289,49.923z"/>
		
			<linearGradient id="SVGID_8_" gradientUnits="userSpaceOnUse" x1="63.0469" y1="727.0281" x2="63.8623" y2="727.0281" gradientTransform="matrix(1 0 0 1 -16.7197 -677.1113)">
			<stop  offset="0" style="stop-color:#FFFFFF"/>
			<stop  offset="1" style="stop-color:#C8C8C8"/>
		</linearGradient>
		<path fill="url(#SVGID_8_)" d="M46.521,49.921c-0.004,0.076-0.015,0.15-0.021,0.227c-0.007,0.1-0.087,0.041-0.132,0.053
			c-0.059,0.013-0.039-0.034-0.036-0.062c0.015-0.152,0.03-0.306,0.042-0.458c0.004-0.034,0.017-0.049,0.055-0.05
			c0.143-0.003,0.143-0.006,0.203,0.122c0.029,0.067,0.06,0.136,0.091,0.2c0.003,0.003,0.006,0.006,0.015,0.013
			c0.06-0.097,0.115-0.191,0.172-0.285c0.023-0.039,0.188-0.071,0.222-0.045c0.017,0.017,0.01,0.035,0.009,0.054
			c-0.006,0.152-0.016,0.305-0.021,0.458c-0.003,0.1-0.079,0.041-0.121,0.054c-0.059,0.013-0.053-0.027-0.05-0.062
			c0.006-0.057,0.008-0.113,0.012-0.171c0-0.017,0.006-0.034-0.016-0.04c-0.021-0.007-0.025,0.015-0.033,0.024
			c-0.04,0.068-0.083,0.139-0.115,0.207c-0.021,0.044-0.057,0.041-0.096,0.044c-0.04,0.003-0.051-0.022-0.062-0.051
			c-0.031-0.079-0.067-0.154-0.102-0.232C46.533,49.919,46.527,49.919,46.521,49.921z M46.937,49.91
			c0.006,0.003,0.009,0.009,0.014,0.012c0.004-0.009,0.008-0.013,0.01-0.021c0.001-0.002-0.006-0.007-0.01-0.011
			C46.946,49.898,46.943,49.904,46.937,49.91z"/>
		
			<linearGradient id="SVGID_9_" gradientUnits="userSpaceOnUse" x1="64.3115" y1="727.0242" x2="64.9584" y2="727.0242" gradientTransform="matrix(1 0 0 1 -16.7197 -677.1113)">
			<stop  offset="0" style="stop-color:#FFFFFF"/>
			<stop  offset="1" style="stop-color:#C8C8C8"/>
		</linearGradient>
		<path fill="url(#SVGID_9_)" d="M48.067,49.959c0-0.108,0.005-0.195,0-0.285c-0.005-0.056,0.034-0.052,0.068-0.046
			c0.034,0.008,0.096-0.034,0.097,0.045c0.002,0.16,0.006,0.324,0.008,0.485c0,0.019,0.002,0.042-0.024,0.04
			c-0.064-0.001-0.134,0.021-0.186-0.045c-0.075-0.098-0.163-0.183-0.264-0.271c0,0.087-0.006,0.174,0,0.258
			c0.007,0.093-0.063,0.053-0.106,0.061c-0.057,0.011-0.068-0.015-0.064-0.062c0.006-0.141,0.006-0.278,0.011-0.416
			c0.003-0.031-0.02-0.084,0.021-0.091c0.059-0.006,0.127-0.027,0.178,0.03C47.882,49.759,47.968,49.849,48.067,49.959z"/>
		
			<linearGradient id="SVGID_10_" gradientUnits="userSpaceOnUse" x1="65.0801" y1="727.0242" x2="65.2734" y2="727.0242" gradientTransform="matrix(1 0 0 1 -16.7197 -677.1113)">
			<stop  offset="0" style="stop-color:#FFFFFF"/>
			<stop  offset="1" style="stop-color:#C8C8C8"/>
		</linearGradient>
		<path fill="url(#SVGID_10_)" d="M48.552,49.921c0,0.078,0,0.156,0.002,0.232c0,0.034-0.012,0.045-0.048,0.048
			c-0.132,0.01-0.132,0.012-0.134-0.112c-0.004-0.139-0.004-0.271-0.012-0.406c0-0.047,0.014-0.066,0.06-0.058
			c0.04,0.011,0.114-0.04,0.114,0.054c0,0.08,0,0.162,0,0.242C48.542,49.921,48.548,49.921,48.552,49.921z"/>
		
			<linearGradient id="SVGID_11_" gradientUnits="userSpaceOnUse" x1="63.9893" y1="727.0251" x2="64.1807" y2="727.0251" gradientTransform="matrix(1 0 0 1 -16.7197 -677.1113)">
			<stop  offset="0" style="stop-color:#FFFFFF"/>
			<stop  offset="1" style="stop-color:#C8C8C8"/>
		</linearGradient>
		<path fill="url(#SVGID_11_)" d="M47.289,49.923c0-0.08,0.001-0.159,0-0.24c-0.002-0.095,0.072-0.042,0.113-0.055
			c0.045-0.01,0.062,0.012,0.059,0.057c-0.007,0.156-0.013,0.31-0.013,0.466c-0.001,0.045-0.021,0.056-0.06,0.051
			c-0.021-0.003-0.045-0.003-0.066,0c-0.041,0.005-0.057-0.011-0.054-0.054c0.006-0.076,0.001-0.148,0.001-0.225
			C47.277,49.923,47.284,49.923,47.289,49.923z"/>
		<path fill="#2B2B2B" d="M46.937,49.91c0.006-0.007,0.009-0.013,0.014-0.02c0.004,0.004,0.011,0.009,0.01,0.011
			c-0.002,0.008-0.006,0.012-0.01,0.021C46.946,49.918,46.943,49.913,46.937,49.91z"/>
		<path opacity="0.8" fill="#C0B9AB" enable-background="new    " d="M61.006,64.788c0,0.666-0.539,1.207-1.207,1.207H34.881
			c-0.666,0-1.205-0.539-1.205-1.207v-3.502c0-0.664,0.539-1.205,1.205-1.205h24.917c0.666,0,1.207,0.541,1.207,1.205V64.788z"/>
		<g>
			<path fill="#C0B9AB" d="M66.218,20.195c-1.676-0.049-10.381-0.531-19.055-0.531c-8.675,0-17.322,0.482-18.997,0.531
				c-3.583,0.107-5.887,2.235-5.887,2.235h24.343h1.137h24.342C72.102,22.429,69.8,20.303,66.218,20.195z"/>
		</g>
		<g>
			<line fill="none" x1="47.394" y1="19.742" x2="47.394" y2="16.587"/>
			
				<linearGradient id="SVGID_12_" gradientUnits="userSpaceOnUse" x1="63.793" y1="695.2761" x2="64.4316" y2="695.2761" gradientTransform="matrix(1 0 0 1 -16.7197 -677.1113)">
				<stop  offset="0" style="stop-color:#FFFFFF"/>
				<stop  offset="1" style="stop-color:#C8C8C8"/>
			</linearGradient>
			<rect x="47.074" y="16.587" fill="url(#SVGID_12_)" width="0.639" height="3.155"/>
		</g>
		<g>
			<line fill="none" x1="47.394" y1="12.41" x2="47.394" y2="16.624"/>
			
				<linearGradient id="SVGID_13_" gradientUnits="userSpaceOnUse" x1="64.0059" y1="691.6296" x2="64.2188" y2="691.6296" gradientTransform="matrix(1 0 0 1 -16.7197 -677.1113)">
				<stop  offset="0" style="stop-color:#FFFFFF"/>
				<stop  offset="1" style="stop-color:#C8C8C8"/>
			</linearGradient>
			<rect x="47.287" y="12.41" fill="url(#SVGID_13_)" width="0.214" height="4.214"/>
		</g>
		
			<linearGradient id="SVGID_14_" gradientUnits="userSpaceOnUse" x1="88.8428" y1="726.2869" x2="101.5664" y2="726.2869" gradientTransform="matrix(1 0 0 1 -16.7197 -677.1113)">
			<stop  offset="0" style="stop-color:#FFFFFF"/>
			<stop  offset="1" style="stop-color:#C8C8C8"/>
		</linearGradient>
		<path fill="url(#SVGID_14_)" d="M75.374,43.652c-1.164,0.328-4.964,2.201-2.354,6.83c2.608,4.63,6.216,4.349,6.216,4.349
			s6.29,0.305,5.55-5.704C84.043,43.115,76.538,43.323,75.374,43.652z"/>
		
			<linearGradient id="SVGID_15_" gradientUnits="userSpaceOnUse" x1="89.9541" y1="726.0818" x2="101.085" y2="726.0818" gradientTransform="matrix(1 0 0 1 -16.7197 -677.1113)">
			<stop  offset="0" style="stop-color:#A8A8A8"/>
			<stop  offset="0.3438" style="stop-color:#ABABAB"/>
			<stop  offset="0.5634" style="stop-color:#B4B4B4"/>
			<stop  offset="0.7481" style="stop-color:#C2C2C2"/>
			<stop  offset="0.9126" style="stop-color:#D7D7D7"/>
			<stop  offset="1" style="stop-color:#E6E6E6"/>
		</linearGradient>
		<path fill="url(#SVGID_15_)" d="M84.365,49.584c0,3.289-1.475,4.386-4.627,4.386s-6.504-2.33-6.504-5.621
			c0-3.288,1.224-4.379,4.377-4.379C80.763,43.97,84.365,46.293,84.365,49.584z"/>
		<path opacity="0.4" fill="#C0B9AB" enable-background="new    " d="M58.748,38.414c0,0-0.768,0.183-1.373-1.372
			c-0.607-1.559-0.229-4.521,0-5.418c0.227-0.897,0.974-1.785,3.447-1.693c0,0,3.209-0.154,3.603,1.615s0.582,5.836,0,6.227
			C63.843,38.16,63.912,38.597,58.748,38.414z"/>
		<path fill="#5E5E5E" d="M56.968,38.699c0,0,3.58-3.227,8.188,0h3.121c0,0-6.913-7.657-14.322,0H56.968z"/>
		
			<linearGradient id="SVGID_16_" gradientUnits="userSpaceOnUse" x1="-779.4482" y1="726.7898" x2="-766.7251" y2="726.7898" gradientTransform="matrix(-1 0 0 1 -756.8477 -677.1113)">
			<stop  offset="0" style="stop-color:#FFFFFF"/>
			<stop  offset="1" style="stop-color:#C8C8C8"/>
		</linearGradient>
		<path fill="url(#SVGID_16_)" d="M19.351,44.156c1.164,0.328,4.962,2.201,2.352,6.826c-2.607,4.633-6.214,4.351-6.214,4.351
			s-6.292,0.306-5.55-5.704C10.68,43.617,18.188,43.827,19.351,44.156z"/>
		
			<linearGradient id="SVGID_17_" gradientUnits="userSpaceOnUse" x1="-778.3384" y1="726.5847" x2="-767.207" y2="726.5847" gradientTransform="matrix(-1 0 0 1 -756.8477 -677.1113)">
			<stop  offset="0" style="stop-color:#A8A8A8"/>
			<stop  offset="0.3438" style="stop-color:#ABABAB"/>
			<stop  offset="0.5634" style="stop-color:#B4B4B4"/>
			<stop  offset="0.7481" style="stop-color:#C2C2C2"/>
			<stop  offset="0.9126" style="stop-color:#D7D7D7"/>
			<stop  offset="1" style="stop-color:#E6E6E6"/>
		</linearGradient>
		<path fill="url(#SVGID_17_)" d="M10.359,50.089c0,3.285,1.475,4.385,4.627,4.385s6.504-2.332,6.504-5.62
			c0-3.289-1.225-4.382-4.377-4.382S10.359,46.8,10.359,50.089z"/>
		
			<linearGradient id="SVGID_18_" gradientUnits="userSpaceOnUse" x1="37.4463" y1="737.7429" x2="90.8252" y2="737.7429" gradientTransform="matrix(1 0 0 1 -16.7197 -677.1113)">
			<stop  offset="0" style="stop-color:#FFFFFF"/>
			<stop  offset="1" style="stop-color:#C8C8C8"/>
		</linearGradient>
		<path fill="url(#SVGID_18_)" d="M47.406,53.781l14.381,0.474l0.142,0.016l0.165-0.042c0.047-0.008,0.243-0.035,0.58-0.035
			c0.768,0,2.41,0.149,4.807,1.152c3.296,1.381,5.149,5.457,5.295,6.226c0.002,0.055,0.007,0.115,0.014,0.184
			c0.074,0.895,0.25,2.992-1.632,4.277c-0.79,0.539-3.885,1.445-15.739,1.445c-0.501,0-0.963,0-1.372,0
			c-0.334-0.002-0.631-0.004-0.891-0.004h-4.635h-2.23h-4.635c-0.259,0-0.556,0.002-0.887,0.004c-0.409,0-0.872,0-1.372,0
			c-11.854,0-14.951-0.904-15.739-1.445c-1.754-1.199-1.691-2.59-1.633-3.934c0.01-0.221,0.019-0.428,0.02-0.635
			c0.001-0.311,0.334-1.455,1.312-2.83c0.75-1.056,2.05-2.486,3.975-3.292c2.396-1.001,4.041-1.152,4.81-1.152
			c0.335,0,0.532,0.028,0.578,0.036l0.127,0.032l0.18-0.006L47.406,53.781 M47.438,52.504h-0.032h-0.031v0.001l-14.393,0.474
			c0,0-0.285-0.062-0.841-0.062c-0.973,0-2.771,0.192-5.3,1.251c-3.976,1.665-6.065,5.846-6.072,7.295
			c-0.007,1.445-0.505,3.797,2.168,5.627c2.27,1.549,11.402,1.668,16.46,1.668c0.904,0,1.677-0.004,2.259-0.004
			c1.799,0,3.42,0,4.635,0c1.375,0,2.23,0,2.23,0c1.215,0,2.838,0,4.635,0c0.582,0,1.357,0.004,2.26,0.004
			c5.059,0,14.193-0.119,16.46-1.668c2.676-1.83,2.22-4.828,2.169-5.627c-0.052-0.799-2.096-5.63-6.071-7.295
			c-2.527-1.057-4.327-1.251-5.3-1.251c-0.557,0-0.845,0.062-0.845,0.062l-14.391-0.472V52.504L47.438,52.504z"/>
		<path opacity="0.8" fill="#3F3F3F" enable-background="new    " d="M7.422,71.094c0,0-0.532,9.25,1.311,10.281
			c1.843,1.027,7.196,0.18,7.196,0.18s0.887-0.461,0.957-2.84c0.071-2.371-0.027-3.42-0.027-3.42
			c0.587,0.061-8.94-0.844-9.113-1.717C7.572,72.706,7.401,71.385,7.422,71.094z"/>
		<path opacity="0.4" fill="#C0B9AB" enable-background="new    " d="M29.731,38.656c0,0-0.768,0.183-1.374-1.372
			c-0.608-1.558-0.23-4.52,0-5.418c0.228-0.898,0.976-1.786,3.447-1.693c0,0,3.209-0.154,3.603,1.615
			c0.395,1.77,0.585,5.838,0,6.227C34.825,38.406,34.895,38.839,29.731,38.656z"/>
		
			<linearGradient id="SVGID_19_" gradientUnits="userSpaceOnUse" x1="28.3911" y1="725.5789" x2="36.6245" y2="725.5789" gradientTransform="matrix(1 0 0 1 -16.7197 -677.1113)">
			<stop  offset="0" style="stop-color:#A8A8A8"/>
			<stop  offset="0.3438" style="stop-color:#ABABAB"/>
			<stop  offset="0.5634" style="stop-color:#B4B4B4"/>
			<stop  offset="0.7481" style="stop-color:#C2C2C2"/>
			<stop  offset="0.9126" style="stop-color:#D7D7D7"/>
			<stop  offset="1" style="stop-color:#E6E6E6"/>
		</linearGradient>
		<ellipse fill="url(#SVGID_19_)" cx="15.788" cy="48.467" rx="4.117" ry="3.7"/>
		
			<linearGradient id="SVGID_20_" gradientUnits="userSpaceOnUse" x1="28.1587" y1="728.9958" x2="36.5166" y2="728.9958" gradientTransform="matrix(1 0 0 1 -16.7197 -677.1113)">
			<stop  offset="0" style="stop-color:#828282"/>
			<stop  offset="0.4033" style="stop-color:#858585"/>
			<stop  offset="0.6608" style="stop-color:#8D8D8D"/>
			<stop  offset="0.8768" style="stop-color:#9C9C9C"/>
			<stop  offset="1" style="stop-color:#A8A8A8"/>
		</linearGradient>
		<path fill="url(#SVGID_20_)" d="M15.788,53.372c1.336,0,2.691-0.502,3.53-1.114c1.158-0.843-0.064-1.946-0.75-1.239
			c-0.482,0.498-1.61,0.973-2.78,0.973c-1.341,0-2.623-0.462-3.151-1.292c-0.526-0.833-1.691,0.226-0.968,1.069
			C12.129,52.307,13.666,53.372,15.788,53.372z"/>
		
			<linearGradient id="SVGID_21_" gradientUnits="userSpaceOnUse" x1="31.5322" y1="726.9011" x2="38.2104" y2="726.9011" gradientTransform="matrix(1 0 0 1 -16.7197 -677.1113)">
			<stop  offset="0" style="stop-color:#FFFFFF"/>
			<stop  offset="1" style="stop-color:#C8C8C8"/>
		</linearGradient>
		<path opacity="0.2" fill="url(#SVGID_21_)" enable-background="new    " d="M20.084,45.111c-2.33,1.25-5.44,3.441-5.265,6.18
			c0.085,1.296,0.194,2.336,0.339,3.179c3.101-0.082,6.332-2.388,6.332-5.615C21.491,46.924,21.068,45.753,20.084,45.111z"/>
		
			<linearGradient id="SVGID_22_" gradientUnits="userSpaceOnUse" x1="-1341.4648" y1="725.5789" x2="-1333.2324" y2="725.5789" gradientTransform="matrix(-1 0 0 1 -1258.0723 -677.1113)">
			<stop  offset="0" style="stop-color:#A8A8A8"/>
			<stop  offset="0.3438" style="stop-color:#ABABAB"/>
			<stop  offset="0.5634" style="stop-color:#B4B4B4"/>
			<stop  offset="0.7481" style="stop-color:#C2C2C2"/>
			<stop  offset="0.9126" style="stop-color:#D7D7D7"/>
			<stop  offset="1" style="stop-color:#E6E6E6"/>
		</linearGradient>
		<ellipse fill="url(#SVGID_22_)" cx="79.276" cy="48.467" rx="4.116" ry="3.7"/>
		
			<linearGradient id="SVGID_23_" gradientUnits="userSpaceOnUse" x1="-1341.6997" y1="728.9968" x2="-1333.3408" y2="728.9968" gradientTransform="matrix(-1 0 0 1 -1258.0723 -677.1113)">
			<stop  offset="0" style="stop-color:#828282"/>
			<stop  offset="0.4033" style="stop-color:#858585"/>
			<stop  offset="0.6608" style="stop-color:#8D8D8D"/>
			<stop  offset="0.8768" style="stop-color:#9C9C9C"/>
			<stop  offset="1" style="stop-color:#A8A8A8"/>
		</linearGradient>
		<path fill="url(#SVGID_23_)" d="M79.276,53.372c-1.337,0-2.693-0.502-3.529-1.114c-1.158-0.843,0.063-1.946,0.749-1.239
			c0.48,0.498,1.613,0.973,2.78,0.973c1.338,0,2.623-0.462,3.15-1.292c0.528-0.832,1.692,0.227,0.972,1.069
			C82.937,52.307,81.398,53.372,79.276,53.372z"/>
		
			<linearGradient id="SVGID_24_" gradientUnits="userSpaceOnUse" x1="-1338.3247" y1="726.9011" x2="-1331.6484" y2="726.9011" gradientTransform="matrix(-1 0 0 1 -1258.0723 -677.1113)">
			<stop  offset="0" style="stop-color:#FFFFFF"/>
			<stop  offset="1" style="stop-color:#C8C8C8"/>
		</linearGradient>
		<path opacity="0.2" fill="url(#SVGID_24_)" enable-background="new    " d="M74.983,45.111c2.327,1.25,5.438,3.441,5.262,6.18
			c-0.084,1.296-0.194,2.336-0.338,3.179c-3.1-0.082-6.331-2.388-6.331-5.615C73.574,46.924,73.997,45.753,74.983,45.111z"/>
		<path fill="#5E5E5E" d="M85.587,71.522c-0.682,1.332-3.766,1.561-7.022,2.02c-2.846,0.402-23.474,0.832-31.163,0.936
			c-7.689-0.104-28.319-0.533-31.163-0.936c-3.258-0.459-6.34-0.688-7.022-2.02S7.445,61.315,6.718,57.264
			c0.198,2.709,0.482,5.426,0.488,5.471l0.001,0.037c0.085,4.238,0.107,9.527,0.485,10.91c0.314,1.15,13.311,1.965,13.311,1.965
			h22.707h7.384h22.705c0,0,12.997-0.814,13.312-1.965c0.376-1.383,0.396-6.668,0.483-10.91l0.004-0.037
			c0.003-0.051,0.288-2.764,0.485-5.471C87.361,61.315,86.269,70.19,85.587,71.522z"/>
	</g>
	<g>
		<g>
			<g>
				<g>
					<g>
						<path fill="#FFFFFF" d="M85.777,103.368h-2.82c-1.752,0-3.174-1.422-3.174-3.172v-3.158c-1.048-0.316-2.057-0.736-3.007-1.252
							l-2.278,2.277c-0.603,0.604-1.402,0.934-2.254,0.934c-0.853,0-1.654-0.332-2.257-0.934l-2.006-2.008
							c-0.603-0.602-0.933-1.402-0.933-2.254s0.33-1.654,0.933-2.256l2.324-2.324c-0.455-0.865-0.832-1.799-1.125-2.781h-3.159
							c-1.751,0-3.175-1.424-3.175-3.174v-2.822c0-1.75,1.423-3.174,3.175-3.174h3.16c0.304-1.012,0.703-1.982,1.189-2.895
							l-2.387-2.389c-0.604-0.604-0.935-1.404-0.935-2.258c0-0.852,0.331-1.652,0.935-2.254l2.006-2.006
							c0.603-0.604,1.401-0.936,2.254-0.936c0.854,0,1.654,0.332,2.254,0.936l2.392,2.389c0.907-0.484,1.879-0.885,2.894-1.189
							V63.51c0-1.75,1.422-3.176,3.174-3.176h2.822c1.752,0,3.174,1.426,3.174,3.176v3.156c0.985,0.297,1.918,0.674,2.782,1.125
							l2.325-2.324c0.602-0.602,1.402-0.934,2.254-0.934s1.653,0.332,2.254,0.934l2.008,2.006c0.603,0.605,0.933,1.404,0.933,2.258
							s-0.332,1.652-0.933,2.254l-2.277,2.277c0.517,0.951,0.939,1.959,1.254,3.006h3.156c1.752,0,3.175,1.426,3.175,3.174v2.822
							c0,1.752-1.423,3.176-3.175,3.176h-3.156c-0.307,1.016-0.705,1.984-1.191,2.895l2.213,2.213
							c0.6,0.602,0.932,1.402,0.932,2.256c0,0.85-0.332,1.654-0.932,2.252l-2.008,2.008c-0.602,0.604-1.402,0.936-2.255,0.936
							c-0.851,0-1.651-0.334-2.252-0.936l-2.213-2.213c-0.911,0.486-1.88,0.885-2.896,1.191v3.16
							C88.953,101.944,87.529,103.368,85.777,103.368z M76.656,94.905l0.234,0.133c1.045,0.596,2.17,1.064,3.339,1.396l0.258,0.072
							v3.688c0,1.361,1.108,2.467,2.47,2.467h2.824c1.361,0,2.467-1.105,2.467-2.467v-3.688l0.258-0.072
							c1.143-0.324,2.23-0.773,3.234-1.332l0.232-0.129l2.586,2.586c0.938,0.939,2.572,0.939,3.512,0l2.008-2.006
							c0.467-0.471,0.728-1.094,0.728-1.756c0-0.666-0.259-1.289-0.728-1.758l-2.588-2.588l0.131-0.232
							c0.56-1.006,1.008-2.092,1.33-3.234l0.074-0.256h3.689c1.361,0,2.469-1.105,2.469-2.469v-2.822
							c0-1.361-1.107-2.469-2.469-2.469h-3.689l-0.074-0.254c-0.33-1.176-0.802-2.299-1.394-3.342l-0.136-0.234l2.658-2.656
							c0.469-0.469,0.729-1.094,0.729-1.756c0-0.664-0.26-1.289-0.729-1.758l-2.006-2.006c-0.938-0.939-2.574-0.939-3.512,0
							l-2.697,2.693l-0.23-0.125c-0.956-0.523-2.01-0.949-3.127-1.266l-0.258-0.07v-3.688c0-1.361-1.106-2.471-2.469-2.471h-2.822
							c-1.362,0-2.469,1.109-2.469,2.471v3.689l-0.259,0.072C79.09,67.593,78.002,68.042,77,68.6l-0.233,0.131l-2.765-2.764
							c-0.937-0.939-2.571-0.939-3.51,0l-2.004,2.008c-0.469,0.467-0.728,1.09-0.728,1.756c0,0.662,0.259,1.287,0.728,1.758
							l2.764,2.764l-0.131,0.23c-0.561,1.008-1.006,2.096-1.33,3.234l-0.074,0.256h-3.688c-1.363,0-2.47,1.109-2.47,2.469v2.822
							c0,1.365,1.106,2.471,2.47,2.471h3.688l0.074,0.258c0.314,1.109,0.74,2.164,1.266,3.125l0.127,0.23l-2.695,2.695
							c-0.468,0.471-0.727,1.092-0.727,1.758c0,0.662,0.259,1.287,0.727,1.756l2.004,2.006c0.938,0.939,2.575,0.939,3.512,0
							L76.656,94.905z M84.369,90.669c-4.863,0-8.82-3.953-8.82-8.816c0-4.865,3.957-8.818,8.82-8.818
							c4.861,0,8.816,3.955,8.816,8.818S89.231,90.669,84.369,90.669z M84.369,73.737c-4.475,0-8.113,3.641-8.113,8.115
							c0,4.473,3.639,8.111,8.113,8.111c4.474,0,8.112-3.639,8.112-8.111C92.48,77.378,88.843,73.737,84.369,73.737z"/>
						<path fill="#777266" d="M105.181,80.44c0-1.359-1.108-2.469-2.47-2.469h-3.688l-0.073-0.256
							c-0.332-1.172-0.802-2.297-1.395-3.342l-0.133-0.234l2.656-2.654c0.469-0.471,0.729-1.094,0.729-1.758
							s-0.26-1.289-0.729-1.758l-2.006-2.006c-0.939-0.939-2.574-0.939-3.512,0l-2.697,2.695l-0.23-0.127
							c-0.956-0.523-2.01-0.947-3.127-1.264l-0.258-0.072v-3.688c0-1.361-1.106-2.471-2.47-2.471h-2.821
							c-1.362,0-2.47,1.107-2.47,2.471v3.688l-0.258,0.072c-1.142,0.324-2.229,0.771-3.233,1.33l-0.232,0.131L74,65.968
							c-0.938-0.941-2.572-0.941-3.512,0l-2.004,2.006c-0.469,0.469-0.729,1.092-0.729,1.756c0,0.662,0.26,1.289,0.729,1.758
							l2.764,2.764l-0.131,0.23c-0.561,1.006-1.007,2.096-1.33,3.234l-0.074,0.256h-3.688c-1.363,0-2.469,1.109-2.469,2.469v2.822
							c0,1.365,1.105,2.471,2.469,2.471h3.688l0.074,0.258c0.314,1.111,0.739,2.162,1.266,3.127l0.127,0.23l-2.696,2.695
							c-0.468,0.469-0.728,1.092-0.728,1.756c0,0.662,0.26,1.287,0.728,1.756l2.005,2.006c0.938,0.939,2.575,0.939,3.512,0
							l2.658-2.656l0.232,0.133c1.047,0.596,2.171,1.064,3.34,1.395l0.258,0.074v3.688c0,1.363,1.108,2.469,2.469,2.469h2.822
							c1.362,0,2.469-1.105,2.469-2.469v-3.688l0.258-0.072c1.143-0.326,2.231-0.771,3.234-1.332l0.232-0.129l2.589,2.588
							c0.938,0.938,2.572,0.938,3.513,0l2.004-2.008c0.471-0.469,0.729-1.092,0.729-1.756s-0.258-1.287-0.729-1.758l-2.586-2.588
							l0.131-0.232c0.561-1.004,1.008-2.09,1.332-3.232l0.073-0.256h3.688c1.361,0,2.47-1.105,2.47-2.469V80.44H105.181
							L105.181,80.44z M84.369,90.669c-4.863,0-8.82-3.953-8.82-8.816c0-4.865,3.957-8.818,8.82-8.818
							c4.861,0,8.816,3.955,8.816,8.818S89.231,90.669,84.369,90.669z"/>
					</g>
				</g>
			</g>
		</g>
		<path opacity="0.6" fill="#C1BAAC" enable-background="new    " d="M69.713,85.731l0.074,0.258
			c0.082,0.293,0.174,0.58,0.271,0.863c1.549-2.244,3.428-4.318,5.583-6.186c0.581-4.303,4.269-7.635,8.728-7.635
			c1.125,0,2.195,0.221,3.184,0.604c4.014-1.527,8.398-2.52,13.016-2.865c0.151-0.324,0.238-0.676,0.238-1.043
			c0-0.664-0.26-1.289-0.727-1.758l-2.008-2.006c-0.938-0.939-2.572-0.939-3.511,0l-2.696,2.697l-0.232-0.129
			c-0.955-0.523-2.01-0.947-3.127-1.264l-0.26-0.072v-3.688c0-1.361-1.107-2.471-2.468-2.471h-2.823
			c-1.361,0-2.469,1.109-2.469,2.471v3.688l-0.258,0.074c-1.143,0.322-2.229,0.77-3.232,1.33l-0.231,0.131L74,65.968
			c-0.937-0.939-2.572-0.939-3.512,0l-2.005,2.006c-0.467,0.469-0.728,1.092-0.728,1.758c0,0.662,0.261,1.287,0.728,1.758
			l2.763,2.762l-0.129,0.232c-0.561,1.004-1.008,2.094-1.33,3.232l-0.074,0.256h-3.688c-1.362,0-2.471,1.109-2.471,2.469v2.82
			c0,1.365,1.108,2.471,2.471,2.471H69.713L69.713,85.731z"/>
		
			<linearGradient id="SVGID_25_" gradientUnits="userSpaceOnUse" x1="99.3945" y1="-650.3508" x2="119.502" y2="-650.3508" gradientTransform="matrix(1 0 0 -1 -25.0796 -568.4985)">
			<stop  offset="0" style="stop-color:#E6E6E6"/>
			<stop  offset="0.5398" style="stop-color:#FFFFFF"/>
			<stop  offset="1" style="stop-color:#C8C8C8"/>
		</linearGradient>
		<path fill="url(#SVGID_25_)" d="M84.369,71.8c-5.553,0-10.055,4.5-10.055,10.051c0,5.555,4.502,10.055,10.055,10.055
			c5.551,0,10.053-4.5,10.053-10.055C94.42,76.3,89.92,71.8,84.369,71.8z M84.367,87.317c-3.02,0-5.468-2.447-5.468-5.467
			s2.449-5.467,5.468-5.467c3.02,0,5.469,2.449,5.469,5.467C89.836,84.87,87.386,87.317,84.367,87.317z"/>
	</g>
</g>
</svg>
