<?xml version="1.0" encoding="utf-8"?>
<!-- Generator: Adobe Illustrator 16.0.0, SVG Export Plug-In . SVG Version: 6.00 Build 0)  -->
<!DOCTYPE svg PUBLIC "-//W3C//DTD SVG 1.1//EN" "http://www.w3.org/Graphics/SVG/1.1/DTD/svg11.dtd">
<svg version="1.1" id="Layer_1" xmlns="http://www.w3.org/2000/svg" xmlns:xlink="http://www.w3.org/1999/xlink" x="0px" y="0px"
	 width="110.5px" height="115.779px" viewBox="-139.198 -31.22 110.5 115.779"
	 enable-background="new -139.198 -31.22 110.5 115.779" xml:space="preserve">
<g>
	<g>
		
			<linearGradient id="SVGID_1_" gradientUnits="userSpaceOnUse" x1="-105.4275" y1="739.6956" x2="-29.0291" y2="739.6956" gradientTransform="matrix(1 0 0 1 -16.7197 -708.332)">
			<stop  offset="0" style="stop-color:#E6E6E6"/>
			<stop  offset="0.5398" style="stop-color:#FFFFFF"/>
			<stop  offset="1" style="stop-color:#C8C8C8"/>
		</linearGradient>
		<path fill="url(#SVGID_1_)" d="M-83.948,69.564c-21.062,0-38.199-17.137-38.199-38.201c0-21.062,17.138-38.197,38.199-38.197
			c21.062,0,38.199,17.135,38.199,38.197C-45.749,52.427-62.885,69.564-83.948,69.564z M-83.948-5.335
			c-20.234,0-36.699,16.463-36.699,36.697c0,20.236,16.465,36.701,36.699,36.701c20.236,0,36.699-16.465,36.699-36.701
			C-47.249,11.128-63.711-5.335-83.948-5.335z M-83.948,66.222c-19.221,0-34.856-15.637-34.856-34.857s15.637-34.857,34.856-34.857
			c19.223,0,34.857,15.639,34.857,34.857C-49.09,50.585-64.726,66.222-83.948,66.222z M-83.948-1.995
			c-18.394,0-33.356,14.965-33.356,33.357s14.964,33.357,33.356,33.357c18.396,0,33.357-14.965,33.357-33.357
			S-65.553-1.995-83.948-1.995z"/>
		<linearGradient id="SVGID_2_" gradientUnits="userSpaceOnUse" x1="-121.3972" y1="31.3645" x2="-46.4988" y2="31.3645">
			<stop  offset="0" style="stop-color:#FFFFFF"/>
			<stop  offset="1" style="stop-color:#C8C8C8"/>
		</linearGradient>
		<path fill="url(#SVGID_2_)" d="M-83.948-6.085c-20.684,0-37.449,16.766-37.449,37.447c0,20.684,16.768,37.451,37.449,37.451
			c20.685,0,37.449-16.768,37.449-37.451C-46.499,10.681-63.264-6.085-83.948-6.085z M-83.948,65.472
			c-18.838,0-34.106-15.271-34.106-34.107c0-18.838,15.271-34.107,34.106-34.107s34.107,15.271,34.107,34.107
			C-49.84,50.2-65.11,65.472-83.948,65.472z"/>
	</g>
	<line fill="none" x1="-83.948" y1="45.411" x2="-83.948" y2="43.208"/>
	<g>
		<g>
			
				<linearGradient id="SVGID_3_" gradientUnits="userSpaceOnUse" x1="-104.9358" y1="724.4807" x2="-88.4714" y2="724.4807" gradientTransform="matrix(1 0 0 1 -16.7197 -708.332)">
				<stop  offset="0" style="stop-color:#E6E6E6"/>
				<stop  offset="0.5398" style="stop-color:#FFFFFF"/>
				<stop  offset="1" style="stop-color:#C8C8C8"/>
			</linearGradient>
			<path fill="url(#SVGID_3_)" d="M-115.138,23.572c-0.063,0-0.134-0.006-0.205-0.02c-0.396-0.074-0.785-0.225-1.162-0.445
				c-0.233-0.139-0.521-0.416-0.563-0.955c-0.02-0.211-0.029-0.428-0.031-0.643l-0.039-5.998c-0.001-0.102-0.012-0.205-0.031-0.305
				c-0.013-0.066-0.043-0.143-0.177-0.215l-0.544-0.277c-0.292-0.148-0.586-0.297-0.872-0.457c-0.513-0.283-1.021-0.576-1.517-0.891
				c-0.483-0.311-0.883-0.729-1.183-1.246c-0.235-0.408-0.213-0.766-0.153-0.992c0.125-0.48,0.545-0.824,1.068-0.869
				c0.456-0.041,0.9,0.045,1.271,0.125c0.393,0.086,0.774,0.236,1.244,0.49c0.604,0.324,1.201,0.656,1.799,0.986l0.582,0.318
				l-0.116,0.508l0.237-0.439l0.377,0.443l-0.235-0.439l5.905-3.201c0.221-0.119,0.561-0.281,0.966-0.314
				c0.528-0.047,1.001,0.135,1.423,0.531c0.072,0.068,0.145,0.146,0.211,0.223c0.395,0.445,0.379,0.979-0.041,1.395
				c-0.164,0.16-0.336,0.311-0.508,0.461l-2.85,2.508c-0.262,0.229-0.483,0.506-0.717,0.799l2.729,1.684l0.72-0.506
				c0.337-0.236,0.674-0.354,1.03-0.354c0.484,0.02,0.854,0.203,1.135,0.537c0.262,0.318,0.191,0.684,0.166,0.822
				c-0.027,0.152-0.086,0.312-0.169,0.455c-0.716,1.186-1.431,2.361-2.144,3.539c-0.093,0.156-0.145,0.244-0.203,0.332
				c-0.229,0.338-0.51,0.41-0.705,0.41c-0.129,0-0.262-0.031-0.403-0.096c-0.208-0.092-0.39-0.174-0.563-0.27
				c-0.394-0.225-0.596-0.607-0.56-1.057c0.032-0.391,0.069-0.777,0.108-1.164l-2.934-1.414c-0.054,0.084-0.104,0.18-0.152,0.279
				c-0.154,0.338-0.244,0.709-0.338,1.105l-0.183,0.764c-0.224,0.934-0.446,1.865-0.673,2.797c-0.035,0.15-0.088,0.303-0.146,0.447
				C-114.442,23.349-114.752,23.572-115.138,23.572z M-115.161,22.575l0.021,0.496v-0.5
				C-115.145,22.572-115.153,22.573-115.161,22.575z M-120.302,11.249c-0.054,0-0.104,0.002-0.157,0.006
				c-0.096,0.01-0.17,0.061-0.188,0.127c-0.008,0.033-0.026,0.102,0.053,0.238c0.219,0.377,0.506,0.682,0.854,0.902
				c0.479,0.303,0.969,0.586,1.463,0.859c0.275,0.154,0.559,0.295,0.838,0.438l0.562,0.287c0.377,0.203,0.615,0.518,0.689,0.908
				c0.031,0.158,0.049,0.324,0.05,0.488l0.039,5.996c0.002,0.188,0.012,0.377,0.026,0.562c0.012,0.143,0.055,0.166,0.078,0.18
				c0.26,0.154,0.527,0.26,0.793,0.314c0.043-0.104,0.072-0.189,0.092-0.277c0.229-0.936,0.451-1.865,0.674-2.797l0.184-0.764
				c0.102-0.424,0.206-0.863,0.405-1.293c0.151-0.324,0.331-0.596,0.547-0.826l0.251-0.268l3.777,1.818
				c0.355,0.17,0.473,0.377,0.43,0.766c-0.047,0.445-0.09,0.877-0.125,1.311c-0.005,0.062,0.005,0.074,0.052,0.102
				c0.128,0.07,0.265,0.133,0.401,0.195c0.029-0.049,0.056-0.094,0.081-0.137c0.763-1.258,1.477-2.434,2.187-3.609
				c0.02-0.035,0.038-0.084,0.045-0.129c-0.048-0.115-0.154-0.17-0.293-0.176h-0.002c-0.168,0-0.312,0.055-0.478,0.17l-1.048,0.736
				l-0.229,0.027c-0.112,0-0.225-0.031-0.329-0.098l-3.879-2.434l0.629-0.787c0.276-0.35,0.549-0.691,0.893-0.994l2.852-2.51
				c0.158-0.137,0.314-0.273,0.465-0.42c-0.056-0.072-0.104-0.125-0.154-0.174c-0.193-0.184-0.381-0.27-0.586-0.27
				c-0.235,0.018-0.414,0.08-0.642,0.203l-5.909,3.203c-0.348,0.188-0.736,0.186-1.091-0.006l-0.709-0.393
				c-0.599-0.328-1.192-0.658-1.792-0.982c-0.383-0.207-0.688-0.328-0.982-0.393C-119.752,11.306-120.034,11.249-120.302,11.249z"/>
		</g>
		<g>
			
				<linearGradient id="SVGID_4_" gradientUnits="userSpaceOnUse" x1="-95.2097" y1="757.3088" x2="-91.7263" y2="757.3088" gradientTransform="matrix(1 0 0 1 -16.7197 -708.332)">
				<stop  offset="0" style="stop-color:#E6E6E6"/>
				<stop  offset="0.5398" style="stop-color:#FFFFFF"/>
				<stop  offset="1" style="stop-color:#C8C8C8"/>
			</linearGradient>
			<path fill="url(#SVGID_4_)" d="M-109.711,57.363h-0.003c-0.783,0-1.312-0.514-1.312-1.275v-4.961h-0.028
				c-0.103,0-0.409,0-0.64-0.23c-0.213-0.215-0.236-0.506-0.235-0.705c0.009-1.664,0.009-3.328,0.009-4.994l0.001-2.707
				c0.003-1.238,0.731-1.688,1.345-1.844c1.078-0.27,2.127,0.543,2.127,1.643l0.002,13.811
				C-108.448,56.888-108.919,57.363-109.711,57.363z"/>
			<path fill="#777266" d="M-108.948,49.169c0,2.311,0,4.617,0,6.926c0,0.518-0.252,0.77-0.765,0.77
				c-0.506,0.002-0.813-0.291-0.813-0.779c-0.002-1.674,0-3.35-0.002-5.021c0-0.441-0.002-0.465-0.457-0.438
				c-0.336,0.018-0.446-0.076-0.444-0.434c0.015-2.564,0.006-5.135,0.01-7.703c0.002-0.764,0.318-1.191,0.97-1.357
				c0.771-0.197,1.504,0.359,1.504,1.156C-108.946,44.579-108.948,46.874-108.948,49.169z"/>
		</g>
		<g>
			
				<linearGradient id="SVGID_5_" gradientUnits="userSpaceOnUse" x1="-101.0295" y1="757.3489" x2="-96.2039" y2="757.3489" gradientTransform="matrix(1 0 0 1 -16.7197 -708.332)">
				<stop  offset="0" style="stop-color:#E6E6E6"/>
				<stop  offset="0.5398" style="stop-color:#FFFFFF"/>
				<stop  offset="1" style="stop-color:#C8C8C8"/>
			</linearGradient>
			<path fill="url(#SVGID_5_)" d="M-115.323,57.437c-0.209,0-0.416-0.053-0.607-0.154c-0.312-0.16-0.684-0.494-0.682-1.166
				c0.004-1.037,0.004-2.074,0.002-3.111v-2.238c-0.002-1.004-0.004-2.004,0.006-3.008c0-0.092-0.008-0.121-0.008-0.123
				c-0.707-0.109-1.137-0.682-1.137-1.441v-0.523c-0.001-1.398-0.002-2.801,0.01-4.201c0.002-0.275,0.178-0.732,0.549-0.838
				l0.231-0.033c0.188,0,0.362,0.07,0.489,0.197c0.023,0.025,0.047,0.053,0.066,0.08c0.11-0.121,0.27-0.23,0.457-0.262
				c0.293-0.004,0.457,0.111,0.582,0.248c0.145-0.139,0.364-0.258,0.573-0.258h0.144l0.146,0.08
				c0.077,0.051,0.155,0.121,0.223,0.205c0.154-0.209,0.416-0.281,0.611-0.281l0.202,0.027c0.284,0.09,0.474,0.369,0.517,0.604
				c0.031,0.15,0.025,0.303,0.021,0.424l-0.003,0.107v4.381c0,0.803-0.366,1.311-1.088,1.51c0.004,2.844,0.003,5.617,0,8.395
				C-114.018,56.829-114.591,57.437-115.323,57.437z M-116.749,45.411c0,0.086,0,0.172,0,0.258v0.521
				c0,0.438,0.26,0.496,0.346,0.516c0.809,0.188,0.801,0.846,0.799,1.062c-0.01,0.998-0.008,1.996-0.006,2.996v2.238
				c0.002,1.039,0.002,2.078-0.002,3.117c0,0.188,0.06,0.23,0.145,0.275c0.206,0.105,0.447-0.016,0.45-0.344
				c0.003-2.811,0.004-5.615-0.005-8.422c0-0.186-0.006-0.75,0.705-0.93c0.291-0.07,0.388-0.16,0.388-0.555v-0.736
				c-0.282,0.098-0.669,0.051-0.886-0.137c-0.139,0.123-0.319,0.186-0.543,0.186c-0.17-0.01-0.371-0.045-0.526-0.166
				c-0.161,0.129-0.36,0.164-0.511,0.168h-0.002C-116.534,45.46-116.649,45.445-116.749,45.411z"/>
			<path fill="#777266" d="M-116.11,51.87c0-1.371-0.006-2.738,0.006-4.109c0.004-0.312-0.062-0.486-0.409-0.566
				c-0.485-0.109-0.733-0.498-0.733-1.002c-0.002-1.572-0.005-3.146,0.008-4.723c0.002-0.127,0.097-0.336,0.187-0.359
				c0.259-0.068,0.313,0.123,0.312,0.348c-0.002,1.021,0,2.037,0,3.057c0,0.232-0.026,0.457,0.332,0.447
				c0.285-0.008,0.303-0.166,0.301-0.377c0-1.008,0-2.016,0-3.021c0-0.092-0.023-0.197,0.017-0.268
				c0.045-0.084,0.144-0.176,0.229-0.189c0.058-0.008,0.162,0.105,0.193,0.184c0.036,0.088,0.016,0.197,0.016,0.301
				c0.002,0.996,0,1.994,0.002,2.988c0,0.182-0.021,0.365,0.258,0.383c0.254,0.012,0.332-0.08,0.328-0.332
				c-0.01-1.029-0.004-2.062-0.002-3.09c0-0.104-0.019-0.229,0.033-0.299c0.06-0.072,0.227-0.16,0.271-0.133
				c0.091,0.061,0.186,0.195,0.188,0.303c0.015,0.977,0.008,1.945,0.01,2.922c0,0.104,0.005,0.203,0,0.307
				c-0.012,0.227,0.08,0.324,0.318,0.324c0.24,0,0.316-0.105,0.315-0.328c-0.005-1.041-0.002-2.082,0.002-3.125
				c0-0.107,0.001-0.24,0.058-0.322c0.043-0.061,0.188-0.096,0.268-0.072c0.074,0.023,0.152,0.135,0.169,0.217
				c0.028,0.143,0.01,0.293,0.01,0.438c0,1.461,0,2.92,0,4.381c0,0.578-0.21,0.9-0.767,1.039c-0.271,0.068-0.328,0.189-0.324,0.441
				c0.007,2.809,0.006,5.615,0.003,8.424c0,0.668-0.621,1.08-1.183,0.787c-0.289-0.15-0.414-0.396-0.412-0.723
				C-116.106,54.7-116.11,53.286-116.11,51.87z"/>
		</g>
		<g>
			<g>
				
					<linearGradient id="SVGID_6_" gradientUnits="userSpaceOnUse" x1="-73.343" y1="772.0354" x2="-58.6658" y2="772.0354" gradientTransform="matrix(1 0 0 1 -16.7197 -708.332)">
					<stop  offset="0" style="stop-color:#E6E6E6"/>
					<stop  offset="0.5398" style="stop-color:#FFFFFF"/>
					<stop  offset="1" style="stop-color:#C8C8C8"/>
				</linearGradient>
				<path fill="url(#SVGID_6_)" d="M-78.474,71.073h-0.373l-0.052-0.053h-0.021l-0.874-0.002l-7.314,0.008l-0.096-0.023
					c-0.675-0.229-1.021-0.783-0.931-1.486c0.081-0.605,0.683-1.119,1.313-1.119c0.33,0.008,0.631,0.01,0.932,0.01l1.585-0.008
					l0.229,0.002c-0.01-1.346-0.006-2.658,0.002-3.973c0-0.066-0.008-0.105-0.076-0.189c-1.092-1.309-2.182-2.623-3.271-3.938
					l-2.441-2.953c-0.084-0.1-0.301-0.361-0.147-0.686c0.058-0.121,0.207-0.324,0.577-0.324l4.386-0.004l9.661,0.004l-0.113,0.594
					c-0.043,0.223-0.171,0.365-0.246,0.449c-1.893,2.336-3.755,4.637-5.617,6.934l-0.041,0.092c0.004,1.332,0.008,2.664-0.002,3.994
					l0.543-0.002c0.623,0,1.246,0.006,1.867,0.012l0.41,0.004c0.559,0.002,0.996,0.289,1.2,0.787
					c0.211,0.506,0.125,1.023-0.243,1.463c-0.171,0.205-0.384,0.27-0.51,0.311l-0.122,0.076L-78.474,71.073z M-78.79,70.015
					c0.094,0,0.176,0.018,0.245,0.039c0.036-0.012,0.071-0.021,0.101-0.031c0.199-0.184,0.193-0.305,0.137-0.441
					c-0.037-0.09-0.086-0.17-0.283-0.17l-0.412-0.004c-0.619-0.006-1.238-0.01-1.857-0.01l-0.734,0.002
					c-0.121,0-0.398,0-0.604-0.207c-0.188-0.189-0.207-0.432-0.207-0.596c0.014-1.395,0.008-2.791,0.004-4.188
					c-0.004-0.27,0.084-0.508,0.268-0.729c0.352-0.434,0.702-0.865,1.055-1.299c-0.185,0.078-0.388,0.123-0.603,0.125
					c-0.433,0-0.82-0.164-1.112-0.459c-0.292-0.297-0.449-0.689-0.445-1.109c0.008-0.873,0.668-1.535,1.535-1.535
					c0.428,0,0.821,0.162,1.111,0.453c0.289,0.289,0.447,0.684,0.445,1.104c0,0.105-0.012,0.209-0.029,0.307
					c1.062-1.309,2.122-2.619,3.184-3.932l-8.049-0.002l-3.525,0.004l1.922,2.324c1.092,1.312,2.182,2.629,3.275,3.939
					c0.211,0.26,0.307,0.521,0.303,0.834c-0.008,1.385-0.01,2.771,0.002,4.158c0.002,0.105,0.004,0.389-0.205,0.6
					c-0.207,0.207-0.485,0.207-0.577,0.207l-0.45-0.002l-1.585,0.008c-0.31,0-0.617-0.002-0.927-0.01l0,0
					c-0.152,0-0.312,0.156-0.326,0.252c-0.025,0.201,0.021,0.307,0.189,0.379l7.158-0.008l0.883,0.002L-78.79,70.015z
					 M-81.708,60.402c-0.312,0-0.531,0.227-0.535,0.547c-0.002,0.15,0.055,0.291,0.157,0.396c0.103,0.104,0.239,0.162,0.386,0.162
					c0.314-0.004,0.549-0.24,0.551-0.549c0-0.158-0.053-0.295-0.153-0.396C-81.405,60.46-81.549,60.402-81.708,60.402z"/>
				<path fill="#777266" d="M-78.474,70.573c-0.056,0-0.107,0-0.161,0c-0.081-0.084-0.186-0.053-0.279-0.053
					c-0.527-0.004-1.06-0.002-1.589-0.002c-2.178,0.002-4.356,0.006-6.539,0.008c-0.454-0.15-0.655-0.48-0.595-0.943
					c0.047-0.354,0.434-0.695,0.836-0.688c0.979,0.025,1.955-0.006,2.934,0.004c0.237,0.004,0.301-0.064,0.299-0.301
					c-0.013-1.391-0.01-2.779-0.002-4.17c0.002-0.203-0.062-0.355-0.188-0.508c-1.266-1.518-2.521-3.033-3.781-4.551
					c-0.646-0.781-1.289-1.562-1.937-2.346c-0.091-0.107-0.157-0.195,0.065-0.189c1.455-0.002,2.909-0.004,4.363-0.004
					c3.02,0,6.036,0.002,9.057,0.004c-0.021,0.109-0.108,0.184-0.177,0.266c-1.86,2.299-3.722,4.6-5.586,6.896
					c-0.103,0.123-0.153,0.244-0.151,0.406c0.004,1.4,0.008,2.801-0.004,4.195c-0.002,0.244,0.074,0.301,0.308,0.297
					c1.004-0.008,2.009,0.004,3.013,0.012c0.348,0.002,0.607,0.154,0.742,0.48c0.143,0.342,0.081,0.658-0.164,0.951
					C-78.138,70.491-78.327,70.482-78.474,70.573z M-81.708,59.902c-0.586,0-1.029,0.447-1.035,1.043
					c-0.008,0.592,0.469,1.066,1.053,1.062c0.582-0.006,1.039-0.467,1.041-1.047C-80.649,60.359-81.106,59.902-81.708,59.902z"/>
				<path opacity="0.6" fill="#C1BAAC" enable-background="new    " d="M-87.54,59.37c0.42,0.504,0.838,1.008,1.258,1.514
					c2.448-2.023,5.955-3.344,9.896-3.508c0.073-0.094,0.147-0.184,0.224-0.273c0.065-0.082,0.153-0.154,0.176-0.268
					c-3.021-0.002-6.037-0.004-9.057-0.004c-1.453,0-2.908,0.002-4.363,0.004c-0.225-0.006-0.156,0.082-0.065,0.191
					C-88.829,57.808-88.186,58.589-87.54,59.37z"/>
			</g>
		</g>
		<g>
			<g>
				
					<linearGradient id="SVGID_7_" gradientUnits="userSpaceOnUse" x1="-47.6707" y1="757.342" x2="-30.3137" y2="757.342" gradientTransform="matrix(1 0 0 1 -16.7197 -708.332)">
					<stop  offset="0" style="stop-color:#E6E6E6"/>
					<stop  offset="0.5398" style="stop-color:#FFFFFF"/>
					<stop  offset="1" style="stop-color:#C8C8C8"/>
				</linearGradient>
				<path fill="url(#SVGID_7_)" d="M-50.774,57.749h-9.902l0.02-0.518V46.931c-0.131,0.197-0.262,0.395-0.392,0.592
					c-0.349,0.529-0.729,0.285-0.88,0.193c-0.704-0.438-1.405-0.867-2.117-1.291c-0.068-0.039-0.273-0.162-0.331-0.418
					c-0.056-0.254,0.073-0.443,0.13-0.523c0.75-1.088,1.365-2.006,1.934-2.961c0.388-0.646,0.951-1.139,1.686-1.465
					c0.363-0.158,0.729-0.24,1.081-0.32c0.167-0.039,0.334-0.076,0.499-0.123c0.172-0.047,0.344-0.088,0.518-0.129
					c0.232-0.059,0.465-0.111,0.693-0.188l0.159-0.025h0.298l0.207,0.264c0.143,0.264,0.332,0.488,0.562,0.674
					c0.416,0.328,0.838,0.41,1.312,0.258c0.42-0.137,0.753-0.438,1.045-0.943l0.145-0.25h0.459l0.113,0.061l0.588,0.143
					c0.562,0.137,1.123,0.273,1.682,0.428c0.896,0.248,1.58,0.734,2.029,1.449c0.783,1.244,1.442,2.252,2.076,3.172
					c0.049,0.07,0.168,0.25,0.113,0.49l-0.048,0.211l-0.255,0.18c-0.725,0.436-1.447,0.879-2.174,1.324l-0.118,0.074l-0.226,0.031
					c-0.143,0-0.346-0.051-0.508-0.293c-0.137-0.207-0.271-0.412-0.408-0.615L-50.774,57.749z M-59.657,56.749h7.881l-0.004-11.244
					c-0.006-0.074-0.02-0.242,0.084-0.428l0.396-0.713l1.053,1.562c0.17,0.252,0.34,0.504,0.508,0.756
					c0.508-0.311,1.018-0.623,1.524-0.932c-0.571-0.842-1.174-1.764-1.869-2.871c-0.313-0.496-0.802-0.84-1.45-1.02
					c-0.547-0.15-1.1-0.285-1.649-0.418l-0.408-0.102c-0.381,0.539-0.84,0.893-1.397,1.07c-0.789,0.256-1.562,0.107-2.237-0.424
					c-0.237-0.188-0.444-0.404-0.617-0.648c-0.138,0.037-0.297,0.076-0.455,0.113c-0.16,0.037-0.319,0.074-0.478,0.119
					c-0.183,0.051-0.364,0.094-0.549,0.135c-0.322,0.072-0.625,0.145-0.897,0.264c-0.545,0.242-0.947,0.59-1.229,1.061
					c-0.531,0.891-1.097,1.744-1.767,2.721c0.513,0.309,1.021,0.619,1.524,0.932c0.205-0.309,0.41-0.613,0.615-0.92l0.711-1.061
					l0.521,0.248l0.194,0.176l-0.006,0.346L-59.657,56.749z"/>
				<path fill="#777266" d="M-51.274,57.249c-2.961,0-5.924,0-8.885,0c0-0.027,0.002-0.055,0.002-0.08c0-3.91,0-7.82-0.002-11.729
					c0-0.035,0.021-0.074-0.021-0.111c-0.03,0.047-0.062,0.088-0.092,0.131c-0.396,0.596-0.801,1.188-1.194,1.789
					c-0.062,0.094-0.104,0.102-0.198,0.043c-0.707-0.438-1.41-0.871-2.126-1.295c-0.132-0.078-0.116-0.125-0.044-0.232
					c0.676-0.979,1.344-1.965,1.951-2.984c0.352-0.586,0.848-0.99,1.457-1.264c0.482-0.213,1.009-0.275,1.514-0.42
					c0.409-0.113,0.829-0.188,1.233-0.322c0.021,0,0.042,0,0.063,0c0.174,0.322,0.407,0.602,0.694,0.826
					c0.531,0.42,1.127,0.553,1.774,0.344c0.604-0.197,1.016-0.631,1.324-1.17c0.021,0,0.045,0,0.064,0
					c0.014,0.01,0.021,0.023,0.034,0.025c0.771,0.191,1.552,0.371,2.317,0.582c0.726,0.201,1.336,0.592,1.741,1.236
					c0.677,1.074,1.365,2.141,2.087,3.188c0.051,0.074,0.064,0.109-0.029,0.166c-0.729,0.439-1.455,0.885-2.182,1.33
					c-0.082,0.053-0.121,0.041-0.176-0.041c-0.264-0.4-0.533-0.801-0.803-1.199c-0.163-0.242-0.325-0.486-0.495-0.738
					c-0.039,0.068-0.021,0.129-0.021,0.186c0,3.232,0,6.471,0,9.703C-51.278,55.888-51.276,56.568-51.274,57.249z"/>
			</g>
		</g>
		<g>
			<g>
				
					<linearGradient id="SVGID_8_" gradientUnits="userSpaceOnUse" x1="-77.8181" y1="705.5872" x2="-56.6306" y2="705.5872" gradientTransform="matrix(1 0 0 1 -16.7197 -708.332)">
					<stop  offset="0" style="stop-color:#E6E6E6"/>
					<stop  offset="0.5398" style="stop-color:#FFFFFF"/>
					<stop  offset="1" style="stop-color:#C8C8C8"/>
				</linearGradient>
				<path fill="url(#SVGID_8_)" d="M-88.938,3.474h-0.037c-0.868-0.02-1.557-0.693-1.614-1.574
					c-0.166,0.008-0.333-0.014-0.496-0.061c-0.714-0.209-1.188-0.809-1.206-1.527c-0.012-0.521-0.012-1.045-0.007-1.562
					c-0.043,0-0.086,0-0.129,0l-0.541-0.004c-0.647-0.004-1.104-0.268-1.392-0.807l-0.178-0.033v-1.279l0.164-0.041
					c0.266-0.516,0.727-0.805,1.314-0.818c0.255-0.006,0.508-0.006,0.759-0.006c-0.003-0.486-0.003-0.973,0.002-1.457
					c0.011-0.965,0.728-1.693,1.668-1.693h0.042c0.071-0.898,0.755-1.566,1.639-1.572c0.957,0,1.67,0.736,1.674,1.717
					c0.004,1.004,0.008,2.008,0,3.014l3.189-0.004l3.184,0.004c-0.006-1.014-0.006-2.02-0.002-3.021
					c0.006-0.975,0.721-1.707,1.66-1.707l0.125,0.004c0.795,0.055,1.443,0.691,1.51,1.48c0.002,0.025,0.004,0.055,0.006,0.08
					c0.453-0.021,0.912,0.162,1.236,0.492c0.32,0.322,0.494,0.768,0.489,1.252c-0.003,0.281-0.003,0.564-0.002,0.846
					c0,0.189,0.001,0.379,0,0.568c0.093-0.002,0.185-0.002,0.274-0.002l0.662,0.002c0.727,0.002,1.209,0.312,1.475,0.951
					l0.119,0.084l-0.006,1.059l-0.154,0.053c-0.271,0.529-0.729,0.82-1.305,0.836c-0.355,0.008-0.711,0.01-1.064,0.004
					c0.006,0.488,0.004,0.977-0.003,1.465c-0.015,0.961-0.731,1.688-1.674,1.688h-0.05c-0.002,0.021-0.002,0.043-0.004,0.064
					c-0.072,0.859-0.779,1.508-1.646,1.508c-0.905-0.012-1.632-0.723-1.644-1.582c-0.016-1.049-0.014-2.098-0.008-3.146
					c-2.151,0.006-4.254,0.006-6.373,0c0.006,1.012,0.004,2.014,0,3.016C-87.28,2.736-87.995,3.474-88.938,3.474z M-89.594,0.458
					l-0.001,1.002c-0.001,0.123-0.002,0.238,0.002,0.355c0.018,0.371,0.286,0.648,0.641,0.656l0.016,0.5v-0.5
					c0.39,0,0.66-0.297,0.662-0.721c0.007-1.102,0.007-2.203-0.002-3.307c0-0.09-0.002-0.33,0.186-0.52
					c0.188-0.188,0.428-0.188,0.52-0.188c2.32,0.008,4.639,0.008,6.955,0c0.123,0.008,0.344,0,0.53,0.188
					c0.188,0.189,0.188,0.436,0.188,0.527c-0.008,1.139-0.012,2.277,0.006,3.418c0.004,0.324,0.287,0.592,0.632,0.598l0,0
					c0.356,0,0.63-0.25,0.658-0.592c0.014-0.15,0.013-0.307,0.013-0.459c0-0.512,0.357-0.639,0.551-0.639h0.114l0.177,0.074
					c0.051,0.021,0.1,0.037,0.147,0.041h0.002c0.444,0,0.715-0.283,0.72-0.701c0.01-0.586,0.01-1.172-0.003-1.758
					c-0.001-0.082-0.004-0.324,0.183-0.512c0.186-0.188,0.424-0.188,0.504-0.188c0.488,0.01,0.912,0.012,1.359,0
					c0.225-0.006,0.354-0.1,0.456-0.324c0.007-0.035,0.017-0.068,0.029-0.1l-0.005-0.125c-0.112-0.348-0.229-0.432-0.588-0.432
					l-0.657-0.002c-0.197,0-0.396,0-0.595,0.004c0,0,0,0-0.002,0c-0.226,0-0.388-0.062-0.506-0.182
					c-0.183-0.186-0.18-0.418-0.179-0.494c0.004-0.299,0.004-0.598,0.003-0.896c-0.001-0.285-0.001-0.572,0.002-0.857
					c0.002-0.219-0.066-0.404-0.199-0.537c-0.179-0.182-0.479-0.246-0.675-0.15l-0.104,0.053l-0.188,0.023
					c-0.188,0-0.546-0.127-0.546-0.609c0-0.168,0.001-0.338-0.016-0.508c-0.022-0.299-0.277-0.547-0.578-0.568
					c-0.002,0-0.004,0-0.006,0c-0.446,0-0.711,0.285-0.713,0.709c-0.006,1.105-0.006,2.207,0.004,3.309
					c0,0.082,0.002,0.334-0.187,0.525c-0.188,0.189-0.438,0.189-0.532,0.189l-3.469-0.004l-3.468,0.004
					c-0.108,0.002-0.347,0-0.535-0.191c-0.19-0.191-0.188-0.439-0.188-0.533c0.01-1.098,0.008-2.189,0.002-3.285
					c-0.002-0.426-0.271-0.723-0.657-0.723c-0.39,0.004-0.657,0.301-0.661,0.725v0.309v0.777l-0.6-0.121
					c-0.092-0.02-0.178-0.047-0.262-0.076c-0.043-0.018-0.101-0.037-0.123-0.037c-0.449,0-0.716,0.283-0.72,0.705
					c-0.007,0.592-0.005,1.188,0.001,1.781c0.003,0.201-0.059,0.365-0.177,0.486c-0.119,0.121-0.279,0.182-0.476,0.182
					c-0.4-0.008-0.729-0.008-1.086,0c-0.242,0.008-0.379,0.104-0.477,0.334c-0.006,0.033-0.018,0.064-0.027,0.096l0.012,0.168
					c0.121,0.297,0.242,0.379,0.562,0.381l0.535,0.004c0.143,0,0.286-0.002,0.428-0.008c0.199-0.004,0.404,0.062,0.525,0.186
					c0.184,0.188,0.181,0.428,0.18,0.506c-0.007,0.617-0.011,1.236,0.004,1.854c0.008,0.289,0.184,0.506,0.484,0.594
					c0.154,0.043,0.305,0.021,0.494-0.07L-89.594,0.458z"/>
				<path fill="#777266" d="M-73.854-2.505c-0.062,0.02-0.055,0.084-0.071,0.129c-0.175,0.389-0.474,0.607-0.899,0.617
					c-0.455,0.014-0.908,0.012-1.358,0c-0.147-0.002-0.2,0.025-0.198,0.189c0.012,0.592,0.012,1.184,0.003,1.773
					c-0.01,0.725-0.549,1.232-1.251,1.191c-0.119-0.008-0.232-0.039-0.339-0.092c-0.104-0.051-0.121-0.01-0.121,0.086
					c0,0.178,0.001,0.354-0.015,0.531c-0.053,0.609-0.551,1.059-1.163,1.049c-0.604-0.008-1.117-0.482-1.125-1.09
					c-0.019-1.145-0.013-2.285-0.007-3.43c0.002-0.178-0.047-0.213-0.217-0.213c-2.317,0.008-4.639,0.008-6.957,0
					c-0.162,0-0.205,0.039-0.203,0.203c0.009,1.105,0.009,2.209,0.002,3.312c-0.002,0.715-0.516,1.232-1.188,1.219
					c-0.617-0.014-1.102-0.498-1.128-1.139c-0.007-0.186-0.001-0.367-0.001-0.576c-0.285,0.139-0.562,0.184-0.854,0.1
					c-0.498-0.145-0.832-0.543-0.846-1.061c-0.015-0.625-0.011-1.25-0.004-1.873c0.002-0.148-0.039-0.188-0.188-0.186
					c-0.326,0.014-0.656,0.008-0.983,0.004c-0.522-0.002-0.827-0.209-1.024-0.697C-94-2.479-94.005-2.505-94.036-2.512
					c0-0.156,0-0.314,0-0.475c0.06-0.014,0.051-0.07,0.066-0.109c0.172-0.41,0.48-0.629,0.926-0.641c0.361-0.01,0.723-0.008,1.083,0
					c0.128,0.002,0.168-0.031,0.166-0.164c-0.006-0.598-0.008-1.195-0.001-1.793c0.008-0.736,0.549-1.244,1.26-1.197
					c0.153,0.012,0.284,0.09,0.443,0.123c0-0.168-0.002-0.324,0-0.48c0.007-0.697,0.494-1.213,1.148-1.219
					c0.664-0.006,1.166,0.512,1.17,1.221c0.004,1.096,0.006,2.191-0.004,3.291c0,0.18,0.045,0.223,0.225,0.223
					c2.312-0.006,4.625-0.006,6.938,0c0.168,0,0.221-0.031,0.219-0.213c-0.01-1.104-0.01-2.207-0.006-3.311
					c0.004-0.74,0.541-1.254,1.252-1.205c0.543,0.035,1,0.479,1.045,1.023c0.017,0.184,0.017,0.365,0.017,0.551
					c0,0.094,0.011,0.141,0.119,0.084c0.637-0.312,1.604,0.143,1.596,1.145c-0.007,0.584,0.003,1.168-0.005,1.754
					c-0.002,0.143,0.04,0.172,0.176,0.17c0.422-0.01,0.842-0.006,1.264-0.004c0.574,0.002,0.882,0.227,1.062,0.773
					c0.003,0.01,0.021,0.014,0.03,0.02C-73.854-2.796-73.854-2.653-73.854-2.505z"/>
			</g>
		</g>
		<g>
			
				<linearGradient id="SVGID_9_" gradientUnits="userSpaceOnUse" x1="-46.6072" y1="722.6116" x2="-32.1111" y2="722.6116" gradientTransform="matrix(1 0 0 1 -16.7197 -708.332)">
				<stop  offset="0" style="stop-color:#E6E6E6"/>
				<stop  offset="0.5398" style="stop-color:#FFFFFF"/>
				<stop  offset="1" style="stop-color:#C8C8C8"/>
			</linearGradient>
			<path fill="url(#SVGID_9_)" d="M-48.831,21.806h-12.926l-0.051-0.105c-0.912-0.322-1.518-1.166-1.518-2.139l-0.002-3.518
				l0.002-7.035c0-1.045,0.744-1.967,1.77-2.191l0.057-0.062l10.537,0.023l0.039,0.457c0.008,0.082,0.014,0.131,0.014,0.18
				c0,0.441,0,0.885,0,1.328c0.002-0.004,0.006-0.008,0.008-0.012c0.082-0.098,0.231-0.211,0.486-0.211
				c0.252,0.01,0.387,0.016,0.557,0c0.34,0.01,0.709,0.174,0.709,0.672c-0.004,3.982-0.004,7.967-0.002,11.947
				c-0.002,0.01-0.002,0.016-0.002,0.021L-48.831,21.806z M-56.336,19.941l5.308,0.002c0-0.332,0-0.662,0-0.994
				c-0.114,0.154-0.303,0.24-0.543,0.24l-9.26-0.004c-0.088,0-0.175,0-0.263,0.008c-0.16,0.014-0.25,0.074-0.312,0.219
				c-0.064,0.145-0.053,0.258,0.047,0.387c0.057,0.068,0.138,0.145,0.418,0.145L-56.336,19.941z M-61.215,7.779
				c-0.063,0.016-0.116,0.02-0.147,0.021c-0.547,0.121-0.961,0.633-0.961,1.213v7.033v2.969c0.002-0.002,0.002-0.004,0.004-0.006
				c0.207-0.479,0.615-0.77,1.147-0.812c0.115-0.008,0.228-0.01,0.341-0.01l8.928,0.004c-0.006-3.473-0.006-6.939-0.006-10.408
				h-1.197h-7.985C-61.136,7.784-61.177,7.782-61.215,7.779z"/>
			<path fill="#777266" d="M-61.274,7.257c0.011,0,0.021,0,0.027,0c0.045,0.051,0.104,0.023,0.152,0.023c2.662,0,5.324,0,7.986,0
				c0.562,0,1.123-0.002,1.688-0.002c0.004,0.047,0.012,0.092,0.012,0.137c0,3.705,0,7.406,0.006,11.109
				c0,0.139-0.039,0.162-0.168,0.162c-3.086-0.004-6.174-0.004-9.262-0.004c-0.1,0-0.199,0.002-0.301,0.01
				c-0.348,0.027-0.598,0.207-0.73,0.52c-0.14,0.311-0.101,0.617,0.11,0.891c0.205,0.268,0.491,0.34,0.812,0.34
				c3.414-0.002,6.832-0.002,10.248,0.002c0.131,0,0.164-0.029,0.164-0.164c-0.006-3.676-0.004-7.354-0.004-11.027
				c0-0.027,0.004-0.057,0-0.082c-0.02-0.111,0.021-0.152,0.139-0.146c0.189,0.01,0.386,0.016,0.576-0.002
				c0.146-0.012,0.168,0.041,0.168,0.174c-0.004,3.982-0.004,7.967-0.002,11.949c0,0.053-0.016,0.107,0.013,0.16
				c-3.935,0-7.865,0-11.8,0c-0.021-0.045-0.069-0.035-0.106-0.047c-0.771-0.229-1.276-0.896-1.276-1.695
				c0-3.518-0.002-7.035,0-10.553c0-0.816,0.578-1.529,1.375-1.705C-61.389,7.294-61.321,7.31-61.274,7.257z"/>
		</g>
		<path fill="#777266" d="M-111.741,14.777c0.025,0.02,0.051,0.035,0.073,0.053c1.116,0.688,2.229,1.373,3.347,2.061
			c0.056,0.033,0.088,0.031,0.14-0.004c0.305-0.219,0.61-0.432,0.919-0.646c0.234-0.166,0.488-0.271,0.783-0.26
			c0.289,0.01,0.525,0.135,0.707,0.354c0.102,0.121,0.088,0.271,0.062,0.406c-0.021,0.105-0.058,0.209-0.11,0.301
			c-0.709,1.178-1.424,2.354-2.138,3.527c-0.062,0.105-0.12,0.209-0.188,0.311c-0.135,0.197-0.271,0.238-0.492,0.143
			c-0.178-0.08-0.354-0.158-0.521-0.254c-0.222-0.125-0.324-0.324-0.305-0.576c0.036-0.438,0.079-0.873,0.125-1.309
			c0.021-0.193,0.025-0.191-0.146-0.275c-1.123-0.541-2.246-1.082-3.369-1.623c-0.025-0.012-0.051-0.021-0.08-0.037
			c-0.192,0.207-0.34,0.441-0.457,0.695c-0.2,0.434-0.299,0.896-0.409,1.357c-0.271,1.133-0.542,2.268-0.817,3.396
			c-0.029,0.129-0.074,0.256-0.125,0.379c-0.095,0.234-0.257,0.332-0.504,0.285c-0.354-0.064-0.688-0.201-0.999-0.385
			c-0.211-0.125-0.301-0.332-0.319-0.564c-0.019-0.199-0.027-0.402-0.029-0.604c-0.016-2-0.025-3.998-0.039-5.996
			c-0.001-0.133-0.016-0.27-0.04-0.396c-0.05-0.258-0.207-0.439-0.433-0.561c-0.469-0.248-0.945-0.475-1.407-0.73
			c-0.505-0.277-1.005-0.566-1.49-0.877c-0.425-0.27-0.767-0.639-1.019-1.074c-0.108-0.189-0.16-0.396-0.104-0.611
			c0.071-0.275,0.319-0.473,0.629-0.5c0.383-0.033,0.752,0.035,1.121,0.115c0.396,0.088,0.762,0.252,1.113,0.441
			c0.795,0.432,1.584,0.867,2.376,1.307c0.042,0.02,0.083,0.045,0.124,0.066c0.203,0.109,0.41,0.115,0.615,0.006
			c0.535-0.289,1.066-0.58,1.604-0.867c1.436-0.779,2.869-1.559,4.305-2.334c0.241-0.133,0.491-0.234,0.771-0.26
			c0.409-0.035,0.747,0.125,1.039,0.398c0.062,0.059,0.12,0.123,0.178,0.188c0.218,0.246,0.22,0.477-0.017,0.707
			c-0.209,0.203-0.432,0.393-0.648,0.584c-0.896,0.789-1.791,1.578-2.688,2.365c-0.311,0.271-0.562,0.592-0.816,0.912
			C-111.532,14.517-111.636,14.646-111.741,14.777z"/>
		<path opacity="0.6" fill="#C1BAAC" enable-background="new    " d="M-110.938,10.411c-0.87,0.473-1.74,0.943-2.611,1.416
			c-0.535,0.289-1.066,0.58-1.604,0.867c-0.205,0.109-0.412,0.105-0.615-0.004c-0.041-0.021-0.082-0.049-0.124-0.068
			c-0.792-0.438-1.581-0.875-2.376-1.307c-0.354-0.188-0.719-0.354-1.113-0.439c-0.369-0.08-0.738-0.15-1.121-0.117
			c-0.311,0.027-0.559,0.227-0.629,0.5c-0.059,0.219-0.007,0.424,0.104,0.613c0.252,0.438,0.594,0.805,1.019,1.074
			c0.485,0.311,0.985,0.598,1.489,0.875c0.463,0.258,0.939,0.484,1.408,0.73c0.226,0.121,0.383,0.305,0.433,0.561
			c0.024,0.131,0.039,0.266,0.04,0.396c0.014,2,0.023,3.998,0.039,5.996c0.002,0.203,0.013,0.404,0.029,0.604
			c0.021,0.234,0.108,0.439,0.319,0.564c0.085,0.051,0.175,0.086,0.263,0.129C-115.556,18.132-113.735,13.863-110.938,10.411z"/>
	</g>
	<g opacity="0.6">
		<path fill="#C1BAAC" d="M-77.676-4.505c0.435,0,0.866,0.006,1.295,0.02c0-0.391-0.002-0.781,0.003-1.172
			c0.01-1.002-0.959-1.457-1.596-1.145c-0.109,0.057-0.119,0.01-0.119-0.084c0-0.186,0-0.367-0.018-0.551
			c-0.045-0.545-0.502-0.988-1.043-1.023c-0.711-0.049-1.248,0.465-1.252,1.205c-0.004,0.945-0.002,1.891,0.004,2.836
			C-79.505-4.475-78.595-4.505-77.676-4.505z"/>
		<path fill="#C1BAAC" d="M-92.967-1.755c0.2,0,0.399-0.002,0.603-0.004c2.01-0.836,4.233-1.506,6.615-1.973
			c-0.602,0-1.203-0.002-1.807,0c-0.18,0-0.225-0.045-0.225-0.225c0.01-1.098,0.008-2.193,0.004-3.291
			c-0.004-0.707-0.506-1.225-1.17-1.219C-89.6-8.46-90.09-7.944-90.094-7.247c-0.002,0.156,0,0.312,0,0.479
			c-0.159-0.031-0.29-0.109-0.443-0.121c-0.711-0.049-1.252,0.459-1.26,1.197c-0.007,0.598-0.005,1.195,0.001,1.793
			c0.002,0.131-0.038,0.166-0.166,0.162c-0.36-0.008-0.722-0.008-1.083,0c-0.443,0.014-0.754,0.229-0.926,0.641
			c-0.018,0.039-0.01,0.098-0.066,0.111c0,0.158,0,0.316,0,0.475c0.031,0.006,0.036,0.031,0.047,0.057
			C-93.794-1.964-93.491-1.759-92.967-1.755z"/>
	</g>
	<path opacity="0.6" fill="#C1BAAC" enable-background="new    " d="M-116.514,47.193c0.348,0.08,0.413,0.256,0.408,0.568
		c0,0.014,0,0.025,0,0.037c0.734-1.289,1.637-2.453,2.676-3.461c0-0.857,0-1.715,0-2.57c0-0.146,0.02-0.297-0.01-0.438
		c-0.016-0.082-0.096-0.191-0.17-0.217c-0.078-0.021-0.224,0.014-0.267,0.072c-0.057,0.082-0.058,0.215-0.058,0.322
		c-0.006,1.043-0.008,2.084-0.004,3.125c0.003,0.223-0.073,0.328-0.314,0.328c-0.238,0-0.328-0.1-0.318-0.324
		c0.006-0.105,0-0.203,0-0.307c0-0.977,0.006-1.945-0.008-2.924c-0.002-0.104-0.098-0.24-0.188-0.301
		c-0.048-0.029-0.216,0.061-0.271,0.133c-0.053,0.07-0.035,0.195-0.035,0.299c-0.002,1.027-0.008,2.061,0.004,3.09
		c0.002,0.252-0.076,0.344-0.33,0.332c-0.277-0.018-0.258-0.201-0.258-0.385c0-0.992,0-1.99,0-2.986
		c0-0.104,0.021-0.213-0.017-0.301c-0.03-0.078-0.14-0.189-0.194-0.184c-0.086,0.014-0.184,0.105-0.229,0.189
		c-0.04,0.068-0.016,0.176-0.016,0.268c0,1.006-0.002,2.014,0,3.021c0,0.211-0.017,0.369-0.301,0.377
		c-0.361,0.01-0.334-0.215-0.334-0.447c0-1.02-0.002-2.037,0.002-3.057c0-0.225-0.056-0.416-0.312-0.348
		c-0.092,0.023-0.186,0.232-0.186,0.359c-0.014,1.574-0.011,3.148-0.01,4.723C-117.249,46.695-117,47.083-116.514,47.193z"/>
	<path opacity="0.6" fill="#C1BAAC" enable-background="new    " d="M-108.948,43.689c0-0.469,0-0.938,0-1.402
		c0-0.797-0.73-1.355-1.504-1.156c-0.649,0.166-0.968,0.596-0.97,1.357c-0.002,1.271-0.005,2.537-0.005,3.807
		C-110.709,45.308-109.874,44.437-108.948,43.689z"/>
	<g>
		<path fill="#787366" d="M-72.387,17.381c0.599,0.549,3.584,6.864,3.584,6.864l0.589,0.735l0.515-0.589l-0.147-0.956
			c0,0-0.039-0.662,0.294-1.029c0.334-0.368,1.177-0.368,1.177-0.368s0.916,0.035,1.545,0.441c0.63,0.407,0.751,0.59,0.81,0.956
			c0.058,0.366-0.149,0.586-0.368,0.883c-0.219,0.298-1.029,0.441-1.029,0.441l-1.324,0.295l-0.515,0.956l1.545,1.765
			c0,0,1.044,2.434,1.177,3.384c0.132,0.951-0.295,5.001-0.295,5.001s-0.144,7.201-0.367,8.019
			c-0.225,0.817-0.515,0.956-0.515,0.956h-3.53l-0.442-0.956l-1.912-1.766H-83.5h-0.897h-11.901l-1.912,1.766l-0.441,0.956h-3.531
			c0,0-0.29-0.139-0.514-0.956s-0.368-8.019-0.368-8.019s-0.427-4.05-0.294-5.001c0.132-0.95,1.176-3.384,1.176-3.384l1.545-1.765
			l-0.514-0.956l-1.324-0.295c0,0-0.812-0.144-1.03-0.441c-0.218-0.297-0.426-0.517-0.368-0.883c0.059-0.366,0.18-0.549,0.81-0.956
			c0.63-0.406,1.545-0.441,1.545-0.441s0.844,0,1.177,0.368c0.333,0.367,0.294,1.029,0.294,1.029l-0.147,0.956l0.515,0.589
			l0.589-0.735c0,0,2.828-6.315,3.427-6.864H-72.387z"/>
		<linearGradient id="SVGID_10_" gradientUnits="userSpaceOnUse" x1="-104.2449" y1="31.2581" x2="-63.6521" y2="31.2581">
			<stop  offset="0" style="stop-color:#FFFFFF"/>
			<stop  offset="1" style="stop-color:#C8C8C8"/>
		</linearGradient>
		<path fill="url(#SVGID_10_)" d="M-65.633,45.495h-3.843l-0.508-1.101l-1.757-1.622h-24.417l-1.757,1.622l-0.508,1.101h-3.843
			l-0.073-0.035c-0.104-0.049-0.459-0.28-0.707-1.188c-0.227-0.83-0.363-7.278-0.38-8.089c-0.033-0.314-0.426-4.111-0.291-5.073
			c0.137-0.988,1.158-3.376,1.202-3.477l0.022-0.053l1.418-1.62l-0.319-0.591l-1.162-0.259c-0.209-0.036-0.961-0.196-1.242-0.58
			l-0.07-0.094c-0.206-0.273-0.438-0.582-0.363-1.058c0.08-0.505,0.288-0.763,0.97-1.202c0.705-0.456,1.685-0.498,1.727-0.499
			c0.001,0,0.002,0,0.003,0c0.126,0,1.029,0.017,1.454,0.485c0.423,0.466,0.392,1.21,0.387,1.293l-0.004,0.033l-0.121,0.791
			l0.121,0.139l0.291-0.364c0.519-1.157,2.878-6.377,3.493-6.94l0.103-0.095h23.56l0.104,0.095c0.612,0.562,3.104,5.789,3.648,6.938
			l0.293,0.367l0.121-0.139l-0.125-0.824c-0.005-0.083-0.036-0.827,0.387-1.293c0.429-0.472,1.341-0.486,1.443-0.486
			c0.056,0.002,1.036,0.044,1.74,0.5c0.682,0.439,0.891,0.698,0.97,1.202c0.075,0.476-0.157,0.785-0.363,1.058l-0.069,0.094
			c-0.282,0.384-1.034,0.544-1.258,0.583l-1.147,0.256l-0.318,0.591l1.418,1.62l0.021,0.053c0.044,0.101,1.066,2.488,1.203,3.477
			c0.134,0.962-0.259,4.759-0.292,5.073c-0.016,0.811-0.152,7.259-0.379,8.089c-0.248,0.907-0.604,1.139-0.708,1.188L-65.633,45.495
			z M-69.014,44.776h3.164c0.066-0.083,0.191-0.279,0.304-0.692c0.155-0.568,0.298-5.053,0.354-7.93l0.003-0.03
			c0.117-1.114,0.398-4.17,0.295-4.914c-0.1-0.723-0.828-2.533-1.129-3.239l-1.671-1.91l0.711-1.321l1.485-0.33
			c0.359-0.065,0.749-0.21,0.817-0.303l0.075-0.102c0.192-0.255,0.253-0.352,0.228-0.513c-0.034-0.215-0.052-0.322-0.649-0.709
			c-0.536-0.347-1.354-0.384-1.363-0.384c-0.262,0.001-0.743,0.081-0.896,0.249c-0.181,0.198-0.207,0.604-0.202,0.753l0.17,1.103
			l-0.909,1.038l-0.884-1.104l-0.018-0.039c-1.155-2.444-2.906-5.967-3.422-6.658h-22.952c-0.466,0.642-1.974,3.774-3.262,6.651
			l-0.019,0.042l-0.887,1.107l-0.908-1.038l0.17-1.103c0.004-0.146-0.022-0.554-0.202-0.752c-0.153-0.169-0.634-0.249-0.911-0.25
			c0.007,0-0.812,0.037-1.349,0.384c-0.598,0.387-0.615,0.494-0.648,0.709c-0.025,0.161,0.034,0.258,0.226,0.513l0.076,0.102
			c0.068,0.093,0.459,0.238,0.803,0.3l1.5,0.333l0.711,1.321l-1.671,1.909c-0.15,0.354-1.016,2.421-1.129,3.24
			c-0.104,0.744,0.178,3.8,0.296,4.914l0.002,0.03c0.057,2.877,0.199,7.362,0.354,7.93c0.112,0.413,0.237,0.609,0.304,0.692h3.164
			l0.375-0.813l2.068-1.909h24.981l2.069,1.909L-69.014,44.776z"/>
	</g>
	<g opacity="0.8">
		<path fill="#5E5E5E" d="M-69.42,24.884c0,0-2.772-7.13-3.598-7.262c-0.684-0.109-8.061-0.219-10.582-0.253
			c0-0.006,0-0.011,0-0.011s-0.151,0.001-0.419,0.005c-0.268-0.004-0.419-0.005-0.419-0.005s0,0.005,0,0.011
			c-2.521,0.034-9.898,0.144-10.582,0.253c-0.825,0.132-3.598,7.262-3.598,7.262s13.478-0.117,14.599-0.109
			C-82.897,24.783-69.42,24.884-69.42,24.884z"/>
		<linearGradient id="SVGID_11_" gradientUnits="userSpaceOnUse" x1="-98.8816" y1="21.1213" x2="-69.156" y2="21.1213">
			<stop  offset="0" style="stop-color:#FFFFFF"/>
			<stop  offset="1" style="stop-color:#C8C8C8"/>
		</linearGradient>
		<path fill="url(#SVGID_11_)" d="M-83.599,17.359c0,0,0,0.005,0,0.011c2.521,0.034,9.898,0.144,10.582,0.253
			c0.825,0.132,3.598,7.262,3.598,7.262s-13.478-0.101-14.599-0.109c-0.039-0.001-0.093-0.001-0.16-0.001
			c-1.881,0-14.438,0.11-14.438,0.11s2.772-7.13,3.598-7.262c0.684-0.109,8.062-0.219,10.582-0.253c0-0.006,0-0.011,0-0.011
			s0.151,0.001,0.419,0.005C-83.751,17.36-83.599,17.359-83.599,17.359 M-83.419,17.176l-0.183,0.002l-0.419,0.006l-0.414-0.006
			l-0.177-0.002v0.016c-3.052,0.042-9.771,0.146-10.437,0.253c-0.184,0.029-0.612,0.098-2.244,3.785
			c-0.789,1.782-1.486,3.571-1.493,3.589l-0.097,0.248l0.267-0.003c0.125-0.001,12.578-0.109,14.437-0.109c0.067,0,0.12,0,0.158,0
			c1.122,0.009,14.599,0.109,14.599,0.109l0.266,0.002l-0.096-0.247c-0.007-0.018-0.704-1.807-1.493-3.589
			c-1.632-3.688-2.061-3.756-2.244-3.785c-0.666-0.106-7.375-0.211-10.43-0.253V17.176L-83.419,17.176z"/>
	</g>
	<linearGradient id="SVGID_12_" gradientUnits="userSpaceOnUse" x1="-101.5598" y1="29.8713" x2="-95.3738" y2="29.8713">
		<stop  offset="0" style="stop-color:#FFFFFF"/>
		<stop  offset="1" style="stop-color:#C8C8C8"/>
	</linearGradient>
	<path opacity="0.8" fill="url(#SVGID_12_)" d="M-97.598,32.341c-1.219,0.624-2.41,0.6-3.281-0.224
		c-0.722-0.683-0.908-1.688-0.369-2.678c0.58-1.064,1.511-2.009,2.885-2.377c1.45-0.388,2.173,0.471,2.708,1.289
		C-94.833,29.603-95.912,31.476-97.598,32.341z"/>
	<path opacity="0.6" fill="#C0B9AB" enable-background="new    " d="M-73.052,24.884h-3.001c0,0-1.3,2.224-1.6,3.127
		c-0.301,0.904-1.101,3.314-1.101,3.314s3.042,0.548,3.15,0.293c0.053-0.123,0.374-1.939,0.901-3.333
		C-74.176,26.89-73.052,24.884-73.052,24.884z"/>
	<path opacity="0.6" fill="#C0B9AB" enable-background="new    " d="M-94.433,24.884h3c0,0,1.301,2.224,1.602,3.127
		c0.3,0.904,1.101,3.314,1.101,3.314s-3.043,0.548-3.151,0.293c-0.053-0.123-0.373-1.939-0.9-3.333
		C-93.31,26.89-94.433,24.884-94.433,24.884z"/>
	<linearGradient id="SVGID_13_" gradientUnits="userSpaceOnUse" x1="-73.3499" y1="29.8713" x2="-67.1633" y2="29.8713">
		<stop  offset="0" style="stop-color:#FFFFFF"/>
		<stop  offset="1" style="stop-color:#C8C8C8"/>
	</linearGradient>
	<path opacity="0.8" fill="url(#SVGID_13_)" d="M-73.067,28.352c0.535-0.818,1.257-1.677,2.708-1.289
		c1.373,0.368,2.304,1.312,2.885,2.377c0.539,0.99,0.353,1.995-0.37,2.678c-0.87,0.823-2.062,0.848-3.281,0.224
		C-72.812,31.476-73.891,29.603-73.067,28.352z"/>
	<path opacity="0.8" fill="#C0B9AB" enable-background="new    " d="M-71.91,37.072c0,0.312-0.474,0.566-1.059,0.566h-21.884
		c-0.586,0-1.06-0.254-1.06-0.566v-1.647c0-0.312,0.474-0.566,1.06-0.566h21.884c0.585,0,1.059,0.254,1.059,0.566V37.072z"/>
	<linearGradient id="SVGID_14_" gradientUnits="userSpaceOnUse" x1="-96.4622" y1="34.9905" x2="-71.3435" y2="34.9905">
		<stop  offset="0" style="stop-color:#FFFFFF"/>
		<stop  offset="1" style="stop-color:#C8C8C8"/>
	</linearGradient>
	<path fill="url(#SVGID_14_)" d="M-74.229,31.951c-1.869-0.783-2.889-0.56-2.889-0.56l-6.771-0.223v-0.001l-0.015,0.001
		l-0.015-0.001v0.001l-6.77,0.223c0,0-1.02-0.224-2.89,0.56s-3.094,3.169-2.855,3.43c0,0-0.238,1.787,1.02,2.647
		c1.258,0.859,7.003,0.782,8.805,0.782c0.846,0,1.608,0,2.181,0c0.646,0,1.049,0,1.049,0c0.572,0,1.335,0,2.181,0
		c1.802,0,7.548,0.077,8.805-0.782c1.258-0.86,1.021-2.647,1.021-2.647C-71.135,35.12-72.359,32.735-74.229,31.951z"/>
	<path opacity="0.8" fill="#5E5E5E" d="M-74.943,32.288c-1.743-0.7-2.693-0.5-2.693-0.5l-6.31-0.199v-0.001h-0.014h-0.014
		l-0.001,0.001l-6.309,0.199c0,0-0.95-0.2-2.692,0.5c-1.743,0.7-2.884,2.835-2.662,3.068c0,0-0.222,1.599,0.951,2.367
		c1.172,0.77,6.526,0.7,8.205,0.7c0.788,0,1.5,0,2.033,0c0.603,0,0.978,0,0.978,0c0.533,0,1.243,0,2.031,0
		c1.68,0,7.034,0.069,8.207-0.7c1.172-0.769,0.95-2.367,0.95-2.367C-72.06,35.123-73.201,32.989-74.943,32.288z"/>
	
		<linearGradient id="SVGID_15_" gradientUnits="userSpaceOnUse" x1="-92.4944" y1="770.8147" x2="-89.2458" y2="770.8147" gradientTransform="matrix(1 0 0 1 -8.415 -732.5273)">
		<stop  offset="0" style="stop-color:#FFFFFF"/>
		<stop  offset="1" style="stop-color:#C8C8C8"/>
	</linearGradient>
	<path opacity="0.8" fill="url(#SVGID_15_)" d="M-99.233,39.87c0.884-0.024,1.579-0.732,1.572-1.596
		c-0.006-0.854-0.726-1.562-1.603-1.569c-0.91-0.008-1.684,0.774-1.645,1.655C-100.867,39.198-100.094,39.898-99.233,39.87z"/>
	
		<linearGradient id="SVGID_16_" gradientUnits="userSpaceOnUse" x1="-61.9495" y1="770.8147" x2="-58.7009" y2="770.8147" gradientTransform="matrix(1 0 0 1 -8.415 -732.5273)">
		<stop  offset="0" style="stop-color:#FFFFFF"/>
		<stop  offset="1" style="stop-color:#C8C8C8"/>
	</linearGradient>
	<path opacity="0.8" fill="url(#SVGID_16_)" d="M-68.688,39.87c0.884-0.024,1.579-0.732,1.572-1.596
		c-0.007-0.854-0.727-1.562-1.603-1.569c-0.911-0.008-1.685,0.774-1.645,1.655C-70.322,39.198-69.55,39.898-68.688,39.87z"/>
	<linearGradient id="SVGID_17_" gradientUnits="userSpaceOnUse" x1="-94.4333" y1="40.4324" x2="-73.4724" y2="40.4324">
		<stop  offset="0" style="stop-color:#FFFFFF"/>
		<stop  offset="1" style="stop-color:#C8C8C8"/>
	</linearGradient>
	<path opacity="0.8" fill="url(#SVGID_17_)" d="M-83.596,39.365h-0.713h-10.124c0,0,0,1.233,0.5,1.468
		c0.5,0.232,1.733,0.433,2.435,0.5c0.563,0.054,5.353,0.129,7.189,0.156v0.01c0,0,0.13-0.001,0.356-0.005
		c0.226,0.004,0.356,0.005,0.356,0.005v-0.01c1.837-0.027,6.625-0.103,7.189-0.156c0.7-0.067,1.935-0.268,2.435-0.5
		c0.5-0.234,0.5-1.468,0.5-1.468H-83.596z"/>
	<linearGradient id="SVGID_18_" gradientUnits="userSpaceOnUse" x1="-85.6511" y1="30.1467" x2="-82.1946" y2="30.1467">
		<stop  offset="0" style="stop-color:#FFFFFF"/>
		<stop  offset="1" style="stop-color:#C8C8C8"/>
	</linearGradient>
	<path fill-rule="evenodd" clip-rule="evenodd" fill="url(#SVGID_18_)" d="M-83.774,29.542c0.01,0.002,0.018,0.004,0.026,0.005
		c0.003,0.003,0.005,0.008,0.008,0.008c0.097,0.015,0.18,0.064,0.271,0.087c0.001,0.003,0.002,0.007,0.003,0.01
		c-0.004,0.01,0.006,0.014,0.011,0.017c0.061,0.031,0.108,0.076,0.15,0.125c0.016,0.018,0.03,0.023,0.053,0.023
		c0.127-0.001,0.254-0.001,0.381-0.001c0.078-0.001,0.155-0.002,0.232-0.004c0.148-0.001,0.296-0.001,0.443-0.001
		c0.003,0.017-0.012,0.026-0.021,0.037c-0.124,0.147-0.265,0.28-0.416,0.404c-0.047,0.037-0.091,0.066-0.155,0.057
		c-0.128-0.001-0.257-0.002-0.385-0.002c-0.011,0-0.021-0.001-0.025,0.011c-0.017,0.034-0.033,0.068-0.05,0.103
		c0.053,0.02,0.063-0.019,0.075-0.049c0.01-0.027,0.025-0.037,0.056-0.038c0.109-0.004,0.22-0.012,0.329-0.018
		c0.021,0.002,0.041-0.016,0.071,0.008c-0.009,0.004-0.017,0.004-0.021,0.008c-0.071,0.047-0.144,0.094-0.212,0.143
		c-0.048,0.033-0.097,0.049-0.155,0.044c-0.04-0.004-0.081,0.002-0.121-0.002c-0.072-0.005-0.139,0.003-0.186,0.063
		c-0.003,0.004-0.008,0.006-0.012,0.009c-0.177,0.128-0.379,0.18-0.599,0.165c-0.198-0.014-0.373-0.081-0.513-0.219
		c-0.014-0.013-0.027-0.016-0.045-0.016c-0.072,0.001-0.146-0.002-0.218,0.001c-0.051,0.003-0.094-0.009-0.134-0.037
		c-0.073-0.053-0.154-0.097-0.22-0.16c0.003-0.004,0.007-0.006,0.013-0.005c0.134,0.015,0.27,0.012,0.403,0.02
		c0.025,0.002,0.049,0.002,0.058,0.038c0.004-0.053-0.009-0.067-0.05-0.067c-0.134,0-0.267,0-0.401,0.001
		c-0.01,0-0.023-0.007-0.029,0.008c-0.003-0.001-0.005-0.001-0.008-0.001c-0.007-0.006-0.014-0.011-0.023-0.012
		c-0.003,0-0.004-0.001-0.004-0.002c-0.013-0.021-0.033-0.032-0.052-0.044c0-0.003,0-0.003-0.002-0.003
		c-0.003-0.002-0.005-0.004-0.008-0.006c-0.018-0.015-0.037-0.029-0.055-0.044c-0.096-0.083-0.18-0.178-0.261-0.273
		c-0.03-0.034-0.064-0.066-0.082-0.109c0.344-0.001,0.687-0.002,1.029-0.003c0.053,0,0.114-0.042,0.136-0.092h-0.002
		c0.021-0.024,0.056-0.025,0.079-0.046c0.031-0.026,0.069-0.04,0.105-0.06c0.06-0.031,0.126-0.053,0.19-0.066
		c0.067-0.014,0.14-0.021,0.212-0.018C-83.859,29.539-83.816,29.552-83.774,29.542z M-85.22,29.909
		c-0.005-0.002-0.01-0.005-0.014-0.005c-0.102,0-0.203,0-0.304,0c-0.007,0-0.014,0.001-0.013,0.011
		c0.004,0.001,0.007,0.003,0.011,0.003c0.103,0.006,0.205-0.008,0.307,0.008c0.004,0.001,0.008-0.004,0.013-0.006
		c0.127,0.003,0.254,0.006,0.381,0.01c0.057,0.001,0.113,0.002,0.17,0.005c0.014,0,0.025-0.003,0.025-0.017
		c-0.001-0.017-0.016-0.008-0.024-0.009c-0.009-0.003-0.018,0-0.027,0C-84.871,29.909-85.047,29.909-85.22,29.909z M-82.67,30.109
		c0.049,0.005,0.099-0.003,0.147-0.004c0-0.002,0-0.003,0-0.007c-0.049-0.004-0.099-0.003-0.148,0.001
		c-0.143,0-0.284,0.001-0.428,0.001c-0.062,0-0.063,0-0.062,0.058c0,0.017-0.029,0.051,0.014,0.052c0.035,0,0.021-0.035,0.02-0.053
		c-0.002-0.03,0.011-0.031,0.037-0.031C-82.949,30.12-82.809,30.115-82.67,30.109z M-83.914,29.6
		c-0.19,0.002-0.359,0.054-0.503,0.172c-0.26,0.213-0.257,0.557,0.008,0.759c0.291,0.223,0.772,0.184,1.017-0.083
		c0.187-0.201,0.177-0.478-0.024-0.665C-83.554,29.655-83.725,29.604-83.914,29.6z M-82.454,29.912c0-0.002,0-0.004,0-0.007
		c-0.253,0-0.506,0-0.761,0c0.013,0.032,0.022,0.062,0.033,0.09c0.003,0.009,0.008,0.016,0.02,0.014
		c0.015-0.003,0.007-0.014,0.004-0.021c-0.004-0.012-0.007-0.023-0.013-0.034c-0.013-0.021-0.006-0.026,0.019-0.027
		c0.154-0.002,0.309-0.005,0.463-0.009C-82.611,29.917-82.532,29.914-82.454,29.912z M-85.336,30.106
		c0.004,0.012,0.011,0.01,0.017,0.01c0.175,0.005,0.35,0.011,0.524,0.015c0.042,0.001,0.082-0.004,0.083,0.053
		c0,0,0.003,0.002,0.006,0.003c0-0.015-0.002-0.028,0.001-0.041c0.008-0.036-0.009-0.044-0.046-0.043
		c-0.183,0.002-0.365,0.001-0.549,0.002C-85.311,30.104-85.323,30.105-85.336,30.106z M-82.436,29.9c0.05,0.006,0.1,0.023,0.15,0
		C-82.337,29.9-82.386,29.9-82.436,29.9z"/>
	<path fill-rule="evenodd" clip-rule="evenodd" fill="none" d="M-82.787,30.309c0.064,0.01,0.108-0.02,0.155-0.057
		c0.151-0.124,0.292-0.257,0.416-0.404c0.009-0.011,0.023-0.021,0.021-0.037c0-0.004,0-0.007,0-0.011
		c0.013-0.003,0.026-0.005,0.04,0.003c-0.071,0.095-0.151,0.181-0.236,0.263c-0.179,0.174-0.378,0.324-0.595,0.453
		c-0.021,0.013-0.041,0.018-0.066,0.018c-0.077,0-0.155,0.003-0.232,0c-0.033-0.001-0.057,0.01-0.079,0.029
		c-0.296,0.262-0.804,0.28-1.118,0.042c-0.008-0.006-0.016-0.011-0.021-0.017c-0.039-0.05-0.091-0.062-0.153-0.055
		c-0.041,0.005-0.083-0.002-0.125,0.003c-0.072,0.008-0.13-0.015-0.186-0.055c-0.07-0.051-0.145-0.096-0.21-0.152
		c0.009-0.003,0.01-0.01,0.012-0.017c0.003,0,0.005,0,0.008,0.001l-0.001-0.001c0,0.006,0.001,0.01,0.009,0.008l-0.001-0.001
		c0.065,0.063,0.146,0.107,0.22,0.16c0.04,0.028,0.083,0.04,0.134,0.037c0.072-0.003,0.146,0,0.218-0.001
		c0.018,0,0.031,0.003,0.045,0.016c0.14,0.138,0.314,0.205,0.513,0.219c0.22,0.015,0.422-0.037,0.599-0.165
		c0.004-0.003,0.009-0.005,0.012-0.009c0.047-0.061,0.113-0.068,0.186-0.063c0.04,0.004,0.081-0.002,0.121,0.002
		c0.059,0.005,0.107-0.011,0.155-0.044c0.068-0.049,0.141-0.096,0.212-0.143c0.005-0.004,0.013-0.004,0.021-0.008
		c-0.03-0.023-0.051-0.006-0.071-0.008C-82.787,30.314-82.787,30.311-82.787,30.309z"/>
	<path fill-rule="evenodd" clip-rule="evenodd" fill="none" d="M-84.486,29.728c-0.021,0.05-0.083,0.092-0.136,0.092
		c-0.343,0.001-0.686,0.002-1.029,0.003c-0.009-0.005-0.019-0.008-0.03-0.006c0.006-0.018,0.021-0.009,0.031-0.009
		c0.153-0.001,0.307,0,0.46-0.001c0.195,0,0.391-0.003,0.585-0.003c0.021,0,0.035-0.007,0.05-0.021
		C-84.535,29.762-84.52,29.735-84.486,29.728z"/>
	<path fill-rule="evenodd" clip-rule="evenodd" fill="none" d="M-83.774,29.542c-0.042,0.01-0.085-0.003-0.127-0.004
		c-0.072-0.003-0.145,0.004-0.212,0.018c-0.064,0.014-0.131,0.035-0.19,0.066c-0.036,0.02-0.074,0.033-0.105,0.06
		c-0.023,0.021-0.059,0.021-0.079,0.046c0.068-0.074,0.16-0.115,0.255-0.149c0.029-0.011,0.06-0.017,0.089-0.025
		c0.013,0.013,0.02,0.007,0.02-0.008c0.1-0.017,0.2-0.024,0.302-0.016C-83.806,29.531-83.786,29.525-83.774,29.542z"/>
	<path fill-rule="evenodd" clip-rule="evenodd" fill="none" d="M-85.681,29.817c0.012-0.002,0.021,0.001,0.03,0.006
		c0.018,0.043,0.052,0.075,0.082,0.109c0.081,0.096,0.165,0.19,0.261,0.273c0.018,0.015,0.037,0.029,0.055,0.044
		c-0.008,0.001-0.016,0.001-0.023,0.002c-0.153-0.123-0.282-0.268-0.397-0.422C-85.678,29.825-85.679,29.821-85.681,29.817z"/>
	<path fill-rule="evenodd" clip-rule="evenodd" fill="#787366" d="M-83.914,29.6c0.188,0.004,0.359,0.055,0.497,0.183
		c0.201,0.188,0.211,0.464,0.024,0.665c-0.244,0.267-0.726,0.306-1.017,0.083c-0.265-0.202-0.268-0.546-0.008-0.759
		C-84.273,29.654-84.104,29.602-83.914,29.6z M-83.899,29.63c-0.162,0-0.296,0.035-0.418,0.11c-0.33,0.206-0.333,0.598-0.007,0.797
		c0.256,0.157,0.635,0.125,0.856-0.073s0.222-0.491-0.002-0.681C-83.594,29.678-83.748,29.632-83.899,29.63z"/>
	<path fill-rule="evenodd" clip-rule="evenodd" fill="#E8E7E7" d="M-82.436,29.9c0.05,0,0.1,0,0.15,0
		C-82.337,29.923-82.386,29.906-82.436,29.9z"/>
	<path fill-rule="evenodd" clip-rule="evenodd" fill="#F9F9F9" d="M-85.158,30.316c0.005,0,0.013-0.002,0.009,0.008
		C-85.157,30.325-85.158,30.322-85.158,30.316z"/>
	<path fill-rule="evenodd" clip-rule="evenodd" fill="#E8E7E7" d="M-83.899,29.63c0.151,0.002,0.305,0.048,0.43,0.153
		c0.224,0.189,0.224,0.482,0.002,0.681s-0.601,0.23-0.856,0.073c-0.326-0.199-0.323-0.591,0.007-0.797
		C-84.195,29.665-84.061,29.63-83.899,29.63z M-83.956,30.605c0.146,0.002,0.294-0.042,0.412-0.124
		c0.278-0.191,0.272-0.543-0.011-0.724c-0.238-0.151-0.59-0.13-0.806,0.049c-0.228,0.189-0.228,0.482,0.001,0.665
		C-84.244,30.564-84.106,30.602-83.956,30.605z"/>
	<path fill-rule="evenodd" clip-rule="evenodd" fill="#787366" d="M-83.956,30.605c-0.15-0.003-0.288-0.041-0.403-0.134
		c-0.229-0.183-0.229-0.476-0.001-0.665c0.216-0.179,0.567-0.2,0.806-0.049c0.283,0.181,0.289,0.532,0.011,0.724
		C-83.662,30.563-83.809,30.607-83.956,30.605z M-84.374,30.112c0.002,0,0.005,0,0.007,0c0.017,0.036,0.032,0.072,0.049,0.108
		c0.005,0.014,0.01,0.025,0.027,0.024c0.02-0.001,0.035,0,0.045-0.021c0.017-0.033,0.037-0.064,0.056-0.097
		c0.003-0.006,0.005-0.016,0.015-0.013c0.011,0.003,0.007,0.012,0.007,0.019c-0.001,0.027-0.002,0.055-0.005,0.081
		c-0.001,0.017-0.004,0.035,0.023,0.028c0.02-0.005,0.056,0.021,0.057-0.024c0.003-0.072,0.008-0.145,0.01-0.216
		c0.001-0.009,0.005-0.019-0.004-0.024c-0.016-0.013-0.093,0.002-0.104,0.021c-0.027,0.044-0.054,0.089-0.081,0.134
		c-0.005-0.003-0.007-0.004-0.007-0.005c-0.014-0.031-0.028-0.062-0.043-0.095c-0.027-0.06-0.027-0.059-0.096-0.057
		c-0.018,0-0.023,0.006-0.024,0.023c-0.006,0.071-0.014,0.144-0.021,0.215c-0.001,0.013-0.011,0.035,0.017,0.029
		c0.022-0.004,0.06,0.022,0.062-0.024C-84.381,30.183-84.377,30.148-84.374,30.112z M-83.646,30.13
		c-0.047-0.052-0.087-0.095-0.126-0.139c-0.023-0.028-0.056-0.018-0.083-0.015c-0.019,0.002-0.009,0.027-0.01,0.042
		c-0.002,0.064-0.002,0.13-0.005,0.194c-0.002,0.023,0.005,0.035,0.031,0.03c0.02-0.004,0.053,0.016,0.05-0.028
		c-0.003-0.04-0.001-0.081-0.001-0.121c0.049,0.042,0.09,0.082,0.125,0.127c0.024,0.032,0.057,0.021,0.087,0.021
		c0.014,0.001,0.013-0.011,0.012-0.02c-0.001-0.075-0.002-0.151-0.003-0.228c0-0.036-0.029-0.018-0.046-0.021
		s-0.033-0.005-0.032,0.022C-83.645,30.037-83.646,30.079-83.646,30.13z M-83.418,30.112c-0.003,0-0.006,0-0.008,0
		c0-0.038,0-0.075,0-0.113c0-0.044-0.035-0.02-0.055-0.024c-0.021-0.005-0.028,0.005-0.028,0.025
		c0.004,0.063,0.004,0.128,0.005,0.191c0.002,0.059,0.002,0.058,0.064,0.053c0.017-0.001,0.021-0.006,0.021-0.021
		C-83.419,30.185-83.418,30.149-83.418,30.112z M-84.013,30.114c-0.002,0-0.005,0-0.008,0c0,0.035,0.001,0.07-0.001,0.106
		c-0.001,0.02,0.006,0.026,0.025,0.023c0.011-0.001,0.021-0.001,0.031,0c0.019,0.003,0.027-0.002,0.027-0.023
		c0.001-0.072,0.003-0.146,0.006-0.219c0.002-0.022-0.007-0.031-0.027-0.025c-0.019,0.005-0.054-0.021-0.054,0.024
		C-84.012,30.037-84.013,30.076-84.013,30.114z"/>
	<linearGradient id="SVGID_19_" gradientUnits="userSpaceOnUse" x1="-84.4651" y1="30.1101" x2="-84.0818" y2="30.1101">
		<stop  offset="0" style="stop-color:#FFFFFF"/>
		<stop  offset="1" style="stop-color:#C8C8C8"/>
	</linearGradient>
	<path fill-rule="evenodd" clip-rule="evenodd" fill="url(#SVGID_19_)" d="M-84.374,30.112c-0.003,0.036-0.007,0.071-0.01,0.107
		c-0.003,0.047-0.04,0.021-0.062,0.024c-0.027,0.006-0.018-0.017-0.017-0.029c0.007-0.071,0.015-0.144,0.021-0.215
		c0.001-0.018,0.007-0.023,0.024-0.023c0.068-0.002,0.068-0.003,0.096,0.057c0.015,0.032,0.029,0.063,0.043,0.095
		c0,0.001,0.002,0.002,0.007,0.005c0.027-0.045,0.054-0.09,0.081-0.134c0.011-0.019,0.088-0.033,0.104-0.021
		c0.009,0.006,0.005,0.016,0.004,0.024c-0.002,0.071-0.007,0.144-0.01,0.216c-0.001,0.046-0.037,0.02-0.057,0.024
		c-0.027,0.007-0.024-0.012-0.023-0.028c0.003-0.026,0.004-0.054,0.005-0.081c0-0.007,0.004-0.016-0.007-0.019
		c-0.01-0.003-0.012,0.007-0.015,0.013c-0.019,0.032-0.039,0.063-0.056,0.097c-0.01,0.021-0.025,0.02-0.045,0.021
		c-0.018,0.001-0.022-0.011-0.027-0.024c-0.017-0.036-0.032-0.072-0.049-0.108C-84.369,30.112-84.372,30.112-84.374,30.112z
		 M-84.178,30.107c0.002,0.002,0.004,0.003,0.006,0.005c0.002-0.003,0.004-0.006,0.004-0.009c0.001-0.001-0.002-0.003-0.003-0.005
		C-84.175,30.101-84.177,30.104-84.178,30.107z"/>
	<linearGradient id="SVGID_20_" gradientUnits="userSpaceOnUse" x1="-83.8704" y1="30.1086" x2="-83.5657" y2="30.1086">
		<stop  offset="0" style="stop-color:#FFFFFF"/>
		<stop  offset="1" style="stop-color:#C8C8C8"/>
	</linearGradient>
	<path fill-rule="evenodd" clip-rule="evenodd" fill="url(#SVGID_20_)" d="M-83.646,30.13c0-0.051,0.001-0.093-0.001-0.133
		c-0.001-0.027,0.016-0.025,0.032-0.022s0.046-0.016,0.046,0.021c0.001,0.076,0.002,0.152,0.003,0.228
		c0.001,0.009,0.002,0.021-0.012,0.02c-0.03-0.001-0.062,0.011-0.087-0.021c-0.035-0.045-0.076-0.085-0.125-0.127
		c0,0.04-0.002,0.081,0.001,0.121c0.003,0.044-0.03,0.024-0.05,0.028c-0.026,0.005-0.033-0.007-0.031-0.03
		c0.003-0.064,0.003-0.13,0.005-0.194c0.001-0.015-0.009-0.04,0.01-0.042c0.027-0.003,0.06-0.014,0.083,0.015
		C-83.733,30.035-83.693,30.078-83.646,30.13z"/>
	<linearGradient id="SVGID_21_" gradientUnits="userSpaceOnUse" x1="-83.5085" y1="30.1086" x2="-83.4177" y2="30.1086">
		<stop  offset="0" style="stop-color:#FFFFFF"/>
		<stop  offset="1" style="stop-color:#C8C8C8"/>
	</linearGradient>
	<path fill-rule="evenodd" clip-rule="evenodd" fill="url(#SVGID_21_)" d="M-83.418,30.112c0,0.037-0.001,0.073,0,0.11
		c0,0.016-0.005,0.021-0.021,0.021c-0.062,0.005-0.062,0.006-0.064-0.053c-0.001-0.063-0.001-0.128-0.005-0.191
		c0-0.021,0.007-0.03,0.028-0.025c0.02,0.005,0.055-0.02,0.055,0.024c0,0.038,0,0.075,0,0.113
		C-83.424,30.112-83.421,30.112-83.418,30.112z"/>
	<linearGradient id="SVGID_22_" gradientUnits="userSpaceOnUse" x1="-84.0222" y1="30.1086" x2="-83.9324" y2="30.1086">
		<stop  offset="0" style="stop-color:#FFFFFF"/>
		<stop  offset="1" style="stop-color:#C8C8C8"/>
	</linearGradient>
	<path fill-rule="evenodd" clip-rule="evenodd" fill="url(#SVGID_22_)" d="M-84.013,30.114c0-0.037,0.001-0.076,0-0.113
		c0-0.045,0.035-0.02,0.054-0.024c0.021-0.006,0.029,0.003,0.027,0.025c-0.003,0.072-0.005,0.146-0.006,0.219
		c0,0.021-0.009,0.026-0.027,0.023c-0.011-0.001-0.021-0.001-0.031,0c-0.02,0.003-0.026-0.004-0.025-0.023
		c0.002-0.036,0.001-0.071,0.001-0.106C-84.018,30.114-84.015,30.114-84.013,30.114z"/>
	
		<rect x="-84.179" y="30.102" transform="matrix(-0.6139 0.7894 -0.7894 -0.6139 -112.0879 115.0299)" fill-rule="evenodd" clip-rule="evenodd" fill="#2B2B2B" width="0.011" height="0.006"/>
	<path opacity="0.8" fill="#C0B9AB" enable-background="new    " d="M-77.561,37.105c0,0.313-0.254,0.567-0.567,0.567h-11.721
		c-0.312,0-0.566-0.254-0.566-0.567v-1.646c0-0.314,0.254-0.567,0.566-0.567h11.721c0.313,0,0.567,0.253,0.567,0.567V37.105z"/>
	<g>
		<path fill="#C0B9AB" d="M-75.528,15.98c-0.751-0.023-4.65-0.249-8.538-0.249c-3.887,0-7.76,0.226-8.511,0.249
			c-1.605,0.051-2.638,1.051-2.638,1.051h10.907h0.51h10.906C-72.891,17.031-73.923,16.031-75.528,15.98z"/>
		<linearGradient id="SVGID_23_" gradientUnits="userSpaceOnUse" x1="-96.5476" y1="16.3801" x2="-71.5574" y2="16.3801">
			<stop  offset="0" style="stop-color:#FFFFFF"/>
			<stop  offset="1" style="stop-color:#C8C8C8"/>
		</linearGradient>
		<path fill="url(#SVGID_23_)" d="M-84.066,15.731c3.888,0,7.787,0.226,8.538,0.249c1.605,0.051,2.637,1.051,2.637,1.051h-10.906
			h-0.51h-10.907c0,0,1.032-1,2.638-1.051C-91.826,15.956-87.953,15.731-84.066,15.731 M-84.066,15.19
			c-3.113,0-6.227,0.146-7.724,0.216c-0.381,0.018-0.657,0.03-0.805,0.034c-1.793,0.057-2.948,1.156-2.996,1.203l-0.957,0.928h1.333
			h10.907h0.51h10.906h1.334l-0.957-0.928c-0.049-0.047-1.203-1.146-2.996-1.203c-0.147-0.004-0.423-0.017-0.804-0.034
			C-77.819,15.335-80.95,15.19-84.066,15.19L-84.066,15.19z"/>
	</g>
	<g>
		<line fill="#C0B9AB" x1="-84.264" y1="15.717" x2="-84.264" y2="14.233"/>
		<linearGradient id="SVGID_24_" gradientUnits="userSpaceOnUse" x1="-84.5349" y1="14.9749" x2="-83.9939" y2="14.9749">
			<stop  offset="0" style="stop-color:#FFFFFF"/>
			<stop  offset="1" style="stop-color:#C8C8C8"/>
		</linearGradient>
		<rect x="-84.535" y="14.233" fill="url(#SVGID_24_)" width="0.541" height="1.484"/>
	</g>
	<g>
		<line fill="#C0B9AB" x1="-84.264" y1="12.268" x2="-84.264" y2="14.249"/>
		<linearGradient id="SVGID_25_" gradientUnits="userSpaceOnUse" x1="-84.3542" y1="13.2585" x2="-84.1736" y2="13.2585">
			<stop  offset="0" style="stop-color:#FFFFFF"/>
			<stop  offset="1" style="stop-color:#C8C8C8"/>
		</linearGradient>
		<rect x="-84.354" y="12.268" fill="url(#SVGID_25_)" width="0.181" height="1.981"/>
	</g>
</g>
</svg>
