<?xml version="1.0" encoding="utf-8"?>
<!-- Generator: Adobe Illustrator 16.0.0, SVG Export Plug-In . SVG Version: 6.00 Build 0)  -->
<!DOCTYPE svg PUBLIC "-//W3C//DTD SVG 1.1//EN" "http://www.w3.org/Graphics/SVG/1.1/DTD/svg11.dtd">
<svg version="1.1" id="Isolation_Mode" xmlns="http://www.w3.org/2000/svg" xmlns:xlink="http://www.w3.org/1999/xlink" x="0px"
	 y="0px" width="303px" height="314px" viewBox="0 0 303 314" enable-background="new 0 0 303 314" xml:space="preserve">
<g>
	<rect fill="none" width="303" height="314"/>
	<g>
		<path fill="#444444" d="M151.431,133.174c19.275,0,34.897,15.622,34.897,34.905c0,19.268-15.622,34.897-34.897,34.897
			c-19.275,0-34.897-15.63-34.897-34.897C116.534,148.796,132.156,133.174,151.431,133.174z"/>
		<path fill="#444444" d="M238.682,80.829h-34.574l-19.962-21.813h-65.43L98.753,80.829H64.18c-11.993,0-21.805,9.811-21.805,21.812
			V233.51c0,11.993,9.812,21.812,21.805,21.812h174.502c11.978,0,21.805-9.819,21.805-21.812V102.641
			C260.486,90.64,250.675,80.829,238.682,80.829z M151.431,222.607c-30.097,0-54.528-24.439-54.528-54.528
			c0-30.104,24.431-54.536,54.528-54.536s54.527,24.439,54.527,54.536C205.958,198.176,181.527,222.607,151.431,222.607z"/>
	</g>
</g>
</svg>
