<?xml version="1.0" encoding="utf-8"?>
<!-- Generator: Adobe Illustrator 16.0.0, SVG Export Plug-In . SVG Version: 6.00 Build 0)  -->
<!DOCTYPE svg PUBLIC "-//W3C//DTD SVG 1.1//EN" "http://www.w3.org/Graphics/SVG/1.1/DTD/svg11.dtd">
<svg version="1.1" id="Isolation_Mode" xmlns="http://www.w3.org/2000/svg" xmlns:xlink="http://www.w3.org/1999/xlink" x="0px"
	 y="0px" width="303px" height="314px" viewBox="0 0 303 314" enable-background="new 0 0 303 314" xml:space="preserve">
<g>
	<g>
		<path fill="#FF4B00" d="M263.475,26.945H35.807c-8.271,0-15,6.729-15,15v228c0,8.271,6.729,15,15,15h227.667
			c8.271,0,15-6.729,15-15v-228C278.475,33.674,271.746,26.945,263.475,26.945z M258.475,264.945H40.807v-218h217.667V264.945
			L258.475,264.945z"/>
		<rect x="140.295" y="83.542" fill="#FF4B00" width="19.766" height="20.84"/>
		<path fill="#FF4B00" d="M139.221,137.2c0.859,1.684,1.359,3.921,1.504,6.714c0.143,2.793,0.215,6.482,0.215,11.064v46.836
			c0,5.013-0.233,8.701-0.698,11.062c-0.467,2.364-1.112,4.119-1.934,5.266c-0.824,1.146-1.826,2.041-3.008,2.686
			c-1.182,0.645-3.169,1.396-5.962,2.256v5.264h42.107v-5.264c-3.652-0.93-6.283-2.023-7.896-3.277
			c-1.61-1.252-2.704-3.078-3.276-5.479c-0.573-2.398-0.858-6.676-0.858-12.836v-76.807h-6.554l-25.027,0.967v5.693
			c3.223,0.574,5.71,1.273,7.466,2.095C137.054,134.264,138.362,135.518,139.221,137.2z"/>
	</g>
	<rect fill="none" width="303" height="314"/>
</g>
</svg>
