<?xml version="1.0" encoding="utf-8"?>
<!-- Generator: Adobe Illustrator 16.0.4, SVG Export Plug-In . SVG Version: 6.00 Build 0)  -->
<!DOCTYPE svg PUBLIC "-//W3C//DTD SVG 1.1//EN" "http://www.w3.org/Graphics/SVG/1.1/DTD/svg11.dtd">
<svg version="1.1" id="Layer_1" xmlns="http://www.w3.org/2000/svg" xmlns:xlink="http://www.w3.org/1999/xlink" x="0px" y="0px"
	 width="68.354px" height="51.926px" viewBox="0 0 68.354 51.926" enable-background="new 0 0 68.354 51.926" xml:space="preserve">
<g>
	<rect x="0.376" y="-0.037" fill="none" width="67.978" height="51.963"/>
</g>
<g>
	<polygon fill="#A7A7A7" points="19.155,32.146 27.271,25.203 19.155,18.255 19.155,22.471 6.359,22.471 6.359,25.203 6.359,27.934 
		19.155,27.934 	"/>
	<path fill="#A7A7A7" d="M46.038,13.109l-15.06-6.4l-15.956,6.4v1.793v4.993h1.793v-5.713l13.267-5.315v28.519l-13.267,5.318V30.821
		h-1.793v12.601v0.588v1.207l15.956-6.395l15.06,6.395l15.957-6.397v-0.43v-1.366V8.503V7.487V6.709L46.038,13.109z M45.142,43.045
		l-13.266-5.64V8.885l13.266,5.636V43.045z M60.2,37.741l-13.264,5.319V14.546L60.2,9.224V37.741z"/>
</g>
</svg>
