<?xml version="1.0" encoding="utf-8"?>
<!-- Generator: Adobe Illustrator 16.0.0, SVG Export Plug-In . SVG Version: 6.00 Build 0)  -->
<!DOCTYPE svg PUBLIC "-//W3C//DTD SVG 1.1//EN" "http://www.w3.org/Graphics/SVG/1.1/DTD/svg11.dtd">
<svg version="1.1" id="Layer_1" xmlns="http://www.w3.org/2000/svg" xmlns:xlink="http://www.w3.org/1999/xlink" x="0px" y="0px"
	 width="68.354px" height="51.926px" viewBox="0 0 68.354 51.926" enable-background="new 0 0 68.354 51.926" xml:space="preserve">
<g opacity="0.6">
	<rect x="0" y="-0.001" fill="none" width="68.354" height="51.928"/>
</g>
<path opacity="0.6" fill="#FFFFFF" d="M41.032,8.408H27.31c-1.346,0-2.459,1.123-2.459,2.449v30.2c0,1.338,1.125,2.46,2.459,2.46
	h13.732c1.337,0,2.461-1.104,2.461-2.46V10.869C43.491,9.521,42.389,8.408,41.032,8.408z M31.653,10.376h5.049
	c0.186,0,0.339,0.147,0.331,0.333c0,0.186-0.146,0.33-0.331,0.33h-5.049c-0.176,0-0.33-0.145-0.33-0.33
	C31.323,10.522,31.469,10.376,31.653,10.376z M34.177,42.025c-0.868,0-1.569-0.7-1.569-1.569c0-0.87,0.701-1.57,1.569-1.57
	c0.871,0,1.571,0.7,1.57,1.57C35.747,41.325,35.048,42.025,34.177,42.025z M42.46,37.335H25.895V13.127H42.46V37.335z"/>
<path opacity="0.6" fill="#FFFFFF" d="M34.177,33.155c-0.111,0-0.211-0.06-0.264-0.154c-1.655-2.954-3.47-6.304-4.068-8.685
	c-0.005-0.023-0.008-0.047-0.013-0.068c-0.076-0.336-0.119-0.68-0.119-1.015c0-2.461,2.003-4.463,4.464-4.463
	s4.464,2.002,4.464,4.463c0,0.334-0.04,0.679-0.123,1.025c0,0.009-0.003,0.028-0.008,0.052c-0.599,2.384-2.415,5.735-4.069,8.69
	C34.389,33.096,34.287,33.155,34.177,33.155z M34.177,19.375c-2.128,0-3.857,1.732-3.857,3.858c0,0.288,0.035,0.587,0.105,0.884
	c0.001,0.011,0.008,0.045,0.009,0.053c0.547,2.185,2.183,5.264,3.743,8.062c1.559-2.799,3.196-5.882,3.745-8.063
	c0-0.007,0.004-0.041,0.006-0.047c0.071-0.302,0.107-0.601,0.107-0.885C38.035,21.107,36.304,19.375,34.177,19.375z M34.177,25.548
	c-1.276,0-2.312-1.038-2.312-2.314c0-1.273,1.036-2.312,2.312-2.312s2.312,1.038,2.312,2.312
	C36.49,24.51,35.453,25.548,34.177,25.548z M34.177,21.526c-0.941,0-1.708,0.766-1.708,1.707c0,0.943,0.767,1.709,1.708,1.709
	s1.708-0.766,1.708-1.709C35.885,22.292,35.118,21.526,34.177,21.526z"/>
</svg>
