<?xml version="1.0" encoding="utf-8"?>
<!-- Generator: Adobe Illustrator 16.0.4, SVG Export Plug-In . SVG Version: 6.00 Build 0)  -->
<!DOCTYPE svg PUBLIC "-//W3C//DTD SVG 1.1//EN" "http://www.w3.org/Graphics/SVG/1.1/DTD/svg11.dtd">
<svg version="1.1" id="Layer_1" xmlns="http://www.w3.org/2000/svg" xmlns:xlink="http://www.w3.org/1999/xlink" x="0px" y="0px"
	 width="68.354px" height="51.926px" viewBox="0 0 68.354 51.926" enable-background="new 0 0 68.354 51.926" xml:space="preserve">
<g>
	<g>
		<rect x="0.376" y="-0.037" fill="none" width="67.978" height="51.963"/>
	</g>
	<g>
		<path fill="#A7A7A7" enable-background="new    " d="M24.765,47.154c-0.635,0-1.265-0.167-1.823-0.482l-11.583-6.528
			c-1.745-0.981-2.389-3.157-1.436-4.846l11.388-20.202c0.612-1.088,1.789-1.763,3.067-1.763c0.634,0,1.265,0.167,1.824,0.482
			l11.582,6.53c1.745,0.982,2.388,3.156,1.437,4.845L27.832,45.392C27.22,46.479,26.045,47.154,24.765,47.154z M24.377,15.512
			c-0.5,0-0.937,0.245-1.168,0.654L11.823,36.367c-0.362,0.643-0.089,1.484,0.607,1.878l11.583,6.529
			c0.682,0.383,1.571,0.169,1.921-0.454l11.387-20.201c0.362-0.641,0.089-1.484-0.608-1.878L25.13,15.712
			C24.897,15.58,24.636,15.512,24.377,15.512z"/>
		<path fill="#A7A7A7" enable-background="new    " d="M55.282,14.452c3.037,5.254,3.703,11.815,1.753,17.566
			c-0.276,0.764-1.226,1.144-1.967,0.839c-0.822-0.211-1.312-1.194-0.992-1.978c1.586-4.88,1.038-10.414-1.545-14.856
			c-2.105-3.708-5.555-6.617-9.547-8.113c-0.371-0.125-0.732-0.34-0.927-0.694c-0.55-0.858-0.007-2.161,0.978-2.398
			c0.348-0.099,0.714-0.023,1.04,0.108C48.772,6.664,52.804,10.102,55.282,14.452z"/>
		<path fill="#A7A7A7" enable-background="new    " d="M49.877,16.91c2.479,3.951,3.045,9.03,1.499,13.428
			c-0.304,0.718-1.193,1.079-1.916,0.796c-0.799-0.189-1.321-1.101-1.061-1.882c0.946-2.795,0.889-5.927-0.204-8.669
			c-1.296-3.348-4.114-6.042-7.493-7.232c-0.815-0.258-1.23-1.273-0.866-2.038c0.234-0.747,1.099-1.219,1.849-0.976
			C45.063,11.506,47.999,13.875,49.877,16.91z"/>
		<path fill="#A7A7A7" enable-background="new    " d="M44.908,20.085c1.539,2.504,1.853,5.716,0.838,8.473
			c-0.279,0.756-1.206,1.134-1.946,0.842c-0.812-0.198-1.317-1.142-1.028-1.927c0.56-1.548,0.534-3.302-0.104-4.825
			c-0.696-1.738-2.187-3.117-3.947-3.736c-0.473-0.134-0.885-0.473-1.051-0.943c-0.431-1.071,0.604-2.462,1.781-2.152
			C41.712,16.501,43.674,18.077,44.908,20.085z"/>
	</g>
</g>
</svg>
