<?xml version="1.0" encoding="utf-8"?>
<!-- Generator: Adobe Illustrator 16.0.0, SVG Export Plug-In . SVG Version: 6.00 Build 0)  -->
<!DOCTYPE svg PUBLIC "-//W3C//DTD SVG 1.1//EN" "http://www.w3.org/Graphics/SVG/1.1/DTD/svg11.dtd">
<svg version="1.1" id="Layer_1" xmlns="http://www.w3.org/2000/svg" xmlns:xlink="http://www.w3.org/1999/xlink" x="0px" y="0px"
	 width="68.354px" height="51.926px" viewBox="0 0 68.354 51.926" enable-background="new 0 0 68.354 51.926" xml:space="preserve">
<g opacity="0.6">
	<rect x="0" y="-0.001" fill="none" width="68.354" height="51.928"/>
</g>
<g>
	<path opacity="0.6" fill="#FFFFFF" d="M39.42,20.143H28.962c-1.026,0-1.875,0.857-1.875,1.867v23.019
		c0,1.02,0.857,1.875,1.875,1.875h10.466c1.019,0,1.876-0.842,1.876-1.875v-23.01C41.295,20.991,40.454,20.143,39.42,20.143z
		 M32.272,21.642h3.848c0.141,0,0.259,0.113,0.252,0.254c0,0.142-0.111,0.251-0.252,0.251h-3.848c-0.135,0-0.252-0.109-0.252-0.251
		C32.02,21.754,32.131,21.642,32.272,21.642z M34.196,45.766c-0.662,0-1.196-0.533-1.196-1.196c0-0.662,0.534-1.196,1.196-1.196
		c0.663,0,1.197,0.534,1.196,1.196C35.392,45.232,34.859,45.766,34.196,45.766z M40.508,42.191H27.883V23.74h12.625V42.191z"/>
	<path opacity="0.6" fill="#FFFFFF" d="M33.188,5.059c4.121-0.297,8.336,1.245,11.277,4.148c0.386,0.397,0.335,1.091-0.071,1.454
		c-0.374,0.44-1.122,0.448-1.507,0.02C40.371,8.259,36.82,6.95,33.332,7.21c-2.897,0.187-5.705,1.435-7.807,3.434
		c-0.187,0.19-0.425,0.348-0.701,0.361c-0.688,0.081-1.325-0.639-1.177-1.313c0.042-0.242,0.197-0.443,0.375-0.604
		C26.484,6.73,29.788,5.284,33.188,5.059z"/>
	<path opacity="0.6" fill="#FFFFFF" d="M33.086,9.1c3.157-0.343,6.435,0.82,8.669,3.076c0.349,0.398,0.305,1.051-0.083,1.409
		c-0.354,0.433-1.066,0.481-1.468,0.089c-1.43-1.41-3.364-2.306-5.368-2.453c-2.436-0.202-4.923,0.722-6.657,2.438
		c-0.4,0.423-1.145,0.375-1.504-0.076c-0.388-0.365-0.42-1.036-0.047-1.423C28.345,10.442,30.669,9.349,33.086,9.1z"/>
	<path opacity="0.6" fill="#FFFFFF" d="M33.552,13.087c1.992-0.198,4.052,0.565,5.438,2.007c0.379,0.396,0.335,1.076-0.064,1.441
		c-0.362,0.438-1.091,0.467-1.484,0.057c-0.782-0.802-1.864-1.31-2.985-1.371c-1.272-0.09-2.559,0.412-3.462,1.306
		c-0.222,0.25-0.552,0.403-0.89,0.363c-0.784-0.055-1.328-1.102-0.788-1.729C30.407,13.979,31.956,13.246,33.552,13.087z"/>
</g>
</svg>
