<?xml version="1.0" encoding="utf-8"?>
<!-- Generator: Adobe Illustrator 16.0.0, SVG Export Plug-In . SVG Version: 6.00 Build 0)  -->
<!DOCTYPE svg PUBLIC "-//W3C//DTD SVG 1.1//EN" "http://www.w3.org/Graphics/SVG/1.1/DTD/svg11.dtd">
<svg version="1.1" id="Layer_1" xmlns="http://www.w3.org/2000/svg" xmlns:xlink="http://www.w3.org/1999/xlink" x="0px" y="0px"
	 width="68.354px" height="51.926px" viewBox="0 0 68.354 51.926" enable-background="new 0 0 68.354 51.926" xml:space="preserve">
<g opacity="0.6">
	<rect x="0" y="-0.001" fill="none" width="68.354" height="51.928"/>
</g>
<g opacity="0.6">
	<g>
		<ellipse fill="#FFFFFF" cx="26.386" cy="28.313" rx="0.849" ry="0.432"/>
		<path fill="#FFFFFF" d="M15.441,31.062c1.328-0.046,3.439-0.089,4.17-0.089c-0.019,1.338,2.307,1.761,3.014,1.761
			c0.703,0,1.334,0,2.128,0c0.792,0,1.317-0.399,1.317-1.375c0-0.974-0.2-1.81-0.2-1.81c-0.184-0.414-0.622-0.467-1.63-0.467
			c-1.003,0-2.598,0-3.131,0c-1.299,0-1.446,0.423-1.536,0.865c-0.095-0.183-0.263-0.21-0.492-0.267
			c-0.229-0.063-2.911-0.781-3.529-0.963c-0.621-0.187-1.802-0.571-1.982,0.053c-0.179,0.622-0.465,1.723,0.465,1.723
			C14,31.045,14.391,31.103,15.441,31.062z M20.022,29.839c0.176-0.285,0.467-0.476,1.002-0.47c0.714,0.011,3.177,0.072,3.61,0.11
			c0.437,0.038,0.801,0.18,0.852,0.823c0.053,0.643,0.194,1.468-0.273,1.772c-0.461,0.303-2.185,0.235-2.863,0.161
			c-0.68-0.074-2.223-0.394-2.328-1.001C19.915,30.626,19.841,30.125,20.022,29.839z"/>
		<path fill="#FFFFFF" d="M37.223,28.718c-0.618,0.184-3.301,0.899-3.528,0.963c-0.229,0.057-0.397,0.087-0.495,0.269
			c-0.089-0.444-0.235-0.867-1.534-0.867c-0.532,0-2.129,0-3.131,0c-1.008,0-1.445,0.053-1.629,0.469c0,0-0.204,0.834-0.204,1.812
			c0,0.974,0.526,1.371,1.319,1.371c0.794,0,1.425,0,2.129,0c0.707,0,3.032-0.423,3.012-1.761c0.732,0,2.843,0.043,4.171,0.089
			c1.05,0.041,1.441-0.017,1.405-0.568c0.927,0,0.645-1.101,0.468-1.723C39.025,28.146,37.843,28.531,37.223,28.718z M32.754,31.235
			c-0.109,0.607-1.648,0.929-2.326,1.003c-0.682,0.072-2.4,0.14-2.865-0.163c-0.466-0.303-0.326-1.128-0.274-1.771
			c0.054-0.646,0.417-0.787,0.854-0.825c0.433-0.038,2.894-0.1,3.612-0.11c0.533-0.006,0.823,0.185,1,0.47
			C32.935,30.125,32.861,30.626,32.754,31.235z"/>
		<path fill="#FFFFFF" d="M37.671,33.07c-0.435,0.017-1.346,0.124-2.886,0.269c-1.541,0.144-2.646,0.305-2.902,0.789l-5.487,0.025
			l-5.492-0.025c-0.253-0.484-1.357-0.646-2.897-0.789c-1.542-0.145-2.452-0.252-2.889-0.269c-0.433-0.018-0.974-0.132-0.94,0.715
			c0.032,0.851,0.104,1.426,1.051,1.536c0.95,0.112,2.64,0.209,3.646,0.285c1.007,0.076,2.4,0.252,2.286-0.188
			c0.973-0.04,0.396,0.33,1.154,0.35c0.626,0.019,3.208,0.006,4.082,0.002c0.875,0.004,3.455,0.017,4.083-0.002
			c0.758-0.02,0.18-0.39,1.153-0.35c-0.114,0.44,1.279,0.265,2.283,0.188c1.007-0.076,2.697-0.173,3.647-0.285
			c0.947-0.11,1.02-0.686,1.051-1.536C38.647,32.938,38.106,33.053,37.671,33.07z"/>
		<path fill="#FFFFFF" d="M40.68,28.208c-0.584-0.946-1.974-1.877-2.837-2.398h0.356c0.311,0,1.256,0,1.256-0.859
			c0-0.655-0.739-0.848-1.13-0.86c-0.005,0-0.42,0-0.772,0c-0.228,0.003-0.696,0.007-0.702,0.491
			c-0.771-1.477-2.147-3.324-3.221-4.038c-0.365-0.243-0.798-0.256-0.846-0.257c-2.727-0.202-6.337-0.204-6.374-0.204h-0.023h-0.023
			c-0.036,0-3.647,0.002-6.374,0.204c-0.046,0.001-0.481,0.015-0.846,0.257c-1.072,0.714-2.45,2.561-3.219,4.038
			c-0.007-0.483-0.478-0.487-0.704-0.491c-0.352,0-0.769,0-0.774,0c-0.389,0.013-1.127,0.204-1.127,0.86
			c0,0.859,0.942,0.859,1.253,0.859h0.358c-0.862,0.521-2.256,1.452-2.836,2.398c-0.508,0.827-0.691,4.106-0.678,5.035
			c0.007,0.675,0.069,1.718,0.127,2.729l0.089,1.678c0.035,0.899,0.45,1.32,1.305,1.32h3.387c1.462,0,1.475-1.362,1.476-1.39
			c0.038,0,0.078-0.002,0.116-0.002c0.87,0,1.424,0.111,1.837,0.196c0.062,0.013,0.116,0.023,0.169,0.034
			c0.507,0.095,3.035,0.194,3.064,0.196l3.358,0.02h0.04h0.042l3.358-0.02c0.029-0.002,2.557-0.102,3.064-0.196
			c0.052-0.011,0.11-0.021,0.167-0.034c0.416-0.085,0.97-0.196,1.84-0.196c0.038,0,0.075,0.002,0.112,0.002
			c0.004,0.027,0.02,1.39,1.479,1.39h3.388c0.855,0,1.269-0.421,1.305-1.32l0.088-1.678c0.06-1.012,0.119-2.055,0.128-2.729
			C41.369,32.314,41.188,29.037,40.68,28.208z M19.492,21.066c0.207-0.137,0.489-0.149,0.527-0.149
			c2.722-0.201,6.309-0.204,6.345-0.204h0.023h0.023c0.036,0,3.626,0.003,6.347,0.204c0.035,0,0.317,0.014,0.523,0.149
			c1.05,0.7,2.437,2.616,3.133,4.046H26.386H16.36C17.058,23.683,18.442,21.767,19.492,21.066z M40.726,33.232
			c-0.007,0.667-0.068,1.703-0.125,2.702l-0.022,0.388c-0.025,0.45-0.05,0.452-0.257,0.479c-0.433,0.054-2.883,0.114-5.032,0.155
			c-0.142-0.005-0.287-0.007-0.43-0.007c-0.934,0-1.523,0.118-1.959,0.203c-0.061,0.015-0.115,0.025-0.167,0.036
			c-0.33,0.062-1.951,0.146-2.961,0.184l-3.383,0.021l-3.387-0.021c-1.006-0.038-2.631-0.122-2.96-0.184
			c-0.052-0.011-0.106-0.021-0.168-0.036c-0.431-0.085-1.024-0.203-1.955-0.203c-0.142,0-0.292,0.002-0.432,0.007
			c-2.15-0.041-4.6-0.102-5.033-0.155c-0.209-0.027-0.229-0.029-0.257-0.479l-0.022-0.388c-0.057-0.999-0.118-2.035-0.126-2.702
			c-0.017-1.237,0.24-4.132,0.585-4.694c0.716-1.166,3.005-2.413,3.279-2.559h10.477h10.472c0.277,0.146,2.561,1.393,3.28,2.559
			C40.488,29.101,40.743,31.995,40.726,33.232z"/>
		<path fill="#FFFFFF" d="M48.864,38.971c-0.199,0-0.381-0.107-0.477-0.281c-2.992-5.34-6.274-11.4-7.355-15.705
			c-0.011-0.042-0.017-0.083-0.023-0.124c-0.14-0.607-0.216-1.229-0.216-1.832c0-4.451,3.622-8.073,8.071-8.073
			c4.451,0,8.073,3.622,8.073,8.073c0,0.602-0.073,1.225-0.222,1.853c0,0.016-0.007,0.052-0.016,0.094
			c-1.082,4.312-4.366,10.372-7.357,15.715C49.247,38.863,49.064,38.971,48.864,38.971z M48.864,14.05
			c-3.848,0-6.976,3.131-6.976,6.978c0,0.52,0.063,1.06,0.191,1.597c0.002,0.019,0.015,0.08,0.018,0.095
			c0.987,3.949,3.943,9.518,6.767,14.581c2.819-5.063,5.779-10.637,6.772-14.584c0.002-0.013,0.009-0.074,0.011-0.087
			c0.132-0.542,0.195-1.083,0.195-1.6C55.842,17.182,52.712,14.05,48.864,14.05z M48.864,25.213c-2.307,0-4.182-1.878-4.182-4.185
			c0-2.306,1.876-4.183,4.182-4.183c2.309,0,4.184,1.877,4.184,4.183C53.047,23.335,51.172,25.213,48.864,25.213z M48.864,17.939
			c-1.701,0-3.088,1.385-3.088,3.089s1.387,3.09,3.088,3.09c1.702,0,3.09-1.386,3.09-3.09S50.566,17.939,48.864,17.939z"/>
	</g>
</g>
</svg>
