<?xml version="1.0" encoding="utf-8"?>
<!-- Generator: Adobe Illustrator 16.0.0, SVG Export Plug-In . SVG Version: 6.00 Build 0)  -->
<!DOCTYPE svg PUBLIC "-//W3C//DTD SVG 1.1//EN" "http://www.w3.org/Graphics/SVG/1.1/DTD/svg11.dtd">
<svg version="1.1" id="Layer_1" xmlns="http://www.w3.org/2000/svg" xmlns:xlink="http://www.w3.org/1999/xlink" x="0px" y="0px"
	 width="186.25px" height="155.17px" viewBox="0 0 186.25 155.17" enable-background="new 0 0 186.25 155.17" xml:space="preserve">
<line fill="none" x1="65.456" y1="111.43" x2="65.456" y2="106.26"/>
<line fill="none" x1="43.436" y1="109.094" x2="43.436" y2="103.924"/>
<linearGradient id="SVGID_1_" gradientUnits="userSpaceOnUse" x1="17.6953" y1="78.8438" x2="177.2607" y2="78.8438" gradientTransform="matrix(1 0 0 -1 -8.3599 179.2246)">
	<stop  offset="0" style="stop-color:#FFFFFF"/>
	<stop  offset="1" style="stop-color:#C8C8C8"/>
</linearGradient>
<path fill="url(#SVGID_1_)" d="M168.587,103.197c-0.703-13.496-20.407-17.062-20.407-17.062l-17.242,12.293h-10.945L95.335,82.948
	c0.13-0.031,0.258-0.062,0.373-0.09c-6.461-5.105-15.387-6.726-15.387-6.726L61.818,89.326H50.072L31.57,76.133
	c0,0-21.145,3.828-21.898,18.312c-0.757,14.479,0,24.778,0,24.778h44.597h3.355h14.927c0.002,0.031,0.005,5.406,0.005,5.406h51.346
	h3.127h41.56C168.587,124.629,169.292,116.689,168.587,103.197z M88.59,85.199c-2.874,1.43-6.296,3.441-9.248,6.012
	C82,88.479,85.453,86.535,88.59,85.199z"/>
<linearGradient id="SVGID_2_" gradientUnits="userSpaceOnUse" x1="111.8047" y1="111.0547" x2="156.4375" y2="111.0547" gradientTransform="matrix(1 0 0 -1 -8.3599 179.2246)">
	<stop  offset="0" style="stop-color:#FFFFFF"/>
	<stop  offset="1" style="stop-color:#C8C8C8"/>
</linearGradient>
<path fill="url(#SVGID_2_)" d="M147.262,67.292c-1.837-0.87-3.926-1.854-3.926-1.854s1.562-6.673,1.168-12.604
	c-0.385-5.931-8.59-8.646-12.494-10.008c-3.904-1.361-8.592-1.361-12.498,0c-3.902,1.361-12.103,4.077-12.494,10.008
	c-0.39,5.929,1.17,12.604,1.17,12.604s-2.086,0.984-3.926,1.854c-1.839,0.868,0,7.413,0,7.413l3.926,4.078
	c0,0,6.638,14.457,12.107,15.197c5.467,0.738,5.467,0.738,10.934,0c5.467-0.74,12.105-15.197,12.105-15.197l3.925-4.078
	C147.262,74.705,149.1,68.16,147.262,67.292z"/>
<g>
	<path fill="#777266" d="M164.252,104.285c-0.637-10.842-18.492-13.707-18.492-13.707l-15.621,9.877h-9.916l-15.621-9.877
		c0,0-17.853,2.865-18.49,13.707c-0.639,10.834,0,17.213,0,17.213h37.654h2.832h37.655
		C164.252,121.498,164.889,115.119,164.252,104.285z"/>
	<path fill="#777266" d="M142.732,67.247c-1.5-0.747-3.205-1.593-3.205-1.593s1.277-5.739,0.955-10.839
		c-0.315-5.1-7.014-7.438-10.2-8.607c-3.188-1.17-7.017-1.17-10.202,0c-3.186,1.171-9.883,3.507-10.201,8.607
		c-0.318,5.101,0.956,10.839,0.956,10.839s-1.704,0.846-3.206,1.593c-1.5,0.748,0,6.376,0,6.376l3.206,3.51
		c0,0,5.419,12.435,9.883,13.07c4.464,0.633,4.464,0.633,8.927,0c4.463-0.637,9.881-13.07,9.881-13.07l3.205-3.51
		C142.732,73.623,144.234,67.995,142.732,67.247z"/>
	<path opacity="0.6" fill="#C1BAAC" enable-background="new    " d="M130.139,100.455h-9.916l-15.621-9.877
		c0,0-17.853,2.865-18.49,13.707c-0.639,10.834,0,17.213,0,17.213L130.139,100.455z"/>
</g>
<path opacity="0.6" fill="#C1BAAC" enable-background="new    " d="M142.732,67.247c-1.5-0.747-3.205-1.593-3.205-1.593
	s1.277-5.739,0.955-10.839c-0.315-5.1-7.014-7.438-10.2-8.607c-3.188-1.17-7.017-1.17-10.202,0
	c-3.186,1.171-9.883,3.507-10.201,8.607c-0.318,5.101,0.956,10.839,0.956,10.839s-1.704,0.846-3.206,1.593
	c-1.5,0.748,0,6.376,0,6.376l3.206,3.51c0,0,5.419,12.437,9.883,13.072c4.464,0.633,4.464,0.633,8.927,0
	c4.463-0.637,9.881-13.072,9.881-13.072l3.205-3.51C142.732,73.623,144.234,67.995,142.732,67.247z M140.928,74.211l-2.654,2.904
	c0,0-4.485,10.293-8.182,10.826c-3.695,0.523-3.695,0.523-7.39,0c-3.696-0.533-8.183-10.826-8.183-10.826l-2.654-2.904
	c0,0-1.243-4.661,0-5.28c1.242-0.619,2.654-1.319,2.654-1.319s-1.057-4.752-0.791-8.975c0.264-4.223,5.808-6.158,8.445-7.127
	c2.639-0.968,5.809-0.968,8.447,0c2.638,0.969,8.182,2.904,8.445,7.127c0.266,4.223-0.793,8.975-0.793,8.975s1.412,0.7,2.654,1.319
	C142.171,69.55,140.928,74.211,140.928,74.211z"/>
<path fill="#777266" d="M78.949,102.098c0.468-7.963,9.59-11.916,15.3-13.617c-5.658-5.834-16.525-7.58-16.525-7.58L60.961,91.5
	H50.318L33.555,80.9c0,0-19.158,3.076-19.841,14.711c-0.686,11.627,0,18.473,0,18.473H54.12h3.04h21.5
	C78.617,111.035,78.661,106.998,78.949,102.098z"/>
<path opacity="0.6" fill="#C1BAAC" enable-background="new    " d="M60.961,91.5H50.318L33.555,80.9c0,0-19.158,3.076-19.841,14.711
	c-0.686,11.627,0,18.473,0,18.473L60.961,91.5z"/>
<linearGradient id="SVGID_3_" gradientUnits="userSpaceOnUse" x1="39.2461" y1="128.4561" x2="87.1431" y2="128.4561" gradientTransform="matrix(1 0 0 -1 -8.3599 179.2246)">
	<stop  offset="0" style="stop-color:#FFFFFF"/>
	<stop  offset="1" style="stop-color:#C8C8C8"/>
</linearGradient>
<path fill="url(#SVGID_3_)" d="M77.906,49.826c-1.971-0.934-4.212-1.989-4.212-1.989s1.677-7.161,1.253-13.524
	c-0.414-6.365-9.218-9.28-13.407-10.74c-4.19-1.46-9.22-1.46-13.413,0c-4.186,1.46-12.987,4.375-13.406,10.74
	c-0.418,6.363,1.255,13.524,1.255,13.524s-2.24,1.056-4.213,1.989c-1.973,0.931,0,7.956,0,7.956l4.213,4.375
	c0,0,7.123,15.515,12.993,16.308c5.867,0.793,5.867,0.793,11.733,0c5.868-0.793,12.992-16.308,12.992-16.308l4.212-4.375
	C77.906,57.782,79.88,50.757,77.906,49.826z"/>
<g>
	<path fill="#777266" d="M73.047,49.778c-1.609-0.802-3.439-1.709-3.439-1.709s1.37-6.158,1.026-11.632
		c-0.34-5.473-7.527-7.98-10.947-9.237c-3.421-1.255-7.528-1.255-10.948,0c-3.419,1.257-10.604,3.764-10.947,9.237
		c-0.342,5.474,1.026,11.632,1.026,11.632s-1.829,0.908-3.439,1.709c-1.61,0.802,0,6.843,0,6.843l3.439,3.765
		c0,0,5.816,13.342,10.606,14.026c4.79,0.68,4.79,0.68,9.579,0c4.791-0.684,10.605-14.026,10.605-14.026l3.439-3.765
		C73.047,56.621,74.659,50.58,73.047,49.778z"/>
</g>
<path opacity="0.6" fill="#C1BAAC" enable-background="new    " d="M73.047,49.778c-1.609-0.802-3.439-1.709-3.439-1.709
	s1.37-6.158,1.026-11.632c-0.34-5.473-7.527-7.98-10.947-9.237c-3.421-1.255-7.528-1.255-10.948,0
	c-3.419,1.257-10.604,3.764-10.947,9.237c-0.342,5.474,1.026,11.632,1.026,11.632s-1.829,0.908-3.439,1.709
	c-1.61,0.802,0,6.843,0,6.843l3.439,3.765c0,0,5.816,13.345,10.606,14.028c4.79,0.68,4.79,0.68,9.579,0
	c4.791-0.684,10.605-14.028,10.605-14.028l3.439-3.765C73.047,56.621,74.659,50.58,73.047,49.778z M71.109,57.25l-2.847,3.117
	c0,0-4.814,11.048-8.781,11.618c-3.965,0.562-3.965,0.562-7.93,0c-3.966-0.57-8.781-11.618-8.781-11.618l-2.848-3.117
	c0,0-1.333-5.001,0-5.665c1.333-0.664,2.848-1.416,2.848-1.416s-1.133-5.099-0.849-9.631c0.283-4.531,6.232-6.608,9.063-7.648
	c2.831-1.039,6.232-1.039,9.065,0c2.831,1.04,8.781,3.117,9.062,7.648c0.286,4.532-0.85,9.631-0.85,9.631s1.515,0.752,2.847,1.416
	C72.444,52.248,71.109,57.25,71.109,57.25z"/>
<path fill="none" stroke="#777266" stroke-width="2" stroke-miterlimit="10" d="M-327.866,100.379"/>
<line fill="none" x1="822.436" y1="102.088" x2="822.436" y2="96.918"/>
</svg>
