<?xml version="1.0" encoding="utf-8"?>
<!-- Generator: Adobe Illustrator 16.0.4, SVG Export Plug-In . SVG Version: 6.00 Build 0)  -->
<!DOCTYPE svg PUBLIC "-//W3C//DTD SVG 1.1//EN" "http://www.w3.org/Graphics/SVG/1.1/DTD/svg11.dtd">
<svg version="1.1" id="Layer_1" xmlns="http://www.w3.org/2000/svg" xmlns:xlink="http://www.w3.org/1999/xlink" x="0px" y="0px"
	 width="68.354px" height="51.926px" viewBox="0 0 68.354 51.926" enable-background="new 0 0 68.354 51.926" xml:space="preserve">
<g>
	<g>
		<rect x="0.376" y="-0.037" fill="none" width="67.978" height="51.963"/>
	</g>
</g>
<g>
	<path fill="#A7A7A7" d="M39.474,3.837c-0.115-0.347-0.307-0.488-0.672-0.489c-0.266-0.002-0.53-0.004-0.798,0.001
		c-0.086,0.002-0.114-0.017-0.11-0.107c0.004-0.371-0.005-0.739,0.002-1.109C37.9,1.5,37.289,1.213,36.887,1.408
		c-0.069,0.036-0.077,0.006-0.077-0.053c0-0.118,0-0.232-0.012-0.349c-0.027-0.345-0.315-0.626-0.66-0.645
		c-0.447-0.032-0.789,0.292-0.791,0.76c-0.002,0.697-0.002,1.396,0.004,2.091c0.001,0.114-0.03,0.135-0.139,0.135
		c-1.465-0.003-2.923-0.003-4.385,0c-0.114,0-0.142-0.027-0.142-0.141c0.005-0.695,0.003-1.387,0.001-2.08
		c-0.001-0.45-0.321-0.777-0.74-0.772c-0.414,0.004-0.722,0.33-0.725,0.77c-0.001,0.101,0,0.198,0,0.306
		c-0.102-0.022-0.184-0.073-0.28-0.079c-0.448-0.029-0.792,0.292-0.797,0.756c-0.003,0.377-0.002,0.754,0,1.134
		c0.001,0.083-0.023,0.104-0.103,0.104c-0.227-0.005-0.458-0.006-0.686,0c-0.282,0.007-0.476,0.145-0.583,0.407
		c-0.011,0.023-0.004,0.059-0.044,0.068c0,0.101,0,0.2,0,0.3c0.02,0.003,0.022,0.021,0.029,0.033
		c0.125,0.309,0.317,0.439,0.646,0.44c0.207,0.002,0.415,0.006,0.622-0.002c0.095-0.001,0.119,0.023,0.118,0.117
		c-0.004,0.395-0.006,0.79,0.003,1.185c0.008,0.328,0.219,0.581,0.535,0.672c0.185,0.052,0.362,0.023,0.541-0.064
		c0,0.131-0.004,0.248,0,0.364c0.017,0.404,0.322,0.71,0.712,0.718c0.006,0,0.01-0.002,0.017-0.002v0.005V7.583
		c0.416-0.002,0.735-0.321,0.735-0.767c0.003-0.698,0.003-1.396-0.001-2.092c-0.001-0.105,0.025-0.13,0.127-0.13
		c1.465,0.005,2.933,0.005,4.4,0c0.108,0,0.138,0.023,0.137,0.136c-0.004,0.724-0.009,1.444,0.003,2.167
		c0.008,0.386,0.333,0.687,0.712,0.69c0.388,0.008,0.702-0.278,0.736-0.662c0.011-0.111,0.009-0.223,0.009-0.335
		c0-0.062,0.014-0.086,0.078-0.055c0.065,0.034,0.139,0.054,0.214,0.059c0.444,0.026,0.783-0.295,0.791-0.752
		c0.006-0.373,0.006-0.747-0.003-1.119c-0.002-0.105,0.031-0.122,0.125-0.122c0.285,0.007,0.57,0.01,0.86,0
		c0.267-0.005,0.459-0.142,0.568-0.389c0.012-0.028,0.005-0.069,0.046-0.082c0-0.093,0-0.185,0.003-0.28
		C39.489,3.844,39.476,3.841,39.474,3.837z"/>
	<path fill="#A7A7A7" d="M50.323,11.228c0.007,0,0.013,0,0.017,0c0.027,0.033,0.066,0.015,0.096,0.015c1.683,0,3.365,0,5.049,0
		c0.356,0,0.711-0.001,1.068-0.001c0.004,0.028,0.007,0.058,0.007,0.085c0,2.345,0,4.683,0.004,7.025
		c0,0.086-0.026,0.103-0.105,0.103c-1.951-0.002-3.904-0.002-5.854-0.002c-0.064,0-0.128,0-0.192,0.006
		c-0.221,0.018-0.379,0.131-0.464,0.328c-0.086,0.197-0.062,0.389,0.071,0.563c0.128,0.169,0.311,0.215,0.514,0.215
		c2.157-0.001,4.317-0.001,6.477,0.001c0.083,0,0.104-0.02,0.104-0.104c-0.003-2.323-0.002-4.649-0.002-6.972
		c0-0.017,0.002-0.035,0-0.053c-0.015-0.067,0.014-0.094,0.085-0.09c0.121,0.007,0.245,0.009,0.364-0.001
		c0.093-0.006,0.106,0.027,0.106,0.11c-0.002,2.519-0.002,5.037,0,7.555c0,0.032-0.011,0.067,0.008,0.099c-2.487,0-4.973,0-7.459,0
		c-0.014-0.027-0.044-0.022-0.068-0.029c-0.486-0.144-0.804-0.565-0.804-1.071c0-2.224-0.003-4.449,0-6.669
		c0-0.518,0.363-0.967,0.866-1.08C50.249,11.251,50.292,11.264,50.323,11.228z"/>
	<path fill="#A7A7A7" d="M57.318,41.904c-1.872,0-3.745,0-5.617,0c0-0.017,0.002-0.033,0.002-0.05c0-2.472,0-4.942-0.002-7.414
		c0-0.024,0.015-0.048-0.014-0.069c-0.021,0.028-0.039,0.054-0.059,0.081c-0.249,0.377-0.507,0.752-0.754,1.132
		c-0.038,0.059-0.067,0.065-0.126,0.027c-0.448-0.279-0.892-0.553-1.344-0.82c-0.082-0.05-0.072-0.079-0.026-0.146
		c0.425-0.621,0.847-1.243,1.232-1.888c0.221-0.37,0.533-0.626,0.919-0.799c0.307-0.136,0.638-0.176,0.957-0.266
		c0.257-0.073,0.524-0.12,0.78-0.204c0.013,0,0.026,0,0.037,0c0.111,0.204,0.258,0.381,0.439,0.523
		c0.334,0.267,0.714,0.35,1.121,0.218c0.382-0.124,0.642-0.4,0.837-0.741c0.016,0,0.028,0,0.04,0
		c0.01,0.008,0.015,0.017,0.022,0.019c0.488,0.121,0.98,0.233,1.466,0.368c0.459,0.126,0.845,0.372,1.1,0.781
		c0.426,0.68,0.862,1.353,1.317,2.014c0.032,0.046,0.041,0.07-0.018,0.105c-0.461,0.277-0.92,0.562-1.381,0.842
		c-0.052,0.033-0.075,0.026-0.111-0.025c-0.165-0.254-0.336-0.506-0.508-0.758c-0.103-0.154-0.207-0.309-0.312-0.467
		c-0.025,0.041-0.015,0.081-0.015,0.116C57.31,36.527,57.316,41.475,57.318,41.904z"/>
	<g>
		<path fill="#A7A7A7" d="M12.977,35.001c-0.412,0.105-0.612,0.374-0.612,0.858c-0.002,1.625,0.002,3.248-0.006,4.871
			c-0.002,0.224,0.068,0.283,0.28,0.272c0.29-0.019,0.29-0.001,0.29,0.278c0.001,1.055,0,2.114,0.001,3.173
			c0,0.309,0.193,0.496,0.512,0.492c0.324,0,0.483-0.157,0.483-0.488c0-1.456,0.002-7.276,0.002-8.726
			C13.928,35.228,13.464,34.875,12.977,35.001z"/>
		<path fill="#A7A7A7" d="M10.983,34.991c-0.05-0.015-0.142,0.009-0.171,0.045c-0.035,0.053-0.035,0.137-0.035,0.204
			c-0.002,0.656-0.005,1.315-0.002,1.977c0.001,0.138-0.046,0.205-0.197,0.205c-0.152,0-0.208-0.062-0.201-0.205
			c0.002-0.066,0-0.129,0-0.195c0-0.616,0.002-1.229-0.006-1.848c0-0.067-0.061-0.153-0.12-0.191
			c-0.025-0.018-0.132,0.038-0.17,0.084c-0.032,0.044-0.022,0.123-0.022,0.189c0,0.649-0.003,1.305,0.001,1.952
			c0.001,0.159-0.048,0.218-0.208,0.21c-0.176-0.012-0.162-0.128-0.162-0.242c-0.001-0.63,0-1.26-0.001-1.89
			c0-0.066,0.011-0.134-0.012-0.192c-0.02-0.049-0.085-0.119-0.122-0.117c-0.052,0.012-0.116,0.068-0.145,0.121
			c-0.024,0.044-0.01,0.11-0.01,0.168c0,0.638,0,1.273,0,1.912c0.001,0.133-0.01,0.231-0.191,0.238
			c-0.225,0.006-0.208-0.136-0.208-0.283c0-0.644-0.001-1.286,0-1.933c0-0.14-0.035-0.262-0.197-0.218
			c-0.056,0.013-0.116,0.145-0.118,0.226c-0.007,0.998-0.005,1.99-0.005,2.985c0,0.318,0.156,0.563,0.463,0.633
			c0.219,0.052,0.262,0.161,0.26,0.359c-0.007,0.864-0.001,4.388-0.001,5.286c-0.001,0.205,0.078,0.361,0.261,0.46
			c0.356,0.184,0.748-0.077,0.748-0.502c0.001-1.772,0.002-3.545-0.001-5.324c-0.002-0.156,0.034-0.235,0.204-0.279
			c0.352-0.085,0.484-0.29,0.484-0.653c0-0.924,0-1.847,0-2.771c0-0.091,0.012-0.185-0.007-0.276
			C11.08,35.077,11.03,35.008,10.983,34.991z"/>
	</g>
	<path fill="#A7A7A7" d="M17.878,11.02c-0.372,0.071-3.582,0.751-3.854,0.812c-0.272,0.06-0.372-0.112-0.436-0.175
		c-0.064-0.062-1.627-1.622-2.359-2.4C10.57,8.555,9.357,8.158,9.031,8.489c-0.325,0.332,0.047,1.579,0.759,2.227
		c0.79,0.72,2.371,2.264,2.434,2.326c0.062,0.062,0.236,0.16,0.179,0.434c-0.055,0.271-0.691,3.491-0.759,3.861
		c-0.036,0.194-0.014,0.346,0.184,0.429c0.194,0.083,0.577,0.226,0.577,0.226l1.728-3.31c0,0,1.972,1.688,2.061,1.769
		c0.092,0.08,0.129,0.119,0.078,0.275c-0.051,0.156-0.252,1.376-0.269,1.528c-0.018,0.147,0.013,0.165,0.097,0.219
		c0.083,0.056,0.23,0.103,0.238,0.111c0.005,0.006,1.238-1.559,1.269-1.598c0.039-0.033,1.585-1.285,1.579-1.293
		c-0.006-0.007-0.056-0.152-0.111-0.236c-0.057-0.083-0.072-0.114-0.221-0.094c-0.148,0.019-1.366,0.237-1.523,0.289
		c-0.155,0.055-0.196,0.02-0.278-0.071c-0.083-0.088-1.797-2.037-1.797-2.037l3.287-1.774c0,0-0.15-0.378-0.237-0.574
		C18.224,11.001,18.072,10.981,17.878,11.02z"/>
	<path fill="#A7A7A7" d="M35.641,47.445c1.179-1.451,2.354-2.906,3.531-4.362c0.044-0.05,0.1-0.1,0.112-0.168
		c-0.869,0-7.554,0-8.42,0c0.015,0.068,0.068,0.118,0.11,0.168c1.179,1.456,2.354,2.911,3.533,4.362
		c0.065,0.077,0.098,0.151,0.096,0.255c-0.002,0.887-0.006,1.771,0.003,2.652c0.001,0.153-0.017,0.236-0.214,0.326
		c-0.2,0.092-1.506,0.737-1.893,0.889c0.18-0.002,4.972-0.002,5.154,0c-0.388-0.151-1.697-0.797-1.896-0.889
		c-0.199-0.09-0.214-0.173-0.212-0.326c0.007-0.882,0.004-1.766,0.003-2.652C35.544,47.597,35.576,47.522,35.641,47.445z
		 M35.272,45.05c0-0.379,0.308-0.689,0.689-0.689s0.691,0.309,0.691,0.689s-0.31,0.691-0.691,0.691
		C35.581,45.741,35.272,45.431,35.272,45.05z"/>
	<g>
		<path fill="#A7A7A7" d="M26.185,5.834c-0.04-0.211-0.078-0.42-0.122-0.622c-3.057,0.812-5.854,2.275-8.232,4.228
			c0.082,0.193,0.176,0.393,0.28,0.588C20.436,8.091,23.18,6.643,26.185,5.834z"/>
	</g>
	<g>
		<path fill="#A7A7A7" d="M47.831,12.611v-0.94c-2.383-2.625-5.382-4.68-8.78-5.903l-0.113,0.628
			C42.419,7.67,45.473,9.837,47.831,12.611z"/>
	</g>
	<g>
		<path fill="#A7A7A7" d="M52.603,29.725l0.598,0.228c0.2-1.182,0.309-2.396,0.309-3.632c0-1.724-0.204-3.398-0.585-5.007h-0.644
			c0.39,1.605,0.598,3.281,0.598,5.007C52.878,27.479,52.781,28.614,52.603,29.725z"/>
	</g>
	<g>
		<path fill="#A7A7A7" d="M49.663,37.527c-2.487,3.979-6.26,7.069-10.726,8.704v0.674c4.728-1.673,8.715-4.927,11.313-9.133
			L49.663,37.527z"/>
	</g>
	<g>
		<path fill="#A7A7A7" d="M15.808,40.375v0.927c3.92,4.146,9.438,6.766,15.562,6.849v-0.632
			C25.187,47.433,19.635,44.686,15.808,40.375z"/>
		<path fill="#A7A7A7" d="M11.657,33.318c-0.77-2.193-1.193-4.548-1.193-6.999c0-2.238,0.353-4.396,0.997-6.421l-0.632-0.1
			c-0.646,2.059-0.995,4.25-0.995,6.521c0,2.447,0.41,4.8,1.158,6.996C11.209,33.318,11.432,33.318,11.657,33.318z"/>
	</g>
	<g>
		<path fill="#A7A7A7" d="M33.663,22.11c-0.018-0.016-0.046-0.017-0.057,0l-0.11,0.126l0.066,0.057l0.108-0.129
			C33.684,22.152,33.684,22.128,33.663,22.11z"/>
		<path fill="#A7A7A7" d="M33.793,22.259c0.016-0.019,0.013-0.045-0.009-0.063c-0.018-0.016-0.048-0.014-0.06,0.003l-0.113,0.134
			l0.071,0.06L33.793,22.259z"/>
		<path fill="#A7A7A7" d="M34.525,22.086c-0.507,0-0.918,0.414-0.918,0.918c0,0.508,0.412,0.92,0.918,0.92
			c0.507,0,0.923-0.414,0.923-0.92C35.447,22.497,35.033,22.086,34.525,22.086z M34.525,23.003v0.876
			c-0.004,0-0.01-0.001-0.016-0.001v0.001c-0.006,0-0.013-0.001-0.022-0.001c-0.022-0.001-0.042-0.002-0.064-0.005
			c-0.007-0.001-0.012-0.002-0.018-0.004c-0.023-0.001-0.047-0.006-0.068-0.011c-0.003,0-0.009-0.002-0.01-0.002
			c-0.025-0.007-0.05-0.012-0.074-0.019v-0.002c-0.234-0.075-0.423-0.248-0.527-0.468c-0.001-0.009-0.005-0.012-0.007-0.019
			c-0.005-0.017-0.013-0.032-0.02-0.051c-0.005-0.01-0.007-0.018-0.011-0.029c-0.005-0.015-0.007-0.027-0.011-0.043
			c-0.004-0.013-0.008-0.027-0.009-0.037c-0.002-0.013-0.004-0.027-0.008-0.041c-0.001-0.015-0.004-0.03-0.006-0.048
			c-0.002-0.011-0.002-0.022-0.002-0.033c0-0.016-0.002-0.029-0.002-0.044l0,0c0-0.006,0-0.011,0-0.017L34.525,23.003v-0.873
			c0.482,0,0.877,0.392,0.877,0.874L34.525,23.003L34.525,23.003z"/>
		<path fill="#A7A7A7" d="M42.357,23.185c-0.917-1.329-1.789-2.681-2.648-4.043c-0.512-0.818-1.287-1.313-2.207-1.57
			c-0.971-0.267-1.961-0.495-2.94-0.735c-0.016-0.004-0.025-0.02-0.042-0.035c-0.026,0-0.055,0-0.082,0
			c-0.391,0.686-0.915,1.235-1.681,1.486c-0.819,0.263-1.577,0.098-2.248-0.437c-0.365-0.285-0.659-0.639-0.882-1.049
			c-0.027,0-0.053,0-0.078,0c-0.515,0.169-1.047,0.266-1.563,0.412c-0.642,0.183-1.311,0.263-1.921,0.532
			c-0.776,0.347-1.403,0.86-1.847,1.602c-0.772,1.293-1.617,2.543-2.473,3.785c-0.091,0.134-0.111,0.195,0.057,0.293
			c0.907,0.537,1.798,1.085,2.696,1.644c0.117,0.077,0.173,0.063,0.247-0.056c0.5-0.759,1.014-1.512,1.517-2.269
			c0.035-0.057,0.077-0.109,0.117-0.167c0.053,0.047,0.024,0.095,0.024,0.142c0.002,4.958,0.002,9.915,0.002,14.875
			c0,0.029-0.002,0.068-0.002,0.103c3.757,0,7.516,0,11.271,0c-0.002-0.863-0.017-10.793-0.017-14.891
			c0-0.073-0.021-0.15,0.026-0.235c0.215,0.319,0.422,0.629,0.628,0.938c0.344,0.503,0.687,1.01,1.021,1.519
			c0.069,0.104,0.119,0.12,0.223,0.053c0.921-0.564,1.844-1.13,2.769-1.688C42.438,23.323,42.42,23.277,42.357,23.185z
			 M36.13,24.775h-3.336v-3.387h3.336V24.775z"/>
		<path fill="#A7A7A7" d="M34.525,24.396c0.769,0,1.389-0.623,1.389-1.391c0-0.767-0.62-1.388-1.389-1.388
			c-0.767,0-1.39,0.622-1.39,1.388C33.135,23.771,33.758,24.396,34.525,24.396z M34.525,23.95c-0.519,0-0.943-0.423-0.943-0.945
			c0-0.519,0.423-0.943,0.943-0.943c0.523,0,0.943,0.423,0.943,0.943C35.471,23.525,35.047,23.95,34.525,23.95z M35.39,21.969
			l0.056,0.065l-0.134,0.177l0.202-0.089l0.058,0.067l-0.124,0.185l0.195-0.099l0.055,0.066l-0.309,0.156l-0.063-0.076l0.119-0.183
			v-0.002l-0.201,0.085l-0.062-0.076L35.39,21.969z M34.312,21.666h0.111l0.1,0.26l0.1-0.26h0.112v0.366H34.66v-0.256l-0.095,0.256
			h-0.082l-0.097-0.256v0.256h-0.076L34.312,21.666L34.312,21.666z M33.567,22.057c0.036-0.044,0.086-0.081,0.134-0.04
			c0.019,0.015,0.024,0.019,0.042,0.052c0.004,0.011,0.008,0.032,0,0.055c0.043-0.028,0.087-0.02,0.118,0.011
			c0.044,0.044,0.039,0.095-0.004,0.146l-0.188,0.226l-0.284-0.238L33.567,22.057z"/>
	</g>
</g>
</svg>
