<?xml version="1.0" encoding="utf-8"?>
<!-- Generator: Adobe Illustrator 16.0.0, SVG Export Plug-In . SVG Version: 6.00 Build 0)  -->
<!DOCTYPE svg PUBLIC "-//W3C//DTD SVG 1.1//EN" "http://www.w3.org/Graphics/SVG/1.1/DTD/svg11.dtd">
<svg version="1.1" id="Layer_1" xmlns="http://www.w3.org/2000/svg" xmlns:xlink="http://www.w3.org/1999/xlink" x="0px" y="0px"
	 width="107.353px" height="83.823px" viewBox="0 0 107.353 83.823" enable-background="new 0 0 107.353 83.823"
	 xml:space="preserve">
<g>
	<g>
		<g>
			<path fill="#797467" d="M57.991,17.149c2.885,3.388,5.768,6.778,8.655,10.161c0.325,0.378,0.699,0.681,1.231,0.701
				c0,0,0,0,0.001,0c0.497,0.061,0.873-0.175,1.136-0.554c0.36-0.516,0.583-1.105,0.771-1.701l0,0
				c0.402-0.922,0.818-1.843,1.217-2.774c0.113-0.26,0.552-1.553,0.607-1.944c0.112-0.756,0.005-0.998-0.731-1.22
				c-0.882-0.262-1.718-0.642-2.579-0.945c-0.718-0.26-1.473-0.433-2.17-0.76l0,0c-0.825-0.345-1.679-0.62-2.521-0.923
				c-1.654-0.583-3.298-1.2-4.938-1.815c-0.779-0.298-1.586-0.519-2.344-0.889c-0.12,0-0.239,0-0.361,0
				c-0.062,0.24,0.08,0.394,0.223,0.548C56.787,15.751,57.39,16.453,57.991,17.149z"/>
			
				<linearGradient id="SVGID_1_" gradientUnits="userSpaceOnUse" x1="71.9185" y1="729.5859" x2="89.1235" y2="729.5859" gradientTransform="matrix(1 0 0 1 -16.7197 -708.3311)">
				<stop  offset="0" style="stop-color:#E6E6E6"/>
				<stop  offset="0.5398" style="stop-color:#FFFFFF"/>
				<stop  offset="1" style="stop-color:#C9C9C9"/>
			</linearGradient>
			<path fill="url(#SVGID_1_)" d="M56.332,14.487c0.756,0.37,1.561,0.591,2.342,0.889c1.64,0.614,3.282,1.232,4.938,1.814
				c0.841,0.302,1.695,0.578,2.521,0.923c0.696,0.326,1.451,0.5,2.17,0.76c0.862,0.304,1.696,0.683,2.579,0.945
				c0.736,0.221,0.843,0.464,0.731,1.221c-0.055,0.391-0.493,1.684-0.608,1.944c-0.398,0.931-0.815,1.853-1.215,2.775
				c-0.19,0.595-0.414,1.184-0.773,1.7c-0.235,0.34-0.561,0.564-0.982,0.564c-0.05,0-0.101-0.002-0.152-0.01
				c-0.002,0-0.002,0-0.002,0c-0.532-0.021-0.905-0.322-1.23-0.702c-2.888-3.383-5.77-6.774-8.655-10.161
				c-0.601-0.696-1.204-1.398-1.8-2.114c-0.142-0.153-0.284-0.306-0.223-0.547C56.089,14.487,56.21,14.487,56.332,14.487
				 M56.506,13.731h-0.175h-0.362h-0.586L55.238,14.3c-0.163,0.634,0.224,1.058,0.39,1.238c0.583,0.699,1.188,1.405,1.792,2.104
				l3.122,3.666c1.843,2.166,3.686,4.331,5.53,6.492c0.339,0.396,0.886,0.92,1.749,0.965c0.072,0.007,0.142,0.012,0.212,0.012
				c0.638,0,1.208-0.315,1.604-0.889c0.423-0.605,0.672-1.279,0.861-1.864c0.157-0.366,0.319-0.731,0.482-1.099
				c0.242-0.546,0.482-1.094,0.719-1.645c0.12-0.272,0.593-1.646,0.662-2.136c0.141-0.959-0.02-1.676-1.265-2.05
				c-0.511-0.152-1.005-0.346-1.528-0.551c-0.337-0.131-0.674-0.264-1.016-0.383c-0.267-0.096-0.544-0.184-0.819-0.269
				c-0.455-0.143-0.885-0.276-1.281-0.462c-0.643-0.27-1.271-0.489-1.875-0.7c-0.238-0.083-0.476-0.165-0.711-0.25
				c-1.555-0.547-3.121-1.134-4.635-1.702l-0.295-0.111c-0.267-0.102-0.542-0.196-0.815-0.291c-0.515-0.177-0.999-0.344-1.458-0.567
				L56.506,13.731L56.506,13.731z"/>
		</g>
		<g>
			<path fill="#797467" d="M65.011,31.737c-0.244-0.299-0.61-0.388-0.976-0.432c-1.105-0.131-2.213-0.247-3.316-0.368
				c-0.915-0.105-1.833-0.191-2.741-0.318c-0.971-0.141-1.946-0.157-2.917-0.327c-0.58-0.104-1.181-0.106-1.773-0.186
				c-0.895-0.118-1.796-0.182-2.694-0.305c-0.979-0.129-1.971-0.23-2.957-0.328c-1.047-0.104-2.092-0.231-3.138-0.35
				c-0.817-0.096-1.63-0.176-2.445-0.287c-1.456-0.186-2.504,0.652-2.461,2.094c0.017,0.452,0.103,0.895,0.142,1.332
				c0.056,0.645,0.098,1.285,0.171,1.92c0.104,0.984,0.264,1.969,0.326,2.955c0.068,1.101,0.203,2.192,0.329,3.285
				c0.122,1.109,0.202,2.218,0.324,3.333c0.099,0.849,0.196,1.7,0.25,2.562c0.064,1.071,0.221,2.14,0.351,3.208
				c0.062,0.453,0.08,0.918,0.334,1.325c0.214,0.349,1.682,0.184,1.996-0.078c1.032-0.858,2.048-1.732,3.066-2.605
				c0.507-0.434,0.977-0.914,1.509-1.32c0.52-0.401,1.014-0.821,1.5-1.267c0,0,0,0,0-0.007c0.646-0.534,1.296-1.063,1.926-1.615
				c1.079-0.933,2.164-1.853,3.253-2.762c1.482-1.224,5.914-5.035,6.559-5.546c0.58-0.459,1.659-1.491,1.666-1.486
				c0.054-0.025,1.117-0.865,1.547-1.302C65.213,32.502,65.258,32.038,65.011,31.737z M63.184,34.016
				c0.002,0.011,0.008,0.02,0.012,0.029C63.192,34.035,63.186,34.025,63.184,34.016z"/>
			
				<linearGradient id="SVGID_2_" gradientUnits="userSpaceOnUse" x1="55.5552" y1="748.2617" x2="82.646" y2="748.2617" gradientTransform="matrix(1 0 0 1 -16.7197 -708.3311)">
				<stop  offset="0" style="stop-color:#E6E6E6"/>
				<stop  offset="0.5398" style="stop-color:#FFFFFF"/>
				<stop  offset="1" style="stop-color:#C9C9C9"/>
			</linearGradient>
			<path fill="url(#SVGID_2_)" d="M41.663,28.813c0.125,0,0.258,0.009,0.392,0.026c0.816,0.11,1.63,0.19,2.446,0.287
				c1.045,0.12,2.09,0.247,3.137,0.351c0.985,0.097,1.976,0.197,2.956,0.327c0.897,0.122,1.799,0.187,2.694,0.305
				c0.591,0.08,1.192,0.082,1.772,0.186c0.972,0.171,1.947,0.187,2.917,0.327c0.909,0.127,1.827,0.213,2.742,0.318
				c1.103,0.121,2.211,0.236,3.315,0.367c0.365,0.045,0.732,0.132,0.976,0.432c0.248,0.3,0.203,0.764-0.168,1.127
				c-0.431,0.438-1.494,1.278-1.547,1.303l0,0c-0.012,0-1.088,1.027-1.666,1.486c-0.645,0.51-5.077,4.321-6.559,5.545
				c-1.089,0.91-2.174,1.83-3.253,2.764c-0.63,0.55-1.28,1.079-1.926,1.614c0,0.006,0,0.006,0,0.006
				c-0.486,0.444-0.98,0.865-1.5,1.267c-0.533,0.406-1.002,0.887-1.509,1.32c-1.019,0.874-2.033,1.747-3.067,2.605
				c-0.186,0.157-0.78,0.277-1.275,0.277c-0.338,0-0.632-0.057-0.72-0.198c-0.254-0.406-0.271-0.872-0.333-1.325
				c-0.131-1.068-0.288-2.137-0.352-3.208c-0.054-0.863-0.153-1.715-0.25-2.563c-0.122-1.114-0.203-2.223-0.325-3.333
				c-0.125-1.094-0.26-2.184-0.329-3.286c-0.062-0.986-0.222-1.97-0.326-2.955c-0.074-0.636-0.115-1.275-0.171-1.919
				c-0.04-0.437-0.125-0.881-0.142-1.333C39.555,29.624,40.414,28.813,41.663,28.813 M63.196,34.044
				c-0.004-0.009-0.01-0.018-0.012-0.029C63.186,34.025,63.192,34.035,63.196,34.044 M41.663,28.056
				c-0.829,0-1.567,0.291-2.078,0.818c-0.514,0.529-0.772,1.249-0.747,2.081c0.012,0.314,0.05,0.605,0.087,0.888
				c0.022,0.164,0.043,0.328,0.058,0.489c0.016,0.194,0.032,0.39,0.047,0.583c0.036,0.455,0.074,0.907,0.125,1.356
				c0.037,0.356,0.083,0.72,0.13,1.082c0.076,0.605,0.156,1.229,0.193,1.833c0.062,1.012,0.18,2.02,0.294,2.996l0.039,0.329
				c0.058,0.539,0.107,1.08,0.157,1.624c0.052,0.567,0.104,1.135,0.167,1.705l0.005,0.049c0.093,0.811,0.189,1.651,0.242,2.478
				c0.053,0.87,0.164,1.741,0.273,2.583l0.083,0.669l0.027,0.218c0.05,0.417,0.113,0.934,0.416,1.417
				c0.229,0.371,0.675,0.554,1.362,0.554c0.452,0,1.331-0.096,1.761-0.454c0.996-0.828,1.992-1.682,2.955-2.51l0.12-0.102
				c0.197-0.17,0.391-0.345,0.583-0.522c0.302-0.277,0.587-0.539,0.892-0.772c0.521-0.402,1.027-0.829,1.55-1.307l0.062-0.057
				l0.243-0.199c0.531-0.438,1.08-0.891,1.61-1.354c1.034-0.894,2.124-1.82,3.242-2.75c0.725-0.601,2.142-1.806,3.511-2.971
				c1.395-1.188,2.714-2.312,3.032-2.563c0.45-0.355,1.136-0.994,1.503-1.337c0.087-0.08,0.148-0.138,0.176-0.161
				c0.413-0.294,1.314-1.062,1.603-1.354c0.63-0.616,0.724-1.52,0.213-2.139c-0.418-0.515-1.005-0.646-1.469-0.7
				c-0.842-0.101-1.686-0.192-2.524-0.283l-0.801-0.088c-0.27-0.03-0.545-0.06-0.82-0.09c-0.626-0.068-1.271-0.137-1.898-0.225
				c-0.449-0.064-0.898-0.105-1.334-0.143c-0.54-0.047-1.05-0.092-1.558-0.181c-0.365-0.065-0.729-0.094-1.079-0.121
				c-0.242-0.019-0.484-0.038-0.724-0.07c-0.442-0.058-0.883-0.104-1.324-0.149c-0.456-0.047-0.913-0.094-1.369-0.156
				c-0.965-0.127-1.923-0.225-2.983-0.33c-0.752-0.075-1.504-0.162-2.256-0.249l-0.87-0.1c-0.274-0.032-0.549-0.064-0.825-0.095
				c-0.535-0.059-1.071-0.119-1.606-0.19C41.985,28.067,41.822,28.056,41.663,28.056L41.663,28.056z"/>
		</g>
		<g>
			<path fill="#797467" d="M50.624,63.386c0.438-0.451,2.174-2.036,2.562-2.42c0.875-0.868,0.763-1.681-0.291-2.316
				c0,0,0,0-0.002,0.003c-0.164-0.143-0.372-0.161-0.568-0.219c-0.542-0.161-1.084-0.312-1.627-0.473
				c-1.509-0.432-6.569-1.888-7.593-2.184c0,0.001,0,0.001,0,0.001c-0.91-0.297-1.852-0.214-2.785-0.178h-0.001
				c-0.081-0.008-0.173-0.02-0.25-0.013c-1.323,0.173-2.575,0.601-3.834,1.009c0,0,0,0,0,0.001
				c-0.864,0.224-1.715,0.472-2.563,0.754l0,0c-0.866,0.25-1.73,0.501-2.591,0.759c-0.208,0.061-0.418,0.14-0.585,0.276
				c-0.001,0-0.001,0-0.003,0c-0.84,0.392-0.881,0.626-0.182,1.211c0.008,0.008,0.017,0.02,0.029,0.03
				c1.904,1.593,3.807,3.187,5.709,4.777c1.931,1.618,3.861,3.234,5.798,4.842c0.955,0.8,1.706,0.804,2.648,0.024
				c1.12-0.923,2.121-1.976,3.167-2.974C48.655,65.337,49.656,64.38,50.624,63.386z"/>
			
				<linearGradient id="SVGID_3_" gradientUnits="userSpaceOnUse" x1="45.7832" y1="771.0195" x2="71.2495" y2="771.0195" gradientTransform="matrix(1 0 0 1 -16.7197 -708.3311)">
				<stop  offset="0" style="stop-color:#E6E6E6"/>
				<stop  offset="0.5398" style="stop-color:#FFFFFF"/>
				<stop  offset="1" style="stop-color:#C9C9C9"/>
			</linearGradient>
			<path fill="url(#SVGID_3_)" d="M41.498,55.561c0.541,0,1.078,0.044,1.605,0.218c0,0,0,0,0-0.003
				c1.026,0.296,6.086,1.752,7.594,2.184c0.543,0.161,1.086,0.312,1.627,0.473c0.197,0.058,0.405,0.076,0.568,0.219
				c0.002-0.002,0.002-0.002,0.002-0.002c1.054,0.636,1.167,1.447,0.291,2.315c-0.388,0.384-2.125,1.969-2.562,2.42
				c-0.968,0.994-1.969,1.951-2.964,2.913c-1.047,0.997-2.048,2.051-3.167,2.975c-0.466,0.387-0.886,0.58-1.308,0.58
				c-0.428,0-0.858-0.202-1.34-0.605c-1.937-1.606-3.868-3.224-5.798-4.842c-1.903-1.591-3.805-3.185-5.711-4.776
				c-0.011-0.012-0.02-0.023-0.029-0.03c-0.697-0.585-0.656-0.82,0.184-1.212c0.002,0,0.002,0,0.003,0
				c0.168-0.138,0.378-0.216,0.584-0.276c0.861-0.258,1.726-0.509,2.592-0.759c0.847-0.282,1.698-0.53,2.562-0.753
				c0-0.002,0-0.002,0-0.002c1.259-0.407,2.512-0.836,3.833-1.008c0.017-0.002,0.033-0.003,0.05-0.003c0.064,0,0.136,0.01,0.2,0.015
				h0.001C40.713,55.584,41.105,55.561,41.498,55.561 M42.346,54.771v0.077c-0.324-0.037-0.617-0.044-0.849-0.044l0,0l0,0
				c-0.3,0-0.598,0.014-0.898,0.025l-0.261,0.012h-0.001c-0.073-0.007-0.147-0.013-0.219-0.013c-0.042,0-0.083,0.001-0.122,0.006
				c-1.314,0.171-2.527,0.565-3.701,0.946l-0.293,0.097h0c-0.899,0.234-1.739,0.48-2.567,0.756c-0.84,0.242-1.706,0.493-2.569,0.751
				c-0.218,0.063-0.497,0.16-0.755,0.345c-0.364,0.171-0.956,0.48-1.038,1.098c-0.082,0.635,0.434,1.084,0.729,1.332l0.052,0.047
				l2.896,2.423l2.813,2.354c1.929,1.618,3.861,3.237,5.799,4.845c0.626,0.522,1.224,0.778,1.823,0.778
				c0.592,0,1.178-0.246,1.79-0.753c0.819-0.677,1.58-1.421,2.314-2.141c0.297-0.292,0.593-0.582,0.894-0.868l0.432-0.418
				c0.843-0.813,1.716-1.654,2.551-2.515c0.246-0.252,0.971-0.928,1.555-1.471c0.44-0.41,0.835-0.777,0.998-0.938
				c0.605-0.603,0.873-1.23,0.798-1.865s-0.482-1.183-1.209-1.625c-0.073-0.054-0.146-0.097-0.219-0.131l-0.307-0.188l-0.058,0.058
				c-0.027-0.008-0.054-0.015-0.078-0.019c-0.036-0.008-0.071-0.017-0.106-0.027c-0.276-0.08-0.558-0.162-0.837-0.243
				c-0.263-0.075-0.524-0.15-0.788-0.229c-1.514-0.434-6.574-1.89-7.6-2.187l-0.093-0.027c-0.019-0.004-0.038-0.01-0.056-0.014
				L42.346,54.771L42.346,54.771z"/>
		</g>
		<g>
			<path fill="#797467" d="M71.848,54.438c0.137-0.258,0.255-0.521,0.265-0.83c0.017-0.401-0.237-0.637-0.643-0.578
				c-0.306,0.043-0.586,0.16-0.866,0.292c-0.822,0.384-1.654,0.757-2.479,1.145c-1.913,0.903-3.829,1.791-5.748,2.692l0,0
				c-0.829,0.331-1.653,0.683-2.42,1.13c-0.586,0.345-0.967,0.867-0.998,1.587l0,0c-0.108,0.545,0.043,1.034,0.308,1.491
				c0.334,0.563,0.684,1.127,1.024,1.682c0.97,1.575,1.942,3.15,2.91,4.718c0.044,0.085,0.082,0.18,0.137,0.255
				c0.489,0.724,1.047,0.572,1.454-0.331C65.2,66.786,69.788,58.327,71.848,54.438z"/>
			
				<linearGradient id="SVGID_4_" gradientUnits="userSpaceOnUse" x1="74.8862" y1="769.0801" x2="89.5913" y2="769.0801" gradientTransform="matrix(1 0 0 1 -16.7197 -708.3311)">
				<stop  offset="0" style="stop-color:#E6E6E6"/>
				<stop  offset="0.5398" style="stop-color:#FFFFFF"/>
				<stop  offset="1" style="stop-color:#C9C9C9"/>
			</linearGradient>
			<path fill="url(#SVGID_4_)" d="M71.588,53.021c0.335,0,0.541,0.227,0.524,0.587c-0.01,0.307-0.128,0.572-0.265,0.83
				c-2.062,3.891-6.648,12.348-7.056,13.252c-0.234,0.518-0.519,0.789-0.809,0.789c-0.217,0-0.438-0.15-0.646-0.458
				c-0.054-0.075-0.094-0.17-0.137-0.255c-0.967-1.567-1.939-3.143-2.91-4.718c-0.341-0.554-0.689-1.119-1.025-1.682
				C59,60.91,58.85,60.421,58.959,59.876c0.03-0.718,0.411-1.241,0.998-1.587c0.768-0.447,1.591-0.799,2.42-1.13
				c1.918-0.9,3.834-1.788,5.748-2.692c0.826-0.388,1.657-0.761,2.479-1.145c0.28-0.132,0.561-0.249,0.867-0.292
				C71.511,53.024,71.55,53.021,71.588,53.021 M71.588,52.265c-0.073,0-0.147,0.007-0.227,0.016
				c-0.416,0.062-0.777,0.216-1.079,0.356C69.893,52.819,69.5,53,69.106,53.18c-0.435,0.2-0.869,0.398-1.304,0.603
				c-1.102,0.52-2.203,1.034-3.306,1.55c-0.806,0.376-1.615,0.753-2.421,1.132c-0.815,0.327-1.683,0.694-2.5,1.17
				c-0.829,0.489-1.312,1.25-1.37,2.151c-0.113,0.652,0.02,1.294,0.407,1.96c0.342,0.575,0.692,1.144,1.035,1.698
				c0.601,0.977,1.202,1.951,1.804,2.927l1.088,1.762l0.014,0.026c0.042,0.085,0.091,0.191,0.169,0.299
				c0.431,0.641,0.926,0.777,1.262,0.777c0.431,0,1.04-0.215,1.5-1.234c0.243-0.544,2.258-4.295,4.035-7.604
				c1.118-2.086,2.231-4.158,2.997-5.604c0.166-0.311,0.338-0.693,0.354-1.158c0.017-0.383-0.107-0.736-0.351-0.989
				C72.284,52.4,71.953,52.265,71.588,52.265L71.588,52.265z"/>
		</g>
		<g>
			<path fill="#797467" d="M39.354,45.557c-0.128-1.092-0.267-2.181-0.355-3.277c-0.04-0.574-0.096-1.142-0.164-1.704
				c-0.1-0.869-0.212-1.73-0.275-2.598c-0.041-0.571-0.087-1.136-0.164-1.701c-0.149-1.129-0.233-2.265-0.351-3.394
				c-0.061-0.621-0.061-1.265-0.293-1.858c-0.176-0.467-0.569-0.724-1.058-0.746c-0.621-0.023-1.037,0.375-1.482,0.702
				c-1.731,1.267-3.464,2.541-5.177,3.835c-0.57,0.431-2.08,1.555-2.267,1.693c-1.292,0.976-1.395,2.319-0.239,3.443
				c0.873,0.845,1.761,1.676,2.638,2.519c1.307,1.26,2.616,2.504,3.915,3.766c1.109,1.074,2.198,2.165,3.325,3.226
				c0.395,0.373,0.757,0.784,1.224,1.084c0.274,0.173,0.562,0.313,0.837-0.009c0.21-0.178,0.26-0.412,0.275-0.673
				c0.025-0.599-0.086-1.189-0.158-1.775C39.475,47.247,39.45,46.396,39.354,45.557z"/>
			
				<linearGradient id="SVGID_5_" gradientUnits="userSpaceOnUse" x1="42.688" y1="748.834" x2="57.2212" y2="748.834" gradientTransform="matrix(1 0 0 1 -16.7197 -708.3311)">
				<stop  offset="0" style="stop-color:#E6E6E6"/>
				<stop  offset="0.5398" style="stop-color:#FFFFFF"/>
				<stop  offset="1" style="stop-color:#C9C9C9"/>
			</linearGradient>
			<path fill="url(#SVGID_5_)" d="M36.64,30.278c0.017,0,0.035,0,0.051,0c0.488,0.023,0.881,0.279,1.058,0.746
				c0.233,0.593,0.233,1.238,0.293,1.859c0.119,1.129,0.202,2.265,0.351,3.393c0.078,0.564,0.123,1.129,0.164,1.701
				c0.063,0.869,0.175,1.729,0.275,2.599c0.067,0.562,0.125,1.13,0.164,1.703c0.088,1.097,0.227,2.186,0.354,3.278
				c0.098,0.839,0.122,1.689,0.229,2.532c0.072,0.585,0.184,1.177,0.158,1.774c-0.015,0.262-0.064,0.495-0.275,0.673
				c-0.12,0.142-0.243,0.194-0.364,0.194c-0.158,0-0.318-0.088-0.472-0.186c-0.467-0.3-0.829-0.711-1.224-1.084
				c-1.127-1.061-2.215-2.151-3.325-3.226c-1.299-1.262-2.608-2.506-3.916-3.766c-0.876-0.843-1.765-1.673-2.637-2.519
				c-1.155-1.122-1.053-2.468,0.239-3.444c0.187-0.137,1.696-1.261,2.267-1.692c1.713-1.294,3.447-2.568,5.177-3.836
				C35.644,30.663,36.048,30.278,36.64,30.278 M36.64,29.522c-0.763,0-1.284,0.398-1.705,0.718c-0.058,0.043-0.115,0.087-0.173,0.13
				c-1.754,1.285-3.469,2.546-5.186,3.842c-0.567,0.429-2.072,1.549-2.258,1.687c-0.832,0.627-1.293,1.402-1.345,2.245
				c-0.052,0.834,0.303,1.647,1.027,2.35c0.48,0.466,0.964,0.924,1.45,1.386c0.396,0.378,0.795,0.755,1.189,1.135
				c0.467,0.449,0.934,0.897,1.401,1.345c0.839,0.803,1.677,1.607,2.511,2.416c0.396,0.384,0.788,0.769,1.18,1.151
				c0.7,0.686,1.424,1.396,2.154,2.083c0.091,0.086,0.182,0.174,0.272,0.265c0.316,0.314,0.643,0.64,1.063,0.906
				c0.24,0.152,0.529,0.305,0.879,0.305c0.24,0,0.586-0.074,0.9-0.415c0.404-0.371,0.475-0.84,0.495-1.164
				c0.024-0.553-0.047-1.06-0.116-1.55c-0.016-0.122-0.033-0.243-0.048-0.362c-0.054-0.426-0.085-0.849-0.119-1.299
				c-0.03-0.398-0.062-0.814-0.108-1.227l-0.074-0.623c-0.102-0.863-0.208-1.755-0.277-2.629c-0.038-0.549-0.093-1.119-0.167-1.733
				l-0.063-0.545c-0.082-0.694-0.16-1.348-0.208-2.017c-0.041-0.556-0.088-1.153-0.169-1.749c-0.095-0.716-0.165-1.459-0.232-2.178
				c-0.038-0.398-0.076-0.795-0.117-1.191c-0.012-0.119-0.022-0.245-0.031-0.369c-0.04-0.521-0.086-1.112-0.312-1.688
				c-0.274-0.726-0.92-1.188-1.726-1.226h-0.09V29.522z"/>
		</g>
		<g>
			<path fill="#797467" d="M53.573,56.99c1.401,0.51,3.092-0.293,3.652-1.649c1.088-2.619,2.229-5.229,3.335-7.854
				c0.74-1.771,1.535-3.516,2.223-5.31c0.399-1.053,2.432-5.438,2.738-6.704c-0.061-0.405-0.248-0.479-0.66-0.208
				c-0.605,0.402-1.146,0.871-1.662,1.379c-0.043,0.026-0.083,0.043-0.115,0.076c-2.052,1.733-4.099,3.467-6.148,5.202
				c-0.988,0.839-5.251,4.474-6.405,5.437c-1.37,1.15-2.731,2.309-4.09,3.464c-0.62,0.526-1.255,1.039-1.84,1.609
				c-0.711,0.688-0.51,1.616,0.402,1.996c0.257,0.107,2.552,0.782,3.435,1.032C49.259,55.694,52.699,56.663,53.573,56.99z"/>
			
				<linearGradient id="SVGID_6_" gradientUnits="userSpaceOnUse" x1="60.1343" y1="754.457" x2="83.0083" y2="754.457" gradientTransform="matrix(1 0 0 1 -16.7197 -708.3311)">
				<stop  offset="0" style="stop-color:#E6E6E6"/>
				<stop  offset="0.5398" style="stop-color:#FFFFFF"/>
				<stop  offset="1" style="stop-color:#C9C9C9"/>
			</linearGradient>
			<path fill="url(#SVGID_6_)" d="M65.25,35.106c0.151,0,0.234,0.124,0.271,0.368c-0.307,1.265-2.338,5.651-2.738,6.704
				c-0.686,1.792-1.481,3.538-2.223,5.31c-1.106,2.625-2.247,5.234-3.335,7.854c-0.444,1.076-1.601,1.803-2.757,1.803
				c-0.303,0-0.604-0.048-0.894-0.153c-0.874-0.327-4.314-1.297-5.139-1.529c-0.883-0.25-3.178-0.925-3.434-1.032
				c-0.912-0.381-1.115-1.308-0.401-1.996c0.584-0.569,1.22-1.082,1.839-1.609c1.359-1.154,2.72-2.314,4.09-3.464
				c1.155-0.961,5.417-4.598,6.406-5.437c2.049-1.734,4.097-3.47,6.148-5.202c0.032-0.032,0.072-0.05,0.115-0.077
				c0.517-0.507,1.056-0.976,1.662-1.378C65.024,35.159,65.152,35.106,65.25,35.106 M65.25,34.35c-0.253,0-0.509,0.09-0.803,0.284
				c-0.568,0.376-1.112,0.823-1.709,1.405c-0.047,0.029-0.104,0.067-0.16,0.119c-1.613,1.364-3.227,2.729-4.837,4.094l-1.293,1.095
				l-1.36,1.156c-1.669,1.422-4.195,3.572-5.041,4.276c-1.276,1.069-2.54,2.145-3.803,3.22l-0.293,0.248l-0.392,0.332
				c-0.495,0.415-1.006,0.844-1.487,1.313c-0.515,0.498-0.745,1.148-0.627,1.778c0.121,0.641,0.583,1.172,1.265,1.458
				c0.344,0.143,2.899,0.886,3.521,1.061l0.148,0.043c2.741,0.774,4.401,1.27,4.932,1.468c0.372,0.135,0.758,0.202,1.157,0.202
				c1.484,0,2.905-0.933,3.457-2.271c0.636-1.529,1.303-3.087,1.947-4.591c0.463-1.086,0.929-2.171,1.387-3.258
				c0.254-0.608,0.513-1.212,0.771-1.815c0.493-1.144,1.003-2.324,1.457-3.515c0.128-0.334,0.437-1.045,0.798-1.869
				c0.778-1.79,1.75-4.017,1.97-4.928l0.034-0.144l-0.021-0.146C66.124,34.399,65.395,34.35,65.25,34.35L65.25,34.35z"/>
		</g>
		<g>
			<path fill="#797467" d="M44.918,22.729c-0.412,0.379-0.841,0.735-1.249,1.116c-0.566,0.533-1.145,1.056-1.686,1.619
				c-0.605,0.629-0.41,1.322,0.418,1.603c0.069,0.025,0.141,0.061,0.21,0.063c0.889,0.106,1.778,0.196,2.67,0.304
				c0.792,0.087,1.586,0.185,2.383,0.266c0.744,0.077,1.478,0.21,2.229,0.239c0.158,0.017,0.315,0.035,0.473,0.053
				c0.876,0.107,1.756,0.218,2.628,0.314c1.218,0.138,2.436,0.265,3.65,0.4c0.985,0.108,1.98,0.222,2.964,0.34
				c1.244,0.142,2.486,0.292,3.729,0.418c0.463,0.047,0.935,0.175,1.407,0.026c0.474-0.143,0.664-0.488,0.486-0.951
				c-0.121-0.307-0.322-0.567-0.543-0.816c-0.817-0.945-1.643-1.881-2.443-2.834c-0.804-0.943-1.569-1.916-2.365-2.862
				c-1.27-1.513-2.555-3.023-3.845-4.535c-0.542-0.648-1.093-1.3-1.672-1.929c-0.421-0.458-0.827-0.522-1.259-0.271
				c-0.18,0.056-0.323,0.171-0.458,0.291c-1.139,1.041-2.277,2.082-3.406,3.127C47.797,20.048,46.361,21.391,44.918,22.729z"/>
			
				<linearGradient id="SVGID_7_" gradientUnits="userSpaceOnUse" x1="57.5923" y1="730.6846" x2="82.7729" y2="730.6846" gradientTransform="matrix(1 0 0 1 -16.7197 -708.3311)">
				<stop  offset="0" style="stop-color:#E6E6E6"/>
				<stop  offset="0.5398" style="stop-color:#FFFFFF"/>
				<stop  offset="1" style="stop-color:#C9C9C9"/>
			</linearGradient>
			<path fill="url(#SVGID_7_)" d="M53.588,15.146c0.259,0,0.515,0.133,0.775,0.417c0.577,0.629,1.129,1.28,1.673,1.929
				c1.288,1.512,2.574,3.021,3.844,4.535c0.796,0.946,1.56,1.919,2.365,2.862c0.802,0.953,1.626,1.891,2.443,2.835
				c0.22,0.248,0.422,0.508,0.543,0.816c0.178,0.463-0.013,0.81-0.485,0.951c-0.164,0.052-0.329,0.07-0.494,0.07
				c-0.307,0-0.612-0.065-0.914-0.095c-1.244-0.126-2.486-0.277-3.729-0.418c-0.983-0.117-1.979-0.231-2.965-0.34
				c-1.214-0.134-2.432-0.261-3.65-0.399c-0.872-0.095-1.751-0.208-2.629-0.314c-0.157-0.018-0.314-0.036-0.472-0.053
				c-0.75-0.03-1.484-0.164-2.228-0.239c-0.798-0.081-1.592-0.18-2.383-0.266c-0.893-0.108-1.783-0.198-2.67-0.304
				c-0.071-0.002-0.142-0.037-0.211-0.063c-0.828-0.28-1.024-0.971-0.418-1.602c0.542-0.564,1.119-1.087,1.686-1.62
				c0.408-0.381,0.837-0.737,1.249-1.116c1.443-1.338,2.879-2.68,4.323-4.019c1.129-1.044,2.267-2.084,3.407-3.127
				c0.135-0.12,0.278-0.234,0.458-0.291C53.269,15.195,53.429,15.146,53.588,15.146 M53.588,14.39c-0.267,0-0.533,0.07-0.794,0.209
				c-0.273,0.104-0.48,0.27-0.65,0.42l-0.104,0.095c-1.107,1.012-2.214,2.025-3.311,3.041c-0.792,0.733-1.581,1.467-2.369,2.201
				c-0.651,0.606-1.302,1.213-1.956,1.82c-0.184,0.168-0.374,0.334-0.563,0.501c-0.231,0.202-0.463,0.406-0.688,0.615l-0.362,0.34
				c-0.449,0.418-0.913,0.85-1.353,1.309c-0.472,0.492-0.657,1.066-0.522,1.62c0.135,0.555,0.589,1.001,1.243,1.223
				c0.091,0.037,0.221,0.087,0.384,0.101c0.418,0.05,0.834,0.096,1.253,0.142c0.464,0.051,0.93,0.103,1.396,0.158l0.871,0.1
				c0.509,0.058,1.017,0.118,1.527,0.169c0.253,0.026,0.508,0.06,0.761,0.093c0.479,0.063,0.975,0.128,1.485,0.148l0.175,0.019
				l0.264,0.03l0.696,0.086c0.648,0.079,1.296,0.16,1.94,0.231c0.687,0.078,1.375,0.151,2.062,0.226
				c0.53,0.058,1.06,0.115,1.588,0.174c0.983,0.108,1.976,0.222,2.958,0.34l0.967,0.109c0.926,0.107,1.851,0.215,2.774,0.308
				c0.092,0.01,0.186,0.023,0.277,0.036c0.215,0.03,0.457,0.064,0.714,0.064c0.261,0,0.496-0.034,0.723-0.106
				c0.552-0.167,0.818-0.503,0.943-0.754c0.121-0.249,0.224-0.657,0.019-1.189c-0.173-0.44-0.442-0.777-0.684-1.048l-0.627-0.724
				c-0.607-0.696-1.21-1.392-1.804-2.097c-0.45-0.526-0.884-1.06-1.317-1.591c-0.348-0.425-0.694-0.851-1.047-1.271
				c-1.271-1.515-2.558-3.026-3.849-4.539c-0.522-0.624-1.088-1.295-1.689-1.95C54.515,14.611,54.068,14.39,53.588,14.39
				L53.588,14.39z"/>
		</g>
		<g>
			<path fill="#797467" d="M61.237,68.063C61.241,68.063,61.241,68.063,61.237,68.063c-0.166-0.289-0.318-0.589-0.492-0.877
				c-0.859-1.395-1.691-2.803-2.535-4.207c-0.307-0.514-0.584-1.059-1.145-1.368c-0.634-0.418-1.473-0.386-2.125,0.134
				c-0.612,0.49-1.155,1.065-1.707,1.625c-1.289,1.243-5.833,5.571-6.765,6.539c-0.152,0.156-0.324,0.34-0.202,0.582
				c0.11,0.199,0.342,0.196,0.55,0.196c5,0,9.998,0,14.999-0.002c0.493,0,0.665-0.23,0.493-0.7
				C62.062,69.287,61.703,68.645,61.237,68.063z"/>
			
				<linearGradient id="SVGID_8_" gradientUnits="userSpaceOnUse" x1="62.1851" y1="774.3379" x2="79.8501" y2="774.3379" gradientTransform="matrix(1 0 0 1 -16.7197 -708.3311)">
				<stop  offset="0" style="stop-color:#E6E6E6"/>
				<stop  offset="0.5398" style="stop-color:#FFFFFF"/>
				<stop  offset="1" style="stop-color:#C9C9C9"/>
			</linearGradient>
			<path fill="url(#SVGID_8_)" d="M56.109,61.325c0.336,0,0.668,0.098,0.958,0.287c0.559,0.309,0.835,0.854,1.143,1.368
				c0.844,1.404,1.677,2.812,2.535,4.207c0.175,0.288,0.328,0.587,0.493,0.877c0.466,0.581,0.825,1.223,1.072,1.921
				c0.171,0.471,0,0.701-0.493,0.701c-5.001,0.002-9.999,0.002-15,0.002c-0.004,0-0.009,0-0.013,0c-0.205,0-0.429-0.002-0.536-0.196
				c-0.123-0.242,0.05-0.425,0.202-0.583c0.931-0.967,5.476-5.293,6.766-6.538c0.552-0.561,1.093-1.135,1.707-1.626
				C55.295,61.463,55.706,61.325,56.109,61.325 M61.24,68.063c0,0,0,0-0.003,0C61.24,68.063,61.24,68.063,61.24,68.063
				 M56.109,60.568L56.109,60.568c-0.592,0-1.159,0.203-1.64,0.586c-0.567,0.452-1.067,0.964-1.552,1.46l-0.221,0.226
				c-0.341,0.33-0.943,0.905-1.646,1.58c-1.874,1.794-4.44,4.253-5.126,4.966c-0.464,0.477-0.576,0.964-0.331,1.448
				c0.338,0.61,0.971,0.61,1.21,0.61c5.013,0,10.011,0,15.013-0.002c0.634,0,0.958-0.272,1.117-0.499
				c0.16-0.227,0.304-0.624,0.087-1.217c-0.267-0.748-0.654-1.452-1.155-2.089c-0.056-0.098-0.109-0.198-0.165-0.298
				c-0.101-0.183-0.2-0.366-0.308-0.545c-0.631-1.024-1.244-2.052-1.859-3.078l-0.676-1.126l-0.09-0.153
				c-0.302-0.514-0.645-1.095-1.309-1.472C57.053,60.705,56.588,60.568,56.109,60.568L56.109,60.568z"/>
		</g>
		<g>
			<path fill="#797467" d="M77.089,56.371L77.089,56.371c-0.352-0.704-0.707-1.413-1.065-2.111c-0.048-0.111-0.14-0.2-0.215-0.295
				c-0.389-0.48-1.208-0.524-1.623-0.034c-0.176,0.208-0.314,0.422-0.447,0.664c-1.13,2.146-2.263,4.299-3.398,6.443
				c-0.567,1.079-1.121,2.149-1.688,3.225c-0.499,0.862-0.964,1.737-1.383,2.644c-0.049,0.102-0.087,0.228-0.106,0.346
				c-0.027,0.255,0.098,0.349,0.325,0.231c0.193-0.097,0.374-0.229,0.544-0.368c1.934-1.611,3.862-3.226,5.793-4.841
				c1.158-0.979,2.328-1.956,3.489-2.931c0.352-0.298,0.629-0.626,0.506-1.128C77.666,57.57,77.448,56.946,77.089,56.371z"/>
			
				<linearGradient id="SVGID_9_" gradientUnits="userSpaceOnUse" x1="83.1226" y1="768.8896" x2="95.3267" y2="768.8896" gradientTransform="matrix(1 0 0 1 -16.7197 -708.3311)">
				<stop  offset="0" style="stop-color:#E6E6E6"/>
				<stop  offset="0.5398" style="stop-color:#FFFFFF"/>
				<stop  offset="1" style="stop-color:#C9C9C9"/>
			</linearGradient>
			<path fill="url(#SVGID_9_)" d="M74.97,53.584c0.318,0,0.637,0.131,0.838,0.382c0.075,0.095,0.167,0.184,0.215,0.295
				c0.36,0.697,0.715,1.407,1.065,2.111c0.358,0.575,0.576,1.2,0.732,1.844c0.123,0.503-0.154,0.83-0.506,1.128
				c-1.162,0.976-2.332,1.951-3.49,2.931c-1.931,1.615-3.86,3.229-5.793,4.841c-0.17,0.141-0.351,0.272-0.544,0.368
				c-0.065,0.035-0.122,0.05-0.17,0.05c-0.116,0-0.174-0.101-0.155-0.281c0.02-0.118,0.057-0.244,0.107-0.346
				c0.419-0.906,0.884-1.781,1.383-2.644c0.564-1.075,1.119-2.146,1.687-3.225c1.137-2.144,2.269-4.297,3.399-6.443
				c0.132-0.242,0.271-0.456,0.447-0.664C74.385,53.695,74.677,53.584,74.97,53.584 M74.97,52.826c-0.534,0-1.031,0.225-1.362,0.617
				c-0.194,0.23-0.363,0.481-0.532,0.788l-0.191,0.363c-1.066,2.029-2.138,4.063-3.213,6.09c-0.331,0.627-0.655,1.25-0.979,1.874
				l-0.707,1.355c-0.537,0.921-1.001,1.806-1.402,2.676c-0.074,0.154-0.135,0.351-0.167,0.543l-0.003,0.021l-0.002,0.021
				c-0.043,0.413,0.104,0.675,0.236,0.82c0.171,0.19,0.41,0.296,0.671,0.296c0.17,0,0.343-0.045,0.516-0.135
				c0.216-0.107,0.434-0.253,0.68-0.457c1.571-1.309,3.137-2.62,4.705-3.931l1.093-0.913c0.792-0.671,1.586-1.337,2.379-2.002
				l1.11-0.931c0.277-0.234,1.006-0.854,0.755-1.885c-0.195-0.811-0.454-1.459-0.807-2.034c-0.345-0.691-0.693-1.389-1.045-2.073
				c-0.079-0.165-0.178-0.284-0.252-0.372l-0.046-0.054C76.062,53.074,75.529,52.826,74.97,52.826L74.97,52.826z"/>
		</g>
		<g>
			<path fill="#797467" d="M70.617,28.426c-0.273,0.929-0.091,1.796,0.624,2.504c0.665,0.686,6.422,3.094,8.459,3.974
				c0.149,0.065,0.324,0.104,0.49,0.123c0.425,0.046,0.619-0.21,0.462-0.606c-0.043-0.114-0.104-0.218-0.161-0.324
				c-0.419-0.729-0.838-1.458-1.26-2.186c-0.758-1.296-1.519-2.597-2.279-3.895c-1.006-1.761-2.018-3.519-3.03-5.273
				c-0.101-0.175-0.159-0.382-0.35-0.497l0,0c-0.235-0.167-0.335,0.031-0.414,0.184c-0.256,0.48-0.471,0.982-0.644,1.501l0,0
				c-0.346,0.714-0.655,1.446-0.931,2.19C71.214,26.863,70.852,27.625,70.617,28.426z"/>
			
				<linearGradient id="SVGID_10_" gradientUnits="userSpaceOnUse" x1="86.4604" y1="736.9395" x2="98.1831" y2="736.9395" gradientTransform="matrix(1 0 0 1 -16.7197 -708.3311)">
				<stop  offset="0" style="stop-color:#E6E6E6"/>
				<stop  offset="0.5398" style="stop-color:#FFFFFF"/>
				<stop  offset="1" style="stop-color:#C9C9C9"/>
			</linearGradient>
			<path fill="url(#SVGID_10_)" d="M73.41,22.183c0.047,0,0.1,0.018,0.163,0.063c0.191,0.115,0.249,0.322,0.351,0.497
				c1.012,1.753,2.022,3.512,3.029,5.272c0.761,1.298,1.521,2.599,2.279,3.895c0.422,0.729,0.84,1.457,1.259,2.186
				c0.059,0.106,0.119,0.209,0.162,0.324c0.144,0.365-0.009,0.612-0.367,0.612c-0.03,0-0.061-0.001-0.095-0.005
				c-0.167-0.019-0.341-0.058-0.491-0.123c-2.036-0.88-7.793-3.289-8.458-3.973c-0.715-0.708-0.897-1.576-0.624-2.505
				c0.235-0.801,0.597-1.563,0.967-2.303c0.277-0.746,0.586-1.476,0.932-2.191c0.172-0.521,0.387-1.021,0.644-1.502
				C73.217,22.318,73.287,22.183,73.41,22.183 M73.41,21.426c-0.582,0-0.836,0.49-0.92,0.652c-0.265,0.497-0.494,1.025-0.677,1.568
				c-0.332,0.69-0.643,1.421-0.924,2.174c-0.352,0.704-0.743,1.525-0.997,2.393c-0.361,1.222-0.07,2.379,0.817,3.256
				c0.566,0.583,3.171,1.766,7.776,3.737l0.912,0.393c0.206,0.089,0.444,0.149,0.706,0.18c0.068,0.007,0.125,0.01,0.181,0.01
				c0.42,0,0.778-0.177,0.989-0.488c0.129-0.188,0.308-0.587,0.081-1.159c-0.053-0.142-0.122-0.264-0.182-0.373l-0.02-0.038
				l-0.219-0.384c-0.35-0.605-0.697-1.211-1.049-1.817c-0.759-1.3-1.52-2.6-2.281-3.897c-1.003-1.755-2.016-3.514-3.027-5.268
				c-0.016-0.029-0.03-0.059-0.046-0.09c-0.085-0.174-0.227-0.462-0.543-0.661C73.804,21.489,73.611,21.426,73.41,21.426
				L73.41,21.426z"/>
		</g>
		<g>
			<path fill="#797467" d="M73.198,47.773c-0.361-1.261-0.739-2.526-1.226-3.753l0,0c-0.185-0.596-0.362-1.19-0.574-1.771
				c-0.179-0.476-0.344-0.971-0.495-1.453c-0.234-0.743-0.474-1.476-0.735-2.207c-0.273-0.827-0.38-1.459-0.737-2.256
				c-0.033-0.292-0.226-0.773-0.384-1.024c-0.4-0.676-0.973-0.678-1.357,0.015c-0.464,0.833-0.803,1.733-1.145,2.624l0,0
				c-0.524,1.151-1.489,3.493-1.484,3.493l-0.005,0.001c-0.26,0.464-0.425,0.971-0.633,1.459c-1.677,3.939-3.356,7.868-5.032,11.812
				c-0.11,0.255-0.205,0.521-0.206,0.804c-0.002,0.481,0.244,0.703,0.726,0.681v-0.001c0.219,0.015,0.396-0.08,0.579-0.165
				c1.174-0.479,2.313-1.028,3.46-1.566c2.581-1.194,5.168-2.372,7.744-3.583C72.844,50.346,73.542,48.975,73.198,47.773z"/>
			
				<linearGradient id="SVGID_11_" gradientUnits="userSpaceOnUse" x1="75.146" y1="753.833" x2="90.7593" y2="753.833" gradientTransform="matrix(1 0 0 1 -16.7197 -708.3311)">
				<stop  offset="0" style="stop-color:#E6E6E6"/>
				<stop  offset="0.5398" style="stop-color:#FFFFFF"/>
				<stop  offset="1" style="stop-color:#C9C9C9"/>
			</linearGradient>
			<path fill="url(#SVGID_11_)" d="M68.367,34.803c0.238,0,0.48,0.171,0.681,0.507c0.158,0.251,0.351,0.733,0.384,1.024
				c0.357,0.798,0.463,1.429,0.737,2.256c0.262,0.73,0.501,1.464,0.735,2.207c0.152,0.481,0.316,0.977,0.495,1.453
				c0.213,0.58,0.39,1.175,0.573,1.771c0.487,1.227,0.865,2.492,1.227,3.753c0.344,1.202-0.354,2.573-1.503,3.11
				c-2.577,1.212-5.163,2.389-7.746,3.583c-1.146,0.539-2.285,1.089-3.459,1.566c-0.166,0.079-0.332,0.166-0.529,0.166
				c-0.015,0-0.032,0-0.047-0.001v0.001c-0.023,0-0.045,0.002-0.066,0.002c-0.439,0-0.663-0.224-0.659-0.683
				c0-0.282,0.095-0.55,0.204-0.804c1.676-3.944,3.356-7.873,5.033-11.812c0.208-0.488,0.373-0.995,0.633-1.459l0.004-0.001
				c-0.004,0,0.96-2.341,1.483-3.493c0.342-0.892,0.681-1.792,1.146-2.624C67.883,34.976,68.124,34.803,68.367,34.803
				 M68.367,34.046c-0.312,0-0.897,0.119-1.338,0.911c-0.472,0.846-0.816,1.747-1.151,2.616l-0.031,0.084
				c-0.896,1.967-1.309,2.924-1.464,3.441c-0.198,0.357-0.34,0.72-0.479,1.069c-0.058,0.146-0.114,0.293-0.177,0.438l-2.031,4.766
				c-1.002,2.347-2.003,4.694-3.002,7.045c-0.131,0.301-0.264,0.67-0.267,1.098c-0.002,0.546,0.21,0.874,0.39,1.053
				c0.175,0.178,0.498,0.39,1.027,0.39c0.026,0,0.054,0,0.082-0.001c0.011,0,0.021,0,0.032,0c0.058,0,0.112-0.004,0.167-0.011
				l0.54-0.025v-0.136c0.036-0.016,0.068-0.03,0.1-0.047l0.043-0.019c0.975-0.396,1.968-0.864,2.928-1.315l0.532-0.25
				c0.825-0.381,1.654-0.763,2.481-1.144c1.757-0.81,3.513-1.617,5.265-2.442c1.51-0.706,2.35-2.464,1.91-4.004
				c-0.352-1.219-0.735-2.517-1.24-3.795l-0.071-0.229c-0.156-0.509-0.318-1.037-0.508-1.552c-0.152-0.408-0.307-0.857-0.485-1.42
				c-0.273-0.874-0.511-1.585-0.742-2.234c-0.087-0.264-0.16-0.522-0.231-0.773c-0.129-0.451-0.26-0.917-0.485-1.442
				c-0.076-0.409-0.292-0.918-0.478-1.212C69.247,34.161,68.669,34.046,68.367,34.046L68.367,34.046z"/>
		</g>
		<g>
			<path fill="#797467" d="M33.761,55.44c0.223-0.048,0.445-0.096,0.665-0.162c0.941-0.308,1.908-0.515,2.83-0.877l0,0
				c0.941-0.439,1.219-1.177,0.604-2.035c-0.086-0.12-0.191-0.222-0.298-0.32c-0.527-0.51-1.051-1.012-1.58-1.521
				c-1.592-1.537-3.181-3.078-4.776-4.616c-0.762-0.731-1.527-1.449-2.289-2.17c-1.064-1.026-2.121-2.047-3.188-3.07
				c-0.204-0.19-0.385-0.179-0.529,0.066c0,0.221,0,0.439,0,0.655c0.219,0.709,0.276,1.449,0.412,2.171
				c0.25,1.333,0.437,2.67,0.692,4.002c0.154,0.817,0.261,1.642,0.489,2.444c0.026,0.643,0.202,1.259,0.304,1.893
				c0.172,1.029,0.374,2.064,0.559,3.091c0.07-0.005,0.065-0.009-0.001,0c0.025,0.38,0.094,0.747,0.244,1.092
				c0.246,0.544,0.639,0.756,1.22,0.667C29.731,56.66,32.821,55.753,33.761,55.44z"/>
			
				<linearGradient id="SVGID_12_" gradientUnits="userSpaceOnUse" x1="41.1655" y1="756.9844" x2="55.6675" y2="756.9844" gradientTransform="matrix(1 0 0 1 -16.7197 -708.3311)">
				<stop  offset="0" style="stop-color:#E6E6E6"/>
				<stop  offset="0.5398" style="stop-color:#FFFFFF"/>
				<stop  offset="1" style="stop-color:#C9C9C9"/>
			</linearGradient>
			<path fill="url(#SVGID_12_)" d="M25.468,40.538c0.082,0,0.17,0.045,0.263,0.132c1.066,1.023,2.123,2.042,3.188,3.069
				c0.762,0.721,1.526,1.438,2.289,2.171c1.594,1.536,3.183,3.076,4.775,4.616c0.528,0.509,1.052,1.011,1.58,1.52
				c0.106,0.1,0.212,0.201,0.298,0.321c0.614,0.859,0.336,1.596-0.604,2.035c-0.922,0.362-1.89,0.568-2.831,0.877
				c-0.218,0.065-0.44,0.113-0.664,0.162c-0.941,0.312-4.031,1.219-4.642,1.31c-0.085,0.014-0.166,0.018-0.244,0.018
				c-0.45,0-0.767-0.222-0.977-0.685c-0.15-0.345-0.219-0.713-0.244-1.093c0,0,0,0,0.001,0l0,0c0.041-0.002,0.055-0.005,0.049-0.005
				c-0.004,0-0.022,0.002-0.049,0.005c-0.184-1.025-0.386-2.061-0.558-3.091c-0.103-0.633-0.279-1.25-0.305-1.893
				c-0.228-0.802-0.334-1.626-0.489-2.443c-0.254-1.332-0.44-2.669-0.69-4.003c-0.136-0.72-0.194-1.46-0.412-2.17
				c0-0.216,0-0.434,0-0.655C25.28,40.603,25.37,40.538,25.468,40.538 M25.468,39.782c-0.175,0-0.616,0.056-0.917,0.572
				l-0.104,0.176v0.205v0.655v0.114l0.034,0.109c0.129,0.418,0.196,0.863,0.268,1.335c0.038,0.251,0.076,0.505,0.124,0.753
				c0.121,0.64,0.226,1.281,0.331,1.923c0.113,0.681,0.228,1.384,0.362,2.081c0.042,0.225,0.08,0.451,0.12,0.676
				c0.098,0.57,0.199,1.159,0.36,1.748c0.027,0.455,0.114,0.884,0.196,1.296c0.04,0.198,0.08,0.396,0.113,0.596
				c0.115,0.681,0.24,1.359,0.365,2.034c0.063,0.338,0.126,0.677,0.186,1.013c0.036,0.498,0.135,0.931,0.303,1.317
				c0.335,0.739,0.927,1.141,1.67,1.141c0.115,0,0.235-0.009,0.357-0.026c0.699-0.104,3.852-1.039,4.729-1.327l0.047-0.012
				c0.205-0.044,0.418-0.092,0.637-0.157c0.375-0.124,0.738-0.225,1.102-0.329c0.585-0.164,1.191-0.334,1.787-0.567l0.021-0.01
				l0.021-0.012c0.889-0.413,1.203-0.99,1.312-1.4c0.104-0.396,0.116-1.022-0.412-1.76c-0.124-0.176-0.265-0.311-0.397-0.435
				l-0.914-0.88l-0.656-0.631l-2.098-2.026c-0.893-0.863-1.785-1.727-2.678-2.589c-0.561-0.538-1.122-1.066-1.681-1.593l-0.614-0.58
				c-1.06-1.023-2.117-2.043-3.183-3.067C25.949,39.839,25.658,39.782,25.468,39.782L25.468,39.782z"/>
		</g>
		<g>
			<path fill="#797467" d="M35.4,23.923c-0.106-0.208-0.218-0.402-0.335-0.596c-0.085-0.143-0.142-0.245-0.142-0.245
				c-0.006,0-0.01,0.004-0.017,0.004c-0.087-0.131-0.168-0.274-0.264-0.403c-0.465-0.617-0.854-0.596-1.253,0.07
				c-0.591,0.982-1.146,1.983-1.722,2.974c-1.645,2.839-3.298,5.677-4.938,8.522c-0.082,0.142-0.251,0.319-0.069,0.489
				c0.18,0.173,0.4,0.079,0.574-0.035c0.224-0.163,0.439-0.339,0.659-0.5c0.93-0.689,1.856-1.38,2.785-2.07l0,0
				c0,0,3.056-1.814,3.889-2.36c0.832-0.545,2.826-1.664,2.75-2.173C37.265,27.244,36.085,25.12,35.4,23.923z"/>
			
				<linearGradient id="SVGID_13_" gradientUnits="userSpaceOnUse" x1="42.54" y1="736.8672" x2="54.7935" y2="736.8672" gradientTransform="matrix(1 0 0 1 -16.7197 -708.3311)">
				<stop  offset="0" style="stop-color:#E6E6E6"/>
				<stop  offset="0.5398" style="stop-color:#FFFFFF"/>
				<stop  offset="1" style="stop-color:#C9C9C9"/>
			</linearGradient>
			<path fill="url(#SVGID_13_)" d="M34.013,22.238c0.198,0,0.405,0.149,0.629,0.447c0.095,0.128,0.177,0.271,0.264,0.402
				c0.007,0,0.011-0.004,0.017-0.004c0,0,0.057,0.103,0.142,0.246c0.117,0.193,0.229,0.388,0.335,0.596
				c0.685,1.197,1.865,3.321,1.917,3.678c0.075,0.508-1.92,1.628-2.75,2.173c-0.833,0.545-3.889,2.359-3.889,2.359
				c-0.929,0.691-1.855,1.383-2.785,2.07c-0.219,0.16-0.435,0.337-0.658,0.5c-0.105,0.068-0.227,0.13-0.346,0.13
				c-0.079,0-0.156-0.025-0.228-0.095c-0.183-0.171-0.013-0.348,0.069-0.488c1.64-2.845,3.293-5.682,4.938-8.523
				c0.575-0.991,1.13-1.992,1.721-2.974C33.595,22.409,33.799,22.238,34.013,22.238 M34.013,21.481L34.013,21.481
				c-0.494,0-0.921,0.296-1.273,0.884c-0.393,0.65-0.774,1.317-1.142,1.963c-0.194,0.341-0.39,0.681-0.585,1.02
				c-0.632,1.091-1.267,2.184-1.9,3.274c-1.015,1.749-2.031,3.498-3.041,5.25l-0.023,0.036c-0.473,0.728-0.093,1.209,0.092,1.383
				c0.205,0.195,0.464,0.299,0.746,0.299c0.251,0,0.5-0.081,0.759-0.252l0.017-0.011l0.015-0.011
				c0.123-0.09,0.243-0.182,0.364-0.275c0.098-0.077,0.198-0.153,0.297-0.226c0.705-0.521,1.405-1.043,2.105-1.565l0.651-0.485
				c0.356-0.21,3.085-1.832,3.884-2.356c0.145-0.095,0.328-0.21,0.528-0.335c1.829-1.138,2.677-1.765,2.556-2.581
				c-0.023-0.156-0.083-0.576-2.008-3.943c-0.099-0.194-0.218-0.403-0.344-0.61c-0.074-0.125-0.127-0.218-0.128-0.222l-0.217-0.39
				h-0.053c-0.022-0.032-0.044-0.064-0.068-0.095C35.107,22.045,34.683,21.481,34.013,21.481L34.013,21.481z"/>
		</g>
		<g>
			<path fill="#797467" d="M82.27,39.361c0-0.004,0-0.007,0-0.015c0-0.005-0.004-0.013-0.004-0.016
				c-0.146-1.242-0.969-1.63-1.51-1.949c-0.047-0.025-0.094-0.05-0.138-0.08c-0.004-0.002-0.013-0.009-0.022-0.011
				c-0.319-0.214-2.553-1.211-4.66-2.142c-0.043-0.016-0.089-0.041-0.133-0.057c-1.144-0.501-2.24-0.983-2.951-1.291
				c-0.237-0.135-0.486-0.239-0.741-0.318c-0.063-0.027-0.097-0.041-0.097-0.041l0.006,0.01c-0.087-0.022-0.172-0.059-0.259-0.073
				c-0.689-0.143-1.132,0.297-1.053,0.993c0.054,0.443,0.195,0.845,0.371,1.246c0.315,1.038,0.642,2.074,1.025,3.082l0,0
				c0.051,0.184,0.104,0.371,0.164,0.556c0.688,2.055,1.376,4.111,2.063,6.163c0.002,0,0.013,0,0.009,0.004
				c0.139,0.423,0.275,0.852,0.414,1.281c0.632,1.912,3.118,7.302,3.556,8.147c0.184,0.339,0.392,0.683,0.692,0.932
				c0.3,0.248,0.482,0.197,0.57-0.174c0.019-0.063,0.026-0.127,0.038-0.191c0-0.004,0.005,0.002,0.005,0
				c0.158-0.654,2.434-13.053,2.661-15.198C82.31,39.892,82.301,39.617,82.27,39.361z"/>
			
				<linearGradient id="SVGID_14_" gradientUnits="userSpaceOnUse" x1="86.6626" y1="752.5869" x2="99.7739" y2="752.5869" gradientTransform="matrix(1 0 0 1 -16.7197 -708.3311)">
				<stop  offset="0" style="stop-color:#E6E6E6"/>
				<stop  offset="0.5398" style="stop-color:#FFFFFF"/>
				<stop  offset="1" style="stop-color:#C9C9C9"/>
			</linearGradient>
			<path fill="url(#SVGID_14_)" d="M71.51,33.35c0.077,0,0.162,0.01,0.251,0.027c0.087,0.013,0.171,0.051,0.259,0.073l-0.007-0.01
				c0,0,0.034,0.015,0.097,0.041c0.255,0.079,0.504,0.183,0.74,0.318c0.712,0.307,1.81,0.79,2.952,1.29
				c0.044,0.016,0.09,0.041,0.134,0.057c2.106,0.931,4.34,1.928,4.66,2.143c0.011,0.002,0.018,0.009,0.022,0.011
				c0.043,0.031,0.091,0.056,0.137,0.08c0.541,0.319,1.364,0.707,1.51,1.949c0,0.003,0.004,0.01,0.004,0.015
				c0,0.009,0,0.012,0,0.016c0.031,0.256,0.041,0.531,0.007,0.859c-0.227,2.144-2.503,14.544-2.661,15.199l0,0
				c-0.001,0-0.002-0.002-0.004-0.002c0,0-0.002,0-0.002,0.002c-0.009,0.064-0.017,0.128-0.037,0.191
				c-0.052,0.219-0.138,0.327-0.259,0.327c-0.086,0-0.189-0.051-0.311-0.153c-0.302-0.249-0.51-0.593-0.693-0.932
				c-0.437-0.846-2.925-6.235-3.556-8.146c-0.14-0.431-0.275-0.86-0.413-1.282c0.003-0.004-0.008-0.004-0.011-0.004
				c-0.686-2.053-1.372-4.108-2.062-6.163c-0.06-0.186-0.111-0.371-0.163-0.556c-0.385-1.008-0.71-2.044-1.026-3.082
				c-0.175-0.4-0.317-0.803-0.37-1.247C70.639,33.763,70.966,33.35,71.51,33.35 M70.213,31.815l0.547,0.958
				c-0.156,0.081-0.298,0.189-0.418,0.324c-0.309,0.347-0.446,0.831-0.386,1.36c0.07,0.575,0.253,1.059,0.412,1.423
				c0.286,0.94,0.624,2.021,1.017,3.057c0.052,0.182,0.104,0.367,0.163,0.551c0.477,1.418,0.947,2.828,1.419,4.238l0.646,1.935
				l0.173,0.516h0.003c0.035,0.113,0.071,0.225,0.108,0.337l0.136,0.425c0.64,1.937,3.146,7.375,3.604,8.263
				c0.225,0.416,0.481,0.834,0.88,1.167c0.269,0.221,0.528,0.328,0.796,0.328c0.148,0,0.585-0.045,0.85-0.52h0.047l0.064-0.268
				c0.011-0.031,0.019-0.065,0.027-0.102c0.018-0.06,0.03-0.12,0.041-0.18l0.009-0.031c0.205-0.85,2.451-13.165,2.677-15.296
				c0.035-0.34,0.035-0.653-0.003-0.983v-0.097l-0.019-0.058c-0.205-1.473-1.172-2.031-1.754-2.366l-0.114-0.068
				c-0.048-0.027-0.066-0.036-0.083-0.046l-0.069-0.051l-0.032-0.013l-0.06-0.037l-0.012-0.002c-0.464-0.258-1.77-0.854-4.643-2.126
				l-0.021-0.009l-0.022-0.008c-0.041-0.019-0.078-0.035-0.112-0.049l-0.316-0.139c-1.002-0.438-1.939-0.851-2.582-1.128
				c-0.254-0.141-0.527-0.259-0.812-0.35l-0.053-0.024L70.213,31.815L70.213,31.815z"/>
		</g>
		<g>
			<path fill="#797467" d="M50.658,14.827c-0.114-0.21-0.296-0.027-0.449-0.009c-0.027,0.002-0.044,0.019-0.068,0.025
				c-2.66,0.971-5.323,1.939-7.981,2.908c-1.852,0.668-3.703,1.34-5.551,2.015c-0.454,0.169-0.599,0.362-0.595,0.764h-0.009
				c0,0,0.001,0.603,0.229,1.136c0.018,0.042,0.043,0.104,0.07,0.164c0.018,0.054,0.044,0.104,0.07,0.161
				c0.355,0.813,1.143,2.509,1.765,2.722c0.029,0.011,0.062,0.011,0.086,0.02c0.553,0.297,1.218,0.322,1.837-0.027
				c0.09-0.054,0.165-0.137,0.247-0.197c0.057-0.033,0.127-0.055,0.173-0.091c0.042-0.036,0.175-0.159,0.348-0.311
				c0.2-0.185,0.41-0.371,0.612-0.562c0.843-0.778,2.135-1.976,3.483-3.221c0.141-0.121,0.273-0.251,0.41-0.379
				c1.056-0.972,2.097-1.939,2.97-2.741c0.718-0.665,1.43-1.333,2.155-1.994C50.567,15.109,50.766,15.01,50.658,14.827z"/>
			
				<linearGradient id="SVGID_15_" gradientUnits="userSpaceOnUse" x1="51.9692" y1="728.1758" x2="68.1675" y2="728.1758" gradientTransform="matrix(1 0 0 1 -16.7197 -708.3311)">
				<stop  offset="0" style="stop-color:#E6E6E6"/>
				<stop  offset="0.5398" style="stop-color:#FFFFFF"/>
				<stop  offset="1" style="stop-color:#C9C9C9"/>
			</linearGradient>
			<path fill="url(#SVGID_15_)" d="M50.515,14.727c0.053,0,0.103,0.025,0.144,0.101c0.107,0.184-0.092,0.282-0.199,0.384
				c-0.725,0.661-1.437,1.33-2.155,1.994c-0.873,0.801-1.913,1.769-2.969,2.741c-0.136,0.128-0.269,0.258-0.41,0.379
				c-1.349,1.245-2.642,2.442-3.483,3.221c-0.204,0.191-0.413,0.377-0.612,0.562c-0.172,0.152-0.306,0.275-0.348,0.311
				c-0.046,0.037-0.117,0.058-0.173,0.091c-0.08,0.06-0.156,0.144-0.247,0.198c-0.31,0.175-0.63,0.256-0.944,0.256
				c-0.313,0-0.616-0.081-0.893-0.229c-0.023-0.009-0.058-0.009-0.086-0.02c-0.622-0.212-1.409-1.908-1.765-2.722
				c-0.028-0.057-0.052-0.106-0.071-0.161c-0.027-0.06-0.052-0.123-0.07-0.163c-0.228-0.536-0.229-1.137-0.229-1.137h0.008
				c-0.004-0.403,0.142-0.595,0.596-0.765c1.848-0.674,3.7-1.347,5.55-2.014c2.658-0.969,5.321-1.937,7.981-2.908
				c0.023-0.006,0.042-0.022,0.067-0.024C50.308,14.806,50.418,14.727,50.515,14.727 M50.515,13.97
				c-0.204,0-0.363,0.066-0.458,0.106c-0.002,0.001-0.005,0.001-0.007,0.002c-0.076,0.016-0.137,0.038-0.185,0.06L46,15.546
				l-4.101,1.497c-1.849,0.667-3.701,1.34-5.55,2.014c-0.319,0.118-0.707,0.314-0.923,0.718h-0.171l-0.005,0.76
				c0,0.076,0.011,0.771,0.289,1.429l0.028,0.064l0.035,0.081c0.025,0.063,0.052,0.124,0.083,0.189
				c1.078,2.462,1.724,2.965,2.212,3.132c0.023,0.008,0.049,0.015,0.077,0.021c0.361,0.175,0.755,0.267,1.146,0.267
				c0.459,0,0.902-0.12,1.317-0.355c0.131-0.079,0.218-0.155,0.281-0.21c0.003-0.002,0.005-0.004,0.008-0.008
				c0.063-0.028,0.146-0.072,0.232-0.141l0.112-0.099c0.062-0.056,0.153-0.138,0.26-0.232l0.261-0.239
				c0.125-0.112,0.249-0.226,0.371-0.342l1.075-0.994l2.403-2.22c0.083-0.072,0.182-0.164,0.282-0.258l0.129-0.122
				c0.504-0.464,1.008-0.93,1.489-1.375c0.524-0.485,1.023-0.947,1.478-1.364l0.774-0.72c0.458-0.426,0.916-0.852,1.378-1.274
				l0.03-0.024c0.675-0.543,0.41-1.13,0.313-1.297C51.155,14.155,50.854,13.97,50.515,13.97L50.515,13.97z"/>
		</g>
		<g opacity="0.6" enable-background="new    ">
			<g>
				<path fill="#C0B9AB" d="M68.301,18.829c-0.719-0.26-1.474-0.432-2.17-0.758l0,0c-0.826-0.347-1.68-0.62-2.521-0.923
					c-1.654-0.582-3.298-1.2-4.938-1.815c-0.78-0.297-1.586-0.518-2.342-0.888c-0.122,0-0.242,0-0.363,0
					c-0.062,0.241,0.081,0.394,0.222,0.548c0.597,0.715,1.2,1.418,1.801,2.115c1.813,2.129,3.627,4.262,5.442,6.391"/>
			</g>
		</g>
		<g opacity="0.6" enable-background="new    ">
			<g>
				<path fill="#C0B9AB" d="M56.247,30.398c-0.396-0.038-0.792-0.081-1.186-0.149c-0.58-0.104-1.181-0.106-1.773-0.185
					c-0.895-0.119-1.796-0.184-2.694-0.306c-0.98-0.129-1.971-0.23-2.957-0.327c-1.047-0.104-2.092-0.231-3.137-0.35
					c-0.817-0.096-1.63-0.177-2.446-0.288c-1.456-0.185-2.504,0.651-2.461,2.094c0.017,0.451,0.103,0.896,0.142,1.332
					c0.056,0.646,0.098,1.285,0.171,1.919c0.104,0.984,0.264,1.969,0.326,2.956c0.068,1.102,0.203,2.191,0.329,3.286
					c0.122,1.109,0.202,2.219,0.324,3.332c0.05,0.432,0.1,0.863,0.144,1.296 M63.184,33.972c0.002,0.009,0.008,0.019,0.012,0.029
					C63.192,33.992,63.186,33.981,63.184,33.972z"/>
			</g>
		</g>
		<g opacity="0.6" enable-background="new    ">
			<g>
				<path fill="#C0B9AB" d="M39.451,46.61c-0.027-0.366-0.056-0.734-0.098-1.097c-0.127-1.092-0.266-2.181-0.354-3.278
					c-0.04-0.572-0.096-1.141-0.164-1.703c-0.1-0.87-0.212-1.73-0.275-2.597c-0.041-0.573-0.087-1.136-0.164-1.702
					c-0.149-1.128-0.233-2.264-0.351-3.393c-0.061-0.622-0.061-1.265-0.293-1.859c-0.176-0.468-0.569-0.724-1.058-0.747
					c-0.621-0.022-1.037,0.375-1.482,0.702c-1.731,1.267-3.464,2.541-5.177,3.835c-0.57,0.431-2.08,1.556-2.267,1.692
					c-1.292,0.977-1.395,2.321-0.239,3.444c0.873,0.845,1.761,1.675,2.638,2.518c1.307,1.259,2.616,2.504,3.915,3.766
					c0.951,0.921,1.887,1.855,2.845,2.771"/>
			</g>
		</g>
		<g opacity="0.6" enable-background="new    ">
			<path fill="#C0B9AB" d="M62.245,24.842c-0.804-0.943-1.569-1.914-2.365-2.862c-1.27-1.513-2.555-3.022-3.844-4.533
				c-0.543-0.649-1.095-1.302-1.673-1.931c-0.422-0.457-0.827-0.522-1.258-0.27c-0.18,0.056-0.323,0.17-0.458,0.291
				c-1.14,1.041-2.277,2.082-3.406,3.126c-1.445,1.339-2.881,2.681-4.324,4.021c-0.412,0.379-0.841,0.735-1.249,1.116
				c-0.565,0.532-1.145,1.056-1.686,1.619c-0.605,0.63-0.41,1.323,0.418,1.602c0.069,0.025,0.141,0.06,0.21,0.063
				c0.889,0.106,1.778,0.196,2.67,0.304c0.792,0.087,1.586,0.186,2.383,0.267c0.743,0.077,1.477,0.21,2.228,0.239
				c0.159,0.018,0.316,0.035,0.472,0.054c0.878,0.106,1.757,0.218,2.63,0.315c1.217,0.137,2.435,0.264,3.65,0.398
				c0.421,0.046,0.841,0.094,1.263,0.141"/>
		</g>
		<g opacity="0.6" enable-background="new    ">
			<g>
				<path fill="#C0B9AB" d="M35.642,50.153c-1.479-1.429-2.955-2.859-4.436-4.288c-0.762-0.731-1.526-1.449-2.289-2.168
					c-1.064-1.028-2.121-2.048-3.187-3.071c-0.205-0.189-0.386-0.179-0.529,0.066c0,0.22,0,0.439,0,0.656
					c0.218,0.708,0.275,1.448,0.412,2.169c0.25,1.331,0.437,2.67,0.691,4.003c0.154,0.818,0.261,1.642,0.489,2.444
					c0.026,0.644,0.202,1.258,0.304,1.893c0.172,1.029,0.374,2.064,0.559,3.091c0.07-0.005,0.065-0.01-0.001,0
					c0.025,0.381,0.094,0.746,0.244,1.092c0.246,0.545,0.639,0.754,1.22,0.666"/>
			</g>
		</g>
		<g opacity="0.6" enable-background="new    ">
			<path fill="#C0B9AB" d="M35.4,23.879c-0.106-0.208-0.218-0.401-0.335-0.595c-0.085-0.144-0.142-0.246-0.142-0.246
				c-0.006,0-0.01,0.004-0.017,0.004c-0.087-0.131-0.168-0.275-0.264-0.402c-0.465-0.617-0.854-0.597-1.253,0.069
				c-0.591,0.983-1.146,1.983-1.722,2.974c-1.645,2.84-3.298,5.677-4.938,8.523c-0.082,0.143-0.251,0.319-0.069,0.49
				c0.18,0.172,0.4,0.078,0.574-0.037c0.224-0.162,0.439-0.338,0.659-0.5c0.93-0.689,1.856-1.38,2.785-2.071l0,0
				c0,0,3.056-1.812,3.889-2.359c0.832-0.546,2.826-1.665,2.75-2.172C37.265,27.199,36.085,25.077,35.4,23.879z"/>
		</g>
		<g opacity="0.6" enable-background="new    ">
			<path fill="#C0B9AB" d="M50.66,14.782c-0.114-0.21-0.298-0.027-0.451-0.007c-0.027,0.001-0.044,0.018-0.068,0.024
				c-2.66,0.97-5.323,1.938-7.981,2.908c-1.852,0.668-3.703,1.34-5.55,2.014c-0.455,0.169-0.6,0.361-0.596,0.765h-0.008
				c0,0,0.001,0.601,0.229,1.136c0.018,0.042,0.043,0.104,0.07,0.164c0.019,0.054,0.044,0.105,0.071,0.16
				c0.355,0.814,1.143,2.511,1.765,2.724c0.028,0.01,0.063,0.01,0.086,0.018c0.553,0.298,1.219,0.323,1.837-0.027
				c0.09-0.054,0.165-0.137,0.247-0.198c0.057-0.033,0.127-0.054,0.173-0.091c0.042-0.036,0.174-0.158,0.348-0.309
				c0.2-0.186,0.41-0.371,0.612-0.562c0.842-0.778,2.135-1.975,3.483-3.219c0.141-0.121,0.272-0.252,0.41-0.38
				c1.056-0.971,2.097-1.939,2.969-2.741c0.717-0.665,1.43-1.333,2.156-1.995C50.567,15.066,50.766,14.967,50.66,14.782z"/>
		</g>
	</g>
	<rect x="0.074" y="0.059" fill="none" width="107.354" height="83.446"/>
</g>
</svg>
