<?xml version="1.0" encoding="utf-8"?>
<!-- Generator: Adobe Illustrator 16.0.0, SVG Export Plug-In . SVG Version: 6.00 Build 0)  -->
<!DOCTYPE svg PUBLIC "-//W3C//DTD SVG 1.1//EN" "http://www.w3.org/Graphics/SVG/1.1/DTD/svg11.dtd">
<svg version="1.1" id="Layer_1" xmlns="http://www.w3.org/2000/svg" xmlns:xlink="http://www.w3.org/1999/xlink" x="0px" y="0px"
	 width="68.354px" height="51.926px" viewBox="0 0 68.354 51.926" enable-background="new 0 0 68.354 51.926" xml:space="preserve">
<g>
	<g opacity="0.6">
		<rect x="15.687" y="23.305" fill="#FFFFFF" width="11.396" height="1.953"/>
		<rect x="15.687" y="26.561" fill="#FFFFFF" width="11.396" height="1.955"/>
		<path fill="#FFFFFF" d="M12.431,20.496h36.465v5.606h1.014h0.941v-5.606v-5.57v-6.15H10.478v27.348h29.77v-0.432V34.17H12.431
			V20.496z M12.431,10.729h36.465v4.197H12.431V10.729z"/>
		<polygon fill="#FFFFFF" points="52.099,34.17 52.099,28.391 48.896,28.391 48.896,34.17 43.116,34.17 43.116,37.372 
			48.896,37.372 48.896,43.151 52.099,43.151 52.099,37.372 57.876,37.372 57.876,34.17 		"/>
	</g>
	<g>
		<rect x="0" y="-0.001" fill="none" width="68.354" height="51.928"/>
	</g>
</g>
</svg>
