<?xml version="1.0" encoding="utf-8"?>
<!-- Generator: Adobe Illustrator 16.0.0, SVG Export Plug-In . SVG Version: 6.00 Build 0)  -->
<!DOCTYPE svg PUBLIC "-//W3C//DTD SVG 1.1//EN" "http://www.w3.org/Graphics/SVG/1.1/DTD/svg11.dtd">
<svg version="1.1" id="Isolation_Mode" xmlns="http://www.w3.org/2000/svg" xmlns:xlink="http://www.w3.org/1999/xlink" x="0px"
	 y="0px" width="82px" height="76px" viewBox="0 0 82 76" enable-background="new 0 0 82 76" xml:space="preserve">
<g>
	<polygon fill="#FFFFFF" points="60.004,47.685 60.004,37.127 54.139,37.127 54.139,47.685 43.582,47.685 43.582,53.55 
		54.139,53.55 54.139,64.107 60.004,64.107 60.004,53.55 70.562,53.55 70.562,47.685 	"/>
	<g>
		<path fill="#FFFFFF" d="M27.092,11.893c-8.777,0-15.653,7.055-15.653,16.062c0,10.973,9.451,19.571,22.532,31.471l3.626,3.729
			c0.562,0.576,1.587,0.577,2.152-0.003l3.511-3.62c1.245-1.135,2.434-2.22,3.588-3.281h-4.438l-1.233,1.126l-2.505,2.579
			l-2.615-2.685C22.258,44.713,14.438,37.148,14.438,27.954c0-7.324,5.558-13.062,12.653-13.062c3.886,0,7.879,1.921,10.421,5.013
			c0.537,0.65,1.781,0.652,2.316,0c2.545-3.092,6.538-5.013,10.423-5.013c7.095,0,12.652,5.737,12.652,13.062
			c0,1.98-0.376,3.925-1.146,5.921h1.24v4.362c1.952-3.487,2.905-6.866,2.905-10.283c0-9.007-6.876-16.062-15.652-16.062
			c-4.075,0-8.172,1.644-11.239,4.51l-0.341,0.319l-0.342-0.319C35.266,13.536,31.169,11.893,27.092,11.893z"/>
	</g>
</g>
</svg>
