<?xml version="1.0" encoding="utf-8"?>
<!-- Generator: Adobe Illustrator 16.0.0, SVG Export Plug-In . SVG Version: 6.00 Build 0)  -->
<!DOCTYPE svg PUBLIC "-//W3C//DTD SVG 1.1//EN" "http://www.w3.org/Graphics/SVG/1.1/DTD/svg11.dtd">
<svg version="1.1" id="Layer_1" xmlns="http://www.w3.org/2000/svg" xmlns:xlink="http://www.w3.org/1999/xlink" x="0px" y="0px"
	 width="68.354px" height="51.926px" viewBox="0 0 68.354 51.926" enable-background="new 0 0 68.354 51.926" xml:space="preserve">
<g>
	<g>
		<g>
			<polygon fill="#DE4415" points="60.965,13.944 52.512,13.944 52.512,5.49 48.86,5.49 48.86,13.944 40.406,13.944 40.406,17.595 
				48.86,17.595 48.86,26.048 52.512,26.048 52.512,17.595 60.965,17.595 			"/>
			<g>
				<ellipse fill="#DE4415" cx="32.313" cy="28.693" rx="1.414" ry="0.719"/>
				<path fill="#DE4415" d="M14.087,33.271c2.212-0.08,5.729-0.148,6.945-0.152c-0.031,2.229,3.839,2.934,5.015,2.934
					c1.173,0,2.225,0,3.545,0s2.196-0.664,2.196-2.287s-0.337-3.012-0.337-3.012c-0.306-0.689-1.036-0.781-2.71-0.781
					c-1.673,0-4.33,0-5.214,0c-2.163,0-2.41,0.709-2.558,1.441c-0.159-0.303-0.44-0.348-0.821-0.445
					c-0.381-0.105-4.845-1.297-5.875-1.602c-1.032-0.309-3-0.953-3.302,0.082c-0.298,1.039-0.77,2.871,0.775,2.871
					C11.686,33.24,12.339,33.333,14.087,33.271z M21.714,31.232c0.297-0.479,0.776-0.795,1.668-0.783
					c1.192,0.018,5.29,0.125,6.014,0.184c0.725,0.062,1.329,0.301,1.417,1.373c0.086,1.074,0.323,2.445-0.453,2.951
					c-0.773,0.506-3.638,0.391-4.77,0.27c-1.134-0.121-3.696-0.656-3.876-1.67S21.414,31.708,21.714,31.232z"/>
				<path fill="#DE4415" d="M33.176,30.753c0,0-0.338,1.389-0.338,3.012s0.877,2.287,2.197,2.287c0.953,0,1.766,0,2.586,0v-0.734
					c-1.273,0.041-2.816-0.012-3.354-0.361c-0.775-0.506-0.539-1.877-0.453-2.951c0.088-1.072,0.691-1.311,1.416-1.373
					c0.32-0.025,1.297-0.061,2.391-0.094v-0.566c-0.617,0-1.223,0-1.734,0C34.213,29.972,33.481,30.064,33.176,30.753z"/>
			</g>
			<path fill="#DE4415" d="M52.879,32.32c1.547,0,1.074-1.832,0.775-2.871c-0.301-1.035-2.27-0.391-3.301-0.082
				c-1.031,0.305-5.494,1.496-5.875,1.602c-0.381,0.098-0.662,0.143-0.822,0.445c-0.146-0.732-0.393-1.441-2.557-1.441
				c-0.885,0-3.543,0-5.215,0c-1.674,0-2.404,0.092-2.709,0.781c0,0-0.338,1.389-0.338,3.012s0.877,2.287,2.197,2.287
				s2.371,0,3.545,0c1.176,0,5.047-0.705,5.014-2.934c1.217,0.004,4.732,0.072,6.945,0.152C52.287,33.333,52.942,33.24,52.879,32.32
				z M42.912,33.556c-0.18,1.014-2.742,1.549-3.875,1.67s-3.996,0.236-4.77-0.27c-0.775-0.506-0.539-1.877-0.453-2.951
				c0.088-1.072,0.691-1.311,1.416-1.373c0.725-0.059,4.822-0.166,6.014-0.184c0.893-0.012,1.371,0.305,1.668,0.783
				C43.213,31.708,43.092,32.542,42.912,33.556z"/>
			<path fill="#DE4415" d="M51.074,36.613c-0.725,0.029-2.24,0.207-4.807,0.447s-4.404,0.508-4.828,1.314l-9.127,0.039l-9.125-0.039
				c-0.425-0.807-2.264-1.074-4.83-1.314s-4.082-0.418-4.806-0.447c-0.728-0.031-1.624-0.217-1.568,1.191
				c0.055,1.414,0.173,2.373,1.752,2.555c1.58,0.188,4.395,0.35,6.07,0.475c1.677,0.129,3.992,0.422,3.805-0.309
				c1.619-0.07,0.656,0.543,1.921,0.58c1.04,0.025,5.314,0.008,6.781,0.002c1.467,0.006,5.742,0.023,6.781-0.002
				c1.266-0.037,0.303-0.65,1.922-0.58c-0.188,0.73,2.127,0.438,3.805,0.309c1.676-0.125,4.49-0.287,6.07-0.475
				c1.578-0.182,1.697-1.141,1.752-2.555C52.698,36.396,51.801,36.582,51.074,36.613z"/>
			<g>
				<path fill="#DE4415" d="M56.106,28.515c-0.338-0.547-0.84-1.092-1.408-1.605h-1.646c0.879,0.666,1.709,1.422,2.16,2.156
					c0.578,0.938,1.002,5.758,0.975,7.82c-0.012,1.104-0.113,2.83-0.211,4.498l-0.037,0.643c-0.043,0.746-0.08,0.752-0.426,0.795
					c-0.721,0.09-4.801,0.193-8.379,0.262c-0.236-0.01-0.48-0.016-0.719-0.016c-1.553,0-2.537,0.199-3.256,0.346
					c-0.104,0.02-0.195,0.039-0.281,0.055c-0.551,0.105-3.25,0.244-4.932,0.311l-5.633,0.031l-5.634-0.031
					c-1.681-0.066-4.38-0.205-4.931-0.311c-0.087-0.016-0.179-0.035-0.281-0.055c-0.718-0.146-1.702-0.346-3.257-0.346
					c-0.236,0-0.481,0.006-0.717,0.016c-3.579-0.068-7.658-0.172-8.38-0.262c-0.347-0.043-0.383-0.049-0.427-0.795L8.65,41.384
					c-0.097-1.668-0.197-3.395-0.21-4.498c-0.027-2.062,0.397-6.883,0.974-7.82c1.194-1.938,5.001-4.014,5.459-4.26h17.44l0,0
					h15.451v-1.439H32.313l0,0H15.619c1.16-2.381,3.467-5.572,5.217-6.736c0.343-0.229,0.812-0.248,0.874-0.252
					c4.53-0.334,10.505-0.338,10.563-0.338h0.039l0,0h0.039c0.043,0,3.16,0.002,6.594,0.129v-1.051
					c-3.434-0.127-6.551-0.129-6.594-0.129h-0.039l0,0h-0.039c-0.06,0-6.072,0.006-10.608,0.34c-0.081,0.002-0.805,0.023-1.41,0.428
					c-1.788,1.188-4.081,4.268-5.364,6.723c-0.01-0.805-0.791-0.811-1.168-0.814c-0.588-0.004-1.28,0-1.287,0
					c-0.65,0.018-1.881,0.34-1.881,1.43c0,1.432,1.573,1.432,2.09,1.432h0.596c-1.438,0.863-3.751,2.416-4.721,3.988
					c-0.849,1.381-1.15,6.84-1.13,8.385c0.013,1.125,0.114,2.861,0.212,4.545l0.149,2.793c0.056,1.5,0.746,2.199,2.172,2.199h5.639
					c0.802,0,1.43-0.252,1.865-0.75c0.052-0.059,0.102-0.125,0.157-0.205l0.04-0.062c0.033-0.053,0.063-0.105,0.1-0.176l0.023-0.045
					c0.034-0.07,0.065-0.143,0.093-0.213l0.009-0.027c0.023-0.064,0.043-0.127,0.061-0.189l0.019-0.066
					c0.013-0.053,0.024-0.104,0.035-0.154l0.011-0.057c0.012-0.064,0.022-0.129,0.029-0.191l0.005-0.039
					c0.005-0.049,0.009-0.096,0.013-0.141c0.063-0.002,0.127-0.002,0.189-0.002c1.45,0,2.374,0.186,3.062,0.326
					c0.099,0.02,0.191,0.039,0.279,0.055c0.844,0.162,5.054,0.328,5.103,0.328l5.589,0.033h0.069h0.07l5.588-0.033
					c0.049,0,4.26-0.166,5.102-0.328c0.088-0.016,0.182-0.035,0.279-0.055c0.689-0.141,1.613-0.326,3.062-0.326
					c0.064,0,0.127,0,0.191,0.002c0.002,0.045,0.008,0.092,0.012,0.141l0.004,0.039c0.008,0.062,0.018,0.127,0.029,0.191
					l0.012,0.057c0.01,0.051,0.021,0.102,0.035,0.154l0.018,0.066c0.018,0.062,0.039,0.125,0.061,0.189l0.01,0.027
					c0.027,0.07,0.059,0.143,0.094,0.213l0.021,0.045c0.037,0.07,0.068,0.123,0.102,0.176l0.039,0.062
					c0.057,0.08,0.105,0.146,0.156,0.205c0.436,0.498,1.064,0.75,1.865,0.75h5.639c1.428,0,2.117-0.699,2.174-2.199l0.148-2.793
					c0.098-1.684,0.199-3.42,0.213-4.545C57.256,35.355,56.955,29.896,56.106,28.515z"/>
			</g>
		</g>
	</g>
	<g>
		<rect x="0" y="-0.001" fill="none" width="68.354" height="51.928"/>
	</g>
</g>
</svg>
