<?xml version="1.0" encoding="utf-8"?>
<!-- Generator: Adobe Illustrator 16.0.0, SVG Export Plug-In . SVG Version: 6.00 Build 0)  -->
<!DOCTYPE svg PUBLIC "-//W3C//DTD SVG 1.1//EN" "http://www.w3.org/Graphics/SVG/1.1/DTD/svg11.dtd">
<svg version="1.1" id="Layer_1" xmlns="http://www.w3.org/2000/svg" xmlns:xlink="http://www.w3.org/1999/xlink" x="0px" y="0px"
	 width="89.5px" height="86.465px" viewBox="0 0 89.5 86.465" enable-background="new 0 0 89.5 86.465" xml:space="preserve">
<g>
	<g>
		<circle fill="#FFCC00" cx="44.75" cy="43.233" r="35.375"/>
		<rect fill="none" width="89.5" height="86.465"/>
	</g>
	<g>
		<path fill="#FFFFFF" d="M59.762,52.229c-0.795-2.647-2.262-4.713-3.557-6.535c-1.188-1.674-2.214-3.119-2.214-4.367v-9
			c0-4.745-6.056-7.333-9.167-7.333s-9.167,2.588-9.167,7.333v9c0,1.248-1.026,2.693-2.214,4.367
			c-1.294,1.822-2.761,3.888-3.556,6.535l-0.242,0.808l0.564,0.626c3.581,3.979,8.498,5.997,14.615,5.997
			c6.117,0,11.034-2.018,14.615-5.997l0.563-0.626L59.762,52.229z M44.824,27.993c2.166,0,6.167,1.787,6.167,4.333v9
			c0,2.205,1.345,4.099,2.771,6.105c1.009,1.422,2.146,3.023,2.85,4.853c-2.959,2.943-6.818,4.375-11.787,4.375
			c-4.969,0-8.829-1.432-11.787-4.375c0.704-1.829,1.841-3.432,2.852-4.855c1.423-2.004,2.768-3.897,2.768-6.103v-9
			C38.657,29.78,42.658,27.993,44.824,27.993z"/>
		<path fill="#FFFFFF" d="M39.96,60.904c0.304,1.973,2.354,3.504,4.864,3.504s4.561-1.531,4.864-3.504
			c-1.864,0.418-3.567,0.504-4.864,0.504C43.528,61.408,41.824,61.322,39.96,60.904z"/>
	</g>
</g>
</svg>
