<?xml version="1.0" encoding="utf-8"?>
<!-- Generator: Adobe Illustrator 16.0.0, SVG Export Plug-In . SVG Version: 6.00 Build 0)  -->
<!DOCTYPE svg PUBLIC "-//W3C//DTD SVG 1.1//EN" "http://www.w3.org/Graphics/SVG/1.1/DTD/svg11.dtd">
<svg version="1.1" id="Layer_1" xmlns="http://www.w3.org/2000/svg" xmlns:xlink="http://www.w3.org/1999/xlink" x="0px" y="0px"
	 width="68.354px" height="51.927px" viewBox="0 0 68.354 51.927" enable-background="new 0 0 68.354 51.927" xml:space="preserve">
<g>
	<g opacity="0.6">
		<path fill="#FFFFFF" d="M23.396,15.226c-0.416,0.87-1.266,1.411-2.219,1.411c-0.953,0-1.803-0.541-2.218-1.411l-0.22-0.463H6.549
			V47h12.199l0.176-0.57c0.322-1.041,1.264-1.74,2.342-1.74c1.079,0,2.019,0.699,2.341,1.74L23.783,47H54.5V14.763H23.616
			L23.396,15.226z M24.602,16.384H52.88V45.38H24.931c-0.671-1.404-2.078-2.312-3.666-2.312c-1.588,0-2.995,0.908-3.667,2.312H8.169
			V16.384h9.586c0.746,1.153,2.04,1.873,3.422,1.873C22.584,18.257,23.855,17.552,24.602,16.384z"/>
		<circle fill="#FFFFFF" cx="21.42" cy="38.929" r="1.404"/>
		<circle fill="#FFFFFF" cx="21.42" cy="33.331" r="1.405"/>
		<circle fill="#FFFFFF" cx="21.42" cy="27.733" r="1.403"/>
		<circle fill="#FFFFFF" cx="21.42" cy="22.136" r="1.404"/>
		<path fill="#FFFFFF" d="M27.65,10.375c-0.416,0.87-1.266,1.412-2.219,1.412c-0.953,0-1.803-0.542-2.218-1.412l-0.22-0.462H10.802
			v1.62h1.621h5.316h4.27c0.746,1.154,2.04,1.874,3.422,1.874c1.407,0,2.678-0.706,3.424-1.874h28.278v29.988h1.62V9.913H27.87
			L27.65,10.375z"/>
		<path fill="#FFFFFF" d="M31.921,4.929l-0.22,0.462c-0.416,0.87-1.266,1.412-2.218,1.412c-0.954,0-1.803-0.542-2.219-1.412
			l-0.22-0.462H14.853v1.62h1.621h5.316h4.27c0.746,1.153,2.04,1.874,3.423,1.874c1.407,0,2.677-0.706,3.424-1.874h28.278v29.988
			h1.62V4.929H31.921z"/>
	</g>
	<rect fill="none" width="68.353" height="51.927"/>
</g>
</svg>
