<?xml version="1.0" encoding="utf-8"?>
<!-- Generator: Adobe Illustrator 16.0.4, SVG Export Plug-In . SVG Version: 6.00 Build 0)  -->
<!DOCTYPE svg PUBLIC "-//W3C//DTD SVG 1.1//EN" "http://www.w3.org/Graphics/SVG/1.1/DTD/svg11.dtd">
<svg version="1.1" id="Layer_1" xmlns="http://www.w3.org/2000/svg" xmlns:xlink="http://www.w3.org/1999/xlink" x="0px" y="0px"
	 width="68.354px" height="51.926px" viewBox="0 0 68.354 51.926" enable-background="new 0 0 68.354 51.926" xml:space="preserve">
<g>
	<g>
		<rect x="0" y="-0.001" fill="none" width="68.354" height="51.928"/>
	</g>
</g>
<g>
	<polygon fill="#A7A7A7" points="32.743,19.735 31.098,14.948 29.452,19.735 24.391,19.821 28.436,22.864 26.952,27.706 
		31.098,24.799 35.243,27.706 33.759,22.864 37.805,19.821 	"/>
	<polygon fill="#A7A7A7" points="44.849,10.326 44.849,5.292 42.053,5.292 42.053,10.326 37.02,10.326 37.02,13.121 42.053,13.121 
		42.053,18.156 44.849,18.156 44.849,13.121 49.882,13.121 49.882,10.326 	"/>
	<path fill="#A7A7A7" d="M40.366,30.608c0.192-0.213,0.328-0.48,0.361-0.771l0.122-1.074c0.013-0.088,0.146-0.268,0.247-0.309
		l0.979-0.449c0.598-0.25,0.955-0.963,0.803-1.551l-0.215-1.111c-0.019-0.08,0.053-0.283,0.145-0.363l0.765-0.723
		c0.493-0.414,0.557-1.111,0.346-1.66h0.01l-0.026-0.045c-0.003-0.006-0.003-0.012-0.005-0.016l-0.551-1.02
		c-0.047-0.08-0.049-0.244-0.01-0.348h-0.008c0.006-0.023,0.006-0.043,0.014-0.066l0.545-0.938l0.07-0.169
		c0.041-0.125,0.09-0.295,0.098-0.493h-1.312c-0.005,0.021-0.009,0.033-0.02,0.067l-0.487,0.84
		c-0.065,0.083-0.121,0.183-0.146,0.318c-0.048,0.154-0.096,0.362-0.096,0.592c0,0.26,0.064,0.496,0.114,0.65l0.093,0.17
		c0.002,0.004,0.002,0.008,0.005,0.014l0.513,0.949c0.023,0.053,0.017,0.145-0.016,0.182l-0.764,0.721
		c-0.45,0.379-0.684,1.09-0.551,1.619l0.214,1.105c0,0.022-0.022,0.065-0.052,0.082l-0.979,0.446c-0.517,0.218-0.954,0.8-1.02,1.355
		l-0.123,1.071c-0.004,0.033-0.058,0.086-0.086,0.09l-1.079,0.123c-0.554,0.066-1.136,0.502-1.346,1l-0.425,0.943
		c-0.021,0.029-0.049,0.057-0.064,0.07l-0.078,0.055l-1.072-0.195l-0.291-0.012c-0.478,0-0.973,0.199-1.304,0.535l-0.725,0.768
		c-0.042,0.041-0.086,0.062-0.127,0.064c-0.02-0.002-0.058-0.014-0.112-0.029l-0.839-0.488c-0.084-0.065-0.184-0.12-0.32-0.146
		c-0.152-0.047-0.361-0.096-0.593-0.096c-0.257,0-0.494,0.067-0.648,0.114l-1.107,0.603c-0.042,0.015-0.09,0.029-0.109,0.031
		c-0.036,0-0.076-0.013-0.062,0.012l-0.802-0.854c-0.321-0.324-0.816-0.525-1.291-0.525l-1.319,0.211
		c-0.022-0.01-0.078-0.035-0.175-0.104l-0.433-0.953c-0.216-0.512-0.799-0.947-1.355-1.014l-1.073-0.123
		c-0.031-0.004-0.086-0.06-0.09-0.082l-0.123-1.168c-0.066-0.558-0.504-1.138-1-1.347l-1.007-0.457
		c-0.021-0.014-0.043-0.057-0.036-0.108l0.214-1.109c0.068-0.498-0.102-1.203-0.53-1.561l-0.818-0.771
		c-0.017-0.018-0.026-0.068-0.017-0.092l0.534-0.947c0.286-0.494,0.286-1.191,0.003-1.682l-0.512-0.907
		c-0.014-0.056-0.005-0.132,0.022-0.164l0.762-0.72c0.453-0.383,0.687-1.096,0.551-1.62l-0.214-1.106
		c0-0.021,0.023-0.064,0.062-0.086l0.926-0.441c0.513-0.215,0.949-0.799,1.016-1.355l0.122-1.071
		c0.004-0.031,0.058-0.086,0.086-0.09l1.079-0.122c0.556-0.066,1.138-0.505,1.347-1l0.459-1.01c0.014-0.031,0.063-0.061,0.108-0.061
		l1.074,0.195l0.29,0.013c0.474,0,0.968-0.199,1.305-0.534l0.724-0.77c0.042-0.041,0.089-0.065,0.124-0.065
		c0.019,0.003,0.06,0.015,0.121,0.035l0.916,0.517c0.256,0.132,0.529,0.194,0.835,0.194c0.256,0,0.621-0.041,0.859-0.207
		l0.897-0.508c0.042-0.014,0.09-0.028,0.109-0.031c0.038,0,0.079,0.012,0.062-0.013l0.805,0.86c0.32,0.32,0.815,0.521,1.291,0.521
		l0.324-0.05l0.442-0.064v-1.3l-0.188,0.035l-0.47,0.074h-0.108c-0.128,0-0.289-0.061-0.354-0.128l-0.723-0.767
		c-0.282-0.348-0.738-0.475-1.079-0.475c-0.218,0-0.402,0.059-0.585,0.12L31.124,8.94c-0.015,0.006-0.085,0.023-0.197,0.023
		c-0.117,0-0.181-0.02-0.217-0.037L29.756,8.39l-0.171-0.07c-0.131-0.04-0.312-0.1-0.526-0.1c-0.381,0-0.749,0.154-1.057,0.453
		L27.271,9.45c-0.077,0.076-0.24,0.139-0.368,0.139l-1.119-0.196l-0.246-0.012c-0.572,0-1.084,0.333-1.301,0.836l-0.462,1.015
		c-0.035,0.084-0.215,0.218-0.302,0.228l-1.079,0.123c-0.627,0.074-1.156,0.604-1.23,1.234l-0.122,1.073
		c-0.012,0.096-0.151,0.27-0.255,0.316l-0.925,0.439c-0.599,0.25-0.953,0.967-0.803,1.552l0.216,1.114
		c0.019,0.08-0.054,0.283-0.146,0.362l-0.764,0.722c-0.51,0.433-0.56,1.166-0.348,1.668l0.573,1.022
		c0.052,0.089,0.052,0.292-0.003,0.388l-0.534,0.947c-0.326,0.564-0.186,1.328,0.285,1.713l0.817,0.771
		c0.055,0.053,0.125,0.262,0.11,0.377l-0.199,1.036c-0.159,0.627,0.197,1.341,0.777,1.582l1.016,0.464
		c0.076,0.032,0.215,0.209,0.226,0.297l0.124,1.164c0.047,0.403,0.283,0.764,0.612,0.993l-3.769,12.517
		c-0.111,0.44-0.011,0.836,0.276,1.082c0.276,0.233,0.659,0.276,1.008,0.127l3.742-1.313c0.016-0.006,0.068-0.01,0.142,0.006
		c0.11,0.047,0.216,0.109,0.268,0.152l2.581,2.442c0.223,0.248,0.505,0.385,0.789,0.385c0.065,0,0.132-0.008,0.198-0.021
		c0.363-0.084,0.632-0.375,0.746-0.824l2.392-11.346l0.473-0.26c0.053-0.017,0.1-0.039,0.142-0.066
		c0.083-0.02,0.135-0.025,0.164-0.025c0.063,0,0.141,0.016,0.218,0.041l0.916,0.533l2.351,11.15
		c0.106,0.422,0.378,0.713,0.739,0.797c0.065,0.014,0.133,0.021,0.198,0.021c0.283,0,0.566-0.137,0.789-0.385l2.603-2.465
		c0.031-0.027,0.135-0.084,0.246-0.132c0.072-0.016,0.13-0.01,0.178,0.007l3.666,1.286c0.387,0.166,0.771,0.123,1.049-0.11
		c0.287-0.246,0.387-0.642,0.269-1.11L40.366,30.608z M26.637,44.573l-2.231-2.111c-0.022-0.023-0.053-0.051-0.12-0.111
		c-0.199-0.16-0.489-0.291-0.604-0.34l-0.078-0.025c-0.363-0.1-0.729-0.086-0.991,0.025l-3.132,1.103l3.607-11.98l0.429,0.052
		c0.097,0.012,0.272,0.151,0.312,0.244l0.456,1.002c0.083,0.18,0.188,0.282,0.296,0.391l0.082,0.072
		c0.35,0.25,0.642,0.367,0.919,0.367l1.262-0.207h0.106c0.128,0,0.288,0.062,0.354,0.127l0.724,0.768
		c0.198,0.248,0.484,0.377,0.758,0.436L26.637,44.573z M39.677,42.026c-0.301-0.127-0.666-0.141-1.029-0.041l-0.077,0.025
		c-0.114,0.049-0.403,0.18-0.652,0.383l-2.303,2.18l-2.168-10.285c0.155-0.074,0.306-0.174,0.441-0.307l0.735-0.779
		c0.077-0.076,0.238-0.137,0.366-0.137l1.12,0.192l0.243,0.015c0.405,0,0.784-0.174,1.027-0.463c0.077-0.08,0.18-0.197,0.273-0.371
		l0.461-1.017c0.032-0.075,0.209-0.217,0.303-0.229l0.737-0.082l3.609,12L39.677,42.026z"/>
</g>
</svg>
