<?xml version="1.0" encoding="utf-8"?>
<!-- Generator: Adobe Illustrator 16.0.0, SVG Export Plug-In . SVG Version: 6.00 Build 0)  -->
<!DOCTYPE svg PUBLIC "-//W3C//DTD SVG 1.1//EN" "http://www.w3.org/Graphics/SVG/1.1/DTD/svg11.dtd">
<svg version="1.1" id="Layer_1" xmlns="http://www.w3.org/2000/svg" xmlns:xlink="http://www.w3.org/1999/xlink" x="0px" y="0px"
	 width="68.354px" height="51.926px" viewBox="0 0 68.354 51.926" enable-background="new 0 0 68.354 51.926" xml:space="preserve">
<g opacity="0.6">
	<g>
		<path fill="#FFFFFF" d="M19.928,46.159h23.319V29.834H19.928V46.159z M24.698,31.5c1.464,0,2.65,1.188,2.65,2.65
			s-1.187,2.65-2.65,2.65c-1.463,0-2.65-1.188-2.65-2.65S23.236,31.5,24.698,31.5z M22.789,41.463l1.91,2.439l5.828-7.209
			l3.288,4.082l4.347-8.002l3.92,8.689v3.395H21.095L22.789,41.463z"/>
		<path fill="#FFFFFF" d="M38.304,12.977v2.693h2.694C40.998,14.182,39.791,12.977,38.304,12.977z"/>
		<path fill="#FFFFFF" d="M35.613,15.719H35.61c0.001,0.047,0.007,0.092,0.01,0.139c0.002,0.035,0.004,0.072,0.008,0.105
			c0.005,0.051,0.014,0.1,0.022,0.148c0.007,0.041,0.011,0.08,0.02,0.119c0.009,0.041,0.021,0.082,0.032,0.123
			c0.012,0.045,0.021,0.09,0.035,0.135c0.011,0.031,0.023,0.061,0.035,0.092c0.018,0.053,0.035,0.104,0.057,0.154
			c0.009,0.02,0.018,0.035,0.027,0.055c0.311,0.682,0.897,1.211,1.619,1.443l0.002,0.002c0.072,0.023,0.146,0.041,0.222,0.059
			c0.011,0.004,0.022,0.008,0.034,0.008c0.067,0.016,0.137,0.027,0.207,0.035c0.02,0.002,0.037,0.008,0.057,0.01
			c0.064,0.006,0.13,0.01,0.195,0.014c0.021,0,0.043,0.004,0.065,0.004v-0.002c0.016,0,0.031,0.002,0.047,0.002V15.67H35.61
			C35.61,15.688,35.612,15.701,35.613,15.719z"/>
		<path fill="#FFFFFF" d="M32.977,21.122h10.271V10.695H32.977V21.122z M38.304,11.391c2.362,0,4.279,1.916,4.279,4.279
			s-1.917,4.28-4.279,4.28c-2.364,0-4.28-1.917-4.28-4.28S35.94,11.391,38.304,11.391z"/>
		<polygon fill="#FFFFFF" points="37.876,11.889 38.174,12.68 38.423,12.68 38.718,11.889 38.718,12.68 38.946,12.68 38.946,11.549 
			38.606,11.549 38.297,12.354 37.99,11.549 37.649,11.549 37.649,12.68 37.876,12.68 		"/>
		<polygon fill="#FFFFFF" points="41.133,13.303 41.134,13.305 40.765,13.863 40.957,14.098 41.914,13.617 41.749,13.42 
			41.141,13.719 41.528,13.154 41.352,12.941 40.726,13.221 41.13,12.678 40.965,12.48 40.321,13.334 40.516,13.566 		"/>
		<path fill="#FFFFFF" d="M36.246,13.443c0.133-0.158,0.153-0.316,0.012-0.451c-0.09-0.088-0.23-0.115-0.362-0.033
			c0.026-0.064,0.016-0.133,0.001-0.168c-0.055-0.104-0.076-0.117-0.123-0.156c-0.152-0.129-0.312-0.02-0.426,0.117l-0.553,0.656
			l0.869,0.73L36.246,13.443z M35.137,13.309l0.332-0.393c0.037-0.047,0.125-0.045,0.181,0.002c0.062,0.051,0.062,0.125,0.021,0.172
			l-0.329,0.391L35.137,13.309z M35.838,13.189c0.039-0.047,0.127-0.061,0.188-0.01c0.064,0.057,0.072,0.141,0.025,0.195
			l-0.344,0.412l-0.217-0.182L35.838,13.189z"/>
		<path fill="#FFFFFF" d="M38.304,12.764c-1.603,0-2.905,1.305-2.905,2.906c0,1.604,1.303,2.906,2.905,2.906
			s2.905-1.303,2.905-2.906C41.209,14.068,39.906,12.764,38.304,12.764z M38.304,18.502c-1.562,0-2.833-1.27-2.833-2.832
			c0-1.561,1.271-2.832,2.833-2.832s2.831,1.271,2.831,2.832C41.135,17.232,39.865,18.502,38.304,18.502z"/>
		<path fill="#FFFFFF" d="M14.927,51.309h33.367V5.75H14.927V51.309z M16.852,7.674H46.37v41.709H16.852V7.674z"/>
		<polygon fill="#FFFFFF" points="20.061,2.541 21.985,2.541 51.503,2.541 51.503,44.25 51.503,46.174 53.427,46.174 53.427,0.617 
			20.061,0.617 		"/>
	</g>
	<g>
		<rect x="0" y="-0.001" fill="none" width="68.354" height="51.928"/>
	</g>
</g>
</svg>
