<?xml version="1.0" encoding="utf-8"?>
<!-- Generator: Adobe Illustrator 16.0.0, SVG Export Plug-In . SVG Version: 6.00 Build 0)  -->
<!DOCTYPE svg PUBLIC "-//W3C//DTD SVG 1.1//EN" "http://www.w3.org/Graphics/SVG/1.1/DTD/svg11.dtd">
<svg version="1.1" id="Layer_1" xmlns="http://www.w3.org/2000/svg" xmlns:xlink="http://www.w3.org/1999/xlink" x="0px" y="0px"
	 width="68.354px" height="51.926px" viewBox="0 0 68.354 51.926" enable-background="new 0 0 68.354 51.926" xml:space="preserve">
<g>
	<g>
		<g>
			<rect x="0" y="-0.001" fill="none" width="68.354" height="51.928"/>
		</g>
	</g>
	<g opacity="0.6">
		<polygon fill="#de4415" points="9.115,30.5 7.145,30.5 7.145,44.941 21.834,44.941 21.834,42.972 9.115,42.972 		"/>
		<polygon fill="#de4415" points="56.832,21.677 58.801,21.677 58.801,6.985 44.36,6.985 44.36,8.957 56.832,8.957 		"/>
		<polygon fill="#de4415" points="35.342,26.312 33.582,30.488 31.822,26.312 29.855,26.312 32.071,31.33 30.888,31.33 
			30.888,32.376 32.541,32.376 32.541,33.449 30.888,33.449 30.888,34.494 32.541,34.494 32.541,36.683 34.53,36.683 34.53,34.494 
			36.181,34.494 36.181,33.449 34.53,33.449 34.53,32.376 36.181,32.376 36.181,31.33 34.986,31.33 37.202,26.312 		"/>
		<path fill="#de4415" d="M43.391,38.128H14.613V24.343h36.763v13.344l1.969-1.867V24.343v-5.617v-6.199H12.643v27.571h33.072
			L43.391,38.128z M51.375,14.496v4.229H14.613v-4.229H51.375z"/>
		<polygon fill="#de4415" points="59.842,32.351 51.461,40.425 46.807,36.416 45.522,37.908 51.535,43.089 61.208,33.765 		"/>
	</g>
	<g>
		<rect x="0" y="-0.001" fill="none" width="68.354" height="51.928"/>
	</g>
</g>
</svg>
