<?xml version="1.0" encoding="utf-8"?>
<!-- Generator: Adobe Illustrator 16.0.0, SVG Export Plug-In . SVG Version: 6.00 Build 0)  -->
<!DOCTYPE svg PUBLIC "-//W3C//DTD SVG 1.1//EN" "http://www.w3.org/Graphics/SVG/1.1/DTD/svg11.dtd">
<svg version="1.1" id="Layer_1" xmlns="http://www.w3.org/2000/svg" xmlns:xlink="http://www.w3.org/1999/xlink" x="0px" y="0px"
	 width="68.354px" height="51.926px" viewBox="0 0 68.354 51.926" enable-background="new 0 0 68.354 51.926" xml:space="preserve">
<g>
	<rect x="0" fill="none" width="68.354" height="51.928"/>
	<g opacity="0.6">
		<path fill="#FFFFFF" d="M33.431,23.713c0.912,0,1.651,0.375,1.651,0.841c0,0.462-0.74,0.839-1.651,0.839
			c-0.915,0-1.655-0.377-1.655-0.839C31.776,24.089,32.516,23.713,33.431,23.713z"/>
		<path fill="#FFFFFF" d="M12.122,29.907c2.585-0.096,6.697-0.172,8.119-0.176c-0.036,2.603,4.49,3.426,5.864,3.426
			c1.372,0,2.6,0,4.144,0s2.569-0.775,2.569-2.671c0-1.898-0.395-3.521-0.395-3.521c-0.358-0.807-1.212-0.915-3.17-0.915
			c-1.955,0-5.061,0-6.094,0c-2.531,0-2.817,0.828-2.991,1.686c-0.186-0.354-0.516-0.406-0.96-0.521
			c-0.445-0.124-5.665-1.517-6.87-1.877c-1.207-0.357-3.505-1.11-3.859,0.102c-0.348,1.214-0.9,3.354,0.906,3.354
			C9.315,29.87,10.079,29.979,12.122,29.907z M21.037,27.522c0.349-0.558,0.91-0.93,1.951-0.913
			c1.394,0.021,6.186,0.145,7.031,0.217c0.848,0.069,1.553,0.349,1.655,1.603c0.102,1.252,0.378,2.857-0.528,3.45
			c-0.905,0.589-4.253,0.458-5.575,0.313c-1.326-0.142-4.322-0.765-4.534-1.95C20.828,29.056,20.687,28.081,21.037,27.522z"/>
		<path fill="#FFFFFF" d="M54.523,25.338c-1.206,0.36-6.424,1.753-6.87,1.877c-0.446,0.114-0.773,0.166-0.959,0.521
			c-0.173-0.858-0.462-1.683-2.992-1.683c-1.033,0-4.139,0-6.095,0c-1.957,0-2.811,0.104-3.168,0.911c0,0-0.393,1.623-0.393,3.521
			c0,1.896,1.024,2.675,2.567,2.675c1.544,0,2.774,0,4.143,0c1.375,0,5.9-0.827,5.865-3.43c1.42,0.004,5.531,0.083,8.118,0.176
			c2.044,0.076,2.807-0.037,2.736-1.109c1.806,0,1.256-2.144,0.904-3.357C58.028,24.23,55.73,24.981,54.523,25.338z M45.822,30.242
			c-0.211,1.186-3.205,1.809-4.528,1.95c-1.327,0.145-4.674,0.275-5.576-0.313c-0.908-0.593-0.631-2.198-0.532-3.45
			c0.104-1.254,0.808-1.533,1.657-1.603c0.846-0.072,5.637-0.199,7.03-0.22c1.043-0.014,1.604,0.358,1.949,0.916
			C46.173,28.081,46.031,29.056,45.822,30.242z"/>
		<path fill="#FFFFFF" d="M55.395,33.815c-0.846,0.035-2.619,0.241-5.619,0.521s-5.15,0.597-5.645,1.537L33.447,35.92l-10.685-0.048
			c-0.497-0.94-2.647-1.258-5.648-1.537c-3-0.279-4.772-0.485-5.618-0.521c-0.849-0.038-1.897-0.255-1.833,1.393
			c0.064,1.65,0.201,2.771,2.05,2.988c1.845,0.217,5.136,0.406,7.096,0.555c1.958,0.148,4.667,0.489,4.448-0.362
			c1.892-0.082,0.766,0.635,2.245,0.676c1.22,0.031,6.245,0.014,7.943,0.003c1.701,0.011,6.725,0.028,7.944-0.003
			c1.479-0.041,0.352-0.758,2.246-0.676c-0.22,0.852,2.487,0.511,4.447,0.362c1.957-0.148,5.248-0.338,7.098-0.555
			c1.845-0.218,1.983-1.338,2.049-2.988C57.292,33.56,56.244,33.777,55.395,33.815z"/>
		<path fill="#FFFFFF" d="M61.247,24.346c-1.135-1.838-3.84-3.653-5.518-4.661h0.695c0.604,0,2.442,0,2.442-1.675
			c0-1.275-1.439-1.651-2.197-1.671c-0.011,0-0.82-0.003-1.506,0c-0.441,0.005-1.354,0.014-1.366,0.955
			c-1.5-2.871-4.179-6.472-6.271-7.861c-0.71-0.472-1.555-0.498-1.647-0.5c-5.306-0.393-12.334-0.396-12.404-0.396h-0.045h-0.045
			c-0.072,0-7.101,0.003-12.404,0.396c-0.095,0.002-0.939,0.027-1.649,0.5c-2.091,1.389-4.771,4.99-6.271,7.861
			c-0.012-0.941-0.926-0.95-1.366-0.955c-0.688-0.003-1.498,0-1.506,0c-0.76,0.021-2.197,0.396-2.197,1.671
			c0,1.675,1.838,1.675,2.443,1.675h0.696c-1.68,1.008-4.385,2.823-5.518,4.661C4.62,25.96,4.268,32.343,4.292,34.15
			c0.016,1.316,0.134,3.346,0.248,5.313l0.175,3.264c0.065,1.755,0.871,2.571,2.539,2.571h6.592c2.843,0,2.871-2.653,2.874-2.709
			c0.074,0,0.149,0,0.221,0c1.696,0,2.777,0.217,3.582,0.379c0.116,0.024,0.223,0.049,0.327,0.065
			c0.985,0.189,5.907,0.383,5.965,0.387l6.534,0.037h0.083h0.081l6.533-0.037c0.056-0.004,4.98-0.197,5.966-0.387
			c0.104-0.017,0.212-0.041,0.327-0.065c0.803-0.162,1.885-0.379,3.579-0.379c0.074,0,0.148,0,0.223,0
			c0.003,0.056,0.03,2.709,2.874,2.709h6.593c1.668,0,2.475-0.816,2.54-2.571l0.172-3.264c0.114-1.968,0.234-3.997,0.248-5.313
			C62.591,32.343,62.24,25.96,61.247,24.346z M20.011,10.452c0.402-0.266,0.951-0.29,1.023-0.293
			c5.295-0.393,12.281-0.396,12.352-0.396h0.045h0.045c0.07,0,7.054,0.005,12.351,0.396c0.07,0.003,0.62,0.027,1.021,0.293
			c2.046,1.361,4.742,5.092,6.101,7.876H33.431H13.912C15.27,15.544,17.967,11.813,20.011,10.452z M61.34,34.132
			c-0.014,1.292-0.131,3.309-0.245,5.259l-0.045,0.752c-0.052,0.871-0.093,0.878-0.499,0.93c-0.841,0.107-5.61,0.228-9.795,0.304
			c-0.275-0.011-0.562-0.014-0.839-0.014c-1.818,0-2.967,0.234-3.807,0.399c-0.12,0.027-0.23,0.049-0.331,0.069
			c-0.643,0.124-3.798,0.282-5.762,0.361l-6.587,0.038l-6.588-0.038c-1.963-0.079-5.121-0.237-5.763-0.361
			c-0.103-0.021-0.21-0.042-0.33-0.069c-0.841-0.165-1.99-0.399-3.808-0.399c-0.276,0-0.562,0.003-0.838,0.014
			c-4.182-0.076-8.953-0.196-9.795-0.304c-0.406-0.052-0.449-0.059-0.5-0.93l-0.043-0.752c-0.114-1.95-0.231-3.967-0.246-5.259
			c-0.033-2.412,0.464-8.044,1.138-9.141c1.396-2.266,5.846-4.694,6.382-4.981h20.392h20.39c0.537,0.288,4.986,2.716,6.38,4.981
			C60.878,26.088,61.371,31.72,61.34,34.132z"/>
	</g>
</g>
</svg>
