<?xml version="1.0" encoding="utf-8"?>
<!-- Generator: Adobe Illustrator 16.0.0, SVG Export Plug-In . SVG Version: 6.00 Build 0)  -->
<!DOCTYPE svg PUBLIC "-//W3C//DTD SVG 1.1//EN" "http://www.w3.org/Graphics/SVG/1.1/DTD/svg11.dtd">
<svg version="1.1" id="Layer_1" xmlns="http://www.w3.org/2000/svg" xmlns:xlink="http://www.w3.org/1999/xlink" x="0px" y="0px"
	 width="316.176px" height="272.059px" viewBox="0 0 316.176 272.059" enable-background="new 0 0 316.176 272.059"
	 xml:space="preserve">
<g>
	<g>
		<g>
			<g>
				<g>
					<rect x="0" y="0" fill="none" width="316.176" height="272.059"/>
				</g>
			</g>
		</g>
	</g>
	<g>
		<g opacity="0.6">
			<path fill="#FFFFFF" d="M241.9,137.287c-3.29,0-6.497,0.674-9.535,2.004c-5.822,2.55-10.305,7.214-12.617,13.135
				c-2.315,5.921-2.187,12.389,0.364,18.211c3.792,8.661,12.354,14.257,21.812,14.257c3.29,0,6.497-0.674,9.533-2.003
				c5.823-2.55,10.305-7.215,12.619-13.135c2.314-5.921,2.185-12.388-0.364-18.211C259.919,142.883,251.358,137.287,241.9,137.287z
				 M260.098,168.202c-1.898,4.856-5.576,8.685-10.354,10.776c-2.493,1.093-5.126,1.646-7.821,1.646
				c-7.762,0-14.787-4.594-17.899-11.701c-2.093-4.778-2.199-10.085-0.301-14.943s5.577-8.687,10.354-10.778
				c2.494-1.092,5.126-1.645,7.823-1.645c7.762,0,14.787,4.592,17.9,11.7C261.892,158.035,261.998,163.342,260.098,168.202z"/>
			<path fill="#FFFFFF" d="M285.774,164.809l-0.205-9.353l9.46-7.645l-8.134-17.904l-11.987,2.015l-5.601-5.312l1.458-12.049
				l-18.308-7.178l-7.202,9.803l-8.391,0.165l-7.505-9.552l-18.012,7.888l1.849,12.016l-5.522,5.693l-12.039-1.561l-7.336,18.241
				l9.754,7.297l0.202,9.354l-9.458,7.644l8.132,17.901l11.988-2.012l5.6,5.313l-1.458,12.048l18.305,7.176l7.206-9.803l8.39-0.163
				l7.506,9.55l18.012-7.887l-1.851-12.017l5.523-5.692l12.039,1.562l7.337-18.242L285.774,164.809z M285.461,185.688l-10.885-1.41
				l-8.493,8.753l1.673,10.871l-11.977,5.243l-6.776-8.624l-12.623,0.246l-6.511,8.857l-12.174-4.771l1.32-10.9l-8.705-8.257
				l-10.852,1.823l-5.408-11.906l8.519-6.883l-0.295-13.529l-8.788-6.578l4.877-12.129l10.884,1.412l8.492-8.754l-1.671-10.871
				l11.976-5.244l6.776,8.623l12.628-0.246l6.508-8.857l12.172,4.773l-1.319,10.898l8.706,8.257l10.851-1.822l5.408,11.904
				l-8.521,6.887l0.298,13.526l8.788,6.575L285.461,185.688z"/>
		</g>
		<g opacity="0.6">
			<path fill="#FFFFFF" d="M47.229,158.897c-5.094-0.041-9.416,4.331-9.197,9.259c0.23,4.687,4.548,8.595,9.364,8.443
				c4.94-0.138,8.827-4.098,8.79-8.924C56.15,162.903,52.125,158.943,47.229,158.897z"/>
			<path fill="#FFFFFF" d="M59.022,106.873c-3.061-0.862-22.801-1.412-24.751,14.396c-1.952,15.805,14.594,14.997,14.594,14.997
				s9.485,0.74,16.347-11.435C72.073,112.658,62.083,107.737,59.022,106.873z"/>
			<path fill="#FFFFFF" d="M138.421,120.378c-0.709,0.003-1.417,0-2.126,0.006c-0.112,0.001-0.184-0.042-0.259-0.112
				c0,0,0,0.002,0.004,0.002c-0.787-0.885-2.087-1.467-3.563-1.467c-1.558,0-2.913,0.65-3.682,1.619
				c0.025-0.036,0.043-0.072,0.068-0.104c-0.078,0.028-0.154,0.083-0.231,0.083c-1.919,0.002-3.835,0.01-5.757,0.016
				c0.103,0.235,0.291,0.418,0.454,0.61c0.459,0.534,0.931,1.058,1.468,1.526c0.097,0.085,0.202,0.164,0.305,0.243
				c0.014,0.015,0.025,0.024,0.038,0.038c0.01-0.004,0.017,0.002,0.017,0.01c0.105,0.075,0.22,0.139,0.287,0.248
				c0,0.01,0.008,0.015,0.018,0.018c0.054,0.002,0.095,0.028,0.133,0.065c0.014,0,0.031,0,0.045,0.003
				c0.032-0.086,0.111-0.047,0.165-0.049c0.749,0,1.496,0,2.243,0c0.229,0,0.3,0.084,0.279,0.373
				c-0.051-0.201-0.178-0.201-0.32-0.209c-0.752-0.044-1.509-0.032-2.259-0.112c-0.031-0.003-0.054,0.008-0.07,0.032
				c0.364,0.352,0.816,0.6,1.23,0.893c0.227,0.161,0.464,0.223,0.745,0.207c0.404-0.016,0.813-0.002,1.22-0.006
				c0.097,0,0.176,0.017,0.252,0.088c0.027,0.027,0.057,0.043,0.084,0.068c0.796,0.719,1.959,1.188,3.269,1.188
				c1.391,0,2.614-0.523,3.411-1.322c0.173-0.045,0.356-0.053,0.554-0.037c0.224,0.02,0.449-0.013,0.672,0.008
				c0.332,0.029,0.605-0.059,0.869-0.242c0.387-0.275,0.789-0.532,1.187-0.796c0.032-0.022,0.068-0.028,0.116-0.044
				c-0.165-0.131-0.283-0.036-0.394-0.045c-0.613,0.034-1.228,0.077-1.841,0.098c-0.172,0.008-0.255,0.06-0.31,0.215
				c-0.061,0.162-0.138,0.342-0.39,0.27c0,0.004-0.003,0.004-0.005,0.006c0.122-0.191,0.221-0.393,0.296-0.6
				c0.03-0.014,0.06-0.037,0.099-0.037c0.717,0,1.432,0.006,2.15,0.006c0.355,0.06,0.609-0.105,0.863-0.312
				c0.846-0.693,1.635-1.434,2.333-2.26c0.051-0.062,0.133-0.113,0.114-0.211c-0.826,0.004-1.652,0.004-2.477,0.006
				C139.289,120.366,138.855,120.376,138.421,120.378z M128.127,122.43c0-0.314-0.231-0.287-0.464-0.294
				c-0.977-0.021-1.954-0.05-2.932-0.077c-0.034,0-0.075,0.009-0.09-0.06c0.068-0.004,0.136-0.012,0.201-0.012
				c1.022-0.002,2.045,0.002,3.067-0.007c0.143-0.003,0.206,0.039,0.233,0.115c-0.003,0.047-0.017,0.091-0.017,0.135
				c0,0.072,0.021,0.145,0.028,0.219C128.141,122.442,128.127,122.434,128.127,122.43z M128.428,121.002
				c-0.023,0.01-0.029,0.042-0.062,0.042c-0.319-0.01-0.634-0.022-0.953-0.03c-0.71-0.018-1.417-0.035-2.127-0.055
				c-0.024,0.016-0.052,0.043-0.073,0.037c-0.568-0.085-1.144-0.01-1.716-0.039c-0.019,0-0.04-0.014-0.058-0.021
				c-0.007-0.055,0.032-0.059,0.066-0.059c0.566,0,1.133,0,1.699,0c0.027,0,0.052,0.016,0.079,0.029
				c0.976-0.003,1.954-0.005,2.933-0.008c0.053,0,0.104-0.006,0.151,0.003c0.03,0.002,0.067-0.003,0.098,0.008
				C128.448,120.938,128.443,120.973,128.428,121.002z M132.477,125.341c-2.141,0-3.879-1.396-3.879-3.11
				c0-1.718,1.738-3.109,3.879-3.109c2.143,0,3.879,1.392,3.879,3.109C136.356,123.946,134.619,125.341,132.477,125.341z
				 M139.547,122.022c-0.783,0.03-1.564,0.062-2.347,0.086c-0.145,0.003-0.218,0.013-0.208,0.182
				c0.002,0.097,0.087,0.295-0.113,0.289c-0.05,0-0.071-0.012-0.093-0.025c0.014-0.109,0.041-0.213,0.041-0.322
				c0-0.023-0.008-0.044-0.008-0.068c0.013-0.146,0.064-0.195,0.331-0.195c0.798-0.002,1.598-0.006,2.396-0.006
				c0.272-0.018,0.549-0.028,0.819-0.004c0.005,0.023,0.005,0.03,0.005,0.035C140.098,121.999,139.823,122.044,139.547,122.022z
				 M141.694,120.847c-0.286,0.132-0.563,0.032-0.843,0C141.13,120.847,141.41,120.847,141.694,120.847z M140.754,120.921
				c-0.442,0.009-0.878,0.026-1.315,0.036c-0.865,0.018-1.727,0.036-2.591,0.049c-0.135,0.004-0.173,0.03-0.104,0.15
				c0.033,0.059,0.052,0.125,0.075,0.191c0.013,0.039,0.057,0.093-0.026,0.111c-0.066,0.016-0.091-0.023-0.108-0.072
				c-0.027-0.069-0.054-0.145-0.081-0.216c0.01,0.019,0.008,0.044,0.016,0.063c-0.018-0.046-0.035-0.094-0.054-0.137
				c0.006,0.016,0.024,0.031,0.032,0.051c-0.032-0.089-0.062-0.171-0.098-0.266c1.424,0,2.839,0,4.254,0
				C140.754,120.896,140.754,120.906,140.754,120.921z"/>
			<path fill="#FFFFFF" d="M131.037,121.399c-0.149,0.248-0.297,0.5-0.451,0.754c-0.024-0.021-0.031-0.025-0.037-0.03
				c-0.081-0.177-0.161-0.351-0.24-0.528c-0.154-0.336-0.154-0.33-0.532-0.32c-0.102,0.006-0.135,0.035-0.142,0.127
				c-0.031,0.406-0.077,0.807-0.113,1.207c-0.006,0.072-0.06,0.196,0.096,0.16c0.121-0.023,0.329,0.129,0.349-0.135
				c0.014-0.197,0.036-0.396,0.052-0.6c0.014-0.002,0.025-0.002,0.039-0.002c0.09,0.205,0.184,0.406,0.27,0.613
				c0.032,0.071,0.054,0.138,0.162,0.129c0.102-0.006,0.191,0.003,0.246-0.112c0.092-0.183,0.202-0.36,0.308-0.539
				c0.02-0.034,0.029-0.089,0.085-0.069c0.058,0.012,0.04,0.065,0.04,0.104c-0.007,0.15-0.015,0.301-0.027,0.451
				c-0.007,0.088-0.024,0.196,0.128,0.16c0.111-0.028,0.312,0.119,0.321-0.135c0.012-0.406,0.037-0.811,0.054-1.209
				c0.003-0.047,0.021-0.101-0.021-0.141C131.532,121.213,131.099,121.297,131.037,121.399z M131.143,122.033
				c-0.01-0.006-0.02-0.016-0.032-0.025c0.013-0.019,0.022-0.032,0.034-0.053c0.011,0.01,0.027,0.025,0.024,0.03
				C131.165,122.004,131.153,122.018,131.143,122.033z"/>
			<path fill="#FFFFFF" d="M134.263,121.272c-0.089-0.018-0.19-0.026-0.181,0.119c0.01,0.232,0,0.462,0,0.745
				c-0.26-0.287-0.485-0.524-0.698-0.776c-0.134-0.154-0.314-0.096-0.466-0.078c-0.108,0.014-0.047,0.151-0.052,0.233
				c-0.017,0.362-0.015,0.725-0.031,1.09c-0.007,0.132,0.026,0.195,0.173,0.167c0.113-0.02,0.298,0.088,0.28-0.156
				c-0.015-0.226-0.003-0.453-0.003-0.683c0.27,0.233,0.496,0.465,0.694,0.717c0.141,0.179,0.321,0.112,0.493,0.114
				c0.071,0.004,0.063-0.056,0.063-0.103c-0.004-0.425-0.014-0.851-0.019-1.274C134.515,121.181,134.356,121.289,134.263,121.272z"
				/>
			<path fill="#FFFFFF" d="M135.24,122.774c0.093-0.01,0.124-0.034,0.122-0.121c-0.006-0.206-0.002-0.413-0.002-0.619
				c-0.012,0-0.027,0-0.041,0c0-0.211,0-0.42,0-0.633c0-0.242-0.196-0.111-0.305-0.137c-0.12-0.029-0.159,0.025-0.157,0.145
				c0.02,0.355,0.02,0.712,0.027,1.066C134.895,122.804,134.895,122.8,135.24,122.774z"/>
			<path fill="#FFFFFF" d="M132.035,121.408c0.003,0.215,0,0.424,0,0.636c-0.014,0-0.032,0-0.046,0c0,0.195,0.01,0.394-0.006,0.589
				c-0.004,0.115,0.032,0.151,0.143,0.139c0.059-0.004,0.117-0.004,0.175,0c0.103,0.013,0.152-0.012,0.154-0.127
				c0.002-0.41,0.014-0.822,0.034-1.229c0.008-0.121-0.04-0.171-0.157-0.145C132.227,121.297,132.031,121.166,132.035,121.408z"/>
			<path fill="#FFFFFF" d="M132.671,119.344c-0.903,0-1.655,0.193-2.333,0.616c-1.847,1.149-1.865,3.341-0.043,4.457
				c1.434,0.878,3.551,0.694,4.788-0.412c1.241-1.108,1.247-2.748-0.004-3.8C134.37,119.606,133.519,119.356,132.671,119.344z
				 M134.657,124.1c-0.662,0.459-1.483,0.706-2.304,0.688c-0.838-0.013-1.604-0.226-2.253-0.743
				c-1.28-1.025-1.275-2.658-0.002-3.719c1.203-1.002,3.168-1.123,4.499-0.274C136.188,121.062,136.214,123.028,134.657,124.1z"/>
			<path fill="#FFFFFF" d="M104.19,162.196h56.703c0.66,0,1.197-0.537,1.197-1.197v-8.064c0-0.66-0.537-1.197-1.197-1.197H104.19
				c-0.661,0-1.196,0.537-1.196,1.197v8.064C102.993,161.658,103.529,162.196,104.19,162.196z"/>
		</g>
		<path opacity="0.6" fill="#FFFFFF" d="M178.825,188.418l-43.562,1.144H132.6h-0.119h-2.663l-77.519-2.035l-21.644-2.943
			c-2.4-0.578-2.676-4.645-3.071-13.787c-0.175-4.049-0.394-9.086-0.925-15.053l-0.514-5.666
			c-0.966-10.592-1.604-17.585-1.133-22.052c1.354-12.816,5.704-17.68,11.21-23.837c1.205-1.347,2.455-2.744,3.678-4.229l4.97-5.358
			h26.362c1.885,3.481,6.015,11.322,8.243,17.219c2.383,6.311,4.011,14.158,4.703,17.288c-11.635,3.37-21.626,12.629-21.626,26.954
			c0,14.706,24.191,14.341,29.513,14.341c4.107,0,76.842,0,80.949,0c1.173,0,3.265,0.018,5.811-0.112v-5.693
			c-3.04,0.095-6.128,0.054-8.917,0.054c-7.234,0-67.501,0-74.736,0c-10.643,0-25.643,0.626-25.643-8.162
			c0-2.44,0.374-4.646,0.988-6.671h110.219l0.576-1.57H71.048c0.518-1.325,1.167-2.548,1.903-3.688h109.717l0.575-1.568H74.041
			c1.313-1.691,2.846-3.146,4.493-4.394h106.322l2.529-6.886c-2.061-1.081-4.24-1.951-6.481-2.601
			c0.691-3.131,2.319-10.98,4.701-17.291c2.226-5.896,6.357-13.737,8.243-17.219h26.362l4.97,5.358
			c0.122,0.148,0.246,0.286,0.369,0.434l1.519-2.089l-0.34-0.367l2.252-4.179c0,0,4.258,1.015,8.024-0.412
			c2.424-0.919,6.591-2.339,7.318-6.892c0.961-6.032-4.64-8.847-11.079-9.304c-6.438-0.458-9.82,2.049-10.836,5.38
			c-1.088,3.568,1.226,7.523,1.226,7.523l-2.042,2.336v-0.3h-0.239l-2.809-3.516c-1.913-4.271-15.986-35.533-19.388-38.646
			c-2.644-3.967-7.251-5.312-15.943-6.066c-4.375-0.38-26.988-1.388-49.726-1.396v-8.096h-0.557V23.387H132.6h-0.119h-0.33v10.984
			h-0.558v8.096c-22.737,0.009-45.35,1.017-49.726,1.396c-8.691,0.754-13.299,2.099-15.942,6.066
			c-3.401,3.113-17.476,34.375-19.388,38.646l-2.809,3.516h-0.24v0.3l-2.041-2.336c0,0,2.312-3.955,1.225-7.523
			c-1.015-3.331-4.396-5.837-10.835-5.38c-6.438,0.457-12.041,3.272-11.078,9.304c0.726,4.553,4.894,5.973,7.317,6.892
			c3.767,1.427,8.023,0.412,8.023,0.412l2.254,4.179l-0.341,0.367c-1.249,1.514-2.478,2.886-3.662,4.21
			c-5.578,6.237-10.396,11.625-11.835,25.246c-0.498,4.709,0.113,11.422,1.13,22.543l0.511,5.665
			c0.529,5.908,0.745,10.914,0.918,14.935c0.297,6.872,0.526,11.35,2.054,13.866c0,18.457,0.594,20.666,5.343,20.666
			c6.441,0,16.386,0,18.991,0c2.604,0,4.866-1.525,5.649-4.643c1.111-4.422,1.187-8.456,1.492-10.597l71.18,1.876h2.697h0.119h2.697
			l43.528-1.147V188.418z M184.259,137.027H80.823c4.981-3.043,10.55-4.394,14.35-4.394c3.381,0,71.356,0,74.736,0
			C173.709,132.633,179.276,133.984,184.259,137.027z M88.061,94.602h88.96c-2.064,3.623-6.629,11.816-7.915,15.689
			c-1.381,4.163-4.649,14.012-5.768,17.371c-15.184,0-46.409,0-61.596,0c-1.115-3.359-4.386-13.208-5.768-17.371
			C94.689,106.418,90.125,98.225,88.061,94.602z M48.598,90.019l0.167-0.272c6.068-13.556,15.76-34.185,18.555-37.636h65.161h0.119
			h65.161c2.797,3.451,12.487,24.08,18.556,37.636l0.166,0.272l1.657,2.072H46.942L48.598,90.019z"/>
		<path opacity="0.6" fill="#FFFFFF" d="M178.825,173.774h-44.291h-3.989H73.942c0,0,0,6.021,2.797,7.16
			c2.795,1.138,9.694,2.117,13.61,2.44c3.155,0.263,29.927,0.631,40.196,0.763v0.052c0,0,0.73-0.011,1.993-0.028
			c1.266,0.018,1.996,0.028,1.996,0.028v-0.052c10.265-0.132,37.043-0.5,40.196-0.763c1.162-0.097,2.591-0.251,4.095-0.45V173.774z"
			/>
	</g>
</g>
</svg>
