<?xml version="1.0" encoding="utf-8"?>
<!-- Generator: Adobe Illustrator 16.0.0, SVG Export Plug-In . SVG Version: 6.00 Build 0)  -->
<!DOCTYPE svg PUBLIC "-//W3C//DTD SVG 1.1//EN" "http://www.w3.org/Graphics/SVG/1.1/DTD/svg11.dtd">
<svg version="1.1" id="Layer_1" xmlns="http://www.w3.org/2000/svg" xmlns:xlink="http://www.w3.org/1999/xlink" x="0px" y="0px"
	 width="316.176px" height="272.059px" viewBox="0 0 316.176 272.059" enable-background="new 0 0 316.176 272.059"
	 xml:space="preserve">
<g>
	<g>
		<rect fill="none" width="316.176" height="272.059"/>
	</g>
	<g opacity="0.6">
		<g>
			<ellipse fill="#FFFFFF" cx="144.705" cy="126.601" rx="6.737" ry="3.424"/>
			<path fill="#FFFFFF" d="M57.892,148.406c10.538-0.379,27.286-0.709,33.079-0.719c-0.148,10.607,18.289,13.967,23.888,13.967
				c5.586,0,10.597,0,16.884,0c6.289,0,10.461-3.16,10.461-10.891s-1.602-14.346-1.602-14.346
				c-1.459-3.287-4.938-3.717-12.911-3.717c-7.964,0-20.625,0-24.833,0c-10.306,0-11.48,3.367-12.182,6.863
				c-0.76-1.445-2.1-1.662-3.914-2.125c-1.812-0.498-23.076-6.176-27.982-7.633c-4.918-1.467-14.287-4.531-15.727,0.398
				c-1.42,4.951-3.667,13.672,3.693,13.672C46.456,148.259,49.564,148.707,57.892,148.406z M94.219,138.697
				c1.414-2.275,3.699-3.787,7.945-3.73c5.679,0.084,25.199,0.594,28.646,0.881c3.451,0.297,6.33,1.426,6.747,6.535
				c0.407,5.113,1.536,11.646-2.158,14.061c-3.684,2.4-17.327,1.857-22.718,1.275c-5.399-0.58-17.605-3.123-18.463-7.947
				C93.365,144.941,92.792,140.966,94.219,138.697z"/>
			<path fill="#FFFFFF" d="M148.813,136.417c0,0-1.602,6.615-1.602,14.346s4.172,10.891,10.461,10.891c4.54,0,8.414,0,12.32,0
				v-3.496c-6.064,0.199-13.42-0.049-15.978-1.715c-3.694-2.414-2.565-8.947-2.158-14.061c0.417-5.109,3.296-6.238,6.747-6.535
				c1.521-0.127,6.176-0.297,11.389-0.455v-2.691c-2.945,0-5.828,0-8.269,0C153.752,132.701,150.272,133.13,148.813,136.417z"/>
		</g>
		<path fill="#FFFFFF" d="M169.993,172.816l-22.896,0.1l-45.86-0.201c-2.02-3.842-10.777-5.117-23.003-6.26
			c-12.224-1.141-19.444-1.988-22.892-2.129c-3.462-0.145-7.732-1.035-7.47,5.68c0.263,6.73,0.826,11.295,8.348,12.166
			c7.524,0.887,20.932,1.662,28.914,2.26c7.982,0.613,19.015,2.006,18.121-1.475c7.713-0.334,3.123,2.59,9.148,2.764
			c6.008,0.156,34.682,0,34.682,0s12.647,0.068,22.908,0.068V172.816z"/>
		<path fill="#FFFFFF" d="M117.869,198.46c-8.005-0.32-20.864-0.977-23.483-1.479c-0.414-0.078-0.852-0.168-1.341-0.266
			c-3.423-0.691-8.109-1.639-15.513-1.639c-1.127,0-2.297,0.023-3.418,0.066c-17.043-0.318-36.477-0.814-39.91-1.244
			c-1.652-0.207-1.825-0.23-2.032-3.785l-0.178-3.062c-0.464-7.947-0.942-16.166-1.003-21.422
			c-0.129-9.828,1.893-32.783,4.641-37.254c5.687-9.227,23.817-19.117,25.998-20.284h130.943h35.32h9.941
			c-0.764-0.478-1.494-0.925-2.174-1.333h2.721c2.463,0,9.953,0,9.953-6.823c0-5.189-5.859-6.72-8.977-6.805
			c-0.002,0-3.311-0.021-6.111,0c-1.76,0.015-5.371,0.045-5.559,3.655c-6.137-11.65-16.977-26.173-25.42-31.799
			c-2.961-1.974-6.578-2.029-6.615-2.029h-0.025c-21.734-1.604-50.328-1.622-50.615-1.622h-0.491c-0.286,0-28.925,0.019-50.534,1.62
			c-0.383,0.006-3.83,0.107-6.718,2.029c-8.514,5.662-19.437,20.333-25.547,32.028c-0.046-3.836-3.77-3.868-5.565-3.883
			c-2.801-0.02-6.1,0.001-6.131,0c-3.098,0.085-8.957,1.615-8.957,6.805c0,6.823,7.491,6.823,9.953,6.823h2.836
			c-6.848,4.107-17.867,11.505-22.484,18.998c-4.043,6.576-5.479,32.576-5.383,39.936c0.062,5.361,0.545,13.633,1.012,21.652
			l0.709,13.303c0.267,7.143,3.555,10.471,10.346,10.471h26.861c3.818,0,6.808-1.203,8.883-3.572
			c0.246-0.281,0.482-0.592,0.744-0.977l0.193-0.301c0.158-0.248,0.304-0.5,0.477-0.832l0.109-0.213
			c0.165-0.338,0.314-0.678,0.441-1.016l0.045-0.133c0.109-0.303,0.205-0.602,0.288-0.898l0.085-0.316
			c0.064-0.25,0.119-0.494,0.169-0.738l0.054-0.264c0.057-0.314,0.104-0.621,0.14-0.914l0.019-0.186
			c0.025-0.234,0.047-0.461,0.062-0.678c0.304-0.002,0.606-0.004,0.905-0.004c6.906,0,11.309,0.891,14.587,1.553
			c0.47,0.096,0.911,0.184,1.329,0.264c4.018,0.768,24.07,1.557,24.307,1.564l26.619,0.152l25.619-0.143v-5l-24.874,0.143
			L117.869,198.46z M90.039,69.149c1.634-1.088,3.867-1.188,4.165-1.199c21.577-1.595,50.033-1.613,50.317-1.613h0.491
			c0.285,0,28.746,0.019,50.451,1.62c0.023,0,2.354,0.073,4.031,1.191c8.34,5.557,19.354,20.804,24.852,32.087H65.189
			C70.716,89.893,81.704,74.691,90.039,69.149z"/>
		<g>
			<path fill="#FFFFFF" d="M237.344,144.173c-3.242,0-6.402,0.664-9.395,1.975c-5.738,2.512-10.154,7.109-12.436,12.943
				c-2.28,5.834-2.152,12.209,0.36,17.945c3.737,8.535,12.173,14.051,21.493,14.051c3.242,0,6.404-0.664,9.396-1.975
				c5.738-2.514,10.154-7.109,12.435-12.943c2.281-5.836,2.154-12.207-0.358-17.945
				C255.102,149.687,246.667,144.173,237.344,144.173z M255.28,174.638c-1.871,4.785-5.496,8.559-10.204,10.619
				c-2.458,1.076-5.05,1.623-7.708,1.623c-7.648,0-14.571-4.527-17.639-11.531c-2.062-4.709-2.167-9.938-0.295-14.727
				c1.871-4.787,5.494-8.559,10.203-10.621c2.457-1.076,5.051-1.621,7.707-1.621c7.649,0,14.574,4.525,17.641,11.531
				C257.046,164.619,257.152,169.849,255.28,174.638z"/>
			<path fill="#FFFFFF" d="M280.581,171.294l-0.203-9.217l9.323-7.533l-8.015-17.644l-11.812,1.985l-5.52-5.236l1.438-11.873
				l-18.042-7.072l-7.099,9.659l-8.268,0.163l-7.396-9.412l-17.749,7.771l1.821,11.842l-5.442,5.61l-11.865-1.538l-7.229,17.975
				l9.612,7.191l0.2,9.219l-9.322,7.531l8.016,17.643l11.814-1.982l5.518,5.234l-1.438,11.873l18.039,7.072l7.101-9.66l8.269-0.16
				l7.395,9.41l17.75-7.771l-1.823-11.842l5.444-5.609l11.861,1.537l7.231-17.977L280.581,171.294z M280.272,191.869l-10.725-1.389
				l-8.369,8.625l1.646,10.713l-11.801,5.166l-6.678-8.498l-12.441,0.242l-6.416,8.729l-11.994-4.701l1.299-10.74l-8.577-8.137
				l-10.694,1.795l-5.33-11.732l8.396-6.783l-0.291-13.332l-8.661-6.482l4.807-11.951l10.726,1.391l8.368-8.627l-1.646-10.712
				l11.802-5.168l6.678,8.498l12.443-0.243l6.413-8.729l11.995,4.703l-1.3,10.74l8.579,8.137l10.692-1.795l5.33,11.73l-8.397,6.787
				l0.293,13.33l8.66,6.479L280.272,191.869z"/>
		</g>
	</g>
</g>
</svg>
