<?xml version="1.0" encoding="utf-8"?>
<!-- Generator: Adobe Illustrator 16.0.0, SVG Export Plug-In . SVG Version: 6.00 Build 0)  -->
<!DOCTYPE svg PUBLIC "-//W3C//DTD SVG 1.1//EN" "http://www.w3.org/Graphics/SVG/1.1/DTD/svg11.dtd">
<svg version="1.1" id="Layer_1" xmlns="http://www.w3.org/2000/svg" xmlns:xlink="http://www.w3.org/1999/xlink" x="0px" y="0px"
	 width="316.176px" height="272.059px" viewBox="0 0 316.176 272.059" enable-background="new 0 0 316.176 272.059"
	 xml:space="preserve">
<g>
	<g>
		<g>
			<g>
				<g>
					<g>
						<g>
							<g>
								<g>
									<rect x="0" y="0" fill="none" width="316.176" height="272.059"/>
								</g>
							</g>
						</g>
					</g>
				</g>
			</g>
		</g>
	</g>
	<g opacity="0.6">
		<g>
			<path fill="#FFFFFF" d="M251.943,176.477c-3.325,0-6.564,0.681-9.635,2.024c-5.885,2.577-10.414,7.291-12.753,13.274
				s-2.208,12.521,0.369,18.404c3.832,8.753,12.484,14.408,22.043,14.408c3.324,0,6.566-0.681,9.634-2.024
				c5.886-2.578,10.414-7.292,12.754-13.274c2.338-5.983,2.208-12.52-0.368-18.403C270.155,182.132,261.502,176.477,251.943,176.477
				z M270.335,207.72c-1.919,4.907-5.636,8.775-10.464,10.89c-2.521,1.104-5.181,1.664-7.904,1.664
				c-7.845,0-14.944-4.643-18.091-11.825c-2.113-4.829-2.222-10.191-0.302-15.102c1.918-4.91,5.636-8.778,10.464-10.893
				c2.52-1.104,5.18-1.663,7.904-1.663c7.845,0,14.945,4.642,18.091,11.825C272.148,197.444,272.255,202.808,270.335,207.72z"/>
			<path fill="#FFFFFF" d="M296.282,204.289l-0.208-9.451l9.562-7.726l-8.22-18.093l-12.115,2.034l-5.66-5.369l1.474-12.177
				l-18.501-7.253l-7.28,9.906l-8.479,0.167l-7.585-9.652l-18.202,7.972l1.868,12.142l-5.581,5.755l-12.168-1.578l-7.413,18.435
				l9.856,7.375l0.205,9.454l-9.559,7.724l8.219,18.092l12.116-2.033l5.659,5.37l-1.475,12.176l18.499,7.251l7.282-9.906
				l8.479-0.165l7.584,9.651l18.204-7.97l-1.87-12.144l5.582-5.754l12.166,1.578l7.415-18.437L296.282,204.289z M295.966,225.391
				l-10.999-1.426l-8.583,8.846l1.689,10.985l-12.103,5.299l-6.849-8.714l-12.758,0.248l-6.58,8.951l-12.302-4.821l1.333-11.016
				l-8.796-8.344l-10.968,1.842l-5.466-12.032l8.61-6.956l-0.298-13.673l-8.883-6.648l4.929-12.257l11,1.428l8.582-8.849
				l-1.688-10.984l12.104-5.3l6.849,8.715l12.761-0.251l6.576-8.951l12.301,4.823l-1.332,11.016l8.798,8.345l10.965-1.842
				l5.468,12.031l-8.612,6.959l0.3,13.671l8.882,6.645L295.966,225.391z"/>
		</g>
		<g>
			<polygon fill="#FFFFFF" points="206.759,163.975 214.051,156.459 213.678,154.04 195.484,162.512 			"/>
			<path fill="#FFFFFF" d="M187.132,171.201c-1.62,0.942-3.417,2.604-4.286,5.523l-5.545-0.178c0,0-4.469-2.475-6.437,0
				c-1.337,1.685-1.184,2.944-0.951,3.586c-0.059,0.138-0.166,0.301-0.335,0.475l-4.896-0.043c0.074-0.091,0.157-0.178,0.209-0.281
				c0.422-0.825,0.068-1.736-0.057-2.006l1.001-2.635l9.819-8.841c0.33,0.058,0.745,0.112,1.23,0.112
				c0.994,0,2.22-0.216,3.295-1.036l7.914,2.931l0.894-2.224l-7.442-2.722l-1.983,1.787l0.156,0.056
				c-1.304,0.867-2.766,0.891-3.698,0.77l2.667-2.404c0.886-0.278,1.783-0.79,2.512-1.782l-0.294-0.215l4.323-3.893l5.451,4.196
				l0.188-0.465l2.759,0.358l-6.803-5.382l-0.417,0.232l16.271-14.649l-5.816,7.344l7.775,7.42l8.894-4.162l-0.336-2.185
				l-1.288,0.604c0.325-0.68,0.691-1.334,1.077-1.977l-1.373-8.92l23.776-10.411l7.868,10.014c0.79,0.372,1.558,0.785,2.299,1.237
				l-0.546,0.994l0.252,0.321l0.616-1.12c0.555,0.351,1.091,0.727,1.615,1.118l8.878-0.174l4.985-6.784
				c-6.972-7.804-17.101-12.729-28.363-12.729c-6.998,0-13.538,1.931-19.179,5.245l-0.229-0.919l-0.449-1.797l-0.587,0.065
				l5.186-4.87l13.691-4.007l7.535,0.146c0.648,1.14,1.857,2.711,4.001,3.972c0.935,0.547,1.839,0.826,2.683,0.826
				c2.357,0,3.653-1.987,3.858-3.833l0.025-0.215l-0.023-0.219l-0.134-1.431l6.62-0.116c2.39,9.776,7.746,13.872,9.111,14.781
				l0.775-1.054l3.926,1.538h2.188l-2.368-3.347c-5.761-8.135-5.422-9.384-4.608-12.406c0.106-0.397,0.23-0.85,0.346-1.334
				c1.329-5.539-1.443-8.042-1.763-8.307l-0.512-0.425l-0.659-0.058l-17.078-1.524c-0.148-0.459-0.341-0.977-0.579-1.568
				c-2.21-5.531-6.426-5.959-7.668-5.959c-0.257,0-0.468,0.016-0.618,0.031h-26.899h-1.878l-0.226,1.865
				c-0.018,0.13-0.033,0.262-0.052,0.397c-0.818-0.214-1.828-0.339-3.077-0.339c-0.527,0-0.888,0.023-0.927,0.028l-0.266,0.018
				l-0.254,0.085c-12.354,4.117-21.536,6.12-28.063,6.12c-5.761,0-8.995-1.481-12.077-3.707c-6.448-4.658-14.325-8.353-14.656-8.509
				l-0.172-0.078l-0.18-0.05c-10.91-2.895-20.458-4.365-28.383-4.365c-8.716,0-14.052,1.779-17.201,3.551
				c-1.329-3.161-4.438-4.672-6.352-5.324l-6.264-1.833l-1.496-1.415l-0.24-0.227l-0.837-8.542c0,0,2.792,0.34,7.951-2.297
				c2.487-1.273,3.005-4.24,3.005-4.24l4.946-2.828c1.162-2.322-1.53-4.17-3.003-3.357l-4.418,2.827c0,0-4.851-0.195-4.594-3.356
				c0.656-8.084,3.256-13.662,3.256-13.662c0.021,0,1.905,0.234,1.925,0.234c4.831,0,5.068-2.651,5.068-2.651
				s1.897-11.069-0.892-11.069c-0.156,0-0.329,0.046-0.521,0.114c-6.909,2.487-8.306,17.846-8.306,17.846l-2.298,10.955
				l-2.826,2.118c-0.348-0.044-0.68-0.065-0.994-0.065c-3.36,0-3.758,1.247-4.837,2.363c-1.081,1.117-1.192,6.91,4.416,6.714
				c0.396,2.361,0.975,6.489,1.253,8.519l-0.521,0.282l-7.296,1.748l-0.061-0.089c0,0-1.312-5.192-5.881-6.937
				c-2.51-0.958-6.395-0.947-9.434,2.458c-2.098,2.355-2.922,5.617-2.455,9.696c0.114,0.989,0.306,2.162,0.633,3.344
				c-0.901-0.159-1.725-0.228-2.413-0.228h-3.18h-1.335l-0.577,1.199c-2.208,4.587-2.42,9.884-1.968,14.394l-0.001,0.01l0.006,0.028
				c0.561,5.534,2.119,9.871,2.237,10.191l0.206,0.561l0.305,0.828h1.479h3.358h1.31l0.32-0.644c0.282,0.76,0.678,1.394,1.068,1.896
				l-5.809,10.914c-2.662-0.37-5.416-0.557-8.208-0.557c-12.967,0-22.812,3.926-23.226,4.093l-4.566,1.848l4.481,2.048l2.313,1.056
				c-10.121,6.46-16.864,17.761-16.864,30.632c0,20.04,16.306,36.347,36.349,36.347c18.563,0,33.896-14.001,36.058-31.99
				c0.801,6.484,13.131,12.804,19.028,13.673c12.679,1.871,34.032,1.704,69.954-5.106l0.691,0.622l1.836,0.505
				c0,0,0.499-0.083,1.306-0.106c1.003,0.179,2.098,0.302,3.33,0.296c0.272,0.05,0.545,0.081,0.817,0.146
				c0.696,0.168,1.355,0.249,1.964,0.255L187.132,171.201z M179.661,163.196l1.113-1.002
				C180.434,162.622,180.056,162.942,179.661,163.196z M203.577,139.92v1.233l-18.652,16.795l-6.433,5.792
				c-1.727,0.515-3.388,0.009-3.411,0l-0.119,0.359c0.016,0.006,0.831,0.267,1.924,0.267c0.314,0,0.652-0.024,1.002-0.083
				l-2.349,2.116c-0.265-0.058-0.451-0.108-0.458-0.111l-0.119,0.358c0.006,0.002,0.1,0.028,0.233,0.062l-9.066,8.163l9.126-24.017
				l0.055-0.139c2.382,0.006,4.411-1.002,5.061-2.548c0.503-1.201,7.998-4.211,12.957-5.956c0.23,0.045,0.958,0.172,1.919,0.189
				c2.171,0.036,5.059-0.487,6.477-3.209c0.423-0.812,0.479-1.485,0.173-2.005c-0.194-0.327-0.542-0.574-1.018-0.753l0.576-0.05
				l6.892-8.126l3.181-0.353l0.529,2.118L203.577,139.92z M107.254,102.629c2.387,0,4.32,1.34,4.32,2.992
				c0,1.65-1.934,2.99-4.32,2.99c-2.386,0-4.32-1.34-4.32-2.99C102.934,103.969,104.868,102.629,107.254,102.629z M25.469,137.272
				c0,0,9.729-3.939,22.431-3.939c2.988,0,6.144,0.219,9.374,0.757l7.244-13.607c0,0-1.941-1.412-1.941-3.707h-3.006l-0.16,0.321
				c-2.035-4.954-1.526-17.997-0.723-22.587c0,0,7.771-0.106,10.262,2.635c3.371,3.708,2.989,8.5,2.989,8.5s1.414-6.671-1.909-9.164
				c-3.396-2.547-4.12-2.692-7.478-3.905c-2.077-9.259,6.688-13.759,10.054-12.63c4.328,1.452,7.108,10.148,7.108,10.148
				l0.592,0.112l-0.887-3.28l7.187-2.663l3.179,3.004l2.476,0.705c0,0,7.417,0.709,8.304,5.302c0.065,0.349,0.158,1.102,0.215,1.555
				c0,0-3.495,3.23-5.338,11.114c-3.393,1.838-8.679,10.704-8.48,12.897c0.199,2.197,15.019,14.312,15.019,14.312
				s18.405-0.146,24.729-2.535c0,0-4.83-3.563-7.645-9.8c-2.351-5.211-1.207-8.505,0.54-10.534
				c4.507-5.246,10.665-5.789,15.522-5.915c15.943-0.414,22.545,7.116,22.927,7.493c1.599,1.576,3.148,3.288,4.639,5.004h6.023
				l0.038,0.129c0.009,0.016,0.896,2.015,11.615,6.182c7.396-0.533,19.274-1.722,19.793-2.666c0.771-1.41,9.116-7.424,9.472-7.681
				l0.075-0.03l32.273-6.312c0.086-0.097,1.626-1.219,1.67-0.738l18.583,1.658c0,0,2.121,1.767,1.062,6.182
				c-1.062,4.42-2.473,5.483,4.593,15.463h-1.412c0,0-5.827-3.489-8.483-13.871c-0.28-1.095-0.883-1.412-0.883-1.412l-10.072,0.176
				l0.356,3.71c0,0-0.218,1.948-1.753,1.948c-0.425,0-0.953-0.151-1.606-0.532c-3.002-1.769-3.709-4.244-3.709-4.244l-9.189-0.175
				l-14.488,4.239l-17.493,16.434l0.117,0.818c-0.16-0.01-0.299-0.033-0.473-0.036c-2.041-0.036-4.302,0.438-4.38,0.457
				l-14.63,2.033c-5.328-2.274-11.349-6.048-11.376-6.151c-0.059-0.251-0.29-0.367-1.482-0.387
				c-0.651-0.013-1.486,0.011-2.298,0.046c3.133-1.033,4.869-4.065,4.628-4.352c-0.071-0.083-10.008-13.37-15.43-17.197
				c-5.422-3.829-12.742-5.166-20.798-4.249c-8.056,0.918-11.57,4.698-12.003,5.203c-6.328,7.356,7.398,18.199,7.406,18.199
				c0.041-0.013,32.912,3.48,32.912,3.48s0.12-0.039,0.295-0.097c0.031-0.009,0.061-0.021,0.097-0.034l9.347,11.321
				c-0.002,0.034,0,0.114-0.002,0.164c-0.159,0.006-0.322,0.041-0.489,0.135c-0.335,0.183-7.49,2.766-14.912,4.814
				c-0.532-2.102-2.402-3.661-4.648-3.661c-2.271,0-4.165,1.594-4.672,3.731l-4.005,0.953c0,0-0.488-0.061-0.536-0.12l-0.085-0.105
				l-18.803,6.82c-1.816-3.313-4.227-5.86-9.113-5.86c-4.741,0-12.57,2.298-17.083,4.922c-0.681-1.184-2.552-4.026-4.915-4.029
				c-0.861,0-1.791,0.387-2.747,1.381c-0.956,0.995-1.714,1.38-2.313,1.38c-2.069,0-2.282-4.561-2.282-4.561l0.948-7.056
				l-3.949-1.073l-2.829-7.948c0,0-0.587,0.587-1.204,0.587c-0.506,0-1.031-0.393-1.268-1.826l1.412-5.3c0,0,0-1.415-4.771-2.474
				l-2,2.308l1.369-3.467l11.132-22.44l1.274-2.838c0.18-0.059,0.309-0.153,0.372-0.282c0.301-0.624-0.917-1.839-2.722-2.717
				c-1.807-0.875-3.516-1.08-3.817-0.457c-0.021,0.041-0.033,0.085-0.042,0.13c-0.005-0.009-0.01-0.014-0.016-0.018l-11.659,25.263
				l-3.447,6.98l-3.868,9.517c0,0-5.654-0.81-10.072-0.987c-3.118-0.124-1.799,2.23-0.755,3.631
				c-0.665-0.023-1.352-0.037-2.069-0.037c-3.614,0-7.889,0.316-12.904,1.137L25.469,137.272z M62.774,171.502
				c-0.034-0.438-0.092-0.872-0.16-1.301l2.078,0.597l-1.455,0.914L62.774,171.502z M62.855,171.95l-0.058,0.037
				c-0.001-0.021-0.002-0.042-0.004-0.062L62.855,171.95z M62.551,169.791c-0.003-0.013-0.004-0.028-0.009-0.044l5.767-4.171
				c0.23,0.855,0.41,1.727,0.539,2.62l-3.728,2.335L62.551,169.791z M62.462,169.34c-0.611-2.811-1.965-5.34-3.838-7.391l0.27-0.563
				l7.282-1.021c0.855,1.507,1.541,3.121,2.031,4.819L62.462,169.34z M60.198,181.556l1.226,1.828l-2.334-0.329
				C59.489,182.579,59.857,182.077,60.198,181.556z M57.854,161.151c-0.333-0.318-0.675-0.624-1.033-0.913l2.567-0.747l-0.745,1.551
				L57.854,161.151z M58.447,161.448l-0.096,0.2c-0.051-0.055-0.097-0.111-0.148-0.167L58.447,161.448z M58.343,153.506l0.241-0.608
				h0.676c0.838,0.575,1.648,1.188,2.4,1.864l-2.054,4.274l-3.163,0.919c-0.105-0.08-0.209-0.158-0.314-0.236l2.451-6.117
				L58.343,153.506z M59.09,160.978l0.783-1.627l3.543-1.031l-0.106-0.361l-3.218,0.935l1.859-3.865
				c1.562,1.459,2.914,3.136,4.011,4.987L59.09,160.978z M54.698,151.132l-2.958,6.354c-0.472-0.156-0.964-0.257-1.453-0.368
				l1.761-3.335l2.05-3.398C54.253,150.629,54.447,150.878,54.698,151.132z M40.282,156.217l-0.593-4.116l0.964,0.382l1.341,4.55
				L40.282,156.217z M41.874,157.391c-0.462,0.14-0.911,0.309-1.353,0.486l-0.175-1.214L41.874,157.391z M34.82,161.843
				l-1.059,0.177l-4.495-4.787c1.285-1.574,2.788-2.961,4.449-4.138l-0.16,0.339l6.384,3.033l0.225,1.564
				C38.123,158.922,36.314,160.233,34.82,161.843z M36.145,184.958l-1.28,0.961l0.178-2.001
				C35.393,184.282,35.761,184.628,36.145,184.958z M34.409,162.292c-0.062,0.072-0.132,0.14-0.192,0.213l-0.147-0.155
				L34.409,162.292z M33.622,162.425l0.359,0.384c-0.275,0.352-0.543,0.709-0.79,1.08l-1.443-1.149L33.622,162.425z M31.354,162.425
				l-3.688-2.942c0.424-0.672,0.877-1.321,1.368-1.942l4.278,4.555L31.354,162.425z M39.286,151.94l0.588,4.082l-6.157-2.93
				c1.633-1.154,3.424-2.088,5.334-2.777l0.174,1.194l-0.735-0.29l-0.14,0.35L39.286,151.94z M39.413,150.182
				c0.171-0.06,0.335-0.132,0.506-0.188l0.598,2.028l-0.89-0.354L39.413,150.182z M41.098,152.658l3.621,1.438l-0.987,2.883
				c-0.431,0.084-0.864,0.151-1.282,0.264L41.098,152.658z M40.961,152.199l-0.679-2.303c2.022-0.6,4.156-0.936,6.37-0.936
				c0.182,0,0.356,0.021,0.536,0.027c-0.558,0.47-0.973,0.731-0.973,0.731l-1.375,4.017L40.961,152.199z M27.467,159.81l3.388,2.7
				l-5.142,0.864C26.195,162.129,26.782,160.94,27.467,159.81z M25.565,163.78l5.685-0.956l1.647,1.315l-8.021,1.905
				C25.066,165.273,25.297,164.517,25.565,163.78z M24.77,166.457l8.019-1.903c-1.361,2.279-2.172,4.918-2.255,7.74l-0.312,0.197
				l-5.921-3.056C24.389,168.42,24.549,167.429,24.77,166.457z M30.6,174.437l-1.901-0.548l1.539-0.964l0.289,0.148
				C30.534,173.531,30.552,173.988,30.6,174.437z M24.2,171.414c0-0.53,0.042-1.047,0.078-1.565l5.572,2.874l-1.639,1.024
				l-3.951-1.138C24.24,172.211,24.2,171.819,24.2,171.414z M24.28,173.01l3.502,1.008l-3.115,1.953
				C24.468,175.004,24.353,174.013,24.28,173.01z M24.765,176.353l3.503-2.194l2.395,0.688c0.03,0.234,0.064,0.466,0.104,0.694
				l-5.127,3.709C25.287,178.31,24.989,177.347,24.765,176.353z M25.773,179.615l5.06-3.66c0.569,2.81,1.883,5.344,3.71,7.415
				l-4.888,2.669C28.022,184.145,26.706,181.979,25.773,179.615z M34.125,190.037c-0.711-0.481-1.384-1.012-2.034-1.566l2.324-1.743
				L34.125,190.037z M31.807,188.211c-0.669-0.59-1.299-1.222-1.892-1.886l4.763-2.599l-0.218,2.496L31.807,188.211z
				 M34.485,190.254l0.336-3.832l1.616-1.209c0.342,0.277,0.697,0.542,1.062,0.793l-0.117,5.572l0.376,0.008l0.113-5.341
				c2.341,1.52,5.098,2.436,8.06,2.555l-1.512,4.952C40.78,193.392,37.405,192.148,34.485,190.254z M44.806,193.774l1.512-4.952
				c0.09,0,0.18,0.012,0.271,0.012c0.028,0,0.057-0.003,0.085-0.003c0.03,0,0.058,0.003,0.087,0.003
				c0.086,0,0.169-0.009,0.254-0.012l0.17,0.204l-0.743,4.831C45.891,193.851,45.347,193.818,44.806,193.774z M46.823,193.858
				l0.682-4.439l3.321,4.044C49.527,193.707,48.191,193.849,46.823,193.858z M51.252,193.389l-3.671-4.47l0.021-0.127
				c0.882-0.045,1.75-0.153,2.589-0.334l3.876,4.123C53.152,192.903,52.218,193.186,51.252,193.389z M54.452,192.442l-3.845-4.093
				c3.082-0.762,5.811-2.407,7.908-4.661l2.415,5.04C59.014,190.311,56.822,191.559,54.452,192.442z M61.221,188.463l-2.43-5.071
				l2.912,0.41l1.69,2.521C62.716,187.084,61.995,187.804,61.221,188.463z M63.655,186.037l-1.45-2.165l2.826,0.399
				C64.601,184.885,64.141,185.472,63.655,186.037z M65.284,183.93l-3.362-0.477l-1.508-2.25c0.134-0.216,0.272-0.428,0.397-0.652
				l6.113,0.45C66.443,182.019,65.907,183.005,65.284,183.93z M67.101,180.638l-6.097-0.45c1.164-2.226,1.833-4.75,1.833-7.429
				c0-0.114-0.016-0.229-0.018-0.344l0.444-0.276l5.58,2.519C68.539,176.758,67.949,178.765,67.101,180.638z M68.904,174.27
				l-5.257-2.373l1.53-0.958l3.543,1.021l0.105-0.361l-3.219-0.926l3.303-2.07c0.117,0.921,0.195,1.856,0.195,2.812
				C69.105,172.384,69.023,173.333,68.904,174.27z M63.885,143.661l5.653-12.85l0.986-2.497v13.901l6.187,5.831l-1.062,1.416
				L63.885,143.661z M82.019,163.74c-0.905-4.516-2.666-8.718-5.079-12.465l-0.649,0.867l1.055-1.41l1.062-1.412l1.138-1.516
				l-1.38-1.299l-5.518-5.204v-12.603l0.922-1.068c0.831,0.242,1.359,0.473,1.682,0.646l-1.121,4.205l-0.117,0.447l0.076,0.449
				c0.54,3.248,2.528,3.596,3.359,3.596c1.387,0,1.737,4.018,1.93,5.514l0.169,1.321l1.262,0.42l2.063,0.688l-0.498,5.229
				l-0.016,0.146l0.009,0.152c0.146,3.181,1.38,6.582,4.397,6.582c1.272,0,2.531-0.664,3.843-2.03c0.319-0.333,0.79-0.73,1.218-0.73
				c0.57,0,1.275,0.567,1.913,1.302c-1.51,0.566-3.65,1.438-6.446,2.755C84.69,159.546,83.055,161.6,82.019,163.74z M159.9,177.69
				c-1.213,0.634-0.881,2.628,0.366,3.543c-14.154,5.444-50.633,5.727-57.888,4.15s-16.769-8.739-16.091-13.252
				c0.669-4.464,0.208-5.975,5.923-6.689l-0.023,0.12c0,0,3.949,8.905,10.373,9.896c18.072,2.783,21.395-7.245,22.237-12.049
				l19.306-6.413l0.021-0.105c0.079-0.397,0.351-0.378,0.351-0.378l4.644-1.366c0.588,0.261,1.237,0.409,1.92,0.409
				c2.354,0,4.307-1.709,4.725-3.964c5.149-1.243,10.775-2.866,15.472-4.878c0.167,1.102,0.532,2.29,1.253,3.077
				c-0.614,1.876-7.856,23.919-10.593,26.555c-1.083-0.867-9.029-7.241-13.897-11.851l-0.064-0.062l-2.171,0.36L159.9,177.69z"/>
		</g>
	</g>
</g>
</svg>
