<?xml version="1.0" encoding="utf-8"?>
<!-- Generator: Adobe Illustrator 16.0.0, SVG Export Plug-In . SVG Version: 6.00 Build 0)  -->
<!DOCTYPE svg PUBLIC "-//W3C//DTD SVG 1.1//EN" "http://www.w3.org/Graphics/SVG/1.1/DTD/svg11.dtd">
<svg version="1.1" id="Layer_1" xmlns="http://www.w3.org/2000/svg" xmlns:xlink="http://www.w3.org/1999/xlink" x="0px" y="0px"
	 width="316.176px" height="272.059px" viewBox="0 0 316.176 272.059" enable-background="new 0 0 316.176 272.059"
	 xml:space="preserve">
<g>
	<g>
		<g>
			<g>
				<rect fill="none" width="316.176" height="272.059"/>
			</g>
		</g>
	</g>
</g>
<g opacity="0.6">
	<path fill="#FFFFFF" d="M119.191,21.678c0.649,1.619,1.665,2.307,3.393,2.31c1.082,0.013,2.174,0.032,3.256-0.011
		c0.498-0.007,0.632,0.126,0.628,0.614c-0.023,2.065-0.038,4.137,0.014,6.209c0.045,1.717,1.152,3.037,2.8,3.519
		c0.974,0.278,1.891,0.129,2.834-0.334c0,0.693-0.022,1.296,0,1.911c0.09,2.126,1.696,3.729,3.738,3.774
		c0.031,0,0.055-0.016,0.087-0.016c2.188-0.003,3.849-1.687,3.858-4.023c0.019-3.656,0.019-7.318-0.01-10.977
		c-0.007-0.544,0.135-0.675,0.671-0.675c7.685,0.027,15.383,0.027,23.061,0c0.564,0,0.729,0.118,0.716,0.706
		c-0.013,3.795-0.034,7.577,0.023,11.37c0.032,2.016,1.729,3.585,3.735,3.612c2.025,0.034,3.674-1.457,3.851-3.477
		c0.059-0.586,0.052-1.168,0.052-1.757c0-0.32,0.059-0.458,0.4-0.288c0.353,0.178,0.729,0.278,1.127,0.305
		c2.324,0.137,4.111-1.546,4.143-3.947c0.032-1.953,0.032-3.914-0.01-5.875c-0.007-0.544,0.172-0.635,0.656-0.63
		c1.492,0.041,2.992,0.047,4.505,0c1.404-0.031,2.396-0.754,2.979-2.045c0.056-0.149,0.032-0.359,0.235-0.427
		c0-0.49,0-0.964,0.021-1.457c-0.024-0.023-0.09-0.036-0.097-0.068c-0.598-1.809-1.621-2.553-3.524-2.561
		c-1.393-0.011-2.785-0.022-4.188,0.011c-0.447,0.008-0.588-0.09-0.581-0.562c0.026-1.945-0.007-3.882,0.017-5.815
		c0.025-3.322-3.179-4.831-5.293-3.795c-0.359,0.189-0.395,0.032-0.395-0.278c0-0.619,0-1.218-0.058-1.826
		c-0.146-1.804-1.66-3.278-3.463-3.392c-2.354-0.162-4.137,1.54-4.149,3.995c-0.012,3.661-0.012,7.315,0.02,10.976
		c0.007,0.603-0.17,0.706-0.723,0.706c-7.674-0.02-15.335-0.02-23.002,0c-0.595,0-0.743-0.142-0.743-0.742
		c0.033-3.646,0.026-7.272,0.014-10.907c-0.014-2.352-1.677-4.066-3.881-4.047c-2.165,0.02-3.783,1.732-3.804,4.039
		c-0.008,0.519,0,1.036,0,1.593c-0.529-0.11-0.958-0.368-1.469-0.407c-2.356-0.155-4.151,1.528-4.178,3.967
		c-0.023,1.98-0.014,3.959,0.003,5.945c0.007,0.439-0.123,0.549-0.549,0.543c-1.188-0.029-2.395-0.036-3.59,0
		c-1.479,0.039-2.501,0.764-3.069,2.125c-0.048,0.127-0.02,0.313-0.22,0.362c0,0.53,0,1.056,0,1.572
		C119.136,21.526,119.153,21.614,119.191,21.678z"/>
	<path fill="#FFFFFF" d="M241.837,105.176c0.122,0.045,0.284,0.013,0.351,0.162c13.044,0,26.071,0,39.111,0
		c-0.09-0.178-0.035-0.355-0.035-0.53c-0.014-13.202-0.014-26.41,0-39.611c0-0.44-0.072-0.614-0.556-0.575
		c-0.632,0.058-1.281,0.039-1.91,0.006c-0.391-0.02-0.529,0.116-0.46,0.481c0.018,0.087,0,0.184,0,0.271
		c0,12.174-0.005,24.37,0.018,36.551c0,0.448-0.114,0.546-0.547,0.546c-11.323-0.012-22.65-0.012-33.967-0.006
		c-1.064,0-2.015-0.24-2.694-1.128c-0.698-0.911-0.826-1.918-0.367-2.956c0.442-1.034,1.269-1.632,2.423-1.72
		c0.335-0.028,0.666-0.035,0.998-0.035c10.235,0,20.471,0,30.702,0.014c0.421,0,0.553-0.079,0.553-0.537
		c-0.018-12.274-0.018-24.542-0.018-36.824c0-0.15-0.027-0.297-0.039-0.453c-1.871,0-3.731,0.005-5.597,0.005
		c-8.821,0-17.65,0-26.473,0c-0.155,0-0.353,0.095-0.501-0.076c-0.021,0-0.052,0-0.092,0c-0.154,0.178-0.378,0.123-0.571,0.168
		c-2.644,0.582-4.555,2.947-4.555,5.652c-0.011,11.658,0,23.315,0,34.978C237.612,102.211,239.281,104.42,241.837,105.176z"/>
	<path fill="#FFFFFF" d="M291.66,181.69c-2.396-3.469-4.675-7.004-6.919-10.567c-1.338-2.136-3.361-3.431-5.771-4.098
		c-2.533-0.697-5.121-1.295-7.685-1.925c-0.035-0.01-0.062-0.049-0.109-0.087c-0.063,0-0.139,0-0.213,0
		c-1.021,1.79-2.384,3.228-4.388,3.881c-2.143,0.691-4.122,0.255-5.877-1.138c-0.954-0.746-1.722-1.675-2.305-2.743
		c-0.07,0-0.139,0-0.205,0c-1.341,0.442-2.733,0.694-4.088,1.068c-1.676,0.479-3.421,0.688-5.021,1.393
		c-2.021,0.905-3.663,2.246-4.827,4.191c-2.017,3.376-4.229,6.642-6.465,9.89c-0.239,0.353-0.294,0.508,0.146,0.77
		c2.37,1.401,4.698,2.835,7.046,4.293c0.307,0.197,0.452,0.165,0.649-0.146c1.309-1.986,2.646-3.95,3.966-5.929
		c0.093-0.146,0.198-0.277,0.302-0.433c0.141,0.124,0.068,0.249,0.068,0.369c0.007,12.955,0.007,25.912,0.007,38.874
		c0,0.08-0.007,0.177-0.007,0.267c9.816,0,19.638,0,29.45,0c-0.003-2.254-0.041-28.201-0.041-38.912
		c0-0.187-0.059-0.391,0.069-0.614c0.56,0.831,1.103,1.642,1.639,2.449c0.895,1.315,1.79,2.64,2.666,3.968
		c0.181,0.271,0.309,0.313,0.581,0.14c2.409-1.475,4.817-2.957,7.233-4.408C291.874,182.052,291.829,181.932,291.66,181.69z"/>
	<path fill="#FFFFFF" d="M46.919,183.417c-2.159,0.555-3.208,1.964-3.211,4.497c-0.016,8.517,0.012,17.034-0.033,25.538
		c-0.013,1.182,0.355,1.492,1.47,1.434c1.508-0.092,1.512-0.006,1.512,1.46c0.01,5.531,0,11.089,0.01,16.634
		c0,1.621,1.014,2.598,2.695,2.584c1.695,0,2.533-0.833,2.533-2.56c0-7.644,0.009-38.162,0.009-45.755
		C51.904,184.613,49.475,182.764,46.919,183.417z"/>
	<path fill="#FFFFFF" d="M36.467,183.37c-0.265-0.083-0.743,0.04-0.885,0.234c-0.19,0.277-0.19,0.716-0.19,1.072
		c-0.017,3.457-0.026,6.907-0.013,10.365c0.007,0.729-0.246,1.078-1.04,1.078c-0.788,0-1.092-0.317-1.057-1.071
		c0.017-0.343,0-0.673,0-1.022c-0.003-3.23,0.017-6.441-0.028-9.686c-0.007-0.35-0.324-0.795-0.628-1.002
		c-0.142-0.09-0.698,0.207-0.897,0.445c-0.174,0.232-0.11,0.646-0.11,0.989c-0.003,3.406-0.026,6.83,0.01,10.241
		c0.013,0.835-0.249,1.145-1.089,1.099c-0.923-0.058-0.853-0.664-0.853-1.266c-0.009-3.296,0-6.604-0.009-9.906
		c0-0.342,0.067-0.704-0.052-1.002c-0.104-0.259-0.449-0.633-0.64-0.607c-0.278,0.045-0.61,0.349-0.759,0.628
		c-0.133,0.232-0.055,0.588-0.055,0.892c0,3.328,0,6.669,0,10.008c0.007,0.698-0.055,1.223-1.002,1.248
		c-1.182,0.04-1.099-0.703-1.099-1.473c0-3.387-0.007-6.753,0-10.139c0.007-0.743-0.173-1.383-1.034-1.15
		c-0.3,0.076-0.611,0.77-0.62,1.188c-0.042,5.228-0.029,10.442-0.026,15.657c0,1.668,0.821,2.953,2.429,3.315
		c1.151,0.271,1.37,0.847,1.358,1.881c-0.042,4.541-0.007,23.003-0.007,27.713c-0.01,1.086,0.407,1.9,1.367,2.405
		c1.864,0.968,3.919-0.395,3.919-2.617c0.01-9.305,0.013-18.604-0.009-27.922c-0.014-0.833,0.173-1.234,1.072-1.46
		c1.849-0.459,2.543-1.532,2.543-3.444c0-4.841,0-9.674,0-14.52c0-0.484,0.062-0.977-0.035-1.454
		C36.974,183.818,36.712,183.449,36.467,183.37z"/>
	<path fill="#FFFFFF" d="M64.197,87.593c-0.271,0.821-1.321,7.225-1.415,8.007c-0.091,0.781,0.071,0.859,0.51,1.15
		c0.44,0.291,1.211,0.542,1.247,0.574c0.036,0.039,6.495-8.168,6.659-8.375c0.204-0.168,8.322-6.74,8.284-6.779
		c-0.039-0.035-0.297-0.801-0.591-1.237c-0.297-0.436-0.381-0.598-1.16-0.494c-0.778,0.104-7.167,1.244-7.983,1.525
		c-0.815,0.285-1.031,0.091-1.461-0.381c-0.426-0.468-9.415-10.681-9.415-10.681l17.228-9.298c0,0-0.779-1.99-1.225-3.01
		c-0.446-1.021-1.24-1.124-2.258-0.925c-1.942,0.377-18.772,3.95-20.2,4.261c-1.428,0.312-1.955-0.588-2.288-0.915
		c-0.333-0.323-8.532-8.496-12.371-12.587c-3.454-3.684-9.809-5.757-11.514-4.026c-1.713,1.733,0.242,8.271,3.974,11.675
		c4.145,3.778,12.429,11.865,12.758,12.195c0.33,0.33,1.237,0.84,0.943,2.275c-0.291,1.428-3.628,18.309-3.981,20.254
		c-0.184,1.022-0.067,1.813,0.96,2.246c1.027,0.433,3.027,1.182,3.027,1.182l9.057-17.356c0,0,10.335,8.846,10.811,9.27
		C64.275,86.563,64.469,86.777,64.197,87.593z"/>
	<path fill="#FFFFFF" d="M165.242,263.923c0.041-4.627,0.024-9.271,0.017-13.905c-0.007-0.543,0.16-0.943,0.501-1.351
		c6.176-7.605,12.348-15.236,18.515-22.855c0.23-0.271,0.518-0.524,0.588-0.885c-4.552,0-39.601,0-44.153,0
		c0.071,0.36,0.359,0.613,0.589,0.885c6.168,7.619,12.338,15.25,18.516,22.855c0.339,0.407,0.508,0.808,0.501,1.351
		c-0.01,4.634-0.025,9.278,0.017,13.905c0.007,0.802-0.078,1.232-1.122,1.717c-1.043,0.483-7.899,3.866-9.931,4.655
		c0.943-0.007,26.073-0.007,27.017,0c-2.031-0.789-8.889-4.172-9.933-4.655C165.318,265.156,165.235,264.725,165.242,263.923z
		 M163.821,236.113c0-1.997,1.617-3.618,3.618-3.618c2,0,3.618,1.621,3.618,3.618c0,2-1.618,3.618-3.618,3.618
		C165.438,239.731,163.821,238.113,163.821,236.113z"/>
	<path fill="#FFFFFF" d="M116.184,30.484c-0.211-1.108-0.421-2.197-0.64-3.257C99.508,31.493,84.84,39.153,72.369,49.399
		c0.433,1.007,0.927,2.054,1.476,3.078C86.035,42.314,100.427,34.711,116.184,30.484z"/>
	<path fill="#FFFFFF" d="M183.043,33.426c18.262,6.68,34.271,18.043,46.632,32.595v-4.935
		c-12.491-13.759-28.215-24.533-46.034-30.951L183.043,33.426z"/>
	<path fill="#FFFFFF" d="M257.836,156.949c1.044-6.199,1.614-12.56,1.614-19.05c0-9.033-1.075-17.819-3.065-26.254h-3.379
		c2.049,8.42,3.137,17.211,3.137,26.254c0,6.078-0.511,12.039-1.454,17.854L257.836,156.949z"/>
	<path fill="#FFFFFF" d="M183.043,242.309v3.535c24.787-8.781,45.698-25.841,59.333-47.879l-3.092-1.303
		C226.244,217.526,206.464,233.728,183.043,242.309z"/>
	<path fill="#FFFFFF" d="M61.771,211.589v4.866c20.556,21.737,49.492,35.473,81.601,35.908v-3.31
		C110.943,248.604,81.835,234.193,61.771,211.589z"/>
	<path fill="#FFFFFF" d="M38.971,104.226l-3.315-0.522c-3.386,10.8-5.218,22.287-5.218,34.195c0,12.833,2.155,25.166,6.067,36.693
		c1.15,0.004,2.318,0.004,3.49,0.004c-4.032-11.496-6.248-23.839-6.248-36.697C33.747,126.165,35.588,114.853,38.971,104.226z"/>
	<path fill="#FFFFFF" d="M100.4,156.89c-3.004-0.025-5.551,2.553-5.425,5.457c0.139,2.763,2.682,5.065,5.521,4.976
		c2.916-0.08,5.203-2.413,5.184-5.26C105.657,159.25,103.286,156.917,100.4,156.89z"/>
	<path fill="#FFFFFF" d="M107.349,126.229c-1.802-0.511-13.437-0.834-14.587,8.484c-1.15,9.315,8.602,8.839,8.602,8.839
		s5.592,0.438,9.634-6.738C115.043,129.637,109.153,126.737,107.349,126.229z"/>
	<path fill="#FFFFFF" d="M200.868,156.89c-2.884,0.026-5.26,2.359-5.277,5.173c-0.021,2.847,2.271,5.18,5.178,5.26
		c2.84,0.09,5.386-2.213,5.521-4.976C206.419,159.443,203.87,156.865,200.868,156.89z"/>
	<path fill="#FFFFFF" d="M193.918,126.229c-1.805,0.508-7.692,3.408-3.649,10.585c4.044,7.176,9.634,6.738,9.634,6.738
		s9.758,0.477,8.604-8.839C207.356,125.395,195.722,125.718,193.918,126.229z"/>
	<path fill="#FFFFFF" d="M146.119,135.469c0.057,0.052,0.118,0.098,0.18,0.148c0.007,0.007,0.014,0.011,0.023,0.021
		c0.005-0.003,0.009,0,0.009,0.005c0.062,0.044,0.13,0.079,0.168,0.146c0,0.003,0.007,0.01,0.014,0.01
		c0.028,0,0.056,0.021,0.077,0.038c0.007,0,0.02,0,0.026,0c0.016-0.048,0.063-0.024,0.097-0.024c0.442,0,0.882,0,1.321,0
		c0.135,0,0.179,0.048,0.165,0.221c-0.03-0.121-0.104-0.121-0.187-0.124c-0.446-0.025-0.894-0.02-1.333-0.068
		c-0.019-0.004-0.031,0.003-0.042,0.02c0.218,0.207,0.481,0.353,0.729,0.526c0.132,0.095,0.271,0.13,0.438,0.124
		c0.236-0.014,0.475-0.004,0.717-0.007c0.059,0,0.104,0.01,0.148,0.052c0.014,0.02,0.033,0.026,0.049,0.041
		c0.473,0.425,1.157,0.702,1.93,0.702c0.816,0,1.538-0.311,2.009-0.782c0.101-0.026,0.207-0.029,0.327-0.02
		c0.129,0.01,0.264-0.007,0.395,0.003c0.196,0.017,0.357-0.035,0.513-0.142c0.23-0.165,0.466-0.314,0.701-0.469
		c0.017-0.012,0.038-0.019,0.064-0.025c-0.097-0.077-0.165-0.023-0.23-0.027c-0.36,0.021-0.726,0.047-1.085,0.059
		c-0.104,0.004-0.151,0.034-0.184,0.124c-0.035,0.097-0.08,0.2-0.229,0.162c0.07-0.11,0.125-0.228,0.174-0.35
		c0.017-0.01,0.031-0.026,0.055-0.026c0.424,0,0.843,0.007,1.269,0.007c0.207,0.031,0.359-0.065,0.512-0.188
		c0.497-0.407,0.96-0.843,1.374-1.33c0.028-0.037,0.076-0.065,0.066-0.124c-0.487,0-0.975,0-1.459,0.007
		c-0.259,0.003-0.515,0.01-0.773,0.01c-0.414,0.004-0.833,0-1.25,0.004c-0.067,0-0.109-0.027-0.152-0.065
		c-0.464-0.524-1.228-0.866-2.096-0.866c-0.922,0-1.72,0.386-2.172,0.956c0.013-0.02,0.026-0.045,0.042-0.062
		c-0.049,0.017-0.094,0.049-0.139,0.049c-1.131,0-2.261,0.003-3.394,0.006c0.062,0.143,0.172,0.249,0.266,0.362
		C145.524,134.888,145.801,135.194,146.119,135.469z M148.082,135.394c0-0.184-0.135-0.17-0.271-0.17
		c-0.579-0.014-1.157-0.033-1.729-0.045c-0.019,0-0.045,0.003-0.055-0.037c0.04-0.001,0.078-0.008,0.116-0.008
		c0.608,0,1.209,0.003,1.811-0.004c0.083,0,0.121,0.021,0.139,0.07c0,0.023-0.011,0.052-0.011,0.078
		c0,0.042,0.014,0.087,0.017,0.126C148.092,135.405,148.082,135.398,148.082,135.394z M154.812,135.156
		c-0.462,0.017-0.921,0.035-1.382,0.048c-0.086,0.004-0.131,0.011-0.124,0.11c0.004,0.056,0.052,0.172-0.068,0.169
		c-0.025,0-0.042-0.007-0.052-0.014c0.007-0.064,0.023-0.127,0.023-0.19c0-0.017-0.003-0.026-0.003-0.038
		c0.006-0.089,0.034-0.117,0.193-0.117c0.469-0.003,0.943-0.003,1.412-0.003c0.162-0.014,0.326-0.021,0.484,0
		c0.004,0.01,0.004,0.014,0.004,0.021C155.138,135.142,154.976,135.169,154.812,135.156z M156.075,134.461
		c-0.164,0.081-0.325,0.02-0.494,0C155.75,134.461,155.915,134.461,156.075,134.461z M155.526,134.485c0,0.01,0,0.015,0,0.021
		c-0.265,0.007-0.52,0.017-0.775,0.023c-0.511,0.01-1.019,0.021-1.527,0.028c-0.082,0-0.104,0.017-0.062,0.087
		c0.021,0.036,0.029,0.075,0.046,0.113c0.006,0.023,0.031,0.055-0.017,0.065c-0.042,0.01-0.056-0.014-0.063-0.042
		c-0.018-0.042-0.034-0.089-0.049-0.127c0.007,0.01,0.007,0.026,0.009,0.038c-0.009-0.028-0.019-0.057-0.032-0.083
		c0.007,0.014,0.017,0.02,0.021,0.033c-0.021-0.052-0.037-0.104-0.059-0.158C153.856,134.485,154.689,134.485,155.526,134.485z
		 M150.648,133.448c1.263,0,2.284,0.819,2.284,1.831c0,1.011-1.021,1.832-2.284,1.832c-1.264,0-2.287-0.821-2.287-1.832
		C148.361,134.267,149.384,133.448,150.648,133.448z M145.359,134.481c0.332,0,0.666,0,1.001,0c0.016,0,0.029,0.01,0.049,0.019
		c0.571-0.003,1.15-0.005,1.725-0.005c0.032,0,0.062-0.004,0.091,0c0.017,0.002,0.038,0,0.055,0.005
		c-0.007,0.017-0.014,0.04-0.021,0.052c-0.014,0.007-0.017,0.026-0.037,0.026c-0.187-0.003-0.37-0.01-0.558-0.017
		c-0.421-0.01-0.838-0.019-1.254-0.031c-0.017,0.01-0.033,0.021-0.042,0.021c-0.34-0.052-0.676-0.007-1.012-0.021
		c-0.013,0-0.026-0.011-0.035-0.017C145.313,134.481,145.335,134.481,145.359,134.481z"/>
	<path fill="#FFFFFF" d="M149.474,135.598c0.062,0,0.11,0,0.143-0.063c0.055-0.11,0.123-0.214,0.185-0.32
		c0.009-0.021,0.016-0.052,0.049-0.042c0.031,0.01,0.025,0.038,0.025,0.065c-0.007,0.087-0.011,0.173-0.018,0.264
		c-0.005,0.052-0.015,0.116,0.075,0.094c0.065-0.016,0.185,0.071,0.19-0.081c0.004-0.238,0.021-0.474,0.028-0.711
		c0.004-0.028,0.014-0.059-0.012-0.083c-0.052-0.042-0.307,0.01-0.342,0.068c-0.089,0.146-0.179,0.294-0.266,0.445
		c-0.017-0.013-0.02-0.017-0.023-0.02c-0.048-0.104-0.097-0.204-0.142-0.311c-0.094-0.197-0.094-0.197-0.312-0.19
		c-0.062,0.003-0.082,0.023-0.089,0.078c-0.015,0.239-0.041,0.471-0.06,0.71c-0.004,0.042-0.04,0.116,0.054,0.097
		c0.068-0.015,0.191,0.072,0.203-0.08c0.011-0.12,0.023-0.235,0.03-0.355c0.01,0,0.019,0,0.025,0
		c0.052,0.12,0.109,0.238,0.158,0.358C149.398,135.567,149.41,135.605,149.474,135.598z M149.858,135.118
		c0.007,0.003,0.021,0.013,0.018,0.017c-0.004,0.012-0.011,0.018-0.018,0.028c-0.005-0.004-0.011-0.011-0.018-0.017
		C149.847,135.137,149.853,135.127,149.858,135.118z"/>
	<path fill="#FFFFFF" d="M150.958,135.598c0.068-0.012,0.178,0.052,0.165-0.09c-0.007-0.136,0-0.271,0-0.408
		c0.158,0.143,0.29,0.276,0.407,0.428c0.083,0.104,0.19,0.063,0.294,0.063c0.042,0.007,0.035-0.031,0.035-0.057
		c-0.004-0.252-0.01-0.504-0.01-0.753c-0.004-0.12-0.098-0.055-0.152-0.068c-0.052-0.01-0.112-0.017-0.105,0.071
		c0.005,0.136,0,0.271,0,0.439c-0.151-0.172-0.289-0.311-0.41-0.459c-0.082-0.091-0.184-0.059-0.275-0.045
		c-0.063,0.007-0.029,0.09-0.029,0.135c-0.013,0.214-0.01,0.431-0.022,0.643C150.854,135.58,150.874,135.618,150.958,135.598z"/>
	<path fill="#FFFFFF" d="M152.276,135.598c0.056-0.007,0.07-0.019,0.07-0.07c-0.007-0.123-0.003-0.242-0.003-0.365
		c-0.005,0-0.012,0-0.025,0c0-0.122,0-0.249,0-0.371c0-0.146-0.113-0.064-0.179-0.085c-0.066-0.014-0.094,0.021-0.09,0.087
		c0.01,0.21,0.01,0.421,0.017,0.631C152.073,135.618,152.073,135.618,152.276,135.598z"/>
	<path fill="#FFFFFF" d="M150.438,135.598c0.035-0.003,0.07-0.003,0.104,0c0.06,0.007,0.09-0.007,0.094-0.077
		c0-0.238,0.006-0.48,0.018-0.725c0.004-0.069-0.021-0.1-0.093-0.083c-0.061,0.017-0.178-0.062-0.174,0.08
		c0.003,0.127,0,0.249,0,0.376c-0.01,0-0.021,0-0.03,0c0,0.116,0.007,0.231-0.003,0.349
		C150.349,135.586,150.373,135.605,150.438,135.598z"/>
	<path fill="#FFFFFF" d="M149.358,136.568c0.846,0.517,2.094,0.408,2.824-0.242c0.73-0.655,0.733-1.622-0.003-2.238
		c-0.417-0.356-0.918-0.505-1.423-0.512c-0.529,0-0.975,0.117-1.372,0.366C148.295,134.617,148.286,135.909,149.358,136.568z
		 M149.243,134.157c0.709-0.591,1.866-0.661,2.651-0.16c0.938,0.595,0.953,1.75,0.036,2.385c-0.391,0.271-0.873,0.416-1.357,0.405
		c-0.494-0.008-0.946-0.135-1.327-0.438C148.489,135.744,148.493,134.782,149.243,134.157z"/>
	<path fill="#FFFFFF" d="M149.506,165.66h-33.362c0,0,0,3.546,1.647,4.219c1.648,0.672,5.716,1.248,8.023,1.438
		c1.858,0.155,17.641,0.37,23.691,0.449v0.031c0,0,0.431-0.007,1.174-0.015c0.746,0.008,1.179,0.015,1.179,0.015v-0.031
		c6.049-0.079,21.831-0.294,23.689-0.449c2.31-0.19,6.375-0.767,8.021-1.438c1.651-0.673,1.651-4.219,1.651-4.219h-33.362H149.506z"
		/>
	<path fill="#FFFFFF" d="M133.973,158.835h33.421c0.391,0,0.704-0.317,0.704-0.705v-4.755c0-0.388-0.313-0.705-0.704-0.705h-33.421
		c-0.391,0-0.705,0.317-0.705,0.705v4.755C133.268,158.518,133.583,158.835,133.973,158.835z"/>
	<path fill="#FFFFFF" d="M212.253,118.255c1.43-0.543,3.884-1.38,4.314-4.064c0.568-3.555-2.733-5.211-6.526-5.48
		c-3.797-0.271-5.791,1.206-6.391,3.169c-0.641,2.104,0.724,4.436,0.724,4.436l-1.206,1.373v-0.174h-0.142l-1.651-2.07
		c-1.131-2.521-9.424-20.943-11.428-22.781c-1.561-2.336-4.274-3.131-9.398-3.573c-2.578-0.224-15.905-0.818-29.307-0.825v-4.771
		h-0.327v-6.475h-0.2h-0.065h-0.197v6.475h-0.329v4.771c-13.4,0.007-26.729,0.601-29.308,0.825
		c-5.123,0.442-7.838,1.237-9.397,3.573c-2.004,1.838-10.297,20.26-11.426,22.781l-1.653,2.07h-0.143v0.174l-1.205-1.373
		c0,0,1.363-2.332,0.723-4.436c-0.601-1.963-2.594-3.44-6.39-3.169c-3.793,0.269-7.095,1.925-6.527,5.48
		c0.43,2.685,2.885,3.521,4.313,4.064c2.22,0.84,4.727,0.241,4.727,0.241l1.332,2.467l-0.204,0.212
		c-0.733,0.892-1.46,1.703-2.158,2.481c-3.286,3.678-6.126,6.854-6.972,14.882c-0.297,2.775,0.065,6.733,0.663,13.286l0.304,3.341
		c0.31,3.482,0.436,6.432,0.539,8.801c0.177,4.051,0.311,6.69,1.211,8.173c0,10.88,0.349,12.181,3.149,12.181
		c3.798,0,9.658,0,11.193,0c1.534,0,2.868-0.898,3.327-2.736c0.656-2.606,0.701-4.984,0.878-6.245l41.957,1.105h1.593h0.065h1.593
		l41.956-1.105c0.179,1.261,0.224,3.639,0.88,6.245c0.458,1.838,1.793,2.736,3.328,2.736c1.534,0,7.395,0,11.191,0
		c2.801,0,3.149-1.301,3.149-12.181c0.901-1.482,1.033-4.122,1.212-8.173c0.104-2.369,0.229-5.318,0.54-8.801l0.304-3.341
		c0.598-6.553,0.96-10.511,0.662-13.286c-0.846-8.028-3.687-11.204-6.973-14.882c-0.697-0.778-1.426-1.59-2.158-2.481l-0.204-0.212
		l1.332-2.467C207.528,118.497,210.035,119.095,212.253,118.255z M101.208,116.292l0.097-0.159c3.58-7.99,9.288-20.148,10.937-22.18
		h38.408h0.065h38.409c1.648,2.032,7.357,14.19,10.937,22.18l0.098,0.159l0.975,1.224H100.231L101.208,116.292z M114.439,150.616
		c0.308-0.785,0.688-1.503,1.124-2.174h70.239c0.438,0.671,0.818,1.389,1.125,2.174H114.439z M187.242,151.541
		c0.357,1.195,0.581,2.494,0.581,3.929c0,5.182-8.843,4.813-15.118,4.813c-4.264,0-39.778,0-44.047,0
		c-6.271,0-15.113,0.368-15.113-4.813c0-1.435,0.219-2.733,0.581-3.929H187.242z M116.202,147.515
		c0.777-0.995,1.679-1.855,2.65-2.588h63.662c0.972,0.732,1.874,1.593,2.648,2.588H116.202z M120.2,143.999
		c2.937-1.79,6.22-2.592,8.458-2.592c1.994,0,42.057,0,44.047,0c2.243,0,5.522,0.802,8.463,2.592H120.2z M172.236,128.242
		c-0.813,2.452-2.74,8.258-3.397,10.238c-8.95,0-27.356,0-36.31,0c-0.656-1.98-2.585-7.786-3.399-10.238
		c-0.757-2.284-3.446-7.111-4.662-9.247h52.434C175.684,121.13,172.992,125.958,172.236,128.242z M207.454,124.647
		c3.244,3.628,5.809,6.493,6.606,14.047c0.279,2.63-0.097,6.752-0.664,12.999l-0.304,3.339c-0.314,3.517-0.443,6.485-0.547,8.873
		c-0.233,5.387-0.394,7.782-1.81,8.126l-12.755,1.731l-45.691,1.202h-1.574h-0.065h-1.573l-45.691-1.202l-12.755-1.731
		c-1.416-0.344-1.577-2.739-1.81-8.126c-0.104-2.388-0.232-5.356-0.546-8.873l-0.301-3.339c-0.571-6.247-0.947-10.369-0.668-12.999
		c0.798-7.554,3.363-10.419,6.607-14.047c0.711-0.795,1.447-1.62,2.168-2.495l2.93-3.157h15.539
		c1.11,2.052,3.543,6.672,4.855,10.148c1.406,3.719,2.364,8.342,2.775,10.19c-6.859,1.983-12.747,7.443-12.747,15.887
		c0,8.668,14.256,8.452,17.394,8.452c2.423,0,45.291,0,47.713,0c3.138,0,17.392,0.216,17.392-8.452
		c0-8.443-5.886-13.9-12.744-15.887c0.409-1.846,1.369-6.472,2.774-10.19c1.312-3.477,3.744-8.097,4.855-10.148h15.539l2.93,3.157
		C206.005,123.027,206.742,123.852,207.454,124.647z"/>
</g>
</svg>
