<?xml version="1.0" encoding="utf-8"?>
<!-- Generator: Adobe Illustrator 16.0.0, SVG Export Plug-In . SVG Version: 6.00 Build 0)  -->
<!DOCTYPE svg PUBLIC "-//W3C//DTD SVG 1.1//EN" "http://www.w3.org/Graphics/SVG/1.1/DTD/svg11.dtd">
<svg version="1.1" id="Layer_1" xmlns="http://www.w3.org/2000/svg" xmlns:xlink="http://www.w3.org/1999/xlink" x="0px" y="0px"
	 width="316.176px" height="272.059px" viewBox="0 0 316.176 272.059" enable-background="new 0 0 316.176 272.059"
	 xml:space="preserve">
<g>
	<g>
		<g>
			<g>
				<g>
					<rect x="0" y="0" fill="none" width="316.176" height="272.059"/>
				</g>
			</g>
		</g>
	</g>
	<g opacity="0.6">
		<path fill="#FFFFFF" d="M118.962,21.006c0.653,1.628,1.674,2.321,3.412,2.324c1.089,0.013,2.188,0.032,3.277-0.012
			c0.5-0.007,0.633,0.126,0.629,0.618c-0.022,2.078-0.038,4.161,0.014,6.247c0.045,1.727,1.161,3.055,2.818,3.539
			c0.977,0.28,1.901,0.13,2.85-0.336c0,0.697-0.023,1.303,0,1.922c0.09,2.139,1.706,3.75,3.759,3.796
			c0.033,0,0.056-0.016,0.088-0.016c2.2-0.003,3.87-1.697,3.879-4.046c0.021-3.677,0.021-7.36-0.01-11.041
			c-0.006-0.548,0.138-0.68,0.677-0.68c7.728,0.028,15.472,0.028,23.193,0c0.57,0,0.735,0.118,0.723,0.71
			c-0.013,3.816-0.036,7.621,0.021,11.436c0.033,2.028,1.74,3.606,3.758,3.634c2.037,0.034,3.694-1.465,3.873-3.497
			c0.06-0.59,0.053-1.175,0.053-1.768c0-0.322,0.059-0.46,0.403-0.29c0.354,0.179,0.734,0.28,1.134,0.308
			c2.336,0.138,4.134-1.555,4.166-3.97c0.033-1.965,0.033-3.938-0.01-5.91c-0.006-0.548,0.173-0.638,0.66-0.634
			c1.501,0.041,3.009,0.046,4.53,0c1.414-0.031,2.412-0.758,2.996-2.057c0.056-0.149,0.033-0.361,0.236-0.43
			c0-0.492,0-0.969,0.024-1.465c-0.027-0.023-0.091-0.036-0.097-0.068c-0.602-1.82-1.633-2.568-3.547-2.575
			c-1.4-0.011-2.801-0.023-4.212,0.011c-0.451,0.008-0.592-0.091-0.585-0.565c0.025-1.956-0.007-3.905,0.016-5.85
			c0.027-3.342-3.197-4.859-5.321-3.817c-0.362,0.189-0.397,0.032-0.397-0.28c0-0.622,0-1.225-0.059-1.836
			c-0.146-1.814-1.671-3.297-3.483-3.412c-2.366-0.163-4.16,1.548-4.173,4.018c-0.014,3.682-0.014,7.358,0.019,11.039
			c0.007,0.607-0.172,0.711-0.729,0.711c-7.718-0.02-15.423-0.02-23.135,0c-0.598,0-0.748-0.143-0.748-0.746
			c0.033-3.668,0.026-7.316,0.013-10.972c-0.013-2.366-1.686-4.091-3.902-4.07c-2.178,0.02-3.806,1.742-3.825,4.062
			c-0.01,0.521,0,1.042,0,1.602c-0.533-0.11-0.966-0.37-1.479-0.409c-2.369-0.156-4.176,1.537-4.202,3.991
			c-0.022,1.991-0.013,3.981,0.003,5.979c0.006,0.443-0.124,0.553-0.553,0.547c-1.196-0.029-2.408-0.036-3.61,0
			c-1.489,0.039-2.516,0.768-3.088,2.137c-0.049,0.128-0.019,0.314-0.22,0.363c0,0.534,0,1.062,0,1.582
			C118.907,20.853,118.924,20.941,118.962,21.006z"/>
		<path fill="#FFFFFF" d="M242.327,104.994c0.124,0.046,0.286,0.014,0.355,0.163c13.119,0,26.223,0,39.34,0
			c-0.091-0.18-0.036-0.357-0.036-0.534c-0.013-13.278-0.013-26.564,0-39.843c0-0.441-0.071-0.618-0.559-0.579
			c-0.635,0.059-1.288,0.039-1.921,0.007c-0.394-0.02-0.532,0.117-0.462,0.484c0.016,0.087,0,0.185,0,0.272
			c0,12.247-0.006,24.514,0.016,36.766c0,0.452-0.113,0.549-0.548,0.549c-11.391-0.013-22.786-0.013-34.166-0.007
			c-1.073,0-2.029-0.24-2.711-1.134c-0.701-0.917-0.832-1.931-0.371-2.974c0.445-1.04,1.278-1.642,2.438-1.729
			c0.339-0.029,0.669-0.035,1.005-0.035c10.295,0,20.591,0,30.883,0.013c0.423,0,0.557-0.078,0.557-0.54
			c-0.019-12.346-0.019-24.686-0.019-37.04c0-0.151-0.027-0.299-0.04-0.456c-1.882,0-3.754,0.005-5.629,0.005
			c-8.873,0-17.754,0-26.629,0c-0.157,0-0.355,0.095-0.504-0.076c-0.02,0-0.053,0-0.091,0c-0.157,0.178-0.381,0.123-0.576,0.168
			c-2.658,0.584-4.583,2.964-4.583,5.685c-0.01,11.727,0,23.452,0,35.184C238.076,102.011,239.757,104.234,242.327,104.994z"/>
		<path fill="#FFFFFF" d="M292.446,181.958c-2.412-3.49-4.704-7.046-6.962-10.631c-1.346-2.147-3.38-3.451-5.804-4.12
			c-2.549-0.702-5.151-1.304-7.729-1.937c-0.036-0.01-0.062-0.05-0.111-0.088c-0.064,0-0.141,0-0.214,0
			c-1.027,1.8-2.398,3.245-4.413,3.902c-2.155,0.695-4.147,0.257-5.912-1.144c-0.959-0.751-1.731-1.684-2.317-2.759
			c-0.071,0-0.141,0-0.208,0c-1.349,0.444-2.75,0.698-4.111,1.075c-1.687,0.481-3.442,0.691-5.049,1.4
			c-2.036,0.91-3.687,2.26-4.857,4.215c-2.026,3.396-4.253,6.683-6.503,9.949c-0.239,0.353-0.295,0.51,0.146,0.773
			c2.387,1.409,4.726,2.853,7.089,4.318c0.309,0.198,0.455,0.166,0.653-0.146c1.315-2,2.662-3.975,3.987-5.965
			c0.094-0.146,0.202-0.279,0.305-0.435c0.141,0.124,0.069,0.25,0.069,0.37c0.006,13.032,0.006,26.064,0.006,39.103
			c0,0.081-0.006,0.179-0.006,0.27c9.873,0,19.753,0,29.622,0c-0.003-2.269-0.042-28.367-0.042-39.141
			c0-0.189-0.058-0.395,0.071-0.618c0.562,0.835,1.108,1.65,1.647,2.464c0.9,1.322,1.801,2.655,2.682,3.99
			c0.182,0.273,0.312,0.315,0.586,0.141c2.423-1.482,4.845-2.975,7.275-4.434C292.659,182.323,292.614,182.201,292.446,181.958z"/>
		<path fill="#FFFFFF" d="M46.265,183.694c-2.17,0.559-3.226,1.977-3.229,4.523c-0.017,8.567,0.013,17.134-0.033,25.688
			c-0.013,1.189,0.357,1.502,1.479,1.443c1.518-0.092,1.521-0.007,1.521,1.468c0.009,5.564,0,11.154,0.009,16.731
			c0,1.631,1.021,2.613,2.711,2.6c1.706,0,2.547-0.838,2.547-2.574c0-7.688,0.01-38.387,0.01-46.023
			C51.281,184.897,48.837,183.037,46.265,183.694z"/>
		<path fill="#FFFFFF" d="M35.752,183.648c-0.265-0.084-0.748,0.039-0.89,0.234c-0.191,0.28-0.191,0.722-0.191,1.079
			c-0.017,3.477-0.026,6.948-0.013,10.426c0.007,0.734-0.247,1.086-1.046,1.086c-0.793,0-1.099-0.319-1.062-1.079
			c0.016-0.345,0-0.677,0-1.027c-0.003-3.25,0.016-6.48-0.029-9.743c-0.007-0.351-0.325-0.799-0.631-1.007
			c-0.143-0.092-0.701,0.208-0.902,0.448c-0.177,0.232-0.111,0.65-0.111,0.993c-0.003,3.426-0.026,6.87,0.01,10.303
			c0.012,0.839-0.251,1.15-1.096,1.105c-0.93-0.06-0.858-0.67-0.858-1.274c-0.01-3.314,0-6.643-0.01-9.964
			c0-0.345,0.068-0.709-0.052-1.008c-0.104-0.261-0.452-0.637-0.644-0.61c-0.279,0.045-0.615,0.35-0.764,0.63
			c-0.133,0.234-0.056,0.592-0.056,0.897c0,3.347,0,6.707,0,10.067c0.006,0.702-0.056,1.229-1.008,1.255
			c-1.189,0.04-1.104-0.709-1.104-1.482c0-3.405-0.007-6.792,0-10.198c0.006-0.747-0.176-1.39-1.041-1.155
			c-0.302,0.076-0.613,0.772-0.623,1.195c-0.043,5.258-0.031,10.503-0.027,15.748c0,1.678,0.827,2.971,2.444,3.335
			c1.157,0.272,1.378,0.852,1.365,1.891c-0.042,4.57-0.006,23.14-0.006,27.878c-0.009,1.092,0.41,1.911,1.375,2.419
			c1.874,0.974,3.942-0.398,3.942-2.633c0.01-9.359,0.013-18.714-0.01-28.086c-0.013-0.839,0.175-1.24,1.079-1.469
			c1.859-0.462,2.559-1.541,2.559-3.465c0-4.868,0-9.729,0-14.605c0-0.486,0.061-0.981-0.037-1.461
			C36.262,184.097,36,183.726,35.752,183.648z"/>
		<path fill="#FFFFFF" d="M63.647,87.309c-0.274,0.825-1.33,7.266-1.424,8.053c-0.09,0.787,0.072,0.864,0.514,1.158
			c0.442,0.292,1.219,0.545,1.254,0.578c0.035,0.039,6.532-8.216,6.698-8.424c0.205-0.168,8.372-6.778,8.333-6.818
			c-0.039-0.037-0.299-0.806-0.595-1.245c-0.299-0.439-0.383-0.602-1.167-0.498c-0.784,0.104-7.208,1.251-8.03,1.535
			c-0.82,0.286-1.037,0.091-1.47-0.384c-0.428-0.471-9.469-10.745-9.469-10.745l17.328-9.353c0,0-0.783-2.002-1.231-3.026
			c-0.448-1.028-1.248-1.132-2.272-0.932c-1.954,0.38-18.881,3.973-20.318,4.287c-1.437,0.313-1.966-0.592-2.3-0.92
			c-0.335-0.325-8.583-8.545-12.444-12.662c-3.474-3.705-9.866-5.791-11.582-4.05c-1.722,1.744,0.244,8.32,3.997,11.744
			c4.17,3.801,12.502,11.936,12.834,12.267c0.332,0.332,1.245,0.844,0.949,2.288c-0.292,1.437-3.649,18.417-4.004,20.373
			c-0.186,1.027-0.068,1.823,0.965,2.259c1.034,0.435,3.044,1.189,3.044,1.189l9.11-17.458c0,0,10.396,8.898,10.875,9.325
			C63.724,86.272,63.919,86.487,63.647,87.309z"/>
		<path fill="#FFFFFF" d="M165.283,264.674c0.041-4.654,0.025-9.327,0.017-13.987c-0.007-0.546,0.162-0.948,0.503-1.358
			c6.214-7.65,12.421-15.326,18.626-22.99c0.23-0.272,0.519-0.526,0.591-0.891c-4.58,0-39.834,0-44.413,0
			c0.071,0.364,0.36,0.618,0.591,0.891c6.204,7.664,12.411,15.34,18.624,22.99c0.342,0.41,0.511,0.812,0.504,1.358
			c-0.008,4.66-0.025,9.333,0.016,13.987c0.007,0.806-0.076,1.238-1.126,1.726c-1.05,0.488-7.946,3.891-9.99,4.684
			c0.948-0.007,26.226-0.007,27.175,0c-2.044-0.793-8.94-4.195-9.99-4.684C165.361,265.912,165.277,265.48,165.283,264.674z
			 M163.853,236.699c0-2.009,1.629-3.641,3.64-3.641c2.013,0,3.641,1.632,3.641,3.641c0,2.012-1.628,3.641-3.641,3.641
			C165.482,240.34,163.853,238.711,163.853,236.699z"/>
		<path fill="#FFFFFF" d="M115.937,29.864c-0.211-1.114-0.422-2.21-0.643-3.276C99.164,30.878,84.41,38.583,71.865,48.89
			c0.436,1.012,0.934,2.065,1.485,3.096C85.613,41.763,100.087,34.116,115.937,29.864z"/>
		<path fill="#FFFFFF" d="M183.19,32.823c18.369,6.719,34.472,18.149,46.906,32.787v-4.963
			c-12.563-13.84-28.382-24.677-46.306-31.133L183.19,32.823z"/>
		<path fill="#FFFFFF" d="M258.422,157.071c1.05-6.236,1.624-12.633,1.624-19.16c0-9.087-1.082-17.924-3.083-26.409h-3.4
			c2.061,8.469,3.156,17.312,3.156,26.409c0,6.111-0.514,12.108-1.463,17.958L258.422,157.071z"/>
		<path fill="#FFFFFF" d="M183.19,242.933v3.555c24.934-8.833,45.966-25.992,59.681-48.159l-3.11-1.31
			C226.644,218.003,206.748,234.301,183.19,242.933z"/>
		<path fill="#FFFFFF" d="M61.206,212.033v4.894c20.675,21.865,49.781,35.681,82.079,36.118v-3.327
			C110.665,249.264,81.387,234.769,61.206,212.033z"/>
		<path fill="#FFFFFF" d="M38.271,104.039l-3.333-0.526c-3.406,10.864-5.249,22.418-5.249,34.398
			c0,12.907,2.167,25.312,6.103,36.908c1.157,0.003,2.33,0.003,3.51,0.003c-4.056-11.563-6.285-23.979-6.285-36.911
			C33.016,126.106,34.868,114.727,38.271,104.039z"/>
		<path fill="#FFFFFF" d="M113.639,96.961c-0.215-0.026-0.416-0.04-0.611-0.04c-2.06,0-2.304,0.768-2.963,1.45
			c-0.663,0.685-0.731,4.237,2.708,4.117c0.243,1.446,0.598,3.981,0.767,5.223l-0.318,0.172l-4.475,1.076l-0.037-0.055
			c0,0-0.805-3.186-3.607-4.254c-1.541-0.589-3.92-0.586-5.785,1.508c-1.287,1.442-1.791,3.445-1.504,5.94
			c0.068,0.611,0.186,1.329,0.387,2.054c-0.553-0.097-1.057-0.143-1.48-0.143h-1.95h-0.818l-0.354,0.741
			c-1.352,2.811-1.486,6.058-1.206,8.824l-0.003,0.009l0.007,0.013c0.341,3.396,1.3,6.055,1.372,6.253l0.124,0.344l0.188,0.507
			h0.907h2.064h0.803l0.195-0.396c0.171,0.468,0.412,0.858,0.656,1.163l-3.562,6.696c-1.635-0.228-3.324-0.345-5.037-0.345
			c-7.95,0-13.989,2.408-14.245,2.51l-2.798,1.136l2.749,1.254l1.417,0.647c-6.208,3.962-10.337,10.891-10.337,18.784
			c0,12.292,9.996,22.292,22.287,22.292c11.385,0,20.786-8.587,22.112-19.621c0.491,3.979,8.05,7.852,11.668,8.389
			c7.776,1.145,20.871,1.043,42.897-3.133l0.426,0.381l1.128,0.309c0,0,0.306-0.049,0.797-0.065c0.617,0.11,1.29,0.186,2.047,0.182
			c0.163,0.033,0.328,0.053,0.497,0.089c0.444,0.106,0.864,0.162,1.248,0.162c0.881,0,1.518-0.271,1.957-0.634
			c2.735,1.073,8.914,1.488,8.914,1.488l0.182-0.039c0.026-0.006,1.119-0.26,2.841-0.676c4.28,5.012,10.627,8.199,17.718,8.199
			c12.863,0,23.328-10.462,23.328-23.325c0-12.859-10.465-23.324-23.328-23.324c-4.289,0-8.301,1.187-11.765,3.214l-0.133-0.562
			l-0.28-1.102l-0.36,0.04l3.182-2.987l8.397-2.457l4.622,0.091c0.396,0.698,1.133,1.66,2.453,2.434
			c0.572,0.338,1.124,0.507,1.645,0.507c1.443,0,2.243-1.218,2.366-2.35l0.019-0.133l-0.019-0.13l-0.085-0.876l4.062-0.075
			c1.654,6.75,5.617,9.09,5.785,9.188l0.303,0.176h0.344h0.864h2.517l-1.45-2.054c-3.536-4.988-3.328-5.756-2.827-7.608
			c0.068-0.243,0.143-0.523,0.21-0.819c0.813-3.396-0.884-4.93-1.078-5.092l-0.312-0.264l-0.409-0.032l-10.468-0.933
			c-0.094-0.287-0.21-0.601-0.356-0.965c-1.355-3.39-3.943-3.656-4.703-3.656c-0.155,0-0.286,0.013-0.381,0.019h-16.493h-1.15
			l-0.14,1.144c-0.014,0.082-0.021,0.163-0.036,0.248c-0.5-0.133-1.113-0.211-1.881-0.211c-0.324,0-0.55,0.016-0.571,0.016
			l-0.164,0.013l-0.159,0.052c-7.575,2.521-13.201,3.753-17.205,3.753c-3.531,0-5.518-0.91-7.409-2.275
			c-3.952-2.856-8.781-5.124-8.982-5.215l-0.111-0.049l-0.111-0.033c-6.688-1.774-12.544-2.675-17.403-2.675
			c-5.346,0-8.615,1.093-10.549,2.178c-0.815-1.937-2.716-2.866-3.896-3.266l-3.838-1.124l-0.917-0.869l-0.149-0.139l-0.511-5.235
			c0,0,1.71,0.208,4.875-1.411c1.527-0.78,1.843-2.6,1.843-2.6l3.032-1.736c0.711-1.423-0.939-2.555-1.84-2.057l-2.711,1.732
			c0,0-2.976-0.117-2.816-2.058c0.4-4.956,1.992-8.375,1.992-8.375c0.016,0,1.173,0.144,1.179,0.144
			c2.968,0,3.114-1.629,3.114-1.629s1.164-6.789-0.549-6.789c-0.097,0-0.201,0.03-0.319,0.072
			c-4.237,1.527-5.096,10.946-5.096,10.946l-1.404,6.717L113.639,96.961z M77.575,155.358l2.077,1.654l-3.152,0.533
			C76.796,156.779,77.153,156.05,77.575,155.358z M85.225,153.307l0.139,0.959c-1.257,0.55-2.365,1.353-3.278,2.337l-0.65,0.11
			l-2.759-2.938c0.786-0.961,1.709-1.816,2.73-2.535l-0.101,0.208L85.225,153.307z M84.822,150.532l0.358,2.502l-3.77-1.797
			c0.997-0.709,2.096-1.277,3.269-1.707l0.107,0.735l-0.452-0.177l-0.088,0.216L84.822,150.532z M85.43,153.152l-0.361-2.522
			l0.592,0.234l0.819,2.792L85.43,153.152z M86.408,153.872c-0.287,0.089-0.559,0.188-0.826,0.3l-0.111-0.744L86.408,153.872z
			 M85.937,150.974l2.216,0.881l-0.604,1.768c-0.267,0.049-0.531,0.092-0.787,0.159L85.937,150.974z M85.85,150.691l-0.42-1.414
			c1.241-0.366,2.551-0.57,3.906-0.57c0.115,0,0.225,0.012,0.331,0.012c-0.34,0.289-0.598,0.452-0.598,0.452l-0.841,2.463
			L85.85,150.691z M85.579,150.583l-0.546-0.215l-0.133-0.915c0.104-0.039,0.208-0.082,0.309-0.117L85.579,150.583z M82.896,170.779
			l-0.787,0.592l0.11-1.229C82.43,170.365,82.661,170.576,82.896,170.779z M81.829,156.878c-0.036,0.046-0.078,0.089-0.117,0.134
			l-0.092-0.098L81.829,156.878z M81.569,157.197c-0.171,0.215-0.334,0.434-0.484,0.664l-0.887-0.706l1.15-0.194L81.569,157.197z
			 M81.16,156.759l-1.199,0.201l-2.262-1.804c0.26-0.413,0.533-0.81,0.838-1.188L81.16,156.759z M76.405,157.791l3.484-0.584
			l1.018,0.806l-4.92,1.167C76.103,158.709,76.243,158.243,76.405,157.791z M75.921,159.434l4.917-1.167
			c-0.835,1.397-1.336,3.016-1.384,4.744l-0.192,0.124l-3.633-1.872C75.687,160.639,75.785,160.028,75.921,159.434z M79.496,164.327
			l-1.167-0.338l0.946-0.592l0.179,0.094C79.454,163.772,79.463,164.051,79.496,164.327z M75.573,162.471
			c0-0.325,0.023-0.643,0.045-0.957l3.419,1.764l-1.004,0.628l-2.424-0.699C75.596,162.962,75.573,162.722,75.573,162.471z
			 M75.618,163.452l2.151,0.618l-1.914,1.197C75.736,164.675,75.664,164.068,75.618,163.452z M75.921,165.501l2.145-1.346
			l1.466,0.422c0.02,0.144,0.042,0.286,0.066,0.427l-3.143,2.274C76.24,166.703,76.058,166.112,75.921,165.501z M76.535,167.502
			l3.104-2.241c0.345,1.722,1.154,3.275,2.274,4.542l-2.997,1.642C77.916,170.278,77.104,168.952,76.535,167.502z M81.657,173.893
			c-0.436-0.294-0.845-0.619-1.248-0.96l1.424-1.069L81.657,173.893z M80.237,172.774c-0.41-0.36-0.799-0.747-1.164-1.156
			l2.922-1.594l-0.131,1.532L80.237,172.774z M81.874,174.029l0.212-2.354l0.987-0.74c0.212,0.168,0.429,0.332,0.65,0.487
			l-0.067,3.419l0.23,0.003l0.068-3.271c1.434,0.929,3.127,1.491,4.944,1.566l-0.93,3.035
			C85.736,175.948,83.668,175.186,81.874,174.029z M88.205,176.187l0.93-3.035c0.056,0,0.111,0.005,0.167,0.005
			c0.015,0,0.032-0.002,0.052-0.002c0.019,0,0.035,0.002,0.049,0.002c0.058,0,0.11-0.005,0.162-0.005l0.101,0.122l-0.455,2.962
			C88.875,176.232,88.541,176.212,88.205,176.187z M89.444,176.239l0.419-2.724l2.035,2.477
			C91.104,176.145,90.282,176.232,89.444,176.239z M92.157,175.946l-2.249-2.736l0.013-0.077c0.546-0.03,1.077-0.095,1.589-0.209
			l2.373,2.528C93.327,175.654,92.753,175.823,92.157,175.946z M94.12,175.367l-2.355-2.509c1.889-0.469,3.565-1.476,4.849-2.86
			l1.482,3.095C96.921,174.061,95.576,174.827,94.12,175.367z M91.566,153.704l1.08-2.042l1.261-2.086
			c0.095,0.149,0.21,0.306,0.367,0.462l-1.813,3.894C92.173,153.837,91.867,153.775,91.566,153.704z M96.512,151.49l0.144-0.374
			h0.415c0.514,0.354,1.011,0.729,1.469,1.145l-1.258,2.622l-1.937,0.562c-0.069-0.049-0.127-0.098-0.195-0.144l1.505-3.753
			L96.512,151.49z M99.225,162.527c-0.022-0.27-0.055-0.535-0.097-0.796l1.274,0.364l-0.891,0.562L99.225,162.527z M99.274,162.803
			l-0.032,0.02c0-0.013,0-0.022,0-0.038L99.274,162.803z M99.09,161.478c-0.003-0.007-0.003-0.017-0.007-0.026l3.539-2.558
			c0.144,0.523,0.25,1.06,0.333,1.605l-2.289,1.433L99.09,161.478z M99.034,161.201c-0.371-1.726-1.203-3.273-2.353-4.533
			l0.166-0.345l4.465-0.624c0.526,0.922,0.946,1.911,1.245,2.954L99.034,161.201z M97.647,168.692l0.751,1.122l-1.431-0.202
			C97.211,169.32,97.442,169.014,97.647,168.692z M96.206,156.18c-0.201-0.194-0.412-0.383-0.637-0.56l1.581-0.461l-0.459,0.952
			L96.206,156.18z M96.57,156.362l-0.054,0.124c-0.037-0.036-0.065-0.068-0.095-0.104L96.57,156.362z M96.967,156.076l0.482-1.002
			l2.167-0.63l-0.059-0.224l-1.979,0.574l1.144-2.372c0.959,0.896,1.788,1.924,2.46,3.059L96.967,156.076z M98.273,172.93
			l-1.488-3.109l1.783,0.25l1.038,1.547C99.194,172.085,98.749,172.524,98.273,172.93z M99.768,171.442l-0.893-1.329l1.736,0.247
			C100.347,170.734,100.065,171.094,99.768,171.442z M100.763,170.148l-2.057-0.292l-0.927-1.379
			c0.082-0.133,0.169-0.263,0.243-0.398l3.748,0.275C101.478,168.974,101.147,169.582,100.763,170.148z M101.881,168.13l-3.74-0.276
			c0.712-1.364,1.125-2.911,1.125-4.557c0-0.071-0.009-0.139-0.009-0.207l0.272-0.172l3.419,1.543
			C102.765,165.747,102.398,166.983,101.881,168.13z M102.983,164.227l-3.221-1.459l0.937-0.585l2.173,0.627l0.066-0.224
			l-1.973-0.568l2.021-1.269c0.075,0.566,0.124,1.138,0.124,1.722C103.11,163.071,103.057,163.649,102.983,164.227z M99.912,145.455
			l3.46-7.884l0.604-1.528v8.524l3.796,3.579l-0.653,0.864L99.912,145.455z M111.026,157.766c-0.555-2.768-1.634-5.345-3.112-7.643
			l0.249-0.333l0.65-0.867l0.699-0.927l-0.849-0.8l-3.38-3.19v-7.728l0.563-0.653c0.507,0.146,0.834,0.289,1.033,0.396l-0.689,2.577
			l-0.068,0.273l0.046,0.272c0.325,1.995,1.547,2.208,2.053,2.208c0.855,0,1.07,2.465,1.188,3.383l0.104,0.809l0.77,0.261
			l1.268,0.418l-0.302,3.208l-0.014,0.092l0.007,0.094c0.09,1.95,0.848,4.036,2.697,4.036c0.78,0,1.554-0.41,2.356-1.247
			c0.195-0.202,0.484-0.449,0.748-0.449c0.348,0,0.783,0.348,1.173,0.799c-0.926,0.349-2.236,0.885-3.955,1.69
			C112.668,155.196,111.659,156.453,111.026,157.766z M158.785,166.321c-0.74,0.39-0.535,1.614,0.229,2.173
			c-8.678,3.339-31.052,3.514-35.501,2.546c-4.447-0.967-10.283-5.359-9.864-8.125c0.406-2.737,0.123-3.667,3.626-4.102
			l-0.009,0.071c0,0,2.421,5.459,6.357,6.071c11.083,1.702,13.12-4.446,13.64-7.391l11.836-3.933l0.016-0.067
			c0.049-0.245,0.215-0.231,0.215-0.231l2.843-0.839c0.36,0.163,0.76,0.254,1.18,0.254c1.443,0,2.642-1.047,2.896-2.432
			c3.159-0.76,6.61-1.754,9.486-2.989c0.104,0.673,0.329,1.403,0.771,1.886c-0.374,1.149-4.817,14.669-6.496,16.284
			c-0.664-0.529-5.535-4.442-8.519-7.271l-0.042-0.035l-1.332,0.222L158.785,166.321z M184.541,141.485
			c-0.119-0.201-0.334-0.352-0.623-0.462l0.357-0.032l4.224-4.982l1.947-0.215l0.326,1.297l-5.2,6.071v0.754l-11.44,10.303
			l-3.942,3.548c-1.059,0.319-2.075,0.006-2.093,0l-0.071,0.221c0.01,0.007,0.507,0.163,1.181,0.163c0.19,0,0.396-0.013,0.61-0.049
			l-1.439,1.297c-0.159-0.032-0.276-0.065-0.28-0.065l-0.071,0.218c0.003,0.003,0.059,0.017,0.141,0.036l-5.558,5.008l5.597-14.726
			l0.031-0.087c1.467,0.004,2.704-0.615,3.104-1.561c0.308-0.737,4.903-2.583,7.948-3.656c0.138,0.025,0.586,0.104,1.178,0.117
			c1.328,0.023,3.097-0.299,3.968-1.97C184.691,142.215,184.731,141.803,184.541,141.485z M170.941,158.975
			c-0.796,0.529-1.699,0.543-2.265,0.468l1.631-1.473c0.546-0.172,1.099-0.483,1.544-1.092l-0.179-0.133l2.649-2.385l4.52,3.478
			l-1.078,0.503l-0.14,1.537l-5.561-2.034l-1.22,1.096L170.941,158.975z M170.906,157.435l0.682-0.617
			C171.376,157.084,171.149,157.279,170.906,157.435z M175.295,153.565l-0.254,0.146l9.981-8.983l-3.568,4.501l4.769,4.55
			l16.902-7.911c0,0,0.133,0.189,0.351,0.502l-23.464,10.922L175.295,153.565z M172.859,165.729l-3.402-0.104
			c0,0-2.736-1.521-3.942,0c-0.819,1.03-0.729,1.803-0.589,2.197c-0.032,0.085-0.098,0.182-0.201,0.289l-3.006-0.026
			c0.046-0.056,0.102-0.107,0.134-0.172c0.26-0.508,0.041-1.066-0.036-1.229l0.614-1.618l6.019-5.422
			c0.205,0.037,0.458,0.073,0.758,0.073c0.607,0,1.362-0.135,2.021-0.638l6.256,2.319l-0.016,0.215
			C177.467,161.614,173.954,162.046,172.859,165.729z M181.743,165.729l-1.099,1.735l-5.261,0.217l2.629-2.492l2.525,0.326
			l26.847-10.075c0.078,0.154,0.189,0.383,0.325,0.655L181.743,165.729z M205.689,147.139c-0.049-0.013-0.098-0.025-0.149-0.039
			l-0.238-0.394l0.81-2.145l0.487,0.933L205.689,147.139z M206.723,145.744l1.186,2.271c-0.62-0.344-1.287-0.616-1.985-0.819
			L206.723,145.744z M208.234,165.072l0.059,0.521l-0.546-0.338c-0.04,0.014-0.078,0.025-0.12,0.038
			C207.837,165.221,208.048,165.143,208.234,165.072z M201.616,167.191c0.387-0.11,0.761-0.221,1.125-0.325l-1.103,1.974
			l-0.393-1.158L201.616,167.191z M201.155,167.418l-0.028-0.088c0.035-0.009,0.081-0.022,0.12-0.036L201.155,167.418z
			 M196.054,168.719c0.261-0.069,0.522-0.14,0.782-0.209c1.482-0.389,2.811-0.761,4.062-1.115l0.089,0.244l-1.96,2.562
			C197.967,169.829,196.987,169.311,196.054,168.719z M199.257,170.284l1.82-2.382l0.413,1.206l-0.864,1.55
			C200.164,170.554,199.702,170.428,199.257,170.284z M200.86,170.717l0.73-1.316l0.521,1.508
			C201.685,170.86,201.27,170.801,200.86,170.717z M203.784,171.013c-0.481,0-0.951-0.026-1.417-0.071l-0.627-1.814l1.127-2.021
			l1.635,3.87C204.258,170.99,204.025,171.013,203.784,171.013z M204.746,170.961l-1.729-4.111l0.038-0.078
			c1.232-0.368,2.35-0.715,3.286-1.027c0.406-0.14,0.78-0.267,1.128-0.394l0.852,0.533l0.451,4.225
			C207.502,170.576,206.15,170.869,204.746,170.961z M210.297,165.92l0.187,1.036l-1.944-1.209l-0.068-0.63L210.297,165.92z
			 M208.608,164.922c0.36-0.144,0.691-0.285,0.969-0.416c0.01-0.007,0.019-0.011,0.025-0.014l0.429-0.113l0.224,1.268
			L208.608,164.922z M208.997,170.028l-0.429-3.986l1.969,1.225l0.332,1.888C210.271,169.491,209.645,169.777,208.997,170.028z
			 M211.08,169.023l-0.277-1.596l1.398,0.875C211.84,168.563,211.467,168.802,211.08,169.023z M212.399,168.153l-1.652-1.033
			l-0.193-1.089l2.894,1.271C213.112,167.6,212.764,167.887,212.399,168.153z M213.637,167.128l-3.133-1.37l-0.25-1.44l0.065-0.201
			c0.599-0.368,1.196-0.91,1.147-1.748c-0.02-0.267-0.078-0.592-0.167-0.943c0.209-0.334,0.428-0.669,0.596-1.027l1.398,0.05
			l2.626,3.613l0.184-0.133l-2.515-3.471l2.313,0.088l1.285,1.537C216.374,164.016,215.149,165.729,213.637,167.128z
			 M212.442,159.74l0.315-0.036l0.36,0.507l-1.111-0.039c0.143-0.325,0.271-0.65,0.371-0.981l0.221,0.3l-0.182,0.019L212.442,159.74
			z M213.021,159.677l1.984-0.214l0.696,0.841l-2.291-0.084L213.021,159.677z M217.279,161.832l-1.07-1.277l1.498,0.052
			C217.58,161.026,217.435,161.432,217.279,161.832z M217.762,160.379l-1.752-0.065l-0.73-0.884l2.775-0.296
			C217.977,159.557,217.879,159.969,217.762,160.379z M218.308,156.49c0,0.822-0.084,1.621-0.214,2.407l-2.994,0.325l-1.846-2.223
			l-0.181,0.146l1.751,2.103l-1.96,0.216l-0.344-0.476l-0.108,0.085c0.257-0.865,0.397-1.781,0.397-2.732
			c0-0.374-0.025-0.749-0.068-1.115l2.248-1.407l3.257,1.466C218.286,155.683,218.308,156.082,218.308,156.49z M214.97,153.554
			l-1.82-0.822l0.514-0.366l2.204,0.629L214.97,153.554z M218.238,155.031l-3.011-1.362l0.937-0.589l1.859,0.54
			C218.115,154.08,218.189,154.548,218.238,155.031z M217.96,153.356l-1.533-0.438l1.222-0.766
			C217.769,152.546,217.869,152.949,217.96,153.356z M217.568,151.932l-1.437,0.897l-2.23-0.64l2.905-2.101
			C217.096,150.688,217.355,151.299,217.568,151.932z M216.702,149.882l-3.08,2.227l-1.609-0.466l-0.064,0.225l1.437,0.413
			l-0.479,0.345l-0.007-0.007l-0.016,0.02l-0.585,0.43l0.137,0.181l0.497-0.357l1.807,0.813l-2.034,1.273
			c-0.254-1.756-0.971-3.352-2.041-4.661l1.063-2.235l3.83-0.065C215.986,148.608,216.367,149.226,216.702,149.882z
			 M211.584,147.854l-2.097,0.039l0.303-0.553l2.21-0.364L211.584,147.854z M215.387,147.788l-3.547,0.062l0.44-0.92l2.103-0.344
			C214.74,146.97,215.074,147.373,215.387,147.788z M214.197,146.385l-1.8,0.292l0.652-1.364
			C213.452,145.651,213.834,146.008,214.197,146.385z M212.865,145.169l-0.741,1.554l-2.189,0.357l1.575-2.869
			C211.982,144.507,212.436,144.824,212.865,145.169z M211.314,144.09l-1.669,3.036l-1.655,0.273l0.043,0.227l1.471-0.239
			l-0.285,0.513h-0.01v0.026l-0.351,0.633l0.204,0.108l0.296-0.54l2.113-0.039l-0.973,2.041c-0.676-0.784-1.479-1.449-2.375-1.979
			l0.087-0.049l-1.352-2.6l1.534-2.776C209.424,143.07,210.401,143.531,211.314,144.09z M208.171,142.641l-1.438,2.613l-0.514-0.982
			l0.737-1.949C207.365,142.414,207.776,142.517,208.171,142.641z M206.733,142.265L206.075,144l-1.024-1.977
			C205.617,142.075,206.184,142.148,206.733,142.265z M203.784,141.958c0.332,0,0.669,0.029,0.998,0.053l1.187,2.274l-0.816,2.171
			l-2.229-3.666l-0.198,0.121l0.807,1.329l0.021-0.006l-0.98,0.457l-11.892,5.564C193.021,145.362,198.006,141.958,203.784,141.958z
			 M126.502,120.292c1.462,0,2.652,0.822,2.652,1.836c0,1.01-1.19,1.833-2.652,1.833c-1.462,0-2.651-0.822-2.651-1.833
			C123.851,121.114,125.04,120.292,126.502,120.292z M115.79,110.87l1.515,0.433c0,0,4.55,0.435,5.093,3.253
			c0.045,0.214,0.097,0.672,0.133,0.955c0,0-2.142,1.976-3.271,6.812c-2.081,1.127-5.321,6.564-5.2,7.911
			c0.119,1.345,9.209,8.774,9.209,8.774s11.287-0.088,15.164-1.554c0,0-2.964-2.185-4.69-6.009c-1.439-3.195-0.74-5.216,0.334-6.458
			c2.767-3.217,6.54-3.552,9.516-3.63c9.779-0.25,13.829,4.364,14.062,4.595c0.981,0.965,1.927,2.018,2.841,3.068h3.698l0.023,0.081
			c0.007,0.009,0.549,1.235,7.123,3.79c4.533-0.325,11.82-1.056,12.135-1.631c0.475-0.865,5.594-4.557,5.811-4.713l0.046-0.019
			l19.789-3.87c0.059-0.059,1.001-0.749,1.026-0.452l11.396,1.02c0,0,1.302,1.079,0.651,3.789c-0.651,2.708-1.515,3.361,2.813,9.48
			h-0.864c0,0-3.575-2.138-5.2-8.505c-0.175-0.673-0.543-0.864-0.543-0.864l-6.174,0.104l0.214,2.274c0,0-0.133,1.196-1.072,1.196
			c-0.264,0-0.585-0.09-0.983-0.325c-1.847-1.086-2.275-2.6-2.275-2.6l-5.636-0.111l-8.885,2.6l-10.725,10.078l0.07,0.501
			c-0.097-0.007-0.185-0.019-0.295-0.022c-1.252-0.02-2.639,0.273-2.685,0.283l-8.97,1.244c-3.266-1.395-6.962-3.708-6.978-3.77
			c-0.032-0.156-0.176-0.228-0.906-0.241c-0.404-0.006-0.914,0.01-1.411,0.033c1.918-0.638,2.983-2.497,2.84-2.672
			c-0.045-0.052-6.138-8.199-9.462-10.542c-3.329-2.35-7.813-3.173-12.756-2.61c-4.94,0.562-7.095,2.883-7.358,3.191
			c-3.88,4.511,4.533,11.165,4.54,11.165c0.022-0.01,20.182,2.131,20.182,2.131s0.078-0.025,0.182-0.058
			c0.02-0.007,0.039-0.013,0.06-0.022l5.731,6.943c0,0.02,0,0.068,0,0.098c-0.1,0.007-0.197,0.026-0.302,0.086
			c-0.208,0.109-4.595,1.695-9.148,2.95c-0.321-1.288-1.468-2.243-2.847-2.243c-1.394,0-2.555,0.976-2.867,2.288l-2.457,0.582
			c0,0-0.299-0.036-0.325-0.074l-0.052-0.062l-11.534,4.183c-1.111-2.032-2.593-3.595-5.59-3.595c-2.905,0-7.705,1.41-10.474,3.016
			c-0.417-0.725-1.563-2.467-3.013-2.47c-0.53,0-1.102,0.24-1.687,0.852c-0.583,0.604-1.05,0.845-1.417,0.845
			c-1.267,0-1.397-2.799-1.397-2.799l0.578-4.325l-2.42-0.66l-1.736-4.874c0,0-0.36,0.361-0.742,0.361
			c-0.308,0-0.626-0.241-0.772-1.119l0.864-3.252c0,0,0-0.868-2.925-1.518l-1.228,1.417l0.842-2.125l6.824-13.76l0.781-1.742
			c0.113-0.036,0.191-0.095,0.234-0.173c0.184-0.379-0.566-1.127-1.674-1.667c-1.105-0.534-2.157-0.663-2.344-0.28
			c-0.006,0.026-0.015,0.052-0.019,0.082c-0.006-0.007-0.006-0.009-0.01-0.009l-7.149,15.488l-2.116,4.284l-2.369,5.834
			c0,0-3.471-0.498-6.182-0.604c-1.911-0.078-1.102,1.367-0.464,2.227c-0.403-0.014-0.829-0.023-1.268-0.023
			c-2.217,0-4.836,0.195-7.911,0.698l-4.985-2.274c0,0,5.969-2.415,13.754-2.415c1.836,0,3.769,0.134,5.749,0.464l4.445-8.345
			c0,0-1.196-0.867-1.196-2.275H97.26l-0.097,0.196c-1.248-3.036-0.937-11.033-0.443-13.851c0,0,4.762-0.062,6.292,1.618
			c2.067,2.276,1.833,5.213,1.833,5.213s0.871-4.087-1.17-5.622c-2.079-1.559-2.524-1.651-4.585-2.392
			c-1.274-5.68,4.098-8.436,6.168-7.745c2.649,0.888,4.358,6.225,4.358,6.225l0.363,0.065l-0.546-2.009l4.407-1.632L115.79,110.87z"
			/>
	</g>
</g>
</svg>
