<?xml version="1.0" encoding="utf-8"?>
<!-- Generator: Adobe Illustrator 16.0.0, SVG Export Plug-In . SVG Version: 6.00 Build 0)  -->
<!DOCTYPE svg PUBLIC "-//W3C//DTD SVG 1.1//EN" "http://www.w3.org/Graphics/SVG/1.1/DTD/svg11.dtd">
<svg version="1.1" id="Layer_1" xmlns="http://www.w3.org/2000/svg" xmlns:xlink="http://www.w3.org/1999/xlink" x="0px" y="0px"
	 width="316.176px" height="272.059px" viewBox="0 0 316.176 272.059" enable-background="new 0 0 316.176 272.059"
	 xml:space="preserve">
<g>
	<g>
		<g>
			<g>
				<rect fill="none" width="316.176" height="272.059"/>
			</g>
		</g>
	</g>
	<g opacity="0.6">
		<g>
			<ellipse fill="#FFFFFF" cx="145.078" cy="129.197" rx="4.192" ry="2.133"/>
			<path fill="#FFFFFF" d="M91.048,142.767c6.56-0.237,16.981-0.441,20.586-0.448c-0.093,6.604,11.382,8.692,14.868,8.692
				c3.477,0,6.596,0,10.51,0c3.911,0,6.508-1.963,6.508-6.777c0-4.81-0.998-8.926-0.998-8.926c-0.904-2.047-3.069-2.315-8.033-2.315
				c-4.957,0-12.838,0-15.457,0c-6.412,0-7.145,2.099-7.58,4.272c-0.473-0.902-1.307-1.035-2.437-1.323
				c-1.126-0.308-14.36-3.845-17.413-4.749c-3.062-0.912-8.895-2.821-9.792,0.245c-0.883,3.083-2.279,8.511,2.301,8.511
				C83.928,142.677,85.863,142.955,91.048,142.767z M113.657,136.724c0.883-1.416,2.303-2.355,4.943-2.32
				c3.537,0.054,15.684,0.367,17.83,0.546c2.149,0.186,3.939,0.89,4.199,4.068c0.253,3.183,0.957,7.247-1.344,8.75
				c-2.293,1.497-10.783,1.157-14.139,0.793c-3.357-0.358-10.957-1.941-11.49-4.944
				C113.125,140.611,112.766,138.135,113.657,136.724z"/>
			<path fill="#FFFFFF" d="M198.557,131.193c-3.054,0.904-16.288,4.441-17.414,4.749c-1.129,0.288-1.963,0.421-2.437,1.323
				c-0.435-2.174-1.167-4.272-7.583-4.272c-2.616,0-10.496,0-15.453,0c-4.964,0-7.129,0.269-8.037,2.315
				c0,0-0.994,4.116-0.994,8.926c0,4.814,2.596,6.777,6.508,6.777c3.914,0,7.033,0,10.51,0c3.485,0,14.961-2.089,14.867-8.692
				c3.604,0.007,14.027,0.211,20.588,0.448c5.184,0.188,7.115-0.09,6.936-2.818c4.58,0,3.182-5.428,2.3-8.511
				C207.452,128.372,201.618,130.281,198.557,131.193z M176.502,143.617c-0.533,3.003-8.129,4.586-11.49,4.944
				c-3.355,0.364-11.846,0.704-14.139-0.793c-2.3-1.503-1.596-5.567-1.344-8.75c0.259-3.179,2.051-3.883,4.199-4.068
				c2.146-0.179,14.293-0.492,17.83-0.546c2.642-0.035,4.062,0.904,4.943,2.32C177.389,138.135,177.034,140.611,176.502,143.617z"/>
			<path fill="#FFFFFF" d="M200.774,152.674c-2.146,0.089-6.64,0.617-14.248,1.324c-7.608,0.713-13.059,1.509-14.314,3.898
				l-27.095,0.118l-27.093-0.118c-1.256-2.39-6.706-3.186-14.317-3.898c-7.605-0.707-12.103-1.235-14.246-1.324
				c-2.155-0.089-4.812-0.643-4.65,3.537c0.164,4.189,0.516,7.029,5.195,7.573c4.686,0.551,13.029,1.033,17.997,1.404
				c4.966,0.381,11.836,1.25,11.275-0.918c4.801-0.208,1.945,1.611,5.697,1.721c3.092,0.08,15.83,0.025,20.142,0.006
				c4.311,0.02,17.052,0.074,20.142-0.006c3.752-0.109,0.896-1.929,5.695-1.721c-0.556,2.168,6.311,1.299,11.277,0.918
				c4.971-0.371,13.313-0.854,17.996-1.404c4.682-0.544,5.033-3.384,5.197-7.573C205.587,152.032,202.926,152.585,200.774,152.674z"
				/>
			<path fill="#FFFFFF" d="M215.614,128.671c-2.875-4.662-9.732-9.268-13.996-11.823h1.766c1.531,0,6.195,0,6.195-4.247
				c0-3.23-3.646-4.184-5.574-4.234c-0.02,0-2.072-0.013-3.815,0c-1.12,0.01-3.435,0.029-3.464,2.418
				c-3.803-7.281-10.602-16.412-15.9-19.936c-1.798-1.195-3.944-1.258-4.182-1.261c-13.447-0.998-31.271-1.01-31.451-1.01h-0.114
				h-0.114c-0.18,0-18.004,0.012-31.451,1.01c-0.24,0.003-2.383,0.066-4.181,1.261c-5.3,3.524-12.099,12.655-15.901,19.936
				c-0.028-2.389-2.344-2.408-3.463-2.418c-1.744-0.013-3.797,0-3.817,0c-1.928,0.051-5.574,1.004-5.574,4.234
				c0,4.247,4.664,4.247,6.195,4.247h1.766c-4.264,2.556-11.121,7.161-13.995,11.823c-2.518,4.095-3.409,20.273-3.349,24.854
				c0.038,3.339,0.338,8.488,0.63,13.477l0.441,8.281c0.167,4.445,2.21,6.515,6.438,6.515H95.42c7.205,0,7.278-6.733,7.289-6.87
				c0.188,0,0.377,0,0.562,0c4.297,0,7.035,0.553,9.079,0.966c0.291,0.058,0.565,0.115,0.825,0.167
				c2.5,0.473,14.98,0.965,15.127,0.972l16.566,0.097l0.208-0.004l0.208,0.004l16.566-0.097c0.147-0.007,12.627-0.499,15.127-0.972
				c0.26-0.052,0.535-0.109,0.826-0.167c2.043-0.413,4.781-0.966,9.078-0.966c0.186,0,0.375,0,0.564,0
				c0.01,0.137,0.083,6.87,7.288,6.87h16.716c4.229,0,6.273-2.069,6.438-6.515l0.441-8.281c0.292-4.988,0.593-10.138,0.631-13.477
				C219.022,148.945,218.13,132.766,215.614,128.671z M111.055,93.441c1.018-0.678,2.405-0.74,2.591-0.746
				c13.429-0.994,31.142-1.004,31.317-1.004h0.114h0.114c0.177,0,17.889,0.01,31.318,1.004c0.185,0.006,1.572,0.068,2.59,0.746
				c5.188,3.449,12.025,12.91,15.466,19.969h-49.488H95.589C99.031,106.351,105.868,96.89,111.055,93.441z M215.85,153.486
				c-0.038,3.275-0.336,8.387-0.623,13.337l-0.112,1.903c-0.128,2.213-0.233,2.229-1.263,2.356
				c-2.137,0.269-14.232,0.576-24.842,0.774c-0.697-0.025-1.422-0.041-2.127-0.041c-4.607,0-7.524,0.588-9.654,1.02
				c-0.304,0.061-0.576,0.115-0.834,0.166c-1.629,0.311-9.635,0.72-14.617,0.922l-16.7,0.089l-16.7-0.089
				c-4.982-0.202-12.988-0.611-14.617-0.922c-0.258-0.051-0.53-0.105-0.834-0.166c-2.13-0.432-5.047-1.02-9.654-1.02
				c-0.704,0-1.43,0.016-2.127,0.041c-10.608-0.198-22.705-0.506-24.842-0.774c-1.029-0.128-1.134-0.144-1.262-2.356l-0.112-1.903
				c-0.288-4.95-0.589-10.062-0.624-13.337c-0.08-6.114,1.177-20.404,2.889-23.186c3.54-5.738,14.823-11.897,16.18-12.62h51.704
				h51.704c1.357,0.723,12.641,6.882,16.181,12.62C214.673,133.082,215.93,147.372,215.85,153.486z"/>
		</g>
		<path fill="#FFFFFF" d="M185.577,21.176c-0.592-1.791-1.605-2.526-3.49-2.534c-1.378-0.011-2.756-0.022-4.145,0.011
			c-0.444,0.008-0.582-0.089-0.576-0.556c0.026-1.925-0.006-3.843,0.018-5.757c0.025-3.288-3.148-4.781-5.238-3.756
			c-0.355,0.187-0.391,0.032-0.391-0.275c0-0.612,0-1.206-0.059-1.808c-0.144-1.786-1.643-3.244-3.428-3.358
			c-2.328-0.16-4.094,1.524-4.107,3.955c-0.012,3.624-0.012,7.241,0.02,10.864c0.008,0.597-0.169,0.699-0.717,0.699
			c-7.596-0.019-15.178-0.019-22.767,0c-0.589,0-0.736-0.141-0.736-0.734c0.032-3.609,0.026-7.2,0.013-10.798
			c-0.013-2.328-1.66-4.024-3.84-4.005c-2.143,0.019-3.746,1.715-3.766,3.998c-0.01,0.514,0,1.025,0,1.577
			c-0.523-0.108-0.949-0.364-1.455-0.402c-2.331-0.154-4.109,1.513-4.135,3.927c-0.021,1.96-0.013,3.919,0.004,5.885
			c0.006,0.435-0.123,0.543-0.545,0.537c-1.177-0.029-2.369-0.036-3.553,0c-1.465,0.038-2.475,0.756-3.038,2.103
			c-0.048,0.126-0.019,0.31-0.218,0.358c0,0.525,0,1.045,0,1.556c0.103,0.024,0.119,0.11,0.156,0.174
			c0.644,1.602,1.647,2.284,3.358,2.287c1.072,0.013,2.153,0.032,3.224-0.011c0.492-0.006,0.624,0.124,0.621,0.607
			c-0.022,2.045-0.038,4.095,0.013,6.146c0.045,1.701,1.142,3.006,2.772,3.483c0.963,0.275,1.871,0.127,2.805-0.331
			c0,0.686-0.021,1.283,0,1.891c0.09,2.104,1.68,3.691,3.701,3.736c0.031,0,0.055-0.016,0.086-0.016v0.025V40.63
			c2.166-0.004,3.809-1.669,3.818-3.981c0.02-3.62,0.02-7.244-0.01-10.867c-0.006-0.539,0.135-0.668,0.666-0.668
			c7.605,0.027,15.227,0.027,22.824,0c0.561,0,0.725,0.116,0.711,0.699c-0.014,3.756-0.035,7.5,0.022,11.254
			c0.032,1.996,1.711,3.548,3.696,3.576c2.006,0.033,3.637-1.443,3.812-3.441c0.058-0.581,0.051-1.156,0.051-1.74
			c0-0.317,0.059-0.453,0.397-0.285c0.349,0.176,0.723,0.275,1.116,0.302c2.299,0.136,4.067-1.53,4.1-3.906
			c0.032-1.934,0.032-3.875-0.01-5.816c-0.006-0.539,0.17-0.628,0.649-0.624c1.478,0.041,2.962,0.047,4.458,0
			c1.392-0.03,2.373-0.747,2.949-2.024c0.055-0.147,0.031-0.355,0.232-0.422c0-0.485,0-0.955,0.023-1.443
			C185.647,21.222,185.583,21.209,185.577,21.176z"/>
		<path fill="#FFFFFF" d="M241.88,59.545c0.038,0,0.07,0,0.089,0c0.148,0.169,0.343,0.075,0.496,0.075c8.734,0,17.475,0,26.205,0
			c1.846,0,3.688-0.005,5.54-0.005c0.013,0.153,0.038,0.299,0.038,0.448c0,12.158,0,24.301,0.02,36.451
			c0,0.456-0.131,0.532-0.547,0.532c-10.129-0.012-20.261-0.012-30.393-0.012c-0.328,0-0.655,0.006-0.988,0.033
			c-1.142,0.084-1.96,0.678-2.398,1.701c-0.454,1.025-0.326,2.026,0.365,2.928c0.672,0.879,1.611,1.114,2.666,1.114
			c11.201-0.007,22.414-0.007,33.623,0.007c0.429,0,0.541-0.096,0.541-0.539c-0.022-12.06-0.016-24.132-0.016-36.182
			c0-0.085,0.016-0.184,0-0.269c-0.071-0.36,0.066-0.496,0.453-0.479c0.623,0.034,1.267,0.051,1.891-0.005
			c0.479-0.038,0.549,0.133,0.549,0.57c-0.012,13.066-0.012,26.14,0,39.21c0,0.172-0.053,0.348,0.036,0.524
			c-12.907,0-25.803,0-38.714,0c-0.067-0.147-0.227-0.116-0.349-0.16c-2.53-0.749-4.183-2.937-4.183-5.559
			c0-11.544-0.01-23.083,0-34.624c0-2.678,1.893-5.02,4.508-5.595C241.506,59.667,241.727,59.721,241.88,59.545z"/>
		<path fill="#FFFFFF" d="M278.186,218.775c-9.713,0-19.436,0-29.151,0c0-0.09,0.007-0.186,0.007-0.266
			c0-12.832,0-25.656-0.007-38.48c0-0.119,0.07-0.244-0.067-0.365c-0.103,0.153-0.207,0.285-0.301,0.428
			c-1.305,1.959-2.629,3.903-3.924,5.869c-0.195,0.307-0.339,0.34-0.643,0.145c-2.325-1.442-4.628-2.862-6.976-4.251
			c-0.435-0.259-0.38-0.411-0.144-0.761c2.213-3.215,4.403-6.447,6.398-9.789c1.152-1.926,2.776-3.253,4.779-4.148
			c1.582-0.697,3.311-0.904,4.969-1.379c1.342-0.371,2.719-0.62,4.047-1.059c0.066,0,0.135,0,0.203,0
			c0.576,1.059,1.338,1.977,2.281,2.716c1.736,1.378,3.697,1.81,5.817,1.126c1.982-0.646,3.333-2.07,4.343-3.842
			c0.074,0,0.148,0,0.212,0c0.048,0.039,0.073,0.077,0.108,0.086c2.537,0.624,5.098,1.217,7.605,1.907
			c2.386,0.658,4.387,1.94,5.712,4.056c2.223,3.527,4.478,7.025,6.851,10.461c0.166,0.24,0.211,0.357-0.096,0.547
			c-2.393,1.436-4.775,2.903-7.161,4.362c-0.269,0.173-0.397,0.13-0.576-0.138c-0.866-1.314-1.753-2.627-2.639-3.928
			c-0.53-0.799-1.067-1.602-1.621-2.424c-0.128,0.221-0.069,0.422-0.069,0.607C278.145,190.858,278.182,216.542,278.186,218.775z"/>
		<g>
			<path fill="#FFFFFF" d="M48.045,182.936c-2.137,0.55-3.176,1.944-3.179,4.451c-0.017,8.431,0.013,16.86-0.032,25.278
				c-0.014,1.172,0.352,1.477,1.455,1.42c1.494-0.089,1.497-0.006,1.497,1.445c0.009,5.475,0,10.977,0.009,16.464
				c0,1.606,1.004,2.572,2.668,2.56c1.679,0,2.507-0.826,2.507-2.533c0-7.566,0.009-37.776,0.009-45.293
				C52.979,184.119,50.574,182.289,48.045,182.936z"/>
			<path fill="#FFFFFF" d="M37.699,182.89c-0.264-0.082-0.736,0.039-0.877,0.23c-0.188,0.275-0.188,0.711-0.188,1.062
				c-0.018,3.422-0.027,6.836-0.014,10.26c0.007,0.723-0.243,1.068-1.029,1.068c-0.781,0-1.081-0.314-1.047-1.062
				c0.016-0.339,0-0.666,0-1.011c-0.002-3.198,0.016-6.377-0.027-9.588c-0.007-0.345-0.32-0.786-0.622-0.991
				c-0.14-0.09-0.69,0.205-0.889,0.441c-0.173,0.23-0.108,0.64-0.108,0.979c-0.004,3.37-0.025,6.762,0.01,10.139
				c0.013,0.824-0.247,1.131-1.078,1.087c-0.914-0.058-0.844-0.659-0.844-1.253c-0.01-3.264,0-6.537-0.01-9.807
				c0-0.339,0.066-0.697-0.051-0.992c-0.104-0.256-0.445-0.626-0.634-0.601c-0.276,0.045-0.604,0.345-0.752,0.621
				c-0.131,0.229-0.055,0.581-0.055,0.883c0,3.293,0,6.601,0,9.907c0.007,0.691-0.054,1.209-0.991,1.234
				c-1.17,0.039-1.088-0.697-1.088-1.457c0-3.352-0.006-6.686,0-10.037c0.007-0.735-0.172-1.369-1.022-1.139
				c-0.298,0.078-0.604,0.762-0.614,1.178c-0.041,5.174-0.029,10.337-0.025,15.498c0,1.65,0.812,2.922,2.405,3.281
				c1.138,0.27,1.356,0.838,1.343,1.861c-0.041,4.496-0.007,22.771-0.007,27.434c-0.01,1.074,0.403,1.881,1.354,2.381
				c1.845,0.958,3.88-0.393,3.88-2.592c0.009-9.211,0.012-18.414-0.01-27.638c-0.014-0.825,0.172-1.222,1.062-1.446
				c1.829-0.453,2.517-1.516,2.517-3.409c0-4.791,0-9.575,0-14.373c0-0.479,0.061-0.966-0.035-1.438
				C38.201,183.332,37.941,182.967,37.699,182.89z"/>
		</g>
		<path fill="#FFFFFF" d="M73.483,58.462c-1.923,0.375-18.582,3.91-19.995,4.218c-1.414,0.309-1.936-0.582-2.264-0.905
			c-0.33-0.32-8.447-8.409-12.246-12.46c-3.42-3.646-9.711-5.7-11.398-3.985c-1.695,1.715,0.24,8.187,3.934,11.557
			c4.104,3.74,12.303,11.746,12.629,12.069c0.326,0.327,1.225,0.833,0.934,2.252c-0.287,1.417-3.592,18.125-3.939,20.051
			c-0.183,1.011-0.066,1.796,0.949,2.222c1.018,0.428,2.997,1.173,2.997,1.173l8.965-17.18c0,0,10.23,8.756,10.701,9.174
			c0.476,0.415,0.668,0.627,0.399,1.438c-0.269,0.812-1.308,7.15-1.4,7.923c-0.09,0.771,0.07,0.852,0.505,1.139
			s1.2,0.535,1.234,0.57c0.035,0.037,6.429-8.086,6.592-8.291c0.201-0.167,8.238-6.671,8.2-6.71
			c-0.039-0.035-0.295-0.793-0.586-1.225c-0.293-0.432-0.377-0.59-1.147-0.487c-0.771,0.101-7.093,1.229-7.903,1.509
			c-0.805,0.281-1.02,0.089-1.445-0.378c-0.422-0.465-9.318-10.576-9.318-10.576l17.053-9.204c0,0-0.771-1.97-1.213-2.979
			C75.277,58.368,74.49,58.266,73.483,58.462z"/>
		<path fill="#FFFFFF" d="M165.68,247.525c6.115-7.527,12.225-15.082,18.329-22.623c0.227-0.268,0.512-0.519,0.581-0.877
			c-4.506,0-39.199,0-43.705,0c0.07,0.358,0.355,0.609,0.582,0.877c6.105,7.541,12.213,15.096,18.328,22.623
			c0.336,0.404,0.503,0.801,0.496,1.338c-0.01,4.586-0.025,9.186,0.017,13.766c0.007,0.791-0.077,1.219-1.11,1.697
			c-1.033,0.479-7.82,3.828-9.831,4.609c0.934-0.008,25.81-0.008,26.743,0c-2.012-0.781-8.799-4.13-9.832-4.609
			c-1.031-0.479-1.115-0.906-1.109-1.697c0.042-4.58,0.025-9.18,0.017-13.766C165.178,248.326,165.344,247.929,165.68,247.525z
			 M163.761,235.097c0-1.976,1.603-3.581,3.582-3.581c1.98,0,3.583,1.605,3.583,3.581c0,1.98-1.603,3.582-3.583,3.582
			C165.364,238.679,163.761,237.078,163.761,235.097z"/>
		<g>
			<path fill="#FFFFFF" d="M116.608,31.553c-0.209-1.097-0.416-2.175-0.633-3.224c-15.873,4.222-30.393,11.805-42.739,21.948
				c0.43,0.996,0.918,2.033,1.462,3.046C86.766,43.263,101.01,35.738,116.608,31.553z"/>
		</g>
		<g>
			<path fill="#FFFFFF" d="M228.95,66.73v-4.885c-12.364-13.619-27.93-24.284-45.567-30.637l-0.592,3.257
				C200.866,41.078,216.713,52.325,228.95,66.73z"/>
		</g>
		<g>
			<path fill="#FFFFFF" d="M253.71,155.553l3.114,1.183c1.033-6.138,1.6-12.432,1.6-18.855c0-8.943-1.064-17.639-3.035-25.989
				h-3.346c2.028,8.335,3.105,17.036,3.105,25.989C255.149,143.896,254.643,149.796,253.71,155.553z"/>
		</g>
		<g>
			<path fill="#FFFFFF" d="M238.461,196.048c-12.908,20.65-32.488,36.689-55.671,45.184v3.498
				c24.536-8.692,45.235-25.578,58.731-47.394L238.461,196.048z"/>
		</g>
		<g>
			<path fill="#FFFFFF" d="M62.746,210.824v4.816c20.348,21.518,48.991,35.113,80.774,35.545v-3.276
				C111.42,247.462,82.607,233.198,62.746,210.824z"/>
			<path fill="#FFFFFF" d="M41.191,174.205c-3.992-11.379-6.186-23.596-6.186-36.324c0-11.617,1.823-22.813,5.172-33.332
				l-3.282-0.52c-3.352,10.692-5.165,22.062-5.165,33.852c0,12.702,2.133,24.909,6.007,36.321
				C38.875,174.205,40.03,174.205,41.191,174.205z"/>
		</g>
	</g>
</g>
</svg>
