<?xml version="1.0" encoding="utf-8"?>
<!-- Generator: Adobe Illustrator 16.0.0, SVG Export Plug-In . SVG Version: 6.00 Build 0)  -->
<!DOCTYPE svg PUBLIC "-//W3C//DTD SVG 1.1//EN" "http://www.w3.org/Graphics/SVG/1.1/DTD/svg11.dtd">
<svg version="1.1" id="Layer_1" xmlns="http://www.w3.org/2000/svg" xmlns:xlink="http://www.w3.org/1999/xlink" x="0px" y="0px"
	 width="316.176px" height="272.059px" viewBox="0 0 316.176 272.059" enable-background="new 0 0 316.176 272.059"
	 xml:space="preserve">
<g>
	<g>
		<g>
			<rect fill="none" width="316.176" height="272.059"/>
		</g>
	</g>
	<g opacity="0.6">
		<g>
			<ellipse fill="#FFFFFF" cx="131.65" cy="126.088" rx="6.705" ry="3.408"/>
			<path fill="#FFFFFF" d="M114.717,132.159c-7.93,0-20.528,0-24.72,0c-10.255,0-11.423,3.354-12.122,6.832
				c-0.755-1.441-2.091-1.654-3.899-2.115c-1.8-0.494-22.965-6.146-27.85-7.6c-4.896-1.457-14.224-4.508-15.652,0.398
				c-1.412,4.93-3.652,13.605,3.676,13.605c-0.293,4.367,2.803,4.811,11.094,4.51c10.486-0.377,27.156-0.703,32.924-0.713
				c-0.146,10.555,18.203,13.896,23.776,13.896c5.559,0,10.548,0,16.808,0c6.256,0,10.406-3.145,10.406-10.836
				c0-7.695-1.595-14.279-1.595-14.279C126.115,132.588,122.65,132.159,114.717,132.159z M122.389,155.79
				c-3.669,2.391-17.247,1.852-22.614,1.268c-5.369-0.574-17.517-3.105-18.373-7.91c-0.853-4.803-1.424-8.764,0-11.018
				c1.408-2.264,3.68-3.771,7.908-3.717c5.652,0.09,25.082,0.59,28.509,0.875c3.436,0.299,6.301,1.424,6.717,6.512
				C124.943,146.883,126.065,153.387,122.389,155.79z"/>
			<path fill="#FFFFFF" d="M135.738,135.858c0,0-1.595,6.584-1.595,14.279c0,7.691,4.153,10.836,10.413,10.836
				c4.521,0,8.377,0,12.263,0v-3.477c-6.036,0.195-13.358-0.051-15.904-1.707c-3.676-2.402-2.552-8.906-2.144-13.99
				c0.412-5.088,3.277-6.213,6.713-6.512c1.516-0.123,6.146-0.291,11.335-0.449v-2.68c-2.927,0-5.8,0-8.229,0
				C140.654,132.159,137.193,132.588,135.738,135.858z"/>
			<path fill="#FFFFFF" d="M88.384,171.989c-2.007-3.828-10.728-5.096-22.896-6.232c-12.165-1.137-19.349-1.98-22.782-2.121
				c-3.445-0.143-7.695-1.029-7.436,5.652c0.262,6.701,0.822,11.244,8.309,12.111c7.492,0.883,20.834,1.656,28.777,2.25
				c7.946,0.607,18.927,1.996,18.037-1.467c7.676-0.336,3.109,2.576,9.105,2.748c5.981,0.154,34.521,0,34.521,0
				s12.586,0.07,22.8,0.07v-12.912l-22.79,0.096L88.384,171.989z"/>
			<path fill="#FFFFFF" d="M104.939,197.612c-7.964-0.32-20.765-0.973-23.373-1.475c-0.408-0.076-0.85-0.164-1.336-0.26
				c-3.404-0.691-8.07-1.637-15.438-1.637c-1.123,0-2.288,0.029-3.404,0.07c-16.962-0.32-36.305-0.812-39.724-1.238
				c-1.642-0.205-1.814-0.23-2.021-3.768l-0.178-3.049c-0.461-7.908-0.938-16.092-1.001-21.32
				c-0.127-9.783,1.886-32.631,4.622-37.08c5.661-9.184,23.706-19.029,25.875-20.19h165.484c1.092,0.583,6.204,3.363,11.777,7.191
				l0.25,0.172h8.432l-2.389-1.787c-3.692-2.769-7.455-5.171-10.338-6.902h2.712c2.449,0,9.904,0,9.904-6.789
				c0-5.164-5.83-6.689-8.937-6.777c0,0-3.291-0.021-6.08,0c-1.754,0.017-5.348,0.046-5.535,3.642
				c-6.105-11.597-16.895-26.051-25.301-31.651c-2.945-1.966-6.549-2.021-6.584-2.021h-0.023
				c-21.635-1.594-50.092-1.613-50.378-1.613h-0.487c-0.289,0-28.795,0.019-50.302,1.611c-0.377,0.006-3.813,0.107-6.686,2.021
				C66.006,70.398,55.136,85,49.058,96.642c-0.052-3.819-3.751-3.852-5.541-3.869c-2.79-0.015-6.071,0.006-6.103,0
				c-3.085,0.088-8.916,1.614-8.916,6.777c0,6.789,7.456,6.789,9.906,6.789h2.824c-6.812,4.088-17.781,11.45-22.381,18.909
				c-4.02,6.545-5.449,32.424-5.356,39.748c0.062,5.34,0.544,13.568,1.003,21.553l0.709,13.238
				c0.268,7.111,3.538,10.422,10.296,10.422h26.737c3.8,0,6.775-1.197,8.844-3.555c0.242-0.279,0.478-0.59,0.738-0.969l0.191-0.303
				c0.159-0.246,0.303-0.502,0.479-0.832l0.106-0.209c0.165-0.336,0.312-0.672,0.437-1.01l0.049-0.131
				c0.105-0.303,0.201-0.598,0.287-0.896l0.084-0.312c0.061-0.252,0.119-0.496,0.168-0.738l0.055-0.258
				c0.055-0.316,0.102-0.623,0.137-0.912l0.021-0.186c0.024-0.229,0.046-0.459,0.062-0.672c0.299-0.004,0.601-0.004,0.899-0.004
				c6.871,0,11.253,0.883,14.516,1.547c0.469,0.092,0.911,0.178,1.324,0.258c3.998,0.766,23.957,1.549,24.193,1.559l26.493,0.152
				l25.5-0.145v-4.975l-24.755,0.141L104.939,197.612z M77.237,68.907c1.629-1.084,3.853-1.184,4.15-1.196
				c21.473-1.585,49.797-1.604,50.083-1.604h0.487c0.282,0,28.609,0.019,50.213,1.612c0.024,0,2.343,0.072,4.013,1.185
				c8.301,5.531,19.264,20.708,24.734,31.935H52.508C58.008,89.55,68.947,74.421,77.237,68.907z"/>
		</g>
		<g>
			<path fill="#FFFFFF" d="M253.208,157.85c1.377,0,2.493-1.117,2.493-2.49v-1.846c0-1.377-1.116-2.494-2.493-2.494h-40.356
				c-1.378,0-2.495,1.117-2.495,2.494v1.846c0,1.373,1.117,2.49,2.495,2.49H253.208z"/>
			<path fill="#FFFFFF" d="M190.547,168.704v1.234c0,1.377,1.116,2.492,2.493,2.492h81.939c1.374,0,2.49-1.115,2.49-2.492v-1.234
				c0-1.377-1.116-2.494-2.49-2.494h-81.939C191.664,166.209,190.547,167.327,190.547,168.704z"/>
			<path fill="#FFFFFF" d="M279.828,217.834c0.076-0.477-0.051-0.969-0.348-1.35l-2.298-2.969l2.298-2.969
				c0.297-0.381,0.424-0.873,0.348-1.352c-0.076-0.48-0.348-0.906-0.748-1.178l-3.1-2.111l1.264-3.537
				c0.166-0.455,0.131-0.961-0.089-1.395c-0.221-0.43-0.608-0.752-1.075-0.887l-3.602-1.055l0.113-3.752
				c0.014-0.482-0.172-0.951-0.514-1.295c-0.346-0.34-0.812-0.504-1.297-0.516l-3.751,0.113l-1.056-3.6
				c-0.133-0.467-0.456-0.855-0.889-1.076c-0.423-0.219-0.932-0.25-1.393-0.09l-3.534,1.27l-2.114-3.104
				c-0.271-0.402-0.697-0.674-1.178-0.748c-0.48-0.066-0.965,0.051-1.351,0.346l-2.968,2.299l-2.969-2.299
				c-0.385-0.295-0.869-0.412-1.35-0.346c-0.481,0.074-0.908,0.346-1.179,0.748l-2.114,3.104l-3.534-1.27
				c-0.454-0.16-0.962-0.129-1.392,0.09c-0.434,0.221-0.756,0.609-0.889,1.076l-1.057,3.6l-3.751-0.113
				c-0.485,0.021-0.952,0.176-1.296,0.516c-0.344,0.344-0.529,0.812-0.515,1.295l0.113,3.752l-3.601,1.055
				c-0.467,0.135-0.855,0.457-1.076,0.887c-0.219,0.434-0.254,0.939-0.088,1.395l1.264,3.537l-3.1,2.111
				c-0.4,0.271-0.673,0.697-0.748,1.178c-0.076,0.479,0.051,0.971,0.348,1.352l2.297,2.969l-2.297,2.969
				c-0.297,0.381-0.424,0.873-0.348,1.35c0.075,0.48,0.348,0.906,0.748,1.18l3.1,2.111l-1.264,3.537
				c-0.166,0.455-0.131,0.961,0.088,1.393c0.221,0.432,0.609,0.754,1.076,0.887l3.601,1.057l-0.113,3.752
				c-0.015,0.484,0.171,0.949,0.515,1.293c0.341,0.346,0.801,0.547,1.296,0.516l3.751-0.113l-1.318,0.041v34.383l14.849-10.789
				l14.85,10.789v-32.43l0.584-1.994l3.751,0.113c0.5,0.045,0.951-0.17,1.297-0.516c0.342-0.344,0.527-0.809,0.514-1.293
				l-0.113-3.752l3.602-1.057c0.467-0.133,0.854-0.455,1.075-0.887c0.22-0.432,0.255-0.938,0.089-1.393l-1.264-3.537l3.1-2.111
				C279.48,218.741,279.751,218.315,279.828,217.834z M262.927,260.965l-9.51-6.91v-15.234l-0.869-0.67l-2.773,2.146v13.758
				l-9.51,6.91V238.19c0.371,0.125,0.767,0.154,1.138,0.021l3.534-1.268l2.114,3.104c0.271,0.402,0.697,0.67,1.179,0.746
				c0.48,0.076,0.965-0.045,1.35-0.344l2.969-2.299l2.968,2.299c0.31,0.238,0.687,0.367,1.075,0.367
				c0.093,0,0.183-0.008,0.275-0.023c0.48-0.076,0.906-0.344,1.178-0.746l2.114-3.104l2.769,0.992V260.965z M273.568,214.592
				l1.985,2.566l-2.679,1.826c-0.664,0.451-0.938,1.293-0.667,2.049l1.097,3.057l-3.117,0.91c-0.77,0.223-1.292,0.938-1.268,1.74
				l0.1,3.244l-3.247-0.098c-0.808-0.02-1.515,0.5-1.741,1.268l-0.907,3.113l-3.058-1.096c-0.764-0.271-1.598,0-2.049,0.668
				l-1.827,2.68l-2.567-1.984c-0.315-0.246-0.693-0.367-1.074-0.367c-0.382,0-0.76,0.121-1.075,0.367l-2.567,1.984l-1.827-2.68
				c-0.446-0.668-1.288-0.932-2.048-0.668l-3.059,1.096l-0.906-3.113c-0.224-0.768-0.979-1.299-1.742-1.268l-3.246,0.098
				l0.099-3.244c0.024-0.803-0.497-1.518-1.267-1.74l-3.117-0.91l1.096-3.057c0.271-0.756-0.002-1.598-0.666-2.049l-2.68-1.826
				l1.986-2.566c0.49-0.633,0.49-1.52,0-2.15l-1.986-2.568l2.68-1.828c0.664-0.449,0.938-1.291,0.666-2.047l-1.096-3.059
				l3.117-0.906c0.77-0.227,1.291-0.941,1.267-1.742l-0.099-3.246l3.246,0.1c0.773,0.041,1.519-0.498,1.742-1.268l0.906-3.113
				l3.059,1.096c0.752,0.262,1.598-0.004,2.048-0.666l1.827-2.684l2.567,1.986c0.632,0.488,1.519,0.488,2.149,0l2.567-1.986
				l1.827,2.684c0.451,0.662,1.293,0.934,2.049,0.666l3.058-1.096l0.907,3.113c0.227,0.77,0.924,1.299,1.741,1.268l3.247-0.1
				l-0.1,3.246c-0.024,0.801,0.498,1.516,1.268,1.742l3.117,0.906l-1.097,3.059c-0.271,0.756,0.003,1.598,0.667,2.047l2.679,1.828
				l-1.985,2.568C273.077,213.073,273.077,213.959,273.568,214.592z"/>
			<path fill="#FFFFFF" d="M296.676,124.225H172.045c-3.312,0-6.009,2.697-6.009,6.012v94.82c0,3.316,2.697,6.012,6.009,6.012
				h51.801v-7.035h-50.772v-92.771h122.58v92.771h-14.417v7.035h15.439c3.315,0,6.013-2.695,6.013-6.012v-94.82
				C302.689,126.922,299.992,124.225,296.676,124.225z"/>
		</g>
	</g>
</g>
</svg>
