<?xml version="1.0" encoding="utf-8"?>
<!-- Generator: Adobe Illustrator 16.0.0, SVG Export Plug-In . SVG Version: 6.00 Build 0)  -->
<!DOCTYPE svg PUBLIC "-//W3C//DTD SVG 1.1//EN" "http://www.w3.org/Graphics/SVG/1.1/DTD/svg11.dtd">
<svg version="1.1" id="Layer_1" xmlns="http://www.w3.org/2000/svg" xmlns:xlink="http://www.w3.org/1999/xlink" x="0px" y="0px"
	 width="68.354px" height="51.926px" viewBox="0 0 68.354 51.926" enable-background="new 0 0 68.354 51.926" xml:space="preserve">
<g>
	<g>
		<rect x="0" y="-0.001" fill="none" width="68.354" height="51.928"/>
	</g>
</g>
<g>
	<path opacity="0.6" fill="#FFFFFF" enable-background="new    " d="M43.939,45.5c-4.2,0-12.021-2.893-20.234-11.041
		c-10.026-9.958-13.285-20.649-9.939-24.02c0.229-0.229,0.461-0.478,0.7-0.731c1.38-1.461,3.096-3.281,5.312-3.281
		c1.632,0,3.2,0.96,4.798,2.933c4.251,5.245,2.815,7.376,0.143,10.027l-0.408,0.409c-0.146,0.148-1.247,1.653,5.581,8.431
		c4.997,4.959,7.131,5.699,7.958,5.699c0,0,0,0,0.002,0c0.294,0,0.429-0.096,0.513-0.182l0.404-0.412
		c1.298-1.326,2.522-2.578,4.448-2.578c1.545,0,3.318,0.842,5.581,2.646c1.924,1.535,2.893,3.047,2.965,4.625
		c0.104,2.287-1.747,4.061-3.234,5.483c-0.254,0.242-0.5,0.479-0.729,0.709C46.965,45.057,45.631,45.5,43.939,45.5z M19.776,8.17
		c-1.462,0-2.833,1.454-4.042,2.734c-0.249,0.265-0.491,0.522-0.729,0.764c-2.328,2.344,0.447,12.136,9.93,21.55
		c7.334,7.281,14.831,10.537,19.005,10.537c1.199,0,2.13-0.271,2.619-0.766c0.24-0.24,0.496-0.486,0.761-0.74
		c1.297-1.242,2.767-2.649,2.698-4.146c-0.046-1.033-0.823-2.158-2.31-3.34c-1.91-1.527-3.38-2.268-4.493-2.268
		c-1.136,0-1.917,0.744-3.2,2.053L39.6,34.973c-0.453,0.457-1.06,0.697-1.753,0.697l0,0c-2.003,0-4.922-1.971-9.187-6.205
		c-5.638-5.596-7.414-9.058-5.592-10.899l0.418-0.417c2.132-2.115,3.307-3.28-0.271-7.692C21.99,8.941,20.831,8.17,19.776,8.17z"/>
	<path opacity="0.6" fill="#FFFFFF" enable-background="new    " d="M33.969,28.045c0,0-0.589-5.179,2.707-10.123
		c3.514-5.271,10.356-5.884,10.356-5.884L46.522,7.88l9.336,6.512l-7.296,9.533l-0.785-5.532
		C38.52,18.393,33.969,28.045,33.969,28.045z"/>
</g>
</svg>
