<?xml version="1.0" encoding="utf-8"?>
<!-- Generator: Adobe Illustrator 16.0.0, SVG Export Plug-In . SVG Version: 6.00 Build 0)  -->
<!DOCTYPE svg PUBLIC "-//W3C//DTD SVG 1.1//EN" "http://www.w3.org/Graphics/SVG/1.1/DTD/svg11.dtd">
<svg version="1.1" id="Layer_1" xmlns="http://www.w3.org/2000/svg" xmlns:xlink="http://www.w3.org/1999/xlink" x="0px" y="0px"
	 width="52.162px" height="35.143px" viewBox="0 0 52.162 35.143" enable-background="new 0 0 52.162 35.143" xml:space="preserve">
<g>
	<g>
		<path fill="#C4A139" d="M50.508,0H1.655C0.742,0,0,0.742,0,1.655v31.833c0,0.912,0.742,1.654,1.655,1.654h48.853
			c0.912,0,1.654-0.742,1.654-1.654V1.655C52.162,0.742,51.42,0,50.508,0z M50.428,1.733v23.349H1.734V1.733H50.428z M1.734,33.408
			v-6.593h48.694v6.593H1.734z"/>
	</g>
	<g>
		<path fill="#C4A139" d="M37.867,5.762h-6.051v6.051h6.051V5.762z M36.611,10.557h-3.539V7.018h3.539V10.557z"/>
		<path fill="#C4A139" d="M38.182,12.127h-6.68v-6.68h6.68V12.127z M33.388,10.241h2.907V7.333h-2.907V10.241z"/>
	</g>
	<g>
		<path fill="#C4A139" d="M46.883,5.762h-6.049v6.051h6.049V5.762z M45.627,10.557H42.09V7.018h3.537V10.557z"/>
		<path fill="#C4A139" d="M47.197,12.127h-6.68v-6.68h6.68V12.127z M42.404,10.241h2.908V7.333h-2.908V10.241z"/>
	</g>
	<g>
		<path fill="#C4A139" d="M37.867,14.779h-6.051v6.049h6.051V14.779z M36.611,19.572h-3.539v-3.537h3.539V19.572z"/>
		<path fill="#C4A139" d="M38.182,21.144h-6.68v-6.68h6.68V21.144z M33.388,19.258h2.907V16.35h-2.907V19.258z"/>
	</g>
	<g>
		<path fill="#C4A139" d="M46.883,14.779h-6.049v6.049h6.049V14.779z M45.627,19.572H42.09v-3.537h3.537V19.572z"/>
		<path fill="#C4A139" d="M47.197,21.144h-6.68v-6.68h6.68V21.144z M42.404,19.258h2.908V16.35h-2.908V19.258z"/>
	</g>
</g>
</svg>
