<?xml version="1.0" encoding="utf-8"?>
<!-- Generator: Adobe Illustrator 16.0.0, SVG Export Plug-In . SVG Version: 6.00 Build 0)  -->
<!DOCTYPE svg PUBLIC "-//W3C//DTD SVG 1.1//EN" "http://www.w3.org/Graphics/SVG/1.1/DTD/svg11.dtd">
<svg version="1.1" id="Layer_1" xmlns="http://www.w3.org/2000/svg" xmlns:xlink="http://www.w3.org/1999/xlink" x="0px" y="0px"
	 width="68.354px" height="51.926px" viewBox="0 0 68.354 51.926" enable-background="new 0 0 68.354 51.926" xml:space="preserve">
<g>
	<g>
		<rect x="0" y="-0.001" fill="none" width="68.354" height="51.928"/>
	</g>
</g>
<g>
	<rect x="45.019" y="24.573" fill="#C6A931" width="4.062" height="2.062"/>
	<rect x="43.066" y="27.558" fill="#C6A931" width="2.062" height="2.062"/>
	<rect x="45.128" y="34.428" fill="#C6A931" width="2.062" height="2.062"/>
	<rect x="50.066" y="34.428" fill="#C6A931" width="2.062" height="2.062"/>
	<polygon fill="#C6A931" points="47.079,31.683 47.079,33.634 49.142,33.634 49.142,31.571 47.191,31.571 47.191,29.62 
		45.128,29.62 45.128,31.683 	"/>
	<rect x="50.066" y="27.558" fill="#C6A931" width="2.062" height="2.062"/>
	<rect x="40.081" y="34.428" fill="#C6A931" width="2.062" height="2.062"/>
	<path fill="#C6A931" d="M55.755,8.405H12.599c-2.424,0-4.395,1.973-4.395,4.396v26.322c0,2.424,1.971,4.396,4.395,4.396h43.156
		c2.424,0,4.395-1.973,4.395-4.396V12.802C60.15,10.378,58.179,8.405,55.755,8.405z M31.227,38.49H14.56v-2h16.667V38.49z
		 M31.227,33.49H14.56v-2h16.667V33.49z M54.159,38.49h-16v-16h16V38.49z"/>
	<rect x="40.081" y="24.573" fill="#C6A931" width="2.062" height="2.062"/>
	<polygon fill="#C6A931" points="44.097,31.571 42.185,31.571 42.185,29.62 40.122,29.62 40.122,31.571 40.081,31.571 
		40.081,33.634 44.097,33.634 	"/>
</g>
<rect x="0" y="-0.001" fill="none" width="68.354" height="51.928"/>
</svg>
