<?xml version="1.0" encoding="utf-8"?>
<!-- Generator: Adobe Illustrator 16.0.0, SVG Export Plug-In . SVG Version: 6.00 Build 0)  -->
<!DOCTYPE svg PUBLIC "-//W3C//DTD SVG 1.1//EN" "http://www.w3.org/Graphics/SVG/1.1/DTD/svg11.dtd">
<svg version="1.1" id="Layer_1" xmlns="http://www.w3.org/2000/svg" xmlns:xlink="http://www.w3.org/1999/xlink" x="0px" y="0px"
	 width="68.354px" height="51.926px" viewBox="0 0 68.354 51.926" enable-background="new 0 0 68.354 51.926" xml:space="preserve">
<rect x="0" y="-0.001" fill="none" width="68.354" height="51.928"/>
<path opacity="0.6" fill="#FFFFFF" d="M47.383,8.208H20.971c-2.512,0-4.549,2.038-4.549,4.55v26.411
	c0,2.514,2.037,4.551,4.549,4.551h13.031c-1.173-1.586-2.367-3.17-3.376-4.508c-0.885-1.174-1.606-2.121-2.018-2.697
	c-3.335-4.652-5.99-8.791-4.632-12.393c0.782-2.1,2.779-3.644,6.278-4.858l-0.493-1.832c-0.206-0.7,0.144-1.42,0.864-1.606
	l7.679-2.1l0.535,1.935l3.664-1.009c0.576-0.144,1.153,0.186,1.297,0.742l0.021,0.062c0.144,0.556-0.186,1.153-0.742,1.296
	l-3.664,1.009l0.392,1.462l3.685-1.009c0.556-0.144,1.132,0.186,1.297,0.742v0.062c0.164,0.556-0.186,1.132-0.741,1.297
	l-3.664,1.008l0.535,1.935l-7.699,2.121c-0.721,0.185-1.379-0.268-1.585-0.968l-0.474-1.75c-2.203,0.782-3.521,1.688-3.891,2.676
	c-0.741,1.975,1.791,5.723,4.199,9.098c0.392,0.557,1.111,1.504,1.977,2.637c1.462,1.934,3.314,4.383,4.94,6.648h8.996
	c2.512,0,4.549-2.037,4.549-4.551V12.757C51.932,10.246,49.895,8.208,47.383,8.208z"/>
</svg>
