<?xml version="1.0" encoding="utf-8"?>
<!-- Generator: Adobe Illustrator 16.0.0, SVG Export Plug-In . SVG Version: 6.00 Build 0)  -->
<!DOCTYPE svg PUBLIC "-//W3C//DTD SVG 1.1//EN" "http://www.w3.org/Graphics/SVG/1.1/DTD/svg11.dtd">
<svg version="1.1" id="Layer_1" xmlns="http://www.w3.org/2000/svg" xmlns:xlink="http://www.w3.org/1999/xlink" x="0px" y="0px"
	 width="316.176px" height="272.059px" viewBox="0 0 316.176 272.059" enable-background="new 0 0 316.176 272.059"
	 xml:space="preserve">
<g>
	<g>
		<g>
			<g>
				<g>
					<rect x="0" y="0" fill="none" width="316.176" height="272.059"/>
				</g>
			</g>
		</g>
	</g>
	<g opacity="0.6">
		<path fill="#FFFFFF" d="M72.405,156.571c-5.115-0.042-9.458,4.35-9.237,9.298c0.231,4.707,4.566,8.633,9.404,8.48
			c4.963-0.138,8.866-4.116,8.829-8.963C81.364,160.593,77.323,156.615,72.405,156.571z"/>
		<path fill="#FFFFFF" d="M84.249,104.32c-3.073-0.867-22.9-1.418-24.86,14.458c-1.959,15.875,14.658,15.064,14.658,15.064
			s9.527,0.743,16.418-11.485C97.357,110.131,87.323,105.187,84.249,104.32z"/>
		<path fill="#FFFFFF" d="M243.605,156.571c-4.917,0.045-8.958,4.022-8.996,8.815c-0.036,4.847,3.867,8.825,8.83,8.963
			c4.837,0.152,9.173-3.773,9.404-8.48C253.064,160.92,248.721,156.529,243.605,156.571z"/>
		<path fill="#FFFFFF" d="M231.761,104.32c-3.074,0.867-13.107,5.811-6.216,18.037c6.891,12.229,16.418,11.485,16.418,11.485
			s16.617,0.811,14.657-15.064C254.661,102.902,234.834,103.453,231.761,104.32z"/>
		<path fill="#FFFFFF" d="M163.994,117.884c-0.712,0.003-1.424,0-2.136,0.005c-0.113,0.003-0.184-0.042-0.258-0.113
			c0,0,0,0.003,0.002,0.003c-0.79-0.89-2.096-1.473-3.578-1.473c-1.564,0-2.926,0.652-3.698,1.625
			c0.025-0.035,0.043-0.071,0.069-0.104c-0.078,0.029-0.154,0.081-0.233,0.081c-1.926,0.003-3.853,0.01-5.781,0.018
			c0.102,0.236,0.291,0.419,0.456,0.613c0.461,0.537,0.934,1.062,1.473,1.531c0.099,0.087,0.204,0.166,0.309,0.247
			c0.012,0.013,0.024,0.022,0.036,0.037c0.01-0.005,0.018,0.002,0.018,0.01c0.106,0.074,0.22,0.138,0.288,0.249
			c0,0.01,0.008,0.014,0.018,0.017c0.054,0.003,0.096,0.03,0.133,0.066c0.015,0,0.032,0,0.046,0.003
			c0.032-0.086,0.111-0.047,0.166-0.049c0.751,0,1.502,0,2.253,0c0.229,0,0.301,0.083,0.281,0.374
			c-0.052-0.199-0.181-0.199-0.322-0.21c-0.757-0.044-1.516-0.032-2.269-0.113c-0.032-0.002-0.055,0.008-0.071,0.032
			c0.367,0.354,0.819,0.604,1.236,0.899c0.227,0.16,0.465,0.222,0.749,0.206c0.406-0.017,0.814-0.002,1.224-0.005
			c0.098,0,0.177,0.016,0.254,0.087c0.027,0.027,0.057,0.044,0.084,0.068c0.8,0.725,1.967,1.192,3.283,1.192
			c1.396,0,2.625-0.524,3.426-1.327c0.172-0.044,0.356-0.052,0.557-0.037c0.224,0.02,0.45-0.012,0.675,0.008
			c0.332,0.029,0.608-0.057,0.871-0.244c0.39-0.275,0.794-0.535,1.192-0.799c0.032-0.021,0.069-0.029,0.116-0.044
			c-0.165-0.133-0.283-0.037-0.394-0.044c-0.616,0.034-1.234,0.076-1.85,0.099c-0.174,0.007-0.257,0.059-0.311,0.214
			c-0.062,0.163-0.139,0.343-0.393,0.271c0,0.003-0.002,0.003-0.004,0.006c0.122-0.189,0.221-0.392,0.297-0.602
			c0.03-0.014,0.06-0.037,0.1-0.037c0.719,0,1.438,0.006,2.16,0.006c0.356,0.059,0.609-0.106,0.866-0.315
			c0.85-0.695,1.643-1.439,2.343-2.269c0.051-0.062,0.133-0.113,0.115-0.21c-0.829,0.003-1.66,0.003-2.487,0.006
			C164.866,117.871,164.431,117.882,163.994,117.884z M153.655,119.944c0-0.316-0.231-0.288-0.466-0.293
			c-0.98-0.023-1.963-0.052-2.943-0.079c-0.034,0-0.076,0.01-0.09-0.06c0.068-0.005,0.135-0.012,0.201-0.012
			c1.027-0.003,2.055,0.002,3.081-0.008c0.143-0.003,0.207,0.039,0.234,0.119c-0.003,0.044-0.018,0.088-0.018,0.132
			c0,0.074,0.021,0.146,0.03,0.22C153.669,119.956,153.655,119.948,153.655,119.944z M153.957,118.51
			c-0.024,0.01-0.029,0.041-0.062,0.041c-0.32-0.009-0.638-0.02-0.958-0.029c-0.712-0.017-1.424-0.034-2.136-0.054
			c-0.023,0.015-0.052,0.042-0.073,0.037c-0.572-0.086-1.148-0.011-1.725-0.04c-0.017,0-0.039-0.015-0.057-0.021
			c-0.007-0.055,0.032-0.06,0.066-0.06c0.569,0,1.138,0,1.707,0c0.027,0,0.052,0.018,0.079,0.029
			c0.98-0.002,1.963-0.005,2.945-0.007c0.053,0,0.104-0.005,0.153,0.002c0.029,0.003,0.065-0.002,0.096,0.008
			C153.977,118.446,153.973,118.481,153.957,118.51z M158.025,122.867c-2.15,0-3.897-1.399-3.897-3.124
			c0-1.724,1.747-3.123,3.897-3.123c2.152,0,3.896,1.399,3.896,3.123C161.92,121.468,160.177,122.867,158.025,122.867z
			 M165.125,119.534c-0.786,0.029-1.572,0.062-2.357,0.086c-0.146,0.003-0.219,0.013-0.21,0.183
			c0.004,0.097,0.089,0.296-0.113,0.291c-0.049,0-0.07-0.013-0.093-0.027c0.015-0.108,0.042-0.212,0.042-0.323
			c0-0.022-0.008-0.044-0.008-0.066c0.013-0.15,0.064-0.196,0.333-0.196c0.8-0.003,1.603-0.005,2.406-0.005
			c0.272-0.021,0.552-0.03,0.822-0.006c0.005,0.022,0.005,0.03,0.005,0.035C165.679,119.512,165.401,119.557,165.125,119.534z
			 M167.281,118.355c-0.286,0.133-0.564,0.032-0.846,0C166.716,118.355,166.996,118.355,167.281,118.355z M166.337,118.429
			c-0.443,0.009-0.882,0.026-1.32,0.036c-0.87,0.018-1.734,0.037-2.604,0.05c-0.136,0.003-0.173,0.029-0.104,0.149
			c0.034,0.06,0.052,0.126,0.076,0.192c0.013,0.039,0.058,0.094-0.027,0.113c-0.065,0.016-0.091-0.024-0.107-0.074
			c-0.027-0.068-0.055-0.145-0.082-0.216c0.01,0.02,0.008,0.044,0.015,0.063c-0.017-0.047-0.034-0.093-0.054-0.138
			c0.008,0.018,0.025,0.032,0.032,0.052c-0.032-0.089-0.062-0.172-0.097-0.266c1.429,0,2.85,0,4.271,0
			C166.337,118.405,166.337,118.413,166.337,118.429z"/>
		<path fill="#FFFFFF" d="M156.578,118.908c-0.15,0.249-0.298,0.503-0.453,0.756c-0.025-0.02-0.032-0.024-0.037-0.028
			c-0.081-0.178-0.163-0.353-0.241-0.53c-0.155-0.337-0.155-0.332-0.534-0.323c-0.104,0.006-0.136,0.035-0.144,0.129
			c-0.031,0.406-0.076,0.81-0.113,1.212c-0.005,0.071-0.059,0.196,0.096,0.163c0.122-0.025,0.331,0.127,0.35-0.136
			c0.016-0.2,0.038-0.399,0.053-0.604c0.015-0.002,0.026-0.002,0.039-0.002c0.091,0.207,0.185,0.408,0.271,0.616
			c0.032,0.071,0.055,0.138,0.163,0.13c0.104-0.004,0.192,0.003,0.249-0.113c0.091-0.185,0.201-0.362,0.308-0.541
			c0.02-0.035,0.029-0.09,0.086-0.069c0.057,0.012,0.039,0.063,0.039,0.104c-0.007,0.149-0.015,0.3-0.026,0.453
			c-0.007,0.089-0.024,0.196,0.128,0.16c0.11-0.027,0.312,0.12,0.322-0.136c0.013-0.406,0.037-0.812,0.055-1.215
			c0.002-0.046,0.021-0.101-0.022-0.14C157.075,118.721,156.64,118.808,156.578,118.908z M156.684,119.546
			c-0.009-0.007-0.02-0.017-0.032-0.026c0.013-0.018,0.023-0.032,0.035-0.052c0.01,0.01,0.027,0.024,0.024,0.029
			C156.706,119.518,156.694,119.53,156.684,119.546z"/>
		<path fill="#FFFFFF" d="M159.818,118.781c-0.09-0.017-0.19-0.026-0.181,0.121c0.011,0.231,0,0.463,0,0.749
			c-0.261-0.291-0.487-0.53-0.701-0.781c-0.136-0.155-0.315-0.096-0.468-0.079c-0.109,0.016-0.048,0.153-0.053,0.234
			c-0.017,0.364-0.015,0.729-0.032,1.096c-0.007,0.133,0.028,0.197,0.175,0.168c0.113-0.02,0.299,0.086,0.281-0.157
			c-0.015-0.227-0.002-0.456-0.002-0.686c0.271,0.234,0.497,0.466,0.696,0.719c0.142,0.181,0.323,0.113,0.495,0.116
			c0.072,0.006,0.064-0.057,0.064-0.104c-0.005-0.426-0.016-0.854-0.02-1.281C160.071,118.69,159.911,118.798,159.818,118.781z"/>
		<path fill="#FFFFFF" d="M160.8,120.29c0.094-0.01,0.125-0.034,0.123-0.123c-0.008-0.206-0.003-0.413-0.003-0.621
			c-0.012,0-0.026,0-0.042,0c0-0.211,0-0.423,0-0.635c0-0.243-0.196-0.111-0.305-0.138c-0.121-0.03-0.16,0.026-0.158,0.145
			c0.02,0.357,0.02,0.715,0.028,1.071C160.452,120.32,160.452,120.318,160.8,120.29z"/>
		<path fill="#FFFFFF" d="M157.58,118.918c0.003,0.215,0,0.427,0,0.639c-0.015,0-0.031,0-0.047,0c0,0.197,0.011,0.396-0.004,0.594
			c-0.005,0.112,0.032,0.149,0.142,0.138c0.061-0.005,0.118-0.005,0.176,0c0.104,0.012,0.152-0.013,0.155-0.128
			c0.002-0.411,0.015-0.825,0.034-1.234c0.008-0.12-0.039-0.172-0.158-0.146C157.773,118.808,157.575,118.675,157.58,118.918z"/>
		<path fill="#FFFFFF" d="M158.219,116.845c-0.906,0-1.663,0.194-2.343,0.618c-1.854,1.155-1.874,3.356-0.044,4.478
			c1.44,0.882,3.566,0.697,4.811-0.414c1.246-1.113,1.251-2.761-0.006-3.817C159.925,117.108,159.071,116.857,158.219,116.845z
			 M160.213,121.623c-0.664,0.458-1.489,0.707-2.312,0.689c-0.842-0.013-1.613-0.227-2.264-0.746
			c-1.285-1.029-1.28-2.671-0.002-3.734c1.209-1.007,3.183-1.128,4.521-0.275C161.75,118.572,161.778,120.544,160.213,121.623z"/>
		<path fill="#FFFFFF" d="M156.083,171.512h-56.85c0,0,0,6.049,2.809,7.191c2.808,1.143,9.737,2.125,13.67,2.45
			c3.168,0.264,30.058,0.634,40.371,0.767v0.052c0,0,0.734-0.01,2.003-0.027c1.271,0.018,2.004,0.027,2.004,0.027v-0.052
			c10.311-0.133,37.204-0.503,40.372-0.767c3.931-0.325,10.858-1.308,13.67-2.45c2.81-1.143,2.81-7.191,2.81-7.191H160.09H156.083z"
			/>
		<path fill="#FFFFFF" d="M129.614,159.883h56.95c0.663,0,1.202-0.539,1.202-1.202v-8.101c0-0.662-0.539-1.201-1.202-1.201h-56.95
			c-0.664,0-1.203,0.539-1.203,1.201v8.101C128.41,159.344,128.949,159.883,129.614,159.883z"/>
		<path fill="#FFFFFF" d="M263.008,90.735c2.435-0.924,6.62-2.35,7.35-6.921c0.967-6.059-4.66-8.886-11.128-9.345
			c-6.466-0.459-9.862,2.058-10.882,5.404c-1.093,3.583,1.23,7.556,1.23,7.556l-2.051,2.345v-0.301h-0.24l-2.821-3.531
			c-1.922-4.29-16.057-35.688-19.472-38.814c-2.656-3.984-7.283-5.335-16.012-6.093c-4.396-0.382-27.106-1.394-49.942-1.402v-8.132
			h-0.56V20.469h-0.333h-0.119h-0.333v11.032h-0.56v8.132c-22.836,0.008-45.547,1.021-49.942,1.402
			c-8.729,0.758-13.355,2.109-16.012,6.093c-3.415,3.126-17.55,34.525-19.472,38.814l-2.821,3.531h-0.24v0.301l-2.051-2.345
			c0,0,2.323-3.973,1.23-7.556c-1.02-3.346-4.416-5.863-10.883-5.404c-6.467,0.459-12.094,3.286-11.127,9.345
			c0.729,4.571,4.915,5.997,7.35,6.921c3.783,1.433,8.06,0.413,8.06,0.413l2.263,4.2l-0.343,0.367
			c-1.254,1.52-2.488,2.899-3.677,4.229c-5.603,6.263-10.441,11.675-11.887,25.354c-0.501,4.73,0.114,11.473,1.134,22.643
			l0.515,5.689c0.529,5.933,0.747,10.96,0.922,15c0.297,6.901,0.527,11.398,2.062,13.926c0,18.536,0.596,20.756,5.365,20.756
			c6.471,0,16.458,0,19.074,0c2.615,0,4.888-1.532,5.674-4.663c1.116-4.44,1.191-8.492,1.498-10.643l71.491,1.885h2.709h0.119h2.709
			l71.491-1.885c0.307,2.15,0.382,6.202,1.498,10.643c0.786,3.131,3.059,4.663,5.675,4.663c2.615,0,12.603,0,19.073,0
			c4.77,0,5.365-2.22,5.365-20.756c1.534-2.527,1.766-7.024,2.062-13.926c0.175-4.04,0.393-9.067,0.922-15l0.515-5.689
			c1.02-11.17,1.635-17.912,1.134-22.643c-1.445-13.68-6.284-19.091-11.887-25.354c-1.188-1.33-2.423-2.709-3.677-4.229
			l-0.343-0.367l2.263-4.2C254.948,91.148,259.225,92.168,263.008,90.735z M73.781,87.392l0.166-0.273
			c6.096-13.616,15.829-34.334,18.637-37.8h65.445h0.119h65.445c2.808,3.465,12.541,24.184,18.637,37.8l0.166,0.273l1.665,2.081
			H72.115L73.781,87.392z M96.326,145.877c0.521-1.334,1.174-2.561,1.913-3.705h119.698c0.739,1.145,1.39,2.371,1.912,3.705H96.326z
			 M220.381,147.453c0.616,2.033,0.993,4.248,0.993,6.699c0,8.827-15.066,8.196-25.756,8.196c-7.266,0-67.795,0-75.062,0
			c-10.688,0-25.755,0.631-25.755-8.196c0-2.451,0.376-4.666,0.993-6.699H220.381z M99.332,140.596
			c1.321-1.7,2.858-3.16,4.514-4.414H212.33c1.655,1.254,3.193,2.714,4.514,4.414H99.332z M106.145,134.606
			c5.003-3.057,10.596-4.414,14.412-4.414c3.395,0,71.668,0,75.062,0c3.817,0,9.409,1.357,14.413,4.414H106.145z M194.812,107.754
			c-1.387,4.179-4.67,14.071-5.79,17.445c-15.251,0-46.612,0-61.865,0c-1.12-3.374-4.405-13.266-5.793-17.445
			c-1.292-3.892-5.875-12.121-7.948-15.759h89.347C200.69,95.633,196.105,103.862,194.812,107.754z M254.825,101.623
			c5.53,6.183,9.899,11.069,11.26,23.94c0.473,4.485-0.167,11.51-1.138,22.147l-0.516,5.692c-0.535,5.992-0.755,11.052-0.931,15.117
			c-0.396,9.183-0.674,13.267-3.084,13.848l-21.738,2.955l-77.855,2.045h-2.676h-0.119h-2.676l-77.855-2.045l-21.738-2.955
			c-2.41-0.581-2.688-4.665-3.084-13.848c-0.176-4.065-0.396-9.125-0.931-15.117l-0.516-5.692
			c-0.971-10.638-1.61-17.662-1.138-22.147c1.36-12.871,5.729-17.758,11.26-23.94c1.211-1.354,2.465-2.756,3.692-4.246l4.993-5.382
			h26.476c1.894,3.495,6.043,11.372,8.28,17.293c2.393,6.337,4.028,14.219,4.723,17.364c-11.685,3.385-21.719,12.685-21.719,27.071
			c0,14.771,24.297,14.403,29.641,14.403c4.126,0,77.177,0,81.302,0c5.345,0,29.641,0.367,29.641-14.403
			c0-14.387-10.033-23.685-21.717-27.068c0.694-3.146,2.33-11.03,4.723-17.367c2.235-5.921,6.385-13.798,8.278-17.293h26.477
			l4.993,5.382C252.361,98.867,253.615,100.269,254.825,101.623z"/>
	</g>
</g>
</svg>
