<?xml version="1.0" encoding="utf-8"?>
<!-- Generator: Adobe Illustrator 16.0.0, SVG Export Plug-In . SVG Version: 6.00 Build 0)  -->
<!DOCTYPE svg PUBLIC "-//W3C//DTD SVG 1.1//EN" "http://www.w3.org/Graphics/SVG/1.1/DTD/svg11.dtd">
<svg version="1.1" id="Layer_1" xmlns="http://www.w3.org/2000/svg" xmlns:xlink="http://www.w3.org/1999/xlink" x="0px" y="0px"
	 width="316.176px" height="272.059px" viewBox="0 0 316.176 272.059" enable-background="new 0 0 316.176 272.059"
	 xml:space="preserve">
<g>
	<g>
		<g>
			<g>
				<g>
					<g>
						<g>
							<g>
								<g>
									<g>
										<rect x="0" y="0" fill="none" width="316.176" height="272.059"/>
									</g>
								</g>
							</g>
						</g>
					</g>
				</g>
			</g>
		</g>
	</g>
	<path opacity="0.6" fill="#FFFFFF" d="M249.813,122.055c-6.979,0-13.5,1.927-19.125,5.231l-0.229-0.917l-0.447-1.792l-0.586,0.065
		l5.172-4.857l13.654-3.996l7.514,0.145c0.648,1.137,1.852,2.703,3.99,3.961c0.932,0.546,1.834,0.824,2.676,0.824
		c2.352,0,3.645-1.981,3.848-3.822l0.025-0.215l-0.023-0.217l-0.135-1.427l6.604-0.116c2.684,10.977,9.131,14.783,9.408,14.944
		l0.486,0.28h0.564h1.41h4.088l-2.361-3.338c-5.746-8.113-5.406-9.358-4.596-12.373c0.105-0.396,0.229-0.847,0.344-1.331
		c1.326-5.523-1.439-8.019-1.76-8.284l-0.51-0.425l-0.656-0.057l-17.031-1.521c-0.148-0.458-0.34-0.974-0.578-1.564
		c-2.203-5.515-6.408-5.942-7.646-5.942c-0.256,0-0.467,0.015-0.617,0.031h-26.826h-1.871l-0.227,1.859
		c-0.018,0.13-0.033,0.262-0.051,0.396c-0.816-0.212-1.824-0.34-3.068-0.34c-0.527,0-0.887,0.023-0.926,0.029l-0.264,0.018
		l-0.254,0.086c-12.32,4.104-21.477,6.103-27.986,6.103c-5.748,0-8.971-1.479-12.043-3.698c-6.434-4.646-14.287-8.331-14.619-8.485
		l-0.17-0.078l-0.18-0.049c-10.88-2.887-20.402-4.353-28.305-4.353c-8.692,0-14.015,1.774-17.155,3.54
		c-1.326-3.151-4.425-4.658-6.334-5.309l-6.246-1.828l-1.491-1.412l-0.24-0.227l-0.834-8.518c0,0,2.783,0.339,7.929-2.292
		c2.48-1.269,2.996-4.229,2.996-4.229l4.933-2.819c1.159-2.317-1.524-4.16-2.993-3.349l-4.407,2.82c0,0-4.837-0.196-4.581-3.348
		c0.653-8.061,3.247-13.624,3.247-13.624c0.021,0,1.9,0.233,1.92,0.233c4.817,0,5.054-2.644,5.054-2.644s1.894-11.039-0.888-11.039
		c-0.156,0-0.329,0.045-0.521,0.114c-6.891,2.481-8.284,17.797-8.284,17.797l-2.291,10.925l-2.818,2.114
		c-0.347-0.044-0.678-0.065-0.991-0.065c-3.351,0-3.747,1.243-4.824,2.356s-1.188,6.891,4.405,6.696
		c0.396,2.354,0.971,6.471,1.247,8.494l-0.518,0.282l-7.276,1.743l-0.06-0.088c0,0-1.308-5.179-5.865-6.919
		c-2.504-0.955-6.376-0.944-9.407,2.453c-2.093,2.349-2.915,5.601-2.449,9.669c0.115,0.987,0.306,2.157,0.632,3.335
		c-0.899-0.158-1.72-0.228-2.408-0.228h-3.17h-1.329l-0.576,1.196c-2.203,4.573-2.414,9.856-1.963,14.353l-0.002,0.014l0.007,0.026
		c0.559,5.521,2.112,9.845,2.23,10.164l0.206,0.559l0.305,0.826h1.473h3.35h1.305l0.32-0.642c0.281,0.758,0.676,1.391,1.067,1.89
		l-5.794,10.884c-2.654-0.368-5.4-0.555-8.186-0.555c-12.932,0-22.75,3.916-23.162,4.082l-4.555,1.844l4.47,2.041l2.307,1.053
		c-10.094,6.443-16.818,17.713-16.818,30.549c0,19.985,16.261,36.247,36.249,36.247c18.513,0,33.805-13.963,35.96-31.902
		c0.798,6.466,13.095,12.769,18.976,13.636c12.645,1.864,33.939,1.699,69.764-5.093l0.689,0.621l1.832,0.503
		c0,0,0.496-0.084,1.301-0.106c1,0.179,2.092,0.301,3.32,0.295c0.271,0.05,0.545,0.081,0.816,0.145
		c0.723,0.175,1.406,0.259,2.033,0.259c1.426,0,2.457-0.435,3.18-1.024c4.447,1.739,14.486,2.424,14.486,2.424l0.299-0.067
		c0.045-0.011,1.824-0.425,4.619-1.099c6.963,8.145,17.289,13.333,28.818,13.333c20.918,0,37.934-17.015,37.934-37.93
		S270.731,122.055,249.813,122.055z M273.596,158.165l-4.893-2.209l1.525-0.955l3.02,0.869
		C273.401,156.624,273.518,157.389,273.596,158.165z M268.293,155.77l-2.963-1.336l0.834-0.604l3.58,1.031L268.293,155.77z
		 M273.149,155.449l-2.49-0.718l1.982-1.243C272.842,154.131,273.004,154.785,273.149,155.449z M272.508,153.131l-2.334,1.461
		l-3.621-1.041l4.717-3.413C271.746,151.104,272.166,152.098,272.508,153.131z M271.106,149.793l-5.01,3.626l-2.619-0.754
		l-0.102,0.362l2.332,0.671l-0.771,0.557l-0.02-0.008l-0.014,0.034l-0.959,0.693l0.221,0.303l0.814-0.59l2.932,1.323l-3.307,2.071
		c-0.41-2.849-1.578-5.448-3.32-7.574l1.734-3.636l6.225-0.111C269.936,147.722,270.561,148.732,271.106,149.793z M264.174,165.824
		l0.512-0.054l0.594,0.817l-1.812-0.064c0.229-0.521,0.438-1.048,0.607-1.595l0.355,0.491l-0.297,0.031L264.174,165.824z
		 M265.114,165.724l3.227-0.348l1.141,1.368l-3.725-0.137L265.114,165.724z M262.78,146.502l-3.406,0.062l0.494-0.903l3.592-0.586
		L262.78,146.502z M268.965,146.391l-5.768,0.104L263.91,145l3.424-0.56C267.912,145.06,268.455,145.712,268.965,146.391z
		 M267.033,144.11l-2.926,0.479l1.059-2.223C265.823,142.913,266.44,143.498,267.033,144.11z M264.864,142.131l-1.207,2.53
		l-3.557,0.583l2.562-4.672C263.426,141.054,264.162,141.57,264.864,142.131z M262.342,140.378l-2.715,4.94l-2.688,0.44l0.059,0.37
		l2.398-0.391l-0.457,0.834h-0.021v0.038l-0.566,1.033l0.328,0.182l0.484-0.883l3.434-0.062l-1.584,3.32
		c-1.1-1.274-2.402-2.362-3.861-3.225l0.145-0.074l-2.201-4.229l2.494-4.517C259.268,138.718,260.854,139.472,262.342,140.378z
		 M257.936,174.256c0.588-0.235,1.129-0.463,1.58-0.679c0.014-0.005,0.029-0.013,0.043-0.021l0.697-0.184l0.361,2.062
		L257.936,174.256z M260.696,175.877l0.297,1.69l-3.162-1.973l-0.111-1.025L260.696,175.877z M254.877,143.069l1.922,3.692
		c-1.01-0.56-2.092-1.002-3.225-1.328L254.877,143.069z M253.198,145.337c-0.08-0.023-0.162-0.044-0.244-0.064l-0.387-0.638
		l1.312-3.487l0.791,1.52L253.198,145.337z M257.424,175.344l-0.887-0.552c-0.062,0.023-0.129,0.047-0.191,0.069
		c0.34-0.124,0.682-0.245,0.986-0.364L257.424,175.344z M257.233,138.025l-2.344,4.246l-0.83-1.595l1.195-3.175
		C255.922,137.652,256.586,137.82,257.233,138.025z M254.887,137.407l-1.062,2.82l-1.668-3.209
		C253.08,137.1,253.994,137.222,254.887,137.407z M250.094,136.916c0.549,0,1.088,0.043,1.629,0.083l1.924,3.7l-1.328,3.527
		l-3.621-5.959l-0.322,0.194l1.314,2.162l0.035-0.016l-1.598,0.749l-19.34,9.049C232.59,142.445,240.698,136.916,250.094,136.916z
		 M196.688,164.582c-1.301,0.864-2.758,0.889-3.689,0.766l2.662-2.397c0.883-0.277,1.777-0.787,2.504-1.776l-0.293-0.215
		l4.311-3.882l7.35,5.658l-1.756,0.818l-0.225,2.496l-9.041-3.307l-1.979,1.781L196.688,164.582z M192.178,165.581l-9.043,8.142
		l9.102-23.95l0.053-0.14c2.377,0.005,4.398-0.999,5.049-2.54c0.502-1.199,7.975-4.2,12.92-5.94c0.23,0.044,0.957,0.17,1.914,0.189
		c2.166,0.035,5.045-0.487,6.459-3.201c0.422-0.811,0.479-1.481,0.174-2c-0.195-0.326-0.541-0.572-1.016-0.75l0.574-0.05
		l6.873-8.104l3.172-0.353l0.529,2.114l-8.457,9.868v1.23l-18.602,16.748l-6.414,5.777c-1.723,0.513-3.379,0.008-3.402,0
		l-0.119,0.357c0.016,0.005,0.828,0.268,1.918,0.268c0.314,0,0.652-0.026,1-0.084l-2.342,2.11c-0.264-0.056-0.449-0.108-0.457-0.11
		l-0.119,0.357C191.949,165.522,192.043,165.548,192.178,165.581z M197.74,161.078c-0.34,0.427-0.717,0.746-1.109,1L197.74,161.078z
		 M203.774,155.788l-0.418,0.232l16.227-14.609l-5.799,7.323l7.752,7.4l27.49-12.864c0,0,0.217,0.306,0.568,0.812l-38.158,17.767
		L203.774,155.788z M124.421,101.676c2.38,0,4.309,1.336,4.309,2.983s-1.929,2.983-4.309,2.983s-4.31-1.336-4.31-2.983
		S122.041,101.676,124.421,101.676z M42.858,136.225c0,0,9.702-3.929,22.37-3.929c2.98,0,6.127,0.218,9.348,0.753l7.225-13.568
		c0,0-1.937-1.409-1.937-3.698h-2.996l-0.16,0.321c-2.031-4.94-1.521-17.948-0.723-22.526c0,0,7.75-0.106,10.235,2.628
		c3.362,3.698,2.98,8.476,2.98,8.476s1.412-6.653-1.902-9.139c-3.388-2.541-4.109-2.685-7.458-3.895
		c-2.071-9.233,6.67-13.721,10.026-12.595c4.314,1.447,7.09,10.12,7.09,10.12l0.589,0.112l-0.884-3.272l7.167-2.654l3.17,2.997
		l2.468,0.701c0,0,7.397,0.707,8.281,5.288c0.066,0.349,0.158,1.098,0.215,1.551c0,0-3.485,3.222-5.324,11.084
		c-3.381,1.833-8.653,10.673-8.457,12.861c0.199,2.191,14.977,14.273,14.977,14.273s18.355-0.145,24.663-2.527
		c0,0-4.816-3.553-7.623-9.772c-2.346-5.197-1.205-8.483,0.538-10.506c4.496-5.231,10.636-5.772,15.479-5.898
		c15.902-0.412,22.484,7.098,22.865,7.473c1.594,1.572,3.141,3.279,4.627,4.99h6.006l0.039,0.129
		c0.008,0.016,0.893,2.009,11.582,6.165c7.379-0.531,19.223-1.717,19.74-2.659c0.77-1.406,9.092-7.403,9.445-7.66l0.076-0.031
		l32.184-6.295c0.086-0.096,1.621-1.214,1.666-0.736l18.533,1.655c0,0,2.115,1.76,1.059,6.166c-1.059,4.407-2.465,5.466,4.582,15.42
		h-1.41c0,0-5.811-3.48-8.459-13.833c-0.279-1.093-0.881-1.408-0.881-1.408l-10.045,0.175l0.355,3.701c0,0-0.219,1.941-1.748,1.941
		c-0.426,0-0.951-0.149-1.604-0.531c-2.992-1.764-3.697-4.231-3.697-4.231l-9.164-0.176l-14.449,4.229l-17.445,16.389l0.117,0.816
		c-0.16-0.01-0.299-0.034-0.473-0.037c-2.035-0.036-4.289,0.438-4.367,0.456l-14.59,2.028c-5.314-2.269-11.318-6.031-11.344-6.135
		c-0.061-0.251-0.291-0.365-1.479-0.386c-0.65-0.013-1.484,0.013-2.293,0.046c3.125-1.03,4.855-4.055,4.615-4.339
		c-0.072-0.083-9.982-13.333-15.389-17.153c-5.406-3.817-12.706-5.15-20.741-4.236c-8.033,0.917-11.538,4.687-11.971,5.189
		c-6.31,7.336,7.381,18.15,7.389,18.15c0.04-0.014,32.821,3.47,32.821,3.47s0.121-0.039,0.295-0.096
		c0.031-0.011,0.061-0.021,0.096-0.034l9.32,11.29c-0.002,0.034,0,0.113-0.002,0.163c-0.158,0.005-0.32,0.041-0.486,0.135
		c-0.334,0.182-7.471,2.758-14.873,4.801c-0.529-2.095-2.395-3.651-4.635-3.651c-2.266,0-4.154,1.59-4.66,3.722l-3.994,0.95
		c0,0-0.484-0.06-0.533-0.119l-0.086-0.104l-18.75,6.801c-1.813-3.305-4.217-5.845-9.09-5.845c-4.728,0-12.535,2.292-17.037,4.91
		c-0.677-1.181-2.544-4.017-4.9-4.02c-0.859,0-1.787,0.387-2.74,1.378c-0.952,0.991-1.709,1.375-2.307,1.375
		c-2.063,0-2.276-4.547-2.276-4.547l0.946-7.038l-3.939-1.07l-2.82-7.926c0,0-0.585,0.585-1.201,0.585
		c-0.506,0-1.028-0.391-1.264-1.82l1.409-5.285c0,0,0-1.411-4.761-2.468l-1.995,2.302l1.367-3.457l11.101-22.378l1.271-2.831
		c0.179-0.06,0.308-0.152,0.37-0.282c0.301-0.621-0.914-1.833-2.714-2.708c-1.802-0.873-3.505-1.078-3.806-0.456
		c-0.021,0.041-0.035,0.085-0.042,0.129c-0.005-0.008-0.011-0.014-0.015-0.019L83.99,119.737l-3.438,6.961l-3.858,9.49
		c0,0-5.639-0.808-10.044-0.984c-3.109-0.125-1.795,2.225-0.753,3.62c-0.664-0.023-1.349-0.036-2.063-0.036
		c-3.604,0-7.868,0.315-12.87,1.135L42.858,136.225z M80.06,170.362c-0.034-0.438-0.091-0.87-0.159-1.298l2.073,0.596l-1.452,0.912
		L80.06,170.362z M80.141,170.81l-0.057,0.036c-0.001-0.021-0.003-0.041-0.003-0.062L80.141,170.81z M79.839,168.656
		c-0.002-0.013-0.004-0.028-0.007-0.044l5.75-4.159c0.229,0.853,0.408,1.723,0.536,2.612l-3.717,2.328L79.839,168.656z
		 M79.751,168.205c-0.609-2.803-1.96-5.325-3.827-7.371l0.27-0.561l7.261-1.018c0.854,1.501,1.536,3.112,2.026,4.805L79.751,168.205
		z M77.493,180.388l1.222,1.823l-2.326-0.329C76.787,181.408,77.153,180.908,77.493,180.388z M75.155,160.037
		c-0.332-0.315-0.674-0.622-1.03-0.909l2.559-0.746l-0.741,1.547L75.155,160.037z M75.747,160.335l-0.097,0.199
		c-0.051-0.054-0.097-0.111-0.148-0.166L75.747,160.335z M75.643,152.414l0.24-0.606h0.674c0.835,0.572,1.644,1.184,2.394,1.859
		l-2.048,4.263l-3.154,0.916c-0.105-0.08-0.208-0.157-0.315-0.235l2.446-6.101L75.643,152.414z M76.388,159.866l0.781-1.623
		l3.531-1.028l-0.104-0.36l-3.21,0.932l1.854-3.855c1.559,1.456,2.906,3.129,4.001,4.975L76.388,159.866z M72.008,150.047
		l-2.95,6.336c-0.471-0.155-0.962-0.256-1.45-0.367l1.756-3.325l2.045-3.39C71.565,149.545,71.757,149.793,72.008,150.047z
		 M57.632,155.117l-0.591-4.104l0.96,0.381l1.337,4.536L57.632,155.117z M59.218,156.287c-0.459,0.14-0.907,0.309-1.348,0.487
		l-0.175-1.212L59.218,156.287z M52.183,160.729l-1.057,0.176l-4.482-4.774c1.282-1.569,2.78-2.952,4.438-4.126l-0.159,0.338
		l6.366,3.026l0.224,1.56C55.478,157.816,53.674,159.123,52.183,160.729z M53.506,183.781l-1.276,0.958l0.176-1.994
		C52.755,183.107,53.122,183.451,53.506,183.781z M51.774,161.177c-0.062,0.072-0.132,0.14-0.192,0.212l-0.146-0.155L51.774,161.177
		z M50.989,161.309l0.359,0.384c-0.275,0.349-0.542,0.706-0.789,1.077l-1.438-1.147L50.989,161.309z M48.727,161.309l-3.678-2.934
		c0.423-0.671,0.875-1.318,1.364-1.938l4.267,4.542L48.727,161.309z M56.636,150.853l0.587,4.071l-6.139-2.922
		c1.627-1.152,3.414-2.082,5.32-2.771l0.172,1.19l-0.733-0.289l-0.14,0.349L56.636,150.853z M56.764,149.1
		c0.17-0.06,0.334-0.133,0.505-0.188l0.596,2.023l-0.887-0.353L56.764,149.1z M58.444,151.57l3.611,1.433l-0.983,2.877
		c-0.43,0.082-0.862,0.15-1.279,0.261L58.444,151.57z M58.309,151.112l-0.678-2.297c2.016-0.598,4.146-0.933,6.352-0.933
		c0.182,0,0.356,0.021,0.536,0.026c-0.558,0.469-0.971,0.73-0.971,0.73l-1.371,4.005L58.309,151.112z M44.851,158.701l3.378,2.693
		l-5.127,0.861C43.581,161.013,44.168,159.827,44.851,158.701z M42.954,162.66l5.67-0.952l1.642,1.31l-7.998,1.901
		C42.456,164.15,42.687,163.396,42.954,162.66z M42.162,165.33l7.995-1.898c-1.357,2.273-2.166,4.904-2.247,7.72l-0.312,0.196
		l-5.905-3.048C41.782,167.287,41.941,166.299,42.162,165.33z M47.974,173.288l-1.896-0.547l1.535-0.961l0.287,0.148
		C47.911,172.384,47.928,172.84,47.974,173.288z M41.593,170.274c0-0.528,0.043-1.044,0.079-1.562l5.555,2.866l-1.632,1.023
		l-3.94-1.135C41.632,171.069,41.593,170.678,41.593,170.274z M41.674,171.866l3.491,1.005l-3.107,1.946
		C41.859,173.855,41.745,172.865,41.674,171.866z M42.156,175.198l3.492-2.188l2.39,0.687c0.03,0.233,0.064,0.464,0.104,0.691
		l-5.114,3.7C42.676,177.151,42.38,176.191,42.156,175.198z M43.162,178.454l5.045-3.652c0.567,2.803,1.878,5.33,3.701,7.396
		l-4.876,2.662C45.404,182.97,44.092,180.81,43.162,178.454z M51.491,188.845c-0.71-0.479-1.38-1.007-2.029-1.561l2.318-1.738
		L51.491,188.845z M49.178,187.025c-0.667-0.588-1.295-1.217-1.886-1.88l4.749-2.592l-0.217,2.488L49.178,187.025z M51.85,189.063
		l0.335-3.822l1.611-1.207c0.34,0.278,0.695,0.542,1.058,0.793l-0.116,5.557l0.376,0.009l0.112-5.327
		c2.334,1.515,5.083,2.43,8.038,2.549l-1.509,4.938C58.128,192.191,54.76,190.95,51.85,189.063z M62.143,192.572l1.507-4.938
		c0.091,0,0.18,0.014,0.271,0.014c0.028,0,0.057-0.006,0.085-0.006c0.029,0,0.057,0.006,0.086,0.006
		c0.087,0,0.169-0.011,0.254-0.014l0.169,0.205l-0.74,4.816C63.225,192.65,62.682,192.615,62.143,192.572z M64.154,192.656
		l0.681-4.428l3.312,4.032C66.85,192.507,65.518,192.647,64.154,192.656z M68.57,192.189l-3.659-4.457l0.02-0.127
		c0.88-0.047,1.745-0.152,2.583-0.334l3.864,4.112C70.466,191.704,69.534,191.986,68.57,192.189z M71.761,191.243l-3.833-4.081
		c3.073-0.759,5.795-2.4,7.887-4.648l2.409,5.026C76.312,189.119,74.126,190.364,71.761,191.243z M78.513,187.276l-2.424-5.057
		l2.903,0.409l1.687,2.514C80.004,185.901,79.285,186.618,78.513,187.276z M80.939,184.858l-1.445-2.159l2.818,0.397
		C81.883,183.707,81.425,184.293,80.939,184.858z M82.564,182.755l-3.353-0.474l-1.504-2.246c0.134-0.215,0.272-0.427,0.396-0.649
		l6.097,0.448C83.72,180.849,83.186,181.833,82.564,182.755z M84.377,179.472l-6.081-0.448c1.161-2.22,1.828-4.736,1.828-7.408
		c0-0.114-0.014-0.229-0.017-0.342l0.442-0.277l5.565,2.512C85.81,175.603,85.222,177.605,84.377,179.472z M86.175,173.122
		l-5.243-2.367l1.526-0.956l3.533,1.019l0.105-0.36l-3.211-0.924l3.295-2.064c0.116,0.92,0.195,1.852,0.195,2.805
		C86.376,171.242,86.294,172.187,86.175,173.122z M81.17,142.598l5.638-12.815l0.983-2.492v13.864l6.17,5.816l-1.06,1.411
		L81.17,142.598z M99.254,162.619c-0.903-4.504-2.658-8.693-5.064-12.43l-0.647,0.865l1.051-1.406l1.059-1.409l1.135-1.512
		l-1.375-1.295l-5.503-5.189v-12.569l0.919-1.064c0.829,0.241,1.357,0.471,1.679,0.645l-1.119,4.192l-0.116,0.446l0.075,0.447
		c0.539,3.24,2.522,3.587,3.351,3.587c1.383,0,1.732,4.006,1.925,5.497l0.168,1.318l1.258,0.419l2.059,0.687l-0.496,5.215
		l-0.017,0.147l0.008,0.15c0.147,3.173,1.378,6.565,4.387,6.565c1.27,0,2.524-0.664,3.832-2.025
		c0.319-0.332,0.787-0.728,1.215-0.728c0.567,0,1.271,0.563,1.908,1.297c-1.507,0.564-3.64,1.435-6.43,2.747
		C101.917,158.438,100.286,160.486,99.254,162.619z M176.922,176.532c-1.209,0.632-0.877,2.62,0.365,3.531
		c-14.115,5.431-50.496,5.713-57.73,4.142c-7.234-1.572-16.722-8.717-16.047-13.217c0.667-4.451,0.208-5.959,5.906-6.671
		l-0.022,0.119c0,0,3.938,8.882,10.345,9.868c18.022,2.776,21.336-7.225,22.176-12.015l19.253-6.396l0.02-0.106
		c0.08-0.396,0.35-0.376,0.35-0.376l4.633-1.362c0.586,0.26,1.232,0.407,1.914,0.407c2.348,0,4.295-1.704,4.711-3.951
		c5.137-1.241,10.746-2.858,15.43-4.866c0.166,1.098,0.531,2.284,1.25,3.069c-0.611,1.871-7.836,23.854-10.564,26.481
		c-1.08-0.865-9.004-7.222-13.859-11.818l-0.062-0.062l-2.166,0.359L176.922,176.532z M199.805,175.569l-5.529-0.176
		c0,0-4.455-2.468-6.418,0c-1.334,1.681-1.182,2.937-0.947,3.576c-0.061,0.137-0.168,0.3-0.334,0.475l-4.885-0.045
		c0.074-0.09,0.156-0.176,0.211-0.279c0.418-0.823,0.066-1.732-0.059-2.002l0.998-2.626l9.793-8.817
		c0.328,0.058,0.744,0.112,1.227,0.112c0.99,0,2.215-0.216,3.287-1.033l10.18,3.771l-0.031,0.352
		C207.297,168.875,201.59,169.58,199.805,175.569z M214.252,175.569l-1.783,2.82l-8.562,0.353l4.281-4.053l4.102,0.528l43.66-16.381
		c0.131,0.257,0.312,0.618,0.531,1.064L214.252,175.569z M246.576,177.944c0.627-0.182,1.234-0.357,1.824-0.531l-1.789,3.212
		l-0.646-1.881L246.576,177.944z M245.819,178.317l-0.049-0.145c0.066-0.019,0.137-0.039,0.203-0.058L245.819,178.317z
		 M237.528,180.43c-0.115,0.03-0.23,0.06-0.348,0.09c0.539-0.143,1.08-0.284,1.617-0.428c2.408-0.639,4.57-1.24,6.611-1.816
		l0.139,0.4l-3.182,4.159C240.641,182.235,239.043,181.39,237.528,180.43z M242.735,182.972l2.957-3.871l0.676,1.963l-1.404,2.52
		C244.205,183.415,243.463,183.21,242.735,182.972z M245.338,183.679l1.193-2.142l0.844,2.455
		C246.688,183.912,246.006,183.817,245.338,183.679z M250.094,184.161c-0.777,0-1.547-0.044-2.305-0.117l-1.014-2.946l1.834-3.292
		l2.646,6.296C250.867,184.122,250.487,184.161,250.094,184.161z M251.655,184.08l-2.811-6.691l0.07-0.129
		c1.998-0.596,3.824-1.158,5.346-1.668c0.662-0.223,1.264-0.433,1.832-0.637l1.383,0.862l0.738,6.875
		C256.145,183.453,253.946,183.93,251.655,184.08z M258.576,182.561l-0.695-6.489l3.199,1.994l0.537,3.073
		C260.647,181.686,259.629,182.154,258.576,182.561z M261.961,180.929l-0.455-2.6l2.281,1.422
		C263.198,180.173,262.59,180.565,261.961,180.929z M264.11,179.51l-2.689-1.678l-0.312-1.774l4.701,2.067
		C265.264,178.614,264.698,179.075,264.11,179.51z M266.115,177.848l-5.086-2.232l-0.41-2.346l0.104-0.326
		c0.977-0.594,1.947-1.477,1.867-2.838c-0.025-0.438-0.127-0.964-0.271-1.536c0.344-0.543,0.693-1.088,0.969-1.675l2.275,0.085
		l4.268,5.878l0.299-0.221l-4.092-5.642l3.768,0.14l2.084,2.505C270.573,172.781,268.58,175.564,266.115,177.848z M272.039,169.233
		l-1.732-2.079l2.428,0.088C272.533,167.92,272.297,168.583,272.039,169.233z M272.83,166.865l-2.85-0.104l-1.193-1.435l4.518-0.483
		C273.178,165.53,273.016,166.203,272.83,166.865z M273.364,164.458l-4.865,0.525l-3.006-3.613l-0.287,0.238l2.848,3.421
		l-3.193,0.345l-0.553-0.764l-0.182,0.132c0.422-1.408,0.654-2.897,0.654-4.443c0-0.614-0.045-1.217-0.113-1.811l3.656-2.294
		l5.297,2.391c0.053,0.646,0.098,1.294,0.098,1.955C273.717,161.878,273.578,163.181,273.364,164.458z"/>
</g>
</svg>
