<?xml version="1.0" encoding="utf-8"?>
<!-- Generator: Adobe Illustrator 16.0.0, SVG Export Plug-In . SVG Version: 6.00 Build 0)  -->
<!DOCTYPE svg PUBLIC "-//W3C//DTD SVG 1.1//EN" "http://www.w3.org/Graphics/SVG/1.1/DTD/svg11.dtd">
<svg version="1.1" id="Layer_1" xmlns="http://www.w3.org/2000/svg" xmlns:xlink="http://www.w3.org/1999/xlink" x="0px" y="0px"
	 width="316.176px" height="272.059px" viewBox="0 0 316.176 272.059" enable-background="new 0 0 316.176 272.059"
	 xml:space="preserve">
<g>
	<g opacity="0.6">
		<ellipse fill="#FFFFFF" cx="158.088" cy="126.403" rx="6.737" ry="3.424"/>
		<path fill="#FFFFFF" d="M71.275,148.208c10.538-0.379,27.287-0.708,33.08-0.719c-0.149,10.608,18.288,13.967,23.887,13.967
			c5.586,0,10.597,0,16.885,0s10.461-3.16,10.461-10.891c0-7.729-1.602-14.345-1.602-14.345c-1.46-3.288-4.939-3.718-12.912-3.718
			c-7.964,0-20.625,0-24.832,0c-10.307,0-11.481,3.368-12.182,6.863c-0.76-1.445-2.101-1.662-3.915-2.125
			c-1.812-0.497-23.075-6.175-27.982-7.632c-4.918-1.468-14.287-4.531-15.727,0.398c-1.419,4.951-3.667,13.671,3.693,13.671
			C59.838,148.061,62.947,148.509,71.275,148.208z M107.603,138.5c1.414-2.276,3.699-3.788,7.944-3.731
			c5.679,0.085,25.2,0.594,28.646,0.881c3.451,0.297,6.331,1.426,6.747,6.536c0.407,5.112,1.537,11.646-2.158,14.06
			c-3.684,2.401-17.326,1.858-22.717,1.275c-5.4-0.579-17.606-3.122-18.463-7.947C106.748,144.743,106.175,140.768,107.603,138.5z"
			/>
		<path fill="#FFFFFF" d="M244.019,129.609c-4.908,1.457-26.172,7.135-27.982,7.632c-1.814,0.463-3.154,0.68-3.914,2.125
			c-0.701-3.495-1.877-6.863-12.182-6.863c-4.209,0-16.869,0-24.834,0c-7.973,0-11.451,0.43-12.91,3.718
			c0,0-1.602,6.615-1.602,14.345c0,7.73,4.172,10.891,10.459,10.891c6.289,0,11.299,0,16.885,0c5.6,0,24.037-3.358,23.887-13.967
			c5.795,0.011,22.543,0.34,33.08,0.719c8.328,0.302,11.438-0.146,11.146-4.529c7.359,0,5.111-8.72,3.693-13.671
			C258.306,125.078,248.937,128.141,244.019,129.609z M208.578,149.573c-0.855,4.825-13.062,7.368-18.461,7.947
			c-5.391,0.583-19.035,1.126-22.719-1.275c-3.695-2.413-2.564-8.947-2.158-14.06c0.418-5.11,3.297-6.239,6.748-6.536
			c3.447-0.287,22.967-0.796,28.646-0.881c4.244-0.057,6.529,1.455,7.943,3.731C210.007,140.768,209.433,144.743,208.578,149.573z"
			/>
		<path fill="#FFFFFF" d="M247.578,164.128c-3.447,0.141-10.668,0.988-22.891,2.128c-12.227,1.143-20.984,2.419-23.004,6.261
			l-43.531,0.191l-43.533-0.191c-2.02-3.842-10.777-5.118-23.003-6.261c-12.224-1.14-19.444-1.987-22.892-2.128
			c-3.461-0.146-7.732-1.035-7.47,5.679c0.263,6.73,0.826,11.295,8.348,12.167c7.524,0.887,20.932,1.662,28.914,2.26
			c7.982,0.612,19.015,2.005,18.122-1.475c7.713-0.335,3.123,2.59,9.148,2.763c4.969,0.13,25.438,0.045,32.365,0.012
			c6.926,0.033,27.395,0.118,32.363-0.012c6.027-0.173,1.438-3.098,9.15-2.763c-0.895,3.479,10.139,2.087,18.121,1.475
			c7.982-0.598,21.389-1.373,28.914-2.26c7.521-0.872,8.084-5.437,8.348-12.167C255.31,163.093,251.039,163.983,247.578,164.128z"/>
		<path fill="#FFFFFF" d="M271.419,125.559c-4.617-7.492-15.637-14.891-22.484-18.997h2.836c2.463,0,9.953,0,9.953-6.823
			c0-5.189-5.859-6.72-8.957-6.805c-0.031,0.001-3.33-0.02-6.131,0c-1.795,0.015-5.52,0.047-5.564,3.883
			c-6.111-11.695-17.033-26.366-25.547-32.028c-2.889-1.922-6.336-2.023-6.719-2.029c-21.609-1.602-50.247-1.62-50.533-1.62h-0.185
			h-0.185c-0.286,0-28.925,0.019-50.533,1.62c-0.384,0.006-3.83,0.107-6.719,2.029c-8.514,5.662-19.437,20.333-25.547,32.028
			c-0.046-3.836-3.77-3.868-5.565-3.883c-2.801-0.02-6.1,0.001-6.131,0c-3.098,0.085-8.957,1.615-8.957,6.805
			c0,6.823,7.491,6.823,9.953,6.823h2.836c-6.848,4.106-17.866,11.505-22.484,18.997c-4.043,6.577-5.479,32.577-5.383,39.936
			c0.062,5.361,0.545,13.633,1.012,21.652l0.709,13.304c0.267,7.143,3.555,10.47,10.347,10.47h26.86
			c11.578,0,11.693-10.819,11.708-11.036c0.305-0.003,0.606-0.005,0.906-0.005c6.906,0,11.308,0.891,14.586,1.554
			c0.47,0.095,0.911,0.184,1.329,0.264c4.018,0.767,24.071,1.556,24.307,1.564l26.619,0.152l0.332-0.002l0.332,0.002l26.618-0.152
			c0.236-0.009,20.289-0.798,24.307-1.564c0.418-0.08,0.859-0.169,1.33-0.264c3.277-0.663,7.68-1.554,14.586-1.554
			c0.299,0,0.602,0.002,0.906,0.005c0.014,0.217,0.129,11.036,11.707,11.036h26.861c6.791,0,10.08-3.327,10.346-10.47l0.709-13.304
			c0.467-8.02,0.949-16.291,1.012-21.652C276.9,158.136,275.462,132.136,271.419,125.559z M103.421,68.952
			c1.634-1.088,3.867-1.188,4.166-1.199c21.576-1.595,50.032-1.613,50.316-1.613h0.185h0.185c0.284,0,28.74,0.019,50.316,1.613
			c0.299,0.011,2.531,0.111,4.166,1.199c8.334,5.542,19.322,20.743,24.85,32.086h-79.517H78.572
			C84.099,89.695,95.087,74.494,103.421,68.952z M271.802,165.433c-0.061,5.256-0.539,13.475-1.002,21.422l-0.178,3.062
			c-0.207,3.556-0.381,3.578-2.033,3.785c-3.434,0.431-22.867,0.926-39.91,1.245c-1.121-0.044-2.291-0.067-3.418-0.067
			c-7.402,0-12.09,0.947-15.512,1.639c-0.49,0.099-0.928,0.188-1.342,0.267c-2.619,0.501-15.479,1.158-23.482,1.479l-26.837,0.148
			l-26.837-0.148c-8.004-0.32-20.863-0.978-23.482-1.479c-0.414-0.079-0.853-0.168-1.342-0.267
			c-3.422-0.691-8.109-1.639-15.512-1.639c-1.128,0-2.297,0.023-3.419,0.067c-17.042-0.319-36.477-0.814-39.909-1.245
			c-1.653-0.207-1.826-0.229-2.033-3.785l-0.178-3.062c-0.463-7.947-0.942-16.166-1.003-21.422
			c-0.129-9.828,1.894-32.783,4.641-37.254c5.687-9.227,23.817-19.117,25.999-20.284h83.075h83.075
			c2.182,1.167,20.312,11.058,25.998,20.284C269.91,132.65,271.931,155.605,271.802,165.433z"/>
	</g>
	<rect fill="none" width="316.176" height="272.059"/>
</g>
</svg>
