<?xml version="1.0" encoding="utf-8"?>
<!-- Generator: Adobe Illustrator 16.0.0, SVG Export Plug-In . SVG Version: 6.00 Build 0)  -->
<!DOCTYPE svg PUBLIC "-//W3C//DTD SVG 1.1//EN" "http://www.w3.org/Graphics/SVG/1.1/DTD/svg11.dtd">
<svg version="1.1" id="Layer_1" xmlns="http://www.w3.org/2000/svg" xmlns:xlink="http://www.w3.org/1999/xlink" x="0px" y="0px"
	 width="89.5px" height="86.465px" viewBox="0 0 89.5 86.465" enable-background="new 0 0 89.5 86.465" xml:space="preserve">
<g>
	<g>
		<circle fill="#A2AE00" cx="44.75" cy="43.233" r="35.375"/>
		<rect fill="none" width="89.5" height="86.465"/>
	</g>
	<path fill="#FFFFFF" d="M59.118,58.488h-3.653c-0.789-3.643-5.805-26.825-6.389-30.314c-0.599-3.572-1.291-6.306-4.234-6.306
		c-2.944,0-3.636,2.733-4.234,6.306c-0.583,3.489-5.6,26.671-6.388,30.314h-3.654c-1.034,0-1.876,0.841-1.876,1.876v3.475h32.305
		v-3.475C60.994,59.329,60.152,58.488,59.118,58.488z M44.842,23.443c1.302,0,1.962,0.693,2.681,4.991
		c0.183,1.086,0.806,4.164,1.854,9.151h-9.071c1.05-4.987,1.674-8.065,1.856-9.151C42.88,24.137,43.541,23.443,44.842,23.443z
		 M38.736,44.979c0.418-1.954,0.839-3.935,1.238-5.819h9.736c0.397,1.884,0.819,3.865,1.237,5.819H38.736z M35.832,58.488
		c0.425-1.969,1.456-6.736,2.568-11.936h12.884c1.113,5.199,2.143,9.967,2.568,11.936H35.832z M30.565,60.063h28.553
		c0.166,0,0.302,0.134,0.302,0.301v1.9H30.264v-1.9C30.264,60.197,30.4,60.063,30.565,60.063z"/>
</g>
</svg>
