<?xml version="1.0" encoding="utf-8"?>
<!-- Generator: Adobe Illustrator 16.0.0, SVG Export Plug-In . SVG Version: 6.00 Build 0)  -->
<!DOCTYPE svg PUBLIC "-//W3C//DTD SVG 1.1//EN" "http://www.w3.org/Graphics/SVG/1.1/DTD/svg11.dtd">
<svg version="1.1" id="Layer_1" xmlns="http://www.w3.org/2000/svg" xmlns:xlink="http://www.w3.org/1999/xlink" x="0px" y="0px"
	 width="107.353px" height="83.823px" viewBox="0 0 107.353 83.823" enable-background="new 0 0 107.353 83.823"
	 xml:space="preserve">
<g>
	<g>
		<linearGradient id="SVGID_1_" gradientUnits="userSpaceOnUse" x1="23.1631" y1="42.583" x2="84.188" y2="42.583">
			<stop  offset="0" style="stop-color:#FFFFFF"/>
			<stop  offset="1" style="stop-color:#C9C9C9"/>
		</linearGradient>
		<path fill="url(#SVGID_1_)" d="M82.586,39.152v-6.53l-12.98,0.001l-5.83-3.979l-6.234,4.133H50.84V18.785
			c0-2.464-1.545-4.698-4.467-4.698H27.554c-2.713,0-4.391,2.003-4.391,4.16v46.996c0,2.85,2.509,3.757,3.957,3.757h15.596v2.08
			h41.472V39.152H82.586z"/>
		<linearGradient id="SVGID_2_" gradientUnits="userSpaceOnUse" x1="26.1816" y1="41.6353" x2="47.8291" y2="41.6353">
			<stop  offset="0" style="stop-color:#FFFFFF"/>
			<stop  offset="1" style="stop-color:#C9C9C9"/>
		</linearGradient>
		<polygon fill="url(#SVGID_2_)" points="26.182,22.694 47.829,22.694 47.829,32.878 44.945,32.878 44.945,39.81 42.754,41.165 
			42.754,60.576 26.182,60.576 		"/>
		<g>
			<g>
				<polygon fill="#797468" points="44.51,69.83 63.504,56.76 82.495,69.83 				"/>
			</g>
			<polygon fill="#797468" points="43.801,43.688 59.706,58.885 43.801,69.83 			"/>
			<polygon fill="#797468" points="83.204,43.688 67.299,58.885 83.204,69.83 			"/>
			<g>
				<path fill="#797468" d="M64.694,42.612c-0.248-0.167-0.533-0.251-0.854-0.251c-0.715,0-1.324,0.353-1.828,1.061
					c-0.283,0.4-0.506,0.894-0.666,1.477c-0.146,0.533-0.219,0.994-0.219,1.389c0,1.145,0.488,1.717,1.465,1.717
					c0.891,0,1.588-0.477,2.092-1.433c0.422-0.802,0.633-1.633,0.633-2.493C65.317,43.371,65.11,42.882,64.694,42.612z"/>
				<path fill="#797468" d="M46.042,34.013v10.873l13.941,13.352l3.521-2.421l3.514,2.419l14.49-13.869V34.013H46.042z
					 M71.924,48.584c-1.006,0.999-2.367,1.5-4.08,1.5c-1.779,0-2.73-0.588-2.855-1.762c-0.555,0.583-1.064,1.002-1.531,1.258
					c-0.568,0.306-1.25,0.46-2.045,0.46c-1.006,0-1.795-0.336-2.361-1.007c-0.543-0.627-0.812-1.47-0.812-2.526
					c0-1.138,0.26-2.225,0.777-3.26c0.445-0.891,0.996-1.571,1.652-2.045c0.816-0.605,1.729-0.909,2.734-0.909
					c1.232,0,2.111,0.383,2.637,1.149l0.197-0.832h2.756l-1.367,5.732c-0.072,0.306-0.109,0.594-0.109,0.864
					c0,0.647,0.34,0.973,1.018,0.973c0.859,0,1.553-0.347,2.078-1.039c0.533-0.706,0.799-1.645,0.799-2.812
					c0-1.597-0.551-2.963-1.652-4.101c-1.414-1.459-3.387-2.189-5.918-2.189c-1.998,0-3.676,0.537-5.031,1.608
					c-0.979,0.78-1.695,1.801-2.154,3.063c-0.299,0.81-0.449,1.698-0.449,2.669c0,2.041,0.627,3.679,1.881,4.911
					c1.305,1.284,3.209,1.926,5.711,1.926c1.545,0,3.041-0.241,4.484-0.723l0.58,1.894c-1.006,0.298-1.881,0.505-2.621,0.623
					c-0.74,0.116-1.568,0.175-2.488,0.175c-3.535,0-6.197-1.099-7.984-3.293c-1.176-1.451-1.762-3.332-1.762-5.645
					c0-1.641,0.408-3.156,1.225-4.55c0.744-1.27,1.744-2.291,2.998-3.063c1.611-0.999,3.555-1.499,5.83-1.499
					c2.771,0,5.084,0.814,6.936,2.44c0.992,0.868,1.705,1.921,2.145,3.162c0.27,0.772,0.404,1.619,0.404,2.538
					C73.543,46.076,73.004,47.513,71.924,48.584z"/>
			</g>
			<g>
				<polygon fill="#797468" points="45.504,41.295 43.801,42.361 45.504,44.194 				"/>
				<polygon fill="#797468" points="81.967,41.587 81.967,43.692 83.204,42.361 				"/>
				<polygon fill="#797468" points="69.067,33.524 63.504,30.046 57.938,33.524 				"/>
			</g>
		</g>
		<path fill="#797468" d="M42.754,60.576H26.182V22.694h21.647v10.159h1.851V18.708c0-1.784-1.446-3.229-3.229-3.229H27.56
			c-1.783,0-3.229,1.445-3.229,3.229v45.758c0,1.785,1.445,3.23,3.229,3.23h15.194V60.576z M33.635,19.656h6.741
			c0.209,0,0.379,0.17,0.379,0.38s-0.17,0.38-0.379,0.38h-6.741c-0.21,0-0.379-0.17-0.379-0.38S33.425,19.656,33.635,19.656z
			 M37.005,66.271c-1.152,0-2.088-0.936-2.088-2.088c0-1.153,0.936-2.089,2.088-2.089c1.154,0,2.089,0.936,2.089,2.089
			C39.094,65.336,38.159,66.271,37.005,66.271z"/>
		<path opacity="0.6" fill="#C1BBAB" d="M42.052,22.694l2.894-7.215H27.56c-1.783,0-3.229,1.445-3.229,3.229v45.758
			c0,0.538,0.133,1.045,0.366,1.49l2.158-5.38h-0.674V22.694H42.052z M33.635,19.656h6.741c0.209,0,0.379,0.17,0.379,0.38
			s-0.17,0.38-0.379,0.38h-6.741c-0.21,0-0.379-0.17-0.379-0.38S33.425,19.656,33.635,19.656z"/>
		<g opacity="0.6">
			<path fill="#C1BBAB" d="M54.006,45.248c0-1.641,0.408-3.156,1.225-4.55c0.744-1.27,1.744-2.291,2.998-3.063
				c1.611-0.999,3.555-1.499,5.83-1.499c1.729,0,3.277,0.316,4.648,0.949c1.879-1.116,3.641-2.163,5.164-3.072h-27.83v10.873
				l3.581,3.431c1.217-0.697,2.717-1.57,4.393-2.552C54.01,45.595,54.006,45.424,54.006,45.248z"/>
			<path fill="#C1BBAB" d="M58.809,39.647c-0.979,0.78-1.695,1.801-2.154,3.063c-0.201,0.544-0.334,1.126-0.398,1.74
				c1.004-0.59,2.049-1.206,3.115-1.834c0.373-0.589,0.805-1.061,1.297-1.416c0.787-0.583,1.662-0.883,2.627-0.905
				c1.09-0.646,2.18-1.291,3.244-1.924c-0.816-0.221-1.713-0.334-2.699-0.334C61.842,38.039,60.165,38.576,58.809,39.647z"/>
		</g>
		<polygon fill="#C1BBAB" points="43.801,54.443 50.286,49.886 43.801,43.688 		"/>
	</g>
	<rect y="0.188" fill="none" width="107.354" height="83.446"/>
</g>
</svg>
