<?xml version="1.0" encoding="utf-8"?>
<!-- Generator: Adobe Illustrator 16.0.0, SVG Export Plug-In . SVG Version: 6.00 Build 0)  -->
<!DOCTYPE svg PUBLIC "-//W3C//DTD SVG 1.1//EN" "http://www.w3.org/Graphics/SVG/1.1/DTD/svg11.dtd">
<svg version="1.1" id="Layer_1" xmlns="http://www.w3.org/2000/svg" xmlns:xlink="http://www.w3.org/1999/xlink" x="0px" y="0px"
	 width="68.354px" height="51.926px" viewBox="0 0 68.354 51.926" enable-background="new 0 0 68.354 51.926" xml:space="preserve">
<g opacity="0.6">
	<path fill="#FFFFFF" d="M16.439,26.243c0.943,5.06,4.411,5.825,6.43,5.825c2.021,0,5.501-0.766,6.435-5.825
		c1.218-0.465,2.021-2.422,2.113-2.667c0.252-0.639,0.134-1.56-0.263-2.199c-0.156-0.236-0.341-0.435-0.554-0.567
		c0.441-2.088,0.007-4.776-1.079-6.49c-1.526-2.41-4.429-3.338-6.673-3.411c-2.203,0.072-5.103,1-6.628,3.411
		c-1.095,1.714-1.517,4.402-1.077,6.49c-0.212,0.132-0.399,0.331-0.552,0.567c-0.409,0.64-0.52,1.56-0.271,2.199
		C14.424,23.821,15.227,25.785,16.439,26.243z M15.669,22.061c0.086-0.133,0.182-0.206,0.279-0.214
		c0.188-0.007,0.364-0.102,0.482-0.271c0.112-0.155,0.144-0.359,0.08-0.551c-0.552-1.804-0.213-4.453,0.781-6.021
		c1.269-1.98,3.724-2.762,5.555-2.822c1.881,0.061,4.332,0.842,5.593,2.822c1.001,1.568,1.34,4.217,0.78,6.021
		c-0.051,0.192-0.021,0.396,0.088,0.551c0.11,0.169,0.293,0.265,0.482,0.271c0.099,0.008,0.188,0.082,0.276,0.214
		c0.2,0.317,0.252,0.819,0.157,1.047c-0.371,0.946-1.118,1.948-1.438,1.948c-0.325-0.031-0.634,0.221-0.672,0.544
		c-0.646,4.289-3.208,5.193-5.247,5.193c-2.037,0-4.6-0.904-5.242-5.193c-0.037-0.314-0.354-0.544-0.671-0.544
		c-0.321,0-1.073-1.001-1.441-1.948C15.418,22.88,15.47,22.378,15.669,22.061z"/>
	<path fill="#FFFFFF" d="M39.731,22.574c0.938,4.537,4.142,5.609,5.982,5.609c1.843,0,5.046-1.072,5.979-5.609
		c1.081-0.57,1.744-2.141,1.871-2.466c0.268-0.673,0.155-1.613-0.271-2.286c-0.109-0.17-0.236-0.321-0.379-0.448
		c0.321-1.91-0.093-4.226-1.042-5.728c-1.42-2.239-4.117-3.361-6.167-3.424L45.694,8.22L45.68,8.222
		c-2.032,0.063-4.708,1.185-6.128,3.424c-0.95,1.502-1.366,3.818-1.043,5.728c-0.143,0.126-0.271,0.275-0.379,0.448
		c-0.427,0.671-0.537,1.61-0.271,2.284C37.99,20.436,38.653,22.004,39.731,22.574z"/>
	<path fill="#FFFFFF" d="M40.407,40.039h22.758c0-3.211-0.713-4.828-2.227-6.441c-3.312-3.527-10.197-4.799-10.197-4.799
		l-3.607,7.514l-0.835-4.877l0.921-1.18l-0.921-0.939h-1.176l-0.919,0.939l0.919,1.18l-0.833,4.877l-3.607-7.514
		c0,0-5.87,1.094-9.377,4.045c-0.005-0.002-0.012-0.004-0.018-0.006c0.003-0.004,0.006-0.01,0.007-0.014
		c-1.68-0.504-3.062-0.768-4.1-0.904c-0.009,0-0.017,0.002-0.026,0c-0.004,0-0.014,0-0.018,0c-0.349-0.037-0.661,0.205-0.706,0.559
		c-0.052,0.347,0.199,0.664,0.546,0.717c1.858,0.232,4.892,0.91,8.819,2.767c3.17,1.494,3.4,4.164,3.421,6.465h-9.108H15.576H6.47
		c0.019-2.301,0.248-4.971,3.421-6.465c3.93-1.854,6.961-2.532,8.818-2.767c0.348-0.053,0.597-0.37,0.547-0.717
		c-0.044-0.354-0.36-0.596-0.707-0.559c-1.953,0.258-5.126,0.955-9.209,2.885c-4.152,1.955-4.152,5.688-4.152,8.156v0.744H15h15.701
		h9.812v-0.744c0-1.285-0.015-2.912-0.602-4.451C40.137,39.012,40.3,39.525,40.407,40.039z M50.731,35.277h4.31v2.533h-4.31V35.277z
		"/>
</g>
<g>
	<rect x="0" y="-0.001" fill="none" width="68.354" height="51.928"/>
</g>
</svg>
