<?xml version="1.0" encoding="utf-8"?>
<!-- Generator: Adobe Illustrator 16.0.0, SVG Export Plug-In . SVG Version: 6.00 Build 0)  -->
<!DOCTYPE svg PUBLIC "-//W3C//DTD SVG 1.1//EN" "http://www.w3.org/Graphics/SVG/1.1/DTD/svg11.dtd">
<svg version="1.1" id="Layer_1" xmlns="http://www.w3.org/2000/svg" xmlns:xlink="http://www.w3.org/1999/xlink" x="0px" y="0px"
	 width="68.354px" height="51.926px" viewBox="0 0 68.354 51.926" enable-background="new 0 0 68.354 51.926" xml:space="preserve">
<g>
	<path opacity="0.6" fill="#FFFFFF" d="M34.176,49.966c-0.362,0-0.695-0.195-0.872-0.512c-5.463-9.756-11.456-20.822-13.432-28.682
		c-0.02-0.074-0.031-0.15-0.041-0.227c-0.26-1.104-0.396-2.241-0.396-3.344c0-8.129,6.612-14.742,14.74-14.742
		c8.129,0,14.742,6.613,14.742,14.742c0,1.098-0.137,2.234-0.405,3.381c0.001,0.031-0.01,0.1-0.028,0.176
		c-1.977,7.867-7.972,18.938-13.437,28.695C34.871,49.771,34.538,49.966,34.176,49.966z M34.176,4.46
		c-7.025,0-12.74,5.717-12.74,12.742c0,0.949,0.118,1.932,0.351,2.918c0.008,0.035,0.024,0.141,0.029,0.176
		c1.81,7.204,7.21,17.377,12.36,26.62c5.152-9.246,10.555-19.422,12.366-26.631c0.004-0.023,0.019-0.135,0.023-0.158
		c0.234-0.996,0.353-1.98,0.353-2.924C46.918,10.177,41.202,4.46,34.176,4.46z M34.176,24.843c-4.212,0-7.639-3.428-7.639-7.641
		c0-4.213,3.427-7.641,7.639-7.641c4.213,0,7.64,3.428,7.64,7.641C41.816,21.416,38.389,24.843,34.176,24.843z M34.176,11.562
		c-3.109,0-5.639,2.531-5.639,5.641c0,3.111,2.529,5.641,5.639,5.641s5.64-2.53,5.64-5.641
		C39.816,14.093,37.285,11.562,34.176,11.562z"/>
	<g>
		<rect x="0" y="-0.001" fill="none" width="68.354" height="51.928"/>
	</g>
</g>
</svg>
