<?xml version="1.0" encoding="utf-8"?>
<!-- Generator: Adobe Illustrator 16.0.0, SVG Export Plug-In . SVG Version: 6.00 Build 0)  -->
<!DOCTYPE svg PUBLIC "-//W3C//DTD SVG 1.1//EN" "http://www.w3.org/Graphics/SVG/1.1/DTD/svg11.dtd">
<svg version="1.1" id="Layer_1" xmlns="http://www.w3.org/2000/svg" xmlns:xlink="http://www.w3.org/1999/xlink" x="0px" y="0px"
	 width="107.353px" height="83.823px" viewBox="0 0 107.353 83.823" enable-background="new 0 0 107.353 83.823"
	 xml:space="preserve">
<g>
	<g>
		<path fill="#787367" d="M34.1,17c-1.511,7.773-1.736,13.601-2.02,20.89c-0.061,1.581-0.125,3.228-0.206,4.981
			c-0.324,7.077-0.196,16.566-0.09,21.699l11.862-13.384l1.245,0.007c2.073,0,12.668-0.065,17.659-1.375
			c4.633-1.217,9.482-6.798,10.809-12.44c1.27-5.393,2.125-15.693,2.295-20.378H34.1z"/>
		<path opacity="0.6" fill="#C1BBAC" d="M34.1,17c-1.511,7.773-1.736,13.601-2.02,20.89c-0.061,1.581-0.125,3.228-0.206,4.981
			C35.171,38.036,54.343,17,54.343,17H34.1z"/>
		<linearGradient id="SVGID_1_" gradientUnits="userSpaceOnUse" x1="28.7744" y1="43.0371" x2="78.5796" y2="43.0371">
			<stop  offset="0" style="stop-color:#FFFFFF"/>
			<stop  offset="1" style="stop-color:#C9C9C9"/>
		</linearGradient>
		<path fill="url(#SVGID_1_)" d="M29.096,71.968l-0.113-3.64c-0.004-0.154-0.468-15.341,0.002-25.589
			c0.079-1.744,0.143-3.386,0.204-4.962c0.303-7.778,0.541-13.921,2.308-22.515l0.238-1.156H78.58v1.447
			c0,3.643-0.932,16.237-2.404,22.488c-1.572,6.688-7.234,13.092-12.891,14.578c-5.17,1.356-15.279,1.469-18.343,1.47L29.096,71.968
			z M34.1,17c-1.511,7.773-1.736,13.601-2.02,20.89c-0.061,1.581-0.125,3.228-0.206,4.981c-0.324,7.077-0.196,16.566-0.09,21.699
			l11.862-13.384l1.245,0.007c2.073,0,12.668-0.065,17.659-1.375c4.633-1.217,9.482-6.798,10.809-12.44
			c1.27-5.393,2.125-15.693,2.295-20.378H34.1z"/>
		<linearGradient id="SVGID_2_" gradientUnits="userSpaceOnUse" x1="45.4688" y1="34.3359" x2="61.8804" y2="34.3359">
			<stop  offset="0" style="stop-color:#FFFFFF"/>
			<stop  offset="1" style="stop-color:#C9C9C9"/>
		</linearGradient>
		<path fill="url(#SVGID_2_)" d="M61.88,29.181c0,0,0,3.852,0,5.865c0,2.015-2.133,4.444-4.977,4.444c-2.843,0-11.435,0-11.435,0
			s0-1.6,0-4.208c0-2.607,0.237-6.102,3.496-6.102C52.223,29.181,61.88,29.181,61.88,29.181z"/>
	</g>
	<rect y="0.188" fill="none" width="107.353" height="83.446"/>
</g>
</svg>
