<?xml version="1.0" encoding="utf-8"?>
<!-- Generator: Adobe Illustrator 16.0.0, SVG Export Plug-In . SVG Version: 6.00 Build 0)  -->
<!DOCTYPE svg PUBLIC "-//W3C//DTD SVG 1.1//EN" "http://www.w3.org/Graphics/SVG/1.1/DTD/svg11.dtd">
<svg version="1.1" id="Layer_1" xmlns="http://www.w3.org/2000/svg" xmlns:xlink="http://www.w3.org/1999/xlink" x="0px" y="0px"
	 width="68.354px" height="51.927px" viewBox="0 0 68.354 51.927" enable-background="new 0 0 68.354 51.927" xml:space="preserve">
<g>
	<path opacity="0.6" fill="#FFFFFF" d="M34.177,3.132c-12.609,0-22.832,10.223-22.832,22.833c0,12.609,10.223,22.832,22.832,22.832
		s22.832-10.223,22.832-22.832C57.009,13.354,46.786,3.132,34.177,3.132z M53.607,16.937c1.021,2.192,1.632,4.468,1.876,6.744
		c-0.666,3.29-2.502,6.629-5.278,9.598c0.223-3.827-0.453-7.984-2.105-12.056c1.863-2.056,3.333-4.232,4.352-6.43
		C52.87,15.477,53.259,16.19,53.607,16.937z M34.213,28.047c-3.917,1.726-7.864,2.757-11.553,3.123
		c-2.208-4.808-3.005-9.779-2.545-14.174c2.723-0.093,5.471-0.668,8.12-1.781L34.213,28.047z M29.856,14.458
		c2.553-1.311,4.759-3.042,6.581-5.063c3.66,2.476,6.952,6.282,9.212,11.063c-2.65,2.59-5.974,4.945-9.812,6.834L29.856,14.458z
		 M35.253,30.278l4.702,10.094c-2.608,1.131-5.245,1.877-7.803,2.256c-3.21-2.137-6.14-5.295-8.355-9.238
		C27.488,33.009,31.391,31.978,35.253,30.278z M36.876,29.524c3.784-1.862,7.08-4.188,9.743-6.764
		c1.595,4.232,2.126,8.512,1.697,12.346c-1.934,1.709-4.199,3.242-6.737,4.51L36.876,29.524z M51.139,12.889
		c-0.931,2.06-2.304,4.115-4.059,6.076c-2.375-4.725-5.771-8.466-9.548-10.884c0.701-0.906,1.332-1.857,1.888-2.851
		C43.994,6.379,48.157,9.027,51.139,12.889z M37.678,4.868c-0.482,0.816-1.017,1.603-1.608,2.352
		c-2.105-1.131-4.298-1.857-6.476-2.122C32.294,4.495,35.036,4.434,37.678,4.868z M34.979,8.492
		c-1.634,1.762-3.594,3.266-5.839,4.429l-3.112-6.68C28.974,6.037,32.06,6.84,34.979,8.492z M27.517,13.676
		c-2.336,0.974-4.751,1.507-7.155,1.624c0.614-3.302,1.987-6.184,4.042-8.307L27.517,13.676z M21.223,9.003
		c-1.195,1.835-2.048,3.978-2.537,6.311c-0.951-0.029-1.894-0.126-2.827-0.279C17.224,12.736,19.032,10.681,21.223,9.003z
		 M15.017,16.6c1.114,0.213,2.247,0.341,3.387,0.389c-0.578,4.447,0.101,9.453,2.189,14.31c-2.623,0.082-5.079-0.182-7.251-0.793
		C12.302,25.735,12.953,20.843,15.017,16.6z M14.854,34.994c-0.345-0.742-0.639-1.492-0.894-2.25
		c2.333,0.631,4.944,0.896,7.708,0.795c2.054,3.883,4.8,7.072,7.872,9.361c-4.055,0.211-7.792-0.531-10.737-2.139
		C17.22,39.111,15.874,37.179,14.854,34.994z M22.185,43.623c2.901,0.875,6.192,1.158,9.632,0.779
		c2.273,1.309,4.662,2.145,7.031,2.436C33.011,48.13,26.982,46.89,22.185,43.623z M34.463,43.976c2.073-0.424,4.171-1.08,6.249-1.98
		l1.722,3.697C39.817,45.876,37.088,45.273,34.463,43.976z M42.334,41.238c2.02-1.01,3.873-2.186,5.525-3.494
		c-0.694,2.838-1.984,5.307-3.804,7.189L42.334,41.238z M47.226,42.937c1.308-2.004,2.206-4.377,2.666-6.965
		c2.499-2.389,4.411-5.076,5.607-7.857C54.909,33.892,51.978,39.304,47.226,42.937z"/>
	<rect fill="none" width="68.354" height="51.927"/>
</g>
</svg>
