<?xml version="1.0" encoding="utf-8"?>
<!-- Generator: Adobe Illustrator 16.0.0, SVG Export Plug-In . SVG Version: 6.00 Build 0)  -->
<!DOCTYPE svg PUBLIC "-//W3C//DTD SVG 1.1//EN" "http://www.w3.org/Graphics/SVG/1.1/DTD/svg11.dtd">
<svg version="1.1" id="Layer_1" xmlns="http://www.w3.org/2000/svg" xmlns:xlink="http://www.w3.org/1999/xlink" x="0px" y="0px"
	 width="68.354px" height="51.926px" viewBox="0 0 68.354 51.926" enable-background="new 0 0 68.354 51.926" xml:space="preserve">
<rect x="0" y="-0.001" fill="none" width="68.354" height="51.928"/>
<path id="path4646" opacity="0.6" fill="#FFFFFF" d="M21.753,9.279c-2.35,0-4.272,1.923-4.272,4.272v2.502l11.729,3.641
	l6.824-10.415H21.753z M38.537,9.279l-7.229,11.072l10.263,3.185L47.234,9.33c-0.209-0.031-0.416-0.051-0.633-0.051H38.537z
	 M47.234,9.33c0.178,0.026,0.334,0.053,0.505,0.102C47.573,9.385,47.406,9.356,47.234,9.33z M47.739,9.432
	c0.171,0.048,0.344,0.108,0.505,0.177C48.077,9.537,47.915,9.48,47.739,9.432z M49.154,10.139l-5.08,12.766l6.799-2.806v-6.547
	C50.872,12.162,50.19,10.921,49.154,10.139z M17.481,18.253V33.9l7.027-2.907l3.741-9.403L17.481,18.253z M30.246,22.222
	l-3.033,7.659l11.88-4.903L30.246,22.222z M50.872,22.373l-5.611,2.326l5.611,1.744V22.373z M42.81,26.115l-6.572,16.531h10.363
	c2.35,0,4.271-1.923,4.271-4.272v-9.757L42.81,26.115z M40.307,26.722l-14.181,5.864l-3.994,10.061h11.855L40.307,26.722z
	 M23.447,33.698l-5.965,2.452v2.224c0,1.73,1.065,3.224,2.553,3.894L23.447,33.698z"/>
</svg>
