<?xml version="1.0" encoding="utf-8"?>
<!-- Generator: Adobe Illustrator 16.0.4, SVG Export Plug-In . SVG Version: 6.00 Build 0)  -->
<!DOCTYPE svg PUBLIC "-//W3C//DTD SVG 1.1//EN" "http://www.w3.org/Graphics/SVG/1.1/DTD/svg11.dtd">
<svg version="1.1" id="Layer_1" xmlns="http://www.w3.org/2000/svg" xmlns:xlink="http://www.w3.org/1999/xlink" x="0px" y="0px"
	 width="68.354px" height="51.926px" viewBox="0 0 68.354 51.926" enable-background="new 0 0 68.354 51.926" xml:space="preserve">
<g>
	<g>
		<rect x="0" y="-0.001" fill="none" width="68.354" height="51.928"/>
	</g>
</g>
<g>
	<path fill="#A7A7A7" d="M26.508,40.275c-0.16,0-0.321-0.049-0.458-0.148c-0.271-0.195-0.386-0.541-0.288-0.859L28.51,30.3
		l-7.492-5.637c-0.267-0.201-0.376-0.547-0.272-0.865c0.104-0.315,0.396-0.532,0.729-0.539l9.375-0.157l3.047-8.868
		c0.108-0.315,0.404-0.526,0.738-0.526c0.333,0,0.63,0.211,0.738,0.526l3.047,8.868l9.376,0.157
		c0.332,0.007,0.625,0.224,0.729,0.539c0.104,0.318-0.006,0.664-0.272,0.865L40.756,30.3l2.749,8.968
		c0.098,0.317-0.021,0.664-0.287,0.858c-0.271,0.194-0.636,0.199-0.908,0.008l-7.676-5.385l-7.678,5.385
		C26.823,40.229,26.665,40.275,26.508,40.275z M23.771,24.783l6.114,4.6c0.262,0.197,0.373,0.539,0.276,0.852l-2.242,7.318
		l6.266-4.395c0.271-0.189,0.627-0.188,0.897,0l6.265,4.393l-2.242-7.316c-0.097-0.312,0.016-0.653,0.277-0.852l6.114-4.6
		l-7.65-0.129c-0.328-0.006-0.618-0.217-0.725-0.527l-2.487-7.238l-2.487,7.238c-0.105,0.311-0.396,0.521-0.725,0.527L23.771,24.783
		z"/>
	<path fill="#A7A7A7" d="M15.902,35.688c-0.159,0-0.32-0.049-0.458-0.148c-0.271-0.195-0.386-0.541-0.287-0.859l2.367-7.729
		l-6.457-4.857c-0.266-0.201-0.376-0.547-0.271-0.865c0.103-0.315,0.396-0.533,0.729-0.539l8.08-0.137l2.626-7.643
		c0.108-0.314,0.404-0.527,0.738-0.527l0,0c0.333,0,0.63,0.213,0.737,0.527l1.951,5.68c0.141,0.407-0.077,0.852-0.484,0.992
		c-0.408,0.141-0.853-0.076-0.992-0.484l-1.212-3.531l-2.065,6.013c-0.106,0.312-0.396,0.521-0.726,0.526l-6.354,0.107l5.078,3.82
		c0.264,0.197,0.373,0.539,0.276,0.854l-1.862,6.078l5.205-3.65c0.354-0.248,0.839-0.162,1.087,0.189
		c0.247,0.354,0.162,0.84-0.19,1.088l-7.064,4.955C16.217,35.641,16.059,35.688,15.902,35.688z"/>
	<path fill="#A7A7A7" d="M6.225,31.468c-0.161,0-0.321-0.051-0.458-0.147c-0.271-0.197-0.386-0.543-0.288-0.861l1.963-6.402
		l-5.352-4.027c-0.266-0.198-0.376-0.547-0.272-0.864s0.396-0.533,0.729-0.539l6.696-0.112l2.176-6.333
		c0.107-0.316,0.405-0.527,0.738-0.527s0.63,0.211,0.737,0.527l1.639,4.768c0.141,0.407-0.076,0.852-0.484,0.991
		c-0.407,0.142-0.852-0.076-0.991-0.484l-0.899-2.619l-1.615,4.703c-0.107,0.311-0.396,0.521-0.727,0.527L4.845,20.15l3.974,2.99
		c0.263,0.196,0.373,0.536,0.276,0.852l-1.457,4.754l4.071-2.855c0.354-0.248,0.84-0.162,1.087,0.191
		c0.248,0.354,0.162,0.84-0.19,1.088l-5.932,4.158C6.539,31.421,6.383,31.468,6.225,31.468z"/>
	<path fill="#A7A7A7" d="M52.452,35.688c-0.158,0-0.314-0.047-0.449-0.142l-7.064-4.955c-0.352-0.248-0.438-0.733-0.19-1.088
		c0.248-0.353,0.733-0.438,1.088-0.188l5.205,3.649l-1.863-6.077c-0.096-0.314,0.016-0.656,0.277-0.854l5.078-3.82l-6.355-0.106
		c-0.328-0.006-0.617-0.217-0.725-0.527l-2.064-6.012l-1.213,3.529c-0.141,0.409-0.586,0.627-0.992,0.485
		c-0.408-0.142-0.625-0.585-0.484-0.992l1.951-5.68c0.107-0.315,0.404-0.527,0.738-0.527l0,0c0.332,0,0.629,0.212,0.738,0.527
		l2.625,7.643l8.078,0.138c0.334,0.006,0.627,0.223,0.729,0.539c0.104,0.317-0.008,0.664-0.272,0.864L50.83,26.95l2.369,7.729
		c0.098,0.317-0.021,0.663-0.287,0.858C52.775,35.639,52.613,35.688,52.452,35.688z"/>
	<path fill="#A7A7A7" d="M62.128,31.468c-0.156,0-0.312-0.047-0.447-0.143l-5.932-4.158c-0.354-0.248-0.439-0.733-0.191-1.088
		s0.734-0.438,1.088-0.19l4.07,2.854l-1.457-4.754c-0.096-0.314,0.016-0.654,0.277-0.853l3.973-2.99l-4.971-0.084
		c-0.328-0.006-0.619-0.217-0.726-0.526l-1.617-4.703l-0.897,2.619c-0.141,0.407-0.586,0.625-0.992,0.483
		c-0.408-0.14-0.625-0.584-0.484-0.99l1.638-4.769c0.108-0.315,0.403-0.526,0.737-0.526c0.335,0,0.632,0.211,0.738,0.525
		l2.176,6.334l6.695,0.113c0.334,0.006,0.627,0.223,0.73,0.539c0.104,0.318-0.009,0.666-0.273,0.865l-5.352,4.027l1.963,6.401
		c0.098,0.317-0.019,0.664-0.287,0.86C62.45,31.417,62.29,31.468,62.128,31.468z"/>
</g>
</svg>
