<?xml version="1.0" encoding="utf-8"?>
<!-- Generator: Adobe Illustrator 16.0.0, SVG Export Plug-In . SVG Version: 6.00 Build 0)  -->
<!DOCTYPE svg PUBLIC "-//W3C//DTD SVG 1.1//EN" "http://www.w3.org/Graphics/SVG/1.1/DTD/svg11.dtd">
<svg version="1.1" id="Layer_1" xmlns="http://www.w3.org/2000/svg" xmlns:xlink="http://www.w3.org/1999/xlink" x="0px" y="0px"
	 width="68.354px" height="51.926px" viewBox="0 0 68.354 51.926" enable-background="new 0 0 68.354 51.926" xml:space="preserve">
<g>
	<g>
		<rect x="0" y="-0.001" fill="none" width="68.354" height="51.928"/>
	</g>
</g>
<g>
	<path fill="none" d="M35.075,29.771c-0.259,0.225-0.579,0.336-0.898,0.336s-0.641-0.111-0.898-0.336l-4.486-3.845L16.81,39.619
		c0.255,0.078,0.509,0.158,0.789,0.158h33.156c0.281,0,0.535-0.08,0.789-0.158l-11.98-13.692L35.075,29.771z"/>
	<path fill="none" d="M14.999,14.106c-0.081,0.26-0.164,0.518-0.164,0.804v22.105c0,0.191,0.07,0.359,0.108,0.539l11.748-13.427
		L14.999,14.106z"/>
	<path fill="none" d="M51.273,12.252c-0.172-0.035-0.333-0.105-0.518-0.105H17.599c-0.184,0-0.346,0.07-0.519,0.105l17.097,14.654
		L51.273,12.252z"/>
	<path fill="none" d="M41.659,24.129l11.748,13.428c0.036-0.183,0.11-0.351,0.11-0.541V14.91c0-0.286-0.081-0.544-0.162-0.804
		L41.659,24.129z"/>
	<g>
		<polygon fill="none" points="15.379,15.148 15.379,36.232 25.921,24.182 		"/>
		<polygon fill="none" points="52.976,36.238 52.976,15.149 42.429,24.185 		"/>
		<path fill="none" d="M35.429,30.186c-0.688,0.599-1.812,0.601-2.506-0.004l-4.077-3.492L17.869,39.234h32.616L39.508,26.689
			L35.429,30.186z"/>
		<polygon fill="none" points="49.927,12.69 18.427,12.69 34.177,26.191 		"/>
		<path fill="#FFFFFF" d="M50.755,9.928H17.599c-2.748,0-4.982,2.234-4.982,4.981v22.106c0,2.745,2.234,4.981,4.982,4.981h33.156
			c2.747,0,4.981-2.236,4.981-4.981V14.91C55.738,12.163,53.502,9.928,50.755,9.928z M17.106,11.685
			c0.132-0.036,0.296-0.081,0.493-0.081h33.156c0.197,0,0.361,0.045,0.493,0.081l0.133,0.034l1.091,0.221L34.177,27.623
			L15.882,11.94L17.106,11.685z M14.377,37.527c-0.038-0.139-0.085-0.312-0.085-0.512V14.91c0-0.366,0.099-0.68,0.186-0.958
			l0.246-0.785l0.629,0.526l12.11,10.38L14.636,38.732L14.377,37.527z M51.704,40.139c-0.293,0.09-0.597,0.182-0.949,0.182H17.599
			c-0.35,0-0.65-0.09-0.917-0.172l-0.803-0.246l0.521-0.641l12.336-14.096l4.896,4.193c0.305,0.265,0.789,0.263,1.088,0.005
			l4.896-4.198l12.888,14.727L51.704,40.139z M54.063,37.016c0,0.201-0.048,0.375-0.087,0.512l-0.259,1.209L40.888,24.075
			L53.63,13.156l0.246,0.788l-0.521,0.162l0.521-0.156c0.087,0.278,0.186,0.594,0.186,0.96V37.016z"/>
	</g>
</g>
</svg>
