<?xml version="1.0" encoding="utf-8"?>
<!-- Generator: Adobe Illustrator 16.0.0, SVG Export Plug-In . SVG Version: 6.00 Build 0)  -->
<!DOCTYPE svg PUBLIC "-//W3C//DTD SVG 1.1//EN" "http://www.w3.org/Graphics/SVG/1.1/DTD/svg11.dtd">
<svg version="1.1" id="Layer_1" xmlns="http://www.w3.org/2000/svg" xmlns:xlink="http://www.w3.org/1999/xlink" x="0px" y="0px"
	 width="110.5px" height="84.559px" viewBox="0 0 110.5 84.559" enable-background="new 0 0 110.5 84.559" xml:space="preserve">
<g>
	<g>
		<g>
			
				<linearGradient id="SVGID_1_" gradientUnits="userSpaceOnUse" x1="-69.582" y1="-253.1843" x2="-12.7622" y2="-253.1843" gradientTransform="matrix(-4.371139e-08 1 1 4.371139e-08 307.7322 81.1511)">
				<stop  offset="0" style="stop-color:#E5E5E5"/>
				<stop  offset="0.5398" style="stop-color:#FFFFFF"/>
				<stop  offset="1" style="stop-color:#C8C8C8"/>
			</linearGradient>
			<path fill="url(#SVGID_1_)" d="M19.409,68.389c-2.23,0-4.194-1.699-4.194-3.765v-49.29c0-2.065,1.834-3.765,4.194-3.765h70.408
				c2.228,0,4.063,1.701,4.063,3.765v49.29c0,2.065-1.836,3.765-4.063,3.765H19.409z"/>
			<path fill="#787468" d="M91.555,64.624c0,0.874-0.798,1.61-1.737,1.61H19.409c-0.98,0-1.868-0.768-1.868-1.61v-49.29
				c0-0.903,0.82-1.61,1.868-1.61h70.408c0.939,0,1.737,0.739,1.737,1.61V64.624 M93.881,64.624v-49.29
				c0-2.065-1.836-3.765-4.063-3.765H19.409c-2.361,0-4.194,1.701-4.194,3.765v49.29c0,2.065,1.966,3.765,4.194,3.765h70.408
				C92.045,68.389,93.881,66.69,93.881,64.624L93.881,64.624z"/>
		</g>
		<path fill="#787468" d="M86.277,62.318c0.13,0,0.261-0.121,0.261-0.245V18.004c0-0.118-0.13-0.243-0.261-0.243H22.819
			c-0.13,0-0.263,0.125-0.263,0.243v44.071c0,0.121,0.133,0.245,0.263,0.245h63.458V62.318z"/>
		<path opacity="0.6" fill="#C0B9AB" enable-background="new    " d="M61.202,17.761H22.816c-0.132,0-0.261,0.125-0.261,0.243
			v33.329L61.202,17.761z"/>
		<rect x="4.604" y="2.677" fill="none" width="101.293" height="79.205"/>
	</g>
	<linearGradient id="SVGID_2_" gradientUnits="userSpaceOnUse" x1="27.4141" y1="25.408" x2="82.2705" y2="25.408">
		<stop  offset="0" style="stop-color:#E5E5E5"/>
		<stop  offset="0.5398" style="stop-color:#FFFFFF"/>
		<stop  offset="1" style="stop-color:#C8C8C8"/>
	</linearGradient>
	<rect x="27.414" y="23.056" fill="url(#SVGID_2_)" width="54.856" height="4.704"/>
	<g>
		<path fill="#787468" d="M89.25,47.035c-0.34,0-0.615-0.255-0.615-0.566v-9.471c0-0.317,0.276-0.568,0.615-0.568l0,0
			c0.339,0,0.614,0.255,0.614,0.568v9.471C89.864,46.783,89.587,47.035,89.25,47.035L89.25,47.035z"/>
		<ellipse fill="#787468" cx="89.135" cy="34.113" rx="0.848" ry="0.866"/>
	</g>
	<circle fill="#787468" cx="20.098" cy="40.04" r="1.438"/>
	<linearGradient id="SVGID_3_" gradientUnits="userSpaceOnUse" x1="31.5166" y1="30.4475" x2="61.6038" y2="58.1277">
		<stop  offset="0" style="stop-color:#E5E5E5"/>
		<stop  offset="0.5398" style="stop-color:#FFFFFF"/>
		<stop  offset="1" style="stop-color:#C8C8C8"/>
	</linearGradient>
	<rect x="27.64" y="32.555" fill="url(#SVGID_3_)" width="39.375" height="24.877"/>
	<g>
		<g>
			
				<linearGradient id="SVGID_4_" gradientUnits="userSpaceOnUse" x1="213.4834" y1="-1699.9153" x2="245.7354" y2="-1699.9153" gradientTransform="matrix(1 0 0 -1 -182.7344 -1654.314)">
				<stop  offset="0" style="stop-color:#E5E5E5"/>
				<stop  offset="0.5398" style="stop-color:#FFFFFF"/>
				<stop  offset="1" style="stop-color:#C8C8C8"/>
			</linearGradient>
			<path fill="url(#SVGID_4_)" d="M62.297,44.319c-0.64-1.038-2.284-2.102-3.187-2.633c0.344,0.036,0.775-0.005,0.775-0.005
				c0.887,0,1.216-0.613,1.216-1.154c0-0.782-1.116-0.813-1.116-0.813s-0.88,0-1.269,0c-0.726,0-0.645,0.359-0.591,0.727
				c-0.816-1.631-2.355-3.726-3.536-4.508c-0.329-0.219-0.749-0.225-0.749-0.225c-2.808-0.208-6.386-0.226-6.968-0.226
				s-4.161,0.018-6.968,0.226c0,0-0.42,0.005-0.75,0.226c-1.179,0.784-2.717,2.876-3.533,4.507c0.052-0.367,0.133-0.726-0.591-0.726
				c-0.392,0-1.27,0-1.27,0s-1.115,0.03-1.115,0.812c0,0.542,0.329,1.155,1.215,1.155c0,0,0.435,0.04,0.776,0.004
				c-0.9,0.531-2.547,1.592-3.186,2.634c-0.471,0.769-0.716,4.172-0.702,5.395c0.013,1.224,0.192,3.616,0.242,4.878
				c0.03,0.828,0.349,1.129,1.096,1.129h4.276c1.486,0,1.281-1.535,1.281-1.535c1.444-0.057,1.726,0.152,2.249,0.251
				c0.524,0.101,3.333,0.213,3.333,0.213l3.646,0.021l3.646-0.021c0,0,2.809-0.112,3.335-0.213c0.523-0.099,0.802-0.308,2.246-0.251
				c0,0-0.205,1.535,1.283,1.535h4.276c0.75,0,1.067-0.301,1.101-1.129c0.047-1.262,0.227-3.654,0.239-4.878
				C63.015,48.494,62.77,45.087,62.297,44.319z"/>
			<path fill="#787366" d="M61.951,44.36c-0.875-1.422-3.684-2.888-3.684-2.888h1.31c0.859,0,1.214-0.262,1.214-0.788
				c0-0.758-1.082-0.788-1.082-0.788s-0.447-0.002-0.827,0c-0.377,0.004-0.618,0.062-0.618,0.401c0,0.232,0,0.446,0,0.446
				c-0.009,0.143-0.217,0.146-0.217,0.146c-0.745-1.61-2.355-3.851-3.569-4.66c-0.319-0.213-0.727-0.217-0.727-0.217
				c-2.969-0.22-6.843-0.22-6.843-0.22c-0.01,0-0.024,0-0.035,0c-0.01,0-0.024,0-0.031,0c0,0-3.875,0-6.845,0.22
				c0,0-0.406,0.004-0.728,0.217c-1.215,0.81-2.822,3.049-3.568,4.66c0,0-0.209-0.005-0.216-0.146c0,0,0-0.214,0-0.446
				c0-0.34-0.242-0.396-0.619-0.401c-0.381-0.002-0.826,0-0.826,0s-1.082,0.03-1.082,0.788c0,0.525,0.354,0.788,1.214,0.788h1.31
				c0,0-2.807,1.466-3.685,2.888c-0.455,0.742-0.694,4.046-0.678,5.231c0.013,1.184,0.184,3.505,0.231,4.729
				c0.031,0.801,0.339,1.091,1.064,1.091h3.641c1.442,0,1.243-1.486,1.243-1.486c1.401-0.056,2.178,0.146,2.687,0.242
				s3.233,0.206,3.233,0.206l3.604,0.021h0.05h0.051l3.606-0.021c0,0,2.723-0.108,3.233-0.206c0.508-0.097,1.285-0.298,2.686-0.242
				c0,0-0.196,1.486,1.244,1.486h3.639c0.726,0,1.033-0.291,1.064-1.091c0.048-1.225,0.222-3.546,0.234-4.729
				C62.646,48.406,62.408,45.102,61.951,44.36z M37.198,40.097c0.221-0.439,1.922-3.167,2.693-3.42
				c0.372-0.125,2.011-0.188,3.604-0.226c0.058,0.111,0.158,0.233,0.334,0.241c0.312,0.013,0.964,0.038,0.964,0.038
				s0.09,0.195,0.333,0.229s0.879,0.137,0.945,0.171c0.064,0.032-0.01,0.178-0.01,0.178s-0.514,0.008-0.91,0.031
				c-0.204,0.015-0.236,0.592-0.211,0.674c0.024,0.081,0.113,0.065,0.113,0.065l1.057,0.048h0.474h0.478l1.053-0.048
				c0,0,0.091,0.016,0.113-0.065c0.026-0.082-0.005-0.659-0.211-0.674c-0.396-0.025-0.908-0.031-0.908-0.031
				s-0.072-0.146-0.009-0.178c0.065-0.034,0.702-0.139,0.945-0.171c0.242-0.034,0.333-0.229,0.333-0.229s0.651-0.025,0.965-0.038
				c0.18-0.008,0.283-0.141,0.34-0.253c1.749,0.032,3.762,0.1,4.183,0.237c0.77,0.254,2.472,2.98,2.692,3.421
				c0.312,0.637,0.24,0.92-0.31,0.895c-0.138-0.007-0.592-0.023-1.243-0.052c-0.092-0.106-0.268-0.292-0.425-0.337
				c-0.542-0.148-0.99-0.212-0.99-0.212s0.114-0.089,0.066-0.286c-0.048-0.198-0.312-1.283-0.382-1.604
				c-0.068-0.318-0.23-0.622-0.609-0.622c-0.381,0-1.26,0-1.26,0s-0.317,0-0.34,0.109c-0.178-0.017-0.241,0.165-0.241,0.165
				l-0.525,0.987c0,0-0.071,0.029-0.339,0.032c-0.268,0-0.299,0.29-0.354,0.42c-0.077,0.192-0.185,0.562-0.185,0.562l-1.392,0.071
				c0,0-0.011-0.285-0.425-0.289c-0.415-0.007-1.91,0.021-2.025,0.026c-0.117,0.002-0.303,0.052-0.349,0.155
				c-0.047,0.106-0.086,0.149-0.086,0.149s0-0.071-0.14-0.071c-0.141,0-1.121,0-1.121,0l-0.113-0.332c0,0-0.022-0.627-0.543-0.684
				c-0.244-0.022-0.444-0.028-0.444-0.028l-0.003-0.008c0,0-0.082-0.268-0.21-0.573c-0.126-0.306-0.198-0.568-0.577-0.577
				c-0.377-0.008-1.549-0.044-1.661,0.017c-0.113,0.062-0.176,0.141-0.176,0.141s-0.174,0.063-0.228,0.209
				c-0.295,0.798-0.497,1.39-0.48,2.081c0.003,0.104,0.044,0.115,0.066,0.115c-0.064,0.007-0.747,0.093-0.914,0.191
				c-0.087,0.052-0.181,0.137-0.256,0.208c-0.432,0.018-0.729,0.031-0.837,0.033C36.959,41.018,36.885,40.736,37.198,40.097z
				 M44.987,49.133c-0.915,0-1.646,0-2.461,0c-0.812,0-3.501-0.487-3.479-2.035c-0.843,0.003-3.286,0.051-4.821,0.105
				c-1.214,0.044-1.667-0.024-1.625-0.662c-1.07,0-0.745-1.27-0.537-1.99c0.207-0.721,1.575-0.275,2.29-0.061
				c0.717,0.213,3.815,1.039,4.078,1.111c0.266,0.07,0.46,0.102,0.572,0.309c0.103-0.507,0.275-0.998,1.774-0.998
				c0.613,0,2.459,0,3.619,0c1.159,0,1.67,0.062,1.881,0.544c0,0,0.234,0.963,0.234,2.089
				C46.511,48.672,45.902,49.133,44.987,49.133z M46.876,44.545c-0.536,0-0.971-0.221-0.971-0.495c0-0.273,0.435-0.493,0.971-0.493
				c0.538,0,0.974,0.221,0.974,0.493C47.849,44.324,47.413,44.545,46.876,44.545z M61.153,46.543c0.04,0.639-0.412,0.704-1.626,0.66
				c-1.534-0.055-3.976-0.104-4.819-0.105c0.023,1.545-2.666,2.035-3.48,2.035c-0.813,0-1.544,0-2.46,0
				c-0.918,0-1.526-0.459-1.526-1.587c0-1.126,0.233-2.089,0.233-2.089c0.214-0.48,0.72-0.543,1.883-0.543c1.16,0,3.004,0,3.618,0
				c1.501,0,1.672,0.491,1.774,1.001c0.111-0.212,0.308-0.243,0.571-0.31c0.265-0.071,3.362-0.899,4.077-1.11
				c0.717-0.216,2.082-0.659,2.29,0.057C61.896,45.274,62.225,46.543,61.153,46.543z"/>
			
				<linearGradient id="SVGID_5_" gradientUnits="userSpaceOnUse" x1="214.584" y1="-1700.9587" x2="229.2471" y2="-1700.9587" gradientTransform="matrix(1 0 0 -1 -182.7344 -1654.314)">
				<stop  offset="0" style="stop-color:#FFFFFF"/>
				<stop  offset="1" style="stop-color:#C8C8C8"/>
			</linearGradient>
			<path fill="url(#SVGID_5_)" d="M44.987,49.133c-0.915,0-1.646,0-2.461,0c-0.812,0-3.501-0.487-3.479-2.035
				c-0.843,0.003-3.286,0.051-4.821,0.105c-1.214,0.044-1.667-0.024-1.625-0.662c-1.07,0-0.745-1.27-0.537-1.99
				c0.207-0.721,1.575-0.275,2.29-0.061c0.717,0.213,3.815,1.039,4.078,1.111c0.266,0.07,0.46,0.102,0.572,0.309
				c0.103-0.507,0.275-0.998,1.774-0.998c0.613,0,2.459,0,3.619,0c1.159,0,1.67,0.062,1.881,0.544c0,0,0.234,0.963,0.234,2.089
				C46.511,48.672,45.902,49.133,44.987,49.133z"/>
			<ellipse opacity="0.1" fill="#9F9F9F" enable-background="new    " cx="46.876" cy="44.051" rx="0.974" ry="0.494"/>
			
				<linearGradient id="SVGID_6_" gradientUnits="userSpaceOnUse" x1="227.0088" y1="-1700.9607" x2="241.6719" y2="-1700.9607" gradientTransform="matrix(1 0 0 -1 -182.7344 -1654.314)">
				<stop  offset="0" style="stop-color:#FFFFFF"/>
				<stop  offset="1" style="stop-color:#C8C8C8"/>
			</linearGradient>
			<path fill="url(#SVGID_6_)" d="M61.153,46.543c0.04,0.639-0.412,0.704-1.626,0.66c-1.534-0.055-3.976-0.104-4.819-0.105
				c0.023,1.545-2.666,2.035-3.48,2.035c-0.813,0-1.544,0-2.46,0c-0.918,0-1.526-0.459-1.526-1.587c0-1.126,0.233-2.089,0.233-2.089
				c0.214-0.48,0.72-0.543,1.883-0.543c1.16,0,3.004,0,3.618,0c1.501,0,1.672,0.491,1.774,1.001c0.111-0.212,0.308-0.243,0.571-0.31
				c0.265-0.071,3.362-0.899,4.077-1.11c0.717-0.216,2.082-0.659,2.29,0.057C61.896,45.274,62.225,46.543,61.153,46.543z"/>
			<path opacity="0.6" fill="#C0B9AB" enable-background="new    " d="M31.802,44.36c1.465-1.174,4.062-1.174,5.997-1.174
				c0.321,0,1.831-1.464,2.111-1.514c-0.489,0.324-0.926,1.496-0.792,1.503c1.796,0.069,9.932-0.251,13.357-0.785
				c0.145-0.021,0.191-0.485-0.549-0.81c0.802,0.246,1.21,0.696,1.328,0.674c2.828-0.526,3.639-0.7,4.792-0.583
				c-1.563-0.369-5.841-0.675-10.806-0.675c-3.14,0-10.226,0.13-11.009,0.46c-0.783,0.329-1.636,0.467-2.348,0.987
				C33.172,42.961,32.004,43.815,31.802,44.36z"/>
			
				<linearGradient id="SVGID_7_" gradientUnits="userSpaceOnUse" x1="219.748" y1="-1693.0144" x2="239.4766" y2="-1693.0144" gradientTransform="matrix(1 0 0 -1 -182.7344 -1654.314)">
				<stop  offset="0" style="stop-color:#FFFFFF"/>
				<stop  offset="1" style="stop-color:#C8C8C8"/>
			</linearGradient>
			<path opacity="0.3" fill="url(#SVGID_7_)" enable-background="new    " d="M37.198,40.097c0.221-0.439,1.922-3.167,2.693-3.42
				c0.77-0.251,6.936-0.269,6.936-0.269s0.019,0,0.05,0c0.035,0,0.054,0,0.054,0s6.165,0.015,6.936,0.269
				c0.77,0.253,2.473,2.98,2.692,3.42c0.312,0.638,0.24,0.921-0.309,0.895c-0.55-0.021-6.117-0.265-9.319-0.217
				c-0.018,0-0.034,0-0.051,0s-0.032,0-0.052,0c-3.201-0.048-8.769,0.196-9.318,0.217C36.959,41.018,36.885,40.736,37.198,40.097z"
				/>
			<path fill="#787366" d="M40.749,45.245c0.828,0.012,3.672,0.086,4.175,0.127c0.502,0.044,0.924,0.209,0.981,0.954
				c0.061,0.745,0.225,1.698-0.312,2.049c-0.537,0.352-2.524,0.271-3.312,0.187c-0.786-0.084-2.565-0.456-2.69-1.159
				c-0.123-0.703-0.206-1.282,0-1.613C39.798,45.457,40.131,45.237,40.749,45.245z"/>
			<path fill="#787366" d="M53.076,45.245c-0.827,0.012-3.671,0.086-4.174,0.127c-0.502,0.044-0.923,0.209-0.983,0.954
				c-0.06,0.745-0.224,1.698,0.314,2.049c0.538,0.352,2.525,0.271,3.312,0.187c0.785-0.084,2.565-0.456,2.689-1.159
				s0.209-1.282,0-1.613C54.027,45.457,53.695,45.237,53.076,45.245z"/>
			
				<linearGradient id="SVGID_8_" gradientUnits="userSpaceOnUse" x1="215.2305" y1="2319.7698" x2="243.8799" y2="2319.7698" gradientTransform="matrix(1 0 0 1 -182.6792 -2268.7344)">
				<stop  offset="0" style="stop-color:#FFFFFF"/>
				<stop  offset="1" style="stop-color:#C8C8C8"/>
			</linearGradient>
			<path fill="url(#SVGID_8_)" d="M60.12,49.496c-0.498,0.02-1.541,0.143-3.306,0.307c-1.764,0.166-3.027,0.349-3.32,0.904
				l-6.619,0.03l-6.62-0.03c-0.291-0.556-1.555-0.738-3.319-0.904c-1.764-0.164-2.807-0.287-3.304-0.307
				c-0.5-0.021-1.117-0.15-1.078,0.818c0.038,0.973,0.119,1.63,1.205,1.758c1.085,0.127,3.021,0.239,4.174,0.325
				c1.151,0.087,2.744,0.288,2.615-0.213c1.114-0.048,0.451,0.373,1.32,0.396c0.868,0.024,5.007,0,5.007,0s4.14,0.024,5.009,0
				c0.868-0.023,0.208-0.444,1.319-0.396c-0.127,0.501,1.463,0.3,2.617,0.213s3.086-0.198,4.173-0.325
				c1.088-0.128,1.169-0.786,1.206-1.758C61.234,49.346,60.619,49.475,60.12,49.496z"/>
		</g>
	</g>
</g>
</svg>
