<?xml version="1.0" encoding="utf-8"?>
<!-- Generator: Adobe Illustrator 16.0.0, SVG Export Plug-In . SVG Version: 6.00 Build 0)  -->
<!DOCTYPE svg PUBLIC "-//W3C//DTD SVG 1.1//EN" "http://www.w3.org/Graphics/SVG/1.1/DTD/svg11.dtd">
<svg version="1.1" id="Layer_1" xmlns="http://www.w3.org/2000/svg" xmlns:xlink="http://www.w3.org/1999/xlink" x="0px" y="0px"
	 width="68.354px" height="51.926px" viewBox="0 0 68.354 51.926" enable-background="new 0 0 68.354 51.926" xml:space="preserve">
<g>
	<g>
		
			<image overflow="visible" width="66" height="66" xlink:href="1876C6E0891BDB43.png"  transform="matrix(1 0 0 1 1.3669 -6.8467)">
		</image>
		<g>
			<g>
				<circle fill="#FFFFFF" cx="34.721" cy="25.249" r="1.347"/>
				<path fill="#FFFFFF" d="M31.563,26.441c0.66,0,1.195-0.535,1.195-1.195s-0.535-1.195-1.195-1.195h-9.979
					c-0.66,0-1.196,0.535-1.196,1.195s0.536,1.195,1.196,1.195H31.563z"/>
				<path fill="#FFFFFF" d="M33.697,28.354v5.25c0,0.66,0.535,1.195,1.195,1.195s1.195-0.535,1.195-1.195v-5.25
					c0-0.66-0.535-1.195-1.195-1.195C34.231,27.159,33.697,27.694,33.697,28.354z"/>
				<path fill="#FFFFFF" d="M50.602,14.311c-3.854-4.997-9.7-7.863-16.037-7.863c-3.157,0-6.308,0.749-9.086,2.155
					c-0.438,0.2-2.622,1.558-3.26,2.05l-0.907,0.718l-1.59-5.51c-0.14-0.486-0.59-0.826-1.111-0.826
					c-0.247,0.003-0.489,0.088-0.683,0.237c-0.201,0.155-0.342,0.366-0.408,0.613l-3.938,14.914
					c-0.09,0.344-0.016,0.714,0.198,0.989c0.219,0.284,0.549,0.446,0.907,0.446l15.425-0.025c0.514,0,0.968-0.347,1.101-0.839
					c0.136-0.495-0.077-1.023-0.517-1.285l-4.937-2.942l1.532-1.183c2.158-1.47,4.681-2.248,7.298-2.248
					c4.056,0,7.799,1.834,10.267,5.032c4.37,5.665,3.316,13.831-2.347,18.199c-2.287,1.765-5.022,2.695-7.91,2.695
					c-4.063,0-7.813-1.839-10.287-5.044c-1.444-1.872-2.351-4.096-2.618-6.432c-0.041-0.354-0.359-0.607-0.713-0.565l-5.931,0.679
					c-0.353,0.041-0.607,0.359-0.566,0.713c0.417,3.648,1.829,7.121,4.082,10.039c3.856,5,9.703,7.867,16.041,7.867
					c4.504,0,8.771-1.453,12.336-4.205c4.273-3.297,7.008-8.066,7.699-13.434C55.332,23.891,53.898,18.582,50.602,14.311z
					 M53.363,29.09c-0.647,5.027-3.208,9.494-7.208,12.58c-3.34,2.574-7.334,3.936-11.551,3.938c-5.936,0-11.41-2.686-15.021-7.367
					c-1.979-2.561-3.263-5.578-3.737-8.759l4.655-0.532c0.376,2.334,1.333,4.545,2.79,6.432c2.718,3.525,6.84,5.548,11.307,5.548
					c3.175,0,6.183-1.027,8.696-2.966c6.226-4.805,7.384-13.777,2.581-20.003c-2.713-3.518-6.828-5.534-11.286-5.534
					c-2.877,0-5.651,0.855-8.054,2.494l-2.312,1.784c-0.169,0.131-0.262,0.335-0.25,0.548c0.014,0.214,0.131,0.405,0.314,0.515
					l5.297,3.157l-14.71,0.024L18.63,6.723l1.71,5.926c0.06,0.206,0.218,0.368,0.422,0.435c0.205,0.065,0.428,0.025,0.596-0.108
					l1.653-1.308c0.583-0.45,2.675-1.744,3.024-1.903c2.624-1.327,5.571-2.029,8.528-2.029c5.935,0,11.408,2.685,15.018,7.362
					C52.668,19.098,54.011,24.067,53.363,29.09z"/>
			</g>
		</g>
	</g>
	<rect x="0" fill="none" width="68.354" height="51.926"/>
</g>
</svg>
