<?xml version="1.0" encoding="utf-8"?>
<!-- Generator: Adobe Illustrator 16.0.0, SVG Export Plug-In . SVG Version: 6.00 Build 0)  -->
<!DOCTYPE svg PUBLIC "-//W3C//DTD SVG 1.1//EN" "http://www.w3.org/Graphics/SVG/1.1/DTD/svg11.dtd">
<svg version="1.1" id="Layer_1" xmlns="http://www.w3.org/2000/svg" xmlns:xlink="http://www.w3.org/1999/xlink" x="0px" y="0px"
	 width="68.354px" height="51.927px" viewBox="0 0 68.354 51.927" enable-background="new 0 0 68.354 51.927" xml:space="preserve">
<g>
	<g opacity="0.6">
		<circle fill="#FFFFFF" cx="34.721" cy="25.249" r="1.347"/>
		<path fill="#FFFFFF" d="M31.563,26.441c0.66,0,1.195-0.535,1.195-1.195s-0.535-1.195-1.195-1.195h-9.98
			c-0.66,0-1.196,0.535-1.196,1.195s0.536,1.195,1.196,1.195H31.563z"/>
		<path fill="#FFFFFF" d="M33.697,28.354v5.25c0,0.66,0.535,1.195,1.195,1.195c0.66,0,1.195-0.535,1.195-1.195v-5.25
			c0-0.66-0.535-1.195-1.195-1.195C34.231,27.159,33.697,27.694,33.697,28.354z"/>
		<path fill="#FFFFFF" d="M50.602,14.311c-3.855-4.997-9.7-7.863-16.037-7.863c-3.158,0-6.308,0.749-9.086,2.155
			c-0.439,0.2-2.622,1.558-3.26,2.05l-0.907,0.718l-1.59-5.51c-0.14-0.486-0.59-0.826-1.111-0.826
			c-0.247,0.003-0.49,0.088-0.683,0.237c-0.201,0.155-0.342,0.366-0.408,0.613l-3.938,14.914c-0.09,0.344-0.015,0.714,0.199,0.989
			c0.218,0.284,0.548,0.446,0.907,0.446l15.425-0.025c0.513,0,0.967-0.347,1.1-0.839c0.136-0.495-0.077-1.023-0.516-1.285
			l-4.937-2.942l1.532-1.183c2.158-1.47,4.681-2.248,7.298-2.248c4.056,0,7.799,1.834,10.267,5.032
			c4.37,5.665,3.316,13.83-2.347,18.199c-2.287,1.764-5.022,2.695-7.91,2.695c-4.064,0-7.814-1.838-10.287-5.043
			c-1.445-1.873-2.351-4.097-2.618-6.433c-0.041-0.354-0.36-0.607-0.713-0.565l-5.931,0.679c-0.353,0.041-0.607,0.359-0.566,0.713
			c0.417,3.648,1.829,7.121,4.082,10.039c3.856,5,9.703,7.867,16.041,7.867c4.504,0,8.77-1.453,12.336-4.205
			c4.273-3.297,7.007-8.066,7.699-13.433C55.332,23.891,53.898,18.582,50.602,14.311z M53.363,29.091
			c-0.648,5.026-3.208,9.493-7.208,12.579c-3.34,2.574-7.334,3.936-11.551,3.938c-5.936,0-11.41-2.686-15.021-7.367
			c-1.978-2.561-3.262-5.578-3.737-8.759l4.655-0.533c0.376,2.334,1.333,4.546,2.79,6.433c2.718,3.525,6.84,5.547,11.307,5.547
			c3.175,0,6.183-1.027,8.696-2.965c6.226-4.805,7.384-13.778,2.581-20.004c-2.713-3.518-6.828-5.534-11.286-5.534
			c-2.877,0-5.651,0.855-8.054,2.494l-2.312,1.784c-0.169,0.131-0.262,0.335-0.25,0.548c0.014,0.214,0.131,0.405,0.314,0.515
			l5.297,3.157l-14.71,0.024L18.63,6.723l1.71,5.926c0.06,0.206,0.218,0.368,0.422,0.435c0.205,0.065,0.428,0.025,0.596-0.108
			l1.653-1.308c0.583-0.45,2.675-1.744,3.024-1.903c2.624-1.327,5.572-2.029,8.529-2.029c5.934,0,11.408,2.685,15.017,7.362
			C52.668,19.098,54.011,24.067,53.363,29.091z"/>
	</g>
	<rect fill="none" width="68.354" height="51.927"/>
</g>
</svg>
