<?xml version="1.0" encoding="utf-8"?>
<!-- Generator: Adobe Illustrator 16.0.0, SVG Export Plug-In . SVG Version: 6.00 Build 0)  -->
<!DOCTYPE svg PUBLIC "-//W3C//DTD SVG 1.1//EN" "http://www.w3.org/Graphics/SVG/1.1/DTD/svg11.dtd">
<svg version="1.1" id="Layer_1" xmlns="http://www.w3.org/2000/svg" xmlns:xlink="http://www.w3.org/1999/xlink" x="0px" y="0px"
	 width="68.354px" height="51.926px" viewBox="0 0 68.354 51.926" enable-background="new 0 0 68.354 51.926" xml:space="preserve">
<g>
	<g opacity="0.6">
		<g>
			<rect x="42.484" y="7.111" fill="#FFFFFF" width="1.584" height="1.586"/>
			<rect x="46.264" y="7.111" fill="#FFFFFF" width="1.582" height="1.586"/>
			<rect x="50.041" y="7.111" fill="#FFFFFF" width="1.584" height="1.586"/>
			<rect x="53.819" y="7.111" fill="#FFFFFF" width="1.584" height="1.586"/>
			<rect x="57.598" y="7.111" fill="#FFFFFF" width="1.584" height="1.586"/>
			<rect x="61.375" y="7.111" fill="#FFFFFF" width="1.586" height="1.586"/>
			<rect x="53.819" y="20.885" fill="#FFFFFF" width="1.584" height="1.584"/>
			<rect x="57.598" y="20.885" fill="#FFFFFF" width="1.584" height="1.584"/>
			<rect x="61.375" y="20.885" fill="#FFFFFF" width="1.586" height="1.584"/>
			<path fill="#FFFFFF" d="M51.297,17.326v-5.115l3.98,2.559L51.297,17.326z"/>
		</g>
		<rect x="6.412" y="12.502" fill="#FFFFFF" width="3.336" height="3.334"/>
		<rect x="6.412" y="18.799" fill="#FFFFFF" width="7.962" height="2.086"/>
		<rect x="6.412" y="23.846" fill="#FFFFFF" width="9.258" height="2.084"/>
		<rect x="6.412" y="28.893" fill="#FFFFFF" width="9.258" height="2.086"/>
		<path fill="#FFFFFF" d="M49.192,48.659H20.589c-1.726,0-3.129-1.402-3.129-3.127V23.903c0-1.725,1.403-3.129,3.129-3.129h28.603
			c1.727,0,3.131,1.404,3.131,3.129v21.629C52.323,47.256,50.918,48.659,49.192,48.659z M20.589,23.079
			c-0.455,0-0.824,0.369-0.824,0.824v21.629c0,0.453,0.369,0.824,0.824,0.824h28.603c0.457,0,0.826-0.371,0.826-0.824V23.903
			c0-0.455-0.369-0.824-0.826-0.824H20.589z"/>
		<path fill="#FFFFFF" d="M28.05,28.063c1.5,0,2.715,1.215,2.715,2.715c0,1.498-1.215,2.713-2.715,2.713
			c-1.499,0-2.714-1.215-2.714-2.713C25.336,29.278,26.551,28.063,28.05,28.063z M45.86,41.745H24.358l1.736-3.477l1.956,2.5
			l5.972-7.385l3.368,4.18l4.453-8.199l4.017,8.904V41.745z"/>
		<path fill="#FFFFFF" d="M15.67,35.543H4.979c-0.56,0-1.015-0.521-1.015-1.162v-23.01c0-0.641,0.455-1.162,1.015-1.162h16.442
			c0.56,0,1.016,0.521,1.016,1.162v7.428h2.305c0-4.113,0-7.428,0-7.428c0-1.91-1.489-3.467-3.32-3.467H4.979
			c-1.83,0-3.319,1.557-3.319,3.467v23.01c0,1.91,1.489,3.467,3.319,3.467h10.69V35.543z"/>
		<path fill="#FFFFFF" d="M63.399,3.27H42.257c-1.814,0-3.291,1.477-3.291,3.293v12.236h2.305V6.562
			c0-0.545,0.443-0.988,0.986-0.988h21.142c0.547,0,0.99,0.443,0.99,0.988v16.569c0,0.545-0.443,0.99-0.988,0.99h-9.674v2.303h9.674
			c0.879,0,1.707-0.342,2.328-0.963c0.623-0.623,0.965-1.451,0.965-2.33V6.562C66.694,4.746,65.215,3.27,63.399,3.27z"/>
	</g>
	<g>
		<rect x="0" fill="none" width="68.354" height="51.928"/>
	</g>
</g>
</svg>
