<?xml version="1.0" encoding="utf-8"?>
<!-- Generator: Adobe Illustrator 16.0.0, SVG Export Plug-In . SVG Version: 6.00 Build 0)  -->
<!DOCTYPE svg PUBLIC "-//W3C//DTD SVG 1.1//EN" "http://www.w3.org/Graphics/SVG/1.1/DTD/svg11.dtd">
<svg version="1.1" id="Layer_1" xmlns="http://www.w3.org/2000/svg" xmlns:xlink="http://www.w3.org/1999/xlink" x="0px" y="0px"
	 width="68.354px" height="51.926px" viewBox="0 0 68.354 51.926" enable-background="new 0 0 68.354 51.926" xml:space="preserve">
<g>
	<g opacity="0.6">
		<g>
			<path fill="#FFFFFF" d="M31.754,21.412c0-0.424-0.678-0.77-1.51-0.77c-0.834,0-1.513,0.346-1.513,0.77
				c0,0.422,0.679,0.768,1.513,0.768C31.076,22.179,31.754,21.833,31.754,21.412z"/>
			<path fill="#FFFFFF" d="M10.793,26.296c2.36-0.086,6.115-0.16,7.412-0.162c-0.033,2.377,4.098,3.13,5.352,3.13
				c1.25,0,2.373,0,3.781,0c1.41,0,2.344-0.707,2.344-2.438c0-1.732-0.356-3.217-0.356-3.217c-0.328-0.736-1.107-0.83-2.896-0.83
				c-1.781,0-4.619,0-5.561,0c-2.312,0-2.574,0.754-2.73,1.537c-0.17-0.324-0.471-0.371-0.877-0.477
				c-0.406-0.111-5.17-1.383-6.27-1.711c-1.103-0.326-3.201-1.014-3.523,0.09c-0.318,1.109-0.82,3.062,0.828,3.062
				C8.231,26.264,8.928,26.365,10.793,26.296z M18.932,24.121c0.318-0.51,0.83-0.848,1.781-0.836
				c1.271,0.02,5.646,0.135,6.416,0.197c0.774,0.068,1.42,0.32,1.514,1.467c0.09,1.145,0.344,2.607-0.483,3.148
				c-0.824,0.538-3.884,0.416-5.091,0.284c-1.209-0.131-3.944-0.698-4.137-1.78C18.74,25.521,18.614,24.628,18.932,24.121z"/>
			<path fill="#FFFFFF" d="M31.164,23.609c0,0-0.359,1.484-0.359,3.217c0,1.73,0.937,2.438,2.342,2.438c1.019,0,1.89,0,2.763,0
				v-0.781c-1.359,0.043-3.007-0.012-3.58-0.385c-0.826-0.541-0.574-2.004-0.484-3.147c0.096-1.146,0.74-1.398,1.512-1.467
				c0.345-0.027,1.386-0.066,2.554-0.102v-0.602c-0.66,0-1.306,0-1.854,0C32.27,22.779,31.49,22.873,31.164,23.609z"/>
		</g>
		<path fill="#FFFFFF" d="M35.908,31.766l-5.13,0.022l-10.272-0.045c-0.453-0.861-2.418-1.148-5.156-1.402
			c-2.738-0.256-4.354-0.444-5.127-0.479C9.448,29.83,8.49,29.63,8.549,31.136c0.059,1.509,0.186,2.529,1.869,2.726
			c1.688,0.199,4.69,0.375,6.479,0.506c1.787,0.137,4.263,0.449,4.062-0.328c1.727-0.076,0.699,0.578,2.049,0.617
			c1.346,0.035,7.77,0,7.77,0s2.834,0.016,5.134,0.016v-2.906H35.908z"/>
		<path fill="#FFFFFF" d="M24.231,37.509c-1.795-0.069-4.674-0.219-5.262-0.327c-0.092-0.021-0.191-0.039-0.299-0.062
			c-0.769-0.154-1.816-0.367-3.478-0.367c-0.252,0-0.514,0.006-0.766,0.016c-3.818-0.069-8.172-0.182-8.941-0.278
			c-0.368-0.046-0.407-0.052-0.455-0.849l-0.04-0.686c-0.104-1.781-0.21-3.621-0.226-4.799c-0.027-2.203,0.426-7.346,1.039-8.346
			c1.275-2.069,5.338-4.283,5.826-4.544h29.336h7.912h2.229c-0.17-0.107-0.334-0.206-0.485-0.299h0.608c0.551,0,2.23,0,2.23-1.529
			c0-1.162-1.314-1.505-2.013-1.523c0,0-0.743-0.006-1.368,0c-0.396,0.003-1.203,0.009-1.246,0.817
			c-1.375-2.609-3.804-5.863-5.695-7.124c-0.662-0.44-1.473-0.455-1.479-0.455h-0.007C36.781,6.793,30.375,6.79,30.313,6.79h-0.11
			c-0.062,0-6.48,0.003-11.32,0.361c-0.088,0.002-0.857,0.026-1.506,0.454c-1.908,1.271-4.354,4.558-5.726,7.176
			c-0.01-0.858-0.844-0.864-1.248-0.867c-0.625-0.006-1.362,0-1.373,0c-0.69,0.019-2.004,0.361-2.004,1.523
			c0,1.529,1.679,1.529,2.229,1.529H9.89c-1.533,0.92-4.002,2.577-5.037,4.255c-0.903,1.473-1.227,7.298-1.205,8.947
			c0.015,1.201,0.121,3.055,0.228,4.85L4.033,38c0.059,1.602,0.795,2.346,2.315,2.346h6.019c0.854,0,1.524-0.268,1.991-0.799
			c0.056-0.062,0.107-0.133,0.166-0.219l0.043-0.068c0.033-0.055,0.068-0.111,0.107-0.188l0.023-0.045
			c0.036-0.076,0.069-0.152,0.098-0.229l0.012-0.03c0.023-0.066,0.047-0.134,0.062-0.199l0.021-0.07
			c0.014-0.057,0.025-0.111,0.037-0.166l0.012-0.059c0.015-0.072,0.025-0.142,0.031-0.205l0.006-0.041
			c0.004-0.053,0.01-0.104,0.012-0.152c0.068-0.002,0.138-0.002,0.203-0.002c1.547,0,2.533,0.201,3.271,0.35
			c0.104,0.021,0.201,0.039,0.297,0.06c0.9,0.17,5.393,0.35,5.445,0.352l5.963,0.031l5.74-0.029v-1.122l-5.574,0.032L24.231,37.509z
			 M17.996,8.54c0.364-0.243,0.866-0.266,0.932-0.269c4.836-0.358,11.211-0.362,11.273-0.362h0.11c0.062,0,6.439,0.004,11.304,0.364
			c0.006,0,0.526,0.016,0.903,0.267c1.867,1.245,4.334,4.659,5.566,7.188H12.43C13.668,13.188,16.129,9.782,17.996,8.54z"/>
		<polygon fill="#FFFFFF" points="52.573,26.736 50.073,32.671 47.574,26.736 44.779,26.736 47.929,33.862 46.248,33.862 
			46.248,35.352 48.595,35.352 48.595,36.877 46.248,36.877 46.248,38.355 48.595,38.355 48.595,41.466 51.419,41.466 
			51.419,38.355 53.767,38.355 53.767,36.877 51.419,36.877 51.419,35.352 53.767,35.352 53.767,33.862 52.067,33.862 
			55.215,26.736 		"/>
		<rect x="44.525" y="19.937" fill="#FFFFFF" width="10.945" height="3.24"/>
		<path fill="#FFFFFF" d="M58.827,21.08h-2.235v1.1h2.235c0.729,0,1.32,0.592,1.32,1.32v19.576c0,0.728-0.592,1.319-1.32,1.319
			H41.166c-0.729,0-1.32-0.592-1.32-1.319V23.5c0-0.728,0.592-1.32,1.32-1.32h2.235v-1.1h-2.235c-1.335,0-2.42,1.085-2.42,2.419
			v19.576c0,1.333,1.085,2.419,2.42,2.419h17.661c1.334,0,2.42-1.086,2.42-2.419V23.5C61.247,22.166,60.161,21.08,58.827,21.08z"/>
	</g>
	<g>
		<rect x="0" y="-0.001" fill="none" width="68.354" height="51.928"/>
	</g>
</g>
</svg>
