<?xml version="1.0" encoding="utf-8"?>
<!-- Generator: Adobe Illustrator 16.0.0, SVG Export Plug-In . SVG Version: 6.00 Build 0)  -->
<!DOCTYPE svg PUBLIC "-//W3C//DTD SVG 1.1//EN" "http://www.w3.org/Graphics/SVG/1.1/DTD/svg11.dtd">
<svg version="1.1" id="Layer_1" xmlns="http://www.w3.org/2000/svg" xmlns:xlink="http://www.w3.org/1999/xlink" x="0px" y="0px"
	 width="68.354px" height="51.926px" viewBox="0 0 68.354 51.926" enable-background="new 0 0 68.354 51.926" xml:space="preserve">
<g>
	<g>
		<rect x="0" y="-0.001" fill="none" width="68.354" height="51.928"/>
	</g>
</g>
<g opacity="0.6">
	<path fill="#FFFFFF" d="M59.702,28.609c-0.719-1.687-2.976-2.934-5.741-1.922c-1.521,0.555-7.039,2.637-9.979,3.746
		c2.586-2.574,4.101-6.086,4.101-9.789c0-7.619-6.198-13.817-13.816-13.817c-7.62,0-13.815,6.197-13.815,13.817
		c0,1.829,0.376,3.636,1.074,5.313c-2.28-0.284-4.576-0.075-6.872,0.646c-5.723,1.801-8.109,8.221-8.208,8.491
		c-0.195,0.538,0.082,1.132,0.619,1.327c0.536,0.198,1.13-0.081,1.326-0.615c0.021-0.059,2.148-5.736,6.885-7.228
		c4.271-1.341,8.385-0.733,12.582,1.862l0.191,0.117l0.221,0.029c5.567,0.721,9.599,1.046,11.317,1.188l0.3,0.022
		c0.79,0.063,1.308,0.328,1.62,0.681c0.053,0.139,0.133,0.258,0.231,0.358c0.121,0.255,0.173,0.531,0.153,0.797
		c-0.052,0.785-0.63,1.546-1.805,1.489L20.97,34.174c-0.017-0.003-0.036-0.003-0.053-0.003c-0.549,0-1.005,0.431-1.034,0.981
		c-0.027,0.574,0.412,1.058,0.983,1.087l19.118,0.952c0.076,0.002,0.153,0.004,0.229,0.004c2.286,0,3.632-1.732,3.742-3.424
		c0.023-0.356-0.006-0.724-0.09-1.084c2.561-0.965,9.131-3.444,10.804-4.058c1.664-0.606,2.831,0.095,3.126,0.787
		c0.301,0.711-0.214,1.476-1.378,2.045c-5.659,2.769-18.074,8.677-21.373,10.021c-2.833,1.152-5.627,0.947-9.794,0.164
		c-5.477-1.028-9.641,1.205-10.666,2.067c-0.438,0.369-0.494,1.021-0.126,1.46c0.205,0.242,0.497,0.369,0.793,0.369
		c0.234,0,0.472-0.08,0.665-0.243c0.679-0.567,4.185-2.515,8.952-1.618c4.448,0.834,7.669,1.061,10.958-0.281
		c3.34-1.361,15.819-7.301,21.502-10.077C59.832,32.1,60.324,30.074,59.702,28.609z M39.754,29.711
		c-1.688-0.138-5.599-0.453-11.002-1.146c-1.728-1.047-3.473-1.791-5.23-2.237c-0.923-1.742-1.419-3.697-1.419-5.681
		c0-6.707,5.456-12.164,12.164-12.164c6.707,0,12.164,5.456,12.164,12.164c0,3.724-1.735,7.232-4.645,9.534
		c-0.49-0.228-1.06-0.389-1.733-0.443L39.754,29.711z"/>
	<polygon fill="#FFFFFF" points="36.744,13.207 34.338,18.919 31.934,13.207 29.242,13.207 32.274,20.065 30.658,20.065 
		30.658,21.498 32.916,21.498 32.916,22.966 30.658,22.966 30.658,24.391 32.916,24.391 32.916,27.384 35.634,27.384 35.634,24.391 
		37.894,24.391 37.894,22.966 35.634,22.966 35.634,21.498 37.894,21.498 37.894,20.065 36.257,20.065 39.288,13.207 	"/>
</g>
</svg>
