<?xml version="1.0" encoding="utf-8"?>
<!-- Generator: Adobe Illustrator 16.0.4, SVG Export Plug-In . SVG Version: 6.00 Build 0)  -->
<!DOCTYPE svg PUBLIC "-//W3C//DTD SVG 1.1//EN" "http://www.w3.org/Graphics/SVG/1.1/DTD/svg11.dtd">
<svg version="1.1" id="Layer_1" xmlns="http://www.w3.org/2000/svg" xmlns:xlink="http://www.w3.org/1999/xlink" x="0px" y="0px"
	 width="68.354px" height="51.926px" viewBox="0 0 68.354 51.926" enable-background="new 0 0 68.354 51.926" xml:space="preserve">
<g>
	<g>
		<g>
			<g>
				<rect x="0.376" y="-0.037" fill="none" width="67.978" height="51.963"/>
			</g>
		</g>
	</g>
</g>
<g>
	<path fill="#A7A7A7" d="M40.467,16.983c0.158-0.226,0.213-0.492,0.174-0.747c-0.035-0.521-0.238-0.926-0.869-0.863
		c-0.377-0.051-0.766,0.115-0.986,0.427c-1.375,1.959-4.003,2.321-5.571,2.346c0.404-0.536,0.627-1.149,0.627-1.747
		c0-0.586-0.222-1.113-0.625-1.491c-0.403-0.374-0.945-0.572-1.567-0.572c-0.832,0-1.691,0.359-2.359,0.981
		c-0.133,0.122-0.256,0.255-0.375,0.401c-0.306-0.6-0.715-1.151-1.181-1.584c-0.848-0.793-1.939-1.246-2.991-1.246
		c-0.781,0-1.462,0.249-1.967,0.716c-0.5,0.468-0.774,1.127-0.774,1.857c0,0.927,0.426,1.887,1.182,2.659
		c-1.568-0.104-3.769-0.582-4.994-2.323c-0.312-0.446-0.982-0.565-1.432-0.251c-0.464,0.326-0.576,0.971-0.25,1.433
		c0.647,0.92,1.51,1.654,2.571,2.192c-0.222,0.206-0.362,0.499-0.362,0.822v2.927c0,0.621,0.505,1.126,1.125,1.126h0.601v1.836
		h6.904v-6.421h2.282v6.42h6.904v-1.835h0.604c0.619,0,1.123-0.505,1.123-1.127v-2.927c0-0.324-0.141-0.617-0.363-0.822
		C38.955,18.639,39.817,17.903,40.467,16.983z M27.743,17.557c-0.002,0-0.106,0.067-0.399,0.067c-0.837,0-1.999-0.494-2.699-1.15
		c-0.576-0.536-0.781-1.131-0.781-1.509c0-0.336,0.146-0.473,0.194-0.516c0.211-0.197,0.543-0.226,0.723-0.226
		c0.599,0,1.264,0.288,1.782,0.77C27.545,15.906,27.88,17.284,27.743,17.557z M32.019,17.097c-0.543,0.505-1.441,0.888-2.088,0.888
		c-0.185,0-0.274-0.035-0.29-0.035l0,0c-0.119-0.245,0.142-1.301,0.894-2.001c0.402-0.371,0.917-0.594,1.379-0.594
		c0.139,0,0.395,0.024,0.558,0.176c0.036,0.034,0.148,0.14,0.148,0.399C32.621,16.22,32.465,16.681,32.019,17.097z"/>
	<rect x="20.469" y="27.938" fill="#A7A7A7" width="6.906" height="5.793"/>
	<rect x="29.656" y="27.938" fill="#A7A7A7" width="6.904" height="5.793"/>
	<path fill="#A7A7A7" d="M63.358,37.604c-0.242,1.037-0.783,1.826-1.506,2.496c-1.316,1.215-2.908,1.926-4.605,2.406
		c-2.609,0.738-5.266,0.865-7.947,0.51c-2.08-0.273-4.07-0.854-5.861-1.988c-1.301-0.824-2.352-1.861-2.775-3.445
		c0,0.496,0.018,0.988-0.002,1.48c-0.021,0.42,0.023,0.814,0.111,1.188H9.496c-1.79,0-3.245-1.455-3.245-3.244V10.835
		c0-1.789,1.456-3.244,3.245-3.244h37.981c1.789,0,3.244,1.455,3.244,3.244v13.61c-1.633,0.117-3.262,0.441-4.891,0.989
		c-1.58,0.529-3.012,1.336-4.125,2.627c-1.258,1.457-1.387,3.242-0.312,4.83c0.889,1.312,2.184,2.109,3.602,2.725
		c2.236,0.971,4.594,1.34,6.318,1.348c2.359,0.006,3.996-0.176,5.6-0.602c1.865-0.498,3.605-1.238,5.035-2.586
		c1.842-1.736,1.957-3.992,0.283-5.867c-1.074-1.209-2.463-1.963-3.967-2.471c-2.047-0.691-4.1-1.038-6.152-1.044V10.835
		c0-2.554-2.078-4.634-4.633-4.634H9.496c-2.555,0-4.635,2.08-4.635,4.634v26.171c0,2.553,2.08,4.633,4.635,4.633h31.897
		c0.229,0.336,0.5,0.656,0.82,0.953c1.318,1.232,2.92,1.945,4.633,2.424c3.047,0.85,6.127,0.918,9.219,0.289
		c1.912-0.389,3.711-1.066,5.283-2.262C63.086,41.726,63.821,39.796,63.358,37.604z M54.424,26.46l-1.955,3.588h1.58v0.609H52.17
		v0.953h1.879v0.613h-1.873v1.729h-0.875v-1.729h-1.867V31.61h1.881v-0.953h-1.881v-0.609h1.533l-1.928-3.588h0.998l1.707,3.359
		l1.732-3.359H54.424z"/>
	<path fill="#A7A7A7" d="M62.819,34.563c-0.719,1.143-1.756,1.922-2.93,2.533c-1.936,1.012-4.025,1.494-6.191,1.66
		c-3.014,0.238-5.959-0.072-8.752-1.301c-1.945-0.855-3.645-2.02-4.27-4.244c-0.016,0.576-0.014,1.152-0.018,1.729
		c-0.012,1.043,0.371,1.943,1.037,2.73c1.117,1.324,2.59,2.105,4.189,2.666c2.881,1.012,5.848,1.213,8.857,0.818
		c2.115-0.275,4.131-0.875,5.961-2.027c2.203-1.381,3.078-3.262,2.666-5.896C63.215,33.733,63.065,34.169,62.819,34.563z"/>
</g>
</svg>
