<?xml version="1.0" encoding="utf-8"?>
<!-- Generator: Adobe Illustrator 16.0.0, SVG Export Plug-In . SVG Version: 6.00 Build 0)  -->
<!DOCTYPE svg PUBLIC "-//W3C//DTD SVG 1.1//EN" "http://www.w3.org/Graphics/SVG/1.1/DTD/svg11.dtd">
<svg version="1.1" id="Layer_1" xmlns="http://www.w3.org/2000/svg" xmlns:xlink="http://www.w3.org/1999/xlink" x="0px" y="0px"
	 width="68.354px" height="51.926px" viewBox="0 0 68.354 51.926" enable-background="new 0 0 68.354 51.926" xml:space="preserve">
<g>
	<g opacity="0.56">
		<g>
			<path fill="#FFFFFF" d="M20.648,34.918c-0.815,0-1.475,0.662-1.475,1.473c0.001,0.818,0.66,1.477,1.475,1.477
				c0.813,0,1.475-0.658,1.475-1.477C22.122,35.577,21.461,34.918,20.648,34.918z"/>
			<circle fill="#FFFFFF" cx="20.648" cy="30.511" r="1.476"/>
			<circle fill="#FFFFFF" cx="20.648" cy="24.631" r="1.474"/>
			<circle fill="#FFFFFF" cx="20.648" cy="18.753" r="1.475"/>
		</g>
		<polygon fill="#FFFFFF" points="55.361,32.475 55.361,24.507 50.933,24.507 50.933,32.475 42.964,32.475 42.964,36.903 
			50.933,36.903 50.933,44.872 55.361,44.872 55.361,36.903 63.329,36.903 63.329,32.475 		"/>
		<g>
			<path fill="#FFFFFF" d="M23.13,44.872h25.373v-1.703h-24.16l-0.106-0.197c-0.757-1.396-2.159-2.23-3.751-2.23
				s-2.995,0.834-3.752,2.23l-0.106,0.197H6.728V12.709h10.064l0.113,0.158c0.797,1.116,2.133,1.809,3.488,1.809
				c1.388,0,2.692-0.676,3.489-1.807l0.112-0.16h29.701v9.581H55.4V11.007H22.955l-0.231,0.484c-0.437,0.915-1.329,1.483-2.33,1.483
				c-1.002,0-1.895-0.568-2.331-1.482l-0.23-0.485H5.026v33.864H17.84l0.186-0.6c0.337-1.094,1.325-1.828,2.46-1.828
				c1.133,0,2.121,0.734,2.46,1.826L23.13,44.872z"/>
		</g>
	</g>
	<g>
		<rect x="0" y="0" fill="none" width="68.354" height="51.927"/>
	</g>
</g>
</svg>
