<?xml version="1.0" encoding="utf-8"?>
<!-- Generator: Adobe Illustrator 16.0.0, SVG Export Plug-In . SVG Version: 6.00 Build 0)  -->
<!DOCTYPE svg PUBLIC "-//W3C//DTD SVG 1.1//EN" "http://www.w3.org/Graphics/SVG/1.1/DTD/svg11.dtd">
<svg version="1.1" id="Layer_1" xmlns="http://www.w3.org/2000/svg" xmlns:xlink="http://www.w3.org/1999/xlink" x="0px" y="0px"
	 width="68.354px" height="51.926px" viewBox="0 0 68.354 51.926" enable-background="new 0 0 68.354 51.926" xml:space="preserve">
<g>
	<g>
		<rect x="0.001" fill="none" width="68.353" height="51.927"/>
	</g>
	<path opacity="0.6" fill="#FFFFFF" d="M25.331,8.514c2.969,0,6.019,1.467,7.959,3.828c0.41,0.497,1.359,0.498,1.771,0
		c1.943-2.361,4.992-3.828,7.959-3.828c5.42,0,9.664,4.382,9.664,9.976c0,1.218-0.195,2.419-0.576,3.637h2.383
		c0.32-1.214,0.484-2.423,0.484-3.638c0-6.879-5.25-12.267-11.955-12.267c-3.111,0-6.24,1.255-8.584,3.443l-0.258,0.246l-0.26-0.244
		c-2.343-2.189-5.472-3.444-8.585-3.444c-6.704,0-11.956,5.388-11.956,12.267c0,8.38,7.219,14.947,17.209,24.037l2.77,2.849
		c0.429,0.438,1.211,0.44,1.645-0.002l2.682-2.767c0.951-0.866,1.857-1.694,2.74-2.506h-3.393l-0.939,0.859l-1.914,1.971
		l-1.998-2.051C21.64,31.288,15.668,25.51,15.668,18.49C15.668,12.896,19.912,8.514,25.331,8.514z"/>
</g>
</svg>
