<?xml version="1.0" encoding="utf-8"?>
<!-- Generator: Adobe Illustrator 16.0.0, SVG Export Plug-In . SVG Version: 6.00 Build 0)  -->
<!DOCTYPE svg PUBLIC "-//W3C//DTD SVG 1.1//EN" "http://www.w3.org/Graphics/SVG/1.1/DTD/svg11.dtd">
<svg version="1.1" id="Layer_1" xmlns="http://www.w3.org/2000/svg" xmlns:xlink="http://www.w3.org/1999/xlink" x="0px" y="0px"
	 width="128.75px" height="84.559px" viewBox="-5.25 0 128.75 84.559" enable-background="new -5.25 0 128.75 84.559"
	 xml:space="preserve">
<g>
	<g>
		<g>
			<path fill="#787366" d="M61.771,34.149c-0.84-0.242-1.728-0.375-2.646-0.375c-5.274,0-9.551,4.276-9.551,9.55
				c0,0.919,0.133,1.806,0.374,2.648L61.771,34.149z"/>
			<linearGradient id="SVGID_1_" gradientUnits="userSpaceOnUse" x1="49.2002" y1="40.0432" x2="62.4854" y2="40.0432">
				<stop  offset="0" style="stop-color:#E5E5E5"/>
				<stop  offset="0.5398" style="stop-color:#FFFFFF"/>
				<stop  offset="1" style="stop-color:#C8C8C8"/>
			</linearGradient>
			<path fill="url(#SVGID_1_)" d="M49.765,46.686l-0.176-0.61c-0.258-0.896-0.389-1.821-0.389-2.751
				c0-5.472,4.453-9.924,9.926-9.924c0.929,0,1.853,0.131,2.751,0.389l0.608,0.176L49.765,46.686z M59.126,34.149
				c-5.061,0-9.177,4.117-9.177,9.176c0,0.644,0.067,1.284,0.202,1.916l10.888-10.889C60.41,34.218,59.769,34.149,59.126,34.149z"/>
		</g>
	</g>
	<g>
		<g>
			<path fill="#787366" d="M58.317,52.838c0.267,0.022,0.536,0.037,0.809,0.037c5.273,0,9.55-4.276,9.55-9.551
				c0-0.271-0.014-0.54-0.036-0.807L58.317,52.838z"/>
			<linearGradient id="SVGID_2_" gradientUnits="userSpaceOnUse" x1="57.4805" y1="47.467" x2="69.0498" y2="47.467">
				<stop  offset="0" style="stop-color:#E5E5E5"/>
				<stop  offset="0.5398" style="stop-color:#FFFFFF"/>
				<stop  offset="1" style="stop-color:#C8C8C8"/>
			</linearGradient>
			<path fill="url(#SVGID_2_)" d="M59.126,53.251c-0.255,0-0.529-0.014-0.839-0.038l-0.807-0.066l11.463-11.463l0.068,0.802
				c0.027,0.3,0.038,0.574,0.038,0.839C69.05,48.799,64.598,53.251,59.126,53.251z M68.301,43.385l-9.114,9.116
				C64.198,52.469,68.269,48.397,68.301,43.385z"/>
		</g>
	</g>
</g>
<g>
	<g>
		<path fill="#787366" d="M109.678,41.581c-0.562-0.708-1.232-1.318-1.895-1.929c-2.416-2.164-4.943-4.203-7.574-6.103
			c-4.459-3.223-9.203-6.075-14.184-8.417L75.531,35.627c0.146,0.313,0.287,0.629,0.414,0.951c1.729,4.273,1.73,9.21,0.004,13.484
			c-1.494,3.764-4.291,6.988-7.795,9.019c-4.35,2.553-9.786,3.147-14.582,1.585c-0.756-0.239-1.494-0.532-2.209-0.871l-6.377,6.378
			c4.072,1.057,8.253,1.693,12.457,1.845h3.249c8.701-0.292,17.23-2.718,25.086-6.396c7.977-3.742,15.352-8.728,21.928-14.578
			c0.746-0.682,1.516-1.354,2.115-2.174c0.223-0.295,0.377-0.638,0.43-1.003v-1.081C110.186,42.334,109.957,41.932,109.678,41.581z"
			/>
		<linearGradient id="SVGID_3_" gradientUnits="userSpaceOnUse" x1="42.8037" y1="46.4602" x2="111.373" y2="46.4602">
			<stop  offset="0" style="stop-color:#E5E5E5"/>
			<stop  offset="0.5398" style="stop-color:#FFFFFF"/>
			<stop  offset="1" style="stop-color:#C8C8C8"/>
		</linearGradient>
		<path fill="url(#SVGID_3_)" d="M60.709,69.14h-3.308c-4.211-0.153-8.485-0.786-12.698-1.881l-1.9-0.495l8.324-8.324l0.715,0.338
			c0.683,0.324,1.378,0.598,2.07,0.816c1.644,0.536,3.369,0.807,5.134,0.807c3.035,0,5.986-0.792,8.537-2.291
			c3.318-1.92,5.916-4.925,7.32-8.462c1.625-4.022,1.625-8.63-0.002-12.648c-0.109-0.275-0.236-0.566-0.389-0.895l-0.336-0.714
			l11.609-11.61l0.715,0.336c4.883,2.296,9.719,5.164,14.367,8.523c2.645,1.913,5.223,3.991,7.662,6.176l0.084,0.078
			c0.664,0.608,1.346,1.238,1.943,1.989c0.447,0.564,0.719,1.15,0.803,1.745l0.012,0.158l-0.012,1.244
			c-0.078,0.534-0.301,1.059-0.641,1.514c-0.592,0.811-1.314,1.469-2.012,2.104l-0.244,0.224
			c-6.863,6.107-14.332,11.071-22.211,14.768c-8.619,4.035-17.209,6.223-25.525,6.501H60.709z M57.463,66.895h3.209
			c8.006-0.272,16.293-2.389,24.631-6.291c7.678-3.604,14.967-8.448,21.656-14.399l0.236-0.217c0.645-0.586,1.252-1.142,1.719-1.781
			c0.107-0.145,0.18-0.293,0.213-0.438v-0.886c-0.041-0.177-0.15-0.379-0.326-0.6c-0.49-0.616-1.082-1.161-1.707-1.737l-0.072-0.066
			c-2.371-2.123-4.889-4.151-7.471-6.019c-4.309-3.114-8.777-5.794-13.293-7.972l-9.387,9.386c0.041,0.098,0.08,0.194,0.119,0.288
			c1.836,4.548,1.838,9.77,0,14.321c-1.588,3.997-4.527,7.399-8.273,9.568c-2.889,1.697-6.236,2.596-9.67,2.596
			c-2.002,0-3.961-0.307-5.823-0.914c-0.535-0.17-1.077-0.371-1.614-0.598l-4.415,4.414C50.616,66.318,54.06,66.768,57.463,66.895z"
			/>
	</g>
	<g>
		<path fill="#787366" d="M89.057,10.215c-1.107-1.108-3.043-0.968-4.322,0.312l-10.281,10.28
			c-4.463-1.236-9.057-2.002-13.688-2.174h-3.323c-8.868,0.308-17.544,2.838-25.517,6.652c-7.226,3.464-14.305,8.127-20.589,13.609
			c-0.84,0.743-1.682,1.487-2.439,2.314c-0.409,0.456-0.805,0.967-0.895,1.59v1.065c0.101,0.764,0.658,1.344,1.162,1.883
			c1.154,1.17,2.422,2.223,3.676,3.289c3.225,2.702,6.638,5.178,10.193,7.428c0.285,0.185,0.599,0.322,0.892,0.496
			c3.016,1.853,6.142,3.538,9.364,5.013l-7.613,7.614c-1.281,1.279-1.42,3.215-0.314,4.322c1.108,1.106,3.043,0.967,4.324-0.312
			l59.056-59.059C90.023,13.257,90.164,11.322,89.057,10.215z M49.479,27.885c2.329-1.465,5-2.382,7.739-2.663
			c3.312-0.349,6.721,0.245,9.715,1.705c0.312,0.149,0.617,0.312,0.92,0.481L43.171,52.091c-0.892-1.616-1.544-3.364-1.904-5.176
			c-0.727-3.576-0.344-7.374,1.102-10.727C43.818,32.781,46.338,29.843,49.479,27.885z"/>
		<linearGradient id="SVGID_4_" gradientUnits="userSpaceOnUse" x1="6.8774" y1="42.0608" x2="90.9219" y2="42.0608">
			<stop  offset="0" style="stop-color:#E5E5E5"/>
			<stop  offset="0.5398" style="stop-color:#FFFFFF"/>
			<stop  offset="1" style="stop-color:#C8C8C8"/>
		</linearGradient>
		<path fill="url(#SVGID_4_)" d="M27.238,75.779L27.238,75.779c-1.028,0-1.977-0.382-2.67-1.076
			c-0.771-0.769-1.148-1.824-1.065-2.972c0.078-1.086,0.568-2.131,1.377-2.94l6.483-6.481c-2.683-1.291-5.376-2.766-8.027-4.392
			c-0.095-0.057-0.208-0.116-0.323-0.177c-0.181-0.093-0.385-0.201-0.59-0.332c-3.641-2.307-7.112-4.835-10.307-7.512l-0.401-0.34
			c-1.124-0.953-2.286-1.938-3.354-3.023l-0.062-0.066c-0.564-0.604-1.267-1.356-1.412-2.456l-0.01-0.147l0.011-1.229
			c0.134-0.916,0.667-1.614,1.171-2.177c0.801-0.873,1.671-1.645,2.513-2.391c6.327-5.519,13.534-10.282,20.868-13.796
			c8.766-4.194,17.5-6.469,25.962-6.762l0.04-0.001l3.366,0.001c4.359,0.163,8.834,0.849,13.309,2.043l9.822-9.82
			c0.883-0.882,2.062-1.388,3.24-1.388c1.029,0,1.977,0.382,2.672,1.076c1.541,1.544,1.402,4.196-0.312,5.911L30.48,74.39
			C29.597,75.274,28.417,75.779,27.238,75.779z M9.125,43.771c0.078,0.371,0.438,0.756,0.816,1.163l0.042,0.047
			c0.977,0.989,2.099,1.941,3.185,2.861l0.398,0.337c3.113,2.608,6.501,5.078,10.066,7.336c0.127,0.082,0.27,0.156,0.422,0.235
			c0.149,0.078,0.298,0.156,0.444,0.242c3.068,1.883,6.178,3.55,9.258,4.957l1.471,0.674L26.47,70.38
			c-0.429,0.428-0.687,0.965-0.727,1.512c-0.035,0.487,0.113,0.92,0.414,1.221c0.346,0.348,0.778,0.419,1.081,0.419
			c0.587,0,1.189-0.267,1.652-0.729l59.059-59.059c0.84-0.84,0.979-2.067,0.312-2.734c-0.346-0.346-0.779-0.418-1.082-0.418
			c-0.586,0-1.188,0.266-1.65,0.73L74.785,22.065l-0.633-0.175c-4.512-1.251-9.023-1.97-13.406-2.134h-3.285
			c-8.144,0.286-16.572,2.486-25.051,6.542c-7.151,3.428-14.184,8.076-20.335,13.441c-0.848,0.75-1.637,1.449-2.349,2.228
			c-0.268,0.299-0.53,0.625-0.601,0.932V43.771z M42.908,53.942l-0.722-1.309c-0.965-1.749-1.645-3.598-2.022-5.499
			c-0.772-3.796-0.354-7.843,1.173-11.391c1.531-3.601,4.211-6.733,7.546-8.812c2.465-1.55,5.31-2.528,8.22-2.827
			c0.65-0.069,1.315-0.103,1.975-0.103c2.891,0,5.777,0.662,8.348,1.915c0.287,0.138,0.6,0.301,0.977,0.509l1.297,0.725
			L42.908,53.942z M59.078,26.248c-0.582,0-1.168,0.03-1.742,0.091c-2.572,0.264-5.081,1.127-7.259,2.497
			c-2.951,1.839-5.319,4.607-6.673,7.792c-1.352,3.135-1.718,6.707-1.035,10.064c0.236,1.194,0.608,2.364,1.111,3.499l22.48-22.48
			C63.814,26.752,61.449,26.248,59.078,26.248z"/>
	</g>
	<path opacity="0.6" fill="#C0B9AB" enable-background="new    " d="M13.63,48.129c0.058,0.05,0.119,0.1,0.177,0.151
		c3.226,2.702,6.684,5.177,10.237,7.427l17.06-19.094c0,0,1.357-3.877,3.728-6.374c2.373-2.497,6.142-4.478,6.142-4.478l5.594-5.947
		c-8.867,0.307-16.623,2.99-24.595,6.804c-3.327,1.595-10.216,4.743-19.664,12.984c-0.833,0.739-0.951,0.719-2.122,1.998
		C9.78,42.057,9.28,42.476,9.188,43.1l0.125,0.686c0.102,0.766,0.558,0.897,1.061,1.436C11.474,46.337,12.457,47.136,13.63,48.129"
		/>
</g>
</svg>
