<?xml version="1.0" encoding="utf-8"?>
<!-- Generator: Adobe Illustrator 16.0.0, SVG Export Plug-In . SVG Version: 6.00 Build 0)  -->
<!DOCTYPE svg PUBLIC "-//W3C//DTD SVG 1.1//EN" "http://www.w3.org/Graphics/SVG/1.1/DTD/svg11.dtd">
<svg version="1.1" id="Layer_1" xmlns="http://www.w3.org/2000/svg" xmlns:xlink="http://www.w3.org/1999/xlink" x="0px" y="0px"
	 width="68.354px" height="51.926px" viewBox="0 0 68.354 51.926" enable-background="new 0 0 68.354 51.926" xml:space="preserve">
<rect x="0" y="-0.001" fill="none" width="68.354" height="51.928"/>
<g>
	<path opacity="0.6" fill="#FFFFFF" d="M40.697,11.683c0.105,0,0.211,0,0.315,0c-0.05-0.04-0.101-0.08-0.15-0.12
		c-0.055,0.002-0.11,0.003-0.165,0.005C40.697,11.605,40.697,11.644,40.697,11.683z"/>
	<path opacity="0.6" fill="#FFFFFF" d="M28.81,11.683c0.054,0,0.108,0,0.163,0c0-0.039,0-0.077-0.001-0.115
		c-0.053-0.001-0.106-0.002-0.161-0.003C28.811,11.603,28.81,11.643,28.81,11.683z"/>
	<path opacity="0.6" fill="#FFFFFF" d="M25.29,11.683c0.054,0,0.108,0,0.163,0c0-0.04,0-0.079,0-0.118
		c-0.055,0-0.107,0.001-0.161,0.002C25.291,11.605,25.29,11.644,25.29,11.683z"/>
	<path opacity="0.6" fill="#FFFFFF" d="M28.136,17.251c-0.885,0.016-1.77,0.006-2.655,0.006c-0.937,0-1.874,0.005-2.81-0.004
		c-0.207-0.002-0.299,0.037-0.297,0.273c0.01,1.353,0.01,2.706-0.001,4.059c-0.001,0.249,0.088,0.3,0.317,0.3
		c1.835-0.008,3.669-0.012,5.503,0.001c0.289,0.003,0.339-0.103,0.337-0.36c-0.012-1.3-0.019-2.601,0.003-3.902
		C28.537,17.299,28.424,17.245,28.136,17.251z"/>
	<path opacity="0.6" fill="#FFFFFF" d="M37.517,17.251c-0.885,0.016-1.77,0.006-2.653,0.006c-0.937,0-1.874,0.005-2.812-0.004
		c-0.206-0.002-0.298,0.037-0.297,0.273c0.009,1.353,0.01,2.706,0,4.059c-0.003,0.249,0.087,0.3,0.315,0.3
		c1.834-0.008,3.669-0.012,5.504,0.001c0.288,0.003,0.339-0.103,0.337-0.36c-0.012-1.3-0.018-2.601,0.003-3.902
		C37.919,17.299,37.806,17.245,37.517,17.251z"/>
	<path opacity="0.6" fill="#FFFFFF" d="M46.898,17.251c-0.885,0.016-1.77,0.006-2.654,0.006c-0.936,0-1.873,0.005-2.809-0.004
		c-0.206-0.002-0.3,0.037-0.299,0.273c0.012,1.353,0.012,2.706,0,4.059c-0.002,0.249,0.088,0.3,0.318,0.3
		c1.833-0.008,3.668-0.012,5.502,0.001c0.289,0.003,0.338-0.103,0.336-0.36c-0.011-1.3-0.017-2.601,0.004-3.902
		C47.302,17.299,47.187,17.245,46.898,17.251z"/>
	<path opacity="0.6" fill="#FFFFFF" d="M28.136,23.183c-0.885,0.016-1.77,0.006-2.655,0.006c-0.937,0-1.874,0.005-2.81-0.004
		c-0.207-0.001-0.299,0.038-0.297,0.274c0.01,1.353,0.01,2.707-0.001,4.06c-0.001,0.248,0.088,0.301,0.317,0.3
		c1.835-0.008,3.669-0.013,5.503,0.002c0.289,0.003,0.339-0.104,0.337-0.36c-0.012-1.301-0.019-2.602,0.003-3.902
		C28.537,23.231,28.424,23.177,28.136,23.183z"/>
	<path opacity="0.6" fill="#FFFFFF" d="M37.517,23.183c-0.885,0.016-1.77,0.006-2.653,0.006c-0.937,0-1.874,0.005-2.812-0.004
		c-0.206-0.001-0.298,0.038-0.297,0.274c0.009,1.353,0.01,2.707,0,4.06c-0.003,0.248,0.087,0.301,0.315,0.3
		c1.834-0.008,3.669-0.013,5.504,0.002c0.288,0.003,0.339-0.104,0.337-0.36c-0.012-1.301-0.018-2.602,0.003-3.902
		C37.919,23.231,37.806,23.177,37.517,23.183z"/>
	<path opacity="0.6" fill="#FFFFFF" d="M46.898,23.183c-0.885,0.016-1.77,0.006-2.654,0.006c-0.936,0-1.873,0.005-2.809-0.004
		c-0.206-0.001-0.3,0.038-0.299,0.274c0.012,1.353,0.012,2.707,0,4.06c-0.002,0.248,0.088,0.301,0.318,0.3
		c1.833-0.008,3.668-0.013,5.502,0.002c0.289,0.003,0.338-0.104,0.336-0.36c-0.011-1.301-0.017-2.602,0.004-3.902
		C47.302,23.231,47.187,23.177,46.898,23.183z"/>
	<path opacity="0.6" fill="#FFFFFF" d="M21.449,11.696l1.82-0.946l1.812,0.964L24.745,9.69l1.429-1.379l1.386,1.364l-0.357,2.021
		l1.821-0.946l1.811,0.964L30.499,9.69l1.384-1.336l1.342,1.321l-0.356,2.021l1.82-0.946l1.812,0.964L36.163,9.69l1.428-1.379
		l1.386,1.364l-0.355,2.021l1.82-0.946l1.812,0.964L41.916,9.69l1.39-1.34l1.347,1.325l-0.333,1.891c-0.034,0-0.068,0-0.104,0
		c0,0.039,0,0.078,0,0.117c0.027,0,0.056,0,0.083,0l-0.003,0.014l0.027-0.014c0.018,0,0.037,0,0.056,0c0-0.01,0-0.02,0-0.029
		l1.737-0.903l1.812,0.964L47.591,9.69l1.477-1.425L47.038,7.96L46.14,6.115L45.222,7.95l-2.026,0.285L41.364,7.96l-0.899-1.845
		l-0.917,1.835l-2.032,0.285l0.013,0.012L35.611,7.96l-0.898-1.845l-0.918,1.835l-2.021,0.284L29.946,7.96l-0.9-1.845L28.13,7.951
		l-2.032,0.285l0.012,0.012L24.192,7.96l-0.899-1.845l-0.917,1.835l-2.032,0.285l1.462,1.439L21.449,11.696z"/>
	<path opacity="0.6" fill="#FFFFFF" d="M52.225,16.769c0-2.362-1.336-4.146-3.507-4.707c-0.422-0.108-0.848-0.132-1.278-0.133
		c-1.38-0.002-2.763-0.007-4.143-0.011c-0.054,0-0.108,0-0.163,0c-1.118,0-2.238,0-3.356,0c-0.054,0-0.108,0-0.163,0
		c-1.326,0-2.653,0-3.98,0c-0.333,0-0.666,0-1,0c-0.305,0-0.61,0-0.915,0c-0.333,0-0.667,0-1,0c-1.327,0-2.654,0-3.98,0
		c-0.054,0-0.109,0-0.163,0c-1.118,0-2.238,0-3.356,0c-0.055,0-0.109,0-0.163,0c-1.38,0.004-2.762,0.009-4.143,0.011
		c-0.431,0.001-0.857,0.025-1.278,0.133c-2.172,0.561-3.507,2.345-3.508,4.707c-0.001,9.54,0.001,19.079-0.008,28.617
		c0,0.338,0.072,0.426,0.42,0.425c5.878-0.005,11.757-0.004,17.636-0.003c5.879-0.001,11.758-0.002,17.638,0.003
		c0.347,0.001,0.419-0.087,0.419-0.425C52.224,35.848,52.227,26.309,52.225,16.769z M48.751,42.736
		c-3.832-0.013-7.664-0.014-11.495,0.003c-0.383,0.003-0.438-0.128-0.437-0.463c0.012-2.803,0.003-5.605,0.012-8.407
		c0.002-0.296-0.061-0.397-0.381-0.395c-0.605,0.005-1.211,0.002-1.816,0c-0.305,0-0.61-0.001-0.915,0
		c-0.605,0.002-1.211,0.005-1.816,0c-0.32-0.003-0.382,0.099-0.381,0.395c0.009,2.802,0.001,5.604,0.013,8.407
		c0.001,0.335-0.054,0.466-0.437,0.463c-3.831-0.017-7.663-0.016-11.495-0.003c-0.317,0.001-0.413-0.069-0.413-0.4
		c0.011-8.522,0.007-17.046,0.007-25.57c0.001-1.147,0.617-1.768,1.759-1.768c4.407-0.001,8.814,0,13.221,0s8.813-0.001,13.221,0
		c1.141,0,1.758,0.621,1.759,1.768c0,8.524-0.003,17.048,0.007,25.57C49.163,42.667,49.068,42.737,48.751,42.736z"/>
</g>
</svg>
