<?xml version="1.0" encoding="utf-8"?>
<!-- Generator: Adobe Illustrator 16.0.0, SVG Export Plug-In . SVG Version: 6.00 Build 0)  -->
<!DOCTYPE svg PUBLIC "-//W3C//DTD SVG 1.1//EN" "http://www.w3.org/Graphics/SVG/1.1/DTD/svg11.dtd">
<svg version="1.1" id="Layer_1" xmlns="http://www.w3.org/2000/svg" xmlns:xlink="http://www.w3.org/1999/xlink" x="0px" y="0px"
	 width="45.01px" height="30.505px" viewBox="-154.328 6.71 45.01 30.505" enable-background="new -154.328 6.71 45.01 30.505"
	 xml:space="preserve">
<g>
	<g opacity="0.6">
		<path fill="#FFFFFF" d="M-138.434,6.71l-0.306,0.639c-0.321,0.674-0.977,1.092-1.71,1.092c-0.734,0-1.389-0.418-1.71-1.091
			l-0.305-0.64h-11.863l0.001,30.505h11.908l0.244-0.79c0.25-0.805,0.974-1.346,1.804-1.346c0.831,0,1.557,0.541,1.804,1.343
			l0.245,0.793h29.004V6.71H-138.434z M-152.084,34.971V8.955h8.276c0.772,1.07,2.04,1.729,3.354,1.729
			c1.346,0,2.587-0.643,3.36-1.729h25.528v26.018h-25.191c-0.729-1.324-2.092-2.135-3.614-2.135c-1.523,0-2.886,0.811-3.611,2.135
			h-8.103V34.971z"/>
		<circle fill="#FFFFFF" cx="-140.227" cy="29.39" r="1.295"/>
		<circle fill="#FFFFFF" cx="-140.227" cy="24.222" r="1.297"/>
		<circle fill="#FFFFFF" cx="-140.227" cy="19.056" r="1.296"/>
		<circle fill="#FFFFFF" cx="-140.227" cy="13.89" r="1.295"/>
		<polygon fill="#FFFFFF" points="-128.652,21.926 -128.652,23.494 -126.18,23.494 -126.18,25.104 -128.652,25.104 -128.652,26.661 
			-126.18,26.661 -126.18,29.939 -123.205,29.939 -123.205,26.661 -120.73,26.661 -120.73,25.104 -123.205,25.104 -123.205,23.494 
			-120.73,23.494 -120.73,21.926 -122.522,21.926 -119.204,14.417 -121.988,14.417 -124.621,20.67 -127.256,14.417 -130.201,14.417 
			-126.883,21.926 		"/>
	</g>
</g>
</svg>
