<?xml version="1.0" encoding="utf-8"?>
<!-- Generator: Adobe Illustrator 16.0.0, SVG Export Plug-In . SVG Version: 6.00 Build 0)  -->
<!DOCTYPE svg PUBLIC "-//W3C//DTD SVG 1.1//EN" "http://www.w3.org/Graphics/SVG/1.1/DTD/svg11.dtd">
<svg version="1.1" id="Layer_1" xmlns="http://www.w3.org/2000/svg" xmlns:xlink="http://www.w3.org/1999/xlink" x="0px" y="0px"
	 width="45.113px" height="42.046px" viewBox="-162.768 9.773 45.113 42.046" enable-background="new -162.768 9.773 45.113 42.046"
	 xml:space="preserve">
<g opacity="0.6">
	<path fill="#FFFFFF" d="M-117.655,50.862l-0.114-0.074V30.867l-3.438-2.324v-2.944v-1.14h-1.14h-4.896l-5.826-3.94l-6.008,3.94
		h-4.079V12.272c0-1.38-1.118-2.499-2.499-2.499h-14.613c-1.381,0-2.499,1.119-2.499,2.499v35.399c0,1.379,1.117,2.498,2.499,2.498
		h11.424v0.512v1.139h1.139h28.795h1.14h0.002v-0.776L-117.655,50.862z M-121.3,34.415h0.091v-0.091l2.298-2.312v18.043
		l-10.95-7.031L-121.3,34.415z M-119.471,30.96l-1.737,1.748v-2.907L-119.471,30.96z M-122.348,33.854l-8.492,8.541l-2.098-1.348
		l-0.017-0.025l-0.012,0.008l-0.011-0.008l-0.017,0.025l-2.515,1.615l-8.587-8.637v-8.428h21.747V33.854z M-145.235,32.882
		l-1.722-1.731l1.722-1.147V32.882z M-136.489,43.292l-11.217,7.204V32.011L-136.489,43.292z M-133.071,21.887l3.854,2.571h-7.709
		L-133.071,21.887z M-155.571,13.005h5.216c0.161,0,0.293,0.131,0.293,0.293s-0.132,0.295-0.293,0.295h-5.216
		c-0.162,0-0.293-0.133-0.293-0.295S-155.733,13.005-155.571,13.005z M-152.964,49.067c-0.892,0-1.615-0.724-1.615-1.616
		c0-0.892,0.725-1.616,1.615-1.616c0.893,0,1.616,0.725,1.616,1.616C-151.347,48.344-152.071,49.067-152.964,49.067z
		 M-161.336,44.66V15.355h16.745v9.104h-0.646v1.14v2.899l-3.609,2.369V44.66H-161.336z M-132.966,42.382l12.922,8.299h-25.843
		L-132.966,42.382z"/>
	<path fill="#FFFFFF" d="M-138.529,36.317c1.165,1.431,2.9,2.146,5.206,2.146c0.6,0,1.141-0.039,1.622-0.114
		c0.483-0.076,1.053-0.211,1.708-0.406l-0.379-1.233c-0.939,0.313-1.915,0.472-2.923,0.472c-1.631,0-2.872-0.418-3.723-1.257
		c-0.817-0.803-1.228-1.868-1.228-3.2c0-0.632,0.1-1.213,0.294-1.741c0.299-0.821,0.768-1.486,1.403-1.994
		c0.884-0.7,1.978-1.049,3.28-1.049c1.649,0,2.937,0.475,3.857,1.427c0.718,0.741,1.075,1.633,1.075,2.674
		c0,0.76-0.172,1.371-0.52,1.832c-0.343,0.453-0.793,0.677-1.354,0.677c-0.442,0-0.663-0.21-0.663-0.635
		c0-0.175,0.023-0.362,0.07-0.563l0.893-3.734h-1.798l-0.128,0.542c-0.343-0.5-0.916-0.75-1.719-0.75
		c-0.656,0-1.25,0.199-1.782,0.594c-0.428,0.309-0.788,0.752-1.077,1.332c-0.338,0.676-0.506,1.383-0.506,2.125
		c0,0.688,0.176,1.24,0.527,1.647c0.371,0.438,0.884,0.656,1.541,0.656c0.518,0,0.961-0.101,1.333-0.301
		c0.304-0.166,0.636-0.439,0.998-0.82c0.081,0.768,0.7,1.148,1.86,1.148c1.117,0,2.003-0.326,2.659-0.977
		c0.704-0.699,1.056-1.638,1.056-2.811c0-0.6-0.089-1.149-0.263-1.655c-0.287-0.808-0.752-1.494-1.397-2.061
		c-1.209-1.061-2.716-1.59-4.521-1.59c-1.482,0-2.75,0.324-3.801,0.977c-0.818,0.504-1.469,1.17-1.954,1.998
		c-0.532,0.908-0.798,1.896-0.798,2.966C-139.677,34.144-139.294,35.371-138.529,36.317z M-132.718,33.5
		c-0.328,0.624-0.781,0.937-1.361,0.937c-0.637,0-0.956-0.373-0.956-1.119c0-0.258,0.048-0.561,0.145-0.908
		c0.104-0.379,0.249-0.701,0.434-0.961c0.328-0.462,0.727-0.691,1.191-0.691c0.209,0,0.395,0.054,0.557,0.164
		c0.271,0.175,0.406,0.493,0.406,0.955C-132.303,32.435-132.44,32.976-132.718,33.5z"/>
</g>
</svg>
