<?xml version="1.0" encoding="utf-8"?>
<!-- Generator: Adobe Illustrator 16.0.4, SVG Export Plug-In . SVG Version: 6.00 Build 0)  -->
<!DOCTYPE svg PUBLIC "-//W3C//DTD SVG 1.1//EN" "http://www.w3.org/Graphics/SVG/1.1/DTD/svg11.dtd">
<svg version="1.1" id="Layer_1" xmlns="http://www.w3.org/2000/svg" xmlns:xlink="http://www.w3.org/1999/xlink" x="0px" y="0px"
	 width="68.354px" height="51.926px" viewBox="0 0 68.354 51.926" enable-background="new 0 0 68.354 51.926" xml:space="preserve">
<g>
	<g>
		<g>
			<rect x="0" y="-0.001" fill="none" width="68.354" height="51.928"/>
		</g>
	</g>
	<g opacity="0.6">
		<path fill="#FFFFFF" d="M49.219,40.544c0,0.688-0.565,1.251-1.256,1.251H7.403c-0.688,0-1.248-0.562-1.248-1.251V10.119
			c0-0.687,0.56-1.25,1.248-1.25h40.561c0.69,0,1.256,0.558,1.256,1.25v10.349c0.755-0.332,1.497-0.61,2.229-0.851v-9.498
			c0-1.921-1.562-3.484-3.485-3.484H7.403c-1.918,0-3.486,1.563-3.486,3.484v30.425c0,1.917,1.567,3.485,3.486,3.485h40.561
			c1.924,0,3.485-1.568,3.485-3.485V28.966c-0.768,0.225-1.511,0.483-2.229,0.782V40.544z"/>
		<rect x="11.273" y="15.01" fill="#FFFFFF" width="31.325" height="3.183"/>
		<rect x="11.388" y="22.99" fill="#FFFFFF" width="25.902" height="3.175"/>
		<rect x="11.538" y="30.996" fill="#FFFFFF" width="17.847" height="3.18"/>
		<path fill="#FFFFFF" d="M56.925,16.495l-0.024,4.047l-0.576,0.018c-1.534,0.045-6.808,0.496-10.212,4.418
			c-3.494,4.028-3.828,8.617-3.865,9.371c0.59-0.859,5.506-7.695,12.978-7.695c0.354,0,0.714,0.018,1.071,0.046l0.537,0.048
			l0.078,5.431l8.188-8.281L56.925,16.495z"/>
	</g>
</g>
</svg>
