<?xml version="1.0" encoding="utf-8"?>
<!-- Generator: Adobe Illustrator 16.0.0, SVG Export Plug-In . SVG Version: 6.00 Build 0)  -->
<!DOCTYPE svg PUBLIC "-//W3C//DTD SVG 1.1//EN" "http://www.w3.org/Graphics/SVG/1.1/DTD/svg11.dtd">
<svg version="1.1" id="Layer_1" xmlns="http://www.w3.org/2000/svg" xmlns:xlink="http://www.w3.org/1999/xlink" x="0px" y="0px"
	 width="43.478px" height="42.464px" viewBox="-231.221 -7.643 43.478 42.464"
	 enable-background="new -231.221 -7.643 43.478 42.464" xml:space="preserve">
<g opacity="0.6">
	<path fill="#FFFFFF" d="M-189.023,7.057c-0.693-1.279-4.003-6.495-4.529-7.496c-0.526-1-1.32-2.617-2.852-3.233
		c-1.529-0.616-7.401-2.464-10.327-3.388s-4.234-0.616-6.005,0c-1.771,0.615-6.158,2.156-8.433,2.849
		c-2.275,0.693-3.192,2.001-3.874,3.249c-0.683,1.248-3.631,5.681-4.555,7.452c-0.924,1.771-1.924,2.771-1.539,5.313
		c0,0,0.693,4.463,1.539,9.442c0.847,4.979,1.925,5.183,3.542,6.567c1.617,1.387,5.082,4.082,7.083,5.572
		c2.001,1.492,3.233,1.436,6.005,1.436c2.772,0,7.393,0,9.053,0s2.651-0.615,4.961-2.424c2.311-1.809,5.62-4.506,7.024-5.715
		c1.404-1.211,2.06-2.103,2.367-3.604s1.232-6.656,1.694-9.506C-187.406,10.725-188.33,8.337-189.023,7.057z M-195.945,0.263
		c0.124-0.376,0.279-0.738,0.465-1.084c0.057-0.11,0.129-0.252,0.299-0.132c0.138,0.082,0.181,0.232,0.252,0.358
		c0.73,1.265,1.459,2.535,2.187,3.805c0.549,0.936,1.098,1.874,1.645,2.809c0.306,0.525,0.605,1.052,0.908,1.577
		c0.041,0.076,0.084,0.15,0.116,0.234c0.111,0.285-0.025,0.469-0.333,0.437c-0.121-0.015-0.245-0.043-0.354-0.088
		c-1.469-0.635-5.622-2.373-6.101-2.867c-0.519-0.511-0.648-1.136-0.451-1.807c0.17-0.578,0.432-1.127,0.697-1.662
		C-196.418,1.305-196.193,0.777-195.945,0.263z M-219.593,6.272c-0.028-0.314-0.091-0.634-0.103-0.961
		c-0.032-1.039,0.726-1.645,1.774-1.51c0.589,0.081,1.176,0.138,1.765,0.207c0.755,0.086,1.509,0.177,2.264,0.253
		c0.711,0.071,1.427,0.143,2.133,0.235c0.648,0.089,1.297,0.136,1.943,0.221c0.428,0.058,0.861,0.059,1.279,0.133
		c0.699,0.123,1.403,0.135,2.104,0.236c0.654,0.092,1.318,0.153,1.978,0.23c0.795,0.087,1.596,0.17,2.393,0.265
		c0.264,0.032,0.528,0.096,0.705,0.312c0.178,0.217,0.146,0.55-0.121,0.812c-0.312,0.316-1.08,0.922-1.117,0.94
		c-0.006-0.003-0.784,0.74-1.203,1.072c-0.465,0.368-3.661,3.116-4.729,4c-0.786,0.657-1.569,1.321-2.347,1.994
		c-0.455,0.397-0.925,0.776-1.391,1.164c0,0.006,0,0.006,0,0.006c-0.35,0.32-0.707,0.624-1.081,0.912
		c-0.384,0.295-0.723,0.642-1.09,0.953c-0.734,0.63-1.466,1.26-2.211,1.881c-0.228,0.188-1.285,0.308-1.438,0.056
		c-0.185-0.293-0.197-0.63-0.242-0.955c-0.095-0.771-0.207-1.543-0.252-2.314c-0.04-0.622-0.11-1.237-0.182-1.85
		c-0.088-0.804-0.146-1.604-0.232-2.404c-0.092-0.789-0.188-1.575-0.238-2.369c-0.044-0.711-0.161-1.422-0.234-2.133
		C-219.522,7.197-219.552,6.737-219.593,6.272z M-219.588,18.967c-0.011,0.189-0.047,0.357-0.198,0.487
		c-0.198,0.23-0.406,0.13-0.604,0.006c-0.337-0.217-0.599-0.516-0.883-0.783c-0.812-0.766-1.599-1.553-2.399-2.326
		c-0.937-0.91-1.881-1.809-2.823-2.718c-0.633-0.608-1.272-1.207-1.903-1.815c-0.833-0.81-0.76-1.781,0.173-2.485
		c0.134-0.099,1.223-0.911,1.634-1.222c1.237-0.933,2.486-1.853,3.735-2.766c0.322-0.234,0.622-0.523,1.069-0.506
		c0.353,0.016,0.636,0.201,0.763,0.538c0.168,0.427,0.168,0.892,0.212,1.34c0.085,0.815,0.146,1.635,0.253,2.449
		c0.056,0.408,0.088,0.815,0.119,1.227c0.044,0.626,0.126,1.247,0.198,1.875c0.049,0.404,0.089,0.816,0.118,1.229
		c0.062,0.79,0.164,1.577,0.255,2.363c0.068,0.605,0.087,1.22,0.166,1.828C-219.65,18.11-219.569,18.537-219.588,18.967z
		 M-216.083,20.819c0.422-0.409,0.881-0.78,1.325-1.159c0.981-0.833,1.962-1.668,2.951-2.498c0.833-0.695,3.907-3.316,4.621-3.924
		c1.479-1.25,2.954-2.502,4.436-3.751c0.022-0.025,0.053-0.036,0.084-0.056c0.37-0.366,0.762-0.706,1.198-0.994
		c0.297-0.195,0.434-0.141,0.478,0.149c-0.223,0.913-1.688,4.076-1.978,4.836c-0.495,1.294-1.067,2.554-1.604,3.831
		c-0.797,1.895-1.621,3.775-2.406,5.666c-0.402,0.979-1.623,1.557-2.634,1.188c-0.631-0.233-3.113-0.935-3.707-1.103
		c-0.636-0.18-2.292-0.668-2.478-0.745C-216.452,21.985-216.597,21.317-216.083,20.819z M-205.414,22.468
		c1.209-2.846,2.42-5.681,3.631-8.522c0.149-0.353,0.27-0.718,0.457-1.052l0.004-0.002c-0.004,0,0.691-1.689,1.07-2.519
		c0.245-0.644,0.489-1.292,0.825-1.895c0.277-0.5,0.69-0.497,0.979-0.009c0.114,0.182,0.252,0.529,0.276,0.738
		c0.259,0.575,0.336,1.03,0.531,1.627c0.189,0.529,0.362,1.057,0.531,1.591c0.109,0.348,0.229,0.706,0.357,1.05
		c0.151,0.418,0.278,0.846,0.411,1.276c0.353,0.886,0.625,1.797,0.888,2.708c0.248,0.866-0.256,1.854-1.086,2.243
		c-1.859,0.873-3.727,1.724-5.589,2.585c-0.826,0.389-1.648,0.782-2.495,1.128c-0.133,0.062-0.261,0.132-0.418,0.121l0,0
		c-0.349,0.017-0.524-0.145-0.523-0.491C-205.561,22.843-205.492,22.651-205.414,22.468z M-207.884-6.552c0.087,0,0.174,0,0.263,0
		c0.546,0.267,1.127,0.426,1.689,0.642c1.183,0.443,2.367,0.888,3.562,1.308c0.608,0.219,1.225,0.417,1.818,0.667
		c0.503,0.235,1.048,0.36,1.566,0.547c0.622,0.219,1.224,0.494,1.86,0.683c0.53,0.161,0.606,0.334,0.526,0.88
		c-0.04,0.281-0.356,1.215-0.438,1.402c-0.285,0.672-0.587,1.337-0.877,2.002c-0.137,0.429-0.297,0.854-0.558,1.227
		c-0.188,0.272-0.461,0.444-0.817,0.4c-0.001,0-0.001,0-0.001,0c-0.385-0.016-0.653-0.233-0.889-0.506
		c-2.084-2.44-4.164-4.886-6.245-7.33c-0.433-0.503-0.867-1.008-1.302-1.526C-207.826-6.268-207.927-6.379-207.884-6.552z
		 M-209.947-5.971c0.312-0.183,0.604-0.135,0.909,0.194c0.417,0.455,0.814,0.925,1.207,1.392c0.93,1.091,1.856,2.181,2.772,3.271
		c0.573,0.683,1.125,1.384,1.705,2.064c0.578,0.688,1.174,1.363,1.766,2.045c0.158,0.18,0.304,0.366,0.392,0.588
		c0.127,0.333-0.01,0.583-0.351,0.687c-0.344,0.107-0.684,0.014-1.018-0.019c-0.896-0.092-1.795-0.198-2.691-0.301
		c-0.709-0.085-1.428-0.168-2.139-0.246c-0.875-0.098-1.754-0.189-2.632-0.289c-0.63-0.07-1.265-0.15-1.896-0.227
		c-0.113-0.013-0.229-0.027-0.341-0.039c-0.542-0.021-1.07-0.117-1.607-0.171c-0.575-0.06-1.148-0.13-1.721-0.193
		c-0.644-0.078-1.285-0.143-1.926-0.219c-0.05-0.002-0.102-0.027-0.15-0.046c-0.599-0.202-0.739-0.701-0.303-1.156
		c0.392-0.407,0.809-0.783,1.216-1.168c0.295-0.275,0.604-0.53,0.901-0.805c1.041-0.964,2.077-1.933,3.12-2.899
		c0.812-0.754,1.634-1.506,2.456-2.256C-210.179-5.849-210.077-5.931-209.947-5.971z M-222.277-2.193
		c-0.003-0.29,0.102-0.43,0.429-0.551c1.333-0.486,2.67-0.972,4.005-1.454c1.917-0.699,3.838-1.397,5.758-2.097
		c0.017-0.005,0.028-0.017,0.049-0.018c0.109-0.013,0.24-0.146,0.322,0.005c0.078,0.132-0.065,0.204-0.142,0.275
		c-0.523,0.477-1.037,0.96-1.556,1.439c-0.629,0.578-1.379,1.277-2.142,1.977c-0.099,0.093-0.194,0.187-0.296,0.274
		c-0.972,0.896-1.905,1.762-2.513,2.323c-0.146,0.138-0.298,0.271-0.441,0.405c-0.125,0.11-0.221,0.199-0.25,0.224
		c-0.034,0.027-0.084,0.043-0.125,0.067c-0.059,0.043-0.113,0.104-0.179,0.142c-0.447,0.252-0.927,0.234-1.326,0.021
		c-0.017-0.006-0.042-0.006-0.062-0.014c-0.449-0.154-1.018-1.377-1.272-1.964c-0.021-0.041-0.038-0.077-0.052-0.116
		c-0.021-0.042-0.038-0.088-0.051-0.118c-0.164-0.384-0.165-0.819-0.165-0.819L-222.277-2.193L-222.277-2.193z M-228.975,7.704
		c1.184-2.052,2.376-4.1,3.563-6.148c0.414-0.715,0.814-1.437,1.24-2.146c0.289-0.481,0.569-0.496,0.904-0.049
		c0.068,0.093,0.128,0.195,0.19,0.29c0.005,0,0.007-0.004,0.013-0.004c0,0,0.041,0.076,0.102,0.178
		c0.086,0.141,0.166,0.281,0.241,0.432c0.494,0.862,1.347,2.394,1.384,2.652c0.056,0.367-1.384,1.174-1.983,1.567
		c-0.602,0.395-2.806,1.703-2.806,1.703c-0.67,0.498-1.339,0.996-2.01,1.492c-0.156,0.116-0.312,0.244-0.475,0.361
		c-0.125,0.083-0.285,0.15-0.414,0.025C-229.156,7.934-229.034,7.805-228.975,7.704z M-228.131,23.455
		c-0.108-0.251-0.159-0.513-0.177-0.788c0.001,0,0,0,0.001,0c-0.134-0.739-0.279-1.486-0.402-2.23
		c-0.075-0.455-0.201-0.901-0.221-1.363c-0.164-0.579-0.241-1.174-0.352-1.766c-0.185-0.959-0.318-1.925-0.5-2.887
		c-0.099-0.521-0.138-1.054-0.297-1.564c0-0.157,0-0.314,0-0.473c0.104-0.177,0.233-0.186,0.382-0.049
		c0.769,0.739,1.532,1.476,2.3,2.216c0.548,0.521,1.101,1.037,1.65,1.564c1.15,1.108,2.297,2.221,3.445,3.329
		c0.382,0.367,0.76,0.729,1.14,1.097c0.077,0.071,0.153,0.146,0.216,0.231c0.444,0.619,0.243,1.152-0.437,1.47
		c-0.665,0.26-1.362,0.409-2.042,0.633c-0.157,0.047-0.317,0.082-0.479,0.117c-0.678,0.225-2.907,0.878-3.349,0.942
		C-227.671,24-227.954,23.846-228.131,23.455z M-218.07,32.952c-1.397-1.16-2.789-2.326-4.182-3.493
		c-1.374-1.149-2.745-2.298-4.119-3.446c-0.01-0.01-0.017-0.017-0.021-0.021c-0.504-0.422-0.475-0.592,0.131-0.875
		c0.001,0,0.001,0,0.003,0c0.121-0.1,0.271-0.155,0.423-0.198c0.621-0.187,1.244-0.366,1.869-0.549
		c0.611-0.202,1.226-0.382,1.849-0.543c0.91-0.294,1.812-0.603,2.767-0.729c0.056-0.003,0.122,0.006,0.18,0.012h0.001
		c0.674-0.026,1.353-0.086,2.009,0.129c0,0,0,0,0-0.002c0.738,0.213,4.39,1.265,5.478,1.576c0.393,0.115,0.783,0.225,1.174,0.34
		c0.143,0.041,0.291,0.057,0.41,0.158c0.001-0.002,0.001-0.002,0.001-0.002c0.76,0.459,0.841,1.043,0.21,1.672
		c-0.281,0.273-1.533,1.42-1.849,1.744c-0.698,0.717-1.42,1.407-2.137,2.102c-0.755,0.72-1.478,1.48-2.285,2.145
		C-216.84,33.531-217.382,33.526-218.07,32.952z M-203.663,33.987c-3.608,0.004-7.216,0.004-10.821,0.004
		c-0.149,0-0.317,0.002-0.397-0.143c-0.088-0.176,0.036-0.308,0.146-0.421c0.672-0.698,3.951-3.817,4.88-4.717
		c0.398-0.403,0.791-0.819,1.233-1.173c0.469-0.374,1.073-0.398,1.531-0.096c0.403,0.224,0.604,0.617,0.825,0.985
		c0.608,1.013,1.209,2.028,1.829,3.035c0.126,0.208,0.235,0.425,0.354,0.632c0.337,0.42,0.596,0.883,0.773,1.387
		C-203.183,33.823-203.307,33.987-203.663,33.987z M-202.565,32.065c-0.04-0.055-0.067-0.121-0.101-0.183
		c-0.697-1.132-1.398-2.269-2.099-3.403c-0.246-0.399-0.498-0.809-0.74-1.213c-0.19-0.33-0.299-0.684-0.222-1.076
		c0.023-0.521,0.298-0.896,0.721-1.145c0.555-0.322,1.147-0.577,1.745-0.814c1.386-0.649,2.769-1.291,4.148-1.943
		c0.596-0.28,1.195-0.547,1.789-0.825c0.201-0.096,0.401-0.178,0.623-0.211c0.295-0.041,0.477,0.129,0.464,0.417
		c-0.007,0.225-0.091,0.413-0.191,0.6c-1.484,2.807-4.795,8.908-5.089,9.561S-202.215,32.587-202.565,32.065z M-192.482,25.806
		c-0.837,0.703-1.681,1.409-2.518,2.114c-1.393,1.166-2.783,2.33-4.179,3.494c-0.123,0.099-0.254,0.194-0.393,0.265
		c-0.164,0.086-0.255,0.018-0.234-0.168c0.015-0.085,0.041-0.177,0.076-0.249c0.303-0.653,0.638-1.284,0.998-1.907
		c0.408-0.774,0.809-1.549,1.217-2.324c0.82-1.547,1.638-3.102,2.452-4.648c0.096-0.175,0.196-0.33,0.323-0.479
		c0.299-0.354,0.891-0.322,1.17,0.024c0.055,0.068,0.119,0.134,0.155,0.214c0.258,0.502,0.515,1.014,0.769,1.521
		c0.258,0.415,0.415,0.865,0.527,1.33C-192.029,25.354-192.228,25.591-192.482,25.806z M-188.902,12.01
		c-0.164,1.548-1.805,10.492-1.919,10.966c0,0-0.005-0.005-0.005,0c-0.008,0.047-0.015,0.092-0.027,0.137
		c-0.062,0.27-0.194,0.305-0.41,0.127c-0.217-0.182-0.367-0.43-0.5-0.674c-0.314-0.609-2.108-4.496-2.564-5.877
		c-0.1-0.311-0.198-0.619-0.299-0.924c0.003-0.004-0.006-0.004-0.007-0.004c-0.497-1.479-0.99-2.963-1.486-4.446
		c-0.044-0.134-0.082-0.267-0.119-0.399c-0.277-0.729-0.512-1.476-0.74-2.225c-0.127-0.289-0.229-0.58-0.268-0.899
		c-0.058-0.503,0.262-0.819,0.76-0.716c0.062,0.009,0.124,0.036,0.186,0.054l-0.004-0.009c0,0,0.025,0.011,0.069,0.029
		c0.185,0.058,0.364,0.132,0.536,0.229c0.512,0.224,1.305,0.57,2.129,0.931c0.031,0.013,0.063,0.031,0.096,0.042
		c1.521,0.671,3.132,1.391,3.361,1.546c0.008,0,0.014,0.005,0.017,0.007c0.032,0.021,0.065,0.04,0.1,0.058
		c0.391,0.231,0.983,0.509,1.09,1.406c0,0.003,0.002,0.007,0.002,0.013c0,0.006,0,0.007,0,0.011
		C-188.885,11.577-188.879,11.775-188.902,12.01z"/>
</g>
</svg>
