<?xml version="1.0" encoding="utf-8"?>
<!-- Generator: Adobe Illustrator 16.0.0, SVG Export Plug-In . SVG Version: 6.00 Build 0)  -->
<!DOCTYPE svg PUBLIC "-//W3C//DTD SVG 1.1//EN" "http://www.w3.org/Graphics/SVG/1.1/DTD/svg11.dtd">
<svg version="1.1" id="Layer_1" xmlns="http://www.w3.org/2000/svg" xmlns:xlink="http://www.w3.org/1999/xlink" x="0px" y="0px"
	 width="49.973px" height="33.594px" viewBox="-196.143 -0.834 49.973 33.594"
	 enable-background="new -196.143 -0.834 49.973 33.594" xml:space="preserve">
<path opacity="0.6" fill="#FFFFFF" d="M-178.356-0.834l-0.229,0.479c-0.433,0.908-1.317,1.473-2.312,1.473
	c-0.993,0-1.879-0.562-2.312-1.473l-0.229-0.479h-12.705l0.001,33.594h12.71l0.186-0.596c0.335-1.084,1.315-1.814,2.44-1.814
	c1.124,0,2.104,0.73,2.438,1.814l0.185,0.596h32.013V-0.834H-178.356z M-147.86,31.07h-29.126c-0.7-1.463-2.166-2.408-3.819-2.408
	c-1.652,0-3.121,0.945-3.82,2.408h-9.827l-0.001-30.216h9.99c0.777,1.199,2.125,1.953,3.567,1.953c1.466,0,2.789-0.736,3.569-1.953
	h29.469V31.07H-147.86z"/>
<path opacity="0.6" fill="#FFFFFF" d="M-180.646,22.883c-0.809,0-1.462,0.66-1.462,1.465c0.001,0.811,0.656,1.465,1.462,1.465
	c0.808,0,1.464-0.652,1.464-1.465C-179.182,23.539-179.837,22.883-180.646,22.883z"/>
<circle opacity="0.6" fill="#FFFFFF" cx="-180.646" cy="18.513" r="1.466"/>
<circle opacity="0.6" fill="#FFFFFF" cx="-180.646" cy="12.68" r="1.462"/>
<circle opacity="0.6" fill="#FFFFFF" cx="-180.646" cy="6.848" r="1.463"/>
</svg>
