<?xml version="1.0" encoding="utf-8"?>
<!-- Generator: Adobe Illustrator 16.0.0, SVG Export Plug-In . SVG Version: 6.00 Build 0)  -->
<!DOCTYPE svg PUBLIC "-//W3C//DTD SVG 1.1//EN" "http://www.w3.org/Graphics/SVG/1.1/DTD/svg11.dtd">
<svg version="1.1" id="Layer_1" xmlns="http://www.w3.org/2000/svg" xmlns:xlink="http://www.w3.org/1999/xlink" x="0px" y="0px"
	 width="60.549px" height="42.176px" viewBox="-384.774 -9.525 60.549 42.176"
	 enable-background="new -384.774 -9.525 60.549 42.176" xml:space="preserve">
<g>
</g>
<g opacity="0.6">
	<polygon fill="#FFFFFF" points="-382.567,16.604 -384.774,16.604 -384.774,32.65 -368.323,32.65 -368.323,30.463 -382.567,30.463 	
		"/>
	<polygon fill="#FFFFFF" points="-329.127,6.801 -326.922,6.801 -326.922,-9.525 -343.095,-9.525 -343.095,-7.334 -329.127,-7.334 	
		"/>
	<polygon fill="#FFFFFF" points="-353.194,11.951 -355.166,16.59 -357.137,11.951 -359.34,11.951 -356.859,17.525 -358.183,17.525 
		-358.183,18.688 -356.332,18.688 -356.332,19.88 -358.183,19.88 -358.183,21.041 -356.332,21.041 -356.332,23.476 -354.103,23.476 
		-354.103,21.041 -352.256,21.041 -352.256,19.88 -354.103,19.88 -354.103,18.688 -352.256,18.688 -352.256,17.525 -353.594,17.525 
		-351.111,11.951 	"/>
	<path fill="#FFFFFF" d="M-344.179,25.078h-32.231V9.763h41.174v14.829l2.205-2.075V9.763V3.521v-6.889h-45.585v30.636h37.039
		L-344.179,25.078z M-335.238-1.179V3.52h-41.173v-4.699H-335.238z"/>
	<polygon fill="#FFFFFF" points="-325.756,18.662 -335.142,27.632 -340.355,23.178 -341.794,24.834 -335.058,30.593 
		-324.225,20.231 	"/>
</g>
</svg>
