<?xml version="1.0" encoding="utf-8"?>
<!-- Generator: Adobe Illustrator 16.0.0, SVG Export Plug-In . SVG Version: 6.00 Build 0)  -->
<!DOCTYPE svg PUBLIC "-//W3C//DTD SVG 1.1//EN" "http://www.w3.org/Graphics/SVG/1.1/DTD/svg11.dtd">
<svg version="1.1" id="Layer_1" xmlns="http://www.w3.org/2000/svg" xmlns:xlink="http://www.w3.org/1999/xlink" x="0px" y="0px"
	 width="68.354px" height="51.926px" viewBox="0 0 68.354 51.926" enable-background="new 0 0 68.354 51.926" xml:space="preserve">
<g>
	<g opacity="0.6">
		<g>
			<ellipse fill="#FFFFFF" cx="30.247" cy="22.115" rx="1.505" ry="0.766"/>
			<path fill="#FFFFFF" d="M10.864,26.982c2.352-0.084,6.092-0.158,7.387-0.16c-0.033,2.369,4.082,3.117,5.334,3.117
				c1.246,0,2.365,0,3.77,0s2.334-0.705,2.334-2.43c0-1.727-0.357-3.205-0.357-3.205c-0.326-0.732-1.102-0.828-2.883-0.828
				c-1.777,0-4.604,0-5.545,0c-2.301,0-2.562,0.752-2.719,1.531c-0.17-0.32-0.469-0.369-0.875-0.473
				c-0.404-0.111-5.152-1.381-6.248-1.705c-1.098-0.328-3.189-1.012-3.512,0.088c-0.316,1.107-0.818,3.055,0.826,3.055
				C8.309,26.949,9.004,27.05,10.864,26.982z M18.975,24.814c0.314-0.508,0.826-0.846,1.773-0.832
				c1.27,0.018,5.627,0.131,6.396,0.197c0.771,0.066,1.414,0.316,1.508,1.459c0.09,1.141,0.342,2.6-0.484,3.139
				c-0.82,0.537-3.867,0.416-5.07,0.285c-1.207-0.129-3.932-0.697-4.123-1.775S18.655,25.322,18.975,24.814z"/>
			<path fill="#FFFFFF" d="M42.946,39.605h17.191V29.32H42.946V39.605z M55.781,32.361h3.684v3.051h-3.684V32.361z M55.781,35.853
				h3.684v3.051h-3.684V35.853z M51.727,32.361h3.686v3.051h-3.686V32.361z M51.727,35.853h3.686v3.051h-3.686V35.853z
				 M47.672,32.361h3.684v3.051h-3.684V32.361z M47.672,35.853h3.684v3.051h-3.684V35.853z M43.617,32.361h3.684v3.051h-3.684
				V32.361z M43.617,35.853h3.684v3.051h-3.684V35.853z"/>
			<path fill="#FFFFFF" d="M50.715,32.746c-0.023-0.055-0.045-0.082-0.068-0.082c-0.01,0-0.025,0.006-0.037,0.012
				c-0.135,0.086-0.348,0.295-0.639,0.627c-0.08,0.096-0.182,0.234-0.305,0.418s-0.199,0.312-0.227,0.385
				c-0.033,0.078-0.061,0.117-0.082,0.117c-0.018,0-0.039-0.027-0.062-0.08c-0.041-0.084-0.115-0.178-0.225-0.279
				c-0.111-0.104-0.215-0.178-0.314-0.227c-0.029-0.014-0.049-0.02-0.059-0.02c-0.016,0-0.033,0.008-0.053,0.025
				c-0.039,0.033-0.078,0.07-0.117,0.119c-0.066,0.078-0.115,0.137-0.145,0.172c-0.012,0.012-0.018,0.025-0.018,0.043
				c0,0.033,0.016,0.055,0.049,0.066c0.113,0.041,0.184,0.068,0.209,0.082c0.049,0.027,0.121,0.082,0.217,0.166
				c0.201,0.178,0.342,0.373,0.42,0.588c0.01,0.027,0.02,0.072,0.029,0.131c0.006,0.037,0.016,0.055,0.031,0.055
				c0.039,0,0.096-0.018,0.17-0.051c0.023-0.012,0.039-0.055,0.049-0.133c0.02-0.148,0.029-0.23,0.033-0.24
				c0.035-0.184,0.119-0.402,0.25-0.656c0.121-0.234,0.24-0.426,0.359-0.576c0.064-0.078,0.146-0.158,0.25-0.238
				c0.102-0.086,0.18-0.133,0.232-0.146c0.004-0.002,0.033-0.008,0.088-0.016c0.018-0.006,0.027-0.014,0.027-0.027
				c0-0.008-0.004-0.025-0.01-0.047C50.744,32.839,50.727,32.775,50.715,32.746z"/>
			<path fill="#FFFFFF" d="M58.612,36.216c-0.021-0.055-0.043-0.082-0.066-0.082c-0.012,0-0.023,0.004-0.037,0.016
				c-0.135,0.082-0.348,0.291-0.637,0.625c-0.082,0.096-0.184,0.234-0.307,0.416c-0.123,0.186-0.199,0.312-0.229,0.385
				c-0.031,0.078-0.059,0.117-0.08,0.117c-0.018,0-0.039-0.027-0.062-0.078c-0.041-0.086-0.115-0.18-0.227-0.283
				c-0.109-0.1-0.213-0.174-0.311-0.221c-0.031-0.018-0.053-0.023-0.062-0.023c-0.014,0-0.031,0.008-0.051,0.025
				c-0.039,0.033-0.078,0.072-0.117,0.119c-0.066,0.078-0.115,0.137-0.145,0.172c-0.01,0.012-0.018,0.027-0.018,0.045
				c0,0.029,0.016,0.055,0.051,0.066c0.111,0.041,0.182,0.066,0.205,0.08c0.049,0.027,0.123,0.082,0.217,0.166
				c0.205,0.178,0.344,0.375,0.422,0.588c0.01,0.027,0.02,0.07,0.029,0.131c0.004,0.037,0.016,0.055,0.031,0.055
				c0.039,0,0.096-0.018,0.17-0.051c0.021-0.01,0.039-0.053,0.049-0.131c0.018-0.15,0.029-0.232,0.031-0.242
				c0.037-0.184,0.123-0.4,0.252-0.656c0.119-0.234,0.238-0.426,0.359-0.576c0.064-0.076,0.146-0.156,0.25-0.238
				c0.102-0.084,0.18-0.131,0.232-0.146c0.004-0.002,0.033-0.008,0.088-0.016c0.02-0.006,0.027-0.014,0.027-0.027
				c0-0.01-0.004-0.025-0.01-0.049C58.643,36.31,58.625,36.248,58.612,36.216z"/>
			<path fill="#FFFFFF" d="M46.342,26.423c0.225,0,0.406-0.18,0.406-0.404v-3.861c0-0.225-0.182-0.406-0.406-0.406
				c-0.223,0-0.406,0.182-0.406,0.406v3.861C45.936,26.244,46.119,26.423,46.342,26.423z"/>
			<path fill="#FFFFFF" d="M56.826,26.423c0.225,0,0.406-0.18,0.406-0.404v-3.861c0-0.225-0.182-0.406-0.406-0.406
				c-0.223,0-0.404,0.182-0.404,0.406v3.861C56.422,26.244,56.604,26.423,56.826,26.423z"/>
			<path fill="#FFFFFF" d="M61.742,23.339h-2.451v-1.465c0-1.359-1.105-2.465-2.465-2.465s-2.465,1.106-2.465,2.465v1.465h-5.555
				v-1.465c0-1.359-1.105-2.465-2.465-2.465s-2.465,1.106-2.465,2.465v1.465h-2.451c-1.582,0-2.871,1.289-2.871,2.871v15.305
				c0,1.584,1.289,2.871,2.871,2.871h20.316c1.584,0,2.873-1.287,2.873-2.871V26.21C64.615,24.628,63.326,23.339,61.742,23.339z
				 M63.115,41.515c0,0.758-0.615,1.375-1.373,1.375H41.426c-0.758,0-1.373-0.617-1.373-1.375V26.21
				c0-0.758,0.615-1.373,1.373-1.373h2.451h1.498v-2.963c0-0.533,0.434-0.967,0.967-0.967s0.967,0.434,0.967,0.967v2.963h1.498
				h5.555h1.498v-2.963c0-0.533,0.434-0.967,0.967-0.967s0.969,0.434,0.969,0.967v2.963h1.496h2.451
				c0.758,0,1.373,0.615,1.373,1.373V41.515z"/>
			<path fill="#FFFFFF" d="M31.164,24.304c0,0-0.357,1.479-0.357,3.205c0,1.725,0.932,2.43,2.336,2.43c1.014,0,1.879,0,2.75,0V29.16
				c-1.354,0.045-2.996-0.012-3.566-0.383c-0.826-0.539-0.572-1.998-0.482-3.139c0.094-1.143,0.734-1.393,1.506-1.459
				c0.34-0.029,1.379-0.068,2.543-0.102v-0.602c-0.656,0-1.301,0-1.846,0C32.268,23.476,31.49,23.572,31.164,24.304z"/>
		</g>
		<path fill="#FFFFFF" d="M35.893,32.433l-5.113,0.023L20.541,32.41c-0.451-0.857-2.406-1.143-5.137-1.396
			c-2.729-0.256-4.342-0.445-5.111-0.475c-0.771-0.033-1.727-0.232-1.666,1.268c0.057,1.502,0.182,2.521,1.863,2.715
			c1.68,0.197,4.672,0.373,6.455,0.504c1.781,0.139,4.246,0.449,4.047-0.328c1.723-0.074,0.697,0.578,2.043,0.617
			c1.34,0.035,7.744,0,7.744,0s2.822,0.016,5.113,0.016V32.433z"/>
		<path fill="#FFFFFF" d="M52.875,19.231c-0.828-0.621-1.672-1.16-2.318-1.549h0.607c0.549,0,2.223,0,2.223-1.523
			c0-1.158-1.309-1.5-2.006-1.52c0,0-0.738-0.004-1.363,0c-0.395,0.004-1.199,0.012-1.242,0.816c-1.371-2.6-3.791-5.844-5.676-7.1
			c-0.662-0.439-1.469-0.453-1.477-0.453h-0.006C36.766,7.546,30.379,7.54,30.317,7.54h-0.111c-0.062,0-6.457,0.006-11.281,0.363
			c-0.088,0-0.857,0.023-1.502,0.453c-1.9,1.264-4.34,4.539-5.703,7.15c-0.012-0.855-0.842-0.863-1.244-0.867
			c-0.625-0.004-1.361,0-1.369,0c-0.691,0.02-1.998,0.361-1.998,1.52c0,1.523,1.672,1.523,2.223,1.523h0.631
			c-1.527,0.916-3.988,2.568-5.02,4.243c-0.902,1.469-1.223,7.273-1.201,8.918c0.014,1.195,0.121,3.043,0.227,4.832l0.158,2.973
			c0.059,1.594,0.793,2.338,2.309,2.338h5.998c0.854,0,1.52-0.27,1.984-0.799c0.055-0.062,0.107-0.131,0.166-0.217l0.041-0.068
			c0.037-0.055,0.07-0.111,0.107-0.186l0.025-0.047c0.037-0.076,0.07-0.152,0.098-0.229l0.01-0.027
			c0.025-0.07,0.047-0.137,0.064-0.201l0.02-0.07c0.014-0.057,0.027-0.111,0.037-0.164l0.012-0.061
			c0.014-0.07,0.023-0.139,0.033-0.203l0.004-0.043c0.006-0.051,0.01-0.102,0.012-0.15c0.07,0,0.137-0.002,0.203-0.002
			c1.543,0,2.525,0.201,3.258,0.348c0.104,0.021,0.203,0.043,0.297,0.059c0.896,0.172,5.375,0.346,5.428,0.35l5.941,0.033
			l5.721-0.031v-1.115l-5.553,0.029l-6.086-0.031c-1.787-0.072-4.658-0.219-5.242-0.33c-0.092-0.02-0.189-0.039-0.299-0.061
			c-0.766-0.154-1.811-0.367-3.465-0.367c-0.252,0-0.512,0.006-0.764,0.018c-3.805-0.072-8.145-0.184-8.91-0.279
			c-0.369-0.047-0.408-0.051-0.455-0.844L5.08,35.611c-0.104-1.773-0.211-3.607-0.225-4.783c-0.027-2.193,0.424-7.318,1.037-8.318
			c1.27-2.061,5.318-4.268,5.805-4.528h37.123c0.246,0.131,1.391,0.754,2.643,1.613l0.057,0.037h1.891L52.875,19.231z M12.492,16.45
			c1.234-2.533,3.688-5.928,5.549-7.164c0.363-0.242,0.865-0.266,0.93-0.268c4.818-0.357,11.172-0.361,11.234-0.361h0.111
			c0.062,0,6.416,0.004,11.264,0.363c0.006,0,0.525,0.016,0.9,0.266c1.861,1.24,4.322,4.645,5.549,7.164H12.492z"/>
	</g>
	<g>
		<rect x="0" y="-0.001" fill="none" width="68.354" height="51.928"/>
	</g>
</g>
</svg>
