<?xml version="1.0" encoding="utf-8"?>
<!-- Generator: Adobe Illustrator 16.0.0, SVG Export Plug-In . SVG Version: 6.00 Build 0)  -->
<!DOCTYPE svg PUBLIC "-//W3C//DTD SVG 1.1//EN" "http://www.w3.org/Graphics/SVG/1.1/DTD/svg11.dtd">
<svg version="1.1" id="Layer_1" xmlns="http://www.w3.org/2000/svg" xmlns:xlink="http://www.w3.org/1999/xlink" x="0px" y="0px"
	 width="68.354px" height="51.927px" viewBox="0 0 68.354 51.927" enable-background="new 0 0 68.354 51.927" xml:space="preserve">
<g>
	<g opacity="0.6">
		<rect x="40.929" y="5.595" fill="#FFFFFF" width="4.079" height="6.015"/>
		<rect x="32.137" y="5.595" fill="#FFFFFF" width="4.079" height="6.015"/>
		<rect x="36.216" y="14.618" fill="#FFFFFF" width="4.079" height="6.013"/>
		<rect x="23.346" y="5.595" fill="#FFFFFF" width="4.079" height="6.015"/>
		<rect x="14.554" y="5.595" fill="#FFFFFF" width="4.079" height="6.015"/>
		<rect x="44.374" y="14.618" fill="#FFFFFF" width="4.079" height="6.013"/>
		<rect x="49.721" y="5.595" fill="#FFFFFF" width="4.079" height="6.015"/>
		<g>
			<g>
				<polygon fill="#FFFFFF" points="34.177,45.285 28.781,39.886 39.573,39.886 				"/>
			</g>
			<rect x="28.059" y="14.618" fill="#FFFFFF" width="4.079" height="6.013"/>
			<rect x="19.901" y="14.618" fill="#FFFFFF" width="4.078" height="6.013"/>
			<rect x="24.312" y="25.233" fill="#FFFFFF" width="19.73" height="4.934"/>
			<path fill="#FFFFFF" d="M53.907,35.671h-39.46c-3.035,0-5.503-2.471-5.503-5.504V5.504C8.943,2.471,11.412,0,14.447,0h39.46
				c3.035,0,5.503,2.471,5.503,5.504v24.663C59.41,33.2,56.941,35.671,53.907,35.671z M14.447,1.142
				c-2.406,0-4.363,1.956-4.363,4.362v24.663c0,2.404,1.957,4.362,4.363,4.362h39.46c2.406,0,4.363-1.958,4.363-4.362V5.504
				c0-2.406-1.957-4.362-4.363-4.362H14.447z"/>
		</g>
	</g>
	<rect fill="none" width="68.354" height="51.927"/>
</g>
</svg>
