<?xml version="1.0" encoding="utf-8"?>
<!-- Generator: Adobe Illustrator 16.0.0, SVG Export Plug-In . SVG Version: 6.00 Build 0)  -->
<!DOCTYPE svg PUBLIC "-//W3C//DTD SVG 1.1//EN" "http://www.w3.org/Graphics/SVG/1.1/DTD/svg11.dtd">
<svg version="1.1" id="Layer_1" xmlns="http://www.w3.org/2000/svg" xmlns:xlink="http://www.w3.org/1999/xlink" x="0px" y="0px"
	 width="68.354px" height="51.927px" viewBox="0 0 68.354 51.927" enable-background="new 0 0 68.354 51.927" xml:space="preserve">
<g>
	<g opacity="0.6">
		<g>
			<polygon fill="#FFFFFF" points="33.694,-0.001 28.297,5.397 39.089,5.397 			"/>
		</g>
		<rect x="40.929" y="15.265" fill="#FFFFFF" width="4.079" height="6.015"/>
		<rect x="32.137" y="15.265" fill="#FFFFFF" width="4.079" height="6.015"/>
		<rect x="36.216" y="24.289" fill="#FFFFFF" width="4.079" height="6.013"/>
		<rect x="28.059" y="24.289" fill="#FFFFFF" width="4.079" height="6.013"/>
		<rect x="23.346" y="15.265" fill="#FFFFFF" width="4.079" height="6.015"/>
		<rect x="14.554" y="15.265" fill="#FFFFFF" width="4.079" height="6.015"/>
		<rect x="19.901" y="24.289" fill="#FFFFFF" width="4.078" height="6.013"/>
		<rect x="24.312" y="34.904" fill="#FFFFFF" width="19.73" height="4.934"/>
		<rect x="44.374" y="24.289" fill="#FFFFFF" width="4.079" height="6.013"/>
		<rect x="49.721" y="15.265" fill="#FFFFFF" width="4.079" height="6.015"/>
		<path fill="#FFFFFF" d="M53.907,45.341h-39.46c-3.035,0-5.503-2.471-5.503-5.504V15.174c0-3.033,2.469-5.504,5.503-5.504h39.46
			c3.035,0,5.503,2.471,5.503,5.504v24.663C59.41,42.871,56.941,45.341,53.907,45.341z M14.447,10.812
			c-2.406,0-4.363,1.956-4.363,4.362v24.663c0,2.404,1.957,4.361,4.363,4.361h39.46c2.406,0,4.363-1.957,4.363-4.361V15.174
			c0-2.406-1.957-4.362-4.363-4.362H14.447z"/>
	</g>
	<rect fill="none" width="68.354" height="51.927"/>
</g>
</svg>
