<?xml version="1.0" encoding="utf-8"?>
<!-- Generator: Adobe Illustrator 16.0.4, SVG Export Plug-In . SVG Version: 6.00 Build 0)  -->
<!DOCTYPE svg PUBLIC "-//W3C//DTD SVG 1.1//EN" "http://www.w3.org/Graphics/SVG/1.1/DTD/svg11.dtd">
<svg version="1.1" id="Layer_1" xmlns="http://www.w3.org/2000/svg" xmlns:xlink="http://www.w3.org/1999/xlink" x="0px" y="0px"
	 width="68.354px" height="51.926px" viewBox="0 0 68.354 51.926" enable-background="new 0 0 68.354 51.926" xml:space="preserve">
<g>
	<g>
		<g>
			<g>
				<rect x="0.376" y="-0.037" fill="none" width="67.978" height="51.963"/>
			</g>
		</g>
	</g>
</g>
<g>
	<path fill="#A7A7A7" d="M26.397,7.812l-0.247,0.52c-0.467,0.98-1.424,1.59-2.498,1.59c-1.073,0-2.029-0.61-2.499-1.59l-0.246-0.52
		H7.177l0.001,36.303h13.736l0.199-0.643c0.362-1.172,1.423-1.961,2.637-1.961c1.215,0,2.273,0.786,2.635,1.961l0.201,0.643h34.592
		V7.812H26.397z M59.352,42.289H27.879c-0.756-1.58-2.342-2.602-4.129-2.602c-1.788,0-3.373,1.021-4.129,2.602H9.003L9.002,9.638
		h10.794c0.841,1.298,2.298,2.11,3.855,2.11c1.585,0,3.014-0.794,3.857-2.11h31.843L59.352,42.289L59.352,42.289z"/>
	<circle fill="#A7A7A7" cx="23.925" cy="35.026" r="1.582"/>
	<circle fill="#A7A7A7" cx="23.925" cy="28.719" r="1.583"/>
	<circle fill="#A7A7A7" cx="23.925" cy="22.416" r="1.58"/>
	<circle fill="#A7A7A7" cx="23.925" cy="16.115" r="1.58"/>
</g>
</svg>
