<?xml version="1.0" encoding="utf-8"?>
<!-- Generator: Adobe Illustrator 16.0.4, SVG Export Plug-In . SVG Version: 6.00 Build 0)  -->
<!DOCTYPE svg PUBLIC "-//W3C//DTD SVG 1.1//EN" "http://www.w3.org/Graphics/SVG/1.1/DTD/svg11.dtd">
<svg version="1.1" id="Layer_1" xmlns="http://www.w3.org/2000/svg" xmlns:xlink="http://www.w3.org/1999/xlink" x="0px" y="0px"
	 width="68.354px" height="51.926px" viewBox="0 0 68.354 51.926" enable-background="new 0 0 68.354 51.926" xml:space="preserve">
<g>
	<g>
		<rect x="0" y="-0.001" fill="none" width="68.354" height="51.928"/>
	</g>
</g>
<g>
	<path fill="#A7A7A7" d="M56.186,46.124H12.168v-0.918c0-3.074-0.001-7.716,5.17-10.152c5.083-2.405,9.033-3.282,11.454-3.595
		c0.429-0.049,0.837,0.253,0.893,0.687c0.056,0.438-0.25,0.837-0.69,0.896c-2.305,0.294-6.081,1.137-10.978,3.45
		c-3.942,1.862-4.235,5.188-4.254,8.041h40.829c-0.021-2.853-0.312-6.179-4.254-8.041c-4.896-2.313-8.672-3.156-10.979-3.45
		c-0.436-0.059-0.743-0.457-0.686-0.896c0.057-0.434,0.455-0.735,0.889-0.687c2.423,0.312,6.37,1.189,11.454,3.595
		c5.171,2.437,5.17,7.078,5.169,10.152V46.124z"/>
	<path fill="#A7A7A7" d="M34.177,31.646c-2.514,0-6.833-0.957-8.003-7.256c-1.506-0.575-2.512-3.01-2.633-3.32
		c-0.312-0.788-0.169-1.938,0.333-2.731c0.188-0.298,0.422-0.536,0.686-0.705c-0.543-2.612-0.016-5.953,1.338-8.084
		c1.9-2.998,5.51-4.159,8.254-4.247c2.795,0.088,6.405,1.25,8.306,4.247c1.35,2.132,1.881,5.473,1.337,8.084
		c0.265,0.168,0.497,0.406,0.687,0.705c0.503,0.793,0.645,1.943,0.332,2.731c-0.121,0.31-1.125,2.742-2.632,3.32
		C41.009,30.688,36.694,31.646,34.177,31.646z M34.151,6.893c-2.286,0.076-5.342,1.036-6.909,3.509
		c-1.239,1.953-1.667,5.245-0.974,7.499c0.072,0.234,0.033,0.484-0.107,0.686c-0.138,0.199-0.362,0.328-0.605,0.345
		c-0.118,0.004-0.231,0.091-0.338,0.259c-0.249,0.392-0.31,1.007-0.198,1.292c0.469,1.183,1.392,2.434,1.794,2.434
		c0.395,0,0.785,0.285,0.842,0.679c0.797,5.337,3.986,6.455,6.521,6.455s5.726-1.118,6.52-6.455
		c0.062-0.409,0.438-0.714,0.839-0.679c0.408,0,1.329-1.25,1.799-2.434c0.113-0.285,0.051-0.9-0.199-1.292
		c-0.107-0.168-0.222-0.257-0.337-0.259c-0.244-0.018-0.47-0.146-0.607-0.345c-0.139-0.202-0.179-0.453-0.105-0.686
		c0.691-2.254,0.265-5.546-0.973-7.499C39.545,7.929,36.489,6.969,34.151,6.893z"/>
</g>
</svg>
