<?xml version="1.0" encoding="utf-8"?>
<!-- Generator: Adobe Illustrator 16.0.0, SVG Export Plug-In . SVG Version: 6.00 Build 0)  -->
<!DOCTYPE svg PUBLIC "-//W3C//DTD SVG 1.1//EN" "http://www.w3.org/Graphics/SVG/1.1/DTD/svg11.dtd">
<svg version="1.1" id="Layer_1" xmlns="http://www.w3.org/2000/svg" xmlns:xlink="http://www.w3.org/1999/xlink" x="0px" y="0px"
	 width="68.354px" height="51.926px" viewBox="0 0 68.354 51.926" enable-background="new 0 0 68.354 51.926" xml:space="preserve">
<g opacity="0.6">
	<path fill="#FFFFFF" d="M44.038,0.803h-19.74c-1.938,0-3.539,1.616-3.539,3.524v43.448c0,1.927,1.619,3.542,3.539,3.542h19.755
		c1.924,0,3.541-1.591,3.541-3.542V4.342C47.574,2.403,45.991,0.803,44.038,0.803z M30.543,3.632h7.265
		c0.268,0,0.486,0.214,0.477,0.481c0,0.268-0.209,0.474-0.477,0.474h-7.265c-0.252,0-0.473-0.206-0.473-0.474
		C30.071,3.846,30.279,3.632,30.543,3.632z M34.178,49.167c-1.253,0-2.261-1.005-2.261-2.257c0-1.249,1.008-2.257,2.261-2.257
		c1.251,0,2.259,1.008,2.256,2.257C36.434,48.162,35.429,49.167,34.178,49.167z M46.091,42.42H22.259V7.592h23.832V42.42z"/>
	<rect x="24.405" y="10.255" fill="#FFFFFF" width="14.482" height="3.258"/>
	<rect x="40.693" y="10.255" fill="#FFFFFF" width="3.254" height="3.258"/>
	<rect x="24.405" y="15.426" fill="#FFFFFF" width="19.542" height="10.56"/>
	<rect x="24.405" y="28.74" fill="#FFFFFF" width="8.584" height="10.87"/>
	<rect x="35.365" y="28.74" fill="#FFFFFF" width="8.582" height="10.87"/>
</g>
<g>
	<rect x="0" y="-0.001" fill="none" width="68.354" height="51.928"/>
</g>
</svg>
