<?xml version="1.0" encoding="utf-8"?>
<!-- Generator: Adobe Illustrator 16.0.0, SVG Export Plug-In . SVG Version: 6.00 Build 0)  -->
<!DOCTYPE svg PUBLIC "-//W3C//DTD SVG 1.1//EN" "http://www.w3.org/Graphics/SVG/1.1/DTD/svg11.dtd">
<svg version="1.1" id="Layer_1" xmlns="http://www.w3.org/2000/svg" xmlns:xlink="http://www.w3.org/1999/xlink" x="0px" y="0px"
	 width="68.354px" height="51.926px" viewBox="0 0 68.354 51.926" enable-background="new 0 0 68.354 51.926" xml:space="preserve">
<path opacity="0.6" fill="#FFFFFF" enable-background="new    " d="M51.095,7.976c-0.146-0.131-0.338-0.181-0.529-0.162
	l-20.848,2.688c-0.337,0.043-0.59,0.328-0.59,0.67v4.031V34.45c-1.226-1.476-3.174-2.435-5.373-2.435
	c-3.711,0-6.728,2.713-6.728,6.049c0,3.34,3.017,6.053,6.728,6.053c3.709,0,6.721-2.713,6.721-6.053v-22.27l19.504-2.517v15.121
	c-1.229-1.476-3.184-2.436-5.381-2.436c-3.713,0-6.725,2.713-6.725,6.053c0,3.336,3.012,6.049,6.725,6.049
	c3.708,0,6.729-2.713,6.729-6.049v-19.5V8.479C51.327,8.288,51.241,8.103,51.095,7.976z"/>
<g>
	<rect x="0" y="-0.001" fill="none" width="68.354" height="51.928"/>
</g>
</svg>
