<?xml version="1.0" encoding="utf-8"?>
<!-- Generator: Adobe Illustrator 16.0.0, SVG Export Plug-In . SVG Version: 6.00 Build 0)  -->
<!DOCTYPE svg PUBLIC "-//W3C//DTD SVG 1.1//EN" "http://www.w3.org/Graphics/SVG/1.1/DTD/svg11.dtd">
<svg version="1.1" id="Layer_1" xmlns="http://www.w3.org/2000/svg" xmlns:xlink="http://www.w3.org/1999/xlink" x="0px" y="0px"
	 width="68.354px" height="51.926px" viewBox="0 0 68.354 51.926" enable-background="new 0 0 68.354 51.926" xml:space="preserve">
<g opacity="0.6">
	<path fill="#FFFFFF" d="M28.027,22.187c-7.122,0-12.926,5.744-13.025,12.842h-2.811l3.933,5.143l3.934-5.143h-2.81
		c0.099-5.86,4.895-10.597,10.779-10.597c5.943,0,10.776,4.834,10.776,10.779S33.97,45.99,28.027,45.99
		c-2.812,0-5.47-1.074-7.49-3.024l-0.132-0.129l-1.562,1.615l0.131,0.128c2.441,2.357,5.656,3.657,9.053,3.657
		c7.182,0,13.024-5.845,13.024-13.026S35.208,22.187,28.027,22.187z"/>
	<polygon fill="#FFFFFF" points="26.572,28.13 26.572,37.996 33.99,37.996 33.99,35.413 29.156,35.413 29.156,28.13 	"/>
	<rect x="26.108" y="3.69" fill="#FFFFFF" width="30.057" height="4.664"/>
	<rect x="26.108" y="13.91" fill="#FFFFFF" width="30.057" height="4.664"/>
	<rect x="18.686" y="3.69" fill="#FFFFFF" width="4.399" height="4.664"/>
	<rect x="18.686" y="13.91" fill="#FFFFFF" width="4.399" height="4.664"/>
	<rect x="43.948" y="24.129" fill="#FFFFFF" width="12.217" height="4.664"/>
	<rect x="43.948" y="34.348" fill="#FFFFFF" width="12.217" height="4.664"/>
</g>
<g>
	<rect x="0" y="-0.001" fill="none" width="68.354" height="51.928"/>
</g>
</svg>
