<?xml version="1.0" encoding="utf-8"?>
<!-- Generator: Adobe Illustrator 16.0.0, SVG Export Plug-In . SVG Version: 6.00 Build 0)  -->
<!DOCTYPE svg PUBLIC "-//W3C//DTD SVG 1.1//EN" "http://www.w3.org/Graphics/SVG/1.1/DTD/svg11.dtd">
<svg version="1.1" id="Layer_1" xmlns="http://www.w3.org/2000/svg" xmlns:xlink="http://www.w3.org/1999/xlink" x="0px" y="0px"
	 width="68.354px" height="51.926px" viewBox="0 0 68.354 51.926" enable-background="new 0 0 68.354 51.926" xml:space="preserve">
<g opacity="0.6">
	<path fill="#FFFFFF" d="M49.921,10.671H13.56c-2.197,0-3.978,1.781-3.978,3.976v27.501c0,2.188,1.78,3.974,3.978,3.974h36.361
		c2.197,0,3.983-1.785,3.983-3.974V14.646C53.905,12.452,52.122,10.671,49.921,10.671z M50.978,42.147
		c0,0.573-0.472,1.043-1.057,1.043H13.56c-0.577,0-1.045-0.47-1.045-1.043V14.646c0-0.577,0.468-1.047,1.045-1.047h36.361
		c0.585,0,1.057,0.47,1.057,1.047V42.147z"/>
	<path fill="#FFFFFF" d="M54.786,5.808H18.423c-2.195,0-3.976,2.999-3.976,2.999h2.931c0,0,0.467-0.069,1.045-0.069h36.363
		c0.584,0,1.057,0.471,1.057,1.047v27.499c0,0.575-0.453,1.044-0.453,1.044v2.931c0,0,3.381-1.784,3.381-3.975V9.784
		C58.771,7.589,56.988,5.808,54.786,5.808z"/>
	<path fill="#FFFFFF" d="M16.947,39.437h28.059V18.244H16.947V39.437z M34.157,23.913h5.182v1.466h-3.424v2.39h3.026v1.44h-3.026
		v3.901h-1.758V23.913z M30.755,23.913h1.76v9.197h-1.76V23.913z M23.011,26.478c0.156-0.604,0.38-1.111,0.67-1.52
		c0.294-0.406,0.652-0.713,1.076-0.92c0.424-0.205,0.904-0.311,1.441-0.311c0.606,0,1.125,0.105,1.556,0.311
		c0.429,0.207,0.762,0.533,0.997,0.98c0.238,0.445,0.397,0.953,0.487,1.516l-1.677,0.357c-0.076-0.402-0.184-0.73-0.324-0.99
		c-0.141-0.258-0.305-0.433-0.494-0.527c-0.187-0.098-0.384-0.145-0.586-0.145c-0.537,0-0.936,0.289-1.201,0.869
		c-0.262,0.58-0.395,1.42-0.395,2.521c0,1.093,0.139,1.895,0.416,2.406c0.279,0.513,0.67,0.768,1.18,0.768
		c0.191,0,0.371-0.031,0.539-0.094c0.168-0.065,0.316-0.162,0.441-0.301c0.123-0.137,0.224-0.312,0.293-0.522
		c0.072-0.212,0.107-0.461,0.107-0.757v-0.511h-1.014v-1.293h2.724v4.795h-1.112l-0.156-0.929c-0.221,0.361-0.5,0.638-0.836,0.829
		c-0.335,0.189-0.735,0.284-1.202,0.284c-0.452,0-0.87-0.085-1.255-0.256c-0.387-0.172-0.721-0.443-1.006-0.821
		c-0.283-0.38-0.504-0.863-0.663-1.461c-0.159-0.595-0.238-1.319-0.238-2.174C22.78,27.785,22.857,27.084,23.011,26.478z"/>
</g>
<g>
	<rect x="0" y="-0.001" fill="none" width="68.354" height="51.928"/>
</g>
</svg>
