<?xml version="1.0" encoding="utf-8"?>
<!-- Generator: Adobe Illustrator 16.0.0, SVG Export Plug-In . SVG Version: 6.00 Build 0)  -->
<!DOCTYPE svg PUBLIC "-//W3C//DTD SVG 1.1//EN" "http://www.w3.org/Graphics/SVG/1.1/DTD/svg11.dtd">
<svg version="1.1" id="Layer_1" xmlns="http://www.w3.org/2000/svg" xmlns:xlink="http://www.w3.org/1999/xlink" x="0px" y="0px"
	 width="68.354px" height="51.926px" viewBox="0 0 68.354 51.926" enable-background="new 0 0 68.354 51.926" xml:space="preserve">
<g opacity="0.6">
	<path fill="#FFFFFF" d="M49.924,46.121H13.561c-2.194,0-3.976-1.785-3.976-3.975v-27.5c0-2.194,1.78-3.976,3.976-3.976h36.363
		c2.201,0,3.981,1.781,3.981,3.976v27.5C53.906,44.336,52.119,46.121,49.924,46.121z M13.561,13.6c-0.578,0-1.045,0.47-1.045,1.047
		v27.501c0,0.572,0.467,1.043,1.045,1.043h36.363c0.584,0,1.057-0.471,1.057-1.043V14.646c0-0.577-0.473-1.047-1.057-1.047
		L13.561,13.6L13.561,13.6z"/>
	<path fill="#FFFFFF" d="M23.048,19.936c1.908,0,3.453,1.546,3.453,3.452c0,1.904-1.545,3.45-3.453,3.45
		c-1.907,0-3.451-1.546-3.451-3.45C19.597,21.481,21.141,19.936,23.048,19.936z M45.69,37.331H18.353l2.208-4.421l2.487,3.18
		l7.589-9.389l4.287,5.312l5.662-10.427L45.69,32.91V37.331z"/>
	<path fill="#FFFFFF" d="M54.785,5.808H18.426c-2.199,0-3.977,2.999-3.977,2.999h2.929c0,0,0.468-0.069,1.048-0.069h36.359
		c0.584,0,1.06,0.471,1.06,1.047v27.499c0,0.575-0.452,1.044-0.452,1.044v2.931c0,0,3.377-1.784,3.377-3.975v-27.5
		C58.77,7.589,56.987,5.808,54.785,5.808z"/>
</g>
<g>
	<rect x="0" y="-0.001" fill="none" width="68.354" height="51.928"/>
</g>
</svg>
