<?xml version="1.0" encoding="utf-8"?>
<!-- Generator: Adobe Illustrator 16.0.0, SVG Export Plug-In . SVG Version: 6.00 Build 0)  -->
<!DOCTYPE svg PUBLIC "-//W3C//DTD SVG 1.1//EN" "http://www.w3.org/Graphics/SVG/1.1/DTD/svg11.dtd">
<svg version="1.1" id="Layer_1" xmlns="http://www.w3.org/2000/svg" xmlns:xlink="http://www.w3.org/1999/xlink" x="0px" y="0px"
	 width="68.354px" height="51.926px" viewBox="0 0 68.354 51.926" enable-background="new 0 0 68.354 51.926" xml:space="preserve">
<g opacity="0.6">
	<path fill="#FFFFFF" d="M44.038,0.809H24.302c-1.938,0-3.539,1.617-3.539,3.524v43.435c0,1.928,1.618,3.541,3.539,3.541h19.751
		c1.92,0,3.538-1.59,3.538-3.541V4.35C47.574,2.411,45.989,0.809,44.038,0.809z M30.548,3.639h7.26c0.267,0,0.487,0.215,0.478,0.478
		c0,0.269-0.211,0.477-0.478,0.477h-7.26c-0.257,0-0.478-0.208-0.478-0.477C30.072,3.852,30.281,3.639,30.548,3.639z M34.178,49.162
		c-1.25,0-2.26-1.006-2.26-2.258c0-1.25,1.01-2.256,2.26-2.256c1.251,0,2.26,1.006,2.258,2.256
		C36.436,48.156,35.429,49.162,34.178,49.162z M46.091,42.416H22.265V7.598h23.826V42.416z"/>
	<path fill="#FFFFFF" d="M25.676,16.141h3.152c0.644,0,1.167-0.522,1.167-1.167v-3.15c0-0.648-0.523-1.168-1.167-1.168h-3.152
		c-0.644,0-1.167,0.521-1.167,1.168v3.15C24.509,15.619,25.032,16.141,25.676,16.141z"/>
	<path fill="#FFFFFF" d="M32.669,16.141h3.15c0.646,0,1.168-0.522,1.168-1.167v-3.15c0-0.648-0.522-1.168-1.168-1.168h-3.15
		c-0.645,0-1.165,0.521-1.165,1.168v3.15C31.504,15.619,32.026,16.141,32.669,16.141z"/>
	<path fill="#FFFFFF" d="M39.526,16.141h3.152c0.643,0,1.167-0.522,1.167-1.167v-3.15c0-0.648-0.524-1.168-1.167-1.168h-3.152
		c-0.645,0-1.168,0.521-1.168,1.168v3.15C38.358,15.619,38.881,16.141,39.526,16.141z"/>
	<path fill="#FFFFFF" d="M25.676,24.366h3.152c0.644,0,1.167-0.523,1.167-1.167v-3.153c0-0.643-0.523-1.166-1.167-1.166h-3.152
		c-0.644,0-1.167,0.523-1.167,1.166v3.153C24.509,23.843,25.032,24.366,25.676,24.366z"/>
	<path fill="#FFFFFF" d="M32.669,24.366h3.15c0.646,0,1.168-0.523,1.168-1.167v-3.153c0-0.643-0.522-1.166-1.168-1.166h-3.15
		c-0.645,0-1.165,0.523-1.165,1.166v3.153C31.504,23.843,32.026,24.366,32.669,24.366z"/>
	<path fill="#FFFFFF" d="M39.526,24.366h3.152c0.643,0,1.167-0.523,1.167-1.167v-3.153c0-0.643-0.524-1.166-1.167-1.166h-3.152
		c-0.645,0-1.168,0.523-1.168,1.166v3.153C38.358,23.843,38.881,24.366,39.526,24.366z"/>
	<path fill="#FFFFFF" d="M25.676,32.285h3.152c0.644,0,1.167-0.521,1.167-1.17v-3.15c0-0.643-0.523-1.166-1.167-1.166h-3.152
		c-0.644,0-1.167,0.523-1.167,1.166v3.15C24.509,31.764,25.032,32.285,25.676,32.285z"/>
	<path fill="#FFFFFF" d="M32.669,32.285h3.15c0.646,0,1.168-0.521,1.168-1.17v-3.15c0-0.643-0.522-1.166-1.168-1.166h-3.15
		c-0.645,0-1.165,0.523-1.165,1.166v3.15C31.504,31.764,32.026,32.285,32.669,32.285z"/>
</g>
<g>
	<rect x="0" y="-0.001" fill="none" width="68.354" height="51.928"/>
</g>
</svg>
