<?xml version="1.0" encoding="utf-8"?>
<!-- Generator: Adobe Illustrator 16.0.0, SVG Export Plug-In . SVG Version: 6.00 Build 0)  -->
<!DOCTYPE svg PUBLIC "-//W3C//DTD SVG 1.1//EN" "http://www.w3.org/Graphics/SVG/1.1/DTD/svg11.dtd">
<svg version="1.1" id="Layer_1" xmlns="http://www.w3.org/2000/svg" xmlns:xlink="http://www.w3.org/1999/xlink" x="0px" y="0px"
	 width="68.354px" height="51.926px" viewBox="0 0 68.354 51.926" enable-background="new 0 0 68.354 51.926" xml:space="preserve">
<g opacity="0.6">
	<polygon fill="#FFFFFF" points="30.163,29.936 39.828,23.726 30.163,17.504 	"/>
	<rect x="17.463" y="44.293" fill="#FFFFFF" width="33.234" height="1.756"/>
	<path fill="#FFFFFF" d="M52.355,5.88H15.992c-2.195,0-3.977,1.781-3.977,3.976v27.5c0,2.189,1.78,3.975,3.977,3.975h36.361
		c2.196,0,3.982-1.784,3.982-3.975v-27.5C56.337,7.661,54.557,5.88,52.355,5.88z M53.412,37.355c0,0.574-0.475,1.043-1.059,1.043
		H15.992c-0.579,0-1.046-0.469-1.046-1.043v-27.5c0-0.577,0.467-1.047,1.046-1.047h36.361c0.584,0,1.059,0.47,1.059,1.047V37.355z"
		/>
</g>
<g>
	<rect x="0" y="-0.001" fill="none" width="68.354" height="51.928"/>
</g>
</svg>
