<?xml version="1.0" encoding="utf-8"?>
<!-- Generator: Adobe Illustrator 16.0.0, SVG Export Plug-In . SVG Version: 6.00 Build 0)  -->
<!DOCTYPE svg PUBLIC "-//W3C//DTD SVG 1.1//EN" "http://www.w3.org/Graphics/SVG/1.1/DTD/svg11.dtd">
<svg version="1.1" id="Layer_1" xmlns="http://www.w3.org/2000/svg" xmlns:xlink="http://www.w3.org/1999/xlink" x="0px" y="0px"
	 width="68.354px" height="51.926px" viewBox="0 0 68.354 51.926" enable-background="new 0 0 68.354 51.926" xml:space="preserve">
<g>
	<rect x="0" fill="none" width="68.354" height="51.928"/>
</g>
<g opacity="0.6">
	<path fill="#FFFFFF" d="M16.011,35.437c-1.083-0.01-2.005,0.923-1.958,1.973c0.05,0.996,0.968,1.829,1.994,1.798
		c1.053-0.032,1.881-0.875,1.873-1.903C17.911,36.29,17.053,35.447,16.011,35.437z"/>
	<path fill="#FFFFFF" d="M18.522,24.36c-0.651-0.184-4.855-0.302-5.271,3.066c-0.416,3.363,3.108,3.192,3.108,3.192
		s2.02,0.156,3.48-2.435C21.301,25.59,19.174,24.542,18.522,24.36z"/>
	<path fill="#FFFFFF" d="M52.309,35.437c-1.042,0.01-1.899,0.853-1.907,1.867c-0.007,1.028,0.82,1.871,1.87,1.903
		c1.028,0.031,1.947-0.802,1.995-1.798C54.316,36.36,53.393,35.427,52.309,35.437z"/>
	<path fill="#FFFFFF" d="M49.798,24.36c-0.651,0.183-2.779,1.23-1.318,3.824c1.462,2.591,3.479,2.435,3.479,2.435
		s3.524,0.171,3.109-3.192C54.654,24.058,50.449,24.176,49.798,24.36z"/>
	<path fill="#FFFFFF" d="M35.43,27.234c-0.151,0-0.302,0-0.453,0c-0.024,0-0.039-0.006-0.056-0.022c0,0,0,0,0.002,0
		c-0.168-0.188-0.445-0.312-0.758-0.312c-0.332,0-0.621,0.138-0.785,0.347c0.006-0.01,0.01-0.017,0.015-0.024
		c-0.016,0.007-0.032,0.018-0.049,0.018c-0.409,0.002-0.816,0.002-1.226,0.004c0.021,0.049,0.062,0.089,0.097,0.132
		c0.097,0.113,0.197,0.224,0.312,0.322c0.02,0.018,0.043,0.037,0.064,0.055c0.003,0,0.005,0.003,0.009,0.007
		c0,0,0.003,0,0.003,0.003c0.022,0.015,0.046,0.028,0.062,0.051c0,0,0.002,0.005,0.002,0.005c0.013,0,0.021,0.005,0.03,0.013
		c0.001,0,0.006,0,0.009,0.002c0.006-0.02,0.022-0.01,0.035-0.01c0.158,0,0.318,0,0.478,0c0.048,0,0.063,0.016,0.059,0.078
		c-0.011-0.042-0.039-0.042-0.068-0.045c-0.161-0.01-0.321-0.006-0.481-0.023c-0.006,0-0.012,0.003-0.016,0.006
		c0.079,0.075,0.175,0.131,0.264,0.191c0.048,0.035,0.099,0.047,0.159,0.045c0.087-0.003,0.172-0.003,0.259-0.003
		c0.021,0,0.038,0.005,0.054,0.02c0.005,0.006,0.012,0.008,0.019,0.014c0.169,0.155,0.417,0.254,0.696,0.254
		c0.295,0,0.556-0.11,0.726-0.282c0.037-0.01,0.075-0.01,0.117-0.008c0.047,0.003,0.097-0.002,0.145,0.003
		c0.068,0.005,0.129-0.013,0.184-0.053c0.083-0.058,0.169-0.113,0.252-0.169c0.008-0.005,0.017-0.008,0.026-0.01
		c-0.035-0.029-0.061-0.008-0.083-0.01c-0.132,0.008-0.263,0.016-0.394,0.022c-0.036,0.002-0.054,0.011-0.065,0.043
		c-0.014,0.035-0.029,0.073-0.083,0.06l-0.001,0.001c0.025-0.041,0.047-0.083,0.062-0.128c0.006-0.003,0.012-0.006,0.021-0.006
		c0.152,0,0.305,0,0.459,0c0.074,0.013,0.127-0.022,0.183-0.067c0.18-0.149,0.349-0.305,0.497-0.481
		c0.011-0.013,0.028-0.024,0.024-0.045c-0.176,0.001-0.353,0.001-0.527,0.001C35.615,27.233,35.523,27.233,35.43,27.234z
		 M33.238,27.671c0-0.066-0.049-0.062-0.099-0.062c-0.208-0.005-0.417-0.012-0.624-0.018c-0.007,0-0.017,0.003-0.019-0.014
		c0.015,0,0.029-0.001,0.042-0.001c0.218,0,0.436,0,0.654-0.003c0.029,0,0.043,0.011,0.049,0.025c0,0-0.003,0.019-0.003,0.028
		c0,0.016,0.004,0.032,0.006,0.047C33.241,27.675,33.238,27.671,33.238,27.671z M33.303,27.367
		c-0.007,0.002-0.007,0.008-0.014,0.008c-0.068,0-0.137-0.001-0.204-0.005c-0.151-0.003-0.302-0.008-0.454-0.011
		c-0.004,0.002-0.011,0.008-0.015,0.008c-0.121-0.02-0.243-0.002-0.365-0.011c-0.002,0-0.009,0-0.012-0.004
		c-0.001-0.009,0.007-0.009,0.014-0.009c0.121,0,0.242,0,0.362,0c0.006,0,0.01,0,0.017,0.004c0.208-0.003,0.416-0.003,0.625-0.003
		c0.011,0,0.022-0.001,0.032,0c0.005,0,0.014,0,0.02,0.003C33.306,27.352,33.305,27.361,33.303,27.367z M34.165,28.291
		c-0.457,0-0.827-0.297-0.827-0.662c0-0.367,0.371-0.662,0.827-0.662s0.826,0.295,0.826,0.662
		C34.99,27.994,34.621,28.291,34.165,28.291z M35.669,27.585c-0.167,0.007-0.333,0.013-0.499,0.016c-0.032,0-0.047,0.004-0.045,0.04
		c0.001,0.021,0.019,0.064-0.023,0.061c-0.011,0-0.015-0.001-0.021-0.005c0.005-0.021,0.011-0.044,0.011-0.068
		c0-0.005-0.002-0.01-0.002-0.01c0.002-0.036,0.014-0.046,0.07-0.046c0.17,0,0.34,0,0.51,0c0.059-0.005,0.117-0.007,0.175,0
		l0.001,0.005C35.786,27.579,35.728,27.588,35.669,27.585z M36.126,27.333c-0.06,0.028-0.118,0.01-0.179,0
		C36.008,27.333,36.067,27.333,36.126,27.333z M35.927,27.349c-0.094,0.002-0.187,0.007-0.28,0.007
		c-0.185,0.005-0.368,0.011-0.553,0.013c-0.029,0-0.035,0.006-0.021,0.031c0.008,0.013,0.011,0.026,0.017,0.039
		c0.002,0.011,0.011,0.021-0.006,0.025c-0.014,0.003-0.021-0.005-0.022-0.015c-0.007-0.016-0.012-0.03-0.018-0.046
		c0.002,0.003,0.002,0.009,0.003,0.013c-0.004-0.01-0.008-0.02-0.011-0.029c0,0,0.004,0.007,0.006,0.01
		c-0.006-0.018-0.013-0.036-0.021-0.054c0.303,0,0.604,0,0.906,0V27.349z"/>
	<path fill="#FFFFFF" d="M33.858,27.452c-0.033,0.053-0.064,0.106-0.097,0.159c-0.005-0.003-0.006-0.006-0.009-0.006
		c-0.016-0.037-0.033-0.074-0.049-0.11c-0.034-0.072-0.034-0.072-0.114-0.068c-0.022,0-0.028,0.006-0.031,0.026
		c-0.006,0.087-0.016,0.171-0.023,0.257c0,0.015-0.013,0.042,0.02,0.034c0.026-0.005,0.07,0.027,0.075-0.029
		c0.004-0.039,0.007-0.084,0.011-0.127c0.003,0,0.004,0,0.007,0c0.02,0.043,0.041,0.088,0.058,0.131
		c0.008,0.014,0.013,0.028,0.035,0.026c0.021-0.001,0.042,0,0.053-0.025c0.02-0.038,0.042-0.075,0.066-0.114
		c0.003-0.007,0.005-0.018,0.018-0.013c0.013,0.003,0.008,0.013,0.008,0.021c-0.001,0.03-0.002,0.064-0.006,0.096
		c0,0.018-0.005,0.042,0.026,0.034c0.024-0.005,0.067,0.025,0.069-0.03c0.002-0.085,0.007-0.173,0.011-0.256
		c0-0.01,0.005-0.022-0.004-0.028C33.963,27.412,33.87,27.429,33.858,27.452z M33.88,27.587c-0.002-0.002-0.004-0.005-0.006-0.007
		c0.002-0.003,0.004-0.006,0.007-0.008c0.002,0,0.006,0.002,0.006,0.002C33.885,27.581,33.882,27.583,33.88,27.587z"/>
	<path fill="#FFFFFF" d="M34.545,27.426c-0.019-0.005-0.04-0.007-0.039,0.023c0.002,0.05,0,0.098,0,0.16
		c-0.056-0.062-0.103-0.112-0.149-0.166c-0.028-0.032-0.067-0.021-0.099-0.018c-0.023,0.003-0.01,0.033-0.011,0.051
		c-0.003,0.076-0.003,0.153-0.006,0.231c-0.002,0.03,0.006,0.043,0.037,0.036c0.025-0.006,0.063,0.018,0.06-0.035
		c-0.003-0.048,0-0.096,0-0.144c0.057,0.05,0.104,0.098,0.147,0.152c0.03,0.04,0.069,0.022,0.104,0.025
		c0.016,0,0.013-0.015,0.013-0.024c0-0.089-0.003-0.179-0.004-0.27C34.598,27.405,34.565,27.429,34.545,27.426z"/>
	<path fill="#FFFFFF" d="M34.753,27.745c0.02-0.001,0.026-0.006,0.026-0.026c-0.002-0.043-0.002-0.088-0.002-0.131
		c-0.002,0-0.005,0-0.009,0c0-0.047,0-0.09,0-0.136c0-0.052-0.042-0.022-0.064-0.029c-0.025-0.006-0.034,0.007-0.033,0.03
		c0.003,0.075,0.003,0.152,0.005,0.229C34.679,27.751,34.679,27.751,34.753,27.745z"/>
	<path fill="#FFFFFF" d="M34.07,27.453c0.002,0.047,0,0.091,0,0.136c-0.002,0-0.006,0-0.009,0c0,0.042,0.002,0.087-0.001,0.126
		c-0.001,0.024,0.006,0.032,0.03,0.03c0.013-0.001,0.025-0.001,0.037,0c0.021,0.002,0.033-0.004,0.034-0.026
		c0-0.09,0.002-0.178,0.007-0.262c0.001-0.027-0.009-0.037-0.034-0.03C34.111,27.429,34.069,27.4,34.07,27.453z"/>
	<path fill="#FFFFFF" d="M34.205,27.015c-0.192,0-0.353,0.04-0.497,0.13c-0.393,0.244-0.396,0.712-0.009,0.949
		c0.305,0.188,0.756,0.147,1.02-0.087c0.265-0.236,0.266-0.586-0.001-0.809C34.568,27.068,34.386,27.017,34.205,27.015z
		 M34.628,28.026c-0.141,0.098-0.315,0.151-0.49,0.147c-0.177-0.004-0.341-0.049-0.479-0.158c-0.273-0.219-0.273-0.565-0.001-0.792
		c0.257-0.214,0.673-0.239,0.958-0.058C34.953,27.379,34.959,27.799,34.628,28.026z"/>
	<path fill="#FFFFFF" d="M33.753,38.604H21.699c0,0,0,1.283,0.595,1.526c0.596,0.242,2.064,0.449,2.899,0.517
		c0.671,0.058,6.373,0.138,8.559,0.166v0.01c0,0,0.155-0.003,0.425-0.007c0.269,0.004,0.425,0.007,0.425,0.007v-0.01
		c2.186-0.028,7.888-0.108,8.558-0.166c0.835-0.067,2.305-0.274,2.899-0.517c0.597-0.243,0.597-1.526,0.597-1.526H34.602H33.753z"/>
	<path fill="#FFFFFF" d="M28.14,36.139h12.074c0.141,0,0.255-0.115,0.255-0.252v-1.72c0-0.141-0.114-0.254-0.255-0.254H28.14
		c-0.141,0-0.254,0.113-0.254,0.254v1.72C27.886,36.024,28,36.139,28.14,36.139z"/>
	<path fill="#FFFFFF" d="M56.422,21.48c0.518-0.196,1.405-0.5,1.559-1.467c0.205-1.287-0.987-1.886-2.359-1.983
		c-1.37-0.099-2.092,0.437-2.307,1.145c-0.231,0.762,0.26,1.604,0.26,1.604l-0.435,0.495v-0.064h-0.051l-0.597-0.748
		c-0.409-0.908-3.405-7.566-4.128-8.229c-0.565-0.845-1.545-1.132-3.397-1.293c-0.931-0.08-5.746-0.294-10.588-0.297V8.92h-0.117
		v-2.34H34.19h-0.025h-0.07v2.34h-0.118v1.723c-4.842,0.003-9.657,0.217-10.589,0.297c-1.851,0.161-2.831,0.448-3.395,1.293
		c-0.725,0.662-3.72,7.32-4.13,8.229l-0.596,0.748h-0.052v0.064l-0.434-0.495c0,0,0.491-0.843,0.261-1.604
		c-0.216-0.708-0.937-1.243-2.308-1.145c-1.371,0.098-2.564,0.696-2.359,1.983c0.155,0.967,1.043,1.271,1.558,1.467
		c0.803,0.302,1.709,0.086,1.709,0.086l0.479,0.891l-0.072,0.077c-0.266,0.322-0.528,0.615-0.779,0.896
		c-1.188,1.328-2.214,2.476-2.521,5.375c-0.106,1.004,0.024,2.435,0.242,4.802l0.108,1.207c0.112,1.255,0.158,2.324,0.195,3.18
		c0.064,1.463,0.112,2.417,0.437,2.95c0,3.934,0.128,4.402,1.138,4.402c1.372,0,3.49,0,4.044,0c0.554,0,1.037-0.322,1.203-0.986
		c0.237-0.944,0.253-1.801,0.318-2.257l15.157,0.399h0.575h0.025h0.575l15.157-0.399c0.064,0.456,0.08,1.312,0.316,2.257
		c0.167,0.664,0.649,0.986,1.203,0.986c0.556,0,2.673,0,4.045,0c1.011,0,1.137-0.469,1.137-4.402
		c0.326-0.533,0.374-1.487,0.438-2.95c0.038-0.855,0.083-1.925,0.194-3.18l0.11-1.207c0.216-2.367,0.347-3.798,0.241-4.802
		c-0.307-2.899-1.333-4.047-2.519-5.375c-0.254-0.281-0.515-0.574-0.782-0.896l-0.072-0.077l0.48-0.891
		C54.714,21.566,55.621,21.782,56.422,21.48z M16.303,20.771l0.035-0.06c1.292-2.887,3.356-7.28,3.952-8.015h13.875h0.025h13.877
		c0.594,0.734,2.657,5.128,3.949,8.015l0.035,0.06l0.354,0.438H15.949L16.303,20.771z M21.082,33.169
		c0.111-0.282,0.25-0.543,0.406-0.785h25.379c0.156,0.242,0.293,0.503,0.405,0.785H21.082z M47.384,33.504
		c0.131,0.43,0.211,0.9,0.211,1.421c0,1.868-3.194,1.734-5.461,1.734c-1.54,0-14.373,0-15.914,0c-2.265,0-5.461,0.134-5.461-1.734
		c0-0.521,0.08-0.991,0.211-1.421H47.384z M21.72,32.05c0.281-0.36,0.607-0.671,0.958-0.938h23c0.35,0.267,0.677,0.577,0.956,0.938
		H21.72z M23.164,30.78c1.062-0.646,2.248-0.934,3.056-0.934c0.721,0,15.194,0,15.916,0c0.808,0,1.993,0.287,3.055,0.934H23.164z
		 M41.963,25.087c-0.294,0.884-0.989,2.983-1.226,3.698c-3.234,0-9.883,0-13.117,0c-0.239-0.715-0.935-2.814-1.229-3.698
		c-0.274-0.828-1.246-2.571-1.687-3.343h18.943C43.211,22.516,42.238,24.259,41.963,25.087z M54.689,23.787
		c1.172,1.311,2.098,2.348,2.387,5.076c0.101,0.951-0.037,2.44-0.241,4.694l-0.108,1.207c-0.115,1.27-0.16,2.343-0.198,3.208
		c-0.083,1.943-0.144,2.812-0.654,2.934l-4.606,0.626l-16.51,0.434H34.19h-0.025h-0.567l-16.507-0.434l-4.61-0.626
		c-0.51-0.121-0.568-0.99-0.653-2.934c-0.037-0.865-0.085-1.938-0.197-3.208l-0.11-1.207c-0.206-2.254-0.342-3.743-0.241-4.694
		c0.288-2.729,1.214-3.766,2.387-5.076c0.257-0.288,0.523-0.585,0.783-0.9l1.059-1.142h5.615c0.4,0.742,1.28,2.412,1.754,3.668
		c0.507,1.343,0.854,3.014,1.001,3.68c-2.478,0.72-4.605,2.69-4.605,5.742c0,3.131,5.151,3.055,6.285,3.055
		c0.875,0,16.364,0,17.238,0c1.134,0,6.285,0.076,6.285-3.055c0-3.052-2.128-5.022-4.605-5.742c0.146-0.666,0.495-2.337,1.002-3.68
		c0.473-1.256,1.354-2.926,1.757-3.668h5.612l1.06,1.142C54.165,23.202,54.432,23.499,54.689,23.787z"/>
</g>
</svg>
