<?xml version="1.0" encoding="utf-8"?>
<!-- Generator: Adobe Illustrator 16.0.0, SVG Export Plug-In . SVG Version: 6.00 Build 0)  -->
<!DOCTYPE svg PUBLIC "-//W3C//DTD SVG 1.1//EN" "http://www.w3.org/Graphics/SVG/1.1/DTD/svg11.dtd">
<svg version="1.1" id="Layer_1" xmlns="http://www.w3.org/2000/svg" xmlns:xlink="http://www.w3.org/1999/xlink" x="0px" y="0px"
	 width="68.354px" height="51.926px" viewBox="0 0 68.354 51.926" enable-background="new 0 0 68.354 51.926" xml:space="preserve">
<g opacity="0.6">
	<rect x="0" y="-0.001" fill="none" width="68.354" height="51.928"/>
</g>
<g opacity="0.6">
	<path fill="#FFFFFF" d="M56.609,33.93c-0.61-1.426-2.517-2.48-4.856-1.627c-1.284,0.469-7.702,2.824-8.433,3.168
		s-1.456-0.016-1.456-0.016s-1.048-0.383-1.713-0.441l-0.296-0.021c-1.668-0.137-5.244-0.738-10.584-1.424
		c-1.709-1.037-3.722-1.48-5.458-1.922c-0.002-0.004-0.376-0.072-0.378-0.076c-1.751-0.148-3.143,0.109-4.902,0.662
		c-4.838,1.523-6.856,6.947-6.939,7.178c-0.165,0.453,0.071,0.955,0.521,1.119c0.454,0.172,0.955-0.066,1.123-0.518
		c0.018-0.051,1.818-4.848,5.819-6.109c3.609-1.133,7.086-0.617,10.634,1.574l0.162,0.1L30.04,35.6
		c4.703,0.611,8.111,0.885,9.564,1.002l0.253,0.021c0.669,0.053,1.105,0.279,1.37,0.574c0.044,0.121,0.112,0.219,0.194,0.303
		c0.104,0.217,0.147,0.449,0.13,0.676c-0.044,0.662-0.533,1.309-1.526,1.258L23.87,38.633c-0.015-0.004-0.033-0.004-0.047-0.004
		c-0.462,0-0.845,0.363-0.872,0.828c-0.023,0.486,0.351,0.896,0.831,0.92l16.159,0.805c0.064,0.002,0.129,0.006,0.194,0.006
		c1.933,0,3.07-1.469,3.164-2.896c0.018-0.301-0.006-0.611-0.076-0.916c2.165-0.814,7.717-2.908,9.131-3.428
		c1.405-0.516,2.393,0.076,2.643,0.664c0.254,0.6-0.18,1.248-1.166,1.729c-4.782,2.34-15.274,7.334-18.065,8.471
		c-2.392,0.973-4.755,0.799-8.276,0.139c-4.629-0.871-8.15,1.018-9.016,1.744c-0.371,0.312-0.418,0.863-0.106,1.234
		c0.174,0.207,0.418,0.312,0.669,0.312c0.197,0,0.4-0.066,0.562-0.203c0.575-0.482,3.539-2.127,7.566-1.369
		c3.76,0.707,6.482,0.898,9.261-0.24c2.826-1.148,13.371-6.168,18.177-8.518C56.717,36.879,57.133,35.164,56.609,33.93z"/>
	<ellipse fill="#FFFFFF" cx="34.177" cy="14.694" rx="1.136" ry="0.577"/>
	<path fill="#FFFFFF" d="M17.653,17.608c-0.049,0.738,0.476,0.814,1.88,0.765c1.777-0.065,4.603-0.118,5.58-0.121
		c-0.024,1.788,3.087,2.354,4.03,2.354c0.942,0,1.788,0,2.849,0s1.765-0.531,1.765-1.836s-0.27-2.42-0.27-2.42
		c-0.247-0.555-0.834-0.628-2.179-0.628c-1.343,0-3.478,0-4.188,0c-1.74,0-1.937,0.568-2.056,1.158
		c-0.128-0.244-0.355-0.279-0.661-0.357c-0.306-0.086-3.893-1.042-4.721-1.29c-0.83-0.245-2.41-0.763-2.652,0.07
		C16.79,16.137,16.411,17.608,17.653,17.608z M25.66,16.735c0.24-0.384,0.625-0.64,1.34-0.629c0.958,0.014,4.252,0.1,4.832,0.149
		c0.583,0.048,1.068,0.239,1.138,1.101s0.259,1.964-0.364,2.371c-0.621,0.405-2.923,0.315-3.831,0.216
		c-0.911-0.097-2.97-0.525-3.116-1.341C25.516,17.788,25.419,17.117,25.66,16.735z"/>
	<path fill="#FFFFFF" d="M34.869,16.351c0,0-0.27,1.115-0.27,2.42s0.704,1.839,1.763,1.839c1.062,0,1.907,0,2.85,0
		c0.944,0,4.056-0.569,4.029-2.357c0.979,0.003,3.804,0.057,5.58,0.121c1.404,0.052,1.931-0.026,1.881-0.763
		c1.241,0,0.862-1.472,0.623-2.307c-0.243-0.832-1.824-0.315-2.653-0.07c-0.828,0.248-4.414,1.204-4.72,1.29
		c-0.306,0.078-0.533,0.113-0.661,0.357c-0.117-0.59-0.316-1.156-2.055-1.156c-0.709,0-2.846,0-4.188,0
		C35.702,15.725,35.116,15.796,34.869,16.351z M35.382,17.356c0.071-0.861,0.557-1.053,1.14-1.101
		c0.582-0.05,3.875-0.137,4.832-0.15c0.715-0.01,1.102,0.245,1.339,0.63c0.241,0.382,0.145,1.053,0,1.867
		c-0.144,0.815-2.202,1.244-3.113,1.341c-0.909,0.1-3.21,0.189-3.832-0.216C35.124,19.32,35.315,18.218,35.382,17.356z"/>
	<path fill="#FFFFFF" d="M49.272,21.059c-0.58,0.024-1.799,0.166-3.86,0.358c-2.063,0.192-3.539,0.409-3.88,1.056l-7.343,0.033
		l-7.345-0.033c-0.341-0.646-1.818-0.863-3.881-1.056c-2.062-0.192-3.28-0.334-3.861-0.358c-0.583-0.025-1.304-0.175-1.26,0.957
		c0.044,1.135,0.138,1.906,1.409,2.055c1.269,0.148,3.53,0.279,4.877,0.381c1.345,0.102,3.206,0.338,3.057-0.249
		c1.3-0.057,0.526,0.437,1.542,0.464c0.838,0.023,4.292,0.01,5.459,0.004c1.17,0.006,4.621,0.02,5.459-0.004
		c1.018-0.027,0.243-0.521,1.545-0.464c-0.152,0.587,1.71,0.351,3.058,0.249c1.345-0.102,3.607-0.232,4.877-0.381
		c1.267-0.148,1.362-0.92,1.406-2.055C50.576,20.884,49.857,21.033,49.272,21.059z"/>
	<path fill="#FFFFFF" d="M14.442,27.186c0.044,1.205,0.599,1.768,1.745,1.768h4.53c1.954,0,1.973-1.826,1.975-1.863
		c0.051,0,0.103,0,0.152,0c1.165,0,1.908,0.148,2.461,0.262c0.08,0.016,0.153,0.031,0.225,0.043c0.677,0.131,4.06,0.264,4.099,0.266
		l4.491,0.025h0.057h0.057l4.488-0.025c0.041-0.002,3.424-0.135,4.102-0.266c0.069-0.012,0.146-0.027,0.224-0.043
		c0.553-0.113,1.296-0.262,2.461-0.262c0.05,0,0.102,0,0.151,0c0.004,0.037,0.024,1.863,1.976,1.863h4.531
		c1.146,0,1.7-0.562,1.745-1.768l0.121-2.244c0.078-1.353,0.158-2.748,0.171-3.652c0.016-1.241-0.227-5.628-0.91-6.737
		c-0.778-1.264-2.636-2.511-3.792-3.204h0.479c0.415,0,1.68,0,1.68-1.15c0-0.877-0.988-1.135-1.512-1.149
		c-0.005,0-0.562-0.002-1.035,0c-0.301,0.004-0.931,0.01-0.938,0.656c-1.03-1.973-2.873-4.448-4.31-5.402
		c-0.486-0.325-1.069-0.343-1.133-0.344c-3.646-0.27-8.476-0.272-8.525-0.272h-0.031h-0.031c-0.05,0-4.879,0.003-8.525,0.272
		c-0.065,0.001-0.646,0.019-1.133,0.344c-1.437,0.954-3.279,3.43-4.31,5.402c-0.008-0.646-0.636-0.652-0.938-0.656
		c-0.473-0.002-1.029,0-1.035,0c-0.522,0.015-1.51,0.272-1.51,1.149c0,1.15,1.263,1.15,1.679,1.15h0.479
		c-1.155,0.693-3.014,1.94-3.792,3.204c-0.683,1.109-0.925,5.496-0.909,6.737c0.011,0.904,0.092,2.3,0.171,3.652L14.442,27.186z
		 M24.955,5.003c0.276-0.183,0.654-0.199,0.703-0.201c3.639-0.271,8.44-0.272,8.489-0.272h0.031h0.031
		c0.049,0,4.848,0.003,8.489,0.272c0.05,0.002,0.427,0.019,0.702,0.201c1.406,0.936,3.258,3.499,4.191,5.413H34.177H20.763
		C21.696,8.502,23.55,5.938,24.955,5.003z M15.777,14.995c0.959-1.557,4.018-3.226,4.387-3.423h14.014h14.014
		c0.368,0.197,3.426,1.866,4.385,3.423c0.465,0.754,0.806,4.625,0.783,6.283c-0.011,0.887-0.091,2.274-0.17,3.613l-0.028,0.517
		c-0.035,0.6-0.066,0.604-0.343,0.639c-0.581,0.074-3.858,0.156-6.732,0.209c-0.189-0.008-0.388-0.01-0.577-0.01
		c-1.249,0-2.039,0.162-2.617,0.275c-0.082,0.018-0.156,0.033-0.227,0.047c-0.441,0.086-2.611,0.193-3.961,0.248l-4.526,0.027
		l-4.527-0.027c-1.349-0.055-3.52-0.162-3.961-0.248c-0.07-0.014-0.145-0.029-0.227-0.047c-0.578-0.113-1.368-0.275-2.617-0.275
		c-0.19,0-0.387,0.002-0.576,0.01c-2.874-0.053-6.153-0.135-6.732-0.209c-0.279-0.035-0.309-0.039-0.343-0.639l-0.03-0.517
		c-0.079-1.339-0.159-2.727-0.169-3.613C14.972,19.62,15.314,15.749,15.777,14.995z"/>
</g>
</svg>
