<?xml version="1.0" encoding="utf-8"?>
<!-- Generator: Adobe Illustrator 16.0.0, SVG Export Plug-In . SVG Version: 6.00 Build 0)  -->
<!DOCTYPE svg PUBLIC "-//W3C//DTD SVG 1.1//EN" "http://www.w3.org/Graphics/SVG/1.1/DTD/svg11.dtd">
<svg version="1.1" id="Layer_1" xmlns="http://www.w3.org/2000/svg" xmlns:xlink="http://www.w3.org/1999/xlink" x="0px" y="0px"
	 width="68.354px" height="51.927px" viewBox="0 0 68.354 51.927" enable-background="new 0 0 68.354 51.927" xml:space="preserve">
<g>
	<rect fill="none" width="68.354" height="51.927"/>
</g>
<g>
	<g opacity="0.6">
		<path fill="#FFFFFF" d="M9.56,19.031c-3.823,0-6.934,3.11-6.934,6.933c0,3.823,3.11,6.934,6.934,6.934s6.934-3.111,6.934-6.934
			C16.493,22.142,13.383,19.031,9.56,19.031z M9.56,30.898c-2.721,0-4.934-2.213-4.934-4.934c0-2.72,2.213-4.933,4.934-4.933
			s4.934,2.213,4.934,4.933C14.493,28.685,12.28,30.898,9.56,30.898z"/>
		<path fill="#FFFFFF" d="M34.177,19.031c-3.823,0-6.934,3.11-6.934,6.933c0,3.823,3.11,6.934,6.934,6.934s6.934-3.111,6.934-6.934
			C41.11,22.142,38,19.031,34.177,19.031z M34.177,30.898c-2.721,0-4.934-2.213-4.934-4.934c0-2.72,2.213-4.933,4.934-4.933
			s4.934,2.213,4.934,4.933C39.11,28.685,36.897,30.898,34.177,30.898z"/>
		<path fill="#FFFFFF" d="M58.794,19.031c-3.823,0-6.934,3.11-6.934,6.933c0,3.823,3.11,6.934,6.934,6.934s6.934-3.111,6.934-6.934
			C65.728,22.142,62.617,19.031,58.794,19.031z M58.794,30.898c-2.721,0-4.934-2.213-4.934-4.934c0-2.72,2.213-4.933,4.934-4.933
			s4.934,2.213,4.934,4.933C63.728,28.685,61.515,30.898,58.794,30.898z"/>
	</g>
	<rect fill="none" width="68.354" height="51.927"/>
</g>
</svg>
