<?xml version="1.0" encoding="utf-8"?>
<!-- Generator: Adobe Illustrator 16.0.0, SVG Export Plug-In . SVG Version: 6.00 Build 0)  -->
<!DOCTYPE svg PUBLIC "-//W3C//DTD SVG 1.1//EN" "http://www.w3.org/Graphics/SVG/1.1/DTD/svg11.dtd">
<svg version="1.1" id="Layer_1" xmlns="http://www.w3.org/2000/svg" xmlns:xlink="http://www.w3.org/1999/xlink" x="0px" y="0px"
	 width="68.354px" height="51.926px" viewBox="0 0 68.354 51.926" enable-background="new 0 0 68.354 51.926" xml:space="preserve">
<g opacity="0.6">
	<rect x="0" fill="none" width="68.354" height="51.928"/>
	<g>
		<path fill="#FFFFFF" enable-background="new    " d="M52.477,26.494c-1.392,0-2.693,0.385-3.814,1.043l-0.045-0.182l-0.091-0.357
			L48.41,27.01l1.03-0.968l2.724-0.798l1.501,0.03c0.128,0.227,0.368,0.537,0.797,0.791c0.185,0.107,0.366,0.164,0.532,0.164
			c0.47,0,0.726-0.396,0.769-0.764l0.004-0.044l-0.003-0.042l-0.028-0.285l1.318-0.022c0.535,2.19,1.822,2.95,1.875,2.981
			l0.098,0.055h0.112h0.282h0.816l-0.473-0.664c-1.146-1.619-1.078-1.868-0.914-2.469c0.019-0.08,0.044-0.169,0.065-0.268
			c0.267-1.1-0.284-1.598-0.351-1.651l-0.102-0.084l-0.13-0.011l-3.398-0.302c-0.029-0.094-0.067-0.196-0.114-0.313
			c-0.441-1.101-1.28-1.185-1.527-1.185c-0.05,0-0.093,0.001-0.122,0.003h-5.354h-0.372l-0.044,0.371
			c-0.007,0.028-0.008,0.053-0.013,0.08c-0.161-0.042-0.363-0.067-0.61-0.067c-0.105,0-0.177,0.005-0.185,0.006l-0.054,0.003
			l-0.05,0.016c-2.459,0.82-4.286,1.219-5.585,1.219c-1.146,0-1.788-0.294-2.401-0.739c-1.285-0.926-2.853-1.661-2.918-1.693
			l-0.034-0.014l-0.034-0.009c-2.173-0.576-4.072-0.869-5.647-0.869c-1.736,0-2.796,0.354-3.423,0.707
			c-0.265-0.629-0.884-0.93-1.264-1.061l-1.247-0.363l-0.296-0.285l-0.049-0.044l-0.168-1.697c0,0,0.557,0.066,1.583-0.458
			c0.494-0.254,0.599-0.844,0.599-0.844l0.983-0.562c0.232-0.463-0.304-0.83-0.597-0.668l-0.879,0.562c0,0-0.966-0.039-0.915-0.666
			c0.132-1.609,0.647-2.722,0.647-2.722c0.005,0,0.38,0.048,0.384,0.048c0.961,0,1.009-0.527,1.009-0.527s0.377-2.203-0.177-2.203
			c-0.032,0-0.066,0.008-0.104,0.021c-1.374,0.496-1.652,3.553-1.652,3.553l-0.458,2.179l-0.562,0.421
			c-0.07-0.008-0.136-0.013-0.197-0.013c-0.669,0-0.749,0.248-0.963,0.471c-0.216,0.221-0.237,1.375,0.877,1.333
			c0.08,0.471,0.195,1.292,0.25,1.697l-0.104,0.055l-1.45,0.349l-0.012-0.019c0,0-0.263-1.033-1.171-1.381
			c-0.501-0.189-1.273-0.188-1.877,0.49c-0.419,0.468-0.583,1.118-0.488,1.927c0.021,0.199,0.06,0.434,0.126,0.668
			c-0.181-0.031-0.344-0.045-0.481-0.045h-0.632h-0.266l-0.115,0.238c-0.439,0.915-0.481,1.966-0.393,2.863v0.004l0.001,0.003
			c0.113,1.102,0.422,1.964,0.446,2.027l0.04,0.114l0.062,0.163h0.292h0.67h0.261l0.062-0.129c0.057,0.152,0.135,0.277,0.213,0.378
			l-1.155,2.171c-0.529-0.072-1.077-0.109-1.633-0.109c-2.581,0-4.539,0.781-4.622,0.812l-0.906,0.369l0.891,0.406l0.458,0.209
			c-2.013,1.287-3.354,3.535-3.354,6.096c0,3.988,3.244,7.234,7.232,7.234c3.693,0,6.743-2.787,7.174-6.365
			c0.161,1.289,2.613,2.543,3.787,2.719c2.523,0.373,6.771,0.34,13.92-1.014l0.138,0.123l0.363,0.1c0,0,0.101-0.016,0.262-0.023
			c0.199,0.039,0.416,0.062,0.662,0.062c0.053,0.008,0.106,0.016,0.163,0.029c0.144,0.035,0.278,0.051,0.403,0.051
			c0.287,0,0.492-0.088,0.636-0.205c0.886,0.346,2.89,0.482,2.89,0.482l0.061-0.012c0.008-0.002,0.363-0.084,0.922-0.219
			c1.388,1.625,3.45,2.66,5.748,2.66c4.174,0,7.57-3.395,7.57-7.57C60.047,29.889,56.651,26.494,52.477,26.494z M57.223,33.697
			l-0.977-0.438l0.304-0.193l0.601,0.174C57.184,33.391,57.207,33.543,57.223,33.697z M56.165,33.221l-0.592-0.268l0.166-0.119
			l0.715,0.207L56.165,33.221z M57.132,33.158l-0.498-0.143l0.398-0.25C57.072,32.893,57.104,33.025,57.132,33.158z M57.007,32.695
			l-0.467,0.289l-0.723-0.207l0.94-0.682C56.854,32.289,56.938,32.488,57.007,32.695z M56.725,32.025l-1,0.727l-0.521-0.15
			l-0.02,0.07l0.465,0.135l-0.153,0.111l-0.004-0.002l-0.004,0.008l-0.189,0.139l0.044,0.059l0.162-0.117l0.582,0.264l-0.657,0.414
			c-0.084-0.568-0.314-1.086-0.663-1.512l0.346-0.725l1.241-0.023C56.493,31.615,56.617,31.816,56.725,32.025z M55.345,35.227
			l0.1-0.01l0.119,0.16l-0.36-0.012c0.044-0.102,0.085-0.209,0.119-0.316l0.072,0.096l-0.061,0.006L55.345,35.227z M55.531,35.207
			l0.644-0.068l0.229,0.271l-0.745-0.027L55.531,35.207z M55.066,31.371l-0.679,0.014l0.097-0.18l0.717-0.117L55.066,31.371z
			 M56.299,31.348l-1.151,0.023l0.143-0.299l0.684-0.111C56.086,31.086,56.197,31.213,56.299,31.348z M55.911,30.893L55.33,30.99
			l0.212-0.443C55.672,30.654,55.795,30.771,55.911,30.893z M55.48,30.5l-0.24,0.504l-0.709,0.117l0.511-0.934
			C55.193,30.285,55.342,30.389,55.48,30.5z M54.977,30.148l-0.542,0.986l-0.536,0.088l0.012,0.074l0.479-0.078l-0.093,0.168h-0.003
			v0.008L54.18,31.6l0.066,0.035l0.097-0.174l0.686-0.016l-0.316,0.666c-0.219-0.256-0.479-0.473-0.77-0.646l0.027-0.016
			l-0.438-0.844l0.497-0.9C54.365,29.818,54.681,29.967,54.977,30.148z M54.097,36.91c0.117-0.051,0.224-0.092,0.314-0.137
			c0.005-0.002,0.008-0.002,0.01-0.004l0.141-0.037l0.072,0.412L54.097,36.91z M54.648,37.23l0.062,0.34l-0.633-0.395l-0.021-0.203
			L54.648,37.23z M53.489,30.686l0.383,0.736c-0.201-0.111-0.418-0.199-0.643-0.264L53.489,30.686z M53.154,31.139
			c-0.016-0.004-0.031-0.008-0.051-0.014L53.028,31l0.261-0.695l0.159,0.301L53.154,31.139z M53.995,37.127l-0.179-0.111
			c-0.013,0.008-0.024,0.008-0.037,0.016c0.068-0.025,0.138-0.051,0.198-0.072L53.995,37.127z M53.958,29.68l-0.467,0.85
			l-0.166-0.32l0.238-0.633C53.695,29.605,53.829,29.639,53.958,29.68z M53.49,29.559l-0.213,0.561l-0.331-0.641
			C53.128,29.494,53.313,29.518,53.49,29.559z M52.533,29.459c0.109,0,0.216,0.008,0.325,0.02l0.382,0.734l-0.263,0.703
			l-0.723-1.189l-0.066,0.039l0.264,0.432l0.006-0.002l-0.319,0.15l-3.856,1.803C49.039,30.561,50.658,29.459,52.533,29.459z
			 M41.878,34.979c-0.26,0.172-0.549,0.178-0.737,0.152l0.532-0.477c0.176-0.055,0.354-0.158,0.501-0.354l-0.06-0.045l0.861-0.775
			l1.465,1.131l-0.351,0.164l-0.044,0.494l-1.803-0.658l-0.397,0.357L41.878,34.979z M40.979,35.178l-1.804,1.625l1.815-4.779
			L41,31.994c0.476,0.004,0.878-0.197,1.008-0.504c0.101-0.242,1.591-0.838,2.578-1.186c0.046,0.01,0.189,0.033,0.381,0.037
			c0.434,0.006,1.008-0.096,1.289-0.639c0.085-0.162,0.095-0.295,0.035-0.398c-0.038-0.064-0.106-0.115-0.204-0.148l0.116-0.012
			l1.369-1.617l0.635-0.072l0.106,0.424l-1.688,1.971v0.244l-3.712,3.342l-1.281,1.152c-0.342,0.102-0.674,0-0.677,0l-0.025,0.07
			c0.004,0,0.166,0.055,0.383,0.055c0.063,0,0.131-0.006,0.2-0.016l-0.467,0.422c-0.053-0.012-0.091-0.025-0.091-0.025l-0.025,0.072
			C40.931,35.166,40.951,35.17,40.979,35.178z M42.086,34.279c-0.065,0.088-0.141,0.15-0.219,0.199L42.086,34.279z M43.292,33.223
			l-0.085,0.049l3.24-2.916l-1.158,1.461l1.546,1.477l5.485-2.566c0,0,0.044,0.061,0.112,0.164l-7.613,3.543L43.292,33.223z
			 M27.46,22.428c0.474,0,0.86,0.266,0.86,0.596c0,0.326-0.387,0.595-0.86,0.595c-0.476,0-0.86-0.269-0.86-0.595
			C26.6,22.694,26.985,22.428,27.46,22.428z M11.187,29.322c0,0,1.935-0.785,4.462-0.785c0.595,0,1.223,0.043,1.866,0.15
			l1.441-2.705c0,0-0.386-0.284-0.386-0.741h-0.599l-0.031,0.064c-0.406-0.984-0.304-3.58-0.145-4.494c0,0,1.547-0.021,2.042,0.526
			c0.67,0.737,0.595,1.689,0.595,1.689s0.28-1.326-0.381-1.822c-0.675-0.509-0.818-0.537-1.487-0.776
			c-0.413-1.844,1.331-2.741,2.001-2.516c0.859,0.292,1.413,2.022,1.413,2.022l0.118,0.021l-0.177-0.653l1.431-0.531l0.633,0.6
			l0.491,0.138c0,0,1.477,0.144,1.653,1.057c0.013,0.069,0.031,0.219,0.043,0.307c0,0-0.695,0.646-1.062,2.215
			c-0.676,0.365-1.728,2.129-1.688,2.563c0.039,0.44,2.987,2.85,2.987,2.85s3.663-0.031,4.922-0.506c0,0-0.961-0.709-1.521-1.95
			c-0.469-1.038-0.24-1.692,0.105-2.096c0.898-1.044,2.125-1.152,3.089-1.179c3.175-0.078,4.486,1.418,4.563,1.493
			c0.317,0.315,0.626,0.654,0.922,0.996h1.199l0.006,0.027c0.003,0.001,0.18,0.399,2.311,1.228c1.473-0.104,3.838-0.34,3.941-0.529
			c0.153-0.283,1.812-1.478,1.882-1.529l0.017-0.006l6.421-1.255c0.018-0.022,0.324-0.244,0.334-0.149l3.694,0.332
			c0,0,0.424,0.351,0.213,1.23c-0.213,0.878-0.492,1.089,0.914,3.078h-0.282c0,0-1.158-0.695-1.686-2.762
			c-0.055-0.219-0.177-0.282-0.177-0.282l-2.004,0.035l0.072,0.741c0,0-0.044,0.385-0.351,0.385c-0.085,0-0.188-0.028-0.319-0.105
			c-0.599-0.352-0.737-0.843-0.737-0.843l-1.828-0.036l-2.884,0.844l-3.481,3.27l0.023,0.162c-0.031,0-0.06-0.006-0.094-0.006
			c-0.405-0.006-0.854,0.088-0.87,0.09l-2.911,0.404c-1.062-0.451-2.258-1.201-2.264-1.223c-0.013-0.049-0.059-0.072-0.295-0.078
			c-0.131-0.002-0.297,0.004-0.457,0.01c0.623-0.205,0.968-0.809,0.921-0.865c-0.016-0.018-1.991-2.658-3.071-3.424
			c-1.08-0.761-2.535-1.027-4.138-0.844c-1.604,0.183-2.303,0.935-2.389,1.033c-1.259,1.465,1.472,3.623,1.475,3.623
			c0.007-0.004,6.548,0.693,6.548,0.693s0.025-0.008,0.06-0.018c0.007-0.006,0.013-0.006,0.02-0.01l1.857,2.252
			c0,0.008,0,0.021,0,0.021c-0.029,0.014-0.062,0.021-0.096,0.039c-0.067,0.035-1.491,0.551-2.968,0.957
			c-0.106-0.416-0.479-0.729-0.927-0.729c-0.45,0-0.826,0.318-0.93,0.744l-0.794,0.188c0,0-0.099-0.01-0.107-0.023l-0.018-0.018
			l-3.741,1.355c-0.361-0.66-0.841-1.168-1.813-1.168c-0.943,0-2.501,0.457-3.399,0.98c-0.135-0.236-0.508-0.799-0.978-0.801
			c-0.172,0-0.356,0.076-0.545,0.275c-0.19,0.195-0.343,0.273-0.462,0.273c-0.41,0-0.454-0.908-0.454-0.908l0.188-1.404
			l-0.784-0.213l-0.564-1.582c0,0-0.117,0.117-0.238,0.117c-0.103,0-0.206-0.076-0.253-0.361l0.28-1.057c0,0,0-0.279-0.949-0.492
			l-0.397,0.461l0.272-0.691l2.215-4.464l0.254-0.565c0.036-0.012,0.061-0.03,0.073-0.056c0.061-0.124-0.183-0.368-0.541-0.54
			c-0.359-0.174-0.7-0.214-0.759-0.092c-0.006,0.009-0.007,0.017-0.011,0.026l-0.001-0.003l-2.32,5.026l-0.686,1.389l-0.77,1.893
			c0,0-1.127-0.16-2.004-0.197c-0.621-0.023-0.36,0.445-0.149,0.727c-0.134-0.008-0.271-0.01-0.414-0.01
			c-0.72,0-1.568,0.064-2.567,0.229L11.187,29.322z M18.609,36.133c-0.006-0.088-0.018-0.174-0.032-0.26l0.414,0.119l-0.289,0.18
			L18.609,36.133z M18.624,36.221l-0.011,0.008c0,0-0.001-0.008-0.001-0.014L18.624,36.221z M18.565,35.793
			c-0.001-0.004-0.001-0.008-0.002-0.01l1.146-0.83c0.047,0.17,0.083,0.344,0.109,0.523l-0.742,0.463L18.565,35.793z M18.548,35.701
			c-0.122-0.559-0.391-1.061-0.764-1.471l0.053-0.111l1.449-0.201c0.17,0.299,0.308,0.619,0.404,0.957L18.548,35.701z
			 M18.096,38.133l0.245,0.363l-0.464-0.066C17.955,38.336,18.03,38.236,18.096,38.133z M17.631,34.072
			c-0.067-0.061-0.135-0.123-0.205-0.18l0.509-0.148l-0.147,0.307L17.631,34.072z M17.749,34.131l-0.021,0.041
			c-0.009-0.012-0.019-0.023-0.028-0.033L17.749,34.131z M17.728,32.551l0.047-0.121h0.136c0.166,0.115,0.327,0.236,0.478,0.373
			l-0.408,0.85l-0.629,0.184c-0.022-0.018-0.043-0.033-0.063-0.049l0.487-1.217L17.728,32.551z M17.876,34.037l0.155-0.324
			l0.705-0.203l-0.021-0.074l-0.639,0.188l0.37-0.77c0.31,0.291,0.578,0.625,0.796,0.992L17.876,34.037z M17.001,32.078
			l-0.588,1.264c-0.095-0.029-0.191-0.051-0.289-0.072l0.352-0.662l0.406-0.68C16.913,31.979,16.951,32.025,17.001,32.078z
			 M14.134,33.09l-0.117-0.818l0.191,0.076l0.266,0.906L14.134,33.09z M14.45,33.322c-0.091,0.027-0.181,0.062-0.269,0.098
			l-0.035-0.242L14.45,33.322z M13.047,34.209l-0.212,0.037l-0.896-0.953c0.259-0.314,0.556-0.59,0.887-0.824l-0.031,0.068
			l1.271,0.604l0.045,0.311C13.703,33.629,13.344,33.891,13.047,34.209z M13.311,38.809l-0.255,0.193l0.035-0.398
			C13.161,38.678,13.235,38.742,13.311,38.809z M12.964,34.301c-0.011,0.014-0.026,0.027-0.037,0.043l-0.03-0.033L12.964,34.301z
			 M12.808,34.324l0.071,0.078c-0.056,0.07-0.107,0.141-0.157,0.215l-0.285-0.227L12.808,34.324z M12.357,34.324l-0.733-0.582
			c0.086-0.135,0.176-0.266,0.272-0.389l0.851,0.906L12.357,34.324z M13.935,32.238l0.117,0.812l-1.226-0.582
			c0.327-0.23,0.682-0.416,1.063-0.553l0.034,0.236l-0.146-0.057l-0.029,0.07L13.935,32.238z M13.96,31.891
			c0.033-0.012,0.067-0.027,0.102-0.039l0.12,0.404l-0.177-0.07L13.96,31.891z M14.296,32.383l0.721,0.287l-0.197,0.572
			c-0.085,0.018-0.171,0.029-0.255,0.053L14.296,32.383z M14.27,32.291l-0.136-0.459c0.402-0.119,0.828-0.186,1.268-0.186
			c0.036,0,0.071,0.004,0.106,0.004c-0.112,0.096-0.194,0.146-0.194,0.146l-0.272,0.801L14.27,32.291z M11.584,33.807l0.674,0.537
			l-1.023,0.172C11.331,34.266,11.447,34.029,11.584,33.807z M11.206,34.596l1.131-0.189l0.328,0.262l-1.598,0.377
			C11.107,34.895,11.153,34.744,11.206,34.596z M11.047,35.129l1.597-0.379c-0.271,0.453-0.433,0.977-0.451,1.541l-0.061,0.037
			l-1.179-0.607C10.972,35.518,11.003,35.32,11.047,35.129z M12.206,36.715l-0.378-0.109l0.308-0.191l0.056,0.033
			C12.195,36.535,12.198,36.629,12.206,36.715z M10.934,36.115c0-0.107,0.008-0.209,0.016-0.314l1.108,0.576l-0.325,0.201
			l-0.787-0.225C10.942,36.273,10.934,36.195,10.934,36.115z M10.949,36.432l0.698,0.199l-0.621,0.393
			C10.988,36.828,10.965,36.631,10.949,36.432z M11.046,37.096l0.697-0.436l0.478,0.139c0.006,0.045,0.01,0.09,0.02,0.137
			l-1.021,0.74C11.151,37.486,11.091,37.295,11.046,37.096z M11.247,37.748l1.006-0.73c0.113,0.561,0.375,1.062,0.738,1.477
			l-0.973,0.531C11.694,38.646,11.434,38.217,11.247,37.748z M12.909,39.822c-0.143-0.098-0.276-0.205-0.405-0.314l0.463-0.348
			L12.909,39.822z M12.447,39.459c-0.133-0.119-0.257-0.244-0.375-0.377l0.947-0.518l-0.044,0.498L12.447,39.459z M12.982,39.863
			l0.065-0.762l0.321-0.242c0.068,0.055,0.14,0.107,0.211,0.158l-0.022,1.109l0.075,0.002l0.021-1.064
			c0.467,0.303,1.016,0.486,1.604,0.51l-0.301,0.986C14.234,40.488,13.561,40.24,12.982,39.863z M15.033,40.562l0.301-0.984
			c0.02,0,0.036,0.002,0.054,0.002c0.006,0,0.013-0.002,0.02-0.002c0.004,0,0.009,0.002,0.015,0.002
			c0.018,0,0.034-0.002,0.052-0.002l0.034,0.039l-0.147,0.965C15.25,40.578,15.141,40.57,15.033,40.562z M15.436,40.582l0.136-0.887
			l0.66,0.805C15.974,40.549,15.708,40.578,15.436,40.582z M16.316,40.486l-0.729-0.889l0.004-0.025
			c0.175-0.01,0.348-0.029,0.516-0.066l0.772,0.82C16.695,40.391,16.508,40.445,16.316,40.486z M16.953,40.297l-0.765-0.814
			c0.614-0.148,1.156-0.477,1.573-0.926l0.48,1.002C17.86,39.877,17.426,40.121,16.953,40.297z M18.3,39.506l-0.483-1.008
			l0.579,0.082l0.337,0.502C18.598,39.232,18.454,39.377,18.3,39.506z M18.784,39.025l-0.287-0.434l0.561,0.084
			C18.971,38.795,18.881,38.914,18.784,39.025z M19.109,38.605l-0.67-0.096l-0.299-0.447c0.027-0.041,0.055-0.086,0.079-0.131
			l1.216,0.09C19.338,38.225,19.233,38.42,19.109,38.605z M19.469,37.949l-1.212-0.088c0.231-0.443,0.365-0.945,0.365-1.479
			c0-0.023-0.004-0.045-0.004-0.068l0.088-0.057l1.11,0.502C19.756,37.178,19.639,37.578,19.469,37.949z M19.828,36.684
			l-1.046-0.473l0.304-0.191l0.706,0.203l0.021-0.07l-0.642-0.186l0.658-0.41c0.023,0.182,0.038,0.367,0.038,0.559
			C19.869,36.307,19.852,36.496,19.828,36.684z M18.83,30.592l1.125-2.555l0.195-0.498v2.768l1.232,1.158l-0.212,0.281L18.83,30.592
			z M22.44,34.588c-0.182-0.898-0.532-1.734-1.013-2.48l-0.127,0.17L21.509,32l0.21-0.281l0.228-0.301l-0.273-0.26l-1.099-1.035
			v-2.51l0.183-0.211c0.166,0.051,0.271,0.096,0.335,0.129l-0.223,0.836l-0.024,0.09l0.017,0.09
			c0.107,0.646,0.502,0.715,0.668,0.715c0.275,0,0.346,0.801,0.384,1.096l0.033,0.264l0.253,0.084l0.409,0.137l-0.099,1.041
			l-0.003,0.031l0.001,0.027c0.03,0.635,0.275,1.312,0.875,1.312c0.254,0,0.505-0.135,0.765-0.408
			c0.063-0.064,0.157-0.143,0.242-0.143c0.112,0,0.254,0.111,0.382,0.26c-0.301,0.111-0.727,0.285-1.283,0.547
			C22.969,33.752,22.645,34.162,22.44,34.588z M37.936,37.361c-0.241,0.127-0.176,0.525,0.071,0.705
			c-2.815,1.086-10.074,1.141-11.519,0.824c-1.442-0.311-3.335-1.736-3.201-2.635c0.133-0.887,0.042-1.188,1.179-1.33l-0.004,0.023
			c0,0,0.785,1.775,2.062,1.967c3.598,0.557,4.258-1.439,4.425-2.395l3.842-1.273l0.003-0.025c0.017-0.078,0.07-0.074,0.07-0.074
			l0.927-0.271c0.115,0.053,0.242,0.082,0.378,0.082c0.47,0,0.858-0.34,0.941-0.789c1.025-0.248,2.145-0.57,3.079-0.971
			c0.032,0.219,0.106,0.455,0.25,0.613c-0.122,0.371-1.565,4.76-2.108,5.283c-0.215-0.172-1.795-1.441-2.766-2.359l-0.013-0.012
			l-0.429,0.07L37.936,37.361z M42.5,37.172l-1.103-0.037c0,0-0.889-0.494-1.28,0c-0.267,0.338-0.238,0.588-0.188,0.715
			c-0.015,0.025-0.038,0.059-0.069,0.096l-0.974-0.01c0.014-0.02,0.031-0.035,0.041-0.055c0.084-0.166,0.013-0.348-0.01-0.4
			l0.197-0.525l1.953-1.76c0.066,0.012,0.149,0.023,0.245,0.023c0.198,0,0.442-0.043,0.657-0.205l2.031,0.752l-0.009,0.068
			C43.993,35.834,42.857,35.977,42.5,37.172z M45.381,37.172l-0.354,0.561l-1.71,0.072l0.854-0.809l0.82,0.104l8.71-3.27
			c0.026,0.055,0.062,0.125,0.106,0.213L45.381,37.172z M51.832,37.645c0.125-0.037,0.244-0.07,0.363-0.105l-0.357,0.643
			l-0.128-0.377L51.832,37.645z M51.68,37.719l-0.011-0.027c0.016-0.006,0.028-0.008,0.042-0.014L51.68,37.719z M50.026,38.143
			c-0.021,0.008-0.044,0.01-0.068,0.016c0.106-0.027,0.216-0.055,0.322-0.084c0.48-0.129,0.912-0.246,1.319-0.363l0.026,0.078
			l-0.635,0.83C50.646,38.5,50.329,38.332,50.026,38.143z M51.067,38.646l0.589-0.771l0.133,0.395l-0.278,0.5
			C51.36,38.738,51.209,38.695,51.067,38.646z M51.585,38.789l0.237-0.426l0.166,0.488C51.854,38.836,51.718,38.814,51.585,38.789z
			 M52.533,38.887c-0.153,0-0.309-0.012-0.46-0.023l-0.202-0.59l0.364-0.656l0.529,1.256C52.689,38.877,52.612,38.887,52.533,38.887
			z M52.846,38.867l-0.563-1.334l0.017-0.025c0.397-0.119,0.76-0.23,1.063-0.332c0.135-0.045,0.254-0.086,0.367-0.129l0.275,0.174
			l0.148,1.369C53.74,38.742,53.302,38.838,52.846,38.867z M54.227,38.564l-0.141-1.291l0.639,0.395l0.106,0.613
			C54.637,38.393,54.435,38.484,54.227,38.564z M54.901,38.238l-0.091-0.516l0.457,0.283C55.148,38.088,55.026,38.168,54.901,38.238
			z M55.33,37.959l-0.537-0.336l-0.062-0.355l0.939,0.412C55.561,37.779,55.447,37.873,55.33,37.959z M55.73,37.625l-1.015-0.443
			l-0.081-0.471l0.019-0.064c0.197-0.119,0.389-0.293,0.373-0.564c-0.004-0.088-0.022-0.193-0.054-0.309
			c0.069-0.107,0.14-0.217,0.194-0.334l0.454,0.018l0.852,1.172l0.06-0.043l-0.817-1.127l0.751,0.029l0.417,0.498
			C56.618,36.613,56.221,37.172,55.73,37.625z M56.91,35.906l-0.345-0.414l0.485,0.018C57.01,35.645,56.963,35.777,56.91,35.906z
			 M57.07,35.434l-0.569-0.02l-0.236-0.287l0.899-0.096C57.139,35.17,57.108,35.301,57.07,35.434z M57.176,34.955l-0.971,0.104
			l-0.6-0.719l-0.058,0.045l0.57,0.684l-0.639,0.07l-0.11-0.156l-0.037,0.027c0.084-0.279,0.132-0.576,0.132-0.887
			c0-0.121-0.01-0.242-0.022-0.359l0.729-0.459l1.055,0.479c0.013,0.127,0.022,0.258,0.022,0.391
			C57.248,34.439,57.218,34.699,57.176,34.955z"/>
	</g>
</g>
</svg>
