<?xml version="1.0" encoding="utf-8"?>
<!-- Generator: Adobe Illustrator 16.0.4, SVG Export Plug-In . SVG Version: 6.00 Build 0)  -->
<!DOCTYPE svg PUBLIC "-//W3C//DTD SVG 1.1//EN" "http://www.w3.org/Graphics/SVG/1.1/DTD/svg11.dtd">
<svg version="1.1" id="Layer_1" xmlns="http://www.w3.org/2000/svg" xmlns:xlink="http://www.w3.org/1999/xlink" x="0px" y="0px"
	 width="68.354px" height="51.926px" viewBox="0 0 68.354 51.926" enable-background="new 0 0 68.354 51.926" xml:space="preserve">
<g>
	<g>
		<g>
			<g>
				<rect x="0.376" y="-0.037" fill="none" width="67.978" height="51.963"/>
			</g>
		</g>
	</g>
</g>
<g>
	<path fill="#A7A7A7" enable-background="new    " d="M27.137,29.503c-2.312,0-6.279-0.883-7.356-6.671
		c-1.386-0.531-2.309-2.767-2.421-3.052c-0.289-0.725-0.159-1.782,0.307-2.513c0.172-0.272,0.387-0.492,0.629-0.646
		c-0.5-2.4-0.014-5.471,1.231-7.433c1.748-2.754,5.064-3.824,7.588-3.906c2.571,0.082,5.887,1.151,7.634,3.906
		c1.245,1.962,1.734,5.033,1.231,7.433c0.242,0.154,0.456,0.374,0.63,0.646c0.465,0.731,0.594,1.788,0.308,2.513
		c-0.112,0.286-1.037,2.521-2.422,3.052C33.419,28.62,29.452,29.503,27.137,29.503z M27.114,6.746
		c-2.102,0.069-4.911,0.954-6.352,3.226c-1.138,1.795-1.531,4.823-0.895,6.893c0.066,0.214,0.03,0.447-0.098,0.631
		c-0.128,0.185-0.333,0.301-0.557,0.314c-0.109,0.008-0.214,0.088-0.311,0.24c-0.229,0.361-0.286,0.925-0.182,1.188
		c0.43,1.089,1.278,2.239,1.649,2.239c0.362,0,0.721,0.266,0.774,0.622c0.732,4.905,3.664,5.935,5.994,5.935
		c2.331,0,5.266-1.028,5.996-5.935c0.056-0.376,0.403-0.655,0.771-0.622c0.375,0,1.223-1.15,1.653-2.239
		c0.104-0.264,0.048-0.827-0.184-1.188c-0.097-0.152-0.203-0.234-0.311-0.24c-0.225-0.014-0.43-0.129-0.557-0.314
		c-0.129-0.184-0.164-0.417-0.1-0.631c0.637-2.07,0.246-5.098-0.894-6.893C32.073,7.7,29.263,6.815,27.114,6.746z"/>
	<path fill="#A7A7A7" enable-background="new    " d="M40.874,41.547h16.856V31.466H40.874V41.547z M53.458,34.447h3.611v2.991
		h-3.611V34.447z M53.458,37.871h3.611v2.99h-3.611V37.871z M49.483,34.447h3.611v2.991h-3.611V34.447z M49.483,37.871h3.611v2.99
		h-3.611V37.871z M45.508,34.447h3.611v2.991h-3.611V34.447z M45.508,37.871h3.611v2.99h-3.611V37.871z M41.532,34.447h3.611v2.991
		h-3.611V34.447z M41.532,37.871h3.611v2.99h-3.611V37.871z"/>
	<path fill="#A7A7A7" enable-background="new    " d="M48.491,34.824c-0.022-0.054-0.045-0.079-0.068-0.079
		c-0.012,0-0.024,0.005-0.036,0.013c-0.133,0.083-0.342,0.288-0.623,0.613c-0.081,0.093-0.184,0.23-0.302,0.408
		c-0.12,0.182-0.193,0.306-0.224,0.379c-0.03,0.076-0.058,0.115-0.079,0.115c-0.018,0-0.037-0.027-0.061-0.079
		c-0.039-0.083-0.113-0.176-0.223-0.275c-0.106-0.102-0.209-0.174-0.306-0.221c-0.029-0.015-0.049-0.02-0.059-0.02
		c-0.014,0-0.031,0.007-0.051,0.025c-0.038,0.031-0.076,0.069-0.114,0.114c-0.065,0.079-0.113,0.136-0.142,0.17
		c-0.012,0.012-0.019,0.027-0.019,0.042c0,0.031,0.018,0.054,0.05,0.068c0.111,0.038,0.179,0.064,0.204,0.079
		c0.046,0.024,0.117,0.078,0.211,0.161c0.199,0.174,0.338,0.365,0.412,0.574c0.011,0.026,0.02,0.071,0.027,0.132
		c0.005,0.034,0.016,0.052,0.031,0.052c0.037,0,0.094-0.018,0.167-0.049c0.021-0.012,0.037-0.055,0.048-0.131
		c0.02-0.148,0.028-0.229,0.029-0.235c0.037-0.18,0.119-0.394,0.247-0.645c0.118-0.23,0.235-0.418,0.352-0.562
		c0.064-0.079,0.143-0.155,0.243-0.237s0.179-0.129,0.23-0.143c0.003-0.002,0.031-0.006,0.086-0.016
		c0.018-0.005,0.025-0.013,0.025-0.027c0-0.007-0.001-0.023-0.008-0.044C48.521,34.915,48.502,34.855,48.491,34.824z"/>
	<path fill="#A7A7A7" enable-background="new    " d="M56.235,38.229c-0.021-0.055-0.043-0.083-0.066-0.083
		c-0.012,0-0.024,0.005-0.038,0.016c-0.131,0.082-0.34,0.288-0.623,0.614c-0.079,0.092-0.182,0.229-0.3,0.407
		c-0.121,0.183-0.195,0.307-0.225,0.376c-0.03,0.079-0.058,0.118-0.078,0.118c-0.018,0-0.038-0.026-0.062-0.077
		c-0.038-0.085-0.112-0.178-0.222-0.277c-0.106-0.1-0.209-0.174-0.306-0.221c-0.029-0.015-0.049-0.021-0.059-0.021
		c-0.016,0-0.031,0.009-0.051,0.025c-0.038,0.032-0.077,0.07-0.115,0.117c-0.065,0.077-0.113,0.132-0.141,0.168
		c-0.012,0.013-0.02,0.025-0.02,0.043c0,0.028,0.019,0.054,0.049,0.065c0.111,0.039,0.181,0.066,0.204,0.079
		c0.048,0.026,0.119,0.078,0.212,0.163c0.2,0.175,0.338,0.365,0.412,0.575c0.011,0.025,0.021,0.07,0.03,0.13
		c0.003,0.037,0.014,0.053,0.028,0.053c0.038,0,0.093-0.016,0.167-0.049c0.021-0.01,0.038-0.052,0.048-0.129
		c0.02-0.148,0.028-0.228,0.03-0.237c0.036-0.181,0.119-0.394,0.247-0.644c0.117-0.229,0.235-0.418,0.351-0.563
		c0.064-0.077,0.144-0.154,0.244-0.235c0.101-0.083,0.177-0.131,0.229-0.144c0.004-0.002,0.033-0.008,0.088-0.016
		c0.017-0.006,0.024-0.013,0.024-0.025c0-0.01-0.002-0.025-0.008-0.047C56.265,38.318,56.246,38.259,56.235,38.229z"/>
	<path fill="#A7A7A7" enable-background="new    " d="M44.203,28.627c0.221,0,0.397-0.179,0.397-0.397v-3.785
		c0-0.221-0.179-0.398-0.397-0.398c-0.218,0-0.397,0.178-0.397,0.398v3.785C43.806,28.448,43.984,28.627,44.203,28.627z"/>
	<path fill="#A7A7A7" enable-background="new    " d="M54.483,28.627c0.22,0,0.398-0.179,0.398-0.397v-3.785
		c0-0.221-0.18-0.398-0.398-0.398s-0.396,0.178-0.396,0.398v3.785C54.086,28.448,54.264,28.627,54.483,28.627z"/>
	<path fill="#A7A7A7" enable-background="new    " d="M59.302,25.603h-2.401v-1.436c0-1.332-1.085-2.418-2.418-2.418
		c-1.332,0-2.416,1.086-2.416,2.418v1.436h-5.445v-1.436c0-1.332-1.084-2.418-2.418-2.418s-2.417,1.086-2.417,2.418v1.436h-2.402
		c-1.552,0-2.816,1.263-2.816,2.815v15.003c0,1.555,1.265,2.815,2.816,2.815h19.918c1.551,0,2.816-1.261,2.816-2.815V28.418
		C62.118,26.865,60.854,25.603,59.302,25.603z M60.649,43.421c0,0.744-0.604,1.349-1.347,1.349H39.384
		c-0.743,0-1.347-0.604-1.347-1.349V28.418c0-0.744,0.604-1.349,1.347-1.349h2.402h1.468v-2.902c0-0.523,0.426-0.948,0.949-0.948
		c0.524,0,0.949,0.425,0.949,0.948v2.902h1.469h5.445h1.468v-2.902c0-0.523,0.426-0.948,0.948-0.948
		c0.523,0,0.948,0.425,0.948,0.948v2.902h1.47h2.401c0.743,0,1.347,0.604,1.347,1.349V43.421z"/>
	<g>
		<path fill="#A7A7A7" d="M31.903,30.783c0.752,0.097,1.676,0.258,2.753,0.52v-1.507c-0.992-0.226-1.853-0.373-2.565-0.467
			c-0.402-0.043-0.768,0.232-0.821,0.633C31.217,30.362,31.501,30.73,31.903,30.783z"/>
		<path fill="#A7A7A7" d="M34.655,41.349H8.368c0.02-2.625,0.287-5.683,3.912-7.393c4.502-2.126,7.974-2.899,10.092-3.173
			c0.4-0.053,0.685-0.421,0.633-0.821s-0.424-0.676-0.819-0.633c-2.226,0.289-5.856,1.094-10.531,3.301
			c-4.754,2.245-4.753,6.512-4.752,9.335v0.846h27.752V41.349z"/>
	</g>
</g>
</svg>
