<?xml version="1.0" encoding="utf-8"?>
<!-- Generator: Adobe Illustrator 16.0.0, SVG Export Plug-In . SVG Version: 6.00 Build 0)  -->
<!DOCTYPE svg PUBLIC "-//W3C//DTD SVG 1.1//EN" "http://www.w3.org/Graphics/SVG/1.1/DTD/svg11.dtd">
<svg version="1.1" id="Layer_1" xmlns="http://www.w3.org/2000/svg" xmlns:xlink="http://www.w3.org/1999/xlink" x="0px" y="0px"
	 width="68.354px" height="51.926px" viewBox="0 0 68.354 51.926" enable-background="new 0 0 68.354 51.926" xml:space="preserve">
<g>
	<g opacity="0.6">
		<path fill="#de4415" d="M27.224,12.424l-0.321,0.671c-0.337,0.708-1.026,1.147-1.798,1.147c-0.772,0-1.461-0.439-1.798-1.146
			l-0.32-0.672H10.512L10.513,44.5h12.522l0.257-0.83c0.262-0.846,1.024-1.414,1.897-1.414c0.874,0,1.636,0.568,1.896,1.412
			l0.257,0.832h30.5V12.424H27.224z M12.871,42.14V14.783h8.704c0.813,1.126,2.146,1.818,3.529,1.818
			c1.414,0,2.719-0.676,3.533-1.818h26.846V42.14H28.989c-0.764-1.391-2.197-2.244-3.799-2.244s-3.035,0.854-3.799,2.244H12.871z"/>
		<circle fill="#de4415" cx="25.339" cy="36.273" r="1.363"/>
		<circle fill="#de4415" cx="25.339" cy="30.838" r="1.364"/>
		<circle fill="#de4415" cx="25.339" cy="25.405" r="1.362"/>
		<circle fill="#de4415" cx="25.339" cy="19.973" r="1.362"/>
		<polygon fill="#de4415" points="37.511,28.423 37.511,30.072 40.111,30.072 40.111,31.763 37.511,31.763 37.511,33.402 
			40.111,33.402 40.111,36.849 43.24,36.849 43.24,33.402 45.841,33.402 45.841,31.763 43.24,31.763 43.24,30.072 45.841,30.072 
			45.841,28.423 43.957,28.423 47.447,20.527 44.519,20.527 41.749,27.103 38.98,20.527 35.882,20.527 39.371,28.423 		"/>
	</g>
	<g>
		<rect x="0" y="-0.001" fill="none" width="68.354" height="51.928"/>
	</g>
</g>
</svg>
