<?xml version="1.0" encoding="utf-8"?>
<!-- Generator: Adobe Illustrator 16.0.4, SVG Export Plug-In . SVG Version: 6.00 Build 0)  -->
<!DOCTYPE svg PUBLIC "-//W3C//DTD SVG 1.1//EN" "http://www.w3.org/Graphics/SVG/1.1/DTD/svg11.dtd">
<svg version="1.1" id="Layer_1" xmlns="http://www.w3.org/2000/svg" xmlns:xlink="http://www.w3.org/1999/xlink" x="0px" y="0px"
	 width="68.354px" height="51.926px" viewBox="0 0 68.354 51.926" enable-background="new 0 0 68.354 51.926" xml:space="preserve">
<g>
	<g>
		<g>
			<g>
				<rect x="0.376" y="-0.037" fill="none" width="67.978" height="51.963"/>
			</g>
		</g>
	</g>
</g>
<g>
	<g>
		<ellipse fill="#A7A7A7" cx="21.495" cy="28.923" rx="1.022" ry="0.52"/>
		<path fill="#A7A7A7" d="M8.301,32.237c1.603-0.059,4.147-0.108,5.027-0.108c-0.023,1.61,2.779,2.12,3.631,2.12
			c0.847,0,1.609,0,2.565,0s1.59-0.479,1.59-1.654c0-1.176-0.243-2.181-0.243-2.181c-0.222-0.5-0.75-0.564-1.963-0.564
			c-1.21,0-3.134,0-3.774,0c-1.564,0-1.745,0.511-1.852,1.043c-0.116-0.22-0.318-0.252-0.593-0.325
			c-0.275-0.075-3.509-0.938-4.253-1.158c-0.749-0.225-2.172-0.688-2.39,0.062c-0.216,0.749-0.558,2.076,0.561,2.076
			C6.563,32.214,7.036,32.284,8.301,32.237z M13.822,30.761c0.215-0.347,0.564-0.575,1.206-0.567
			c0.864,0.014,3.831,0.09,4.355,0.135c0.525,0.046,0.963,0.218,1.026,0.994c0.062,0.776,0.233,1.768-0.328,2.138
			c-0.561,0.364-2.633,0.282-3.452,0.191c-0.82-0.087-2.677-0.474-2.806-1.207C13.692,31.709,13.605,31.104,13.822,30.761z"/>
		<path fill="#A7A7A7" d="M34.552,29.41c-0.745,0.221-3.975,1.085-4.25,1.158c-0.276,0.072-0.479,0.105-0.595,0.326
			c-0.108-0.533-0.286-1.044-1.852-1.044c-0.641,0-2.564,0-3.773,0c-1.211,0-1.741,0.064-1.963,0.564c0,0-0.243,1.004-0.243,2.181
			c0,1.174,0.632,1.653,1.59,1.653c0.955,0,1.716,0,2.565,0s3.652-0.51,3.629-2.12c0.882,0,3.427,0.05,5.027,0.108
			c1.267,0.047,1.739-0.023,1.694-0.688c1.118,0,0.777-1.327,0.561-2.076C36.725,28.721,35.3,29.188,34.552,29.41z M29.168,32.444
			c-0.132,0.734-1.986,1.121-2.806,1.207c-0.82,0.091-2.892,0.173-3.453-0.19c-0.562-0.369-0.39-1.361-0.329-2.137
			c0.064-0.778,0.501-0.95,1.025-0.996c0.524-0.042,3.491-0.121,4.354-0.134c0.645-0.008,0.991,0.221,1.207,0.566
			C29.385,31.104,29.296,31.709,29.168,32.444z"/>
		<path fill="#A7A7A7" d="M35.095,34.657c-0.523,0.021-1.621,0.148-3.479,0.322c-1.858,0.175-3.189,0.366-3.497,0.95l-6.616,0.032
			l-6.615-0.032c-0.308-0.584-1.637-0.775-3.496-0.95c-1.858-0.174-2.955-0.302-3.479-0.322c-0.525-0.024-1.175-0.16-1.135,0.86
			c0.04,1.023,0.126,1.72,1.27,1.851c1.143,0.136,3.181,0.25,4.394,0.343c1.212,0.096,2.89,0.305,2.752-0.223
			c1.174-0.051,0.476,0.393,1.392,0.419c0.754,0.02,3.866,0.007,4.917,0c1.054,0.007,4.164,0.02,4.92,0
			c0.916-0.026,0.218-0.47,1.39-0.419c-0.136,0.527,1.54,0.318,2.754,0.223c1.213-0.091,3.251-0.207,4.395-0.343
			c1.143-0.133,1.229-0.827,1.268-1.851C36.27,34.497,35.619,34.633,35.095,34.657z"/>
		<path fill="#A7A7A7" d="M38.717,28.795c-0.702-1.137-2.379-2.264-3.417-2.889h0.431c0.375,0,1.513,0,1.513-1.036
			c0-0.79-0.893-1.021-1.361-1.035c-0.005,0-0.506-0.002-0.931,0c-0.273,0.003-0.841,0.008-0.849,0.59
			c-0.928-1.778-2.589-4.007-3.881-4.867c-0.438-0.294-0.961-0.309-1.019-0.309c-3.285-0.244-7.638-0.247-7.682-0.247h-0.027h-0.028
			c-0.044,0-4.397,0.002-7.68,0.247c-0.058,0-0.582,0.017-1.021,0.309c-1.294,0.86-2.954,3.089-3.881,4.867
			c-0.006-0.582-0.574-0.587-0.847-0.59c-0.424-0.002-0.927,0-0.932,0c-0.469,0.013-1.359,0.246-1.359,1.035
			c0,1.036,1.138,1.036,1.511,1.036h0.432c-1.04,0.625-2.715,1.749-3.416,2.889c-0.615,1-0.834,4.948-0.818,6.069
			c0.009,0.814,0.082,2.071,0.153,3.291l0.107,2.021c0.041,1.084,0.542,1.589,1.572,1.589h4.083c1.761,0,1.776-1.642,1.779-1.676
			c0.046,0,0.094,0,0.139,0c1.049,0,1.717,0.133,2.215,0.235c0.073,0.017,0.138,0.028,0.202,0.039
			c0.61,0.118,3.659,0.238,3.694,0.238l4.045,0.024h0.052h0.05l4.045-0.024c0.035,0,3.083-0.12,3.692-0.238
			c0.064-0.011,0.13-0.023,0.202-0.039c0.499-0.103,1.167-0.235,2.216-0.235c0.046,0,0.091,0,0.137,0
			c0.002,0.034,0.021,1.676,1.779,1.676h4.082c1.032,0,1.531-0.505,1.572-1.589l0.107-2.021c0.071-1.22,0.144-2.477,0.152-3.291
			C39.55,33.744,39.331,29.795,38.717,28.795z M13.187,20.192c0.248-0.166,0.587-0.181,0.633-0.182
			c3.279-0.243,7.603-0.247,7.646-0.247h0.028h0.027c0.043,0,4.368,0.004,7.647,0.247c0.045,0.001,0.385,0.017,0.632,0.182
			c1.267,0.842,2.936,3.152,3.776,4.876H21.495H9.411C10.25,23.345,11.921,21.034,13.187,20.192z M38.775,34.854
			c-0.01,0.8-0.082,2.05-0.153,3.256l-0.027,0.466c-0.03,0.541-0.058,0.546-0.307,0.575c-0.522,0.064-3.477,0.141-6.066,0.188
			c-0.17-0.005-0.349-0.012-0.52-0.012c-1.124,0-1.836,0.146-2.358,0.249c-0.074,0.015-0.14,0.029-0.204,0.039
			c-0.397,0.079-2.352,0.178-3.567,0.226l-4.078,0.024l-4.079-0.024c-1.216-0.048-3.172-0.146-3.569-0.226
			c-0.063-0.01-0.13-0.025-0.206-0.039c-0.52-0.103-1.231-0.249-2.356-0.249c-0.172,0-0.349,0.007-0.521,0.012
			c-2.59-0.046-5.542-0.124-6.065-0.188c-0.25-0.029-0.277-0.034-0.308-0.575l-0.028-0.466c-0.07-1.208-0.142-2.456-0.151-3.256
			c-0.021-1.493,0.287-4.979,0.704-5.66c0.865-1.401,3.62-2.905,3.952-3.081h12.626h12.625c0.331,0.176,3.086,1.679,3.951,3.081
			C38.488,29.874,38.795,33.36,38.775,34.854z"/>
	</g>
	<path fill="#A7A7A7" enable-background="new    " d="M54.673,41.766c-0.238,0-0.459-0.128-0.574-0.335
		c-3.605-6.438-7.56-13.743-8.864-18.929c-0.013-0.049-0.021-0.1-0.028-0.149c-0.172-0.729-0.26-1.478-0.26-2.207
		c0-5.365,4.362-9.729,9.726-9.729c5.366,0,9.729,4.364,9.729,9.729c0,0.726-0.089,1.476-0.265,2.229
		c0,0.022-0.008,0.067-0.021,0.117c-1.305,5.193-5.262,12.499-8.868,18.94C55.133,41.638,54.912,41.766,54.673,41.766z
		 M54.673,11.736c-4.635,0-8.405,3.773-8.405,8.409c0,0.626,0.077,1.274,0.23,1.925c0.005,0.023,0.017,0.093,0.021,0.117
		c1.192,4.753,4.758,11.468,8.155,17.567c3.401-6.103,6.969-12.816,8.163-17.576c0.003-0.015,0.013-0.088,0.017-0.104
		c0.153-0.656,0.232-1.305,0.232-1.929C63.083,15.508,59.311,11.736,54.673,11.736z M54.673,25.186
		c-2.777,0-5.041-2.261-5.041-5.041c0-2.779,2.264-5.043,5.041-5.043c2.781,0,5.044,2.264,5.044,5.043
		C59.716,22.925,57.454,25.186,54.673,25.186z M54.673,16.422c-2.05,0-3.721,1.67-3.721,3.723c0,2.054,1.669,3.723,3.721,3.723
		c2.054,0,3.725-1.668,3.725-3.723C58.397,18.093,56.726,16.422,54.673,16.422z"/>
</g>
</svg>
