<?xml version="1.0" encoding="utf-8"?>
<!-- Generator: Adobe Illustrator 16.0.4, SVG Export Plug-In . SVG Version: 6.00 Build 0)  -->
<!DOCTYPE svg PUBLIC "-//W3C//DTD SVG 1.1//EN" "http://www.w3.org/Graphics/SVG/1.1/DTD/svg11.dtd">
<svg version="1.1" id="Layer_1" xmlns="http://www.w3.org/2000/svg" xmlns:xlink="http://www.w3.org/1999/xlink" x="0px" y="0px"
	 width="68.354px" height="51.926px" viewBox="0 0 68.354 51.926" enable-background="new 0 0 68.354 51.926" xml:space="preserve">
<g>
	<g>
		<g>
			<g>
				<rect x="0.376" y="-0.037" fill="none" width="67.978" height="51.963"/>
			</g>
		</g>
	</g>
</g>
<g>
	<path fill="#A7A7A7" d="M25.164,6.037c-6.724,0-11.991,5.407-11.991,12.31c0,8.453,7.338,15.129,17.493,24.37l2.814,2.893
		c0.364,0.374,1.033,0.374,1.394,0l2.752-2.835c10.195-9.28,17.555-15.977,17.555-24.427c0-6.902-5.268-12.31-11.988-12.31
		c-3.258,0-6.492,1.354-8.878,3.711l-0.138,0.135L34.04,9.748C31.657,7.39,28.421,6.037,25.164,6.037z M34.178,43.535l-2.158-2.216
		C21.228,31.5,15.119,25.585,15.119,18.347c0-5.812,4.413-10.363,10.044-10.363c3.081,0,6.248,1.522,8.264,3.972
		c0.351,0.429,1.149,0.429,1.502,0.001c2.016-2.451,5.184-3.973,8.264-3.973c5.631,0,10.041,4.551,10.041,10.363
		c0,7.237-6.127,13.167-16.959,23.028L34.178,43.535z"/>
</g>
</svg>
