<?xml version="1.0" encoding="utf-8"?>
<!-- Generator: Adobe Illustrator 16.0.0, SVG Export Plug-In . SVG Version: 6.00 Build 0)  -->
<!DOCTYPE svg PUBLIC "-//W3C//DTD SVG 1.1//EN" "http://www.w3.org/Graphics/SVG/1.1/DTD/svg11.dtd">
<svg version="1.1" id="Layer_1" xmlns="http://www.w3.org/2000/svg" xmlns:xlink="http://www.w3.org/1999/xlink" x="0px" y="0px"
	 width="110.5px" height="84.559px" viewBox="0 0 110.5 84.559" enable-background="new 0 0 110.5 84.559" xml:space="preserve">
<g>
	
		<linearGradient id="SVGID_1_" gradientUnits="userSpaceOnUse" x1="-58.96" y1="-252.325" x2="-5.3062" y2="-252.325" gradientTransform="matrix(-4.371139e-08 1 1 4.371139e-08 307.7322 81.1511)">
		<stop  offset="0" style="stop-color:#E5E5E5"/>
		<stop  offset="0.5398" style="stop-color:#FFFFFF"/>
		<stop  offset="1" style="stop-color:#C8C8C8"/>
	</linearGradient>
	<path fill="url(#SVGID_1_)" d="M22.226,75.845c-2.106,0-3.961-1.604-3.961-3.555V25.746c0-1.95,1.732-3.555,3.961-3.555h66.485
		c2.104,0,3.838,1.606,3.838,3.555V72.29c0,1.95-1.734,3.555-3.838,3.555H22.226z"/>
	<path fill="#787468" d="M90.352,72.29c0,0.825-0.754,1.521-1.641,1.521H22.226c-0.926,0-1.765-0.725-1.765-1.521V25.746
		c0-0.853,0.774-1.521,1.765-1.521h66.485c0.887,0,1.641,0.698,1.641,1.521V72.29 M92.549,72.29V25.746
		c0-1.95-1.734-3.555-3.838-3.555H22.226c-2.23,0-3.961,1.606-3.961,3.555V72.29c0,1.95,1.856,3.555,3.961,3.555h66.485
		C90.814,75.845,92.549,74.24,92.549,72.29L92.549,72.29z"/>
	<path fill="#787468" d="M85.367,70.112c0.123,0,0.246-0.114,0.246-0.23V28.268c0-0.112-0.121-0.229-0.246-0.229H25.446
		c-0.123,0-0.248,0.117-0.248,0.229v41.615c0,0.114,0.125,0.231,0.248,0.231h59.921V70.112z"/>
	<path fill="#787468" d="M88.039,55.951c-0.332,0-0.6-0.248-0.6-0.553v-9.241c0-0.31,0.27-0.555,0.6-0.555l0,0
		c0.33,0,0.6,0.249,0.6,0.555v9.241C88.639,55.706,88.369,55.951,88.039,55.951L88.039,55.951z"/>
	<ellipse fill="#787468" cx="87.927" cy="43.342" rx="0.827" ry="0.845"/>
	<rect x="4.604" y="2.677" fill="none" width="101.293" height="79.205"/>
	<circle fill="#787468" cx="22.64" cy="49.082" r="1.438"/>
	<path opacity="0.6" fill="#C0B9AB" enable-background="new    " d="M61.695,28.038H25.448c-0.125,0-0.247,0.117-0.247,0.229V59.74
		L61.695,28.038z"/>
	
		<linearGradient id="SVGID_2_" gradientUnits="userSpaceOnUse" x1="66.375" y1="-648.6335" x2="94.0488" y2="-648.6335" gradientTransform="matrix(1 0 0 -1 -25.0796 -599.7183)">
		<stop  offset="0" style="stop-color:#E5E5E5"/>
		<stop  offset="0.5398" style="stop-color:#FFFFFF"/>
		<stop  offset="1" style="stop-color:#C8C8C8"/>
	</linearGradient>
	<path fill="url(#SVGID_2_)" d="M56.852,53.399c-0.783,0.823-1.508,1.421-2.168,1.778c-0.803,0.437-1.77,0.651-2.898,0.651
		c-1.425,0-2.542-0.477-3.345-1.426c-0.766-0.888-1.146-2.08-1.146-3.58c0-2.322,0.701-4.398,2.105-6.229
		c1.334-1.716,3.071-2.571,5.22-2.571c1.736,0,2.977,0.542,3.717,1.626l0.281-1.178h3.904l-1.938,8.122
		c-0.102,0.429-0.152,0.845-0.152,1.237c0,0.908,0.479,1.363,1.441,1.363c1.219,0,2.201-0.488,2.943-1.473
		c0.754-1.001,1.125-2.328,1.125-3.983c0-2.261-0.775-4.196-2.336-5.809c-2.002-2.067-4.805-3.1-8.383-3.1
		c-2.829,0-5.207,0.761-7.128,2.279c-1.383,1.106-2.4,2.552-3.052,4.335c-0.424,1.148-0.633,2.412-0.633,3.785
		c0,2.892,0.888,5.213,2.663,6.958c1.85,1.816,4.545,2.723,8.086,2.723c2.189,0,4.314-0.335,6.355-1.02l0.822,2.684
		c-2.52,0.75-4.934,1.126-7.235,1.126c-5.011,0-8.782-1.554-11.312-4.665c-1.664-2.054-2.496-4.72-2.496-7.996
		c0-2.32,0.581-4.472,1.735-6.445c1.054-1.796,2.468-3.242,4.249-4.338c2.282-1.416,5.035-2.124,8.254-2.124
		c3.924,0,7.206,1.153,9.825,3.458c1.406,1.228,2.42,2.721,3.039,4.478c0.381,1.094,0.572,2.291,0.572,3.594
		c0,2.555-0.768,4.588-2.293,6.102c-1.426,1.417-3.359,2.125-5.797,2.125C58.371,55.889,57.027,55.059,56.852,53.399z
		 M55.197,44.949c-0.994,0-1.844,0.502-2.556,1.502c-0.405,0.57-0.718,1.27-0.946,2.094c-0.206,0.756-0.311,1.408-0.311,1.967
		c0,1.623,0.697,2.434,2.093,2.434c1.248,0,2.229-0.676,2.944-2.031c0.598-1.133,0.896-2.309,0.896-3.532
		C57.318,45.761,56.613,44.949,55.197,44.949z"/>
</g>
</svg>
