<?xml version="1.0" encoding="utf-8"?>
<!-- Generator: Adobe Illustrator 16.0.4, SVG Export Plug-In . SVG Version: 6.00 Build 0)  -->
<!DOCTYPE svg PUBLIC "-//W3C//DTD SVG 1.1//EN" "http://www.w3.org/Graphics/SVG/1.1/DTD/svg11.dtd">
<svg version="1.1" id="Layer_1" xmlns="http://www.w3.org/2000/svg" xmlns:xlink="http://www.w3.org/1999/xlink" x="0px" y="0px"
	 width="68.354px" height="51.926px" viewBox="0 0 68.354 51.926" enable-background="new 0 0 68.354 51.926" xml:space="preserve">
<g>
	<g>
		<g>
			<g>
				<rect x="0.376" y="-0.037" fill="none" width="67.978" height="51.963"/>
			</g>
		</g>
	</g>
</g>
<g>
	<path fill="#A7A7A7" d="M34.179,22.766c0.91,0,1.65,0.376,1.65,0.84c0,0.46-0.74,0.838-1.65,0.838
		c-0.915,0-1.653-0.377-1.653-0.838C32.526,23.142,33.264,22.766,34.179,22.766z"/>
	<path fill="#A7A7A7" d="M12.903,28.948c2.583-0.093,6.688-0.171,8.104-0.177c-0.033,2.601,4.487,3.42,5.856,3.42
		c1.371,0,2.596,0,4.138,0c1.542,0,2.567-0.773,2.567-2.667c0-1.893-0.397-3.514-0.397-3.514c-0.356-0.806-1.21-0.913-3.163-0.913
		c-1.954,0-5.053,0-6.084,0c-2.528,0-2.816,0.826-2.989,1.681c-0.186-0.353-0.513-0.403-0.959-0.518
		c-0.444-0.123-5.656-1.514-6.859-1.874c-1.207-0.355-3.5-1.108-3.853,0.102c-0.347,1.21-0.897,3.347,0.905,3.347
		C10.1,28.911,10.862,29.021,12.903,28.948z M21.804,26.57c0.351-0.558,0.908-0.929,1.948-0.913
		c1.391,0.021,6.176,0.143,7.022,0.217c0.847,0.07,1.551,0.348,1.651,1.602c0.101,1.249,0.379,2.852-0.525,3.442
		c-0.905,0.588-4.247,0.459-5.569,0.312c-1.322-0.142-4.315-0.762-4.527-1.945C21.595,28.102,21.454,27.127,21.804,26.57z"/>
	<path fill="#A7A7A7" d="M55.241,24.39c-1.207,0.359-6.416,1.749-6.86,1.874c-0.449,0.114-0.774,0.165-0.959,0.517
		c-0.172-0.855-0.462-1.677-2.988-1.677c-1.033,0-4.133,0-6.086,0c-1.956,0-2.807,0.104-3.162,0.909c0,0-0.394,1.62-0.394,3.514
		c0,1.896,1.023,2.671,2.562,2.671c1.543,0,2.771,0,4.137,0c1.372,0,5.891-0.825,5.855-3.423c1.419,0.003,5.523,0.083,8.105,0.174
		c2.039,0.079,2.802-0.035,2.731-1.104c1.803,0,1.254-2.137,0.902-3.35C58.74,23.281,56.446,24.032,55.241,24.39z M46.551,29.285
		c-0.21,1.184-3.203,1.803-4.521,1.945c-1.325,0.146-4.667,0.275-5.57-0.312c-0.904-0.591-0.628-2.193-0.53-3.442
		c0.104-1.253,0.808-1.531,1.653-1.602c0.846-0.074,5.629-0.197,7.021-0.22c1.043-0.013,1.601,0.357,1.946,0.916
		C46.902,27.127,46.761,28.102,46.551,29.285z"/>
	<path fill="#A7A7A7" d="M56.11,32.852c-0.841,0.035-2.612,0.241-5.608,0.52c-2.994,0.28-5.142,0.595-5.639,1.534l-10.668,0.048
		l-10.668-0.048c-0.494-0.939-2.643-1.254-5.638-1.534c-2.994-0.278-4.766-0.484-5.61-0.52c-0.846-0.038-1.895-0.253-1.83,1.39
		c0.067,1.648,0.201,2.77,2.047,2.984c1.845,0.217,5.13,0.406,7.085,0.555c1.955,0.147,4.657,0.489,4.44-0.358
		c1.889-0.081,0.768,0.629,2.242,0.674c1.218,0.031,6.235,0.013,7.932,0.006c1.699,0.007,6.714,0.025,7.934-0.006
		c1.478-0.043,0.351-0.757,2.239-0.674c-0.216,0.848,2.484,0.51,4.443,0.358c1.955-0.146,5.241-0.338,7.084-0.555
		c1.845-0.215,1.981-1.336,2.047-2.984C58.007,32.599,56.96,32.813,56.11,32.852z"/>
	<path fill="#A7A7A7" d="M61.952,23.398c-1.131-1.836-3.831-3.649-5.507-4.655h0.691c0.605,0,2.44,0,2.44-1.672
		c0-1.273-1.436-1.647-2.193-1.67c-0.01,0-0.82-0.003-1.504,0c-0.439,0.005-1.353,0.014-1.363,0.952
		c-1.496-2.866-4.174-6.461-6.265-7.85c-0.71-0.471-1.55-0.497-1.644-0.498c-5.3-0.394-12.316-0.397-12.384-0.397h-0.046h-0.045
		c-0.07,0-7.087,0.004-12.385,0.397c-0.095,0.001-0.938,0.027-1.645,0.498c-2.089,1.386-4.765,4.983-6.264,7.85
		c-0.011-0.94-0.925-0.947-1.363-0.952c-0.688-0.003-1.496,0-1.504,0c-0.758,0.021-2.194,0.395-2.194,1.67
		c0,1.672,1.835,1.672,2.441,1.672h0.694c-1.679,1.006-4.379,2.819-5.511,4.655c-0.992,1.611-1.343,7.983-1.319,9.788
		c0.015,1.312,0.134,3.34,0.246,5.306l0.177,3.261c0.064,1.749,0.87,2.564,2.535,2.564h6.582c2.839,0,2.866-2.655,2.87-2.708
		c0.077,0,0.148,0,0.221,0c1.695,0,2.774,0.215,3.578,0.381c0.115,0.023,0.222,0.043,0.326,0.063
		c0.983,0.189,5.896,0.384,5.953,0.387l6.525,0.037h0.082h0.08l6.526-0.037c0.055-0.003,4.973-0.194,5.954-0.387
		c0.104-0.021,0.212-0.04,0.328-0.063c0.8-0.166,1.88-0.381,3.574-0.381c0.075,0,0.146,0,0.222,0
		c0.006,0.053,0.031,2.708,2.87,2.708h6.581c1.666,0,2.472-0.817,2.536-2.564l0.176-3.261c0.112-1.966,0.234-3.993,0.247-5.306
		C63.295,31.382,62.945,25.01,61.952,23.398z M20.779,9.525c0.404-0.265,0.95-0.29,1.022-0.292
		c5.287-0.393,12.263-0.396,12.333-0.396h0.045h0.046c0.068,0,7.043,0.005,12.331,0.396c0.07,0.002,0.619,0.028,1.02,0.292
		c2.045,1.359,4.735,5.084,6.094,7.865h-19.49H14.69C16.045,14.609,18.739,10.885,20.779,9.525z M62.046,33.169
		c-0.016,1.29-0.134,3.305-0.245,5.25l-0.043,0.752c-0.053,0.869-0.094,0.876-0.5,0.929c-0.84,0.106-5.6,0.228-9.78,0.301
		c-0.275-0.013-0.561-0.016-0.836-0.016c-1.813,0-2.96,0.237-3.798,0.404c-0.121,0.024-0.232,0.042-0.33,0.065
		c-0.642,0.126-3.795,0.282-5.755,0.363l-6.576,0.036l-6.579-0.036c-1.962-0.081-5.113-0.239-5.754-0.363
		c-0.103-0.023-0.211-0.041-0.33-0.065c-0.84-0.167-1.988-0.404-3.802-0.404c-0.277,0-0.562,0.003-0.835,0.016
		c-4.176-0.075-8.939-0.194-9.781-0.301c-0.404-0.053-0.448-0.06-0.499-0.929l-0.048-0.752c-0.115-1.945-0.231-3.957-0.246-5.249
		c-0.03-2.408,0.464-8.031,1.138-9.126c1.391-2.262,5.837-4.686,6.372-4.974H34.18h20.355c0.538,0.288,4.981,2.712,6.374,4.974
		C61.587,25.137,62.076,30.761,62.046,33.169z"/>
</g>
</svg>
