<?xml version="1.0" encoding="utf-8"?>
<!-- Generator: Adobe Illustrator 16.0.4, SVG Export Plug-In . SVG Version: 6.00 Build 0)  -->
<!DOCTYPE svg PUBLIC "-//W3C//DTD SVG 1.1//EN" "http://www.w3.org/Graphics/SVG/1.1/DTD/svg11.dtd">
<svg version="1.1" id="Layer_1" xmlns="http://www.w3.org/2000/svg" xmlns:xlink="http://www.w3.org/1999/xlink" x="0px" y="0px"
	 width="68.354px" height="51.926px" viewBox="0 0 68.354 51.926" enable-background="new 0 0 68.354 51.926" xml:space="preserve">
<g>
	<rect x="0" fill="none" width="68.354" height="51.926"/>
</g>
<g opacity="0.6">
	<g>
		<g>
			<path fill="#FFFFFF" d="M26.978,9.166l-0.229,0.48c-0.433,0.908-1.317,1.472-2.312,1.472c-0.993,0-1.879-0.563-2.312-1.472
				l-0.229-0.48H9.191l0.001,33.595h12.71l0.186-0.596c0.335-1.084,1.315-1.814,2.44-1.814c1.124,0,2.104,0.73,2.438,1.814
				l0.185,0.596h32.012V9.166H26.978z M57.474,41.072H28.348c-0.7-1.464-2.166-2.408-3.819-2.408c-1.652,0-3.121,0.944-3.82,2.408
				h-9.827L10.88,10.854h9.99c0.777,1.2,2.125,1.953,3.567,1.953c1.466,0,2.789-0.736,3.569-1.953h29.468L57.474,41.072
				L57.474,41.072z"/>
			<path fill="#FFFFFF" d="M24.688,32.884c-0.809,0-1.462,0.66-1.462,1.464c0.001,0.812,0.656,1.465,1.462,1.465
				c0.808,0,1.464-0.651,1.464-1.465C26.152,33.541,25.497,32.884,24.688,32.884z"/>
			<circle fill="#FFFFFF" cx="24.688" cy="28.514" r="1.465"/>
			<circle fill="#FFFFFF" cx="24.688" cy="22.68" r="1.462"/>
			<circle fill="#FFFFFF" cx="24.688" cy="16.848" r="1.463"/>
		</g>
		<rect x="0" y="-0.001" fill="none" width="68.354" height="51.928"/>
	</g>
	<polygon fill="#FFFFFF" points="37.926,26.008 37.926,27.708 40.607,27.708 40.607,29.454 37.926,29.454 37.926,31.148 
		40.607,31.148 40.607,34.708 43.839,34.708 43.839,31.148 46.529,31.148 46.529,29.454 43.839,29.454 43.839,27.708 46.529,27.708 
		46.529,26.008 44.579,26.008 48.185,17.854 45.163,17.854 42.3,24.645 39.443,17.854 36.243,17.854 39.849,26.008 	"/>
</g>
</svg>
