<?xml version="1.0" encoding="utf-8"?>
<!-- Generator: Adobe Illustrator 16.0.4, SVG Export Plug-In . SVG Version: 6.00 Build 0)  -->
<!DOCTYPE svg PUBLIC "-//W3C//DTD SVG 1.1//EN" "http://www.w3.org/Graphics/SVG/1.1/DTD/svg11.dtd">
<svg version="1.1" id="Layer_1" xmlns="http://www.w3.org/2000/svg" xmlns:xlink="http://www.w3.org/1999/xlink" x="0px" y="0px"
	 width="68.354px" height="51.926px" viewBox="0 0 68.354 51.926" enable-background="new 0 0 68.354 51.926" xml:space="preserve">
<g>
	<g>
		<g>
			<g>
				<rect x="0.376" y="-0.037" fill="none" width="67.978" height="51.963"/>
			</g>
		</g>
	</g>
</g>
<g>
	<path fill="#A7A7A7" d="M54.92,14.791h-0.617l-3.796-9.253l-8.391,3.443l-2.332-5.24L12.352,15.008
		c-0.021,0.008-0.041,0.016-0.062,0.024l-0.059,0.024l0.002,0.008c-0.987,0.457-1.68,1.451-1.68,2.609v27.63
		c0,1.588,1.294,2.881,2.883,2.881h41.481c1.59,0,2.882-1.293,2.882-2.881v-6.111V23.779v-6.106
		C57.801,16.082,56.509,14.791,54.92,14.791z M52.678,14.791H31.915L49.686,7.5L52.678,14.791z M38.963,5.701l1.803,3.832
		L27.954,14.79H16.813L38.963,5.701z M36.309,37.688c-0.761,0-1.38-0.617-1.38-1.38v-9.646c0-0.761,0.619-1.38,1.38-1.38h19.992
		v12.405H36.309z M36.309,23.779c-1.591,0-2.883,1.295-2.883,2.883v9.648c0,1.589,1.292,2.882,2.883,2.882h15.663v0.003h0.752
		v-0.003H56.3v6.108c0,0.762-0.622,1.38-1.382,1.38h-41.48c-0.761,0-1.38-0.618-1.38-1.38V17.673c0-0.76,0.619-1.379,1.38-1.379
		h10.851h3.962h26.668c0.76,0,1.382,0.619,1.382,1.379v6.106H36.309z"/>
	<circle fill="#A7A7A7" cx="40.721" cy="31.487" r="2.023"/>
	<rect x="36.938" y="42.91" fill="#A7A7A7" width="1.55" height="0.753"/>
	<rect x="33.842" y="42.91" fill="#A7A7A7" width="1.549" height="0.753"/>
	<rect x="24.547" y="42.91" fill="#A7A7A7" width="1.549" height="0.753"/>
	<rect x="43.133" y="42.91" fill="#A7A7A7" width="1.55" height="0.753"/>
	<rect x="40.037" y="42.91" fill="#A7A7A7" width="1.55" height="0.753"/>
	<path fill="#A7A7A7" d="M52.724,41.158v-0.412h-0.752v0.412c0,0.312-0.083,0.622-0.244,0.893l0.647,0.38
		C52.605,42.047,52.724,41.604,52.724,41.158z"/>
	<rect x="46.234" y="42.91" fill="#A7A7A7" width="1.549" height="0.753"/>
	<path fill="#A7A7A7" d="M50.985,43.543l-0.229-0.715c-0.172,0.055-0.354,0.082-0.539,0.082h-0.884v0.753h0.887
		C50.478,43.663,50.738,43.624,50.985,43.543z"/>
	<rect x="30.743" y="42.91" fill="#A7A7A7" width="1.548" height="0.753"/>
	<rect x="27.646" y="42.91" fill="#A7A7A7" width="1.548" height="0.753"/>
	<rect x="21.448" y="42.91" fill="#A7A7A7" width="1.55" height="0.753"/>
	<rect x="18.262" y="42.91" fill="#A7A7A7" width="1.631" height="0.753"/>
	<rect x="18.262" y="19.27" fill="#A7A7A7" width="1.631" height="0.752"/>
	<rect x="21.445" y="19.27" fill="#A7A7A7" width="1.551" height="0.752"/>
	<rect x="30.749" y="19.27" fill="#A7A7A7" width="1.553" height="0.752"/>
	<rect x="24.546" y="19.27" fill="#A7A7A7" width="1.551" height="0.752"/>
	<path fill="#A7A7A7" d="M49.361,19.27v0.752h0.855c0.191,0,0.381,0.031,0.563,0.091l0.241-0.71
		c-0.261-0.087-0.529-0.133-0.804-0.133H49.361z"/>
	<path fill="#A7A7A7" d="M51.742,20.909c0.15,0.262,0.229,0.562,0.229,0.868v0.447h0.752v-0.447c0-0.435-0.114-0.865-0.33-1.241
		L51.742,20.909z"/>
	<rect x="43.156" y="19.27" fill="#A7A7A7" width="1.551" height="0.752"/>
	<rect x="46.257" y="19.27" fill="#A7A7A7" width="1.551" height="0.752"/>
	<rect x="27.649" y="19.27" fill="#A7A7A7" width="1.552" height="0.752"/>
	<rect x="33.851" y="19.27" fill="#A7A7A7" width="1.552" height="0.752"/>
	<rect x="40.054" y="19.27" fill="#A7A7A7" width="1.552" height="0.752"/>
	<rect x="36.953" y="19.27" fill="#A7A7A7" width="1.549" height="0.752"/>
</g>
</svg>
