<?xml version="1.0" encoding="utf-8"?>
<!-- Generator: Adobe Illustrator 16.0.0, SVG Export Plug-In . SVG Version: 6.00 Build 0)  -->
<!DOCTYPE svg PUBLIC "-//W3C//DTD SVG 1.1//EN" "http://www.w3.org/Graphics/SVG/1.1/DTD/svg11.dtd">
<svg version="1.1" id="Layer_1" xmlns="http://www.w3.org/2000/svg" xmlns:xlink="http://www.w3.org/1999/xlink" x="0px" y="0px"
	 width="316.176px" height="272.059px" viewBox="0 0 316.176 272.059" enable-background="new 0 0 316.176 272.059"
	 xml:space="preserve">
<g>
	<g>
		<rect x="0" y="0" fill="none" width="316.176" height="272.059"/>
	</g>
	<g opacity="0.6">
		<g>
			<path fill="#FFFFFF" d="M300.576,130.885h-35.951v-14.208c0-4.854-3.951-8.808-8.812-8.808h-88.002
				c-4.861,0-8.811,3.954-8.811,8.808v61.224c0,4.858,3.953,8.809,8.811,8.809h6.564l-3.256,12.164
				c-0.586,2.204-0.432,3.896,0.457,5.057c0.641,0.844,1.633,1.319,2.713,1.319c1.236,0,2.539-0.59,3.99-1.809l20.033-16.731h6.154
				v13.518c0,4.464,3.635,8.099,8.098,8.099h48.941l20.234,16.898c1.295,1.083,2.488,1.638,3.537,1.638
				c0.873,0,1.645-0.37,2.154-1.039c0.744-0.977,0.865-2.468,0.334-4.442l-3.494-13.055h16.303c4.469,0,8.105-3.635,8.105-8.099
				v-61.231C308.68,134.528,305.043,130.885,300.576,130.885z M179.842,185.135c0.021-0.064,0.045-0.138,0.064-0.21l0.848-3.077
				h-12.943c-2.18,0-3.943-1.767-3.943-3.947v-61.224c0-2.165,1.764-3.929,3.943-3.929h88.002c2.174,0,3.947,1.764,3.947,3.929
				v61.224c0,2.181-1.773,3.947-3.947,3.947h-59.264l-20.389,17.025L179.842,185.135z M255.813,186.709
				c4.861,0,8.812-3.95,8.812-8.809v-43.549h35.949c2.561,0,4.646,2.085,4.646,4.644v61.231c0,2.552-2.086,4.632-4.646,4.632
				h-20.832l0.6,2.195c0.02,0.062,0.039,0.115,0.062,0.179l4.021,15.029c0.082,0.315,0.135,0.572,0.168,0.783
				c-0.18-0.112-0.391-0.278-0.639-0.479l-21.193-17.699h-50.188c-2.564,0-4.652-2.089-4.652-4.641v-13.518H255.813z"/>
		</g>
		<g>
			<path fill="#FFFFFF" d="M126.097,106.969c3.71,0,6.733,1.536,6.733,3.425s-3.023,3.41-6.733,3.41
				c-3.716,0-6.732-1.521-6.732-3.41S122.382,106.969,126.097,106.969z"/>
			<path fill="#FFFFFF" d="M109.101,116.481c-7.959,0-20.608,0-24.814,0c-10.293,0-11.466,3.377-12.163,6.863
				c-0.758-1.451-2.101-1.663-3.914-2.113c-1.812-0.507-23.054-6.173-27.958-7.638c-4.915-1.459-14.277-4.524-15.708,0.4
				c-1.419,4.939-3.671,13.649,3.687,13.649c-0.293,4.384,2.818,4.836,11.134,4.538c10.527-0.38,27.267-0.712,33.049-0.732
				c-0.146,10.599,18.275,13.952,23.873,13.952c5.571,0,10.581,0,16.863,0c6.279,0,10.451-3.143,10.451-10.866
				s-1.607-14.341-1.607-14.341C120.542,116.918,117.061,116.481,109.101,116.481z M116.806,140.208
				c-3.686,2.401-17.32,1.859-22.705,1.269c-5.387-0.571-17.581-3.108-18.44-7.942c-0.853-4.807-1.426-8.795,0-11.056
				c1.417-2.277,3.695-3.784,7.941-3.729c5.67,0.085,25.175,0.594,28.61,0.874c3.452,0.311,6.324,1.438,6.743,6.539
				C119.361,131.265,120.493,137.792,116.806,140.208z"/>
			<path fill="#FFFFFF" d="M130.206,120.194c0,0-1.603,6.617-1.603,14.341s4.16,10.882,10.447,10.882c4.54,0,8.409,0,12.313,0
				v-3.497c-6.063,0.197-13.417-0.049-15.965-1.711c-3.692-2.416-2.563-8.943-2.156-14.045c0.416-5.101,3.29-6.229,6.739-6.539
				c1.523-0.111,6.171-0.28,11.382-0.45v-2.693c-2.936,0-5.829,0-8.264,0C135.135,116.481,131.662,116.918,130.206,120.194z"/>
			<path fill="#FFFFFF" d="M82.673,156.465c-2.016-3.834-10.771-5.116-22.986-6.257c-12.212-1.142-19.421-1.989-22.862-2.128
				c-3.458-0.144-7.728-1.03-7.463,5.679c0.264,6.721,0.82,11.282,8.34,12.148c7.515,0.901,20.907,1.662,28.88,2.261
				c7.978,0.614,19.005,2.009,18.107-1.472c7.698-0.337,3.118,2.579,9.136,2.747c6.003,0.169,34.652,0,34.652,0
				s12.63,0.087,22.888,0.087v-12.967l-22.884,0.099L82.673,156.465z"/>
			<path fill="#FFFFFF" d="M99.285,182.184c-7.991-0.317-20.84-0.973-23.454-1.479c-0.417-0.085-0.857-0.168-1.347-0.268
				c-3.417-0.691-8.1-1.635-15.495-1.635c-1.128,0-2.291,0.028-3.418,0.07c-17.019-0.324-36.432-0.817-39.869-1.255
				c-1.65-0.197-1.822-0.227-2.031-3.777l-0.176-3.057c-0.46-7.935-0.939-16.151-1.009-21.394
				c-0.123-9.825,1.896-32.755,4.646-37.229c5.68-9.21,23.793-19.09,25.97-20.26h166.102c1.096,0.592,6.23,3.368,11.824,7.216
				l0.25,0.17h8.459l-2.396-1.79c-3.705-2.777-7.486-5.187-10.379-6.92h2.721c2.459,0,9.943,0,9.943-6.821
				c0-5.187-5.852-6.709-8.965-6.8c0,0-3.307-0.022-6.105,0c-1.758,0.021-5.365,0.034-5.562,3.657
				c-6.121-11.642-16.951-26.15-25.387-31.768c-2.957-1.987-6.578-2.043-6.617-2.043h-0.018
				c-21.717-1.593-50.277-1.606-50.566-1.606h-0.482c-0.296,0-28.913,0.014-50.5,1.606c-0.375,0.015-3.82,0.112-6.706,2.029
				C60.204,54.499,49.3,69.15,43.201,80.839c-0.053-3.833-3.768-3.861-5.564-3.882c-2.805-0.022-6.095,0.006-6.123,0
				c-3.098,0.091-8.952,1.613-8.952,6.8c0,6.821,7.486,6.821,9.941,6.821h2.834c-6.836,4.102-17.846,11.486-22.462,18.97
				c-4.038,6.568-5.473,32.549-5.373,39.899c0.057,5.362,0.542,13.62,1.007,21.632l0.709,13.289
				c0.269,7.131,3.556,10.458,10.334,10.458h26.838c3.812,0,6.801-1.197,8.875-3.564c0.243-0.282,0.479-0.593,0.735-0.973
				l0.195-0.304c0.165-0.247,0.303-0.501,0.482-0.84l0.104-0.211c0.163-0.331,0.311-0.676,0.441-1.007l0.05-0.135
				c0.105-0.309,0.203-0.599,0.292-0.901l0.081-0.311c0.063-0.252,0.113-0.493,0.169-0.738l0.056-0.262
				c0.054-0.311,0.104-0.62,0.131-0.917l0.021-0.183c0.029-0.224,0.054-0.464,0.065-0.676c0.306-0.015,0.604-0.015,0.901-0.015
				c6.898,0,11.299,0.903,14.576,1.564c0.468,0.085,0.912,0.183,1.327,0.254c4.01,0.768,24.043,1.558,24.279,1.578l26.595,0.141
				l25.598-0.141v-5.004l-24.85,0.157L99.285,182.184z M71.482,52.998c1.635-1.092,3.862-1.19,4.161-1.19
				c21.556-1.601,49.985-1.621,50.279-1.621h0.482c0.285,0,28.714,0.021,50.408,1.621c0.018,0,2.344,0.07,4.027,1.19
				c8.326,5.553,19.332,20.78,24.824,32.055H46.66C52.176,73.722,63.164,58.531,71.482,52.998z"/>
		</g>
		<polygon fill="#FFFFFF" points="217.002,125.836 209.356,143.983 201.709,125.836 193.182,125.836 202.807,147.637 
			197.666,147.637 197.666,152.183 204.852,152.183 204.852,156.843 197.666,156.843 197.666,161.367 204.852,161.367 
			204.852,170.874 213.483,170.874 213.483,161.367 220.666,161.367 220.666,156.843 213.483,156.843 213.483,152.183 
			220.666,152.183 220.666,147.637 215.453,147.637 225.078,125.836 		"/>
	</g>
</g>
</svg>
