<?xml version="1.0" encoding="utf-8"?>
<!-- Generator: Adobe Illustrator 16.0.0, SVG Export Plug-In . SVG Version: 6.00 Build 0)  -->
<!DOCTYPE svg PUBLIC "-//W3C//DTD SVG 1.1//EN" "http://www.w3.org/Graphics/SVG/1.1/DTD/svg11.dtd">
<svg version="1.1" id="Layer_1" xmlns="http://www.w3.org/2000/svg" xmlns:xlink="http://www.w3.org/1999/xlink" x="0px" y="0px"
	 width="316.176px" height="272.059px" viewBox="0 0 316.176 272.059" enable-background="new 0 0 316.176 272.059"
	 xml:space="preserve">
<g>
	<g>
		<g>
			<g>
				<g>
					<g>
						<g>
							<g>
								<g>
									<rect x="0" y="0" fill="none" width="316.176" height="272.059"/>
								</g>
							</g>
						</g>
					</g>
				</g>
			</g>
		</g>
	</g>
</g>
<g opacity="0.6">
	<g>
		<g>
			<path fill="#FFFFFF" d="M308.247,148.453h-32.423v-12.812c0-4.371-3.552-7.938-7.938-7.938h-79.342
				c-4.386,0-7.938,3.567-7.938,7.938v55.199c0,4.388,3.567,7.946,7.938,7.946h5.921l-2.931,10.967
				c-0.531,1.975-0.394,3.507,0.41,4.554c0.578,0.759,1.474,1.191,2.444,1.191c1.108,0,2.293-0.523,3.597-1.631l18.049-15.081h5.556
				v12.182c0,4.022,3.279,7.301,7.316,7.301h44.11l18.246,15.24c1.168,0.972,2.246,1.473,3.188,1.473
				c0.789,0,1.486-0.334,1.942-0.926c0.684-0.896,0.773-2.231,0.304-4.016l-3.157-11.771h14.708c4.022,0,7.301-3.278,7.301-7.301
				v-55.207C315.548,151.733,312.27,148.453,308.247,148.453z M199.398,197.362c0.015-0.054,0.031-0.123,0.046-0.19l0.774-2.77
				h-11.674c-1.957,0-3.552-1.587-3.552-3.561v-55.199c0-1.95,1.595-3.536,3.552-3.536h79.342c1.958,0,3.552,1.586,3.552,3.536
				v55.199c0,1.974-1.594,3.561-3.552,3.561h-53.43l-18.382,15.353L199.398,197.362z M267.886,198.787
				c4.387,0,7.938-3.559,7.938-7.946v-39.268h32.423c2.309,0,4.175,1.882,4.175,4.188v55.207c0,2.3-1.866,4.183-4.175,4.183h-18.776
				l0.532,1.98c0.015,0.053,0.029,0.091,0.06,0.151l3.613,13.548c0.075,0.288,0.122,0.516,0.167,0.706
				c-0.167-0.1-0.365-0.242-0.593-0.433l-19.095-15.953h-45.249c-2.307,0-4.204-1.883-4.204-4.183v-12.182H267.886z"/>
		</g>
		<polygon fill="#FFFFFF" points="232.898,143.901 226.007,160.264 219.116,143.901 211.419,143.901 220.103,163.564 
			215.457,163.564 215.457,167.656 221.94,167.656 221.94,171.852 215.457,171.852 215.457,175.936 221.94,175.936 221.94,184.497 
			229.71,184.497 229.71,175.936 236.193,175.936 236.193,171.852 229.71,171.852 229.71,167.656 236.193,167.656 236.193,163.564 
			231.501,163.564 240.185,143.901 		"/>
	</g>
	<path fill="#FFFFFF" d="M172.737,175.313c-0.63,0.82-1.178,1.829-1.548,3.066l-5.474-0.167c0,0-4.416-2.459-6.359,0
		c-1.32,1.662-1.154,2.9-0.935,3.522c-0.053,0.151-0.158,0.318-0.325,0.478l-4.827-0.046c0.061-0.091,0.151-0.174,0.19-0.28
		c0.432-0.805,0.082-1.708-0.039-1.967l0.979-2.61l9.692-8.728c0.325,0.068,0.744,0.121,1.214,0.121c0.986,0,2.186-0.22,3.256-1.032
		l4.175,1.557v-2.505l-2.831-1.048l-1.959,1.762l0.159,0.067c-1.297,0.865-2.732,0.888-3.65,0.76l2.626-2.368
		c0.881-0.273,1.762-0.782,2.475-1.754l-0.281-0.227l3.462-3.112v-0.493l-5.837,5.259c-1.707,0.517-3.347,0.008-3.378,0l-0.113,0.35
		c0.015,0.015,0.82,0.266,1.897,0.266c0.311,0,0.652-0.038,0.986-0.083l-2.314,2.095c-0.258-0.062-0.448-0.106-0.456-0.106
		l-0.113,0.341c0,0,0.099,0.038,0.235,0.077l-8.963,8.036l9.016-23.687l0.053-0.137c2.361,0,4.356-0.994,5.003-2.512
		c0.212-0.547,1.836-1.427,3.984-2.413v-7.667l-4.555,0.624c-5.274-2.24-11.21-5.974-11.225-6.064
		c-0.061-0.259-0.304-0.373-1.465-0.38c-0.645-0.016-1.479,0-2.284,0.038c3.097-1.018,4.819-4.008,4.569-4.289
		c-0.062-0.091-9.883-13.198-15.226-16.978c-5.343-3.787-12.568-5.1-20.521-4.197c-7.954,0.903-11.423,4.638-11.855,5.139
		c-6.246,7.264,7.316,17.957,7.316,17.957c0.046,0,32.484,3.431,32.484,3.431s0.112-0.03,0.287-0.099
		c0.038,0,0.061-0.016,0.106-0.023l9.214,11.18c0,0,0,0.107,0,0.159c-0.152,0-0.319,0.038-0.471,0.121
		c-0.349,0.191-7.408,2.741-14.732,4.759c-0.522-2.079-2.374-3.62-4.575-3.62c-2.247,0-4.114,1.579-4.615,3.689l-3.946,0.941
		c0,0-0.492-0.069-0.545-0.122l-0.092-0.106l-18.55,6.748c-1.783-3.272-4.175-5.784-8.993-5.784c-4.683,0-12.409,2.254-16.856,4.85
		c-0.667-1.168-2.519-3.984-4.842-3.984c-0.865,0-1.784,0.38-2.718,1.358c-0.955,1.002-1.699,1.374-2.292,1.374
		c-2.04,0-2.262-4.501-2.262-4.501l0.957-6.975l-3.917-1.062l-2.778-7.833c0,0-0.591,0.578-1.19,0.578
		c-0.494,0-1.018-0.388-1.252-1.8l1.396-5.236c0,0,0-1.396-4.721-2.438l-1.974,2.278l1.359-3.415L72.97,104.29l1.246-2.809
		c0.182-0.053,0.312-0.151,0.371-0.273c0.281-0.614-0.91-1.807-2.694-2.687c-1.775-0.851-3.46-1.062-3.764-0.44
		c-0.016,0.031-0.031,0.084-0.046,0.129c0,0,0-0.015-0.015-0.037l-11.506,24.954l-3.4,6.876l-3.818,9.411
		c0,0-5.593-0.805-9.934-0.979c-3.097-0.128-1.784,2.194-0.744,3.583c-0.66-0.023-1.336-0.038-2.05-0.038
		c-3.574,0-7.794,0.312-12.734,1.123l-8.016-3.665c0,0,9.603-3.886,22.132-3.886c2.953,0,6.057,0.204,9.251,0.751l7.15-13.434
		c0,0-1.92-1.396-1.92-3.658h-2.96l-0.159,0.318c-2.012-4.896-1.496-17.767-0.706-22.298c0,0,7.665-0.099,10.124,2.611
		c3.324,3.643,2.945,8.378,2.945,8.378s1.396-6.572-1.883-9.047c-3.347-2.512-4.067-2.648-7.378-3.854
		c-2.056-9.138,6.596-13.57,9.921-12.463c4.272,1.435,7.006,10.019,7.006,10.019l0.591,0.114l-0.873-3.241l7.097-2.634l3.142,2.968
		l2.443,0.698c0,0,7.316,0.698,8.183,5.229c0.068,0.341,0.167,1.1,0.213,1.532c0,0-3.431,3.195-5.253,10.968
		c-3.354,1.813-8.576,10.572-8.379,12.734c0.184,2.164,14.815,14.133,14.815,14.133s18.17-0.152,24.424-2.497
		c0,0-4.781-3.514-7.56-9.686c-2.323-5.145-1.185-8.386,0.538-10.389c4.455-5.177,10.52-5.716,15.324-5.837
		c15.726-0.417,22.252,7.021,22.624,7.4c1.571,1.548,3.119,3.248,4.584,4.933h5.935l0.054,0.121c0,0,0.881,1.997,11.461,6.103
		c1.222-0.091,2.579-0.197,3.984-0.318v-0.396c0-4.562,3.695-8.271,8.279-8.271h14.938c0.925-0.684,1.594-1.17,1.685-1.23
		l0.06-0.015l31.861-6.239c0.075-0.099,1.609-1.207,1.655-0.729l18.335,1.632c0,0,2.095,1.753,1.049,6.109
		c-0.031,0.159-0.076,0.312-0.122,0.472h2.171c1.29-5.45-1.441-7.925-1.746-8.183l-0.516-0.41l-0.653-0.067l-16.849-1.496
		c-0.152-0.463-0.35-0.963-0.562-1.555c-2.201-5.45-6.358-5.883-7.589-5.883c-0.258,0-0.456,0.016-0.591,0.023h-26.565h-1.852
		l-0.212,1.859c-0.03,0.121-0.046,0.242-0.061,0.379c-0.805-0.197-1.806-0.334-3.035-0.334c-0.532,0-0.882,0.022-0.927,0.022
		l-0.258,0.023l-0.257,0.091c-12.175,4.054-21.244,6.026-27.688,6.026c-5.684,0-8.88-1.457-11.923-3.665
		c-6.368-4.592-14.139-8.236-14.458-8.38l-0.166-0.099l-0.183-0.03c-10.762-2.861-20.203-4.311-28.014-4.311
		c-8.606,0-13.873,1.753-16.978,3.506c-1.312-3.111-4.387-4.614-6.283-5.244l-6.172-1.829l-1.48-1.389l-0.242-0.235l-0.812-8.417
		c0,0,2.754,0.334,7.84-2.27c2.467-1.252,2.975-4.189,2.975-4.189l4.888-2.793c1.131-2.276-1.518-4.113-2.975-3.31l-4.356,2.802
		c0,0-4.797-0.19-4.546-3.317c0.659-7.969,3.225-13.479,3.225-13.479s1.876,0.228,1.898,0.228c4.765,0,5.002-2.618,5.002-2.618
		s1.873-10.922-0.881-10.922c-0.16,0-0.327,0.031-0.523,0.091c-6.816,2.46-8.197,17.631-8.197,17.631l-2.254,10.823l-2.785,2.071
		c-0.35-0.037-0.684-0.061-0.987-0.061c-3.316,0-3.712,1.229-4.781,2.338c-1.056,1.093-1.168,6.83,4.364,6.618
		c0.387,2.337,0.964,6.406,1.222,8.424l-0.501,0.273l-7.203,1.723l-0.053-0.083c0,0-1.29-5.123-5.806-6.861
		c-2.481-0.948-6.314-0.926-9.312,2.437c-2.065,2.322-2.884,5.541-2.428,9.563c0.12,0.979,0.303,2.14,0.629,3.301
		c-0.888-0.151-1.708-0.229-2.375-0.229h-3.158h-1.32l-0.554,1.185c-2.186,4.523-2.391,9.769-1.95,14.215v0.009l0.015,0.022
		c0.539,5.472,2.08,9.737,2.201,10.063l0.205,0.539l0.296,0.835h1.472h3.31h1.29l0.318-0.638c0.274,0.751,0.668,1.382,1.048,1.867
		l-5.737,10.762c-2.626-0.356-5.344-0.539-8.091-0.539c-12.796,0-22.51,3.894-22.92,4.046l-4.509,1.813l4.425,2.026l2.285,1.04
		c-9.988,6.384-16.651,17.531-16.651,30.229c0,19.793,16.09,35.867,35.883,35.867c18.313,0,33.447-13.805,35.596-31.563
		c0.773,6.397,12.947,12.637,18.776,13.501c12.507,1.83,33.583,1.685,69.042-5.039l0.689,0.615l1.8,0.485
		c0,0,0.493-0.076,1.29-0.114c0.994,0.197,2.064,0.304,3.287,0.304c0.265,0.054,0.531,0.083,0.804,0.152
		c0.714,0.166,1.396,0.258,2.003,0.258c1.291,0,2.239-0.372,2.938-0.858V175.313L172.737,175.313z M169.146,164.042
		c-0.334,0.434-0.705,0.736-1.101,0.979L169.146,164.042z M96.582,105.246c2.353,0,4.258,1.313,4.258,2.959
		c0,1.625-1.905,2.945-4.258,2.945c-2.354,0-4.272-1.32-4.272-2.945C92.31,106.56,94.229,105.246,96.582,105.246z M55.826,161.895
		l-6.777,0.948l0.767-1.607l3.499-1.011l-0.114-0.363l-3.181,0.918l1.846-3.811C53.406,158.405,54.741,160.066,55.826,161.895z
		 M52.676,173.219c-0.029-0.426-0.09-0.851-0.159-1.275l2.057,0.592l-1.441,0.896L52.676,173.219z M52.752,173.674l-0.053,0.037
		v-0.067L52.752,173.674z M52.449,171.541v-0.045l5.691-4.121c0.228,0.849,0.396,1.707,0.531,2.587l-3.68,2.308L52.449,171.541z
		 M52.372,171.094c-0.606-2.777-1.942-5.268-3.779-7.295l0.242-0.554l7.196-1.01c0.849,1.488,1.533,3.082,2.004,4.767
		L52.372,171.094z M50.142,183.161l1.199,1.79l-2.292-0.326C49.443,184.156,49.799,183.661,50.142,183.161z M47.82,163.01
		c-0.327-0.311-0.668-0.614-1.033-0.902l2.551-0.729l-0.729,1.525L47.82,163.01z M48.411,163.306l-0.106,0.198
		c-0.046-0.046-0.091-0.114-0.136-0.152L48.411,163.306z M48.305,155.459l0.243-0.592h0.66c0.812,0.553,1.632,1.168,2.376,1.829
		l-2.028,4.228l-3.125,0.91c-0.099-0.084-0.205-0.152-0.312-0.25l2.423-6.026L48.305,155.459z M42.082,155.747l2.033-3.362
		c0.152,0.251,0.349,0.494,0.577,0.752l-2.907,6.261c-0.455-0.159-0.956-0.265-1.434-0.363L42.082,155.747z M36.761,150.982
		c0.19,0,0.356,0.015,0.539,0.015c-0.553,0.471-0.963,0.729-0.963,0.729l-1.359,3.97l-3.841-1.511l-0.651-2.276
		C32.473,151.315,34.582,150.982,36.761,150.982z M30.486,158.147l-0.593-4.069l0.957,0.372l1.319,4.485L30.486,158.147z
		 M32.048,159.3c-0.455,0.136-0.896,0.303-1.335,0.478l-0.167-1.192L32.048,159.3z M31.281,154.624l3.59,1.419l-0.994,2.861
		c-0.426,0.061-0.843,0.137-1.26,0.243L31.281,154.624z M30.12,152.013l0.593,1.981l-0.881-0.356l-0.212-1.458
		C29.786,152.134,29.953,152.052,30.12,152.013z M29.264,152.31l0.166,1.184l-0.722-0.289l-0.137,0.342l0.927,0.373l0.577,4.036
		l-6.072-2.899C25.613,153.919,27.373,153,29.264,152.31z M23.989,155.064l-0.152,0.328l6.3,2.989l0.22,1.555
		c-2.012,0.873-3.802,2.172-5.274,3.766l-1.032,0.174l-4.44-4.742C20.891,157.585,22.364,156.233,23.989,155.064z M26.402,186.5
		l-1.261,0.956l0.152-1.973C25.642,185.84,26.007,186.181,26.402,186.5z M24.686,164.141c-0.06,0.076-0.136,0.122-0.196,0.214
		l-0.137-0.161L24.686,164.141z M24.262,164.643c-0.273,0.349-0.548,0.705-0.774,1.062l-1.442-1.132l1.866-0.311L24.262,164.643z
		 M19.374,159.45l4.219,4.494l-1.92,0.318l-3.65-2.9C18.448,160.703,18.888,160.066,19.374,159.45z M17.825,161.698l3.347,2.656
		l-5.076,0.849C16.566,163.974,17.157,162.806,17.825,161.698z M15.958,165.621l5.602-0.948l1.623,1.275l-7.908,1.897
		C15.457,167.072,15.685,166.342,15.958,165.621z M15.169,168.24l7.908-1.874c-1.336,2.254-2.141,4.857-2.216,7.65l-0.304,0.189
		l-5.859-3.021C14.789,170.182,14.948,169.219,15.169,168.24z M20.922,176.133l-1.883-0.546l1.519-0.949l0.297,0.144
		C20.862,175.238,20.891,175.678,20.922,176.133z M14.608,173.143c0-0.531,0.045-1.04,0.075-1.548l5.511,2.838l-1.625,1.002
		l-3.9-1.108C14.637,173.932,14.608,173.545,14.608,173.143z M14.683,174.721l3.462,0.987l-3.082,1.928
		C14.866,176.695,14.744,175.708,14.683,174.721z M15.169,178.007l3.445-2.154l2.367,0.675c0.031,0.243,0.062,0.455,0.107,0.69
		l-5.062,3.658C15.669,179.943,15.381,179.001,15.169,178.007z M16.156,181.234l4.993-3.614c0.562,2.771,1.853,5.283,3.659,7.324
		l-4.818,2.635C18.379,185.71,17.081,183.571,16.156,181.234z M24.398,191.518c-0.713-0.464-1.366-0.995-2.003-1.55l2.291-1.715
		L24.398,191.518z M22.114,189.718c-0.66-0.577-1.275-1.206-1.874-1.859l4.704-2.565l-0.212,2.459L22.114,189.718z M24.763,191.73
		l0.318-3.772l1.601-1.207c0.342,0.281,0.691,0.555,1.04,0.798l-0.105,5.494l0.371,0.008l0.114-5.267
		c2.314,1.495,5.024,2.396,7.953,2.513l-1.501,4.901C30.985,194.841,27.631,193.604,24.763,191.73z M34.947,195.213l1.488-4.896
		c0.091,0,0.182,0.023,0.267,0.023c0.029,0,0.06-0.009,0.099-0.009c0.029,0,0.037,0.009,0.075,0.009
		c0.076,0,0.151-0.009,0.242-0.023l0.183,0.205l-0.743,4.766C36.025,195.288,35.479,195.251,34.947,195.213z M36.936,195.303
		l0.675-4.4l3.272,4.008C39.607,195.153,38.287,195.288,36.936,195.303z M41.308,194.825l-3.636-4.409l0.038-0.12
		c0.864-0.046,1.729-0.152,2.549-0.328l3.826,4.062C43.189,194.348,42.256,194.621,41.308,194.825z M44.464,193.901l-3.795-4.046
		c3.036-0.743,5.745-2.383,7.811-4.6l2.376,4.972C48.973,191.782,46.803,193.02,44.464,193.901z M51.144,189.968l-2.398-5.001
		l2.869,0.395l1.669,2.49C52.615,188.61,51.909,189.323,51.144,189.968z M53.542,187.578l-1.426-2.148l2.783,0.41
		C54.484,186.44,54.028,187.017,53.542,187.578z M55.151,185.484l-3.316-0.456l-1.495-2.223c0.137-0.214,0.28-0.434,0.395-0.646
		l6.041,0.439C56.304,183.601,55.774,184.579,55.151,185.484z M56.957,182.243l-6.026-0.434c1.154-2.201,1.799-4.69,1.799-7.347
		c0-0.113-0.008-0.22-0.008-0.334l0.44-0.266l5.51,2.482C58.368,178.41,57.784,180.39,56.957,182.243z M58.717,175.958l-5.183-2.346
		l1.511-0.947l3.491,1.009l0.113-0.357l-3.165-0.91l3.249-2.049c0.121,0.926,0.182,1.845,0.182,2.792
		C58.915,174.091,58.855,175.025,58.717,175.958z M53.77,145.752l5.57-12.683l0.979-2.467v13.723l6.109,5.753l-1.048,1.389
		L53.77,145.752z M71.681,165.568c-0.896-4.463-2.641-8.606-5.024-12.302l-0.637,0.85l1.031-1.381l1.062-1.403l1.124-1.496
		l-1.374-1.268l-5.442-5.138v-12.44l0.928-1.062c0.803,0.251,1.318,0.471,1.639,0.631l-1.108,4.167l-0.106,0.439l0.075,0.434
		c0.532,3.202,2.49,3.559,3.317,3.559c1.358,0,1.707,3.962,1.896,5.441l0.176,1.306l1.244,0.403l2.033,0.682l-0.492,5.177
		l-0.023,0.121l0.023,0.159c0.145,3.135,1.357,6.489,4.333,6.489c1.26,0,2.505-0.645,3.795-1.996
		c0.319-0.341,0.774-0.721,1.215-0.721c0.546,0,1.237,0.562,1.882,1.282c-1.504,0.562-3.605,1.42-6.375,2.725
		C74.316,161.424,72.683,163.458,71.681,165.568z M148.532,179.343c-1.199,0.6-0.85,2.589,0.38,3.483
		c-13.995,5.373-49.978,5.662-57.143,4.106c-7.164-1.556-16.545-8.629-15.884-13.084c0.667-4.41,0.212-5.913,5.844-6.604
		l-0.022,0.113c0,0,3.908,8.789,10.237,9.783c17.844,2.732,21.115-7.157,21.949-11.907l19.05-6.323l0.016-0.097
		c0.091-0.41,0.356-0.381,0.356-0.381l4.584-1.357c0.586,0.258,1.207,0.409,1.905,0.409c2.314,0,4.235-1.692,4.659-3.909
		c5.07-1.229,10.635-2.823,15.264-4.811c0.159,1.076,0.523,2.245,1.229,3.02c-0.601,1.853-7.749,23.619-10.444,26.222
		c-1.069-0.865-8.917-7.149-13.729-11.695l-0.062-0.053l-2.147,0.35L148.532,179.343z"/>
</g>
</svg>
