<?xml version="1.0" encoding="utf-8"?>
<!-- Generator: Adobe Illustrator 16.0.0, SVG Export Plug-In . SVG Version: 6.00 Build 0)  -->
<!DOCTYPE svg PUBLIC "-//W3C//DTD SVG 1.1//EN" "http://www.w3.org/Graphics/SVG/1.1/DTD/svg11.dtd">
<svg version="1.1" id="Layer_1" xmlns="http://www.w3.org/2000/svg" xmlns:xlink="http://www.w3.org/1999/xlink" x="0px" y="0px"
	 width="316.176px" height="272.059px" viewBox="0 0 316.176 272.059" enable-background="new 0 0 316.176 272.059"
	 xml:space="preserve">
<g>
	<g opacity="0.6">
		<path fill="#FFFFFF" d="M45.39,165.016c-4.337-0.039-8.009,3.678-7.826,7.872c0.196,3.991,3.867,7.311,7.971,7.187
			c4.207-0.118,7.513-3.489,7.48-7.598C52.975,168.412,49.558,165.042,45.39,165.016z"/>
		<path fill="#FFFFFF" d="M55.425,120.729c-2.607-0.731-19.403-1.202-21.069,12.256c-1.659,13.451,12.419,12.771,12.419,12.771
			s8.075,0.627,13.916-9.734C66.531,125.655,58.025,121.467,55.425,120.729z"/>
		<path fill="#FFFFFF" d="M123.002,132.22c-0.602,0.013-1.215,0-1.816,0.013c-0.091,0-0.156-0.039-0.208-0.091l0,0
			c-0.673-0.758-1.777-1.255-3.032-1.255c-1.333,0-2.482,0.55-3.136,1.386c0.013-0.033,0.04-0.059,0.053-0.092
			c-0.065,0.033-0.125,0.065-0.196,0.065c-1.627,0-3.267,0.006-4.893,0.02c0.084,0.196,0.241,0.353,0.385,0.523
			c0.392,0.451,0.784,0.895,1.241,1.293c0.092,0.078,0.177,0.144,0.261,0.215c0.014,0.007,0.014,0.014,0.04,0.02h0.013
			c0.085,0.072,0.183,0.124,0.242,0.229c0,0,0,0.006,0.02,0.006c0.039,0,0.079,0.026,0.104,0.06c0.014,0,0.026,0,0.04,0.013
			c0.025-0.078,0.098-0.052,0.143-0.052c0.634,0,1.274,0,1.908,0c0.196,0,0.248,0.079,0.235,0.313
			c-0.046-0.162-0.157-0.162-0.262-0.169c-0.646-0.04-1.293-0.033-1.927-0.092c-0.033,0-0.046,0.006-0.073,0.026
			c0.314,0.293,0.706,0.509,1.059,0.751c0.196,0.144,0.392,0.189,0.633,0.177c0.34-0.007,0.686,0,1.026,0
			c0.098,0,0.157,0.013,0.222,0.071c0.013,0.02,0.052,0.04,0.071,0.053c0.673,0.621,1.66,1.013,2.784,1.013
			c1.188,0,2.228-0.444,2.907-1.124c0.144-0.039,0.3-0.045,0.47-0.025c0.189,0.013,0.379-0.02,0.568,0.006
			c0.281,0.02,0.516-0.059,0.739-0.215c0.326-0.229,0.666-0.444,1.019-0.673c0.019-0.013,0.051-0.025,0.091-0.032
			c-0.144-0.117-0.248-0.039-0.339-0.039c-0.523,0.025-1.046,0.065-1.568,0.091c-0.144,0-0.223,0.046-0.262,0.17
			c-0.052,0.143-0.117,0.294-0.339,0.229v0.013c0.105-0.164,0.183-0.333,0.261-0.516c0.019-0.007,0.04-0.027,0.078-0.027
			c0.614,0,1.216,0,1.831,0c0.299,0.059,0.509-0.085,0.731-0.268c0.725-0.582,1.397-1.221,1.986-1.92
			c0.053-0.045,0.118-0.091,0.091-0.169c-0.692,0-1.397,0-2.097,0C123.747,132.22,123.368,132.22,123.002,132.22z M114.241,133.971
			c0-0.261-0.203-0.242-0.399-0.249c-0.823-0.013-1.666-0.039-2.495-0.065c-0.026,0-0.065,0.007-0.072-0.052
			c0.059,0,0.111-0.014,0.164-0.014c0.875,0,1.738,0,2.613-0.006c0.124,0,0.183,0.026,0.196,0.099c0,0.045-0.007,0.079-0.007,0.117
			c0,0.059,0.019,0.117,0.019,0.189C114.248,133.977,114.241,133.971,114.241,133.971z M114.496,132.756
			c-0.02,0.006-0.026,0.04-0.052,0.04c-0.274-0.007-0.536-0.013-0.81-0.034c-0.602-0.006-1.215-0.019-1.816-0.045
			c-0.02,0.013-0.04,0.045-0.059,0.039c-0.49-0.078-0.973-0.013-1.463-0.039c-0.019,0-0.032-0.014-0.059-0.021
			c0,0,0.04-0.045,0.065-0.045c0.483,0,0.967,0,1.45,0c0.026,0,0.04,0.02,0.065,0.026c0.824-0.006,1.659-0.006,2.496-0.006
			c0.046,0,0.084,0,0.131,0c0.013,0,0.052,0,0.078,0.006C114.515,132.697,114.51,132.73,114.496,132.756z M117.946,136.447
			c-1.829,0-3.306-1.189-3.306-2.646c0-1.45,1.477-2.639,3.306-2.639c1.823,0,3.299,1.189,3.299,2.639
			C121.244,135.258,119.768,136.447,117.946,136.447z M123.956,133.625c-0.666,0.025-1.332,0.059-1.999,0.072
			c-0.117,0.013-0.183,0.013-0.17,0.156c0,0.079,0.065,0.248-0.104,0.248c-0.039,0-0.053-0.019-0.079-0.025
			c0.02-0.099,0.04-0.177,0.04-0.268v-0.072c0-0.124,0.052-0.15,0.274-0.15c0.667-0.006,1.346-0.006,2.039-0.006
			c0.229-0.02,0.47-0.026,0.706,0v0.026C124.426,133.605,124.192,133.651,123.956,133.625z M125.785,132.619
			c-0.235,0.124-0.477,0.033-0.718,0C125.308,132.619,125.55,132.619,125.785,132.619z M124.988,132.684
			c-0.378,0.006-0.757,0.02-1.117,0.033c-0.738,0.013-1.47,0.026-2.208,0.045c-0.118,0-0.15,0.027-0.099,0.131
			c0.04,0.039,0.053,0.098,0.079,0.151c0,0,0.039,0.084-0.04,0.097c-0.052,0.014-0.065-0.013-0.078-0.058
			c-0.027-0.052-0.053-0.124-0.079-0.176c0.014,0.006,0.014,0.025,0.014,0.045c-0.014-0.039-0.027-0.078-0.04-0.117
			c0.007,0.013,0.026,0.032,0.026,0.032c-0.026-0.071-0.052-0.124-0.084-0.215c1.208,0,2.423,0,3.625,0V132.684z"/>
		<path fill="#FFFFFF" d="M116.718,133.095c-0.13,0.203-0.254,0.425-0.378,0.64c-0.026-0.013-0.04-0.013-0.04-0.026
			c-0.065-0.15-0.137-0.301-0.197-0.451c-0.143-0.281-0.143-0.281-0.457-0.268c-0.092,0-0.117,0.026-0.124,0.104
			c-0.026,0.346-0.059,0.686-0.098,1.026c0,0.065-0.045,0.17,0.079,0.137c0.104-0.02,0.287,0.104,0.299-0.111
			c0.021-0.17,0.033-0.34,0.053-0.516c0.007,0,0.026,0,0.026,0c0.079,0.176,0.157,0.345,0.235,0.521
			c0.02,0.06,0.046,0.118,0.131,0.111c0.098-0.006,0.169,0,0.208-0.092c0.079-0.163,0.183-0.313,0.262-0.463
			c0.026-0.026,0.026-0.078,0.079-0.053c0.052,0.007,0.026,0.053,0.026,0.079c-0.007,0.131-0.007,0.262-0.013,0.386
			c-0.007,0.079-0.026,0.17,0.118,0.137c0.078-0.02,0.255,0.104,0.261-0.118c0.014-0.34,0.04-0.68,0.053-1.02
			c0-0.039,0.013-0.091-0.013-0.117C117.135,132.932,116.769,133.01,116.718,133.095z M116.809,133.632
			c-0.007-0.007-0.026-0.007-0.026-0.021c0-0.006,0.019-0.026,0.026-0.039c0.006,0.007,0.026,0.013,0.013,0.019
			C116.822,133.592,116.815,133.625,116.809,133.632z"/>
		<path fill="#FFFFFF" d="M119.462,132.985c-0.079-0.007-0.157-0.014-0.157,0.098c0.013,0.202,0,0.398,0,0.64
			c-0.223-0.248-0.405-0.458-0.588-0.667c-0.117-0.13-0.274-0.078-0.392-0.065c-0.105,0.019-0.045,0.137-0.052,0.196
			c-0.013,0.314-0.013,0.628-0.026,0.935c0,0.11,0.013,0.17,0.144,0.144c0.098-0.013,0.261,0.072,0.235-0.137
			c-0.007-0.183,0-0.393,0-0.582c0.235,0.203,0.431,0.399,0.601,0.614c0.118,0.15,0.275,0.092,0.418,0.098
			c0.059,0,0.052-0.052,0.052-0.085c-0.013-0.365-0.013-0.731-0.013-1.09C119.683,132.913,119.539,133.004,119.462,132.985z"/>
		<path fill="#FFFFFF" d="M120.297,134.265c0.079-0.006,0.105-0.026,0.105-0.104c-0.013-0.17,0-0.346,0-0.528
			c-0.02,0-0.026,0-0.039,0c0-0.171,0-0.36,0-0.537c0-0.203-0.17-0.085-0.255-0.117c-0.111-0.02-0.144,0.026-0.144,0.124
			c0.019,0.293,0.019,0.607,0.033,0.908C119.997,134.292,119.997,134.292,120.297,134.265z"/>
		<path fill="#FFFFFF" d="M117.567,133.102c0,0.183,0,0.365,0,0.548c-0.014,0-0.027,0-0.04,0c0,0.157,0.013,0.327-0.006,0.497
			c-0.007,0.091,0.019,0.124,0.124,0.117c0.052-0.006,0.098-0.006,0.144,0c0.092,0.007,0.131-0.013,0.131-0.111
			c0-0.346,0.019-0.705,0.038-1.051c0-0.092-0.038-0.144-0.137-0.117C117.723,133.01,117.567,132.9,117.567,133.102z"/>
		<path fill="#FFFFFF" d="M118.102,131.351c-0.764,0-1.398,0.164-1.986,0.517c-1.568,0.98-1.581,2.849-0.039,3.802
			c1.221,0.745,3.024,0.588,4.076-0.353c1.058-0.94,1.072-2.338,0-3.233C119.552,131.568,118.821,131.358,118.102,131.351z
			 M119.801,135.395c-0.562,0.386-1.267,0.595-1.959,0.588c-0.719-0.019-1.372-0.189-1.92-0.633c-1.098-0.881-1.085-2.267,0-3.168
			c1.019-0.849,2.691-0.954,3.821-0.229C121.101,132.808,121.127,134.481,119.801,135.395z"/>
		<path fill="#FFFFFF" d="M93.865,167.812h48.252c0.575,0,1.026-0.457,1.026-1.019v-6.86c0-0.562-0.451-1.019-1.026-1.019H93.865
			c-0.562,0-1.02,0.45-1.02,1.019v6.86C92.845,167.355,93.303,167.812,93.865,167.812z"/>
		<path fill="#FFFFFF" enable-background="new    " d="M164.055,189.959l-43.745,1.143h-2.26h-0.105h-2.268l-65.97-1.73
			l-18.429-2.496c-2.039-0.497-2.274-3.96-2.613-11.74c-0.144-3.449-0.327-7.729-0.784-12.811l-0.431-4.828
			c-0.824-9.022-1.359-14.967-0.961-18.77c1.144-10.903,4.847-15.052,9.531-20.278c1.02-1.15,2.091-2.332,3.136-3.6l4.227-4.56
			h22.441c1.594,2.959,5.109,9.636,7.003,14.647c2.039,5.376,3.424,12.052,4.005,14.718c-9.911,2.875-18.404,10.746-18.404,22.938
			c0,12.518,20.579,12.209,25.113,12.209c3.502,0,65.402,0,68.897,0c1.92,0,6.716,0.041,11.615-0.836v-4.729
			c-4.324,0.79-9.747,0.665-14.255,0.665c-6.167,0-57.451,0-63.618,0c-9.048,0-21.82,0.529-21.82-6.944
			c0-2.07,0.32-3.958,0.85-5.677h98.843v-1.333H65.662c0.438-1.129,0.986-2.168,1.626-3.142h96.766v-1.339H68.203
			c1.124-1.438,2.424-2.68,3.822-3.737h91.932c0.033,0.025,0.059,0.052,0.098,0.085v-6.24c-1.58-0.783-3.214-1.43-4.906-1.92
			c0.596-2.666,1.98-9.342,4.006-14.712c1.9-5.017,5.408-11.694,7.016-14.653h22.434l4.233,4.56
			c0.706,0.863,1.425,1.641,2.124,2.444h2.842c-0.092-0.091-0.157-0.183-0.248-0.268c-1.007-1.131-2.052-2.3-3.109-3.58l-0.301-0.32
			l1.92-3.561c0,0,3.619,0.876,6.834-0.339c2.064-0.784,5.611-2,6.232-5.867c0.823-5.135-3.959-7.539-9.434-7.924
			c-5.475-0.392-8.355,1.744-9.218,4.58c-0.922,3.044,1.045,6.408,1.045,6.408l-1.745,1.986v-0.255h-0.201l-2.385-2.998
			c-1.634-3.633-13.615-30.235-16.51-32.881c-2.24-3.377-6.16-4.52-13.568-5.161c-3.724-0.327-22.97-1.189-42.314-1.196v-6.885
			h-0.477v-9.355h-0.288h-0.098h-0.274v9.348h-0.483v6.892c-19.357,0.007-38.591,0.863-42.314,1.183
			c-7.402,0.641-11.328,1.797-13.575,5.162c-2.888,2.659-14.863,29.26-16.489,32.894l-2.391,2.992h-0.21v0.261l-1.738-1.993
			c0,0,1.973-3.37,1.04-6.401c-0.856-2.836-3.737-4.972-9.219-4.58c-5.468,0.385-10.243,2.79-9.433,7.924
			c0.62,3.868,4.181,5.083,6.246,5.867c3.2,1.215,6.82,0.339,6.82,0.339l1.92,3.561l-0.301,0.32c-1.058,1.28-2.103,2.449-3.109,3.58
			c-4.75,5.305-8.852,9.891-10.073,21.487c-0.425,4.005,0.098,9.707,0.953,19.188l0.444,4.82c0.445,5.023,0.641,9.291,0.777,12.714
			c0.254,5.841,0.451,9.655,1.745,11.785c0,15.724,0.51,17.587,4.547,17.587c5.487,0,13.948,0,16.175,0
			c2.209,0,4.136-1.287,4.803-3.945c0.947-3.764,1.012-7.188,1.273-9.016l60.574,1.594h2.293h0.111h2.292l43.712-1.15V189.959
			L164.055,189.959z M162.017,146.397H73.978c4.247-2.594,8.977-3.743,12.217-3.743c2.875,0,60.73,0,63.604,0
			C153.027,142.654,157.77,143.803,162.017,146.397z M80.146,110.289h75.704c-1.751,3.083-5.645,10.054-6.742,13.354
			c-1.163,3.534-3.946,11.923-4.9,14.79c-12.922,0-39.498,0-52.427,0c-0.947-2.867-3.731-11.256-4.906-14.79
			C85.777,120.343,81.897,113.372,80.146,110.289z M46.553,106.396l0.144-0.242c5.16-11.543,13.405-29.091,15.784-32.031h55.458
			h0.098h55.465c2.385,2.939,10.629,20.488,15.79,32.031l0.144,0.242l1.404,1.756H45.142L46.553,106.396z"/>
		<path fill="#FFFFFF" enable-background="new    " d="M164.055,177.664h-44.358H116.3H68.125c0,0,0,5.135,2.378,6.095
			c2.378,0.974,8.251,1.803,11.59,2.084c2.679,0.229,25.465,0.535,34.207,0.646v0.046c0,0,0.627-0.007,1.698-0.025
			c1.071,0.019,1.699,0.025,1.699,0.025v-0.046c8.734-0.111,31.528-0.418,34.207-0.646c2.79-0.235,7.343-0.85,10.152-1.62V177.664
			L164.055,177.664z"/>
	</g>
	<g opacity="0.6">
		<path fill="#FFFFFF" d="M287.041,146.879h-28.283v-11.178c0-3.818-3.107-6.93-6.932-6.93h-69.23c-3.826,0-6.933,3.112-6.933,6.93
			v48.166c0,3.82,3.111,6.927,6.933,6.927h5.164l-2.562,9.569c-0.461,1.736-0.338,3.065,0.361,3.979
			c0.503,0.665,1.283,1.037,2.133,1.037c0.973,0,1.998-0.463,3.14-1.422l15.759-13.163h4.842v10.636c0,3.51,2.858,6.369,6.369,6.369
			h38.504l15.916,13.295c1.021,0.851,1.958,1.289,2.782,1.289c0.688,0,1.296-0.293,1.696-0.818c0.586-0.768,0.68-1.943,0.262-3.494
			l-2.748-10.271h12.824c3.516,0,6.377-2.859,6.377-6.369v-48.17C293.414,149.743,290.553,146.879,287.041,146.879z
			 M192.061,189.556c0.016-0.05,0.034-0.106,0.051-0.165l0.665-2.421h-10.181c-1.715,0-3.104-1.39-3.104-3.103v-48.166
			c0-1.704,1.389-3.09,3.104-3.09h69.23c1.709,0,3.104,1.386,3.104,3.09v48.166c0,1.713-1.395,3.103-3.104,3.103h-46.623
			l-16.039,13.394L192.061,189.556z M251.826,190.794c3.824,0,6.932-3.106,6.932-6.927v-34.26h28.279
			c2.014,0,3.656,1.639,3.656,3.652v48.17c0,2.006-1.643,3.644-3.656,3.644h-16.389l0.473,1.728
			c0.016,0.049,0.031,0.088,0.049,0.139l3.164,11.823c0.066,0.249,0.107,0.452,0.132,0.616c-0.14-0.087-0.306-0.219-0.502-0.376
			l-16.672-13.923h-39.481c-2.018,0-3.66-1.645-3.66-3.65v-10.636H251.826z"/>
	</g>
	<polygon opacity="0.6" fill="#FFFFFF" points="222.124,144.695 216.423,158.226 210.722,144.695 204.363,144.695 211.541,160.95 
		207.705,160.95 207.705,164.34 213.063,164.34 213.063,167.816 207.705,167.816 207.705,171.189 213.063,171.189 213.063,178.277 
		219.499,178.277 219.499,171.189 224.856,171.189 224.856,167.816 219.499,167.816 219.499,164.34 224.856,164.34 224.856,160.95 
		220.969,160.95 228.147,144.695 	"/>
</g>
</svg>
