<?xml version="1.0" encoding="utf-8"?>
<!-- Generator: Adobe Illustrator 16.0.4, SVG Export Plug-In . SVG Version: 6.00 Build 0)  -->
<!DOCTYPE svg PUBLIC "-//W3C//DTD SVG 1.1//EN" "http://www.w3.org/Graphics/SVG/1.1/DTD/svg11.dtd">
<svg version="1.1" id="Layer_1" xmlns="http://www.w3.org/2000/svg" xmlns:xlink="http://www.w3.org/1999/xlink" x="0px" y="0px"
	 width="68.354px" height="51.926px" viewBox="0 0 68.354 51.926" enable-background="new 0 0 68.354 51.926" xml:space="preserve">
<g>
	<g>
		<g>
			<g>
				<rect x="0.376" y="-0.037" fill="none" width="67.978" height="51.963"/>
			</g>
		</g>
	</g>
</g>
<g>
	<path fill="#A7A7A7" enable-background="new    " d="M16.254,19.308l-0.018,3.949l-0.565,0.016
		c-1.497,0.043-6.641,0.484-9.96,4.313c-3.409,3.932-3.739,8.405-3.771,9.143c0.573-0.839,5.371-7.506,12.665-7.506
		c0.346,0,0.698,0.015,1.047,0.044l0.526,0.043l0.077,5.303l7.984-8.081L16.254,19.308z"/>
	<path fill="#A7A7A7" enable-background="new    " d="M18.575,34.632v3.837c0,1.727,1.404,3.127,3.129,3.127h39.582
		c1.725,0,3.129-1.4,3.129-3.127V11.457c0-1.724-1.404-3.127-3.129-3.127H21.704c-0.871,0-1.683,0.358-2.288,1.011l-0.011,0.012
		c-0.536,0.583-0.83,1.332-0.83,2.104v7.371l1.633,1.479v-5.427l21.286,16.148L62.78,14.878v23.591c0,0.824-0.671,1.494-1.494,1.494
		H21.704c-0.824,0-1.496-0.672-1.496-1.494v-5.491L18.575,34.632z M41.493,28.978L20.207,12.831v-1.374
		c0-0.825,0.671-1.495,1.495-1.495h39.582c0.824,0,1.494,0.67,1.494,1.493v1.374L41.493,28.978z"/>
</g>
</svg>
