<?xml version="1.0" encoding="utf-8"?>
<!-- Generator: Adobe Illustrator 16.0.0, SVG Export Plug-In . SVG Version: 6.00 Build 0)  -->
<!DOCTYPE svg PUBLIC "-//W3C//DTD SVG 1.1//EN" "http://www.w3.org/Graphics/SVG/1.1/DTD/svg11.dtd">
<svg version="1.1" id="Layer_1" xmlns="http://www.w3.org/2000/svg" xmlns:xlink="http://www.w3.org/1999/xlink" x="0px" y="0px"
	 width="107.353px" height="83.823px" viewBox="0 0 107.353 83.823" enable-background="new 0 0 107.353 83.823"
	 xml:space="preserve">
<g>
	<g>
		<polygon fill="#787367" points="50.736,60.85 28,68.059 28,24.155 50.736,16.945 		"/>
		<polygon fill="#787367" points="96.21,60.85 73.474,68.059 73.474,24.155 96.21,16.945 		"/>
		<polygon fill="#787367" points="50.74,60.85 73.474,68.059 73.474,24.155 50.74,16.945 		"/>
		<linearGradient id="SVGID_1_" gradientUnits="userSpaceOnUse" x1="25.04" y1="12.9316" x2="102.5392" y2="74.4309">
			<stop  offset="0" style="stop-color:#FFFFFF"/>
			<stop  offset="1" style="stop-color:#C9C9C9"/>
		</linearGradient>
		<path fill="url(#SVGID_1_)" d="M73.474,21.32L50.74,14.111l-25.289,8.02v49.26l25.289-8.02l22.734,7.211l25.289-8.021V13.303
			L73.474,21.32z M96.207,60.85L73.47,68.059L50.736,60.85L28,68.059V24.155l22.736-7.21l22.734,7.21l22.736-7.21V60.85z"/>
		<polygon opacity="0.6" fill="#C1BBAC" points="50.736,60.85 28,68.059 28,24.155 50.736,16.945 		"/>
		<polygon opacity="0.6" fill="#C1BBAC" points="96.21,60.85 73.474,68.059 73.474,24.155 96.21,16.945 		"/>
		<polygon fill="#787367" points="46.126,43.177 32.134,31.974 32.134,39.285 9.162,39.285 9.162,43.177 9.162,47.068 
			32.134,47.068 32.134,54.38 		"/>
		<linearGradient id="SVGID_2_" gradientUnits="userSpaceOnUse" x1="23.8057" y1="34.7896" x2="32.0392" y2="56.3233">
			<stop  offset="0" style="stop-color:#FFFFFF"/>
			<stop  offset="1" style="stop-color:#C9C9C9"/>
		</linearGradient>
		<path fill="url(#SVGID_2_)" d="M48.242,43.177L30.728,29.153v8.864H7.755v10.317h22.973V57.2L48.242,43.177z M9.162,47.068v-3.892
			v-3.892h22.973v-7.312l13.992,11.203L32.134,54.38v-7.312H9.162z"/>
	</g>
	<rect x="0" y="0.188" fill="none" width="107.354" height="83.446"/>
</g>
</svg>
