<?xml version="1.0" encoding="utf-8"?>
<!-- Generator: Adobe Illustrator 16.0.0, SVG Export Plug-In . SVG Version: 6.00 Build 0)  -->
<!DOCTYPE svg PUBLIC "-//W3C//DTD SVG 1.1//EN" "http://www.w3.org/Graphics/SVG/1.1/DTD/svg11.dtd">
<svg version="1.1" id="Layer_1" xmlns="http://www.w3.org/2000/svg" xmlns:xlink="http://www.w3.org/1999/xlink" x="0px" y="0px"
	 width="68.354px" height="51.926px" viewBox="0 0 68.354 51.926" enable-background="new 0 0 68.354 51.926" xml:space="preserve">
<g opacity="0.6">
	<path fill="#FFFFFF" d="M53.477,13.62V6.84H21.608l-0.227,0.474c-0.429,0.9-1.306,1.457-2.289,1.457s-1.86-0.554-2.287-1.457
		L16.575,6.84H3.997v33.264h12.586l0.184-0.59c0.332-1.073,1.302-1.795,2.415-1.795c1.114,0,2.084,0.722,2.414,1.795l0.184,0.59
		h14.73c2.947,3.064,7.078,4.981,11.655,4.981c8.927,0,16.19-7.262,16.19-16.188C64.356,21.832,59.798,15.826,53.477,13.62z
		 M35.696,21.085c0.728-1.165,1.604-2.213,2.621-3.127c-0.51,0.99-0.9,2.084-1.162,3.266C36.674,21.202,36.186,21.155,35.696,21.085
		z M46.172,14.291c1.354-0.188,2.736-0.187,4.094,0.006c-0.264,0.425-0.543,0.83-0.835,1.21
		C48.361,14.947,47.269,14.541,46.172,14.291z M40.237,32.307c-1.39-3.084-1.997-6.438-1.717-9.48
		c1.849-0.085,3.657-0.482,5.38-1.179l4.006,8.595C45.381,31.336,42.74,32.045,40.237,32.307z M45.421,20.937
		c1.641-0.865,3.104-1.992,4.356-3.356c2.509,1.744,4.686,4.366,6.156,7.412c-1.801,1.74-4.043,3.306-6.505,4.543L45.421,20.937z
		 M48.813,32.193l3.108,6.673c-1.682,0.71-3.405,1.202-5.123,1.464c-2.175-1.462-4.087-3.553-5.549-6.062
		C43.765,33.971,46.309,33.274,48.813,32.193z M56.784,27.03c0.979,2.732,1.35,5.545,1.071,8.156
		c-1.304,1.143-2.785,2.141-4.411,2.97l-3.108-6.672C52.777,30.262,54.944,28.765,56.784,27.03z M57.24,23.621
		c-1.587-3.049-3.797-5.563-6.418-7.293c0.407-0.541,0.78-1.107,1.117-1.694c3.098,0.815,5.871,2.634,7.845,5.141
		C59.181,21.08,58.326,22.372,57.24,23.621z M44.741,19.473l-1.95-4.181c1.805-0.057,3.745,0.434,5.591,1.431
		C47.326,17.821,46.104,18.745,44.741,19.473z M38.76,21.204c0.427-2.067,1.287-3.856,2.506-5.205l1.952,4.184
		C41.778,20.76,40.281,21.102,38.76,21.204z M38.342,32.42c-1.659,0.02-3.203-0.148-4.573-0.518
		c-0.65-3.126-0.257-6.425,1.112-9.321c0.665,0.119,1.338,0.199,2.009,0.233C36.527,25.933,37.027,29.242,38.342,32.42z
		 M39.286,34.412c1.304,2.433,3.038,4.542,5.036,6.142c-2.563,0.035-4.912-0.463-6.783-1.478c-1.113-1.167-2.023-2.497-2.7-3.952
		c-0.173-0.37-0.333-0.759-0.486-1.179C35.856,34.308,37.517,34.465,39.286,34.412z M46.468,42.016
		c1.234,0.701,2.489,1.199,3.746,1.487c-0.662,0.092-1.332,0.137-1.999,0.137c-2.523,0-4.971-0.636-7.154-1.847
		C42.756,42.136,44.6,42.215,46.468,42.016z M52.631,40.389l0.985,2.115c-1.519,0.032-3.054-0.265-4.589-0.934
		C50.252,41.282,51.463,40.884,52.631,40.389z M57.367,37.69c-0.472,1.591-1.235,2.992-2.23,4.1l-0.983-2.11
		C55.305,39.089,56.384,38.422,57.367,37.69z M62.668,31.733c-0.616,3.122-2.23,5.979-4.584,8.106
		c0.594-1.151,1.021-2.438,1.273-3.836C60.715,34.696,61.842,33.24,62.668,31.733z M59.618,33.434
		c0.06-2.562-0.44-5.248-1.464-7.813c1.177-1.315,2.124-2.689,2.818-4.091c0.219,0.376,0.417,0.758,0.594,1.139
		c0.681,1.457,1.115,3.012,1.292,4.621C62.424,29.39,61.309,31.504,59.618,33.434z M22.963,38.43c-0.69-1.449-2.144-2.38-3.779-2.38
		c-1.637,0-3.089,0.931-3.782,2.38H5.669V8.511h9.893c0.77,1.187,2.104,1.934,3.532,1.934c1.45,0,2.761-0.729,3.534-1.934h29.178
		v4.625c-1.173-0.272-2.387-0.429-3.641-0.429c-8.927,0-16.19,7.263-16.19,16.19c0,3.565,1.174,6.856,3.135,9.533H22.963z"/>
	<path fill="#FFFFFF" d="M18.922,30.324c-0.8,0-1.447,0.653-1.447,1.45c0.002,0.806,0.65,1.452,1.447,1.452
		c0.801,0,1.45-0.646,1.45-1.452C20.372,30.974,19.724,30.324,18.922,30.324z"/>
	<circle fill="#FFFFFF" cx="18.922" cy="25.997" r="1.451"/>
	<circle fill="#FFFFFF" cx="18.922" cy="20.22" r="1.447"/>
	<circle fill="#FFFFFF" cx="18.922" cy="14.448" r="1.449"/>
</g>
<rect x="0" fill="none" width="68.354" height="51.926"/>
</svg>
