<?xml version="1.0" encoding="utf-8"?>
<!-- Generator: Adobe Illustrator 16.0.0, SVG Export Plug-In . SVG Version: 6.00 Build 0)  -->
<!DOCTYPE svg PUBLIC "-//W3C//DTD SVG 1.1//EN" "http://www.w3.org/Graphics/SVG/1.1/DTD/svg11.dtd">
<svg version="1.1" id="Layer_1" xmlns="http://www.w3.org/2000/svg" xmlns:xlink="http://www.w3.org/1999/xlink" x="0px" y="0px"
	 width="776.921px" height="310.768px" viewBox="0 0 776.921 310.768" enable-background="new 0 0 776.921 310.768"
	 xml:space="preserve">
<g>
	<defs>
		<rect id="SVGID_1_" width="776.921" height="310.768"/>
	</defs>
	<clipPath id="SVGID_2_">
		<use xlink:href="#SVGID_1_"  overflow="visible"/>
	</clipPath>
	<path clip-path="url(#SVGID_2_)" fill="#FFFFFF" d="M377.761,169.359c1.906,0.079,6.027,0.205,12.366,0.29
		c6.339,0.117,12.649,2.062,18.959,5.92c6.28,3.879,9.42,8.031,9.42,12.5c-0.108,1.441-0.604,3.124-1.54,5.097
		c-0.854,1.935-2.763,3.18-5.616,3.629c-1.757,0.364-3.304,0.264-4.703-0.373c-1.431-0.612-2.462-1.09-2.995-1.456
		c-0.584-0.447-4.008-3.43-10.239-9.107c-6.277-5.669-12.326-9.579-18.236-11.782l-5.987-2.007c-0.973-0.29-1.45-0.532-1.487-0.725
		c-0.061-0.168-0.061-0.353,0.077-0.558c0-0.679,0.438-1.021,1.41-1.138L377.761,169.359z M370.044,81.874h-3.579
		c-7.722,7.826-15.058,13.999-21.987,18.585l-4.192,2.726c-1.159,0.747-1.897,1.049-2.334,0.912
		c-0.41-0.135-0.661-0.318-0.682-0.563c-0.107-0.251,0.291-0.808,1.071-1.674l1.945-2.401c4.978-5.997,8.875-11.861,11.672-17.653
		c2.833-5.766,4.708-9.906,5.629-12.344l1.594-4.445l0.569-2.585c0.095-0.08,0.318-0.263,0.707-0.45
		c0.379-0.058,0.981-0.006,1.808,0.177c0.807,0.193,2.218,0.456,4.261,0.719c2.038,0.251,5.177,0.991,9.301,2.139
		c4.154,1.129,6.28,2.282,6.388,3.411c0,1.169-1.646,2.163-4.88,3.017c-2.674,2.664-5.415,5.326-8.306,7.972h34.166l3.451-5.115
		c0.854-1.227,1.542-1.906,2.203-2.022c0.646-0.049,1.955,0.398,4.069,1.505c2.107,1.111,5.06,3.026,8.941,5.758
		c3.858,2.719,5.412,4.549,4.654,5.549c-0.796,1.001-1.625,1.554-2.595,1.652l-3.975-0.156c-2.707,0-6.011,0.897-9.93,2.634
		c-3.98,1.769-6.529,3.005-7.667,3.653l-3.151,2.007c-0.379,0.303-0.701,0.41-0.915,0.37c-0.26-0.058-0.477-0.128-0.648-0.226
		c-0.204-0.064-0.302-0.3-0.349-0.563c-0.049-0.291,0.376-1.138,1.358-2.564l1.542-2.441c1.248-1.918,2.656-4.415,4.164-7.584
		h-15.844c-0.39,1.236-1.099,2.441-2.16,3.567c2.628,4.522,4.705,7.428,6.124,8.802c1.469,1.38,4.706,3.769,9.802,7.134
		c5.073,3.402,12.966,5.452,23.515,6.22l3.741,0.293c0.178,0.104,0.39,0.456,0.615,1.022c0.251,0.542-0.085,0.979-1.092,1.279
		l-3.968,1.557c-0.766,0.285-2.292,1.423-4.537,3.375c-2.188,1.933-3.841,3.937-4.821,5.969c-0.989,2.067-1.558,3.041-1.662,2.964
		l-3.414-1.001c-7.737-3.83-13.219-7.847-16.429-12.016c-3.236-4.21-5.259-7.689-6.008-10.43l-2.175-6.718l-1.411-5.736
		c-2.166,7.339-4.852,13.451-8.027,18.304c-3.142,4.87-8.248,8.254-15.441,10.16c-7.116,1.915-11.977,2.986-14.59,3.286l-5.807,0.7
		c-1.349,0.202-2.371,0.272-3.129,0.232c-0.796-0.079-1.245-0.281-1.389-0.66c-0.156-0.376-0.08-0.701,0.214-1.001l2.01-0.556
		l6.012-2.166c3.692-1.313,7.862-3.858,12.472-7.542c4.626-3.735,7.747-7.856,9.435-12.396
		C368.051,91.994,369.284,87.133,370.044,81.874 M312.622,63.441c3.686,0.389,6.761,0.955,9.26,1.646
		c2.482,0.707,4.424,2.166,5.951,4.375c1.447,2.175,2.141,4.323,2.025,6.397c-0.159,2.319-0.967,4.179-2.356,5.666
		c-1.358,1.496-2.646,2.429-3.772,2.79c-1.526,0.487-3.074,0.487-4.561,0.098c-1.524-0.437-2.683-1.004-3.519-1.683
		c-0.813-0.66-1.395-2.297-1.786-4.986c-0.371-2.665-0.777-4.901-1.218-6.66c-0.437-1.79-1.438-3.063-2.998-3.941
		c-1.569-0.814-2.481-1.38-2.717-1.67c-0.22-0.175-0.367-0.563-0.428-1.028c-0.012-0.487,0.719-0.771,2.371-0.875L312.622,63.441z
		 M371.162,140.622c-0.156,2.585-0.37,4.782-0.563,6.63c-0.177,1.887-0.538,4.84-1.043,8.954c-0.545,4.082-1.162,7.774-1.854,11.004
		c-0.771,3.225-2.42,6.776-5.106,10.647c-2.643,3.854-8.147,7.736-16.429,11.652c-8.312,3.897-18.267,5.718-30.039,5.455
		l-8.263-0.187c-0.661,0-1.12-0.031-1.426-0.046c-0.276-0.08-0.53-0.215-0.713-0.355c-0.183-0.189-0.205-0.425-0.098-0.636
		c0.187-0.264,1.013-0.557,2.518-0.955l4.852-1c0.768-0.089,2.383-0.585,4.88-1.401l8.856-2.869
		c11.149-4.306,18.026-9.031,20.648-14.171c2.625-5.144,4.201-8.75,4.705-10.946c0.527-2.139,0.991-5.174,1.432-9.108
		c0.447-3.986,0.639-6.963,0.639-8.958l-0.116-7.979l-0.174-3.432c0.125-0.098,0.419-0.272,0.902-0.447
		c0.45-0.089,1.089-0.067,1.897,0.08c0.804,0.113,3.956,0.367,9.469,0.648c5.47,0.273,8.352,1.42,8.615,3.442
		C374.867,137.48,373.658,138.805,371.162,140.622 M324.751,118.289l14.844,5.767h48.013l3.16-4.451
		c0.438-0.683,1.001-1.01,1.653-1.12c0.613-0.135,1.413,0.049,2.419,0.486c1.024,0.407,3.644,1.469,7.896,3.152
		c4.183,1.651,6.388,3.166,6.485,4.488c0,1.073-1.177,2.276-3.472,3.726v21.736l0.468,12.718c-1.713,3.148-5.933,4.531-12.562,4.13
		c-1.446,0-2.496-0.186-3.11-0.495c-0.609-0.321-1.104-0.799-1.509-1.361l0.729-14.562V126.76h-51.883v30.447l0.459,12.152
		c-1.194,3.432-5.064,5.035-11.764,4.852c-1.603,0-2.683-0.158-3.295-0.526c-0.544-0.321-1.031-0.746-1.401-1.353l0.576-16.293
		v-22.259l-0.42-13.718c-1.798,1.982-3.821,3.178-6.008,3.557c-2.402,0.572-4.822,0.322-7.3-0.728
		c-2.469-1.034-3.763-2.413-3.8-4.151c-0.048-1.683,0.172-3.13,0.661-4.277l1.417-3.423c0.673-1.916,0.991-3.62,0.991-5.162
		c-0.086-1.33-0.407-2.419-0.912-3.267c-0.523-0.866-1.272-2.041-2.218-3.579l-1.45-2.001c-0.183-0.303-0.183-0.603,0-0.943
		c0.187-0.33,0.618-0.379,1.297-0.214l1.848,0.729l2.864,1.572c1.049,0.566,2.117,0.753,3.194,0.566
		c2.609-0.379,12.987-8.165,30.979-23.281l3.557-2.993c0.894-0.7,1.488-0.847,1.879-0.52c0.358,0.334,0.542,0.576,0.483,0.799
		c-0.058,0.165-0.125,0.342-0.198,0.553l-3.99,4.58c-12.543,14.293-19.277,22.701-20.387,25.228
		c-1.129,2.539-1.662,4.313-1.662,5.366c-0.079,0.651,0.05,2.022,0.447,4.075c0.398,2.049,0.419,3.392,0.165,4.072l-0.612,1.306
		L324.751,118.289z"/>
	<path clip-path="url(#SVGID_2_)" fill="#FFFFFF" d="M580.631,88.864c-0.079-0.67-0.798-1.539-2.061-2.521
		c-1.291-0.979-4.865-3.001-10.653-6.06c-2.402-1.141-3.996-1.579-4.754-1.27c-0.845,0.266-2.598,2.567-5.428,6.972h-19.559
		l-12.589-5.121c-2.558-0.973-3.959-1.401-4.143-1.306c-0.187,0.101-0.379,0.266-0.544,0.44l0.878,17.304l0.095,69.869
		l-0.973,15.456c0.263,0.855,0.728,1.557,1.343,2.07c0.63,0.535,1.691,0.76,3.206,0.76c0.856,0.125,2.656,0,5.455-0.251
		c2.771-0.304,4.441-0.937,5.154-1.892c0.649-0.951,0.982-2.096,0.982-3.408v-13.735h22.443v10.001c0,2.486,1.615,3.78,4.834,3.899
		c2.486,0.185,5.005-0.214,7.667-1.098c2.648-0.937,4.289-2.298,5.057-4.21l-0.817-14.177V94.145
		C579.261,92.064,580.717,90.293,580.631,88.864 M450.148,112.293l6.721-0.447h16.135c-1.816,8.107-3.683,14.914-5.549,20.396
		c-1.946,5.483-4.308,11.403-7.188,17.8c-2.856,6.397-6.214,12.531-10.119,18.42l-2.992,4.583c-0.598,0.742-0.713,1.349-0.334,1.796
		c0.397,0.419,0.936,0.357,1.585-0.214l3.86-3.329c8.597-7.578,16.866-16.358,24.886-26.292v30.622l-1.148,17.304
		c0.499,1.021,1.148,1.802,1.949,2.257c0.805,0.468,2.117,0.701,3.897,0.572c5.728,0,9.043-0.572,9.915-1.691
		c0.921-1.138,1.527-2.169,1.817-3.005l-0.857-14.745v-44.581l3.571,2.72c1.515,1.061,2.594,3.034,3.308,5.98
		c0.64,2.962,1.058,5.89,1.232,8.836c0.076,2.879,0.514,4.941,1.193,6.125c0.664,1.174,1.856,2.071,3.561,2.621
		c1.701,0.683,3.576,0.741,5.586,0.169c1.995-0.554,3.822-1.732,5.541-3.445c1.735-1.71,2.628-4.139,2.714-7.269
		c0-2.325-0.979-5.017-3.002-8.147c-1.973-3.157-5.219-5.455-9.646-6.871c-4.424-1.42-9.107-2.598-14.059-3.598v-17.013h25.454
		c0.946,0,1.536-0.303,1.721-0.973c0.174-0.682-1.206-2.402-4.17-5.228c-2.929-2.793-4.966-4.629-6.01-5.513
		c-1.446-1.04-2.651-1.499-3.705-1.42c-1.04,0.116-3.753,3.546-8.146,10.46h-5.144V87.726l2.296-1
		c3.325-0.777,2.298-2.353-3.148-4.733c7.018-0.74,13.28-1.334,18.714-1.71l4.277-0.285c1.854-0.107,2.859-0.44,3.081-0.985
		c0.234-0.581,0.039-1.135-0.649-1.64c-0.655-0.547-2.499-2.022-5.574-4.463c-3.022-2.402-5.706-4.394-7.96-5.844
		c-2.307-1.496-3.518-2.294-3.635-2.371c-1.683-1.334-2.958-1.777-3.83-1.294l-1.848,1.441l-3.757,2.451
		c-3.302,2.196-8.506,4.782-15.627,7.844c-7.11,3.062-14.202,5.522-21.369,7.407l-6.875,1.878c-0.379,0.107-0.594,0.474-0.709,1.138
		c-0.077,0.67,0.33,0.912,1.314,0.719l6.862-0.719c2.653-0.174,5.853-0.41,9.557-0.701c3.725-0.293,6.224-0.516,7.456-0.663
		c1.236-0.126,3.191-0.416,5.851-0.912v25.888h-20.726l-10.163-0.74L450.148,112.293z M537.042,88.727h22.443v74.74h-22.443V88.727z
		"/>
	<path clip-path="url(#SVGID_2_)" fill="#FFFFFF" d="M646.869,133.225l3.17,3.885l5.861-0.572h57.724c0.474,0,0.942-0.38,1.41-1.099
		c0.496-0.697-2.441-3.83-8.67-9.361c-1.468-1.12-2.764-1.652-3.968-1.554c-1.193,0.064-4.121,3.185-8.769,9.264h-39.425
		L646.869,133.225z M646.297,114.927l3.143,3.879l5.752-0.456h57.866c0.674,0,1.199-0.41,1.566-1.294
		c0.392-0.835-3.05-4.314-10.294-10.414c-1.475-1.144-2.739-1.652-3.72-1.573c-0.943,0.089-3.794,3.62-8.563,10.58H653.45
		L646.297,114.927z M698.753,189.832c0,1.634,0.244,2.78,0.804,3.5c0.509,0.737,1.83,1.079,3.922,1.079
		c1.668,0.086,3.748-0.106,6.089-0.565c2.327-0.492,3.784-1.099,4.405-1.809c0.612-0.728,1.062-1.749,1.37-3.05l-0.593-9.178
		v-21.262c3.267-1.836,4.941-3.344,5.014-4.599c0-0.562-2.206-2.419-6.567-5.647c-4.397-3.179-7.64-4.589-9.718-4.21
		c-1.703,0.361-3.783,2.858-6.154,7.438h-34.855l-13.596-7.019c-1.612-0.758-2.479-1.11-2.643-1.043
		c-0.127,0.049-0.236,0.15-0.344,0.343l0.41,13.287v22.877l-0.41,11.598c0,0.915,0.217,1.781,0.644,2.527
		c0.431,0.759,1.856,1.187,4.355,1.187c1.43,0.067,3.556-0.214,6.446-0.875c2.824-0.67,4.28-2.248,4.28-4.704v-5.59h37.141V189.832z
		 M638.175,76.477c2.845-0.661,4.457-1.361,4.827-2.148c0.508-1.116-0.242-2.352-2.187-3.634c-1.943-1.264-3.782-2.267-5.489-2.879
		c-1.713-0.572-3.94-1.545-6.571-2.76c-2.695-1.226-4.742-1.955-6.165-2.147c-0.755,0-1.196,0.036-1.277,0.144l-0.316,1.535
		l-0.96,4.901c-1.062,5.036-4.112,13.853-9.175,26.421c-5.045,12.58-10.108,23.08-15.122,31.477l-3.152,5.146
		c-0.593,1.129-0.654,1.888-0.22,2.273c0.453,0.389,1.04,0.165,1.787-0.584l3.867-3.564c1.884-1.713,7-7.44,15.289-17.169v60.731
		l-1.021,16.915c0.134,1.312,0.428,2.303,1.021,2.964c0.582,0.679,3.002,0.973,7.288,0.866c4.277-0.107,6.745-0.686,7.416-1.78
		c0.68-1.099,1.04-2.283,1.147-3.479l-0.845-15.605v-72.17c2.09-1.325,3.068-2.521,3.005-3.571c-0.12,0-1.441-1.107-4.026-3.301
		C632.952,85.315,636.556,79.163,638.175,76.477 M664.87,63.897c-1.964-0.38-2.817-0.107-2.487,0.789
		c0.35,0.915,1.04,1.799,2.1,2.643c1.061,0.857,1.944,1.965,2.7,3.366c0.763,1.38,1.245,3.451,1.421,6.232l0.155,7.969
		c0.184,2.411,0.924,4.32,2.185,5.736c1.315,1.448,3.453,2.157,6.535,2.157c2.808,0.08,5.296-0.795,7.336-2.661
		c2.062-1.818,3.205-5.648,3.509-11.424c0.282-5.754-6.415-10.45-20.127-14.116L664.87,63.897z M633.041,94.912l3.148,3.886
		l5.843-0.438h83.465c0.661,0,1.169-0.434,1.542-1.3c0.398-0.838-3.071-4.375-10.411-10.588c-1.428-1.157-2.677-1.671-3.802-1.613
		c-1.081,0.037-3.886,3.586-8.368,10.635h-64.117L633.041,94.912z M661.612,154.405h37.14v26.812h-37.14V154.405z"/>
	<path clip-path="url(#SVGID_2_)" fill="#FFFFFF" d="M319.761,232.849c3.687,0,6.548-0.934,8.741-2.79
		c2.129-1.876,3.249-4.421,3.249-7.639c0-2.479-0.741-4.425-2.2-5.786c-0.777-0.749-1.652-1.196-2.652-1.41
		c-1.019-0.272-2.665-0.41-4.996-0.41h-10.919v1.276h0.291c1.294,0,2.138,0.241,2.57,0.759c0.41,0.517,0.59,1.575,0.59,3.224v20.293
		c0,1.652-0.18,2.729-0.59,3.225c-0.432,0.548-1.276,0.79-2.57,0.79h-0.291v1.254h11.305v-1.254h-0.854
		c-1.371,0-2.233-0.242-2.594-0.729c-0.429-0.471-0.594-1.575-0.594-3.285v-7.517H319.761z M318.248,216.09h1.937
		c2.722,0,4.625,0.534,5.782,1.585c1.089,1.021,1.67,2.819,1.67,5.316c0,2.836-0.691,4.978-2.077,6.452
		c-1.374,1.413-3.472,2.151-6.205,2.151h-1.107V216.09z"/>
	<path clip-path="url(#SVGID_2_)" fill="#FFFFFF" d="M345.265,231.032l8.33,14.603h5.648v-1.254h-0.245
		c-0.627,0-1.263-0.331-1.817-0.992c-0.575-0.614-1.484-2.022-2.79-4.183l-1.934-3.307c-1.236-2.108-2.138-3.466-2.643-4.072
		c-0.499-0.608-1.12-1.162-1.964-1.707c2.322-0.887,3.992-2.053,5.192-3.54c1.116-1.548,1.691-3.334,1.691-5.463
		c0-2.312-0.731-3.923-2.166-4.871c-1.395-0.941-3.854-1.432-7.302-1.432h-10.94v1.276h0.296c1.291,0,2.175,0.241,2.543,0.759
		c0.468,0.517,0.642,1.575,0.642,3.224v20.293c0,1.652-0.174,2.729-0.642,3.255c-0.368,0.518-1.252,0.76-2.543,0.76h-0.296v1.254
		h10.646v-1.254h-0.147c-1.34,0-2.227-0.264-2.613-0.79c-0.379-0.504-0.602-1.612-0.602-3.225v-9.334H345.265z M341.609,216.09
		h1.572c2.665,0,4.574,0.456,5.777,1.377c1.214,0.917,1.798,2.413,1.798,4.436c0,1.985-0.428,3.646-1.294,5.045
		c-0.893,1.361-2.098,2.312-3.701,2.839h-4.152V216.09z"/>
	<path clip-path="url(#SVGID_2_)" fill="#FFFFFF" d="M385.005,241.968c2.604-3.004,3.919-6.96,3.919-11.726
		c0-2.46-0.419-4.843-1.315-7.134c-0.873-2.283-2.05-4.158-3.565-5.671c-2.346-2.321-5.338-3.478-9.013-3.478
		c-4.09,0-7.391,1.487-10.004,4.577c-2.588,3.025-3.888,6.923-3.888,11.705c0,4.766,1.3,8.722,3.888,11.726
		c2.613,3.061,5.914,4.586,10.004,4.586C379.083,246.554,382.46,245.029,385.005,241.968 M368.146,241.073
		c-1.759-2.818-2.64-6.425-2.64-10.83c0-4.384,0.881-7.97,2.701-10.81c1.768-2.808,4.091-4.213,6.853-4.213
		c2.738,0,5.036,1.405,6.832,4.213c1.762,2.84,2.646,6.426,2.646,10.81c0,4.405-0.884,8.012-2.646,10.83
		c-1.796,2.812-4.094,4.219-6.832,4.219C372.241,245.292,369.965,243.884,368.146,241.073"/>
	<path clip-path="url(#SVGID_2_)" fill="#FFFFFF" d="M400.764,232.849c3.685,0,6.581-0.934,8.753-2.79
		c2.157-1.876,3.233-4.421,3.233-7.639c0-2.479-0.719-4.425-2.178-5.786c-0.769-0.749-1.673-1.196-2.644-1.41
		c-1.01-0.272-2.674-0.41-5.008-0.41h-10.907v1.276h0.251c1.331,0,2.16,0.241,2.576,0.759c0.419,0.517,0.636,1.575,0.636,3.224
		v20.293c0,1.652-0.217,2.729-0.636,3.225c-0.416,0.548-1.245,0.79-2.576,0.79h-0.251v1.254h11.317v-1.254h-0.906
		c-1.321,0-2.239-0.242-2.588-0.729c-0.397-0.471-0.572-1.575-0.572-3.285v-7.517H400.764z M399.265,216.09h1.928
		c2.737,0,4.655,0.534,5.792,1.585c1.118,1.021,1.693,2.819,1.693,5.316c0,2.836-0.703,4.978-2.083,6.452
		c-1.38,1.413-3.479,2.151-6.229,2.151h-1.102V216.09z"/>
	<path clip-path="url(#SVGID_2_)" fill="#FFFFFF" d="M422.629,230.081v10.41c0,1.364,0.502,2.282,1.527,2.827
		c1.116,0.554,2.973,0.798,5.675,0.798h0.771c1.152,0,2.027-0.309,2.594-0.933c0.551-0.621,0.918-1.719,1.181-3.338l0.073-0.367
		h1.456l-0.572,6.703c-2.41-0.15-4.173-0.257-5.355-0.257c-1.256,0-2.705-0.052-4.385-0.156c-1.625-0.106-2.601-0.134-2.965-0.134
		h-7.303v-1.255h0.367c1.227,0,2.065-0.264,2.49-0.829c0.429-0.521,0.643-1.581,0.643-3.186v-20.288
		c0-1.692-0.193-2.755-0.599-3.259c-0.424-0.483-1.262-0.728-2.534-0.728h-0.367v-1.276h19.283l0.579,5.678h-1.46l-0.067-0.415
		c-0.254-1.711-0.731-2.781-1.401-3.134c-0.71-0.425-2.582-0.608-5.599-0.608h-4.032v12.513h4.412c1.991,0,3.273-0.168,3.83-0.538
		c0.544-0.349,0.807-1.197,0.807-2.497v-0.33h1.47v7.979h-1.47v-0.273c0-1.192-0.214-2.001-0.719-2.496
		c-0.342-0.389-1.655-0.611-3.918-0.611H422.629z"/>
	<path clip-path="url(#SVGID_2_)" fill="#FFFFFF" d="M449.652,231.032l8.321,14.603h5.669v-1.254h-0.215
		c-0.679,0-1.303-0.331-1.884-0.992c-0.554-0.614-1.499-2.022-2.763-4.183l-1.964-3.307c-1.273-2.108-2.108-3.466-2.604-4.072
		c-0.517-0.608-1.166-1.162-1.946-1.707c2.273-0.887,3.969-2.053,5.112-3.54c1.15-1.548,1.729-3.334,1.729-5.463
		c0-2.312-0.695-3.923-2.118-4.871c-1.456-0.941-3.897-1.432-7.367-1.432h-10.946v1.276h0.3c1.322,0,2.179,0.241,2.576,0.759
		c0.432,0.517,0.644,1.575,0.644,3.224v20.293c0,1.652-0.212,2.729-0.644,3.255c-0.397,0.518-1.254,0.76-2.576,0.76h-0.3v1.254
		h10.674v-1.254h-0.183c-1.294,0-2.16-0.264-2.61-0.79c-0.388-0.504-0.63-1.612-0.63-3.225v-9.334H449.652z M445.929,216.09h1.606
		c2.691,0,4.617,0.456,5.812,1.377c1.233,0.917,1.786,2.413,1.786,4.436c0,1.985-0.406,3.646-1.309,5.045
		c-0.881,1.361-2.111,2.312-3.724,2.839h-4.173V216.09z"/>
	<path clip-path="url(#SVGID_2_)" fill="#FFFFFF" d="M475.571,216.332h-2.995c-2.236,0-3.776,0.321-4.656,0.964
		c-0.836,0.639-1.392,1.887-1.68,3.711l-0.04,0.44h-1.49l0.683-7.195c3.285,0.397,6.657,0.563,10.179,0.563h3.965
		c3.529,0,6.914-0.166,10.169-0.563l0.747,7.195h-1.516l-0.049-0.44c-0.281-1.824-0.844-3.072-1.71-3.711
		c-0.884-0.643-2.408-0.964-4.656-0.964h-2.985v24.034c0,1.68,0.223,2.729,0.719,3.252c0.486,0.52,1.526,0.762,3.016,0.762h0.294
		v1.254h-12.048v-1.254h0.312c1.523,0,2.576-0.242,3.06-0.762c0.45-0.523,0.683-1.572,0.683-3.252V216.332z"/>
	<path clip-path="url(#SVGID_2_)" fill="#FFFFFF" d="M501.75,231.167l-6.211-11.139c-1.469-2.65-2.86-3.938-4.143-3.938h-0.281
		v-1.273h9.273v1.273H500c-0.912,0-1.335,0.321-1.335,0.982c0,0.621,0.361,1.584,1.12,2.961l5.144,9.315l4.852-9.38
		c0.691-1.362,1.031-2.267,1.031-2.674c0-0.719-0.477-1.129-1.49-1.205h-0.474v-1.273h7.039v1.273h-0.379
		c-0.924,0-1.631,0.211-2.09,0.66c-0.509,0.45-1.168,1.545-2.093,3.283l-5.775,11.133v9.199c0,1.651,0.237,2.729,0.713,3.256
		c0.446,0.517,1.496,0.758,3.013,0.758h0.291v1.254h-11.861v-1.254h0.264c1.584,0,2.616-0.241,3.081-0.758
		c0.474-0.527,0.7-1.604,0.7-3.256V231.167z"/>
	<path clip-path="url(#SVGID_2_)" fill="#FFFFFF" d="M547.101,241.919c-1.856,1.732-3.694,2.625-5.54,2.625
		c-2.093,0-3.87-0.875-5.326-2.566c-1.453-1.662-2.218-3.724-2.218-6.085c0-3.724,1.566-6.574,4.727-8.548
		C540.833,233.036,543.61,237.913,547.101,241.919 M553.984,246.554c1.817,0,3.687-0.67,5.568-2.01v-1.129
		c-1.104,0.456-2.126,0.634-3.062,0.634c-1.467,0-3.52-1.429-6.044-4.277c2.448-2.743,4.149-5.735,4.947-8.964h4.207l1.159-3.179
		h-10.313l-0.81,2.439h0.205c0.78,0,1.361,0.186,1.817,0.73c0.445,0.483,0.682,1.116,0.682,1.875c0,1.524-0.927,3.626-2.704,6.296
		c-2.763-3.389-5.152-7.676-7.27-12.817c4.938-1.772,7.435-4.144,7.435-7.059c0-1.44-0.591-2.683-1.75-3.656
		c-1.193-0.987-2.613-1.478-4.323-1.478c-1.964,0-3.58,0.621-4.883,1.856c-1.271,1.256-1.912,2.8-1.912,4.728
		c0,1.358,0.493,3.225,1.408,5.608c-2.61,1.379-4.62,3.004-6.037,4.928c-1.388,1.955-2.092,4.014-2.092,6.281
		c0,2.671,0.887,4.87,2.655,6.59c1.79,1.713,4.035,2.603,6.765,2.603c2.89,0,5.681-1.263,8.263-3.781
		C550.111,245.292,552.128,246.554,553.984,246.554 M541.824,224.564c-0.731-2.331-1.099-4.062-1.099-5.229
		c0-1.165,0.299-2.141,0.881-2.924c0.615-0.796,1.304-1.188,2.147-1.188c0.82,0,1.49,0.284,2.025,0.963
		c0.555,0.68,0.805,1.516,0.805,2.497c0,2.684-1.526,4.754-4.625,6.343C541.882,224.779,541.854,224.634,541.824,224.564"/>
	<path clip-path="url(#SVGID_2_)" fill="#FFFFFF" d="M598.838,245.009c-3.081,1.022-5.976,1.545-8.621,1.545
		c-4.402,0-7.856-1.475-10.46-4.41c-2.576-2.975-3.876-6.902-3.876-11.947c0-4.901,1.3-8.829,3.845-11.812
		c2.558-2.945,5.948-4.424,10.173-4.424c3.127,0,6.024,0.407,8.658,1.264l0.572,6.075h-1.447l-0.046-0.33
		c-0.331-1.848-1.103-3.268-2.411-4.268c-1.355-0.97-3.022-1.478-5.124-1.478c-2.928,0-5.281,1.397-7.188,4.188
		c-1.835,2.82-2.777,6.4-2.777,10.784c0,4.518,0.961,8.183,2.907,10.964c1.905,2.79,4.433,4.149,7.562,4.149
		c4.192,0,6.621-1.975,7.309-5.938l0.062-0.34h1.46L598.838,245.009z"/>
	<path clip-path="url(#SVGID_2_)" fill="#FFFFFF" d="M614.064,231.032l8.293,14.603h5.666v-1.254h-0.214
		c-0.701,0-1.285-0.331-1.875-0.992c-0.548-0.614-1.499-2.022-2.754-4.183l-1.961-3.307c-1.267-2.108-2.15-3.466-2.638-4.072
		c-0.485-0.608-1.146-1.162-1.964-1.707c2.304-0.887,4.008-2.053,5.152-3.54c1.129-1.548,1.704-3.334,1.704-5.463
		c0-2.312-0.673-3.923-2.12-4.871c-1.429-0.941-3.84-1.432-7.339-1.432h-10.947v1.276h0.3c1.334,0,2.179,0.241,2.576,0.759
		c0.428,0.517,0.593,1.575,0.593,3.224v20.293c0,1.652-0.165,2.729-0.593,3.255c-0.397,0.518-1.242,0.76-2.576,0.76h-0.3v1.254
		h10.656v-1.254h-0.135c-1.347,0-2.19-0.264-2.629-0.79c-0.396-0.504-0.59-1.612-0.59-3.225v-9.334H614.064z M610.371,216.09h1.582
		c2.661,0,4.567,0.456,5.803,1.377c1.219,0.917,1.809,2.413,1.809,4.436c0,1.985-0.446,3.646-1.349,5.045
		c-0.86,1.361-2.094,2.312-3.705,2.839h-4.14V216.09z"/>
	<path clip-path="url(#SVGID_2_)" fill="#FFFFFF" d="M637.055,230.081v10.41c0,1.364,0.555,2.282,1.612,2.827
		c1.052,0.554,2.906,0.798,5.62,0.798h0.78c1.175,0,2.038-0.309,2.586-0.933c0.581-0.621,0.969-1.719,1.214-3.338l0.049-0.367h1.438
		l-0.557,6.703c-2.429-0.15-4.179-0.257-5.348-0.257c-1.248,0-2.729-0.052-4.375-0.156c-1.627-0.106-2.631-0.134-2.989-0.134h-7.275
		v-1.255h0.322c1.245,0,2.102-0.264,2.521-0.829c0.434-0.521,0.61-1.581,0.61-3.186v-20.288c0-1.692-0.177-2.755-0.574-3.259
		c-0.398-0.483-1.255-0.728-2.558-0.728h-0.322v-1.276h19.241l0.572,5.678h-1.429l-0.08-0.415c-0.211-1.711-0.726-2.781-1.416-3.134
		c-0.689-0.425-2.549-0.608-5.58-0.608h-4.063v12.513h4.414c2.01,0,3.283-0.168,3.85-0.538c0.554-0.349,0.835-1.197,0.835-2.497
		v-0.33h1.469v7.979h-1.469v-0.273c0-1.192-0.232-2.001-0.706-2.496c-0.374-0.389-1.695-0.611-3.979-0.611H637.055z"/>
	<path clip-path="url(#SVGID_2_)" fill="#FFFFFF" d="M664.13,245.634c3.546,0,6.3-0.344,8.147-1.014
		c1.866-0.639,3.527-1.875,4.907-3.588c2.634-3.332,3.959-7.3,3.959-12.022c0-4.901-1.46-8.508-4.346-10.904
		c-1.739-1.257-3.358-2.102-4.882-2.539c-1.518-0.404-4.143-0.646-7.786-0.753h-10.82v1.276h0.379c1.267,0,2.107,0.241,2.49,0.759
		c0.397,0.477,0.627,1.575,0.627,3.224v20.293c0,1.652-0.229,2.729-0.627,3.255c-0.383,0.518-1.224,0.76-2.49,0.76h-0.379v1.254
		H664.13z M662.545,216.09c2.915,0,5.131,0.312,6.697,0.893c1.612,0.612,3.035,1.674,4.365,3.277
		c2.228,2.697,3.344,6.103,3.344,10.206c0,4.182-0.96,7.525-2.808,10.013c-1.836,2.493-4.259,3.726-7.333,3.726
		c-4.158,0-6.251-1.263-6.251-3.839V216.09H662.545z"/>
	<path clip-path="url(#SVGID_2_)" fill="#FFFFFF" d="M695.14,245.633h-10.76v-1.254h0.3c1.303,0,2.147-0.241,2.597-0.762
		c0.398-0.522,0.594-1.603,0.594-3.252v-20.293c0-1.649-0.195-2.71-0.594-3.224c-0.449-0.518-1.294-0.76-2.597-0.76h-0.3v-1.274
		h10.76v1.274h-0.282c-1.3,0-2.157,0.242-2.566,0.76c-0.446,0.514-0.623,1.574-0.623,3.224v20.293c0,1.612,0.177,2.72,0.623,3.224
		c0.409,0.527,1.267,0.79,2.566,0.79h0.282V245.633z"/>
	<path clip-path="url(#SVGID_2_)" fill="#FFFFFF" d="M708.295,216.332h-3.008c-2.252,0-3.791,0.321-4.656,0.964
		c-0.854,0.639-1.396,1.887-1.667,3.711l-0.07,0.44h-1.518l0.722-7.195c3.273,0.397,6.648,0.563,10.197,0.563h3.906
		c3.559,0,6.933-0.166,10.209-0.563l0.7,7.195h-1.468l-0.086-0.44c-0.263-1.824-0.801-3.072-1.686-3.711
		c-0.839-0.643-2.407-0.964-4.647-0.964h-3.022v24.034c0,1.68,0.241,2.729,0.749,3.252c0.466,0.52,1.459,0.762,3.032,0.762h0.272
		v1.254h-12.023v-1.254h0.251c1.576,0,2.616-0.242,3.1-0.762c0.477-0.523,0.713-1.572,0.713-3.252V216.332z"/>
	<path clip-path="url(#SVGID_2_)" fill="#FFFFFF" d="M163.968,241.366c31.622-16.637,48.142-51.464,37.823-85.23
		c-6.299-20.696-28.027-33.545-50.51-30.991v22.875c12.559-2.616,25.616,3.897,28.911,14.718c1.41,4.482,2.071,9.062,2.071,13.66
		c0,8.04-1.86,16.089-6.155,23.254c-14.046,23.233-34.898,32.175-50.179,36.862c-32.411-12.066-55.534-43.229-55.534-79.861
		c0-47.013,38.12-85.123,85.151-85.123h0.749c-37.501,14.309-58.31,52.508-47.049,89.382c6.308,20.696,28.057,33.548,50.531,30.963
		v-22.847c-12.589,2.576-25.61-3.919-28.917-14.709c-1.355-4.491-2.034-9.099-2.034-13.648c0-8.031,1.826-16.15,6.161-23.303
		c15.719-26.044,40.032-34.111,55.518-38.352c29.571,13.339,50.173,43.057,50.173,77.637
		C240.678,200.815,207.013,237.135,163.968,241.366 M155.546,50.959c-58.394,0-105.691,47.334-105.691,105.694
		c0,58.348,47.297,105.663,105.691,105.663c58.363,0,105.657-47.315,105.657-105.663C261.203,98.293,213.909,50.959,155.546,50.959"
		/>
</g>
</svg>
