<?xml version="1.0" encoding="utf-8"?>
<!-- Generator: Adobe Illustrator 16.0.0, SVG Export Plug-In . SVG Version: 6.00 Build 0)  -->
<!DOCTYPE svg PUBLIC "-//W3C//DTD SVG 1.1//EN" "http://www.w3.org/Graphics/SVG/1.1/DTD/svg11.dtd">
<svg version="1.1" id="Layer_1" xmlns="http://www.w3.org/2000/svg" xmlns:xlink="http://www.w3.org/1999/xlink" x="0px" y="0px"
	 width="68.354px" height="51.926px" viewBox="0 0 68.354 51.926" enable-background="new 0 0 68.354 51.926" xml:space="preserve">
<rect x="0" y="-0.001" fill="none" width="68.354" height="51.928"/>
<g opacity="0.6">
	<path fill="#FFFFFF" d="M51.677,12.43c0,9.021,0,18.044,0,27.066c-0.046,0.125-0.105,0.249-0.135,0.378
		c-0.402,1.744-1.477,2.858-3.171,3.394c-0.22,0.069-0.439,0.131-0.66,0.195c-9.023,0-18.045,0-27.067,0
		c-2.179-0.466-3.495-1.795-3.967-3.967c0-2.722,0-5.445,0-8.167c0.218,0.052,0.436,0.146,0.654,0.149
		c1.263,0.014,2.53,0.07,3.788-0.011c1.408-0.091,2.839-0.18,4.204-0.504c3.579-0.854,6.118-2.969,7.208-6.568
		c0.838-2.769,0.877-5.594,0.15-8.394c-0.883-3.397-3.033-5.676-6.369-6.762c-1.116-0.364-2.299-0.524-3.452-0.777
		c8.283,0,16.565,0,24.851,0c0.031,0.021,0.061,0.057,0.095,0.062c2.115,0.424,3.377,1.699,3.812,3.805
		C51.625,12.365,51.657,12.396,51.677,12.43z"/>
	<path fill-rule="evenodd" clip-rule="evenodd" fill="#FFFFFF" d="M16.677,14.529c0.235,0.056,0.47,0.154,0.706,0.16
		c1.531,0.038,3.066,0.01,4.596,0.091c2.47,0.133,3.833,1.438,3.993,3.886c0.074,1.13,0.048,2.292-0.14,3.405
		c-0.339,2.016-1.701,3.243-3.746,3.37c-1.797,0.11-3.606,0.043-5.409,0.055C16.677,21.841,16.677,18.185,16.677,14.529z"/>
</g>
</svg>
