<?xml version="1.0" encoding="utf-8"?>
<!-- Generator: Adobe Illustrator 16.0.0, SVG Export Plug-In . SVG Version: 6.00 Build 0)  -->
<!DOCTYPE svg PUBLIC "-//W3C//DTD SVG 1.1//EN" "http://www.w3.org/Graphics/SVG/1.1/DTD/svg11.dtd">
<svg version="1.1" id="Layer_1" xmlns="http://www.w3.org/2000/svg" xmlns:xlink="http://www.w3.org/1999/xlink" x="0px" y="0px"
	 width="68.354px" height="51.927px" viewBox="0 0 68.354 51.927" enable-background="new 0 0 68.354 51.927" xml:space="preserve">
<g>
	<g opacity="0.6">
		<path fill="#FFFFFF" d="M63.623,14.453H54.36c-1.549,0-2.844,0.999-3.154,2.326c-0.479-0.113-1.114-0.331-1.778-0.557
			c-1.143-0.393-2.438-0.838-3.731-1.053c-0.924-0.156-2.211-0.812-3.575-1.506c-2.02-1.028-4.308-2.191-6.553-2.385
			c-0.424-0.035-0.801-0.054-1.153-0.054c-2.301,0-3.436,0.752-5.696,2.248c-0.604,0.398-1.294,0.855-2.121,1.373
			c-0.898-0.326-1.757-0.486-2.615-0.486c-2.025,0-3.538,0.895-4.873,1.684c-0.704,0.416-1.337,0.789-1.932,0.958
			c-0.212-1.435-1.552-2.549-3.185-2.549H4.73c-1.78,0-3.228,1.318-3.228,2.938v15.341c0,1.619,1.447,2.935,3.228,2.935h9.263
			c1.373,0,2.541-0.787,3.006-1.889c1.514,0.123,3.794,0.965,7.892,4.969c2.363,2.309,4.673,3.578,6.506,3.578
			c1.14,0,2.023-0.506,2.483-1.371c0.607,0.375,1.298,0.576,2.017,0.576c0.966,0,1.869-0.385,2.417-1.027
			c0.15-0.176,0.271-0.367,0.363-0.57c0.566,0.332,1.201,0.512,1.846,0.512c0.864,0,1.649-0.346,2.15-0.945
			c0.256-0.305,0.522-0.775,0.595-1.445c1.687,0.465,3.121,0.039,3.884-1.111c0.444-0.67,0.599-1.523,0.437-2.291
			c0.782-0.523,2.494-0.908,3.726-0.994c0.429,1.166,1.625,2.01,3.047,2.01h9.263c1.779,0,3.228-1.316,3.228-2.935V17.391
			C66.851,15.771,65.402,14.453,63.623,14.453z M15.87,32.732c0,0.873-0.842,1.585-1.877,1.585H4.73
			c-1.035,0-1.878-0.713-1.878-1.585V17.391c0-0.876,0.843-1.587,1.878-1.587h9.263c1.035,0,1.877,0.711,1.877,1.587V32.732z
			 M46.025,36.197c-0.539,0.812-1.725,0.916-3.199,0.268c-0.227-0.104-0.494-0.068-0.69,0.086s-0.291,0.404-0.246,0.652
			c0.11,0.607,0.021,1.1-0.253,1.432c-0.249,0.297-0.644,0.461-1.114,0.461c-0.663,0-1.348-0.332-1.83-0.887
			c-0.198-0.227-0.523-0.297-0.796-0.168c-0.273,0.129-0.428,0.422-0.38,0.719c0.053,0.334-0.024,0.627-0.23,0.869
			c-0.295,0.346-0.814,0.551-1.39,0.551c-0.699,0-1.364-0.297-1.869-0.834c-0.181-0.191-0.456-0.262-0.703-0.182
			c-0.25,0.082-0.429,0.301-0.461,0.561c-0.1,0.83-0.593,1.252-1.467,1.252c-1.456,0-3.483-1.166-5.562-3.197
			c-4.291-4.189-6.796-5.169-8.613-5.341V18.382c0.883-0.177,1.71-0.665,2.574-1.177c1.244-0.735,2.531-1.496,4.187-1.496
			c0.361,0,0.726,0.041,1.097,0.113c-2.138,1.379-4.747,3.213-3.644,5.399c0.501,0.989,1.387,1.7,2.492,2.001
			c1.342,0.365,2.895,0.102,4.153-0.707c1.813-1.168,5.179-2.522,6.786-2.872c0.519,0.706,1.262,1.999,2.103,3.47
			c2.457,4.281,5.796,10.089,9.277,11.788C46.351,35.326,46.277,35.818,46.025,36.197z M46.712,33.626
			c-3.068-1.603-6.361-7.336-8.57-11.185c-1.054-1.838-1.887-3.291-2.49-3.979l-0.239-0.272l-0.358,0.049
			c-1.699,0.226-5.73,1.87-7.702,3.14c-0.942,0.605-2.088,0.81-3.069,0.54c-0.518-0.141-1.224-0.482-1.642-1.308
			c-0.619-1.228,1.787-2.768,3.544-3.895c0.294-0.189,0.576-0.369,0.84-0.546c0.001,0,0.002,0,0.002,0
			c0.967-0.6,1.758-1.123,2.438-1.572c2.52-1.668,3.281-2.206,5.989-1.975c1.982,0.171,4.146,1.273,6.055,2.244
			c1.522,0.774,2.838,1.444,3.966,1.632c1.184,0.198,2.423,0.623,3.516,0.998c0.808,0.276,1.496,0.513,2.067,0.629l-0.002,0.803
			c-0.013,5.571-0.016,11.326,0.046,13.394C49.862,32.436,47.831,32.807,46.712,33.626z M65.501,32.732
			c0,0.873-0.843,1.585-1.878,1.585H54.36c-1.035,0-1.878-0.713-1.878-1.585V17.391c0-0.876,0.843-1.587,1.878-1.587h9.263
			c1.035,0,1.878,0.711,1.878,1.587V32.732z"/>
		<circle fill="#FFFFFF" cx="57.057" cy="29.74" r="1.935"/>
		<circle fill="#FFFFFF" cx="11.296" cy="29.74" r="1.935"/>
	</g>
	<rect y="0" fill="none" width="68.354" height="51.928"/>
</g>
</svg>
