<?xml version="1.0" encoding="utf-8"?>
<!-- Generator: Adobe Illustrator 16.0.0, SVG Export Plug-In . SVG Version: 6.00 Build 0)  -->
<!DOCTYPE svg PUBLIC "-//W3C//DTD SVG 1.1//EN" "http://www.w3.org/Graphics/SVG/1.1/DTD/svg11.dtd">
<svg version="1.1" id="Layer_1" xmlns="http://www.w3.org/2000/svg" xmlns:xlink="http://www.w3.org/1999/xlink" x="0px" y="0px"
	 width="68.354px" height="51.926px" viewBox="0 0 68.354 51.926" enable-background="new 0 0 68.354 51.926" xml:space="preserve">
<g>
	<g>
		<polygon fill="#FFFFFF" points="49.837,33.477 49.837,25.415 45.359,25.415 45.359,33.477 37.294,33.477 37.294,37.958 
			45.359,37.958 45.359,46.021 49.837,46.021 49.837,37.958 57.902,37.958 57.902,33.477 		"/>
		<g>
			<path fill="#FFFFFF" d="M24.699,6.142c-6.704,0-11.956,5.388-11.956,12.267c0,8.38,7.219,14.946,17.209,24.036l2.77,2.849
				c0.429,0.438,1.211,0.44,1.644-0.002l2.682-2.767c0.951-0.866,1.858-1.694,2.74-2.506h-3.392l-0.94,0.859l-1.913,1.971
				l-1.998-2.051c-10.539-9.592-16.511-15.369-16.511-22.39c0-5.594,4.244-9.976,9.663-9.976c2.969,0,6.019,1.467,7.959,3.828
				c0.41,0.497,1.359,0.498,1.771,0c1.944-2.361,4.993-3.828,7.959-3.828c5.42,0,9.664,4.382,9.664,9.976
				c0,1.512-0.287,2.998-0.875,4.521h0.947v3.332c1.491-2.662,2.219-5.244,2.219-7.854c0-6.879-5.25-12.267-11.955-12.267
				c-3.111,0-6.24,1.255-8.583,3.443L33.544,9.83l-0.26-0.244C30.942,7.397,27.813,6.142,24.699,6.142z"/>
		</g>
	</g>
	<g>
		<rect x="0" fill="none" width="68.354" height="51.927"/>
	</g>
</g>
</svg>
