<?xml version="1.0" encoding="utf-8"?>
<!-- Generator: Adobe Illustrator 16.0.0, SVG Export Plug-In . SVG Version: 6.00 Build 0)  -->
<!DOCTYPE svg PUBLIC "-//W3C//DTD SVG 1.1//EN" "http://www.w3.org/Graphics/SVG/1.1/DTD/svg11.dtd">
<svg version="1.1" id="Layer_1" xmlns="http://www.w3.org/2000/svg" xmlns:xlink="http://www.w3.org/1999/xlink" x="0px" y="0px"
	 width="68.354px" height="51.926px" viewBox="0 0 68.354 51.926" enable-background="new 0 0 68.354 51.926" xml:space="preserve">
<g>
	<g>
		<g>
			<g>
				<path fill="#FFFFFF" d="M41.279,45.206c-4.012,0-11.478-2.767-19.319-10.543c-9.574-9.509-12.686-19.718-9.489-22.938
					c0.216-0.216,0.438-0.453,0.668-0.694c1.313-1.397,2.955-3.133,5.068-3.133c1.559,0,3.057,0.914,4.583,2.797
					c4.057,5.008,2.688,7.044,0.136,9.574l-0.389,0.391c-0.142,0.143-1.192,1.58,5.327,8.052c4.77,4.729,6.81,5.44,7.604,5.44l0,0
					c0.279,0,0.408-0.094,0.49-0.176l0.385-0.393c1.236-1.264,2.408-2.461,4.248-2.461c1.475,0,3.166,0.803,5.326,2.529
					c1.84,1.461,2.766,2.906,2.832,4.414c0.102,2.184-1.668,3.873-3.088,5.24c-0.24,0.229-0.476,0.454-0.693,0.674
					C44.165,44.78,42.896,45.206,41.279,45.206z M18.207,9.561c-1.398,0-2.704,1.39-3.861,2.611
					c-0.236,0.252-0.469,0.498-0.695,0.73c-2.222,2.234,0.428,11.581,9.482,20.577c7.001,6.946,14.162,10.059,18.146,10.059
					c1.146,0,2.035-0.262,2.502-0.734c0.228-0.227,0.476-0.461,0.729-0.701c1.232-1.188,2.641-2.531,2.574-3.965
					c-0.043-0.984-0.785-2.055-2.205-3.186c-1.822-1.453-3.226-2.162-4.289-2.162c-1.086,0-1.832,0.709-3.057,1.959l-0.396,0.404
					c-0.432,0.434-1.008,0.666-1.672,0.666c-0.002,0-0.002,0-0.002,0c-1.91,0-4.702-1.883-8.774-5.926
					c-5.382-5.344-7.078-8.648-5.335-10.405l0.398-0.4c2.037-2.02,3.158-3.133-0.257-7.343C20.322,10.295,19.215,9.561,18.207,9.561
					z"/>
			</g>
		</g>
		<path fill="#FFFFFF" d="M48.269,5.937l-0.02,4.365l-0.625,0.021c-1.656,0.048-7.342,0.536-11.015,4.77
			c-3.771,4.347-4.134,9.292-4.168,10.107c0.634-0.928,5.937-8.299,14.002-8.299c0.382,0,0.771,0.016,1.156,0.049L48.182,17
			l0.086,5.861l8.828-8.933L48.269,5.937z"/>
	</g>
	<g>
		<rect x="0" fill="none" width="68.354" height="51.927"/>
	</g>
</g>
</svg>
