<?xml version="1.0" encoding="utf-8"?>
<!-- Generator: Adobe Illustrator 16.0.0, SVG Export Plug-In . SVG Version: 6.00 Build 0)  -->
<!DOCTYPE svg PUBLIC "-//W3C//DTD SVG 1.1//EN" "http://www.w3.org/Graphics/SVG/1.1/DTD/svg11.dtd">
<svg version="1.1" id="Layer_1" xmlns="http://www.w3.org/2000/svg" xmlns:xlink="http://www.w3.org/1999/xlink" x="0px" y="0px"
	 width="68.354px" height="51.926px" viewBox="0 0 68.354 51.926" enable-background="new 0 0 68.354 51.926" xml:space="preserve">
<g>
	<g>
		<path fill="#FFFFFF" d="M56.169,14.089H44.322V9.406c0-1.602-1.303-2.903-2.903-2.903h-29c-1.602,0-2.903,1.302-2.903,2.903
			v20.173c0,1.603,1.303,2.901,2.903,2.901h2.164l-1.072,4.011c-0.193,0.723-0.143,1.282,0.15,1.666
			c0.211,0.274,0.536,0.434,0.894,0.434c0.407,0,0.837-0.194,1.313-0.594l6.603-5.517h2.027v4.453c0,1.474,1.197,2.672,2.672,2.672
			h16.127l6.666,5.566c0.428,0.357,0.82,0.541,1.166,0.541c0.287,0,0.539-0.123,0.709-0.344c0.248-0.322,0.285-0.814,0.11-1.463
			l-1.151-4.301h5.371c1.475,0,2.672-1.199,2.672-2.672V16.761C58.839,15.288,57.64,14.089,56.169,14.089z M21.888,30.879
			l-6.719,5.611l1.212-4.529c0.008-0.023,0.016-0.045,0.021-0.068l0.279-1.016h-4.265c-0.717,0-1.3-0.582-1.3-1.299V9.406
			c0-0.717,0.583-1.301,1.3-1.301h29c0.717,0,1.301,0.584,1.301,1.301v20.173c0,0.717-0.584,1.301-1.301,1.301L21.888,30.879
			L21.888,30.879z M57.7,36.934c0,0.847-0.688,1.531-1.533,1.531h-6.863l0.197,0.723c0.006,0.021,0.012,0.037,0.02,0.058
			l1.326,4.955c0.027,0.104,0.045,0.188,0.055,0.256c-0.059-0.037-0.127-0.09-0.209-0.156l-6.983-5.834h-16.54
			c-0.845,0-1.532-0.686-1.532-1.53v-4.453h15.781c1.602,0,2.903-1.301,2.903-2.902V15.228H56.17c0.844,0,1.531,0.688,1.531,1.533
			L57.7,36.934L57.7,36.934z"/>
		<rect x="15.163" y="12.654" fill="#FFFFFF" width="23.545" height="2.382"/>
		<rect x="15.163" y="18.786" fill="#FFFFFF" width="23.545" height="2.381"/>
		<rect x="15.163" y="24.917" fill="#FFFFFF" width="14.292" height="2.382"/>
	</g>
	<g>
		<rect x="0" fill="none" width="68.354" height="51.927"/>
	</g>
</g>
</svg>
