<?xml version="1.0" encoding="utf-8"?>
<!-- Generator: Adobe Illustrator 16.0.0, SVG Export Plug-In . SVG Version: 6.00 Build 0)  -->
<!DOCTYPE svg PUBLIC "-//W3C//DTD SVG 1.1//EN" "http://www.w3.org/Graphics/SVG/1.1/DTD/svg11.dtd">
<svg version="1.1" id="Layer_1" xmlns="http://www.w3.org/2000/svg" xmlns:xlink="http://www.w3.org/1999/xlink" x="0px" y="0px"
	 width="68.354px" height="51.926px" viewBox="0 0 68.354 51.926" enable-background="new 0 0 68.354 51.926" xml:space="preserve">
<g>
	<g>
		<path fill="#FFFFFF" d="M49.787,13.964L49.787,13.964L49.787,13.964c-0.002-0.008-0.004-0.015-0.005-0.022
			c-0.236-1.065-0.29-3.024-1.206-3.932l0,0c-1.093-1.166-4.257-2.328-10.189-2.79l-1.334-1.365L30.352,6.55l-0.375,0.694
			c-3.665,0.301-7.661,1.07-9.324,2.379l0.001-0.002c-0.902,0.618-1.509,1.245-1.759,2.87c-0.287,0.685-0.346,1.763-0.342,1.771
			c0,0.907,1.818,2.365,1.862,2.888c0.062,0.723,2.403,23.377,2.528,24.579c0.036,2.174,5.802,3.346,11.227,3.346
			c5.442,0,11.228-1.18,11.227-3.344c0.253-3.949,1.991-22.184,2.009-22.368c0.272-2.854,0.71-3.239,1.503-3.94
			c0.136-0.121,0.279-0.249,0.439-0.401l0.011-0.012c0.294-0.275,0.442-0.574,0.442-0.887
			C49.801,14.071,49.796,14.017,49.787,13.964z M20.207,11.649c0.974,2.188,7.676,3.208,14.231,3.208
			c5.807,0,11.908-0.921,13.904-2.651c0.099,0.354,0.15,0.683-0.232,1.121c-1.375,1.57-6.717,2.465-14.526,2.465
			c-0.006,0-0.011,0-0.017,0c-10.964-0.001-13.396-2.34-13.443-3.045C20.028,12.333,20.08,12.004,20.207,11.649z M21.154,10.154
			c0.346-0.237,0.806-0.479,1.358-0.714c1.503-0.594,3.874-1.123,7.042-1.411l-0.957,1.773l-3.252,0.259l1.963,1.303l2.265-0.229
			l1.888-3.479l6.206-0.663l1.926,2.159h2.992l-0.793-0.631c1.086,0.07,2.006,0.193,2.78,0.354c1.136,0.291,1.888,0.551,2.507,0.886
			c0.674,0.423,1.063,0.766,1.135,1.159c0.285,1.167-5.873,3.19-13.771,3.19c-8.155,0-13.839-1.659-13.839-3.148
			C20.601,10.705,20.789,10.43,21.154,10.154z M46.663,19.294c-0.019,0.184-1.758,18.429-2.013,22.414
			c0,0.463-0.763,1.166-2.904,1.758c-2.02,0.558-4.709,0.863-7.576,0.863c-2.866,0-5.557-0.308-7.575-0.863
			c-2.142-0.592-2.905-1.295-2.905-1.758l-0.002-0.039c-0.023-0.237-2.468-23.861-2.528-24.582
			c-0.017-0.182-0.066-0.375-0.141-0.572c3.173,1.572,8.143,2.521,13.42,2.521c4.888,0,9.422-0.781,12.627-2.156
			C46.897,17.458,46.766,18.22,46.663,19.294z M48.413,14.865c-2.021,2.119-8.794,3.425-13.975,3.425
			c-5.852,0-11.287-1.176-14.191-3.067c-0.192-0.235-0.911-0.57-0.961-1.099c-0.016-0.151,0.03-0.439,0.319-0.633
			c0.415,0.411,1.201,0.963,2.205,1.39c2.586,1.098,6.542,1.655,11.757,1.657c0.007,0,0.011,0,0.017,0
			c8.146,0,13.059-0.894,14.601-2.656c0.108-0.124,0.208-0.246,0.298-0.367C48.844,13.733,48.836,14.422,48.413,14.865z"/>
		<path fill="#FFFFFF" d="M22.935,19.272l1.95,21.914c0.751,0.229,1.578,0.433,1.883,0.656l-2.144-21.851
			C24.403,19.739,23.641,19.517,22.935,19.272z"/>
		<path fill="#FFFFFF" d="M28.636,20.583l0.807,21.537c0.792,0.1,1.619,0.178,1.772,0.379l-0.806-21.503
			C30.261,20.782,29.435,20.694,28.636,20.583z"/>
		<path fill="#FFFFFF" d="M38.064,42.29l1.383-21.605c-0.803,0.094-1.63,0.166-1.712,0.469l-1.378,21.519
			C36.438,42.398,37.265,42.355,38.064,42.29z"/>
		<path fill="#FFFFFF" d="M45.55,19.403c-0.784,0.256-1.63,0.484-2.105,0.74l-1.974,21.833c0.478-0.207,1.319-0.388,2.093-0.595
			L45.55,19.403z"/>
	</g>
	<g>
		<rect x="0" fill="none" width="68.354" height="51.927"/>
	</g>
</g>
</svg>
