<?xml version="1.0" encoding="utf-8"?>
<!-- Generator: Adobe Illustrator 16.0.0, SVG Export Plug-In . SVG Version: 6.00 Build 0)  -->
<!DOCTYPE svg PUBLIC "-//W3C//DTD SVG 1.1//EN" "http://www.w3.org/Graphics/SVG/1.1/DTD/svg11.dtd">
<svg version="1.1" id="Isolation_Mode" xmlns="http://www.w3.org/2000/svg" xmlns:xlink="http://www.w3.org/1999/xlink" x="0px"
	 y="0px" width="82px" height="76px" viewBox="0 0 82 76" enable-background="new 0 0 82 76" xml:space="preserve">
<g>
	<path fill="#FFFFFF" d="M47.254,51.715c-1.937,1.826-4.033,3.75-6.304,5.816l-0.034,0.035l-0.077,0.07l-2.504,2.58l-2.504-2.58
		l-0.077-0.07l-0.034-0.035c-10.757-9.789-17.857-16.545-20.476-23.402c-0.18-0.469-0.334-0.932-0.471-1.395
		c-0.028-0.096-0.053-0.193-0.079-0.291c-0.106-0.385-0.201-0.77-0.278-1.152c-0.045-0.225-0.076-0.451-0.11-0.678
		c-0.043-0.275-0.091-0.551-0.119-0.826c-0.052-0.52-0.084-1.043-0.084-1.572c0-0.736,0.07-1.449,0.179-2.148
		c0.026-0.172,0.041-0.348,0.074-0.516c1.16-6.004,6.19-10.398,12.399-10.398c3.884,0,7.877,1.922,10.422,5.014
		c0.335,0.408,0.946,0.561,1.489,0.457c0.326-0.061,0.626-0.213,0.827-0.457c1.591-1.932,3.746-3.408,6.088-4.242
		c1.404-0.5,2.877-0.771,4.334-0.771c7.095,0,12.652,5.738,12.652,13.062c0,0.529-0.032,1.053-0.084,1.572
		c-0.028,0.277-0.077,0.557-0.12,0.834c-0.034,0.223-0.065,0.445-0.108,0.666c-0.078,0.389-0.174,0.777-0.282,1.168
		c-0.025,0.09-0.048,0.182-0.074,0.273c-0.138,0.467-0.294,0.934-0.476,1.406c-0.805,2.105-2.049,4.205-3.677,6.382h0.76h2.916
		c1.518-2.298,2.672-4.604,3.36-6.984c0.06-0.201,0.111-0.4,0.163-0.602c0.086-0.336,0.173-0.672,0.24-1.012
		c0.098-0.473,0.172-0.947,0.231-1.42c0.021-0.18,0.04-0.357,0.057-0.537c0.056-0.582,0.094-1.164,0.094-1.748
		c0-9.008-6.875-16.062-15.652-16.062c-2.038,0-4.081,0.41-5.999,1.182c-0.46,0.184-0.912,0.393-1.355,0.617
		c-0.019,0.008-0.037,0.016-0.055,0.025c-0.868,0.443-1.696,0.971-2.48,1.562c-0.05,0.037-0.104,0.068-0.152,0.105
		c-0.219,0.17-0.423,0.359-0.634,0.539c-0.187,0.16-0.382,0.309-0.562,0.479l-0.342,0.32l-0.341-0.32
		c-3.065-2.865-7.161-4.51-11.239-4.51c-8.777,0-15.652,7.055-15.652,16.062c0,0.584,0.038,1.166,0.094,1.748
		c0.017,0.18,0.035,0.357,0.057,0.535c0.06,0.477,0.135,0.953,0.232,1.432c0.067,0.334,0.152,0.664,0.237,0.996
		c0.053,0.203,0.106,0.408,0.166,0.611c2.354,8.123,9.926,15.375,19.921,24.488c0.607,0.555,1.226,1.119,1.858,1.695l3.212,3.303
		l0.377,0.389c0.001,0.002,0.002,0.002,0.003,0.002l0.001,0.002c0.089,0.092,0.205,0.143,0.313,0.205
		c0.062,0.035,0.112,0.092,0.18,0.117c0.141,0.057,0.293,0.07,0.445,0.084c0.046,0.004,0.089,0.025,0.136,0.025
		s0.09-0.021,0.136-0.025c0.152-0.014,0.305-0.027,0.445-0.084c0.067-0.025,0.117-0.082,0.18-0.117
		c0.108-0.062,0.225-0.113,0.313-0.205l0.001-0.002c0.001,0,0.002,0,0.003-0.002l0.377-0.389l3.212-3.303
		c0.633-0.576,1.251-1.141,1.858-1.695c2.412-2.199,4.679-4.289,6.77-6.311h-0.489H47.254z"/>
	<polygon fill="#FFFFFF" points="60.339,43.186 54.473,43.186 43.916,43.186 43.916,49.049 54.473,49.049 60.339,49.049 
		70.897,49.049 70.897,43.186 	"/>
</g>
</svg>
