<?xml version="1.0" encoding="utf-8"?>
<!-- Generator: Adobe Illustrator 16.0.0, SVG Export Plug-In . SVG Version: 6.00 Build 0)  -->
<!DOCTYPE svg PUBLIC "-//W3C//DTD SVG 1.1//EN" "http://www.w3.org/Graphics/SVG/1.1/DTD/svg11.dtd">
<svg version="1.1" id="Layer_1" xmlns="http://www.w3.org/2000/svg" xmlns:xlink="http://www.w3.org/1999/xlink" x="0px" y="0px"
	 width="68.354px" height="51.926px" viewBox="0 0 68.354 51.926" enable-background="new 0 0 68.354 51.926" xml:space="preserve">
<g>
	<g>
		<rect x="0" y="-0.001" fill="none" width="68.354" height="51.928"/>
	</g>
</g>
<g opacity="0.6">
	<g>
		<path fill="#FFFFFF" d="M33.063,16.465l-7.1,7.758l1.644,5.34l6.961-2.45c0,0,1.027-5.084,1.988-9.979L33.063,16.465z"/>
		<path fill="#FFFFFF" d="M38.943,35.875l7.01-7.678l-2.998-9.839l-4.096-0.784c-0.828,4.33-1.672,8.74-1.848,9.66
			c-0.367,1.918-0.645,1.936-1.492,2.25c-0.342,0.129-3.519,1.189-7.193,2.412l0.645,2.1L38.943,35.875z"/>
		<path fill="#FFFFFF" d="M25.423,30.332l-1.993-6.396c-0.037-0.116,0.005-0.297,0.087-0.387l8.545-9.263
			c0.082-0.09,0.263-0.148,0.384-0.125l4.521,0.866c0.646-3.332,1.184-6.19,1.221-6.731H21.09c-2.529,0-4.579,2.049-4.579,4.578
			v20.6L25.423,30.332z"/>
		<path fill="#FFFFFF" d="M47.265,8.297h-6.633c0,0-0.635,3.323-1.371,7.171l5.086,0.975c0.119,0.022,0.254,0.143,0.291,0.258
			l3.631,11.757c0.035,0.117-0.006,0.299-0.09,0.391l-8.432,9.16c-0.084,0.09-0.262,0.15-0.383,0.125L27.36,35.871l-0.02,0.1
			l0.019-0.1c-0.118-0.021-0.254-0.143-0.289-0.256l-0.933-2.99c-4.3,1.428-8.655,2.869-9.626,3.191v3.234
			c0,2.527,2.049,4.578,4.578,4.578h26.175c2.527,0,4.578-2.051,4.578-4.578V12.875C51.843,10.346,49.792,8.297,47.265,8.297z"/>
	</g>
</g>
</svg>
