<?xml version="1.0" encoding="utf-8"?>
<!-- Generator: Adobe Illustrator 16.0.0, SVG Export Plug-In . SVG Version: 6.00 Build 0)  -->
<!DOCTYPE svg PUBLIC "-//W3C//DTD SVG 1.1//EN" "http://www.w3.org/Graphics/SVG/1.1/DTD/svg11.dtd">
<svg version="1.1" id="Layer_1" xmlns="http://www.w3.org/2000/svg" xmlns:xlink="http://www.w3.org/1999/xlink" x="0px" y="0px"
	 width="316.176px" height="272.059px" viewBox="0 0 316.176 272.059" enable-background="new 0 0 316.176 272.059"
	 xml:space="preserve">
<g opacity="0.6">
	<g>
		<path fill="#FFFFFF" d="M133.481,118.29c0-1.929-3.093-3.509-6.909-3.509c-3.823,0-6.923,1.58-6.923,3.509
			c0,1.95,3.1,3.523,6.923,3.523C130.388,121.813,133.481,120.24,133.481,118.29z"/>
		<path fill="#FFFFFF" d="M37.44,140.685c10.823-0.392,28.013-0.727,33.968-0.734c-0.154,10.883,18.77,14.336,24.522,14.336
			c5.731,0,10.875,0,17.333,0c6.455,0,10.732-3.244,10.732-11.184c0-7.94-1.646-14.733-1.646-14.733
			c-1.493-3.369-5.067-3.816-13.245-3.816c-8.185,0-21.174,0-25.498,0c-10.582,0-11.787,3.467-12.504,7.045
			c-0.786-1.482-2.16-1.691-4.025-2.181c-1.856-0.503-23.688-6.333-28.727-7.835c-5.046-1.502-14.664-4.647-16.146,0.413
			c-1.458,5.088-3.771,14.035,3.795,14.035C25.701,140.531,28.888,140.992,37.44,140.685z M74.739,130.718
			c1.454-2.335,3.792-3.887,8.16-3.831c5.825,0.084,25.868,0.601,29.401,0.902c3.547,0.308,6.503,1.461,6.93,6.71
			c0.419,5.249,1.579,11.959-2.212,14.433c-3.781,2.475-17.792,1.901-23.327,1.308c-5.539-0.595-18.071-3.209-18.955-8.157
			C73.858,137.127,73.271,133.045,74.739,130.718z"/>
		<path fill="#FFFFFF" d="M130.783,128.369c0,0-1.643,6.793-1.643,14.733c0,7.939,4.285,11.184,10.739,11.184
			c4.669,0,8.639,0,12.651,0v-3.593c-6.231,0.21-13.776-0.042-16.411-1.762c-3.785-2.474-2.628-9.184-2.205-14.433
			s3.379-6.402,6.923-6.71c1.565-0.133,6.339-0.308,11.689-0.469v-2.768c-3.016,0-5.982,0-8.485,0
			C135.854,124.553,132.285,125,130.783,128.369z"/>
		<path fill="#FFFFFF" d="M152.527,165.748l-23.501,0.099l-47.087-0.203c-2.069-3.949-11.061-5.264-23.614-6.424
			c-12.553-1.181-19.958-2.047-23.499-2.188c-3.554-0.146-7.937-1.069-7.671,5.822c0.272,6.906,0.853,11.603,8.569,12.49
			c7.73,0.916,21.492,1.713,29.677,2.32c8.206,0.637,19.528,2.062,18.605-1.502c7.923-0.35,3.212,2.648,9.397,2.837
			c6.165,0.154,35.607,0,35.607,0s12.979,0.056,23.516,0.056V165.748L152.527,165.748z"/>
		<path fill="#FFFFFF" d="M230.613,105.052c-3.81-2.866-7.695-5.34-10.673-7.122h2.803c2.523,0,10.219,0,10.219-7.01
			c0-5.319-6.018-6.892-9.219-6.989c0,0-3.397-0.014-6.277,0c-1.803,0.021-5.508,0.049-5.703,3.76
			c-6.297-11.958-17.418-26.867-26.099-32.647c-3.04-2.034-6.751-2.076-6.794-2.076h-0.021c-22.317-1.649-51.662-1.664-51.963-1.664
			h-0.503c-0.301,0-29.701,0.014-51.882,1.664c-0.391,0-3.942,0.098-6.895,2.069c-8.747,5.822-19.958,20.885-26.231,32.885
			c-0.056-3.942-3.865-3.97-5.71-3.991c-2.883-0.007-6.259,0.014-6.297,0c-3.184,0.098-9.195,1.67-9.195,6.989
			c0,7.01,7.688,7.01,10.215,7.01h2.915c-7.028,4.214-18.337,11.805-23.09,19.494c-4.145,6.759-5.609,33.451-5.518,41.007
			c0.066,5.5,0.559,14,1.031,22.232l0.734,13.658c0.272,7.332,3.645,10.749,10.617,10.749h27.577c3.925,0,6.993-1.237,9.125-3.676
			c0.251-0.28,0.493-0.602,0.758-0.993l0.199-0.314c0.168-0.258,0.308-0.523,0.493-0.859l0.108-0.21
			c0.174-0.349,0.328-0.698,0.451-1.048l0.052-0.126c0.105-0.308,0.21-0.615,0.301-0.937l0.083-0.322
			c0.06-0.251,0.123-0.503,0.175-0.769l0.049-0.251c0.063-0.322,0.112-0.644,0.147-0.938l0.021-0.195
			c0.028-0.237,0.049-0.475,0.063-0.699c0.308,0,0.625,0,0.93,0c7.087,0,11.609,0.909,14.975,1.602
			c0.482,0.09,0.937,0.174,1.359,0.258c4.124,0.797,24.715,1.594,24.956,1.607l27.325,0.154l26.304-0.14v-5.131l-25.532,0.14
			l-27.981-0.153c-8.213-0.321-21.412-1.007-24.104-1.517c-0.419-0.077-0.88-0.168-1.384-0.259
			c-3.505-0.72-8.317-1.698-15.918-1.698c-1.161,0-2.359,0.027-3.513,0.062c-17.498-0.321-37.449-0.838-40.975-1.265
			c-1.691-0.217-1.866-0.23-2.083-3.894l-0.186-3.145c-0.475-8.15-0.964-16.594-1.027-21.989
			c-0.136-10.093,1.939-33.653,4.767-38.246c5.836-9.471,24.449-19.626,26.686-20.829h170.695c1.118,0.602,6.402,3.474,12.147,7.423
			l0.252,0.182h8.694L230.613,105.052z M44.936,92.248c5.675-11.631,16.956-27.245,25.504-32.935
			c1.685-1.118,3.974-1.216,4.285-1.23c22.146-1.635,51.358-1.649,51.659-1.649h0.503c0.291,0,29.513,0.014,51.788,1.657
			c0.028,0,2.418,0.077,4.145,1.223c8.562,5.704,19.871,21.36,25.505,32.935H44.936z"/>
		<path fill="#FFFFFF" d="M303.904,114.781h-131.31c-4.404,0-7.828,3.174-7.828,7.018v91.932c0,3.851,3.662,7.024,7.828,7.024
			h131.31c4.158,0,7.583-3.174,7.583-7.024v-91.932C311.487,117.955,308.062,114.781,303.904,114.781z M171.182,170.984
			c-1.572,0-2.838-1.266-2.838-2.845c0-1.565,1.266-2.831,2.838-2.831c1.565,0,2.838,1.266,2.838,2.831
			C174.02,169.718,172.747,170.984,171.182,170.984z M297.787,208.978c0,0.23-0.244,0.447-0.489,0.447v0.008H178.947
			c-0.244,0-0.489-0.225-0.489-0.455v-82.195c0-0.224,0.245-0.454,0.489-0.454h118.352c0.252,0,0.489,0.23,0.489,0.454V208.978
			L297.787,208.978z M305.615,179.812c0,0.614-0.531,1.09-1.174,1.09c-0.657,0-1.188-0.489-1.188-1.09v-18.243
			c0-0.614,0.531-1.104,1.188-1.104c0.643,0,1.174,0.49,1.174,1.104V179.812z M304.218,157.669c-0.909,0-1.636-0.748-1.636-1.671
			s0.727-1.671,1.636-1.671c0.895,0,1.636,0.748,1.636,1.671S305.113,157.669,304.218,157.669z"/>
	</g>
	<polygon fill="#FFFFFF" points="246.681,141.621 237.504,163.379 228.341,141.621 218.122,141.621 229.655,167.747 
		223.497,167.747 223.497,173.199 232.102,173.199 232.102,178.798 223.497,178.798 223.497,184.214 232.102,184.214 
		232.102,195.615 242.459,195.615 242.459,184.214 251.071,184.214 251.071,178.798 242.459,178.798 242.459,173.199 
		251.071,173.199 251.071,167.747 244.823,167.747 256.355,141.621 	"/>
</g>
</svg>
