<?xml version="1.0" encoding="utf-8"?>
<!-- Generator: Adobe Illustrator 16.0.0, SVG Export Plug-In . SVG Version: 6.00 Build 0)  -->
<!DOCTYPE svg PUBLIC "-//W3C//DTD SVG 1.1//EN" "http://www.w3.org/Graphics/SVG/1.1/DTD/svg11.dtd">
<svg version="1.1" id="Layer_1" xmlns="http://www.w3.org/2000/svg" xmlns:xlink="http://www.w3.org/1999/xlink" x="0px" y="0px"
	 width="316.176px" height="272.059px" viewBox="0 0 316.176 272.059" enable-background="new 0 0 316.176 272.059"
	 xml:space="preserve">
<g>
	<g opacity="0.6">
		<path fill="#FFFFFF" d="M284.219,134.245H183.838c-3.366,0-5.983,2.425-5.983,5.364v70.271c0,2.95,2.804,5.375,5.983,5.375
			h100.381c3.178,0,5.796-2.425,5.796-5.375V139.61C290.015,136.67,287.397,134.245,284.219,134.245z M182.759,177.202
			c-1.2,0-2.169-0.962-2.169-2.169c0-1.197,0.969-2.169,2.169-2.169c1.196,0,2.172,0.972,2.172,2.169
			C184.929,176.24,183.955,177.202,182.759,177.202z M279.542,206.247c0,0.181-0.186,0.342-0.372,0.342v0.011h-90.472
			c-0.186,0-0.375-0.172-0.375-0.353v-62.833c0-0.172,0.189-0.344,0.375-0.344h90.472c0.189,0,0.372,0.172,0.372,0.344V206.247
			L279.542,206.247z M285.529,183.956c0,0.47-0.405,0.833-0.9,0.833c-0.503,0-0.905-0.373-0.905-0.833V170.01
			c0-0.469,0.406-0.844,0.905-0.844c0.495,0,0.9,0.375,0.9,0.844V183.956z M284.458,167.03c-0.692,0-1.245-0.578-1.245-1.282
			c0-0.705,0.553-1.271,1.245-1.271c0.688,0,1.253,0.566,1.253,1.271C285.708,166.451,285.147,167.03,284.458,167.03z"/>
	</g>
	<polygon opacity="0.6" fill="#FFFFFF" points="240.474,154.762 233.462,171.389 226.459,154.762 218.643,154.762 227.461,174.735 
		222.754,174.735 222.754,178.902 229.333,178.902 229.333,183.176 222.754,183.176 222.754,187.323 229.333,187.323 
		229.333,196.031 237.246,196.031 237.246,187.323 243.829,187.323 243.829,183.176 237.246,183.176 237.246,178.902 
		243.829,178.902 243.829,174.735 239.056,174.735 247.874,154.762 	"/>
	<g opacity="0.6">
		<path fill="#FFFFFF" d="M49.139,173.924c-4.404-0.04-8.132,3.734-7.947,7.994c0.199,4.051,3.927,7.422,8.093,7.297
			c4.272-0.12,7.629-3.543,7.597-7.715C56.842,177.373,53.372,173.95,49.139,173.924z"/>
		<path fill="#FFFFFF" d="M59.329,128.953c-2.646-0.743-19.702-1.22-21.394,12.446c-1.685,13.658,12.61,12.969,12.61,12.969
			s8.2,0.636,14.13-9.886C70.608,133.954,61.97,129.702,59.329,128.953z"/>
		<path fill="#FFFFFF" d="M127.949,140.621c-0.611,0.013-1.234,0-1.844,0.013c-0.093,0-0.159-0.04-0.212-0.092l0,0
			c-0.684-0.769-1.804-1.274-3.079-1.274c-1.353,0-2.521,0.559-3.185,1.407c0.014-0.034,0.04-0.06,0.054-0.093
			c-0.066,0.033-0.126,0.066-0.199,0.066c-1.652,0-3.318,0.006-4.969,0.02c0.086,0.199,0.245,0.359,0.391,0.531
			c0.398,0.458,0.796,0.909,1.26,1.313c0.093,0.079,0.18,0.146,0.266,0.218c0.014,0.007,0.014,0.015,0.04,0.02h0.013
			c0.086,0.074,0.185,0.127,0.246,0.234c0,0,0,0.004,0.02,0.004c0.04,0,0.08,0.027,0.106,0.062c0.014,0,0.027,0,0.041,0.013
			c0.025-0.078,0.099-0.053,0.145-0.053c0.645,0,1.294,0,1.938,0c0.199,0,0.251,0.08,0.239,0.318
			c-0.046-0.165-0.159-0.165-0.266-0.172c-0.656-0.041-1.313-0.033-1.957-0.094c-0.034,0-0.047,0.008-0.074,0.027
			c0.319,0.297,0.717,0.518,1.075,0.762c0.2,0.146,0.398,0.193,0.644,0.181c0.346-0.007,0.696,0,1.042,0
			c0.1,0,0.16,0.013,0.225,0.071c0.013,0.021,0.054,0.041,0.073,0.055c0.684,0.629,1.686,1.027,2.827,1.027
			c1.207,0,2.262-0.449,2.952-1.141c0.146-0.039,0.305-0.047,0.478-0.026c0.192,0.014,0.385-0.021,0.577,0.007
			c0.285,0.02,0.524-0.061,0.75-0.22c0.331-0.231,0.676-0.45,1.035-0.683c0.019-0.014,0.051-0.025,0.092-0.033
			c-0.146-0.119-0.251-0.04-0.344-0.04c-0.531,0.026-1.062,0.065-1.593,0.093c-0.146,0-0.226,0.046-0.266,0.174
			c-0.053,0.145-0.12,0.297-0.344,0.231v0.014c0.106-0.168,0.186-0.339,0.266-0.524c0.019-0.008,0.04-0.027,0.079-0.027
			c0.624,0,1.235,0,1.859,0c0.303,0.061,0.517-0.086,0.742-0.272c0.735-0.59,1.419-1.24,2.017-1.95
			c0.054-0.046,0.119-0.092,0.093-0.172c-0.703,0-1.419,0-2.129,0C128.706,140.621,128.321,140.621,127.949,140.621z
			 M119.053,142.399c0-0.266-0.206-0.244-0.405-0.251c-0.836-0.015-1.691-0.039-2.534-0.067c-0.026,0-0.066,0.008-0.074-0.051
			c0.06,0,0.114-0.014,0.166-0.014c0.889,0,1.766,0,2.654-0.008c0.126,0,0.186,0.027,0.2,0.101c0,0.046-0.007,0.079-0.007,0.119
			c0,0.06,0.019,0.118,0.019,0.192C119.061,142.406,119.053,142.399,119.053,142.399z M119.312,141.166
			c-0.02,0.006-0.026,0.039-0.053,0.039c-0.279-0.006-0.545-0.012-0.823-0.033c-0.61-0.006-1.233-0.02-1.844-0.046
			c-0.02,0.015-0.041,0.046-0.06,0.04c-0.498-0.08-0.988-0.014-1.486-0.04c-0.019,0-0.033-0.013-0.059-0.021
			c0,0,0.04-0.045,0.066-0.045c0.491,0,0.982,0,1.473,0c0.026,0,0.041,0.02,0.066,0.025c0.836-0.006,1.685-0.006,2.534-0.006
			c0.047,0,0.086,0,0.133,0c0.013,0,0.053,0,0.079,0.006C119.332,141.106,119.326,141.141,119.312,141.166z M122.815,144.914
			c-1.857,0-3.357-1.207-3.357-2.687c0-1.474,1.5-2.681,3.357-2.681c1.851,0,3.35,1.207,3.35,2.681
			C126.164,143.707,124.666,144.914,122.815,144.914z M128.918,142.049c-0.677,0.025-1.353,0.06-2.03,0.073
			c-0.119,0.011-0.185,0.011-0.172,0.159c0,0.079,0.066,0.252-0.106,0.252c-0.04,0-0.054-0.021-0.08-0.027
			c0.021-0.1,0.04-0.18,0.04-0.271v-0.074c0-0.125,0.053-0.152,0.278-0.152c0.677-0.006,1.367-0.006,2.07-0.006
			c0.232-0.02,0.478-0.027,0.716,0v0.027C129.396,142.03,129.157,142.074,128.918,142.049z M130.775,141.028
			c-0.238,0.125-0.484,0.033-0.729,0C130.291,141.028,130.537,141.028,130.775,141.028z M129.965,141.092
			c-0.384,0.006-0.769,0.021-1.134,0.034c-0.749,0.015-1.493,0.026-2.242,0.046c-0.12,0-0.153,0.027-0.1,0.133
			c0.04,0.039,0.054,0.1,0.08,0.152c0,0,0.04,0.086-0.04,0.1c-0.053,0.014-0.066-0.014-0.079-0.06
			c-0.028-0.052-0.054-0.125-0.081-0.179c0.014,0.006,0.014,0.025,0.014,0.046c-0.014-0.04-0.027-0.079-0.041-0.118
			c0.007,0.013,0.026,0.033,0.026,0.033c-0.026-0.074-0.052-0.127-0.085-0.219c1.227,0,2.46,0,3.681,0V141.092z"/>
		<path fill="#FFFFFF" d="M121.568,141.512c-0.132,0.204-0.258,0.432-0.384,0.648c-0.026-0.013-0.041-0.013-0.041-0.027
			c-0.066-0.15-0.139-0.305-0.2-0.457c-0.146-0.283-0.146-0.283-0.464-0.271c-0.094,0-0.119,0.026-0.126,0.107
			c-0.026,0.351-0.06,0.695-0.1,1.041c0,0.066-0.046,0.172,0.08,0.139c0.105-0.021,0.292,0.105,0.304-0.112
			c0.021-0.173,0.033-0.345,0.054-0.523c0.007,0,0.026,0,0.026,0c0.08,0.179,0.16,0.351,0.239,0.529
			c0.021,0.061,0.047,0.12,0.133,0.113c0.1-0.007,0.173,0,0.212-0.093c0.081-0.167,0.186-0.318,0.266-0.473
			c0.026-0.024,0.026-0.077,0.08-0.053c0.052,0.008,0.026,0.053,0.026,0.08c-0.007,0.133-0.007,0.266-0.014,0.393
			c-0.007,0.078-0.026,0.172,0.12,0.139c0.079-0.021,0.258,0.105,0.265-0.119c0.014-0.345,0.04-0.69,0.054-1.035
			c0-0.04,0.013-0.092-0.014-0.119C121.991,141.344,121.621,141.424,121.568,141.512z M121.66,142.056
			c-0.007-0.007-0.026-0.007-0.026-0.021c0-0.006,0.02-0.027,0.026-0.04c0.007,0.007,0.027,0.013,0.014,0.021
			C121.674,142.016,121.667,142.049,121.66,142.056z"/>
		<path fill="#FFFFFF" d="M124.354,141.399c-0.08-0.006-0.159-0.015-0.159,0.099c0.012,0.206,0,0.405,0,0.65
			c-0.227-0.252-0.412-0.466-0.598-0.677c-0.119-0.133-0.278-0.078-0.398-0.066c-0.106,0.02-0.046,0.139-0.053,0.199
			c-0.013,0.318-0.013,0.637-0.027,0.949c0,0.111,0.014,0.172,0.146,0.146c0.1-0.014,0.266,0.073,0.239-0.14
			c-0.007-0.186,0-0.398,0-0.59c0.238,0.205,0.437,0.404,0.609,0.623c0.12,0.153,0.28,0.093,0.425,0.1
			c0.06,0,0.053-0.053,0.053-0.086c-0.013-0.371-0.013-0.743-0.013-1.108C124.579,141.324,124.433,141.418,124.354,141.399z"/>
		<path fill="#FFFFFF" d="M125.203,142.698c0.08-0.007,0.106-0.027,0.106-0.106c-0.014-0.172,0-0.352,0-0.536
			c-0.02,0-0.027,0-0.04,0c0-0.174,0-0.366,0-0.544c0-0.207-0.172-0.088-0.259-0.119c-0.113-0.021-0.146,0.025-0.146,0.124
			c0.019,0.3,0.019,0.616,0.033,0.922C124.898,142.725,124.898,142.725,125.203,142.698z"/>
		<path fill="#FFFFFF" d="M122.43,141.517c0,0.187,0,0.371,0,0.558c-0.014,0-0.027,0-0.04,0c0,0.16,0.013,0.332-0.006,0.505
			c-0.007,0.092,0.019,0.126,0.126,0.119c0.053-0.007,0.1-0.007,0.146,0c0.094,0.007,0.133-0.014,0.133-0.113
			c0-0.351,0.02-0.716,0.039-1.068c0-0.093-0.039-0.145-0.139-0.118C122.59,141.424,122.43,141.313,122.43,141.517z"/>
		<path fill="#FFFFFF" d="M122.974,139.74c-0.776,0-1.42,0.165-2.017,0.524c-1.592,0.995-1.605,2.893-0.039,3.861
			c1.24,0.756,3.071,0.597,4.139-0.359c1.075-0.955,1.088-2.373,0-3.283C124.447,139.959,123.704,139.746,122.974,139.74z
			 M124.698,143.846c-0.57,0.391-1.286,0.604-1.989,0.596c-0.73-0.019-1.393-0.191-1.95-0.642c-1.115-0.896-1.102-2.303,0-3.218
			c1.035-0.862,2.733-0.969,3.881-0.232C126.019,141.219,126.046,142.917,124.698,143.846z"/>
		<path fill="#FFFFFF" d="M98.363,176.764h48.998c0.583,0,1.041-0.465,1.041-1.035v-6.967c0-0.569-0.458-1.034-1.041-1.034H98.363
			c-0.57,0-1.035,0.458-1.035,1.034v6.967C97.327,176.299,97.792,176.764,98.363,176.764z"/>
		<path fill="#FFFFFF" enable-background="new    " d="M169.636,199.252l-44.42,1.16h-2.294h-0.107h-2.302l-66.988-1.758
			l-18.713-2.534c-2.07-0.504-2.31-4.021-2.653-11.922c-0.147-3.501-0.333-7.847-0.797-13.007l-0.438-4.903
			c-0.836-9.161-1.38-15.197-0.975-19.06c1.161-11.072,4.922-15.285,9.679-20.591c1.035-1.167,2.123-2.367,3.185-3.656l4.292-4.629
			H69.89c1.619,3.005,5.188,9.785,7.111,14.873c2.07,5.46,3.478,12.239,4.068,14.945c-10.064,2.921-18.688,10.913-18.688,23.293
			c0,12.71,20.896,12.396,25.5,12.396c3.556,0,66.412,0,69.96,0c1.95,0,6.819,0.043,11.795-0.849v-4.802
			c-4.392,0.803-9.897,0.676-14.475,0.676c-6.262,0-58.337,0-64.6,0c-9.188,0-22.157,0.537-22.157-7.051
			c0-2.104,0.326-4.02,0.863-5.766h100.369v-1.353H69.724c0.445-1.147,1.002-2.202,1.652-3.19h98.259v-1.36H72.305
			c1.142-1.46,2.461-2.721,3.881-3.794h93.351c0.033,0.025,0.06,0.053,0.1,0.086v-6.336c-1.605-0.797-3.264-1.452-4.982-1.951
			c0.604-2.706,2.012-9.484,4.067-14.939c1.93-5.094,5.492-11.874,7.124-14.878h22.78l4.299,4.629
			c0.717,0.876,1.446,1.666,2.155,2.482h2.887c-0.093-0.093-0.159-0.186-0.253-0.272c-1.021-1.148-2.082-2.334-3.157-3.635
			l-0.305-0.325l1.95-3.615c0,0,3.675,0.889,6.939-0.344c2.096-0.796,5.698-2.031,6.328-5.958c0.836-5.214-4.021-7.656-9.58-8.046
			c-5.559-0.398-8.483,1.77-9.358,4.649c-0.938,3.091,1.061,6.508,1.061,6.508l-1.772,2.017v-0.258h-0.205l-2.421-3.044
			c-1.658-3.689-13.824-30.702-16.764-33.389c-2.275-3.428-6.256-4.59-13.778-5.24c-3.781-0.333-23.324-1.208-42.966-1.215v-6.991
			h-0.485v-9.5h-0.292h-0.1h-0.279v9.492h-0.491v6.999c-19.655,0.007-39.186,0.877-42.967,1.201
			c-7.516,0.651-11.502,1.825-13.785,5.241c-2.932,2.7-15.091,29.712-16.744,33.401l-2.428,3.038h-0.213v0.265l-1.765-2.024
			c0,0,2.003-3.422,1.056-6.5c-0.869-2.879-3.795-5.048-9.361-4.649c-5.552,0.39-10.401,2.832-9.579,8.046
			c0.63,3.927,4.246,5.162,6.343,5.958c3.25,1.233,6.925,0.344,6.925,0.344l1.95,3.615l-0.305,0.325
			c-1.074,1.301-2.136,2.487-3.157,3.635c-4.823,5.387-8.989,10.043-10.229,21.819c-0.431,4.066,0.1,9.856,0.968,19.483l0.451,4.895
			c0.452,5.102,0.651,9.435,0.79,12.91c0.259,5.932,0.458,9.804,1.771,11.967c0,15.967,0.518,17.858,4.617,17.858
			c5.572,0,14.164,0,16.424,0c2.243,0,4.2-1.307,4.877-4.006c0.962-3.821,1.028-7.299,1.293-9.154l61.509,1.618h2.329h0.113h2.328
			l44.387-1.169V199.252L169.636,199.252z M167.567,155.017H78.169c4.313-2.634,9.116-3.8,12.406-3.8c2.919,0,61.668,0,64.586,0
			C158.437,151.217,163.254,152.383,167.567,155.017z M84.432,118.352h76.872c-1.778,3.131-5.732,10.209-6.846,13.561
			c-1.181,3.587-4.007,12.106-4.976,15.017c-13.122,0-40.108,0-53.236,0c-0.961-2.911-3.789-11.43-4.981-15.017
			C90.15,128.561,86.211,121.483,84.432,118.352z M50.321,114.399l0.146-0.247c5.239-11.72,13.612-29.54,16.027-32.524h56.314h0.1
			h56.32c2.422,2.985,10.793,20.804,16.034,32.524l0.146,0.247l1.427,1.784H48.888L50.321,114.399z"/>
		<path fill="#FFFFFF" enable-background="new    " d="M169.636,186.768h-45.043h-3.449H72.225c0,0,0,5.213,2.415,6.189
			c2.415,0.988,8.379,1.83,11.769,2.115c2.72,0.232,25.858,0.544,34.735,0.656v0.047c0,0,0.637-0.007,1.725-0.026
			c1.088,0.02,1.725,0.026,1.725,0.026v-0.047c8.869-0.112,32.015-0.424,34.735-0.656c2.832-0.239,7.455-0.862,10.309-1.646V186.768
			L169.636,186.768z"/>
	</g>
</g>
</svg>
