<?xml version="1.0" encoding="utf-8"?>
<!-- Generator: Adobe Illustrator 16.0.0, SVG Export Plug-In . SVG Version: 6.00 Build 0)  -->
<!DOCTYPE svg PUBLIC "-//W3C//DTD SVG 1.1//EN" "http://www.w3.org/Graphics/SVG/1.1/DTD/svg11.dtd">
<svg version="1.1" id="Layer_1" xmlns="http://www.w3.org/2000/svg" xmlns:xlink="http://www.w3.org/1999/xlink" x="0px" y="0px"
	 width="68.354px" height="51.926px" viewBox="0 0 68.354 51.926" enable-background="new 0 0 68.354 51.926" xml:space="preserve">
<g>
	<g>
		<rect x="0" y="-0.001" fill="none" width="68.354" height="51.928"/>
	</g>
</g>
<g>
	<g>
		<path fill="#FFFFFF" d="M43.86,32.166c7.826-10.187,2.746-25.122-9.677-28.419c-0.996-0.265-2.027-0.401-3.042-0.597
			c-1.091,0-2.182,0-3.271,0c-0.704,0.129-1.414,0.237-2.113,0.391c-7.526,1.656-13.021,7.594-14.115,15.24
			c-1.12,7.812,3.285,15.783,10.56,18.874c6.445,2.741,12.557,1.975,18.254-2.095c0.086-0.062,0.171-0.125,0.258-0.186
			c0.013-0.009,0.034-0.004,0.018-0.002c0.719,0.721,1.434,1.438,2.149,2.158l2.831-2.821C45,34,44.287,33.286,43.563,32.559
			C43.615,32.491,43.736,32.327,43.86,32.166z M29.468,37.604c-8.96,0-16.224-7.264-16.224-16.223
			c0-8.961,7.263-16.225,16.224-16.225c8.96,0,16.223,7.264,16.223,16.225C45.691,30.34,38.428,37.604,29.468,37.604z"/>
		<polygon fill="#FFFFFF" points="24.333,12.577 28.976,18.85 33.618,12.577 36.329,12.577 30.331,20.683 30.34,20.693 
			30.344,20.693 30.344,22.442 35.481,22.442 35.481,24.189 30.344,24.189 30.344,25.938 35.59,25.938 35.59,27.688 30.344,27.688 
			30.344,31.402 27.612,31.402 27.612,27.688 22.584,27.688 22.584,25.938 27.612,25.938 27.612,24.189 22.474,24.189 
			22.474,22.442 27.612,22.442 27.612,20.693 27.62,20.683 21.621,12.577 		"/>
	</g>
	<polygon fill="#FFFFFF" points="56.887,43.4 47.966,34.334 42.504,39.71 51.424,48.775 	"/>
</g>
</svg>
