<?xml version="1.0" encoding="utf-8"?>
<!-- Generator: Adobe Illustrator 16.0.0, SVG Export Plug-In . SVG Version: 6.00 Build 0)  -->
<!DOCTYPE svg PUBLIC "-//W3C//DTD SVG 1.1//EN" "http://www.w3.org/Graphics/SVG/1.1/DTD/svg11.dtd">
<svg version="1.1" id="Layer_1" xmlns="http://www.w3.org/2000/svg" xmlns:xlink="http://www.w3.org/1999/xlink" x="0px" y="0px"
	 width="316.176px" height="272.059px" viewBox="0 0 316.176 272.059" enable-background="new 0 0 316.176 272.059"
	 xml:space="preserve">
<g>
	<g>
		<g>
			<g>
				<g>
					<g>
						<g>
							<g>
								<g>
									<rect x="0" y="0" fill="none" width="316.176" height="272.059"/>
								</g>
							</g>
						</g>
					</g>
				</g>
			</g>
		</g>
	</g>
</g>
<g opacity="0.6">
	<g>
		<g>
			<path fill="#FFFFFF" d="M309.774,137.432H194.142c-3.881,0-6.899,2.797-6.899,6.182v80.951c0,3.391,3.234,6.188,6.899,6.188
				h115.632c3.65,0,6.678-2.797,6.678-6.188v-80.951C316.451,140.229,313.424,137.432,309.774,137.432z M192.894,186.924
				c-1.379,0-2.5-1.115-2.5-2.502c0-1.379,1.121-2.492,2.5-2.492c1.381,0,2.494,1.113,2.494,2.492
				C195.388,185.809,194.275,186.924,192.894,186.924z M304.387,220.379c0,0.209-0.223,0.395-0.431,0.395v0.006H199.736
				c-0.207,0-0.429-0.191-0.429-0.4v-72.381c0-0.193,0.222-0.4,0.429-0.4h104.221c0.222,0,0.431,0.207,0.431,0.4V220.379
				L304.387,220.379z M311.274,194.699c0,0.541-0.461,0.957-1.041,0.957c-0.578,0-1.037-0.43-1.037-0.957v-16.064
				c0-0.541,0.475-0.973,1.037-0.973c0.58,0,1.041,0.432,1.041,0.973V194.699z M310.041,175.199c-0.801,0-1.425-0.66-1.425-1.477
				c0-0.807,0.624-1.469,1.425-1.469s1.438,0.662,1.438,1.469C311.48,174.539,310.842,175.199,310.041,175.199z"/>
		</g>
		<polygon fill="#FFFFFF" points="259.378,161.065 251.305,180.223 243.233,161.065 234.224,161.065 244.389,184.074 
			238.958,184.074 238.958,188.873 246.542,188.873 246.542,193.801 238.958,193.801 238.958,198.573 246.542,198.573 
			246.542,208.612 255.653,208.612 255.653,198.573 263.236,198.573 263.236,193.801 255.653,193.801 255.653,188.873 
			263.236,188.873 263.236,184.074 257.745,184.074 267.896,161.065 		"/>
	</g>
	<path fill="#FFFFFF" d="M172.357,179.963c-0.631,0.824-1.187,1.832-1.55,3.08l-5.491-0.18c0,0-4.431-2.463-6.373,0
		c-1.321,1.678-1.166,2.91-0.943,3.533c-0.052,0.154-0.155,0.326-0.319,0.482l-4.853-0.053c0.067-0.08,0.156-0.17,0.193-0.275
		c0.43-0.809,0.081-1.713-0.037-1.973l0.987-2.619l9.72-8.754c0.326,0.064,0.741,0.125,1.216,0.125c0.98,0,2.182-0.223,3.265-1.039
		l4.186,1.564v-2.514l-2.834-1.053l-1.96,1.771l0.149,0.074c-1.292,0.861-2.737,0.877-3.665,0.75l2.641-2.367
		c0.884-0.283,1.767-0.787,2.479-1.766l-0.282-0.223l3.473-3.133v-0.488l-5.861,5.275c-1.707,0.512-3.347,0.006-3.376,0l-0.111,0.35
		c0.007,0.014,0.816,0.266,1.898,0.266c0.313,0,0.662-0.029,0.996-0.082l-2.332,2.107c-0.251-0.066-0.443-0.111-0.451-0.111
		l-0.111,0.342c0,0,0.089,0.037,0.229,0.074l-8.985,8.064l9.038-23.758l0.06-0.133c2.359,0,4.363-1.002,5.016-2.531
		c0.215-0.533,1.84-1.424,3.992-2.418v-7.688l-4.569,0.631c-5.283-2.248-11.243-5.994-11.258-6.091
		c-0.066-0.26-0.304-0.364-1.469-0.387c-0.646-0.007-1.478,0-2.293,0.044c3.117-1.009,4.837-4.014,4.586-4.302
		c-0.06-0.082-9.905-13.237-15.278-17.022c-5.35-3.798-12.605-5.119-20.581-4.207c-7.97,0.897-11.45,4.638-11.88,5.142
		c-6.271,7.286,7.331,18.016,7.331,18.016c0.044,0,32.587,3.444,32.587,3.444s0.112-0.031,0.284-0.105
		c0.035,0,0.058-0.006,0.103-0.021l9.246,11.211v0.164c-0.149,0-0.312,0.035-0.469,0.127c-0.349,0.184-7.428,2.744-14.781,4.77
		c-0.525-2.092-2.381-3.629-4.592-3.629c-2.256,0-4.119,1.574-4.63,3.703l-3.962,0.936c0,0-0.49-0.066-0.535-0.119l-0.089-0.104
		l-18.609,6.766c-1.788-3.285-4.185-5.801-9.021-5.801c-4.689,0-12.437,2.256-16.903,4.867c-0.684-1.174-2.537-3.992-4.868-3.992
		c-0.86,0-1.78,0.377-2.716,1.35c-0.964,1.01-1.706,1.381-2.3,1.381c-2.047,0-2.27-4.504-2.27-4.504l0.949-7.006l-3.917-1.061
		l-2.791-7.863c0,0-0.587,0.576-1.194,0.576c-0.497,0-1.017-0.377-1.254-1.795l1.403-5.252c0,0,0-1.41-4.742-2.449l-1.973,2.286
		l1.365-3.421l11.025-22.223l1.245-2.819c0.194-0.053,0.313-0.156,0.379-0.267c0.289-0.624-0.912-1.826-2.707-2.701
		c-1.782-0.861-3.474-1.062-3.771-0.438c-0.015,0.029-0.029,0.082-0.044,0.126c0,0,0-0.015-0.016-0.038l-11.544,25.035l-3.414,6.893
		l-3.828,9.432c0,0-5.609-0.803-9.965-0.973c-3.095-0.127-1.789,2.197-0.743,3.592c-0.66-0.029-1.343-0.045-2.055-0.045
		c-3.584,0-7.821,0.311-12.777,1.129l-8.043-3.674c0,0,9.632-3.896,22.201-3.896c2.967,0,6.076,0.209,9.281,0.75l7.176-13.466
		c0,0-1.93-1.402-1.93-3.673h-2.968l-0.163,0.319c-2.019-4.913-1.498-17.824-0.713-22.364c0,0,7.702-0.104,10.165,2.611
		c3.324,3.658,2.953,8.407,2.953,8.407s1.403-6.596-1.893-9.076c-3.359-2.522-4.08-2.655-7.396-3.865
		c-2.063-9.163,6.618-13.608,9.95-12.502c4.281,1.439,7.026,10.047,7.026,10.047l0.594,0.118l-0.876-3.25l7.116-2.642l3.153,2.976
		l2.449,0.697c0,0,7.346,0.706,8.214,5.246c0.059,0.349,0.155,1.113,0.214,1.544c0,0-3.457,3.197-5.282,10.996
		c-3.354,1.817-8.593,10.603-8.399,12.77c0.185,2.166,14.862,14.179,14.862,14.179s18.224-0.148,24.493-2.508
		c0,0-4.786-3.525-7.584-9.712c-2.322-5.156-1.186-8.415,0.549-10.41c4.46-5.202,10.552-5.744,15.359-5.862
		c15.783-0.415,22.327,7.042,22.699,7.42c1.58,1.551,3.123,3.257,4.6,4.949h5.958l0.044,0.119c0,0,0.883,1.997,11.501,6.122
		c1.217-0.081,2.583-0.193,3.992-0.319v-0.393c0-4.579,3.71-8.296,8.311-8.296h14.974c0.935-0.69,1.588-1.173,1.691-1.232
		l0.06-0.022l31.965-6.255c0.074-0.096,1.603-1.209,1.646-0.734l18.401,1.64c0,0,2.093,1.75,1.055,6.121
		c-0.045,0.171-0.089,0.319-0.134,0.482h2.183c1.29-5.468-1.44-7.947-1.753-8.214l-0.52-0.408l-0.638-0.066l-16.917-1.5
		c-0.147-0.459-0.341-0.964-0.564-1.559c-2.196-5.468-6.365-5.898-7.597-5.898c-0.269,0-0.477,0-0.609,0.015h-26.637h-1.855
		l-0.222,1.861c-0.03,0.134-0.045,0.26-0.06,0.395c-0.817-0.208-1.812-0.341-3.044-0.341c-0.534,0-0.889,0.022-0.918,0.022
		l-0.27,0.022l-0.251,0.088c-12.214,4.074-21.311,6.047-27.78,6.047c-5.697,0-8.896-1.461-11.953-3.672
		c-6.382-4.608-14.18-8.258-14.507-8.407l-0.163-0.096l-0.186-0.038c-10.795-2.864-20.257-4.325-28.091-4.325
		c-8.63,0-13.92,1.766-17.029,3.524c-1.321-3.131-4.4-4.63-6.308-5.26l-6.188-1.833l-1.484-1.402l-0.237-0.23l-0.824-8.443
		c0,0,2.768,0.341,7.874-2.271c2.462-1.262,2.981-4.208,2.981-4.208l4.897-2.797c1.137-2.292-1.514-4.125-2.982-3.324l-4.378,2.812
		c0,0-4.8-0.192-4.556-3.324c0.66-7.999,3.235-13.534,3.235-13.534s1.884,0.237,1.913,0.237c4.772,0,5.009-2.626,5.009-2.626
		s1.879-10.952-0.882-10.952c-0.155,0-0.327,0.022-0.52,0.096c-6.842,2.464-8.222,17.682-8.222,17.682l-2.271,10.856l-2.789,2.077
		c-0.357-0.037-0.683-0.066-0.987-0.066c-3.333,0-3.726,1.239-4.802,2.345c-1.054,1.098-1.172,6.841,4.379,6.648
		c0.399,2.337,0.964,6.418,1.231,8.444l-0.504,0.267l-7.228,1.736l-0.06-0.082c0,0-1.291-5.15-5.817-6.878
		c-2.493-0.958-6.336-0.942-9.349,2.434c-2.063,2.33-2.888,5.557-2.427,9.594c0.118,0.979,0.297,2.145,0.631,3.309
		c-0.891-0.155-1.707-0.222-2.39-0.222h-3.161h-1.321l-0.563,1.187c-2.181,4.534-2.388,9.788-1.944,14.253v0.015l0.017,0.015
		c0.533,5.49,2.077,9.765,2.196,10.091l0.207,0.542l0.304,0.838h1.478h3.309h1.306l0.312-0.638c0.274,0.749,0.676,1.396,1.054,1.877
		l-5.758,10.797c-2.627-0.364-5.356-0.549-8.116-0.549c-12.837,0-22.579,3.902-22.988,4.064l-4.518,1.811l4.438,2.035l2.292,1.053
		c-10.024,6.395-16.71,17.576-16.71,30.318c0,19.84,16.146,35.971,35.994,35.971c18.373,0,33.546-13.854,35.697-31.66
		c0.785,6.418,12.999,12.674,18.84,13.541c12.547,1.838,33.686,1.691,69.249-5.053l0.69,0.615l1.803,0.488
		c0,0,0.506-0.08,1.307-0.109c0.987,0.186,2.062,0.305,3.286,0.305c0.274,0.043,0.534,0.072,0.809,0.139
		c0.721,0.172,1.41,0.262,2.019,0.262c1.284,0,2.241-0.371,2.938-0.861V179.963L172.357,179.963z M168.751,168.656
		c-0.327,0.422-0.705,0.734-1.099,0.979L168.751,168.656z M95.977,109.682c2.358,0,4.272,1.321,4.272,2.976
		c0,1.625-1.914,2.954-4.272,2.954c-2.359,0-4.289-1.329-4.289-2.954C91.688,111.003,93.617,109.682,95.977,109.682z
		 M55.093,166.496l-6.798,0.949l0.771-1.609l3.503-1.018l-0.104-0.355l-3.19,0.912l1.847-3.812
		C52.674,163.002,54.009,164.664,55.093,166.496z M51.947,177.865c-0.044-0.432-0.104-0.855-0.171-1.277l2.062,0.584l-1.445,0.898
		L51.947,177.865z M52.013,178.323l-0.052,0.031v-0.066L52.013,178.323z M51.709,176.172c0,0,0-0.029,0-0.037l5.713-4.133
		c0.224,0.844,0.401,1.705,0.52,2.598l-3.68,2.312L51.709,176.172z M51.635,175.727c-0.608-2.791-1.952-5.283-3.799-7.316
		l0.252-0.564l7.22-1.01c0.846,1.5,1.535,3.104,2.011,4.795L51.635,175.727z M49.394,187.836l1.203,1.795l-2.302-0.34
		C48.689,188.823,49.053,188.332,49.394,187.836z M47.064,167.623c-0.326-0.311-0.668-0.623-1.031-0.904l2.553-0.734l-0.734,1.527
		L47.064,167.623z M47.658,167.922l-0.105,0.184c-0.044-0.037-0.096-0.111-0.147-0.148L47.658,167.922z M47.553,160.041l0.245-0.594
		h0.662c0.815,0.562,1.631,1.172,2.372,1.84l-2.018,4.236l-3.146,0.912c-0.104-0.08-0.208-0.146-0.312-0.252l2.436-6.039
		L47.553,160.041z M41.306,160.338l2.049-3.377c0.146,0.252,0.341,0.498,0.578,0.75l-2.923,6.285c-0.46-0.156-0.95-0.26-1.441-0.365
		L41.306,160.338z M35.972,155.553c0.185,0,0.355,0.021,0.541,0.021c-0.549,0.475-0.966,0.727-0.966,0.727l-1.364,3.979
		l-3.852-1.516l-0.652-2.285C31.675,155.887,33.783,155.553,35.972,155.553z M29.679,162.742l-0.594-4.09l0.957,0.379l1.321,4.504
		L29.679,162.742z M31.245,163.899c-0.453,0.143-0.892,0.305-1.336,0.475l-0.179-1.188L31.245,163.899z M30.474,159.201l3.605,1.434
		l-0.994,2.871c-0.431,0.059-0.861,0.135-1.27,0.236L30.474,159.201z M29.308,156.582l0.602,1.996l-0.891-0.354l-0.209-1.465
		C28.975,156.709,29.153,156.627,29.308,156.582z M28.455,156.887l0.163,1.188l-0.712-0.289l-0.148,0.34l0.935,0.371l0.578,4.053
		l-6.092-2.908C24.788,158.496,26.555,157.586,28.455,156.887z M23.164,159.655l-0.155,0.326l6.321,2.998l0.222,1.559
		c-2.018,0.875-3.813,2.182-5.297,3.785l-1.039,0.168l-4.451-4.754C20.048,162.178,21.525,160.819,23.164,159.655z M25.575,191.182
		l-1.261,0.957l0.163-1.98C24.819,190.522,25.191,190.856,25.575,191.182z M23.855,168.752c-0.059,0.072-0.127,0.133-0.193,0.223
		l-0.135-0.164L23.855,168.752z M23.432,169.256c-0.268,0.357-0.543,0.713-0.772,1.068l-1.445-1.135l1.868-0.32L23.432,169.256z
		 M18.533,164.047l4.237,4.52l-1.929,0.303l-3.665-2.906C17.607,165.301,18.044,164.664,18.533,164.047z M16.984,166.303
		l3.354,2.672l-5.089,0.844C15.722,168.59,16.309,167.416,16.984,166.303z M15.106,170.235l5.625-0.949l1.625,1.283l-7.938,1.893
		C14.602,171.69,14.831,170.955,15.106,170.235z M14.313,172.862l7.932-1.869c-1.344,2.248-2.145,4.859-2.219,7.664l-0.312,0.186
		l-5.876-3.027C13.943,174.807,14.089,173.84,14.313,172.862z M20.077,180.772l-1.878-0.541l1.529-0.949l0.29,0.154
		C20.026,179.873,20.048,180.334,20.077,180.772z M13.748,177.781c0-0.525,0.046-1.047,0.075-1.551l5.535,2.85l-1.641,1.008
		l-3.91-1.111C13.779,178.576,13.748,178.182,13.748,177.781z M13.823,179.362l3.472,0.994l-3.087,1.93
		C14.016,181.344,13.889,180.356,13.823,179.362z M14.313,182.664l3.458-2.166l2.373,0.674c0.03,0.244,0.06,0.461,0.112,0.699
		l-5.083,3.664C14.824,184.6,14.535,183.651,14.313,182.664z M15.307,185.893l5.016-3.615c0.558,2.783,1.854,5.299,3.658,7.338
		l-4.83,2.643C17.532,190.387,16.235,188.237,15.307,185.893z M23.572,196.213c-0.712-0.467-1.38-1.002-2.003-1.551l2.286-1.723
		L23.572,196.213z M21.287,194.408c-0.667-0.586-1.283-1.217-1.885-1.867l4.719-2.568l-0.216,2.463L21.287,194.408z M23.937,196.428
		l0.318-3.783l1.604-1.219c0.34,0.291,0.696,0.564,1.046,0.811l-0.112,5.498l0.378,0.014l0.112-5.283
		c2.33,1.492,5.046,2.414,7.984,2.523l-1.508,4.912C30.175,199.543,26.808,198.305,23.937,196.428z M34.153,199.922l1.484-4.91
		c0.104,0,0.193,0.021,0.269,0.021c0.036,0,0.066-0.008,0.103-0.008c0.03,0,0.044,0.008,0.074,0.008
		c0.074,0,0.163-0.008,0.253-0.021l0.178,0.199l-0.741,4.785C35.229,199.996,34.687,199.953,34.153,199.922z M36.141,200.004
		l0.683-4.408l3.295,4.023C38.827,199.864,37.507,199.996,36.141,200.004z M40.534,199.537l-3.651-4.43l0.039-0.119
		c0.868-0.053,1.735-0.156,2.558-0.326l3.837,4.072C42.418,199.055,41.484,199.323,40.534,199.537z M43.696,198.596l-3.799-4.061
		c3.042-0.734,5.758-2.373,7.835-4.6l2.374,4.979C48.221,196.479,46.039,197.727,43.696,198.596z M50.403,194.662l-2.403-5.023
		l2.872,0.408l1.684,2.484C51.887,193.297,51.166,194.024,50.403,194.662z M52.807,192.258l-1.432-2.152l2.796,0.416
		C53.741,191.115,53.297,191.709,52.807,192.258z M54.425,190.158l-3.34-0.461l-1.491-2.227c0.142-0.207,0.281-0.43,0.394-0.645
		l6.062,0.445C55.575,188.274,55.04,189.26,54.425,190.158z M56.22,186.901l-6.04-0.43c1.158-2.203,1.812-4.697,1.812-7.361
		c0-0.117-0.008-0.223-0.008-0.342l0.438-0.268l5.521,2.494C57.646,183.065,57.066,185.061,56.22,186.901z M58.001,180.61
		l-5.209-2.354l1.521-0.957l3.51,1.023l0.104-0.369l-3.176-0.906l3.257-2.055c0.126,0.918,0.185,1.846,0.185,2.789
		C58.193,178.733,58.134,179.674,58.001,180.61z M53.03,150.307l5.595-12.719l0.979-2.471v13.764l6.129,5.766l-1.054,1.402
		L53.03,150.307z M70.993,170.184c-0.898-4.475-2.634-8.631-5.038-12.34l-0.631,0.861l1.031-1.395l1.068-1.402l1.12-1.506
		l-1.371-1.277l-5.462-5.143v-12.487l0.928-1.054c0.808,0.245,1.328,0.469,1.655,0.624l-1.113,4.185l-0.119,0.43l0.08,0.445
		c0.527,3.205,2.494,3.562,3.325,3.562c1.365,0,1.713,3.977,1.906,5.461l0.171,1.305l1.246,0.416l2.042,0.684l-0.49,5.178
		l-0.015,0.135l0.015,0.156c0.142,3.145,1.357,6.514,4.348,6.514c1.262,0,2.508-0.646,3.808-2.004
		c0.311-0.342,0.778-0.719,1.208-0.719c0.55,0,1.247,0.557,1.9,1.275c-1.514,0.564-3.622,1.426-6.396,2.73
		C73.643,166.03,72.01,168.069,70.993,170.184z M148.086,184c-1.211,0.6-0.861,2.596,0.379,3.494
		c-14.039,5.395-50.13,5.676-57.319,4.119c-7.182-1.559-16.592-8.66-15.93-13.127c0.667-4.422,0.222-5.92,5.854-6.617l-0.016,0.119
		c0,0,3.911,8.812,10.263,9.807c17.903,2.746,21.191-7.182,22.021-11.938l19.115-6.352l0.015-0.098
		c0.08-0.406,0.354-0.377,0.354-0.377l4.594-1.357c0.587,0.252,1.21,0.4,1.907,0.4c2.33,0,4.252-1.693,4.683-3.91
		c5.082-1.232,10.661-2.842,15.307-4.832c0.156,1.076,0.52,2.256,1.231,3.027c-0.601,1.865-7.776,23.686-10.477,26.305
		c-1.076-0.869-8.941-7.168-13.771-11.738l-0.061-0.053l-2.15,0.357L148.086,184z"/>
</g>
</svg>
