<?xml version="1.0" encoding="utf-8"?>
<!-- Generator: Adobe Illustrator 16.0.0, SVG Export Plug-In . SVG Version: 6.00 Build 0)  -->
<!DOCTYPE svg PUBLIC "-//W3C//DTD SVG 1.1//EN" "http://www.w3.org/Graphics/SVG/1.1/DTD/svg11.dtd">
<svg version="1.1" id="Layer_1" xmlns="http://www.w3.org/2000/svg" xmlns:xlink="http://www.w3.org/1999/xlink" x="0px" y="0px"
	 width="68.354px" height="51.926px" viewBox="0 0 68.354 51.926" enable-background="new 0 0 68.354 51.926" xml:space="preserve">
<g>
	<g opacity="0.6">
		<g>
			<path fill="#FFFFFF" d="M31.754,21.412c0-0.424-0.678-0.77-1.51-0.77c-0.834,0-1.512,0.346-1.512,0.77
				c0,0.422,0.678,0.768,1.512,0.768C31.076,22.179,31.754,21.833,31.754,21.412z"/>
			<path fill="#FFFFFF" d="M10.793,26.296c2.361-0.086,6.115-0.16,7.412-0.162c-0.033,2.377,4.098,3.129,5.352,3.129
				c1.25,0,2.373,0,3.781,0c1.41,0,2.344-0.707,2.344-2.438c0-1.732-0.357-3.217-0.357-3.217c-0.328-0.736-1.107-0.83-2.895-0.83
				c-1.781,0-4.619,0-5.561,0c-2.311,0-2.574,0.754-2.73,1.537c-0.17-0.324-0.471-0.371-0.877-0.477
				c-0.406-0.111-5.17-1.383-6.27-1.711c-1.102-0.326-3.201-1.014-3.523,0.09c-0.318,1.109-0.82,3.062,0.828,3.062
				C8.231,26.263,8.928,26.365,10.793,26.296z M18.932,24.121c0.318-0.51,0.83-0.848,1.781-0.836
				c1.271,0.02,5.646,0.135,6.416,0.197c0.775,0.068,1.42,0.32,1.514,1.467c0.09,1.145,0.344,2.607-0.484,3.148
				c-0.824,0.539-3.883,0.416-5.09,0.285c-1.209-0.131-3.945-0.699-4.137-1.781C18.74,25.521,18.614,24.628,18.932,24.121z"/>
			<path fill="#FFFFFF" d="M31.164,23.609c0,0-0.359,1.484-0.359,3.217c0,1.73,0.936,2.438,2.342,2.438c1.018,0,1.889,0,2.762,0
				v-0.781c-1.359,0.043-3.006-0.012-3.58-0.385c-0.826-0.541-0.574-2.004-0.484-3.148c0.096-1.146,0.74-1.398,1.512-1.467
				c0.344-0.027,1.385-0.066,2.553-0.102v-0.602c-0.66,0-1.305,0-1.854,0C32.27,22.779,31.49,22.873,31.164,23.609z"/>
		</g>
		<path fill="#FFFFFF" d="M35.908,31.765l-5.129,0.023l-10.273-0.045c-0.453-0.861-2.418-1.148-5.156-1.402
			c-2.738-0.256-4.355-0.445-5.127-0.479C9.448,29.83,8.49,29.63,8.549,31.136c0.059,1.508,0.186,2.529,1.869,2.725
			c1.688,0.199,4.691,0.375,6.479,0.506c1.787,0.137,4.262,0.449,4.061-0.328c1.727-0.076,0.699,0.578,2.049,0.617
			c1.346,0.035,7.77,0,7.77,0s2.834,0.016,5.133,0.016V31.765z"/>
		<g>
			<path fill="#FFFFFF" d="M51.317,18.352c-7.385,0-13.395,6.007-13.395,13.392c0,7.387,6.01,13.393,13.395,13.393
				s13.393-6.006,13.393-13.393C64.709,24.359,58.701,18.352,51.317,18.352z M51.317,43.744c-6.617,0-12.002-5.383-12.002-12
				s5.385-12,12.002-12c6.615,0,11.998,5.383,11.998,12S57.932,43.744,51.317,43.744z"/>
			<path fill="#FFFFFF" d="M54.78,23.101c-0.283-0.119-0.613,0.018-0.73,0.309l-2.967,7.193c-0.066-0.008-0.129-0.018-0.195-0.018
				c-0.957,0-1.738,0.777-1.738,1.734c0,0.797,0.543,1.467,1.279,1.668v6.039c0,0.219,0.205,0.402,0.459,0.402
				s0.457-0.184,0.457-0.402v-6.039c0.734-0.203,1.281-0.871,1.281-1.67c0-0.488-0.207-0.928-0.535-1.246l2.99-7.238
				C55.199,23.546,55.065,23.216,54.78,23.101z M50.887,33.25c-0.512,0-0.93-0.418-0.93-0.932c0-0.512,0.418-0.928,0.93-0.928
				c0.514,0,0.932,0.416,0.932,0.928C51.819,32.832,51.401,33.25,50.887,33.25z"/>
			<path fill="#FFFFFF" d="M44.133,28.296c0.07-0.098,0.154-0.195,0.242-0.287c0.068-0.07,0.371-0.35,0.896-0.83
				c0.102-0.102,0.225-0.229,0.373-0.383c0.141-0.152,0.268-0.357,0.377-0.605s0.164-0.521,0.164-0.814
				c0-0.26-0.047-0.523-0.139-0.791c-0.088-0.262-0.264-0.479-0.516-0.648c-0.26-0.168-0.592-0.254-0.99-0.254
				c-0.287,0-0.541,0.045-0.75,0.129c-0.211,0.084-0.391,0.209-0.539,0.371c-0.146,0.164-0.262,0.369-0.348,0.605
				c-0.08,0.225-0.139,0.484-0.172,0.773l0.949,0.074c0.016-0.135,0.039-0.281,0.07-0.438c0.039-0.188,0.113-0.355,0.229-0.494
				c0.121-0.148,0.283-0.223,0.48-0.223c0.223,0,0.393,0.07,0.512,0.209c0.117,0.137,0.174,0.354,0.174,0.664
				c0,0.15-0.035,0.316-0.107,0.498c-0.07,0.176-0.184,0.357-0.338,0.533c-0.15,0.178-0.348,0.369-0.584,0.574
				c-0.119,0.102-0.252,0.223-0.393,0.363s-0.293,0.314-0.447,0.523c-0.154,0.205-0.283,0.439-0.379,0.699
				c-0.1,0.256-0.148,0.521-0.148,0.797v0.209h3.389v-0.871h-2.213l0.033-0.082C43.998,28.498,44.059,28.396,44.133,28.296z"/>
			<path fill="#FFFFFF" d="M55.309,31.703v1.199h3.146c-0.324,0.389-0.625,0.803-0.912,1.252c-0.283,0.449-0.539,0.912-0.764,1.393
				c-0.223,0.479-0.414,0.967-0.572,1.465c-0.156,0.498-0.27,0.988-0.332,1.473h1.578c0.086-0.486,0.199-0.975,0.338-1.465
				c0.139-0.486,0.309-0.973,0.506-1.449c0.203-0.477,0.434-0.949,0.697-1.412c0.266-0.463,0.568-0.912,0.91-1.35v-1.105H55.309z"/>
			<path fill="#FFFFFF" d="M48.84,29.613h1.074v-1.281h0.477v-0.881h-0.477v-3.707h-1.115L46.662,27.3v1.031h2.178v1.279V29.613z
				 M47.512,27.451l1.328-2.25v2.25H47.512z"/>
		</g>
		<path fill="#FFFFFF" d="M24.231,37.509c-1.795-0.07-4.674-0.219-5.262-0.328c-0.092-0.02-0.191-0.039-0.299-0.062
			c-0.768-0.154-1.816-0.367-3.477-0.367c-0.252,0-0.514,0.006-0.766,0.016c-3.818-0.07-8.172-0.182-8.941-0.279
			c-0.369-0.045-0.408-0.051-0.455-0.848L4.99,34.955c-0.104-1.781-0.209-3.621-0.225-4.799c-0.027-2.203,0.426-7.346,1.039-8.346
			c1.275-2.069,5.338-4.283,5.826-4.544h29.336h7.912h2.229c-0.17-0.107-0.334-0.206-0.486-0.299h0.609c0.551,0,2.23,0,2.23-1.529
			c0-1.162-1.314-1.505-2.012-1.523c0,0-0.744-0.006-1.369,0c-0.396,0.003-1.203,0.009-1.246,0.817
			c-1.375-2.609-3.803-5.863-5.695-7.124c-0.662-0.44-1.473-0.455-1.48-0.455h-0.006C36.781,6.793,30.375,6.79,30.313,6.79h-0.111
			c-0.062,0-6.48,0.003-11.32,0.361c-0.088,0.002-0.857,0.026-1.506,0.454c-1.908,1.271-4.354,4.558-5.725,7.176
			c-0.01-0.858-0.844-0.864-1.248-0.867c-0.625-0.006-1.363,0-1.373,0c-0.691,0.019-2.004,0.361-2.004,1.523
			c0,1.529,1.678,1.529,2.229,1.529h0.635c-1.533,0.92-4.002,2.577-5.037,4.255c-0.904,1.473-1.227,7.299-1.205,8.947
			c0.014,1.201,0.121,3.055,0.227,4.85L4.033,38c0.059,1.602,0.795,2.346,2.316,2.346h6.018c0.855,0,1.525-0.268,1.992-0.799
			c0.055-0.062,0.107-0.133,0.166-0.219l0.043-0.068c0.033-0.055,0.068-0.111,0.107-0.188l0.023-0.045
			c0.037-0.076,0.07-0.152,0.098-0.229l0.012-0.031c0.023-0.066,0.047-0.133,0.062-0.199l0.021-0.07
			c0.014-0.057,0.025-0.111,0.037-0.166l0.012-0.059c0.014-0.072,0.025-0.141,0.031-0.205l0.006-0.041
			c0.004-0.053,0.01-0.104,0.012-0.152c0.068-0.002,0.137-0.002,0.203-0.002c1.547,0,2.533,0.201,3.27,0.35
			c0.104,0.021,0.201,0.039,0.297,0.059c0.9,0.17,5.393,0.35,5.445,0.352l5.963,0.031l5.74-0.029v-1.123l-5.574,0.033L24.231,37.509
			z M17.996,8.54c0.365-0.243,0.867-0.266,0.932-0.269c4.836-0.358,11.211-0.362,11.273-0.362h0.111
			c0.062,0,6.439,0.004,11.303,0.364c0.006,0,0.527,0.016,0.904,0.267c1.867,1.245,4.334,4.659,5.566,7.188H12.43
			C13.668,13.188,16.129,9.782,17.996,8.54z"/>
	</g>
	<g>
		<rect x="0" y="-0.001" fill="none" width="68.354" height="51.928"/>
	</g>
</g>
</svg>
