<?xml version="1.0" encoding="utf-8"?>
<!-- Generator: Adobe Illustrator 16.0.0, SVG Export Plug-In . SVG Version: 6.00 Build 0)  -->
<!DOCTYPE svg PUBLIC "-//W3C//DTD SVG 1.1//EN" "http://www.w3.org/Graphics/SVG/1.1/DTD/svg11.dtd">
<svg version="1.1" id="Layer_1" xmlns="http://www.w3.org/2000/svg" xmlns:xlink="http://www.w3.org/1999/xlink" x="0px" y="0px"
	 width="68.354px" height="51.926px" viewBox="0 0 68.354 51.926" enable-background="new 0 0 68.354 51.926" xml:space="preserve">
<g>
	<g opacity="0.6">
		<g>
			<ellipse fill="#FFFFFF" cx="26.004" cy="21.702" rx="1.469" ry="0.746"/>
			<path fill="#FFFFFF" d="M7.074,26.456c2.298-0.081,5.95-0.152,7.213-0.154c-0.032,2.31,3.987,3.042,5.208,3.042
				c1.219,0,2.311,0,3.683,0c1.371,0,2.278-0.688,2.278-2.374c0-1.686-0.348-3.127-0.348-3.127
				c-0.318-0.717-1.076-0.812-2.814-0.812c-1.737,0-4.497,0-5.416,0c-2.247,0-2.502,0.734-2.656,1.498
				c-0.165-0.316-0.458-0.362-0.854-0.463c-0.393-0.107-5.03-1.347-6.1-1.665c-1.072-0.32-3.117-0.989-3.429,0.086
				c-0.309,1.079-0.801,2.981,0.806,2.981C4.581,26.425,5.26,26.523,7.074,26.456z M14.996,24.34
				c0.31-0.495,0.807-0.827,1.732-0.813c1.238,0.018,5.495,0.129,6.247,0.191c0.751,0.065,1.38,0.312,1.47,1.426
				c0.09,1.114,0.335,2.54-0.471,3.066c-0.801,0.522-3.777,0.406-4.952,0.277c-1.177-0.125-3.838-0.681-4.026-1.732
				C14.809,25.7,14.685,24.833,14.996,24.34z"/>
			<path fill="#FFFFFF" d="M41.721,25.91c0.22,0,0.396-0.177,0.396-0.397v-3.767c0-0.22-0.177-0.397-0.396-0.397
				c-0.218,0-0.396,0.177-0.396,0.397v3.767C41.325,25.733,41.503,25.91,41.721,25.91z"/>
			<path fill="#FFFFFF" d="M51.961,25.91c0.218,0,0.396-0.177,0.396-0.397v-3.767c0-0.22-0.179-0.397-0.396-0.397
				c-0.219,0-0.396,0.177-0.396,0.397v3.767C51.565,25.733,51.742,25.91,51.961,25.91z"/>
			<path fill="#FFFFFF" d="M26.9,23.843c0,0-0.349,1.441-0.349,3.127c0,1.687,0.91,2.374,2.281,2.374c0.992,0,1.834,0,2.688,0
				v-0.761c-1.324,0.042-2.926-0.012-3.485-0.374c-0.806-0.526-0.559-1.952-0.469-3.066c0.091-1.114,0.717-1.361,1.469-1.426
				c0.333-0.027,1.347-0.063,2.485-0.098v-0.588c-0.643,0-1.272,0-1.804,0C27.977,23.031,27.219,23.126,26.9,23.843z"/>
		</g>
		<path fill="#FFFFFF" d="M31.519,31.778l-4.993,0.021l-10-0.042c-0.439-0.839-2.349-1.116-5.015-1.364
			c-2.667-0.251-4.239-0.434-4.991-0.465c-0.754-0.032-1.687-0.226-1.629,1.237c0.058,1.469,0.18,2.465,1.821,2.653
			c1.641,0.193,4.563,0.362,6.305,0.493c1.741,0.134,4.146,0.438,3.952-0.321c1.681-0.073,0.681,0.564,1.993,0.602
			c1.311,0.034,7.563,0,7.563,0s2.758,0.015,4.996,0.015V31.778z"/>
		<path fill="#FFFFFF" d="M48.101,18.888c-0.81-0.606-1.632-1.133-2.265-1.513h0.595c0.537,0,2.17,0,2.17-1.486
			c0-1.132-1.278-1.466-1.959-1.485c0,0-0.721-0.005-1.331,0c-0.385,0.003-1.172,0.009-1.213,0.798
			c-1.338-2.542-3.701-5.708-5.542-6.935c-0.645-0.431-1.436-0.442-1.443-0.442h-0.005c-4.739-0.349-10.972-0.354-11.037-0.354
			h-0.106c-0.062,0-6.308,0.005-11.021,0.353c-0.082,0.002-0.833,0.024-1.464,0.442c-1.858,1.236-4.24,4.433-5.57,6.985
			c-0.01-0.837-0.821-0.844-1.214-0.847c-0.611-0.004-1.33,0.001-1.336,0c-0.675,0.019-1.953,0.353-1.953,1.485
			c0,1.486,1.634,1.486,2.17,1.486h0.62c-1.495,0.896-3.895,2.508-4.904,4.142c-0.881,1.436-1.193,7.105-1.173,8.708
			c0.014,1.172,0.12,2.974,0.22,4.722l0.155,2.899c0.059,1.56,0.775,2.286,2.255,2.286h5.858c0.833,0,1.483-0.265,1.936-0.78
			c0.054-0.061,0.105-0.13,0.162-0.212l0.042-0.065c0.035-0.055,0.067-0.112,0.105-0.184l0.023-0.046
			c0.036-0.073,0.068-0.148,0.096-0.222l0.01-0.029c0.024-0.065,0.044-0.129,0.063-0.194l0.019-0.069
			c0.014-0.054,0.025-0.108,0.037-0.162l0.013-0.056c0.01-0.067,0.022-0.137,0.03-0.2l0.005-0.041c0.006-0.05,0.008-0.1,0.012-0.146
			c0.066-0.002,0.132-0.002,0.198-0.002c1.506,0,2.465,0.195,3.181,0.34c0.102,0.021,0.198,0.038,0.289,0.056
			c0.876,0.167,5.248,0.341,5.301,0.343l5.802,0.033l5.588-0.031v-1.091l-5.423,0.031l-5.944-0.033
			c-1.744-0.069-4.548-0.212-5.119-0.323c-0.089-0.016-0.187-0.035-0.294-0.057c-0.745-0.152-1.767-0.358-3.381-0.358
			c-0.246,0-0.501,0.006-0.746,0.014c-3.716-0.069-7.954-0.177-8.703-0.268c-0.36-0.047-0.398-0.052-0.441-0.827l-0.04-0.666
			c-0.102-1.734-0.207-3.527-0.221-4.674c-0.027-2.143,0.413-7.147,1.014-8.123c1.239-2.011,5.192-4.167,5.668-4.422h36.253
			c0.238,0.126,1.358,0.736,2.58,1.574l0.055,0.038h1.847L48.101,18.888z M8.665,16.17c1.206-2.472,3.602-5.788,5.418-6.995
			c0.356-0.237,0.844-0.259,0.911-0.262c4.704-0.347,10.909-0.352,10.971-0.352h0.106c0.064,0,6.268,0.005,11.002,0.354
			c0.006,0,0.513,0.017,0.879,0.259c1.818,1.212,4.22,4.537,5.417,6.996H8.665z"/>
		<rect x="37.852" y="28.384" fill="#FFFFFF" width="12.076" height="2.552"/>
		<rect x="37.852" y="32.946" fill="#FFFFFF" width="8.989" height="2.55"/>
		<rect x="37.852" y="37.505" fill="#FFFFFF" width="8.989" height="2.55"/>
		<g>
			<path fill="#FFFFFF" d="M62.673,39.502c-0.148,0.002-0.259-0.069-0.367-0.164c-0.82-0.734-1.64-1.469-2.458-2.201
				c-0.086-0.079-0.171-0.121-0.292-0.123c-0.469-0.014-0.904-0.339-1.05-0.765c-0.167-0.488-0.036-0.995,0.351-1.305
				c0.119-0.093,0.157-0.188,0.16-0.332c0.045-1.01,0.1-2.021,0.153-3.029c0.017-0.285,0.206-0.478,0.458-0.476
				c0.243,0.006,0.418,0.204,0.435,0.493c0.044,1.016,0.091,2.027,0.128,3.049c0.007,0.111,0.036,0.183,0.126,0.246
				c0.288,0.212,0.451,0.497,0.476,0.857c0.004,0.087,0.044,0.15,0.098,0.209c0.747,0.85,1.494,1.705,2.243,2.553
				c0.157,0.18,0.215,0.376,0.112,0.596C63.127,39.342,62.944,39.487,62.673,39.502z"/>
			<path fill="#FFFFFF" d="M59.606,44.455c-4.757-0.014-8.609-3.871-8.606-8.624c0.011-4.76,3.884-8.627,8.638-8.605
				c4.761,0.017,8.609,3.883,8.599,8.631C68.216,40.612,64.354,44.464,59.606,44.455z M66.319,35.151
				c-0.011-0.445-0.306-1.505-0.527-2.004c-0.515-1.146-1.274-2.084-2.295-2.811c-0.877-0.628-1.86-1.002-2.921-1.169
				c-0.11-0.018-0.243-0.067-0.313-0.021c-0.097,0.058-0.03,0.204-0.04,0.314c-0.022,0.279-0.21,0.527-0.443,0.583
				c-0.281,0.068-0.555-0.052-0.689-0.306c-0.075-0.152-0.077-0.322-0.071-0.482c0.006-0.094-0.021-0.131-0.122-0.119
				c-0.701,0.087-1.372,0.268-2.024,0.557c-1.143,0.515-2.071,1.291-2.79,2.316c-0.604,0.873-0.971,1.839-1.134,2.885
				c-0.015,0.104-0.062,0.241-0.018,0.314c0.05,0.083,0.197,0.021,0.303,0.023c0.287,0.022,0.54,0.216,0.593,0.454
				c0.062,0.287-0.062,0.554-0.319,0.685c-0.148,0.077-0.317,0.077-0.482,0.071c-0.088-0.006-0.121,0.018-0.11,0.113
				c0.085,0.687,0.261,1.357,0.543,1.993c0.504,1.139,1.27,2.069,2.286,2.792c0.879,0.628,1.861,1.006,2.922,1.17
				c0.104,0.018,0.241,0.067,0.315,0.023c0.09-0.057,0.023-0.207,0.036-0.312c0.024-0.281,0.206-0.532,0.442-0.584
				c0.282-0.067,0.556,0.052,0.69,0.305c0.08,0.152,0.08,0.319,0.069,0.483c-0.005,0.097,0.018,0.131,0.126,0.117
				c0.699-0.086,1.374-0.266,2.019-0.557c1.146-0.509,2.071-1.289,2.793-2.316c0.604-0.867,0.974-1.836,1.135-2.883
				c0.018-0.105,0.065-0.241,0.02-0.311c-0.049-0.086-0.2-0.021-0.303-0.03c-0.025-0.002-0.044-0.002-0.069-0.01
				c-0.336-0.058-0.547-0.301-0.54-0.613c0.003-0.296,0.215-0.518,0.544-0.57c0.093-0.017,0.19-0.017,0.287-0.015
				C66.302,35.238,66.339,35.22,66.319,35.151z"/>
		</g>
		<path fill="#FFFFFF" d="M51.565,41.99H36.921c-0.741,0-1.342-0.602-1.342-1.341V25.702c0-0.74,0.601-1.341,1.342-1.341h2.394
			h1.462v-2.893c0-0.52,0.424-0.943,0.944-0.943c0.521,0,0.945,0.423,0.945,0.943v2.893h1.462h5.424h1.465v-2.893
			c0-0.52,0.423-0.943,0.944-0.943c0.52,0,0.944,0.423,0.944,0.943v2.893h1.463h2.393c0.739,0,1.342,0.602,1.342,1.341v0.208h1.463
			v-0.208c0-1.545-1.259-2.804-2.805-2.804h-2.393v-1.43c0-1.326-1.081-2.406-2.407-2.406c-1.329,0-2.409,1.08-2.409,2.406v1.43
			h-5.424v-1.43c0-1.326-1.079-2.406-2.407-2.406c-1.327,0-2.406,1.08-2.406,2.406v1.43h-2.394c-1.546,0-2.803,1.258-2.803,2.804
			v14.947c0,1.547,1.257,2.804,2.803,2.804h14.644V41.99z"/>
	</g>
	<g>
		<rect x="0" y="-0.001" fill="none" width="68.354" height="51.928"/>
	</g>
</g>
</svg>
