<?xml version="1.0" encoding="utf-8"?>
<!-- Generator: Adobe Illustrator 16.0.0, SVG Export Plug-In . SVG Version: 6.00 Build 0)  -->
<!DOCTYPE svg PUBLIC "-//W3C//DTD SVG 1.1//EN" "http://www.w3.org/Graphics/SVG/1.1/DTD/svg11.dtd">
<svg version="1.1" id="Layer_1" xmlns="http://www.w3.org/2000/svg" xmlns:xlink="http://www.w3.org/1999/xlink" x="0px" y="0px"
	 width="68.354px" height="51.926px" viewBox="0 0 68.354 51.926" enable-background="new 0 0 68.354 51.926" xml:space="preserve">
<g>
	<g>
		<rect x="0" y="-0.001" fill="none" width="68.354" height="51.928"/>
	</g>
</g>
<g>
	<g>
		<rect x="10.421" y="23.778" fill="#FFFFFF" width="25.234" height="2.189"/>
		<rect x="10.421" y="29.307" fill="#FFFFFF" width="21.554" height="2.188"/>
		<rect x="10.421" y="18.253" fill="#FFFFFF" width="30.315" height="2.189"/>
		<path fill="#FFFFFF" d="M44.199,35.118c0,1.718-1.22,3.116-2.719,3.116H10.235c-1.499,0-2.719-1.398-2.719-3.116v-18.31
			c0-1.718,1.22-3.116,2.719-3.116h31.247c1.499,0,2.719,1.398,2.719,3.116v3.787c0.542-0.219,1.063-0.403,1.559-0.561v-3.227
			c0-2.577-1.918-4.674-4.276-4.674H10.235c-2.357,0-4.275,2.097-4.275,4.674v18.311c0,2.577,1.918,4.674,4.275,4.674h31.247
			c2.358,0,4.276-2.097,4.276-4.674V29.85c-0.535,0.14-1.052,0.303-1.559,0.48V35.118z"/>
	</g>
	<g>
		<path fill="#FFFFFF" d="M53.037,15.891l0.512,4.17l-1.202,0.107c-0.086,0.008-8.678,0.872-13.007,7.367
			c-2.006,3.007-2.875,6.093-3.238,8.479c2.94-4.021,8.591-9.667,17.139-9.667h1.016l0.803,5.658l7.338-9.588L53.037,15.891z"/>
	</g>
</g>
</svg>
