<?xml version="1.0" encoding="utf-8"?>
<!-- Generator: Adobe Illustrator 16.0.0, SVG Export Plug-In . SVG Version: 6.00 Build 0)  -->
<!DOCTYPE svg PUBLIC "-//W3C//DTD SVG 1.1//EN" "http://www.w3.org/Graphics/SVG/1.1/DTD/svg11.dtd">
<svg version="1.1" id="Layer_1" xmlns="http://www.w3.org/2000/svg" xmlns:xlink="http://www.w3.org/1999/xlink" x="0px" y="0px"
	 width="68.354px" height="51.926px" viewBox="0 0 68.354 51.926" enable-background="new 0 0 68.354 51.926" xml:space="preserve">
<g>
	<g opacity="0.61">
		<path fill="#FFFFFF" d="M47.096,39.328c0,0.605-0.494,1.1-1.103,1.1H10.361c-0.607,0-1.101-0.494-1.101-1.1V12.599
			c0-0.605,0.493-1.1,1.101-1.1h35.633c0.608,0,1.103,0.492,1.103,1.1v9.092c0.663-0.291,1.319-0.537,1.962-0.746v-8.346
			c0-1.688-1.375-3.061-3.064-3.061H10.361c-1.688,0-3.062,1.373-3.062,3.061v26.729c0,1.688,1.374,3.061,3.062,3.061h35.633
			c1.689,0,3.064-1.373,3.064-3.061v-10.17c-0.676,0.195-1.33,0.426-1.962,0.684V39.328z"/>
		<rect x="13.76" y="16.896" fill="#FFFFFF" width="27.519" height="2.793"/>
		<rect x="13.864" y="23.906" fill="#FFFFFF" width="22.755" height="2.791"/>
		<rect x="13.993" y="30.939" fill="#FFFFFF" width="15.684" height="2.795"/>
		<path fill="#FFFFFF" d="M53.866,18.202l-0.016,3.555l-0.508,0.014c-1.35,0.041-5.979,0.438-8.968,3.885
			c-3.07,3.539-3.367,7.564-3.395,8.23c0.516-0.758,4.834-6.76,11.399-6.76c0.312,0,0.629,0.014,0.943,0.041l0.475,0.041
			l0.068,4.771l7.188-7.273L53.866,18.202z"/>
	</g>
	<g>
		<rect x="0" y="-0.001" fill="none" width="68.354" height="51.928"/>
	</g>
</g>
</svg>
