<?xml version="1.0" encoding="utf-8"?>
<!-- Generator: Adobe Illustrator 16.0.0, SVG Export Plug-In . SVG Version: 6.00 Build 0)  -->
<!DOCTYPE svg PUBLIC "-//W3C//DTD SVG 1.1//EN" "http://www.w3.org/Graphics/SVG/1.1/DTD/svg11.dtd">
<svg version="1.1" id="Layer_1" xmlns="http://www.w3.org/2000/svg" xmlns:xlink="http://www.w3.org/1999/xlink" x="0px" y="0px"
	 width="68.354px" height="51.926px" viewBox="0 0 68.354 51.926" enable-background="new 0 0 68.354 51.926" xml:space="preserve">
<rect x="0" y="-0.001" fill="none" width="68.354" height="51.928"/>
<g opacity="0.6">
	<path id="path31402" fill="#FFFFFF" d="M25.606,19.212c6.154,0.453,9.618-1.289,10.807-3.577h6.283
		c-1.891,5.463-7.781,8.887-17.09,8.418V19.212"/>
	<path id="path31404" fill="#FFFFFF" d="M47.236,24.057l-2.256,3.166l5.207,7.619V24.057H47.236z M31.651,24.699v9.756l4.915-7.3
		l-2.305-3.02c1.926-0.532,3.676-1.354,5.2-2.547l1.484,1.881l2.818-4.257h16.016v4.832h-3.602v11.8H43.763l-3.176-4.746
		l-3.303,4.746H25.607v-3.246c-0.839,2.295-3.489,3.693-8.742,3.693c-7.793,0-8.171-2.756-8.29-5.91h6.163
		c0.02,0.941,0.179,1.625,0.557,2.072c0.398,0.447,0.935,0.684,1.729,0.684c1.252,0,2.604-0.354,2.604-1.721
		c0-0.305-0.099-0.564-0.259-0.775c-0.814-1.082-7.673-1.883-9.602-3.885c-0.775-0.801-1.014-2.001-1.014-2.966
		c0-3.72,2.883-5.391,8.628-5.391c6.103,0,7.548,2.136,7.628,5.644h-5.935c-0.039-0.942-0.322-1.677-0.736-2.019
		c-0.399-0.33-0.746-0.482-1.355-0.471c-1.271,0.025-1.946,0.565-1.946,1.437c0,0.259,0.078,0.588,0.258,0.777
		c0.935,1.059,7.574,1.813,9.482,3.837c0.303,0.32,0.612,0.738,0.83,1.318v-3.915C27.579,25.08,29.631,25.016,31.651,24.699"/>
</g>
</svg>
