<?xml version="1.0" encoding="utf-8"?>
<!-- Generator: Adobe Illustrator 16.0.0, SVG Export Plug-In . SVG Version: 6.00 Build 0)  -->
<!DOCTYPE svg PUBLIC "-//W3C//DTD SVG 1.1//EN" "http://www.w3.org/Graphics/SVG/1.1/DTD/svg11.dtd">
<svg version="1.1" id="Layer_1" xmlns="http://www.w3.org/2000/svg" xmlns:xlink="http://www.w3.org/1999/xlink" x="0px" y="0px"
	 width="316.176px" height="272.059px" viewBox="0 0 316.176 272.059" enable-background="new 0 0 316.176 272.059"
	 xml:space="preserve">
<g opacity="0.6">
	<g>
		<rect x="0" y="0" fill="none" width="316.176" height="272.059"/>
	</g>
	<path fill="#FFFFFF" d="M186.156,173.058c-0.622,0.823-1.17,1.824-1.538,3.066l-5.451-0.174c0,0-4.396-2.437-6.332,0
		c-1.312,1.654-1.162,2.896-0.937,3.523c-0.057,0.135-0.164,0.297-0.328,0.468l-4.813-0.044c0.072-0.09,0.154-0.173,0.207-0.273
		c0.414-0.812,0.065-1.708-0.058-1.976l0.984-2.59l9.658-8.691c0.324,0.055,0.729,0.107,1.209,0.107c0.977,0,2.184-0.213,3.24-1.019
		l4.16,1.54v-2.491l-2.818-1.031l-1.949,1.757l0.152,0.059c-1.281,0.854-2.72,0.875-3.64,0.756l2.623-2.364
		c0.873-0.271,1.756-0.774,2.474-1.752l-0.289-0.212l3.447-3.104v-0.5l-5.822,5.242c-1.697,0.506-3.33,0.008-3.354,0l-0.117,0.354
		c0.017,0.004,0.816,0.263,1.894,0.263c0.309,0,0.643-0.026,0.984-0.083l-2.31,2.083c-0.262-0.058-0.445-0.105-0.451-0.111
		l-0.117,0.354c0.007,0.002,0.099,0.027,0.229,0.062l-8.916,8.027l8.975-23.616l0.056-0.138c2.344,0.003,4.338-0.986,4.977-2.506
		c0.226-0.53,1.832-1.418,3.976-2.394V138l-4.543,0.632c-5.24-2.237-11.162-5.948-11.187-6.049c-0.059-0.249-0.287-0.359-1.459-0.38
		c-0.641-0.015-1.463,0.012-2.26,0.045c3.082-1.018,4.787-4,4.551-4.28c-0.072-0.082-9.844-13.147-15.174-16.912
		c-5.332-3.766-12.529-5.08-20.453-4.177c-7.922,0.902-11.379,4.618-11.805,5.116c-6.224,7.231,7.276,17.896,7.287,17.896
		c0.038-0.014,32.362,3.421,32.362,3.421s0.119-0.039,0.289-0.095c0.031-0.01,0.062-0.02,0.099-0.034l9.188,11.134
		c0,0.032,0,0.111,0,0.16c-0.158,0.005-0.316,0.041-0.479,0.132c-0.328,0.182-7.365,2.722-14.666,4.736
		c-0.521-2.064-2.361-3.602-4.568-3.602c-2.236,0-4.096,1.566-4.598,3.67l-3.938,0.937c0,0-0.479-0.059-0.527-0.116l-0.082-0.104
		l-18.489,6.705c-1.787-3.257-4.156-5.763-8.961-5.763c-4.664,0-12.361,2.26-16.802,4.841c-0.67-1.163-2.51-3.961-4.834-3.963
		c-0.848,0-1.762,0.381-2.698,1.356c-0.941,0.979-1.688,1.357-2.275,1.357c-2.035,0-2.244-4.484-2.244-4.484l0.93-6.938
		l-3.883-1.059l-2.778-7.813c0,0-0.578,0.577-1.187,0.577c-0.498,0-1.014-0.387-1.246-1.797l1.39-5.21c0,0,0-1.392-4.693-2.434
		l-1.967,2.269l1.346-3.406l10.947-22.067l1.254-2.791c0.176-0.059,0.303-0.15,0.365-0.278c0.295-0.61-0.902-1.808-2.677-2.671
		c-1.776-0.858-3.459-1.062-3.754-0.447c-0.021,0.04-0.033,0.084-0.041,0.127c-0.006-0.01-0.012-0.015-0.016-0.02l-11.467,24.844
		l-3.39,6.863l-3.807,9.359c0,0-5.559-0.796-9.902-0.972c-3.065-0.124-1.771,2.192-0.744,3.568
		c-0.651-0.022-1.327-0.034-2.032-0.034c-3.556,0-7.758,0.312-12.691,1.118l-7.992-3.646c0,0,9.568-3.874,22.06-3.874
		c2.938,0,6.041,0.214,9.219,0.741l7.123-13.38c0,0-1.91-1.389-1.91-3.646h-2.955l-0.158,0.315c-2-4.872-1.5-17.695-0.711-22.212
		c0,0,7.644-0.104,10.095,2.592c3.313,3.646,2.938,8.356,2.938,8.356s1.394-6.559-1.875-9.011c-3.34-2.505-4.053-2.648-7.354-3.84
		c-2.043-9.105,6.575-13.53,9.887-12.419c4.256,1.428,6.99,9.979,6.99,9.979l0.582,0.111l-0.873-3.228l7.067-2.617l3.125,2.954
		l2.435,0.692c0,0,7.295,0.697,8.166,5.213c0.063,0.344,0.153,1.083,0.211,1.53c0,0-3.438,3.176-5.25,10.928
		c-3.334,1.81-8.533,10.526-8.338,12.684c0.194,2.159,14.768,14.074,14.768,14.074s18.1-0.143,24.318-2.491
		c0,0-4.75-3.503-7.519-9.639c-2.312-5.125-1.188-8.364,0.533-10.357c4.432-5.158,10.488-5.692,15.262-5.815
		c15.683-0.407,22.172,6.996,22.547,7.369c1.574,1.549,3.099,3.231,4.562,4.919h5.924l0.039,0.129
		c0.006,0.016,0.879,1.981,11.42,6.079c1.228-0.087,2.576-0.195,3.978-0.315l0.789-0.067c3.227-0.215,14.348-1.51,15.026-2.282
		l7.324-6.293c0.914-0.676,1.57-1.149,1.664-1.216l0.074-0.03l31.733-6.208c0.086-0.095,1.601-1.198,1.644-0.725l18.274,1.631
		c0,0,2.086,1.734,1.043,6.081c-0.039,0.163-0.078,0.312-0.116,0.467h2.149c1.295-5.433-1.426-7.888-1.738-8.148l-0.504-0.419
		l-0.646-0.057l-16.795-1.498c-0.146-0.453-0.334-0.96-0.57-1.543c-2.172-5.439-6.318-5.86-7.539-5.86
		c-0.254,0-0.459,0.018-0.606,0.03H210.91h-1.849l-0.221,1.833c-0.021,0.129-0.035,0.259-0.053,0.392
		c-0.806-0.209-1.8-0.334-3.025-0.334c-0.52,0-0.873,0.022-0.912,0.028l-0.26,0.017l-0.25,0.087
		c-12.148,4.046-21.18,6.018-27.598,6.018c-5.666,0-8.847-1.458-11.877-3.647c-6.345-4.581-14.089-8.214-14.414-8.365l-0.168-0.077
		l-0.179-0.048c-10.729-2.85-20.117-4.293-27.91-4.293c-8.571,0-13.819,1.75-16.916,3.489c-1.307-3.106-4.362-4.594-6.245-5.233
		l-6.158-1.804l-1.472-1.391l-0.237-0.224l-0.822-8.399c0,0,2.746,0.334,7.818-2.259c2.446-1.252,2.955-4.171,2.955-4.171
		l4.864-2.781c1.144-2.284-1.504-4.1-2.953-3.301l-4.346,2.781c0,0-4.77-0.193-4.518-3.304c0.645-7.947,3.205-13.433,3.205-13.433
		c0.018,0,1.873,0.229,1.891,0.229c4.752,0,4.984-2.604,4.984-2.604s1.864-10.886-0.877-10.886c-0.152,0-0.324,0.044-0.513,0.11
		c-6.795,2.447-8.17,17.552-8.17,17.552l-2.26,10.771l-2.777,2.083c-0.342-0.042-0.668-0.062-0.977-0.062
		c-3.305,0-3.697,1.226-4.758,2.322c-1.062,1.099-1.172,6.794,4.344,6.604c0.389,2.321,0.957,6.381,1.232,8.376l-0.515,0.275
		l-7.174,1.721l-0.059-0.087c0,0-1.289-5.107-5.783-6.823c-2.469-0.942-6.289-0.932-9.277,2.418
		c-2.062,2.316-2.875,5.521-2.414,9.534c0.111,0.973,0.299,2.127,0.621,3.289c-0.885-0.155-1.695-0.227-2.373-0.227h-3.127H58.08
		l-0.568,1.182c-2.172,4.51-2.381,9.72-1.936,14.151v0.014l0.004,0.024c0.551,5.443,2.084,9.707,2.201,10.022l0.202,0.552l0.3,0.814
		h1.452h3.304h1.287l0.315-0.635c0.277,0.749,0.666,1.373,1.051,1.864l-5.713,10.732c-2.617-0.363-5.323-0.548-8.069-0.548
		c-12.752,0-22.435,3.86-22.839,4.024l-4.493,1.816l4.407,2.014l2.275,1.039c-9.95,6.356-16.579,17.47-16.579,30.127
		c0,19.706,16.033,35.742,35.744,35.742c18.256,0,33.334-13.771,35.459-31.457c0.789,6.376,12.914,12.591,18.713,13.444
		c12.467,1.839,33.465,1.676,68.791-5.021l0.68,0.612l1.808,0.493c0,0,0.492-0.08,1.285-0.104c0.985,0.176,2.062,0.296,3.272,0.291
		c0.269,0.05,0.535,0.08,0.803,0.144c0.716,0.174,1.39,0.258,2.007,0.258c1.274,0,2.219-0.362,2.916-0.862v-10.862L186.156,173.058
		L186.156,173.058z M182.58,161.833c-0.336,0.423-0.705,0.735-1.097,0.985L182.58,161.833z M110.283,103.259
		c2.346,0,4.245,1.317,4.245,2.942c0,1.624-1.899,2.94-4.245,2.94c-2.351,0-4.25-1.316-4.25-2.94
		C106.033,104.576,107.934,103.259,110.283,103.259z M69.676,159.693l-6.758,0.946l0.771-1.602l3.482-1.015l-0.104-0.354
		l-3.166,0.919l1.83-3.803C67.268,156.223,68.596,157.871,69.676,159.693z M66.539,170.99c-0.033-0.432-0.09-0.855-0.156-1.278
		l2.045,0.588l-1.432,0.896L66.539,170.99z M66.619,171.43l-0.058,0.036c0-0.021-0.002-0.04-0.002-0.062L66.619,171.43z
		 M66.321,169.306c-0.002-0.013-0.004-0.027-0.008-0.043l5.67-4.102c0.229,0.841,0.402,1.696,0.529,2.575l-3.666,2.298
		L66.321,169.306z M66.233,168.862c-0.6-2.763-1.932-5.25-3.772-7.267l0.268-0.554l7.16-1.005c0.842,1.479,1.514,3.068,1.998,4.738
		L66.233,168.862z M64.008,180.875l1.205,1.798l-2.295-0.325C63.311,181.882,63.674,181.389,64.008,180.875z M61.701,160.808
		c-0.326-0.312-0.662-0.612-1.019-0.896l2.525-0.733l-0.73,1.523L61.701,160.808z M62.285,161.101l-0.095,0.198
		c-0.051-0.055-0.098-0.109-0.146-0.163L62.285,161.101z M62.182,153.29l0.238-0.6h0.664c0.824,0.564,1.621,1.167,2.358,1.835
		l-2.02,4.202l-3.109,0.904c-0.104-0.08-0.207-0.156-0.309-0.233l2.412-6.016L62.182,153.29z M55.99,153.565l2.018-3.343
		c0.154,0.239,0.342,0.485,0.59,0.735l-2.908,6.248c-0.465-0.152-0.948-0.252-1.43-0.363L55.99,153.565z M50.686,148.823
		c0.181,0,0.353,0.021,0.529,0.023c-0.551,0.463-0.959,0.721-0.959,0.721l-1.354,3.949l-3.812-1.512l-0.668-2.265
		C46.41,149.152,48.51,148.823,50.686,148.823z M44.424,155.957l-0.584-4.049l0.947,0.377l1.317,4.473L44.424,155.957z
		 M45.987,157.111c-0.45,0.14-0.895,0.306-1.327,0.479l-0.175-1.195L45.987,157.111z M45.223,152.459l3.562,1.411l-0.972,2.836
		c-0.424,0.083-0.852,0.147-1.262,0.259L45.223,152.459z M44.065,149.839l0.588,1.993l-0.875-0.35l-0.209-1.461
		C43.735,149.963,43.897,149.892,44.065,149.839z M43.213,150.153l0.17,1.176l-0.723-0.285l-0.14,0.345l0.92,0.365l0.578,4.015
		l-6.053-2.882C39.571,151.747,41.334,150.831,43.213,150.153z M37.965,152.887l-0.158,0.332l6.279,2.985l0.219,1.537
		c-2.006,0.875-3.785,2.164-5.254,3.748l-1.043,0.173l-4.42-4.707C34.852,155.408,36.33,154.044,37.965,152.887z M40.354,184.22
		l-1.258,0.945l0.174-1.966C39.614,183.556,39.975,183.896,40.354,184.22z M38.647,161.931c-0.061,0.072-0.131,0.139-0.188,0.21
		l-0.146-0.15L38.647,161.931z M38.227,162.439c-0.271,0.348-0.535,0.698-0.776,1.063l-1.421-1.131l1.845-0.312L38.227,162.439z
		 M33.36,157.259l4.209,4.479l-1.926,0.321l-3.627-2.894C32.432,158.509,32.879,157.869,33.36,157.259z M31.821,159.491l3.33,2.652
		l-5.055,0.854C30.567,161.77,31.147,160.602,31.821,159.491z M29.948,163.395l5.592-0.938l1.621,1.292l-7.89,1.875
		C29.459,164.865,29.686,164.12,29.948,163.395z M29.166,166.028l7.887-1.87c-1.34,2.241-2.137,4.836-2.215,7.61l-0.312,0.193
		l-5.821-3.005C28.793,167.957,28.949,166.983,29.166,166.028z M34.899,173.873l-1.869-0.538l1.517-0.947l0.285,0.146
		C34.838,172.983,34.854,173.433,34.899,173.873z M28.608,170.902c0-0.52,0.041-1.026,0.078-1.536l5.479,2.823l-1.611,1.01
		l-3.885-1.116C28.645,171.686,28.608,171.3,28.608,170.902z M28.686,172.472l3.443,0.99l-3.064,1.921
		C28.869,174.433,28.756,173.457,28.686,172.472z M29.162,175.759l3.442-2.158l2.357,0.677c0.029,0.229,0.062,0.457,0.102,0.684
		l-5.041,3.647C29.674,177.684,29.383,176.737,29.162,175.759z M30.155,178.968l4.978-3.601c0.559,2.763,1.85,5.256,3.646,7.293
		l-4.809,2.624C32.365,183.422,31.071,181.292,30.155,178.968z M38.367,189.214c-0.699-0.472-1.361-0.992-2-1.539l2.284-1.714
		L38.367,189.214z M36.088,187.42c-0.658-0.579-1.277-1.201-1.861-1.854l4.688-2.556l-0.215,2.454L36.088,187.42z M38.721,189.43
		l0.33-3.77l1.588-1.191c0.338,0.274,0.688,0.536,1.045,0.782l-0.117,5.479l0.371,0.01l0.111-5.256
		c2.301,1.494,5.012,2.396,7.926,2.516l-1.488,4.868C44.912,192.515,41.592,191.29,38.721,189.43z M48.871,192.889l1.483-4.869
		c0.09,0,0.181,0.014,0.269,0.014c0.028,0,0.057-0.005,0.084-0.005c0.028,0,0.057,0.005,0.086,0.005c0.084,0,0.166-0.011,0.25-0.014
		l0.166,0.202l-0.73,4.75C49.938,192.966,49.403,192.933,48.871,192.889z M50.856,192.974l0.67-4.366l3.267,3.978
		C53.512,192.825,52.199,192.964,50.856,192.974z M55.209,192.512l-3.609-4.396l0.021-0.124c0.866-0.049,1.721-0.151,2.549-0.33
		l3.811,4.055C57.078,192.034,56.16,192.312,55.209,192.512z M58.356,191.58l-3.778-4.024c3.03-0.749,5.715-2.368,7.776-4.584
		l2.375,4.955C62.844,189.486,60.686,190.711,58.356,191.58z M65.014,187.667l-2.391-4.985l2.86,0.402l1.664,2.479
		C66.483,186.312,65.774,187.019,65.014,187.667z M67.406,185.282l-1.426-2.131l2.779,0.395
		C68.338,184.148,67.885,184.725,67.406,185.282z M69.008,183.209l-3.305-0.466l-1.484-2.218c0.131-0.212,0.268-0.42,0.391-0.64
		l6.015,0.44C70.149,181.33,69.621,182.3,69.008,183.209z M70.797,179.972l-5.998-0.439c1.145-2.189,1.803-4.673,1.803-7.308
		c0-0.113-0.014-0.226-0.016-0.338l0.436-0.271l5.488,2.478C72.209,176.156,71.631,178.13,70.797,179.972z M72.567,173.71
		l-5.168-2.333l1.504-0.942l3.484,1.002l0.105-0.354l-3.168-0.911l3.25-2.035c0.114,0.907,0.192,1.827,0.192,2.766
		C72.768,171.856,72.686,172.788,72.567,173.71z M67.635,143.611l5.557-12.636l0.972-2.457v13.67l6.084,5.735l-1.045,1.392
		L67.635,143.611z M85.465,163.354c-0.889-4.438-2.619-8.568-4.994-12.256l-0.639,0.854l1.037-1.389l1.045-1.39l1.114-1.49
		l-1.354-1.275l-5.428-5.116v-12.396l0.907-1.049c0.816,0.238,1.339,0.465,1.654,0.636l-1.104,4.136l-0.115,0.438l0.076,0.442
		c0.528,3.191,2.485,3.535,3.303,3.535c1.363,0,1.709,3.949,1.898,5.422l0.166,1.3l1.239,0.414l2.031,0.677l-0.492,5.144
		l-0.016,0.146l0.01,0.149c0.146,3.127,1.357,6.472,4.326,6.472c1.248,0,2.488-0.653,3.777-1.997
		c0.312-0.326,0.774-0.718,1.196-0.718c0.56,0,1.254,0.558,1.883,1.277c-1.485,0.56-3.59,1.416-6.34,2.712
		C88.092,159.231,86.485,161.249,85.465,163.354z M162.051,177.073c-1.191,0.62-0.863,2.584,0.361,3.481
		c-13.92,5.354-49.791,5.632-56.927,4.082c-7.135-1.55-16.489-8.595-15.821-13.032c0.655-4.39,0.203-5.876,5.821-6.578l-0.022,0.117
		c0,0,3.885,8.759,10.201,9.732c17.771,2.735,21.039-7.124,21.869-11.852l18.983-6.306l0.021-0.104
		c0.08-0.394,0.346-0.371,0.346-0.371l4.565-1.345c0.578,0.257,1.218,0.4,1.89,0.4c2.313,0,4.233-1.68,4.646-3.896
		c5.062-1.224,10.597-2.818,15.213-4.799c0.164,1.082,0.521,2.251,1.232,3.024c-0.604,1.847-7.725,23.521-10.418,26.115
		c-1.064-0.854-8.877-7.121-13.666-11.654l-0.062-0.062l-2.138,0.354L162.051,177.073z"/>
	<path fill="#FFFFFF" enable-background="new    " d="M285.656,131.886h-23.092v12.857c0,2.185-0.78,3.394-0.771,3.504
		l-33.818,0.058c-0.27-0.168-1.043-1.373-1.043-3.562v-12.857h-23.094c-5.961,0-10.814,4.851-10.814,10.81v89.998
		c0,5.963,4.854,10.812,10.814,10.812h81.817c5.966,0,10.814-4.851,10.814-10.812v-89.998
		C296.471,136.737,291.621,131.886,285.656,131.886z M285.656,238.233h-81.817c-3.058,0-5.545-2.484-5.545-5.542v-89.999
		c0-3.054,2.488-5.537,5.545-5.537l17.82,0.003v7.587c0,5.001,2.598,8.772,6.041,8.772h34.094c3.447,0,6.045-3.771,6.045-8.772
		v-7.587h17.818c3.059,0,5.545,2.484,5.545,5.539v89.994C291.201,235.747,288.715,238.233,285.656,238.233z"/>
	<path fill="#FFFFFF" enable-background="new    " d="M244.752,115.365c-6.498,0-11.808,4.502-11.992,10.099
		c-1.914,0.912-3.188,2.851-3.188,5.077v6.368c0,1.511,0.587,2.926,1.646,3.979c1.061,1.061,2.471,1.643,3.979,1.643h19.105
		c1.506,0,2.916-0.586,3.979-1.651c1.062-1.064,1.642-2.473,1.642-3.97v-6.368c0-2.224-1.273-4.162-3.187-5.074
		C256.555,119.87,251.25,115.365,244.752,115.365z M234.453,136.908v-6.368c0-0.413,0.334-0.751,0.743-0.751h3.298l-0.736-3.012
		c-0.084-0.338-0.125-0.688-0.125-1.012c0-3.043,3.191-5.521,7.115-5.521c3.922,0,7.108,2.479,7.108,5.521
		c0,0.33-0.043,0.671-0.125,1.012l-0.735,3.012h3.305c0.404,0,0.74,0.338,0.74,0.751v6.368c0,0.409-0.336,0.742-0.74,0.742h-19.107
		c-0.202,0-0.377-0.07-0.526-0.224C234.53,137.29,234.453,137.109,234.453,136.908z"/>
	<path fill="#FFFFFF" enable-background="new    " d="M245.705,166.401c-14.72,0-26.648,12.113-26.648,27.057
		c0,14.945,11.93,27.062,26.648,27.062c14.727,0,26.655-12.116,26.655-27.062C272.358,178.514,260.432,166.401,245.705,166.401z
		 M228.006,209.484c-2.658-2.784-5.445-9.734-5.445-9.734h9.045c0,0,1.547,2.81,2.275,3.598c0.723,0.799,3.404,2.728,3.404,2.728
		l1.373,10.047C238.658,216.123,230.666,212.261,228.006,209.484z M246.594,216.237h-2.369v-9.402c0,0,0.369,0.161,1.187,0.161
		c0.821,0,1.184-0.161,1.184-0.161L246.594,216.237L246.594,216.237z M245.606,201.38c-3.028,0-5.487-2.454-5.487-5.482
		c0-3.032,2.459-5.483,5.487-5.483c3.029,0,5.482,2.451,5.482,5.483C251.088,198.926,248.635,201.38,245.606,201.38z
		 M262.813,209.545c-2.655,2.785-10.653,6.644-10.653,6.644l1.377-10.058c0,0,2.676-1.921,3.405-2.717
		c0.729-0.795,2.273-3.601,2.273-3.601h9.055C268.266,199.811,265.471,206.757,262.813,209.545z M265.949,184.99
		c0.108,0.169,1.225,1.903,1.225,1.903s0-0.076,0.619,1.397c0.623,1.473,0.444,3.166,0.444,3.166s0.003,0.517-0.428,0.878
		c-0.43,0.369-1.692,0.279-1.692,0.279s0.026,0.068-0.81-0.129c-0.84-0.191-2.059-1.028-2.059-1.028s-3.859-0.53-4.203-0.728
		c-0.031-0.017-0.051-0.048-0.08-0.067c-0.15-0.23-0.309-0.465-0.488-0.683c0-0.004-0.006-0.018-0.006-0.018h-0.008
		c-1.188-1.5-2.926-2.764-5.021-3.688l-0.008-0.003l-0.02-0.007c-2.308-1.005-5.047-1.598-8-1.598
		c-5.648,0-10.556,2.145-13.045,5.294h-0.004v0.004c-0.181,0.227-0.347,0.458-0.496,0.698c-0.027,0.021-0.054,0.052-0.08,0.068
		c-0.347,0.196-4.205,0.724-4.205,0.724s-1.219,0.84-2.056,1.028c-0.842,0.197-0.812,0.128-0.812,0.128s-1.268,0.091-1.693-0.278
		c-0.432-0.357-0.432-0.878-0.432-0.878s-0.186-1.688,0.438-3.166c0.622-1.48,0.622-1.397,0.622-1.397s1.111-1.734,1.226-1.904
		c0.106-0.172,0.152-1.264,0.342-1.86c0.193-0.6,0.922-1.686,1.545-2.658c0.627-0.98,3.084-3.789,3.941-4.437
		c0.86-0.646,2.342-1.715,2.342-1.715s1.84-1.066,2.613-1.287c0.77-0.217,1.803-0.727,3.278-1.092
		c0.609-0.203,1.941-0.386,2.896-0.575c0.867-0.175,3.123-0.191,3.531-0.191c0,0,0.03,0,0.043,0c0.006,0,0.043,0,0.043,0
		c0.41,0,2.668,0.018,3.535,0.191c0.956,0.189,2.282,0.372,2.893,0.575c1.482,0.368,2.506,0.878,3.283,1.092
		c0.768,0.218,2.615,1.287,2.615,1.287s1.479,1.073,2.334,1.715c0.86,0.641,3.321,3.451,3.944,4.437
		c0.623,0.974,1.359,2.06,1.545,2.658C265.797,183.725,265.842,184.817,265.949,184.99z"/>
</g>
</svg>
