<?xml version="1.0" encoding="utf-8"?>
<!-- Generator: Adobe Illustrator 16.0.0, SVG Export Plug-In . SVG Version: 6.00 Build 0)  -->
<!DOCTYPE svg PUBLIC "-//W3C//DTD SVG 1.1//EN" "http://www.w3.org/Graphics/SVG/1.1/DTD/svg11.dtd">
<svg version="1.1" id="Layer_1" xmlns="http://www.w3.org/2000/svg" xmlns:xlink="http://www.w3.org/1999/xlink" x="0px" y="0px"
	 width="316.176px" height="272.059px" viewBox="0 0 316.176 272.059" enable-background="new 0 0 316.176 272.059"
	 xml:space="preserve">
<g>
	<g>
		<rect x="0" y="0" fill="none" width="316.176" height="272.059"/>
	</g>
	<g opacity="0.6">
		<path fill="#FFFFFF" d="M277.151,140.528H254.06v12.857c0,2.185-0.781,3.394-0.771,3.504l-33.818,0.058
			c-0.27-0.168-1.043-1.373-1.043-3.562v-12.857h-23.095c-5.961,0-10.814,4.851-10.814,10.81v89.998
			c0,5.962,4.854,10.812,10.814,10.812h81.818c5.965,0,10.814-4.851,10.814-10.812v-89.998
			C287.965,145.378,283.115,140.528,277.151,140.528z M277.151,246.874h-81.818c-3.056,0-5.545-2.485-5.545-5.542v-89.999
			c0-3.054,2.489-5.538,5.545-5.538l17.82,0.003v7.587c0,5.001,2.599,8.773,6.041,8.773h34.095c3.446,0,6.045-3.772,6.045-8.773
			v-7.587h17.817c3.06,0,5.545,2.485,5.545,5.539v89.995C282.696,244.389,280.21,246.874,277.151,246.874z"/>
		<path fill="#FFFFFF" d="M236.247,124.006c-6.499,0-11.807,4.502-11.993,10.099c-1.913,0.912-3.188,2.851-3.188,5.077v6.368
			c0,1.511,0.586,2.926,1.646,3.979c1.06,1.06,2.471,1.642,3.979,1.642h19.106c1.505,0,2.916-0.585,3.979-1.651
			c1.063-1.064,1.642-2.473,1.642-3.97v-6.368c0-2.223-1.273-4.162-3.187-5.074C248.05,128.511,242.744,124.006,236.247,124.006z
			 M225.948,145.55v-6.368c0-0.413,0.334-0.751,0.744-0.751h3.297l-0.736-3.011c-0.083-0.337-0.124-0.688-0.124-1.012
			c0-3.043,3.19-5.521,7.115-5.521c3.921,0,7.108,2.479,7.108,5.521c0,0.331-0.042,0.671-0.125,1.012l-0.735,3.011h3.304
			c0.405,0,0.74,0.338,0.74,0.751v6.368c0,0.41-0.335,0.743-0.74,0.743h-19.107c-0.203,0-0.376-0.071-0.527-0.224
			C226.024,145.932,225.948,145.75,225.948,145.55z"/>
		<ellipse fill="#FFFFFF" cx="144.595" cy="126.222" rx="6.719" ry="3.414"/>
		<path fill="#FFFFFF" d="M102.866,132.305c-10.275,0-11.446,3.359-12.145,6.843c-0.757-1.441-2.096-1.658-3.907-2.12
			c-1.804-0.496-23.004-6.158-27.901-7.614c-4.905-1.459-14.25-4.516-15.68,0.399c-1.414,4.937-3.658,13.631,3.684,13.631
			c-0.293,4.372,2.809,4.815,11.111,4.516c10.505-0.375,27.21-0.702,32.985-0.716c-0.147,10.575,18.237,13.924,23.82,13.924
			c5.569,0,10.568,0,16.839,0c6.268,0,10.426-3.149,10.426-10.856c0-7.711-1.597-14.306-1.597-14.306
			c-1.455-3.27-4.925-3.7-12.873-3.7C119.684,132.305,107.062,132.305,102.866,132.305z M137.462,141.963
			c0.411,5.095,1.536,11.61-2.146,14.018c-3.676,2.395-17.28,1.855-22.66,1.27c-5.377-0.574-17.549-3.115-18.409-7.924
			c-0.854-4.812-1.425-8.781,0-11.043c1.412-2.269,3.687-3.776,7.924-3.724c5.663,0.09,25.128,0.592,28.563,0.878
			C134.18,135.737,137.046,136.862,137.462,141.963z"/>
		<path fill="#FFFFFF" d="M158.45,135.441c1.521-0.124,6.157-0.293,11.359-0.451v-2.685c-2.934,0-5.811,0-8.248,0
			c-7.947,0-11.414,0.43-12.873,3.707c0,0-1.598,6.595-1.598,14.306s4.161,10.856,10.434,10.856c4.529,0,8.392,0,12.285,0v-3.48
			c-6.052,0.196-13.387-0.055-15.938-1.71c-3.684-2.406-2.558-8.923-2.147-14.017C152.137,136.869,155.012,135.74,158.45,135.441z"
			/>
		<path fill="#FFFFFF" d="M112.377,185.176c5.992,0.155,34.586,0,34.586,0s12.609,0.069,22.84,0.069V172.31l-22.833,0.097
			l-45.726-0.197c-2.01-3.834-10.75-5.101-22.942-6.24c-12.188-1.14-19.386-1.982-22.824-2.123
			c-3.449-0.146-7.711-1.037-7.449,5.658c0.262,6.712,0.822,11.266,8.323,12.134c7.507,0.885,20.873,1.659,28.831,2.255
			c7.966,0.608,18.963,1.999,18.072-1.471C110.948,182.085,106.373,185.004,112.377,185.176z"/>
		<path fill="#FFFFFF" d="M117.832,197.882c-7.981-0.32-20.805-0.971-23.421-1.478c-0.409-0.072-0.85-0.164-1.339-0.262
			c-3.41-0.688-8.086-1.638-15.465-1.638c-1.126,0-2.293,0.027-3.415,0.072c-16.991-0.32-36.37-0.813-39.798-1.243
			c-1.646-0.206-1.817-0.228-2.021-3.773l-0.184-3.052c-0.461-7.925-0.939-16.124-0.997-21.366
			c-0.128-9.797,1.89-32.687,4.626-37.148c5.673-9.197,23.751-19.062,25.923-20.226h165.795c1.095,0.585,6.217,3.37,11.8,7.205
			l0.252,0.172h8.444l-2.393-1.79c-3.701-2.774-7.471-5.184-10.358-6.915h2.72c2.454,0,9.92,0,9.92-6.806
			c0-5.173-5.838-6.698-8.952-6.792c0,0-3.299-0.021-6.094,0c-1.755,0.021-5.359,0.049-5.545,3.649
			c-6.113-11.617-16.925-26.099-25.344-31.709c-2.951-1.969-6.562-2.024-6.596-2.024h-0.024
			c-21.675-1.597-50.188-1.618-50.473-1.618h-0.482c-0.288,0-28.852,0.021-50.399,1.618c-0.375,0.003-3.821,0.104-6.695,2.024
			c-8.492,5.645-19.383,20.274-25.476,31.937c-0.052-3.824-3.755-3.855-5.549-3.876c-2.795-0.014-6.085,0.007-6.112,0
			c-3.092,0.089-8.934,1.618-8.934,6.792c0,6.806,7.47,6.806,9.924,6.806H54c-6.828,4.096-17.812,11.472-22.422,18.945
			c-4.027,6.554-5.459,32.483-5.363,39.823c0.062,5.349,0.541,13.589,1.006,21.592l0.706,13.263
			c0.269,7.125,3.549,10.443,10.319,10.443h26.786c3.808,0,6.788-1.201,8.86-3.562c0.245-0.278,0.482-0.592,0.74-0.97l0.196-0.304
			c0.158-0.244,0.303-0.503,0.479-0.83l0.107-0.213c0.165-0.337,0.312-0.672,0.437-1.012l0.048-0.132
			c0.107-0.302,0.204-0.599,0.289-0.897l0.083-0.313c0.062-0.251,0.116-0.495,0.169-0.739l0.055-0.259
			c0.059-0.317,0.104-0.623,0.138-0.912l0.021-0.186c0.024-0.23,0.048-0.462,0.065-0.675c0.3-0.003,0.603-0.003,0.902-0.003
			c6.884,0,11.272,0.884,14.543,1.548c0.468,0.089,0.912,0.179,1.325,0.259c4.007,0.767,24.003,1.549,24.24,1.559l26.542,0.151
			l25.549-0.145v-4.983l-24.802,0.141L117.832,197.882z M90.078,68.935c1.632-1.088,3.859-1.185,4.158-1.198
			c21.513-1.59,49.892-1.607,50.176-1.607h0.489c0.282,0,28.662,0.017,50.304,1.614c0.028,0,2.348,0.076,4.024,1.188
			c8.312,5.542,19.3,20.749,24.779,31.995H65.301C70.812,89.615,81.772,74.459,90.078,68.935z"/>
		<path fill="#FFFFFF" d="M237.199,175.042c-14.719,0-26.648,12.113-26.648,27.056c0,14.946,11.93,27.062,26.648,27.062
			c14.727,0,26.656-12.116,26.656-27.062C263.853,187.156,251.926,175.042,237.199,175.042z M219.5,218.125
			c-2.657-2.785-5.445-9.735-5.445-9.735h9.046c0,0,1.546,2.81,2.275,3.598c0.723,0.799,3.404,2.727,3.404,2.727l1.373,10.047
			C230.154,224.765,222.161,220.903,219.5,218.125z M238.089,224.878h-2.369v-9.403c0,0,0.368,0.161,1.185,0.161
			c0.822,0,1.185-0.161,1.185-0.161V224.878z M237.101,210.022c-3.029,0-5.488-2.454-5.488-5.482c0-3.033,2.459-5.484,5.488-5.484
			c3.028,0,5.482,2.451,5.482,5.484C242.583,207.568,240.129,210.022,237.101,210.022z M254.307,218.187
			c-2.656,2.785-10.653,6.644-10.653,6.644l1.377-10.058c0,0,2.675-1.921,3.405-2.717c0.729-0.795,2.274-3.6,2.274-3.6h9.054
			C259.76,208.452,256.965,215.399,254.307,218.187z M257.444,193.63c0.109,0.169,1.226,1.904,1.226,1.904s0-0.076,0.619,1.397
			c0.623,1.473,0.444,3.166,0.444,3.166s0.003,0.517-0.427,0.878c-0.43,0.369-1.694,0.279-1.694,0.279s0.028,0.069-0.809-0.128
			c-0.84-0.192-2.058-1.029-2.058-1.029s-3.859-0.53-4.203-0.727c-0.031-0.017-0.052-0.048-0.08-0.068
			c-0.15-0.23-0.31-0.465-0.488-0.682c0-0.004-0.007-0.018-0.007-0.018h-0.007c-1.188-1.5-2.926-2.764-5.022-3.687l-0.007-0.003
			l-0.021-0.007c-2.306-1.005-5.046-1.598-7.999-1.598c-5.649,0-10.555,2.145-13.046,5.294h-0.004v0.004
			c-0.179,0.227-0.345,0.458-0.496,0.698c-0.027,0.021-0.052,0.052-0.079,0.069c-0.347,0.196-4.205,0.723-4.205,0.723
			s-1.22,0.84-2.056,1.029c-0.841,0.197-0.812,0.128-0.812,0.128s-1.267,0.09-1.693-0.279c-0.431-0.357-0.431-0.878-0.431-0.878
			s-0.186-1.687,0.437-3.166c0.624-1.48,0.624-1.397,0.624-1.397s1.111-1.735,1.225-1.904c0.107-0.172,0.152-1.264,0.342-1.861
			c0.192-0.599,0.922-1.685,1.545-2.658c0.627-0.98,3.084-3.789,3.941-4.437c0.861-0.645,2.341-1.714,2.341-1.714
			s1.841-1.067,2.613-1.287c0.77-0.217,1.803-0.727,3.28-1.092c0.608-0.203,1.94-0.386,2.895-0.575
			c0.867-0.175,3.122-0.192,3.531-0.192c0,0,0.031,0,0.042,0c0.007,0,0.044,0,0.044,0c0.41,0,2.668,0.018,3.535,0.192
			c0.957,0.189,2.282,0.372,2.892,0.575c1.483,0.368,2.506,0.878,3.284,1.092c0.767,0.217,2.615,1.287,2.615,1.287
			s1.478,1.073,2.334,1.714c0.86,0.641,3.322,3.452,3.945,4.437c0.622,0.974,1.359,2.06,1.545,2.658
			C257.292,192.366,257.336,193.458,257.444,193.63z"/>
	</g>
</g>
</svg>
