<?xml version="1.0" encoding="utf-8"?>
<!-- Generator: Adobe Illustrator 16.0.0, SVG Export Plug-In . SVG Version: 6.00 Build 0)  -->
<!DOCTYPE svg PUBLIC "-//W3C//DTD SVG 1.1//EN" "http://www.w3.org/Graphics/SVG/1.1/DTD/svg11.dtd">
<svg version="1.1" id="Layer_1" xmlns="http://www.w3.org/2000/svg" xmlns:xlink="http://www.w3.org/1999/xlink" x="0px" y="0px"
	 width="316.176px" height="272.059px" viewBox="0 0 316.176 272.059" enable-background="new 0 0 316.176 272.059"
	 xml:space="preserve">
<g>
	<g>
		<g>
			<g>
				<g>
					<g>
						<rect x="0" y="0" fill="none" width="316.176" height="272.059"/>
					</g>
				</g>
			</g>
		</g>
	</g>
	<g>
		<g opacity="0.6">
			<path fill="#FFFFFF" d="M47.114,158.057c-4.996-0.042-9.235,4.245-9.023,9.077c0.229,4.6,4.461,8.432,9.187,8.284
				c4.852-0.138,8.658-4.021,8.626-8.757C55.859,161.981,51.917,158.099,47.114,158.057z"/>
			<path fill="#FFFFFF" d="M58.678,107.029c-3-0.846-22.362-1.386-24.274,14.121c-1.916,15.5,14.312,14.71,14.312,14.71
				s9.307,0.726,16.034-11.216C71.48,112.703,61.679,107.875,58.678,107.029z"/>
			<path fill="#FFFFFF" d="M136.556,120.276c-0.69,0.006-1.391,0-2.086,0.006c-0.109,0.002-0.18-0.041-0.25-0.111
				c0,0,0,0.004,0.004,0.004c-0.776-0.871-2.047-1.438-3.495-1.438c-1.531,0-2.856,0.639-3.612,1.59
				c0.022-0.033,0.042-0.072,0.065-0.104c-0.074,0.03-0.146,0.08-0.226,0.08c-1.881,0.003-3.765,0.009-5.646,0.016
				c0.098,0.231,0.283,0.409,0.442,0.6c0.451,0.524,0.91,1.042,1.438,1.5c0.098,0.085,0.198,0.163,0.302,0.239
				c0.011,0.011,0.022,0.021,0.035,0.034c0.01-0.003,0.018,0,0.018,0.009c0.104,0.072,0.215,0.134,0.279,0.245
				c0,0.008,0.007,0.016,0.021,0.016c0.052,0.003,0.091,0.027,0.127,0.062c0.015,0,0.032,0,0.045,0.007
				c0.032-0.084,0.109-0.049,0.163-0.049c0.73,0,1.468,0,2.198,0c0.227,0,0.293,0.081,0.275,0.363
				c-0.05-0.194-0.178-0.194-0.314-0.205c-0.737-0.042-1.479-0.032-2.215-0.109c-0.033,0-0.054,0.009-0.072,0.031
				c0.36,0.343,0.806,0.59,1.211,0.879c0.222,0.155,0.451,0.211,0.73,0.201c0.396-0.018,0.794-0.003,1.191-0.007
				c0.101,0,0.178,0.017,0.25,0.084c0.025,0.025,0.058,0.042,0.082,0.067c0.78,0.71,1.92,1.165,3.208,1.165
				c1.362,0,2.563-0.514,3.346-1.301c0.167-0.042,0.348-0.046,0.545-0.033c0.215,0.021,0.438-0.013,0.654,0.007
				c0.325,0.026,0.594-0.059,0.852-0.237c0.382-0.271,0.775-0.519,1.169-0.78c0.026-0.021,0.062-0.026,0.107-0.042
				c-0.157-0.13-0.277-0.035-0.385-0.042c-0.604,0.032-1.203,0.075-1.807,0.101c-0.169,0.007-0.25,0.054-0.304,0.205
				c-0.061,0.161-0.132,0.339-0.383,0.265c0,0.003,0,0.003-0.003,0.007c0.12-0.188,0.215-0.385,0.289-0.59
				c0.029-0.014,0.058-0.035,0.097-0.035c0.705,0,1.404,0.007,2.109,0.007c0.351,0.059,0.596-0.104,0.848-0.311
				c0.829-0.678,1.604-1.405,2.286-2.213c0.055-0.062,0.132-0.109,0.113-0.204c-0.809,0-1.62,0-2.428,0.003
				C137.41,120.261,136.983,120.272,136.556,120.276z M126.458,122.286c0-0.312-0.228-0.282-0.456-0.286
				c-0.956-0.025-1.916-0.053-2.872-0.078c-0.032,0-0.075,0.011-0.089-0.062c0.066,0,0.131-0.006,0.197-0.006
				c1.004-0.007,2.006,0,3.008-0.011c0.142,0,0.206,0.039,0.229,0.117c-0.004,0.042-0.018,0.088-0.018,0.13
				c0,0.071,0.021,0.138,0.031,0.216C126.472,122.297,126.458,122.289,126.458,122.286z M126.755,120.888
				c-0.024,0.009-0.028,0.04-0.061,0.04c-0.313-0.011-0.62-0.02-0.936-0.03c-0.695-0.016-1.391-0.03-2.086-0.051
				c-0.021,0.012-0.049,0.042-0.071,0.035c-0.562-0.084-1.122-0.01-1.684-0.039c-0.021,0-0.039-0.014-0.062-0.019
				c-0.003-0.058,0.036-0.062,0.067-0.062c0.558,0,1.112,0,1.67,0c0.024,0,0.05,0.02,0.074,0.03
				c0.957-0.003,1.917-0.007,2.877-0.007c0.052,0,0.103-0.005,0.15,0c0.028,0.003,0.063,0,0.093,0.007
				C126.776,120.823,126.769,120.858,126.755,120.888z M130.729,125.141c-2.101,0-3.809-1.366-3.809-3.05
				c0-1.683,1.708-3.049,3.809-3.049c2.102,0,3.806,1.366,3.806,3.049C134.533,123.775,132.829,125.141,130.729,125.141z
				 M137.661,121.887c-0.768,0.028-1.536,0.062-2.304,0.084c-0.141,0.003-0.215,0.011-0.204,0.18c0,0.094,0.085,0.282-0.112,0.282
				c-0.045,0-0.066-0.014-0.092-0.026c0.019-0.106,0.042-0.205,0.042-0.314c0-0.024-0.004-0.042-0.004-0.067
				c0.008-0.145,0.06-0.188,0.32-0.188c0.78-0.003,1.563-0.007,2.353-0.007c0.264-0.021,0.54-0.028,0.805,0
				c0.003,0.018,0.003,0.027,0.003,0.027C138.204,121.862,137.929,121.911,137.661,121.887z M139.764,120.735
				c-0.279,0.133-0.55,0.032-0.822,0C139.214,120.735,139.49,120.735,139.764,120.735z M138.843,120.805
				c-0.431,0.011-0.861,0.026-1.289,0.037c-0.846,0.016-1.688,0.036-2.541,0.048c-0.134,0.003-0.169,0.03-0.103,0.147
				c0.035,0.06,0.05,0.123,0.077,0.188c0.008,0.036,0.053,0.092-0.031,0.11c-0.064,0.01-0.088-0.025-0.104-0.074
				c-0.026-0.062-0.052-0.142-0.078-0.208c0.005,0.016,0.005,0.042,0.013,0.062c-0.017-0.046-0.032-0.092-0.05-0.138
				c0.005,0.021,0.021,0.033,0.027,0.055c-0.027-0.09-0.06-0.169-0.096-0.263c1.396,0,2.785,0,4.172,0
				C138.843,120.782,138.843,120.793,138.843,120.805z"/>
			<path fill="#FFFFFF" d="M129.314,121.277c-0.146,0.24-0.29,0.49-0.44,0.738c-0.025-0.018-0.032-0.023-0.035-0.032
				c-0.082-0.169-0.163-0.339-0.24-0.515c-0.147-0.328-0.147-0.325-0.519-0.311c-0.104,0-0.132,0.026-0.143,0.118
				c-0.026,0.399-0.073,0.791-0.108,1.188c-0.003,0.071-0.058,0.189,0.092,0.155c0.12-0.021,0.324,0.127,0.342-0.127
				c0.021-0.197,0.04-0.394,0.053-0.595c0.016,0,0.028,0,0.035,0c0.092,0.201,0.186,0.399,0.271,0.602
				c0.025,0.068,0.052,0.134,0.153,0.127c0.105-0.007,0.191,0.003,0.243-0.109c0.088-0.184,0.201-0.354,0.305-0.533
				c0.019-0.026,0.023-0.084,0.082-0.062c0.057,0.011,0.038,0.062,0.038,0.099c-0.007,0.148-0.011,0.296-0.023,0.444
				c-0.007,0.085-0.024,0.189,0.127,0.155c0.104-0.024,0.304,0.119,0.311-0.136c0.017-0.396,0.036-0.791,0.055-1.183
				c0.004-0.045,0.023-0.102-0.02-0.137C129.8,121.093,129.374,121.177,129.314,121.277z M129.42,121.898
				c-0.011-0.007-0.021-0.014-0.032-0.023c0.011-0.019,0.021-0.031,0.032-0.055c0.01,0.013,0.027,0.025,0.022,0.028
				C129.437,121.869,129.43,121.884,129.42,121.898z"/>
			<path fill="#FFFFFF" d="M132.479,121.15c-0.088-0.014-0.187-0.023-0.176,0.12c0.011,0.228,0,0.452,0,0.731
				c-0.254-0.283-0.476-0.521-0.688-0.768c-0.132-0.146-0.309-0.092-0.455-0.072c-0.106,0.014-0.047,0.15-0.055,0.229
				c-0.015,0.354-0.011,0.713-0.026,1.069c-0.008,0.131,0.023,0.192,0.169,0.166c0.107-0.021,0.293,0.082,0.271-0.155
				c-0.011-0.222,0-0.445,0-0.67c0.266,0.232,0.487,0.455,0.683,0.702c0.138,0.176,0.316,0.107,0.481,0.116
				c0.071,0,0.063-0.058,0.063-0.104c-0.006-0.417-0.015-0.836-0.019-1.253C132.726,121.063,132.568,121.167,132.479,121.15z"/>
			<path fill="#FFFFFF" d="M133.439,122.625c0.089-0.007,0.12-0.032,0.12-0.12c-0.01-0.201-0.003-0.402-0.003-0.607
				c-0.014,0-0.027,0-0.042,0c0-0.205,0-0.41,0-0.621c0-0.234-0.193-0.104-0.296-0.134c-0.12-0.026-0.156,0.028-0.156,0.143
				c0.021,0.35,0.021,0.697,0.029,1.048C133.097,122.653,133.097,122.653,133.439,122.625z"/>
			<path fill="#FFFFFF" d="M130.295,121.283c0.003,0.212,0,0.417,0,0.628c-0.02,0-0.032,0-0.045,0c0,0.189,0.01,0.385-0.008,0.579
				c-0.005,0.107,0.03,0.145,0.142,0.134c0.056-0.007,0.116-0.007,0.172,0c0.1,0.011,0.146-0.016,0.149-0.127
				c0.003-0.403,0.018-0.807,0.035-1.208c0.007-0.116-0.039-0.166-0.155-0.143C130.478,121.177,130.288,121.047,130.295,121.283z"/>
			<path fill="#FFFFFF" d="M130.916,119.26c-0.886,0-1.623,0.189-2.288,0.602c-1.812,1.132-1.831,3.283-0.042,4.373
				c1.404,0.865,3.479,0.683,4.692-0.4c1.219-1.087,1.226-2.696-0.004-3.729C132.582,119.517,131.748,119.274,130.916,119.26z
				 M132.864,123.927c-0.647,0.448-1.452,0.688-2.259,0.674c-0.821-0.014-1.574-0.222-2.209-0.727
				c-1.257-1.009-1.253-2.611-0.004-3.651c1.184-0.981,3.11-1.1,4.415-0.266C134.365,120.948,134.393,122.872,132.864,123.927z"/>
			<path fill="#FFFFFF" d="M102.98,161.289h55.617c0.648,0,1.171-0.525,1.171-1.172v-7.912c0-0.649-0.521-1.172-1.171-1.172H102.98
				c-0.647,0-1.172,0.521-1.172,1.172v7.912C101.808,160.764,102.331,161.289,102.98,161.289z"/>
		</g>
		<path opacity="0.6" fill="#FFFFFF" enable-background="new    " d="M183.868,186.808l-50.408,1.323h-2.611h-0.12h-2.61
			l-76.031-1.994l-21.233-2.887c-2.347-0.569-2.619-4.559-3.011-13.525c-0.168-3.971-0.38-8.912-0.906-14.765l-0.501-5.56
			c-0.944-10.391-1.569-17.249-1.106-21.628c1.327-12.568,5.59-17.342,10.994-23.379c1.178-1.32,2.401-2.689,3.603-4.146
			l4.877-5.255H70.66c1.849,3.413,5.896,11.104,8.082,16.887c2.337,6.188,3.936,13.886,4.61,16.96
			c-11.411,3.304-21.211,12.384-21.211,26.436c0,14.427,23.729,14.064,28.948,14.064c4.031,0,75.367,0,79.396,0
			c2.21,0,7.739,0.053,13.382-0.967v-5.438c-4.976,0.91-11.231,0.76-16.433,0.76c-7.098,0-66.201,0-73.302,0
			c-10.436,0-25.15,0.613-25.15-8.002c0-2.393,0.367-4.56,0.972-6.544h113.913v-1.537H70.474c0.508-1.304,1.147-2.498,1.867-3.621
			h111.527v-1.538H73.411c1.288-1.659,2.788-3.084,4.403-4.312h105.943c0.039,0.029,0.07,0.064,0.109,0.099v-7.197
			c-1.812-0.896-3.699-1.64-5.646-2.202c0.678-3.071,2.272-10.772,4.613-16.96c2.185-5.781,6.232-13.474,8.081-16.887h25.855
			l4.878,5.255c0.815,0.99,1.636,1.896,2.449,2.818h3.271c-0.097-0.104-0.187-0.208-0.279-0.312
			c-1.158-1.299-2.364-2.646-3.585-4.129l-0.339-0.36l2.208-4.1c0,0,4.176,0.997,7.871-0.402c2.38-0.902,6.47-2.298,7.183-6.761
			c0.942-5.916-4.557-8.677-10.87-9.125c-6.312-0.448-9.629,2.01-10.628,5.275c-1.063,3.503,1.204,7.382,1.204,7.382l-2.001,2.289
			v-0.293h-0.24l-2.753-3.448c-1.875-4.188-15.681-34.853-19.014-37.904c-2.594-3.892-7.115-5.211-15.639-5.949
			c-4.292-0.374-26.473-1.36-48.771-1.371v-7.939h-0.551V25.142h-0.321h-0.12h-0.32v10.774h-0.552v7.939
			c-22.299,0.011-44.478,0.997-48.771,1.371c-8.523,0.738-13.044,2.06-15.64,5.949C62.114,54.23,48.31,84.894,46.435,89.081
			l-2.753,3.446h-0.24v0.295l-2.001-2.289c0,0,2.271-3.881,1.201-7.382c-0.995-3.267-4.31-5.725-10.624-5.275
			c-6.312,0.449-11.812,3.211-10.871,9.126c0.713,4.463,4.806,5.857,7.185,6.761c3.689,1.399,7.87,0.402,7.87,0.402l2.209,4.1
			l-0.34,0.36c-1.223,1.482-2.429,2.831-3.587,4.129c-5.474,6.116-10.201,11.402-11.61,24.759
			c-0.49,4.624,0.111,11.205,1.107,22.115l0.504,5.555c0.517,5.793,0.729,10.706,0.896,14.647c0.29,6.737,0.519,11.133,2.015,13.6
			c0,18.105,0.579,20.272,5.241,20.272c6.317,0,16.07,0,18.625,0c2.556,0,4.775-1.5,5.542-4.555
			c1.091-4.342,1.161-8.294,1.465-10.394l69.815,1.838h2.644h0.12h2.645l50.376-1.326V186.808L183.868,186.808z M181.515,136.606
			H80.064c4.886-2.985,10.347-4.311,14.071-4.311c3.317,0,69.989,0,73.302,0C171.169,132.295,176.625,133.619,181.515,136.606z
			 M87.165,94.993h87.251c-2.023,3.552-6.501,11.589-7.767,15.39c-1.352,4.08-4.561,13.738-5.653,17.038
			c-14.896,0-45.522,0-60.416,0c-1.096-3.3-4.305-12.958-5.655-17.038C93.663,106.582,89.188,98.545,87.165,94.993z M48.458,90.498
			l0.162-0.269c5.95-13.298,15.456-33.529,18.196-36.915h63.911h0.12h63.911c2.742,3.386,12.247,23.617,18.198,36.916l0.162,0.269
			l1.627,2.031H46.83L48.458,90.498z"/>
		<path opacity="0.6" fill="#FFFFFF" enable-background="new    " d="M183.868,172.644h-51.125h-3.914H73.312
			c0,0,0,5.908,2.745,7.024c2.739,1.118,9.509,2.077,13.351,2.396c3.092,0.257,29.354,0.617,39.423,0.745v0.053
			c0,0,0.72-0.01,1.956-0.023c1.239,0.016,1.958,0.023,1.958,0.023v-0.053c10.068-0.128,36.336-0.488,39.427-0.745
			c3.216-0.265,8.461-0.982,11.698-1.871L183.868,172.644L183.868,172.644z"/>
		<path opacity="0.6" fill="#FFFFFF" enable-background="new    " d="M288.864,119.094h-23.091v12.857
			c0,2.185-0.78,3.394-0.771,3.504l-33.818,0.058c-0.27-0.168-1.043-1.373-1.043-3.562v-12.857h-23.095
			c-5.961,0-10.814,4.851-10.814,10.81v89.998c0,5.963,4.854,10.812,10.814,10.812h81.817c5.966,0,10.814-4.851,10.814-10.812
			v-89.998C299.678,123.945,294.828,119.094,288.864,119.094z M288.864,225.441h-81.817c-3.056,0-5.545-2.484-5.545-5.542V129.9
			c0-3.054,2.489-5.538,5.545-5.538l17.82,0.004v7.587c0,5.001,2.599,8.772,6.041,8.772h34.095c3.446,0,6.045-3.771,6.045-8.772
			v-7.587h17.816c3.061,0,5.546,2.484,5.546,5.538v89.995C294.408,222.955,291.923,225.441,288.864,225.441z"/>
		<path opacity="0.6" fill="#FFFFFF" enable-background="new    " d="M247.96,102.573c-6.499,0-11.808,4.502-11.993,10.099
			c-1.913,0.912-3.188,2.851-3.188,5.077v6.368c0,1.511,0.587,2.926,1.646,3.979c1.06,1.061,2.471,1.643,3.979,1.643h19.106
			c1.505,0,2.916-0.586,3.979-1.651c1.063-1.064,1.643-2.473,1.643-3.97v-6.368c0-2.224-1.273-4.162-3.188-5.074
			C259.763,107.078,254.457,102.573,247.96,102.573z M237.66,124.116v-6.368c0-0.413,0.334-0.751,0.743-0.751h3.298l-0.736-3.012
			c-0.083-0.337-0.124-0.688-0.124-1.012c0-3.043,3.19-5.521,7.115-5.521c3.921,0,7.107,2.479,7.107,5.521
			c0,0.331-0.042,0.671-0.125,1.012l-0.734,3.012h3.304c0.405,0,0.74,0.338,0.74,0.751v6.368c0,0.409-0.335,0.742-0.74,0.742
			h-19.107c-0.202,0-0.376-0.07-0.526-0.224C237.737,124.498,237.66,124.317,237.66,124.116z"/>
		<path opacity="0.6" fill="#FFFFFF" enable-background="new    " d="M248.912,153.609c-14.72,0-26.648,12.113-26.648,27.057
			c0,14.945,11.93,27.062,26.648,27.062c14.727,0,26.655-12.116,26.655-27.062C275.566,165.722,263.639,153.609,248.912,153.609z
			 M231.213,196.692c-2.657-2.784-5.445-9.734-5.445-9.734h9.046c0,0,1.546,2.81,2.275,3.598c0.723,0.799,3.404,2.728,3.404,2.728
			l1.373,10.047C241.866,203.331,233.874,199.469,231.213,196.692z M249.802,203.445h-2.369v-9.402c0,0,0.368,0.161,1.186,0.161
			c0.821,0,1.185-0.161,1.185-0.161L249.802,203.445L249.802,203.445z M248.814,188.588c-3.028,0-5.487-2.454-5.487-5.482
			c0-3.032,2.459-5.483,5.487-5.483s5.482,2.451,5.482,5.483C254.296,186.134,251.842,188.588,248.814,188.588z M266.02,196.753
			c-2.656,2.785-10.652,6.644-10.652,6.644l1.377-10.058c0,0,2.675-1.921,3.404-2.717c0.729-0.795,2.274-3.601,2.274-3.601h9.054
			C271.473,187.019,268.678,193.965,266.02,196.753z M269.156,172.198c0.109,0.169,1.227,1.903,1.227,1.903s0-0.076,0.619,1.397
			c0.623,1.473,0.443,3.166,0.443,3.166s0.003,0.517-0.427,0.878c-0.43,0.369-1.693,0.279-1.693,0.279s0.027,0.068-0.81-0.129
			c-0.84-0.191-2.058-1.028-2.058-1.028s-3.859-0.53-4.203-0.728c-0.031-0.017-0.052-0.048-0.08-0.067
			c-0.15-0.23-0.311-0.465-0.488-0.683c0-0.004-0.007-0.018-0.007-0.018h-0.007c-1.188-1.5-2.926-2.764-5.022-3.688l-0.007-0.003
			l-0.021-0.007c-2.307-1.005-5.046-1.598-7.999-1.598c-5.649,0-10.556,2.145-13.046,5.294h-0.004v0.004
			c-0.18,0.227-0.346,0.458-0.496,0.698c-0.027,0.021-0.053,0.052-0.079,0.068c-0.348,0.196-4.205,0.724-4.205,0.724
			s-1.22,0.84-2.057,1.028c-0.841,0.197-0.812,0.128-0.812,0.128s-1.267,0.091-1.693-0.278c-0.431-0.357-0.431-0.878-0.431-0.878
			s-0.186-1.688,0.437-3.166c0.624-1.48,0.624-1.397,0.624-1.397s1.111-1.734,1.226-1.904c0.106-0.172,0.152-1.264,0.342-1.86
			c0.192-0.6,0.922-1.686,1.545-2.658c0.627-0.98,3.084-3.789,3.941-4.437c0.86-0.646,2.341-1.715,2.341-1.715
			s1.841-1.066,2.613-1.287c0.77-0.217,1.803-0.727,3.279-1.092c0.608-0.203,1.94-0.386,2.896-0.575
			c0.867-0.175,3.122-0.191,3.531-0.191c0,0,0.03,0,0.042,0c0.007,0,0.044,0,0.044,0c0.41,0,2.668,0.018,3.535,0.191
			c0.956,0.189,2.281,0.372,2.892,0.575c1.483,0.368,2.506,0.878,3.284,1.092c0.767,0.218,2.614,1.287,2.614,1.287
			s1.479,1.073,2.335,1.715c0.859,0.641,3.321,3.451,3.944,4.437c0.622,0.974,1.359,2.06,1.545,2.658
			C269.005,170.933,269.049,172.025,269.156,172.198z"/>
	</g>
</g>
</svg>
