<?xml version="1.0" encoding="utf-8"?>
<!-- Generator: Adobe Illustrator 16.0.0, SVG Export Plug-In . SVG Version: 6.00 Build 0)  -->
<!DOCTYPE svg PUBLIC "-//W3C//DTD SVG 1.1//EN" "http://www.w3.org/Graphics/SVG/1.1/DTD/svg11.dtd">
<svg version="1.1" id="Isolation_Mode" xmlns="http://www.w3.org/2000/svg" xmlns:xlink="http://www.w3.org/1999/xlink" x="0px"
	 y="0px" width="303px" height="314px" viewBox="0 0 303 314" enable-background="new 0 0 303 314" xml:space="preserve">
<g>
	<path fill="none" stroke="#DE4416" stroke-width="20" stroke-miterlimit="10" d="M268.474,269.945c0,2.762-2.238,5-5,5H35.807
		c-2.761,0-5-2.238-5-5v-228c0-2.761,2.239-5,5-5h227.667c2.762,0,5,2.239,5,5V269.945z"/>
	<g>
		<path fill="#DE4416" d="M129.338,223.084c2.793-0.859,4.78-1.611,5.962-2.256s2.184-1.539,3.008-2.686
			c0.822-1.145,1.467-2.9,1.934-5.264c0.465-2.363,0.698-6.051,0.698-11.064v-46.836c0-4.582-0.072-8.271-0.215-11.064
			c-0.145-2.793-0.645-5.03-1.504-6.714c-0.859-1.682-2.167-2.936-3.921-3.76c-1.756-0.822-4.243-1.521-7.466-2.095v-5.693
			l25.028-0.967h6.553v76.807c0,6.16,0.285,10.438,0.859,12.836c0.572,2.4,1.666,4.227,3.277,5.479
			c1.611,1.254,4.242,2.348,7.895,3.277v5.264h-42.108V223.084z M160.06,83.542v20.84h-19.765v-20.84H160.06z"/>
	</g>
</g>
</svg>
