<?xml version="1.0" encoding="utf-8"?>
<!-- Generator: Adobe Illustrator 16.0.0, SVG Export Plug-In . SVG Version: 6.00 Build 0)  -->
<!DOCTYPE svg PUBLIC "-//W3C//DTD SVG 1.1//EN" "http://www.w3.org/Graphics/SVG/1.1/DTD/svg11.dtd">
<svg version="1.1" id="Layer_1" xmlns="http://www.w3.org/2000/svg" xmlns:xlink="http://www.w3.org/1999/xlink" x="0px" y="0px"
	 width="68.354px" height="51.926px" viewBox="0 0 68.354 51.926" enable-background="new 0 0 68.354 51.926" xml:space="preserve">
<g>
	<g opacity="0.6">
		<polygon fill="#FFFFFF" points="31.278,25.638 29.519,29.812 27.76,25.638 25.793,25.638 28.008,30.652 26.827,30.652 
			26.827,31.699 28.478,31.699 28.478,32.773 26.827,32.773 26.827,33.814 28.478,33.814 28.478,36.001 30.465,36.001 
			30.465,33.814 32.116,33.814 32.116,32.773 30.465,32.773 30.465,31.699 32.116,31.699 32.116,30.652 30.921,30.652 
			33.137,25.638 		"/>
		<path fill="#FFFFFF" d="M40.78,43.888h15.062V34.88H40.78V43.888z M52.025,37.544h3.227v2.672h-3.227V37.544z M52.025,40.603
			h3.227v2.674h-3.227V40.603z M48.472,37.544H51.7v2.672h-3.229V37.544z M48.472,40.603H51.7v2.674h-3.229V40.603z M44.921,37.544
			h3.227v2.672h-3.227V37.544z M44.921,40.603h3.227v2.674h-3.227V40.603z M41.368,37.544h3.227v2.672h-3.227V37.544z
			 M41.368,40.603h3.227v2.674h-3.227V40.603z"/>
		<path fill="#FFFFFF" d="M47.585,37.88c-0.018-0.049-0.039-0.072-0.059-0.072c-0.01,0-0.021,0.004-0.033,0.012
			c-0.119,0.074-0.305,0.256-0.559,0.549c-0.07,0.084-0.16,0.205-0.268,0.365s-0.174,0.273-0.199,0.336
			c-0.029,0.068-0.053,0.104-0.072,0.104c-0.014,0-0.033-0.023-0.053-0.068c-0.035-0.076-0.102-0.158-0.199-0.246
			c-0.096-0.09-0.188-0.154-0.273-0.197c-0.027-0.012-0.043-0.018-0.053-0.018c-0.012,0-0.027,0.008-0.045,0.021
			c-0.033,0.029-0.068,0.062-0.104,0.104c-0.057,0.07-0.1,0.119-0.125,0.152c-0.01,0.01-0.016,0.021-0.016,0.037
			c0,0.027,0.014,0.049,0.043,0.059c0.1,0.035,0.16,0.059,0.182,0.072c0.043,0.021,0.105,0.07,0.189,0.145
			c0.178,0.154,0.301,0.326,0.369,0.514c0.008,0.023,0.018,0.062,0.025,0.117c0.004,0.031,0.014,0.047,0.027,0.047
			c0.033,0,0.084-0.016,0.148-0.045c0.02-0.008,0.035-0.047,0.043-0.115c0.018-0.131,0.025-0.203,0.027-0.213
			c0.033-0.158,0.107-0.35,0.221-0.574c0.105-0.205,0.211-0.373,0.314-0.504c0.057-0.068,0.129-0.139,0.219-0.209
			c0.09-0.074,0.158-0.115,0.203-0.129c0.004-0.002,0.031-0.006,0.078-0.014c0.016-0.004,0.023-0.012,0.023-0.023
			c0-0.008-0.002-0.021-0.008-0.041C47.613,37.962,47.597,37.908,47.585,37.88z"/>
		<path fill="#FFFFFF" d="M54.505,40.921c-0.02-0.047-0.039-0.072-0.059-0.072c-0.01,0-0.021,0.004-0.035,0.012
			c-0.117,0.074-0.303,0.258-0.557,0.549c-0.07,0.082-0.16,0.205-0.268,0.367c-0.107,0.16-0.174,0.271-0.201,0.334
			c-0.027,0.07-0.051,0.104-0.07,0.104c-0.016,0-0.033-0.023-0.055-0.068c-0.035-0.076-0.1-0.158-0.197-0.246
			c-0.098-0.09-0.188-0.154-0.273-0.197c-0.027-0.012-0.045-0.018-0.053-0.018c-0.014,0-0.029,0.006-0.045,0.021
			c-0.035,0.029-0.068,0.064-0.104,0.104c-0.059,0.07-0.102,0.119-0.125,0.152c-0.012,0.01-0.016,0.023-0.016,0.037
			c0,0.027,0.014,0.049,0.043,0.059c0.1,0.035,0.16,0.059,0.182,0.072c0.043,0.021,0.105,0.07,0.189,0.145
			c0.178,0.154,0.301,0.326,0.369,0.514c0.008,0.025,0.016,0.062,0.025,0.117c0.004,0.031,0.012,0.047,0.025,0.047
			c0.035,0,0.086-0.016,0.15-0.045c0.02-0.008,0.033-0.047,0.043-0.115c0.016-0.133,0.025-0.203,0.027-0.213
			c0.033-0.158,0.105-0.35,0.221-0.574c0.105-0.205,0.209-0.373,0.314-0.504c0.057-0.066,0.129-0.139,0.219-0.209
			c0.09-0.074,0.156-0.115,0.203-0.127c0.004-0.004,0.029-0.008,0.078-0.016c0.016-0.004,0.023-0.01,0.023-0.023
			c0-0.008-0.002-0.021-0.008-0.041C54.532,41.003,54.517,40.949,54.505,40.921z"/>
		<path fill="#FFFFFF" d="M10.561,24.325h36.741v3.61h1.969v-3.61v-5.612v-6.197H8.592v27.556h26.571v-1.969H10.561V24.325z
			 M10.561,14.484h36.741v4.229H10.561V14.484z"/>
		<path fill="#FFFFFF" d="M43.754,32.341c0.197,0,0.356-0.158,0.356-0.355v-3.381c0-0.197-0.159-0.355-0.356-0.355
			c-0.195,0-0.354,0.158-0.354,0.355v3.381C43.4,32.183,43.559,32.341,43.754,32.341z"/>
		<path fill="#FFFFFF" d="M52.941,32.341c0.195,0,0.355-0.158,0.355-0.355v-3.381c0-0.197-0.16-0.355-0.355-0.355
			s-0.355,0.158-0.355,0.355v3.381C52.585,32.183,52.745,32.341,52.941,32.341z"/>
		<path fill="#FFFFFF" d="M57.247,29.64h-2.146v-1.283c0-1.189-0.969-2.159-2.16-2.159s-2.16,0.969-2.16,2.159v1.283h-4.865v-1.283
			c0-1.189-0.969-2.159-2.161-2.159c-1.19,0-2.159,0.969-2.159,2.159v1.283h-2.146c-1.388,0-2.516,1.129-2.516,2.514v13.408
			c0,1.389,1.128,2.518,2.516,2.518h17.799c1.387,0,2.516-1.129,2.516-2.518V32.154C59.763,30.769,58.634,29.64,57.247,29.64z
			 M58.45,45.562c0,0.664-0.539,1.205-1.203,1.205H39.448c-0.664,0-1.203-0.541-1.203-1.205V32.154c0-0.662,0.539-1.201,1.203-1.201
			h2.146h1.312v-2.596c0-0.467,0.38-0.848,0.847-0.848c0.468,0,0.849,0.381,0.849,0.848v2.596h1.312h4.865h1.312v-2.596
			c0-0.467,0.381-0.848,0.848-0.848s0.848,0.381,0.848,0.848v2.596h1.312h2.146c0.664,0,1.203,0.539,1.203,1.201V45.562z"/>
	</g>
	<g>
		<rect x="0" y="-0.001" fill="none" width="68.354" height="51.928"/>
	</g>
</g>
</svg>
