<?xml version="1.0" encoding="utf-8"?>
<!-- Generator: Adobe Illustrator 16.0.4, SVG Export Plug-In . SVG Version: 6.00 Build 0)  -->
<!DOCTYPE svg PUBLIC "-//W3C//DTD SVG 1.1//EN" "http://www.w3.org/Graphics/SVG/1.1/DTD/svg11.dtd">
<svg version="1.1" id="Layer_1" xmlns="http://www.w3.org/2000/svg" xmlns:xlink="http://www.w3.org/1999/xlink" x="0px" y="0px"
	 width="68.354px" height="51.926px" viewBox="0 0 68.354 51.926" enable-background="new 0 0 68.354 51.926" xml:space="preserve">
<g>
	<g>
		<rect x="0" y="-0.001" fill="none" width="68.354" height="51.928"/>
	</g>
</g>
<g>
	<path fill="#A7A7A7" d="M27.285,22.046c-5.196,0-9.425,4.229-9.425,9.427c0,5.198,4.229,9.426,9.425,9.426s9.425-4.228,9.425-9.426
		C36.71,26.275,32.482,22.046,27.285,22.046z M27.285,39.902c-4.647,0-8.428-3.783-8.428-8.43c0-4.647,3.78-8.429,8.428-8.429
		s8.427,3.781,8.427,8.429C35.712,36.119,31.933,39.902,27.285,39.902z"/>
	<path fill="#A7A7A7" d="M32.173,31.156l-7.744-4.621c-0.187-0.113-0.405-0.117-0.596-0.006c-0.189,0.104-0.299,0.295-0.299,0.512
		v9.24c0,0.221,0.108,0.406,0.299,0.514c0.189,0.109,0.407,0.107,0.596-0.004l7.742-4.621c0.185-0.109,0.289-0.293,0.289-0.508
		C32.461,31.447,32.356,31.264,32.173,31.156z"/>
	<path fill="#A7A7A7" d="M56.146,6.122H19.161c-1.623,0-2.942,1.319-2.942,2.943v2.167h-2.252c-1.622,0-2.941,1.319-2.941,2.941
		v2.198H8.709c-1.623,0-2.941,1.32-2.941,2.941v24.551c0,1.621,1.319,2.938,2.941,2.938h36.983c1.623,0,2.943-1.317,2.943-2.938
		v-2.199h2.316c1.621,0,2.94-1.32,2.94-2.943v-2.166h2.252c1.623,0,2.941-1.32,2.941-2.943V9.065
		C59.087,7.441,57.769,6.122,56.146,6.122z M46.601,43.865c0,0.498-0.408,0.904-0.908,0.904H8.708c-0.5,0-0.906-0.406-0.906-0.904
		V19.314c0-0.498,0.406-0.904,0.906-0.904h36.983c0.5,0,0.908,0.406,0.908,0.904L46.601,43.865L46.601,43.865z M51.859,38.723
		c0,0.502-0.405,0.905-0.905,0.905h-2.316V19.314c0-1.621-1.32-2.942-2.943-2.942H13.061v-2.198c0-0.5,0.406-0.906,0.906-0.906
		h36.986c0.5,0,0.905,0.406,0.905,0.906V38.723L51.859,38.723z M57.052,33.613c0,0.5-0.406,0.904-0.906,0.904h-2.252V14.174
		c0-1.622-1.319-2.941-2.94-2.941H18.254V9.065c0-0.501,0.407-0.906,0.907-0.906h36.984c0.5,0,0.906,0.405,0.906,0.906V33.613z"/>
</g>
</svg>
