<?xml version="1.0" encoding="utf-8"?>
<!-- Generator: Adobe Illustrator 16.0.4, SVG Export Plug-In . SVG Version: 6.00 Build 0)  -->
<!DOCTYPE svg PUBLIC "-//W3C//DTD SVG 1.1//EN" "http://www.w3.org/Graphics/SVG/1.1/DTD/svg11.dtd">
<svg version="1.1" id="Layer_1" xmlns="http://www.w3.org/2000/svg" xmlns:xlink="http://www.w3.org/1999/xlink" x="0px" y="0px"
	 width="68.354px" height="51.926px" viewBox="0 0 68.354 51.926" enable-background="new 0 0 68.354 51.926" xml:space="preserve">
<g>
	<g>
		<rect x="0.376" y="-0.037" fill="none" width="67.978" height="51.963"/>
	</g>
</g>
<g>
	<polygon fill="#A7A7A7" points="29.905,30.192 40.198,23.579 29.905,16.953 	"/>
	<rect x="16.38" y="45.481" fill="#A7A7A7" width="35.393" height="1.87"/>
	<path fill="#A7A7A7" d="M53.537,4.574H14.813c-2.337,0-4.236,1.896-4.236,4.233v29.286c0,2.332,1.896,4.235,4.236,4.235h38.722
		c2.339,0,4.241-1.901,4.241-4.235V8.808C57.779,6.471,55.883,4.574,53.537,4.574z M54.664,38.094c0,0.611-0.507,1.11-1.129,1.11
		H14.813c-0.616,0-1.115-0.499-1.115-1.11V8.807c0-0.614,0.499-1.114,1.115-1.114h38.722c0.622,0,1.129,0.5,1.129,1.114V38.094
		L54.664,38.094z"/>
</g>
</svg>
