<?xml version="1.0" encoding="utf-8"?>
<!-- Generator: Adobe Illustrator 16.0.0, SVG Export Plug-In . SVG Version: 6.00 Build 0)  -->
<!DOCTYPE svg PUBLIC "-//W3C//DTD SVG 1.1//EN" "http://www.w3.org/Graphics/SVG/1.1/DTD/svg11.dtd">
<svg version="1.1" id="Layer_1" xmlns="http://www.w3.org/2000/svg" xmlns:xlink="http://www.w3.org/1999/xlink" x="0px" y="0px"
	 width="101.02px" height="51.929px" viewBox="-114.632 27.75 101.02 51.929" enable-background="new -114.632 27.75 101.02 51.929"
	 xml:space="preserve">
<g>
	<g opacity="0.6">
		<g>
			<path fill="#FFFFFF" d="M-83.831,75.231h62.829V32.198h-63.11l-0.165,0.346c-0.65,1.365-1.984,2.215-3.481,2.215
				c-1.496,0-2.83-0.85-3.48-2.215l-0.165-0.346h-15.837l0.001,43.033h15.793l0.133-0.426c0.504-1.635,1.981-2.732,3.676-2.732
				s3.172,1.098,3.675,2.73L-83.831,75.231z M-22.216,74.018h-60.731l-0.137-0.285c-0.848-1.771-2.594-2.873-4.556-2.873
				s-3.708,1.102-4.558,2.873l-0.136,0.285h-13.695l-0.001-40.607h13.866l0.148,0.229c0.931,1.438,2.561,2.332,4.255,2.332
				c1.732,0,3.324-0.871,4.258-2.33l0.147-0.23h61.138V74.018z"/>
		</g>
		<g>
			<path fill="#FFFFFF" d="M-87.428,63.291c-0.781,0-1.417,0.635-1.417,1.414c0.001,0.783,0.637,1.42,1.417,1.42
				c0.781,0,1.418-0.637,1.418-1.42C-86.01,63.926-86.647,63.291-87.428,63.291z"/>
		</g>
		<g>
			<path fill="#FFFFFF" d="M-87.428,55.641c-0.781,0-1.417,0.635-1.417,1.418c0.001,0.781,0.637,1.418,1.417,1.418
				c0.781,0,1.418-0.637,1.418-1.418C-86.01,56.276-86.647,55.641-87.428,55.641z"/>
		</g>
		<g>
			<path fill="#FFFFFF" d="M-87.428,47.996c-0.781,0-1.417,0.635-1.417,1.416c0.001,0.781,0.637,1.416,1.417,1.416
				c0.781,0,1.418-0.635,1.418-1.416S-86.647,47.996-87.428,47.996z"/>
		</g>
		<g>
			<path fill="#FFFFFF" d="M-87.428,40.352c-0.781,0-1.417,0.635-1.417,1.416s0.636,1.418,1.417,1.418s1.418-0.637,1.418-1.418
				S-86.647,40.352-87.428,40.352z"/>
		</g>
	</g>
	<rect x="-114.632" y="27.75" fill="none" width="101.02" height="51.929"/>
</g>
</svg>
