<?xml version="1.0" encoding="utf-8"?>
<!-- Generator: Adobe Illustrator 16.0.0, SVG Export Plug-In . SVG Version: 6.00 Build 0)  -->
<!DOCTYPE svg PUBLIC "-//W3C//DTD SVG 1.1//EN" "http://www.w3.org/Graphics/SVG/1.1/DTD/svg11.dtd">
<svg version="1.1" id="Layer_1" xmlns="http://www.w3.org/2000/svg" xmlns:xlink="http://www.w3.org/1999/xlink" x="0px" y="0px"
	 width="110.5px" height="84.559px" viewBox="0 0 110.5 84.559" enable-background="new 0 0 110.5 84.559" xml:space="preserve">
<g>
	<g>
		
			<linearGradient id="SVGID_1_" gradientUnits="userSpaceOnUse" x1="176.2451" y1="-1013.9363" x2="265.667" y2="-1013.9363" gradientTransform="matrix(1 0 0 -1 -166.0146 -977.2046)">
			<stop  offset="0" style="stop-color:#E6E6E6"/>
			<stop  offset="0.5398" style="stop-color:#FFFFFF"/>
			<stop  offset="1" style="stop-color:#C8C8C8"/>
		</linearGradient>
		<path fill="url(#SVGID_1_)" d="M97.704,33.175c-1.771-2.88-6.336-5.827-8.836-7.302c0.954,0.101,2.151-0.013,2.151-0.013
			c2.458,0,3.374-1.698,3.374-3.198c0-2.169-3.094-2.254-3.094-2.254s-2.441,0-3.521,0c-2.011,0-1.784,0.998-1.639,2.013
			c-2.266-4.521-6.534-10.325-9.8-12.499c-0.914-0.603-2.078-0.621-2.078-0.621c-7.784-0.578-17.707-0.628-19.32-0.628
			c-1.615,0-11.538,0.052-19.319,0.628c0,0-1.169,0.011-2.08,0.621c-3.269,2.176-7.533,7.978-9.8,12.499
			c0.146-1.016,0.372-2.013-1.638-2.013c-1.086,0-3.521,0-3.521,0s-3.091,0.085-3.091,2.254c0,1.501,0.912,3.198,3.367,3.198
			c0,0,1.204,0.113,2.154,0.013c-2.499,1.467-7.062,4.417-8.834,7.302c-1.307,2.13-1.986,11.568-1.949,14.959
			c0.04,3.391,0.533,10.027,0.671,13.52c0.087,2.301,0.968,3.137,3.042,3.137h11.857c4.124,0,3.554-4.256,3.554-4.256
			c4.004-0.158,4.78,0.418,6.233,0.693c1.456,0.281,9.244,0.594,9.244,0.594l10.108,0.055l10.109-0.055c0,0,7.789-0.312,9.245-0.594
			c1.455-0.275,2.226-0.852,6.229-0.693c0,0-0.564,4.256,3.56,4.256h11.854c2.08,0,2.957-0.836,3.05-3.137
			c0.132-3.492,0.63-10.129,0.664-13.52C99.691,44.753,99.012,35.306,97.704,33.175z"/>
		<path fill="#777266" d="M96.744,33.286c-2.426-3.942-10.213-8.005-10.213-8.005h3.632c2.384,0,3.368-0.73,3.368-2.188
			c0-2.099-3.001-2.179-3.001-2.179s-1.237-0.009-2.292,0c-1.05,0.008-1.716,0.169-1.716,1.107c0,0.645,0,1.236,0,1.236
			c-0.02,0.396-0.6,0.402-0.6,0.402c-2.07-4.461-6.532-10.676-9.896-12.916c-0.889-0.592-2.019-0.605-2.019-0.605
			c-8.233-0.606-18.975-0.606-18.975-0.606c-0.023,0-0.063,0-0.093,0c-0.028,0-0.07,0-0.091,0c0,0-10.742,0-18.978,0.606
			c0,0-1.127,0.014-2.015,0.605c-3.371,2.241-7.828,8.45-9.895,12.916c0,0-0.584-0.012-0.601-0.402c0,0,0-0.592,0-1.236
			c0-0.938-0.669-1.099-1.718-1.107s-2.291,0-2.291,0s-3,0.08-3,2.179c0,1.458,0.982,2.188,3.365,2.188h3.634
			c0,0-7.788,4.063-10.217,8.005c-1.263,2.059-1.925,11.219-1.883,14.506c0.039,3.277,0.512,9.719,0.647,13.107
			c0.082,2.227,0.938,3.031,2.948,3.031H24.94c4,0,3.451-4.123,3.451-4.123c3.882-0.148,6.037,0.406,7.447,0.674
			c1.412,0.27,8.963,0.57,8.963,0.57l9.996,0.059h0.142h0.139l10-0.059c0,0,7.548-0.301,8.963-0.57
			c1.412-0.266,3.564-0.826,7.449-0.674c0,0-0.551,4.123,3.447,4.123h10.091c2.013,0,2.867-0.805,2.952-3.031
			c0.133-3.387,0.613-9.83,0.65-13.107C98.668,44.505,98.009,35.345,96.744,33.286z M28.111,21.467
			c0.607-1.221,5.327-8.78,7.466-9.482c1.033-0.345,5.577-0.524,9.991-0.626c0.161,0.307,0.443,0.648,0.924,0.67
			c0.87,0.029,2.676,0.104,2.676,0.104s0.25,0.539,0.921,0.632c0.678,0.091,2.438,0.382,2.621,0.476
			c0.179,0.089-0.024,0.49-0.024,0.49s-1.422,0.022-2.522,0.088c-0.568,0.041-0.658,1.645-0.587,1.87
			c0.071,0.226,0.313,0.182,0.313,0.182l2.93,0.134h1.316h1.32l2.923-0.134c0,0,0.251,0.044,0.315-0.182
			c0.068-0.227-0.018-1.829-0.586-1.87c-1.098-0.068-2.522-0.088-2.522-0.088s-0.202-0.401-0.019-0.49
			c0.183-0.094,1.942-0.386,2.617-0.476c0.671-0.093,0.924-0.632,0.924-0.632s1.807-0.073,2.676-0.104
			c0.496-0.023,0.786-0.394,0.941-0.702c4.851,0.088,10.433,0.272,11.597,0.656c2.133,0.702,6.854,8.263,7.462,9.483
			c0.867,1.766,0.668,2.552-0.856,2.483c-0.38-0.019-1.639-0.069-3.452-0.142c-0.254-0.299-0.738-0.813-1.176-0.936
			c-1.503-0.409-2.743-0.586-2.743-0.586s0.314-0.247,0.185-0.794c-0.134-0.549-0.864-3.56-1.057-4.446
			c-0.191-0.883-0.643-1.726-1.697-1.726s-3.494,0-3.494,0s-0.874,0-0.938,0.303c-0.495-0.044-0.67,0.46-0.67,0.46l-1.461,2.734
			c0,0-0.194,0.081-0.933,0.088c-0.744,0-0.834,0.803-0.984,1.168c-0.212,0.53-0.515,1.555-0.515,1.555l-3.857,0.198
			c0,0-0.026-0.79-1.178-0.802c-1.149-0.015-5.296,0.06-5.618,0.074c-0.319,0.005-0.838,0.143-0.96,0.428
			c-0.128,0.301-0.241,0.416-0.241,0.416s0-0.192-0.386-0.192c-0.392,0-3.11,0-3.11,0l-0.312-0.925c0,0-0.066-1.74-1.508-1.892
			c-0.675-0.066-1.234-0.083-1.234-0.083l-0.006-0.02c0,0-0.228-0.739-0.579-1.591c-0.355-0.847-0.554-1.575-1.601-1.599
			c-1.049-0.021-4.294-0.12-4.609,0.049c-0.313,0.167-0.487,0.387-0.487,0.387s-0.481,0.175-0.629,0.581
			c-0.818,2.212-1.378,3.854-1.333,5.773c0.007,0.284,0.123,0.316,0.184,0.316c-0.179,0.021-2.073,0.258-2.537,0.532
			c-0.239,0.141-0.501,0.377-0.706,0.576c-1.196,0.048-2.022,0.085-2.321,0.093C27.446,24.021,27.238,23.237,28.111,21.467z
			 M49.705,46.527c-2.538,0-4.562,0-6.82,0c-2.257,0-9.709-1.354-9.649-5.645c-2.336,0.005-9.11,0.138-13.367,0.289
			c-3.365,0.121-4.622-0.062-4.507-1.834c-2.968,0-2.062-3.519-1.488-5.518c0.575-2.004,4.365-0.767,6.35-0.174
			c1.988,0.593,10.576,2.884,11.306,3.081c0.735,0.199,1.278,0.285,1.586,0.861c0.283-1.405,0.761-2.767,4.921-2.767
			c1.698,0,6.816,0,10.033,0c3.216,0,4.628,0.172,5.217,1.501c0,0,0.649,2.673,0.649,5.793
			C53.931,45.243,52.244,46.527,49.705,46.527z M54.944,33.801c-1.488,0-2.69-0.611-2.69-1.37c0-0.76,1.202-1.371,2.69-1.371
			c1.49,0,2.696,0.612,2.696,1.371C57.641,33.188,56.431,33.801,54.944,33.801z M94.528,39.343c0.114,1.77-1.141,1.949-4.51,1.828
			c-4.256-0.151-11.022-0.284-13.361-0.289c0.061,4.285-7.392,5.645-9.651,5.645c-2.257,0-4.278,0-6.822,0
			c-2.543,0-4.228-1.277-4.228-4.402c0-3.124,0.646-5.793,0.646-5.793c0.594-1.329,1.998-1.502,5.218-1.502s8.337,0,10.035,0
			c4.161,0,4.64,1.361,4.922,2.771c0.305-0.582,0.849-0.67,1.581-0.859c0.732-0.198,9.322-2.493,11.307-3.083
			c1.983-0.593,5.774-1.829,6.353,0.163C96.59,35.821,97.499,39.343,94.528,39.343z"/>
		
			<linearGradient id="SVGID_2_" gradientUnits="userSpaceOnUse" x1="179.2949" y1="-1016.8289" x2="219.9512" y2="-1016.8289" gradientTransform="matrix(1 0 0 -1 -166.0146 -977.2046)">
			<stop  offset="0" style="stop-color:#FFFFFF"/>
			<stop  offset="1" style="stop-color:#C8C8C8"/>
		</linearGradient>
		<path fill="url(#SVGID_2_)" d="M49.705,46.527c-2.538,0-4.562,0-6.82,0c-2.257,0-9.709-1.354-9.649-5.645
			c-2.336,0.005-9.11,0.138-13.367,0.289c-3.365,0.121-4.622-0.062-4.507-1.834c-2.968,0-2.062-3.519-1.488-5.518
			c0.575-2.004,4.365-0.767,6.35-0.174c1.988,0.593,10.576,2.884,11.306,3.081c0.735,0.199,1.278,0.285,1.586,0.861
			c0.283-1.405,0.761-2.767,4.921-2.767c1.698,0,6.816,0,10.033,0c3.216,0,4.628,0.172,5.217,1.501c0,0,0.649,2.673,0.649,5.793
			C53.931,45.243,52.244,46.527,49.705,46.527z"/>
		<ellipse opacity="0.1" fill="#A0A0A0" enable-background="new    " cx="54.944" cy="32.431" rx="2.696" ry="1.37"/>
		
			<linearGradient id="SVGID_3_" gradientUnits="userSpaceOnUse" x1="213.7441" y1="-1016.8337" x2="254.3984" y2="-1016.8337" gradientTransform="matrix(1 0 0 -1 -166.0146 -977.2046)">
			<stop  offset="0" style="stop-color:#FFFFFF"/>
			<stop  offset="1" style="stop-color:#C8C8C8"/>
		</linearGradient>
		<path fill="url(#SVGID_3_)" d="M94.528,39.343c0.114,1.77-1.141,1.949-4.51,1.828c-4.256-0.151-11.022-0.284-13.361-0.289
			c0.061,4.285-7.392,5.645-9.651,5.645c-2.257,0-4.278,0-6.822,0c-2.543,0-4.228-1.277-4.228-4.402
			c0-3.124,0.646-5.793,0.646-5.793c0.594-1.329,1.998-1.502,5.218-1.502s8.337,0,10.035,0c4.161,0,4.64,1.361,4.922,2.771
			c0.305-0.582,0.849-0.67,1.581-0.859c0.732-0.198,9.322-2.493,11.307-3.083c1.983-0.593,5.774-1.829,6.353,0.163
			C96.59,35.821,97.499,39.343,94.528,39.343z"/>
		<path opacity="0.6" fill="#C1BAAC" enable-background="new    " d="M13.146,33.286c4.062-3.254,11.26-3.254,16.627-3.254
			c0.894,0,5.075-4.062,5.853-4.199c-1.355,0.903-2.562,4.151-2.194,4.168c4.979,0.192,27.539-0.694,37.034-2.174
			c0.401-0.062,0.529-1.348-1.522-2.248c2.224,0.686,3.355,1.934,3.684,1.871c7.843-1.461,10.091-1.943,13.284-1.616
			c-4.328-1.022-16.19-1.869-29.957-1.869c-8.705,0-28.35,0.357-30.521,1.273c-2.171,0.912-4.536,1.298-6.511,2.737
			C16.942,29.412,13.708,31.776,13.146,33.286z"/>
		
			<linearGradient id="SVGID_4_" gradientUnits="userSpaceOnUse" x1="193.6113" y1="-994.8015" x2="248.3145" y2="-994.8015" gradientTransform="matrix(1 0 0 -1 -166.0146 -977.2046)">
			<stop  offset="0" style="stop-color:#FFFFFF"/>
			<stop  offset="1" style="stop-color:#C8C8C8"/>
		</linearGradient>
		<path opacity="0.3" fill="url(#SVGID_4_)" enable-background="new    " d="M28.111,21.467c0.607-1.221,5.327-8.78,7.466-9.482
			c2.129-0.698,19.229-0.746,19.229-0.746s0.055,0,0.141,0c0.096,0,0.148,0,0.148,0s17.093,0.04,19.229,0.746
			c2.132,0.702,6.854,8.262,7.462,9.482c0.87,1.766,0.668,2.553-0.857,2.483c-1.523-0.061-16.961-0.734-25.836-0.606
			c-0.051,0-0.094,0-0.145,0c-0.047,0-0.092,0-0.14,0c-8.881-0.13-24.314,0.546-25.838,0.606
			C27.446,24.021,27.238,23.237,28.111,21.467z"/>
		<path fill="#777266" d="M37.956,35.74c2.297,0.034,10.179,0.239,11.574,0.356c1.393,0.122,2.561,0.575,2.726,2.64
			c0.162,2.068,0.619,4.707-0.87,5.685c-1.492,0.969-7,0.75-9.182,0.514c-2.179-0.234-7.113-1.262-7.459-3.211
			c-0.343-1.951-0.574-3.56,0-4.475C35.317,36.329,36.24,35.72,37.956,35.74z"/>
		<path fill="#777266" d="M72.132,35.74c-2.291,0.034-10.179,0.239-11.572,0.356c-1.393,0.122-2.556,0.575-2.728,2.64
			c-0.165,2.068-0.62,4.707,0.872,5.685c1.49,0.969,7,0.75,9.177,0.514c2.181-0.234,7.117-1.262,7.46-3.211
			c0.346-1.952,0.574-3.56,0-4.475C74.771,36.329,73.852,35.72,72.132,35.74z"/>
		
			<linearGradient id="SVGID_5_" gradientUnits="userSpaceOnUse" x1="181.1846" y1="1629.2034" x2="260.6172" y2="1629.2034" gradientTransform="matrix(1 0 0 1 -165.9595 -1577.4023)">
			<stop  offset="0" style="stop-color:#FFFFFF"/>
			<stop  offset="1" style="stop-color:#C8C8C8"/>
		</linearGradient>
		<path fill="url(#SVGID_5_)" d="M91.666,47.531c-1.386,0.055-4.271,0.395-9.165,0.852c-4.889,0.455-8.393,0.967-9.207,2.504
			l-18.354,0.08l-18.354-0.08c-0.809-1.539-4.315-2.049-9.206-2.504c-4.891-0.457-7.78-0.797-9.16-0.852
			c-1.386-0.059-3.096-0.414-2.992,2.271c0.105,2.693,0.332,4.52,3.342,4.869c3.012,0.355,8.378,0.664,11.573,0.904
			c3.195,0.244,7.607,0.803,7.252-0.592c3.087-0.131,1.251,1.037,3.662,1.107c2.405,0.062,13.88,0,13.88,0s11.479,0.062,13.887,0
			c2.406-0.07,0.575-1.238,3.662-1.107c-0.359,1.395,4.049,0.836,7.247,0.592c3.198-0.238,8.56-0.547,11.574-0.904
			c3.012-0.352,3.238-2.174,3.345-4.869C94.755,47.116,93.048,47.472,91.666,47.531z"/>
	</g>
	<line fill="none" x1="42.127" y1="52.832" x2="42.127" y2="49.203"/>
	<g>
		<g>
			<path fill="#FFFFFF" d="M97.695,75.886H66.81c-1.34,0-2.427-1.03-2.427-2.304V50.683c0-1.269,1.086-2.3,2.427-2.3h30.89
				c1.338,0,2.426,1.031,2.426,2.3v22.899C100.122,74.855,99.036,75.886,97.695,75.886z M66.81,48.948
				c-1.007,0-1.832,0.78-1.832,1.738v22.9c0,0.956,0.822,1.737,1.832,1.737h30.886c1.011,0,1.836-0.78,1.836-1.737l0.002-22.9
				c0-0.957-0.823-1.738-1.834-1.738H66.81z"/>
			<path fill="#777266" d="M99.531,50.683c0-0.954-0.823-1.737-1.836-1.737H66.81c-1.007,0-1.832,0.781-1.832,1.737v22.899
				c0,0.959,0.822,1.742,1.832,1.742h30.886c1.011,0,1.836-0.78,1.836-1.742V50.683L99.531,50.683z"/>
			<path opacity="0.6" fill="#C1BAAC" enable-background="new    " d="M99.531,50.683c0-0.954-0.823-1.737-1.836-1.737H66.81
				c-1.007,0-1.832,0.781-1.832,1.737v13.206"/>
		</g>
		
			<linearGradient id="SVGID_6_" gradientUnits="userSpaceOnUse" x1="264.9355" y1="1809.3997" x2="264.9355" y2="1827.2799" gradientTransform="matrix(1 0 0 1 -182.6792 -1755.7344)">
			<stop  offset="0" style="stop-color:#FFFFFF"/>
			<stop  offset="1" style="stop-color:#D3D1D1"/>
		</linearGradient>
		<path fill="url(#SVGID_6_)" d="M68.247,53.417v18.315h28.017V53.417H68.247z M75.345,70.488H69.34v-5.433h6.005V70.488z
			 M75.345,64.269H69.34v-5.434h6.005V64.269z M81.952,70.488H75.95v-5.433h6.002V70.488L81.952,70.488z M81.952,64.269H75.95
			v-5.434h6.002V64.269L81.952,64.269z M88.56,70.488h-6.002v-5.433h6.002V70.488z M88.56,64.269h-6.002v-5.434h6.002V64.269z
			 M95.168,70.488h-6.002v-5.433h6.002V70.488z M95.168,64.269h-6.002v-5.434h6.002V64.269z"/>
		<g>
			<path fill="#FFFFFF" d="M81.778,59.573c0.016,0.051,0.019,0.086,0.019,0.101c0,0.028-0.019,0.049-0.051,0.053
				c-0.104,0.02-0.159,0.027-0.17,0.033c-0.1,0.026-0.245,0.129-0.441,0.302c-0.195,0.173-0.352,0.34-0.475,0.499
				c-0.228,0.308-0.453,0.704-0.683,1.197c-0.247,0.525-0.408,0.981-0.479,1.353c-0.005,0.026-0.023,0.196-0.061,0.508
				c-0.019,0.163-0.05,0.253-0.091,0.274c-0.144,0.068-0.249,0.101-0.321,0.101c-0.029,0-0.049-0.035-0.061-0.108
				c-0.017-0.13-0.038-0.223-0.054-0.276c-0.149-0.444-0.414-0.849-0.801-1.221c-0.183-0.173-0.32-0.29-0.413-0.342
				c-0.048-0.028-0.18-0.085-0.394-0.17c-0.062-0.02-0.092-0.071-0.092-0.139c0-0.035,0.011-0.062,0.031-0.088
				c0.056-0.073,0.149-0.192,0.277-0.359c0.077-0.095,0.149-0.177,0.219-0.242c0.04-0.036,0.074-0.054,0.102-0.054
				c0.017,0,0.054,0.017,0.113,0.046c0.187,0.097,0.384,0.25,0.596,0.463c0.214,0.213,0.351,0.408,0.43,0.586
				c0.048,0.109,0.082,0.165,0.117,0.165c0.044,0,0.091-0.086,0.151-0.245c0.057-0.15,0.202-0.419,0.435-0.798
				c0.234-0.383,0.427-0.669,0.579-0.865c0.55-0.69,0.951-1.125,1.205-1.302c0.026-0.018,0.054-0.025,0.077-0.025
				c0.046,0,0.084,0.054,0.126,0.171C81.695,59.254,81.732,59.381,81.778,59.573z"/>
		</g>
		<g>
			<path fill="#FFFFFF" d="M94.347,65.726c0.013,0.05,0.02,0.082,0.02,0.099c0,0.026-0.02,0.048-0.052,0.052
				c-0.104,0.02-0.157,0.028-0.167,0.034c-0.102,0.029-0.249,0.129-0.444,0.302c-0.197,0.174-0.352,0.341-0.477,0.501
				c-0.225,0.307-0.453,0.703-0.683,1.195c-0.245,0.525-0.408,0.983-0.478,1.354c-0.003,0.025-0.021,0.196-0.059,0.505
				c-0.02,0.167-0.05,0.255-0.093,0.273c-0.142,0.07-0.247,0.104-0.319,0.104c-0.029,0-0.049-0.038-0.062-0.112
				c-0.019-0.126-0.036-0.22-0.054-0.273c-0.148-0.444-0.411-0.848-0.801-1.22c-0.182-0.173-0.318-0.289-0.413-0.343
				c-0.048-0.025-0.182-0.085-0.393-0.166c-0.061-0.021-0.094-0.073-0.094-0.136c0-0.038,0.011-0.066,0.035-0.093
				c0.054-0.074,0.149-0.193,0.272-0.357c0.079-0.096,0.15-0.181,0.223-0.241c0.039-0.036,0.072-0.054,0.1-0.054
				c0.02,0,0.054,0.018,0.114,0.047c0.185,0.097,0.386,0.251,0.598,0.461c0.211,0.214,0.351,0.411,0.429,0.584
				c0.044,0.112,0.081,0.165,0.116,0.165c0.041,0,0.091-0.081,0.152-0.242c0.054-0.151,0.202-0.418,0.435-0.801
				c0.232-0.379,0.424-0.665,0.577-0.862c0.551-0.693,0.953-1.129,1.207-1.303c0.026-0.018,0.052-0.028,0.075-0.028
				c0.045,0,0.084,0.052,0.128,0.174C94.264,65.404,94.3,65.531,94.347,65.726z"/>
		</g>
	</g>
</g>
</svg>
