<?xml version="1.0" encoding="utf-8"?>
<!-- Generator: Adobe Illustrator 16.0.0, SVG Export Plug-In . SVG Version: 6.00 Build 0)  -->
<!DOCTYPE svg PUBLIC "-//W3C//DTD SVG 1.1//EN" "http://www.w3.org/Graphics/SVG/1.1/DTD/svg11.dtd">
<svg version="1.1" id="Layer_1" xmlns="http://www.w3.org/2000/svg" xmlns:xlink="http://www.w3.org/1999/xlink" x="0px" y="0px"
	 width="110.5px" height="84.559px" viewBox="0 0 110.5 84.559" enable-background="new 0 0 110.5 84.559" xml:space="preserve">
<path fill="#777266" d="M57.295,27.218c-0.85,0-1.799,0.41-2.539,1.093c-1.383,1.292-1.863,3.236-1.645,3.686l0.001-0.002
	c0.026,0,0.191,0.064,0.533,0.064c1.189,0,2.842-0.704,3.844-1.636c0.821-0.763,1.108-1.61,1.108-2.146
	c0-0.478-0.207-0.672-0.276-0.736C58.021,27.26,57.551,27.218,57.295,27.218z"/>
<path fill="#777266" d="M45.072,25.133c-0.33,0-0.94,0.054-1.33,0.417c-0.086,0.079-0.358,0.33-0.358,0.948
	c0,0.694,0.378,1.79,1.437,2.779c1.291,1.205,3.427,2.115,4.969,2.115c0.539,0,0.73-0.123,0.734-0.123
	c0.252-0.498-0.365-3.037-2.169-4.722C47.398,25.664,46.173,25.133,45.072,25.133z"/>
<g>
	<path fill="#777266" d="M86.196,19.032c0-1.394-1.134-2.528-2.528-2.528H73.533l12.662,12.305L86.196,19.032L86.196,19.032z"/>
	
		<linearGradient id="SVGID_1_" gradientUnits="userSpaceOnUse" x1="95.7422" y1="-623.1707" x2="112.4414" y2="-623.1707" gradientTransform="matrix(1 0 0 -1 -25.0796 -599.7183)">
		<stop  offset="0" style="stop-color:#E6E6E6"/>
		<stop  offset="0.5398" style="stop-color:#FFFFFF"/>
		<stop  offset="1" style="stop-color:#C8C8C8"/>
	</linearGradient>
	<path fill="url(#SVGID_1_)" d="M87.361,31.567L70.663,15.338h13.005c2.036,0,3.693,1.655,3.693,3.693V31.567L87.361,31.567z
		 M73.533,16.506L86.195,28.81v-9.779c0-1.393-1.134-2.527-2.528-2.527L73.533,16.506L73.533,16.506z"/>
</g>
<g>
	
		<linearGradient id="SVGID_2_" gradientUnits="userSpaceOnUse" x1="94.2539" y1="-662.9358" x2="127.6787" y2="-662.9358" gradientTransform="matrix(1 0 0 -1 -25.0796 -599.7183)">
		<stop  offset="0" style="stop-color:#E6E6E6"/>
		<stop  offset="0.5398" style="stop-color:#FFFFFF"/>
		<stop  offset="1" style="stop-color:#C8C8C8"/>
	</linearGradient>
	<path fill="url(#SVGID_2_)" d="M85.775,78.875c-2.493,0-4.979-0.338-7.388-1.013c-2.886-0.804-5.043-1.935-6.784-3.562
		c-1.705-1.587-2.521-3.453-2.422-5.542c0.021-0.447,0.013-0.896,0.006-1.35l-0.005-4.123c-0.002-0.078-0.002-0.16-0.002-0.239
		l0.002-2.441l0.023,0.085c0-0.024,0.001-0.044,0.002-0.068l0.074-2.481c-0.149-0.81-0.124-1.627,0.073-2.425l0.012-0.347l0.04,0.15
		c0.255-0.898,0.73-1.768,1.427-2.572c1.503-1.747,3.5-3.023,6.098-3.896c5.899-1.989,11.926-1.987,17.826,0.008
		c2.503,0.84,4.426,2.041,5.874,3.667c1.731,1.943,2.238,4.2,1.544,6.291l0.239,1.535c0.27,1.733,0.165,3.279-0.322,4.641
		l0.297,1.405c0.708,3.354-0.395,6.331-3.097,8.383c-2.106,1.597-4.623,2.675-7.689,3.295C89.65,78.674,87.688,78.875,85.775,78.875
		z M70.881,70.083c0.22,1.104,0.822,2.108,1.819,3.038c1.546,1.445,3.491,2.459,6.12,3.189c4.016,1.121,8.213,1.253,12.467,0.391
		c2.82-0.574,5.124-1.555,7.03-3.003c1.291-0.979,2.13-2.225,2.478-3.64c-0.227,0.267-0.473,0.524-0.744,0.776
		c-1.726,1.592-3.867,2.716-6.739,3.534c-3.591,1.015-7.418,1.26-11.396,0.732c-3.348-0.44-6.126-1.386-8.488-2.887
		C72.387,71.555,71.546,70.853,70.881,70.083z M71.337,67.948c0.602,1.088,1.555,2.016,2.954,2.907
		c2.159,1.372,4.723,2.24,7.836,2.649c3.764,0.5,7.365,0.267,10.745-0.686c2.618-0.744,4.554-1.751,6.086-3.167
		c0.54-0.501,0.961-1.019,1.275-1.571c-0.539,0.537-1.174,1.033-1.9,1.489c-2.457,1.545-5.28,2.507-8.625,2.941
		c-1.362,0.18-2.719,0.27-4.023,0.27c-0.001,0-0.001,0-0.001,0c-3.026,0-5.945-0.486-8.682-1.448
		C74.554,70.474,72.732,69.388,71.337,67.948z M70.875,63.999c0.16,0.826,0.546,1.596,1.174,2.344
		c1.264,1.497,3.007,2.601,5.481,3.471c2.564,0.9,5.306,1.356,8.15,1.356l0,0c1.236,0,2.521-0.085,3.814-0.255
		c3.113-0.403,5.725-1.291,7.978-2.708c1.829-1.146,2.908-2.499,3.303-4.213c-0.903,1.069-2.083,1.97-3.632,2.779
		c-2.605,1.356-5.528,2.144-8.936,2.401c-4.761,0.371-8.853-0.241-12.575-1.878C74.034,66.592,72.224,65.621,70.875,63.999z
		 M71.412,61.959c0.884,1.584,2.424,2.784,4.874,3.863c3.475,1.529,7.308,2.098,11.8,1.746c3.188-0.241,5.908-0.971,8.316-2.224
		c1.759-0.918,2.956-1.948,3.768-3.243c0.028-0.046,0.06-0.095,0.084-0.143c-0.022,0.023-0.045,0.043-0.066,0.065
		c-1.854,1.741-4.188,2.945-7.361,3.792c-2.288,0.608-4.633,0.868-7.849,0.868c-0.001,0,0,0-0.001,0h-0.157
		c-1.412-0.011-5.128-0.213-9.123-1.946C74.464,64.2,72.801,63.366,71.412,61.959z M85.836,49.167c-2.788,0-5.61,0.474-8.393,1.41
		c-2.315,0.779-4.076,1.898-5.393,3.425c-1.52,1.764-1.66,3.857-0.378,5.748c0.98,1.454,2.421,2.534,4.669,3.507
		c3.722,1.617,7.174,1.806,8.485,1.812h0.155c3.104,0,5.256-0.235,7.432-0.813c2.904-0.773,5.02-1.856,6.668-3.408
		c2.256-2.123,2.388-4.76,0.348-7.048c-1.256-1.412-2.955-2.461-5.188-3.215C91.457,49.644,88.628,49.167,85.836,49.167z"/>
	<path fill="#777266" d="M84.824,65.873c3.284,0.009,5.563-0.243,7.797-0.836c2.599-0.693,5.022-1.725,7.015-3.602
		c2.564-2.416,2.723-5.562,0.396-8.171c-1.498-1.687-3.433-2.735-5.528-3.441c-5.762-1.946-11.551-1.946-17.313-0.006
		c-2.201,0.738-4.195,1.86-5.745,3.659c-1.75,2.028-1.935,4.514-0.438,6.727c1.239,1.824,3.042,2.938,5.016,3.794
		C79.137,65.348,82.422,65.863,84.824,65.873z M69.988,66.738c0,0.687,0.027,1.371-0.003,2.058
		c-0.093,2.003,0.742,3.588,2.164,4.915c1.839,1.72,4.068,2.712,6.454,3.379c4.242,1.184,8.535,1.275,12.841,0.397
		c2.662-0.538,5.167-1.484,7.358-3.146c2.418-1.834,3.442-4.524,2.798-7.576c-0.338,1.444-1.092,2.547-2.1,3.478
		c-1.832,1.694-4.049,2.681-6.413,3.351c-3.634,1.027-7.333,1.205-11.068,0.709c-2.897-0.38-5.668-1.185-8.162-2.769
		C72.047,70.384,70.579,68.944,69.988,66.738z M101.62,60.679c-0.219,0.695-0.426,1.304-0.772,1.851
		c-0.999,1.589-2.441,2.677-4.077,3.527c-2.697,1.409-5.604,2.086-8.625,2.315c-4.198,0.328-8.298-0.103-12.185-1.812
		c-2.712-1.192-5.077-2.813-5.946-5.912c-0.026,0.803-0.022,1.604-0.028,2.408c-0.017,1.455,0.52,2.706,1.448,3.807
		c1.558,1.841,3.605,2.93,5.834,3.712c4.009,1.408,8.145,1.686,12.336,1.142c2.948-0.384,5.755-1.223,8.302-2.826
		C100.972,66.964,102.191,64.347,101.62,60.679z"/>
</g>
<g>
	
		<linearGradient id="SVGID_3_" gradientUnits="userSpaceOnUse" x1="108.0156" y1="-658.7375" x2="115.5176" y2="-658.7375" gradientTransform="matrix(1 0 0 -1 -25.0796 -599.7183)">
		<stop  offset="0" style="stop-color:#E6E6E6"/>
		<stop  offset="0.5398" style="stop-color:#FFFFFF"/>
		<stop  offset="1" style="stop-color:#C8C8C8"/>
	</linearGradient>
	<path fill="url(#SVGID_3_)" d="M90.438,53.802l-2.728,4.997h2.204v0.848h-2.618v1.326h2.618v0.855H87.31v2.408h-1.221v-2.408
		h-2.602v-0.855h2.62v-1.326h-2.62v-0.848h2.133l-2.684-4.997h1.389l2.378,4.675l2.414-4.675H90.438z"/>
</g>
<g>
	<path fill="#777266" d="M68.809,63.996c-0.002-0.086,0.195-8.531,0.195-8.531s0.829-1.743,1.58-2.604
		c1.619-1.889,3.766-3.26,6.566-4.199c2.858-0.967,8.635-1.566,8.635-1.566l-0.059-6.787l-12.11-11.99
		c0.071,0.455-0.026,0.935-0.311,1.339c-1.166,1.652-2.714,2.97-4.615,3.933c0.398,0.369,0.65,0.894,0.65,1.474v5.255
		c0,1.114-0.902,2.02-2.017,2.02h-1.081v3.298H53.851V34.111h-4.098V45.64H37.361v-3.298h-1.079c-1.113,0-2.019-0.908-2.019-2.02
		v-5.253c0-0.581,0.25-1.106,0.648-1.475c-1.904-0.962-3.452-2.283-4.614-3.933c-0.587-0.833-0.386-1.987,0.449-2.573
		c0.807-0.566,2.01-0.351,2.572,0.45c2.199,3.128,6.148,3.986,8.962,4.172c-1.354-1.387-2.124-3.109-2.124-4.773
		c0-1.312,0.496-2.496,1.393-3.335c0.907-0.84,2.127-1.285,3.526-1.285c1.887,0,3.846,0.813,5.37,2.235
		c0.834,0.778,1.57,1.765,2.118,2.844c0.214-0.262,0.44-0.502,0.673-0.721c1.2-1.118,2.742-1.76,4.235-1.76
		c1.117,0,2.088,0.356,2.812,1.027c0.724,0.675,1.12,1.625,1.12,2.672c0,1.073-0.397,2.174-1.125,3.137
		c2.815-0.048,7.531-0.696,10.003-4.211c0.396-0.559,1.091-0.859,1.769-0.768l-10.637-10.53H17.955
		c-1.316,0-2.387,1.069-2.387,2.386v45.196c0,1.315,2.387,2.388,2.387,2.388h50.879L68.809,63.996z M49.754,60.13H37.362V49.738
		h12.392V60.13z M66.241,60.13h-12.39V49.738h12.39V60.13z"/>
	
		<linearGradient id="SVGID_4_" gradientUnits="userSpaceOnUse" x1="22.6489" y1="67.3889" x2="95.4336" y2="67.3889" gradientTransform="matrix(1 0 0 -1 -8.3599 108.6138)">
		<stop  offset="0" style="stop-color:#FFFFFF"/>
		<stop  offset="1" style="stop-color:#C8C8C8"/>
	</linearGradient>
	<path fill="url(#SVGID_4_)" d="M61.418,16.24l10.635,10.532c-0.079-0.013-0.162-0.018-0.241-0.018
		c-0.598,0-1.179,0.292-1.526,0.784c-2.472,3.515-7.186,4.163-10.001,4.21c0.725-0.961,1.125-2.063,1.125-3.136
		c0-1.049-0.396-1.997-1.121-2.673c-0.723-0.67-1.694-1.027-2.811-1.027c-1.494,0-3.038,0.643-4.237,1.761
		c-0.234,0.218-0.459,0.458-0.674,0.721c-0.548-1.08-1.282-2.067-2.118-2.844c-1.524-1.423-3.483-2.236-5.371-2.236
		c-1.4,0-2.619,0.445-3.526,1.286c-0.897,0.839-1.393,2.023-1.393,3.335c0,1.664,0.77,3.386,2.123,4.772
		c-2.815-0.184-6.764-1.042-8.962-4.171c-0.347-0.496-0.941-0.768-1.536-0.768c-0.364,0-0.729,0.102-1.036,0.317
		c-0.833,0.586-1.035,1.741-0.448,2.574c1.161,1.65,2.711,2.969,4.614,3.933c-0.398,0.368-0.648,0.894-0.648,1.475v5.254
		c0,1.111,0.906,2.019,2.018,2.019h1.079v3.299h12.392v-11.53h4.095v11.527h12.392v-3.297h1.081c1.114,0,2.017-0.907,2.017-2.021
		v-5.255c0-0.58-0.25-1.106-0.65-1.475c1.902-0.962,3.449-2.279,4.615-3.932c0.285-0.405,0.383-0.885,0.311-1.339l12.111,11.99
		l0.059,6.787c0,0-5.776,0.599-8.634,1.564c-2.799,0.94-4.947,2.313-6.565,4.2c-0.753,0.862-1.582,2.605-1.582,2.605
		s-0.197,8.444-0.194,8.53l0.024,2.214H17.955c0,0-2.387-1.073-2.387-2.388V18.628c0-1.318,1.071-2.388,2.387-2.388H61.418
		 M53.85,60.13H66.24V49.738H53.85V60.13 M37.362,60.13h12.392V49.738H37.362V60.13 M61.943,14.962h-0.525H17.955
		c-2.022,0-3.666,1.646-3.666,3.666v45.195c0,2.04,2.617,3.319,3.142,3.555l0.25,0.112h0.274h50.879h1.292l-0.013-1.295
		l-0.025-2.214c0.002-0.198,0.111-4.912,0.187-8.202c0.282-0.561,0.83-1.57,1.274-2.078c1.467-1.713,3.432-2.963,6.009-3.827
		c2.694-0.91,8.303-1.5,8.358-1.507l1.157-0.12l-0.01-1.163l-0.059-6.787L87,39.769l-0.376-0.37L75.668,28.55h0.002l-2.717-2.689
		L62.316,15.33L61.943,14.962L61.943,14.962z M45.53,33.206l-2.331-2.39c-1.119-1.146-1.76-2.56-1.76-3.88
		c0-0.953,0.35-1.805,0.987-2.399c0.664-0.614,1.583-0.942,2.654-0.942c1.57,0,3.208,0.689,4.496,1.891
		c0.729,0.678,1.369,1.539,1.853,2.49l0.89,1.75l1.242-1.52c0.175-0.217,0.363-0.417,0.553-0.596
		c0.967-0.899,2.193-1.415,3.365-1.415c0.785,0,1.456,0.237,1.94,0.686c0.46,0.427,0.713,1.042,0.713,1.733
		c0,0.785-0.308,1.625-0.869,2.367l-1.577,2.094l2.622-0.044c2.904-0.05,8.199-0.732,11.025-4.754
		c0.103-0.145,0.294-0.241,0.48-0.241c0.023,0,0.047,0.001,0.071,0.003l0.402,0.055l0.067,0.423
		c0.017,0.102,0.012,0.256-0.094,0.406c-1.042,1.476-2.438,2.664-4.146,3.528l-1.646,0.83l1.354,1.249
		c0.087,0.084,0.238,0.264,0.238,0.536v5.255c0,0.41-0.33,0.742-0.736,0.742h-1.081h-1.28v1.279v2.019H55.13V34.112v-1.278h-1.279
		h-4.098h-1.279v1.278v10.251H38.64v-2.019v-1.28h-1.279h-1.079c-0.407,0-0.74-0.332-0.74-0.74V35.07
		c0-0.276,0.15-0.454,0.237-0.537l1.353-1.25l-1.643-0.83c-1.711-0.867-3.106-2.052-4.146-3.529
		c-0.116-0.167-0.108-0.336-0.094-0.423c0.016-0.087,0.067-0.251,0.232-0.367c0.101-0.07,0.219-0.084,0.3-0.084
		c0.202,0,0.395,0.086,0.489,0.224c2.473,3.517,6.762,4.503,9.925,4.712L45.53,33.206L45.53,33.206z M55.129,51.017h9.832v7.835
		h-9.832V51.017L55.129,51.017z M38.642,51.017h9.833v7.835h-9.833V51.017L38.642,51.017z"/>
</g>
<path opacity="0.6" fill="#C1BAAC" enable-background="new    " d="M72.156,61.651c2.841-5.974,10.787-10.66,20.841-12.262
	c-5.306-1.507-10.638-1.389-15.94,0.397c-2.202,0.739-4.195,1.86-5.747,3.659c-1.751,2.028-1.933,4.515-0.437,6.727
	C71.25,60.729,71.687,61.214,72.156,61.651z"/>
<path opacity="0.6" fill="#C1BAAC" enable-background="new    " d="M86.196,21.974v-2.941c0-1.394-1.134-2.528-2.528-2.528H73.533
	l7.521,7.31L86.196,21.974z"/>
<g opacity="0.6" enable-background="new    ">
	<path fill="#C1BAAC" d="M34.108,36.152V35.07c0-0.581,0.251-1.107,0.649-1.475c-1.902-0.963-3.453-2.284-4.613-3.933
		c-0.587-0.833-0.386-1.987,0.447-2.573c0.806-0.566,2.009-0.351,2.571,0.45c2.199,3.129,6.148,3.987,8.963,4.172
		c-1.354-1.387-2.125-3.109-2.125-4.773c0-1.312,0.496-2.496,1.393-3.335c0.907-0.84,2.127-1.285,3.527-1.285
		c1.887,0,3.846,0.813,5.371,2.235c0.833,0.778,1.568,1.765,2.119,2.845c0.214-0.263,0.438-0.502,0.671-0.721
		c1.2-1.118,2.744-1.76,4.238-1.76c1.116,0,2.088,0.356,2.81,1.027c0.509,0.476,0.848,1.092,1.008,1.778
		c3.042-1.363,5.833-2.687,7.962-3.718l-7.838-7.759H17.799c-1.317,0-2.389,1.069-2.389,2.387v20.352
		C21.346,39.143,28.333,37.498,34.108,36.152z"/>
</g>
</svg>
