<?xml version="1.0" encoding="utf-8"?>
<!-- Generator: Adobe Illustrator 16.0.0, SVG Export Plug-In . SVG Version: 6.00 Build 0)  -->
<!DOCTYPE svg PUBLIC "-//W3C//DTD SVG 1.1//EN" "http://www.w3.org/Graphics/SVG/1.1/DTD/svg11.dtd">
<svg version="1.1" id="Layer_1" xmlns="http://www.w3.org/2000/svg" xmlns:xlink="http://www.w3.org/1999/xlink" x="0px" y="0px"
	 width="110.5px" height="84.559px" viewBox="0 0 110.5 84.559" enable-background="new 0 0 110.5 84.559" xml:space="preserve">
<g>
	
		<linearGradient id="SVGID_1_" gradientUnits="userSpaceOnUse" x1="30.9268" y1="735.7639" x2="110.7041" y2="735.7639" gradientTransform="matrix(1 0 0 1 -16.7197 -694.1113)">
		<stop  offset="0" style="stop-color:#E5E5E5"/>
		<stop  offset="0.5398" style="stop-color:#FFFFFF"/>
		<stop  offset="1" style="stop-color:#C8C8C8"/>
	</linearGradient>
	<path fill="url(#SVGID_1_)" d="M43.948,14.802c-0.401,2.583-2.616,4.568-5.314,4.568c-2.688,0-4.895-1.971-5.311-4.541
		l-16.154,0.042h-2.961v53.763h19.215c-0.011-0.142-0.043-0.276-0.043-0.418c0-2.982,2.417-5.396,5.396-5.396
		c2.982,0,5.396,2.414,5.396,5.396c0,0.142-0.03,0.276-0.043,0.418h49.856V14.669L43.948,14.802z"/>
	<g>
		<g>
			<path fill="#787366" d="M92.262,16.125H43.56c-0.867,1.821-2.707,3.087-4.859,3.087c-2.151,0-3.993-1.267-4.86-3.087H15.936
				V34.06l0.001,17.576v14.927h17.774c0.68-2.2,2.708-3.809,5.133-3.809c2.423,0,4.451,1.607,5.133,3.809h48.285V16.125
				L92.262,16.125z M39.098,59.818c-1.276,0-2.311-1.031-2.312-2.314c0-1.271,1.034-2.31,2.312-2.31c1.277,0,2.314,1.03,2.314,2.31
				C41.413,58.783,40.375,59.818,39.098,59.818z M39.098,53.126c-1.276,0-2.311-1.037-2.312-2.315c0-1.279,1.034-2.314,2.312-2.314
				c1.277,0,2.314,1.038,2.314,2.314C41.413,52.089,40.375,53.126,39.098,53.126z M39.098,46.429c-1.276,0-2.311-1.035-2.312-2.311
				c0-1.277,1.034-2.31,2.312-2.31c1.277,0,2.314,1.032,2.314,2.31C41.413,45.396,40.375,46.429,39.098,46.429z M39.098,39.735
				c-1.276,0-2.312-1.033-2.312-2.312s1.034-2.311,2.312-2.311c1.277,0,2.314,1.034,2.314,2.311
				C41.413,38.701,40.375,39.735,39.098,39.735z M39.098,33.041c-1.276,0-2.311-1.034-2.312-2.313c0-1.278,1.034-2.316,2.312-2.316
				c1.277,0,2.314,1.038,2.314,2.316C41.413,32.007,40.375,33.041,39.098,33.041z M39.098,26.345c-1.276,0-2.311-1.036-2.312-2.313
				c0-1.276,1.034-2.316,2.312-2.316c1.277,0,2.314,1.039,2.314,2.316C41.412,25.31,40.375,26.345,39.098,26.345z"/>
		</g>
	</g>
	<g>
		<path opacity="0.6" fill="#C0B9AB" enable-background="new    " d="M43.56,16.125c-0.866,1.821-2.706,3.087-4.857,3.087
			c-2.152,0-3.994-1.267-4.859-3.087H15.937V34.06v6.765l76.325-24.7H43.56z M39.004,33.094c-1.277,0-2.31-1.034-2.311-2.313
			c0-1.277,1.033-2.315,2.311-2.315c1.276,0,2.314,1.039,2.314,2.315C41.318,32.06,40.28,33.094,39.004,33.094z M39.004,26.306
			c-1.277,0-2.31-1.033-2.311-2.312c0-1.276,1.033-2.316,2.311-2.316c1.276,0,2.314,1.039,2.314,2.316
			C41.318,25.273,40.28,26.306,39.004,26.306z"/>
	</g>
</g>
<g>
	<g>
		
			<linearGradient id="SVGID_2_" gradientUnits="userSpaceOnUse" x1="117.8018" y1="2143.4895" x2="125.4287" y2="2143.4895" gradientTransform="matrix(1 0 0 1 -50.1592 -2110.7754)">
			<stop  offset="0" style="stop-color:#E6E6E6"/>
			<stop  offset="0.5398" style="stop-color:#FFFFFF"/>
			<stop  offset="1" style="stop-color:#C8C8C8"/>
		</linearGradient>
		<path fill="url(#SVGID_2_)" d="M68.634,30.716c1.402,1.645,2.804,3.294,4.206,4.94c0.154,0.183,0.34,0.328,0.597,0.342
			c0,0,0,0,0.004,0c0.24,0.026,0.421-0.086,0.547-0.271c0.177-0.25,0.289-0.538,0.377-0.826l0,0
			c0.195-0.448,0.399-0.897,0.591-1.348c0.056-0.129,0.128-0.251,0.145-0.396c-0.114-0.009-0.189,0.024-0.21,0.152
			c-0.035,0.176-0.158,0.308-0.266,0.441c-0.102,0.122-0.179,0.26-0.264,0.395c-0.138,0.231-0.307,0.247-0.429,0.016
			c-0.147-0.274-0.393-0.455-0.565-0.699c-0.138-0.194-0.266-0.389-0.386-0.602c-0.162-0.291-0.241-0.611-0.407-0.894
			c-0.02-0.03-0.031-0.058-0.035-0.083c0.002,0.022,0.02,0.051,0.035,0.081c0.169,0.283,0.248,0.604,0.407,0.895
			c0.12,0.208,0.251,0.406,0.386,0.6c0.174,0.241,0.417,0.427,0.565,0.698c0.122,0.234,0.292,0.218,0.429-0.011
			c0.085-0.141,0.162-0.271,0.264-0.4c0.107-0.13,0.23-0.261,0.266-0.437c0.024-0.129,0.096-0.16,0.21-0.154
			c0.074-0.175,0.123-0.356,0.151-0.545c0.055-0.367,0.003-0.486-0.356-0.593c-0.429-0.129-0.833-0.313-1.252-0.458
			c-0.352-0.126-0.716-0.21-1.056-0.37l0,0c-0.398-0.169-0.813-0.302-1.221-0.449c-0.806-0.284-1.607-0.583-2.399-0.883
			c-0.383-0.144-0.774-0.25-1.141-0.431c-0.059,0-0.117,0-0.177,0c-0.027,0.116,0.038,0.191,0.107,0.264
			C68.048,30.037,68.342,30.378,68.634,30.716z M72.581,31.386c0.028,0.066,0.051,0.138,0.048,0.209
			C72.632,31.528,72.615,31.454,72.581,31.386c-0.018-0.037-0.021-0.07-0.021-0.104C72.562,31.316,72.569,31.352,72.581,31.386z"/>
		
			<linearGradient id="SVGID_3_" gradientUnits="userSpaceOnUse" x1="109.8496" y1="2152.6282" x2="122.2783" y2="2152.6282" gradientTransform="matrix(1 0 0 1 -50.1592 -2110.7754)">
			<stop  offset="0" style="stop-color:#E6E6E6"/>
			<stop  offset="0.5398" style="stop-color:#FFFFFF"/>
			<stop  offset="1" style="stop-color:#C8C8C8"/>
		</linearGradient>
		<path fill="url(#SVGID_3_)" d="M72.046,37.807c-0.118-0.146-0.3-0.189-0.474-0.208c-0.538-0.064-1.078-0.123-1.611-0.182
			c-0.445-0.051-0.891-0.092-1.334-0.152c-0.469-0.069-0.944-0.079-1.418-0.161c-0.281-0.052-0.576-0.052-0.861-0.089
			c-0.438-0.058-0.875-0.09-1.31-0.15c-0.478-0.062-0.96-0.111-1.436-0.16c-0.512-0.049-1.02-0.113-1.529-0.168
			c-0.396-0.046-0.792-0.086-1.189-0.139c-0.705-0.092-1.215,0.315-1.192,1.018c0.009,0.22,0.047,0.435,0.069,0.647
			c0.023,0.313,0.044,0.625,0.083,0.933c0.05,0.479,0.125,0.958,0.156,1.439c0.031,0.536,0.097,1.064,0.158,1.594
			c0.062,0.54,0.098,1.081,0.159,1.622c0.046,0.411,0.094,0.826,0.12,1.246c0.03,0.52,0.106,1.037,0.171,1.56
			c0.03,0.222,0.036,0.446,0.161,0.645c0.106,0.168,0.247,0.239,0.438,0.214c0.105-0.447,0.208-0.88,0.497-1.259
			c0.192-0.253,0.387-0.499,0.591-0.735c0.032-0.034,0.062-0.084,0.046-0.127v0.002c0.019,0.043-0.014,0.09-0.046,0.125
			c-0.204,0.239-0.403,0.486-0.591,0.739c-0.287,0.375-0.392,0.808-0.497,1.255c0.216-0.004,0.378-0.124,0.532-0.251
			c0.501-0.42,0.995-0.841,1.488-1.27c0.249-0.208,0.476-0.447,0.736-0.64c0.25-0.195,0.494-0.403,0.727-0.616c0,0,0,0,0-0.004
			c0.314-0.259,0.632-0.519,0.937-0.783c0.523-0.458,1.053-0.904,1.58-1.346c0.723-0.596,1.423-1.212,2.136-1.822
			c0.023-0.108,0.095-0.188,0.171-0.266c0.097-0.096,0.195-0.188,0.281-0.292c0.255-0.292,0.455-0.628,0.712-0.922
			c0.123-0.15,0.334-0.315,0.121-0.559c-0.023-0.03-0.051-0.058-0.075-0.074c0.025,0.016,0.052,0.044,0.076,0.074
			c0.214,0.245,0.003,0.412-0.12,0.559c-0.256,0.295-0.458,0.628-0.713,0.925c-0.082,0.103-0.186,0.195-0.28,0.289
			c-0.078,0.079-0.149,0.161-0.173,0.266c0.067,0,0.1-0.053,0.141-0.089c0.305-0.268,0.602-0.537,0.918-0.785
			c0.276-0.226,0.536-0.476,0.805-0.721c-0.061-0.045-0.067-0.09-0.053-0.137c-0.014,0.043-0.008,0.09,0.053,0.137
			c0.028-0.014,0.058-0.02,0.083-0.036c0.226-0.198,0.461-0.387,0.669-0.598C72.145,38.18,72.164,37.952,72.046,37.807z
			 M60.472,39.807c0,0.176-0.057,0.351-0.037,0.528c0.003,0.034-0.016,0.074-0.051,0.085c0,0,0,0-0.001,0
			c0.036-0.01,0.055-0.051,0.05-0.085C60.415,40.153,60.471,39.984,60.472,39.807c-0.001-0.487-0.001-0.972-0.001-1.464
			c0-0.216,0.018-0.438-0.003-0.651c-0.026-0.28-0.03-0.565-0.253-0.783c-0.028-0.03-0.059-0.057-0.087-0.072
			c0.029,0.016,0.061,0.042,0.087,0.072c0.223,0.218,0.228,0.502,0.253,0.783c0.021,0.215,0.003,0.436,0.003,0.651
			C60.471,38.831,60.471,39.319,60.472,39.807z M63.132,43.318c0.006,0.019-0.002,0.037-0.011,0.054
			c-0.111,0.208-0.287,0.384-0.372,0.618c-0.059,0.162-0.235,0.275-0.232,0.482c0,0.052-0.052,0.104-0.094,0.145
			c-0.033,0.035-0.037,0.087-0.059,0.131c-0.03,0.073-0.056,0.146-0.061,0.217c0.005-0.07,0.026-0.144,0.061-0.219
			c0.021-0.042,0.025-0.098,0.059-0.133c0.042-0.041,0.094-0.091,0.094-0.146c-0.003-0.203,0.174-0.319,0.232-0.479
			c0.085-0.237,0.263-0.409,0.372-0.623c0.006-0.013,0.015-0.027,0.011-0.05C63.132,43.315,63.132,43.318,63.132,43.318z
			 M70.316,38.424c-0.038-0.084-0.096-0.14-0.17-0.18C70.219,38.284,70.279,38.342,70.316,38.424
			c0.021,0.032,0.038,0.048,0.063,0.053C70.357,38.473,70.334,38.459,70.316,38.424z M71.308,37.853
			c-0.231-0.06-0.464-0.119-0.697-0.172c-0.215-0.053-0.425-0.064-0.645,0.004c-0.125,0.046-0.244,0.118-0.404,0.1
			c-0.52-0.057-1.038-0.118-1.56-0.117c-0.2,0-0.408,0.036-0.601,0.021c-0.53-0.051-1.057-0.058-1.588-0.051
			c-0.255,0-0.358,0.102-0.409,0.346c-0.089,0.421-0.279,0.796-0.493,1.168c-0.117,0.205-0.287,0.412-0.306,0.649
			c-0.032,0.386-0.334,0.627-0.45,0.97c-0.064,0.18-0.194,0.347-0.246,0.537c-0.033,0.138-0.074,0.277-0.146,0.395
			c-0.09,0.142-0.205,0.267-0.216,0.452c-0.002,0.048-0.043,0.097-0.083,0.137c-0.072,0.075-0.135,0.169-0.153,0.271
			c-0.034,0.192-0.165,0.361-0.191,0.558c0.025-0.199,0.15-0.368,0.191-0.56c0.021-0.103,0.081-0.195,0.153-0.273
			c0.039-0.035,0.081-0.084,0.083-0.133c0.011-0.186,0.125-0.311,0.216-0.452c0.074-0.118,0.113-0.259,0.146-0.395
			c0.055-0.194,0.186-0.358,0.246-0.537c0.116-0.341,0.416-0.584,0.45-0.971c0.021-0.237,0.189-0.444,0.306-0.65
			c0.209-0.37,0.404-0.746,0.493-1.166c0.055-0.245,0.153-0.346,0.409-0.348c0.529-0.007,1.058,0,1.588,0.053
			c0.195,0.017,0.4-0.021,0.601-0.021c0.521-0.001,1.039,0.057,1.56,0.117c0.158,0.017,0.275-0.056,0.404-0.1
			c0.217-0.073,0.43-0.057,0.645-0.007C70.844,37.733,71.08,37.793,71.308,37.853c0.14,0.034,0.212,0.106,0.209,0.22
			C71.519,37.962,71.445,37.886,71.308,37.853z"/>
		
			<linearGradient id="SVGID_4_" gradientUnits="userSpaceOnUse" x1="105.0996" y1="2163.6331" x2="116.7412" y2="2163.6331" gradientTransform="matrix(1 0 0 1 -50.1592 -2110.7754)">
			<stop  offset="0" style="stop-color:#E6E6E6"/>
			<stop  offset="0.5398" style="stop-color:#FFFFFF"/>
			<stop  offset="1" style="stop-color:#C8C8C8"/>
		</linearGradient>
		<path fill="url(#SVGID_4_)" d="M65.053,53.188c0.213-0.216,0.461-0.405,0.67-0.626c-0.224,0.06-0.449,0.06-0.676,0.066
			c0.229-0.008,0.454-0.008,0.676-0.066c0.188-0.184,0.388-0.36,0.573-0.549c0.427-0.424,0.373-0.817-0.14-1.129
			c0,0,0,0-0.002,0.002c-0.08-0.069-0.18-0.078-0.277-0.105c-0.262-0.076-0.527-0.15-0.79-0.229
			c-0.734-0.209-1.466-0.42-2.197-0.633c-0.194,0.13-0.417,0.098-0.617,0.064c-0.265-0.048-0.523-0.021-0.773,0.024
			c-0.651,0.117-1.292,0.117-1.94-0.038c-0.44-0.106-0.898-0.109-1.352-0.03c-0.048,0.01-0.097,0.031-0.13,0
			c0.032,0.031,0.084,0.006,0.13-0.004c0.453-0.077,0.911-0.075,1.35,0.03c0.649,0.153,1.287,0.153,1.94,0.038
			c0.249-0.046,0.507-0.072,0.774-0.024c0.197,0.03,0.423,0.067,0.618-0.063c-0.485-0.183-0.996-0.284-1.493-0.429
			c0,0.001,0,0.001,0,0.001c-0.442-0.145-0.899-0.104-1.354-0.085l0,0c-0.038-0.005-0.084-0.007-0.123-0.006
			c-0.64,0.082-1.251,0.293-1.862,0.489c0,0,0,0,0,0.004c-0.42,0.104-0.835,0.228-1.245,0.362l0,0
			c-0.42,0.122-0.843,0.243-1.26,0.369c-0.103,0.026-0.205,0.065-0.283,0.135c0,0,0,0-0.003,0c-0.41,0.19-0.427,0.305-0.088,0.589
			c0.005,0.003,0.009,0.009,0.014,0.012c0.924,0.777,1.854,1.553,2.775,2.325c0.935,0.788,1.88,1.57,2.817,2.353
			c0.463,0.39,0.832,0.392,1.285,0.014c0.547-0.451,1.031-0.963,1.542-1.446C64.095,54.139,64.581,53.674,65.053,53.188z"/>
		
			<linearGradient id="SVGID_5_" gradientUnits="userSpaceOnUse" x1="119.2471" y1="2162.7014" x2="125.6562" y2="2162.7014" gradientTransform="matrix(1 0 0 1 -50.1592 -2110.7754)">
			<stop  offset="0" style="stop-color:#E6E6E6"/>
			<stop  offset="0.5398" style="stop-color:#FFFFFF"/>
			<stop  offset="1" style="stop-color:#C8C8C8"/>
		</linearGradient>
		<path fill="url(#SVGID_5_)" d="M72.357,54.51c1-1.891,2.009-3.777,3.01-5.669c0.067-0.127,0.123-0.255,0.13-0.404
			c0.009-0.195-0.118-0.308-0.312-0.283c-0.147,0.025-0.285,0.078-0.42,0.144c-0.399,0.185-0.803,0.365-1.203,0.555
			c-0.931,0.44-1.863,0.871-2.797,1.309l0,0c-0.403,0.16-0.804,0.33-1.178,0.549c-0.282,0.167-0.468,0.42-0.484,0.773l0,0
			c-0.051,0.264,0.023,0.501,0.15,0.724c0.163,0.271,0.332,0.549,0.501,0.817c0.472,0.763,0.942,1.528,1.415,2.292
			c0.02,0.042,0.036,0.086,0.066,0.121c0.235,0.356,0.406,0.351,0.635-0.013c0.029-0.047,0.049-0.1,0.072-0.146
			c-0.127,0.061-0.256,0.067-0.386,0.065c0.128,0.005,0.259-0.005,0.382-0.065C72.09,55.033,72.218,54.769,72.357,54.51z"/>
		
			<linearGradient id="SVGID_6_" gradientUnits="userSpaceOnUse" x1="103.5947" y1="2152.843" x2="109.9229" y2="2152.843" gradientTransform="matrix(1 0 0 1 -50.1592 -2110.7754)">
			<stop  offset="0" style="stop-color:#E6E6E6"/>
			<stop  offset="0.5398" style="stop-color:#FFFFFF"/>
			<stop  offset="1" style="stop-color:#C8C8C8"/>
		</linearGradient>
		<path fill="url(#SVGID_6_)" d="M59.572,44.524c-0.061-0.532-0.128-1.058-0.172-1.596c-0.021-0.276-0.046-0.554-0.079-0.825
			c-0.048-0.424-0.103-0.842-0.135-1.263c-0.021-0.277-0.04-0.551-0.079-0.827c-0.071-0.545-0.111-1.101-0.17-1.65
			c-0.03-0.305-0.03-0.615-0.144-0.903c-0.084-0.226-0.275-0.352-0.513-0.362c-0.306-0.013-0.503,0.182-0.722,0.341
			c-0.84,0.617-1.683,1.235-2.516,1.863c-0.279,0.211-0.577,0.391-0.828,0.633c0.058,0.125,0.15,0.13,0.249,0.125
			c-0.098,0.005-0.196,0-0.249-0.125c-0.104,0.041-0.183,0.123-0.274,0.189c-0.628,0.474-0.677,1.131-0.117,1.675
			c0.422,0.41,0.855,0.815,1.281,1.224c0.636,0.614,1.271,1.22,1.903,1.833c0.539,0.523,1.066,1.055,1.614,1.566
			c0.196,0.183,0.369,0.383,0.596,0.529c0.133,0.08,0.274,0.15,0.409-0.007c0.099-0.083,0.126-0.196,0.132-0.327
			c0.016-0.293-0.039-0.579-0.075-0.862C59.635,45.344,59.62,44.931,59.572,44.524z M54.821,39.947
			c0.244-0.163,0.528-0.218,0.801-0.314C55.351,39.729,55.065,39.784,54.821,39.947z M57.287,42.787
			c0.053,0.028,0.092,0.113,0.109,0.179C57.375,42.901,57.342,42.818,57.287,42.787z M57.598,43.273
			c0.212,0.306,0.428,0.615,0.605,0.94C58.026,43.888,57.812,43.579,57.598,43.273z M58.908,45.682
			c0.055-0.157,0.018-0.235-0.156-0.247C58.925,45.448,58.963,45.525,58.908,45.682z M59.25,46.129
			c0.146,0.17,0.255,0.364,0.299,0.589C59.505,46.493,59.395,46.299,59.25,46.129z"/>
		
			<linearGradient id="SVGID_7_" gradientUnits="userSpaceOnUse" x1="112.0771" y1="2155.5764" x2="122.4551" y2="2155.5764" gradientTransform="matrix(1 0 0 1 -50.1592 -2110.7754)">
			<stop  offset="0" style="stop-color:#E6E6E6"/>
			<stop  offset="0.5398" style="stop-color:#FFFFFF"/>
			<stop  offset="1" style="stop-color:#C8C8C8"/>
		</linearGradient>
		<path fill="url(#SVGID_7_)" d="M66.545,49.157c-0.193,0.075-0.346,0.239-0.553,0.268c-0.165,0.024-0.322,0.07-0.486,0.089
			c-0.116,0.009-0.244,0.052-0.319,0.168c0.436,0.126,0.875,0.238,1.303,0.399c0.679,0.248,1.503-0.143,1.772-0.801
			c0.529-1.273,1.085-2.54,1.621-3.821c0.362-0.858,0.748-1.704,1.081-2.577c0.195-0.515,0.457-0.997,0.63-1.518
			c-0.141-0.051-0.247-0.045-0.388,0.057c-0.18,0.135-0.386,0.28-0.613,0.288c-0.283,0.011-0.511,0.149-0.754,0.241
			c-0.427,0.15-0.728,0.498-1.036,0.806c-0.312,0.322-0.577,0.693-0.746,1.106c0.169-0.414,0.432-0.791,0.746-1.106
			c0.309-0.312,0.609-0.657,1.036-0.807c0.243-0.089,0.472-0.229,0.755-0.241c0.23-0.005,0.433-0.151,0.612-0.287
			c0.141-0.103,0.246-0.107,0.388-0.057c0.275-0.563,0.552-1.126,0.702-1.742c-0.028-0.194-0.118-0.232-0.321-0.102
			c-0.296,0.197-0.556,0.424-0.807,0.67c-0.025,0.013-0.041,0.022-0.057,0.036c-1,0.841-1.993,1.687-2.987,2.529
			c-0.484,0.41-0.961,0.816-1.437,1.23c0.072,0.074,0.007,0.14-0.029,0.187c-0.277,0.32-0.559,0.637-0.842,0.951
			c-0.459,0.513-0.912,1.033-1.25,1.633c-0.139,0.239-0.247,0.494-0.392,0.729c-0.163,0.267-0.289,0.559-0.498,0.783l0,0
			c0.206-0.225,0.335-0.517,0.498-0.78c0.145-0.237,0.253-0.497,0.392-0.728c0.339-0.602,0.791-1.123,1.249-1.637
			c0.282-0.314,0.565-0.631,0.842-0.951c0.039-0.045,0.109-0.108,0.028-0.187c-0.575,0.453-1.115,0.944-1.677,1.412
			c-0.665,0.56-1.327,1.121-1.99,1.683c-0.299,0.256-0.608,0.507-0.893,0.783c-0.347,0.336-0.247,0.788,0.195,0.975
			c0.124,0.049,0.257,0.08,0.389,0.119c0.006-0.081,0.042-0.129,0.089-0.167c-0.047,0.033-0.082,0.085-0.089,0.167
			c0.429,0.125,0.853,0.263,1.279,0.383c0.402,0.11,0.795,0.255,1.195,0.337c0.072-0.116,0.202-0.157,0.32-0.166
			c0.165-0.022,0.322-0.068,0.483-0.09c0.213-0.029,0.36-0.194,0.555-0.271c0.235-0.092,0.33-0.282,0.41-0.49
			C66.88,48.871,66.783,49.063,66.545,49.157z M67.768,45.292c0.04-0.034,0.072-0.071,0.094-0.11
			C67.84,45.223,67.812,45.264,67.768,45.292c-0.03,0.027-0.053,0.062-0.069,0.105C67.715,45.357,67.737,45.316,67.768,45.292z
			 M67.083,48.356c0.038-0.075,0.074-0.155,0.113-0.232c-0.039,0.075-0.075,0.154-0.113,0.235c-0.023,0.047-0.046,0.106-0.064,0.162
			C67.037,48.465,67.059,48.409,67.083,48.356z"/>
		
			<linearGradient id="SVGID_8_" gradientUnits="userSpaceOnUse" x1="110.8408" y1="2144.0178" x2="122.3447" y2="2144.0178" gradientTransform="matrix(1 0 0 1 -50.1592 -2110.7754)">
			<stop  offset="0" style="stop-color:#E6E6E6"/>
			<stop  offset="0.5398" style="stop-color:#FFFFFF"/>
			<stop  offset="1" style="stop-color:#C8C8C8"/>
		</linearGradient>
		<path fill="url(#SVGID_8_)" d="M62.279,33.425c-0.202,0.187-0.411,0.361-0.604,0.542c-0.278,0.26-0.558,0.513-0.821,0.789
			c-0.295,0.306-0.199,0.641,0.202,0.778c0.03,0.013,0.066,0.03,0.103,0.031c0.432,0.052,0.863,0.097,1.296,0.147
			c0.387,0.042,0.772,0.091,1.161,0.129c0.361,0.038,0.72,0.101,1.082,0.116c0.076,0.011,0.152,0.018,0.23,0.025
			c0.426,0.053,0.854,0.11,1.276,0.153c0.592,0.066,1.185,0.131,1.773,0.196c0.479,0.053,0.966,0.11,1.442,0.167
			c0.604,0.069,1.207,0.141,1.813,0.199c0.221,0.026,0.452,0.086,0.684,0.013c0.23-0.069,0.322-0.237,0.237-0.46
			c-0.062-0.15-0.154-0.277-0.266-0.397c-0.396-0.459-0.799-0.915-1.188-1.377c-0.389-0.459-0.757-0.929-1.146-1.391
			c-0.618-0.735-1.244-1.47-1.871-2.203c-0.264-0.315-0.529-0.635-0.81-0.938c-0.202-0.224-0.403-0.256-0.613-0.134
			c-0.084,0.028-0.153,0.083-0.221,0.144c-0.555,0.504-1.107,1.012-1.656,1.52C63.678,32.121,62.979,32.777,62.279,33.425z"/>
		
			<linearGradient id="SVGID_9_" gradientUnits="userSpaceOnUse" x1="113.0752" y1="2165.2385" x2="120.9229" y2="2165.2385" gradientTransform="matrix(1 0 0 1 -50.1592 -2110.7754)">
			<stop  offset="0" style="stop-color:#E6E6E6"/>
			<stop  offset="0.5398" style="stop-color:#FFFFFF"/>
			<stop  offset="1" style="stop-color:#C8C8C8"/>
		</linearGradient>
		<path fill="url(#SVGID_9_)" d="M70.213,55.462C70.215,55.462,70.215,55.462,70.213,55.462c-0.081-0.14-0.155-0.287-0.24-0.425
			c-0.416-0.679-0.822-1.361-1.23-2.043c-0.152-0.252-0.284-0.52-0.557-0.668c-0.308-0.199-0.716-0.186-1.031,0.063
			c-0.298,0.241-0.564,0.519-0.828,0.795c-0.63,0.603-1.253,1.206-1.878,1.807c0.183,0.191,0.388,0.319,0.606,0.39
			c-0.219-0.071-0.424-0.199-0.61-0.39c-0.495,0.438-0.956,0.896-1.41,1.366c-0.075,0.078-0.156,0.168-0.099,0.284
			c0.055,0.098,0.168,0.095,0.266,0.095c2.43,0,4.861,0,7.291,0c0.241,0,0.322-0.112,0.241-0.344
			C70.61,56.057,70.434,55.744,70.213,55.462z M67.801,52.665c-0.317,0.188-0.659,0.334-0.947,0.572
			C67.141,52.999,67.483,52.853,67.801,52.665z M66.965,55.43c-0.029-0.002-0.06-0.016-0.087-0.018
			c-0.185-0.022-0.367-0.029-0.548-0.029c0.182,0.001,0.363,0.02,0.551,0.029C66.903,55.418,66.932,55.428,66.965,55.43
			c0.527,0.01,1.05,0.062,1.574,0.078C68.014,55.495,67.488,55.44,66.965,55.43z"/>
		
			<linearGradient id="SVGID_10_" gradientUnits="userSpaceOnUse" x1="123.248" y1="2162.5901" x2="128.4443" y2="2162.5901" gradientTransform="matrix(1 0 0 1 -50.1592 -2110.7754)">
			<stop  offset="0" style="stop-color:#E6E6E6"/>
			<stop  offset="0.5398" style="stop-color:#FFFFFF"/>
			<stop  offset="1" style="stop-color:#C8C8C8"/>
		</linearGradient>
		<path fill="url(#SVGID_10_)" d="M77.916,49.781L77.916,49.781c-0.171-0.346-0.343-0.687-0.519-1.03
			c-0.022-0.05-0.068-0.095-0.104-0.141c-0.192-0.237-0.59-0.255-0.792-0.021c-0.082,0.104-0.152,0.208-0.215,0.324
			c-0.549,1.043-1.099,2.089-1.653,3.132c-0.274,0.525-0.542,1.044-0.819,1.565c-0.242,0.421-0.469,0.847-0.672,1.287
			c-0.022,0.053-0.042,0.112-0.052,0.167c-0.013,0.125,0.049,0.172,0.156,0.115c0.096-0.049,0.182-0.112,0.266-0.181
			c0.938-0.783,1.878-1.572,2.816-2.354c0.561-0.474,1.129-0.953,1.695-1.422c0.174-0.143,0.305-0.307,0.246-0.548
			C78.196,50.363,78.09,50.058,77.916,49.781z"/>
		
			<linearGradient id="SVGID_11_" gradientUnits="userSpaceOnUse" x1="124.8711" y1="2147.0637" x2="129.8359" y2="2147.0637" gradientTransform="matrix(1 0 0 1 -50.1592 -2110.7754)">
			<stop  offset="0" style="stop-color:#E6E6E6"/>
			<stop  offset="0.5398" style="stop-color:#FFFFFF"/>
			<stop  offset="1" style="stop-color:#C8C8C8"/>
		</linearGradient>
		<path fill="url(#SVGID_11_)" d="M74.771,36.198c-0.134,0.45-0.043,0.871,0.306,1.216c0.324,0.333,0.766,0.436,1.166,0.616
			c0.007-0.288,0.141-0.558,0.047-0.864c-0.095-0.312-0.122-0.643-0.325-0.923c-0.115-0.157-0.28-0.294-0.286-0.516
			c-0.01-0.475,0.012-0.949,0.094-1.421c0.015-0.073,0.045-0.166,0.003-0.235c0.042,0.07,0.012,0.16-0.003,0.235
			c-0.084,0.473-0.104,0.946-0.095,1.421c0.007,0.224,0.171,0.36,0.287,0.516c0.2,0.281,0.23,0.612,0.322,0.923
			c0.093,0.307-0.041,0.58-0.045,0.864c0.973,0.457,1.956,0.887,2.945,1.317c0.073,0.031,0.158,0.052,0.239,0.062
			c0.205,0.019,0.302-0.105,0.225-0.294c-0.022-0.057-0.051-0.109-0.078-0.161c-0.204-0.351-0.41-0.708-0.613-1.058
			c-0.367-0.634-0.741-1.265-1.107-1.896c-0.49-0.857-0.98-1.713-1.473-2.565c-0.046-0.085-0.074-0.188-0.172-0.241l0,0
			c-0.112-0.08-0.16,0.018-0.198,0.09c-0.123,0.232-0.228,0.477-0.311,0.729l0,0c-0.17,0.348-0.321,0.704-0.457,1.063
			C75.061,35.436,74.884,35.806,74.771,36.198z M75.105,37.188c0.025-0.553,0.164-1.084,0.2-1.634
			C75.272,36.103,75.132,36.641,75.105,37.188z"/>
		
			<linearGradient id="SVGID_12_" gradientUnits="userSpaceOnUse" x1="119.373" y1="2155.2737" x2="126.2266" y2="2155.2737" gradientTransform="matrix(1 0 0 1 -50.1592 -2110.7754)">
			<stop  offset="0" style="stop-color:#E6E6E6"/>
			<stop  offset="0.5398" style="stop-color:#FFFFFF"/>
			<stop  offset="1" style="stop-color:#C8C8C8"/>
		</linearGradient>
		<path fill="url(#SVGID_12_)" d="M76.025,45.603c-0.176-0.612-0.358-1.23-0.596-1.823l0,0c-0.088-0.294-0.176-0.585-0.28-0.863
			c-0.086-0.233-0.166-0.472-0.24-0.708c-0.113-0.361-0.23-0.712-0.358-1.073c-0.132-0.4-0.185-0.707-0.359-1.096
			c-0.017-0.139-0.108-0.372-0.186-0.495c-0.198-0.328-0.473-0.33-0.661,0.007c-0.225,0.406-0.391,0.842-0.556,1.274l0,0
			c-0.255,0.561-0.497,1.126-0.723,1.697c0,0,0,0,0.001,0l-0.001,0.001c-0.126,0.225-0.208,0.474-0.309,0.709
			c-0.813,1.917-1.631,3.824-2.445,5.742c-0.052,0.126-0.098,0.255-0.099,0.394c-0.002,0.231,0.115,0.342,0.353,0.328l0,0
			c0.104,0.009,0.191-0.037,0.279-0.08c0.57-0.232,1.123-0.5,1.683-0.761c1.254-0.582,2.512-1.153,3.766-1.741
			C75.854,46.854,76.189,46.188,76.025,45.603z"/>
		
			<linearGradient id="SVGID_13_" gradientUnits="userSpaceOnUse" x1="102.8555" y1="2156.804" x2="109.1641" y2="2156.804" gradientTransform="matrix(1 0 0 1 -50.1592 -2110.7754)">
			<stop  offset="0" style="stop-color:#E6E6E6"/>
			<stop  offset="0.5398" style="stop-color:#FFFFFF"/>
			<stop  offset="1" style="stop-color:#C8C8C8"/>
		</linearGradient>
		<path fill="url(#SVGID_13_)" d="M55.384,49.656c-0.379-0.188-0.783-0.323-1.177-0.469c-0.052-0.021-0.103-0.041-0.155-0.056
			c0.054,0.015,0.108,0.034,0.157,0.056c0.396,0.146,0.796,0.281,1.18,0.469c0.034,0.016,0.071,0.035,0.071,0.083
			c0.471-0.118,0.936-0.26,1.394-0.409c0.11-0.029,0.216-0.049,0.324-0.081c0.458-0.15,0.927-0.25,1.375-0.429l0,0
			c0.456-0.21,0.591-0.571,0.293-0.987c-0.042-0.061-0.095-0.105-0.144-0.156c-0.256-0.249-0.512-0.491-0.77-0.741
			c-0.771-0.742-1.545-1.492-2.318-2.239c-0.372-0.357-0.745-0.706-1.113-1.056c-0.518-0.498-1.033-0.993-1.551-1.494
			c-0.101-0.09-0.186-0.084-0.255,0.034c0,0.107,0,0.214,0,0.317c0.104,0.343,0.133,0.706,0.199,1.056
			c0.12,0.646,0.214,1.298,0.333,1.946c0.077,0.396,0.125,0.798,0.237,1.185c0.014,0.311,0.098,0.61,0.149,0.921
			c0.083,0.5,0.182,1.005,0.271,1.499c0.035-0.003,0.063,0.015,0.095,0.018c-0.032-0.003-0.066-0.021-0.095-0.018
			c0.013,0.188,0.044,0.366,0.117,0.533c0.122,0.267,0.313,0.367,0.594,0.322c0.297-0.042,0.581-0.133,0.863-0.22
			C55.458,49.693,55.42,49.67,55.384,49.656z M57.886,48.51c0.159,0.061,0.322,0.112,0.488,0.161c0.04,0.016,0.078,0.03,0.106,0.053
			c-0.028-0.022-0.066-0.038-0.106-0.052C58.207,48.623,58.045,48.571,57.886,48.51c-0.054-0.028-0.102-0.063-0.152-0.086
			C57.782,48.447,57.829,48.483,57.886,48.51z"/>
		
			<linearGradient id="SVGID_14_" gradientUnits="userSpaceOnUse" x1="103.5215" y1="2147.0256" x2="108.7441" y2="2147.0256" gradientTransform="matrix(1 0 0 1 -50.1592 -2110.7754)">
			<stop  offset="0" style="stop-color:#E6E6E6"/>
			<stop  offset="0.5398" style="stop-color:#FFFFFF"/>
			<stop  offset="1" style="stop-color:#C8C8C8"/>
		</linearGradient>
		<path fill="url(#SVGID_14_)" d="M57.651,34.009c-0.051-0.104-0.106-0.196-0.164-0.29c-0.038-0.069-0.068-0.119-0.068-0.119
			c-0.004,0-0.007,0-0.01,0c-0.042-0.065-0.081-0.135-0.128-0.195c-0.224-0.301-0.411-0.289-0.608,0.033
			c-0.286,0.477-0.558,0.964-0.837,1.447c-0.798,1.38-1.605,2.757-2.401,4.142c-0.039,0.068-0.122,0.154-0.034,0.237
			c0.09,0.085,0.197,0.038,0.28-0.016c0.108-0.077,0.212-0.167,0.319-0.244c0.455-0.336,0.904-0.671,1.356-1.009l0,0
			c0,0,1.484-0.881,1.89-1.146c0.404-0.263,1.373-0.809,1.337-1.058C58.558,35.621,57.985,34.589,57.651,34.009z"/>
		
			<linearGradient id="SVGID_15_" gradientUnits="userSpaceOnUse" x1="124.9678" y1="2154.8596" x2="130.6074" y2="2154.8596" gradientTransform="matrix(1 0 0 1 -50.1592 -2110.7754)">
			<stop  offset="0" style="stop-color:#E6E6E6"/>
			<stop  offset="0.5398" style="stop-color:#FFFFFF"/>
			<stop  offset="1" style="stop-color:#C8C8C8"/>
		</linearGradient>
		<path fill="url(#SVGID_15_)" d="M80.433,41.51c0,0,0,0,0-0.005c0-0.005-0.002-0.008-0.002-0.009
			c-0.068-0.605-0.468-0.795-0.731-0.946c-0.023-0.014-0.047-0.024-0.068-0.042c-0.002,0-0.007-0.005-0.013-0.005
			c-0.152-0.103-1.24-0.586-2.264-1.037c-0.022-0.011-0.044-0.025-0.065-0.027c-0.556-0.245-1.09-0.479-1.436-0.625
			c-0.114-0.069-0.235-0.12-0.362-0.157c-0.026-0.014-0.043-0.021-0.043-0.021l0.003,0.007c-0.042-0.014-0.084-0.031-0.126-0.038
			c-0.336-0.069-0.547,0.142-0.513,0.482c0.027,0.215,0.098,0.411,0.182,0.604c0.15,0.503,0.312,1.009,0.495,1.499l0,0
			c0.027,0.091,0.054,0.179,0.083,0.269c0.333,0.998,0.669,1.996,1.002,2.999h0.005c0,0,0,0,0,0.002
			c0.065,0.206,0.132,0.412,0.2,0.623c0.306,0.93,0.654,1.843,1.104,2.711c0.123-0.022,0.201,0.019,0.24,0.151
			c0.01,0.053,0.024,0.129,0.104,0.12v0.002c-0.081,0.01-0.094-0.072-0.104-0.122c-0.037-0.132-0.114-0.17-0.241-0.151
			c0.208,0.416,0.411,0.839,0.625,1.248c0.086,0.169,0.19,0.332,0.338,0.452c0.145,0.125,0.234,0.099,0.278-0.081
			c0.006-0.03,0.013-0.062,0.019-0.092c0-0.003,0.003,0,0.003,0c0.079-0.317,1.184-6.345,1.292-7.386
			C80.454,41.771,80.45,41.636,80.433,41.51z"/>
		
			<linearGradient id="SVGID_16_" gradientUnits="userSpaceOnUse" x1="108.1084" y1="2142.8" x2="115.2432" y2="2142.8" gradientTransform="matrix(1 0 0 1 -50.1592 -2110.7754)">
			<stop  offset="0" style="stop-color:#E6E6E6"/>
			<stop  offset="0.5398" style="stop-color:#FFFFFF"/>
			<stop  offset="1" style="stop-color:#C8C8C8"/>
		</linearGradient>
		<path fill="url(#SVGID_16_)" d="M65.069,29.585c-0.056-0.102-0.148-0.014-0.22-0.003c-0.014,0.001-0.021,0.011-0.03,0.014
			c-1.295,0.471-2.587,0.942-3.877,1.413c-0.902,0.326-1.805,0.652-2.698,0.98c-0.223,0.081-0.293,0.175-0.291,0.371h-0.004
			c0,0,0,0.292,0.111,0.552c0.01,0.022,0.021,0.05,0.033,0.081c0.011,0.026,0.022,0.051,0.032,0.077
			c0.174,0.396,0.557,1.22,0.86,1.323c0.014,0.005,0.026,0.005,0.039,0.009c0.269,0.146,0.593,0.157,0.891-0.014
			c0.046-0.025,0.081-0.064,0.123-0.095c0.024-0.016,0.061-0.025,0.082-0.044c0.023-0.019,0.085-0.077,0.167-0.149
			c0.099-0.093,0.2-0.183,0.3-0.275c0.41-0.381,1.036-0.959,1.694-1.563c0.068-0.06,0.134-0.125,0.2-0.186
			c0.511-0.473,1.016-0.942,1.443-1.332c0.351-0.327,0.693-0.647,1.046-0.972C65.023,29.723,65.121,29.674,65.069,29.585z"/>
	</g>
</g>
</svg>
