<?xml version="1.0" encoding="utf-8"?>
<!-- Generator: Adobe Illustrator 16.0.0, SVG Export Plug-In . SVG Version: 6.00 Build 0)  -->
<!DOCTYPE svg PUBLIC "-//W3C//DTD SVG 1.1//EN" "http://www.w3.org/Graphics/SVG/1.1/DTD/svg11.dtd">
<svg version="1.1" id="Layer_1" xmlns="http://www.w3.org/2000/svg" xmlns:xlink="http://www.w3.org/1999/xlink" x="0px" y="0px"
	 width="68.354px" height="51.926px" viewBox="0 0 68.354 51.926" enable-background="new 0 0 68.354 51.926" xml:space="preserve">
<rect x="0" y="-0.001" fill="none" width="68.354" height="51.928"/>
<rect x="16.794" y="22.188" opacity="0.6" fill="#FFFFFF" width="15.657" height="3.311"/>
<rect x="16.794" y="28.104" opacity="0.6" fill="#FFFFFF" width="11.652" height="3.307"/>
<rect x="16.794" y="34.017" opacity="0.6" fill="#FFFFFF" width="11.652" height="3.303"/>
<path opacity="0.6" fill="#FFFFFF" d="M48.976,36.602c-0.192,0.004-0.342-0.084-0.481-0.209c-1.062-0.953-2.123-1.903-3.187-2.854
	c-0.109-0.104-0.222-0.158-0.377-0.158c-0.61-0.018-1.174-0.441-1.361-0.994c-0.213-0.635-0.045-1.291,0.455-1.692
	c0.156-0.116,0.207-0.242,0.207-0.429c0.058-1.308,0.131-2.618,0.198-3.929c0.023-0.367,0.269-0.618,0.594-0.612
	c0.313,0.004,0.542,0.264,0.563,0.637c0.059,1.316,0.12,2.625,0.166,3.952c0.013,0.14,0.051,0.234,0.163,0.316
	c0.377,0.276,0.586,0.648,0.62,1.112c0.004,0.109,0.053,0.196,0.124,0.272c0.973,1.099,1.938,2.209,2.91,3.309
	c0.202,0.234,0.276,0.485,0.144,0.77C49.562,36.393,49.323,36.587,48.976,36.602z"/>
<path opacity="0.6" fill="#FFFFFF" d="M44.993,43.025c-6.163-0.02-11.158-5.019-11.154-11.182
	c0.017-6.172,5.035-11.182,11.201-11.154c6.168,0.019,11.158,5.037,11.146,11.186C56.158,38.043,51.149,43.035,44.993,43.025z
	 M53.696,30.966c-0.013-0.578-0.393-1.952-0.677-2.603c-0.669-1.482-1.654-2.705-2.978-3.642c-1.138-0.814-2.412-1.3-3.786-1.515
	c-0.147-0.027-0.314-0.084-0.407-0.029c-0.124,0.076-0.04,0.266-0.053,0.411c-0.024,0.361-0.271,0.68-0.571,0.751
	c-0.367,0.091-0.724-0.065-0.895-0.395c-0.098-0.198-0.098-0.418-0.096-0.625c0.009-0.125-0.025-0.169-0.158-0.159
	c-0.905,0.116-1.776,0.351-2.62,0.726c-1.483,0.667-2.683,1.673-3.617,3c-0.782,1.136-1.262,2.385-1.467,3.741
	c-0.021,0.133-0.086,0.311-0.027,0.407c0.062,0.107,0.256,0.025,0.391,0.027c0.374,0.03,0.7,0.283,0.772,0.591
	c0.078,0.372-0.082,0.718-0.414,0.889c-0.191,0.1-0.413,0.1-0.629,0.093c-0.109-0.009-0.151,0.021-0.139,0.144
	c0.109,0.893,0.338,1.762,0.705,2.585c0.647,1.479,1.646,2.682,2.962,3.619c1.138,0.816,2.412,1.304,3.79,1.519
	c0.133,0.021,0.312,0.087,0.407,0.025c0.114-0.071,0.027-0.264,0.044-0.402c0.034-0.363,0.267-0.688,0.574-0.758
	c0.369-0.085,0.72,0.069,0.895,0.396c0.105,0.196,0.105,0.416,0.089,0.627c-0.004,0.124,0.023,0.169,0.165,0.151
	c0.905-0.111,1.778-0.344,2.618-0.721c1.483-0.661,2.685-1.672,3.621-3.005c0.778-1.123,1.26-2.376,1.469-3.737
	c0.023-0.138,0.087-0.314,0.023-0.403c-0.063-0.107-0.256-0.023-0.389-0.036c-0.034-0.004-0.059-0.004-0.093-0.013
	c-0.435-0.073-0.709-0.39-0.7-0.797c0.004-0.382,0.282-0.669,0.704-0.741c0.127-0.019,0.252-0.019,0.374-0.017
	C53.675,31.075,53.726,31.052,53.696,30.966z"/>
<path opacity="0.6" fill="#FFFFFF" d="M34.574,39.83H15.587c-0.956,0-1.737-0.783-1.737-1.74V18.714
	c0-0.958,0.781-1.739,1.737-1.739h3.102h1.897v-3.75c0-0.673,0.55-1.222,1.224-1.222c0.675,0,1.226,0.549,1.226,1.222v3.75h1.897
	h7.031h1.897v-3.75c0-0.673,0.551-1.222,1.229-1.222c0.671,0,1.22,0.549,1.22,1.222v3.75h1.898h3.1c0.963,0,1.741,0.781,1.741,1.739
	v0.27h1.895v-0.27c0-2.002-1.629-3.632-3.636-3.632h-3.1v-1.857c0-1.722-1.4-3.121-3.118-3.121c-1.727,0-3.125,1.399-3.125,3.121
	v1.857h-7.031v-1.857c0-1.722-1.403-3.121-3.123-3.121s-3.121,1.399-3.121,3.121v1.857h-3.102c-2.005,0-3.634,1.627-3.634,3.632
	V38.09c0,2.004,1.629,3.638,3.634,3.638h18.987V39.83z"/>
</svg>
