<?xml version="1.0" encoding="utf-8"?>
<!-- Generator: Adobe Illustrator 16.0.0, SVG Export Plug-In . SVG Version: 6.00 Build 0)  -->
<!DOCTYPE svg PUBLIC "-//W3C//DTD SVG 1.1//EN" "http://www.w3.org/Graphics/SVG/1.1/DTD/svg11.dtd">
<svg version="1.1" id="Layer_1" xmlns="http://www.w3.org/2000/svg" xmlns:xlink="http://www.w3.org/1999/xlink" x="0px" y="0px"
	 width="68.354px" height="51.926px" viewBox="0 0 68.354 51.926" enable-background="new 0 0 68.354 51.926" xml:space="preserve">
<rect x="0" y="-0.001" fill="none" width="68.354" height="51.928"/>
<path opacity="0.6" fill="#FFFFFF" d="M41.227,7.908H27.115c-1.385,0-2.529,1.156-2.529,2.519v31.062
	c0,1.375,1.157,2.529,2.529,2.529h14.123c1.374,0,2.531-1.135,2.531-2.529V10.439C43.757,9.053,42.623,7.908,41.227,7.908z
	 M31.58,9.932h5.193c0.189,0,0.348,0.153,0.34,0.342c0,0.191-0.15,0.34-0.34,0.34H31.58c-0.182,0-0.34-0.148-0.34-0.34
	C31.24,10.083,31.391,9.932,31.58,9.932z M34.177,42.482c-0.894,0-1.614-0.719-1.614-1.614c0-0.894,0.721-1.614,1.614-1.614
	c0.896,0,1.615,0.721,1.614,1.614C35.791,41.764,35.073,42.482,34.177,42.482z M42.696,37.659H25.658V12.762h17.037V37.659z"/>
<path opacity="0.6" fill="#FFFFFF" d="M34.177,33.359c-0.114,0-0.217-0.061-0.271-0.158c-1.701-3.038-3.568-6.483-4.183-8.932
	c-0.006-0.023-0.009-0.048-0.013-0.07c-0.08-0.345-0.123-0.699-0.123-1.043c0-2.53,2.06-4.59,4.591-4.59
	c2.531,0,4.591,2.06,4.591,4.59c0,0.343-0.042,0.698-0.126,1.055c0,0.008-0.004,0.029-0.009,0.053
	c-0.616,2.452-2.483,5.898-4.185,8.938C34.395,33.299,34.291,33.359,34.177,33.359z M34.177,19.188
	c-2.188,0-3.967,1.781-3.967,3.968c0,0.296,0.036,0.604,0.109,0.908c0.001,0.012,0.008,0.046,0.01,0.055
	c0.562,2.246,2.243,5.413,3.849,8.291c1.604-2.878,3.287-6.048,3.852-8.292c0-0.008,0.004-0.042,0.006-0.05
	c0.074-0.309,0.111-0.616,0.111-0.909C38.146,20.97,36.365,19.188,34.177,19.188z M34.177,25.537c-1.312,0-2.378-1.068-2.378-2.381
	c0-1.311,1.067-2.378,2.378-2.378c1.312,0,2.379,1.067,2.379,2.378C36.556,24.469,35.49,25.537,34.177,25.537z M34.177,21.4
	c-0.968,0-1.757,0.787-1.757,1.756c0,0.97,0.789,1.758,1.757,1.758s1.757-0.788,1.757-1.758C35.934,22.188,35.145,21.4,34.177,21.4z
	"/>
</svg>
