<?xml version="1.0" encoding="utf-8"?>
<!-- Generator: Adobe Illustrator 16.0.0, SVG Export Plug-In . SVG Version: 6.00 Build 0)  -->
<!DOCTYPE svg PUBLIC "-//W3C//DTD SVG 1.1//EN" "http://www.w3.org/Graphics/SVG/1.1/DTD/svg11.dtd">
<svg version="1.1" id="Layer_1" xmlns="http://www.w3.org/2000/svg" xmlns:xlink="http://www.w3.org/1999/xlink" x="0px" y="0px"
	 width="68.354px" height="51.926px" viewBox="0 0 68.354 51.926" enable-background="new 0 0 68.354 51.926" xml:space="preserve">
<rect x="0" y="-0.001" fill="none" width="68.354" height="51.928"/>
<g opacity="0.6">
	<path fill="#FFFFFF" d="M39.796,19.703H28.548c-1.104,0-2.017,0.921-2.017,2.007v24.76c0,1.097,0.922,2.017,2.017,2.017h11.258
		c1.095,0,2.018-0.905,2.018-2.017V21.72C41.814,20.615,40.909,19.703,39.796,19.703z M32.107,21.315h4.14
		c0.15,0,0.277,0.122,0.27,0.273c0,0.152-0.119,0.271-0.27,0.271h-4.14c-0.145,0-0.271-0.118-0.271-0.271
		S31.956,21.315,32.107,21.315z M34.177,47.263c-0.712,0-1.287-0.573-1.287-1.286s0.574-1.287,1.287-1.287
		c0.713,0,1.287,0.574,1.287,1.287S34.89,47.263,34.177,47.263z M40.967,43.418h-13.58V23.571h13.58V43.418z"/>
	<path fill="#FFFFFF" d="M33.113,3.479c4.432-0.319,8.967,1.339,12.13,4.462c0.414,0.427,0.36,1.173-0.077,1.564
		c-0.401,0.474-1.206,0.482-1.62,0.021C40.84,6.92,37.019,5.512,33.268,5.792c-3.116,0.2-6.136,1.542-8.397,3.693
		c-0.201,0.206-0.458,0.375-0.754,0.389c-0.741,0.087-1.426-0.688-1.266-1.412c0.045-0.26,0.212-0.477,0.403-0.65
		C25.902,5.277,29.456,3.72,33.113,3.479z"/>
	<path fill="#FFFFFF" d="M33.001,7.825c3.396-0.369,6.922,0.882,9.325,3.309c0.375,0.429,0.328,1.13-0.089,1.516
		c-0.38,0.465-1.147,0.518-1.578,0.096c-1.539-1.517-3.619-2.48-5.775-2.638c-2.62-0.217-5.295,0.777-7.16,2.622
		c-0.43,0.455-1.231,0.403-1.618-0.081c-0.417-0.394-0.452-1.114-0.051-1.531C27.903,9.268,30.402,8.092,33.001,7.825z"/>
	<path fill="#FFFFFF" d="M33.507,12.113c2.143-0.212,4.358,0.608,5.849,2.16c0.408,0.425,0.361,1.157-0.069,1.55
		c-0.39,0.471-1.173,0.503-1.598,0.061c-0.84-0.863-2.004-1.408-3.209-1.474c-1.368-0.098-2.752,0.443-3.724,1.404
		c-0.239,0.269-0.594,0.433-0.957,0.391c-0.843-0.059-1.429-1.185-0.848-1.861C30.124,13.072,31.79,12.284,33.507,12.113z"/>
</g>
</svg>
