<?xml version="1.0" encoding="utf-8"?>
<!-- Generator: Adobe Illustrator 16.0.0, SVG Export Plug-In . SVG Version: 6.00 Build 0)  -->
<!DOCTYPE svg PUBLIC "-//W3C//DTD SVG 1.1//EN" "http://www.w3.org/Graphics/SVG/1.1/DTD/svg11.dtd">
<svg version="1.1" id="Layer_1" xmlns="http://www.w3.org/2000/svg" xmlns:xlink="http://www.w3.org/1999/xlink" x="0px" y="0px"
	 width="68.354px" height="51.926px" viewBox="0 0 68.354 51.926" enable-background="new 0 0 68.354 51.926" xml:space="preserve">
<rect x="0" y="-0.001" fill="none" width="68.354" height="51.928"/>
<g opacity="0.6">
	<g>
		<ellipse fill="#FFFFFF" cx="21.83" cy="28.775" rx="1.016" ry="0.518"/>
		<path fill="#FFFFFF" d="M8.732,32.066c1.589-0.057,4.116-0.109,4.99-0.109c-0.022,1.6,2.76,2.107,3.606,2.107
			c0.842,0,1.596,0,2.547,0c0.947,0,1.576-0.479,1.576-1.645s-0.239-2.166-0.239-2.166c-0.22-0.496-0.744-0.559-1.951-0.559
			c-1.201,0-3.109,0-3.747,0c-1.555,0-1.731,0.506-1.839,1.033c-0.113-0.217-0.314-0.25-0.589-0.318
			c-0.273-0.076-3.482-0.934-4.222-1.152c-0.743-0.221-2.156-0.684-2.372,0.064c-0.214,0.744-0.557,2.061,0.557,2.061
			C7.007,32.043,7.475,32.111,8.732,32.066z M14.214,30.6c0.211-0.342,0.559-0.568,1.199-0.562c0.855,0.016,3.801,0.088,4.32,0.133
			c0.522,0.047,0.958,0.215,1.019,0.986c0.063,0.77,0.232,1.758-0.327,2.121c-0.552,0.361-2.614,0.279-3.426,0.193
			c-0.813-0.09-2.66-0.473-2.785-1.199C14.085,31.543,13.997,30.943,14.214,30.6z"/>
		<path fill="#FFFFFF" d="M34.798,29.26c-0.741,0.219-3.951,1.074-4.223,1.152c-0.275,0.066-0.476,0.104-0.592,0.322
			c-0.106-0.533-0.282-1.039-1.836-1.039c-0.636,0-2.547,0-3.747,0c-1.207,0-1.729,0.062-1.949,0.561c0,0-0.244,0.998-0.244,2.168
			c0,1.166,0.629,1.641,1.579,1.641s1.706,0,2.547,0c0.846,0,3.628-0.508,3.605-2.105c0.876,0,3.402,0.051,4.992,0.107
			c1.257,0.045,1.725-0.023,1.682-0.684c1.109,0,0.771-1.316,0.56-2.061C36.953,28.574,35.539,29.037,34.798,29.26z M29.448,32.271
			c-0.13,0.727-1.972,1.111-2.784,1.199c-0.815,0.088-2.873,0.17-3.428-0.193c-0.558-0.363-0.39-1.35-0.328-2.119
			c0.064-0.773,0.498-0.941,1.021-0.988c0.519-0.045,3.463-0.117,4.323-0.133c0.638-0.006,0.985,0.221,1.196,0.562
			C29.665,30.943,29.577,31.543,29.448,32.271z"/>
		<path fill="#FFFFFF" d="M35.333,34.469c-0.52,0.02-1.609,0.148-3.453,0.32c-1.844,0.172-3.166,0.363-3.473,0.945l-6.566,0.029
			l-6.572-0.029c-0.303-0.582-1.625-0.773-3.468-0.945c-1.844-0.172-2.934-0.301-3.457-0.32c-0.519-0.023-1.165-0.158-1.125,0.855
			c0.039,1.018,0.124,1.705,1.258,1.838c1.137,0.133,3.159,0.25,4.364,0.34c1.205,0.092,2.872,0.303,2.735-0.223
			c1.164-0.049,0.473,0.393,1.381,0.416c0.749,0.021,3.839,0.008,4.884,0.002c1.047,0.006,4.135,0.02,4.885-0.002
			c0.908-0.023,0.215-0.465,1.381-0.416c-0.136,0.525,1.53,0.314,2.732,0.223c1.205-0.09,3.227-0.207,4.364-0.34
			c1.135-0.133,1.22-0.82,1.259-1.838C36.502,34.311,35.855,34.445,35.333,34.469z"/>
		<path fill="#FFFFFF" d="M38.934,28.648c-0.698-1.131-2.361-2.247-3.395-2.868h0.427c0.372,0,1.503,0,1.503-1.028
			c0-0.784-0.885-1.015-1.353-1.029c-0.005,0-0.502,0-0.925,0c-0.271,0.003-0.833,0.009-0.84,0.586
			c-0.921-1.766-2.569-3.977-3.854-4.832c-0.437-0.289-0.956-0.306-1.013-0.307c-3.262-0.242-7.583-0.244-7.626-0.244H21.83h-0.028
			c-0.043,0-4.364,0.002-7.626,0.244c-0.056,0.001-0.576,0.018-1.013,0.307c-1.282,0.855-2.932,3.066-3.852,4.832
			c-0.009-0.577-0.571-0.583-0.842-0.586c-0.421,0-0.92,0-0.926,0c-0.465,0.015-1.35,0.244-1.35,1.029
			c0,1.028,1.128,1.028,1.5,1.028h0.428c-1.032,0.621-2.7,1.737-3.394,2.868c-0.608,0.99-0.827,4.914-0.811,6.025
			C3.927,35.482,4,36.73,4.07,37.941l0.106,2.008c0.042,1.076,0.538,1.578,1.561,1.578h4.054c1.75,0,1.765-1.631,1.766-1.662
			c0.046,0,0.093-0.002,0.139-0.002c1.042,0,1.705,0.133,2.199,0.234c0.074,0.016,0.139,0.027,0.202,0.041
			c0.607,0.113,3.632,0.232,3.667,0.234l4.019,0.023h0.047h0.05l4.019-0.023c0.036-0.002,3.06-0.121,3.667-0.234
			c0.062-0.014,0.131-0.025,0.199-0.041c0.498-0.102,1.161-0.234,2.202-0.234c0.045,0,0.09,0.002,0.136,0.002
			c0.003,0.031,0.022,1.662,1.768,1.662h4.054c1.024,0,1.52-0.502,1.562-1.578l0.104-2.008c0.071-1.211,0.142-2.459,0.154-3.268
			C39.76,33.562,39.542,29.641,38.934,28.648z M13.579,20.104c0.248-0.164,0.584-0.179,0.63-0.179
			c3.258-0.241,7.549-0.244,7.592-0.244h0.028h0.028c0.043,0,4.339,0.003,7.595,0.244c0.042,0,0.379,0.016,0.626,0.179
			c1.257,0.837,2.917,3.131,3.75,4.842H21.83H9.832C10.666,23.234,12.323,20.941,13.579,20.104z M38.989,34.662
			c-0.007,0.797-0.081,2.037-0.148,3.234l-0.027,0.463c-0.03,0.537-0.059,0.541-0.307,0.574c-0.519,0.062-3.45,0.137-6.023,0.184
			c-0.168-0.004-0.344-0.008-0.514-0.008c-1.118,0-1.824,0.143-2.345,0.244c-0.072,0.018-0.138,0.031-0.199,0.043
			c-0.395,0.074-2.335,0.174-3.543,0.221l-4.049,0.023l-4.053-0.023c-1.205-0.047-3.148-0.146-3.542-0.221
			c-0.062-0.012-0.127-0.025-0.203-0.043c-0.515-0.102-1.224-0.244-2.339-0.244c-0.169,0-0.348,0.004-0.517,0.008
			c-2.573-0.047-5.504-0.121-6.022-0.184c-0.25-0.033-0.274-0.037-0.307-0.574l-0.026-0.463c-0.068-1.197-0.142-2.438-0.151-3.234
			c-0.021-1.48,0.287-4.945,0.7-5.617c0.856-1.395,3.596-2.888,3.924-3.062h12.537h12.533c0.332,0.174,3.063,1.667,3.924,3.062
			C38.703,29.717,39.011,33.18,38.989,34.662z"/>
		<path fill="#FFFFFF" d="M54.777,41.527c-0.239,0-0.456-0.129-0.571-0.336c-3.579-6.391-7.508-13.643-8.802-18.793
			c-0.013-0.049-0.019-0.099-0.027-0.148c-0.167-0.727-0.259-1.471-0.259-2.193c0-5.325,4.334-9.66,9.659-9.66
			c5.326,0,9.66,4.334,9.66,9.66c0,0.721-0.087,1.466-0.266,2.217c0,0.019-0.008,0.062-0.018,0.112
			c-1.296,5.16-5.227,12.41-8.805,18.805C55.235,41.398,55.016,41.527,54.777,41.527z M54.777,11.708
			c-4.604,0-8.348,3.747-8.348,8.35c0,0.622,0.076,1.269,0.229,1.911c0.003,0.023,0.018,0.096,0.021,0.115
			c1.184,4.725,4.72,11.387,8.099,17.447c3.373-6.061,6.916-12.729,8.104-17.452c0.002-0.015,0.011-0.089,0.014-0.104
			c0.156-0.65,0.233-1.297,0.233-1.914C63.127,15.455,59.382,11.708,54.777,11.708z M54.777,25.066
			c-2.761,0-5.005-2.247-5.005-5.008c0-2.76,2.245-5.005,5.005-5.005c2.762,0,5.005,2.245,5.005,5.005
			C59.781,22.819,57.538,25.066,54.777,25.066z M54.777,16.361c-2.036,0-3.696,1.657-3.696,3.696s1.66,3.698,3.696,3.698
			c2.037,0,3.697-1.658,3.697-3.698S56.814,16.361,54.777,16.361z"/>
	</g>
</g>
</svg>
