<?xml version="1.0" encoding="utf-8"?>
<!-- Generator: Adobe Illustrator 16.0.0, SVG Export Plug-In . SVG Version: 6.00 Build 0)  -->
<!DOCTYPE svg PUBLIC "-//W3C//DTD SVG 1.1//EN" "http://www.w3.org/Graphics/SVG/1.1/DTD/svg11.dtd">
<svg version="1.1" id="Layer_1" xmlns="http://www.w3.org/2000/svg" xmlns:xlink="http://www.w3.org/1999/xlink" x="0px" y="0px"
	 width="68.354px" height="51.926px" viewBox="0 0 68.354 51.926" enable-background="new 0 0 68.354 51.926" xml:space="preserve">
<rect x="0" y="-0.001" fill="none" width="68.354" height="51.928"/>
<g opacity="0.6">
	<rect x="25.873" y="6.566" fill="#FFFFFF" width="16.609" height="4.916"/>
	<path fill="#FFFFFF" d="M47.581,8.301h-3.398v1.668h3.398c1.105,0,2.002,0.894,2.002,2.004v29.714c0,1.105-0.902,2.002-2.002,2.002
		H20.773c-1.105,0-2.002-0.896-2.002-2.002V11.974c0-1.11,0.896-2.004,2.002-2.004h3.393V8.301h-3.393
		c-2.022,0-3.673,1.646-3.673,3.67v29.716c0,2.021,1.651,3.672,3.673,3.672h26.808c2.021,0,3.673-1.65,3.673-3.672V11.974
		C51.254,9.946,49.603,8.301,47.581,8.301z"/>
	<g>
		<ellipse fill="#FFFFFF" cx="34.201" cy="27.63" rx="0.558" ry="0.285"/>
		<path fill="#FFFFFF" d="M26.992,29.441c0.875-0.031,2.266-0.059,2.747-0.059c-0.012,0.879,1.519,1.158,1.983,1.158s0.88,0,1.402,0
			c0.522,0,0.869-0.262,0.869-0.904s-0.133-1.191-0.133-1.191c-0.122-0.272-0.41-0.309-1.072-0.309c-0.662,0-1.712,0-2.062,0
			c-0.856,0-0.953,0.279-1.012,0.57c-0.063-0.12-0.174-0.138-0.325-0.176c-0.151-0.043-1.917-0.514-2.324-0.635
			c-0.409-0.121-1.186-0.375-1.306,0.034c-0.118,0.41-0.305,1.134,0.307,1.134C26.043,29.428,26.302,29.467,26.992,29.441z
			 M30.009,28.636c0.118-0.188,0.308-0.315,0.66-0.31c0.471,0.006,2.092,0.049,2.378,0.072c0.287,0.025,0.526,0.119,0.56,0.543
			c0.035,0.424,0.128,0.967-0.179,1.166c-0.306,0.199-1.438,0.156-1.886,0.107c-0.449-0.049-1.462-0.26-1.534-0.66
			C29.938,29.154,29.89,28.824,30.009,28.636z"/>
		<path fill="#FFFFFF" d="M41.335,27.896c-0.408,0.121-2.172,0.592-2.323,0.635c-0.151,0.038-0.263,0.056-0.325,0.176
			c-0.058-0.291-0.156-0.568-1.012-0.568c-0.35,0-1.4,0-2.062,0c-0.662,0-0.951,0.034-1.072,0.307c0,0-0.133,0.549-0.133,1.191
			s0.346,0.904,0.868,0.904c0.523,0,0.939,0,1.402,0c0.465,0,1.996-0.279,1.983-1.158c0.481,0,1.872,0.027,2.747,0.059
			c0.691,0.025,0.949-0.014,0.926-0.375c0.61,0,0.424-0.725,0.306-1.136C42.522,27.521,41.743,27.775,41.335,27.896z M38.392,29.555
			c-0.07,0.4-1.084,0.611-1.531,0.66c-0.449,0.049-1.581,0.092-1.887-0.107c-0.307-0.199-0.213-0.742-0.18-1.166
			c0.035-0.424,0.273-0.518,0.561-0.543c0.286-0.023,1.907-0.066,2.379-0.072c0.352-0.006,0.542,0.119,0.658,0.31
			C38.511,28.824,38.464,29.154,38.392,29.555z"/>
		<path fill="#FFFFFF" d="M41.63,30.764c-0.285,0.012-0.885,0.082-1.9,0.176c-1.015,0.096-1.742,0.201-1.909,0.52l-3.614,0.018
			l-3.615-0.018c-0.168-0.318-0.895-0.424-1.91-0.52c-1.015-0.094-1.614-0.164-1.901-0.176c-0.287-0.014-0.642-0.086-0.62,0.471
			c0.022,0.559,0.068,0.938,0.693,1.01c0.624,0.074,1.737,0.139,2.4,0.189c0.662,0.049,1.579,0.166,1.504-0.123
			c0.64-0.027,0.259,0.215,0.759,0.229c0.413,0.012,2.113,0.004,2.688,0.002c0.575,0.002,2.274,0.01,2.687-0.002
			c0.501-0.014,0.119-0.256,0.76-0.229c-0.074,0.289,0.842,0.172,1.505,0.123c0.662-0.051,1.775-0.115,2.4-0.189
			c0.624-0.072,0.671-0.451,0.693-1.01C42.273,30.678,41.918,30.75,41.63,30.764z"/>
		<path fill="#FFFFFF" d="M43.611,27.561c-0.384-0.622-1.299-1.235-1.867-1.577h0.236c0.203,0,0.826,0,0.826-0.566
			c0-0.431-0.486-0.559-0.744-0.565c-0.003,0-0.277-0.001-0.51,0c-0.148,0.002-0.457,0.005-0.461,0.323
			c-0.508-0.971-1.414-2.189-2.121-2.659c-0.24-0.16-0.526-0.168-0.559-0.169c-1.794-0.133-4.171-0.134-4.195-0.134h-0.015h-0.015
			c-0.024,0-2.402,0.001-4.196,0.134c-0.032,0.001-0.317,0.009-0.558,0.169c-0.708,0.47-1.614,1.688-2.121,2.659
			c-0.004-0.318-0.313-0.32-0.462-0.323c-0.233-0.001-0.506,0-0.509,0c-0.257,0.007-0.743,0.134-0.743,0.565
			c0,0.566,0.622,0.566,0.826,0.566h0.235c-0.568,0.342-1.483,0.955-1.866,1.577c-0.336,0.546-0.455,2.705-0.447,3.316
			c0.005,0.445,0.045,1.131,0.084,1.797l0.059,1.105c0.022,0.592,0.294,0.869,0.859,0.869h2.23c0.961,0,0.971-0.898,0.972-0.916
			c0.025,0,0.05,0,0.075,0c0.574,0,0.939,0.072,1.212,0.129c0.039,0.006,0.075,0.016,0.11,0.021
			c0.333,0.062,1.998,0.129,2.018,0.129l2.21,0.014h0.028h0.027l2.21-0.014c0.019,0,1.684-0.066,2.018-0.129
			c0.035-0.006,0.072-0.016,0.111-0.021c0.271-0.057,0.637-0.129,1.211-0.129c0.023,0,0.049,0,0.074,0
			c0.002,0.018,0.012,0.916,0.973,0.916h2.23c0.563,0,0.836-0.277,0.858-0.869l0.06-1.105c0.038-0.666,0.078-1.352,0.084-1.797
			C44.066,30.266,43.947,28.106,43.611,27.561z M29.661,22.86c0.136-0.09,0.322-0.098,0.346-0.099
			c1.792-0.133,4.154-0.134,4.179-0.134h0.015h0.015c0.024,0,2.387,0.002,4.178,0.134c0.024,0.001,0.21,0.009,0.346,0.099
			c0.692,0.46,1.604,1.723,2.063,2.665h-6.602h-6.603C28.057,24.583,28.97,23.321,29.661,22.86z M43.642,30.871
			c-0.005,0.438-0.045,1.119-0.083,1.779l-0.015,0.254c-0.018,0.295-0.031,0.297-0.169,0.314c-0.285,0.035-1.898,0.076-3.313,0.102
			c-0.094-0.002-0.19-0.004-0.283-0.004c-0.615,0-1.004,0.08-1.289,0.137c-0.04,0.008-0.077,0.016-0.111,0.021
			c-0.217,0.043-1.285,0.096-1.949,0.123l-2.228,0.012l-2.229-0.012c-0.665-0.027-1.732-0.08-1.95-0.123
			c-0.035-0.006-0.071-0.014-0.111-0.021c-0.285-0.057-0.673-0.137-1.289-0.137c-0.093,0-0.19,0.002-0.283,0.004
			c-1.415-0.025-3.029-0.066-3.314-0.102c-0.137-0.018-0.151-0.02-0.169-0.314l-0.015-0.254c-0.039-0.66-0.078-1.342-0.083-1.779
			c-0.011-0.814,0.157-2.722,0.385-3.092c0.472-0.766,1.978-1.588,2.159-1.685h6.898h6.897c0.182,0.097,1.687,0.919,2.159,1.685
			C43.486,28.149,43.653,30.057,43.642,30.871z"/>
	</g>
</g>
</svg>
