<?xml version="1.0" encoding="utf-8"?>
<!-- Generator: Adobe Illustrator 16.0.0, SVG Export Plug-In . SVG Version: 6.00 Build 0)  -->
<!DOCTYPE svg PUBLIC "-//W3C//DTD SVG 1.1//EN" "http://www.w3.org/Graphics/SVG/1.1/DTD/svg11.dtd">
<svg version="1.1" id="Layer_1" xmlns="http://www.w3.org/2000/svg" xmlns:xlink="http://www.w3.org/1999/xlink" x="0px" y="0px"
	 width="110.5px" height="115.779px" viewBox="0 0 110.5 115.779" enable-background="new 0 0 110.5 115.779" xml:space="preserve">
<pattern  x="-242.25" y="478.389" width="28.8" height="28.801" patternUnits="userSpaceOnUse" id="SVGID_37_" viewBox="5.76 -34.561 28.8 28.801" overflow="visible">
	<g>
		<polygon fill="none" points="5.76,-5.76 34.56,-5.76 34.56,-34.561 5.76,-34.561 		"/>
		<g>
			<polygon fill="none" points="5.76,-5.76 34.56,-5.76 34.56,-34.561 5.76,-34.561 			"/>
			<g>
				<path fill="#1D1D1B" d="M12.96-33.119c3.181,0,5.76,2.577,5.76,5.759c0,3.183-2.579,5.76-5.76,5.76
					c-3.182,0-5.76-2.577-5.76-5.76C7.2-30.542,9.778-33.119,12.96-33.119z"/>
				<path fill="#1D1D1B" d="M27.36-33.119c3.181,0,5.76,2.577,5.76,5.759c0,3.183-2.579,5.76-5.76,5.76
					c-3.183,0-5.761-2.577-5.761-5.76C21.599-30.542,24.178-33.119,27.36-33.119z"/>
				<path fill="#1D1D1B" d="M12.96-18.719c3.181,0,5.76,2.578,5.76,5.76S16.141-7.2,12.96-7.2c-3.182,0-5.76-2.577-5.76-5.759
					S9.778-18.719,12.96-18.719z"/>
				<path fill="#1D1D1B" d="M27.36-18.719c3.181,0,5.76,2.578,5.76,5.76S30.541-7.2,27.36-7.2c-3.183,0-5.761-2.577-5.761-5.759
					S24.178-18.719,27.36-18.719z"/>
				<path fill="#1D1D1B" d="M34.56-40.318c3.182,0,5.761,2.575,5.761,5.759c0,3.181-2.579,5.759-5.761,5.759S28.8-31.38,28.8-34.56
					C28.8-37.743,31.378-40.318,34.56-40.318z"/>
				<path fill="#1D1D1B" d="M20.16-40.318c3.181,0,5.76,2.575,5.76,5.759c0,3.181-2.579,5.759-5.76,5.759
					c-3.183,0-5.76-2.578-5.76-5.759C14.4-37.743,16.978-40.318,20.16-40.318z"/>
				<path fill="#1D1D1B" d="M34.56-25.921c3.182,0,5.761,2.578,5.761,5.761c0,3.182-2.579,5.759-5.761,5.759s-5.76-2.577-5.76-5.759
					C28.8-23.343,31.378-25.921,34.56-25.921z"/>
				<path fill="#1D1D1B" d="M20.16-25.921c3.181,0,5.76,2.578,5.76,5.761c0,3.182-2.579,5.759-5.76,5.759
					c-3.183,0-5.76-2.577-5.76-5.759C14.4-23.343,16.978-25.921,20.16-25.921z"/>
			</g>
			<g>
				<path fill="#1D1D1B" d="M5.76-40.318c3.182,0,5.761,2.575,5.761,5.759c0,3.181-2.579,5.759-5.761,5.759
					C2.578-28.801,0-31.38,0-34.56C0-37.743,2.578-40.318,5.76-40.318z"/>
				<path fill="#1D1D1B" d="M5.76-25.921c3.182,0,5.761,2.578,5.761,5.761c0,3.182-2.579,5.759-5.761,5.759
					C2.578-14.401,0-16.979,0-20.16C0-23.343,2.578-25.921,5.76-25.921z"/>
			</g>
			<g>
				<path fill="#1D1D1B" d="M34.56-11.52c3.182,0,5.761,2.578,5.761,5.76S37.742,0,34.56,0S28.8-2.578,28.8-5.76
					S31.378-11.52,34.56-11.52z"/>
				<path fill="#1D1D1B" d="M20.16-11.52c3.181,0,5.76,2.578,5.76,5.76S23.341,0,20.16,0c-3.183,0-5.76-2.578-5.76-5.76
					S16.978-11.52,20.16-11.52z"/>
			</g>
			<g>
				<path fill="#1D1D1B" d="M5.76-11.52c3.182,0,5.761,2.578,5.761,5.76S8.942,0,5.76,0C2.578,0,0-2.578,0-5.76
					S2.578-11.52,5.76-11.52z"/>
			</g>
		</g>
	</g>
</pattern>
<g>
	<g>
		<g>
			<line fill="none" x1="90.896" y1="55.997" x2="88.785" y2="51.932"/>
			
				<linearGradient id="SVGID_1_" gradientUnits="userSpaceOnUse" x1="-273.8936" y1="-972.2092" x2="-272.9634" y2="-972.2092" gradientTransform="matrix(0.7943 -0.6075 0.6075 0.7943 897.6521 660.0748)">
				<stop  offset="0" style="stop-color:#FFFFFF"/>
				<stop  offset="1" style="stop-color:#C8C8C8"/>
			</linearGradient>
			<polygon fill="url(#SVGID_1_)" points="90.832,56.029 88.721,51.964 88.846,51.9 90.959,55.964 			"/>
		</g>
		<g>
			<line fill="none" x1="91.455" y1="51.848" x2="89.371" y2="55.627"/>
			
				<linearGradient id="SVGID_2_" gradientUnits="userSpaceOnUse" x1="-274.8384" y1="-972.0417" x2="-270.8291" y2="-972.0417" gradientTransform="matrix(0.7943 -0.6075 0.6075 0.7943 897.6521 660.0748)">
				<stop  offset="0" style="stop-color:#FFFFFF"/>
				<stop  offset="1" style="stop-color:#C8C8C8"/>
			</linearGradient>
			<polygon fill="url(#SVGID_2_)" points="89.432,55.661 89.309,55.593 91.395,51.813 91.518,51.882 			"/>
		</g>
		<g>
			<line fill="none" x1="88.742" y1="56.106" x2="90.168" y2="52.325"/>
			
				<linearGradient id="SVGID_3_" gradientUnits="userSpaceOnUse" x1="-275.6401" y1="-972.2434" x2="-272.1362" y2="-972.2434" gradientTransform="matrix(0.7943 -0.6075 0.6075 0.7943 897.6521 660.0748)">
				<stop  offset="0" style="stop-color:#FFFFFF"/>
				<stop  offset="1" style="stop-color:#C8C8C8"/>
			</linearGradient>
			<polygon fill="url(#SVGID_3_)" points="88.809,56.132 88.676,56.083 90.102,52.3 90.232,52.35 			"/>
		</g>
		<g>
			<line fill="none" x1="82.684" y1="63.547" x2="82.402" y2="68.12"/>
			
				<linearGradient id="SVGID_4_" gradientUnits="userSpaceOnUse" x1="2603.0771" y1="-383.824" x2="2604.0098" y2="-383.824" gradientTransform="matrix(-0.9938 0.1112 -0.1112 -0.9938 2627.2368 -605.1226)">
				<stop  offset="0" style="stop-color:#FFFFFF"/>
				<stop  offset="1" style="stop-color:#C8C8C8"/>
			</linearGradient>
			<polygon fill="url(#SVGID_4_)" points="82.471,68.123 82.33,68.116 82.615,63.544 82.756,63.552 			"/>
		</g>
		<g>
			<line fill="none" x1="80.068" y1="66.815" x2="83.803" y2="64.649"/>
			
				<linearGradient id="SVGID_5_" gradientUnits="userSpaceOnUse" x1="2602.1338" y1="-383.656" x2="2606.1416" y2="-383.656" gradientTransform="matrix(-0.9938 0.1112 -0.1112 -0.9938 2627.2368 -605.1226)">
				<stop  offset="0" style="stop-color:#FFFFFF"/>
				<stop  offset="1" style="stop-color:#C8C8C8"/>
			</linearGradient>
			<polygon fill="url(#SVGID_5_)" points="80.104,66.875 80.033,66.755 83.768,64.591 83.838,64.712 			"/>
		</g>
		<g>
			<line fill="none" x1="84.588" y1="64.563" x2="81.416" y2="67.069"/>
			
				<linearGradient id="SVGID_6_" gradientUnits="userSpaceOnUse" x1="2601.332" y1="-383.8577" x2="2604.8379" y2="-383.8577" gradientTransform="matrix(-0.9938 0.1112 -0.1112 -0.9938 2627.2368 -605.1226)">
				<stop  offset="0" style="stop-color:#FFFFFF"/>
				<stop  offset="1" style="stop-color:#C8C8C8"/>
			</linearGradient>
			<polygon fill="url(#SVGID_6_)" points="81.461,67.126 81.373,67.014 84.545,64.507 84.633,64.618 			"/>
		</g>
		<g>
			<line fill="none" x1="83.803" y1="65.016" x2="82.893" y2="68.611"/>
			
				<linearGradient id="SVGID_7_" gradientUnits="userSpaceOnUse" x1="2511.0283" y1="-744.7859" x2="2511.5625" y2="-744.7859" gradientTransform="matrix(-0.9901 -0.1404 0.1404 -0.9901 2674.3047 -318.02)">
				<stop  offset="0" style="stop-color:#FFFFFF"/>
				<stop  offset="1" style="stop-color:#C8C8C8"/>
			</linearGradient>
			<polygon fill="url(#SVGID_7_)" points="82.959,68.628 82.824,68.594 83.732,64.998 83.869,65.032 			"/>
		</g>
		<g>
			<line fill="none" x1="89.611" y1="55.94" x2="87.686" y2="52.773"/>
			
				<linearGradient id="SVGID_8_" gradientUnits="userSpaceOnUse" x1="-274.8823" y1="-972.6213" x2="-274.3457" y2="-972.6213" gradientTransform="matrix(0.7943 -0.6075 0.6075 0.7943 897.6521 660.0748)">
				<stop  offset="0" style="stop-color:#FFFFFF"/>
				<stop  offset="1" style="stop-color:#C8C8C8"/>
			</linearGradient>
			<polygon fill="url(#SVGID_8_)" points="89.549,55.978 87.625,52.809 87.744,52.735 89.67,55.905 			"/>
		</g>
		<g>
			<line fill="none" x1="13.84" y1="55.11" x2="17.977" y2="57.079"/>
			
				<linearGradient id="SVGID_9_" gradientUnits="userSpaceOnUse" x1="1327.1504" y1="890.8923" x2="1328.0791" y2="890.8923" gradientTransform="matrix(-0.2674 0.9636 -0.9636 -0.2674 1229.3722 -984.9584)">
				<stop  offset="0" style="stop-color:#FFFFFF"/>
				<stop  offset="1" style="stop-color:#C8C8C8"/>
			</linearGradient>
			<polygon fill="url(#SVGID_9_)" points="17.947,57.142 13.81,55.175 13.869,55.048 18.007,57.015 			"/>
		</g>
		<g>
			<line fill="none" x1="16.524" y1="58.133" x2="15.908" y2="53.862"/>
			
				<linearGradient id="SVGID_10_" gradientUnits="userSpaceOnUse" x1="1325.4346" y1="890.6228" x2="1329.4424" y2="890.6228" gradientTransform="matrix(-0.2674 0.9636 -0.9636 -0.2674 1229.3722 -984.9584)">
				<stop  offset="0" style="stop-color:#FFFFFF"/>
				<stop  offset="1" style="stop-color:#C8C8C8"/>
			</linearGradient>
			<polygon fill="url(#SVGID_10_)" points="16.454,58.143 15.839,53.87 15.978,53.851 16.592,58.124 			"/>
		</g>
		<g>
			<line fill="none" x1="16.216" y1="53.76" x2="17.359" y2="57.635"/>
			
				<linearGradient id="SVGID_11_" gradientUnits="userSpaceOnUse" x1="1325.2441" y1="890.1511" x2="1328.749" y2="890.1511" gradientTransform="matrix(-0.2674 0.9636 -0.9636 -0.2674 1229.3722 -984.9584)">
				<stop  offset="0" style="stop-color:#FFFFFF"/>
				<stop  offset="1" style="stop-color:#C8C8C8"/>
			</linearGradient>
			<polygon fill="url(#SVGID_11_)" points="17.291,57.656 16.148,53.777 16.283,53.739 17.427,57.616 			"/>
		</g>
		<g>
			<line fill="none" x1="15.624" y1="54.415" x2="19.07" y2="55.781"/>
			
				<linearGradient id="SVGID_12_" gradientUnits="userSpaceOnUse" x1="1326.002" y1="889.7732" x2="1326.5371" y2="889.7732" gradientTransform="matrix(-0.2674 0.9636 -0.9636 -0.2674 1229.3722 -984.9584)">
				<stop  offset="0" style="stop-color:#FFFFFF"/>
				<stop  offset="1" style="stop-color:#C8C8C8"/>
			</linearGradient>
			<polygon fill="url(#SVGID_12_)" points="19.044,55.847 15.597,54.479 15.65,54.349 19.097,55.716 			"/>
		</g>
		<g>
			<line fill="none" x1="22.422" y1="59.717" x2="24.407" y2="55.586"/>
			
				<linearGradient id="SVGID_13_" gradientUnits="userSpaceOnUse" x1="-60.7603" y1="623.2156" x2="-59.8306" y2="623.2156" gradientTransform="matrix(0.9626 0.271 -0.271 0.9626 250.3383 -525.9175)">
				<stop  offset="0" style="stop-color:#FFFFFF"/>
				<stop  offset="1" style="stop-color:#C8C8C8"/>
			</linearGradient>
			<polygon fill="url(#SVGID_13_)" points="22.486,59.745 22.358,59.684 24.343,55.556 24.469,55.616 			"/>
		</g>
		<g>
			<line fill="none" x1="26.076" y1="57.674" x2="21.802" y2="58.272"/>
			
				<linearGradient id="SVGID_14_" gradientUnits="userSpaceOnUse" x1="-61.7056" y1="623.3845" x2="-57.6968" y2="623.3845" gradientTransform="matrix(0.9626 0.271 -0.271 0.9626 250.3383 -525.9175)">
				<stop  offset="0" style="stop-color:#FFFFFF"/>
				<stop  offset="1" style="stop-color:#C8C8C8"/>
			</linearGradient>
			<polygon fill="url(#SVGID_14_)" points="21.811,58.343 21.792,58.202 26.067,57.605 26.087,57.742 			"/>
		</g>
		<g>
			<line fill="none" x1="21.041" y1="58.058" x2="24.922" y2="56.93"/>
			
				<linearGradient id="SVGID_15_" gradientUnits="userSpaceOnUse" x1="-62.5063" y1="623.1814" x2="-59.0015" y2="623.1814" gradientTransform="matrix(0.9626 0.271 -0.271 0.9626 250.3383 -525.9175)">
				<stop  offset="0" style="stop-color:#FFFFFF"/>
				<stop  offset="1" style="stop-color:#C8C8C8"/>
			</linearGradient>
			<polygon fill="url(#SVGID_15_)" points="21.06,58.126 21.021,57.991 24.903,56.862 24.942,56.997 			"/>
		</g>
		<g>
			<line fill="none" x1="21.694" y1="58.654" x2="23.074" y2="55.212"/>
			
				<linearGradient id="SVGID_16_" gradientUnits="userSpaceOnUse" x1="-61.7485" y1="622.8025" x2="-61.2124" y2="622.8025" gradientTransform="matrix(0.9626 0.271 -0.271 0.9626 250.3383 -525.9175)">
				<stop  offset="0" style="stop-color:#FFFFFF"/>
				<stop  offset="1" style="stop-color:#C8C8C8"/>
			</linearGradient>
			<polygon fill="url(#SVGID_16_)" points="21.76,58.679 21.629,58.627 23.009,55.184 23.14,55.236 			"/>
		</g>
		<g>
			<g>
				<path fill="#787366" d="M88.162,47.071c-7.613,0-13.783,6.172-13.783,13.784c0,7.613,6.17,13.784,13.783,13.784
					s13.785-6.172,13.785-13.784S95.775,47.071,88.162,47.071z M88.266,70.287c-5.094,0-9.225-4.131-9.225-9.227
					s4.131-9.225,9.225-9.225c5.1,0,9.229,4.129,9.229,9.225S93.363,70.287,88.266,70.287z"/>
				
					<linearGradient id="SVGID_17_" gradientUnits="userSpaceOnUse" x1="82.3428" y1="78.9792" x2="110.7041" y2="78.9792" gradientTransform="matrix(1 0 0 -1 -8.3599 139.8335)">
					<stop  offset="0" style="stop-color:#FFFFFF"/>
					<stop  offset="1" style="stop-color:#C8C8C8"/>
				</linearGradient>
				<path fill="url(#SVGID_17_)" d="M88.162,75.035c-7.82,0-14.18-6.36-14.18-14.18s6.359-14.181,14.18-14.181
					c7.818,0,14.182,6.361,14.182,14.181S95.98,75.035,88.162,75.035z M88.162,47.466c-7.383,0-13.389,6.008-13.389,13.391
					c0,7.381,6.006,13.391,13.389,13.391s13.391-6.01,13.391-13.391C101.553,53.473,95.545,47.466,88.162,47.466z M88.266,70.682
					c-5.303,0-9.619-4.315-9.619-9.619c0-5.305,4.316-9.622,9.619-9.622c5.307,0,9.623,4.315,9.623,9.622
					C97.889,66.367,93.572,70.682,88.266,70.682z M88.266,52.231c-4.867,0-8.828,3.961-8.828,8.829c0,4.87,3.961,8.831,8.828,8.831
					c4.871,0,8.834-3.961,8.834-8.831C97.1,56.192,93.137,52.231,88.266,52.231z"/>
			</g>
			<g>
				<circle fill="#787366" cx="87.971" cy="60.972" r="5.786"/>
			</g>
			<g>
				<path fill="#787366" d="M18.592,48.55c-7.251,0-13.133,5.879-13.133,13.131c0,7.253,5.88,13.133,13.133,13.133
					c7.254,0,13.132-5.88,13.132-13.133C31.724,54.428,25.846,48.55,18.592,48.55z M18.693,70.668c-4.854,0-8.789-3.937-8.789-8.79
					s3.935-8.788,8.789-8.788c4.854,0,8.79,3.935,8.79,8.788C27.481,66.731,23.546,70.668,18.693,70.668z"/>
				
					<linearGradient id="SVGID_18_" gradientUnits="userSpaceOnUse" x1="13.4023" y1="78.1531" x2="40.5029" y2="78.1531" gradientTransform="matrix(1 0 0 -1 -8.3599 139.8335)">
					<stop  offset="0" style="stop-color:#FFFFFF"/>
					<stop  offset="1" style="stop-color:#C8C8C8"/>
				</linearGradient>
				<path fill="url(#SVGID_18_)" d="M18.592,75.232c-7.472,0-13.55-6.08-13.55-13.552c0-7.47,6.078-13.551,13.55-13.551
					c7.473,0,13.551,6.081,13.551,13.551C32.143,69.152,26.065,75.232,18.592,75.232z M18.592,48.968
					c-7.01,0-12.713,5.703-12.713,12.713s5.703,12.714,12.713,12.714c7.012,0,12.714-5.704,12.714-12.714
					S25.604,48.968,18.592,48.968z M18.693,71.085c-5.077,0-9.208-4.13-9.208-9.207c0-5.076,4.13-9.207,9.208-9.207
					c5.078,0,9.208,4.131,9.208,9.207C27.899,66.955,23.771,71.085,18.693,71.085z M18.693,53.508c-4.616,0-8.37,3.754-8.37,8.37
					c0,4.614,3.756,8.369,8.37,8.369c4.615,0,8.371-3.755,8.371-8.369C27.064,57.261,23.308,53.508,18.693,53.508z"/>
			</g>
			<g opacity="0.4">
				
					<linearGradient id="SVGID_19_" gradientUnits="userSpaceOnUse" x1="21.0352" y1="77.4548" x2="33.0229" y2="77.4548" gradientTransform="matrix(1 0 0 -1 -8.3599 139.8335)">
					<stop  offset="0" style="stop-color:#FFFFFF"/>
					<stop  offset="1" style="stop-color:#C8C8C8"/>
				</linearGradient>
				<path fill="url(#SVGID_19_)" d="M18.669,68.372c-3.305,0-5.994-2.688-5.994-5.994c0-3.304,2.688-5.992,5.994-5.992
					s5.994,2.688,5.994,5.992C24.663,65.684,21.974,68.372,18.669,68.372z"/>
				
					<pattern  id="SVGID_20_" xlink:href="#SVGID_37_" patternTransform="matrix(0.1405 0 0 -0.1405 -13347.9336 -2304.9102)"  opacity="0.4">
				</pattern>
				<path opacity="0.4" fill="url(#SVGID_20_)" enable-background="new    " d="M18.733,68.372c-3.304,0-5.993-2.688-5.993-5.994
					c0-3.304,2.688-5.992,5.993-5.992s5.993,2.688,5.993,5.992C24.727,65.684,22.038,68.372,18.733,68.372z"/>
				<ellipse fill="#787366" cx="18.941" cy="62.465" rx="3.369" ry="3.208"/>
			</g>
			<g>
				<path fill="#787366" d="M87.867,52.329c0,0,2.107,2.964,2.502,4.347c0.395,1.384-15.547,6.982-15.547,6.982l15.555-5.665
					c0,0,1.705,3.292,1.77,4.413c0.066,1.12-16.664,5.007-16.664,5.007s-4.414-0.264-5.6-1.121c0,0-0.133,0.857-1.516,0.528
					s-2.371-0.133-2.371-0.133l-1.316-1.186c0,0,0.197,0.923-3.16,1.122c-3.361,0.196-4.084-0.923-4.084-0.923v0.923H56.84v-0.859
					l-1.58,0.595l0.264,0.724l-1.713,0.33l-0.395-0.922l-0.658,0.394v0.527v0.594H39.779c0,0-2.108,1.582-7.774-5.469
					c0,0-0.065-3.228,2.174-4.28c2.24-1.054,3.293-1.318,3.293-1.318s-1.384-2.833-2.965-1.185
					c-1.581,1.646-1.713-1.187-1.713-1.187l0.265-2.766h-0.593l-0.791-0.264c0,0-0.329-2.569,0.856-2.109
					c1.185,0.463-1.777-0.064,1.185-1.777l-0.395-1.021h-1.688l-1.012,1.945c0,0-0.724,0.723-0.923-0.463l0.526-1.977
					c0,0,0-0.526-1.779-0.922l-0.855,0.988v5.336l2.305,2.172l-0.395,0.527l-4.677-2.306c0,0-2.965-2.173-11.001-0.855l-3.03-1.384
					c0,0,5.533-2.239,11.856-1.186l2.701-5.072c0,0-0.724-0.526-0.724-1.383h-1.119l-0.131,0.264h-1.251c0,0-1.845-5.007-0.13-8.565
					h1.186c0,0,3.425,0,4.348,3.032c0.921,3.03,0.592,1.12,0.592,1.12l-0.131-3.294l-0.724-0.198c0,0-2.173,1.318-2.635-2.7
					s3.031-4.019,3.031-4.019l2.172,2.635l1.188,1.777l1.382,0.265l-0.395-1.582l1.582-0.855l1.185,1.121l0.132,0.922l0.792-0.66
					l-0.528-3.621l-1.448-0.264l-0.198-2.241c0,0,0.659-1.053,2.174-0.856l1.052-0.79c0,0-0.196-1.515-0.196-2.108
					s1.053-1.976,1.053-1.976s-0.394-1.976,0.265-2.964c0.658-0.988,1.514-3.162,2.831-3.689c1.317-0.527,0.526,4.084,0.526,4.084
					s-0.088,0.996-1.911,0.989c0,0-2.372,2.305-1.91,5.005c0.461,2.703,0.197,0.922,0.197,0.922l1.515,0.33l1.647-1.054
					c0,0,1.646,0.198,1.12,1.251l-1.844,1.055c0,0-0.132,1.251-1.12,1.58c-0.987,0.331-0.659,1.121-0.659,1.121l-2.305-0.264
					l0.329,3.36c0,0,2.173,0.396,2.502,2.108c0.33,1.712-0.263,0.988-0.263,0.988s2.766-4.611,17.654-0.658
					c0,0,2.965,1.382,5.336,3.095c2.369,1.714,5.4,2.634,15.676-0.79c0,0,1.846-0.133,1.912,0.658s0.328-1.384,0.328-1.384h10.08
					c0,0,1.514-0.263,2.305,1.714s-0.129,0.988-0.129,0.988l7.375,0.659c0,0,0.791,0.659,0.395,2.304
					c-0.395,1.647-0.92,2.045,1.713,5.764h-0.527c0,0-2.238-1.283-3.16-5.17s-0.33-0.526-0.33-0.526l-3.756,0.065l0.135,1.383
					c0,0-0.135,1.186-1.254,0.529c-1.119-0.66-1.383-1.583-1.383-1.583l-3.426-0.065l-5.4,1.58l-6.521,6.127l0.064,0.462
					l0.793-0.067l2.568-3.028l1.186-0.132l0.197,0.791l-3.162,3.688v0.527l-2.502,3.161l2.898,2.768L87.867,52.329z"/>
				
					<linearGradient id="SVGID_21_" gradientUnits="userSpaceOnUse" x1="17.1572" y1="99.3738" x2="111.0615" y2="99.3738" gradientTransform="matrix(1 0 0 -1 -8.3599 139.8335)">
					<stop  offset="0" style="stop-color:#FFFFFF"/>
					<stop  offset="1" style="stop-color:#C8C8C8"/>
				</linearGradient>
				<path fill="url(#SVGID_21_)" d="M40.896,12.761c1.039,0,0.332,4.127,0.332,4.127s-0.088,0.989-1.89,0.989
					c-0.007,0-0.014,0-0.021,0c0,0-2.372,2.305-1.91,5.005c0.199,1.166,0.264,1.498,0.27,1.498c0.013,0-0.073-0.575-0.073-0.575
					l1.515,0.33l1.647-1.054c0,0,1.646,0.198,1.12,1.251l-1.844,1.055c0,0-0.132,1.251-1.12,1.58
					c-0.987,0.331-0.659,1.121-0.659,1.121l-2.305-0.264l0.329,3.36c0,0,2.173,0.396,2.502,2.108
					c0.047,0.242,0.128,1.023,0.089,0.59c0.699-0.648,2.586-1.861,6.923-1.861c2.536,0,5.91,0.414,10.378,1.602
					c0,0,2.965,1.382,5.336,3.095c1.201,0.866,2.57,1.532,4.965,1.532c2.336,0,5.639-0.631,10.713-2.322
					c0,0,0.115-0.008,0.291-0.008c0.521,0,1.57,0.072,1.621,0.666c0.01,0.123,0.023,0.173,0.041,0.173
					c0.1,0,0.289-1.557,0.289-1.557h10.076c0,0,0.066-0.011,0.182-0.011c0.426,0,1.5,0.164,2.127,1.725
					c0.211,0.531,0.299,0.848,0.314,1.028l-0.447-0.04c0,0,0.229,0.247,0.361,0.247c0.061,0,0.102-0.055,0.086-0.207l6.928,0.618
					c0,0,0.793,0.658,0.396,2.304c-0.396,1.648-0.922,2.046,1.713,5.765h-0.525c0,0-2.242-1.285-3.162-5.172
					c-0.338-1.424-0.473-1.875-0.51-1.875c-0.059,0,0.18,1.348,0.18,1.348l-3.754,0.066l0.133,1.384c0,0-0.082,0.726-0.654,0.726
					c-0.156,0-0.355-0.058-0.598-0.198c-1.121-0.66-1.383-1.583-1.383-1.583l-3.426-0.064l-5.402,1.58l-6.523,6.128l0.066,0.46
					l0.793-0.064l2.568-3.031l1.186-0.131l0.197,0.79l-3.162,3.688v0.528l-2.502,3.161l2.898,2.766l10.277-4.809
					c0,0,2.107,2.965,2.502,4.347c0.268,0.942-7.016,3.831-11.705,5.584l-3.842,1.398l0,0l0,0c0.004,0,1.637-0.574,3.842-1.398
					l11.711-4.267c0,0,1.705,3.293,1.771,4.414c0.064,1.12-16.664,5.007-16.664,5.007s-4.414-0.263-5.6-1.121
					c0,0-0.094,0.604-0.939,0.604c-0.16,0-0.354-0.021-0.576-0.075c-0.629-0.15-1.178-0.19-1.586-0.19
					c-0.492,0-0.785,0.059-0.785,0.059l-1.32-1.186c0,0,0.197,0.923-3.16,1.122c-0.273,0.015-0.527,0.022-0.768,0.022
					c-2.705,0-3.316-0.945-3.316-0.945v0.923H56.84v-0.859l-1.58,0.595l0.264,0.724l-1.713,0.33l-0.395-0.922l-0.658,0.394v0.527
					v0.594H39.779c0,0-0.203,0.151-0.649,0.151c-0.998,0-3.213-0.753-7.125-5.62c0,0-0.065-3.228,2.174-4.28
					c2.24-1.054,3.293-1.318,3.293-1.318s-0.831-1.699-1.941-1.7c-0.32,0-0.668,0.145-1.024,0.516
					c-0.355,0.37-0.637,0.514-0.861,0.514c-0.771,0-0.85-1.7-0.85-1.7l0.264-2.766h-0.593l-0.791-0.264c0,0-0.277-2.164,0.593-2.164
					c0.075,0,0.159,0.017,0.252,0.053c0.115,0.107,0.253,0.162,0.294,0.162c0.042,0-0.013-0.055-0.283-0.16
					c-0.003-0.001-0.007-0.001-0.012-0.002c-0.274-0.265-0.416-0.846,1.197-1.775l-0.395-1.021h-1.689l-1.012,1.945
					c0,0-0.219,0.217-0.449,0.217c-0.188,0-0.384-0.145-0.473-0.68l0.526-1.977c0,0,0-0.526-1.78-0.922l-0.856,0.988v5.336
					l2.306,2.174l-0.396,0.525l-4.677-2.306c0,0-1.746-1.28-6.19-1.28c-1.347,0-2.941,0.118-4.811,0.425l-3.03-1.384
					c0,0,3.626-1.467,8.362-1.467c1.114,0,2.29,0.08,3.495,0.281l2.701-5.072c0,0-0.724-0.526-0.724-1.383h-1.121l-0.131,0.264
					h-1.252c0,0-1.845-5.007-0.13-8.565h1.186c0,0,3.425,0,4.348,3.032c0.409,1.34,0.571,1.713,0.625,1.713
					c0.069,0-0.034-0.593-0.034-0.593l-0.131-3.294l-0.724-0.198c0,0-0.342,0.206-0.782,0.206c-0.672,0-1.574-0.479-1.854-2.906
					c-0.462-4.019,3.03-4.019,3.03-4.019l2.173,2.635l1.187,1.777l1.383,0.265l-0.395-1.582l1.582-0.855l1.185,1.121l0.131,0.922
					l0.791-0.66l-0.526-3.621l-1.45-0.264l-0.197-2.241c0,0,0.551-0.88,1.803-0.88c0.117,0,0.241,0.007,0.37,0.023l1.053-0.79
					c0,0-0.197-1.515-0.197-2.107c0-0.594,1.053-1.977,1.053-1.977s-0.394-1.976,0.265-2.964c0.658-0.988,1.514-3.161,2.833-3.689
					C40.772,12.775,40.839,12.761,40.896,12.761 M40.896,11.971c-0.161,0-0.326,0.033-0.489,0.099
					c-1.25,0.5-2.052,1.955-2.696,3.123c-0.184,0.33-0.354,0.641-0.5,0.861c-0.648,0.973-0.537,2.497-0.439,3.201
					c-0.446,0.622-1.011,1.534-1.011,2.178c0,0.429,0.087,1.236,0.147,1.75L35.46,23.52c-0.045-0.001-0.092-0.002-0.137-0.002
					c-1.334,0-2.182,0.788-2.474,1.253l-0.139,0.222l0.022,0.266l0.198,2.24l0.053,0.599l0.593,0.107l0.891,0.161l0.22,1.518
					l-0.558-0.527l-0.417-0.393l-0.503,0.272l-1.581,0.855l-0.54,0.293l0.149,0.595l0.013,0.053l-0.763-1.144l-0.021-0.032
					l-0.025-0.031L28.27,27.19l-0.238-0.288H27.66c-0.073,0-1.767,0.015-2.9,1.284c-0.783,0.879-1.089,2.093-0.916,3.613
					c0.043,0.369,0.114,0.807,0.236,1.248c-0.336-0.059-0.642-0.086-0.9-0.086h-1.186h-0.496l-0.216,0.447
					c-1.836,3.815,0.022,8.963,0.102,9.18l0.191,0.52h0.551h1.252h0.488l0.119-0.242c0.105,0.284,0.253,0.521,0.399,0.709
					l-2.166,4.067c-0.993-0.139-2.02-0.207-3.06-0.207c-4.835,0-8.505,1.464-8.659,1.524l-1.703,0.689l1.671,0.763l3.03,1.386
					l0.219,0.1l0.238-0.038c1.673-0.274,3.249-0.415,4.682-0.415c4.062,0,5.714,1.121,5.73,1.134l0.054,0.04l0.056,0.025
					l4.677,2.306l0.589,0.289l0.392-0.523l0.396-0.526l0.425-0.566l-0.516-0.485l-2.057-1.94v-4.699l0.344-0.397
					c0.309,0.09,0.508,0.175,0.627,0.241l-0.418,1.567l-0.043,0.165l0.027,0.169c0.202,1.21,0.943,1.341,1.253,1.341
					c0.517,0,0.902-0.344,1.009-0.449l0.085-0.087l0.057-0.106l0.791-1.519h0.51c-0.608,0.449-0.943,0.896-1.036,1.366
					c-0.094,0.062-0.18,0.139-0.258,0.225c-0.61,0.695-0.51,2.068-0.438,2.626l0.062,0.493l0.472,0.157l0.769,0.256l-0.186,1.95
					l-0.006,0.055l0.003,0.057c0.056,1.187,0.516,2.455,1.639,2.455c0.475,0,0.944-0.248,1.433-0.758
					c0.119-0.124,0.294-0.271,0.454-0.271c0.213,0,0.475,0.211,0.714,0.484c-0.563,0.213-1.361,0.535-2.404,1.027
					c-2.673,1.258-2.631,4.86-2.626,5.014l0.005,0.268l0.169,0.21c2.169,2.698,5.271,5.914,7.74,5.914
					c0.368,0,0.646-0.071,0.835-0.15h12.792h0.79V68.27l0.413-0.079l1.715-0.329l0.908-0.175l-0.098-0.272h0.355h0.594h0.791v-0.333
					c0.594,0.203,1.412,0.354,2.529,0.354c0.258,0,0.531-0.008,0.811-0.024c1.547-0.091,2.59-0.333,3.217-0.755l0.688,0.618
					l0.295,0.266l0.389-0.077l0,0c0,0,0.238-0.044,0.631-0.044c0.457,0,0.932,0.058,1.402,0.17c0.27,0.063,0.525,0.098,0.76,0.098
					c0.533,0,0.92-0.163,1.189-0.384c1.662,0.649,4.639,0.858,5.303,0.898l0.113,0.007l0.111-0.024
					c0.043-0.01,4.244-0.988,8.381-2.091c2.443-0.649,4.387-1.215,5.781-1.682c0.861-0.288,1.502-0.532,1.965-0.753
					c0.416-0.195,1.191-0.562,1.148-1.299c-0.072-1.226-1.561-4.154-1.857-4.729l-0.131-0.249c0.188-0.27,0.279-0.577,0.182-0.923
					c-0.422-1.472-2.396-4.272-2.619-4.587l-0.383-0.539l-0.6,0.281l-9.785,4.578l-1.986-1.895l2.057-2.599l0.168-0.216V51.21
					v-0.235l2.973-3.466l0.268-0.312l-0.1-0.394l-0.197-0.792l-0.168-0.669l-0.219,0.021l1.934-1.816l5.104-1.494l2.809,0.057
					c0.24,0.424,0.693,1.01,1.492,1.479c0.348,0.204,0.686,0.308,1,0.308c0.879,0,1.363-0.74,1.438-1.428l0.01-0.08l-0.008-0.082
					l-0.049-0.535l2.467-0.042c1.004,4.104,3.412,5.526,3.516,5.586l0.184,0.104h0.211h0.527h1.527l-0.883-1.248
					c-2.148-3.033-2.021-3.498-1.719-4.625c0.041-0.148,0.088-0.316,0.129-0.498c0.496-2.064-0.537-2.998-0.656-3.097l-0.191-0.159
					l-0.246-0.019l-6.365-0.569c-0.055-0.172-0.129-0.365-0.217-0.585c-0.822-2.062-2.396-2.221-2.859-2.221
					c-0.096,0-0.174,0.005-0.229,0.011H79.434h-0.697l-0.088,0.695c-0.004,0.049-0.01,0.098-0.018,0.148
					c-0.307-0.08-0.682-0.127-1.145-0.127c-0.199,0-0.332,0.009-0.348,0.01l-0.1,0.008l-0.096,0.031
					c-4.604,1.535-8.027,2.282-10.463,2.282c-2.148,0-3.354-0.554-4.502-1.383c-2.404-1.735-5.34-3.114-5.465-3.173l-0.062-0.029
					l-0.064-0.018c-4.07-1.08-7.627-1.629-10.583-1.629c-3.25,0-5.239,0.663-6.414,1.324c-0.496-1.178-1.655-1.742-2.367-1.985
					l-0.184-1.848l1.334,0.151l1.509,0.174l-0.681-1.246v-0.001c0.021-0.017,0.075-0.048,0.171-0.081
					c0.938-0.313,1.397-1.164,1.575-1.824l1.53-0.874l0.208-0.12l0.106-0.214c0.325-0.648,0.155-1.15,0.024-1.392
					c-0.431-0.802-1.539-0.972-1.756-0.999l-0.28-0.033l-0.24,0.153l-1.371,0.877l-0.718-0.156c-0.02-0.114-0.041-0.243-0.065-0.387
					c-0.311-1.824,0.976-3.511,1.486-4.093c1.953-0.125,2.282-1.337,2.333-1.635l0,0c0.008-0.035,0.148-0.867,0.214-1.8
					c0.133-1.891-0.163-2.505-0.436-2.829C41.556,12.12,41.242,11.971,40.896,11.971L40.896,11.971z"/>
			</g>
			
				<linearGradient id="SVGID_22_" gradientUnits="userSpaceOnUse" x1="42.0796" y1="99.7292" x2="71.3262" y2="99.7292" gradientTransform="matrix(1 0 0 -1 -8.3599 139.8335)">
				<stop  offset="0" style="stop-color:#FFFFFF"/>
				<stop  offset="1" style="stop-color:#C8C8C8"/>
			</linearGradient>
			<path opacity="0.8" fill="url(#SVGID_22_)" enable-background="new    " d="M36.882,38.034c0,0-3.236,3.989-3.161,4.807
				c0.074,0.82,5.598,5.338,5.598,5.338s8.696-0.066,9.881-1.316c0,0-4.413-4.481-3.227-5.929c1.185-1.448,1.053-3.228,10.011-2.568
				c0,0,1.451,0.197,3.822,2.37v-1.185c0,0,0.459-1.45,2.041-1.054c1.582,0.396,1.496-0.529-0.328-1.779
				c-1.826-1.25-5.406-4.559-14.955-4.684c0,0-5.489-0.197-7.683,1.848l-0.352,0.398l-0.724,1.316L36.882,38.034z"/>
			<g>
				<g>
					
						<linearGradient id="SVGID_23_" gradientUnits="userSpaceOnUse" x1="630.3652" y1="-1663.3567" x2="630.3652" y2="-1666.453" gradientTransform="matrix(1 0 0 -1 -588.5977 -1625.0005)">
						<stop  offset="0" style="stop-color:#FFFFFF"/>
						<stop  offset="1" style="stop-color:#9D9B99"/>
					</linearGradient>
					<circle fill="url(#SVGID_23_)" cx="41.767" cy="39.899" r="1.585"/>
					<path fill="#817D7C" d="M41.767,41.583c-0.928,0-1.683-0.755-1.683-1.685c0-0.928,0.755-1.683,1.683-1.683
						c0.928,0,1.685,0.756,1.685,1.683C43.453,40.828,42.697,41.583,41.767,41.583z M41.767,38.413
						c-0.819,0-1.485,0.667-1.485,1.485c0,0.82,0.667,1.488,1.485,1.488c0.82,0,1.486-0.668,1.486-1.488
						C43.253,39.08,42.587,38.413,41.767,38.413z"/>
				</g>
				<g>
					
						<linearGradient id="SVGID_24_" gradientUnits="userSpaceOnUse" x1="629.5752" y1="-1663.3337" x2="629.5752" y2="-1664.8838" gradientTransform="matrix(1 0 0 -1 -588.5977 -1625.0005)">
						<stop  offset="0" style="stop-color:#13599D"/>
						<stop  offset="1" style="stop-color:#0E4A89"/>
					</linearGradient>
					<path fill="url(#SVGID_24_)" d="M40.184,39.898h1.586v-1.587C40.894,38.31,40.184,39.022,40.184,39.898z"/>
					
						<linearGradient id="SVGID_25_" gradientUnits="userSpaceOnUse" x1="631.1592" y1="-1664.9202" x2="631.1592" y2="-1666.4712" gradientTransform="matrix(1 0 0 -1 -588.5977 -1625.0005)">
						<stop  offset="0" style="stop-color:#13599D"/>
						<stop  offset="1" style="stop-color:#0E4A89"/>
					</linearGradient>
					<path fill="url(#SVGID_25_)" d="M41.769,39.898v1.587c0.876,0,1.585-0.709,1.585-1.587H41.769z"/>
				</g>
				<g>
					
						<linearGradient id="SVGID_26_" gradientUnits="userSpaceOnUse" x1="479.3516" y1="-1311.6091" x2="482.9023" y2="-1311.6091" gradientTransform="matrix(1 0 0 -1 -439.3594 -1271.7095)">
						<stop  offset="0" style="stop-color:#FFFFFF"/>
						<stop  offset="1" style="stop-color:#C7C8C8"/>
					</linearGradient>
					<path fill="url(#SVGID_26_)" d="M41.767,41.676c-0.978,0-1.775-0.797-1.775-1.774c0-0.979,0.797-1.777,1.775-1.777
						c0.979,0,1.776,0.799,1.776,1.777C43.545,40.879,42.749,41.676,41.767,41.676z M41.767,38.507c-0.77,0-1.394,0.625-1.394,1.392
						c0,0.769,0.626,1.396,1.394,1.396c0.77,0,1.395-0.627,1.395-1.396C43.162,39.132,42.538,38.507,41.767,38.507z"/>
				</g>
			</g>
			<ellipse fill="#787366" cx="45.741" cy="33.4" rx="2.636" ry="1.018"/>
			<circle fill="#787366" cx="18.944" cy="62.522" r="3.115"/>
			<g>
				
					<linearGradient id="SVGID_27_" gradientUnits="userSpaceOnUse" x1="25.0801" y1="90.2429" x2="41.4536" y2="90.2429" gradientTransform="matrix(1 0 0 -1 -8.3599 139.8335)">
					<stop  offset="0" style="stop-color:#FFFFFF"/>
					<stop  offset="1" style="stop-color:#C8C8C8"/>
				</linearGradient>
				<path fill="url(#SVGID_27_)" d="M23.542,64.666c-1.23,0.049-2.995,0.185-4.325,0.565c-0.271,0.076-0.519,0.116-0.735,0.116
					c-0.401,0-0.71-0.132-0.919-0.391c-0.466-0.577-0.256-1.578-0.248-1.621l0.008-0.021l1.411-3.012l-0.21-0.13
					c-0.312,0.126-0.59,0.19-0.826,0.19c-0.772,0-0.976-0.671-0.976-1.025l0.005-0.033l1.723-5.038l0.03-0.02
					c0.004-0.004,0.569-0.362,0.988-0.935c0.548-0.746,0.606-1.492,0.169-2.215c-0.126-0.138-0.956-1.062-0.731-1.578
					c0.097-0.222,0.353-0.326,0.789-0.308c1.458,0.058,3.294,0.304,3.688,0.356l1.413-3.476l1.289-2.609l4.422-9.581l0.019,0.03
					c0.066-0.056,0.177-0.101,0.359-0.101c0.301,0,0.71,0.115,1.123,0.316c0.337,0.162,0.629,0.36,0.83,0.558
					c0.287,0.288,0.284,0.477,0.231,0.586c-0.029,0.061-0.081,0.106-0.152,0.14l-0.46,1.021l-4.152,8.367l-0.985,2.498l-2.175,4.942
					l-1.341,3.353h-0.593l-1.556,3.922l1.66-0.319l-0.077,1.306l-0.056,0.025c-1.226,0.531-3.183,1.524-3.206,1.923
					c-0.001,0.013-0.002,0.041,0.055,0.073c0.31,0.182,0.498,0.396,0.557,0.641c0.032,0.13,0.021,0.245,0,0.33l3.214-0.102
					 M23.408,63.628l-3.15,0.099l0.099-0.157c0.003-0.004,0.086-0.146,0.038-0.339c-0.048-0.188-0.205-0.359-0.465-0.511
					c-0.135-0.079-0.158-0.185-0.152-0.257c0.036-0.619,2.613-1.782,3.27-2.071l0.055-0.93l-1.764,0.34l1.737-4.382h0.594
					l1.292-3.231l2.175-4.943l0.986-2.498l4.153-8.374l0.493-1.094l0.041-0.015c0.028-0.01,0.066-0.027,0.08-0.054
					c0.025-0.055-0.011-0.179-0.193-0.358c-0.185-0.186-0.459-0.37-0.775-0.523c-0.382-0.184-0.768-0.295-1.038-0.295
					c-0.135,0-0.229,0.029-0.254,0.078c-0.003,0.006-0.005,0.014-0.006,0.022l-0.04,0.257l-0.049-0.076l-4.273,9.258l-1.286,2.604
					l-1.468,3.613l-0.077-0.012c-0.021-0.002-2.121-0.301-3.744-0.367c-0.338-0.012-0.539,0.054-0.6,0.193
					c-0.133,0.305,0.359,1.002,0.702,1.369l0.012,0.018c0.48,0.79,0.418,1.636-0.177,2.448c-0.391,0.532-0.884,0.876-1.01,0.961
					l-1.696,4.957c0.003,0.118,0.061,0.813,0.777,0.813c0.223,0,0.491-0.065,0.796-0.194l0.047-0.021l0.448,0.275l-1.481,3.159
					c-0.021,0.104-0.173,0.971,0.211,1.446c0.269,0.333,0.761,0.402,1.446,0.207c1.233-0.353,2.833-0.499,4.048-0.559
					 M19.943,58.851l-0.612-0.612l1.284-2.438l0.85-1.407l0.085,0.135c0.062,0.096,0.13,0.182,0.211,0.263l0.049,0.049
					L19.943,58.851z M19.573,58.202l0.31,0.31l1.69-3.631c-0.034-0.038-0.067-0.077-0.099-0.118l-0.687,1.137L19.573,58.202z"/>
				
					<linearGradient id="SVGID_28_" gradientUnits="userSpaceOnUse" x1="25.0083" y1="90.2419" x2="41.522" y2="90.2419" gradientTransform="matrix(1 0 0 -1 -8.3599 139.8335)">
					<stop  offset="0" style="stop-color:#FFFFFF"/>
					<stop  offset="1" style="stop-color:#C8C8C8"/>
				</linearGradient>
				<path fill="url(#SVGID_28_)" d="M18.48,65.419c-0.423,0-0.751-0.14-0.973-0.416c-0.477-0.591-0.286-1.57-0.262-1.681l0.01-0.027
					l1.386-2.961l-0.127-0.079c-0.306,0.121-0.582,0.183-0.82,0.183c-0.827,0-1.045-0.717-1.045-1.095l0.005-0.044l1.735-5.074
					l0.051-0.031c0.058-0.038,0.578-0.383,0.97-0.917c0.528-0.721,0.585-1.438,0.169-2.132c-0.177-0.192-0.975-1.104-0.74-1.646
					c0.109-0.256,0.391-0.369,0.856-0.352c1.403,0.056,3.177,0.287,3.64,0.35l1.394-3.426l1.29-2.613l4.474-9.693l0.05,0.074
					c0.282-0.153,0.884-0.045,1.493,0.251c0.342,0.165,0.642,0.37,0.848,0.575c0.314,0.314,0.308,0.535,0.244,0.664
					c-0.032,0.068-0.087,0.121-0.162,0.161l-0.449,0.998l-4.152,8.372l-0.982,2.489l-2.177,4.946l-1.357,3.396h-0.593l-1.491,3.757
					l1.623-0.312l-0.083,1.441l-0.095,0.041c-1.502,0.649-3.133,1.543-3.165,1.859c0.003,0.002,0.01,0.007,0.021,0.014
					c0.328,0.19,0.526,0.419,0.591,0.683c0.022,0.09,0.027,0.183,0.017,0.273l3.127-0.098l0.004,0.14l-3.308,0.104l0.022-0.091
					c0.025-0.1,0.025-0.198,0-0.298c-0.054-0.224-0.232-0.423-0.525-0.595c-0.064-0.038-0.094-0.083-0.09-0.138
					c0.034-0.588,3.217-1.972,3.25-1.985l0.016-0.008l0.069-1.175l-1.697,0.327l1.621-4.083h0.593l1.323-3.31l2.177-4.946
					l0.982-2.493l4.154-8.373l0.47-1.045l0.024-0.011c0.059-0.026,0.097-0.062,0.119-0.105c0.061-0.126-0.018-0.304-0.219-0.504
					c-0.193-0.192-0.481-0.389-0.809-0.548c-0.404-0.194-0.803-0.309-1.093-0.309c-0.141,0-0.249,0.029-0.314,0.083l-0.04,0.032
					l-4.381,9.494l-1.289,2.612l-1.431,3.521l-0.054-0.008c-0.358-0.049-2.224-0.299-3.682-0.357c-0.4-0.014-0.637,0.074-0.723,0.27
					c-0.208,0.476,0.625,1.396,0.72,1.501l0.008,0.01c0.452,0.751,0.395,1.522-0.172,2.294c-0.406,0.554-0.947,0.912-1.006,0.952
					l-0.011,0.005l-1.716,5.02l-0.001,0.02c0,0.318,0.189,0.944,0.905,0.944c0.229,0,0.498-0.062,0.8-0.187l0.034-0.014l0.294,0.183
					l-1.442,3.08c-0.007,0.034-0.207,1.007,0.235,1.554c0.305,0.377,0.841,0.463,1.582,0.251c1.334-0.381,3.098-0.519,4.341-0.566
					l0.005,0.14c-1.237,0.049-2.989,0.186-4.309,0.562C18.958,65.379,18.704,65.419,18.48,65.419z M18.48,65.221
					c-0.36,0-0.635-0.115-0.818-0.344c-0.408-0.504-0.246-1.402-0.227-1.503l0.006-0.017l1.454-3.103l-0.363-0.225l-0.015,0.006
					c-0.315,0.134-0.592,0.201-0.824,0.201c-0.793,0-0.845-0.793-0.847-0.882v-0.013l0.004-0.012l1.704-4.981l0.02-0.014
					c0.137-0.092,0.614-0.428,0.994-0.943c0.578-0.784,0.638-1.604,0.173-2.371l-0.008-0.01c-0.312-0.335-0.869-1.076-0.71-1.441
					c0.076-0.172,0.294-0.248,0.668-0.231c1.631,0.064,3.732,0.362,3.753,0.368l0.02,0.002l1.449-3.562l1.288-2.609l4.325-9.372
					l0.019,0.028l0.01-0.074c0.003-0.016,0.007-0.027,0.013-0.04c0.048-0.099,0.2-0.119,0.317-0.119
					c0.278,0,0.678,0.114,1.066,0.303c0.323,0.157,0.604,0.348,0.795,0.536c0.18,0.18,0.256,0.338,0.208,0.438
					c-0.02,0.039-0.061,0.07-0.121,0.092l-0.012,0.004l-0.479,1.066l-4.154,8.375l-0.984,2.496l-2.176,4.944l-1.31,3.272h-0.593
					l-1.673,4.218l1.729-0.332l-0.062,1.064l-0.04,0.019c-1.472,0.642-3.201,1.555-3.228,2.008c-0.004,0.08,0.035,0.145,0.119,0.192
					c0.277,0.161,0.444,0.349,0.496,0.554c0.055,0.217-0.035,0.377-0.045,0.394l-0.029,0.048l3.018-0.096l0.004,0.141l-3.282,0.104
					l0.168-0.271c0.002-0.002,0.07-0.121,0.03-0.283c-0.042-0.17-0.188-0.327-0.433-0.47c-0.173-0.101-0.192-0.243-0.188-0.32
					c0.038-0.624,2.269-1.673,3.273-2.11l0.046-0.802l-1.802,0.347l1.803-4.543h0.593l1.275-3.188l2.177-4.945l0.984-2.498
					l4.156-8.377l0.503-1.121l0.07-0.023c0.027-0.01,0.039-0.02,0.041-0.021c0.004-0.015-0.013-0.107-0.181-0.275
					c-0.179-0.178-0.447-0.359-0.757-0.51c-0.372-0.181-0.749-0.286-1.006-0.286c-0.137,0-0.187,0.028-0.191,0.04l-0.066,0.438
					l-0.081-0.123l-4.219,9.142l-1.286,2.606l-1.487,3.656l-0.131-0.018c-0.021-0.004-2.129-0.303-3.738-0.365
					c-0.3-0.014-0.484,0.039-0.533,0.149c-0.101,0.231,0.279,0.852,0.69,1.292l0.016,0.023c0.501,0.822,0.438,1.697-0.177,2.531
					c-0.376,0.511-0.845,0.854-1.007,0.964l-1.684,4.923c0.007,0.15,0.079,0.732,0.707,0.732c0.212,0,0.473-0.062,0.769-0.189
					l0.081-0.031l0.532,0.327l-1.504,3.206c-0.018,0.101-0.161,0.937,0.197,1.38c0.252,0.312,0.712,0.374,1.373,0.186
					c1.264-0.361,2.907-0.506,4.062-0.561l0.007,0.14c-1.149,0.057-2.779,0.2-4.03,0.557C18.92,65.184,18.686,65.221,18.48,65.221z
					 M19.965,58.972l-0.719-0.723l1.309-2.48l0.911-1.508l0.145,0.229c0.058,0.091,0.123,0.174,0.201,0.249l0.083,0.084
					L19.965,58.972z M19.417,58.225l0.505,0.507l1.804-3.878l-0.015-0.014c-0.084-0.086-0.157-0.175-0.22-0.275l-0.024-0.038
					l-0.792,1.312L19.417,58.225z M19.905,58.632l-0.417-0.416l1.239-2.35l0.742-1.227l0.062,0.081
					c0.03,0.04,0.062,0.076,0.095,0.112l0.032,0.032L19.905,58.632z M19.66,58.188l0.203,0.201l1.628-3.496
					c-0.001-0.003-0.003-0.008-0.007-0.008l-0.634,1.051L19.66,58.188z"/>
			</g>
			<g>
				<path fill="#C0B9AB" d="M23.408,63.528l-2.967,0.094c0,0,0.329-0.525-0.461-0.986c-0.79-0.463,3.161-2.175,3.161-2.175
					l0.066-1.12l-1.713,0.33l1.646-4.15h0.593l1.317-3.295l2.173-4.939l0.989-2.504l4.15-8.363l0.475-1.059
					c0.066-0.021,0.114-0.058,0.139-0.104c0.112-0.232-0.342-0.686-1.014-1.013c-0.674-0.326-1.311-0.402-1.423-0.172
					c-0.008,0.018-0.014,0.033-0.016,0.05c-0.002-0.003-0.003-0.005-0.006-0.007l-4.347,9.42l-1.285,2.601l-1.442,3.549
					c0,0-2.108-0.303-3.755-0.368c-1.646-0.066,0.026,1.728,0.026,1.728c1.121,1.845-1.185,3.294-1.185,3.294l-1.713,5.007
					c0,0,0,1.449,1.713,0.722l0.329,0.204l-1.448,3.092c0,0-0.528,2.437,1.778,1.778c1.341-0.384,3.108-0.521,4.349-0.571
					 M19.914,58.681l-0.46-0.462l1.25-2.371l0.764-1.267c0.058,0.092,0.13,0.185,0.224,0.278L19.914,58.681z"/>
				<path fill="#787366" d="M18.48,65.318c-0.336,0-0.606-0.093-0.805-0.279c-0.577-0.539-0.344-1.649-0.334-1.694l0.004-0.018
					l1.423-3.033l-0.246-0.151c-0.587,0.242-1.043,0.26-1.358,0.049c-0.414-0.272-0.418-0.829-0.418-0.852l0.004-0.023l1.721-5.028
					l0.02-0.014c0.005-0.004,0.574-0.364,0.997-0.939c0.557-0.76,0.614-1.516,0.171-2.251c-0.121-0.13-0.954-1.056-0.725-1.556
					c0.094-0.205,0.347-0.301,0.758-0.284c1.485,0.06,3.367,0.312,3.708,0.36l1.422-3.497l1.286-2.608l4.399-9.524l0.008,0.011
					c0.091-0.103,0.273-0.14,0.535-0.107c0.277,0.033,0.612,0.141,0.944,0.303c0.332,0.161,0.625,0.356,0.822,0.554
					c0.217,0.218,0.295,0.408,0.227,0.552c-0.027,0.058-0.078,0.102-0.148,0.131l-0.465,1.033l-4.151,8.366l-0.985,2.499
					l-2.175,4.942l-1.335,3.333H23.19l-1.583,3.988l1.676-0.321L23.21,60.51l-0.041,0.018c-1.233,0.532-3.198,1.536-3.224,1.948
					c0,0.027,0.005,0.062,0.07,0.102c0.305,0.177,0.487,0.386,0.544,0.62c0.036,0.146,0.016,0.271-0.011,0.354l2.857-0.088
					l0.004,0.14l-3.1,0.097l0.071-0.109c0.004-0.007,0.093-0.156,0.042-0.361c-0.048-0.194-0.21-0.374-0.478-0.53
					c-0.122-0.07-0.143-0.164-0.139-0.229c0.037-0.614,2.79-1.844,3.269-2.052l0.058-0.987l-1.749,0.337l1.712-4.312h0.594
					l1.301-3.25l2.174-4.943l0.987-2.498l4.152-8.372l0.487-1.085l0.029-0.01c0.049-0.018,0.082-0.039,0.097-0.069
					c0.04-0.081-0.035-0.228-0.199-0.39c-0.186-0.188-0.464-0.374-0.783-0.527c-0.318-0.156-0.639-0.259-0.898-0.289
					c-0.229-0.027-0.392,0.004-0.43,0.085c-0.005,0.009-0.009,0.018-0.009,0.027l-0.027,0.174l-0.036-0.052l-4.296,9.311
					l-1.285,2.604l-1.461,3.594l-0.054-0.008c-0.021-0.004-2.124-0.303-3.747-0.369c-0.346-0.012-0.558,0.057-0.625,0.205
					c-0.164,0.356,0.454,1.137,0.705,1.406l0.009,0.012c1.083,1.785-0.954,3.219-1.187,3.376l-1.701,4.971
					c0.003,0.074,0.033,0.514,0.355,0.726c0.278,0.184,0.702,0.159,1.258-0.075l0.033-0.015l0.415,0.256l-1.473,3.138
					c-0.019,0.096-0.201,1.094,0.295,1.557c0.289,0.27,0.759,0.313,1.398,0.133c1.347-0.388,3.118-0.524,4.366-0.572l0.005,0.14
					c-1.24,0.05-2.998,0.188-4.333,0.567C18.939,65.28,18.695,65.318,18.48,65.318z M19.934,58.802l-0.568-0.568l1.275-2.418
					l0.825-1.367l0.062,0.097c0.061,0.098,0.132,0.186,0.214,0.268l0.034,0.034L19.934,58.802z M19.539,58.208l0.353,0.353
					l1.716-3.686c-0.049-0.052-0.095-0.106-0.136-0.163l-0.708,1.174L19.539,58.208z"/>
			</g>
			
				<linearGradient id="SVGID_29_" gradientUnits="userSpaceOnUse" x1="26.4678" y1="76.0457" x2="27.7183" y2="76.0457" gradientTransform="matrix(1 0 0 -1 -8.3599 139.8335)">
				<stop  offset="0" style="stop-color:#FFFFFF"/>
				<stop  offset="1" style="stop-color:#C8C8C8"/>
			</linearGradient>
			<path fill="url(#SVGID_29_)" d="M18.733,64.415c-0.345,0-0.625-0.28-0.625-0.624c0-0.348,0.281-0.629,0.625-0.629
				c0.345,0,0.625,0.281,0.625,0.629C19.358,64.135,19.078,64.415,18.733,64.415z M18.733,63.361c-0.235,0-0.429,0.192-0.429,0.43
				c0,0.236,0.192,0.429,0.429,0.429c0.235,0,0.429-0.192,0.429-0.429C19.162,63.553,18.968,63.361,18.733,63.361z"/>
			<path fill="#FFFFFF" d="M66.611,49.239c-0.164-0.004-0.33-0.019-0.496-0.047c-1.051-0.188-1.041-2.02-1.031-2.319l-3.711-4.495
				l0.189-0.015c0.012-0.001,1.273-0.098,1.973-0.084c0.443,0.007,0.531,0.051,0.553,0.144c0.01,0.04,2.254,1.446,4.24,2.295
				l5.453-0.76c0.031-0.007,0.873-0.184,1.635-0.17c0.611,0.01,1,0.146,1.152,0.402c0.115,0.193,0.094,0.443-0.064,0.746
				c-0.529,1.017-1.605,1.212-2.414,1.198l0,0c-0.357-0.008-0.629-0.055-0.715-0.071c-1.85,0.65-4.643,1.773-4.832,2.221
				C68.297,48.872,67.521,49.255,66.611,49.239z M61.768,42.546l3.516,4.262l-0.002,0.037c0,0.02-0.084,1.983,0.869,2.151
				c0.154,0.028,0.311,0.043,0.465,0.046c0.83,0.015,1.531-0.319,1.75-0.834c0.281-0.674,4.492-2.17,4.971-2.339l0.025-0.009
				l0.029,0.006c0.002,0.002,0.295,0.064,0.703,0.072l0,0c0.754,0.014,1.754-0.166,2.238-1.092c0.123-0.236,0.146-0.424,0.068-0.556
				c-0.115-0.19-0.457-0.298-0.988-0.306c-0.736-0.012-1.586,0.166-1.594,0.167l-5.516,0.767l-0.025-0.012
				c-1.336-0.567-4.461-2.397-4.455-2.416c-0.059-0.006-0.15-0.012-0.289-0.016C63.004,42.468,62.146,42.52,61.768,42.546z
				 M66.85,48.382c-0.395-0.007-0.709-0.322-0.703-0.704c0.008-0.379,0.332-0.685,0.725-0.678s0.709,0.321,0.701,0.704
				C67.568,48.086,67.242,48.389,66.85,48.382z M66.867,47.197c-0.281-0.005-0.518,0.212-0.521,0.485
				c-0.006,0.271,0.223,0.498,0.508,0.504c0.285,0.005,0.516-0.213,0.521-0.486C67.381,47.428,67.152,47.202,66.867,47.197z
				 M68.971,46.524l-0.041-0.051c-0.01-0.014-0.104-0.137-0.078-0.359c0.035-0.346,0.32-0.732,0.846-1.15l0.021-0.018l0.021-0.002
				c0.096-0.02,2.303-0.458,3.225-0.439c0.24,0.002,0.371,0.035,0.436,0.109c0.082,0.097,0.135,0.178,0.111,0.26
				c-0.021,0.086-0.105,0.113-0.186,0.144c-0.08,0.028-0.18,0.063-0.268,0.151c-0.273,0.261-3.402,1.16-4.025,1.337L68.971,46.524z
				 M69.805,45.134c-0.793,0.635-0.787,1.021-0.748,1.16c1.436-0.41,3.686-1.096,3.863-1.268c0.121-0.118,0.254-0.164,0.342-0.193
				c0.014-0.006,0.031-0.012,0.047-0.018c-0.012-0.017-0.027-0.039-0.057-0.072c-0.002,0-0.047-0.037-0.291-0.041
				C72.109,44.688,70.047,45.087,69.805,45.134z M65.43,45.869l-2.479-2.364l0.854-0.324l2.258,1.314
				c0.068,0.049,0.607,0.441,0.51,0.838c-0.07,0.279-0.432,0.454-1.096,0.531L65.43,45.869z M63.314,43.58l2.186,2.083
				c0.705-0.088,0.855-0.274,0.881-0.379c0.059-0.223-0.297-0.532-0.424-0.623l-2.17-1.26L63.314,43.58z"/>
			<g opacity="0.8">
				<path fill="#C0B9AB" d="M61.775,36.79c0,0,1.582,1.708,0,1.511c-1.582-0.194-2.229,0.647-2.17,2.235l1.436,1.64h3.105
					c0,0,0.234,0.741,4.385,2.354c0,0,7.17-0.515,7.453-1.031c0.283-0.518,3.512-2.84,3.512-2.84l12.055-2.358
					c0,0,1.447-1.445-1.514-3.421l-10.799,0.123l-0.205,1.72c0,0-0.297-1.39-1.746-1.004C75.838,36.106,65.229,39.846,61.775,36.79z
					"/>
				<path fill="#787366" d="M68.521,44.601l-0.014-0.007c-3.6-1.398-4.279-2.154-4.4-2.348h-3.096l-1.473-1.684l-0.002-0.022
					c-0.031-0.849,0.143-1.478,0.514-1.863c0.377-0.391,0.961-0.542,1.734-0.444c0.34,0.041,0.549-0.005,0.605-0.135
					c0.133-0.303-0.436-1.012-0.666-1.26l0.1-0.102c0.881,0.779,2.322,1.175,4.287,1.175c3.766,0,8.418-1.427,10.402-2.034
					c0.35-0.105,0.6-0.186,0.756-0.227c0.176-0.046,0.344-0.068,0.5-0.068c0.725,0,1.078,0.503,1.232,0.837l0.174-1.484
					l10.881-0.127l0.02,0.013c1.178,0.784,1.814,1.585,1.891,2.373c0.068,0.713-0.35,1.139-0.367,1.158l-0.016,0.016l-12.061,2.359
					c-1.115,0.803-3.26,2.412-3.479,2.807c-0.287,0.525-6.305,0.98-7.508,1.067H68.521z M61.072,42.106h3.127l0.014,0.049
					c0.004,0.006,0.336,0.75,4.33,2.305c2.758-0.199,7.186-0.642,7.379-0.994c0.289-0.526,3.4-2.77,3.533-2.865l0.027-0.012
					l12.031-2.352c0.066-0.078,0.371-0.458,0.312-1.033c-0.074-0.742-0.686-1.5-1.812-2.256l-10.713,0.125l-0.246,2.076l-0.09-0.41
					c-0.008-0.041-0.229-1.016-1.195-1.016c-0.146,0-0.301,0.022-0.465,0.064c-0.15,0.041-0.416,0.123-0.752,0.224
					c-1.992,0.612-6.658,2.042-10.441,2.042c-1.695,0-3.012-0.293-3.926-0.871c0.223,0.313,0.445,0.717,0.332,0.972
					c-0.086,0.196-0.334,0.269-0.75,0.218c-0.729-0.089-1.273,0.047-1.617,0.404c-0.34,0.352-0.502,0.936-0.475,1.734L61.072,42.106
					z"/>
			</g>
			
				<linearGradient id="SVGID_30_" gradientUnits="userSpaceOnUse" x1="44.0283" y1="80.7703" x2="56.2275" y2="80.7703" gradientTransform="matrix(1 0 0 -1 -8.3599 139.8335)">
				<stop  offset="0" style="stop-color:#FFFFFF"/>
				<stop  offset="1" style="stop-color:#C8C8C8"/>
			</linearGradient>
			<path fill="url(#SVGID_30_)" d="M35.668,59.844c0,0,1.466,3.361,3.867,3.69c2.399,0.329,5.933-0.46,5.933-0.46
				s3.065-3.36,2.265-5.139c-0.801-1.779-1.6-3.426-4-3.426c-2.401,0-6.933,1.58-7.6,2.898L35.668,59.844z"/>
			
				<linearGradient id="SVGID_31_" gradientUnits="userSpaceOnUse" x1="39.9224" y1="79.4841" x2="100.9336" y2="79.4841" gradientTransform="matrix(1 0 0 -1 -8.3599 139.8335)">
				<stop  offset="0" style="stop-color:#FFFFFF"/>
				<stop  offset="1" style="stop-color:#C8C8C8"/>
			</linearGradient>
			<path fill="url(#SVGID_31_)" d="M35.735,59.79c-2.2,0.265-2.014,0.823-2.267,2.503c-0.252,1.683,6,4.942,6,4.942l12.333-0.463
				c1.399,0.792,5.533-1.384,5.533-1.384l7.4,0.067c0,0-0.467-0.595,0.266-1.518c0.734-0.921,2.4,0,2.4,0l2.066,0.067
				c0.668-2.24,2.801-2.504,2.801-2.504l0.18-1.988l15.816-7.364c2.734,2.37,2.203,5.597,2.203,5.597l-16.332,6.127L72.6,63.676
				L71,65.19l3.203-0.132l0.666-1.053l15.799-5.862c2.332,0.988,1.867,3.951,1.867,3.951l-0.334,1.054l-16.334,4.281h-1.865
				l-1.734-0.131c-2.734-1.186-3.197-0.265-3.197-0.265c-3.004,0.527-4.604-1.053-4.869-0.461c-0.268,0.593-5.602,0.33-5.602,0.33
				s-2.199-0.594-2.264-0.067c-0.068,0.526-4.133,1.714-4.133,1.714s-10.201,0-11.868,0s-2.868-0.657-2.868-0.657l-3.933-3.032
				c0,0-2.666-1.582-1.799-4.413c0.865-2.832,4.466-3.097,4.466-3.097L35.735,59.79z"/>
			<g>
				<path fill="#C0B9AB" d="M49.199,46.862c-0.4,0.345,2.585-1.644,4.833-1.035c2.246,0.605,7.421,2.364,7.421,2.364
					s4.354-1.434,3.789-1.251c-0.568,0.182-6.062-8.494-9.35-8.58c-3.287-0.086-7.113-0.994-9.472,1.75
					C44.063,42.852,49.602,46.515,49.199,46.862z"/>
				<path fill="#787366" d="M51.676,38.149c1.402,0,2.856,0.176,4.216,0.211c3.252,0.084,8.672,8.582,9.332,8.582
					c0.004,0,0.014,0,0.018-0.002c0.033-0.013,0.051-0.018,0.051-0.018c0.01,0-3.84,1.269-3.84,1.269s-5.176-1.759-7.42-2.366
					c-0.301-0.082-0.614-0.116-0.934-0.116c-1.86,0-3.836,1.191-3.931,1.191c-0.01,0,0-0.013,0.032-0.04
					c0.402-0.348-5.136-4.008-2.777-6.752C47.804,38.502,49.691,38.149,51.676,38.149 M51.676,37.446
					c-1.812,0-4.107,0.251-5.787,2.206c-0.652,0.756-1.216,2.052-0.201,3.928c0.604,1.118,1.568,2.098,2.272,2.812
					c0.173,0.177,0.375,0.384,0.502,0.524c0.002,0.104,0.026,0.188,0.042,0.229l0.171,0.457l0.492,0.002
					c0.181,0,0.288-0.054,0.543-0.182c0.557-0.276,2.035-1.012,3.387-1.012c0.271,0,0.523,0.03,0.752,0.092
					c2.199,0.595,7.326,2.336,7.378,2.353l0.223,0.077l0.223-0.074c0,0,0.961-0.316,1.92-0.633c0.48-0.16,0.961-0.316,1.32-0.437
					c0.182-0.06,0.332-0.11,0.436-0.146l0.127-0.039c0.586-0.197,0.521-0.729,0.512-0.787l-0.09-0.59l-0.5-0.006
					c-0.283-0.277-0.891-1.029-1.434-1.701c-1.053-1.303-2.363-2.926-3.738-4.281c-1.732-1.709-3.143-2.551-4.314-2.582
					c-0.58-0.015-1.171-0.057-1.796-0.1C53.315,37.503,52.49,37.446,51.676,37.446L51.676,37.446z"/>
			</g>
		</g>
		<ellipse opacity="0.6" fill="#C0B9AB" enable-background="new    " cx="57.607" cy="52.607" rx="1.797" ry="1.812"/>
		<g>
			<line fill="none" x1="91.98" y1="64.954" x2="92.77" y2="69.467"/>
			
				<linearGradient id="SVGID_32_" gradientUnits="userSpaceOnUse" x1="100.2686" y1="72.6218" x2="101.1982" y2="72.6218" gradientTransform="matrix(1 0 0 -1 -8.3599 139.8335)">
				<stop  offset="0" style="stop-color:#FFFFFF"/>
				<stop  offset="1" style="stop-color:#C8C8C8"/>
			</linearGradient>
			<polygon fill="url(#SVGID_32_)" points="92.701,69.479 91.908,64.967 92.047,64.943 92.838,69.456 			"/>
		</g>
		<g>
			<line fill="none" x1="94.943" y1="67.91" x2="90.992" y2="66.177"/>
			
				<linearGradient id="SVGID_33_" gradientUnits="userSpaceOnUse" x1="99.3213" y1="72.7898" x2="103.333" y2="72.7898" gradientTransform="matrix(1 0 0 -1 -8.3599 139.8335)">
				<stop  offset="0" style="stop-color:#FFFFFF"/>
				<stop  offset="1" style="stop-color:#C8C8C8"/>
			</linearGradient>
			<polygon fill="url(#SVGID_33_)" points="94.914,67.976 90.961,66.24 91.02,66.111 94.973,67.845 			"/>
		</g>
		<g>
			<line fill="none" x1="90.201" y1="66.177" x2="93.631" y2="68.314"/>
			
				<linearGradient id="SVGID_34_" gradientUnits="userSpaceOnUse" x1="98.5244" y1="72.5876" x2="102.0283" y2="72.5876" gradientTransform="matrix(1 0 0 -1 -8.3599 139.8335)">
				<stop  offset="0" style="stop-color:#FFFFFF"/>
				<stop  offset="1" style="stop-color:#C8C8C8"/>
			</linearGradient>
			<polygon fill="url(#SVGID_34_)" points="93.594,68.375 90.164,66.234 90.236,66.117 93.668,68.254 			"/>
		</g>
		<g>
			<line fill="none" x1="90.992" y1="65.781" x2="91.387" y2="69.467"/>
			
				<linearGradient id="SVGID_35_" gradientUnits="userSpaceOnUse" x1="99.2822" y1="72.2097" x2="99.8154" y2="72.2097" gradientTransform="matrix(1 0 0 -1 -8.3599 139.8335)">
				<stop  offset="0" style="stop-color:#FFFFFF"/>
				<stop  offset="1" style="stop-color:#C8C8C8"/>
			</linearGradient>
			<polygon fill="url(#SVGID_35_)" points="91.316,69.473 90.922,65.788 91.061,65.773 91.455,69.46 			"/>
		</g>
		<g>
			<line fill="none" x1="93.971" y1="61.417" x2="96.9" y2="64.938"/>
			
				<linearGradient id="SVGID_36_" gradientUnits="userSpaceOnUse" x1="-183.5029" y1="102.7595" x2="-182.5732" y2="102.7595" gradientTransform="matrix(0.8674 -0.4976 -0.4976 -0.8674 305.3353 61.2324)">
				<stop  offset="0" style="stop-color:#FFFFFF"/>
				<stop  offset="1" style="stop-color:#C8C8C8"/>
			</linearGradient>
			<polygon fill="url(#SVGID_36_)" points="96.848,64.983 93.914,61.462 94.023,61.373 96.955,64.894 			"/>
		</g>
		<g>
			<line fill="none" x1="97.812" y1="62.507" x2="93.521" y2="62.967"/>
			
				<linearGradient id="SVGID_38_" gradientUnits="userSpaceOnUse" x1="-184.6191" y1="103.0261" x2="-180.6113" y2="103.0261" gradientTransform="matrix(0.8674 -0.4976 -0.4976 -0.8674 305.3353 61.2324)">
				<stop  offset="0" style="stop-color:#FFFFFF"/>
				<stop  offset="1" style="stop-color:#C8C8C8"/>
			</linearGradient>
			<polygon fill="url(#SVGID_38_)" points="93.531,63.038 93.516,62.898 97.807,62.436 97.822,62.576 			"/>
		</g>
		<g>
			<line fill="none" x1="93.035" y1="63.361" x2="97.074" y2="63.51"/>
			
				<linearGradient id="SVGID_39_" gradientUnits="userSpaceOnUse" x1="-185.2495" y1="102.7263" x2="-181.7432" y2="102.7263" gradientTransform="matrix(0.8674 -0.4976 -0.4976 -0.8674 305.3353 61.2324)">
				<stop  offset="0" style="stop-color:#FFFFFF"/>
				<stop  offset="1" style="stop-color:#C8C8C8"/>
			</linearGradient>
			<polygon fill="url(#SVGID_39_)" points="97.072,63.58 93.031,63.432 93.037,63.291 97.076,63.438 			"/>
		</g>
		<g>
			<line fill="none" x1="93.521" y1="62.624" x2="95.699" y2="65.627"/>
			
				<linearGradient id="SVGID_40_" gradientUnits="userSpaceOnUse" x1="-184.4902" y1="102.3484" x2="-183.9556" y2="102.3484" gradientTransform="matrix(0.8674 -0.4976 -0.4976 -0.8674 305.3353 61.2324)">
				<stop  offset="0" style="stop-color:#FFFFFF"/>
				<stop  offset="1" style="stop-color:#C8C8C8"/>
			</linearGradient>
			<polygon fill="url(#SVGID_40_)" points="95.645,65.668 93.467,62.667 93.58,62.583 95.758,65.586 			"/>
		</g>
		<g>
			<line fill="none" x1="93.533" y1="60.324" x2="97.416" y2="57.892"/>
			
				<linearGradient id="SVGID_41_" gradientUnits="userSpaceOnUse" x1="493.1572" y1="956.1882" x2="494.0859" y2="956.1882" gradientTransform="matrix(0.6691 0.7431 -0.7431 0.6691 475.7247 -947.4974)">
				<stop  offset="0" style="stop-color:#FFFFFF"/>
				<stop  offset="1" style="stop-color:#C8C8C8"/>
			</linearGradient>
			<polygon fill="url(#SVGID_41_)" points="93.57,60.385 93.496,60.265 97.377,57.834 97.453,57.952 			"/>
		</g>
		<g>
			<line fill="none" x1="97.715" y1="60.55" x2="93.779" y2="58.773"/>
			
				<linearGradient id="SVGID_42_" gradientUnits="userSpaceOnUse" x1="492.21" y1="956.3542" x2="496.2197" y2="956.3542" gradientTransform="matrix(0.6691 0.7431 -0.7431 0.6691 475.7247 -947.4974)">
				<stop  offset="0" style="stop-color:#FFFFFF"/>
				<stop  offset="1" style="stop-color:#C8C8C8"/>
			</linearGradient>
			<polygon fill="url(#SVGID_42_)" points="97.686,60.613 93.752,58.838 93.807,58.71 97.742,60.485 			"/>
		</g>
		<g>
			<line fill="none" x1="93.25" y1="58.187" x2="97.135" y2="59.304"/>
			
				<linearGradient id="SVGID_43_" gradientUnits="userSpaceOnUse" x1="491.4102" y1="956.1531" x2="494.917" y2="956.1531" gradientTransform="matrix(0.6691 0.7431 -0.7431 0.6691 475.7247 -947.4974)">
				<stop  offset="0" style="stop-color:#FFFFFF"/>
				<stop  offset="1" style="stop-color:#C8C8C8"/>
			</linearGradient>
			<polygon fill="url(#SVGID_43_)" points="97.115,59.373 93.23,58.253 93.27,58.118 97.154,59.235 			"/>
		</g>
		<g>
			<line fill="none" x1="93.486" y1="59.037" x2="96.49" y2="56.864"/>
			
				<linearGradient id="SVGID_44_" gradientUnits="userSpaceOnUse" x1="492.1699" y1="955.7761" x2="492.7051" y2="955.7761" gradientTransform="matrix(0.6691 0.7431 -0.7431 0.6691 475.7247 -947.4974)">
				<stop  offset="0" style="stop-color:#FFFFFF"/>
				<stop  offset="1" style="stop-color:#C8C8C8"/>
			</linearGradient>
			<polygon fill="url(#SVGID_44_)" points="93.525,59.094 93.445,58.982 96.447,56.806 96.531,56.922 			"/>
		</g>
		<g>
			<line fill="none" x1="92.256" y1="57.555" x2="94.23" y2="53.42"/>
			
				<linearGradient id="SVGID_45_" gradientUnits="userSpaceOnUse" x1="-145.9868" y1="363.1707" x2="-145.06" y2="363.1707" gradientTransform="matrix(0.9634 0.2682 -0.2682 0.9634 330.8322 -255.3633)">
				<stop  offset="0" style="stop-color:#FFFFFF"/>
				<stop  offset="1" style="stop-color:#C8C8C8"/>
			</linearGradient>
			<polygon fill="url(#SVGID_45_)" points="92.318,57.586 92.193,57.525 94.166,53.391 94.291,53.451 			"/>
		</g>
		<g>
			<line fill="none" x1="95.883" y1="55.832" x2="91.566" y2="55.912"/>
			
				<linearGradient id="SVGID_46_" gradientUnits="userSpaceOnUse" x1="-37.9243" y1="521.8738" x2="-33.9153" y2="521.8738" gradientTransform="matrix(0.9228 0.3853 -0.3853 0.9228 327.9427 -411.8768)">
				<stop  offset="0" style="stop-color:#FFFFFF"/>
				<stop  offset="1" style="stop-color:#C8C8C8"/>
			</linearGradient>
			<rect x="91.566" y="55.802" fill="url(#SVGID_46_)" width="4.316" height="0.14"/>
		</g>
		<g>
			<line fill="none" x1="90.838" y1="55.606" x2="94.828" y2="54.955"/>
			
				<linearGradient id="SVGID_47_" gradientUnits="userSpaceOnUse" x1="-38.7231" y1="521.6726" x2="-35.2212" y2="521.6726" gradientTransform="matrix(0.9228 0.3853 -0.3853 0.9228 327.9427 -411.8768)">
				<stop  offset="0" style="stop-color:#FFFFFF"/>
				<stop  offset="1" style="stop-color:#C8C8C8"/>
			</linearGradient>
			<polygon fill="url(#SVGID_47_)" points="90.848,55.676 90.826,55.536 94.814,54.885 94.836,55.024 			"/>
		</g>
		<g>
			<line fill="none" x1="91.414" y1="56.276" x2="93.199" y2="53.025"/>
			
				<linearGradient id="SVGID_48_" gradientUnits="userSpaceOnUse" x1="-37.9653" y1="521.2937" x2="-37.4302" y2="521.2937" gradientTransform="matrix(0.9228 0.3853 -0.3853 0.9228 327.9427 -411.8768)">
				<stop  offset="0" style="stop-color:#FFFFFF"/>
				<stop  offset="1" style="stop-color:#C8C8C8"/>
			</linearGradient>
			<polygon fill="url(#SVGID_48_)" points="91.477,56.309 91.354,56.241 93.141,52.993 93.262,53.059 			"/>
		</g>
		<g>
			<line fill="none" x1="86.084" y1="66.23" x2="87.574" y2="70.561"/>
			
				<linearGradient id="SVGID_49_" gradientUnits="userSpaceOnUse" x1="2519.8486" y1="140.8445" x2="2520.7764" y2="140.8445" gradientTransform="matrix(-0.8753 0.4836 -0.4836 -0.8753 2360.9521 -1027.1337)">
				<stop  offset="0" style="stop-color:#FFFFFF"/>
				<stop  offset="1" style="stop-color:#C8C8C8"/>
			</linearGradient>
			<polygon fill="url(#SVGID_49_)" points="87.51,70.584 86.02,66.253 86.152,66.207 87.643,70.539 			"/>
		</g>
		<g>
			<line fill="none" x1="84.922" y1="70.11" x2="87.541" y2="66.679"/>
			
				<linearGradient id="SVGID_50_" gradientUnits="userSpaceOnUse" x1="2518.834" y1="141.1355" x2="2522.8438" y2="141.1355" gradientTransform="matrix(-0.8753 0.4836 -0.4836 -0.8753 2360.9521 -1027.1337)">
				<stop  offset="0" style="stop-color:#FFFFFF"/>
				<stop  offset="1" style="stop-color:#C8C8C8"/>
			</linearGradient>
			<polygon fill="url(#SVGID_50_)" points="84.977,70.153 84.865,70.068 87.486,66.637 87.598,66.723 			"/>
		</g>
		<g>
			<line fill="none" x1="88.232" y1="66.438" x2="86.266" y2="69.969"/>
			
				<linearGradient id="SVGID_51_" gradientUnits="userSpaceOnUse" x1="2518.1025" y1="140.8093" x2="2521.6074" y2="140.8093" gradientTransform="matrix(-0.8753 0.4836 -0.4836 -0.8753 2360.9521 -1027.1337)">
				<stop  offset="0" style="stop-color:#FFFFFF"/>
				<stop  offset="1" style="stop-color:#C8C8C8"/>
			</linearGradient>
			<polygon fill="url(#SVGID_51_)" points="86.326,70.005 86.203,69.935 88.172,66.406 88.295,66.471 			"/>
		</g>
		<g>
			<line fill="none" x1="87.352" y1="66.474" x2="88.787" y2="69.892"/>
			
				<linearGradient id="SVGID_52_" gradientUnits="userSpaceOnUse" x1="2518.8604" y1="140.4314" x2="2519.3955" y2="140.4314" gradientTransform="matrix(-0.8753 0.4836 -0.4836 -0.8753 2360.9521 -1027.1337)">
				<stop  offset="0" style="stop-color:#FFFFFF"/>
				<stop  offset="1" style="stop-color:#C8C8C8"/>
			</linearGradient>
			<polygon fill="url(#SVGID_52_)" points="88.721,69.919 87.285,66.503 87.414,66.448 88.85,69.867 			"/>
		</g>
		<g>
			<line fill="none" x1="23.338" y1="63.035" x2="27.22" y2="60.603"/>
			
				<linearGradient id="SVGID_53_" gradientUnits="userSpaceOnUse" x1="448.2041" y1="1010.1677" x2="449.131" y2="1010.1677" gradientTransform="matrix(0.6691 0.7431 -0.7431 0.6691 475.7247 -947.4974)">
				<stop  offset="0" style="stop-color:#FFFFFF"/>
				<stop  offset="1" style="stop-color:#C8C8C8"/>
			</linearGradient>
			<polygon fill="url(#SVGID_53_)" points="23.376,63.094 23.301,62.976 27.184,60.543 27.258,60.662 			"/>
		</g>
		<g>
			<line fill="none" x1="27.518" y1="63.26" x2="23.584" y2="61.485"/>
			
				<linearGradient id="SVGID_54_" gradientUnits="userSpaceOnUse" x1="447.2539" y1="1010.3367" x2="451.2637" y2="1010.3367" gradientTransform="matrix(0.6691 0.7431 -0.7431 0.6691 475.7247 -947.4974)">
				<stop  offset="0" style="stop-color:#FFFFFF"/>
				<stop  offset="1" style="stop-color:#C8C8C8"/>
			</linearGradient>
			<polygon fill="url(#SVGID_54_)" points="27.49,63.324 23.554,61.548 23.613,61.42 27.547,63.195 			"/>
		</g>
		<g>
			<line fill="none" x1="23.054" y1="60.895" x2="26.939" y2="62.013"/>
			
				<linearGradient id="SVGID_55_" gradientUnits="userSpaceOnUse" x1="446.4551" y1="1010.1355" x2="449.958" y2="1010.1355" gradientTransform="matrix(0.6691 0.7431 -0.7431 0.6691 475.7247 -947.4974)">
				<stop  offset="0" style="stop-color:#FFFFFF"/>
				<stop  offset="1" style="stop-color:#C8C8C8"/>
			</linearGradient>
			<polygon fill="url(#SVGID_55_)" points="26.919,62.081 23.035,60.964 23.074,60.829 26.959,61.948 			"/>
		</g>
		<g>
			<line fill="none" x1="23.973" y1="61.635" x2="26.977" y2="59.463"/>
			
				<linearGradient id="SVGID_56_" gradientUnits="userSpaceOnUse" x1="447.5869" y1="1009.1746" x2="448.122" y2="1009.1746" gradientTransform="matrix(0.6691 0.7431 -0.7431 0.6691 475.7247 -947.4974)">
				<stop  offset="0" style="stop-color:#FFFFFF"/>
				<stop  offset="1" style="stop-color:#C8C8C8"/>
			</linearGradient>
			<polygon fill="url(#SVGID_56_)" points="24.013,61.693 23.932,61.58 26.937,59.407 27.018,59.52 			"/>
		</g>
		<g>
			<line fill="none" x1="14.088" y1="61.41" x2="10.206" y2="63.842"/>
			
				<linearGradient id="SVGID_57_" gradientUnits="userSpaceOnUse" x1="1164.9229" y1="-875.1956" x2="1165.8516" y2="-875.1956" gradientTransform="matrix(-0.6691 -0.7431 0.7431 -0.6691 1442.3359 343.1083)">
				<stop  offset="0" style="stop-color:#FFFFFF"/>
				<stop  offset="1" style="stop-color:#C8C8C8"/>
			</linearGradient>
			<polygon fill="url(#SVGID_57_)" points="10.243,63.9 10.169,63.781 14.051,61.349 14.126,61.469 			"/>
		</g>
		<g>
			<line fill="none" x1="10.18" y1="61.127" x2="14.114" y2="63.158"/>
			
				<linearGradient id="SVGID_58_" gradientUnits="userSpaceOnUse" x1="1163.6484" y1="-874.8733" x2="1167.8398" y2="-874.8733" gradientTransform="matrix(-0.6691 -0.7431 0.7431 -0.6691 1442.3359 343.1083)">
				<stop  offset="0" style="stop-color:#FFFFFF"/>
				<stop  offset="1" style="stop-color:#C8C8C8"/>
			</linearGradient>
			<polygon fill="url(#SVGID_58_)" points="14.082,63.219 10.147,61.189 10.211,61.065 14.146,63.095 			"/>
		</g>
		<g>
			<line fill="none" x1="13.712" y1="63.368" x2="9.828" y2="62.249"/>
			
				<linearGradient id="SVGID_59_" gradientUnits="userSpaceOnUse" x1="1163.749" y1="-875.5989" x2="1167.2529" y2="-875.5989" gradientTransform="matrix(-0.6691 -0.7431 0.7431 -0.6691 1442.3359 343.1083)">
				<stop  offset="0" style="stop-color:#FFFFFF"/>
				<stop  offset="1" style="stop-color:#C8C8C8"/>
			</linearGradient>
			<polygon fill="url(#SVGID_59_)" points="13.692,63.434 9.808,62.316 9.847,62.182 13.731,63.3 			"/>
		</g>
		<g>
			<line fill="none" x1="13.649" y1="62.866" x2="10.645" y2="65.041"/>
			
				<linearGradient id="SVGID_60_" gradientUnits="userSpaceOnUse" x1="1164.1309" y1="-876.0852" x2="1164.667" y2="-876.0852" gradientTransform="matrix(-0.6691 -0.7431 0.7431 -0.6691 1442.3359 343.1083)">
				<stop  offset="0" style="stop-color:#FFFFFF"/>
				<stop  offset="1" style="stop-color:#C8C8C8"/>
			</linearGradient>
			<polygon fill="url(#SVGID_60_)" points="10.685,65.096 10.604,64.983 13.609,62.81 13.69,62.924 			"/>
		</g>
		<g>
			<line fill="none" x1="14.469" y1="64.53" x2="14.068" y2="69.094"/>
			
				<linearGradient id="SVGID_61_" gradientUnits="userSpaceOnUse" x1="1873.2402" y1="-64.2844" x2="1874.1699" y2="-64.2844" gradientTransform="matrix(-0.9963 0.0857 -0.0857 -0.9963 1875.5886 -157.8173)">
				<stop  offset="0" style="stop-color:#FFFFFF"/>
				<stop  offset="1" style="stop-color:#C8C8C8"/>
			</linearGradient>
			<polygon fill="url(#SVGID_61_)" points="14.139,69.1 13.999,69.089 14.399,64.524 14.54,64.537 			"/>
		</g>
		<g>
			<line fill="none" x1="11.77" y1="67.729" x2="15.559" y2="65.662"/>
			
				<linearGradient id="SVGID_62_" gradientUnits="userSpaceOnUse" x1="1872.293" y1="-64.1165" x2="1876.3027" y2="-64.1165" gradientTransform="matrix(-0.9963 0.0857 -0.0857 -0.9963 1875.5886 -157.8173)">
				<stop  offset="0" style="stop-color:#FFFFFF"/>
				<stop  offset="1" style="stop-color:#C8C8C8"/>
			</linearGradient>
			<polygon fill="url(#SVGID_62_)" points="11.804,67.791 11.735,67.67 15.525,65.6 15.593,65.725 			"/>
		</g>
		<g>
			<line fill="none" x1="16.087" y1="66.033" x2="12.853" y2="68.458"/>
			
				<linearGradient id="SVGID_63_" gradientUnits="userSpaceOnUse" x1="1871.791" y1="-64.7327" x2="1875.2949" y2="-64.7327" gradientTransform="matrix(-0.9963 0.0857 -0.0857 -0.9963 1875.5886 -157.8173)">
				<stop  offset="0" style="stop-color:#FFFFFF"/>
				<stop  offset="1" style="stop-color:#C8C8C8"/>
			</linearGradient>
			<polygon fill="url(#SVGID_63_)" points="12.894,68.514 12.811,68.4 16.044,65.975 16.129,66.09 			"/>
		</g>
		<g>
			<line fill="none" x1="15.385" y1="65.691" x2="15.306" y2="69.397"/>
			
				<linearGradient id="SVGID_64_" gradientUnits="userSpaceOnUse" x1="1872.4297" y1="-65.1072" x2="1872.9653" y2="-65.1072" gradientTransform="matrix(-0.9963 0.0857 -0.0857 -0.9963 1875.5886 -157.8173)">
				<stop  offset="0" style="stop-color:#FFFFFF"/>
				<stop  offset="1" style="stop-color:#C8C8C8"/>
			</linearGradient>
			<rect x="15.275" y="65.691" fill="url(#SVGID_64_)" width="0.141" height="3.707"/>
		</g>
		<g>
			<line fill="none" x1="17.454" y1="66.587" x2="20.361" y2="70.126"/>
			
				<linearGradient id="SVGID_65_" gradientUnits="userSpaceOnUse" x1="1706.3838" y1="671.3279" x2="1707.3135" y2="671.3279" gradientTransform="matrix(-0.6517 0.7585 -0.7585 -0.6517 1640.4332 -788.7515)">
				<stop  offset="0" style="stop-color:#FFFFFF"/>
				<stop  offset="1" style="stop-color:#C8C8C8"/>
			</linearGradient>
			<polygon fill="url(#SVGID_65_)" points="20.308,70.171 17.4,66.629 17.509,66.54 20.416,70.08 			"/>
		</g>
		<g>
			<line fill="none" x1="17.764" y1="70.76" x2="19.024" y2="66.632"/>
			
				<linearGradient id="SVGID_66_" gradientUnits="userSpaceOnUse" x1="1705.4395" y1="671.4949" x2="1709.4473" y2="671.4949" gradientTransform="matrix(-0.6517 0.7585 -0.7585 -0.6517 1640.4332 -788.7515)">
				<stop  offset="0" style="stop-color:#FFFFFF"/>
				<stop  offset="1" style="stop-color:#C8C8C8"/>
			</linearGradient>
			<polygon fill="url(#SVGID_66_)" points="17.831,70.78 17.697,70.739 18.958,66.611 19.091,66.652 			"/>
		</g>
		<g>
			<line fill="none" x1="19.252" y1="66.554" x2="18.638" y2="70.55"/>
			
				<linearGradient id="SVGID_67_" gradientUnits="userSpaceOnUse" x1="1705.2227" y1="671.1707" x2="1708.7256" y2="671.1707" gradientTransform="matrix(-0.6517 0.7585 -0.7585 -0.6517 1640.4332 -788.7515)">
				<stop  offset="0" style="stop-color:#FFFFFF"/>
				<stop  offset="1" style="stop-color:#C8C8C8"/>
			</linearGradient>
			<polygon fill="url(#SVGID_67_)" points="18.708,70.559 18.569,70.539 19.183,66.544 19.321,66.566 			"/>
		</g>
		<g>
			<line fill="none" x1="19.286" y1="67.356" x2="21.825" y2="70.058"/>
			
				<linearGradient id="SVGID_68_" gradientUnits="userSpaceOnUse" x1="1705.7744" y1="669.8474" x2="1706.3096" y2="669.8474" gradientTransform="matrix(-0.6517 0.7585 -0.7585 -0.6517 1640.4332 -788.7515)">
				<stop  offset="0" style="stop-color:#FFFFFF"/>
				<stop  offset="1" style="stop-color:#C8C8C8"/>
			</linearGradient>
			<polygon fill="url(#SVGID_68_)" points="21.773,70.106 19.234,67.405 19.337,67.307 21.876,70.011 			"/>
		</g>
		<g>
			<line fill="none" x1="21.297" y1="66.001" x2="25.833" y2="66.641"/>
			
				<linearGradient id="SVGID_69_" gradientUnits="userSpaceOnUse" x1="1101.8252" y1="1083.7214" x2="1102.7529" y2="1083.7214" gradientTransform="matrix(0.0331 0.9995 -0.9995 0.0331 1070.2585 -1071.2358)">
				<stop  offset="0" style="stop-color:#FFFFFF"/>
				<stop  offset="1" style="stop-color:#C8C8C8"/>
			</linearGradient>
			<polygon fill="url(#SVGID_69_)" points="25.823,66.711 21.287,66.07 21.307,65.932 25.842,66.573 			"/>
		</g>
		<g>
			<line fill="none" x1="24.349" y1="68.866" x2="22.485" y2="64.973"/>
			
				<linearGradient id="SVGID_70_" gradientUnits="userSpaceOnUse" x1="1100.8779" y1="1083.8875" x2="1104.8877" y2="1083.8875" gradientTransform="matrix(0.0331 0.9995 -0.9995 0.0331 1070.2585 -1071.2358)">
				<stop  offset="0" style="stop-color:#FFFFFF"/>
				<stop  offset="1" style="stop-color:#C8C8C8"/>
			</linearGradient>
			<polygon fill="url(#SVGID_70_)" points="24.287,68.897 22.421,65.004 22.547,64.943 24.413,68.837 			"/>
		</g>
		<g>
			<line fill="none" x1="23.224" y1="64.76" x2="25.475" y2="68.117"/>
			
				<linearGradient id="SVGID_71_" gradientUnits="userSpaceOnUse" x1="1100.6807" y1="1082.9402" x2="1104.1846" y2="1082.9402" gradientTransform="matrix(0.0331 0.9995 -0.9995 0.0331 1070.2585 -1071.2358)">
				<stop  offset="0" style="stop-color:#FFFFFF"/>
				<stop  offset="1" style="stop-color:#C8C8C8"/>
			</linearGradient>
			<polygon fill="url(#SVGID_71_)" points="25.417,68.157 23.166,64.799 23.282,64.721 25.532,68.079 			"/>
		</g>
		<g>
			<line fill="none" x1="22.791" y1="65.127" x2="26.489" y2="65.399"/>
			
				<linearGradient id="SVGID_72_" gradientUnits="userSpaceOnUse" x1="1101.001" y1="1082.6111" x2="1101.5342" y2="1082.6111" gradientTransform="matrix(0.0331 0.9995 -0.9995 0.0331 1070.2585 -1071.2358)">
				<stop  offset="0" style="stop-color:#FFFFFF"/>
				<stop  offset="1" style="stop-color:#C8C8C8"/>
			</linearGradient>
			<polygon fill="url(#SVGID_72_)" points="26.484,65.469 22.786,65.198 22.796,65.057 26.494,65.33 			"/>
		</g>
		<g>
			<line fill="none" x1="14.922" y1="58.273" x2="10.405" y2="59.033"/>
			
				<linearGradient id="SVGID_73_" gradientUnits="userSpaceOnUse" x1="796.6338" y1="-768.3679" x2="797.5605" y2="-768.3679" gradientTransform="matrix(-0.3336 -0.9427 0.9427 -0.3336 1002.9045 553.7165)">
				<stop  offset="0" style="stop-color:#FFFFFF"/>
				<stop  offset="1" style="stop-color:#C8C8C8"/>
			</linearGradient>
			<polygon fill="url(#SVGID_73_)" points="10.416,59.101 10.393,58.965 14.912,58.203 14.934,58.343 			"/>
		</g>
		<g>
			<line fill="none" x1="12.147" y1="56.626" x2="15.101" y2="59.774"/>
			
				<linearGradient id="SVGID_74_" gradientUnits="userSpaceOnUse" x1="795.2012" y1="-767.3113" x2="799.209" y2="-767.3113" gradientTransform="matrix(-0.3336 -0.9427 0.9427 -0.3336 1002.9045 553.7165)">
				<stop  offset="0" style="stop-color:#FFFFFF"/>
				<stop  offset="1" style="stop-color:#C8C8C8"/>
			</linearGradient>
			<polygon fill="url(#SVGID_74_)" points="15.05,59.82 12.097,56.676 12.198,56.578 15.153,59.725 			"/>
		</g>
		<g>
			<line fill="none" x1="14.729" y1="60.005" x2="11.57" y2="57.484"/>
			
				<linearGradient id="SVGID_75_" gradientUnits="userSpaceOnUse" x1="795.0986" y1="-767.9407" x2="798.6025" y2="-767.9407" gradientTransform="matrix(-0.3336 -0.9427 0.9427 -0.3336 1002.9045 553.7165)">
				<stop  offset="0" style="stop-color:#FFFFFF"/>
				<stop  offset="1" style="stop-color:#C8C8C8"/>
			</linearGradient>
			<polygon fill="url(#SVGID_75_)" points="14.687,60.059 11.526,57.541 11.613,57.429 14.773,59.95 			"/>
		</g>
		<g>
			<line fill="none" x1="13.951" y1="59.145" x2="10.344" y2="60.004"/>
			
				<linearGradient id="SVGID_76_" gradientUnits="userSpaceOnUse" x1="796.1318" y1="-769.1628" x2="796.668" y2="-769.1628" gradientTransform="matrix(-0.3336 -0.9427 0.9427 -0.3336 1002.9045 553.7165)">
				<stop  offset="0" style="stop-color:#FFFFFF"/>
				<stop  offset="1" style="stop-color:#C8C8C8"/>
			</linearGradient>
			<polygon fill="url(#SVGID_76_)" points="10.359,60.071 10.328,59.935 13.935,59.078 13.968,59.216 			"/>
		</g>
		<path fill="#FFFFFF" d="M53.572,50.691l0.63-0.983l0.039,0.002c2.917,0.09,10.451-2.611,10.662-2.725
			c0.064-0.037,0.131-0.055,0.193-0.055c0.238,0,0.346,0.256,0.348,0.267l0.006,0.014l-0.018,0.408l-0.039,0.018
			c-4.504,2.006-11.597,3.026-11.669,3.034L53.572,50.691z M54.277,49.85l-0.422,0.658c1.053-0.16,7.319-1.16,11.44-2.981
			l0.014-0.292c-0.021-0.039-0.09-0.165-0.213-0.165c-0.039,0-0.082,0.013-0.129,0.036c-0.373,0.205-7.57,2.744-10.585,2.744
			C54.346,49.85,54.312,49.85,54.277,49.85z"/>
		<path fill="#FFFFFF" d="M61.672,60.754c-0.289,0-0.51-0.094-0.648-0.282c-0.285-0.377-0.154-1.01-0.111-1.18l-5.271-4.81
			l0.81-0.134l0.023,0.021c1.816,1.718,4.777,4.097,5.182,4.42c1.061-1.021,3.943-9.881,3.973-9.972l0.047-0.142l0.078,0.125
			c0.287,0.449,0.801,0.392,0.809,0.391l0.117-0.016l-0.043,0.108L62.752,59.51c0.047,0.1,0.178,0.44,0.021,0.749
			c-0.135,0.259-0.434,0.423-0.896,0.481C61.807,60.751,61.738,60.754,61.672,60.754z M55.949,54.572l5.121,4.675l-0.014,0.041
			c-0.002,0.007-0.203,0.726,0.078,1.101c0.141,0.187,0.387,0.257,0.725,0.214c0.412-0.055,0.676-0.19,0.789-0.407
			c0.148-0.294-0.035-0.645-0.035-0.648l-0.018-0.029l0.014-0.028l3.861-10.152c-0.17-0.005-0.502-0.053-0.752-0.344
			c-0.381,1.164-3.016,9.144-4.016,9.944l-0.047,0.035l-0.043-0.035c-0.033-0.027-3.262-2.599-5.211-4.438L55.949,54.572z"/>
		<g>
			<path fill="#C0B9AB" d="M54.962,54.902l-7.479,2.486c0,0-0.439-1.188-1.289-1.973l7.925-2.874
				C54.12,52.541,55.173,53.842,54.962,54.902z"/>
			<path fill="#787366" d="M47.441,57.475l-0.023-0.063c-0.005-0.014-0.443-1.18-1.271-1.946l-0.084-0.077l8.08-2.93l0.031,0.038
				c0.045,0.055,1.072,1.341,0.856,2.421l-0.008,0.038L47.441,57.475z M46.325,55.442c0.698,0.688,1.099,1.607,1.2,1.857l7.376-2.45
				c0.15-0.908-0.639-2.005-0.805-2.224L46.325,55.442z"/>
		</g>
		<path fill="#C0B9AB" d="M55.161,54.776l2.763-0.811c0,0,1.217-0.698,1.162-1.425c-0.053-0.722-0.125-1.017-1.018-1.192
			c-0.889-0.176-2.049,0.803-2.049,0.803l-1.646,0.391L55.161,54.776z"/>
		
			<linearGradient id="SVGID_77_" gradientUnits="userSpaceOnUse" x1="62.4521" y1="86.1394" x2="63.5371" y2="86.1394" gradientTransform="matrix(1 0 0 -1 -8.3599 139.8335)">
			<stop  offset="0" style="stop-color:#FFFFFF"/>
			<stop  offset="1" style="stop-color:#C8C8C8"/>
		</linearGradient>
		<path fill="url(#SVGID_77_)" d="M54.092,52.634c0,0,1.04,1.337,0.783,2.213l0.28-0.07c0,0,0.224-1.172-0.761-2.235L54.092,52.634z
			"/>
		<path fill="#FFFFFF" d="M67.242,49.771c-0.404,0-0.709-0.098-0.713-0.099l0.043-0.133c0.012,0.004,1.383,0.441,2.168-0.627
			l0.113,0.083C68.389,49.629,67.74,49.771,67.242,49.771z"/>
		<path fill="#FFFFFF" d="M67.242,50.661c-0.404,0-0.709-0.099-0.713-0.1l0.043-0.133c0.012,0.004,1.383,0.441,2.168-0.626
			l0.113,0.083C68.389,50.518,67.74,50.661,67.242,50.661z"/>
		<path fill="#FFFFFF" d="M67.242,51.611c-0.404,0-0.709-0.099-0.713-0.102l0.043-0.133c0.012,0.006,1.383,0.442,2.168-0.624
			l0.113,0.082C68.389,51.469,67.74,51.611,67.242,51.611z"/>
		<path fill="#FFFFFF" d="M67.242,52.501c-0.404,0-0.709-0.098-0.713-0.102l0.043-0.133c0.012,0.005,1.383,0.444,2.168-0.624
			l0.113,0.083C68.389,52.357,67.74,52.501,67.242,52.501z"/>
		<path fill="#FFFFFF" d="M67.242,53.433c-0.404,0-0.709-0.097-0.713-0.1l0.043-0.135c0.012,0.006,1.383,0.445,2.168-0.624
			l0.113,0.084C68.389,53.29,67.74,53.433,67.242,53.433z"/>
		<path fill="#FFFFFF" d="M67.242,54.323c-0.404,0-0.709-0.097-0.713-0.1l0.043-0.133c0.012,0.006,1.383,0.442,2.168-0.624
			l0.113,0.082C68.389,54.18,67.74,54.323,67.242,54.323z"/>
		<path fill="#FFFFFF" d="M67.242,55.273c-0.404,0-0.709-0.099-0.713-0.1l0.043-0.133c0.012,0.004,1.383,0.44,2.168-0.624
			l0.113,0.082C68.389,55.13,67.74,55.273,67.242,55.273z"/>
		<path fill="#FFFFFF" d="M67.242,56.162c-0.404,0-0.709-0.099-0.713-0.102l0.043-0.133c0.012,0.006,1.383,0.444,2.168-0.622
			l0.113,0.082C68.389,56.019,67.74,56.162,67.242,56.162z"/>
		
			<linearGradient id="SVGID_78_" gradientUnits="userSpaceOnUse" x1="71.085" y1="90.1453" x2="93.6787" y2="90.1453" gradientTransform="matrix(1 0 0 -1 -8.3599 139.8335)">
			<stop  offset="0" style="stop-color:#FFFFFF"/>
			<stop  offset="1" style="stop-color:#C8C8C8"/>
		</linearGradient>
		<polygon fill="url(#SVGID_78_)" points="62.822,59.897 62.725,59.796 62.916,59.611 85.223,39.478 85.318,39.583 63.012,59.714 		
			"/>
		
			<linearGradient id="SVGID_79_" gradientUnits="userSpaceOnUse" x1="71.3799" y1="90.6814" x2="92.21" y2="90.6814" gradientTransform="matrix(1 0 0 -1 -8.3599 139.8335)">
			<stop  offset="0" style="stop-color:#FFFFFF"/>
			<stop  offset="1" style="stop-color:#C8C8C8"/>
		</linearGradient>
		<polygon fill="url(#SVGID_79_)" points="63.113,58.539 63.02,58.434 83.754,39.765 83.85,39.87 		"/>
		
			<linearGradient id="SVGID_80_" gradientUnits="userSpaceOnUse" x1="76.6045" y1="85.0183" x2="86.0693" y2="85.0183" gradientTransform="matrix(1 0 0 -1 -8.3599 139.8335)">
			<stop  offset="0" style="stop-color:#FFFFFF"/>
			<stop  offset="1" style="stop-color:#C8C8C8"/>
		</linearGradient>
		<path fill="url(#SVGID_80_)" d="M76.314,57.791l-8.07-2.989l0.74-0.666l7.207,2.637l-5.205-4.446l0.539-0.487l0.049,0.041
			l6.135,5.266L76.314,57.791z M68.51,54.751l7.799,2.889l1.141-0.533l-5.92-5.08l-0.33,0.297l5.678,4.851l-7.863-2.876
			L68.51,54.751z"/>
	</g>
	<g>
		<g>
			<g>
				<g>
					<g>
						<path fill="#FFFFFF" d="M85.352,103.807h-2.82c-1.752,0-3.174-1.423-3.174-3.173v-3.157c-1.049-0.316-2.057-0.736-3.008-1.253
							l-2.277,2.278c-0.604,0.603-1.402,0.934-2.254,0.934c-0.854,0-1.654-0.332-2.258-0.934l-2.006-2.009
							c-0.602-0.602-0.932-1.402-0.932-2.253c0-0.853,0.33-1.655,0.932-2.256l2.324-2.324c-0.455-0.866-0.832-1.8-1.125-2.781
							h-3.158c-1.752,0-3.176-1.424-3.176-3.175v-2.822c0-1.749,1.424-3.174,3.176-3.174h3.16c0.303-1.012,0.703-1.981,1.189-2.895
							l-2.387-2.389c-0.604-0.604-0.936-1.403-0.936-2.257c0-0.853,0.332-1.652,0.936-2.255l2.006-2.006
							c0.602-0.603,1.4-0.935,2.254-0.935s1.654,0.332,2.254,0.935l2.391,2.389c0.908-0.484,1.879-0.884,2.895-1.189v-3.158
							c0-1.75,1.422-3.176,3.174-3.176h2.822c1.752,0,3.174,1.426,3.174,3.176v3.157c0.984,0.296,1.918,0.673,2.781,1.125
							l2.326-2.324c0.602-0.603,1.402-0.934,2.254-0.934s1.652,0.332,2.254,0.934l2.008,2.006c0.602,0.604,0.932,1.403,0.932,2.257
							c0,0.854-0.332,1.653-0.932,2.255l-2.277,2.277c0.516,0.95,0.939,1.958,1.254,3.006h3.156c1.752,0,3.174,1.425,3.174,3.174
							v2.822c0,1.751-1.422,3.175-3.174,3.175h-3.156c-0.307,1.016-0.705,1.984-1.191,2.896l2.213,2.212
							c0.6,0.603,0.932,1.403,0.932,2.256c0,0.851-0.332,1.654-0.932,2.252l-2.008,2.009c-0.602,0.603-1.402,0.935-2.256,0.935
							c-0.85,0-1.65-0.333-2.252-0.935l-2.213-2.214c-0.91,0.486-1.879,0.885-2.895,1.192v3.16
							C88.527,102.384,87.104,103.807,85.352,103.807z M76.23,95.344l0.234,0.134c1.045,0.595,2.17,1.064,3.338,1.396l0.258,0.072
							v3.688c0,1.361,1.109,2.467,2.471,2.467h2.824c1.361,0,2.467-1.106,2.467-2.467v-3.688l0.258-0.073
							c1.143-0.324,2.23-0.773,3.234-1.331l0.232-0.13l2.586,2.587c0.938,0.939,2.572,0.939,3.512,0l2.008-2.007
							c0.467-0.47,0.727-1.093,0.727-1.756c0-0.665-0.258-1.288-0.727-1.758l-2.588-2.587l0.131-0.233
							c0.559-1.005,1.008-2.092,1.33-3.233l0.074-0.256h3.689c1.361,0,2.469-1.105,2.469-2.47v-2.821
							c0-1.361-1.107-2.469-2.469-2.469H98.6l-0.074-0.255c-0.33-1.175-0.803-2.298-1.395-3.342l-0.135-0.234l2.658-2.655
							c0.469-0.47,0.729-1.094,0.729-1.757c0-0.664-0.26-1.289-0.729-1.758l-2.006-2.006c-0.939-0.939-2.574-0.939-3.512,0
							l-2.697,2.694l-0.23-0.126c-0.957-0.523-2.01-0.948-3.127-1.265l-0.258-0.07v-3.688c0-1.362-1.107-2.471-2.469-2.471h-2.822
							c-1.363,0-2.469,1.108-2.469,2.471v3.689l-0.26,0.072c-1.141,0.322-2.229,0.771-3.23,1.33l-0.234,0.131l-2.764-2.764
							c-0.938-0.939-2.572-0.939-3.51,0l-2.004,2.007c-0.469,0.468-0.729,1.091-0.729,1.756c0,0.663,0.26,1.287,0.729,1.759
							l2.764,2.763l-0.131,0.231c-0.561,1.007-1.006,2.095-1.33,3.234l-0.074,0.255h-3.688c-1.363,0-2.471,1.109-2.471,2.469v2.822
							c0,1.365,1.107,2.471,2.471,2.471h3.688l0.074,0.258c0.314,1.11,0.74,2.164,1.266,3.126l0.127,0.23l-2.695,2.694
							c-0.469,0.471-0.727,1.093-0.727,1.758c0,0.662,0.258,1.288,0.727,1.756l2.004,2.007c0.938,0.939,2.574,0.939,3.512,0
							L76.23,95.344z M83.943,91.108c-4.863,0-8.82-3.953-8.82-8.817s3.957-8.818,8.82-8.818c4.861,0,8.816,3.956,8.816,8.818
							C92.76,87.155,88.805,91.108,83.943,91.108z M83.943,74.177c-4.475,0-8.113,3.64-8.113,8.114c0,4.474,3.639,8.112,8.113,8.112
							c4.473,0,8.111-3.639,8.111-8.112S88.416,74.177,83.943,74.177z"/>
						<path fill="#777266" d="M104.754,80.879c0-1.359-1.107-2.469-2.469-2.469h-3.689l-0.072-0.256
							c-0.332-1.171-0.803-2.297-1.395-3.341l-0.133-0.235l2.656-2.654c0.469-0.47,0.729-1.094,0.729-1.757
							c0-0.664-0.26-1.289-0.729-1.759l-2.006-2.006c-0.939-0.938-2.574-0.938-3.512,0l-2.697,2.695l-0.23-0.126
							c-0.957-0.524-2.01-0.948-3.127-1.265l-0.258-0.072v-3.688c0-1.361-1.107-2.471-2.471-2.471h-2.82
							c-1.363,0-2.471,1.108-2.471,2.471v3.688l-0.258,0.072c-1.141,0.324-2.229,0.771-3.232,1.33l-0.232,0.131l-2.764-2.763
							c-0.938-0.94-2.572-0.94-3.512,0l-2.004,2.007c-0.469,0.468-0.729,1.091-0.729,1.756c0,0.662,0.26,1.288,0.729,1.757
							l2.764,2.764l-0.131,0.231c-0.561,1.006-1.008,2.095-1.33,3.234l-0.074,0.255H65.6c-1.363,0-2.469,1.109-2.469,2.469v2.822
							c0,1.365,1.105,2.471,2.469,2.471h3.688l0.074,0.258c0.314,1.111,0.738,2.163,1.266,3.127l0.127,0.23l-2.697,2.695
							c-0.467,0.469-0.727,1.092-0.727,1.757c0,0.661,0.26,1.287,0.727,1.755l2.006,2.007c0.938,0.939,2.574,0.939,3.512,0
							l2.658-2.657l0.232,0.134c1.047,0.595,2.17,1.063,3.34,1.395l0.258,0.073v3.688c0,1.362,1.107,2.469,2.469,2.469h2.822
							c1.361,0,2.469-1.105,2.469-2.469v-3.688l0.258-0.073c1.143-0.325,2.23-0.771,3.234-1.332l0.232-0.129L94.135,98
							c0.939,0.938,2.572,0.938,3.514,0l2.004-2.007c0.471-0.47,0.729-1.093,0.729-1.756c0-0.665-0.258-1.287-0.729-1.759
							l-2.586-2.587l0.131-0.232c0.561-1.004,1.008-2.091,1.332-3.233l0.072-0.256h3.689c1.361,0,2.469-1.104,2.469-2.469V80.88
							L104.754,80.879L104.754,80.879z M83.943,91.108c-4.863,0-8.82-3.953-8.82-8.817s3.957-8.818,8.82-8.818
							c4.861,0,8.816,3.956,8.816,8.818C92.76,87.155,88.805,91.108,83.943,91.108z"/>
					</g>
				</g>
			</g>
		</g>
		<path opacity="0.6" fill="#C1BAAC" enable-background="new    " d="M69.287,86.171l0.074,0.258
			c0.082,0.293,0.174,0.58,0.271,0.862c1.549-2.244,3.428-4.318,5.582-6.185c0.582-4.303,4.27-7.635,8.729-7.635
			c1.125,0,2.195,0.221,3.184,0.604c4.014-1.528,8.398-2.521,13.016-2.865c0.15-0.324,0.238-0.677,0.238-1.043
			c0-0.664-0.26-1.289-0.727-1.758l-2.008-2.007c-0.938-0.938-2.572-0.938-3.512,0L91.439,69.1l-0.232-0.129
			c-0.955-0.524-2.01-0.948-3.127-1.265l-0.26-0.071v-3.688c0-1.361-1.107-2.47-2.469-2.47h-2.822c-1.361,0-2.469,1.108-2.469,2.47
			v3.688l-0.258,0.073c-1.143,0.323-2.229,0.771-3.232,1.33l-0.232,0.131l-2.764-2.764c-0.938-0.939-2.572-0.939-3.512,0
			l-2.006,2.006c-0.467,0.47-0.727,1.093-0.727,1.758c0,0.663,0.26,1.287,0.727,1.759l2.764,2.762l-0.129,0.231
			c-0.561,1.005-1.008,2.094-1.33,3.233l-0.074,0.255h-3.689c-1.361,0-2.471,1.109-2.471,2.469V83.7
			c0,1.365,1.109,2.471,2.471,2.471H69.287L69.287,86.171z"/>
		
			<linearGradient id="SVGID_81_" gradientUnits="userSpaceOnUse" x1="98.9688" y1="-650.7893" x2="119.0762" y2="-650.7893" gradientTransform="matrix(1 0 0 -1 -25.0796 -568.4985)">
			<stop  offset="0" style="stop-color:#E6E6E6"/>
			<stop  offset="0.5398" style="stop-color:#FFFFFF"/>
			<stop  offset="1" style="stop-color:#C8C8C8"/>
		</linearGradient>
		<path fill="url(#SVGID_81_)" d="M83.943,72.238c-5.553,0-10.055,4.5-10.055,10.052c0,5.554,4.502,10.054,10.055,10.054
			c5.551,0,10.053-4.5,10.053-10.054C93.994,76.739,89.494,72.238,83.943,72.238z M83.941,87.757c-3.02,0-5.469-2.447-5.469-5.468
			c0-3.019,2.449-5.467,5.469-5.467s5.469,2.449,5.469,5.467C89.41,85.309,86.959,87.757,83.941,87.757z"/>
	</g>
</g>
</svg>
