<?xml version="1.0" encoding="utf-8"?>
<!-- Generator: Adobe Illustrator 16.0.0, SVG Export Plug-In . SVG Version: 6.00 Build 0)  -->
<!DOCTYPE svg PUBLIC "-//W3C//DTD SVG 1.1//EN" "http://www.w3.org/Graphics/SVG/1.1/DTD/svg11.dtd">
<svg version="1.1" id="Layer_1" xmlns="http://www.w3.org/2000/svg" xmlns:xlink="http://www.w3.org/1999/xlink" x="0px" y="0px"
	 width="110.5px" height="115.779px" viewBox="0 0 110.5 115.779" enable-background="new 0 0 110.5 115.779" xml:space="preserve">
<pattern  x="-242.25" y="478.389" width="28.8" height="28.801" patternUnits="userSpaceOnUse" id="SVGID_36_" viewBox="5.76 -34.561 28.8 28.801" overflow="visible">
	<g>
		<polygon fill="none" points="5.76,-5.76 34.56,-5.76 34.56,-34.561 5.76,-34.561 		"/>
		<g>
			<polygon fill="none" points="5.76,-5.76 34.56,-5.76 34.56,-34.561 5.76,-34.561 			"/>
			<g>
				<path fill="#1D1D1B" d="M12.96-33.119c3.181,0,5.76,2.577,5.76,5.76c0,3.182-2.579,5.76-5.76,5.76
					c-3.182,0-5.76-2.578-5.76-5.76C7.2-30.542,9.778-33.119,12.96-33.119z"/>
				<path fill="#1D1D1B" d="M27.36-33.119c3.181,0,5.76,2.577,5.76,5.76c0,3.182-2.579,5.76-5.76,5.76
					c-3.183,0-5.761-2.578-5.761-5.76C21.599-30.542,24.178-33.119,27.36-33.119z"/>
				<path fill="#1D1D1B" d="M12.96-18.719c3.181,0,5.76,2.578,5.76,5.76s-2.579,5.758-5.76,5.758c-3.182,0-5.76-2.576-5.76-5.758
					S9.778-18.719,12.96-18.719z"/>
				<path fill="#1D1D1B" d="M27.36-18.719c3.181,0,5.76,2.578,5.76,5.76s-2.579,5.758-5.76,5.758c-3.183,0-5.761-2.576-5.761-5.758
					S24.178-18.719,27.36-18.719z"/>
				<path fill="#1D1D1B" d="M34.56-40.318c3.182,0,5.761,2.576,5.761,5.76c0,3.18-2.579,5.758-5.761,5.758s-5.76-2.579-5.76-5.758
					C28.8-37.742,31.378-40.318,34.56-40.318z"/>
				<path fill="#1D1D1B" d="M20.16-40.318c3.181,0,5.76,2.576,5.76,5.76c0,3.18-2.579,5.758-5.76,5.758
					c-3.183,0-5.76-2.578-5.76-5.758C14.4-37.742,16.978-40.318,20.16-40.318z"/>
				<path fill="#1D1D1B" d="M34.56-25.921c3.182,0,5.761,2.578,5.761,5.761c0,3.182-2.579,5.76-5.761,5.76s-5.76-2.578-5.76-5.76
					C28.8-23.343,31.378-25.921,34.56-25.921z"/>
				<path fill="#1D1D1B" d="M20.16-25.921c3.181,0,5.76,2.578,5.76,5.761c0,3.182-2.579,5.76-5.76,5.76
					c-3.183,0-5.76-2.578-5.76-5.76C14.4-23.343,16.978-25.921,20.16-25.921z"/>
			</g>
			<g>
				<path fill="#1D1D1B" d="M5.76-40.318c3.182,0,5.761,2.576,5.761,5.76c0,3.18-2.579,5.758-5.761,5.758
					C2.578-28.801,0-31.38,0-34.559C0-37.742,2.578-40.318,5.76-40.318z"/>
				<path fill="#1D1D1B" d="M5.76-25.921c3.182,0,5.761,2.578,5.761,5.761c0,3.182-2.579,5.76-5.761,5.76
					C2.578-14.4,0-16.979,0-20.16C0-23.343,2.578-25.921,5.76-25.921z"/>
			</g>
			<g>
				<path fill="#1D1D1B" d="M34.56-11.52c3.182,0,5.761,2.578,5.761,5.76S37.742,0,34.56,0S28.8-2.578,28.8-5.76
					S31.378-11.52,34.56-11.52z"/>
				<path fill="#1D1D1B" d="M20.16-11.52c3.181,0,5.76,2.578,5.76,5.76S23.341,0,20.16,0c-3.183,0-5.76-2.578-5.76-5.76
					S16.978-11.52,20.16-11.52z"/>
			</g>
			<g>
				<path fill="#1D1D1B" d="M5.76-11.52c3.182,0,5.761,2.578,5.761,5.76S8.942,0,5.76,0C2.578,0,0-2.578,0-5.76
					S2.578-11.52,5.76-11.52z"/>
			</g>
		</g>
	</g>
</pattern>
<g>
	<g>
		<line fill="none" x1="89.049" y1="70.393" x2="86.917" y2="66.294"/>
		
			<linearGradient id="SVGID_1_" gradientUnits="userSpaceOnUse" x1="-284.0469" y1="-962.0994" x2="-283.1099" y2="-962.0994" gradientTransform="matrix(0.7943 -0.6075 0.6075 0.7943 897.7029 660.2651)">
			<stop  offset="0" style="stop-color:#FFFFFF"/>
			<stop  offset="1" style="stop-color:#C8C8C8"/>
		</linearGradient>
		<polygon fill="url(#SVGID_1_)" points="88.984,70.427 86.854,66.326 86.979,66.26 89.111,70.36 		"/>
	</g>
	<g>
		<line fill="none" x1="89.611" y1="66.208" x2="87.508" y2="70.02"/>
		
			<linearGradient id="SVGID_2_" gradientUnits="userSpaceOnUse" x1="-285.0034" y1="-961.9294" x2="-280.958" y2="-961.9294" gradientTransform="matrix(0.7943 -0.6075 0.6075 0.7943 897.7029 660.2651)">
			<stop  offset="0" style="stop-color:#FFFFFF"/>
			<stop  offset="1" style="stop-color:#C8C8C8"/>
		</linearGradient>
		<polygon fill="url(#SVGID_2_)" points="87.57,70.055 87.445,69.986 89.55,66.174 89.674,66.242 		"/>
	</g>
	<g>
		<line fill="none" x1="86.875" y1="70.505" x2="88.312" y2="66.689"/>
		
			<linearGradient id="SVGID_3_" gradientUnits="userSpaceOnUse" x1="-285.8091" y1="-962.1335" x2="-282.2739" y2="-962.1335" gradientTransform="matrix(0.7943 -0.6075 0.6075 0.7943 897.7029 660.2651)">
			<stop  offset="0" style="stop-color:#FFFFFF"/>
			<stop  offset="1" style="stop-color:#C8C8C8"/>
		</linearGradient>
		<polygon fill="url(#SVGID_3_)" points="86.941,70.53 86.809,70.48 88.246,66.664 88.379,66.715 		"/>
	</g>
	<g>
		<line fill="none" x1="80.764" y1="78.01" x2="80.479" y2="82.624"/>
		
			<linearGradient id="SVGID_4_" gradientUnits="userSpaceOnUse" x1="2606.2275" y1="-398.3162" x2="2607.1641" y2="-398.3162" gradientTransform="matrix(-0.9938 0.1112 -0.1112 -0.9938 2626.8618 -605.395)">
			<stop  offset="0" style="stop-color:#FFFFFF"/>
			<stop  offset="1" style="stop-color:#C8C8C8"/>
		</linearGradient>
		<polygon fill="url(#SVGID_4_)" points="80.548,82.627 80.407,82.619 80.693,78.007 80.835,78.015 		"/>
	</g>
	<g>
		<line fill="none" x1="78.123" y1="81.307" x2="81.891" y2="79.123"/>
		
			<linearGradient id="SVGID_5_" gradientUnits="userSpaceOnUse" x1="2605.2715" y1="-398.1467" x2="2609.3164" y2="-398.1467" gradientTransform="matrix(-0.9938 0.1112 -0.1112 -0.9938 2626.8618 -605.395)">
			<stop  offset="0" style="stop-color:#FFFFFF"/>
			<stop  offset="1" style="stop-color:#C8C8C8"/>
		</linearGradient>
		<polygon fill="url(#SVGID_5_)" points="78.159,81.368 78.088,81.246 81.855,79.062 81.928,79.185 		"/>
	</g>
	<g>
		<line fill="none" x1="82.684" y1="79.035" x2="79.484" y2="81.564"/>
		
			<linearGradient id="SVGID_6_" gradientUnits="userSpaceOnUse" x1="2604.4648" y1="-398.3503" x2="2608" y2="-398.3503" gradientTransform="matrix(-0.9938 0.1112 -0.1112 -0.9938 2626.8618 -605.395)">
			<stop  offset="0" style="stop-color:#FFFFFF"/>
			<stop  offset="1" style="stop-color:#C8C8C8"/>
		</linearGradient>
		<polygon fill="url(#SVGID_6_)" points="79.529,81.62 79.441,81.509 82.641,78.979 82.729,79.091 		"/>
	</g>
	<g>
		<line fill="none" x1="81.891" y1="79.493" x2="80.973" y2="83.119"/>
		
			<linearGradient id="SVGID_7_" gradientUnits="userSpaceOnUse" x1="2510.5625" y1="-759.6013" x2="2511.1016" y2="-759.6013" gradientTransform="matrix(-0.9901 -0.1404 0.1404 -0.9901 2674.0547 -318.2543)">
			<stop  offset="0" style="stop-color:#FFFFFF"/>
			<stop  offset="1" style="stop-color:#C8C8C8"/>
		</linearGradient>
		<polygon fill="url(#SVGID_7_)" points="81.041,83.136 80.904,83.101 81.82,79.475 81.958,79.51 		"/>
	</g>
	<g>
		<line fill="none" x1="87.75" y1="70.337" x2="85.809" y2="67.141"/>
		
			<linearGradient id="SVGID_8_" gradientUnits="userSpaceOnUse" x1="-285.0444" y1="-962.5159" x2="-284.5039" y2="-962.5159" gradientTransform="matrix(0.7943 -0.6075 0.6075 0.7943 897.7029 660.2651)">
			<stop  offset="0" style="stop-color:#FFFFFF"/>
			<stop  offset="1" style="stop-color:#C8C8C8"/>
		</linearGradient>
		<polygon fill="url(#SVGID_8_)" points="87.689,70.375 85.747,67.177 85.868,67.104 87.811,70.301 		"/>
	</g>
	<g>
		<line fill="none" x1="11.312" y1="69.5" x2="15.485" y2="71.486"/>
		
			<linearGradient id="SVGID_9_" gradientUnits="userSpaceOnUse" x1="1341.498" y1="889.5056" x2="1342.4336" y2="889.5056" gradientTransform="matrix(-0.2674 0.9636 -0.9636 -0.2674 1229.3663 -984.7709)">
			<stop  offset="0" style="stop-color:#FFFFFF"/>
			<stop  offset="1" style="stop-color:#C8C8C8"/>
		</linearGradient>
		<polygon fill="url(#SVGID_9_)" points="15.455,71.55 11.282,69.564 11.342,69.436 15.516,71.422 		"/>
	</g>
	<g>
		<line fill="none" x1="14.02" y1="72.549" x2="13.398" y2="68.239"/>
		
			<linearGradient id="SVGID_10_" gradientUnits="userSpaceOnUse" x1="1339.7637" y1="889.2332" x2="1343.8086" y2="889.2332" gradientTransform="matrix(-0.2674 0.9636 -0.9636 -0.2674 1229.3663 -984.7709)">
			<stop  offset="0" style="stop-color:#FFFFFF"/>
			<stop  offset="1" style="stop-color:#C8C8C8"/>
		</linearGradient>
		<polygon fill="url(#SVGID_10_)" points="13.949,72.558 13.329,68.249 13.469,68.228 14.089,72.539 		"/>
	</g>
	<g>
		<line fill="none" x1="13.709" y1="68.135" x2="14.863" y2="72.047"/>
		
			<linearGradient id="SVGID_11_" gradientUnits="userSpaceOnUse" x1="1339.5742" y1="888.7585" x2="1343.1094" y2="888.7585" gradientTransform="matrix(-0.2674 0.9636 -0.9636 -0.2674 1229.3663 -984.7709)">
			<stop  offset="0" style="stop-color:#FFFFFF"/>
			<stop  offset="1" style="stop-color:#C8C8C8"/>
		</linearGradient>
		<polygon fill="url(#SVGID_11_)" points="14.794,72.067 13.641,68.155 13.777,68.116 14.931,72.027 		"/>
	</g>
	<g>
		<line fill="none" x1="13.112" y1="68.798" x2="16.589" y2="70.177"/>
		
			<linearGradient id="SVGID_12_" gradientUnits="userSpaceOnUse" x1="1340.3369" y1="888.3757" x2="1340.877" y2="888.3757" gradientTransform="matrix(-0.2674 0.9636 -0.9636 -0.2674 1229.3663 -984.7709)">
			<stop  offset="0" style="stop-color:#FFFFFF"/>
			<stop  offset="1" style="stop-color:#C8C8C8"/>
		</linearGradient>
		<polygon fill="url(#SVGID_12_)" points="16.562,70.242 13.085,68.863 13.138,68.731 16.615,70.11 		"/>
	</g>
	<g>
		<line fill="none" x1="19.97" y1="74.145" x2="21.972" y2="69.979"/>
		
			<linearGradient id="SVGID_13_" gradientUnits="userSpaceOnUse" x1="-58.9082" y1="638.3699" x2="-57.9697" y2="638.3699" gradientTransform="matrix(0.9626 0.271 -0.271 0.9626 250.222 -526.5942)">
			<stop  offset="0" style="stop-color:#FFFFFF"/>
			<stop  offset="1" style="stop-color:#C8C8C8"/>
		</linearGradient>
		<polygon fill="url(#SVGID_13_)" points="20.034,74.176 19.906,74.114 21.907,69.949 22.035,70.01 		"/>
	</g>
	<g>
		<line fill="none" x1="23.656" y1="72.085" x2="19.344" y2="72.689"/>
		
			<linearGradient id="SVGID_14_" gradientUnits="userSpaceOnUse" x1="-59.8643" y1="638.5398" x2="-55.8184" y2="638.5398" gradientTransform="matrix(0.9626 0.271 -0.271 0.9626 250.222 -526.5942)">
			<stop  offset="0" style="stop-color:#FFFFFF"/>
			<stop  offset="1" style="stop-color:#C8C8C8"/>
		</linearGradient>
		<polygon fill="url(#SVGID_14_)" points="19.354,72.76 19.334,72.619 23.647,72.015 23.667,72.155 		"/>
	</g>
	<g>
		<line fill="none" x1="18.577" y1="72.473" x2="22.492" y2="71.335"/>
		
			<linearGradient id="SVGID_15_" gradientUnits="userSpaceOnUse" x1="-60.6689" y1="638.3347" x2="-57.1338" y2="638.3347" gradientTransform="matrix(0.9626 0.271 -0.271 0.9626 250.222 -526.5942)">
			<stop  offset="0" style="stop-color:#FFFFFF"/>
			<stop  offset="1" style="stop-color:#C8C8C8"/>
		</linearGradient>
		<polygon fill="url(#SVGID_15_)" points="18.596,72.541 18.557,72.405 22.473,71.266 22.512,71.402 		"/>
	</g>
	<g>
		<line fill="none" x1="19.236" y1="73.074" x2="20.628" y2="69.601"/>
		
			<linearGradient id="SVGID_16_" gradientUnits="userSpaceOnUse" x1="-59.9038" y1="637.9539" x2="-59.3638" y2="637.9539" gradientTransform="matrix(0.9626 0.271 -0.271 0.9626 250.222 -526.5942)">
			<stop  offset="0" style="stop-color:#FFFFFF"/>
			<stop  offset="1" style="stop-color:#C8C8C8"/>
		</linearGradient>
		<polygon fill="url(#SVGID_16_)" points="19.302,73.1 19.17,73.047 20.562,69.575 20.694,69.627 		"/>
	</g>
	<g>
		<g>
			<path fill="#787366" d="M86.289,61.389c-7.68,0-13.905,6.226-13.905,13.905c0,7.681,6.226,13.906,13.905,13.906
				c7.682,0,13.906-6.227,13.906-13.906S93.971,61.389,86.289,61.389z M86.395,84.81c-5.14,0-9.307-4.167-9.307-9.308
				s4.167-9.308,9.307-9.308c5.143,0,9.31,4.167,9.31,9.308C95.703,80.643,91.536,84.81,86.395,84.81z"/>
			
				<linearGradient id="SVGID_17_" gradientUnits="userSpaceOnUse" x1="80.3438" y1="64.5388" x2="108.9551" y2="64.5388" gradientTransform="matrix(1 0 0 -1 -8.3599 139.8335)">
				<stop  offset="0" style="stop-color:#FFFFFF"/>
				<stop  offset="1" style="stop-color:#C8C8C8"/>
			</linearGradient>
			<path fill="url(#SVGID_17_)" d="M86.289,89.6c-7.889,0-14.305-6.417-14.305-14.306c0-7.888,6.416-14.306,14.305-14.306
				s14.307,6.418,14.307,14.306C100.596,83.183,94.178,89.6,86.289,89.6z M86.289,61.788c-7.447,0-13.507,6.061-13.507,13.509
				c0,7.446,6.06,13.508,13.507,13.508c7.449,0,13.509-6.062,13.509-13.508C99.798,67.847,93.738,61.788,86.289,61.788z
				 M86.395,85.209c-5.352,0-9.705-4.354-9.705-9.704c0-5.352,4.354-9.706,9.705-9.706c5.354,0,9.707,4.354,9.707,9.706
				C96.102,80.856,91.747,85.209,86.395,85.209z M86.395,66.594c-4.91,0-8.908,3.997-8.908,8.908c0,4.912,3.998,8.908,8.908,8.908
				c4.914,0,8.91-3.996,8.91-8.908C95.305,70.592,91.309,66.594,86.395,66.594z"/>
		</g>
		<g>
			<circle fill="#787366" cx="86.096" cy="75.413" r="5.837"/>
		</g>
		<g>
			<path fill="#787366" d="M16.107,62.881c-7.316,0-13.249,5.932-13.249,13.247c0,7.316,5.932,13.248,13.249,13.248
				s13.247-5.932,13.247-13.248C29.354,68.812,23.424,62.881,16.107,62.881z M16.208,85.193c-4.897,0-8.866-3.97-8.866-8.866
				s3.969-8.866,8.866-8.866s8.867,3.97,8.867,8.866C25.074,81.223,21.104,85.193,16.208,85.193z"/>
			
				<linearGradient id="SVGID_18_" gradientUnits="userSpaceOnUse" x1="10.7969" y1="63.7058" x2="38.1367" y2="63.7058" gradientTransform="matrix(1 0 0 -1 -8.3599 139.8335)">
				<stop  offset="0" style="stop-color:#FFFFFF"/>
				<stop  offset="1" style="stop-color:#C8C8C8"/>
			</linearGradient>
			<path fill="url(#SVGID_18_)" d="M16.107,89.799c-7.538,0-13.67-6.134-13.67-13.671c0-7.536,6.132-13.67,13.67-13.67
				s13.67,6.134,13.67,13.67C29.777,83.665,23.645,89.799,16.107,89.799z M16.107,63.302c-7.072,0-12.826,5.754-12.826,12.825
				c0,7.072,5.753,12.825,12.826,12.825c7.073,0,12.825-5.753,12.825-12.825C28.932,69.056,23.18,63.302,16.107,63.302z
				 M16.208,85.615c-5.122,0-9.289-4.167-9.289-9.288c0-5.122,4.167-9.289,9.289-9.289s9.289,4.167,9.289,9.289
				C25.496,81.448,21.33,85.615,16.208,85.615z M16.208,67.883c-4.656,0-8.444,3.787-8.444,8.443s3.789,8.444,8.444,8.444
				c4.656,0,8.445-3.788,8.445-8.444S20.864,67.883,16.208,67.883z"/>
		</g>
		<g opacity="0.4">
			
				<linearGradient id="SVGID_19_" gradientUnits="userSpaceOnUse" x1="18.4971" y1="63.0027" x2="30.5908" y2="63.0027" gradientTransform="matrix(1 0 0 -1 -8.3599 139.8335)">
				<stop  offset="0" style="stop-color:#FFFFFF"/>
				<stop  offset="1" style="stop-color:#C8C8C8"/>
			</linearGradient>
			<path fill="url(#SVGID_19_)" d="M16.184,82.878c-3.334,0-6.047-2.712-6.047-6.046s2.712-6.047,6.047-6.047
				s6.047,2.713,6.047,6.047S19.518,82.878,16.184,82.878z"/>
			
				<pattern  id="SVGID_20_" xlink:href="#SVGID_36_" patternTransform="matrix(0.1417 0 0 -0.1417 -13411.3232 -2246.4688)"  opacity="0.4">
			</pattern>
			<path opacity="0.4" fill="url(#SVGID_20_)" enable-background="new    " d="M16.249,82.878c-3.334,0-6.046-2.712-6.046-6.046
				s2.712-6.047,6.046-6.047c3.333,0,6.046,2.713,6.046,6.047S19.582,82.878,16.249,82.878z"/>
			<ellipse fill="#787366" cx="16.459" cy="76.918" rx="3.398" ry="3.237"/>
		</g>
		<g>
			<path fill="#787366" d="M85.992,66.692c0,0,2.126,2.99,2.523,4.386c0.399,1.396-15.683,7.044-15.683,7.044l15.69-5.715
				c0,0,1.72,3.322,1.787,4.453c0.065,1.129-16.812,5.05-16.812,5.05s-4.453-0.266-5.648-1.13c0,0-0.134,0.864-1.529,0.532
				c-1.396-0.333-2.393-0.133-2.393-0.133L62.6,79.983c0,0,0.2,0.931-3.188,1.13c-3.39,0.199-4.12-0.931-4.12-0.931v0.931h-0.598
				v-0.864l-1.596,0.6l0.267,0.729l-1.729,0.332l-0.397-0.931l-0.665,0.398v0.531v0.6H37.48c0,0-2.127,1.595-7.842-5.517
				c0,0-0.066-3.257,2.193-4.319c2.26-1.062,3.323-1.329,3.323-1.329s-1.396-2.857-2.991-1.195
				c-1.595,1.661-1.729-1.196-1.729-1.196l0.267-2.791h-0.598l-0.798-0.267c0,0-0.332-2.591,0.864-2.126
				c1.195,0.466-1.794-0.066,1.195-1.794l-0.398-1.03h-1.704l-1.021,1.961c0,0-0.73,0.73-0.93-0.466l0.531-1.993
				c0,0,0-0.532-1.795-0.931l-0.864,0.997v5.382l2.327,2.192l-0.399,0.532l-4.718-2.326c0,0-2.991-2.192-11.098-0.863l-3.057-1.396
				c0,0,5.582-2.26,11.961-1.197l2.725-5.116c0,0-0.73-0.531-0.73-1.396h-1.13l-0.133,0.267H19.67c0,0-1.861-5.052-0.132-8.641
				h1.196c0,0,3.456,0,4.386,3.059c0.93,3.057,0.598,1.13,0.598,1.13l-0.133-3.323l-0.73-0.199c0,0-2.193,1.329-2.658-2.725
				c-0.466-4.054,3.057-4.054,3.057-4.054l2.192,2.657l1.197,1.794l1.395,0.267l-0.398-1.596l1.596-0.862l1.195,1.13l0.133,0.93
				l0.798-0.665L32.83,41.84l-1.462-0.267l-0.199-2.26c0,0,0.665-1.063,2.193-0.864l1.062-0.797c0,0-0.199-1.528-0.199-2.126
				c0-0.599,1.063-1.994,1.063-1.994s-0.398-1.993,0.267-2.99c0.664-0.997,1.528-3.189,2.857-3.722
				c1.328-0.531,0.531,4.12,0.531,4.12s-0.089,1.005-1.928,0.997c0,0-2.393,2.326-1.927,5.05c0.465,2.727,0.199,0.931,0.199,0.931
				l1.528,0.332l1.662-1.062c0,0,1.661,0.199,1.129,1.263l-1.86,1.063c0,0-0.133,1.263-1.13,1.595
				c-0.996,0.333-0.665,1.13-0.665,1.13l-2.325-0.266l0.332,3.39c0,0,2.192,0.398,2.525,2.126c0.332,1.729-0.266,0.997-0.266,0.997
				s2.791-4.651,17.81-0.664c0,0,2.991,1.396,5.383,3.123c2.392,1.729,5.447,2.657,15.814-0.798c0,0,1.861-0.133,1.928,0.665
				c0.066,0.797,0.332-1.396,0.332-1.396h10.168c0,0,1.527-0.266,2.326,1.729c0.797,1.993-0.133,0.997-0.133,0.997l7.441,0.664
				c0,0,0.798,0.664,0.398,2.325c-0.398,1.661-0.93,2.062,1.729,5.814h-0.531c0,0-2.26-1.296-3.189-5.217s-0.332-0.531-0.332-0.531
				l-3.789,0.066l0.135,1.396c0,0-0.135,1.196-1.264,0.532c-1.129-0.665-1.396-1.596-1.396-1.596l-3.456-0.066l-5.449,1.595
				l-6.578,6.182l0.065,0.465l0.798-0.066l2.592-3.057l1.196-0.133l0.199,0.797l-3.188,3.722v0.532l-2.525,3.189l2.924,2.79
				L85.992,66.692z"/>
			
				<linearGradient id="SVGID_21_" gradientUnits="userSpaceOnUse" x1="14.585" y1="85.113" x2="109.3164" y2="85.113" gradientTransform="matrix(1 0 0 -1 -8.3599 139.8335)">
				<stop  offset="0" style="stop-color:#FFFFFF"/>
				<stop  offset="1" style="stop-color:#C8C8C8"/>
			</linearGradient>
			<path fill="url(#SVGID_21_)" d="M38.607,26.777c1.049,0,0.335,4.163,0.335,4.163s-0.089,0.997-1.906,0.997
				c-0.007,0-0.014,0-0.021,0c0,0-2.393,2.326-1.927,5.05c0.201,1.176,0.266,1.511,0.273,1.511c0.012,0-0.074-0.58-0.074-0.58
				l1.528,0.332l1.662-1.062c0,0,1.661,0.199,1.129,1.263l-1.86,1.063c0,0-0.133,1.263-1.13,1.595
				c-0.996,0.333-0.665,1.13-0.665,1.13l-2.325-0.266l0.332,3.39c0,0,2.192,0.398,2.525,2.126c0.047,0.245,0.129,1.033,0.09,0.596
				c0.705-0.654,2.609-1.878,6.984-1.878c2.559,0,5.963,0.418,10.47,1.615c0,0,2.991,1.396,5.383,3.123
				c1.211,0.874,2.594,1.545,5.009,1.545c2.354,0,5.688-0.637,10.808-2.343c0,0,0.116-0.008,0.291-0.008
				c0.526,0,1.586,0.073,1.637,0.673c0.01,0.122,0.025,0.174,0.043,0.174c0.099,0,0.289-1.57,0.289-1.57h10.166
				c0,0,0.068-0.012,0.184-0.012c0.43,0,1.514,0.166,2.145,1.74c0.215,0.536,0.304,0.855,0.319,1.037l-0.452-0.04
				c0,0,0.231,0.249,0.365,0.249c0.061,0,0.102-0.055,0.087-0.209l6.989,0.624c0,0,0.798,0.664,0.398,2.324
				c-0.398,1.662-0.93,2.062,1.729,5.815h-0.531c0,0-2.26-1.296-3.189-5.217c-0.34-1.438-0.478-1.893-0.512-1.893
				c-0.061,0,0.18,1.36,0.18,1.36l-3.788,0.066l0.134,1.396c0,0-0.082,0.732-0.659,0.732c-0.159,0-0.358-0.058-0.604-0.2
				c-1.129-0.665-1.395-1.596-1.395-1.596l-3.455-0.066l-5.449,1.595l-6.58,6.182l0.066,0.465l0.799-0.066l2.592-3.057l1.195-0.133
				l0.199,0.797l-3.189,3.722v0.532l-2.524,3.188l2.924,2.791l10.367-4.852c0,0,2.126,2.99,2.524,4.386
				c0.271,0.949-7.076,3.864-11.809,5.633l-3.875,1.411l0,0l0,0c0.003,0,1.65-0.579,3.875-1.411l11.814-4.304
				c0,0,1.721,3.322,1.787,4.453c0.066,1.129-16.812,5.05-16.812,5.05s-4.453-0.266-5.649-1.13c0,0-0.094,0.608-0.945,0.608
				c-0.164,0-0.356-0.022-0.582-0.076c-0.635-0.151-1.188-0.192-1.6-0.192c-0.496,0-0.793,0.061-0.793,0.061L62.6,79.983
				c0,0,0.2,0.931-3.188,1.13c-0.274,0.016-0.531,0.023-0.772,0.023c-2.729,0-3.348-0.954-3.348-0.954v0.931h-0.598v-0.864
				l-1.596,0.6l0.267,0.729l-1.729,0.332l-0.397-0.931l-0.665,0.398v0.531v0.6H37.48c0,0-0.204,0.151-0.655,0.151
				c-1.006,0-3.241-0.759-7.187-5.668c0,0-0.066-3.257,2.193-4.319c2.26-1.062,3.323-1.329,3.323-1.329s-0.839-1.714-1.958-1.716
				c-0.324,0-0.674,0.146-1.033,0.521s-0.643,0.519-0.869,0.519c-0.778,0-0.858-1.715-0.858-1.715l0.267-2.791h-0.598l-0.798-0.267
				c0,0-0.279-2.182,0.599-2.182c0.075,0,0.16,0.017,0.254,0.052c0.116,0.109,0.255,0.165,0.297,0.165s-0.013-0.056-0.285-0.161
				c-0.004-0.001-0.008-0.003-0.012-0.004c-0.276-0.266-0.42-0.852,1.207-1.79l-0.398-1.03h-1.704l-1.021,1.961
				c0,0-0.221,0.221-0.453,0.221c-0.19,0-0.388-0.146-0.477-0.687l0.531-1.993c0,0,0-0.532-1.795-0.931l-0.864,0.997v5.382
				l2.327,2.193l-0.399,0.531l-4.718-2.326c0,0-1.762-1.292-6.245-1.292c-1.359,0-2.967,0.119-4.854,0.429L8.24,64.034
				c0,0,3.659-1.48,8.436-1.48c1.124,0,2.311,0.082,3.525,0.284l2.725-5.117c0,0-0.73-0.531-0.73-1.396h-1.13l-0.133,0.267H19.67
				c0,0-1.861-5.052-0.132-8.641h1.196c0,0,3.456,0,4.386,3.059c0.412,1.352,0.576,1.729,0.631,1.729
				c0.07,0-0.033-0.599-0.033-0.599l-0.133-3.323l-0.73-0.199c0,0-0.345,0.208-0.789,0.208c-0.678,0-1.588-0.483-1.87-2.933
				c-0.466-4.054,3.057-4.054,3.057-4.054l2.192,2.657l1.197,1.794l1.395,0.267l-0.398-1.596l1.596-0.862l1.195,1.13l0.133,0.93
				l0.798-0.665l-0.532-3.653l-1.462-0.267l-0.199-2.26c0,0,0.556-0.889,1.819-0.889c0.118,0,0.243,0.008,0.374,0.023l1.062-0.797
				c0,0-0.199-1.528-0.199-2.126c0-0.599,1.063-1.994,1.063-1.994s-0.398-1.993,0.267-2.99c0.664-0.997,1.528-3.189,2.857-3.722
				C38.482,26.792,38.549,26.777,38.607,26.777 M38.607,25.98c-0.162,0-0.328,0.033-0.493,0.1c-1.262,0.505-2.07,1.972-2.72,3.15
				c-0.185,0.333-0.357,0.646-0.505,0.869c-0.654,0.981-0.542,2.52-0.443,3.229c-0.451,0.628-1.02,1.548-1.02,2.198
				c0,0.433,0.087,1.246,0.148,1.766l-0.451,0.339c-0.046-0.001-0.093-0.003-0.138-0.003c-1.346,0-2.201,0.795-2.495,1.265
				l-0.14,0.225l0.023,0.268l0.199,2.26l0.054,0.604l0.598,0.108l0.898,0.163l0.222,1.53l-0.562-0.532l-0.42-0.396l-0.508,0.275
				l-1.595,0.863l-0.544,0.295l0.15,0.6l0.013,0.054l-0.769-1.153l-0.022-0.033l-0.025-0.031l-2.193-2.658l-0.239-0.29h-0.376
				c-0.073,0-1.783,0.015-2.926,1.296c-0.789,0.886-1.099,2.111-0.923,3.646c0.043,0.372,0.115,0.813,0.238,1.258
				c-0.339-0.06-0.648-0.086-0.908-0.086h-1.196h-0.501l-0.217,0.451c-1.853,3.85,0.022,9.042,0.103,9.261l0.192,0.522h0.556h1.263
				h0.492l0.121-0.242c0.106,0.286,0.255,0.524,0.402,0.713l-2.185,4.104c-1.001-0.14-2.037-0.209-3.087-0.209
				c-4.877,0-8.58,1.477-8.735,1.538L6.225,63.99l1.686,0.771l3.057,1.396l0.221,0.102l0.24-0.039
				c1.688-0.276,3.278-0.417,4.724-0.417c4.097,0,5.764,1.131,5.78,1.143l0.056,0.041l0.056,0.026l4.718,2.324l0.594,0.293
				l0.396-0.529l0.399-0.531l0.428-0.57l-0.52-0.49l-2.075-1.957v-4.74l0.347-0.401c0.312,0.091,0.512,0.178,0.633,0.243
				l-0.422,1.581l-0.044,0.168l0.028,0.169c0.203,1.222,0.951,1.354,1.264,1.354c0.521,0,0.91-0.349,1.018-0.454l0.086-0.087
				l0.057-0.108l0.798-1.531h0.514c-0.613,0.454-0.951,0.903-1.045,1.379c-0.094,0.062-0.181,0.139-0.26,0.227
				c-0.615,0.7-0.514,2.087-0.441,2.648l0.063,0.497l0.475,0.158l0.776,0.259l-0.188,1.967l-0.006,0.057l0.003,0.057
				c0.056,1.196,0.52,2.477,1.654,2.477c0.479,0,0.952-0.25,1.445-0.765c0.12-0.125,0.297-0.273,0.458-0.273
				c0.214,0,0.479,0.213,0.72,0.488c-0.568,0.214-1.373,0.541-2.425,1.036c-2.697,1.27-2.654,4.903-2.65,5.058l0.005,0.271
				l0.171,0.211c2.188,2.723,5.318,5.967,7.808,5.967c0.371,0,0.651-0.073,0.842-0.151h12.905h0.797v-0.533l0.416-0.08l1.729-0.332
				l0.918-0.177l-0.1-0.274h0.36h0.598h0.798v-0.336c0.6,0.204,1.424,0.357,2.551,0.357c0.262,0,0.537-0.009,0.818-0.025
				c1.561-0.092,2.613-0.336,3.246-0.76l0.691,0.623l0.299,0.268l0.393-0.078l0,0c0,0,0.24-0.044,0.637-0.044
				c0.463,0,0.938,0.059,1.414,0.171c0.272,0.064,0.53,0.098,0.768,0.098c0.537,0,0.927-0.164,1.199-0.387
				c1.678,0.655,4.68,0.867,5.349,0.907l0.114,0.007l0.113-0.025c0.043-0.01,4.279-0.996,8.455-2.108
				c2.463-0.654,4.424-1.226,5.831-1.696c0.868-0.291,1.517-0.538,1.982-0.761c0.421-0.197,1.202-0.567,1.159-1.31
				c-0.073-1.236-1.574-4.191-1.875-4.771l-0.131-0.252c0.188-0.271,0.281-0.581,0.183-0.93c-0.425-1.484-2.417-4.312-2.644-4.629
				l-0.386-0.542l-0.603,0.282l-9.872,4.62l-2.005-1.913l2.074-2.62l0.172-0.217v-0.277v-0.237l2.998-3.497l0.27-0.312l-0.102-0.398
				l-0.198-0.799l-0.169-0.676l-0.221,0.022l1.949-1.832l5.149-1.507l2.834,0.056c0.243,0.429,0.698,1.02,1.505,1.493
				c0.352,0.206,0.691,0.312,1.009,0.312c0.888,0,1.374-0.747,1.451-1.441l0.01-0.081L92.5,56.583l-0.051-0.538l2.49-0.044
				c1.012,4.141,3.442,5.575,3.547,5.637l0.185,0.104h0.213h0.531h1.542l-0.891-1.259c-2.168-3.06-2.039-3.529-1.733-4.666
				c0.04-0.149,0.087-0.319,0.13-0.502c0.5-2.083-0.543-3.024-0.663-3.124l-0.192-0.16l-0.248-0.021l-6.422-0.573
				c-0.057-0.173-0.129-0.367-0.219-0.59c-0.83-2.08-2.417-2.241-2.884-2.241c-0.097,0-0.176,0.006-0.231,0.012H77.484h-0.705
				l-0.086,0.701c-0.006,0.049-0.012,0.099-0.02,0.149c-0.308-0.08-0.688-0.128-1.156-0.128c-0.199,0-0.334,0.009-0.35,0.011
				l-0.1,0.007l-0.096,0.032c-4.646,1.548-8.101,2.302-10.556,2.302c-2.167,0-3.383-0.558-4.542-1.395
				c-2.426-1.752-5.388-3.143-5.513-3.2l-0.062-0.03l-0.067-0.019c-4.104-1.09-7.694-1.643-10.675-1.643
				c-3.278,0-5.285,0.669-6.47,1.335c-0.5-1.188-1.669-1.757-2.389-2.002l-0.184-1.864l1.346,0.153l1.522,0.175l-0.687-1.257v-0.001
				c0.021-0.018,0.075-0.05,0.172-0.082c0.947-0.315,1.41-1.174,1.589-1.84l1.544-0.882l0.21-0.12l0.107-0.216
				c0.328-0.654,0.156-1.16,0.025-1.404c-0.435-0.809-1.553-0.979-1.772-1.007l-0.283-0.034l-0.242,0.154L36.663,37.4l-0.724-0.157
				c-0.02-0.116-0.042-0.246-0.066-0.391c-0.314-1.84,0.985-3.542,1.499-4.129c1.97-0.126,2.303-1.35,2.354-1.649l0,0
				c0.007-0.035,0.149-0.874,0.216-1.815c0.135-1.907-0.164-2.527-0.439-2.854C39.273,26.131,38.955,25.98,38.607,25.98
				L38.607,25.98z"/>
		</g>
		
			<linearGradient id="SVGID_22_" gradientUnits="userSpaceOnUse" x1="39.7266" y1="85.4734" x2="69.2305" y2="85.4734" gradientTransform="matrix(1 0 0 -1 -8.3599 139.8335)">
			<stop  offset="0" style="stop-color:#FFFFFF"/>
			<stop  offset="1" style="stop-color:#C8C8C8"/>
		</linearGradient>
		<path opacity="0.8" fill="url(#SVGID_22_)" enable-background="new    " d="M34.557,52.272c0,0-3.264,4.025-3.189,4.851
			c0.075,0.826,5.648,5.384,5.648,5.384s8.772-0.066,9.968-1.328c0,0-4.452-4.521-3.256-5.981s1.062-3.256,10.101-2.591
			c0,0,1.463,0.199,3.854,2.392v-1.195c0,0,0.465-1.462,2.061-1.063c1.595,0.399,1.508-0.533-0.333-1.794
			c-1.841-1.262-5.452-4.6-15.086-4.726c0,0-5.537-0.198-7.751,1.864l-0.355,0.401l-0.73,1.329L34.557,52.272z"/>
		<g>
			<g>
				
					<linearGradient id="SVGID_23_" gradientUnits="userSpaceOnUse" x1="628.084" y1="-1677.5984" x2="628.084" y2="-1680.7214" gradientTransform="matrix(1 0 0 -1 -588.5977 -1625.0005)">
					<stop  offset="0" style="stop-color:#FFFFFF"/>
					<stop  offset="1" style="stop-color:#9D9B99"/>
				</linearGradient>
				<circle fill="url(#SVGID_23_)" cx="39.486" cy="54.154" r="1.599"/>
				<path fill="#817D7C" d="M39.486,55.853c-0.937,0-1.698-0.762-1.698-1.699c0-0.937,0.762-1.698,1.698-1.698
					s1.699,0.763,1.699,1.698C41.186,55.092,40.423,55.853,39.486,55.853z M39.486,52.655c-0.827,0-1.499,0.673-1.499,1.499
					c0,0.827,0.672,1.5,1.499,1.5c0.827,0,1.499-0.673,1.499-1.5C40.985,53.328,40.313,52.655,39.486,52.655z"/>
			</g>
			<g>
				
					<linearGradient id="SVGID_24_" gradientUnits="userSpaceOnUse" x1="627.2861" y1="-1677.5759" x2="627.2861" y2="-1679.1393" gradientTransform="matrix(1 0 0 -1 -588.5977 -1625.0005)">
					<stop  offset="0" style="stop-color:#13599D"/>
					<stop  offset="1" style="stop-color:#0E4A89"/>
				</linearGradient>
				<path fill="url(#SVGID_24_)" d="M37.888,54.154h1.6v-1.601C38.604,52.552,37.888,53.269,37.888,54.154z"/>
				
					<linearGradient id="SVGID_25_" gradientUnits="userSpaceOnUse" x1="628.8848" y1="-1679.175" x2="628.8848" y2="-1680.7404" gradientTransform="matrix(1 0 0 -1 -588.5977 -1625.0005)">
					<stop  offset="0" style="stop-color:#13599D"/>
					<stop  offset="1" style="stop-color:#0E4A89"/>
				</linearGradient>
				<path fill="url(#SVGID_25_)" d="M39.487,54.153v1.602c0.884,0,1.599-0.717,1.599-1.602H39.487z"/>
			</g>
			<g>
				
					<linearGradient id="SVGID_26_" gradientUnits="userSpaceOnUse" x1="477.0537" y1="-1325.865" x2="480.6367" y2="-1325.865" gradientTransform="matrix(1 0 0 -1 -439.3594 -1271.7095)">
					<stop  offset="0" style="stop-color:#FFFFFF"/>
					<stop  offset="1" style="stop-color:#C7C8C8"/>
				</linearGradient>
				<path fill="url(#SVGID_26_)" d="M39.486,55.947c-0.987,0-1.791-0.805-1.791-1.791c0-0.988,0.804-1.792,1.791-1.792
					c0.987,0,1.792,0.804,1.792,1.792C41.279,55.142,40.476,55.947,39.486,55.947z M39.486,52.749c-0.777,0-1.406,0.631-1.406,1.405
					c0,0.775,0.631,1.406,1.406,1.406c0.776,0,1.406-0.631,1.406-1.406C40.893,53.38,40.263,52.749,39.486,52.749z"/>
			</g>
		</g>
		<ellipse fill="#787366" cx="43.494" cy="47.598" rx="2.66" ry="1.027"/>
		<circle fill="#787366" cx="16.462" cy="76.977" r="3.142"/>
		<g>
			
				<linearGradient id="SVGID_27_" gradientUnits="userSpaceOnUse" x1="22.5776" y1="75.9031" x2="39.0957" y2="75.9031" gradientTransform="matrix(1 0 0 -1 -8.3599 139.8335)">
				<stop  offset="0" style="stop-color:#FFFFFF"/>
				<stop  offset="1" style="stop-color:#C8C8C8"/>
			</linearGradient>
			<path fill="url(#SVGID_27_)" d="M21.099,79.139c-1.241,0.049-3.021,0.187-4.363,0.569c-0.273,0.078-0.523,0.118-0.742,0.118
				c-0.404,0-0.716-0.133-0.927-0.394c-0.471-0.583-0.259-1.593-0.25-1.636l0.008-0.021l1.423-3.038l-0.212-0.131
				c-0.314,0.128-0.595,0.192-0.834,0.192c-0.778,0-0.984-0.678-0.984-1.035l0.005-0.032l1.739-5.084l0.03-0.019
				c0.005-0.005,0.574-0.365,0.997-0.942c0.553-0.754,0.611-1.506,0.171-2.235c-0.128-0.14-0.964-1.071-0.738-1.591
				c0.098-0.225,0.357-0.329,0.796-0.312c1.47,0.059,3.323,0.307,3.72,0.36l1.426-3.507l1.299-2.632l4.461-9.665l0.019,0.029
				c0.066-0.056,0.178-0.101,0.362-0.101c0.304,0,0.716,0.116,1.133,0.318c0.339,0.164,0.635,0.364,0.837,0.563
				c0.289,0.289,0.286,0.479,0.233,0.59c-0.03,0.062-0.081,0.108-0.154,0.142l-0.464,1.03l-4.188,8.442l-0.994,2.519l-2.194,4.986
				l-1.353,3.383h-0.598l-1.569,3.955l1.675-0.322l-0.078,1.318l-0.057,0.024c-1.237,0.536-3.21,1.538-3.234,1.94
				c-0.001,0.013-0.002,0.041,0.056,0.074c0.313,0.183,0.502,0.398,0.562,0.645c0.033,0.132,0.021,0.248-0.001,0.334l3.243-0.103
				 M20.965,78.092l-3.178,0.1l0.099-0.158c0.003-0.005,0.087-0.146,0.038-0.342c-0.048-0.189-0.206-0.362-0.469-0.516
				c-0.136-0.08-0.159-0.186-0.154-0.26c0.037-0.624,2.637-1.798,3.299-2.088l0.055-0.939l-1.78,0.343l1.753-4.419h0.599l1.304-3.26
				l2.194-4.987l0.995-2.521l4.19-8.446l0.497-1.104l0.041-0.015c0.029-0.01,0.067-0.027,0.081-0.055
				c0.025-0.054-0.011-0.179-0.195-0.361c-0.186-0.187-0.464-0.372-0.782-0.527c-0.385-0.186-0.775-0.298-1.046-0.298
				c-0.137,0-0.232,0.03-0.257,0.08c-0.003,0.005-0.005,0.013-0.006,0.021l-0.04,0.26l-0.05-0.077l-4.31,9.339l-1.297,2.627
				l-1.481,3.646l-0.077-0.012c-0.021-0.003-2.14-0.305-3.778-0.37c-0.341-0.014-0.543,0.053-0.605,0.193
				c-0.134,0.309,0.363,1.012,0.709,1.382l0.012,0.018c0.484,0.798,0.422,1.651-0.179,2.47c-0.394,0.536-0.891,0.885-1.019,0.97
				l-1.711,5.001c0.004,0.118,0.062,0.82,0.784,0.82c0.225,0,0.496-0.066,0.804-0.196l0.047-0.021l0.452,0.277l-1.494,3.188
				c-0.021,0.104-0.175,0.979,0.212,1.458c0.272,0.336,0.768,0.406,1.459,0.209c1.245-0.355,2.858-0.504,4.083-0.563 M17.469,73.273
				l-0.618-0.618l1.296-2.457l0.857-1.421l0.086,0.136c0.062,0.097,0.131,0.184,0.213,0.266l0.049,0.049L17.469,73.273z
				 M17.096,72.618l0.312,0.312l1.706-3.663c-0.035-0.038-0.069-0.077-0.101-0.118l-0.692,1.146L17.096,72.618z"/>
			
				<linearGradient id="SVGID_28_" gradientUnits="userSpaceOnUse" x1="22.5049" y1="75.9011" x2="39.165" y2="75.9011" gradientTransform="matrix(1 0 0 -1 -8.3599 139.8335)">
				<stop  offset="0" style="stop-color:#FFFFFF"/>
				<stop  offset="1" style="stop-color:#C8C8C8"/>
			</linearGradient>
			<path fill="url(#SVGID_28_)" d="M15.993,79.898c-0.427,0-0.757-0.141-0.982-0.42c-0.48-0.596-0.288-1.584-0.264-1.694l0.01-0.027
				l1.399-2.988l-0.128-0.08c-0.309,0.123-0.587,0.186-0.828,0.186c-0.834,0-1.055-0.724-1.055-1.105l0.006-0.044l1.75-5.118
				l0.051-0.032c0.059-0.038,0.583-0.387,0.979-0.925c0.533-0.727,0.59-1.45,0.171-2.151c-0.178-0.192-0.984-1.113-0.747-1.659
				c0.111-0.259,0.394-0.373,0.864-0.355c1.415,0.057,3.205,0.291,3.673,0.354l1.405-3.456l1.301-2.637l4.514-9.778l0.05,0.075
				c0.285-0.154,0.891-0.045,1.506,0.253c0.345,0.167,0.648,0.373,0.855,0.579c0.318,0.318,0.311,0.54,0.247,0.67
				c-0.033,0.069-0.088,0.124-0.164,0.163l-0.453,1.007l-4.189,8.445l-0.991,2.512l-2.196,4.99l-1.369,3.425H20.81l-1.504,3.79
				l1.638-0.314l-0.085,1.454l-0.096,0.041c-1.515,0.655-3.16,1.558-3.192,1.876c0.002,0.001,0.009,0.007,0.021,0.014
				c0.331,0.192,0.531,0.424,0.596,0.688c0.022,0.091,0.028,0.186,0.016,0.276l3.156-0.099l0.004,0.142l-3.337,0.104l0.023-0.092
				c0.025-0.1,0.025-0.199,0-0.301c-0.055-0.225-0.234-0.427-0.53-0.6c-0.065-0.038-0.094-0.084-0.091-0.14
				c0.035-0.592,3.245-1.987,3.278-2.002l0.016-0.008l0.069-1.185L19.08,74.06l1.635-4.119h0.598l1.335-3.338l2.196-4.99
				l0.991-2.515l4.191-8.448l0.474-1.053l0.024-0.012c0.059-0.025,0.098-0.062,0.12-0.106c0.061-0.126-0.018-0.306-0.221-0.508
				c-0.195-0.195-0.485-0.393-0.816-0.553c-0.408-0.196-0.81-0.312-1.103-0.312c-0.142,0-0.251,0.029-0.317,0.084l-0.04,0.033
				l-4.42,9.577l-1.3,2.634l-1.444,3.554l-0.054-0.008c-0.362-0.05-2.244-0.302-3.714-0.361c-0.404-0.014-0.643,0.074-0.729,0.271
				c-0.209,0.479,0.629,1.408,0.726,1.514l0.008,0.011c0.456,0.758,0.397,1.535-0.174,2.314c-0.41,0.559-0.955,0.92-1.015,0.959
				l-0.011,0.008l-1.731,5.062l-0.002,0.02c0,0.322,0.192,0.953,0.914,0.953c0.231,0,0.502-0.062,0.808-0.188l0.033-0.013
				l0.297,0.184l-1.454,3.107c-0.007,0.034-0.209,1.015,0.237,1.568c0.307,0.38,0.848,0.466,1.595,0.252
				c1.346-0.384,3.125-0.523,4.38-0.572l0.005,0.142c-1.248,0.05-3.015,0.188-4.346,0.567
				C16.475,79.858,16.219,79.898,15.993,79.898z M15.993,79.699c-0.363,0-0.64-0.115-0.826-0.346
				c-0.411-0.508-0.247-1.414-0.228-1.517l0.006-0.017l1.467-3.13l-0.367-0.227l-0.014,0.006c-0.318,0.135-0.598,0.203-0.832,0.203
				c-0.8,0-0.852-0.8-0.855-0.891v-0.013l0.004-0.012l1.719-5.024l0.02-0.014c0.138-0.093,0.619-0.433,1.002-0.952
				c0.583-0.792,0.644-1.619,0.175-2.393l-0.008-0.01c-0.315-0.338-0.877-1.084-0.717-1.453c0.076-0.174,0.297-0.251,0.674-0.234
				c1.645,0.064,3.765,0.366,3.785,0.371l0.021,0.003l1.461-3.595l1.299-2.632l4.363-9.454l0.019,0.028l0.011-0.075
				c0.003-0.016,0.007-0.027,0.013-0.04c0.048-0.1,0.201-0.12,0.32-0.12c0.28,0,0.684,0.114,1.076,0.306
				c0.326,0.157,0.61,0.35,0.802,0.54c0.182,0.182,0.258,0.342,0.21,0.44c-0.02,0.041-0.062,0.072-0.123,0.093l-0.012,0.005
				l-0.483,1.075l-4.191,8.449l-0.993,2.518l-2.195,4.988l-1.321,3.303h-0.598l-1.688,4.255l1.744-0.336l-0.063,1.074l-0.04,0.019
				c-1.485,0.647-3.229,1.567-3.257,2.026c-0.004,0.078,0.036,0.145,0.12,0.192c0.28,0.163,0.448,0.352,0.501,0.56
				c0.056,0.219-0.035,0.38-0.046,0.396l-0.029,0.048l3.045-0.097l0.004,0.143l-3.311,0.104l0.17-0.271
				c0.002-0.004,0.071-0.123,0.03-0.287c-0.043-0.17-0.19-0.329-0.436-0.472c-0.175-0.103-0.194-0.247-0.19-0.324
				c0.038-0.63,2.289-1.688,3.302-2.131l0.047-0.807l-1.818,0.35l1.819-4.583h0.599l1.286-3.216l2.195-4.989l0.994-2.519
				l4.193-8.453l0.507-1.13l0.071-0.024c0.027-0.009,0.039-0.019,0.041-0.021c0.004-0.015-0.014-0.109-0.183-0.278
				c-0.181-0.18-0.451-0.362-0.764-0.514c-0.375-0.183-0.755-0.29-1.015-0.29c-0.138,0-0.188,0.03-0.193,0.04l-0.067,0.443
				l-0.081-0.125l-4.256,9.222l-1.297,2.63l-1.5,3.689l-0.132-0.019c-0.021-0.003-2.148-0.305-3.771-0.369
				c-0.303-0.013-0.489,0.039-0.538,0.15c-0.102,0.234,0.282,0.86,0.696,1.306l0.017,0.021c0.505,0.83,0.441,1.713-0.179,2.555
				c-0.379,0.516-0.852,0.86-1.016,0.974l-1.699,4.965c0.008,0.151,0.08,0.739,0.713,0.739c0.215,0,0.477-0.063,0.776-0.191
				l0.082-0.032l0.536,0.33l-1.517,3.235c-0.018,0.101-0.162,0.944,0.199,1.393c0.254,0.312,0.719,0.376,1.385,0.186
				c1.275-0.364,2.933-0.509,4.098-0.564l0.007,0.141c-1.159,0.057-2.804,0.201-4.066,0.562
				C16.437,79.662,16.201,79.699,15.993,79.699z M17.491,73.395l-0.726-0.729l1.321-2.503l0.918-1.521l0.147,0.23
				c0.058,0.092,0.124,0.175,0.203,0.252l0.084,0.085L17.491,73.395z M16.938,72.642l0.509,0.51l1.82-3.91l-0.015-0.015
				c-0.085-0.086-0.158-0.177-0.221-0.276l-0.025-0.039l-0.798,1.322L16.938,72.642z M17.43,73.052l-0.421-0.421l1.25-2.369
				l0.748-1.238l0.063,0.082c0.03,0.039,0.062,0.077,0.096,0.113l0.032,0.033L17.43,73.052z M17.184,72.605l0.204,0.203l1.643-3.528
				c-0.002-0.003-0.004-0.006-0.007-0.008l-0.64,1.061L17.184,72.605z"/>
		</g>
		<g>
			<path fill="#C0B9AB" d="M20.965,77.992l-2.994,0.094c0,0,0.332-0.53-0.465-0.996c-0.797-0.466,3.189-2.192,3.189-2.192
				l0.066-1.13l-1.728,0.332l1.661-4.188h0.598l1.329-3.321l2.192-4.984l0.998-2.525l4.187-8.438l0.479-1.067
				c0.067-0.021,0.116-0.058,0.14-0.105c0.113-0.234-0.345-0.691-1.023-1.021c-0.68-0.329-1.322-0.406-1.436-0.172
				c-0.008,0.016-0.013,0.032-0.016,0.049c-0.002-0.003-0.004-0.005-0.006-0.007l-4.385,9.502l-1.296,2.625L21,64.024
				c0,0-2.126-0.305-3.788-0.371c-1.661-0.066,0.026,1.743,0.026,1.743c1.13,1.86-1.196,3.323-1.196,3.323l-1.728,5.05
				c0,0,0,1.462,1.728,0.729l0.333,0.205l-1.462,3.118c0,0-0.532,2.459,1.794,1.794c1.353-0.387,3.135-0.525,4.387-0.574
				 M17.439,73.102l-0.465-0.466l1.262-2.393l0.771-1.277c0.059,0.092,0.131,0.186,0.226,0.28L17.439,73.102z"/>
			<path fill="#787366" d="M15.993,79.799c-0.339,0-0.611-0.096-0.812-0.282c-0.582-0.544-0.347-1.664-0.337-1.711l0.005-0.017
				l1.435-3.061l-0.248-0.152c-0.592,0.244-1.052,0.262-1.37,0.05c-0.417-0.275-0.422-0.837-0.422-0.859l0.004-0.023l1.736-5.073
				l0.021-0.014c0.005-0.004,0.578-0.367,1.005-0.948c0.562-0.766,0.619-1.529,0.172-2.271c-0.121-0.131-0.962-1.065-0.731-1.568
				c0.095-0.208,0.351-0.304,0.765-0.288c1.498,0.061,3.396,0.315,3.74,0.363l1.435-3.527l1.298-2.63l4.437-9.61l0.008,0.012
				c0.091-0.104,0.275-0.141,0.54-0.108c0.279,0.033,0.617,0.142,0.952,0.305s0.63,0.36,0.829,0.56
				c0.219,0.22,0.298,0.411,0.228,0.557c-0.027,0.058-0.078,0.103-0.15,0.132l-0.468,1.041l-4.188,8.441l-0.994,2.521l-2.194,4.985
				l-1.346,3.364h-0.598l-1.596,4.022l1.69-0.325l-0.074,1.265l-0.041,0.018c-1.244,0.538-3.227,1.55-3.252,1.966
				c-0.001,0.026,0.005,0.062,0.07,0.102c0.307,0.179,0.491,0.39,0.55,0.626c0.036,0.147,0.016,0.273-0.012,0.357l2.883-0.09
				l0.004,0.142l-3.127,0.098l0.071-0.111c0.004-0.007,0.094-0.157,0.042-0.363c-0.049-0.197-0.212-0.377-0.482-0.535
				c-0.123-0.072-0.144-0.165-0.14-0.23c0.037-0.619,2.814-1.859,3.298-2.07l0.058-0.995l-1.765,0.339l1.727-4.351h0.599
				l1.312-3.278l2.194-4.986l0.995-2.521l4.189-8.445l0.491-1.094l0.03-0.01c0.05-0.018,0.083-0.04,0.098-0.07
				c0.04-0.082-0.035-0.229-0.201-0.394c-0.188-0.188-0.468-0.377-0.79-0.532c-0.321-0.156-0.644-0.26-0.907-0.291
				c-0.231-0.028-0.395,0.004-0.434,0.086c-0.005,0.009-0.008,0.018-0.009,0.028l-0.027,0.175l-0.036-0.053l-4.334,9.393
				l-1.296,2.626l-1.474,3.626l-0.055-0.008c-0.021-0.003-2.142-0.306-3.78-0.371c-0.349-0.014-0.562,0.056-0.631,0.207
				c-0.165,0.358,0.458,1.146,0.711,1.418l0.009,0.011c1.093,1.801-0.962,3.248-1.197,3.406l-1.716,5.015
				c0.003,0.075,0.034,0.519,0.359,0.732c0.281,0.186,0.708,0.16,1.269-0.077l0.034-0.015l0.417,0.258l-1.485,3.167
				c-0.019,0.097-0.203,1.103,0.298,1.57c0.291,0.271,0.765,0.316,1.41,0.133c1.359-0.39,3.145-0.528,4.404-0.577l0.006,0.142
				c-1.251,0.049-3.025,0.188-4.371,0.572C16.456,79.76,16.21,79.799,15.993,79.799z M17.46,73.223l-0.574-0.574l1.287-2.438
				l0.832-1.379l0.062,0.098c0.062,0.098,0.133,0.186,0.216,0.269l0.035,0.035L17.46,73.223z M17.061,72.624l0.356,0.356
				l1.731-3.719c-0.049-0.053-0.096-0.106-0.137-0.164l-0.714,1.184L17.061,72.624z"/>
		</g>
		
			<linearGradient id="SVGID_29_" gradientUnits="userSpaceOnUse" x1="23.9771" y1="61.5789" x2="25.2397" y2="61.5789" gradientTransform="matrix(1 0 0 -1 -8.3599 139.8335)">
			<stop  offset="0" style="stop-color:#FFFFFF"/>
			<stop  offset="1" style="stop-color:#C8C8C8"/>
		</linearGradient>
		<path fill="url(#SVGID_29_)" d="M16.249,78.886c-0.348,0-0.632-0.283-0.632-0.631c0-0.35,0.284-0.633,0.632-0.633
			s0.631,0.283,0.631,0.633C16.879,78.603,16.596,78.886,16.249,78.886z M16.249,77.823c-0.238,0-0.433,0.194-0.433,0.434
			c0,0.238,0.194,0.432,0.433,0.432c0.238,0,0.432-0.193,0.432-0.432C16.681,78.017,16.486,77.823,16.249,77.823z"/>
		<path fill="#FFFFFF" d="M64.55,63.576c-0.167-0.003-0.335-0.019-0.502-0.048c-1.062-0.188-1.05-2.036-1.04-2.339l-3.744-4.535
			l0.192-0.015c0.012-0.001,1.284-0.098,1.989-0.084c0.447,0.008,0.535,0.051,0.558,0.146c0.011,0.039,2.274,1.458,4.278,2.313
			l5.502-0.766c0.029-0.007,0.88-0.186,1.646-0.172c0.618,0.011,1.01,0.147,1.164,0.406c0.115,0.195,0.094,0.448-0.064,0.754
			c-0.533,1.023-1.619,1.221-2.437,1.207l0,0c-0.36-0.007-0.635-0.055-0.722-0.071c-1.865,0.656-4.684,1.788-4.873,2.24
			C66.25,63.206,65.467,63.593,64.55,63.576z M59.663,56.825l3.547,4.297l-0.002,0.038c-0.001,0.021-0.086,2.002,0.875,2.171
			c0.155,0.028,0.313,0.043,0.47,0.046c0.838,0.016,1.545-0.322,1.764-0.841c0.285-0.681,4.533-2.189,5.017-2.359l0.026-0.01
			l0.029,0.007c0.002,0.001,0.299,0.064,0.709,0.072l0,0c0.76,0.014,1.769-0.167,2.256-1.101c0.125-0.239,0.148-0.428,0.069-0.561
			c-0.114-0.192-0.459-0.3-0.996-0.309c-0.743-0.013-1.6,0.167-1.608,0.169l-5.563,0.773l-0.024-0.012
			c-1.349-0.573-4.502-2.419-4.494-2.438c-0.06-0.007-0.151-0.013-0.293-0.017C60.909,56.745,60.045,56.799,59.663,56.825z
			 M64.787,62.712c-0.396-0.007-0.713-0.324-0.707-0.71c0.008-0.384,0.335-0.691,0.73-0.685c0.396,0.007,0.715,0.325,0.709,0.71
			C65.514,62.413,65.186,62.719,64.787,62.712z M64.809,61.517c-0.285-0.006-0.522,0.214-0.529,0.489
			c-0.004,0.273,0.226,0.502,0.513,0.507s0.522-0.214,0.528-0.489C65.324,61.75,65.096,61.522,64.809,61.517z M66.928,60.837
			l-0.041-0.051c-0.011-0.014-0.104-0.136-0.08-0.361c0.039-0.35,0.326-0.739,0.857-1.161l0.02-0.017l0.022-0.004
			c0.095-0.02,2.321-0.461,3.251-0.443c0.244,0.004,0.375,0.036,0.439,0.11c0.084,0.098,0.137,0.18,0.113,0.263
			c-0.021,0.087-0.105,0.115-0.188,0.146c-0.08,0.028-0.182,0.063-0.271,0.151c-0.273,0.265-3.43,1.171-4.06,1.35L66.928,60.837z
			 M67.77,59.434c-0.799,0.641-0.793,1.031-0.752,1.171c1.445-0.413,3.715-1.104,3.896-1.279c0.123-0.118,0.256-0.165,0.345-0.194
			c0.014-0.007,0.031-0.013,0.047-0.019c-0.012-0.016-0.027-0.038-0.058-0.072c-0.001,0-0.047-0.038-0.293-0.043
			C70.096,58.984,68.016,59.386,67.77,59.434z M63.357,60.177l-2.502-2.385l0.86-0.327l2.279,1.325
			c0.069,0.05,0.614,0.446,0.514,0.846c-0.071,0.282-0.434,0.458-1.104,0.536L63.357,60.177z M61.223,57.867l2.205,2.102
			c0.711-0.089,0.862-0.276,0.889-0.382c0.059-0.226-0.299-0.536-0.428-0.628L61.7,57.686L61.223,57.867z"/>
		<g opacity="0.8">
			<path fill="#C0B9AB" d="M59.671,51.016c0,0,1.595,1.724,0,1.525c-1.596-0.196-2.248,0.653-2.188,2.256l1.447,1.652h3.133
				c0,0,0.236,0.749,4.424,2.375c0,0,7.23-0.518,7.518-1.04c0.287-0.521,3.542-2.865,3.542-2.865l12.162-2.378
				c0,0,1.461-1.459-1.528-3.452l-10.894,0.125l-0.205,1.734c0,0-0.3-1.401-1.763-1.012C73.855,50.328,63.154,54.101,59.671,51.016z
				"/>
			<path fill="#787366" d="M66.477,58.897l-0.015-0.006c-3.632-1.41-4.317-2.174-4.44-2.369h-3.123l-1.483-1.697l-0.002-0.024
				c-0.032-0.856,0.142-1.489,0.517-1.879c0.381-0.395,0.969-0.547,1.752-0.448c0.342,0.042,0.553-0.005,0.608-0.137
				c0.134-0.305-0.438-1.021-0.671-1.271l0.1-0.102c0.889,0.785,2.344,1.185,4.326,1.185c3.797,0,8.49-1.438,10.493-2.052
				c0.353-0.107,0.604-0.187,0.763-0.229c0.178-0.047,0.346-0.069,0.504-0.069c0.732,0,1.088,0.508,1.242,0.845l0.178-1.498
				L88.2,49.018l0.019,0.013c1.188,0.792,1.83,1.599,1.909,2.395c0.069,0.719-0.353,1.148-0.37,1.168l-0.016,0.016l-12.167,2.38
				c-1.125,0.811-3.289,2.433-3.509,2.832c-0.291,0.529-6.36,0.989-7.574,1.076H66.477z M58.962,56.381h3.153l0.015,0.049
				c0.003,0.006,0.337,0.758,4.368,2.325c2.781-0.2,7.249-0.647,7.443-1.004c0.291-0.529,3.43-2.792,3.562-2.889l0.028-0.012
				l12.138-2.374c0.068-0.078,0.374-0.461,0.314-1.041c-0.074-0.748-0.689-1.514-1.827-2.275L77.35,49.285l-0.248,2.096l-0.09-0.415
				c-0.009-0.041-0.232-1.024-1.207-1.024c-0.146,0-0.304,0.022-0.468,0.065c-0.153,0.042-0.421,0.123-0.758,0.227
				c-2.011,0.616-6.718,2.059-10.535,2.059c-1.71,0-3.038-0.295-3.96-0.878c0.225,0.315,0.448,0.723,0.336,0.98
				c-0.087,0.197-0.339,0.271-0.758,0.22c-0.735-0.091-1.284,0.046-1.631,0.406c-0.344,0.355-0.506,0.945-0.479,1.75L58.962,56.381z
				"/>
		</g>
		
			<linearGradient id="SVGID_30_" gradientUnits="userSpaceOnUse" x1="41.6929" y1="66.3464" x2="53.999" y2="66.3464" gradientTransform="matrix(1 0 0 -1 -8.3599 139.8335)">
			<stop  offset="0" style="stop-color:#FFFFFF"/>
			<stop  offset="1" style="stop-color:#C8C8C8"/>
		</linearGradient>
		<path fill="url(#SVGID_30_)" d="M33.333,74.276c0,0,1.479,3.39,3.901,3.722c2.421,0.333,5.985-0.465,5.985-0.465
			s3.093-3.389,2.286-5.184c-0.808-1.795-1.614-3.455-4.035-3.455c-2.422,0-6.994,1.595-7.667,2.924L33.333,74.276z"/>
		
			<linearGradient id="SVGID_31_" gradientUnits="userSpaceOnUse" x1="37.5503" y1="65.0496" x2="99.0986" y2="65.0496" gradientTransform="matrix(1 0 0 -1 -8.3599 139.8335)">
			<stop  offset="0" style="stop-color:#FFFFFF"/>
			<stop  offset="1" style="stop-color:#C8C8C8"/>
		</linearGradient>
		<path fill="url(#SVGID_31_)" d="M33.4,74.221c-2.22,0.266-2.032,0.829-2.286,2.524c-0.255,1.697,6.052,4.984,6.052,4.984
			l12.442-0.466c1.412,0.798,5.582-1.396,5.582-1.396l7.464,0.067c0,0-0.471-0.6,0.27-1.529c0.74-0.931,2.422,0,2.422,0l2.084,0.066
			c0.674-2.259,2.825-2.524,2.825-2.524l0.181-2.007l15.957-7.43c2.758,2.392,2.221,5.646,2.221,5.646L72.139,78.34l-1.548-0.199
			l-1.614,1.527l3.229-0.133l0.673-1.062l15.938-5.914c2.354,0.997,1.884,3.986,1.884,3.986l-0.337,1.063l-16.477,4.319h-1.884
			l-1.748-0.134c-2.758-1.195-3.228-0.266-3.228-0.266c-3.027,0.531-4.643-1.062-4.91-0.465c-0.27,0.597-5.649,0.332-5.649,0.332
			s-2.22-0.598-2.286-0.067c-0.067,0.532-4.17,1.729-4.17,1.729s-10.29,0-11.971,0c-1.682,0-2.893-0.664-2.893-0.664l-3.968-3.059
			c0,0-2.689-1.595-1.815-4.451c0.874-2.858,4.506-3.124,4.506-3.124L33.4,74.221z"/>
		<g>
			<path fill="#C0B9AB" d="M46.983,61.177c-0.404,0.349,2.608-1.656,4.875-1.044c2.267,0.611,7.488,2.387,7.488,2.387
				s4.393-1.447,3.821-1.263c-0.571,0.184-6.116-8.569-9.431-8.656c-3.315-0.086-7.176-1.003-9.556,1.766
				C41.802,57.134,47.389,60.828,46.983,61.177z"/>
			<path fill="#787366" d="M49.482,52.388c1.415,0,2.882,0.178,4.255,0.213c3.279,0.085,8.746,8.658,9.412,8.658
				c0.006,0,0.014,0,0.02-0.002c0.034-0.013,0.05-0.018,0.051-0.018c0.01,0-3.873,1.279-3.873,1.279s-5.221-1.774-7.487-2.387
				c-0.304-0.082-0.62-0.117-0.941-0.117c-1.877,0-3.87,1.202-3.966,1.202c-0.01,0,0-0.014,0.032-0.041
				c0.405-0.351-5.182-4.044-2.802-6.812C45.576,52.745,47.479,52.388,49.482,52.388 M49.482,51.68
				c-1.827,0-4.143,0.252-5.838,2.225c-0.657,0.763-1.226,2.07-0.203,3.962c0.61,1.129,1.582,2.116,2.292,2.838
				c0.175,0.178,0.378,0.386,0.507,0.528c0.002,0.105,0.027,0.188,0.043,0.23l0.172,0.462l0.496,0.001
				c0.184,0,0.291-0.054,0.549-0.183c0.562-0.278,2.053-1.021,3.417-1.021c0.274,0,0.529,0.03,0.757,0.093
				c2.219,0.6,7.393,2.356,7.444,2.374l0.225,0.076l0.226-0.074c0,0,0.969-0.319,1.937-0.639c0.485-0.16,0.97-0.319,1.333-0.44
				c0.182-0.06,0.333-0.11,0.439-0.146l0.125-0.041c0.592-0.199,0.527-0.734,0.518-0.794l-0.091-0.594l-0.503-0.007
				c-0.287-0.279-0.898-1.037-1.448-1.716c-1.062-1.314-2.384-2.951-3.771-4.319c-1.746-1.723-3.169-2.573-4.352-2.604
				c-0.586-0.017-1.182-0.059-1.813-0.102C51.136,51.737,50.303,51.68,49.482,51.68L49.482,51.68z"/>
		</g>
	</g>
	<ellipse opacity="0.6" fill="#C0B9AB" enable-background="new    " cx="55.466" cy="66.974" rx="1.812" ry="1.828"/>
	<g>
		<line fill="none" x1="90.141" y1="79.43" x2="90.938" y2="83.983"/>
		
			<linearGradient id="SVGID_32_" gradientUnits="userSpaceOnUse" x1="98.4277" y1="58.1267" x2="99.3672" y2="58.1267" gradientTransform="matrix(1 0 0 -1 -8.3599 139.8335)">
			<stop  offset="0" style="stop-color:#FFFFFF"/>
			<stop  offset="1" style="stop-color:#C8C8C8"/>
		</linearGradient>
		<polygon fill="url(#SVGID_32_)" points="90.868,83.995 90.068,79.442 90.209,79.419 91.007,83.97 		"/>
	</g>
	<g>
		<line fill="none" x1="93.13" y1="82.413" x2="89.145" y2="80.663"/>
		
			<linearGradient id="SVGID_33_" gradientUnits="userSpaceOnUse" x1="97.4727" y1="58.2957" x2="101.5195" y2="58.2957" gradientTransform="matrix(1 0 0 -1 -8.3599 139.8335)">
			<stop  offset="0" style="stop-color:#FFFFFF"/>
			<stop  offset="1" style="stop-color:#C8C8C8"/>
		</linearGradient>
		<polygon fill="url(#SVGID_33_)" points="93.102,82.478 89.113,80.726 89.172,80.597 93.159,82.347 		"/>
	</g>
	<g>
		<line fill="none" x1="88.346" y1="80.663" x2="91.807" y2="82.82"/>
		
			<linearGradient id="SVGID_34_" gradientUnits="userSpaceOnUse" x1="96.668" y1="58.0925" x2="100.2031" y2="58.0925" gradientTransform="matrix(1 0 0 -1 -8.3599 139.8335)">
			<stop  offset="0" style="stop-color:#FFFFFF"/>
			<stop  offset="1" style="stop-color:#C8C8C8"/>
		</linearGradient>
		<polygon fill="url(#SVGID_34_)" points="91.77,82.88 88.309,80.722 88.383,80.602 91.844,82.76 		"/>
	</g>
	<g>
		<line fill="none" x1="89.145" y1="80.263" x2="89.542" y2="83.983"/>
		
			<linearGradient id="SVGID_35_" gradientUnits="userSpaceOnUse" x1="97.4316" y1="57.7107" x2="97.9707" y2="57.7107" gradientTransform="matrix(1 0 0 -1 -8.3599 139.8335)">
			<stop  offset="0" style="stop-color:#FFFFFF"/>
			<stop  offset="1" style="stop-color:#C8C8C8"/>
		</linearGradient>
		<polygon fill="url(#SVGID_35_)" points="89.471,83.99 89.072,80.271 89.213,80.256 89.611,83.975 		"/>
	</g>
	<g>
		<line fill="none" x1="92.148" y1="75.862" x2="95.105" y2="79.414"/>
		
			<linearGradient id="SVGID_37_" gradientUnits="userSpaceOnUse" x1="-192.1865" y1="91.1052" x2="-191.249" y2="91.1052" gradientTransform="matrix(0.8674 -0.4976 -0.4976 -0.8674 305.2567 61.2656)">
			<stop  offset="0" style="stop-color:#FFFFFF"/>
			<stop  offset="1" style="stop-color:#C8C8C8"/>
		</linearGradient>
		<polygon fill="url(#SVGID_37_)" points="95.051,79.459 92.094,75.907 92.202,75.817 95.159,79.369 		"/>
	</g>
	<g>
		<line fill="none" x1="96.025" y1="76.961" x2="91.697" y2="77.426"/>
		
			<linearGradient id="SVGID_38_" gradientUnits="userSpaceOnUse" x1="-193.313" y1="91.3738" x2="-189.269" y2="91.3738" gradientTransform="matrix(0.8674 -0.4976 -0.4976 -0.8674 305.2567 61.2656)">
			<stop  offset="0" style="stop-color:#FFFFFF"/>
			<stop  offset="1" style="stop-color:#C8C8C8"/>
		</linearGradient>
		<polygon fill="url(#SVGID_38_)" points="91.705,77.497 91.689,77.356 96.02,76.89 96.034,77.031 		"/>
	</g>
	<g>
		<line fill="none" x1="91.205" y1="77.823" x2="95.279" y2="77.972"/>
		
			<linearGradient id="SVGID_39_" gradientUnits="userSpaceOnUse" x1="-193.9473" y1="91.072" x2="-190.4116" y2="91.072" gradientTransform="matrix(0.8674 -0.4976 -0.4976 -0.8674 305.2567 61.2656)">
			<stop  offset="0" style="stop-color:#FFFFFF"/>
			<stop  offset="1" style="stop-color:#C8C8C8"/>
		</linearGradient>
		<polygon fill="url(#SVGID_39_)" points="95.277,78.044 91.202,77.894 91.207,77.752 95.282,77.901 		"/>
	</g>
	<g>
		<line fill="none" x1="91.697" y1="77.08" x2="93.895" y2="80.108"/>
		
			<linearGradient id="SVGID_40_" gradientUnits="userSpaceOnUse" x1="-193.1846" y1="90.6902" x2="-192.6441" y2="90.6902" gradientTransform="matrix(0.8674 -0.4976 -0.4976 -0.8674 305.2567 61.2656)">
			<stop  offset="0" style="stop-color:#FFFFFF"/>
			<stop  offset="1" style="stop-color:#C8C8C8"/>
		</linearGradient>
		<polygon fill="url(#SVGID_40_)" points="93.838,80.149 91.641,77.122 91.755,77.039 93.951,80.066 		"/>
	</g>
	<g>
		<line fill="none" x1="91.708" y1="74.76" x2="95.624" y2="72.306"/>
		
			<linearGradient id="SVGID_41_" gradientUnits="userSpaceOnUse" x1="503.1758" y1="966.8064" x2="504.1113" y2="966.8064" gradientTransform="matrix(0.6691 0.7431 -0.7431 0.6691 475.1114 -947.6136)">
			<stop  offset="0" style="stop-color:#FFFFFF"/>
			<stop  offset="1" style="stop-color:#C8C8C8"/>
		</linearGradient>
		<polygon fill="url(#SVGID_41_)" points="91.746,74.82 91.67,74.7 95.587,72.247 95.662,72.366 		"/>
	</g>
	<g>
		<line fill="none" x1="95.926" y1="74.987" x2="91.956" y2="73.195"/>
		
			<linearGradient id="SVGID_42_" gradientUnits="userSpaceOnUse" x1="502.2188" y1="966.9753" x2="506.2637" y2="966.9753" gradientTransform="matrix(0.6691 0.7431 -0.7431 0.6691 475.1114 -947.6136)">
			<stop  offset="0" style="stop-color:#FFFFFF"/>
			<stop  offset="1" style="stop-color:#C8C8C8"/>
		</linearGradient>
		<polygon fill="url(#SVGID_42_)" points="95.896,75.051 91.928,73.26 91.984,73.131 95.954,74.923 		"/>
	</g>
	<g>
		<line fill="none" x1="91.423" y1="72.602" x2="95.341" y2="73.73"/>
		
			<linearGradient id="SVGID_43_" gradientUnits="userSpaceOnUse" x1="501.4121" y1="966.7712" x2="504.9473" y2="966.7712" gradientTransform="matrix(0.6691 0.7431 -0.7431 0.6691 475.1114 -947.6136)">
			<stop  offset="0" style="stop-color:#FFFFFF"/>
			<stop  offset="1" style="stop-color:#C8C8C8"/>
		</linearGradient>
		<polygon fill="url(#SVGID_43_)" points="95.32,73.799 91.402,72.67 91.441,72.534 95.361,73.662 		"/>
	</g>
	<g>
		<line fill="none" x1="91.66" y1="73.461" x2="94.689" y2="71.269"/>
		
			<linearGradient id="SVGID_44_" gradientUnits="userSpaceOnUse" x1="502.1777" y1="966.3894" x2="502.7188" y2="966.3894" gradientTransform="matrix(0.6691 0.7431 -0.7431 0.6691 475.1114 -947.6136)">
			<stop  offset="0" style="stop-color:#FFFFFF"/>
			<stop  offset="1" style="stop-color:#C8C8C8"/>
		</linearGradient>
		<polygon fill="url(#SVGID_44_)" points="91.701,73.519 91.618,73.405 94.648,71.211 94.732,71.327 		"/>
	</g>
	<g>
		<line fill="none" x1="90.42" y1="71.967" x2="92.409" y2="67.794"/>
		
			<linearGradient id="SVGID_45_" gradientUnits="userSpaceOnUse" x1="-144.1523" y1="377.8318" x2="-143.2158" y2="377.8318" gradientTransform="matrix(0.9634 0.2682 -0.2682 0.9634 331.173 -255.5869)">
			<stop  offset="0" style="stop-color:#FFFFFF"/>
			<stop  offset="1" style="stop-color:#C8C8C8"/>
		</linearGradient>
		<polygon fill="url(#SVGID_45_)" points="90.482,71.997 90.355,71.936 92.346,67.764 92.473,67.826 		"/>
	</g>
	<g>
		<line fill="none" x1="94.078" y1="70.228" x2="89.725" y2="70.306"/>
		
			<linearGradient id="SVGID_46_" gradientUnits="userSpaceOnUse" x1="-33.7949" y1="536.2664" x2="-29.75" y2="536.2664" gradientTransform="matrix(0.9228 0.3853 -0.3853 0.9228 327.8434 -412.3573)">
			<stop  offset="0" style="stop-color:#FFFFFF"/>
			<stop  offset="1" style="stop-color:#C8C8C8"/>
		</linearGradient>
		<rect x="89.725" y="70.196" fill="url(#SVGID_46_)" width="4.354" height="0.143"/>
	</g>
	<g>
		<line fill="none" x1="88.988" y1="70" x2="93.014" y2="69.342"/>
		
			<linearGradient id="SVGID_47_" gradientUnits="userSpaceOnUse" x1="-34.6011" y1="536.0632" x2="-31.0659" y2="536.0632" gradientTransform="matrix(0.9228 0.3853 -0.3853 0.9228 327.8434 -412.3573)">
			<stop  offset="0" style="stop-color:#FFFFFF"/>
			<stop  offset="1" style="stop-color:#C8C8C8"/>
		</linearGradient>
		<polygon fill="url(#SVGID_47_)" points="88.999,70.069 88.977,69.929 93.001,69.272 93.023,69.412 		"/>
	</g>
	<g>
		<line fill="none" x1="89.57" y1="70.675" x2="91.372" y2="67.396"/>
		
			<linearGradient id="SVGID_48_" gradientUnits="userSpaceOnUse" x1="-33.8364" y1="535.6804" x2="-33.2983" y2="535.6804" gradientTransform="matrix(0.9228 0.3853 -0.3853 0.9228 327.8434 -412.3573)">
			<stop  offset="0" style="stop-color:#FFFFFF"/>
			<stop  offset="1" style="stop-color:#C8C8C8"/>
		</linearGradient>
		<polygon fill="url(#SVGID_48_)" points="89.633,70.709 89.509,70.64 91.311,67.362 91.434,67.43 		"/>
	</g>
	<g>
		<line fill="none" x1="84.193" y1="80.718" x2="85.697" y2="85.087"/>
		
			<linearGradient id="SVGID_49_" gradientUnits="userSpaceOnUse" x1="2527.9727" y1="128.7039" x2="2528.9082" y2="128.7039" gradientTransform="matrix(-0.8753 0.4836 -0.4836 -0.8753 2360.333 -1027.1971)">
			<stop  offset="0" style="stop-color:#FFFFFF"/>
			<stop  offset="1" style="stop-color:#C8C8C8"/>
		</linearGradient>
		<polygon fill="url(#SVGID_49_)" points="85.632,85.11 84.128,80.74 84.262,80.694 85.766,85.064 		"/>
	</g>
	<g>
		<line fill="none" x1="83.021" y1="84.632" x2="85.663" y2="81.172"/>
		
			<linearGradient id="SVGID_50_" gradientUnits="userSpaceOnUse" x1="2526.9473" y1="128.9968" x2="2530.9912" y2="128.9968" gradientTransform="matrix(-0.8753 0.4836 -0.4836 -0.8753 2360.333 -1027.1971)">
			<stop  offset="0" style="stop-color:#FFFFFF"/>
			<stop  offset="1" style="stop-color:#C8C8C8"/>
		</linearGradient>
		<polygon fill="url(#SVGID_50_)" points="83.076,84.675 82.964,84.589 85.607,81.128 85.721,81.215 		"/>
	</g>
	<g>
		<line fill="none" x1="86.361" y1="80.927" x2="84.376" y2="84.489"/>
		
			<linearGradient id="SVGID_51_" gradientUnits="userSpaceOnUse" x1="2526.209" y1="128.6687" x2="2529.7441" y2="128.6687" gradientTransform="matrix(-0.8753 0.4836 -0.4836 -0.8753 2360.333 -1027.1971)">
			<stop  offset="0" style="stop-color:#FFFFFF"/>
			<stop  offset="1" style="stop-color:#C8C8C8"/>
		</linearGradient>
		<polygon fill="url(#SVGID_51_)" points="84.438,84.524 84.314,84.455 86.299,80.893 86.423,80.961 		"/>
	</g>
	<g>
		<line fill="none" x1="85.471" y1="80.964" x2="86.92" y2="84.412"/>
		
			<linearGradient id="SVGID_52_" gradientUnits="userSpaceOnUse" x1="2526.9756" y1="128.2869" x2="2527.5146" y2="128.2869" gradientTransform="matrix(-0.8753 0.4836 -0.4836 -0.8753 2360.333 -1027.1971)">
			<stop  offset="0" style="stop-color:#FFFFFF"/>
			<stop  offset="1" style="stop-color:#C8C8C8"/>
		</linearGradient>
		<polygon fill="url(#SVGID_52_)" points="86.854,84.439 85.404,80.992 85.536,80.937 86.984,84.385 		"/>
	</g>
	<g>
		<line fill="none" x1="20.894" y1="77.494" x2="24.81" y2="75.041"/>
		
			<linearGradient id="SVGID_53_" gradientUnits="userSpaceOnUse" x1="457.8223" y1="1021.2625" x2="458.7578" y2="1021.2625" gradientTransform="matrix(0.6691 0.7431 -0.7431 0.6691 475.1114 -947.6136)">
			<stop  offset="0" style="stop-color:#FFFFFF"/>
			<stop  offset="1" style="stop-color:#C8C8C8"/>
		</linearGradient>
		<polygon fill="url(#SVGID_53_)" points="20.932,77.553 20.856,77.434 24.773,74.98 24.848,75.1 		"/>
	</g>
	<g>
		<line fill="none" x1="25.111" y1="77.72" x2="21.142" y2="75.929"/>
		
			<linearGradient id="SVGID_54_" gradientUnits="userSpaceOnUse" x1="456.8652" y1="1021.4324" x2="460.9102" y2="1021.4324" gradientTransform="matrix(0.6691 0.7431 -0.7431 0.6691 475.1114 -947.6136)">
			<stop  offset="0" style="stop-color:#FFFFFF"/>
			<stop  offset="1" style="stop-color:#C8C8C8"/>
		</linearGradient>
		<polygon fill="url(#SVGID_54_)" points="25.082,77.785 21.112,75.993 21.171,75.864 25.14,77.656 		"/>
	</g>
	<g>
		<line fill="none" x1="20.608" y1="75.336" x2="24.527" y2="76.464"/>
		
			<linearGradient id="SVGID_55_" gradientUnits="userSpaceOnUse" x1="456.0586" y1="1021.2292" x2="459.5938" y2="1021.2292" gradientTransform="matrix(0.6691 0.7431 -0.7431 0.6691 475.1114 -947.6136)">
			<stop  offset="0" style="stop-color:#FFFFFF"/>
			<stop  offset="1" style="stop-color:#C8C8C8"/>
		</linearGradient>
		<polygon fill="url(#SVGID_55_)" points="24.507,76.532 20.589,75.404 20.628,75.268 24.547,76.396 		"/>
	</g>
	<g>
		<line fill="none" x1="21.534" y1="76.083" x2="24.565" y2="73.89"/>
		
			<linearGradient id="SVGID_56_" gradientUnits="userSpaceOnUse" x1="457.1992" y1="1020.2595" x2="457.7393" y2="1020.2595" gradientTransform="matrix(0.6691 0.7431 -0.7431 0.6691 475.1114 -947.6136)">
			<stop  offset="0" style="stop-color:#FFFFFF"/>
			<stop  offset="1" style="stop-color:#C8C8C8"/>
		</linearGradient>
		<polygon fill="url(#SVGID_56_)" points="21.575,76.14 21.493,76.025 24.524,73.833 24.606,73.948 		"/>
	</g>
	<g>
		<line fill="none" x1="11.562" y1="75.854" x2="7.646" y2="78.307"/>
		
			<linearGradient id="SVGID_57_" gradientUnits="userSpaceOnUse" x1="1156.4785" y1="-887.1379" x2="1157.416" y2="-887.1379" gradientTransform="matrix(-0.6691 -0.7431 0.7431 -0.6691 1442.9492 343.2235)">
			<stop  offset="0" style="stop-color:#FFFFFF"/>
			<stop  offset="1" style="stop-color:#C8C8C8"/>
		</linearGradient>
		<polygon fill="url(#SVGID_57_)" points="7.684,78.367 7.609,78.247 11.525,75.794 11.601,75.914 		"/>
	</g>
	<g>
		<line fill="none" x1="7.62" y1="75.568" x2="11.589" y2="77.618"/>
		
			<linearGradient id="SVGID_58_" gradientUnits="userSpaceOnUse" x1="1155.1934" y1="-886.8118" x2="1159.4238" y2="-886.8118" gradientTransform="matrix(-0.6691 -0.7431 0.7431 -0.6691 1442.9492 343.2235)">
			<stop  offset="0" style="stop-color:#FFFFFF"/>
			<stop  offset="1" style="stop-color:#C8C8C8"/>
		</linearGradient>
		<polygon fill="url(#SVGID_58_)" points="11.556,77.68 7.587,75.632 7.652,75.506 11.621,77.554 		"/>
	</g>
	<g>
		<line fill="none" x1="11.183" y1="77.829" x2="7.264" y2="76.701"/>
		
			<linearGradient id="SVGID_59_" gradientUnits="userSpaceOnUse" x1="1155.2959" y1="-887.5442" x2="1158.832" y2="-887.5442" gradientTransform="matrix(-0.6691 -0.7431 0.7431 -0.6691 1442.9492 343.2235)">
			<stop  offset="0" style="stop-color:#FFFFFF"/>
			<stop  offset="1" style="stop-color:#C8C8C8"/>
		</linearGradient>
		<polygon fill="url(#SVGID_59_)" points="11.163,77.897 7.245,76.769 7.284,76.633 11.202,77.76 		"/>
	</g>
	<g>
		<line fill="none" x1="11.12" y1="77.324" x2="8.089" y2="79.517"/>
		
			<linearGradient id="SVGID_60_" gradientUnits="userSpaceOnUse" x1="1155.6807" y1="-888.0344" x2="1156.2207" y2="-888.0344" gradientTransform="matrix(-0.6691 -0.7431 0.7431 -0.6691 1442.9492 343.2235)">
			<stop  offset="0" style="stop-color:#FFFFFF"/>
			<stop  offset="1" style="stop-color:#C8C8C8"/>
		</linearGradient>
		<polygon fill="url(#SVGID_60_)" points="8.13,79.574 8.048,79.46 11.079,77.267 11.161,77.382 		"/>
	</g>
	<g>
		<line fill="none" x1="11.947" y1="79.003" x2="11.543" y2="83.607"/>
		
			<linearGradient id="SVGID_61_" gradientUnits="userSpaceOnUse" x1="1877.5098" y1="-78.3889" x2="1878.4463" y2="-78.3889" gradientTransform="matrix(-0.9963 0.0857 -0.0857 -0.9963 1876.0574 -157.7372)">
			<stop  offset="0" style="stop-color:#FFFFFF"/>
			<stop  offset="1" style="stop-color:#C8C8C8"/>
		</linearGradient>
		<polygon fill="url(#SVGID_61_)" points="11.614,83.613 11.472,83.6 11.876,78.997 12.018,79.01 		"/>
	</g>
	<g>
		<line fill="none" x1="9.224" y1="82.23" x2="13.046" y2="80.145"/>
		
			<linearGradient id="SVGID_62_" gradientUnits="userSpaceOnUse" x1="1876.5537" y1="-78.22" x2="1880.5986" y2="-78.22" gradientTransform="matrix(-0.9963 0.0857 -0.0857 -0.9963 1876.0574 -157.7372)">
			<stop  offset="0" style="stop-color:#FFFFFF"/>
			<stop  offset="1" style="stop-color:#C8C8C8"/>
		</linearGradient>
		<polygon fill="url(#SVGID_62_)" points="9.258,82.293 9.189,82.169 13.012,80.083 13.08,80.207 		"/>
	</g>
	<g>
		<line fill="none" x1="13.579" y1="80.518" x2="10.316" y2="82.965"/>
		
			<linearGradient id="SVGID_63_" gradientUnits="userSpaceOnUse" x1="1876.0459" y1="-78.8406" x2="1879.5811" y2="-78.8406" gradientTransform="matrix(-0.9963 0.0857 -0.0857 -0.9963 1876.0574 -157.7372)">
			<stop  offset="0" style="stop-color:#FFFFFF"/>
			<stop  offset="1" style="stop-color:#C8C8C8"/>
		</linearGradient>
		<polygon fill="url(#SVGID_63_)" points="10.358,83.021 10.274,82.907 13.536,80.461 13.621,80.575 		"/>
	</g>
	<g>
		<line fill="none" x1="12.87" y1="80.173" x2="12.791" y2="83.912"/>
		
			<linearGradient id="SVGID_64_" gradientUnits="userSpaceOnUse" x1="1876.6895" y1="-79.217" x2="1877.2295" y2="-79.217" gradientTransform="matrix(-0.9963 0.0857 -0.0857 -0.9963 1876.0574 -157.7372)">
			<stop  offset="0" style="stop-color:#FFFFFF"/>
			<stop  offset="1" style="stop-color:#C8C8C8"/>
		</linearGradient>
		<rect x="12.76" y="80.173" fill="url(#SVGID_64_)" width="0.142" height="3.74"/>
	</g>
	<g>
		<line fill="none" x1="14.958" y1="81.076" x2="17.891" y2="84.647"/>
		
			<linearGradient id="SVGID_65_" gradientUnits="userSpaceOnUse" x1="1718.9893" y1="664.0779" x2="1719.9268" y2="664.0779" gradientTransform="matrix(-0.6517 0.7585 -0.7585 -0.6517 1640.6998 -788.5688)">
			<stop  offset="0" style="stop-color:#FFFFFF"/>
			<stop  offset="1" style="stop-color:#C8C8C8"/>
		</linearGradient>
		<polygon fill="url(#SVGID_65_)" points="17.837,84.692 14.904,81.12 15.013,81.03 17.946,84.601 		"/>
	</g>
	<g>
		<line fill="none" x1="15.271" y1="85.287" x2="16.542" y2="81.122"/>
		
			<linearGradient id="SVGID_66_" gradientUnits="userSpaceOnUse" x1="1718.0352" y1="664.2468" x2="1722.0801" y2="664.2468" gradientTransform="matrix(-0.6517 0.7585 -0.7585 -0.6517 1640.6998 -788.5688)">
			<stop  offset="0" style="stop-color:#FFFFFF"/>
			<stop  offset="1" style="stop-color:#C8C8C8"/>
		</linearGradient>
		<polygon fill="url(#SVGID_66_)" points="15.339,85.307 15.203,85.266 16.475,81.101 16.61,81.142 		"/>
	</g>
	<g>
		<line fill="none" x1="16.772" y1="81.044" x2="16.153" y2="85.075"/>
		
			<linearGradient id="SVGID_67_" gradientUnits="userSpaceOnUse" x1="1717.8184" y1="663.9197" x2="1721.3535" y2="663.9197" gradientTransform="matrix(-0.6517 0.7585 -0.7585 -0.6517 1640.6998 -788.5688)">
			<stop  offset="0" style="stop-color:#FFFFFF"/>
			<stop  offset="1" style="stop-color:#C8C8C8"/>
		</linearGradient>
		<polygon fill="url(#SVGID_67_)" points="16.223,85.086 16.083,85.064 16.702,81.034 16.842,81.055 		"/>
	</g>
	<g>
		<line fill="none" x1="16.806" y1="81.853" x2="19.367" y2="84.58"/>
		
			<linearGradient id="SVGID_68_" gradientUnits="userSpaceOnUse" x1="1718.375" y1="662.5857" x2="1718.9141" y2="662.5857" gradientTransform="matrix(-0.6517 0.7585 -0.7585 -0.6517 1640.6998 -788.5688)">
			<stop  offset="0" style="stop-color:#FFFFFF"/>
			<stop  offset="1" style="stop-color:#C8C8C8"/>
		</linearGradient>
		<polygon fill="url(#SVGID_68_)" points="19.316,84.628 16.754,81.902 16.858,81.804 19.419,84.532 		"/>
	</g>
	<g>
		<line fill="none" x1="18.835" y1="80.486" x2="23.411" y2="81.133"/>
		
			<linearGradient id="SVGID_69_" gradientUnits="userSpaceOnUse" x1="1115.8047" y1="1087.0554" x2="1116.7402" y2="1087.0554" gradientTransform="matrix(0.0331 0.9995 -0.9995 0.0331 1070.6843 -1070.8843)">
			<stop  offset="0" style="stop-color:#FFFFFF"/>
			<stop  offset="1" style="stop-color:#C8C8C8"/>
		</linearGradient>
		<polygon fill="url(#SVGID_69_)" points="23.401,81.203 18.825,80.556 18.845,80.417 23.42,81.063 		"/>
	</g>
	<g>
		<line fill="none" x1="21.914" y1="83.377" x2="20.033" y2="79.449"/>
		
			<linearGradient id="SVGID_70_" gradientUnits="userSpaceOnUse" x1="1114.8467" y1="1087.2234" x2="1118.8916" y2="1087.2234" gradientTransform="matrix(0.0331 0.9995 -0.9995 0.0331 1070.6843 -1070.8843)">
			<stop  offset="0" style="stop-color:#FFFFFF"/>
			<stop  offset="1" style="stop-color:#C8C8C8"/>
		</linearGradient>
		<polygon fill="url(#SVGID_70_)" points="21.851,83.408 19.969,79.48 20.096,79.419 21.978,83.346 		"/>
	</g>
	<g>
		<line fill="none" x1="20.779" y1="79.234" x2="23.05" y2="82.621"/>
		
			<linearGradient id="SVGID_71_" gradientUnits="userSpaceOnUse" x1="1114.6475" y1="1086.2683" x2="1118.1826" y2="1086.2683" gradientTransform="matrix(0.0331 0.9995 -0.9995 0.0331 1070.6843 -1070.8843)">
			<stop  offset="0" style="stop-color:#FFFFFF"/>
			<stop  offset="1" style="stop-color:#C8C8C8"/>
		</linearGradient>
		<polygon fill="url(#SVGID_71_)" points="22.991,82.661 20.72,79.273 20.837,79.195 23.108,82.582 		"/>
	</g>
	<g>
		<line fill="none" x1="20.342" y1="79.604" x2="24.073" y2="79.88"/>
		
			<linearGradient id="SVGID_72_" gradientUnits="userSpaceOnUse" x1="1114.9697" y1="1085.9353" x2="1115.5098" y2="1085.9353" gradientTransform="matrix(0.0331 0.9995 -0.9995 0.0331 1070.6843 -1070.8843)">
			<stop  offset="0" style="stop-color:#FFFFFF"/>
			<stop  offset="1" style="stop-color:#C8C8C8"/>
		</linearGradient>
		<polygon fill="url(#SVGID_72_)" points="24.068,79.95 20.337,79.676 20.347,79.534 24.078,79.809 		"/>
	</g>
	<g>
		<line fill="none" x1="12.404" y1="72.69" x2="7.847" y2="73.457"/>
		
			<linearGradient id="SVGID_73_" gradientUnits="userSpaceOnUse" x1="783.6484" y1="-775.9963" x2="784.585" y2="-775.9963" gradientTransform="matrix(-0.3336 -0.9427 0.9427 -0.3336 1003.239 553.3884)">
			<stop  offset="0" style="stop-color:#FFFFFF"/>
			<stop  offset="1" style="stop-color:#C8C8C8"/>
		</linearGradient>
		<polygon fill="url(#SVGID_73_)" points="7.858,73.526 7.835,73.387 12.393,72.62 12.416,72.76 		"/>
	</g>
	<g>
		<line fill="none" x1="9.604" y1="71.029" x2="12.585" y2="74.204"/>
		
			<linearGradient id="SVGID_74_" gradientUnits="userSpaceOnUse" x1="782.2031" y1="-774.9299" x2="786.2471" y2="-774.9299" gradientTransform="matrix(-0.3336 -0.9427 0.9427 -0.3336 1003.239 553.3884)">
			<stop  offset="0" style="stop-color:#FFFFFF"/>
			<stop  offset="1" style="stop-color:#C8C8C8"/>
		</linearGradient>
		<polygon fill="url(#SVGID_74_)" points="12.533,74.252 9.553,71.078 9.656,70.98 12.637,74.155 		"/>
	</g>
	<g>
		<line fill="none" x1="12.21" y1="74.437" x2="9.022" y2="71.895"/>
		
			<linearGradient id="SVGID_75_" gradientUnits="userSpaceOnUse" x1="782.0977" y1="-775.5657" x2="785.6338" y2="-775.5657" gradientTransform="matrix(-0.3336 -0.9427 0.9427 -0.3336 1003.239 553.3884)">
			<stop  offset="0" style="stop-color:#FFFFFF"/>
			<stop  offset="1" style="stop-color:#C8C8C8"/>
		</linearGradient>
		<polygon fill="url(#SVGID_75_)" points="12.166,74.493 8.978,71.951 9.066,71.84 12.254,74.382 		"/>
	</g>
	<g>
		<line fill="none" x1="11.424" y1="73.57" x2="7.785" y2="74.436"/>
		
			<linearGradient id="SVGID_76_" gradientUnits="userSpaceOnUse" x1="783.1436" y1="-776.7981" x2="783.6846" y2="-776.7981" gradientTransform="matrix(-0.3336 -0.9427 0.9427 -0.3336 1003.239 553.3884)">
			<stop  offset="0" style="stop-color:#FFFFFF"/>
			<stop  offset="1" style="stop-color:#C8C8C8"/>
		</linearGradient>
		<polygon fill="url(#SVGID_76_)" points="7.801,74.505 7.769,74.367 11.408,73.502 11.441,73.64 		"/>
	</g>
	<path fill="#FFFFFF" d="M51.394,65.041l0.636-0.991l0.04,0.002c2.942,0.09,10.542-2.635,10.754-2.749
		c0.066-0.037,0.133-0.056,0.195-0.056c0.242,0,0.348,0.259,0.352,0.27l0.006,0.014l-0.018,0.413l-0.041,0.018
		c-4.543,2.022-11.699,3.051-11.771,3.061L51.394,65.041z M52.105,64.193l-0.425,0.664c1.062-0.161,7.384-1.17,11.541-3.009
		l0.014-0.294c-0.021-0.04-0.092-0.167-0.215-0.167c-0.039,0-0.082,0.013-0.129,0.038c-0.377,0.206-7.638,2.769-10.679,2.769
		C52.176,64.194,52.141,64.193,52.105,64.193z"/>
	<path fill="#FFFFFF" d="M59.566,75.193c-0.293,0-0.514-0.096-0.655-0.284c-0.287-0.382-0.155-1.021-0.111-1.191l-5.317-4.852
		l0.816-0.136l0.024,0.022c1.831,1.733,4.819,4.132,5.227,4.457c1.069-1.029,3.978-9.967,4.007-10.058l0.047-0.143l0.08,0.126
		c0.291,0.453,0.809,0.394,0.817,0.393l0.116-0.014l-0.042,0.108l-3.919,10.314c0.047,0.102,0.18,0.444,0.021,0.755
		c-0.136,0.262-0.438,0.427-0.903,0.487C59.701,75.189,59.632,75.193,59.566,75.193z M53.793,68.958l5.166,4.714l-0.014,0.042
		c-0.002,0.007-0.205,0.732,0.078,1.11c0.143,0.188,0.39,0.26,0.73,0.215c0.416-0.055,0.684-0.191,0.796-0.41
		c0.152-0.296-0.032-0.65-0.034-0.654L60.5,73.946l0.012-0.029l3.895-10.241c-0.17-0.006-0.506-0.055-0.758-0.348
		c-0.385,1.175-3.043,9.224-4.053,10.031l-0.045,0.036l-0.044-0.036c-0.032-0.026-3.291-2.621-5.256-4.477L53.793,68.958z"/>
	<g>
		<path fill="#C0B9AB" d="M52.797,69.29l-7.545,2.508c0,0-0.443-1.198-1.3-1.99l7.995-2.898
			C51.947,66.908,53.01,68.219,52.797,69.29z"/>
		<path fill="#787366" d="M45.209,71.885l-0.023-0.064c-0.005-0.013-0.447-1.19-1.282-1.963l-0.085-0.078l8.151-2.956l0.032,0.039
			c0.045,0.056,1.081,1.352,0.864,2.441l-0.008,0.04L45.209,71.885z M44.083,69.835c0.705,0.691,1.109,1.621,1.211,1.873
			l7.441-2.472c0.152-0.916-0.645-2.021-0.812-2.244L44.083,69.835z"/>
	</g>
	<path fill="#C0B9AB" d="M52.998,69.163l2.786-0.818c0,0,1.228-0.704,1.174-1.437c-0.054-0.729-0.128-1.025-1.026-1.204
		c-0.898-0.177-2.068,0.81-2.068,0.81l-1.66,0.396L52.998,69.163z"/>
	
		<linearGradient id="SVGID_77_" gradientUnits="userSpaceOnUse" x1="60.2773" y1="71.7634" x2="61.373" y2="71.7634" gradientTransform="matrix(1 0 0 -1 -8.3599 139.8335)">
		<stop  offset="0" style="stop-color:#FFFFFF"/>
		<stop  offset="1" style="stop-color:#C8C8C8"/>
	</linearGradient>
	<path fill="url(#SVGID_77_)" d="M51.918,67.002c0,0,1.051,1.347,0.791,2.231l0.283-0.071c0,0,0.225-1.181-0.768-2.255
		L51.918,67.002z"/>
	<path fill="#FFFFFF" d="M65.188,64.114c-0.41,0-0.717-0.099-0.724-0.101l0.045-0.134c0.013,0.004,1.396,0.446,2.187-0.632
		l0.115,0.084C66.343,63.969,65.688,64.114,65.188,64.114z"/>
	<path fill="#FFFFFF" d="M65.188,65.01c-0.41,0-0.717-0.099-0.724-0.101l0.045-0.135c0.013,0.005,1.396,0.447,2.187-0.63
		l0.115,0.084C66.343,64.867,65.688,65.01,65.188,65.01z"/>
	<path fill="#FFFFFF" d="M65.188,65.969c-0.41,0-0.717-0.1-0.724-0.102l0.045-0.135c0.013,0.005,1.396,0.447,2.187-0.63l0.115,0.084
		C66.343,65.825,65.688,65.969,65.188,65.969z"/>
	<path fill="#FFFFFF" d="M65.188,66.867c-0.41,0-0.717-0.1-0.724-0.102l0.045-0.134c0.013,0.004,1.396,0.446,2.187-0.631
		l0.115,0.083C66.343,66.721,65.688,66.867,65.188,66.867z"/>
	<path fill="#FFFFFF" d="M65.188,67.808c-0.41,0-0.717-0.1-0.724-0.102l0.045-0.135c0.013,0.005,1.396,0.448,2.187-0.63l0.115,0.084
		C66.343,67.664,65.688,67.808,65.188,67.808z"/>
	<path fill="#FFFFFF" d="M65.188,68.706c-0.41,0-0.717-0.099-0.724-0.101l0.045-0.135c0.013,0.005,1.396,0.446,2.187-0.63
		l0.115,0.084C66.343,68.561,65.688,68.706,65.188,68.706z"/>
	<path fill="#FFFFFF" d="M65.188,69.664c-0.41,0-0.717-0.099-0.724-0.101l0.045-0.135c0.013,0.005,1.396,0.446,2.187-0.63
		l0.115,0.084C66.343,69.519,65.688,69.664,65.188,69.664z"/>
	<path fill="#FFFFFF" d="M65.188,70.561c-0.41,0-0.717-0.101-0.724-0.103l0.045-0.134c0.013,0.004,1.396,0.447,2.187-0.63
		l0.115,0.084C66.343,70.416,65.688,70.561,65.188,70.561z"/>
	
		<linearGradient id="SVGID_78_" gradientUnits="userSpaceOnUse" x1="68.9883" y1="75.8054" x2="91.7793" y2="75.8054" gradientTransform="matrix(1 0 0 -1 -8.3599 139.8335)">
		<stop  offset="0" style="stop-color:#FFFFFF"/>
		<stop  offset="1" style="stop-color:#C8C8C8"/>
	</linearGradient>
	<polygon fill="url(#SVGID_78_)" points="60.727,74.328 60.628,74.226 60.82,74.04 83.325,53.729 83.42,53.834 60.917,74.143 	"/>
	
		<linearGradient id="SVGID_79_" gradientUnits="userSpaceOnUse" x1="69.2852" y1="76.3445" x2="90.2969" y2="76.3445" gradientTransform="matrix(1 0 0 -1 -8.3599 139.8335)">
		<stop  offset="0" style="stop-color:#FFFFFF"/>
		<stop  offset="1" style="stop-color:#C8C8C8"/>
	</linearGradient>
	<polygon fill="url(#SVGID_79_)" points="61.02,72.959 60.925,72.853 81.842,54.019 81.938,54.125 	"/>
	
		<linearGradient id="SVGID_80_" gradientUnits="userSpaceOnUse" x1="74.5547" y1="70.6316" x2="84.1035" y2="70.6316" gradientTransform="matrix(1 0 0 -1 -8.3599 139.8335)">
		<stop  offset="0" style="stop-color:#FFFFFF"/>
		<stop  offset="1" style="stop-color:#C8C8C8"/>
	</linearGradient>
	<path fill="url(#SVGID_80_)" d="M74.338,72.204l-8.143-3.016l0.746-0.672l7.271,2.66l-5.251-4.486l0.545-0.491l0.048,0.041
		l6.188,5.312L74.338,72.204z M66.464,69.136l7.868,2.914l1.15-0.536l-5.973-5.127l-0.332,0.301l5.727,4.893l-7.932-2.901
		L66.464,69.136z"/>
</g>
</svg>
