<?xml version="1.0" encoding="utf-8"?>
<!-- Generator: Adobe Illustrator 16.0.4, SVG Export Plug-In . SVG Version: 6.00 Build 0)  -->
<!DOCTYPE svg PUBLIC "-//W3C//DTD SVG 1.1//EN" "http://www.w3.org/Graphics/SVG/1.1/DTD/svg11.dtd">
<svg version="1.1" id="Layer_1" xmlns="http://www.w3.org/2000/svg" xmlns:xlink="http://www.w3.org/1999/xlink" x="0px" y="0px"
	 width="316.176px" height="272.059px" viewBox="0 0 316.176 272.059" enable-background="new 0 0 316.176 272.059"
	 xml:space="preserve">
<g>
	<g>
		<g>
			<rect x="0" y="0" fill="none" width="316.176" height="272.059"/>
		</g>
	</g>
	<g>
		<g opacity="0.6">
			<path fill="#FFFFFF" d="M254.394,155.349l2.965,1.127c0.987-5.843,1.522-11.835,1.522-17.954c0-8.514-1.012-16.788-2.887-24.737
				h-3.184c1.93,7.937,2.953,16.218,2.953,24.737C255.764,144.251,255.282,149.869,254.394,155.349z"/>
		</g>
		<g>
			<g opacity="0.6">
				<path fill="#FFFFFF" d="M123.878,37.305c-0.198-1.044-0.396-2.07-0.603-3.069c-15.11,4.02-28.932,11.238-40.684,20.894
					c0.408,0.948,0.874,1.935,1.392,2.9C95.469,48.453,109.03,41.289,123.878,37.305z"/>
			</g>
			<g opacity="0.6">
				<path fill="#FFFFFF" d="M230.823,70.793v-4.651c-11.77-12.965-26.585-23.118-43.379-29.165l-0.561,3.101
					C204.092,46.372,219.174,57.079,230.823,70.793z"/>
			</g>
			<g opacity="0.6">
				<path fill="#FFFFFF" d="M239.876,193.899c-12.287,19.659-30.925,34.927-52.993,43.015v3.33
					c23.358-8.276,43.062-24.351,55.911-45.117L239.876,193.899z"/>
			</g>
			<g opacity="0.6">
				<path fill="#FFFFFF" d="M72.605,207.964v4.586c19.369,20.483,46.636,33.426,76.892,33.837v-3.118
					C118.94,242.843,91.511,229.264,72.605,207.964z"/>
				<path fill="#FFFFFF" d="M52.084,173.105c-3.799-10.832-5.888-22.463-5.888-34.583c0-11.058,1.736-21.714,4.923-31.731
					l-3.124-0.493c-3.19,10.181-4.917,21.007-4.917,32.224c0,12.096,2.031,23.718,5.718,34.58
					C49.881,173.105,50.979,173.105,52.084,173.105z"/>
			</g>
			<g opacity="0.6">
				<path fill-rule="evenodd" clip-rule="evenodd" fill="#FFFFFF" d="M162.186,247.481c-2.226,0.459-2.606-0.461-2.394-1.916
					c0.244-1.689-0.882-4.003,2.175-4.365c0.795-0.095,0.365-1.015,0.414-1.55c0.271-3.23,0.523-6.467,0.728-9.707
					c0.085-1.339,0.691-1.841,2.028-1.725c1.123,0.097,2.265,0.021,3.4,0.021c3.126,0,3.147,0,3.367,3.258
					c0.182,2.71,0.334,5.426,0.457,8.141c0.042,0.949,0.088,1.491,1.339,1.796c2.052,0.501,1.133,2.47,1.315,3.86
					c0.201,1.496-0.003,2.705-2.101,2.357c0.841,0.943,1.459,5.767,1.021,6.768c-0.247,0.569-0.707,0.475-1.14,0.475
					c-3.554,0.007-7.103,0.013-10.659-0.009c-0.35,0-0.809-0.029-1.032-0.243C160.499,254.069,161.12,248.65,162.186,247.481z"/>
				<path fill-rule="evenodd" clip-rule="evenodd" fill="#FFFFFF" d="M172.422,260.858c0,5.283,0,5.283-5.231,5.283
					c-1.211,0-2.423,0.009-3.632-0.007c-0.502-0.003-1.162,0.116-1.136-0.694c0.019-0.483-0.396-1.215,0.762-1.173
					c0.949,0.034,0.683-0.681,0.293-1.174c-0.12-0.149-0.457-0.11-0.609-0.253c-0.664-0.625-0.868-0.969,0.285-1.478
					c1.493-0.656,0.168-0.961-0.35-1.449c-0.696-0.654-0.785-1.171,0.497-1.382c0.712-0.116,0.73-0.676-0.037-1.193
					c-0.451-0.307-0.999-0.414-0.834-1.09c0.22-0.874,0.98-0.514,1.503-0.526c2.345-0.04,4.693,0.055,7.033-0.043
					c1.255-0.055,1.55,0.423,1.474,1.554C172.358,258.434,172.422,259.652,172.422,260.858z"/>
				<path fill-rule="evenodd" clip-rule="evenodd" fill="#FFFFFF" d="M169.414,223.665c0.024,0.325,0,0.858,0.121,1.355
					c0.46,1.86-0.121,2.521-2.131,2.499c-1.991-0.016-2.686-0.562-2.052-2.502c0.112-0.351,0.201-0.795,0.078-1.112
					c-0.943-2.456,0.464-2.511,2.312-2.515C169.365,221.386,170.048,221.809,169.414,223.665z"/>
				<path fill-rule="evenodd" clip-rule="evenodd" fill="#FFFFFF" d="M167.538,270.306c-0.529-0.275-1.57,0.611-1.991-0.49
					c-0.39-1.019,1.377-1.265,0.987-2.363c0.596-0.079,1.33-0.64,1.698,0.289c0.749,1.903,1.528,1.054,1.937-0.073
					c0.305-0.84,0.719-1.2,1.413-0.907c0.715,0.305,0.377,1.081,0.194,1.586C171.078,270.292,169.444,270.448,167.538,270.306z"/>
			</g>
			<path opacity="0.6" fill-rule="evenodd" clip-rule="evenodd" fill="#FFFFFF" d="M238.181,107.777
				c-2.841,0.524-5.724-0.475-8.162-3.014c-2.096-2.183-4.877-2.962-7.776-3.257c-1.521-0.152-2.128-0.737-2.157-2.329
				c-0.062-3.164,0.157-6.275,1.013-9.322c0.359-1.291,1.041-2.14,2.606-2.223c2.886-0.157,5.307-1.396,7.315-3.528
				c2.047-2.167,4.716-3.336,7.594-3.74c7.857-1.103,15.749-1.344,23.558,0.327c7.913,1.694,12.871,7.936,12.958,15.949
				c0.059,4.975-2.919,8.36-7.894,8.786C257.76,106.237,248.281,106.968,238.181,107.777z M248.054,83.41
				c-2.965,0.003-7.02-0.081-10.923,1.169c-3.429,1.098-4.805,2.919-4.969,6.504c-0.086,1.972-0.046,3.949-0.024,5.925
				c0.046,4.277,1.851,6.092,6.144,5.818c9.401-0.603,18.791-1.309,28.187-2.031c3.206-0.247,4.362-1.644,4.338-4.904
				c-0.039-5.336-3.711-9.824-9.392-11.361C257.395,83.443,253.263,83.339,248.054,83.41z"/>
			<path opacity="0.6" fill-rule="evenodd" clip-rule="evenodd" fill="#FFFFFF" d="M266.587,99.296
				c2.378-0.408,2.785-0.865,2.844-3.212c0.134-5.103-3.755-9.389-9.661-10.513c-6.283-1.196-12.616-0.641-19.089-0.495
				c0.62,0.907,1.327,0.674,2.07,0.654c4.208-0.114,8.415-0.125,12.61,0.381C263.414,87.082,267.68,92.054,266.587,99.296z"/>
			<path opacity="0.6" fill-rule="evenodd" clip-rule="evenodd" fill="#FFFFFF" d="M251.178,194.237
				c-8.451,0.019-15.46-5.849-17.034-14.168c-0.302-1.594-0.009-2.251,1.724-1.758c0.594,0.171,1.257,0.197,1.879,0.155
				c1.747-0.119,2.542,0.56,3.117,2.342c1.626,4.999,6.618,7.836,11.958,7.142c4.695-0.607,8.675-4.7,9.195-9.455
				c0.581-5.269-2.284-9.987-7.128-11.799c-0.745-0.279-1.908-0.027-2.085-1.159c-0.262-1.711-0.566-3.458-0.457-5.167
				c0.049-0.785,1.225-0.362,1.858-0.259c6.694,1.093,12.366,6.583,13.804,13.305C270.311,184.187,262.205,194.215,251.178,194.237z
				"/>
			<path opacity="0.6" fill-rule="evenodd" clip-rule="evenodd" fill="#FFFFFF" d="M260.632,177.151
				c-0.034,5.256-4.205,9.417-9.445,9.423c-5.343,0.01-9.6-4.256-9.557-9.572c0.043-5.312,4.354-9.501,9.707-9.432
				C256.543,167.637,260.664,171.887,260.632,177.151z M247.896,177.063c-0.015,1.656,1.44,3.172,3.118,3.255
				c1.754,0.085,3.355-1.453,3.361-3.231c0.006-1.673-1.435-3.189-3.101-3.26C249.516,173.753,247.908,175.29,247.896,177.063z
				 M251.477,183.222c-0.18-0.811-0.682-1.31-1.459-1.254c-0.657,0.049-1.171,0.551-1.169,1.238c0.007,0.779,0.49,1.354,1.304,1.346
				C250.949,184.54,251.366,183.983,251.477,183.222z M258.241,179.017c-0.158-0.633-0.585-1.129-1.456-0.979
				c-0.724,0.124-1.089,0.618-1.021,1.342c0.078,0.855,0.639,1.245,1.454,1.13C257.934,180.409,258.296,179.921,258.241,179.017z
				 M246.37,178.631c-0.097-0.831-0.587-1.267-1.412-1.216c-0.733,0.049-1.145,0.558-1.123,1.261
				c0.021,0.688,0.401,1.193,1.162,1.228C245.856,179.944,246.282,179.468,246.37,178.631z M256.814,172.599
				c-0.106-0.812-0.527-1.297-1.392-1.245c-0.767,0.043-1.132,0.533-1.129,1.24c0.002,0.855,0.526,1.303,1.354,1.25
				C256.371,173.799,256.756,173.324,256.814,172.599z M249.263,171.662c-0.069-0.826-0.48-1.312-1.348-1.268
				c-0.743,0.043-1.151,0.518-1.157,1.225c-0.007,0.852,0.511,1.29,1.346,1.266C248.852,172.861,249.208,172.39,249.263,171.662z"/>
			<path opacity="0.6" fill-rule="evenodd" clip-rule="evenodd" fill="#FFFFFF" d="M250.74,163.618
				c0.816,1.817-0.377,2.305-2.526,2.84c-4.427,1.105-7.094,4.238-7.956,8.711c-0.246,1.294-0.558,1.729-1.896,1.522
				c-1.942-0.302-3.909-0.457-5.872-0.558c-1.088-0.058-1.24-0.479-1.137-1.479c0.896-8.744,8.652-16.538,17.323-17.411
				c1.173-0.119,1.479,0.233,1.522,1.346C250.249,160.077,250.506,161.561,250.74,163.618z"/>
			<path opacity="0.6" fill-rule="evenodd" clip-rule="evenodd" fill="#FFFFFF" d="M60.664,193.272
				c0.067,3.459-0.421,6.841-1.299,10.182c-0.211,0.81-0.429,1.482-1.365,1.826c-4.326,1.587-10.835-0.441-14.182-4.49
				c-3.309-3.995-3.722-9.53-0.883-13.929c3.75-5.795,9.409-6.619,14.781-5.932c1.028,0.132,1.262,0.871,1.487,1.693
				C60.155,186.108,60.715,189.646,60.664,193.272z"/>
			<path opacity="0.6" fill-rule="evenodd" clip-rule="evenodd" fill="#FFFFFF" d="M69.533,199.054c1.305,0,2.614-0.024,3.92,0.006
				c1.256,0.03,1.975,0.682,2.006,1.964c0.034,1.278-0.615,2.045-1.888,2.07c-2.694,0.046-5.392,0.049-8.085-0.007
				c-1.265-0.027-1.938-0.804-1.895-2.076c0.045-1.257,0.74-1.942,2.018-1.957C66.918,199.038,68.225,199.054,69.533,199.054z"/>
			<path opacity="0.6" fill-rule="evenodd" clip-rule="evenodd" fill="#FFFFFF" d="M69.487,191.147
				c1.226-0.003,2.451,0.006,3.675-0.003c1.338-0.016,2.227,0.514,2.292,1.951c0.065,1.422-0.735,2.122-2.091,2.138
				c-2.612,0.03-5.224,0.03-7.838-0.021c-1.263-0.021-1.944-0.768-1.935-2.04c0.009-1.278,0.734-1.957,1.978-2.013
				C66.872,191.107,68.181,191.15,69.487,191.147z"/>
			<path opacity="0.6" fill-rule="evenodd" clip-rule="evenodd" fill="#FFFFFF" d="M69.63,187.32c-1.304,0-2.612,0.007-3.917,0
				c-1.387-0.009-2.151-0.703-2.119-2.101c0.029-1.278,0.781-1.924,2.04-1.933c2.611-0.013,5.222-0.02,7.835,0.005
				c1.27,0.013,1.979,0.701,1.986,1.973c0.006,1.404-0.753,2.078-2.152,2.059C72.08,187.311,70.854,187.32,69.63,187.32z"/>
			<g opacity="0.6">
				<path fill-rule="evenodd" clip-rule="evenodd" fill="#FFFFFF" d="M82.88,71.68c0.028-1.847-0.638-2.188-2.305-2.178
					c-11.68,0.062-23.362,0.068-35.042-0.006c-1.816-0.009-2.43,0.449-2.399,2.348c0.108,7.08,0.122,14.161-0.008,21.237
					c-0.038,2.001,0.714,2.275,2.438,2.251c5.751-0.098,11.505-0.036,17.256-0.036c5.93,0,11.859-0.055,17.788,0.03
					c1.64,0.024,2.308-0.277,2.276-2.144C82.764,86.016,82.774,78.848,82.88,71.68z M62.083,91.118
					c-0.337,0.531-0.759,1.126-1.467,0.744c-0.655-0.356-0.035-0.924,0.008-1.39c0.03-0.342,0.221-0.666,0.301-1.007
					c0.357-1.53,1.741-3.207,1.075-4.465c-0.609-1.145-2.736-0.023-4.316-0.648c1.218-3.346,2.389-6.648,3.624-9.927
					c0.354-0.94,4.699-1.691,5.457-0.979c0.502,0.475,0.072,0.94-0.101,1.404c-0.701,1.883-1.394,3.768-2.152,5.823
					c1.405,0.073,2.58,0.135,4.066,0.213C66.306,84.466,64.199,87.793,62.083,91.118z"/>
				<path fill-rule="evenodd" clip-rule="evenodd" fill="#FFFFFF" d="M62.745,99.652c-6.018,0-12.037,0.016-18.054-0.016
					c-0.912-0.005-2.186,0.549-2.113-1.364c0.063-1.65,1.006-1.537,2.113-1.534c12.214,0.009,24.428,0.006,36.643,0
					c1.083,0,2.06-0.164,2.116,1.522c0.064,1.909-1.198,1.371-2.116,1.376C75.136,99.667,68.943,99.652,62.745,99.652z"/>
				<path fill-rule="evenodd" clip-rule="evenodd" fill="#FFFFFF" d="M72.381,66.985c-0.114-2.094,0.926-2.793,3.058-2.723
					c1.832,0.061,2.818,0.41,2.791,2.426C78.189,69.44,72.506,69.262,72.381,66.985z"/>
				<path fill-rule="evenodd" clip-rule="evenodd" fill="#FFFFFF" d="M47.806,66.925c-0.156-2.01,0.721-2.663,2.806-2.674
					c2.141-0.01,3.166,0.686,3.038,2.748C53.51,69.237,47.997,69.401,47.806,66.925z"/>
			</g>
			<g opacity="0.6">
				<path fill="#FFFFFF" d="M172.651,48.717c-0.549-7.426-0.959-14.862-1.413-22.295c-0.197-3.219-1.531-5.774-4.028-7.89
					c-3.787-3.209-7.459-6.561-11.082-9.953c-1.63-1.524-3.368-2.461-5.631-2.227c-0.758,0.078-1.387,0.04-1.767-0.335V3.302
					c0-0.899-0.876-1.628-1.956-1.628h-6.061c-1.081,0-1.956,0.729-1.956,1.628v3.081c-2.563,0.184-2.95,0.897-2.954,4.021
					c-0.004,12.703,0.05,25.406-0.041,38.11c-0.02,2.687,0.857,3.772,3.632,3.745c9.933-0.104,19.868-0.09,29.8-0.008
					C171.777,52.273,172.845,51.385,172.651,48.717z M153.26,46.841c-5.289-0.256-9.535-4.856-9.28-10.056
					c0.26-5.311,4.776-9.467,10.052-9.251c5.305,0.219,9.476,4.734,9.257,10.023C163.069,42.839,158.475,47.091,153.26,46.841z
					 M165.417,24.678c-2.36,0-11.056-2.93-11.056-2.93s-1.227-0.378-1.417-1.796c-0.188-1.416-1.51-7.652-0.755-8.596
					c0.755-0.946,2.362,0.094,2.362,0.094l12.755,11.527C167.307,22.978,167.78,24.678,165.417,24.678z"/>
				<path fill-rule="evenodd" clip-rule="evenodd" fill="#FFFFFF" d="M153.65,31.271c1.352,1.894,2.548,3.375,3.525,4.992
					c1.136,1.883,0.782,3.726-0.9,5.11c-1.669,1.375-3.562,1.375-5.237,0.004c-1.685-1.375-2.074-3.198-0.92-5.091
					C151.1,34.674,152.286,33.186,153.65,31.271z"/>
			</g>
			<path opacity="0.6" fill="#FFFFFF" d="M101.464,161.236c-2.932-0.024-5.43,2.498-5.306,5.341
				c0.139,2.701,2.618,4.957,5.397,4.863c2.848-0.079,5.083-2.36,5.076-5.142C106.618,163.55,104.285,161.261,101.464,161.236z"/>
			<path opacity="0.6" fill="#FFFFFF" d="M108.261,131.235c-1.762-0.49-13.135-0.801-14.266,8.314
				c-1.117,9.111,8.416,8.649,8.416,8.649s5.469,0.412,9.427-6.608C115.783,134.574,110.024,131.74,108.261,131.235z"/>
			<path opacity="0.6" fill="#FFFFFF" d="M199.726,161.236c-2.813,0.025-5.14,2.314-5.153,5.062
				c-0.02,2.781,2.221,5.062,5.062,5.142c2.774,0.094,5.261-2.162,5.397-4.863C205.164,163.734,202.664,161.211,199.726,161.236z"/>
			<path opacity="0.6" fill="#FFFFFF" d="M192.928,131.235c-1.762,0.506-7.515,3.34-3.562,10.355
				c3.957,7.021,9.414,6.608,9.414,6.608s9.545,0.462,8.429-8.649C206.071,130.434,194.691,130.744,192.928,131.235z"/>
			<path opacity="0.6" fill="#FFFFFF" d="M149.497,169.817h-32.629c0,0,0,3.472,1.611,4.121c1.604,0.658,5.588,1.23,7.842,1.414
				c1.821,0.139,17.252,0.361,23.176,0.441v0.019c0,0,0.414-0.009,1.138-0.009c0.743,0,1.164,0.009,1.164,0.009v-0.019
				c5.917-0.08,21.353-0.303,23.168-0.441c2.255-0.184,6.232-0.756,7.844-1.414c1.616-0.649,1.616-4.121,1.616-4.121h-32.628
				H149.497z"/>
			<path opacity="0.6" fill="#FFFFFF" d="M134.311,163.129h32.674c0.389,0,0.691-0.3,0.691-0.686v-4.646
				c0-0.388-0.303-0.69-0.691-0.69h-32.674c-0.388,0-0.697,0.303-0.697,0.69v4.646C133.614,162.829,133.923,163.129,134.311,163.129
				z"/>
			<path opacity="0.6" fill="#FFFFFF" d="M210.863,123.447c1.396-0.52,3.802-1.348,4.222-3.97c0.552-3.477-2.67-5.095-6.377-5.354
				c-3.723-0.276-5.674,1.178-6.258,3.092c-0.625,2.05,0.702,4.335,0.702,4.335l-1.177,1.342v-0.165h-0.132l-1.617-2.025
				c-1.112-2.465-9.218-20.485-11.177-22.288c-1.525-2.281-4.188-3.062-9.189-3.491c-2.533-0.223-15.557-0.803-28.666-0.809v-4.66
				h-0.322v-6.344h-0.191h-0.065h-0.183v6.344h-0.329v4.66c-13.109,0.006-26.14,0.586-28.666,0.809
				c-5.016,0.429-7.666,1.21-9.197,3.491c-1.959,1.802-10.072,19.822-11.17,22.288l-1.618,2.025h-0.145v0.165l-1.177-1.342
				c0,0,1.334-2.286,0.716-4.335c-0.591-1.915-2.538-3.368-6.259-3.092c-3.707,0.258-6.942,1.876-6.377,5.354
				c0.414,2.622,2.814,3.45,4.222,3.97c2.169,0.822,4.615,0.236,4.615,0.236l1.301,2.407l-0.196,0.215
				c-0.724,0.875-1.428,1.672-2.112,2.426c-3.22,3.604-5.989,6.702-6.824,14.548c-0.282,2.73,0.066,6.59,0.658,13.008l0.296,3.266
				c0.295,3.398,0.414,6.292,0.527,8.608c0.17,3.956,0.302,6.54,1.183,7.992c0,10.645,0.341,11.907,3.078,11.907
				c3.714,0,9.447,0,10.952,0c1.499,0,2.801-0.866,3.248-2.677c0.645-2.55,0.69-4.87,0.861-6.1l41.039,1.076h1.558h0.065h1.552
				l41.032-1.076c0.184,1.229,0.223,3.55,0.873,6.1c0.449,1.811,1.75,2.677,3.25,2.677c1.498,0,7.225,0,10.952,0
				c2.734,0,3.069-1.263,3.069-11.907c0.889-1.452,1.021-4.036,1.191-7.992c0.105-2.316,0.224-5.21,0.526-8.608l0.301-3.266
				c0.579-6.418,0.927-10.277,0.646-13.008c-0.828-7.846-3.604-10.943-6.824-14.548c-0.684-0.754-1.4-1.551-2.104-2.426
				l-0.204-0.215l1.309-2.407C206.248,123.683,208.7,124.269,210.863,123.447z M102.253,121.526l0.105-0.157
				c3.498-7.813,9.08-19.698,10.684-21.689h37.573h0.065h37.566c1.605,1.992,7.193,13.876,10.69,21.689l0.099,0.157l0.953,1.202
				h-98.696L102.253,121.526z M115.185,155.104c0.316-0.771,0.69-1.475,1.111-2.124h68.703c0.421,0.649,0.796,1.354,1.085,2.124
				H115.185z M186.406,156.003c0.342,1.169,0.565,2.446,0.565,3.838c0,5.076-8.652,4.71-14.786,4.71c-4.182,0-38.901,0-43.09,0
				c-6.12,0-14.772,0.366-14.772-4.71c0-1.392,0.211-2.669,0.565-3.838H186.406z M116.928,152.072
				c0.755-0.987,1.644-1.82,2.59-2.539h62.26c0.953,0.719,1.828,1.552,2.59,2.539H116.928z M120.833,148.628
				c2.872-1.75,6.086-2.54,8.263-2.54c1.953,0,41.144,0,43.09,0c2.188,0,5.398,0.79,8.277,2.54H120.833z M171.725,133.21
				c-0.802,2.404-2.682,8.077-3.326,10.02c-8.75,0-26.757,0-35.509,0c-0.651-1.942-2.524-7.615-3.326-10.02
				c-0.736-2.229-3.366-6.939-4.556-9.041h51.28C175.091,126.271,172.467,130.981,171.725,133.21z M206.162,129.705
				c3.182,3.549,5.693,6.339,6.477,13.733c0.27,2.57-0.105,6.608-0.658,12.716l-0.288,3.269c-0.316,3.436-0.435,6.336-0.54,8.678
				c-0.224,5.271-0.387,7.612-1.775,7.939l-12.471,1.691l-44.694,1.175h-1.533h-0.065h-1.545l-44.68-1.175l-12.471-1.691
				c-1.395-0.327-1.552-2.669-1.783-7.939c-0.09-2.342-0.216-5.242-0.539-8.678l-0.282-3.269
				c-0.558-6.107-0.934-10.146-0.644-12.716c0.776-7.395,3.274-10.185,6.456-13.733c0.684-0.789,1.414-1.59,2.117-2.446l2.867-3.089
				h15.2c1.085,2.011,3.452,6.534,4.747,9.926c1.38,3.638,2.307,8.16,2.708,9.968c-6.706,1.945-12.465,7.29-12.465,15.541
				c0,8.468,13.944,8.259,17.015,8.259c2.367,0,44.292,0,46.666,0c3.07,0,17.008,0.209,17.008-8.259
				c0-8.251-5.752-13.596-12.459-15.541c0.389-1.808,1.342-6.33,2.709-9.968c1.289-3.393,3.662-7.915,4.748-9.926h15.199
				l2.859,3.089C204.748,128.115,205.473,128.916,206.162,129.705z"/>
		</g>
	</g>
</g>
</svg>
