<?xml version="1.0" encoding="utf-8"?>
<!-- Generator: Adobe Illustrator 16.0.0, SVG Export Plug-In . SVG Version: 6.00 Build 0)  -->
<!DOCTYPE svg PUBLIC "-//W3C//DTD SVG 1.1//EN" "http://www.w3.org/Graphics/SVG/1.1/DTD/svg11.dtd">
<svg version="1.1" id="Layer_1" xmlns="http://www.w3.org/2000/svg" xmlns:xlink="http://www.w3.org/1999/xlink" x="0px" y="0px"
	 width="316.176px" height="272.059px" viewBox="0 0 316.176 272.059" enable-background="new 0 0 316.176 272.059"
	 xml:space="preserve">
<g>
	<g>
		<g>
			<g>
				<g>
					<rect x="0" y="0" fill="none" width="316.176" height="272.059"/>
				</g>
			</g>
		</g>
	</g>
	<g opacity="0.6">
		<path fill="#FFFFFF" d="M246.361,174.953c-1.499,1.578-2.889,2.725-4.156,3.414c-1.538,0.834-3.394,1.245-5.562,1.245
			c-2.731,0-4.871-0.916-6.413-2.736c-1.468-1.703-2.193-3.987-2.193-6.865c0-4.451,1.346-8.433,4.035-11.941
			c2.557-3.294,5.892-4.934,10.009-4.934c3.331,0,5.712,1.042,7.13,3.119l0.535-2.259h7.488l-3.715,15.576
			c-0.193,0.821-0.29,1.619-0.29,2.374c0,1.737,0.915,2.61,2.763,2.61c2.336,0,4.222-0.934,5.643-2.824
			c1.45-1.92,2.159-4.467,2.159-7.639c0-4.335-1.487-8.045-4.482-11.139c-3.836-3.967-9.212-5.944-16.075-5.944
			c-5.426,0-9.984,1.459-13.669,4.366c-2.652,2.125-4.604,4.897-5.853,8.316c-0.816,2.203-1.215,4.624-1.215,7.26
			c0,5.547,1.703,9.995,5.106,13.341c3.552,3.483,8.72,5.227,15.507,5.227c4.201,0,8.274-0.649,12.189-1.963l1.573,5.146
			c-4.83,1.439-9.462,2.163-13.871,2.163c-9.61,0-16.845-2.981-21.696-8.942c-3.193-3.939-4.784-9.053-4.784-15.335
			c0-4.449,1.115-8.578,3.327-12.361c2.02-3.447,4.729-6.216,8.147-8.319c4.376-2.716,9.653-4.073,15.827-4.073
			c7.524,0,13.82,2.213,18.845,6.634c2.697,2.351,4.642,5.216,5.829,8.585c0.729,2.097,1.094,4.393,1.094,6.896
			c0,4.896-1.473,8.797-4.396,11.699c-2.736,2.718-6.442,4.076-11.119,4.076C249.275,179.73,246.698,178.136,246.361,174.953z
			 M243.187,158.751c-1.904,0-3.535,0.963-4.902,2.88c-0.775,1.094-1.376,2.432-1.812,4.015c-0.395,1.449-0.601,2.7-0.601,3.771
			c0,3.114,1.34,4.665,4.017,4.665c2.394,0,4.273-1.294,5.646-3.891c1.148-2.172,1.719-4.428,1.719-6.773
			C247.256,160.309,245.903,158.751,243.187,158.751z"/>
		<path fill="#FFFFFF" d="M307.459,115.109H179.961c-4.277,0-7.598,3.075-7.598,6.816v89.26c0,3.736,3.561,6.816,7.598,6.816
			h127.498c4.032,0,7.359-3.08,7.359-6.816v-89.26C314.819,118.183,311.491,115.109,307.459,115.109z M178.591,169.678
			c-1.524,0-2.76-1.229-2.76-2.755c0-1.521,1.235-2.757,2.76-2.757c1.521,0,2.757,1.235,2.757,2.757
			C181.348,168.448,180.113,169.678,178.591,169.678z M301.516,206.563c0,0.225-0.232,0.441-0.47,0.441v0.007H186.133
			c-0.231,0-0.475-0.224-0.475-0.448v-79.804c0-0.214,0.243-0.437,0.475-0.437h114.913c0.241,0,0.47,0.223,0.47,0.437V206.563z
			 M309.123,178.25c0,0.591-0.517,1.059-1.148,1.059c-0.637,0-1.148-0.475-1.148-1.059V160.53c0-0.596,0.516-1.066,1.148-1.066
			c0.632,0,1.148,0.479,1.148,1.066V178.25z M307.76,156.748c-0.877,0-1.586-0.727-1.586-1.621c0-0.896,0.709-1.618,1.586-1.618
			s1.588,0.723,1.588,1.618C309.348,156.022,308.637,156.748,307.76,156.748z"/>
		<g>
			<path fill="#FFFFFF" d="M26.774,161.639c-4.872-0.043-9.003,4.138-8.796,8.849c0.222,4.483,4.348,8.219,8.955,8.075
				c4.729-0.136,8.441-3.92,8.409-8.536C35.3,165.465,31.457,161.679,26.774,161.639z"/>
			<path fill="#FFFFFF" d="M38.05,111.89c-2.924-0.823-21.801-1.352-23.666,13.767c-1.869,15.113,13.952,14.342,13.952,14.342
				s9.074,0.704,15.631-10.936C50.529,117.423,40.974,112.718,38.05,111.89z"/>
			<path fill="#FFFFFF" d="M113.97,124.803c-0.675,0.009-1.356,0-2.034,0.009c-0.105,0-0.175-0.042-0.243-0.111l0.003,0.004
				c-0.757-0.85-1.996-1.401-3.405-1.401c-1.494,0-2.788,0.62-3.525,1.548c0.025-0.034,0.041-0.072,0.065-0.103
				c-0.073,0.031-0.145,0.079-0.22,0.079c-1.833,0.003-3.668,0.011-5.502,0.017c0.093,0.225,0.274,0.4,0.43,0.582
				c0.442,0.514,0.888,1.017,1.404,1.462c0.093,0.083,0.194,0.158,0.294,0.236c0.01,0.01,0.022,0.02,0.033,0.033
				c0.01-0.003,0.018,0,0.018,0.007c0.103,0.072,0.208,0.13,0.271,0.241c0,0.006,0.006,0.015,0.021,0.015
				c0.052,0.002,0.09,0.026,0.124,0.061c0.013,0,0.031,0,0.045,0.008c0.031-0.083,0.105-0.048,0.158-0.048c0.712,0,1.431,0,2.144,0
				c0.22,0,0.285,0.08,0.269,0.354c-0.049-0.189-0.174-0.189-0.307-0.2c-0.72-0.042-1.442-0.031-2.162-0.106
				c-0.031,0-0.05,0.006-0.069,0.031c0.352,0.334,0.785,0.574,1.181,0.855c0.216,0.152,0.439,0.207,0.711,0.196
				c0.386-0.016,0.774-0.003,1.162-0.006c0.098,0,0.173,0.017,0.246,0.081c0.025,0.025,0.055,0.042,0.078,0.067
				c0.761,0.691,1.873,1.136,3.13,1.136c1.326,0,2.497-0.501,3.261-1.267c0.161-0.042,0.337-0.045,0.529-0.034
				c0.21,0.021,0.426-0.011,0.641,0.008c0.317,0.026,0.577-0.057,0.829-0.231c0.371-0.265,0.756-0.506,1.138-0.761
				c0.029-0.02,0.063-0.027,0.108-0.042c-0.156-0.126-0.272-0.033-0.375-0.041c-0.59,0.03-1.175,0.072-1.761,0.097
				c-0.166,0.006-0.245,0.051-0.296,0.199c-0.059,0.159-0.128,0.33-0.373,0.257c0,0.004,0,0.004-0.004,0.008
				c0.119-0.183,0.21-0.374,0.284-0.574c0.027-0.015,0.055-0.036,0.093-0.036c0.688,0,1.369,0.008,2.058,0.008
				c0.339,0.054,0.58-0.104,0.826-0.304c0.808-0.66,1.562-1.368,2.229-2.156c0.052-0.059,0.126-0.107,0.109-0.2
				c-0.787,0-1.578,0-2.365,0.003C114.804,124.791,114.386,124.803,113.97,124.803z M104.126,126.765
				c0-0.302-0.22-0.274-0.444-0.278c-0.932-0.023-1.868-0.052-2.799-0.075c-0.031,0-0.073,0.01-0.087-0.059
				c0.066,0,0.127-0.008,0.193-0.008c0.976-0.006,1.954,0,2.931-0.011c0.138,0,0.201,0.039,0.224,0.115
				c-0.003,0.042-0.018,0.084-0.018,0.127c0,0.069,0.021,0.134,0.031,0.21C104.141,126.776,104.126,126.769,104.126,126.765z
				 M104.415,125.403c-0.024,0.007-0.026,0.038-0.058,0.038c-0.305-0.01-0.607-0.017-0.913-0.031
				c-0.676-0.013-1.354-0.028-2.032-0.048c-0.021,0.014-0.048,0.042-0.069,0.035c-0.547-0.083-1.093-0.011-1.641-0.039
				c-0.021,0-0.039-0.013-0.059-0.017c-0.003-0.054,0.035-0.063,0.066-0.063c0.543,0,1.085,0,1.628,0
				c0.022,0,0.048,0.021,0.071,0.031c0.933-0.002,1.867-0.006,2.804-0.006c0.051,0,0.1-0.004,0.148,0
				c0.029,0.003,0.061,0,0.09,0.006C104.436,125.341,104.429,125.375,104.415,125.403z M108.291,129.548
				c-2.048,0-3.713-1.33-3.713-2.972c0-1.641,1.665-2.973,3.713-2.973c2.046,0,3.708,1.332,3.708,2.973
				C112,128.218,110.338,129.548,108.291,129.548z M115.048,126.376c-0.747,0.028-1.497,0.059-2.244,0.083
				c-0.138,0.004-0.21,0.011-0.199,0.176c0,0.089,0.082,0.273-0.11,0.273c-0.045,0-0.066-0.012-0.09-0.026
				c0.019-0.103,0.041-0.201,0.041-0.306c0-0.024-0.001-0.042-0.001-0.064c0.005-0.142,0.058-0.186,0.312-0.186
				c0.76-0.003,1.526-0.007,2.292-0.007c0.258-0.021,0.527-0.028,0.786,0c0.002,0.016,0.002,0.027,0.002,0.027
				C115.578,126.353,115.31,126.401,115.048,126.376z M117.098,125.252c-0.273,0.13-0.536,0.035-0.801,0
				C116.563,125.252,116.831,125.252,117.098,125.252z M116.2,125.32c-0.418,0.015-0.841,0.027-1.256,0.038
				c-0.825,0.018-1.649,0.035-2.478,0.045c-0.13,0.007-0.165,0.032-0.1,0.144c0.035,0.058,0.05,0.121,0.078,0.186
				c0.005,0.036,0.051,0.089-0.032,0.107c-0.062,0.011-0.086-0.024-0.1-0.071c-0.026-0.062-0.051-0.138-0.076-0.204
				c0.003,0.018,0.003,0.041,0.011,0.059c-0.015-0.041-0.031-0.09-0.049-0.13c0.004,0.016,0.021,0.03,0.028,0.048
				c-0.028-0.084-0.058-0.166-0.093-0.254c1.362,0,2.713,0,4.067,0C116.2,125.299,116.2,125.309,116.2,125.32z"/>
			<path fill="#FFFFFF" d="M106.91,125.781c-0.141,0.234-0.283,0.478-0.431,0.72c-0.023-0.018-0.031-0.025-0.034-0.031
				c-0.079-0.165-0.16-0.332-0.236-0.502c-0.143-0.321-0.143-0.317-0.504-0.304c-0.101,0-0.128,0.028-0.138,0.118
				c-0.028,0.389-0.072,0.771-0.107,1.156c-0.002,0.068-0.054,0.187,0.09,0.151c0.116-0.021,0.317,0.124,0.333-0.124
				c0.019-0.193,0.039-0.384,0.053-0.579c0.014,0,0.026,0,0.035,0c0.088,0.195,0.178,0.39,0.261,0.585
				c0.027,0.069,0.052,0.132,0.152,0.124c0.102-0.006,0.185,0.003,0.237-0.107c0.086-0.18,0.196-0.348,0.296-0.519
				c0.016-0.027,0.023-0.083,0.079-0.062c0.055,0.01,0.038,0.062,0.038,0.096c-0.007,0.146-0.011,0.29-0.025,0.435
				c-0.006,0.082-0.022,0.187,0.125,0.151c0.104-0.024,0.296,0.116,0.302-0.132c0.015-0.385,0.035-0.771,0.052-1.152
				c0.004-0.045,0.025-0.099-0.017-0.134C107.385,125.602,106.97,125.684,106.91,125.781z M107.012,126.386
				c-0.01-0.006-0.02-0.014-0.031-0.023c0.011-0.019,0.021-0.031,0.031-0.052c0.011,0.011,0.027,0.023,0.025,0.027
				C107.031,126.36,107.023,126.373,107.012,126.386z"/>
			<path fill="#FFFFFF" d="M109.996,125.657c-0.086-0.014-0.181-0.023-0.171,0.117c0.009,0.221,0,0.44,0,0.712
				c-0.249-0.275-0.464-0.506-0.672-0.746c-0.126-0.146-0.299-0.09-0.444-0.073c-0.102,0.014-0.044,0.148-0.05,0.223
				c-0.015,0.346-0.011,0.696-0.028,1.044c-0.006,0.127,0.024,0.19,0.165,0.161c0.107-0.021,0.286,0.079,0.265-0.151
				c-0.01-0.216,0-0.433,0-0.655c0.258,0.228,0.474,0.445,0.664,0.686c0.134,0.17,0.31,0.106,0.471,0.113
				c0.068,0,0.063-0.055,0.063-0.101c-0.007-0.407-0.015-0.814-0.018-1.22C110.237,125.574,110.083,125.674,109.996,125.657z"/>
			<path fill="#FFFFFF" d="M110.933,127.095c0.085-0.006,0.117-0.031,0.117-0.118c-0.01-0.196-0.004-0.392-0.004-0.591
				c-0.013,0-0.027,0-0.041,0c0-0.2,0-0.399,0-0.605c0-0.23-0.189-0.104-0.289-0.13c-0.117-0.028-0.152,0.027-0.152,0.137
				c0.018,0.339,0.018,0.682,0.028,1.021C110.598,127.124,110.598,127.124,110.933,127.095z"/>
			<path fill="#FFFFFF" d="M107.867,125.788c0.003,0.207,0,0.407,0,0.612c-0.018,0-0.03,0-0.044,0c0,0.186,0.01,0.375-0.008,0.565
				c-0.004,0.106,0.032,0.14,0.138,0.13c0.055-0.006,0.113-0.006,0.169,0c0.096,0.01,0.14-0.014,0.144-0.124
				c0.004-0.391,0.019-0.785,0.035-1.176c0.007-0.114-0.039-0.161-0.152-0.138C108.046,125.684,107.86,125.558,107.867,125.788z"/>
			<path fill="#FFFFFF" d="M108.472,123.814c-0.863,0-1.583,0.185-2.229,0.587c-1.765,1.103-1.785,3.199-0.042,4.264
				c1.371,0.842,3.393,0.663,4.577-0.394c1.188-1.058,1.194-2.628-0.003-3.632C110.096,124.068,109.284,123.826,108.472,123.814z
				 M110.371,128.365c-0.634,0.438-1.417,0.671-2.202,0.657c-0.801-0.013-1.534-0.218-2.154-0.709
				c-1.225-0.983-1.221-2.545-0.004-3.558c1.153-0.959,3.032-1.072,4.305-0.261C111.834,125.457,111.862,127.337,110.371,128.365z"
				/>
			<path fill="#FFFFFF" d="M81.239,164.788h54.22c0.632,0,1.143-0.512,1.143-1.141v-7.716c0-0.634-0.511-1.14-1.143-1.14h-54.22
				c-0.632,0-1.143,0.506-1.143,1.14v7.716C80.095,164.277,80.606,164.788,81.239,164.788z"/>
		</g>
		<path fill="#FFFFFF" d="M160.093,189.665l-49.139,1.291h-2.548h-0.115h-2.548l-74.12-1.945l-20.701-2.814
			c-2.288-0.555-2.552-4.439-2.935-13.185c-0.165-3.87-0.371-8.687-0.883-14.393l-0.491-5.418
			c-0.921-10.13-1.531-16.816-1.079-21.087c1.294-12.252,5.45-16.903,10.717-22.79c1.151-1.291,2.345-2.625,3.515-4.043l4.755-5.123
			h25.207c1.804,3.328,5.75,10.828,7.879,16.463c2.278,6.032,3.838,13.536,4.498,16.533c-11.124,3.221-20.677,12.073-20.677,25.772
			c0,14.062,23.13,13.711,28.221,13.711c3.929,0,73.472,0,77.402,0c2.153,0,7.546,0.051,13.043-0.942v-5.298
			c-4.847,0.887-10.948,0.739-16.017,0.739c-6.919,0-64.538,0-71.46,0c-10.174,0-24.519,0.599-24.519-7.8
			c0-2.333,0.357-4.445,0.946-6.381h111.05v-1.5H49.549c0.496-1.267,1.119-2.436,1.82-3.53h108.724v-1.5H52.413
			c1.255-1.616,2.718-3.006,4.293-4.201h103.28c0.039,0.028,0.068,0.062,0.106,0.094v-7.016c-1.765-0.875-3.605-1.597-5.501-2.148
			c0.66-2.993,2.216-10.501,4.497-16.533c2.13-5.635,6.077-13.136,7.88-16.463h25.207l4.755,5.123
			c0.795,0.963,1.593,1.852,2.389,2.75h3.185c-0.09-0.104-0.18-0.204-0.271-0.306c-1.13-1.267-2.307-2.582-3.495-4.027l-0.332-0.35
			l2.154-4c0,0,4.069,0.976,7.674-0.391c2.319-0.877,6.307-2.236,7-6.589c0.919-5.767-4.441-8.459-10.598-8.896
			c-6.155-0.437-9.385,1.96-10.359,5.145c-1.038,3.412,1.174,7.194,1.174,7.194l-1.951,2.231v-0.285h-0.234l-2.684-3.362
			c-1.826-4.083-15.287-33.976-18.536-36.952c-2.528-3.794-6.937-5.081-15.245-5.8c-4.184-0.365-25.807-1.328-47.545-1.336v-7.742
			h-0.537V32.061h-0.313h-0.115h-0.313v10.503h-0.537v7.742c-21.74,0.008-43.361,0.972-47.545,1.336
			c-8.309,0.719-12.717,2.006-15.245,5.8c-3.251,2.976-16.709,32.87-18.536,36.952l-2.684,3.362h-0.233v0.285l-1.952-2.231
			c0,0,2.212-3.782,1.17-7.194c-0.971-3.185-4.2-5.582-10.355-5.145c-6.157,0.437-11.518,3.129-10.599,8.896
			c0.695,4.353,4.682,5.712,7.001,6.589c3.6,1.367,7.674,0.391,7.674,0.391l2.154,4l-0.331,0.35
			c-1.189,1.446-2.366,2.76-3.496,4.027c-5.337,5.962-9.946,11.112-11.319,24.136c-0.48,4.508,0.11,10.925,1.079,21.561l0.493,5.415
			c0.501,5.647,0.708,10.436,0.873,14.278c0.283,6.568,0.507,10.854,1.966,13.259c0,17.651,0.563,19.762,5.11,19.762
			c6.159,0,15.665,0,18.157,0c2.492,0,4.655-1.461,5.401-4.436c1.062-4.233,1.134-8.086,1.428-10.135l68.062,1.794h2.578h0.115
			h2.577l49.11-1.294V189.665z M157.799,140.724H58.898c4.762-2.91,10.085-4.201,13.718-4.201c3.235,0,68.23,0,71.46,0
			C147.713,136.523,153.034,137.814,157.799,140.724z M65.82,100.158h85.06c-1.973,3.465-6.339,11.295-7.571,15.004
			c-1.318,3.979-4.445,13.393-5.511,16.609c-14.52,0-44.379,0-58.9,0c-1.066-3.216-4.194-12.63-5.511-16.609
			C72.155,111.453,67.792,103.623,65.82,100.158z M28.088,95.778l0.157-0.262c5.8-12.965,15.066-32.689,17.739-35.988h62.307h0.115
			h62.305c2.675,3.299,11.94,23.023,17.741,35.988l0.157,0.262l1.588,1.979H26.499L28.088,95.778z"/>
		<path fill="#FFFFFF" d="M160.093,175.859h-49.839h-3.815H52.314c0,0,0,5.761,2.679,6.848c2.669,1.088,9.27,2.026,13.011,2.335
			c3.016,0.252,28.617,0.601,38.434,0.727v0.052c0,0,0.7-0.01,1.905-0.024c1.213,0.015,1.91,0.024,1.91,0.024v-0.052
			c9.818-0.126,35.423-0.475,38.438-0.727c3.135-0.259,8.248-0.961,11.402-1.822V175.859z"/>
	</g>
</g>
</svg>
