<?xml version="1.0" encoding="utf-8"?>
<!-- Generator: Adobe Illustrator 16.0.0, SVG Export Plug-In . SVG Version: 6.00 Build 0)  -->
<!DOCTYPE svg PUBLIC "-//W3C//DTD SVG 1.1//EN" "http://www.w3.org/Graphics/SVG/1.1/DTD/svg11.dtd">
<svg version="1.1" id="Layer_1" xmlns="http://www.w3.org/2000/svg" xmlns:xlink="http://www.w3.org/1999/xlink" x="0px" y="0px"
	 width="316.176px" height="272.059px" viewBox="0 0 316.176 272.059" enable-background="new 0 0 316.176 272.059"
	 xml:space="preserve">
<g>
	<g>
		<g>
			<g>
				<g>
					<g>
						<rect x="0" y="0" fill="none" width="316.176" height="272.059"/>
					</g>
				</g>
			</g>
		</g>
	</g>
	<g>
		<g opacity="0.6">
			<path fill="#FFFFFF" d="M26.908,158.057c-4.997-0.042-9.236,4.245-9.024,9.077c0.229,4.6,4.461,8.432,9.187,8.284
				c4.85-0.138,8.658-4.02,8.626-8.757C35.654,161.981,31.712,158.099,26.908,158.057z"/>
			<path fill="#FFFFFF" d="M38.473,107.029c-3-0.846-22.362-1.386-24.275,14.121c-1.916,15.5,14.312,14.71,14.312,14.71
				s9.307,0.724,16.034-11.216C51.275,112.703,41.474,107.875,38.473,107.029z"/>
			<path fill="#FFFFFF" d="M116.351,120.276c-0.692,0.004-1.391,0-2.086,0.004c-0.109,0.002-0.18-0.041-0.25-0.111
				c0,0,0,0.004,0.004,0.004c-0.777-0.871-2.047-1.438-3.495-1.438c-1.532,0-2.858,0.637-3.614,1.588
				c0.024-0.033,0.042-0.072,0.067-0.102c-0.074,0.03-0.148,0.08-0.226,0.08c-1.881,0.003-3.763,0.009-5.645,0.016
				c0.096,0.231,0.283,0.409,0.442,0.598c0.451,0.526,0.91,1.042,1.439,1.5c0.096,0.085,0.198,0.163,0.3,0.24
				c0.011,0.01,0.024,0.021,0.036,0.035c0.009-0.003,0.017,0,0.017,0.007c0.105,0.074,0.215,0.134,0.279,0.247
				c0,0.006,0.007,0.014,0.021,0.014c0.052,0.003,0.091,0.029,0.127,0.063c0.014,0,0.032,0,0.045,0.007
				c0.032-0.084,0.109-0.049,0.163-0.049c0.73,0,1.468,0,2.198,0c0.227,0,0.293,0.081,0.276,0.363
				c-0.049-0.194-0.177-0.194-0.315-0.205c-0.737-0.042-1.479-0.032-2.215-0.109c-0.033,0-0.053,0.007-0.072,0.031
				c0.36,0.343,0.806,0.59,1.211,0.879c0.222,0.155,0.451,0.211,0.73,0.201c0.396-0.018,0.794-0.003,1.193-0.007
				c0.099,0,0.177,0.017,0.25,0.084c0.025,0.025,0.056,0.042,0.082,0.067c0.78,0.71,1.92,1.165,3.208,1.165
				c1.362,0,2.563-0.512,3.345-1.299c0.167-0.042,0.347-0.046,0.544-0.035c0.215,0.021,0.438-0.011,0.656,0.007
				c0.325,0.028,0.593-0.057,0.85-0.237c0.382-0.271,0.777-0.519,1.169-0.78c0.028-0.021,0.063-0.028,0.109-0.042
				c-0.159-0.13-0.279-0.035-0.385-0.042c-0.604,0.032-1.203,0.075-1.807,0.099c-0.169,0.007-0.25,0.054-0.303,0.205
				c-0.06,0.163-0.131,0.339-0.382,0.265c0,0.003,0,0.003-0.003,0.007c0.12-0.188,0.215-0.385,0.289-0.59
				c0.029-0.014,0.057-0.035,0.096-0.035c0.706,0,1.405,0.007,2.11,0.007c0.35,0.057,0.596-0.106,0.847-0.311
				c0.83-0.678,1.603-1.405,2.287-2.213c0.053-0.062,0.131-0.109,0.113-0.204c-0.809,0-1.62,0-2.428,0.003
				C117.205,120.261,116.778,120.272,116.351,120.276z M106.253,122.286c0-0.311-0.226-0.282-0.456-0.286
				c-0.956-0.025-1.916-0.053-2.872-0.078c-0.032,0-0.075,0.011-0.089-0.06c0.068,0,0.131-0.006,0.198-0.006
				c1.003-0.007,2.005,0,3.007-0.011c0.142,0,0.206,0.039,0.229,0.117c-0.004,0.042-0.018,0.088-0.018,0.13
				c0,0.071,0.021,0.138,0.032,0.216C106.267,122.297,106.253,122.289,106.253,122.286z M106.55,120.888
				c-0.024,0.009-0.028,0.04-0.06,0.04c-0.314-0.011-0.621-0.02-0.935-0.03c-0.695-0.016-1.391-0.032-2.086-0.051
				c-0.021,0.012-0.049,0.042-0.071,0.035c-0.562-0.084-1.122-0.01-1.684-0.039c-0.021,0-0.039-0.014-0.06-0.019
				c-0.003-0.056,0.036-0.06,0.067-0.06c0.558,0,1.112,0,1.67,0c0.024,0,0.05,0.018,0.074,0.03c0.957-0.003,1.917-0.007,2.877-0.007
				c0.052,0,0.103-0.005,0.151,0c0.029,0.003,0.064,0,0.092,0.007C106.571,120.823,106.564,120.858,106.55,120.888z
				 M110.524,125.141c-2.101,0-3.809-1.366-3.809-3.05c0-1.683,1.708-3.049,3.809-3.049c2.1,0,3.804,1.366,3.804,3.049
				C114.328,123.775,112.624,125.141,110.524,125.141z M117.456,121.887c-0.766,0.028-1.536,0.06-2.302,0.084
				c-0.141,0.003-0.215,0.011-0.205,0.18c0,0.092,0.085,0.282-0.113,0.282c-0.045,0-0.066-0.014-0.092-0.028
				c0.019-0.106,0.042-0.205,0.042-0.314c0-0.024-0.003-0.042-0.003-0.067c0.007-0.145,0.059-0.19,0.321-0.19
				c0.78-0.003,1.563-0.007,2.351-0.007c0.264-0.021,0.54-0.028,0.805,0c0.003,0.018,0.003,0.029,0.003,0.029
				C117.999,121.862,117.724,121.911,117.456,121.887z M119.559,120.735c-0.279,0.131-0.55,0.032-0.822,0
				C119.009,120.735,119.284,120.735,119.559,120.735z M118.638,120.805c-0.431,0.011-0.861,0.026-1.289,0.037
				c-0.846,0.016-1.69,0.036-2.541,0.048c-0.134,0.003-0.169,0.03-0.103,0.147c0.036,0.06,0.05,0.123,0.078,0.19
				c0.007,0.036,0.052,0.092-0.032,0.11c-0.064,0.01-0.088-0.025-0.103-0.074c-0.028-0.063-0.052-0.142-0.078-0.208
				c0.004,0.016,0.004,0.042,0.011,0.06c-0.015-0.044-0.032-0.09-0.049-0.136c0.004,0.019,0.021,0.033,0.028,0.053
				c-0.028-0.088-0.06-0.169-0.096-0.261c1.398,0,2.785,0,4.172,0C118.638,120.782,118.638,120.793,118.638,120.805z"/>
			<path fill="#FFFFFF" d="M109.109,121.277c-0.146,0.24-0.29,0.49-0.442,0.738c-0.025-0.018-0.032-0.025-0.035-0.032
				c-0.082-0.169-0.163-0.339-0.24-0.515c-0.149-0.328-0.149-0.325-0.519-0.311c-0.103,0-0.131,0.028-0.141,0.12
				c-0.028,0.399-0.074,0.791-0.11,1.186c-0.003,0.071-0.056,0.191,0.092,0.155c0.12-0.021,0.324,0.127,0.342-0.127
				c0.019-0.197,0.04-0.392,0.053-0.593c0.014,0,0.028,0,0.035,0c0.092,0.201,0.184,0.399,0.27,0.6
				c0.027,0.07,0.052,0.134,0.155,0.127c0.105-0.007,0.191,0.003,0.243-0.109c0.088-0.184,0.201-0.356,0.304-0.533
				c0.018-0.028,0.024-0.084,0.082-0.063c0.056,0.011,0.039,0.063,0.039,0.099c-0.007,0.148-0.011,0.296-0.025,0.444
				c-0.007,0.085-0.024,0.191,0.127,0.155c0.106-0.024,0.304,0.12,0.311-0.134c0.015-0.396,0.036-0.791,0.053-1.183
				c0.004-0.045,0.025-0.102-0.018-0.137C109.595,121.093,109.169,121.177,109.109,121.277z M109.215,121.898
				c-0.011-0.007-0.021-0.014-0.032-0.025c0.011-0.017,0.021-0.031,0.032-0.053c0.01,0.011,0.028,0.025,0.024,0.028
				C109.232,121.869,109.225,121.884,109.215,121.898z"/>
			<path fill="#FFFFFF" d="M112.274,121.15c-0.088-0.014-0.187-0.025-0.176,0.12c0.011,0.226,0,0.452,0,0.731
				c-0.254-0.283-0.476-0.519-0.688-0.766c-0.13-0.148-0.307-0.092-0.455-0.074c-0.106,0.014-0.046,0.152-0.053,0.229
				c-0.015,0.353-0.011,0.713-0.028,1.069c-0.007,0.131,0.025,0.194,0.169,0.166c0.109-0.021,0.293,0.082,0.272-0.155
				c-0.011-0.222,0-0.445,0-0.67c0.264,0.232,0.487,0.455,0.681,0.702c0.138,0.176,0.318,0.109,0.483,0.116
				c0.071,0,0.063-0.056,0.063-0.102c-0.006-0.417-0.013-0.836-0.017-1.253C112.521,121.063,112.363,121.167,112.274,121.15z"/>
			<path fill="#FFFFFF" d="M113.234,122.625c0.089-0.007,0.12-0.032,0.12-0.12c-0.01-0.201-0.003-0.402-0.003-0.607
				c-0.014,0-0.028,0-0.042,0c0-0.205,0-0.41,0-0.621c0-0.236-0.194-0.106-0.296-0.134c-0.12-0.028-0.156,0.028-0.156,0.141
				c0.019,0.35,0.019,0.699,0.029,1.048C112.892,122.653,112.892,122.653,113.234,122.625z"/>
			<path fill="#FFFFFF" d="M110.09,121.283c0.003,0.212,0,0.417,0,0.628c-0.018,0-0.032,0-0.045,0c0,0.191,0.01,0.385-0.008,0.579
				c-0.004,0.109,0.032,0.145,0.142,0.134c0.056-0.007,0.116-0.007,0.172,0c0.099,0.011,0.145-0.014,0.149-0.127
				c0.003-0.403,0.018-0.805,0.035-1.208c0.007-0.116-0.039-0.166-0.155-0.141C110.273,121.177,110.083,121.047,110.09,121.283z"/>
			<path fill="#FFFFFF" d="M110.711,119.26c-0.885,0-1.623,0.189-2.288,0.602c-1.811,1.13-1.831,3.283-0.042,4.373
				c1.404,0.865,3.479,0.681,4.693-0.402c1.218-1.087,1.225-2.696-0.003-3.729C112.377,119.517,111.543,119.274,110.711,119.26z
				 M112.658,123.927c-0.648,0.448-1.453,0.688-2.258,0.674c-0.823-0.014-1.575-0.222-2.209-0.727
				c-1.257-1.009-1.253-2.611-0.004-3.651c1.182-0.983,3.11-1.1,4.415-0.266C114.159,120.947,114.188,122.872,112.658,123.927z"/>
			<path fill="#FFFFFF" d="M82.775,161.289h55.617c0.648,0,1.171-0.525,1.171-1.172v-7.912c0-0.649-0.523-1.172-1.171-1.172H82.775
				c-0.649,0-1.172,0.522-1.172,1.172v7.912C81.603,160.764,82.126,161.289,82.775,161.289z"/>
		</g>
		<path opacity="0.6" fill="#FFFFFF" d="M163.663,186.808l-50.408,1.323h-2.611h-0.12h-2.612l-76.031-1.994l-21.233-2.887
			c-2.347-0.569-2.619-4.557-3.011-13.525c-0.168-3.971-0.38-8.912-0.906-14.765l-0.501-5.558
			c-0.946-10.391-1.571-17.249-1.108-21.628c1.327-12.57,5.59-17.342,10.994-23.379c1.178-1.322,2.403-2.691,3.603-4.147
			l4.877-5.255h25.857c1.849,3.413,5.897,11.105,8.082,16.887c2.337,6.188,3.936,13.886,4.612,16.96
			c-11.411,3.304-21.211,12.384-21.211,26.436c0,14.425,23.729,14.064,28.948,14.064c4.031,0,75.367,0,79.398,0
			c2.209,0,7.739,0.053,13.38-0.967v-5.436c-4.974,0.91-11.231,0.759-16.431,0.759c-7.098,0-66.201,0-73.302,0
			c-10.436,0-25.15,0.614-25.15-8.001c0-2.393,0.367-4.56,0.97-6.544h113.913v-1.538H50.269c0.508-1.303,1.147-2.499,1.867-3.622
			h111.527v-1.538H53.206c1.288-1.659,2.788-3.084,4.405-4.311h105.943c0.039,0.029,0.07,0.064,0.109,0.097v-7.197
			c-1.811-0.896-3.699-1.638-5.644-2.202c0.678-3.071,2.272-10.772,4.613-16.96c2.185-5.781,6.233-13.474,8.081-16.887h25.857
			l4.878,5.255c0.815,0.99,1.634,1.897,2.449,2.82h3.269c-0.095-0.105-0.185-0.208-0.279-0.314
			c-1.158-1.299-2.364-2.645-3.585-4.129l-0.339-0.36l2.208-4.1c0,0,4.176,0.997,7.871-0.402c2.38-0.902,6.47-2.298,7.183-6.761
			c0.942-5.916-4.557-8.677-10.87-9.125c-6.314-0.448-9.629,2.01-10.628,5.277c-1.065,3.501,1.204,7.38,1.204,7.38l-2.001,2.289
			v-0.293h-0.24l-2.753-3.448c-1.875-4.187-15.681-34.851-19.014-37.904c-2.593-3.892-7.115-5.211-15.638-5.949
			c-4.292-0.374-26.472-1.362-48.771-1.371v-7.941h-0.551V25.142h-0.321h-0.12h-0.321v10.774h-0.551v7.941
			c-22.299,0.009-44.478,0.997-48.771,1.371c-8.523,0.738-13.044,2.058-15.638,5.949C41.908,54.23,28.105,84.894,26.23,89.081
			l-2.753,3.448h-0.24v0.293l-2.001-2.289c0,0,2.27-3.879,1.201-7.38c-0.995-3.267-4.31-5.725-10.624-5.277
			C5.499,78.325,0,81.087,0.942,87.002c0.713,4.463,4.804,5.859,7.183,6.761c3.691,1.399,7.87,0.402,7.87,0.402l2.209,4.1
			l-0.339,0.36c-1.222,1.484-2.428,2.831-3.586,4.129c-5.474,6.116-10.203,11.402-11.612,24.759
			c-0.49,4.624,0.113,11.205,1.109,22.115l0.504,5.555c0.515,5.793,0.727,10.706,0.896,14.647c0.29,6.739,0.519,11.133,2.015,13.6
			c0,18.105,0.579,20.272,5.241,20.272c6.317,0,16.07,0,18.625,0c2.556,0,4.775-1.5,5.542-4.553
			c1.091-4.342,1.161-8.294,1.465-10.394l69.815,1.838h2.644h0.12h2.643l50.376-1.326V186.808z M161.31,136.606H59.859
			c4.884-2.987,10.345-4.311,14.071-4.311c3.317,0,69.989,0,73.302,0C150.964,132.295,156.42,133.619,161.31,136.606z M66.96,94.993
			h87.251c-2.023,3.552-6.501,11.589-7.765,15.39c-1.352,4.08-4.561,13.738-5.655,17.038c-14.894,0-45.522,0-60.416,0
			c-1.094-3.3-4.303-12.958-5.655-17.038C73.458,106.582,68.983,98.545,66.96,94.993z M28.253,90.498l0.162-0.267
			C34.366,76.933,43.871,56.7,46.613,53.316h63.911h0.12h63.911c2.742,3.384,12.247,23.617,18.198,36.916l0.162,0.267l1.627,2.031
			H26.625L28.253,90.498z"/>
		<path opacity="0.6" fill="#FFFFFF" d="M163.663,172.644h-51.125h-3.914H53.107c0,0,0,5.908,2.745,7.024
			c2.739,1.118,9.509,2.077,13.349,2.396c3.092,0.257,29.354,0.617,39.423,0.745v0.053c0,0,0.72-0.01,1.956-0.025
			c1.241,0.016,1.958,0.025,1.958,0.025v-0.053c10.07-0.128,36.336-0.488,39.427-0.745c3.216-0.265,8.461-0.984,11.698-1.871
			V172.644z"/>
		<path opacity="0.6" fill="#FFFFFF" d="M264.51,146.459c1.415,0,2.562-1.146,2.562-2.559v-1.896c0-1.416-1.146-2.562-2.562-2.562
			h-41.457c-1.416,0-2.562,1.146-2.562,2.562v1.896c0,1.412,1.146,2.559,2.562,2.559H264.51z"/>
		<path opacity="0.6" fill="#FFFFFF" d="M200.14,157.608v1.268c0,1.415,1.147,2.563,2.562,2.563h84.173
			c1.412,0,2.56-1.148,2.56-2.563v-1.268c0-1.414-1.147-2.562-2.56-2.562h-84.173C201.287,155.046,200.14,156.194,200.14,157.608z"
			/>
		<path opacity="0.6" fill="#FFFFFF" d="M291.856,208.079c0.078-0.491-0.054-0.995-0.356-1.388l-2.362-3.049l2.362-3.05
			c0.303-0.392,0.435-0.896,0.356-1.387c-0.078-0.494-0.356-0.932-0.771-1.211l-3.183-2.171l1.299-3.631
			c0.169-0.47,0.135-0.988-0.091-1.433c-0.227-0.442-0.626-0.773-1.106-0.911l-3.698-1.084l0.117-3.854
			c0.014-0.498-0.178-0.979-0.53-1.331c-0.353-0.35-0.833-0.519-1.33-0.529l-3.854,0.117l-1.083-3.699
			c-0.139-0.48-0.47-0.879-0.915-1.105c-0.434-0.225-0.956-0.258-1.43-0.091l-3.631,1.302l-2.171-3.187
			c-0.278-0.413-0.717-0.692-1.21-0.771c-0.494-0.066-0.992,0.054-1.388,0.357l-3.049,2.361l-3.05-2.361
			c-0.396-0.304-0.894-0.424-1.388-0.357c-0.493,0.078-0.932,0.357-1.21,0.771l-2.171,3.187l-3.631-1.302
			c-0.467-0.167-0.989-0.134-1.43,0.091c-0.445,0.227-0.776,0.625-0.914,1.105l-1.084,3.699l-3.854-0.117
			c-0.497,0.021-0.978,0.18-1.33,0.529c-0.353,0.353-0.543,0.833-0.529,1.331l0.117,3.854l-3.699,1.084
			c-0.48,0.138-0.879,0.469-1.105,0.911c-0.226,0.444-0.261,0.963-0.092,1.433l1.299,3.631l-3.183,2.171
			c-0.414,0.279-0.692,0.717-0.771,1.211c-0.077,0.49,0.054,0.995,0.356,1.387l2.362,3.05l-2.362,3.049
			c-0.303,0.393-0.434,0.896-0.356,1.388c0.078,0.494,0.356,0.932,0.771,1.211l3.183,2.171l-1.299,3.631
			c-0.169,0.47-0.134,0.988,0.092,1.433c0.227,0.442,0.625,0.773,1.105,0.91l3.699,1.085l-0.117,3.854
			c-0.014,0.498,0.177,0.979,0.529,1.331c0.35,0.353,0.822,0.562,1.33,0.528l3.854-0.116l-1.355,0.043v35.319l15.254-11.083
			l15.255,11.083v-33.315l0.6-2.047l3.854,0.116c0.511,0.047,0.978-0.176,1.33-0.528s0.544-0.833,0.53-1.331l-0.117-3.854
			l3.698-1.085c0.48-0.137,0.88-0.468,1.106-0.91c0.226-0.444,0.26-0.963,0.091-1.433l-1.299-3.631l3.183-2.171
			C291.499,209.011,291.778,208.573,291.856,208.079z M274.494,252.385l-9.77-7.1v-15.645l-0.893-0.692l-2.85,2.206v14.131
			l-9.769,7.1V228.99c0.381,0.128,0.787,0.159,1.169,0.021l3.631-1.302l2.171,3.187c0.278,0.412,0.717,0.691,1.21,0.769
			c0.494,0.079,0.992-0.049,1.388-0.356l3.05-2.36l3.049,2.36c0.317,0.248,0.706,0.378,1.104,0.378c0.095,0,0.188-0.006,0.283-0.021
			c0.493-0.077,0.932-0.356,1.21-0.769l2.171-3.187l2.845,1.02V252.385z M285.425,204.746l2.04,2.638l-2.753,1.877
			c-0.682,0.463-0.963,1.328-0.685,2.104l1.125,3.142l-3.2,0.933c-0.791,0.232-1.327,0.966-1.303,1.789l0.103,3.335l-3.335-0.103
			c-0.83-0.021-1.558,0.511-1.79,1.304l-0.932,3.197l-3.142-1.127c-0.783-0.278-1.642,0-2.104,0.686l-1.877,2.755l-2.637-2.039
			c-0.324-0.251-0.713-0.377-1.104-0.377s-0.781,0.126-1.105,0.377l-2.637,2.039l-1.877-2.755c-0.458-0.683-1.324-0.957-2.104-0.686
			l-3.142,1.127l-0.932-3.197c-0.229-0.793-1.006-1.335-1.79-1.304l-3.335,0.103l0.104-3.335c0.023-0.823-0.513-1.557-1.303-1.789
			l-3.201-0.933l1.126-3.142c0.279-0.775-0.004-1.641-0.686-2.104l-2.753-1.877l2.04-2.638c0.505-0.648,0.505-1.559,0-2.208
			l-2.04-2.637l2.753-1.878c0.682-0.462,0.965-1.327,0.686-2.104l-1.126-3.141l3.201-0.932c0.79-0.232,1.326-0.966,1.303-1.789
			l-0.104-3.335l3.335,0.103c0.795,0.043,1.562-0.513,1.79-1.304l0.932-3.197l3.142,1.126c0.772,0.269,1.642-0.003,2.104-0.685
			l1.877-2.756l2.637,2.04c0.649,0.501,1.561,0.501,2.21,0l2.637-2.04l1.877,2.756c0.462,0.682,1.328,0.961,2.104,0.685l3.142-1.126
			l0.932,3.197c0.232,0.791,0.949,1.335,1.79,1.304l3.335-0.103l-0.103,3.335c-0.024,0.823,0.512,1.557,1.303,1.789l3.2,0.932
			l-1.125,3.141c-0.278,0.777,0.003,1.643,0.685,2.104l2.753,1.878l-2.04,2.637C284.92,203.188,284.92,204.098,285.425,204.746z"/>
		<path opacity="0.6" fill="#FFFFFF" d="M309.163,111.916h-128.03c-3.401,0-6.172,2.771-6.172,6.175v97.407
			c0,3.405,2.771,6.176,6.172,6.176h53.214v-7.227h-52.158v-95.303h125.924v95.303h-14.81v7.227h15.86
			c3.407,0,6.177-2.771,6.177-6.176v-97.407C315.34,114.687,312.571,111.916,309.163,111.916z"/>
	</g>
</g>
</svg>
