<?xml version="1.0" encoding="utf-8"?>
<!-- Generator: Adobe Illustrator 16.0.4, SVG Export Plug-In . SVG Version: 6.00 Build 0)  -->
<!DOCTYPE svg PUBLIC "-//W3C//DTD SVG 1.1//EN" "http://www.w3.org/Graphics/SVG/1.1/DTD/svg11.dtd">
<svg version="1.1" id="Layer_1" xmlns="http://www.w3.org/2000/svg" xmlns:xlink="http://www.w3.org/1999/xlink" x="0px" y="0px"
	 width="316.176px" height="272.059px" viewBox="0 0 316.176 272.059" enable-background="new 0 0 316.176 272.059"
	 xml:space="preserve">
<g>
	<g>
		<g>
			<rect x="0" y="0" fill="none" width="316.176" height="272.059"/>
		</g>
	</g>
	<g opacity="0.6">
		<path fill="#FFFFFF" d="M119.815,23.513c0.635,1.594,1.634,2.27,3.327,2.27c1.078,0.016,2.142,0.034,3.208,0
			c0.496-0.017,0.628,0.124,0.621,0.601c-0.026,2.029-0.04,4.065,0.02,6.111c0.04,1.68,1.132,2.989,2.759,3.465
			c0.952,0.257,1.857,0.113,2.777-0.335c0,0.681-0.021,1.282,0,1.876c0.093,2.089,1.673,3.67,3.677,3.709
			c0.04,0,0.066-0.011,0.066-0.011c2.175,0,3.803-1.661,3.816-3.964c0.02-3.583,0.02-7.188-0.014-10.799
			c0-0.529,0.138-0.653,0.668-0.653c7.561,0.016,15.14,0.016,22.687,0c0.549,0,0.714,0.116,0.714,0.687
			c-0.024,3.731-0.031,7.461,0.015,11.185c0.039,1.99,1.704,3.531,3.678,3.557c1.996,0.041,3.603-1.434,3.788-3.418
			c0.054-0.582,0.048-1.143,0.048-1.741c0-0.296,0.06-0.435,0.396-0.271c0.344,0.18,0.715,0.266,1.112,0.293
			c2.288,0.139,4.048-1.522,4.073-3.883c0.041-1.912,0.041-3.844-0.005-5.774c-0.008-0.528,0.164-0.633,0.635-0.617
			c1.467,0.042,2.956,0.042,4.436,0c1.391-0.033,2.363-0.752,2.938-2.009c0.054-0.151,0.028-0.365,0.226-0.423
			c0-0.49,0-0.944,0.026-1.437c-0.026-0.025-0.094-0.039-0.094-0.039c-0.594-1.805-1.599-2.546-3.464-2.558
			c-1.375,0-2.751-0.008-4.128,0.011c-0.437,0.014-0.582-0.085-0.569-0.537c0.026-1.915-0.013-3.819,0.014-5.726
			c0.027-3.274-3.128-4.764-5.204-3.728c-0.353,0.182-0.391,0.024-0.391-0.288c0-0.615,0-1.182-0.054-1.792
			c-0.146-1.766-1.647-3.221-3.412-3.327c-2.316-0.171-4.062,1.508-4.087,3.922c0,3.598,0,7.196,0.024,10.8
			c0,0.59-0.165,0.689-0.714,0.689c-7.541-0.025-15.087-0.025-22.634,0c-0.583,0-0.734-0.139-0.734-0.723
			c0.032-3.598,0.032-7.163,0.013-10.733c-0.013-2.322-1.633-4.002-3.816-3.988c-2.124,0.033-3.718,1.713-3.737,3.983
			c-0.014,0.509,0,1.023,0,1.561c-0.523-0.105-0.945-0.36-1.449-0.399c-2.315-0.158-4.081,1.508-4.108,3.902
			c-0.019,1.951-0.019,3.897,0,5.854c0.007,0.429-0.118,0.529-0.535,0.529c-1.178-0.02-2.354-0.02-3.538,0
			c-1.449,0.039-2.461,0.761-3.016,2.093c-0.047,0.125-0.021,0.302-0.219,0.362c0,0.515,0,1.038,0,1.542
			C119.756,23.367,119.775,23.441,119.815,23.513z"/>
		<path fill="#FFFFFF" d="M240.491,105.674c0.125,0.033,0.285,0.014,0.349,0.153c12.834,0,25.651,0,38.482,0
			c-0.094-0.172-0.038-0.344-0.038-0.516c-0.014-12.991-0.014-25.983,0-38.978c0-0.438-0.066-0.601-0.542-0.562
			c-0.623,0.052-1.258,0.039-1.88,0.005c-0.384-0.033-0.519,0.11-0.451,0.457c0.009,0.1,0,0.205,0,0.279
			c0,11.984-0.006,23.98,0.009,35.965c0,0.438-0.105,0.531-0.529,0.531c-11.146-0.006-22.283-0.006-33.423,0
			c-1.053,0-1.985-0.238-2.652-1.107c-0.694-0.897-0.812-1.896-0.362-2.915c0.435-1.004,1.258-1.603,2.386-1.686
			c0.333-0.033,0.655-0.033,0.98-0.033c10.075,0,20.141,0,30.207,0.005c0.424,0,0.557-0.061,0.557-0.528
			c-0.028-12.07-0.028-24.149-0.028-36.227c0-0.145-0.027-0.282-0.039-0.443c-1.84,0-3.673,0-5.502,0c-8.679,0-17.37,0-26.048,0
			c-0.16,0-0.356,0.099-0.489-0.073c0,0-0.062,0-0.094,0c-0.157,0.172-0.377,0.12-0.567,0.167c-2.6,0.567-4.485,2.909-4.485,5.562
			c0,11.459,0,22.942,0,34.411C236.33,102.748,237.984,104.941,240.491,105.674z"/>
		<path fill="#FFFFFF" d="M289.525,180.948c-2.375-3.412-4.606-6.886-6.816-10.389c-1.314-2.1-3.304-3.375-5.673-4.036
			c-2.501-0.68-5.041-1.263-7.568-1.891c-0.034-0.008-0.066-0.042-0.105-0.074c-0.061,0-0.133,0-0.212,0
			c-1.006,1.754-2.341,3.169-4.312,3.812c-2.115,0.675-4.052,0.245-5.788-1.124c-0.933-0.733-1.691-1.646-2.267-2.688
			c-0.066,0-0.132,0-0.199,0c-1.322,0.432-2.693,0.675-4.022,1.041c-1.652,0.471-3.373,0.675-4.938,1.381
			c-1.991,0.88-3.604,2.194-4.756,4.115c-1.993,3.319-4.155,6.54-6.351,9.729c-0.245,0.343-0.29,0.495,0.14,0.761
			c2.327,1.375,4.622,2.795,6.916,4.227c0.312,0.19,0.452,0.158,0.656-0.152c1.276-1.951,2.599-3.884,3.903-5.829
			c0.085-0.145,0.19-0.263,0.29-0.421c0.146,0.111,0.073,0.238,0.073,0.348c0.007,12.754,0.007,25.507,0.007,38.258
			c0,0.08-0.007,0.185-0.007,0.266c9.655,0,19.32,0,28.977,0c0-2.218-0.041-27.756-0.041-38.289c0-0.181-0.063-0.392,0.067-0.604
			c0.55,0.819,1.079,1.615,1.612,2.413c0.881,1.29,1.761,2.587,2.613,3.896c0.186,0.272,0.312,0.31,0.57,0.145
			c2.364-1.454,4.751-2.909,7.125-4.338C289.729,181.315,289.68,181.2,289.525,180.948z"/>
		<path fill="#FFFFFF" d="M48.699,182.67c-2.129,0.543-3.148,1.916-3.16,4.412c-0.014,8.382,0.012,16.759-0.028,25.121
			c-0.013,1.163,0.344,1.476,1.449,1.42c1.482-0.086,1.488-0.007,1.488,1.436c0.007,5.445,0,10.9,0.007,16.372
			c0,1.586,1,2.552,2.653,2.533c1.666,0,2.486-0.814,2.486-2.509c0-7.516,0.013-37.554,0.013-45.027
			C53.607,183.833,51.219,182.023,48.699,182.67z"/>
		<path fill="#FFFFFF" d="M38.421,182.604c-0.264-0.071-0.74,0.053-0.873,0.239c-0.186,0.276-0.186,0.699-0.186,1.057
			c-0.012,3.398-0.033,6.792-0.012,10.207c0,0.714-0.245,1.053-1.04,1.053c-0.766,0-1.064-0.317-1.023-1.053
			c0.005-0.346,0-0.663,0-1.002c-0.007-3.186,0.005-6.348-0.028-9.542c-0.013-0.338-0.317-0.775-0.628-0.98
			c-0.138-0.092-0.674,0.205-0.878,0.438c-0.166,0.219-0.106,0.637-0.106,0.974c0,3.346-0.033,6.722,0.014,10.081
			c0.005,0.819-0.259,1.13-1.073,1.085c-0.912-0.062-0.84-0.665-0.84-1.258c-0.006-3.242,0-6.497-0.006-9.735
			c0-0.344,0.067-0.704-0.053-0.995c-0.099-0.257-0.443-0.628-0.635-0.595c-0.265,0.04-0.596,0.338-0.741,0.615
			c-0.132,0.218-0.053,0.58-0.053,0.88c0,3.268,0,6.562,0,9.843c0.014,0.686-0.06,1.203-0.992,1.217
			c-1.157,0.052-1.079-0.688-1.079-1.437c0-3.332-0.007-6.64,0-9.972c0.007-0.736-0.165-1.37-1.018-1.133
			c-0.297,0.08-0.602,0.757-0.609,1.166c-0.032,5.151-0.032,10.263-0.032,15.402c0,1.647,0.812,2.902,2.394,3.27
			c1.138,0.263,1.349,0.833,1.335,1.851c-0.04,4.471,0,22.626,0,27.271c-0.019,1.062,0.397,1.863,1.335,2.367
			c1.839,0.952,3.864-0.391,3.864-2.585c0.013-9.157,0.013-18.304-0.014-27.471c-0.013-0.819,0.171-1.217,1.059-1.433
			c1.812-0.452,2.501-1.518,2.501-3.389c0-4.768,0-9.515,0-14.287c0-0.476,0.064-0.972-0.041-1.439
			C38.916,183.052,38.659,182.682,38.421,182.604z"/>
		<path fill="#FFFFFF" d="M65.704,88.373c-0.271,0.811-1.303,7.102-1.395,7.869c-0.1,0.772,0.065,0.861,0.502,1.143
			c0.417,0.289,1.19,0.526,1.23,0.57c0.026,0.028,6.389-8.042,6.548-8.253c0.198-0.161,8.187-6.62,8.148-6.667
			c-0.033-0.042-0.291-0.789-0.583-1.218c-0.291-0.423-0.37-0.589-1.138-0.49c-0.766,0.113-7.051,1.224-7.85,1.517
			c-0.8,0.271-1.019,0.078-1.449-0.377c-0.41-0.471-9.26-10.517-9.26-10.517l16.958-9.15c0,0-0.767-1.971-1.203-2.967
			c-0.437-1.007-1.23-1.091-2.222-0.903c-1.919,0.366-18.48,3.898-19.877,4.191c-1.415,0.311-1.924-0.584-2.254-0.894
			c-0.331-0.324-8.4-8.361-12.177-12.396c-3.393-3.623-9.65-5.661-11.324-3.953c-1.685,1.705,0.233,8.134,3.903,11.486
			c4.081,3.72,12.236,11.669,12.56,12.006c0.318,0.304,1.218,0.813,0.926,2.228c-0.296,1.403-3.57,18.015-3.915,19.937
			c-0.186,0.996-0.066,1.785,0.945,2.208c1.006,0.429,2.97,1.162,2.97,1.162l8.917-17.083c0,0,10.173,8.703,10.635,9.129
			C65.771,87.355,65.962,87.564,65.704,88.373z"/>
		<path fill="#FFFFFF" d="M165.115,261.876c0.048-4.554,0.034-9.123,0.034-13.692c-0.013-0.537,0.152-0.928,0.489-1.323
			c6.085-7.481,12.137-14.996,18.208-22.496c0.231-0.263,0.517-0.51,0.589-0.858c-4.485,0-38.972,0-43.448,0
			c0.072,0.344,0.35,0.596,0.581,0.858c6.066,7.5,12.138,15.015,18.217,22.496c0.337,0.39,0.502,0.786,0.495,1.323
			c-0.013,4.569-0.026,9.139,0.015,13.692c0.012,0.786-0.079,1.223-1.099,1.677c-1.033,0.483-7.779,3.812-9.783,4.592
			c0.926-0.014,25.663-0.014,26.596,0c-1.996-0.78-8.749-4.108-9.782-4.592C165.201,263.099,165.115,262.662,165.115,261.876z
			 M163.734,234.511c0-1.963,1.588-3.565,3.559-3.565c1.964,0,3.558,1.603,3.558,3.565c0,1.959-1.594,3.559-3.558,3.559
			C165.322,238.07,163.734,236.47,163.734,234.511z"/>
		<path fill="#FFFFFF" d="M116.853,32.182c-0.199-1.102-0.411-2.168-0.623-3.214c-15.781,4.207-30.213,11.732-42.482,21.813
			c0.423,1.007,0.906,2.037,1.449,3.03C87.193,43.812,101.342,36.34,116.853,32.182z"/>
		<path fill="#FFFFFF" d="M182.644,35.074c17.971,6.568,33.718,17.744,45.883,32.079V62.29
			c-12.288-13.537-27.766-24.146-45.295-30.451L182.644,35.074z"/>
		<path fill="#FFFFFF" d="M256.24,156.611c1.023-6.085,1.586-12.356,1.586-18.739c0-8.884-1.058-17.533-3.015-25.829h-3.326
			c2.008,8.276,3.088,16.934,3.088,25.829c0,5.979-0.509,11.847-1.43,17.562L256.24,156.611z"/>
		<path fill="#FFFFFF" d="M182.644,240.612v3.47c24.393-8.644,44.97-25.43,58.383-47.117l-3.043-1.279
			C225.152,216.224,205.694,232.164,182.644,240.612z"/>
		<path fill="#FFFFFF" d="M63.31,210.382v4.791c20.232,21.389,48.7,34.9,80.303,35.319v-3.247
			C111.694,246.799,83.06,232.626,63.31,210.382z"/>
		<path fill="#FFFFFF" d="M40.882,104.736l-3.26-0.518c-3.348,10.631-5.146,21.935-5.146,33.653c0,12.627,2.137,24.771,5.979,36.108
			c1.124,0,2.282,0,3.432,0c-3.967-11.312-6.151-23.454-6.151-36.108C35.735,126.317,37.554,115.198,40.882,104.736z"/>
		<g>
			<path fill="#FFFFFF" d="M153.657,113.421c-3.567,0-6.469,2.313-6.469,5.162c0,2.867,2.902,5.184,6.469,5.184
				c3.57,0,6.457-2.317,6.457-5.184C160.114,115.734,157.227,113.421,153.657,113.421z M157.986,121.544
				c-2.05,1.822-5.58,2.146-7.97,0.667c-3.038-1.843-2.998-5.507,0.074-7.404c1.121-0.703,2.392-1.024,3.873-1.024
				c1.441,0,2.808,0.435,4.023,1.439C160.054,116.969,160.034,119.701,157.986,121.544z"/>
			<path fill="#FFFFFF" d="M146.37,118.24c0,0-0.075-0.075-0.322-0.075c-1.708,0.023-3.397,0.023-5.105,0.023
				c-0.112,0-0.227,0.033-0.343,0.033c0.04,0.062,0.136,0.062,0.136,0.062c1.632,0.054,3.265,0.11,4.895,0.148
				c0.397,0,0.78-0.038,0.78,0.477l0.035-0.077c0,0-0.035-0.13-0.035-0.302C146.411,118.527,146.446,118.429,146.37,118.24z"/>
			<path fill="#FFFFFF" d="M149.674,115.414c-2.088,1.766-2.144,4.479,0.036,6.188c1.064,0.85,2.318,1.212,3.741,1.212
				c1.346,0.056,2.712-0.343,3.831-1.121c2.566-1.801,2.545-5.065-0.111-6.737C154.951,113.553,151.687,113.759,149.674,115.414z
				 M152.179,119.263c-0.02,0.418-0.361,0.191-0.572,0.212c-0.226,0.056-0.206-0.116-0.206-0.288c0-0.246,0.055-0.47,0.055-0.736
				c0-0.061-0.055-0.191-0.055-0.191c-0.096,0-0.134,0.15-0.134,0.15c-0.191,0.288-0.378,0.587-0.533,0.911
				c-0.091,0.154-0.227,0.154-0.417,0.154c-0.152,0.033-0.267-0.212-0.267-0.212c-0.109-0.34-0.281-0.681-0.436-1.002h-0.076
				c-0.035,0.322-0.056,0.662-0.077,1.002c-0.033,0.438-0.587,0.212-0.587,0.212c-0.265,0.056-0.151-0.154-0.131-0.288
				c0.057-0.647,0.076-1.309,0.131-1.993c0.041-0.149,0.115-0.204,0.268-0.204c0.627-0.022,0.627-0.022,0.893,0.512
				c0.129,0.321,0.282,0.586,0.396,0.907c0,0,0.02,0,0.056,0.042c0.247-0.42,0.514-0.853,0.779-1.257
				c0.076-0.149,0.797-0.321,0.948-0.204l0.041,0.246C152.215,117.899,152.195,118.583,152.179,119.263z M153.6,119.263
				c0,0.212-0.245,0.212-0.245,0.212c-0.076,0-0.191,0-0.322,0c-0.169,0.033-0.21-0.021-0.21-0.212c0.041-0.34,0-0.681,0-1.002
				h0.115c0-0.362,0-0.703,0-1.065c-0.04-0.376,0.302-0.149,0.456-0.204c0.206-0.042,0.263,0.033,0.263,0.246
				C153.642,117.899,153.6,118.583,153.6,119.263z M156.96,119.476c-0.267,0-0.587,0.134-0.832-0.171
				c-0.307-0.457-0.685-0.819-1.122-1.235c0,0.382-0.018,0.778,0,1.174c0.021,0.382-0.285,0.21-0.476,0.232
				c-0.246,0.056-0.302-0.021-0.282-0.288c0.021-0.605,0.021-1.194,0.055-1.951c0,0-0.113-0.213,0.077-0.246
				c0.267-0.022,0.53-0.158,0.779,0.129c0.359,0.438,0.737,0.819,1.14,1.309c0-0.49,0.035-0.871,0-1.25
				c0-0.23,0.319-0.188,0.319-0.188c0.152,0.033,0.416-0.158,0.416,0.188c0,0.7,0.021,1.403,0.041,2.223
				C157.075,119.402,157.075,119.476,156.96,119.476z M157.874,116.969c0.17,0.055,0.492-0.169,0.492,0.227c0,0.363,0,0.704,0,1.065
				c0.036,0,0.075,0,0.075,0c0,0.322,0,0.681,0,1.044c0,0.149-0.039,0.171-0.189,0.171c-0.567,0.056-0.567,0.056-0.628-0.478
				c0-0.587,0-1.173-0.035-1.802C157.589,117.024,157.684,116.916,157.874,116.969z"/>
			<path fill="#FFFFFF" d="M146.541,116.383c-1.612,0-3.245,0-4.856,0c-0.06-0.02-0.134-0.061-0.134-0.061c-0.951,0-1.898,0-2.829,0
				l-0.095,0.115l0.076,0.04c0.95,0.016,1.897-0.094,2.887,0.035c0,0,0.036-0.02,0.096-0.035c1.194,0.016,2.371,0.035,3.545,0.113
				c0.533,0,1.065,0.039,1.576,0.039l0.096-0.136l0.076-0.11c-0.076,0-0.172,0-0.172,0
				C146.712,116.363,146.541,116.383,146.541,116.383z"/>
			<path fill="#FFFFFF" d="M151.381,118.24h0.02l0.055-0.052l-0.055-0.083C151.401,118.164,151.381,118.187,151.381,118.24z"/>
			<path fill="#FFFFFF" d="M203.345,117.73c-5.214-7.493-10.104-15.114-14.96-22.81c-2.886-4.605-7.255-7.407-12.458-8.857
				c-5.484-1.495-11.062-2.772-16.611-4.151c-0.071-0.016-0.146-0.089-0.229-0.164c-0.136,0-0.294,0-0.47,0
				c-2.206,3.851-5.135,6.958-9.467,8.367c-4.643,1.484-8.896,0.541-12.705-2.465c-2.047-1.614-3.711-3.618-4.977-5.901
				c-0.146,0-0.292,0-0.437,0c-2.905,0.95-5.912,1.481-8.83,2.283c-3.627,1.036-7.406,1.484-10.846,3.034
				c-4.368,1.932-7.911,4.821-10.438,9.034c-4.375,7.284-9.12,14.358-13.943,21.356c-0.537,0.757-0.636,1.09,0.309,1.671
				c5.109,3.022,10.147,6.138,15.183,9.28c0.688,0.418,0.991,0.347,1.441-0.335c2.801-4.282,5.706-8.524,8.567-12.795
				c0.188-0.318,0.419-0.579,0.638-0.921c0.323,0.243,0.158,0.517,0.158,0.76c0.018,28,0.018,55.996,0.018,83.986
				c0,0.177-0.018,0.407-0.018,0.584c21.199,0,42.417,0,63.617,0c0-4.863-0.091-60.93-0.091-84.057c0-0.396-0.138-0.856,0.146-1.323
				c1.209,1.799,2.37,3.548,3.541,5.297c1.934,2.83,3.866,5.68,5.736,8.553c0.409,0.599,0.688,0.681,1.253,0.321
				c5.194-3.194,10.426-6.388,15.639-9.524C203.793,118.536,203.69,118.283,203.345,117.73z M169.659,115.809
				c-1.179,1.37-2.485,2.602-3.89,3.742c-0.438,0.341-0.875,0.629-1.443,0.532c-1.216,0-2.395,0-3.589,0
				c-0.074,0-0.172,0.074-0.172,0.074c-0.109,0.363-0.264,0.684-0.471,0.97c0.415,0.11,0.547-0.188,0.643-0.457
				c0.114-0.244,0.21-0.341,0.512-0.341c1.024-0.019,2.05-0.132,3.077-0.171c0.188,0,0.377-0.135,0.568,0.098
				c0,0-0.055,0.055-0.115,0.055c-0.644,0.435-1.346,0.833-1.974,1.309c-0.437,0.321-0.89,0.476-1.442,0.399
				c-0.36,0-0.758,0.039-1.12,0c-0.32,0-0.626,0-0.928,0.077c-1.33,1.306-3.361,2.201-5.659,2.201c-2.201,0-4.118-0.8-5.464-1.955
				c-0.04-0.08-0.075-0.096-0.115-0.152c-0.169-0.133-0.267-0.171-0.433-0.171c-0.667,0.039-1.35,0-2.015,0.039
				c-0.475,0.039-0.853-0.075-1.234-0.326c-0.723-0.51-1.46-0.946-2.029-1.55c0,0,0-0.023,0.095-0.023
				c1.211,0.152,2.485,0.152,3.736,0.211c0.247,0,0.457,0,0.552,0.356c0-0.49-0.096-0.642-0.476-0.642c-1.232,0-2.486,0-3.738,0
				l-0.266,0.074c-0.038,0-0.075,0-0.075,0l-0.229-0.094l-0.037-0.042c-0.116-0.205-0.306-0.246-0.456-0.396l-0.02-0.016
				c-0.057-0.059-0.076-0.078-0.076-0.078c-0.17-0.129-0.361-0.268-0.512-0.396c-0.911-0.8-1.667-1.658-2.466-2.546
				c-0.266-0.302-0.552-0.61-0.724-0.988c3.19-0.037,6.378-0.037,9.565-0.037c0.131,0,0.268-0.119,0.343-0.119
				c0,0-0.055,0.078-0.075,0.155c1.29-1.614,3.549-2.713,6.146-2.713c2.471,0,4.595,0.969,6.038,2.558c0,0,0.114,0.078,0.306,0.078
				c1.174,0,2.354,0,3.527,0c0.724,0,1.464-0.056,2.202-0.056c1.35-0.022,2.714-0.022,4.101-0.022
				C169.867,115.602,169.715,115.696,169.659,115.809z"/>
			<path fill="#FFFFFF" d="M160.51,116.8l-0.02-0.041c0,0,0.02,0.074,0.062,0.115c0,0,0-0.041-0.042-0.055
				c0.056,0.097,0.096,0.228,0.153,0.418c0,0,0.055,0.092,0.188,0.056c0.096-0.022,0-0.172,0-0.172c0-0.129-0.02-0.247-0.095-0.321
				c-0.115-0.209-0.076-0.288,0.152-0.288c1.444,0,2.865-0.02,4.327-0.075c0.722,0,1.441,0,2.2-0.019v-0.096
				c-2.393,0-4.741,0-7.021,0.155C160.415,116.477,160.456,116.629,160.51,116.8z"/>
			<path fill="#FFFFFF" d="M165.385,118.104c-1.344,0-2.653,0-3.965,0.061c-0.473,0-0.568,0.075-0.568,0.321v0.097
				c0,0.19,0,0.359,0,0.553c0,0,0.058,0.014,0.096,0.014c0.342,0,0.227-0.301,0.171-0.451c0-0.288,0.131-0.307,0.397-0.343
				c1.29-0.02,2.581-0.094,3.869-0.116c0.494,0.021,0.951-0.02,1.407-0.02l-0.039-0.116
				C166.336,118.07,165.879,118.09,165.385,118.104z"/>
			<path fill="#FFFFFF" d="M168.937,116.288c-0.437,0-0.893,0-1.346,0C168.044,116.322,168.5,116.492,168.937,116.288z"/>
		</g>
	</g>
</g>
</svg>
