<?xml version="1.0" encoding="utf-8"?>
<!-- Generator: Adobe Illustrator 16.0.0, SVG Export Plug-In . SVG Version: 6.00 Build 0)  -->
<!DOCTYPE svg PUBLIC "-//W3C//DTD SVG 1.1//EN" "http://www.w3.org/Graphics/SVG/1.1/DTD/svg11.dtd">
<svg version="1.1" id="Layer_1" xmlns="http://www.w3.org/2000/svg" xmlns:xlink="http://www.w3.org/1999/xlink" x="0px" y="0px"
	 width="68.354px" height="51.926px" viewBox="0 0 68.354 51.926" enable-background="new 0 0 68.354 51.926" xml:space="preserve">
<g>
	<g>
		<g>
			<rect x="0" y="-0.001" fill="none" width="68.354" height="51.928"/>
		</g>
	</g>
</g>
<g opacity="0.6">
	<g>
		<path fill="#FFFFFF" d="M63.926,24.889h-7.507v-2.967c0-1.013-0.824-1.839-1.839-1.839H36.206c-1.015,0-1.84,0.826-1.84,1.839
			v12.782c0,1.015,0.826,1.839,1.84,1.839h1.371l-0.68,2.54c-0.123,0.46-0.09,0.813,0.095,1.056
			c0.134,0.177,0.341,0.275,0.566,0.275c0.259,0,0.53-0.123,0.834-0.378l4.182-3.493h1.285v2.822c0,0.932,0.759,1.69,1.69,1.69
			h10.219l4.224,3.529c0.271,0.226,0.52,0.342,0.738,0.342c0.183,0,0.344-0.078,0.45-0.217c0.156-0.204,0.181-0.517,0.07-0.928
			l-0.73-2.727h3.404c0.933,0,1.692-0.759,1.692-1.69V26.582C65.617,25.648,64.858,24.889,63.926,24.889z M38.719,36.215
			c0.004-0.014,0.009-0.028,0.014-0.044l0.176-0.643h-2.702c-0.455,0-0.823-0.369-0.823-0.824V21.922
			c0-0.452,0.368-0.819,0.823-0.819H54.58c0.453,0,0.823,0.367,0.823,0.819v12.782c0,0.455-0.37,0.824-0.823,0.824H42.206
			l-4.257,3.555L38.719,36.215z M54.58,36.543c1.015,0,1.839-0.824,1.839-1.839v-9.092h7.506c0.534,0,0.97,0.436,0.97,0.97v12.783
			c0,0.533-0.436,0.968-0.97,0.968h-4.35l0.126,0.458c0.004,0.013,0.008,0.023,0.013,0.037l0.839,3.138
			c0.018,0.066,0.029,0.12,0.035,0.164c-0.037-0.023-0.081-0.059-0.133-0.101l-4.425-3.694H45.553c-0.535,0-0.972-0.437-0.972-0.97
			v-2.822H54.58z"/>
	</g>
	<g>
		<ellipse fill="#FFFFFF" cx="27.498" cy="20.609" rx="1.405" ry="0.713"/>
		<path fill="#FFFFFF" d="M23.949,21.881c-1.662,0-4.303,0-5.181,0c-2.149,0-2.394,0.705-2.54,1.434
			c-0.158-0.304-0.438-0.348-0.817-0.441c-0.378-0.106-4.812-1.289-5.837-1.595c-1.025-0.305-2.98-0.944-3.279,0.084
			c-0.296,1.031-0.767,2.849,0.77,2.849c-0.061,0.915,0.589,1.01,2.324,0.948c2.198-0.08,5.693-0.148,6.9-0.153
			c-0.03,2.213,3.815,2.913,4.984,2.913c1.163,0,2.209,0,3.521,0s2.183-0.656,2.183-2.269s-0.336-2.994-0.336-2.994
			C26.338,21.973,25.612,21.881,23.949,21.881z M25.558,26.835c-0.77,0.502-3.616,0.389-4.74,0.265
			c-1.125-0.119-3.67-0.649-3.85-1.658c-0.179-1.003-0.298-1.836,0-2.308c0.295-0.476,0.771-0.79,1.657-0.778
			c1.185,0.017,5.257,0.123,5.974,0.183c0.721,0.064,1.32,0.3,1.408,1.364C26.091,24.968,26.327,26.33,25.558,26.835z"/>
		<path fill="#FFFFFF" d="M28.356,22.656c0,0-0.335,1.382-0.335,2.994s0.869,2.272,2.182,2.272c0.948,0,1.755,0,2.57,0v-0.73
			c-1.266,0.041-2.801-0.011-3.333-0.357c-0.771-0.505-0.535-1.867-0.45-2.933c0.087-1.064,0.688-1.3,1.407-1.364
			c0.318-0.024,1.288-0.06,2.376-0.095v-0.562c-0.612,0-1.217,0-1.725,0C29.385,21.881,28.659,21.973,28.356,22.656z"/>
		<path fill="#FFFFFF" d="M18.432,30.229c-0.421-0.8-2.249-1.068-4.8-1.306c-2.55-0.238-4.055-0.416-4.773-0.444
			c-0.722-0.03-1.612-0.215-1.558,1.186c0.056,1.403,0.172,2.355,1.741,2.536c1.569,0.188,4.365,0.348,6.029,0.473
			c1.666,0.128,3.969,0.419,3.781-0.308c1.606-0.071,0.65,0.538,1.907,0.573c1.253,0.036,7.234,0,7.234,0s2.638,0.018,4.778,0.018
			v-2.707l-4.777,0.021L18.432,30.229z"/>
		<path fill="#FFFFFF" d="M21.9,35.599c-1.668-0.066-4.351-0.203-4.896-0.309c-0.087-0.019-0.179-0.035-0.281-0.056
			c-0.714-0.145-1.691-0.342-3.235-0.342c-0.235,0-0.479,0.006-0.713,0.015c-3.554-0.067-7.606-0.171-8.324-0.262
			c-0.345-0.041-0.381-0.048-0.424-0.789l-0.037-0.638c-0.097-1.657-0.196-3.373-0.21-4.467c-0.026-2.051,0.396-6.838,0.969-7.772
			c1.187-1.923,4.968-3.985,5.423-4.23h34.678c0.229,0.124,1.301,0.704,2.469,1.507l0.053,0.036h1.767l-0.501-0.374
			c-0.773-0.58-1.562-1.083-2.167-1.444h0.568c0.514,0,2.076,0,2.076-1.425c0-1.083-1.222-1.4-1.872-1.42c0,0-0.69-0.004-1.274,0
			c-0.367,0.005-1.12,0.008-1.161,0.764c-1.278-2.431-3.539-5.459-5.301-6.632c-0.617-0.415-1.373-0.427-1.381-0.427h-0.004
			c-4.534-0.332-10.497-0.335-10.558-0.335h-0.101c-0.062,0-6.036,0.003-10.544,0.335c-0.077,0.003-0.797,0.023-1.399,0.424
			c-1.777,1.183-4.054,4.241-5.327,6.682c-0.011-0.8-0.786-0.806-1.162-0.811c-0.585-0.004-1.272,0.002-1.278,0
			c-0.646,0.02-1.869,0.337-1.869,1.42c0,1.425,1.563,1.425,2.076,1.425h0.592c-1.428,0.856-3.727,2.397-4.69,3.96
			c-0.843,1.371-1.142,6.795-1.121,8.33c0.012,1.119,0.113,2.844,0.21,4.517l0.148,2.774c0.056,1.489,0.742,2.184,2.157,2.184h5.604
			c0.795,0,1.419-0.25,1.853-0.744c0.051-0.06,0.1-0.124,0.153-0.203l0.041-0.063c0.034-0.052,0.063-0.104,0.101-0.176l0.022-0.043
			c0.033-0.069,0.064-0.142,0.092-0.211l0.01-0.028c0.022-0.064,0.043-0.125,0.062-0.188l0.017-0.065
			c0.014-0.053,0.023-0.103,0.035-0.154l0.012-0.055c0.012-0.064,0.021-0.129,0.027-0.191l0.005-0.038
			c0.006-0.047,0.011-0.097,0.013-0.142c0.064-0.002,0.127-0.002,0.188-0.002c1.44,0,2.359,0.188,3.044,0.326
			c0.098,0.018,0.19,0.038,0.276,0.053c0.838,0.16,5.021,0.325,5.069,0.33l5.553,0.029l5.344-0.029v-1.045l-5.188,0.032L21.9,35.599
			z M16.095,8.627c0.342-0.229,0.807-0.248,0.869-0.248C21.464,8.044,27.4,8.04,27.461,8.04h0.101c0.06,0,5.995,0.004,10.524,0.339
			c0.004,0,0.489,0.015,0.841,0.248c1.738,1.159,4.036,4.339,5.183,6.692H10.912C12.064,12.954,14.359,9.782,16.095,8.627z"/>
	</g>
	<circle fill="#FFFFFF" cx="40.976" cy="28.664" r="1.157"/>
	<circle fill="#FFFFFF" cx="45.046" cy="28.664" r="1.158"/>
	<circle fill="#FFFFFF" cx="49.115" cy="28.664" r="1.157"/>
</g>
</svg>
