<?xml version="1.0" encoding="utf-8"?>
<!-- Generator: Adobe Illustrator 16.0.0, SVG Export Plug-In . SVG Version: 6.00 Build 0)  -->
<!DOCTYPE svg PUBLIC "-//W3C//DTD SVG 1.1//EN" "http://www.w3.org/Graphics/SVG/1.1/DTD/svg11.dtd">
<svg version="1.1" id="Layer_1" xmlns="http://www.w3.org/2000/svg" xmlns:xlink="http://www.w3.org/1999/xlink" x="0px" y="0px"
	 width="68.354px" height="51.926px" viewBox="0 0 68.354 51.926" enable-background="new 0 0 68.354 51.926" xml:space="preserve">
<g>
	<g>
		<g>
			<rect x="0" y="-0.001" fill="none" width="68.354" height="51.928"/>
		</g>
	</g>
	<path opacity="0.6" fill="#FFFFFF" enable-background="new    " d="M34.01,51.583c-0.397,0-0.76-0.21-0.95-0.56
		c-5.955-10.632-12.486-22.692-14.638-31.257c-0.023-0.08-0.036-0.163-0.045-0.249c-0.283-1.203-0.434-2.44-0.434-3.645
		c0-8.856,7.207-16.066,16.067-16.066c8.858,0,16.067,7.21,16.067,16.066c0,1.198-0.153,2.435-0.443,3.687
		c0,0.033-0.013,0.11-0.031,0.192c-2.152,8.573-8.688,20.637-14.643,31.269C34.766,51.373,34.406,51.583,34.01,51.583z M34.01,1.988
		c-7.659,0-13.887,6.231-13.887,13.886c0,1.036,0.132,2.105,0.382,3.181c0.007,0.038,0.025,0.152,0.036,0.19
		c1.971,7.854,7.853,18.939,13.469,29.012c5.615-10.076,11.501-21.167,13.477-29.021c0.004-0.026,0.018-0.15,0.021-0.174
		c0.258-1.087,0.389-2.158,0.389-3.185C47.897,8.219,41.669,1.988,34.01,1.988z M34.01,24.203c-4.589,0-8.327-3.737-8.327-8.329
		c0-4.589,3.738-8.325,8.327-8.325s8.328,3.736,8.328,8.325C42.338,20.466,38.6,24.203,34.01,24.203z M34.01,9.729
		c-3.389,0-6.147,2.757-6.147,6.149c0,3.388,2.759,6.146,6.147,6.146c3.389,0,6.146-2.758,6.146-6.146
		C40.156,12.486,37.4,9.729,34.01,9.729z"/>
</g>
</svg>
