<?xml version="1.0" encoding="utf-8"?>
<!-- Generator: Adobe Illustrator 16.0.0, SVG Export Plug-In . SVG Version: 6.00 Build 0)  -->
<!DOCTYPE svg PUBLIC "-//W3C//DTD SVG 1.1//EN" "http://www.w3.org/Graphics/SVG/1.1/DTD/svg11.dtd">
<svg version="1.1" id="Layer_1" xmlns="http://www.w3.org/2000/svg" xmlns:xlink="http://www.w3.org/1999/xlink" x="0px" y="0px"
	 width="68.354px" height="51.926px" viewBox="0 0 68.354 51.926" enable-background="new 0 0 68.354 51.926" xml:space="preserve">
<g>
	<g>
		<g>
			<rect x="0" y="-0.001" fill="none" width="68.354" height="51.928"/>
		</g>
	</g>
</g>
<g opacity="0.6">
	<path fill="#FFFFFF" d="M31.862,21.616c0-0.409-0.646-0.738-1.44-0.738c-0.8,0-1.449,0.329-1.449,0.738
		c0,0.401,0.649,0.731,1.449,0.731C31.216,22.348,31.862,22.016,31.862,21.616z"/>
	<path fill="#FFFFFF" d="M11.83,26.281c2.258-0.081,5.844-0.153,7.087-0.153c-0.035,2.27,3.914,2.99,5.112,2.99
		c1.192,0,2.268,0,3.615,0c1.348,0,2.239-0.679,2.239-2.33c0-1.656-0.341-3.078-0.341-3.078c-0.314-0.7-1.061-0.79-2.768-0.79
		c-1.702,0-4.417,0-5.314,0c-2.208,0-2.46,0.719-2.609,1.469c-0.162-0.31-0.446-0.355-0.837-0.455
		c-0.388-0.106-4.941-1.323-5.995-1.636c-1.05-0.312-3.055-0.971-3.364,0.087c-0.306,1.059-0.786,2.924,0.791,2.924
		C9.384,26.25,10.05,26.35,11.83,26.281z M19.607,24.203c0.307-0.488,0.797-0.81,1.704-0.798c1.213,0.018,5.397,0.129,6.13,0.188
		c0.743,0.062,1.357,0.303,1.444,1.4c0.087,1.093,0.331,2.494-0.457,3.01c-0.789,0.513-3.713,0.399-4.863,0.271
		c-1.156-0.125-3.774-0.665-3.958-1.703C19.427,25.541,19.305,24.685,19.607,24.203z"/>
	<path fill="#FFFFFF" d="M31.3,23.713c0,0-0.345,1.419-0.345,3.075c0,1.651,0.898,2.33,2.238,2.33c0.977,0,1.807,0,2.645,0v-0.747
		c-1.303,0.042-2.879-0.011-3.424-0.367c-0.793-0.516-0.551-1.917-0.464-3.01c0.09-1.094,0.708-1.336,1.444-1.4
		c0.332-0.024,1.321-0.062,2.443-0.097V22.92c-0.635,0-1.251,0-1.773,0C32.356,22.92,31.608,23.01,31.3,23.713z"/>
	<path fill="#FFFFFF" d="M35.831,31.51l-4.9,0.021l-9.818-0.046c-0.434-0.821-2.311-1.098-4.929-1.338
		c-2.616-0.245-4.159-0.427-4.898-0.457c-0.74-0.032-1.655-0.225-1.601,1.215c0.059,1.442,0.177,2.421,1.788,2.605
		c1.612,0.189,4.481,0.359,6.19,0.481c1.711,0.131,4.076,0.434,3.884-0.311c1.647-0.071,0.667,0.553,1.955,0.59
		c1.288,0.03,7.426,0,7.426,0s2.709,0.013,4.91,0.013V31.51H35.831z"/>
	<path fill="#FFFFFF" d="M50.558,18.688c-7.059,0-12.803,5.743-12.803,12.802s5.744,12.796,12.803,12.796
		c7.056,0,12.794-5.737,12.794-12.796S57.614,18.688,50.558,18.688z M50.558,42.956c-6.322,0-11.473-5.145-11.473-11.467
		c0-6.325,5.15-11.468,11.473-11.468c6.318,0,11.466,5.143,11.466,11.468C62.024,37.812,56.876,42.956,50.558,42.956z"/>
	<path fill="#FFFFFF" d="M53.865,23.229c-0.27-0.114-0.587,0.016-0.698,0.295l-2.837,6.87c-0.06-0.007-0.121-0.017-0.186-0.017
		c-0.912,0-1.66,0.743-1.66,1.659c0,0.763,0.52,1.404,1.226,1.596v5.77c0,0.209,0.194,0.385,0.435,0.385
		c0.245,0,0.442-0.177,0.442-0.385v-5.77c0.699-0.193,1.22-0.833,1.22-1.596c0-0.466-0.195-0.89-0.509-1.193l2.857-6.915
		C54.267,23.653,54.138,23.339,53.865,23.229z M50.145,32.927c-0.488,0-0.887-0.399-0.887-0.89c0-0.492,0.398-0.889,0.887-0.889
		c0.49,0,0.89,0.396,0.89,0.889C51.034,32.527,50.635,32.927,50.145,32.927z"/>
	<path fill="#FFFFFF" d="M43.694,28.194c0.066-0.094,0.143-0.186,0.23-0.275c0.063-0.068,0.354-0.333,0.856-0.794
		c0.097-0.102,0.215-0.219,0.354-0.367c0.137-0.144,0.258-0.34,0.359-0.575c0.104-0.237,0.156-0.498,0.156-0.782
		c0-0.245-0.042-0.498-0.132-0.753c-0.084-0.251-0.252-0.457-0.492-0.62c-0.246-0.163-0.565-0.243-0.945-0.243
		c-0.274,0-0.517,0.045-0.72,0.125c-0.201,0.079-0.374,0.197-0.513,0.352c-0.138,0.16-0.251,0.356-0.332,0.579
		c-0.078,0.216-0.135,0.464-0.167,0.741l0.907,0.067c0.02-0.127,0.039-0.264,0.069-0.415c0.035-0.181,0.106-0.342,0.218-0.473
		c0.119-0.141,0.272-0.215,0.459-0.215c0.21,0,0.376,0.066,0.49,0.2c0.111,0.132,0.168,0.339,0.168,0.637
		c0,0.142-0.035,0.302-0.104,0.474c-0.071,0.17-0.175,0.344-0.321,0.51c-0.148,0.171-0.335,0.353-0.56,0.55
		c-0.114,0.095-0.243,0.213-0.375,0.345c-0.134,0.132-0.284,0.302-0.431,0.503c-0.144,0.195-0.27,0.418-0.359,0.666
		c-0.096,0.245-0.142,0.498-0.142,0.764v0.197h3.239v-0.83H43.49l0.034-0.078C43.562,28.385,43.62,28.289,43.694,28.194z"/>
	<path fill="#FFFFFF" d="M54.371,31.447v1.147h3.008c-0.311,0.371-0.596,0.766-0.873,1.196c-0.268,0.431-0.516,0.873-0.732,1.331
		c-0.213,0.456-0.39,0.922-0.545,1.399c-0.149,0.478-0.258,0.944-0.315,1.407h1.506c0.083-0.466,0.193-0.93,0.325-1.4
		c0.132-0.465,0.293-0.931,0.485-1.385c0.191-0.453,0.411-0.903,0.666-1.35c0.251-0.441,0.54-0.869,0.863-1.289V31.45h-4.388V31.447
		z"/>
	<path fill="#FFFFFF" d="M48.188,29.45h1.03v-1.222h0.453v-0.844h-0.453v-3.543h-1.065l-2.044,3.399v0.987h2.079V29.45L48.188,29.45
		z M46.921,27.385l1.267-2.148v2.148H46.921z"/>
	<path fill="#FFFFFF" d="M24.675,36.997c-1.717-0.064-4.469-0.208-5.032-0.312c-0.087-0.021-0.181-0.037-0.287-0.06
		c-0.732-0.148-1.732-0.352-3.317-0.352c-0.245,0-0.493,0.006-0.736,0.016c-3.65-0.065-7.809-0.172-8.546-0.269
		c-0.348-0.042-0.387-0.046-0.431-0.808l-0.039-0.656c-0.098-1.704-0.2-3.461-0.215-4.588c-0.027-2.105,0.405-7.02,0.993-7.971
		c1.22-1.979,5.098-4.098,5.568-4.346h28.034h7.562h2.128c-0.163-0.104-0.317-0.197-0.465-0.285h0.584c0.525,0,2.131,0,2.131-1.462
		c0-1.111-1.254-1.437-1.921-1.454c0,0-0.713-0.007-1.31,0c-0.377,0.001-1.147,0.008-1.189,0.781
		c-1.315-2.493-3.637-5.606-5.445-6.809c-0.632-0.421-1.407-0.437-1.41-0.437h-0.008c-4.655-0.344-10.778-0.347-10.837-0.347h-0.105
		c-0.06,0-6.194,0.003-10.816,0.345c-0.085,0.002-0.821,0.025-1.442,0.434c-1.822,1.216-4.159,4.355-5.47,6.862
		c-0.011-0.822-0.808-0.829-1.195-0.83c-0.595-0.009-1.301,0-1.311,0c-0.656,0.018-1.914,0.343-1.914,1.454
		c0,1.462,1.604,1.462,2.13,1.462h0.608c-1.466,0.878-3.825,2.463-4.812,4.066c-0.865,1.405-1.174,6.974-1.153,8.55
		c0.015,1.147,0.114,2.918,0.219,4.633l0.149,2.85c0.056,1.531,0.761,2.242,2.212,2.242h5.753c0.817,0,1.457-0.256,1.9-0.762
		c0.056-0.063,0.103-0.128,0.16-0.21l0.045-0.066c0.027-0.053,0.064-0.106,0.101-0.179l0.022-0.043
		c0.033-0.073,0.066-0.147,0.093-0.22l0.01-0.029c0.022-0.064,0.046-0.127,0.06-0.189l0.022-0.068
		c0.009-0.053,0.023-0.103,0.033-0.156l0.011-0.057c0.015-0.069,0.025-0.137,0.032-0.198l0.004-0.04
		c0.003-0.05,0.009-0.097,0.009-0.144c0.067-0.001,0.134-0.001,0.196-0.001c1.48,0,2.423,0.191,3.125,0.332
		c0.099,0.022,0.193,0.04,0.285,0.06c0.857,0.161,5.153,0.332,5.201,0.335l5.7,0.029l5.486-0.029v-1.07l-5.326,0.029L24.675,36.997z
		 M18.715,9.315c0.349-0.234,0.829-0.257,0.889-0.26c4.624-0.34,10.715-0.344,10.771-0.344h0.109c0.059,0,6.155,0.004,10.801,0.347
		c0.009,0,0.505,0.013,0.862,0.257c1.788,1.188,4.145,4.452,5.323,6.865H13.397C14.58,13.755,16.932,10.502,18.715,9.315z"/>
</g>
</svg>
