<?xml version="1.0" encoding="utf-8"?>
<!-- Generator: Adobe Illustrator 16.0.0, SVG Export Plug-In . SVG Version: 6.00 Build 0)  -->
<!DOCTYPE svg PUBLIC "-//W3C//DTD SVG 1.1//EN" "http://www.w3.org/Graphics/SVG/1.1/DTD/svg11.dtd">
<svg version="1.1" id="Layer_1" xmlns="http://www.w3.org/2000/svg" xmlns:xlink="http://www.w3.org/1999/xlink" x="0px" y="0px"
	 width="110.5px" height="115.779px" viewBox="-139.198 -31.22 110.5 115.779"
	 enable-background="new -139.198 -31.22 110.5 115.779" xml:space="preserve">
<g>
	
		<linearGradient id="SVGID_1_" gradientUnits="userSpaceOnUse" x1="-105.9915" y1="737.3401" x2="-29.593" y2="737.3401" gradientTransform="matrix(1 0 0 1 -16.7197 -708.332)">
		<stop  offset="0" style="stop-color:#E6E6E6"/>
		<stop  offset="0.5398" style="stop-color:#FFFFFF"/>
		<stop  offset="1" style="stop-color:#C8C8C8"/>
	</linearGradient>
	<path fill="url(#SVGID_1_)" d="M-84.512,67.207c-21.062,0-38.199-17.137-38.199-38.201c0-21.062,17.138-38.198,38.199-38.198
		c21.062,0,38.199,17.135,38.199,38.198C-46.313,50.071-63.448,67.207-84.512,67.207z M-84.512-7.692
		c-20.234,0-36.699,16.463-36.699,36.698c0,20.236,16.465,36.701,36.699,36.701c20.236,0,36.699-16.465,36.699-36.701
		C-47.813,8.771-64.275-7.692-84.512-7.692z M-84.512,63.865c-19.221,0-34.856-15.637-34.856-34.858
		c0-19.22,15.637-34.856,34.856-34.856c19.223,0,34.857,15.638,34.857,34.856C-49.654,48.229-65.29,63.865-84.512,63.865z
		 M-84.512-4.351c-18.394,0-33.356,14.964-33.356,33.356c0,18.393,14.964,33.358,33.356,33.358
		c18.396,0,33.357-14.965,33.357-33.358C-51.155,10.613-66.117-4.351-84.512-4.351z"/>
	<linearGradient id="SVGID_2_" gradientUnits="userSpaceOnUse" x1="-121.9612" y1="29.0081" x2="-47.0627" y2="29.0081">
		<stop  offset="0" style="stop-color:#FFFFFF"/>
		<stop  offset="1" style="stop-color:#C8C8C8"/>
	</linearGradient>
	<path fill="url(#SVGID_2_)" d="M-84.512-8.442c-20.684,0-37.449,16.767-37.449,37.448c0,20.683,16.768,37.451,37.449,37.451
		c20.685,0,37.449-16.768,37.449-37.451C-47.063,8.324-63.828-8.442-84.512-8.442z M-84.512,63.115
		c-18.838,0-34.106-15.271-34.106-34.108c0-18.837,15.271-34.106,34.106-34.106s34.107,15.271,34.107,34.106
		C-50.404,47.844-65.674,63.115-84.512,63.115z"/>
</g>
<line fill="none" x1="-84.512" y1="43.055" x2="-84.512" y2="40.852"/>
<g>
	<g>
		
			<linearGradient id="SVGID_3_" gradientUnits="userSpaceOnUse" x1="-105.4998" y1="722.1252" x2="-89.0359" y2="722.1252" gradientTransform="matrix(1 0 0 1 -16.7197 -708.332)">
			<stop  offset="0" style="stop-color:#E6E6E6"/>
			<stop  offset="0.5398" style="stop-color:#FFFFFF"/>
			<stop  offset="1" style="stop-color:#C8C8C8"/>
		</linearGradient>
		<path fill="url(#SVGID_3_)" d="M-115.702,21.216c-0.063,0-0.134-0.006-0.205-0.021c-0.396-0.073-0.785-0.224-1.162-0.445
			c-0.233-0.139-0.521-0.416-0.563-0.955c-0.02-0.211-0.029-0.427-0.031-0.642l-0.039-5.998c-0.001-0.103-0.012-0.205-0.031-0.305
			c-0.013-0.067-0.043-0.144-0.177-0.215l-0.544-0.278c-0.292-0.147-0.586-0.297-0.872-0.456c-0.513-0.283-1.021-0.576-1.517-0.892
			c-0.483-0.31-0.883-0.729-1.183-1.246c-0.235-0.408-0.213-0.765-0.153-0.991c0.125-0.48,0.545-0.824,1.068-0.87
			c0.456-0.041,0.9,0.045,1.271,0.125c0.393,0.086,0.774,0.237,1.244,0.49c0.604,0.325,1.201,0.656,1.799,0.986l0.582,0.319
			l-0.116,0.507l0.237-0.439l0.377,0.444l-0.235-0.439l5.905-3.201c0.221-0.12,0.561-0.281,0.966-0.315
			c0.528-0.046,1.001,0.136,1.423,0.531c0.072,0.069,0.145,0.146,0.211,0.223c0.395,0.445,0.379,0.979-0.041,1.395
			c-0.164,0.161-0.336,0.312-0.508,0.461l-2.85,2.508c-0.262,0.229-0.483,0.506-0.717,0.799l2.729,1.684l0.72-0.505
			c0.337-0.237,0.674-0.354,1.03-0.354c0.484,0.019,0.854,0.202,1.135,0.537c0.262,0.317,0.191,0.684,0.166,0.821
			c-0.027,0.153-0.086,0.312-0.169,0.456c-0.716,1.186-1.431,2.361-2.144,3.538c-0.093,0.157-0.145,0.245-0.203,0.332
			c-0.229,0.339-0.51,0.41-0.705,0.41c-0.129,0-0.262-0.03-0.403-0.095c-0.208-0.093-0.39-0.175-0.563-0.271
			c-0.394-0.224-0.596-0.607-0.56-1.057c0.032-0.39,0.069-0.776,0.108-1.164l-2.934-1.414c-0.054,0.085-0.104,0.18-0.152,0.28
			c-0.154,0.337-0.244,0.708-0.338,1.104l-0.183,0.765c-0.224,0.934-0.446,1.865-0.673,2.796c-0.035,0.15-0.088,0.303-0.146,0.448
			C-115.006,20.993-115.316,21.216-115.702,21.216z M-115.725,20.219l0.021,0.496v-0.5
			C-115.709,20.216-115.717,20.218-115.725,20.219z M-120.866,8.893c-0.054,0-0.104,0.002-0.157,0.006
			c-0.096,0.009-0.17,0.06-0.188,0.127c-0.008,0.032-0.026,0.102,0.053,0.237c0.219,0.378,0.506,0.682,0.854,0.902
			c0.479,0.304,0.969,0.587,1.463,0.859c0.275,0.154,0.559,0.296,0.838,0.438l0.562,0.288c0.377,0.202,0.615,0.517,0.689,0.908
			c0.031,0.157,0.049,0.323,0.05,0.487l0.039,5.996c0.002,0.188,0.012,0.377,0.026,0.563c0.012,0.142,0.055,0.166,0.078,0.179
			c0.26,0.154,0.527,0.261,0.793,0.314c0.043-0.103,0.072-0.189,0.092-0.277c0.229-0.935,0.451-1.864,0.674-2.796l0.184-0.764
			c0.102-0.425,0.206-0.864,0.405-1.293c0.151-0.325,0.331-0.596,0.547-0.826l0.251-0.269l3.777,1.818
			c0.355,0.17,0.473,0.378,0.43,0.766c-0.047,0.445-0.09,0.877-0.125,1.311c-0.005,0.062,0.005,0.075,0.052,0.103
			c0.128,0.07,0.265,0.133,0.401,0.194c0.029-0.048,0.056-0.093,0.081-0.136c0.763-1.259,1.477-2.434,2.187-3.61
			c0.02-0.034,0.038-0.084,0.045-0.129c-0.048-0.115-0.154-0.169-0.293-0.176h-0.002c-0.168,0-0.312,0.055-0.478,0.17l-1.048,0.737
			l-0.229,0.027c-0.112,0-0.225-0.032-0.329-0.098l-3.879-2.435l0.629-0.787c0.276-0.349,0.549-0.69,0.893-0.993l2.852-2.51
			c0.158-0.138,0.314-0.273,0.465-0.421c-0.056-0.072-0.104-0.125-0.154-0.174c-0.193-0.183-0.381-0.269-0.586-0.269
			c-0.235,0.018-0.414,0.079-0.642,0.202l-5.909,3.203c-0.348,0.188-0.736,0.187-1.091-0.005l-0.709-0.393
			c-0.599-0.329-1.192-0.658-1.792-0.982c-0.383-0.207-0.688-0.328-0.982-0.394C-120.316,8.949-120.598,8.893-120.866,8.893z"/>
	</g>
	<g>
		
			<linearGradient id="SVGID_4_" gradientUnits="userSpaceOnUse" x1="-95.7737" y1="754.9534" x2="-92.2903" y2="754.9534" gradientTransform="matrix(1 0 0 1 -16.7197 -708.332)">
			<stop  offset="0" style="stop-color:#E6E6E6"/>
			<stop  offset="0.5398" style="stop-color:#FFFFFF"/>
			<stop  offset="1" style="stop-color:#C8C8C8"/>
		</linearGradient>
		<path fill="url(#SVGID_4_)" d="M-110.275,55.006h-0.003c-0.783,0-1.312-0.514-1.312-1.275V48.77h-0.028
			c-0.103,0-0.409,0-0.64-0.23c-0.213-0.215-0.236-0.506-0.235-0.705c0.009-1.664,0.009-3.328,0.009-4.994l0.001-2.707
			c0.003-1.238,0.731-1.688,1.345-1.844c1.078-0.27,2.127,0.543,2.127,1.643l0.002,13.811
			C-109.012,54.531-109.483,55.006-110.275,55.006z"/>
		<path fill="#777266" d="M-109.512,46.813c0,2.311,0,4.617,0,6.926c0,0.518-0.252,0.77-0.765,0.77
			c-0.506,0.002-0.813-0.291-0.813-0.779c-0.002-1.674,0-3.35-0.002-5.021c0-0.441-0.002-0.465-0.457-0.438
			c-0.336,0.018-0.446-0.076-0.444-0.434c0.015-2.564,0.006-5.135,0.01-7.703c0.002-0.764,0.318-1.191,0.97-1.357
			c0.771-0.197,1.504,0.359,1.504,1.156C-109.51,42.223-109.512,44.518-109.512,46.813z"/>
	</g>
	<g>
		
			<linearGradient id="SVGID_5_" gradientUnits="userSpaceOnUse" x1="-101.5935" y1="754.9934" x2="-96.7678" y2="754.9934" gradientTransform="matrix(1 0 0 1 -16.7197 -708.332)">
			<stop  offset="0" style="stop-color:#E6E6E6"/>
			<stop  offset="0.5398" style="stop-color:#FFFFFF"/>
			<stop  offset="1" style="stop-color:#C8C8C8"/>
		</linearGradient>
		<path fill="url(#SVGID_5_)" d="M-115.887,55.08c-0.209,0-0.416-0.053-0.607-0.154c-0.312-0.16-0.684-0.494-0.682-1.166
			c0.004-1.037,0.004-2.074,0.002-3.111V48.41c-0.002-1.004-0.004-2.004,0.006-3.008c0-0.092-0.008-0.121-0.008-0.123
			c-0.707-0.109-1.137-0.682-1.137-1.441v-0.523c-0.001-1.398-0.002-2.801,0.01-4.201c0.002-0.275,0.178-0.732,0.549-0.838
			l0.231-0.033c0.188,0,0.362,0.07,0.489,0.197c0.023,0.025,0.047,0.053,0.066,0.08c0.11-0.121,0.27-0.23,0.457-0.262
			c0.293-0.004,0.457,0.111,0.582,0.248c0.145-0.139,0.364-0.258,0.573-0.258h0.144l0.146,0.08c0.077,0.051,0.155,0.121,0.223,0.205
			c0.154-0.209,0.416-0.281,0.611-0.281l0.202,0.027c0.284,0.09,0.474,0.369,0.517,0.604c0.031,0.15,0.025,0.303,0.021,0.424
			l-0.003,0.107v4.381c0,0.803-0.366,1.311-1.088,1.51c0.004,2.844,0.003,5.617,0,8.395
			C-114.582,54.473-115.155,55.08-115.887,55.08z M-117.313,43.055c0,0.086,0,0.172,0,0.258v0.521c0,0.438,0.26,0.496,0.346,0.516
			c0.809,0.188,0.801,0.846,0.799,1.062c-0.01,0.998-0.008,1.996-0.006,2.996v2.238c0.002,1.039,0.002,2.078-0.002,3.117
			c0,0.188,0.06,0.23,0.145,0.275c0.206,0.105,0.447-0.016,0.45-0.344c0.003-2.811,0.004-5.615-0.005-8.422
			c0-0.186-0.006-0.75,0.705-0.93c0.291-0.07,0.388-0.16,0.388-0.555v-0.736c-0.282,0.098-0.669,0.051-0.886-0.137
			c-0.139,0.123-0.319,0.186-0.543,0.186c-0.17-0.01-0.371-0.045-0.526-0.166c-0.161,0.129-0.36,0.164-0.511,0.168h-0.002
			C-117.098,43.104-117.213,43.088-117.313,43.055z"/>
		<path fill="#777266" d="M-116.674,49.514c0-1.371-0.006-2.738,0.006-4.109c0.004-0.312-0.062-0.486-0.409-0.566
			c-0.485-0.109-0.733-0.498-0.733-1.002c-0.002-1.572-0.005-3.146,0.008-4.723c0.002-0.127,0.097-0.336,0.187-0.359
			c0.259-0.068,0.313,0.123,0.312,0.348c-0.002,1.021,0,2.037,0,3.057c0,0.232-0.026,0.457,0.332,0.447
			c0.285-0.008,0.303-0.166,0.301-0.377c0-1.008,0-2.016,0-3.021c0-0.092-0.023-0.197,0.017-0.268
			c0.045-0.084,0.144-0.176,0.229-0.189c0.058-0.008,0.162,0.105,0.193,0.184c0.036,0.088,0.016,0.197,0.016,0.301
			c0.002,0.996,0,1.994,0.002,2.988c0,0.182-0.021,0.365,0.258,0.383c0.254,0.012,0.332-0.08,0.328-0.332
			c-0.01-1.029-0.004-2.062-0.002-3.09c0-0.104-0.019-0.229,0.033-0.299c0.06-0.072,0.227-0.16,0.271-0.133
			c0.091,0.061,0.186,0.195,0.188,0.303c0.015,0.977,0.008,1.945,0.01,2.922c0,0.104,0.005,0.203,0,0.307
			c-0.012,0.227,0.08,0.324,0.318,0.324c0.24,0,0.316-0.105,0.315-0.328c-0.005-1.041-0.002-2.082,0.002-3.125
			c0-0.107,0.001-0.24,0.058-0.322c0.043-0.061,0.188-0.096,0.268-0.072c0.074,0.023,0.152,0.135,0.169,0.217
			c0.028,0.143,0.01,0.293,0.01,0.438c0,1.461,0,2.92,0,4.381c0,0.578-0.21,0.9-0.767,1.039c-0.271,0.068-0.328,0.189-0.324,0.441
			c0.007,2.809,0.006,5.615,0.003,8.424c0,0.668-0.621,1.08-1.183,0.787c-0.289-0.15-0.414-0.396-0.412-0.723
			C-116.67,52.344-116.674,50.93-116.674,49.514z"/>
	</g>
	<g>
		<g>
			
				<linearGradient id="SVGID_6_" gradientUnits="userSpaceOnUse" x1="-73.9075" y1="769.6799" x2="-59.2297" y2="769.6799" gradientTransform="matrix(1 0 0 1 -16.7197 -708.332)">
				<stop  offset="0" style="stop-color:#E6E6E6"/>
				<stop  offset="0.5398" style="stop-color:#FFFFFF"/>
				<stop  offset="1" style="stop-color:#C8C8C8"/>
			</linearGradient>
			<path fill="url(#SVGID_6_)" d="M-79.038,68.717h-0.373l-0.052-0.053h-0.021l-0.874-0.002l-7.314,0.008l-0.096-0.023
				c-0.675-0.229-1.021-0.783-0.931-1.486c0.081-0.605,0.683-1.119,1.313-1.119c0.33,0.008,0.631,0.01,0.932,0.01l1.585-0.008
				l0.229,0.002c-0.01-1.346-0.006-2.658,0.002-3.973c0-0.066-0.008-0.105-0.076-0.189c-1.092-1.309-2.182-2.623-3.271-3.938
				l-2.441-2.953c-0.084-0.1-0.301-0.361-0.147-0.686c0.058-0.121,0.207-0.324,0.577-0.324l4.386-0.004l9.661,0.004l-0.113,0.594
				c-0.043,0.223-0.171,0.365-0.246,0.449c-1.893,2.336-3.755,4.637-5.617,6.934l-0.041,0.092c0.004,1.332,0.008,2.664-0.002,3.994
				l0.543-0.002c0.623,0,1.246,0.006,1.867,0.012l0.41,0.004c0.559,0.002,0.996,0.289,1.2,0.787
				c0.211,0.506,0.125,1.023-0.243,1.463c-0.171,0.205-0.384,0.27-0.51,0.311l-0.122,0.076L-79.038,68.717z M-79.354,67.658
				c0.094,0,0.176,0.018,0.245,0.039c0.036-0.012,0.071-0.021,0.101-0.031c0.199-0.184,0.193-0.305,0.137-0.441
				c-0.037-0.09-0.086-0.17-0.283-0.17l-0.412-0.004c-0.619-0.006-1.238-0.01-1.857-0.01l-0.734,0.002c-0.121,0-0.398,0-0.604-0.207
				c-0.188-0.189-0.207-0.432-0.207-0.596c0.014-1.395,0.008-2.791,0.004-4.188c-0.004-0.27,0.084-0.508,0.268-0.729
				c0.352-0.434,0.702-0.865,1.055-1.299c-0.185,0.078-0.388,0.123-0.603,0.125c-0.433,0-0.82-0.164-1.112-0.459
				c-0.292-0.297-0.449-0.689-0.445-1.109c0.008-0.873,0.668-1.535,1.535-1.535c0.428,0,0.821,0.162,1.111,0.453
				c0.289,0.289,0.447,0.684,0.445,1.104c0,0.105-0.012,0.209-0.029,0.307c1.062-1.309,2.122-2.619,3.184-3.932l-8.049-0.002
				l-3.525,0.004l1.922,2.324c1.092,1.312,2.182,2.629,3.275,3.939c0.211,0.26,0.307,0.521,0.303,0.834
				c-0.008,1.385-0.01,2.771,0.002,4.158c0.002,0.105,0.004,0.389-0.205,0.6c-0.207,0.207-0.485,0.207-0.577,0.207l-0.45-0.002
				l-1.585,0.008c-0.31,0-0.617-0.002-0.927-0.01l0,0c-0.152,0-0.312,0.156-0.326,0.252c-0.025,0.201,0.021,0.307,0.189,0.379
				l7.158-0.008l0.883,0.002L-79.354,67.658z M-82.272,58.045c-0.312,0-0.531,0.227-0.535,0.547
				c-0.002,0.15,0.055,0.291,0.157,0.396c0.103,0.104,0.239,0.162,0.386,0.162c0.314-0.004,0.549-0.24,0.551-0.549
				c0-0.158-0.053-0.295-0.153-0.396C-81.969,58.104-82.113,58.045-82.272,58.045z"/>
			<path fill="#777266" d="M-79.038,68.217c-0.056,0-0.107,0-0.161,0c-0.081-0.084-0.186-0.053-0.279-0.053
				c-0.527-0.004-1.06-0.002-1.589-0.002c-2.178,0.002-4.356,0.006-6.539,0.008c-0.454-0.15-0.655-0.48-0.595-0.943
				c0.047-0.354,0.434-0.695,0.836-0.688c0.979,0.025,1.955-0.006,2.934,0.004c0.237,0.004,0.301-0.064,0.299-0.301
				c-0.013-1.391-0.01-2.779-0.002-4.17c0.002-0.203-0.062-0.355-0.188-0.508c-1.266-1.518-2.521-3.033-3.781-4.551
				c-0.646-0.781-1.289-1.562-1.937-2.346c-0.091-0.107-0.157-0.195,0.065-0.189c1.455-0.002,2.909-0.004,4.363-0.004
				c3.02,0,6.036,0.002,9.057,0.004c-0.021,0.109-0.108,0.184-0.177,0.266c-1.86,2.299-3.722,4.6-5.586,6.896
				c-0.103,0.123-0.153,0.244-0.151,0.406c0.004,1.4,0.008,2.801-0.004,4.195c-0.002,0.244,0.074,0.301,0.308,0.297
				c1.004-0.008,2.009,0.004,3.013,0.012c0.348,0.002,0.607,0.154,0.742,0.48c0.143,0.342,0.081,0.658-0.164,0.951
				C-78.702,68.135-78.891,68.125-79.038,68.217z M-82.272,57.545c-0.586,0-1.029,0.447-1.035,1.043
				c-0.008,0.592,0.469,1.066,1.053,1.062c0.582-0.006,1.039-0.467,1.041-1.047C-81.213,58.002-81.67,57.545-82.272,57.545z"/>
			<path opacity="0.6" fill="#C1BAAC" enable-background="new    " d="M-88.104,57.014c0.42,0.504,0.838,1.008,1.258,1.514
				c2.448-2.023,5.955-3.344,9.896-3.508c0.073-0.094,0.147-0.184,0.224-0.273c0.065-0.082,0.153-0.154,0.176-0.268
				c-3.021-0.002-6.037-0.004-9.057-0.004c-1.453,0-2.908,0.002-4.363,0.004c-0.225-0.006-0.156,0.082-0.065,0.191
				C-89.393,55.451-88.75,56.233-88.104,57.014z"/>
		</g>
	</g>
	<g>
		<g>
			
				<linearGradient id="SVGID_7_" gradientUnits="userSpaceOnUse" x1="-48.2346" y1="754.9866" x2="-30.8777" y2="754.9866" gradientTransform="matrix(1 0 0 1 -16.7197 -708.332)">
				<stop  offset="0" style="stop-color:#E6E6E6"/>
				<stop  offset="0.5398" style="stop-color:#FFFFFF"/>
				<stop  offset="1" style="stop-color:#C8C8C8"/>
			</linearGradient>
			<path fill="url(#SVGID_7_)" d="M-51.338,55.393h-9.902l0.02-0.518V44.574c-0.131,0.197-0.262,0.395-0.392,0.592
				c-0.349,0.529-0.729,0.285-0.88,0.193c-0.704-0.438-1.405-0.867-2.117-1.291c-0.068-0.039-0.273-0.162-0.331-0.418
				c-0.056-0.254,0.073-0.443,0.13-0.523c0.75-1.088,1.365-2.006,1.934-2.961c0.388-0.646,0.951-1.139,1.686-1.465
				c0.363-0.158,0.729-0.24,1.081-0.32c0.167-0.039,0.334-0.076,0.499-0.123c0.172-0.047,0.344-0.088,0.518-0.129
				c0.232-0.059,0.465-0.111,0.693-0.188l0.159-0.025h0.298l0.207,0.264c0.143,0.264,0.332,0.488,0.562,0.674
				c0.416,0.328,0.838,0.41,1.312,0.258c0.42-0.137,0.753-0.438,1.045-0.943l0.145-0.25h0.459l0.113,0.061l0.588,0.143
				c0.562,0.137,1.123,0.273,1.682,0.428c0.896,0.248,1.58,0.734,2.029,1.449c0.783,1.244,1.442,2.252,2.076,3.172
				c0.049,0.07,0.168,0.25,0.113,0.49l-0.048,0.211l-0.255,0.18c-0.725,0.436-1.447,0.879-2.174,1.324l-0.118,0.074l-0.226,0.031
				c-0.143,0-0.346-0.051-0.508-0.293c-0.137-0.207-0.271-0.412-0.408-0.615L-51.338,55.393z M-60.221,54.393h7.881l-0.004-11.244
				c-0.006-0.074-0.02-0.242,0.084-0.428l0.396-0.713l1.053,1.562c0.17,0.252,0.34,0.504,0.508,0.756
				c0.508-0.311,1.018-0.623,1.524-0.932c-0.571-0.842-1.174-1.764-1.869-2.871c-0.313-0.496-0.802-0.84-1.45-1.02
				c-0.547-0.15-1.1-0.285-1.649-0.418l-0.408-0.102c-0.381,0.539-0.84,0.893-1.397,1.07c-0.789,0.256-1.562,0.107-2.237-0.424
				c-0.237-0.188-0.444-0.404-0.617-0.648c-0.138,0.037-0.297,0.076-0.455,0.113c-0.16,0.037-0.319,0.074-0.478,0.119
				c-0.183,0.051-0.364,0.094-0.549,0.135c-0.322,0.072-0.625,0.145-0.897,0.264c-0.545,0.242-0.947,0.59-1.229,1.061
				c-0.531,0.891-1.097,1.744-1.767,2.721c0.513,0.309,1.021,0.619,1.524,0.932c0.205-0.309,0.41-0.613,0.615-0.92l0.711-1.061
				l0.521,0.248l0.194,0.176l-0.006,0.346L-60.221,54.393z"/>
			<path fill="#777266" d="M-51.838,54.893c-2.961,0-5.924,0-8.885,0c0-0.027,0.002-0.055,0.002-0.08c0-3.91,0-7.82-0.002-11.729
				c0-0.035,0.021-0.074-0.021-0.111c-0.03,0.047-0.062,0.088-0.092,0.131c-0.396,0.596-0.801,1.188-1.194,1.789
				c-0.062,0.094-0.104,0.102-0.198,0.043c-0.707-0.438-1.41-0.871-2.126-1.295c-0.132-0.078-0.116-0.125-0.044-0.232
				c0.676-0.979,1.344-1.965,1.951-2.984c0.352-0.586,0.848-0.99,1.457-1.264c0.482-0.213,1.009-0.275,1.514-0.42
				c0.409-0.113,0.829-0.188,1.233-0.322c0.021,0,0.042,0,0.063,0c0.174,0.322,0.407,0.602,0.694,0.826
				c0.531,0.42,1.127,0.553,1.774,0.344c0.604-0.197,1.016-0.631,1.324-1.17c0.021,0,0.045,0,0.064,0
				c0.014,0.01,0.021,0.023,0.034,0.025c0.771,0.191,1.552,0.371,2.317,0.582c0.726,0.201,1.336,0.592,1.741,1.236
				c0.677,1.074,1.365,2.141,2.087,3.188c0.051,0.074,0.064,0.109-0.029,0.166c-0.729,0.439-1.455,0.885-2.182,1.33
				c-0.082,0.053-0.121,0.041-0.176-0.041c-0.264-0.4-0.533-0.801-0.803-1.199c-0.163-0.242-0.325-0.486-0.495-0.738
				c-0.039,0.068-0.021,0.129-0.021,0.186c0,3.232,0,6.471,0,9.703C-51.842,53.531-51.84,54.211-51.838,54.893z"/>
		</g>
	</g>
	<g>
		<g>
			
				<linearGradient id="SVGID_8_" gradientUnits="userSpaceOnUse" x1="-78.3821" y1="703.2307" x2="-57.1946" y2="703.2307" gradientTransform="matrix(1 0 0 1 -16.7197 -708.332)">
				<stop  offset="0" style="stop-color:#E6E6E6"/>
				<stop  offset="0.5398" style="stop-color:#FFFFFF"/>
				<stop  offset="1" style="stop-color:#C8C8C8"/>
			</linearGradient>
			<path fill="url(#SVGID_8_)" d="M-89.502,1.117h-0.037c-0.868-0.02-1.557-0.692-1.614-1.573c-0.166,0.008-0.333-0.015-0.496-0.062
				c-0.714-0.208-1.188-0.808-1.206-1.527c-0.012-0.521-0.012-1.044-0.007-1.562c-0.043,0-0.086,0-0.129,0l-0.541-0.003
				c-0.647-0.004-1.104-0.269-1.392-0.807l-0.178-0.033V-5.73l0.164-0.041c0.266-0.517,0.727-0.805,1.314-0.819
				c0.255-0.006,0.508-0.006,0.759-0.005c-0.003-0.486-0.003-0.973,0.002-1.457c0.011-0.966,0.728-1.694,1.668-1.694l0.042,0.001
				c0.071-0.899,0.755-1.566,1.639-1.573c0.957,0,1.67,0.737,1.674,1.717c0.004,1.004,0.008,2.009,0,3.015l3.189-0.004l3.184,0.004
				c-0.006-1.015-0.006-2.02-0.002-3.022c0.006-0.974,0.721-1.707,1.66-1.707l0.125,0.004c0.795,0.055,1.443,0.691,1.51,1.481
				c0.002,0.025,0.004,0.054,0.006,0.08c0.453-0.022,0.912,0.162,1.236,0.491c0.32,0.323,0.494,0.769,0.489,1.252
				c-0.003,0.282-0.003,0.564-0.002,0.846c0,0.189,0.001,0.379,0,0.568c0.093-0.001,0.185-0.001,0.274-0.001l0.662,0.002
				c0.727,0.001,1.209,0.312,1.475,0.951l0.119,0.084l-0.006,1.059l-0.154,0.052c-0.271,0.529-0.729,0.82-1.305,0.836
				c-0.355,0.008-0.711,0.011-1.064,0.005c0.006,0.488,0.004,0.977-0.003,1.465c-0.015,0.961-0.731,1.688-1.674,1.688l-0.05-0.001
				c-0.002,0.021-0.002,0.044-0.004,0.065c-0.072,0.859-0.779,1.508-1.646,1.508c-0.905-0.013-1.632-0.723-1.644-1.583
				c-0.016-1.049-0.014-2.098-0.008-3.146c-2.151,0.006-4.254,0.006-6.373,0c0.006,1.012,0.004,2.014,0,3.016
				C-87.844,0.38-88.559,1.117-89.502,1.117z M-90.157-1.898l-0.001,1.001c-0.001,0.124-0.002,0.239,0.002,0.355
				c0.018,0.372,0.286,0.648,0.641,0.656l0.016,0.5v-0.5c0.39,0,0.66-0.296,0.662-0.72c0.007-1.103,0.007-2.204-0.002-3.307
				c0-0.091-0.002-0.331,0.186-0.52s0.428-0.188,0.52-0.188c2.32,0.008,4.639,0.008,6.955,0c0.123,0.009,0.344,0,0.53,0.188
				c0.188,0.189,0.188,0.436,0.188,0.527c-0.008,1.139-0.012,2.277,0.006,3.418c0.004,0.324,0.287,0.592,0.632,0.597l0,0
				c0.356,0,0.63-0.249,0.658-0.592c0.014-0.15,0.013-0.306,0.013-0.458c0-0.513,0.357-0.64,0.551-0.64h0.114l0.177,0.074
				c0.051,0.022,0.1,0.038,0.147,0.041h0.002c0.444,0,0.715-0.282,0.72-0.7c0.01-0.586,0.01-1.172-0.003-1.758
				c-0.001-0.083-0.004-0.324,0.183-0.513c0.186-0.188,0.424-0.188,0.504-0.188c0.488,0.011,0.912,0.013,1.359,0
				c0.225-0.005,0.354-0.1,0.456-0.323c0.007-0.036,0.017-0.069,0.029-0.101l-0.005-0.124c-0.112-0.348-0.229-0.432-0.588-0.433
				l-0.657-0.002c-0.197,0-0.396,0.001-0.595,0.005c0,0,0,0-0.002,0c-0.226,0-0.388-0.062-0.506-0.183
				c-0.183-0.185-0.18-0.418-0.179-0.494c0.004-0.299,0.004-0.598,0.003-0.896c-0.001-0.286-0.001-0.572,0.002-0.857
				c0.002-0.219-0.066-0.404-0.199-0.538c-0.179-0.181-0.479-0.246-0.675-0.149l-0.104,0.052l-0.188,0.023
				c-0.188,0-0.546-0.127-0.546-0.608c0-0.169,0.001-0.339-0.016-0.508c-0.022-0.299-0.277-0.548-0.578-0.568
				c-0.002,0-0.004,0-0.006,0c-0.446,0-0.711,0.285-0.713,0.709c-0.006,1.104-0.006,2.206,0.004,3.308
				c0,0.082,0.002,0.334-0.187,0.525c-0.188,0.189-0.438,0.189-0.532,0.189l-3.469-0.004l-3.468,0.004
				c-0.108,0.003-0.347,0-0.535-0.19c-0.19-0.191-0.188-0.439-0.188-0.533c0.01-1.098,0.008-2.19,0.002-3.286
				c-0.002-0.425-0.271-0.722-0.657-0.722c-0.39,0.003-0.657,0.301-0.661,0.724v0.309v0.778l-0.6-0.121
				c-0.092-0.02-0.178-0.048-0.262-0.077c-0.043-0.017-0.101-0.036-0.123-0.037c-0.449,0-0.716,0.284-0.72,0.705
				c-0.007,0.593-0.005,1.188,0.001,1.782c0.003,0.2-0.059,0.364-0.177,0.486c-0.119,0.12-0.279,0.182-0.476,0.182
				c-0.4-0.008-0.729-0.009-1.086,0c-0.242,0.007-0.379,0.104-0.477,0.333c-0.006,0.034-0.018,0.064-0.027,0.096l0.012,0.168
				c0.121,0.297,0.242,0.38,0.562,0.382l0.535,0.004c0.143,0,0.286-0.002,0.428-0.008c0.199-0.005,0.404,0.062,0.525,0.185
				c0.184,0.188,0.181,0.429,0.18,0.507c-0.007,0.616-0.011,1.236,0.004,1.854c0.008,0.289,0.184,0.506,0.484,0.593
				c0.154,0.044,0.305,0.022,0.494-0.069L-90.157-1.898z"/>
			<path fill="#777266" d="M-74.418-4.862c-0.062,0.021-0.055,0.084-0.071,0.129c-0.175,0.39-0.474,0.607-0.899,0.618
				c-0.455,0.013-0.908,0.011-1.358,0c-0.147-0.002-0.2,0.025-0.198,0.188c0.012,0.593,0.012,1.184,0.003,1.774
				c-0.01,0.724-0.549,1.231-1.251,1.191c-0.119-0.008-0.232-0.04-0.339-0.092c-0.104-0.052-0.121-0.01-0.121,0.085
				c0,0.178,0.001,0.354-0.015,0.531c-0.053,0.609-0.551,1.06-1.163,1.05c-0.604-0.009-1.117-0.482-1.125-1.09
				c-0.019-1.145-0.013-2.286-0.007-3.43c0.002-0.179-0.047-0.214-0.217-0.213c-2.317,0.008-4.639,0.008-6.957,0
				c-0.162,0-0.205,0.038-0.203,0.203c0.009,1.104,0.009,2.208,0.002,3.312c-0.002,0.715-0.516,1.231-1.188,1.218
				c-0.617-0.014-1.102-0.498-1.128-1.139C-90.66-0.708-90.655-0.89-90.655-1.1c-0.285,0.14-0.562,0.185-0.854,0.101
				c-0.498-0.146-0.832-0.544-0.846-1.062c-0.015-0.624-0.011-1.249-0.004-1.872c0.002-0.149-0.039-0.188-0.188-0.186
				c-0.326,0.014-0.656,0.007-0.983,0.004c-0.522-0.003-0.827-0.209-1.024-0.697c-0.011-0.023-0.016-0.05-0.047-0.057
				c0-0.156,0-0.314,0-0.475c0.06-0.015,0.051-0.071,0.066-0.11c0.172-0.409,0.48-0.628,0.926-0.641
				c0.361-0.009,0.723-0.008,1.083,0c0.128,0.003,0.168-0.031,0.166-0.163c-0.006-0.598-0.008-1.195-0.001-1.793
				c0.008-0.737,0.549-1.245,1.26-1.197c0.153,0.012,0.284,0.09,0.443,0.122c0-0.167-0.002-0.323,0-0.479
				c0.007-0.697,0.494-1.213,1.148-1.219c0.664-0.006,1.166,0.512,1.17,1.22c0.004,1.097,0.006,2.192-0.004,3.291
				c0,0.18,0.045,0.224,0.225,0.223c2.312-0.006,4.625-0.006,6.938,0c0.168,0,0.221-0.03,0.219-0.212
				c-0.01-1.104-0.01-2.207-0.006-3.311c0.004-0.741,0.541-1.255,1.252-1.206c0.543,0.036,1,0.479,1.045,1.023
				c0.017,0.185,0.017,0.366,0.017,0.551c0,0.094,0.011,0.142,0.119,0.085c0.637-0.313,1.604,0.143,1.596,1.144
				c-0.007,0.584,0.003,1.169-0.005,1.754c-0.002,0.143,0.04,0.173,0.176,0.17c0.422-0.009,0.842-0.005,1.264-0.003
				c0.574,0.001,0.882,0.227,1.062,0.772c0.003,0.01,0.021,0.014,0.03,0.021C-74.418-5.153-74.418-5.009-74.418-4.862z"/>
		</g>
	</g>
	<g>
		
			<linearGradient id="SVGID_9_" gradientUnits="userSpaceOnUse" x1="-47.1711" y1="720.2561" x2="-32.675" y2="720.2561" gradientTransform="matrix(1 0 0 1 -16.7197 -708.332)">
			<stop  offset="0" style="stop-color:#E6E6E6"/>
			<stop  offset="0.5398" style="stop-color:#FFFFFF"/>
			<stop  offset="1" style="stop-color:#C8C8C8"/>
		</linearGradient>
		<path fill="url(#SVGID_9_)" d="M-49.395,19.449h-12.926l-0.051-0.104c-0.912-0.322-1.518-1.167-1.518-2.139l-0.002-3.518
			l0.002-7.035c0-1.046,0.744-1.968,1.77-2.192l0.057-0.062l10.537,0.022l0.039,0.458c0.008,0.081,0.014,0.13,0.014,0.179
			c0,0.442,0,0.886,0,1.329c0.002-0.005,0.006-0.009,0.008-0.013c0.082-0.097,0.231-0.211,0.486-0.211
			c0.252,0.01,0.387,0.016,0.557,0.001c0.34,0.01,0.709,0.173,0.709,0.672c-0.004,3.982-0.004,7.966-0.002,11.947
			c-0.002,0.009-0.002,0.015-0.002,0.021L-49.395,19.449z M-56.9,17.585l5.308,0.002c0-0.332,0-0.663,0-0.994
			c-0.114,0.153-0.303,0.239-0.543,0.239l-9.26-0.004c-0.088,0-0.175,0-0.263,0.008c-0.16,0.014-0.25,0.075-0.312,0.219
			c-0.064,0.146-0.053,0.258,0.047,0.387c0.057,0.069,0.138,0.146,0.418,0.146L-56.9,17.585z M-61.779,5.423
			c-0.063,0.016-0.116,0.02-0.147,0.021c-0.547,0.12-0.961,0.632-0.961,1.212v7.034v2.969c0.002-0.002,0.002-0.004,0.004-0.006
			c0.207-0.479,0.615-0.771,1.147-0.812c0.115-0.009,0.228-0.01,0.341-0.01l8.928,0.003c-0.006-3.472-0.006-6.938-0.006-10.408
			l-1.197,0.001l-7.985-0.001C-61.7,5.427-61.741,5.426-61.779,5.423z"/>
		<path fill="#777266" d="M-61.838,4.9c0.011,0,0.021,0,0.027,0c0.045,0.052,0.104,0.023,0.152,0.023
			c2.662,0.001,5.324,0.001,7.986,0.001c0.562,0,1.123-0.002,1.688-0.002c0.004,0.046,0.012,0.092,0.012,0.137
			c0,3.704,0,7.406,0.006,11.109c0,0.139-0.039,0.162-0.168,0.162c-3.086-0.005-6.174-0.004-9.262-0.004
			c-0.1,0-0.199,0.002-0.301,0.01c-0.348,0.026-0.598,0.206-0.73,0.519c-0.14,0.312-0.101,0.617,0.11,0.892
			c0.205,0.268,0.491,0.34,0.812,0.34c3.414-0.002,6.832-0.002,10.248,0.001c0.131,0,0.164-0.029,0.164-0.164
			c-0.006-3.676-0.004-7.354-0.004-11.027c0-0.027,0.004-0.057,0-0.082c-0.02-0.11,0.021-0.152,0.139-0.146
			c0.189,0.01,0.386,0.016,0.576-0.001c0.146-0.012,0.168,0.04,0.168,0.174c-0.004,3.981-0.004,7.967-0.002,11.948
			c0,0.054-0.016,0.108,0.013,0.161c-3.935,0-7.865,0-11.8,0c-0.021-0.046-0.069-0.036-0.106-0.047
			c-0.771-0.229-1.276-0.896-1.276-1.696c0-3.518-0.002-7.034,0-10.552c0-0.817,0.578-1.529,1.375-1.705
			C-61.953,4.937-61.885,4.953-61.838,4.9z"/>
	</g>
	<path fill="#777266" d="M-112.305,12.421c0.025,0.02,0.051,0.035,0.073,0.052c1.116,0.688,2.229,1.374,3.347,2.062
		c0.056,0.033,0.088,0.03,0.14-0.005c0.305-0.218,0.61-0.432,0.919-0.646c0.234-0.165,0.488-0.271,0.783-0.26
		c0.289,0.011,0.525,0.136,0.707,0.354c0.102,0.12,0.088,0.271,0.062,0.406c-0.021,0.104-0.058,0.208-0.11,0.3
		c-0.709,1.178-1.424,2.354-2.138,3.528c-0.062,0.104-0.12,0.209-0.188,0.311c-0.135,0.197-0.271,0.237-0.492,0.142
		c-0.178-0.079-0.354-0.158-0.521-0.253c-0.222-0.125-0.324-0.325-0.305-0.577c0.036-0.438,0.079-0.872,0.125-1.308
		c0.021-0.193,0.025-0.192-0.146-0.275c-1.123-0.541-2.246-1.082-3.369-1.623c-0.025-0.013-0.051-0.022-0.08-0.037
		c-0.192,0.207-0.34,0.44-0.457,0.694c-0.2,0.434-0.299,0.897-0.409,1.358c-0.271,1.133-0.542,2.267-0.817,3.396
		c-0.029,0.129-0.074,0.256-0.125,0.379c-0.095,0.234-0.257,0.331-0.504,0.284c-0.354-0.064-0.688-0.2-0.999-0.385
		c-0.211-0.125-0.301-0.331-0.319-0.564c-0.019-0.199-0.027-0.401-0.029-0.604c-0.016-1.999-0.025-3.997-0.039-5.996
		c-0.001-0.133-0.016-0.269-0.04-0.396c-0.05-0.257-0.207-0.438-0.433-0.561c-0.469-0.247-0.945-0.475-1.407-0.73
		c-0.505-0.277-1.005-0.565-1.49-0.876c-0.425-0.271-0.767-0.639-1.019-1.074c-0.108-0.189-0.16-0.396-0.104-0.612
		c0.071-0.274,0.319-0.473,0.629-0.5c0.383-0.033,0.752,0.036,1.121,0.116c0.396,0.087,0.762,0.252,1.113,0.44
		c0.795,0.432,1.584,0.868,2.376,1.307c0.042,0.021,0.083,0.046,0.124,0.067c0.203,0.109,0.41,0.114,0.615,0.005
		c0.535-0.288,1.066-0.579,1.604-0.867c1.436-0.778,2.869-1.558,4.305-2.334c0.241-0.132,0.491-0.234,0.771-0.259
		c0.409-0.035,0.747,0.124,1.039,0.397c0.062,0.06,0.12,0.123,0.178,0.188c0.218,0.246,0.22,0.478-0.017,0.707
		c-0.209,0.204-0.432,0.393-0.648,0.584c-0.896,0.789-1.791,1.578-2.688,2.366c-0.311,0.271-0.562,0.592-0.816,0.911
		C-112.096,12.16-112.2,12.289-112.305,12.421z"/>
	<path opacity="0.6" fill="#C1BAAC" enable-background="new    " d="M-111.502,8.055c-0.87,0.472-1.74,0.943-2.611,1.416
		c-0.535,0.288-1.066,0.579-1.604,0.867c-0.205,0.109-0.412,0.104-0.615-0.005c-0.041-0.021-0.082-0.048-0.124-0.067
		c-0.792-0.438-1.581-0.875-2.376-1.307c-0.354-0.188-0.719-0.354-1.113-0.44c-0.369-0.08-0.738-0.149-1.121-0.116
		c-0.311,0.027-0.559,0.226-0.629,0.5c-0.059,0.219-0.007,0.423,0.104,0.612c0.252,0.438,0.594,0.805,1.019,1.074
		c0.485,0.311,0.985,0.599,1.489,0.876c0.463,0.258,0.939,0.483,1.408,0.73c0.226,0.12,0.383,0.304,0.433,0.561
		c0.024,0.131,0.039,0.266,0.04,0.396c0.014,1.999,0.023,3.997,0.039,5.996c0.002,0.202,0.013,0.403,0.029,0.604
		c0.021,0.233,0.108,0.439,0.319,0.564c0.085,0.05,0.175,0.086,0.263,0.128C-116.12,15.775-114.299,11.507-111.502,8.055z"/>
</g>
<g opacity="0.6">
	<path fill="#C1BAAC" d="M-78.24-6.862c0.435,0,0.866,0.007,1.295,0.02c0-0.391-0.002-0.781,0.003-1.172
		c0.01-1.001-0.959-1.457-1.596-1.144c-0.109,0.057-0.119,0.009-0.119-0.085c0-0.185,0-0.366-0.018-0.551
		c-0.045-0.545-0.502-0.987-1.043-1.023c-0.711-0.049-1.248,0.465-1.252,1.206c-0.004,0.944-0.002,1.891,0.004,2.836
		C-80.069-6.831-79.159-6.862-78.24-6.862z"/>
	<path fill="#C1BAAC" d="M-93.531-4.112c0.2,0.001,0.399-0.001,0.603-0.003c2.01-0.837,4.233-1.506,6.615-1.974
		c-0.602,0-1.203-0.002-1.807,0c-0.18,0.001-0.225-0.044-0.225-0.224c0.01-1.099,0.008-2.193,0.004-3.291
		c-0.004-0.708-0.506-1.226-1.17-1.22c-0.654,0.006-1.144,0.521-1.148,1.219c-0.002,0.156,0,0.312,0,0.479
		c-0.159-0.032-0.29-0.11-0.443-0.122c-0.711-0.048-1.252,0.46-1.26,1.197c-0.007,0.598-0.005,1.195,0.001,1.794
		c0.002,0.131-0.038,0.166-0.166,0.162c-0.36-0.008-0.722-0.009-1.083,0c-0.443,0.013-0.754,0.229-0.926,0.641
		c-0.018,0.039-0.01,0.098-0.066,0.11c0,0.158,0,0.316,0,0.475c0.031,0.007,0.036,0.031,0.047,0.057
		C-94.358-4.32-94.055-4.115-93.531-4.112z"/>
</g>
<path opacity="0.6" fill="#C1BAAC" enable-background="new    " d="M-117.078,44.836c0.348,0.08,0.413,0.256,0.408,0.568
	c0,0.014,0,0.025,0,0.037c0.734-1.289,1.637-2.453,2.676-3.461c0-0.857,0-1.715,0-2.57c0-0.146,0.02-0.297-0.01-0.438
	c-0.016-0.082-0.096-0.191-0.17-0.217c-0.078-0.021-0.224,0.014-0.267,0.072c-0.057,0.082-0.058,0.215-0.058,0.322
	c-0.006,1.043-0.008,2.084-0.004,3.125c0.003,0.223-0.073,0.328-0.314,0.328c-0.238,0-0.328-0.1-0.318-0.324
	c0.006-0.105,0-0.203,0-0.307c0-0.977,0.006-1.945-0.008-2.924c-0.002-0.104-0.098-0.24-0.188-0.301
	c-0.048-0.029-0.216,0.061-0.271,0.133c-0.053,0.07-0.035,0.195-0.035,0.299c-0.002,1.027-0.008,2.061,0.004,3.09
	c0.002,0.252-0.076,0.344-0.33,0.332c-0.277-0.018-0.258-0.201-0.258-0.385c0-0.992,0-1.99,0-2.986c0-0.104,0.021-0.213-0.017-0.301
	c-0.03-0.078-0.14-0.189-0.194-0.184c-0.086,0.014-0.184,0.105-0.229,0.189c-0.04,0.068-0.016,0.176-0.016,0.268
	c0,1.006-0.002,2.014,0,3.021c0,0.211-0.017,0.369-0.301,0.377c-0.361,0.01-0.334-0.215-0.334-0.447c0-1.02-0.002-2.037,0.002-3.057
	c0-0.225-0.056-0.416-0.312-0.348c-0.092,0.023-0.186,0.232-0.186,0.359c-0.014,1.574-0.011,3.148-0.01,4.723
	C-117.813,44.338-117.564,44.727-117.078,44.836z"/>
<path opacity="0.6" fill="#C1BAAC" enable-background="new    " d="M-109.512,41.332c0-0.469,0-0.938,0-1.402
	c0-0.797-0.73-1.355-1.504-1.156c-0.649,0.166-0.968,0.596-0.97,1.357c-0.002,1.271-0.005,2.537-0.005,3.807
	C-111.273,42.951-110.438,42.08-109.512,41.332z"/>
<g>
	<path opacity="0.8" fill="#2D2D2D" d="M-78.451,21.273c-0.182-0.073-2.367-0.128-2.367-0.128l0.255-0.819
		c0,0,0.364-0.037,0.456-0.2c0.091-0.164,0-0.455,0-0.455s-2.441-0.783-3.352-0.856c-0.911-0.072-3.733-0.072-4.644,0
		c-0.911,0.073-3.352,0.856-3.352,0.856s-0.091,0.291,0,0.455c0.091,0.164,0.455,0.2,0.455,0.2l0.255,0.819
		c0,0-2.185,0.055-2.367,0.128c-0.182,0.073,0.437,0.164,0.437,0.164h4.116l2.777-0.073l2.777,0.073h4.115
		C-78.889,21.437-78.269,21.345-78.451,21.273z"/>
	<g>
		<path fill="#777266" d="M-65.038,24.314c-0.309-0.474-1.967-1.64-1.967-1.64l1.421-0.108c0,0,0.801-0.146,1.037-0.383
			c0.237-0.237,0.747-1.312,0.438-1.476c-0.31-0.164-2.35-0.892-2.896-0.82c-0.546,0.073-0.438,0.091-0.819,0.438
			c-0.383,0.346-0.602,1.202-0.602,1.202l-0.983-0.219c0,0-3.733-5.1-4.426-5.463c-0.691-0.364-0.801-0.565-1.146-0.601
			c-0.347-0.037-0.735,0.164-0.735,0.164s-7.422-0.833-9.63-0.944c-0.044-0.011-0.146-0.015-0.294-0.011
			c-0.148-0.004-0.248,0-0.293,0.011c-2.208,0.111-9.63,0.944-9.63,0.944s-0.39-0.201-0.735-0.164
			c-0.346,0.036-0.455,0.237-1.148,0.601c-0.69,0.364-4.425,5.463-4.425,5.463l-0.983,0.219c0,0-0.219-0.856-0.601-1.202
			c-0.383-0.346-0.273-0.364-0.819-0.438c-0.547-0.072-2.587,0.656-2.896,0.82c-0.31,0.164,0.2,1.239,0.438,1.476
			c0.236,0.236,1.038,0.383,1.038,0.383l1.421,0.108c0,0-1.658,1.166-1.967,1.64c-0.311,0.473-0.438,1.967-0.438,1.967
			s-0.283,7.299-0.219,7.703c0.063,0.407,0.656,4.153,0.656,4.153s0.272,2.459,0.437,2.677c0.164,0.219,0.546,0.328,0.546,0.328
			h3.934c0,0,0.165,0.219,0.384-0.328c0.218-0.546,0.345-0.546,0.437-1.092c0.091-0.546,0-1.094,0-1.094v-0.326
			c0,0,3.278-0.256,3.77-0.438c0.492-0.183,0.656-0.546,0.656-0.546l0.437,0.383l9.685,0.152v0.011l0.318-0.005l0.32,0.005v-0.011
			l9.683-0.152l0.438-0.383c0,0,0.163,0.363,0.656,0.546c0.491,0.183,3.77,0.438,3.77,0.438v0.326c0,0-0.092,0.548,0,1.094
			c0.09,0.546,0.219,0.546,0.437,1.092c0.22,0.547,0.383,0.328,0.383,0.328h3.934c0,0,0.383-0.109,0.547-0.328
			c0.163-0.218,0.437-2.677,0.437-2.677s0.592-3.746,0.655-4.153c0.063-0.403-0.218-7.703-0.218-7.703S-64.729,24.787-65.038,24.314
			z M-70.725,21.728c-0.258,0.017-13.497-0.226-14.916-0.253c-1.418,0.027-14.657,0.27-14.916,0.253
			c-0.272-0.018,3.661-5.19,3.661-5.19s1.437-1.12,11.255-1.093c9.818-0.026,11.256,1.093,11.256,1.093S-70.45,21.71-70.725,21.728z
			"/>
		<linearGradient id="SVGID_10_" gradientUnits="userSpaceOnUse" x1="-107.4871" y1="27.8186" x2="-63.7937" y2="27.8186">
			<stop  offset="0" style="stop-color:#C8C8C8"/>
			<stop  offset="1" style="stop-color:#FFFFFF"/>
		</linearGradient>
		<path fill="url(#SVGID_10_)" d="M-70.043,41.405c-0.264,0-0.41-0.29-0.498-0.51c-0.078-0.196-0.145-0.317-0.202-0.424
			c-0.104-0.189-0.186-0.339-0.247-0.713c-0.088-0.524-0.02-1.041-0.003-1.146v-0.108c-0.766-0.062-3.178-0.268-3.628-0.435
			c-0.301-0.111-0.499-0.283-0.62-0.426l-0.313,0.274l-0.079,0.002l-9.469,0.149v0.018l-0.538-0.009l-0.537,0.009v-0.018
			l-9.549-0.151l-0.313-0.274c-0.12,0.143-0.318,0.314-0.62,0.426c-0.449,0.167-2.862,0.372-3.627,0.435v0.108
			c0.016,0.105,0.084,0.622-0.003,1.146c-0.063,0.374-0.144,0.523-0.247,0.713c-0.059,0.106-0.124,0.228-0.203,0.424
			c-0.087,0.22-0.233,0.51-0.498,0.51c-0.062,0-0.116-0.018-0.161-0.044h-3.891l-0.029-0.008c-0.046-0.015-0.459-0.138-0.661-0.407
			c-0.174-0.231-0.374-1.837-0.479-2.779l-0.654-4.147c-0.065-0.414,0.187-6.997,0.217-7.747v-0.01
			c0.014-0.158,0.143-1.562,0.472-2.068c0.222-0.339,1.01-0.954,1.54-1.347l-0.85-0.067c-0.146-0.026-0.883-0.171-1.153-0.443
			c-0.213-0.211-0.66-1.047-0.591-1.509c0.027-0.184,0.127-0.272,0.205-0.313c0.306-0.162,2.208-0.85,2.911-0.85
			c0.042,0,0.082,0.002,0.116,0.007c0.47,0.062,0.538,0.102,0.757,0.319c0.046,0.046,0.103,0.103,0.18,0.173
			c0.311,0.281,0.514,0.811,0.608,1.106l0.703-0.156c0.561-0.765,3.759-5.097,4.45-5.461c0.272-0.143,0.449-0.259,0.592-0.352
			c0.219-0.143,0.378-0.247,0.635-0.274c0.036-0.003,0.073-0.005,0.11-0.005c0.284,0,0.564,0.108,0.686,0.163
			c0.718-0.08,7.463-0.829,9.565-0.938c0.064-0.012,0.164-0.016,0.32-0.012c0.157-0.003,0.256,0,0.321,0.012
			c2.103,0.108,8.848,0.857,9.565,0.938c0.121-0.054,0.401-0.163,0.685-0.163c0.037,0,0.075,0.002,0.109,0.005
			c0.259,0.027,0.417,0.131,0.637,0.274c0.143,0.093,0.319,0.209,0.591,0.352c0.691,0.365,3.89,4.696,4.451,5.461l0.703,0.156
			c0.095-0.295,0.297-0.826,0.607-1.106c0.077-0.07,0.134-0.126,0.181-0.173c0.218-0.217,0.287-0.256,0.756-0.319
			c0.036-0.005,0.074-0.007,0.116-0.007c0.703,0,2.606,0.688,2.911,0.85c0.079,0.041,0.178,0.13,0.206,0.313
			c0.069,0.461-0.379,1.297-0.591,1.509c-0.271,0.272-1.009,0.417-1.153,0.443l-0.022,0.003l-0.827,0.063
			c0.529,0.393,1.317,1.008,1.539,1.347c0.331,0.505,0.458,1.91,0.473,2.068v0.01c0.029,0.75,0.282,7.333,0.216,7.747l-0.654,4.147
			c-0.105,0.942-0.305,2.548-0.479,2.779c-0.203,0.27-0.615,0.393-0.662,0.407l-0.029,0.008h-3.89
			C-69.927,41.387-69.982,41.405-70.043,41.405z M-70.041,40.923h3.986c0.123-0.038,0.316-0.129,0.4-0.233
			c0.092-0.189,0.274-1.453,0.399-2.576l0.001-0.01l0.655-4.153c0.044-0.302-0.107-4.742-0.221-7.656
			c-0.035-0.404-0.174-1.512-0.401-1.861c-0.236-0.36-1.458-1.262-1.91-1.579l-0.498-0.351l2.017-0.155
			c0.306-0.058,0.783-0.193,0.912-0.32c0.195-0.196,0.521-0.943,0.468-1.138c-0.326-0.159-2.101-0.789-2.686-0.789
			c-0.022,0-0.042,0.001-0.058,0.003c-0.357,0.047-0.357,0.047-0.507,0.195c-0.049,0.049-0.11,0.11-0.194,0.187
			c-0.275,0.247-0.48,0.874-0.537,1.094l-0.053,0.206l-1.271-0.283l-0.049-0.066c-1.432-1.957-3.879-5.151-4.351-5.4
			c-0.29-0.152-0.483-0.279-0.626-0.372c-0.198-0.129-0.289-0.189-0.442-0.205c-0.02-0.002-0.042-0.003-0.064-0.003
			c-0.263,0-0.546,0.143-0.548,0.144l-0.06,0.03l-0.064-0.007c-0.074-0.008-7.44-0.833-9.617-0.944h-0.021l-0.021-0.005
			c-0.001,0-0.033-0.006-0.144-0.006c-0.029,0-0.06,0.001-0.093,0.001h-0.005h-0.004c-0.033,0-0.064-0.001-0.093-0.001
			c-0.111,0-0.143,0.006-0.146,0.007l-0.021,0.005h-0.018c-2.178,0.111-9.543,0.936-9.617,0.944l-0.066,0.007l-0.058-0.03
			c-0.003-0.001-0.286-0.144-0.549-0.144c-0.021,0-0.043,0-0.064,0.003c-0.153,0.016-0.244,0.075-0.442,0.205
			c-0.142,0.093-0.337,0.22-0.626,0.372c-0.472,0.249-2.919,3.443-4.352,5.4l-0.048,0.066l-1.271,0.283l-0.052-0.206
			c-0.058-0.22-0.264-0.847-0.536-1.094c-0.085-0.077-0.146-0.138-0.196-0.187c-0.148-0.148-0.148-0.148-0.506-0.195
			c-0.011-0.001-0.03-0.003-0.059-0.003c-0.585,0-2.359,0.63-2.685,0.789c-0.054,0.195,0.271,0.942,0.468,1.138
			c0.127,0.127,0.615,0.265,0.912,0.32l2.016,0.155l-0.498,0.35c-0.451,0.318-1.675,1.22-1.909,1.58
			c-0.229,0.349-0.367,1.457-0.402,1.861c-0.112,2.914-0.264,7.354-0.222,7.656l0.658,4.163c0.124,1.123,0.308,2.387,0.399,2.576
			c0.083,0.104,0.277,0.193,0.399,0.233h3.986c0.023-0.036,0.057-0.096,0.095-0.189c0.088-0.221,0.164-0.36,0.224-0.472
			c0.094-0.172,0.149-0.274,0.2-0.576c0.083-0.501,0.001-1.016,0-1.021l-0.003-0.02v-0.548l0.202-0.016
			c1.306-0.101,3.37-0.297,3.711-0.424c0.392-0.145,0.527-0.421,0.533-0.433l0.124-0.261l0.218,0.188l0.378,0.33l9.817,0.156v0.004
			l0.101-0.002l0.101,0.002v-0.004l9.819-0.156l0.599-0.522l0.121,0.268c0.005,0.01,0.14,0.286,0.532,0.431
			c0.339,0.127,2.405,0.323,3.711,0.424l0.202,0.016v0.548l-0.004,0.02c-0.001,0.005-0.084,0.52,0,1.021
			c0.051,0.302,0.107,0.404,0.2,0.576c0.061,0.111,0.137,0.251,0.225,0.472C-70.097,40.827-70.065,40.887-70.041,40.923z
			 M-70.795,21.947c-1.103,0-14.229-0.242-14.846-0.253c-1.425,0.026-13.758,0.253-14.846,0.253c-0.045,0-0.074,0-0.085-0.001
			c-0.085-0.006-0.16-0.058-0.195-0.135c-0.072-0.16-0.116-0.256,1.82-2.895c0.922-1.255,1.867-2.499,1.877-2.511l0.017-0.022
			l0.023-0.018c0.04-0.031,0.438-0.314,1.985-0.589c2.027-0.36,5.16-0.55,9.061-0.55c0.114,0,0.229,0.001,0.344,0.001
			c0.114,0,0.229-0.001,0.342-0.001c3.901,0,7.034,0.19,9.062,0.55c1.548,0.275,1.946,0.558,1.986,0.589l0.022,0.018l0.017,0.022
			c0.009,0.012,0.955,1.256,1.877,2.511c1.937,2.639,1.893,2.735,1.82,2.895c-0.035,0.077-0.11,0.128-0.196,0.135
			C-70.72,21.947-70.749,21.947-70.795,21.947z M-85.641,21.257h0.005c0.532,0.01,12.45,0.229,14.587,0.252
			c-0.491-0.807-2.301-3.248-3.487-4.81c-0.218-0.13-2.089-1.062-11.104-1.036c-0.116,0-0.23-0.001-0.344-0.001
			c-8.72,0-10.547,0.908-10.761,1.037c-1.188,1.562-2.996,4.003-3.488,4.81c2.138-0.022,14.056-0.242,14.588-0.252H-85.641z"/>
	</g>
	<linearGradient id="SVGID_11_" gradientUnits="userSpaceOnUse" x1="-105.2297" y1="28.8489" x2="-95.4553" y2="28.8489">
		<stop  offset="0" style="stop-color:#FFFFFF"/>
		<stop  offset="1" style="stop-color:#C8C8C8"/>
	</linearGradient>
	<path fill="url(#SVGID_11_)" d="M-105.181,26.882c0,0-0.327,1.531,0.711,2.24c1.038,0.711,2.186,0.82,2.186,0.82l6.829,0.875
		c0,0-0.983-1.858-1.312-1.968c-0.327-0.108,0.711-0.71,0.711-0.71l-2.95-0.601L-105.181,26.882z"/>
	<linearGradient id="SVGID_12_" gradientUnits="userSpaceOnUse" x1="-75.8704" y1="28.8489" x2="-66.0969" y2="28.8489">
		<stop  offset="0" style="stop-color:#FFFFFF"/>
		<stop  offset="1" style="stop-color:#C8C8C8"/>
	</linearGradient>
	<path fill="url(#SVGID_12_)" d="M-66.146,26.882c0,0,0.327,1.531-0.71,2.24c-1.039,0.711-2.186,0.82-2.186,0.82l-6.829,0.875
		c0,0,0.982-1.858,1.311-1.968c0.327-0.108-0.71-0.71-0.71-0.71l2.949-0.601L-66.146,26.882z"/>
	<g>
		<path fill="#787366" d="M-96.901,28.575c0,0,0.109-0.53,0.765-0.812c0.656-0.281,8.36,0,8.36,0s1.365,0.375,1.64,0.812
			c0.272,0.438,0,2.241,0,2.241s-0.164,0.818-0.492,0.818s-4.891,0-4.891,0s-3.141,0.056-3.961-0.71
			C-96.299,30.16-96.901,28.575-96.901,28.575z"/>
		<linearGradient id="SVGID_13_" gradientUnits="userSpaceOnUse" x1="-97.0129" y1="29.6379" x2="-85.9055" y2="29.6379">
			<stop  offset="0" style="stop-color:#FFFFFF"/>
			<stop  offset="1" style="stop-color:#C8C8C8"/>
		</linearGradient>
		<path fill="url(#SVGID_13_)" d="M-91.656,31.745c-0.728,0-3.162-0.053-3.898-0.74c-0.828-0.774-1.424-2.325-1.448-2.391
			l-0.011-0.03l0.006-0.03c0.005-0.024,0.129-0.59,0.829-0.891c0.134-0.057,0.539-0.133,2.501-0.133
			c2.451,0,5.871,0.124,5.905,0.125l0.013,0l0.013,0.003c0.144,0.04,1.415,0.399,1.702,0.859c0.286,0.459,0.045,2.125,0.016,2.315
			c-0.031,0.156-0.202,0.912-0.6,0.912h-4.891C-91.519,31.744-91.569,31.745-91.656,31.745z M-96.785,28.57
			c0.091,0.228,0.652,1.597,1.38,2.275c0.539,0.503,2.291,0.683,3.75,0.683c0.086,0,0.135-0.002,0.135-0.002h4.893
			c0.155,0,0.322-0.424,0.385-0.732c0.073-0.484,0.221-1.829,0.015-2.159c-0.204-0.326-1.186-0.656-1.563-0.762
			c-0.231-0.008-3.514-0.124-5.885-0.124c-1.866,0-2.313,0.073-2.415,0.116C-96.604,28.084-96.752,28.463-96.785,28.57z"/>
	</g>
	<g>
		<path fill="#787366" d="M-74.42,28.575c0,0-0.108-0.53-0.765-0.812c-0.655-0.281-8.359,0-8.359,0s-1.366,0.375-1.64,0.812
			c-0.272,0.438,0,2.241,0,2.241s0.164,0.818,0.492,0.818s4.89,0,4.89,0s3.142,0.056,3.962-0.71
			C-75.021,30.16-74.42,28.575-74.42,28.575z"/>
		<linearGradient id="SVGID_14_" gradientUnits="userSpaceOnUse" x1="-85.4143" y1="29.6379" x2="-74.3059" y2="29.6379">
			<stop  offset="0" style="stop-color:#C8C8C8"/>
			<stop  offset="1" style="stop-color:#FFFFFF"/>
		</linearGradient>
		<path fill="url(#SVGID_14_)" d="M-79.664,31.745c-0.09,0-0.14-0.001-0.14-0.001h-4.888c-0.186,0-0.344-0.161-0.471-0.478
			c-0.084-0.213-0.126-0.421-0.128-0.43c-0.029-0.194-0.272-1.861,0.015-2.32c0.287-0.459,1.559-0.819,1.702-0.859l0.013-0.003
			l0.013,0c0.034-0.001,3.454-0.125,5.904-0.125c1.963,0,2.367,0.076,2.502,0.133c0.7,0.301,0.824,0.867,0.828,0.891l0.008,0.03
			l-0.012,0.03c-0.025,0.066-0.62,1.617-1.448,2.391C-76.502,31.693-78.936,31.745-79.664,31.745z M-83.527,27.872
			c-0.379,0.105-1.36,0.436-1.564,0.762c-0.07,0.111-0.204,0.719,0.016,2.166c0.061,0.302,0.229,0.726,0.384,0.726h4.89
			c0.003,0,0.052,0.002,0.138,0.002c1.459,0,3.211-0.18,3.749-0.683c0.728-0.679,1.291-2.049,1.38-2.275
			c-0.031-0.108-0.18-0.485-0.692-0.706c-0.101-0.043-0.549-0.116-2.416-0.116C-80.014,27.748-83.296,27.864-83.527,27.872z"/>
	</g>
	<linearGradient id="SVGID_15_" gradientUnits="userSpaceOnUse" x1="-86.8157" y1="26.8" x2="-84.5754" y2="26.8">
		<stop  offset="0" style="stop-color:#FFFFFF"/>
		<stop  offset="1" style="stop-color:#C8C8C8"/>
	</linearGradient>
	<ellipse fill="url(#SVGID_15_)" cx="-85.696" cy="26.8" rx="1.12" ry="0.537"/>
	<path opacity="0.6" fill="#C1BAAC" enable-background="new    " d="M-68.205,22.219c-0.072-0.09-0.947-0.272-0.947-0.272
		l-16.504-0.254v-0.001l-0.039,0l-0.038,0v0.001l-16.505,0.254c0,0-0.874,0.182-0.947,0.272c-0.073,0.091,0.219,0.912,0.219,0.912
		l1.184,0.109l3.533,0.455c0,0,3.026,0.232,3.788,0.183c1.111-0.073,1.221-0.354,1.658-0.447c0.437-0.091,0.746-0.045,0.746-0.045
		l0.601,0.31l2.332,1.348l3.392,0.124v0.003l0.038-0.001l0.039,0.001v-0.003l3.393-0.124l2.33-1.348l0.602-0.31
		c0,0,0.31-0.046,0.746,0.045c0.438,0.092,0.547,0.374,1.657,0.447c0.762,0.049,3.788-0.183,3.788-0.183l3.534-0.455l1.184-0.109
		C-68.423,23.131-68.132,22.31-68.205,22.219z"/>
	<linearGradient id="SVGID_16_" gradientUnits="userSpaceOnUse" x1="-92.1741" y1="22.4109" x2="-79.2795" y2="22.4109">
		<stop  offset="0" style="stop-color:#FFFFFF"/>
		<stop  offset="1" style="stop-color:#C8C8C8"/>
	</linearGradient>
	<path fill="url(#SVGID_16_)" d="M-92.174,22.073l12.895-0.136c0,0-1.503,0.984-2.268,0.929c-0.765-0.055-8.142,0.058-8.551,0.001
		C-90.508,22.811-92.174,22.073-92.174,22.073z"/>
	<path fill="#2D2D2D" d="M-99.27,27.511c-2.462-3.799-2.618-5.105-2.492-5.545c0.043-0.152,0.118-0.191,0.127-0.195l0.023,0.049
		c-0.001,0-0.063,0.035-0.101,0.17c-0.117,0.437,0.051,1.731,2.487,5.492L-99.27,27.511z"/>
	<path fill="#2D2D2D" d="M-71.947,27.511l-0.046-0.03c0.847-1.306,2.783-4.458,2.484-5.5c-0.036-0.129-0.097-0.16-0.097-0.161
		l0.023-0.049c0.008,0.004,0.083,0.042,0.126,0.195C-69.328,22.406-69.486,23.712-71.947,27.511z"/>
	<linearGradient id="SVGID_17_" gradientUnits="userSpaceOnUse" x1="-86.0823" y1="29.7434" x2="-85.2629" y2="29.7434">
		<stop  offset="0" style="stop-color:#FFFFFF"/>
		<stop  offset="1" style="stop-color:#C8C8C8"/>
	</linearGradient>
	<rect x="-86.082" y="28.514" fill="url(#SVGID_17_)" width="0.819" height="2.459"/>
	<path opacity="0.6" fill="#C1BAAC" enable-background="new    " d="M-68.908,29.744v0.218l-1.803,0.948l-0.291,0.31
		c0,0-0.047,0.756,0,0.893c0.047,0.136,2.241,5.117,2.241,5.117s0.236,0.546,0.892,0.546s2.841,0,2.841,0v0.363l-4.134-0.181
		l-5.301-0.236c0,0-0.8-0.092-0.69-0.838c0.108-0.747-0.183,0.056,0.728-2.404c0.91-2.461,2.441-3.224,2.441-3.224L-68.908,29.744z"
		/>
	<path opacity="0.6" fill="#C1BAAC" enable-background="new    " d="M-102.361,29.888v0.219l1.804,0.947l0.29,0.31
		c0,0,0.048,0.757,0,0.893c-0.046,0.137-2.238,5.117-2.238,5.117s-0.237,0.548-0.894,0.548c-0.655,0-2.841,0-2.841,0v0.363
		l4.134-0.183l5.3-0.236c0,0,0.802-0.091,0.693-0.838c-0.11-0.746,0.182,0.058-0.729-2.404c-0.91-2.459-2.44-3.224-2.44-3.224
		L-102.361,29.888z"/>
	<g>
		<linearGradient id="SVGID_18_" gradientUnits="userSpaceOnUse" x1="-100.5471" y1="18.5491" x2="-70.6877" y2="18.5491">
			<stop  offset="0" style="stop-color:#C8C8C8;stop-opacity:0.8"/>
			<stop  offset="1" style="stop-color:#FFFFFF;stop-opacity:0.7"/>
		</linearGradient>
		<path fill="url(#SVGID_18_)" d="M-70.701,21.69c-0.259,0.017-13.497-0.226-14.916-0.252c-1.418,0.026-14.658,0.27-14.916,0.252
			c-0.273-0.018,3.661-5.19,3.661-5.19s1.437-1.119,11.255-1.093c9.818-0.026,11.256,1.093,11.256,1.093
			S-70.428,21.673-70.701,21.69z"/>
		<path fill="#777266" d="M-70.772,21.937c-1.038,0-12.537-0.211-14.846-0.253c-2.309,0.042-13.807,0.253-14.846,0.253
			c-0.047,0-0.075-0.001-0.087-0.001c-0.096-0.006-0.179-0.064-0.219-0.151c-0.079-0.174-0.123-0.27,1.823-2.922
			c0.922-1.255,1.867-2.499,1.877-2.511l0.02-0.025l0.025-0.02c0.06-0.047,1.579-1.146,11.064-1.146c0.112,0,0.227,0,0.342,0
			c0.115,0,0.229,0,0.343,0c3.903,0,7.038,0.19,9.065,0.551c1.556,0.276,1.958,0.563,1.998,0.595l0.025,0.02l0.02,0.025
			c0.01,0.013,0.955,1.256,1.876,2.511c1.947,2.653,1.903,2.748,1.824,2.922c-0.04,0.087-0.124,0.145-0.219,0.151
			C-70.696,21.936-70.725,21.937-70.772,21.937z M-85.617,21.192l0.005,0c2.156,0.04,12.43,0.229,14.538,0.251
			c-0.481-0.771-2.023-2.875-3.457-4.761c-0.231-0.135-2.129-1.053-11.086-1.03c-0.116,0-0.229,0-0.342,0
			c-8.662,0-10.516,0.897-10.744,1.03c-1.433,1.886-2.976,3.99-3.455,4.761c2.106-0.022,12.381-0.211,14.536-0.251L-85.617,21.192z"
			/>
	</g>
	<g>
		<path fill="#787366" d="M-75.265,28.868c0,0-0.093-0.384-0.653-0.588c-0.561-0.203-7.14,0-7.14,0s-1.166,0.272-1.4,0.588
			c-0.232,0.316,0,1.623,0,1.623s0.141,0.594,0.42,0.594c0.28,0,4.178,0,4.178,0s2.683,0.039,3.382-0.516
			C-75.779,30.016-75.265,28.868-75.265,28.868z"/>
		<linearGradient id="SVGID_19_" gradientUnits="userSpaceOnUse" x1="-84.8093" y1="29.6375" x2="-75.0061" y2="29.6375">
			<stop  offset="0" style="stop-color:#C8C8C8"/>
			<stop  offset="1" style="stop-color:#FFFFFF"/>
		</linearGradient>
		<path fill="url(#SVGID_19_)" d="M-79.744,31.33L-79.744,31.33c-0.077,0-0.121,0-0.121,0h-4.173c-0.452,0-0.628-0.652-0.658-0.783
			l-0.004-0.013c-0.075-0.424-0.223-1.45,0.045-1.812c0.267-0.361,1.247-0.613,1.542-0.681l0.023-0.005l0.024-0.001
			c0.029-0.001,2.952-0.09,5.047-0.09c1.896,0,2.098,0.073,2.185,0.104c0.665,0.242,0.795,0.709,0.809,0.761l0.02,0.082
			l-0.035,0.078c-0.021,0.048-0.545,1.209-1.284,1.792C-76.542,30.934-77.307,31.33-79.744,31.33z M-84.027,30.839h4.166
			c0.004,0,0.044,0,0.116,0c1.867,0,2.845-0.249,3.114-0.462c0.53-0.42,0.96-1.237,1.096-1.515c-0.052-0.09-0.179-0.246-0.468-0.351
			c-0.051-0.018-0.349-0.076-2.017-0.076c-1.984,0-4.719,0.081-5.007,0.089c-0.517,0.124-1.129,0.346-1.234,0.489
			c-0.09,0.125-0.069,0.79,0.043,1.425C-84.175,30.611-84.083,30.801-84.027,30.839z"/>
	</g>
	<g>
		<path fill="#787366" d="M-96.051,28.868c0,0,0.093-0.384,0.653-0.588c0.56-0.203,7.139,0,7.139,0s1.168,0.272,1.4,0.588
			c0.234,0.316,0,1.623,0,1.623s-0.14,0.594-0.42,0.594c-0.279,0-4.176,0-4.176,0s-2.684,0.039-3.384-0.516
			C-95.538,30.016-96.051,28.868-96.051,28.868z"/>
		
			<linearGradient id="SVGID_20_" gradientUnits="userSpaceOnUse" x1="-1761.3362" y1="29.6375" x2="-1751.5334" y2="29.6375" gradientTransform="matrix(-1 0 0 1 -1847.8433 0)">
			<stop  offset="0" style="stop-color:#C8C8C8"/>
			<stop  offset="1" style="stop-color:#FFFFFF"/>
		</linearGradient>
		<path fill="url(#SVGID_20_)" d="M-91.572,31.33c-0.812,0-2.771-0.055-3.419-0.568c-0.739-0.583-1.264-1.744-1.286-1.792
			l-0.033-0.078l0.02-0.082c0.012-0.052,0.145-0.519,0.809-0.761c0.087-0.031,0.289-0.104,2.184-0.104
			c2.095,0,5.018,0.089,5.047,0.09l0.024,0.001l0.023,0.005c0.295,0.068,1.276,0.32,1.543,0.681c0.267,0.362,0.12,1.388,0.045,1.812
			l-0.004,0.013c-0.03,0.13-0.207,0.783-0.659,0.783h-4.176C-91.455,31.33-91.498,31.33-91.572,31.33z M-95.781,28.863
			c0.135,0.277,0.564,1.094,1.097,1.515c0.269,0.213,1.245,0.462,3.113,0.462c0.071,0,0.112,0,0.112,0h4.17
			c0.058-0.038,0.149-0.232,0.19-0.398c0.112-0.636,0.133-1.302,0.042-1.426c-0.104-0.143-0.718-0.367-1.233-0.489
			c-0.288-0.009-3.022-0.089-5.008-0.089c-1.667,0-1.965,0.058-2.017,0.076C-95.604,28.616-95.73,28.773-95.781,28.863z"/>
	</g>
</g>
</svg>
