<?xml version="1.0" encoding="utf-8"?>
<!-- Generator: Adobe Illustrator 16.0.0, SVG Export Plug-In . SVG Version: 6.00 Build 0)  -->
<!DOCTYPE svg PUBLIC "-//W3C//DTD SVG 1.1//EN" "http://www.w3.org/Graphics/SVG/1.1/DTD/svg11.dtd">
<svg version="1.1" id="Layer_1" xmlns="http://www.w3.org/2000/svg" xmlns:xlink="http://www.w3.org/1999/xlink" x="0px" y="0px"
	 width="110.5px" height="115.779px" viewBox="-139.198 -31.22 110.5 115.779"
	 enable-background="new -139.198 -31.22 110.5 115.779" xml:space="preserve">
<g>
	<path opacity="0.8" fill="#2D2D2D" d="M-72.003,29.081c-0.379-0.151-4.921-0.265-4.921-0.265l0.53-1.704
		c0,0,0.757-0.076,0.946-0.417c0.189-0.341,0-0.946,0-0.946s-5.073-1.628-6.965-1.78c-1.893-0.151-7.76-0.151-9.652,0
		c-1.893,0.151-6.965,1.78-6.965,1.78s-0.189,0.605,0,0.946c0.189,0.34,0.946,0.417,0.946,0.417l0.53,1.704
		c0,0-4.542,0.113-4.921,0.265s0.908,0.341,0.908,0.341h8.555l5.773-0.151l5.772,0.151h8.555
		C-72.912,29.422-71.625,29.232-72.003,29.081z"/>
	<g>
		<path fill="#777266" d="M-44.125,35.403c-0.644-0.984-4.088-3.407-4.088-3.407l2.953-0.227c0,0,1.666-0.303,2.158-0.795
			s1.552-2.726,0.909-3.066c-0.644-0.341-4.884-1.855-6.019-1.703c-1.135,0.151-0.909,0.189-1.704,0.908
			c-0.794,0.719-1.249,2.499-1.249,2.499l-2.044-0.454c0,0-7.761-10.6-9.199-11.356c-1.438-0.757-1.666-1.174-2.385-1.25
			c-0.719-0.076-1.529,0.341-1.529,0.341s-15.425-1.73-20.015-1.962c-0.092-0.023-0.302-0.03-0.61-0.023
			c-0.308-0.006-0.518,0-0.61,0.023c-4.59,0.232-20.015,1.962-20.015,1.962s-0.81-0.417-1.529-0.341
			c-0.719,0.076-0.946,0.492-2.385,1.25c-1.438,0.757-9.199,11.356-9.199,11.356l-2.044,0.454c0,0-0.455-1.779-1.25-2.499
			c-0.794-0.719-0.568-0.757-1.703-0.908c-1.136-0.152-5.375,1.362-6.019,1.703c-0.643,0.341,0.416,2.574,0.909,3.066
			c0.492,0.492,2.158,0.795,2.158,0.795l2.953,0.227c0,0-3.445,2.422-4.088,3.407c-0.644,0.984-0.909,4.088-0.909,4.088
			s-0.587,15.17-0.454,16.013c0.133,0.841,1.363,8.63,1.363,8.63s0.567,5.11,0.908,5.564c0.341,0.455,1.136,0.682,1.136,0.682h8.177
			c0,0,0.34,0.455,0.795-0.682c0.455-1.136,0.719-1.136,0.909-2.271c0.189-1.136,0-2.271,0-2.271v-0.681
			c0,0,6.813-0.531,7.836-0.909c1.022-0.379,1.363-1.136,1.363-1.136l0.908,0.795l20.127,0.319v0.021l0.664-0.011l0.664,0.011
			v-0.021l20.127-0.319l0.909-0.795c0,0,0.34,0.757,1.363,1.136c1.022,0.378,7.836,0.909,7.836,0.909v0.681c0,0-0.189,1.136,0,2.271
			c0.189,1.135,0.454,1.135,0.909,2.271c0.454,1.137,0.795,0.682,0.795,0.682h8.176c0,0,0.795-0.227,1.136-0.682
			c0.341-0.454,0.909-5.564,0.909-5.564s1.23-7.789,1.363-8.63c0.133-0.843-0.454-16.013-0.454-16.013S-43.481,36.387-44.125,35.403
			z M-55.944,30.028c-0.537,0.036-28.055-0.471-31.003-0.525c-2.948,0.054-30.466,0.561-31.003,0.525
			c-0.568-0.038,7.609-10.789,7.609-10.789s2.986-2.328,23.395-2.272c20.408-0.055,23.395,2.272,23.395,2.272
			S-55.376,29.99-55.944,30.028z"/>
		<linearGradient id="SVGID_1_" gradientUnits="userSpaceOnUse" x1="-132.3557" y1="42.6868" x2="-41.5383" y2="42.6868">
			<stop  offset="0" style="stop-color:#C8C8C8"/>
			<stop  offset="1" style="stop-color:#FFFFFF"/>
		</linearGradient>
		<path fill="url(#SVGID_1_)" d="M-54.528,70.924c-0.548,0-0.853-0.603-1.035-1.057c-0.164-0.409-0.301-0.66-0.421-0.883
			c-0.214-0.394-0.384-0.705-0.514-1.482c-0.182-1.089-0.039-2.161-0.006-2.381v-0.227c-1.59-0.129-6.604-0.556-7.54-0.902
			c-0.626-0.231-1.038-0.591-1.289-0.885l-0.651,0.57l-0.167,0.002l-19.68,0.312v0.036l-1.118-0.019l-1.118,0.019v-0.036
			l-19.847-0.314l-0.65-0.57c-0.251,0.294-0.663,0.653-1.29,0.885c-0.935,0.347-5.949,0.773-7.539,0.902v0.227
			c0.033,0.22,0.176,1.292-0.006,2.381c-0.129,0.777-0.299,1.089-0.513,1.482c-0.121,0.223-0.258,0.474-0.421,0.883
			c-0.182,0.454-0.486,1.057-1.035,1.057c-0.129,0-0.243-0.036-0.336-0.09h-8.086l-0.061-0.017
			c-0.097-0.028-0.954-0.286-1.375-0.846c-0.36-0.481-0.778-3.821-0.995-5.777l-1.361-8.62c-0.136-0.861,0.389-14.543,0.449-16.101
			l0.001-0.021c0.028-0.329,0.295-3.249,0.981-4.298c0.461-0.705,2.1-1.984,3.2-2.8l-1.765-0.138
			c-0.301-0.055-1.833-0.357-2.397-0.92c-0.44-0.441-1.372-2.178-1.228-3.137c0.058-0.382,0.265-0.565,0.428-0.652
			c0.633-0.335,4.588-1.767,6.05-1.767c0.087,0,0.169,0.005,0.242,0.015c0.975,0.13,1.119,0.211,1.573,0.663
			c0.096,0.095,0.214,0.214,0.375,0.359c0.644,0.583,1.065,1.686,1.261,2.3l1.462-0.325c1.167-1.59,7.814-10.595,9.252-11.352
			c0.563-0.296,0.931-0.537,1.227-0.73c0.456-0.297,0.785-0.513,1.322-0.569c0.074-0.008,0.151-0.012,0.229-0.012
			c0.589,0,1.17,0.226,1.424,0.338c1.491-0.166,15.511-1.723,19.881-1.949c0.136-0.025,0.342-0.032,0.667-0.026
			c0.326-0.006,0.531,0.001,0.667,0.026c4.37,0.226,18.39,1.783,19.88,1.949c0.253-0.112,0.835-0.338,1.424-0.338
			c0.078,0,0.155,0.004,0.229,0.012c0.537,0.056,0.866,0.271,1.321,0.569c0.296,0.193,0.665,0.434,1.228,0.73
			c1.438,0.757,8.086,9.762,9.252,11.352l1.462,0.325c0.196-0.614,0.617-1.717,1.261-2.3c0.161-0.145,0.28-0.264,0.375-0.359
			c0.454-0.451,0.598-0.533,1.573-0.663c0.074-0.01,0.153-0.015,0.242-0.015c1.462,0,5.417,1.432,6.05,1.767
			c0.164,0.087,0.371,0.27,0.428,0.652c0.144,0.959-0.788,2.696-1.228,3.137c-0.564,0.563-2.096,0.866-2.397,0.92l-0.046,0.006
			l-1.719,0.132c1.1,0.816,2.739,2.096,3.2,2.8c0.686,1.05,0.953,3.969,0.98,4.298l0.001,0.021
			c0.061,1.557,0.585,15.239,0.449,16.101l-1.361,8.62c-0.217,1.956-0.635,5.296-0.995,5.777c-0.421,0.56-1.278,0.817-1.375,0.846
			l-0.061,0.017h-8.086C-54.285,70.888-54.399,70.924-54.528,70.924z M-54.524,69.926h8.287c0.254-0.083,0.658-0.271,0.831-0.487
			c0.191-0.393,0.571-3.019,0.83-5.354l0.003-0.021l1.363-8.631c0.09-0.63-0.225-9.857-0.459-15.914
			c-0.073-0.841-0.361-3.143-0.835-3.868c-0.489-0.748-3.031-2.624-3.969-3.284l-1.035-0.728l4.19-0.322
			c0.635-0.119,1.629-0.399,1.895-0.665c0.407-0.407,1.083-1.96,0.974-2.366c-0.679-0.33-4.365-1.639-5.582-1.639
			c-0.048,0-0.088,0.002-0.122,0.007c-0.743,0.099-0.743,0.099-1.053,0.407c-0.102,0.102-0.229,0.229-0.406,0.388
			c-0.567,0.513-0.997,1.815-1.114,2.274l-0.109,0.426l-2.64-0.587l-0.101-0.138c-2.977-4.065-8.063-10.707-9.043-11.223
			c-0.601-0.316-1.006-0.581-1.301-0.773c-0.413-0.27-0.601-0.393-0.92-0.426c-0.042-0.005-0.087-0.007-0.134-0.007
			c-0.545,0-1.134,0.297-1.14,0.3l-0.122,0.062l-0.136-0.014c-0.154-0.018-15.464-1.731-19.987-1.96l-0.044-0.002l-0.042-0.01
			c-0.003,0-0.069-0.013-0.3-0.013c-0.059,0-0.123,0.001-0.191,0.002l-0.009,0l-0.009,0c-0.069-0.001-0.133-0.002-0.191-0.002
			c-0.231,0-0.297,0.012-0.304,0.014l-0.042,0.01l-0.04,0.001c-4.523,0.229-19.833,1.943-19.988,1.96l-0.136,0.015l-0.122-0.063
			c-0.005-0.002-0.594-0.299-1.139-0.299c-0.046,0-0.092,0.002-0.134,0.006c-0.319,0.034-0.508,0.157-0.92,0.426
			c-0.295,0.193-0.7,0.457-1.301,0.773c-0.98,0.516-6.067,7.158-9.043,11.223l-0.101,0.138l-2.641,0.587l-0.109-0.426
			c-0.118-0.458-0.547-1.761-1.114-2.274c-0.177-0.16-0.304-0.287-0.406-0.388c-0.31-0.308-0.31-0.308-1.052-0.407
			c-0.033-0.005-0.074-0.007-0.122-0.007c-1.217,0-4.903,1.31-5.582,1.639c-0.108,0.405,0.566,1.958,0.974,2.366
			c0.264,0.264,1.277,0.55,1.896,0.665l4.19,0.322l-1.035,0.728c-0.938,0.66-3.481,2.537-3.969,3.284
			c-0.475,0.726-0.763,3.027-0.835,3.868c-0.234,6.056-0.55,15.284-0.459,15.915l1.366,8.65c0.259,2.336,0.639,4.962,0.83,5.354
			c0.179,0.226,0.602,0.412,0.831,0.487h8.287c0.049-0.076,0.116-0.199,0.195-0.396c0.184-0.459,0.341-0.748,0.467-0.979
			c0.193-0.356,0.311-0.571,0.415-1.198c0.174-1.043,0.002-2.111,0-2.122l-0.006-0.036v-1.14l0.418-0.033
			c2.714-0.211,7.007-0.62,7.714-0.881c0.815-0.302,1.097-0.876,1.108-0.9l0.258-0.542l0.454,0.391l0.783,0.686l20.408,0.324v0.006
			l0.209-0.003l0.209,0.003v-0.006l20.408-0.324l1.245-1.09l0.252,0.56c0.009,0.021,0.291,0.595,1.106,0.896
			c0.707,0.262,5,0.67,7.713,0.881l0.419,0.033v1.14l-0.006,0.036c-0.002,0.011-0.174,1.079,0,2.122
			c0.104,0.627,0.221,0.842,0.415,1.198c0.126,0.231,0.284,0.521,0.467,0.979C-54.64,69.727-54.573,69.85-54.524,69.926z
			 M-117.804,30.483c-0.095,0-0.154-0.001-0.177-0.002c-0.178-0.012-0.334-0.12-0.407-0.281c-0.15-0.331-0.241-0.53,3.785-6.016
			c1.915-2.608,3.88-5.194,3.899-5.22l0.036-0.047l0.046-0.037c0.083-0.065,0.911-0.654,4.129-1.225
			c4.212-0.748,10.724-1.144,18.832-1.144c0.236,0,0.474,0,0.715,0.001c0.237,0,0.477-0.001,0.712-0.001
			c8.109,0,14.621,0.396,18.833,1.144c3.217,0.572,4.044,1.16,4.127,1.226l0.046,0.036l0.036,0.047c0.02,0.026,1.985,2.611,3.9,5.22
			c4.026,5.486,3.936,5.686,3.785,6.016c-0.073,0.162-0.229,0.27-0.407,0.281c-0.022,0.001-0.082,0.002-0.178,0.002
			c-2.256,0-27.893-0.472-30.855-0.527C-89.909,30.011-115.544,30.483-117.804,30.483
			C-117.803,30.483-117.803,30.483-117.804,30.483z M-86.947,29.048l0.008,0c2.771,0.051,26.018,0.479,30.321,0.523
			c-1.022-1.677-4.782-6.75-7.25-9.996c-0.452-0.271-4.342-2.205-23.078-2.154c-0.243-0.001-0.479-0.001-0.715-0.001
			c-18.125,0-21.92,1.888-22.367,2.155c-2.467,3.246-6.227,8.319-7.249,9.996c4.305-0.044,27.551-0.473,30.321-0.523L-86.947,29.048
			z"/>
	</g>
	<linearGradient id="SVGID_2_" gradientUnits="userSpaceOnUse" x1="-127.6628" y1="44.8284" x2="-107.3459" y2="44.8284">
		<stop  offset="0" style="stop-color:#FFFFFF"/>
		<stop  offset="1" style="stop-color:#C8C8C8"/>
	</linearGradient>
	<path fill="url(#SVGID_2_)" d="M-127.561,40.74c0,0-0.681,3.18,1.477,4.656s4.542,1.703,4.542,1.703l14.196,1.817
		c0,0-2.044-3.861-2.726-4.089c-0.682-0.227,1.476-1.477,1.476-1.477l-6.132-1.249L-127.561,40.74z"/>
	<linearGradient id="SVGID_3_" gradientUnits="userSpaceOnUse" x1="-66.6418" y1="44.8284" x2="-46.3254" y2="44.8284">
		<stop  offset="0" style="stop-color:#FFFFFF"/>
		<stop  offset="1" style="stop-color:#C8C8C8"/>
	</linearGradient>
	<path fill="url(#SVGID_3_)" d="M-46.427,40.74c0,0,0.682,3.18-1.476,4.656s-4.542,1.703-4.542,1.703l-14.196,1.817
		c0,0,2.044-3.861,2.726-4.089c0.682-0.227-1.476-1.477-1.476-1.477l6.132-1.249L-46.427,40.74z"/>
	<g>
		<path fill="#787366" d="M-110.35,44.26c0,0,0.227-1.103,1.59-1.687s17.375,0,17.375,0s2.839,0.778,3.407,1.687
			c0.568,0.909,0,4.657,0,4.657S-88.319,50.62-89,50.62c-0.682,0-10.164,0-10.164,0s-6.53,0.113-8.233-1.477
			S-110.35,44.26-110.35,44.26z"/>
		<linearGradient id="SVGID_4_" gradientUnits="userSpaceOnUse" x1="-110.5857" y1="46.468" x2="-87.4978" y2="46.468">
			<stop  offset="0" style="stop-color:#FFFFFF"/>
			<stop  offset="1" style="stop-color:#C8C8C8"/>
		</linearGradient>
		<path fill="url(#SVGID_4_)" d="M-99.448,50.849c-1.514,0-6.574-0.11-8.104-1.539c-1.722-1.607-2.958-4.832-3.01-4.969
			l-0.023-0.062l0.013-0.064c0.01-0.05,0.268-1.227,1.723-1.85c0.278-0.12,1.12-0.278,5.2-0.278c5.093,0,12.202,0.257,12.273,0.26
			l0.026,0.001l0.025,0.006c0.299,0.083,2.942,0.83,3.539,1.787c0.595,0.951,0.091,4.418,0.032,4.811
			c-0.065,0.325-0.421,1.896-1.247,1.896h-10.164C-99.165,50.848-99.267,50.849-99.448,50.849z M-110.112,44.246
			c0.188,0.473,1.356,3.319,2.869,4.731c1.12,1.045,4.76,1.417,7.794,1.417c0.179,0,0.279-0.002,0.28-0.002H-89
			c0.322,0,0.671-0.883,0.799-1.521c0.152-1.009,0.459-3.805,0.03-4.491c-0.423-0.676-2.464-1.363-3.25-1.582
			c-0.482-0.017-7.302-0.258-12.23-0.258c-3.879,0-4.811,0.151-5.021,0.241C-109.737,43.239-110.043,44.022-110.112,44.246z"/>
	</g>
	<g>
		<path fill="#787366" d="M-63.625,44.26c0,0-0.227-1.103-1.59-1.687s-17.375,0-17.375,0s-2.839,0.778-3.407,1.687
			c-0.568,0.909,0,4.657,0,4.657s0.341,1.703,1.022,1.703c0.682,0,10.164,0,10.164,0s6.53,0.113,8.233-1.477
			S-63.625,44.26-63.625,44.26z"/>
		<linearGradient id="SVGID_5_" gradientUnits="userSpaceOnUse" x1="-86.4768" y1="46.468" x2="-63.3889" y2="46.468">
			<stop  offset="0" style="stop-color:#C8C8C8"/>
			<stop  offset="1" style="stop-color:#FFFFFF"/>
		</linearGradient>
		<path fill="url(#SVGID_5_)" d="M-74.527,50.849c-0.184,0-0.288-0.001-0.288-0.001h-10.16c-0.384,0-0.713-0.335-0.978-0.995
			c-0.176-0.44-0.264-0.873-0.267-0.892c-0.061-0.402-0.565-3.869,0.03-4.82c0.597-0.957,3.24-1.704,3.539-1.787l0.025-0.006
			l0.027-0.001c0.071-0.002,7.18-0.26,12.273-0.26c4.08,0,4.921,0.159,5.2,0.278c1.455,0.624,1.713,1.8,1.723,1.85l0.013,0.064
			l-0.023,0.062c-0.052,0.137-1.288,3.361-3.01,4.969C-67.952,50.739-73.012,50.849-74.527,50.849z M-82.555,42.799
			c-0.786,0.219-2.827,0.906-3.249,1.582c-0.146,0.232-0.424,1.496,0.032,4.502c0.126,0.627,0.475,1.51,0.797,1.51h10.164
			c0.005,0,0.105,0.002,0.284,0.002c3.035,0,6.675-0.372,7.795-1.417c1.513-1.412,2.682-4.259,2.869-4.731
			c-0.068-0.223-0.374-1.006-1.441-1.464c-0.21-0.09-1.142-0.241-5.021-0.241C-75.253,42.541-82.073,42.782-82.555,42.799z"/>
	</g>
	<linearGradient id="SVGID_6_" gradientUnits="userSpaceOnUse" x1="-89.3889" y1="40.5701" x2="-84.7327" y2="40.5701">
		<stop  offset="0" style="stop-color:#FFFFFF"/>
		<stop  offset="1" style="stop-color:#C8C8C8"/>
	</linearGradient>
	<ellipse fill="url(#SVGID_6_)" cx="-87.061" cy="40.57" rx="2.328" ry="1.116"/>
	<path opacity="0.6" fill="#C1BAAC" enable-background="new    " d="M-50.706,31.05c-0.151-0.189-1.969-0.568-1.969-0.568
		l-34.305-0.527v-0.003l-0.081,0.001l-0.081-0.001v0.003l-34.305,0.527c0,0-1.817,0.378-1.968,0.568
		c-0.151,0.189,0.454,1.893,0.454,1.893l2.46,0.228l7.344,0.945c0,0,6.291,0.482,7.874,0.379c2.309-0.151,2.536-0.738,3.445-0.927
		c0.908-0.19,1.552-0.095,1.552-0.095l1.249,0.644l4.845,2.802l7.05,0.259v0.006l0.081-0.003l0.081,0.003v-0.006l7.049-0.259
		l4.846-2.802l1.249-0.644c0,0,0.644-0.095,1.552,0.095c0.908,0.189,1.135,0.776,3.444,0.927c1.583,0.104,7.874-0.379,7.874-0.379
		l7.344-0.945l2.461-0.228C-51.16,32.942-50.555,31.239-50.706,31.05z"/>
	<linearGradient id="SVGID_7_" gradientUnits="userSpaceOnUse" x1="-100.5266" y1="31.4475" x2="-73.7253" y2="31.4475">
		<stop  offset="0" style="stop-color:#FFFFFF"/>
		<stop  offset="1" style="stop-color:#C8C8C8"/>
	</linearGradient>
	<path fill="url(#SVGID_7_)" d="M-100.527,30.747l26.801-0.284c0,0-3.123,2.044-4.713,1.931c-1.59-0.114-16.921,0.123-17.773,0.004
		S-100.527,30.747-100.527,30.747z"/>
	<path fill="#2D2D2D" d="M-115.276,42.048c-5.117-7.896-5.441-10.61-5.179-11.526c0.091-0.316,0.246-0.396,0.263-0.405l0.049,0.102
		c-0.001,0.001-0.132,0.07-0.208,0.353c-0.244,0.907,0.104,3.597,5.17,11.414L-115.276,42.048z"/>
	<path fill="#2D2D2D" d="M-58.485,42.048l-0.095-0.062c1.76-2.715,5.786-9.265,5.165-11.433c-0.077-0.268-0.2-0.333-0.202-0.333
		l0.048-0.103c0.017,0.008,0.172,0.088,0.263,0.405C-53.043,31.437-53.367,34.152-58.485,42.048z"/>
	<linearGradient id="SVGID_8_" gradientUnits="userSpaceOnUse" x1="-87.8645" y1="46.6877" x2="-86.1609" y2="46.6877">
		<stop  offset="0" style="stop-color:#FFFFFF"/>
		<stop  offset="1" style="stop-color:#C8C8C8"/>
	</linearGradient>
	<rect x="-87.865" y="44.133" fill="url(#SVGID_8_)" width="1.704" height="5.11"/>
	<path opacity="0.6" fill="#C1BAAC" enable-background="new    " d="M-52.168,46.688v0.455l-3.748,1.968l-0.605,0.644
		c0,0-0.098,1.571,0,1.855c0.098,0.283,4.656,10.637,4.656,10.637s0.492,1.136,1.855,1.136s5.905,0,5.905,0v0.757l-8.593-0.378
		l-11.016-0.492c0,0-1.666-0.189-1.438-1.741c0.228-1.553-0.378,0.118,1.514-4.997c1.893-5.115,5.073-6.7,5.073-6.7L-52.168,46.688z
		"/>
	<path opacity="0.6" fill="#C1BAAC" enable-background="new    " d="M-121.699,46.99v0.454l3.748,1.969l0.605,0.644
		c0,0,0.098,1.571,0,1.855c-0.098,0.283-4.656,10.637-4.656,10.637s-0.492,1.136-1.855,1.136c-1.362,0-5.905,0-5.905,0v0.757
		l8.593-0.378l11.016-0.493c0,0,1.666-0.189,1.438-1.741s0.378,0.118-1.514-4.996c-1.893-5.115-5.073-6.701-5.073-6.701
		L-121.699,46.99z"/>
	<g>
		<linearGradient id="SVGID_9_" gradientUnits="userSpaceOnUse" x1="-117.9304" y1="23.4202" x2="-55.8674" y2="23.4202">
			<stop  offset="0" style="stop-color:#C8C8C8;stop-opacity:0.8"/>
			<stop  offset="1" style="stop-color:#FFFFFF;stop-opacity:0.7"/>
		</linearGradient>
		<path fill="url(#SVGID_9_)" d="M-55.896,29.95c-0.538,0.036-28.055-0.471-31.003-0.525c-2.948,0.055-30.466,0.561-31.003,0.525
			c-0.568-0.038,7.609-10.789,7.609-10.789s2.986-2.327,23.394-2.271c20.409-0.056,23.395,2.271,23.395,2.271
			S-55.328,29.912-55.896,29.95z"/>
		<path fill="#777266" d="M-56.042,30.463c-2.158,0-26.059-0.438-30.857-0.527c-4.797,0.088-28.697,0.527-30.857,0.527
			c-0.097,0-0.158-0.001-0.18-0.003c-0.199-0.013-0.374-0.133-0.456-0.314c-0.165-0.362-0.255-0.561,3.791-6.073
			c1.915-2.609,3.88-5.195,3.9-5.221l0.04-0.053l0.053-0.041c0.125-0.097,3.283-2.381,22.996-2.381c0.236,0,0.473,0,0.713,0.001
			c0.237-0.001,0.476-0.001,0.711-0.001c8.112,0,14.628,0.396,18.843,1.145c3.231,0.574,4.068,1.17,4.153,1.236l0.052,0.041
			l0.04,0.053c0.02,0.026,1.986,2.611,3.9,5.221c4.046,5.513,3.956,5.711,3.791,6.073c-0.082,0.181-0.257,0.301-0.455,0.314
			C-55.885,30.461-55.946,30.463-56.042,30.463z M-109.94,19.541c-2.979,3.919-6.187,8.292-7.185,9.895
			c4.381-0.048,25.735-0.439,30.216-0.522h0.009h0.01c4.481,0.083,25.836,0.474,30.216,0.522c-0.998-1.603-4.205-5.976-7.184-9.895
			c-0.479-0.282-4.424-2.192-23.04-2.141c-0.243,0-0.478-0.001-0.713-0.001C-105.614,17.399-109.466,19.263-109.94,19.541z"/>
	</g>
	<g>
		<path fill="#787366" d="M-65.381,44.869c0,0-0.194-0.799-1.358-1.223c-1.164-0.422-14.84,0-14.84,0s-2.425,0.564-2.91,1.223
			c-0.485,0.658,0,3.372,0,3.372s0.291,1.234,0.873,1.234s8.681,0,8.681,0s5.577,0.082,7.032-1.069
			C-66.448,47.255-65.381,44.869-65.381,44.869z"/>
		<linearGradient id="SVGID_10_" gradientUnits="userSpaceOnUse" x1="-85.219" y1="46.467" x2="-64.843" y2="46.467">
			<stop  offset="0" style="stop-color:#C8C8C8"/>
			<stop  offset="1" style="stop-color:#FFFFFF"/>
		</linearGradient>
		<path fill="url(#SVGID_10_)" d="M-74.692,49.988C-74.693,49.988-74.692,49.988-74.692,49.988c-0.16,0-0.25-0.001-0.25-0.001
			h-8.673c-0.939,0-1.306-1.355-1.37-1.628l-0.006-0.027c-0.157-0.881-0.463-3.012,0.092-3.765c0.554-0.752,2.594-1.275,3.206-1.417
			l0.049-0.012l0.05-0.001c0.061-0.002,6.137-0.189,10.491-0.189c3.938,0,4.359,0.154,4.54,0.22c1.381,0.502,1.653,1.473,1.68,1.581
			l0.042,0.17l-0.071,0.16c-0.046,0.102-1.136,2.514-2.671,3.729C-68.034,49.161-69.625,49.988-74.692,49.988z M-83.592,48.964
			h8.657c0.009,0,0.094,0.002,0.243,0.002c3.881,0,5.913-0.518,6.472-0.961c1.105-0.874,1.997-2.571,2.279-3.147
			c-0.107-0.187-0.372-0.512-0.973-0.73c-0.106-0.036-0.725-0.156-4.19-0.156c-4.126,0-9.81,0.168-10.408,0.186
			c-1.073,0.255-2.346,0.719-2.565,1.016c-0.184,0.256-0.142,1.665,0.089,2.964C-83.902,48.489-83.711,48.885-83.592,48.964z"/>
	</g>
	<g>
		<path fill="#787366" d="M-108.586,44.869c0,0,0.194-0.799,1.358-1.223c1.164-0.422,14.84,0,14.84,0s2.425,0.564,2.91,1.223
			c0.485,0.658,0,3.372,0,3.372s-0.291,1.234-0.873,1.234s-8.681,0-8.681,0s-5.577,0.082-7.032-1.069
			C-107.519,47.255-108.586,44.869-108.586,44.869z"/>
		
			<linearGradient id="SVGID_11_" gradientUnits="userSpaceOnUse" x1="-1759.0955" y1="46.467" x2="-1738.72" y2="46.467" gradientTransform="matrix(-1 0 0 1 -1847.8433 0)">
			<stop  offset="0" style="stop-color:#C8C8C8"/>
			<stop  offset="1" style="stop-color:#FFFFFF"/>
		</linearGradient>
		<path fill="url(#SVGID_11_)" d="M-99.275,49.988c-1.688,0-5.76-0.115-7.106-1.181c-1.536-1.215-2.625-3.627-2.671-3.729
			l-0.071-0.16l0.041-0.17c0.026-0.108,0.298-1.079,1.68-1.581c0.18-0.065,0.602-0.22,4.54-0.22c4.354,0,10.43,0.188,10.491,0.189
			l0.05,0.001l0.049,0.012c0.612,0.142,2.652,0.665,3.206,1.417c0.556,0.753,0.249,2.884,0.092,3.765l-0.006,0.027
			c-0.064,0.272-0.431,1.628-1.37,1.628h-8.681C-99.032,49.987-99.121,49.988-99.275,49.988z M-108.026,44.858
			c0.282,0.576,1.174,2.273,2.279,3.147c0.56,0.443,2.591,0.961,6.472,0.961c0.149,0,0.233-0.002,0.235-0.002h8.665
			c0.119-0.078,0.31-0.475,0.396-0.828c0.234-1.321,0.276-2.704,0.089-2.964c-0.22-0.298-1.493-0.762-2.565-1.016
			c-0.598-0.018-6.282-0.186-10.408-0.186c-3.465,0-4.083,0.12-4.191,0.156C-107.654,44.346-107.918,44.671-108.026,44.858z"/>
	</g>
	<g>
		<g>
			<g>
				<g>
					<g>
						<path fill="#FFFFFF" d="M-51.696,22.361h-3.086c-1.916,0-3.473-1.556-3.473-3.471v-3.455
							c-1.146-0.345-2.249-0.805-3.289-1.371l-2.493,2.493c-0.659,0.659-1.535,1.021-2.467,1.021s-1.81-0.363-2.468-1.021
							l-2.195-2.198c-0.659-0.658-1.021-1.534-1.021-2.466c0-0.932,0.362-1.81,1.021-2.467l2.543-2.543
							c-0.498-0.948-0.91-1.97-1.231-3.043h-3.456c-1.916,0-3.473-1.558-3.473-3.474v-3.087c0-1.913,1.557-3.473,3.473-3.473h3.457
							c0.333-1.107,0.769-2.169,1.302-3.167l-2.611-2.612c-0.66-0.66-1.023-1.536-1.023-2.469s0.363-1.808,1.023-2.467l2.194-2.195
							c0.659-0.66,1.534-1.023,2.467-1.023c0.933,0,1.81,0.363,2.467,1.023l2.615,2.614c0.993-0.532,2.056-0.968,3.166-1.303v-3.455
							c0-1.915,1.556-3.475,3.472-3.475h3.088c1.916,0,3.473,1.561,3.473,3.475v3.454c1.078,0.324,2.097,0.736,3.044,1.23
							l2.543-2.543c0.659-0.659,1.534-1.021,2.466-1.021c0.932,0,1.809,0.363,2.466,1.021l2.196,2.196
							c0.66,0.66,1.021,1.535,1.021,2.469s-0.363,1.809-1.021,2.467l-2.491,2.491c0.566,1.039,1.028,2.143,1.372,3.289h3.454
							c1.916,0,3.473,1.56,3.473,3.473v3.087c0,1.916-1.557,3.474-3.473,3.474h-3.454c-0.336,1.11-0.771,2.171-1.303,3.167
							l2.42,2.42c0.657,0.659,1.021,1.535,1.021,2.467c0,0.932-0.364,1.81-1.021,2.465l-2.196,2.198
							c-0.659,0.659-1.535,1.022-2.468,1.022c-0.931,0-1.807-0.364-2.464-1.022l-2.421-2.422c-0.996,0.532-2.057,0.968-3.167,1.304
							v3.457C-48.221,20.804-49.779,22.361-51.696,22.361z M-61.675,13.102l0.256,0.146c1.143,0.651,2.374,1.165,3.653,1.527
							l0.282,0.079v4.036c0,1.49,1.212,2.699,2.702,2.699h3.088c1.491,0,2.7-1.21,2.7-2.699v-4.036l0.282-0.08
							c1.25-0.354,2.441-0.846,3.538-1.456l0.255-0.142l2.83,2.831c1.027,1.027,2.815,1.027,3.842,0l2.196-2.197
							c0.513-0.513,0.796-1.195,0.796-1.921c0-0.727-0.283-1.409-0.796-1.923l-2.83-2.83l0.143-0.255
							c0.612-1.1,1.102-2.289,1.455-3.537l0.081-0.281h4.036c1.489,0,2.701-1.21,2.701-2.702v-3.087c0-1.49-1.212-2.701-2.701-2.701
							h-4.036l-0.081-0.279c-0.362-1.285-0.877-2.515-1.525-3.657l-0.148-0.255l2.907-2.906c0.514-0.513,0.797-1.196,0.797-1.922
							s-0.283-1.41-0.797-1.923l-2.195-2.195c-1.026-1.027-2.815-1.027-3.842,0l-2.95,2.948l-0.253-0.138
							c-1.046-0.573-2.199-1.037-3.421-1.383l-0.282-0.077v-4.035c0-1.49-1.21-2.703-2.702-2.703h-3.086
							c-1.491,0-2.702,1.213-2.702,2.703v4.036l-0.282,0.08c-1.249,0.353-2.439,0.843-3.537,1.455l-0.255,0.144l-3.024-3.024
							c-1.025-1.027-2.814-1.027-3.842,0l-2.192,2.195c-0.513,0.513-0.796,1.195-0.796,1.922c0,0.725,0.283,1.409,0.796,1.924
							l3.023,3.023l-0.144,0.254c-0.612,1.1-1.101,2.291-1.455,3.538l-0.081,0.279h-4.034c-1.491,0-2.702,1.213-2.702,2.701v3.087
							c0,1.493,1.21,2.703,2.702,2.703h4.034l0.081,0.281c0.345,1.216,0.81,2.368,1.385,3.42l0.139,0.253l-2.949,2.948
							c-0.512,0.514-0.795,1.195-0.795,1.922c0,0.725,0.283,1.41,0.795,1.922l2.193,2.196c1.027,1.027,2.817,1.027,3.843,0
							L-61.675,13.102z M-53.237,8.468c-5.32,0-9.649-4.326-9.649-9.647c0-5.321,4.329-9.648,9.649-9.648s9.646,4.328,9.646,9.648
							C-43.591,4.142-47.917,8.468-53.237,8.468z M-53.237-10.056c-4.895,0-8.877,3.982-8.877,8.877
							c0,4.894,3.982,8.875,8.877,8.875s8.876-3.981,8.876-8.875C-44.363-6.074-48.343-10.056-53.237-10.056z"/>
						<path fill="#777266" d="M-30.468-2.724c0-1.488-1.213-2.701-2.702-2.701h-4.035l-0.081-0.28
							c-0.363-1.282-0.877-2.514-1.525-3.656l-0.146-0.256l2.907-2.904c0.514-0.514,0.797-1.197,0.797-1.923
							s-0.283-1.41-0.797-1.923l-2.195-2.196c-1.026-1.026-2.815-1.026-3.842,0l-2.95,2.949l-0.253-0.138
							c-1.046-0.573-2.199-1.037-3.421-1.383l-0.282-0.078v-4.035c0-1.49-1.21-2.703-2.702-2.703h-3.086
							c-1.491,0-2.702,1.213-2.702,2.703v4.036l-0.282,0.079c-1.249,0.354-2.439,0.843-3.537,1.455l-0.255,0.144l-3.024-3.023
							c-1.025-1.028-2.814-1.028-3.842,0l-2.192,2.195c-0.513,0.513-0.796,1.195-0.796,1.922c0,0.725,0.283,1.41,0.796,1.923
							l3.023,3.023l-0.144,0.254c-0.612,1.1-1.101,2.291-1.455,3.538l-0.081,0.279h-4.034c-1.491,0-2.702,1.213-2.702,2.701v3.087
							c0,1.493,1.21,2.703,2.702,2.703h4.034l0.081,0.281c0.345,1.217,0.81,2.368,1.385,3.421l0.139,0.253l-2.949,2.948
							c-0.512,0.513-0.795,1.196-0.795,1.922c0,0.724,0.283,1.409,0.795,1.921l2.193,2.196c1.027,1.027,2.817,1.027,3.843,0
							l2.907-2.908l0.255,0.146c1.145,0.651,2.375,1.164,3.654,1.526l0.282,0.08v4.036c0,1.491,1.213,2.701,2.701,2.701h3.087
							c1.491,0,2.702-1.209,2.702-2.701v-4.036l0.282-0.08c1.249-0.355,2.441-0.845,3.538-1.457l0.254-0.141l2.832,2.832
							c1.026,1.026,2.814,1.026,3.843,0l2.193-2.197c0.515-0.513,0.797-1.195,0.797-1.921c0-0.727-0.282-1.408-0.797-1.924
							l-2.83-2.83l0.144-0.254c0.613-1.099,1.102-2.288,1.456-3.537l0.081-0.281h4.035c1.49,0,2.702-1.209,2.702-2.701v-3.087
							L-30.468-2.724L-30.468-2.724z M-53.237,8.468c-5.32,0-9.649-4.326-9.649-9.647c0-5.321,4.329-9.648,9.649-9.648
							s9.646,4.328,9.646,9.648C-43.591,4.142-47.917,8.468-53.237,8.468z"/>
					</g>
				</g>
			</g>
		</g>
		<path opacity="0.6" fill="#C1BAAC" enable-background="new    " d="M-69.271,3.066l0.081,0.281
			c0.09,0.321,0.191,0.635,0.296,0.945c1.695-2.455,3.751-4.726,6.108-6.767c0.635-4.708,4.669-8.353,9.549-8.353
			c1.229,0,2.401,0.242,3.482,0.66c4.391-1.672,9.188-2.758,14.241-3.135c0.165-0.354,0.26-0.74,0.26-1.142
			c0-0.726-0.283-1.41-0.794-1.923l-2.197-2.196c-1.027-1.026-2.814-1.026-3.842,0l-2.951,2.951l-0.254-0.14
			c-1.045-0.573-2.198-1.037-3.42-1.383l-0.285-0.078v-4.036c0-1.489-1.212-2.702-2.7-2.702h-3.088c-1.49,0-2.702,1.213-2.702,2.702
			v4.036l-0.282,0.08c-1.249,0.354-2.439,0.843-3.536,1.455l-0.254,0.144l-3.024-3.024c-1.025-1.027-2.815-1.027-3.842,0
			l-2.193,2.195c-0.512,0.514-0.797,1.196-0.797,1.923c0,0.725,0.285,1.409,0.797,1.923l3.023,3.023l-0.143,0.254
			c-0.612,1.099-1.102,2.29-1.455,3.538l-0.081,0.279h-4.035c-1.491,0-2.703,1.213-2.703,2.701v3.087
			c0,1.493,1.213,2.703,2.703,2.703L-69.271,3.066L-69.271,3.066z"/>
		
			<linearGradient id="SVGID_12_" gradientUnits="userSpaceOnUse" x1="-55.8767" y1="109.7932" x2="-33.8792" y2="109.7932" gradientTransform="matrix(1 0 0 -1 -8.3599 108.6138)">
			<stop  offset="0" style="stop-color:#E6E6E6"/>
			<stop  offset="0.5398" style="stop-color:#FFFFFF"/>
			<stop  offset="1" style="stop-color:#C8C8C8"/>
		</linearGradient>
		<path fill="url(#SVGID_12_)" d="M-53.237-12.178c-6.074,0-11,4.924-11,10.998c0,6.076,4.926,11,11,11s10.998-4.924,10.998-11
			C-42.24-7.254-47.164-12.178-53.237-12.178z M-53.239,4.802c-3.304,0-5.982-2.679-5.982-5.983c0-3.303,2.679-5.981,5.982-5.981
			s5.983,2.678,5.983,5.981C-47.256,2.123-49.936,4.802-53.239,4.802z"/>
	</g>
</g>
</svg>
