<?xml version="1.0" encoding="utf-8"?>
<!-- Generator: Adobe Illustrator 16.0.0, SVG Export Plug-In . SVG Version: 6.00 Build 0)  -->
<!DOCTYPE svg PUBLIC "-//W3C//DTD SVG 1.1//EN" "http://www.w3.org/Graphics/SVG/1.1/DTD/svg11.dtd">
<svg version="1.1" id="Layer_1" xmlns="http://www.w3.org/2000/svg" xmlns:xlink="http://www.w3.org/1999/xlink" x="0px" y="0px"
	 width="110.5px" height="115.779px" viewBox="-139.198 -31.22 110.5 115.779"
	 enable-background="new -139.198 -31.22 110.5 115.779" xml:space="preserve">
<g>
	<path opacity="0.8" fill="#2D2D2D" d="M-66.932,28.031c-0.392-0.156-5.085-0.273-5.085-0.273l0.547-1.76
		c0,0,0.783-0.079,0.978-0.431c0.196-0.353,0-0.978,0-0.978s-5.242-1.682-7.198-1.838c-1.956-0.156-8.019-0.156-9.975,0
		c-1.956,0.157-7.198,1.838-7.198,1.838s-0.195,0.625,0,0.978c0.196,0.353,0.978,0.431,0.978,0.431l0.548,1.76
		c0,0-4.694,0.117-5.085,0.273c-0.391,0.157,0.938,0.353,0.938,0.353h8.841l5.966-0.157l5.965,0.157h8.84
		C-67.871,28.384-66.541,28.188-66.932,28.031z"/>
	<g>
		<path fill="#777266" d="M-38.123,34.564c-0.666-1.017-4.225-3.52-4.225-3.52l3.051-0.235c0,0,1.722-0.312,2.23-0.822
			c0.508-0.508,1.604-2.816,0.939-3.168c-0.665-0.352-5.046-1.917-6.22-1.76c-1.174,0.156-0.939,0.196-1.761,0.939
			c-0.821,0.743-1.291,2.581-1.291,2.581l-2.113-0.469c0,0-8.019-10.953-9.505-11.735c-1.486-0.783-1.722-1.212-2.465-1.291
			c-0.743-0.078-1.58,0.353-1.58,0.353s-15.94-1.789-20.683-2.029c-0.096-0.023-0.312-0.03-0.63-0.023
			c-0.318-0.007-0.535,0-0.63,0.023c-4.743,0.24-20.684,2.029-20.684,2.029s-0.836-0.431-1.58-0.353
			c-0.743,0.079-0.978,0.508-2.464,1.291c-1.486,0.782-9.506,11.735-9.506,11.735l-2.112,0.469c0,0-0.47-1.838-1.291-2.581
			c-0.822-0.744-0.587-0.784-1.761-0.939c-1.173-0.157-5.555,1.409-6.22,1.76c-0.665,0.353,0.43,2.66,0.939,3.168
			c0.508,0.509,2.229,0.822,2.229,0.822l3.051,0.235c0,0-3.56,2.503-4.225,3.52c-0.665,1.018-0.939,4.225-0.939,4.225
			s-0.606,15.678-0.47,16.548c0.138,0.87,1.409,8.919,1.409,8.919s0.586,5.281,0.938,5.75c0.353,0.47,1.173,0.704,1.173,0.704h8.45
			c0,0,0.352,0.471,0.822-0.704c0.47-1.174,0.743-1.173,0.938-2.347c0.196-1.174,0-2.346,0-2.346v-0.705
			c0,0,7.042-0.548,8.098-0.939c1.057-0.392,1.409-1.174,1.409-1.174l0.939,0.822l20.799,0.33v0.021l0.686-0.011l0.686,0.011v-0.021
			l20.799-0.33l0.939-0.822c0,0,0.352,0.782,1.408,1.174s8.098,0.939,8.098,0.939v0.705c0,0-0.196,1.172,0,2.346
			c0.195,1.174,0.469,1.173,0.939,2.347c0.47,1.175,0.821,0.704,0.821,0.704h8.45c0,0,0.821-0.234,1.174-0.704
			c0.352-0.469,0.938-5.75,0.938-5.75s1.271-8.049,1.409-8.919c0.137-0.87-0.47-16.548-0.47-16.548S-37.458,35.582-38.123,34.564z
			 M-50.337,29.01c-0.555,0.037-28.992-0.487-32.038-0.543c-3.046,0.057-31.483,0.58-32.038,0.543
			c-0.587-0.04,7.862-11.149,7.862-11.149s3.086-2.405,24.176-2.348c21.089-0.058,24.175,2.348,24.175,2.348
			S-49.75,28.97-50.337,29.01z"/>
		<linearGradient id="SVGID_1_" gradientUnits="userSpaceOnUse" x1="-129.2996" y1="42.0916" x2="-35.4504" y2="42.0916">
			<stop  offset="0" style="stop-color:#C8C8C8"/>
			<stop  offset="1" style="stop-color:#FFFFFF"/>
		</linearGradient>
		<path fill="url(#SVGID_1_)" d="M-48.873,71.272c-0.567,0-0.882-0.623-1.07-1.092c-0.168-0.423-0.31-0.683-0.435-0.912
			c-0.222-0.407-0.396-0.729-0.531-1.532c-0.188-1.126-0.041-2.233-0.006-2.46v-0.234c-1.643-0.133-6.825-0.574-7.791-0.933
			c-0.647-0.239-1.073-0.61-1.333-0.914l-0.672,0.589l-0.172,0.002l-20.337,0.323v0.037l-1.155-0.019l-1.155,0.019v-0.037
			l-20.509-0.325l-0.672-0.589c-0.26,0.304-0.685,0.675-1.333,0.914c-0.966,0.358-6.148,0.8-7.791,0.933v0.234
			c0.035,0.227,0.182,1.334-0.006,2.46c-0.134,0.803-0.309,1.125-0.531,1.532c-0.125,0.229-0.266,0.489-0.435,0.912
			c-0.188,0.469-0.503,1.092-1.07,1.092c-0.133,0-0.25-0.037-0.347-0.093h-8.356l-0.063-0.018c-0.099-0.028-0.985-0.295-1.419-0.874
			c-0.373-0.496-0.804-3.948-1.029-5.969l-1.406-8.909c-0.14-0.89,0.401-15.029,0.464-16.638l0.001-0.023
			c0.029-0.34,0.305-3.356,1.013-4.442c0.477-0.728,2.17-2.05,3.307-2.893l-1.824-0.143c-0.312-0.057-1.895-0.369-2.478-0.952
			c-0.456-0.456-1.418-2.251-1.269-3.242c0.06-0.395,0.273-0.584,0.442-0.674c0.655-0.347,4.741-1.826,6.251-1.826
			c0.091,0,0.175,0.005,0.25,0.015c1.008,0.134,1.156,0.218,1.626,0.685c0.099,0.098,0.221,0.22,0.387,0.371
			c0.666,0.603,1.101,1.741,1.303,2.376l1.511-0.336c1.206-1.643,8.075-10.948,9.561-11.73c0.582-0.307,0.962-0.556,1.269-0.755
			c0.471-0.307,0.811-0.529,1.365-0.588c0.077-0.007,0.156-0.012,0.237-0.012c0.609,0,1.21,0.233,1.472,0.35
			c1.541-0.172,16.028-1.78,20.544-2.014c0.142-0.025,0.354-0.033,0.69-0.026c0.336-0.006,0.549,0.001,0.69,0.026
			c4.516,0.233,19.003,1.842,20.544,2.014c0.262-0.116,0.862-0.35,1.471-0.35c0.081,0,0.161,0.005,0.237,0.012
			c0.555,0.059,0.895,0.281,1.365,0.588c0.306,0.199,0.687,0.448,1.268,0.755c1.487,0.782,8.355,10.087,9.561,11.73l1.511,0.336
			c0.203-0.635,0.638-1.774,1.304-2.376c0.166-0.15,0.289-0.272,0.387-0.371c0.47-0.467,0.618-0.551,1.625-0.685
			c0.077-0.01,0.158-0.015,0.25-0.015c1.511,0,5.597,1.479,6.251,1.826c0.169,0.09,0.384,0.279,0.442,0.674
			c0.149,0.991-0.813,2.786-1.269,3.242c-0.583,0.583-2.166,0.895-2.478,0.952l-0.048,0.005l-1.775,0.137
			c1.136,0.843,2.83,2.166,3.306,2.893c0.708,1.086,0.984,4.102,1.014,4.442l0.001,0.023c0.062,1.609,0.604,15.748,0.464,16.638
			l-1.406,8.909c-0.225,2.021-0.656,5.473-1.029,5.969c-0.435,0.579-1.32,0.846-1.42,0.874l-0.063,0.018h-8.355
			C-48.623,71.235-48.74,71.272-48.873,71.272z M-48.869,70.24h8.563c0.263-0.086,0.681-0.279,0.859-0.503
			c0.197-0.406,0.59-3.12,0.858-5.534l0.002-0.021l1.408-8.918c0.093-0.651-0.232-10.188-0.475-16.445
			c-0.075-0.869-0.373-3.249-0.864-3.998c-0.504-0.772-3.131-2.711-4.102-3.393l-1.068-0.752l4.329-0.333
			c0.657-0.123,1.684-0.413,1.959-0.688c0.42-0.421,1.119-2.026,1.006-2.445c-0.702-0.341-4.51-1.694-5.768-1.694
			c-0.05,0-0.092,0.003-0.126,0.007c-0.768,0.102-0.768,0.102-1.087,0.419c-0.106,0.106-0.238,0.236-0.42,0.402
			c-0.585,0.53-1.029,1.876-1.151,2.35l-0.112,0.44l-2.729-0.605l-0.105-0.143c-3.076-4.201-8.333-11.065-9.345-11.598
			c-0.622-0.327-1.039-0.6-1.345-0.799c-0.426-0.279-0.621-0.405-0.951-0.44c-0.043-0.005-0.09-0.007-0.138-0.007
			c-0.563,0-1.172,0.307-1.178,0.31l-0.126,0.063l-0.141-0.015c-0.159-0.017-15.98-1.789-20.655-2.026l-0.045-0.002l-0.044-0.01
			c-0.003-0.001-0.071-0.013-0.31-0.013c-0.061,0-0.127,0.001-0.198,0.002l-0.01,0.001l-0.01-0.001
			c-0.071-0.001-0.137-0.002-0.198-0.002c-0.238,0-0.307,0.012-0.313,0.014l-0.044,0.01l-0.042,0.001
			c-4.674,0.237-20.496,2.009-20.655,2.026l-0.141,0.016l-0.126-0.065c-0.005-0.002-0.614-0.309-1.177-0.309
			c-0.048,0-0.094,0.002-0.138,0.007c-0.33,0.035-0.524,0.162-0.951,0.44c-0.305,0.199-0.724,0.472-1.344,0.799
			c-1.013,0.533-6.27,7.396-9.346,11.598l-0.104,0.143l-2.729,0.605l-0.112-0.44c-0.122-0.474-0.565-1.82-1.151-2.35
			c-0.182-0.166-0.314-0.296-0.42-0.402c-0.32-0.317-0.32-0.317-1.087-0.419c-0.035-0.004-0.077-0.007-0.126-0.007
			c-1.257,0-5.066,1.353-5.768,1.694c-0.112,0.419,0.585,2.024,1.006,2.445c0.273,0.273,1.32,0.568,1.958,0.688l4.33,0.333
			l-1.069,0.752c-0.97,0.682-3.597,2.621-4.102,3.393c-0.491,0.75-0.788,3.128-0.863,3.997c-0.243,6.259-0.568,15.795-0.475,16.446
			l1.411,8.939c0.268,2.414,0.661,5.128,0.858,5.534c0.185,0.232,0.622,0.425,0.858,0.503h8.563c0.051-0.079,0.12-0.207,0.202-0.409
			c0.189-0.474,0.352-0.772,0.482-1.013c0.2-0.367,0.321-0.59,0.429-1.236c0.18-1.078,0.002-2.183,0-2.193l-0.006-0.039v-1.177
			l0.433-0.033c2.804-0.22,7.241-0.642,7.971-0.912c0.843-0.311,1.133-0.905,1.145-0.93l0.267-0.56l0.468,0.402l0.81,0.709
			l21.089,0.335v0.006l0.216-0.002l0.216,0.002v-0.006l21.089-0.335l1.287-1.126l0.26,0.579c0.01,0.02,0.3,0.614,1.143,0.925
			c0.73,0.271,5.167,0.692,7.971,0.912l0.433,0.033v1.177l-0.006,0.039c-0.002,0.011-0.18,1.115,0,2.193
			c0.108,0.646,0.229,0.869,0.429,1.236c0.13,0.24,0.293,0.539,0.483,1.013C-48.989,70.033-48.92,70.161-48.869,70.24z
			 M-114.262,29.481c-0.099,0-0.16-0.001-0.183-0.003c-0.184-0.012-0.345-0.124-0.421-0.29c-0.155-0.342-0.25-0.548,3.911-6.217
			c1.979-2.696,4.01-5.367,4.03-5.394l0.037-0.049l0.048-0.038c0.086-0.067,0.941-0.676,4.266-1.266
			c4.353-0.773,11.083-1.181,19.46-1.181c0.244,0,0.49,0,0.739,0.001c0.245-0.001,0.493-0.001,0.735-0.001
			c8.38,0,15.109,0.408,19.462,1.181c3.325,0.59,4.179,1.199,4.265,1.267l0.048,0.037l0.037,0.049
			c0.021,0.026,2.052,2.698,4.03,5.394c4.161,5.669,4.066,5.875,3.912,6.217c-0.077,0.166-0.238,0.278-0.421,0.29
			c-0.022,0.002-0.084,0.003-0.184,0.003c-2.331,0-28.824-0.488-31.886-0.544C-85.436,28.993-111.926,29.481-114.262,29.481
			C-114.261,29.481-114.262,29.481-114.262,29.481z M-82.375,27.997l0.008,0.001c2.863,0.052,26.887,0.495,31.333,0.541
			c-1.056-1.733-4.942-6.976-7.492-10.329c-0.467-0.281-4.487-2.278-23.849-2.228c-0.251,0-0.496-0.001-0.739-0.001
			c-18.729,0-22.652,1.951-23.113,2.229c-2.549,3.354-6.435,8.596-7.491,10.329c4.449-0.045,28.471-0.488,31.333-0.541
			L-82.375,27.997z"/>
	</g>
	<linearGradient id="SVGID_2_" gradientUnits="userSpaceOnUse" x1="-124.45" y1="44.3049" x2="-103.4553" y2="44.3049">
		<stop  offset="0" style="stop-color:#FFFFFF"/>
		<stop  offset="1" style="stop-color:#C8C8C8"/>
	</linearGradient>
	<path fill="url(#SVGID_2_)" d="M-124.344,40.08c0,0-0.704,3.285,1.526,4.812c2.229,1.525,4.694,1.76,4.694,1.76l14.669,1.878
		c0,0-2.112-3.989-2.816-4.225c-0.705-0.234,1.525-1.526,1.525-1.526l-6.337-1.291L-124.344,40.08z"/>
	<linearGradient id="SVGID_3_" gradientUnits="userSpaceOnUse" x1="-61.3918" y1="44.3049" x2="-40.3967" y2="44.3049">
		<stop  offset="0" style="stop-color:#FFFFFF"/>
		<stop  offset="1" style="stop-color:#C8C8C8"/>
	</linearGradient>
	<path fill="url(#SVGID_3_)" d="M-40.502,40.08c0,0,0.705,3.285-1.526,4.812c-2.229,1.525-4.694,1.76-4.694,1.76l-14.669,1.878
		c0,0,2.113-3.989,2.817-4.225c0.704-0.234-1.525-1.526-1.525-1.526l6.337-1.291L-40.502,40.08z"/>
	<g>
		<path fill="#787366" d="M-106.559,43.718c0,0,0.234-1.14,1.643-1.743c1.408-0.604,17.955,0,17.955,0s2.934,0.804,3.521,1.743
			s0,4.812,0,4.812s-0.352,1.76-1.056,1.76c-0.705,0-10.503,0-10.503,0s-6.748,0.118-8.508-1.524
			C-105.268,47.121-106.559,43.718-106.559,43.718z"/>
		<linearGradient id="SVGID_4_" gradientUnits="userSpaceOnUse" x1="-106.803" y1="45.9983" x2="-82.9441" y2="45.9983">
			<stop  offset="0" style="stop-color:#FFFFFF"/>
			<stop  offset="1" style="stop-color:#C8C8C8"/>
		</linearGradient>
		<path fill="url(#SVGID_4_)" d="M-95.293,50.527c-1.565,0-6.794-0.114-8.375-1.591c-1.78-1.661-3.057-4.993-3.11-5.135
			l-0.024-0.063l0.014-0.066c0.011-0.053,0.277-1.268,1.781-1.912c0.288-0.124,1.158-0.288,5.374-0.288
			c5.264,0,12.609,0.267,12.683,0.27l0.027,0.001l0.026,0.006c0.309,0.085,3.04,0.858,3.658,1.846
			c0.615,0.983,0.094,4.565,0.033,4.972c-0.066,0.336-0.435,1.959-1.288,1.959h-10.503C-95,50.525-95.107,50.527-95.293,50.527z
			 M-106.312,43.703c0.193,0.489,1.401,3.431,2.964,4.89c1.157,1.08,4.919,1.464,8.055,1.464c0.184,0,0.288-0.002,0.289-0.002
			h10.508c0.333,0,0.693-0.912,0.826-1.571c0.158-1.043,0.475-3.933,0.031-4.641c-0.437-0.699-2.546-1.409-3.358-1.635
			c-0.498-0.018-7.546-0.268-12.638-0.268c-4.009,0-4.971,0.157-5.189,0.25C-105.926,42.662-106.242,43.471-106.312,43.703z"/>
	</g>
	<g>
		<path fill="#787366" d="M-58.274,43.718c0,0-0.235-1.14-1.643-1.743c-1.408-0.604-17.955,0-17.955,0s-2.935,0.804-3.521,1.743
			c-0.587,0.939,0,4.812,0,4.812s0.352,1.76,1.056,1.76c0.705,0,10.503,0,10.503,0s6.748,0.118,8.508-1.524
			C-59.565,47.121-58.274,43.718-58.274,43.718z"/>
		<linearGradient id="SVGID_5_" gradientUnits="userSpaceOnUse" x1="-81.8889" y1="45.9983" x2="-58.0305" y2="45.9983">
			<stop  offset="0" style="stop-color:#C8C8C8"/>
			<stop  offset="1" style="stop-color:#FFFFFF"/>
		</linearGradient>
		<path fill="url(#SVGID_5_)" d="M-69.54,50.527c-0.19,0-0.298-0.002-0.298-0.002h-10.499c-0.397,0-0.737-0.346-1.01-1.027
			c-0.182-0.455-0.272-0.902-0.276-0.922c-0.063-0.416-0.584-3.998,0.031-4.981c0.618-0.988,3.348-1.761,3.658-1.846l0.026-0.006
			l0.027-0.001c0.073-0.003,7.419-0.27,12.683-0.27c4.215,0,5.085,0.165,5.374,0.288c1.503,0.645,1.77,1.859,1.78,1.912l0.014,0.066
			l-0.024,0.063c-0.053,0.142-1.331,3.474-3.11,5.135C-62.746,50.412-67.975,50.527-69.54,50.527z M-77.836,42.208
			c-0.812,0.226-2.921,0.937-3.357,1.635c-0.15,0.24-0.438,1.545,0.033,4.651c0.13,0.648,0.491,1.561,0.824,1.561h10.503
			c0.005,0,0.109,0.002,0.293,0.002c3.135,0,6.898-0.384,8.055-1.464c1.563-1.459,2.771-4.401,2.965-4.89
			c-0.07-0.23-0.386-1.041-1.489-1.513c-0.217-0.093-1.18-0.25-5.188-0.25C-70.29,41.941-77.338,42.19-77.836,42.208z"/>
	</g>
	<linearGradient id="SVGID_6_" gradientUnits="userSpaceOnUse" x1="-84.8982" y1="39.9041" x2="-80.0862" y2="39.9041">
		<stop  offset="0" style="stop-color:#FFFFFF"/>
		<stop  offset="1" style="stop-color:#C8C8C8"/>
	</linearGradient>
	<ellipse fill="url(#SVGID_6_)" cx="-82.492" cy="39.904" rx="2.406" ry="1.154"/>
	<path opacity="0.6" fill="#C1BAAC" enable-background="new    " d="M-44.925,30.065c-0.157-0.195-2.034-0.586-2.034-0.586
		l-35.45-0.545v-0.002l-0.083,0.001l-0.083-0.001v0.002l-35.451,0.545c0,0-1.877,0.391-2.034,0.586
		c-0.157,0.196,0.469,1.956,0.469,1.956l2.543,0.236l7.589,0.977c0,0,6.5,0.498,8.136,0.391c2.386-0.157,2.621-0.763,3.56-0.958
		c0.938-0.197,1.604-0.098,1.604-0.098l1.291,0.665l5.007,2.895l7.285,0.268v0.005l0.083-0.003l0.083,0.003v-0.005l7.285-0.268
		l5.007-2.895l1.292-0.665c0,0,0.665-0.099,1.604,0.098c0.938,0.195,1.173,0.801,3.559,0.958c1.636,0.107,8.137-0.391,8.137-0.391
		l7.589-0.977l2.543-0.236C-45.394,32.021-44.767,30.261-44.925,30.065z"/>
	<linearGradient id="SVGID_7_" gradientUnits="userSpaceOnUse" x1="-96.4075" y1="30.4768" x2="-68.7117" y2="30.4768">
		<stop  offset="0" style="stop-color:#FFFFFF"/>
		<stop  offset="1" style="stop-color:#C8C8C8"/>
	</linearGradient>
	<path fill="url(#SVGID_7_)" d="M-96.407,29.753l27.696-0.293c0,0-3.228,2.112-4.871,1.995s-17.486,0.126-18.366,0.005
		C-92.828,31.337-96.407,29.753-96.407,29.753z"/>
	<path fill="#2D2D2D" d="M-111.65,41.431c-5.288-8.159-5.623-10.965-5.352-11.911c0.093-0.327,0.253-0.41,0.271-0.418l0.05,0.105
		c-0.001,0.001-0.136,0.073-0.214,0.365c-0.252,0.938,0.108,3.717,5.343,11.795L-111.65,41.431z"/>
	<path fill="#2D2D2D" d="M-52.962,41.431l-0.099-0.064c1.818-2.805,5.979-9.574,5.338-11.814c-0.08-0.277-0.207-0.343-0.208-0.344
		l0.049-0.106c0.018,0.008,0.178,0.091,0.272,0.418C-47.34,30.466-47.674,33.272-52.962,41.431z"/>
	<linearGradient id="SVGID_8_" gradientUnits="userSpaceOnUse" x1="-83.3225" y1="46.2268" x2="-81.5623" y2="46.2268">
		<stop  offset="0" style="stop-color:#FFFFFF"/>
		<stop  offset="1" style="stop-color:#C8C8C8"/>
	</linearGradient>
	<rect x="-83.323" y="43.586" fill="url(#SVGID_8_)" width="1.76" height="5.281"/>
	<path opacity="0.6" fill="#C1BAAC" enable-background="new    " d="M-46.434,46.227v0.47l-3.873,2.034l-0.625,0.664
		c0,0-0.101,1.624,0,1.917s4.812,10.992,4.812,10.992s0.508,1.175,1.916,1.175c1.409,0,6.103,0,6.103,0v0.781l-8.88-0.391
		l-11.384-0.509c0,0-1.721-0.196-1.486-1.8c0.235-1.604-0.391,0.122,1.565-5.163c1.956-5.286,5.242-6.925,5.242-6.925
		L-46.434,46.227z"/>
	<path opacity="0.6" fill="#C1BAAC" enable-background="new    " d="M-118.287,46.538v0.469l3.873,2.035l0.626,0.664
		c0,0,0.101,1.625,0,1.918c-0.101,0.292-4.812,10.991-4.812,10.991s-0.509,1.174-1.917,1.174c-1.408,0-6.103,0-6.103,0v0.782
		l8.88-0.391l11.384-0.509c0,0,1.721-0.195,1.486-1.799c-0.235-1.604,0.391,0.121-1.565-5.164c-1.957-5.286-5.242-6.924-5.242-6.924
		L-118.287,46.538z"/>
	<g>
		<linearGradient id="SVGID_9_" gradientUnits="userSpaceOnUse" x1="-114.3928" y1="22.1819" x2="-50.2571" y2="22.1819">
			<stop  offset="0" style="stop-color:#C8C8C8;stop-opacity:0.8"/>
			<stop  offset="1" style="stop-color:#FFFFFF;stop-opacity:0.7"/>
		</linearGradient>
		<path fill="url(#SVGID_9_)" d="M-50.286,28.929c-0.556,0.037-28.992-0.486-32.039-0.543c-3.046,0.057-31.483,0.58-32.039,0.543
			c-0.587-0.04,7.863-11.149,7.863-11.149s3.085-2.405,24.175-2.347c21.089-0.058,24.175,2.347,24.175,2.347
			S-49.7,28.89-50.286,28.929z"/>
		<path fill="#777266" d="M-50.438,29.46c-2.23,0-26.929-0.454-31.887-0.545c-4.958,0.092-29.655,0.545-31.887,0.545
			c-0.1,0-0.163-0.002-0.186-0.003c-0.206-0.014-0.386-0.139-0.471-0.325c-0.169-0.375-0.264-0.58,3.918-6.276
			c1.979-2.696,4.01-5.369,4.03-5.395l0.042-0.055l0.054-0.042c0.129-0.102,3.393-2.461,23.764-2.461c0.244,0,0.488,0,0.737,0.001
			c0.245-0.001,0.492-0.001,0.735-0.001c8.382,0,15.116,0.408,19.473,1.182c3.339,0.594,4.204,1.21,4.292,1.279l0.054,0.042
			l0.042,0.055c0.02,0.026,2.052,2.699,4.031,5.395c4.181,5.697,4.087,5.902,3.917,6.276c-0.085,0.186-0.266,0.311-0.471,0.325
			C-50.275,29.458-50.338,29.46-50.438,29.46z M-106.135,18.173c-3.079,4.05-6.393,8.568-7.425,10.226
			c4.527-0.05,26.595-0.455,31.225-0.54h0.01h0.01c4.631,0.085,26.699,0.489,31.225,0.54c-1.031-1.657-4.345-6.176-7.424-10.226
			c-0.496-0.291-4.572-2.265-23.81-2.212c-0.25-0.001-0.494-0.002-0.737-0.002C-101.665,15.959-105.646,17.886-106.135,18.173z"/>
	</g>
	<g>
		<path fill="#787366" d="M-60.089,44.347c0,0-0.2-0.825-1.403-1.263c-1.203-0.437-15.335,0-15.335,0s-2.506,0.583-3.007,1.263
			c-0.501,0.68,0,3.485,0,3.485s0.301,1.274,0.902,1.274s8.971,0,8.971,0s5.764,0.085,7.267-1.104
			C-61.192,46.813-60.089,44.347-60.089,44.347z"/>
		<linearGradient id="SVGID_10_" gradientUnits="userSpaceOnUse" x1="-80.5891" y1="45.9993" x2="-59.533" y2="45.9993">
			<stop  offset="0" style="stop-color:#C8C8C8"/>
			<stop  offset="1" style="stop-color:#FFFFFF"/>
		</linearGradient>
		<path fill="url(#SVGID_10_)" d="M-69.711,49.637C-69.711,49.637-69.711,49.637-69.711,49.637c-0.166,0-0.259-0.002-0.259-0.002
			h-8.963c-0.971,0-1.35-1.4-1.416-1.682l-0.006-0.028c-0.163-0.91-0.479-3.113,0.095-3.892c0.572-0.776,2.68-1.317,3.312-1.463
			l0.052-0.012l0.052-0.001c0.063-0.002,6.342-0.195,10.842-0.195c4.068,0,4.504,0.158,4.691,0.226
			c1.428,0.519,1.708,1.522,1.736,1.635l0.042,0.176l-0.074,0.164c-0.047,0.105-1.174,2.598-2.76,3.854
			C-62.831,48.782-64.474,49.637-69.711,49.637z M-78.908,48.578h8.946c0.01,0,0.097,0.002,0.25,0.002
			c4.012,0,6.11-0.535,6.688-0.993c1.142-0.903,2.063-2.657,2.355-3.252c-0.111-0.193-0.384-0.529-1.005-0.754
			c-0.11-0.039-0.749-0.163-4.33-0.163c-4.264,0-10.137,0.174-10.756,0.192c-1.108,0.264-2.424,0.742-2.651,1.05
			c-0.19,0.264-0.146,1.721,0.092,3.062C-79.228,48.087-79.031,48.497-78.908,48.578z"/>
	</g>
	<g>
		<path fill="#787366" d="M-104.736,44.347c0,0,0.201-0.825,1.403-1.263c1.203-0.437,15.335,0,15.335,0s2.506,0.583,3.007,1.263
			c0.501,0.68,0,3.485,0,3.485s-0.301,1.274-0.902,1.274c-0.601,0-8.971,0-8.971,0s-5.764,0.085-7.267-1.104
			S-104.736,44.347-104.736,44.347z"/>
		
			<linearGradient id="SVGID_11_" gradientUnits="userSpaceOnUse" x1="-1763.6077" y1="45.9993" x2="-1742.5515" y2="45.9993" gradientTransform="matrix(-1 0 0 1 -1847.8433 0)">
			<stop  offset="0" style="stop-color:#C8C8C8"/>
			<stop  offset="1" style="stop-color:#FFFFFF"/>
		</linearGradient>
		<path fill="url(#SVGID_11_)" d="M-95.114,49.637c-1.745,0-5.953-0.119-7.344-1.221c-1.587-1.256-2.713-3.748-2.761-3.854
			l-0.073-0.164l0.043-0.176c0.027-0.112,0.308-1.116,1.735-1.635c0.187-0.068,0.623-0.226,4.691-0.226
			c4.5,0,10.778,0.193,10.842,0.195l0.052,0.001l0.051,0.012c0.632,0.146,2.74,0.687,3.312,1.463
			c0.574,0.778,0.258,2.981,0.095,3.892l-0.006,0.028c-0.066,0.281-0.446,1.682-1.416,1.682h-8.971
			C-94.863,49.635-94.955,49.637-95.114,49.637z M-104.157,44.335c0.292,0.595,1.212,2.349,2.354,3.252
			c0.579,0.458,2.677,0.993,6.689,0.993c0.153,0,0.24-0.002,0.243-0.002h8.954c0.123-0.081,0.32-0.49,0.409-0.855
			c0.242-1.366,0.285-2.795,0.092-3.062c-0.228-0.309-1.542-0.787-2.651-1.05c-0.618-0.019-6.492-0.192-10.756-0.192
			c-3.581,0-4.22,0.124-4.33,0.163C-103.774,43.806-104.046,44.142-104.157,44.335z"/>
	</g>
</g>
<g>
	<g>
		<path fill-rule="evenodd" clip-rule="evenodd" fill="#787366" d="M-37.667-23.74c0,0.514,0,0.811,0,1.107
			c0,9.455,0,18.91,0,28.365c0,0.996-0.165,1.228-1.125,1.253c-1.497,0.042-2.998-0.004-4.496,0.024
			c-0.735,0.014-0.683-0.614-0.833-1.011c-0.057-0.15,0.267-0.505,0.484-0.687c0.242-0.199,0.56-0.308,0.898-0.483
			c-0.178-0.357-0.327-0.658-0.567-1.143c0.539,0,0.96-0.042,1.37,0.009c0.773,0.098,1.021-0.163,1.017-0.973
			c-0.035-6.24-0.021-12.479-0.021-18.719c0-1.281-0.021-2.563,0.009-3.842c0.012-0.54-0.178-0.692-0.71-0.691
			c-10.518,0.014-21.035,0.017-31.552-0.004c-0.676-0.001-0.81,0.239-0.809,0.854c0.017,7.52,0.019,15.041-0.006,22.561
			c-0.002,0.67,0.217,0.826,0.845,0.822c3.514-0.026,7.03-0.013,10.545-0.015c0.208,0,0.417,0,0.77,0
			c-0.243,0.43-0.419,0.742-0.624,1.104c0.257,0.148,0.509,0.251,0.707,0.419c0.271,0.229,0.731,0.531,0.705,0.755
			c-0.07,0.58-0.305,1.074-1.138,1.065c-4.55-0.045-9.1-0.018-13.651-0.028c-1.157-0.003-1.391-0.253-1.391-1.375
			c-0.001-9.292-0.001-18.583,0-27.875c0-1.437,0.146-1.596,1.581-1.596c11.581-0.006,23.161-0.009,34.74-0.002
			C-39.865-23.844-38.813-23.778-37.667-23.74z"/>
		<linearGradient id="SVGID_12_" gradientUnits="userSpaceOnUse" x1="-77.6179" y1="-8.407" x2="-37.2908" y2="-8.407">
			<stop  offset="0" style="stop-color:#FFFFFF"/>
			<stop  offset="1" style="stop-color:#C8C8C8"/>
		</linearGradient>
		<path fill="url(#SVGID_12_)" d="M-62.178,7.41h-0.024c-2.441-0.024-4.853-0.027-7.095-0.027l-3.815,0.001
			c-0.913,0-1.825-0.001-2.738-0.004c-1.354-0.002-1.768-0.412-1.768-1.75v-27.875c0-1.641,0.33-1.973,1.959-1.974
			c11.581-0.004,23.161-0.008,34.74-0.001c0.722,0,1.434,0.03,2.187,0.062c0.352,0.015,0.709,0.029,1.076,0.042l0.365,0.012V5.732
			c0,1.078-0.224,1.596-1.491,1.631c-0.521,0.015-1.042,0.019-1.561,0.019l-1.743-0.004c-0.397,0-0.796,0.002-1.193,0.009
			c-0.001,0-0.001,0-0.001,0c-0.884,0-1.042-0.663-1.128-1.02c-0.02-0.082-0.038-0.162-0.066-0.234
			c-0.153-0.406,0.309-0.87,0.597-1.11c0.192-0.16,0.404-0.262,0.63-0.367l-0.667-1.346h0.607c0.173,0,0.333-0.005,0.485-0.01
			c0.363-0.009,0.677-0.01,0.933,0.022c0.085,0.011,0.162,0.017,0.232,0.017c0.091,0,0.209-0.011,0.257-0.059
			c0.039-0.04,0.104-0.165,0.102-0.556c-0.025-4.76-0.023-9.6-0.021-14.28l0.001-4.439c0-0.378-0.002-0.755-0.004-1.133
			c-0.005-0.891-0.009-1.811,0.012-2.717c0.005-0.217-0.031-0.265-0.033-0.266c-0.001,0-0.05-0.04-0.294-0.04
			c-10.529,0.014-21.042,0.017-31.56-0.004c-0.293,0-0.359,0.052-0.37,0.063c-0.019,0.019-0.061,0.097-0.061,0.413
			c0.019,8.251,0.017,15.632-0.005,22.563c-0.001,0.303,0.052,0.372,0.063,0.382c0.014,0.015,0.082,0.061,0.379,0.061
			c1.85-0.013,3.676-0.017,5.503-0.017l6.483,0.002l-0.753,1.331c0.148,0.08,0.297,0.166,0.433,0.28
			c0.05,0.042,0.107,0.087,0.167,0.133c0.352,0.279,0.716,0.567,0.67,0.956C-60.798,6.94-61.3,7.41-62.178,7.41z M-69.298,6.628
			c2.245,0,4.658,0.004,7.103,0.027l0.016,0.377V6.656c0.471,0,0.662-0.172,0.735-0.672c-0.069-0.089-0.268-0.246-0.38-0.334
			c-0.066-0.052-0.129-0.103-0.185-0.15c-0.104-0.087-0.24-0.158-0.398-0.242c-0.083-0.043-0.169-0.089-0.255-0.139l-0.323-0.187
			l0.49-0.865l-5.19-0.002c-1.825,0-3.65,0.002-5.475,0.016c-0.001,0-0.001,0-0.002,0c-0.341,0-0.694-0.034-0.941-0.282
			c-0.252-0.254-0.284-0.625-0.282-0.918c0.022-6.93,0.024-14.308,0.005-22.56c0-0.344,0.033-0.698,0.282-0.947
			c0.251-0.251,0.613-0.283,0.9-0.283c10.527,0.02,21.04,0.017,31.557,0.003c0.273,0,0.608,0.031,0.841,0.268
			c0.231,0.238,0.251,0.575,0.247,0.81c-0.021,0.896-0.016,1.812-0.013,2.696c0.003,0.378,0.005,0.757,0.005,1.137l-0.002,4.44
			c-0.003,4.679-0.005,9.517,0.021,14.276c0.002,0.354-0.032,0.801-0.321,1.091c-0.243,0.244-0.583,0.326-1.12,0.258
			c-0.19-0.024-0.439-0.026-0.72-0.018l0.466,0.941l-0.329,0.171c-0.111,0.058-0.22,0.109-0.325,0.157
			c-0.202,0.095-0.377,0.176-0.505,0.283c-0.154,0.126-0.284,0.279-0.338,0.364c0.022,0.071,0.04,0.146,0.058,0.224
			c0.095,0.395,0.133,0.441,0.364,0.441c0.42-0.008,0.824-0.011,1.226-0.011l1.743,0.005c0.514,0,1.027-0.003,1.54-0.018
			c0.701-0.02,0.757-0.021,0.759-0.877l-0.001-29.107c-0.243-0.01-0.48-0.02-0.718-0.029c-0.746-0.032-1.449-0.062-2.155-0.062
			c-11.58-0.006-23.16-0.002-34.739,0.002c-1.206,0-1.206,0-1.206,1.219V5.63c0,0.921,0.076,0.995,1.016,0.997
			c0.912,0.002,1.823,0.002,2.735,0.002L-69.298,6.628z"/>
	</g>
	<g>
		<path fill-rule="evenodd" clip-rule="evenodd" fill="#787366" d="M-44.561,2.591c-0.811,0.761-0.842,1.46,0.371,2.005
			c0.001,0.084,0.002,0.168,0.004,0.252c-0.24,0.129-0.56,0.205-0.699,0.405c-0.144,0.206-0.251,0.647-0.135,0.791
			c0.476,0.582,0.47,0.938-0.299,1.171c-0.168,0.052-0.302,0.211-0.476,0.338c0.098,0.276,0.257,0.531,0.252,0.782
			c-0.003,0.213-0.203,0.608-0.304,0.605c-1.015-0.036-0.982,0.604-0.912,1.298c0.007,0.073-0.044,0.152-0.104,0.344
			c-1.039-0.363-1.563,0.108-1.53,1.368c-1.132-0.724-1.719-0.258-2.081,0.845c-0.864-1.023-1.538-0.812-2.074,0.25
			c-0.375-0.413-0.66-0.726-1.022-1.125c-0.862,0.959-1.514,0.776-1.826-0.448c-0.323,0.087-0.568,0.123-0.789,0.216
			c-0.516,0.219-0.735-0.022-0.743-0.495c-0.009-0.633-0.285-0.816-0.879-0.66c-0.485,0.126-0.761-0.064-0.658-0.592
			c0.116-0.584,0.021-0.942-0.688-0.956c-0.46-0.008-0.706-0.256-0.458-0.764c0.094-0.191,0.124-0.413,0.208-0.706
			c-0.358-0.233-0.908-0.403-1.042-0.739c-0.104-0.261,0.311-0.729,0.697-1.29c-0.213-0.121-0.43-0.236-0.641-0.362
			c-0.186-0.11-0.367-0.229-0.659-0.414c0.52-0.399,0.861-0.66,1.222-0.938c-0.285-0.456-0.496-0.792-0.764-1.22
			c0.674-0.45,1.745-0.783,0.762-1.905c0.308-0.146,0.491-0.288,0.691-0.318c0.558-0.086,0.816-0.327,0.688-0.93
			c-0.116-0.549,0.225-0.607,0.683-0.608c0.262,0,0.68-0.133,0.759-0.321c0.435-1.031,0.405-1.042,1.485-0.615
			c0.09-0.102,0.24-0.2,0.289-0.333c0.285-0.785,0.665-1.062,1.363-0.365c0.081,0.081,0.462-0.018,0.605-0.146
			c0.216-0.192,0.343-0.482,0.601-0.87c0.673,1.112,1.323,1.46,2.097,0.444c0.176,0.217,0.355,0.343,0.396,0.504
			c0.178,0.688,0.497,0.9,1.165,0.509c0.44-0.257,0.66,0.049,0.709,0.459c0.076,0.634,0.344,0.922,1.024,0.744
			c0.57-0.147,0.572,0.259,0.497,0.636c-0.107,0.544,0.079,0.814,0.645,0.861c0.465,0.04,0.857,0.255,0.566,0.786
			c-0.356,0.647-0.146,0.934,0.49,1.113C-44.911,2.246-44.782,2.418-44.561,2.591z"/>
		<linearGradient id="SVGID_13_" gradientUnits="userSpaceOnUse" x1="-61.7058" y1="4.5725" x2="-43.8035" y2="4.5725">
			<stop  offset="0" style="stop-color:#FFFFFF"/>
			<stop  offset="1" style="stop-color:#C8C8C8"/>
		</linearGradient>
		<path fill="url(#SVGID_13_)" d="M-52.459,13.707l-1.126-1.24c-0.336,0.298-0.654,0.443-0.968,0.443
			c-0.349,0-0.804-0.181-1.1-0.986c-0.153,0.036-0.278,0.067-0.386,0.112c-0.177,0.075-0.335,0.111-0.484,0.111
			c-0.372,0-0.772-0.249-0.782-0.948c-0.006-0.341-0.074-0.341-0.152-0.341c-0.067,0-0.152,0.014-0.254,0.04
			c-0.126,0.035-0.247,0.051-0.357,0.051c-0.331,0-0.52-0.146-0.62-0.269c-0.164-0.199-0.213-0.472-0.146-0.812
			c0.067-0.337,0.018-0.418,0.007-0.431c-0.02-0.026-0.113-0.07-0.332-0.074c-0.486-0.01-0.714-0.219-0.82-0.393
			c-0.106-0.173-0.186-0.472,0.03-0.915c0.044-0.09,0.073-0.208,0.109-0.356c-0.031-0.016-0.062-0.031-0.093-0.047
			c-0.336-0.173-0.717-0.37-0.862-0.736c-0.159-0.397,0.129-0.798,0.496-1.305c-0.095-0.053-0.189-0.107-0.283-0.163
			c-0.127-0.075-0.253-0.156-0.413-0.257l-0.712-0.451l1.379-1.058l-0.776-1.241l0.305-0.203c0.106-0.071,0.222-0.138,0.338-0.208
			c0.29-0.171,0.619-0.366,0.65-0.552c0.021-0.13-0.087-0.337-0.302-0.582l-0.328-0.374l0.449-0.216
			c0.1-0.045,0.185-0.093,0.261-0.134c0.175-0.096,0.339-0.186,0.537-0.216c0.265-0.04,0.345-0.105,0.37-0.141
			c0.038-0.055,0.04-0.178,0.006-0.337c-0.066-0.315-0.023-0.572,0.128-0.759c0.226-0.279,0.595-0.303,0.923-0.304
			c0.155,0,0.359-0.072,0.426-0.121l0.02-0.047c0.262-0.622,0.435-1.034,0.953-1.034c0.206,0,0.43,0.075,0.759,0.203
			c0.012-0.013,0.021-0.022,0.025-0.031c0.087-0.241,0.364-1.004,1.021-1.004c0.274,0,0.559,0.138,0.865,0.419
			c0.067-0.014,0.152-0.045,0.184-0.071c0.101-0.089,0.191-0.242,0.308-0.434c0.066-0.11,0.139-0.231,0.226-0.361l0.329-0.496
			l0.31,0.508c0.455,0.754,0.744,0.867,0.876,0.867c0.166,0,0.372-0.157,0.597-0.455l0.292-0.381l0.302,0.372
			c0.055,0.066,0.109,0.123,0.157,0.173c0.128,0.136,0.261,0.273,0.312,0.475c0.042,0.156,0.126,0.42,0.237,0.42
			c0.048,0,0.161-0.02,0.372-0.143c0.167-0.098,0.33-0.146,0.486-0.146c0.33,0,0.71,0.232,0.789,0.885
			c0.056,0.464,0.184,0.464,0.297,0.464c0.071,0,0.159-0.013,0.258-0.04c0.446-0.115,0.725,0.049,0.842,0.191
			c0.214,0.26,0.17,0.628,0.121,0.883c-0.036,0.184-0.022,0.286,0.004,0.32s0.118,0.076,0.301,0.092
			c0.456,0.039,0.776,0.207,0.926,0.486c0.093,0.172,0.157,0.461-0.062,0.857c-0.156,0.286-0.122,0.375-0.121,0.379
			c0.005,0.01,0.049,0.095,0.383,0.188c0.194,0.055,0.332,0.181,0.466,0.304c0.053,0.048,0.111,0.101,0.179,0.155l0.346,0.271
			l-0.32,0.301c-0.327,0.305-0.488,0.58-0.457,0.772c0.034,0.201,0.291,0.418,0.723,0.613l0.217,0.097l0.016,0.721l-0.204,0.11
			c-0.082,0.045-0.173,0.083-0.264,0.122c-0.114,0.048-0.269,0.115-0.304,0.166c-0.069,0.098-0.117,0.291-0.117,0.381
			c0.23,0.289,0.461,0.662,0.343,1.053c-0.125,0.407-0.551,0.58-0.86,0.674c-0.029,0.008-0.081,0.049-0.132,0.092
			c0.086,0.199,0.18,0.425,0.176,0.674c-0.004,0.227-0.226,0.976-0.681,0.976l-0.083-0.002c-0.201,0-0.344,0.036-0.403,0.103
			c-0.118,0.128-0.078,0.522-0.051,0.783c0.013,0.133-0.027,0.238-0.065,0.34c-0.016,0.041-0.034,0.091-0.053,0.153l-0.116,0.374
			l-0.369-0.129c-0.185-0.065-0.348-0.097-0.483-0.097c-0.191,0-0.278,0.066-0.326,0.115c-0.153,0.159-0.232,0.509-0.22,0.985
			l0.018,0.71l-0.597-0.383c-0.3-0.191-0.553-0.288-0.75-0.288c-0.127,0-0.464,0-0.769,0.933l-0.21,0.643l-0.436-0.518
			c-0.292-0.343-0.559-0.533-0.758-0.533c-0.291,0-0.558,0.445-0.691,0.71L-52.459,13.707z M-53.573,11.358l0.961,1.06
			c0.555-0.771,1.283-0.878,2-0.292c0.216-0.426,0.599-0.899,1.264-0.899c0.192,0,0.394,0.041,0.607,0.123
			c0.057-0.398,0.189-0.701,0.402-0.919c0.282-0.29,0.691-0.401,1.187-0.313c-0.036-0.407-0.042-0.873,0.258-1.205
			c0.201-0.222,0.493-0.337,0.89-0.349c0.042-0.079,0.082-0.189,0.083-0.236c0.002-0.09-0.057-0.228-0.12-0.374
			c-0.04-0.09-0.079-0.182-0.111-0.276l-0.093-0.263l0.226-0.166c0.048-0.035,0.093-0.074,0.137-0.111
			c0.123-0.106,0.264-0.226,0.452-0.282c0.306-0.094,0.358-0.174,0.359-0.177l0,0c-0.001,0-0.002-0.104-0.24-0.396
			c-0.283-0.347-0.06-0.992,0.117-1.246c0.107-0.155,0.257-0.253,0.411-0.33c-0.418-0.269-0.66-0.584-0.721-0.942
			c-0.061-0.37,0.073-0.754,0.399-1.148c-0.031-0.026-0.059-0.048-0.075-0.056c-0.296-0.083-0.71-0.238-0.871-0.621
			c-0.121-0.286-0.07-0.625,0.154-1.034c0.057-0.104,0.055-0.15,0.055-0.15c-0.007,0-0.098-0.061-0.32-0.08
			c-0.394-0.033-0.669-0.161-0.841-0.389c-0.173-0.229-0.22-0.53-0.142-0.92c0.019-0.1,0.026-0.167,0.027-0.21
			c-0.017,0.002-0.036,0.007-0.06,0.012c-0.165,0.044-0.312,0.064-0.448,0.064c-0.415,0-0.935-0.196-1.045-1.129
			c-0.015-0.123-0.046-0.192-0.064-0.221c-0.009,0.008-0.038,0.019-0.081,0.044c-0.882,0.515-1.472,0.222-1.72-0.742
			c-0.003-0.006-0.014-0.018-0.027-0.034c-0.291,0.279-0.588,0.415-0.902,0.415c-0.488,0-0.882-0.344-1.186-0.731
			c-0.107,0.175-0.215,0.328-0.362,0.459c-0.19,0.17-0.528,0.27-0.747,0.27c-0.157,0-0.284-0.045-0.376-0.14
			c-0.281-0.28-0.412-0.288-0.426-0.288c-0.036,0-0.163,0.092-0.316,0.515c-0.065,0.18-0.197,0.301-0.292,0.39
			c-0.025,0.023-0.05,0.044-0.07,0.066l-0.175,0.196l-0.244-0.097c-0.323-0.128-0.603-0.238-0.708-0.238
			c-0.033,0.038-0.146,0.309-0.257,0.571l-0.033,0.079c-0.175,0.415-0.821,0.551-1.106,0.551c-0.202,0.001-0.292,0.017-0.33,0.029
			c0,0.021,0,0.061,0.014,0.123c0.081,0.384,0.041,0.686-0.124,0.924c-0.169,0.243-0.455,0.393-0.876,0.458
			c-0.046,0.006-0.108,0.035-0.184,0.074c0.175,0.29,0.239,0.561,0.197,0.822c-0.085,0.533-0.571,0.822-1.001,1.076l0.745,1.189
			l-1.067,0.818c0.067,0.042,0.13,0.081,0.193,0.119c0.148,0.088,0.297,0.171,0.447,0.253l0.547,0.308l-0.234,0.339
			c-0.082,0.119-0.165,0.233-0.243,0.342c-0.153,0.212-0.359,0.497-0.398,0.623c0.074,0.101,0.322,0.229,0.492,0.316
			c0.137,0.071,0.272,0.141,0.389,0.217l0.233,0.152l-0.076,0.267c-0.026,0.093-0.046,0.179-0.066,0.259
			c-0.044,0.177-0.085,0.345-0.165,0.509c-0.057,0.119-0.061,0.179-0.06,0.196c0.009-0.001,0.062,0.022,0.187,0.025
			c0.422,0.009,0.718,0.125,0.904,0.355c0.252,0.312,0.21,0.725,0.146,1.052c-0.018,0.093-0.016,0.151-0.011,0.178
			c0.007-0.001,0.019,0.001,0.036,0c0.032,0,0.086-0.003,0.167-0.025c0.166-0.044,0.312-0.064,0.445-0.064
			c0.332,0,0.893,0.14,0.907,1.084c0.002,0.14,0.028,0.206,0.039,0.219c0.009-0.015,0.07-0.02,0.18-0.065
			c0.175-0.075,0.356-0.117,0.547-0.162c0.089-0.022,0.186-0.043,0.29-0.071l0.369-0.099l0.094,0.37
			c0.122,0.479,0.306,0.777,0.479,0.777c0.079,0,0.306-0.049,0.701-0.488L-53.573,11.358z"/>
	</g>
	<path fill-rule="evenodd" clip-rule="evenodd" fill="#787366" d="M-57.645-9.845c-4.086-0.001-8.172-0.017-12.258,0.014
		c-0.714,0.005-0.955-0.19-0.93-0.918c0.053-1.578-0.094-1.342,1.368-1.344c8.063-0.006,16.127-0.005,24.19-0.003
		c0.962,0,0.916,0.009,0.978,1.25c0.038,0.789-0.216,1.025-1.007,1.018C-49.419-9.863-53.532-9.844-57.645-9.845z"/>
	<path opacity="0.8" fill-rule="evenodd" clip-rule="evenodd" fill="#C0B9AB" enable-background="new    " d="M-53.782,13.635
		c0.411,0.446,0.775,0.841,1.227,1.33c0.682-1.229,1.508-1.668,2.523-0.293c0.225-0.372,0.435-0.602,0.511-0.87
		c0.191-0.663,0.506-0.8,1.201-0.625c0.607,0.154,0.805,0.365,0.78,0.972c-0.042,1.031-0.019,2.067,0,3.101
		c0.012,0.646-0.271,0.745-0.816,0.533c-1.263-0.489-2.525-0.979-3.805-1.419c-0.275-0.096-0.646-0.069-0.926,0.031
		c-1.303,0.462-2.587,0.974-3.882,1.457c-0.144,0.053-0.312,0.04-0.583,0.071c0-1.456-0.05-2.858,0.051-4.25
		c0.016-0.225,0.693-0.446,1.094-0.577c0.139-0.044,0.438,0.14,0.544,0.299c0.235,0.355,0.396,0.759,0.615,1.203
		C-54.748,14.268-54.303,13.976-53.782,13.635z"/>
	<path fill-rule="evenodd" clip-rule="evenodd" fill="#787366" d="M-57.636-14.308c-1.958,0-3.918-0.013-5.876,0.01
		c-0.56,0.005-0.819-0.166-0.733-0.75c0.031-0.214,0.028-0.438,0.003-0.652c-0.067-0.592,0.166-0.833,0.778-0.831
		c3.917,0.01,7.834,0.001,11.753-0.014c0.541-0.001,0.825,0.195,0.797,0.762c-0.01,0.217-0.023,0.438,0.006,0.651
		c0.093,0.675-0.244,0.839-0.852,0.834C-53.719-14.321-55.677-14.306-57.636-14.308z"/>
	<path opacity="0.6" fill-rule="evenodd" clip-rule="evenodd" fill="#C0B9AB" enable-background="new    " d="M-59.61,8.222
		c0.094-0.191,0.124-0.413,0.208-0.706c-0.358-0.233-0.908-0.403-1.042-0.739c-0.104-0.261,0.312-0.729,0.697-1.29
		c-0.214-0.121-0.43-0.236-0.641-0.362c-0.186-0.11-0.367-0.229-0.659-0.414c0.52-0.399,0.86-0.66,1.222-0.938
		c-0.285-0.456-0.496-0.792-0.764-1.22c0.673-0.45,1.745-0.783,0.761-1.905c0.308-0.146,0.491-0.288,0.692-0.318
		c0.558-0.086,0.816-0.327,0.688-0.93c-0.116-0.549,0.226-0.607,0.683-0.608c0.262,0,0.681-0.133,0.759-0.321
		c0.435-1.031,0.406-1.042,1.485-0.615c0.09-0.102,0.24-0.2,0.289-0.333c0.285-0.785,0.664-1.062,1.363-0.365
		c0.081,0.081,0.462-0.018,0.605-0.146c0.216-0.192,0.342-0.482,0.599-0.87c0.674,1.112,1.324,1.46,2.097,0.444
		c0.178,0.217,0.355,0.343,0.396,0.504c0.178,0.688,0.498,0.9,1.166,0.509c0.44-0.257,0.66,0.049,0.709,0.459
		c0.076,0.634,0.344,0.922,1.024,0.744c0.569-0.147,0.572,0.259,0.497,0.636"/>
</g>
</svg>
