<?xml version="1.0" encoding="utf-8"?>
<!-- Generator: Adobe Illustrator 16.0.4, SVG Export Plug-In . SVG Version: 6.00 Build 0)  -->
<!DOCTYPE svg PUBLIC "-//W3C//DTD SVG 1.1//EN" "http://www.w3.org/Graphics/SVG/1.1/DTD/svg11.dtd">
<svg version="1.1" id="Layer_1" xmlns="http://www.w3.org/2000/svg" xmlns:xlink="http://www.w3.org/1999/xlink" x="0px" y="0px"
	 width="68.354px" height="51.926px" viewBox="0 0 68.354 51.926" enable-background="new 0 0 68.354 51.926" xml:space="preserve">
<g>
	<g>
		<rect x="0.376" y="-0.037" fill="none" width="67.978" height="51.963"/>
	</g>
</g>
<g>
	<g>
		<ellipse fill="#A7A7A7" cx="29.168" cy="18.901" rx="1.462" ry="0.744"/>
		<path fill="#A7A7A7" d="M25.476,20.225c-1.729,0-4.479,0-5.392,0c-2.237,0-2.492,0.73-2.644,1.491
			c-0.165-0.315-0.455-0.362-0.851-0.464c-0.392-0.104-5.006-1.34-6.072-1.657c-1.068-0.318-3.103-0.982-3.414,0.087
			c-0.31,1.075-0.797,2.968,0.801,2.968c-0.063,0.951,0.611,1.05,2.42,0.984c2.287-0.083,5.923-0.153,7.18-0.156
			c-0.032,2.3,3.971,3.031,5.186,3.031c1.212,0,2.3,0,3.667,0c1.362,0,2.27-0.685,2.27-2.364c0-1.677-0.349-3.112-0.349-3.112
			C27.96,20.319,27.205,20.225,25.476,20.225z M27.149,25.378c-0.8,0.523-3.761,0.403-4.932,0.277
			c-1.172-0.124-3.82-0.676-4.007-1.725c-0.186-1.047-0.311-1.913,0-2.403c0.308-0.495,0.803-0.822,1.725-0.81
			c1.232,0.019,5.471,0.126,6.219,0.191c0.75,0.064,1.374,0.309,1.465,1.418C27.705,23.437,27.95,24.855,27.149,25.378z"/>
		<path fill="#A7A7A7" d="M30.06,21.032c0,0-0.348,1.435-0.348,3.112c0,1.679,0.904,2.364,2.271,2.364c0.987,0,1.826,0,2.675,0
			V25.75c-1.317,0.041-2.915-0.015-3.467-0.374c-0.803-0.524-0.557-1.941-0.468-3.05c0.09-1.109,0.715-1.354,1.464-1.418
			c0.331-0.03,1.341-0.065,2.473-0.099v-0.585c-0.638,0-1.264,0-1.794,0C31.133,20.225,30.379,20.319,30.06,21.032z"/>
		<path fill="#A7A7A7" d="M19.732,28.912c-0.438-0.838-2.339-1.111-4.993-1.359c-2.653-0.247-4.22-0.433-4.968-0.464
			c-0.751-0.03-1.679-0.222-1.623,1.233c0.058,1.461,0.18,2.453,1.813,2.642c1.633,0.191,4.543,0.359,6.277,0.489
			c1.732,0.136,4.128,0.436,3.932-0.318c1.675-0.075,0.679,0.562,1.987,0.598c1.305,0.033,7.529,0,7.529,0s2.744,0.017,4.972,0.017
			v-2.817l-4.969,0.023L19.732,28.912z"/>
		<path fill="#A7A7A7" d="M23.343,34.5c-1.738-0.069-4.529-0.214-5.097-0.321c-0.09-0.016-0.186-0.036-0.292-0.057
			c-0.744-0.15-1.76-0.356-3.367-0.356c-0.246,0-0.5,0.006-0.742,0.015c-3.7-0.068-7.917-0.177-8.665-0.27
			c-0.359-0.043-0.396-0.049-0.44-0.822l-0.04-0.664c-0.1-1.726-0.203-3.511-0.216-4.651c-0.028-2.132,0.409-7.116,1.007-8.085
			c1.234-2.003,5.169-4.15,5.642-4.404h36.093c0.237,0.127,1.351,0.733,2.568,1.567l0.055,0.038h1.838l-0.52-0.39
			c-0.808-0.603-1.628-1.128-2.257-1.507h0.593c0.534,0,2.16,0,2.16-1.479c0-1.125-1.272-1.461-1.948-1.477c0,0-0.719-0.006-1.327,0
			c-0.382,0.003-1.165,0.009-1.208,0.793c-1.331-2.53-3.685-5.683-5.517-6.903c-0.643-0.43-1.427-0.441-1.436-0.441h-0.006
			c-4.718-0.347-10.925-0.351-10.989-0.351H29.13c-0.062,0-6.28,0.003-10.971,0.351c-0.083,0.001-0.831,0.023-1.458,0.44
			c-1.848,1.229-4.219,4.414-5.545,6.955c-0.012-0.835-0.817-0.842-1.209-0.845c-0.608-0.003-1.324,0-1.332,0
			c-0.673,0.018-1.945,0.351-1.945,1.479c0,1.477,1.626,1.477,2.162,1.477h0.615c-1.486,0.894-3.877,2.498-4.88,4.125
			c-0.878,1.425-1.19,7.07-1.168,8.669c0.013,1.163,0.118,2.958,0.219,4.7l0.153,2.887c0.059,1.55,0.773,2.271,2.246,2.271h5.832
			c0.828,0,1.476-0.26,1.926-0.775c0.055-0.059,0.104-0.129,0.162-0.21l0.042-0.066c0.033-0.055,0.065-0.109,0.103-0.182
			l0.024-0.045c0.035-0.074,0.067-0.147,0.094-0.22l0.01-0.028c0.023-0.067,0.044-0.132,0.062-0.197l0.021-0.069
			c0.013-0.054,0.025-0.104,0.035-0.16l0.01-0.056c0.013-0.068,0.023-0.136,0.033-0.197l0.004-0.04
			c0.004-0.052,0.009-0.102,0.012-0.148c0.066,0,0.131,0,0.197,0c1.498,0,2.454,0.191,3.167,0.338c0.1,0.02,0.197,0.039,0.287,0.057
			c0.874,0.165,5.225,0.337,5.278,0.34l5.778,0.031l5.561-0.031V34.5l-5.398,0.031L23.343,34.5z M17.302,6.429
			c0.354-0.234,0.839-0.257,0.904-0.261C22.891,5.823,29.068,5.82,29.13,5.82h0.104c0.063,0,6.242,0.004,10.953,0.35
			c0.005,0,0.512,0.017,0.875,0.259c1.809,1.207,4.202,4.516,5.395,6.965H11.908C13.108,10.933,15.493,7.633,17.302,6.429z"/>
		<path fill="#A7A7A7" d="M55.679,25.829c0.302,0,0.544-0.243,0.544-0.543v-0.402c0-0.3-0.242-0.545-0.544-0.545h-8.801
			c-0.301,0-0.542,0.245-0.542,0.545v0.402c0,0.3,0.241,0.543,0.542,0.543H55.679z"/>
		<path fill="#A7A7A7" d="M42.013,28.195v0.27c0,0.299,0.243,0.543,0.544,0.543h17.872c0.299,0,0.543-0.244,0.543-0.543v-0.27
			c0-0.301-0.244-0.545-0.543-0.545H42.557C42.256,27.65,42.013,27.895,42.013,28.195z"/>
		<path fill="#A7A7A7" d="M61.487,38.911c0.016-0.104-0.012-0.212-0.078-0.295l-0.5-0.647l0.5-0.646
			c0.066-0.084,0.094-0.191,0.078-0.296c-0.019-0.104-0.078-0.198-0.165-0.257l-0.677-0.462l0.277-0.77
			c0.035-0.1,0.029-0.212-0.02-0.306c-0.047-0.093-0.134-0.162-0.233-0.191l-0.787-0.231l0.026-0.817
			c0.003-0.106-0.038-0.209-0.111-0.283c-0.077-0.075-0.179-0.111-0.284-0.111l-0.819,0.024l-0.229-0.784
			c-0.03-0.103-0.1-0.189-0.192-0.236c-0.095-0.049-0.206-0.055-0.305-0.021l-0.772,0.277l-0.461-0.675
			c-0.059-0.092-0.151-0.15-0.256-0.165c-0.106-0.014-0.212,0.012-0.296,0.076l-0.648,0.501l-0.646-0.501
			c-0.085-0.064-0.189-0.09-0.294-0.076c-0.104,0.018-0.197,0.076-0.257,0.165l-0.461,0.675l-0.773-0.277
			c-0.097-0.034-0.209-0.029-0.302,0.021c-0.094,0.05-0.165,0.134-0.194,0.236l-0.229,0.784l-0.817-0.024
			c-0.106,0.003-0.211,0.036-0.284,0.111c-0.075,0.074-0.116,0.176-0.113,0.283l0.026,0.817l-0.786,0.231
			c-0.101,0.029-0.188,0.097-0.233,0.191c-0.048,0.094-0.056,0.206-0.021,0.306l0.276,0.77l-0.675,0.462
			c-0.088,0.059-0.146,0.153-0.163,0.257c-0.015,0.104,0.012,0.212,0.076,0.296l0.503,0.646l-0.503,0.647
			c-0.064,0.084-0.093,0.191-0.076,0.295c0.018,0.104,0.076,0.197,0.163,0.256l0.675,0.463L50.148,40.4
			c-0.034,0.099-0.028,0.21,0.021,0.305c0.046,0.093,0.133,0.162,0.233,0.191l0.786,0.232l-0.026,0.816
			c-0.003,0.105,0.038,0.209,0.113,0.284c0.073,0.075,0.174,0.119,0.284,0.11l0.817-0.023l-0.287,0.009v7.499l3.238-2.354
			l3.237,2.354v-7.072l0.127-0.436l0.818,0.026c0.109,0.01,0.208-0.037,0.284-0.112c0.074-0.075,0.115-0.177,0.112-0.282
			l-0.026-0.819l0.786-0.229c0.101-0.031,0.188-0.099,0.234-0.194c0.047-0.093,0.055-0.203,0.019-0.304l-0.276-0.771l0.676-0.461
			C61.411,39.108,61.47,39.016,61.487,38.911z M57.798,48.316l-2.072-1.507v-3.322l-0.191-0.146l-0.604,0.469v3l-2.073,1.507V43.35
			c0.082,0.027,0.166,0.033,0.247,0.006l0.773-0.276l0.461,0.675c0.059,0.088,0.151,0.146,0.256,0.163
			c0.104,0.015,0.211-0.014,0.295-0.075l0.646-0.504l0.647,0.504c0.068,0.05,0.152,0.08,0.236,0.08c0.019,0,0.038-0.002,0.061-0.005
			c0.104-0.017,0.197-0.075,0.256-0.163l0.461-0.675l0.603,0.217v5.021H57.798z M60.119,38.203l0.433,0.561l-0.583,0.397
			c-0.146,0.098-0.206,0.283-0.147,0.448l0.24,0.665l-0.681,0.198c-0.166,0.05-0.282,0.206-0.276,0.381l0.022,0.709l-0.709-0.024
			c-0.175-0.004-0.331,0.109-0.38,0.277l-0.197,0.679l-0.667-0.24c-0.167-0.059-0.348,0-0.446,0.147l-0.399,0.586l-0.56-0.435
			c-0.069-0.051-0.153-0.079-0.235-0.079c-0.083,0-0.165,0.028-0.234,0.079l-0.56,0.435l-0.397-0.586
			c-0.098-0.145-0.281-0.203-0.448-0.147l-0.667,0.24l-0.195-0.679c-0.051-0.168-0.216-0.283-0.382-0.277l-0.707,0.024l0.021-0.709
			c0.006-0.175-0.108-0.331-0.275-0.381l-0.681-0.198l0.24-0.665c0.06-0.165-0.001-0.348-0.147-0.448l-0.584-0.397l0.433-0.561
			c0.106-0.138,0.106-0.332,0-0.471l-0.433-0.56l0.584-0.398c0.146-0.099,0.207-0.281,0.147-0.446l-0.24-0.666l0.681-0.199
			c0.165-0.048,0.281-0.206,0.275-0.38l-0.021-0.708l0.707,0.023c0.169,0.009,0.331-0.108,0.382-0.278l0.195-0.679l0.667,0.24
			c0.165,0.056,0.348-0.002,0.448-0.146l0.397-0.586l0.56,0.434c0.139,0.105,0.334,0.105,0.472,0l0.56-0.434l0.398,0.586
			c0.098,0.145,0.283,0.203,0.446,0.146l0.668-0.24l0.197,0.679c0.048,0.166,0.201,0.284,0.38,0.278l0.708-0.023l-0.022,0.708
			c-0.006,0.174,0.109,0.332,0.277,0.38l0.681,0.199l-0.24,0.666c-0.059,0.165,0.001,0.348,0.147,0.446l0.583,0.398l-0.433,0.56
			C60.012,37.871,60.012,38.065,60.119,38.203z"/>
	</g>
	<path fill="#A7A7A7" enable-background="new    " d="M65.16,18.494H37.978c-0.723,0-1.31,0.588-1.31,1.312v20.679
		c0,0.724,0.588,1.311,1.31,1.311h11.296v-1.533H38.201V20.03h26.735v20.232h-3.145v1.533h3.367c0.723,0,1.311-0.587,1.311-1.311
		V19.807C66.472,19.082,65.884,18.494,65.16,18.494z"/>
</g>
</svg>
