<?xml version="1.0" encoding="utf-8"?>
<!-- Generator: Adobe Illustrator 16.0.4, SVG Export Plug-In . SVG Version: 6.00 Build 0)  -->
<!DOCTYPE svg PUBLIC "-//W3C//DTD SVG 1.1//EN" "http://www.w3.org/Graphics/SVG/1.1/DTD/svg11.dtd">
<svg version="1.1" id="Layer_1" xmlns="http://www.w3.org/2000/svg" xmlns:xlink="http://www.w3.org/1999/xlink" x="0px" y="0px"
	 width="68.354px" height="51.926px" viewBox="0 0 68.354 51.926" enable-background="new 0 0 68.354 51.926" xml:space="preserve">
<g>
	<g>
		<rect x="0.376" y="-0.037" fill="none" width="67.978" height="51.963"/>
	</g>
</g>
<g>
	<g>
		<path fill="#A7A7A7" d="M64.233,24.88h-7.584v-2.999c0-1.021-0.833-1.857-1.858-1.857H36.228c-1.026,0-1.859,0.836-1.859,1.857
			v12.915c0,1.025,0.833,1.859,1.859,1.859h1.386l-0.688,2.565c-0.125,0.466-0.09,0.82,0.096,1.067
			c0.136,0.177,0.345,0.276,0.572,0.276c0.262,0,0.534-0.124,0.841-0.382l4.226-3.527h1.299v2.851c0,0.941,0.766,1.707,1.709,1.707
			H55.99l4.268,3.566c0.274,0.228,0.524,0.344,0.746,0.344c0.187,0,0.349-0.077,0.453-0.216c0.158-0.208,0.184-0.521,0.072-0.938
			l-0.739-2.754h3.439c0.941,0,1.71-0.767,1.71-1.706V26.592C65.941,25.647,65.172,24.88,64.233,24.88z M38.765,36.322
			c0.005-0.014,0.01-0.029,0.015-0.041l0.178-0.651h-2.729c-0.46,0-0.831-0.374-0.831-0.834V21.881c0-0.455,0.371-0.828,0.831-0.828
			H54.79c0.456,0,0.832,0.373,0.832,0.828v12.915c0,0.46-0.376,0.831-0.832,0.831H42.288l-4.3,3.591L38.765,36.322z M54.79,36.655
			c1.025,0,1.858-0.834,1.858-1.859v-9.187h7.583c0.54,0,0.98,0.44,0.98,0.979v12.916c0,0.539-0.443,0.977-0.98,0.977h-4.396
			l0.127,0.463c0.004,0.013,0.009,0.023,0.014,0.037l0.848,3.169c0.02,0.066,0.029,0.122,0.036,0.166
			c-0.036-0.026-0.082-0.061-0.135-0.101l-4.471-3.734H45.67c-0.542,0-0.979-0.44-0.979-0.978v-2.852h10.1V36.655z"/>
	</g>
	<g>
		<ellipse fill="#A7A7A7" cx="27.429" cy="20.555" rx="1.42" ry="0.72"/>
		<path fill="#A7A7A7" d="M23.843,21.842c-1.678,0-4.347,0-5.233,0c-2.171,0-2.419,0.711-2.565,1.447
			c-0.158-0.305-0.442-0.351-0.826-0.444c-0.383-0.108-4.861-1.303-5.896-1.613c-1.037-0.308-3.012-0.953-3.314,0.086
			c-0.299,1.042-0.774,2.879,0.779,2.879c-0.062,0.925,0.594,1.02,2.347,0.956c2.221-0.08,5.753-0.148,6.972-0.152
			c-0.029,2.233,3.854,2.943,5.035,2.943c1.175,0,2.232,0,3.558,0s2.204-0.665,2.204-2.294c0-1.628-0.34-3.024-0.34-3.024
			C26.257,21.934,25.523,21.842,23.843,21.842z M25.47,26.846c-0.777,0.507-3.654,0.391-4.791,0.266
			c-1.135-0.119-3.707-0.653-3.889-1.674c-0.18-1.014-0.301-1.854,0-2.331c0.299-0.481,0.779-0.8,1.676-0.788
			c1.195,0.02,5.311,0.124,6.033,0.186c0.729,0.064,1.334,0.303,1.422,1.378C26.008,24.959,26.247,26.336,25.47,26.846z"/>
		<path fill="#A7A7A7" d="M28.297,22.625c0,0-0.338,1.396-0.338,3.024c0,1.629,0.877,2.296,2.202,2.296c0.959,0,1.773,0,2.6,0
			v-0.738c-1.279,0.042-2.83-0.01-3.368-0.361c-0.778-0.51-0.54-1.887-0.454-2.962c0.088-1.075,0.693-1.313,1.422-1.38
			c0.32-0.023,1.301-0.059,2.4-0.095v-0.567c-0.619,0-1.23,0-1.742,0C29.335,21.842,28.603,21.934,28.297,22.625z"/>
		<path fill="#A7A7A7" d="M18.271,30.274c-0.424-0.808-2.273-1.078-4.848-1.318c-2.578-0.243-4.098-0.423-4.824-0.449
			c-0.729-0.032-1.629-0.218-1.573,1.198s0.173,2.381,1.759,2.562c1.584,0.191,4.409,0.353,6.09,0.479
			c1.684,0.127,4.01,0.424,3.82-0.311c1.625-0.072,0.658,0.545,1.927,0.579c1.267,0.035,7.309,0,7.309,0s2.665,0.019,4.829,0.019
			v-2.734l-4.829,0.021L18.271,30.274z"/>
		<path fill="#A7A7A7" d="M21.775,35.7c-1.686-0.067-4.396-0.206-4.949-0.312c-0.088-0.021-0.18-0.036-0.283-0.059
			c-0.722-0.146-1.708-0.345-3.27-0.345c-0.238,0-0.483,0.007-0.721,0.017c-3.59-0.069-7.686-0.173-8.41-0.265
			c-0.348-0.043-0.385-0.049-0.428-0.798l-0.037-0.645c-0.098-1.672-0.197-3.407-0.213-4.514c-0.025-2.07,0.4-6.906,0.979-7.852
			c1.199-1.943,5.02-4.026,5.479-4.273h35.034c0.231,0.125,1.314,0.711,2.493,1.521l0.055,0.035h1.784l-0.504-0.379
			c-0.783-0.584-1.58-1.093-2.189-1.459h0.573c0.518,0,2.098,0,2.098-1.439c0-1.093-1.232-1.413-1.891-1.432
			c0,0-0.698-0.006-1.289,0c-0.371,0.002-1.132,0.005-1.171,0.77c-1.291-2.454-3.575-5.516-5.354-6.7
			c-0.623-0.418-1.389-0.431-1.396-0.431H38.16c-4.581-0.335-10.606-0.34-10.667-0.34h-0.102c-0.062,0-6.099,0.003-10.652,0.34
			c-0.078,0.002-0.805,0.023-1.414,0.428c-1.795,1.194-4.095,4.284-5.382,6.75c-0.01-0.809-0.794-0.814-1.174-0.816
			c-0.591-0.006-1.286,0-1.291,0c-0.653,0.019-1.889,0.339-1.889,1.432c0,1.439,1.579,1.439,2.098,1.439h0.597
			c-1.441,0.866-3.764,2.424-4.738,4c-0.852,1.386-1.154,6.867-1.131,8.416c0.01,1.132,0.113,2.873,0.211,4.563l0.148,2.805
			c0.057,1.504,0.75,2.207,2.182,2.207h5.659c0.804,0,1.436-0.254,1.872-0.75c0.053-0.061,0.102-0.127,0.156-0.208l0.04-0.063
			c0.034-0.053,0.063-0.105,0.103-0.177l0.023-0.043c0.033-0.071,0.065-0.146,0.092-0.215l0.01-0.028
			c0.023-0.063,0.044-0.124,0.062-0.188l0.018-0.066c0.014-0.053,0.023-0.104,0.035-0.156l0.011-0.054
			c0.013-0.067,0.023-0.132,0.028-0.194l0.004-0.039c0.005-0.044,0.011-0.097,0.014-0.144c0.063-0.003,0.127-0.003,0.189-0.003
			c1.455,0,2.385,0.192,3.074,0.331c0.099,0.018,0.194,0.039,0.28,0.053c0.845,0.163,5.072,0.328,5.122,0.331l5.609,0.03l5.4-0.03
			V35.7l-5.243,0.032L21.775,35.7z M15.909,8.45c0.345-0.23,0.814-0.25,0.879-0.25c4.547-0.338,10.543-0.342,10.604-0.342h0.102
			c0.061,0,6.057,0.004,10.633,0.342c0.004,0,0.494,0.014,0.849,0.25c1.756,1.172,4.079,4.384,5.237,6.763h-33.54
			C11.836,12.822,14.154,9.618,15.909,8.45z"/>
	</g>
	<polygon fill="#A7A7A7" enable-background="new    " points="46.604,23.814 44.991,27.641 43.377,23.814 41.578,23.814 
		43.61,28.411 42.525,28.411 42.525,29.371 44.04,29.371 44.04,30.356 42.525,30.356 42.525,31.31 44.04,31.31 44.04,33.313 
		45.861,33.313 45.861,31.31 47.375,31.31 47.375,30.356 45.861,30.356 45.861,29.371 47.375,29.371 47.375,28.411 46.277,28.411 
		48.307,23.814 	"/>
</g>
</svg>
