<?xml version="1.0" encoding="utf-8"?>
<!-- Generator: Adobe Illustrator 16.0.0, SVG Export Plug-In . SVG Version: 6.00 Build 0)  -->
<!DOCTYPE svg PUBLIC "-//W3C//DTD SVG 1.1//EN" "http://www.w3.org/Graphics/SVG/1.1/DTD/svg11.dtd">
<svg version="1.1" id="Layer_1" xmlns="http://www.w3.org/2000/svg" xmlns:xlink="http://www.w3.org/1999/xlink" x="0px" y="0px"
	 width="68.354px" height="51.926px" viewBox="0 0 68.354 51.926" enable-background="new 0 0 68.354 51.926" xml:space="preserve">
<g opacity="0.6">
	<rect x="0" y="-0.001" fill="none" width="68.354" height="51.928"/>
</g>
<g opacity="0.6">
	<path fill="#FFFFFF" d="M33.786,24.191c0-0.311-0.49-0.561-1.091-0.561c-0.609,0-1.102,0.25-1.102,0.561
		c0,0.305,0.492,0.555,1.102,0.555C33.296,24.746,33.786,24.495,33.786,24.191z"/>
	<path fill="#FFFFFF" d="M18.583,27.731c1.712-0.062,4.434-0.115,5.378-0.115c-0.027,1.723,2.971,2.27,3.88,2.27
		c0.903,0,1.721,0,2.744,0s1.698-0.516,1.698-1.769c0-1.257-0.257-2.337-0.257-2.337c-0.24-0.531-0.805-0.6-2.102-0.6
		c-1.292,0-3.353,0-4.033,0c-1.677,0-1.867,0.547-1.979,1.115c-0.125-0.235-0.34-0.27-0.636-0.345
		c-0.293-0.081-3.751-1.005-4.551-1.242c-0.796-0.237-2.317-0.737-2.552,0.066c-0.232,0.804-0.597,2.221,0.599,2.221
		C16.725,27.708,17.232,27.784,18.583,27.731z M24.485,26.155c0.232-0.371,0.604-0.614,1.295-0.606
		c0.92,0.014,4.096,0.098,4.651,0.144c0.565,0.047,1.03,0.229,1.096,1.063c0.066,0.829,0.252,1.893-0.348,2.284
		c-0.597,0.389-2.816,0.304-3.69,0.205c-0.878-0.096-2.865-0.506-3.005-1.293C24.348,27.171,24.254,26.521,24.485,26.155z"/>
	<path fill="#FFFFFF" d="M33.36,25.783c0,0-0.262,1.077-0.262,2.334c0,1.253,0.68,1.769,1.698,1.769c0.741,0,1.372,0,2.007,0v-0.566
		c-0.988,0.031-2.185-0.008-2.599-0.279c-0.602-0.392-0.418-1.455-0.353-2.284c0.071-0.831,0.539-1.015,1.099-1.063
		c0.249-0.019,1.001-0.048,1.853-0.074v-0.438c-0.482,0-0.947,0-1.346,0C34.16,25.181,33.593,25.249,33.36,25.783z"/>
	<path fill="#FFFFFF" d="M36.8,31.7l-3.719,0.018l-7.453-0.036c-0.329-0.623-1.754-0.833-3.742-1.015
		c-1.984-0.186-3.156-0.323-3.717-0.346c-0.561-0.026-1.255-0.172-1.213,0.921c0.043,1.096,0.134,1.838,1.355,1.977
		c1.223,0.146,3.401,0.274,4.698,0.366c1.3,0.099,3.093,0.329,2.948-0.235c1.251-0.054,0.507,0.419,1.483,0.446
		c0.979,0.024,5.635,0,5.635,0s2.058,0.011,3.727,0.011V31.7H36.8z"/>
	<path fill="#FFFFFF" d="M28.331,35.866c-1.304-0.049-3.391-0.159-3.82-0.238c-0.066-0.016-0.137-0.028-0.218-0.044
		c-0.555-0.114-1.313-0.269-2.518-0.269c-0.186,0-0.374,0.005-0.558,0.013c-2.771-0.049-5.926-0.13-6.487-0.203
		c-0.264-0.032-0.293-0.036-0.328-0.613l-0.03-0.499c-0.073-1.292-0.151-2.627-0.163-3.481c-0.021-1.598,0.308-5.328,0.753-6.05
		c0.928-1.502,3.871-3.11,4.227-3.298h21.279h5.737h1.615c-0.123-0.079-0.239-0.15-0.35-0.217h0.44c0.401,0,1.62,0,1.62-1.11
		c0-0.843-0.955-1.09-1.461-1.104c0,0-0.541-0.005-0.994,0c-0.286,0.001-0.871,0.006-0.903,0.594
		c-0.998-1.893-2.76-4.255-4.13-5.168c-0.482-0.319-1.069-0.332-1.071-0.332h-0.008c-3.534-0.26-8.18-0.263-8.224-0.263H32.66
		c-0.045,0-4.701,0.002-8.209,0.262c-0.064,0.001-0.623,0.02-1.094,0.329c-1.382,0.922-3.157,3.306-4.152,5.208
		c-0.008-0.625-0.612-0.629-0.905-0.63c-0.453-0.006-0.989,0-0.996,0c-0.497,0.014-1.454,0.261-1.454,1.104
		c0,1.11,1.219,1.11,1.617,1.11h0.462c-1.113,0.667-2.904,1.87-3.653,3.086c-0.656,1.067-0.891,5.293-0.876,6.49
		c0.012,0.872,0.086,2.215,0.167,3.517l0.113,2.163c0.044,1.162,0.577,1.702,1.679,1.702h4.367c0.623,0,1.106-0.195,1.442-0.579
		c0.044-0.048,0.078-0.097,0.123-0.159l0.034-0.05c0.02-0.041,0.049-0.08,0.076-0.136l0.017-0.034
		c0.025-0.054,0.051-0.11,0.071-0.166l0.007-0.021c0.018-0.049,0.034-0.097,0.046-0.145l0.017-0.052
		c0.005-0.04,0.018-0.078,0.024-0.118l0.008-0.043c0.012-0.052,0.019-0.104,0.024-0.149l0.002-0.031
		c0.002-0.037,0.007-0.074,0.007-0.108c0.052-0.001,0.103-0.001,0.149-0.001c1.123,0,1.838,0.144,2.372,0.252
		c0.076,0.016,0.146,0.029,0.218,0.046c0.65,0.121,3.91,0.251,3.947,0.253l4.326,0.021l4.165-0.021v-0.812l-4.045,0.023
		L28.331,35.866z M23.807,14.854c0.267-0.177,0.628-0.194,0.675-0.197c3.509-0.258,8.133-0.261,8.176-0.261h0.083
		c0.044,0,4.671,0.002,8.2,0.263c0.006,0,0.382,0.01,0.653,0.194c1.355,0.902,3.146,3.379,4.039,5.21H19.772
		C20.67,18.224,22.454,15.756,23.807,14.854z"/>
	<path fill="#FFFFFF" d="M60.58,46.61l-6.188-5.647c-0.354-0.326-0.379-0.876-0.054-1.229c0.003-0.005,0.008-0.009,0.012-0.014
		l-2.084-1.903c-1.4,1.228-3.165,1.937-5.049,2.025c-2.175,0.098-4.265-0.648-5.884-2.103c-1.643-1.472-2.614-3.495-2.733-5.696
		c-0.121-2.202,0.624-4.318,2.097-5.959c1.471-1.642,3.494-2.614,5.696-2.733c2.202-0.12,4.318,0.625,5.961,2.095
		c1.64,1.473,2.611,3.498,2.731,5.699c0.107,1.959-0.472,3.851-1.636,5.4l2.073,1.89c0.002-0.003,0.007-0.007,0.012-0.012
		c0.322-0.354,0.872-0.38,1.228-0.056l6.187,5.652L60.58,46.61z M46.549,25.083c-0.021,0.001-0.041,0.001-0.062,0.004
		c-1.738,0.093-3.338,0.861-4.499,2.155c-1.161,1.298-1.75,2.968-1.654,4.708c0.096,1.736,0.86,3.336,2.156,4.498
		c1.28,1.146,2.931,1.734,4.646,1.656c1.718-0.076,3.306-0.812,4.478-2.071l0.061-0.063c0.007-0.011,0.014-0.017,0.021-0.025
		c1.162-1.298,1.749-2.967,1.653-4.707c-0.093-1.738-0.858-3.333-2.156-4.497C49.911,25.593,48.264,25.006,46.549,25.083z"/>
</g>
</svg>
