<?xml version="1.0" encoding="utf-8"?>
<!-- Generator: Adobe Illustrator 16.0.4, SVG Export Plug-In . SVG Version: 6.00 Build 0)  -->
<!DOCTYPE svg PUBLIC "-//W3C//DTD SVG 1.1//EN" "http://www.w3.org/Graphics/SVG/1.1/DTD/svg11.dtd">
<svg version="1.1" id="Layer_1" xmlns="http://www.w3.org/2000/svg" xmlns:xlink="http://www.w3.org/1999/xlink" x="0px" y="0px"
	 width="68.354px" height="51.926px" viewBox="0 0 68.354 51.926" enable-background="new 0 0 68.354 51.926" xml:space="preserve">
<g>
	<rect x="0.376" y="-0.037" fill="none" width="67.978" height="51.963"/>
</g>
<g>
	<g>
		<ellipse fill="#A7A7A7" cx="38.779" cy="25.329" rx="1.494" ry="0.758"/>
		<path fill="#A7A7A7" d="M19.546,30.16c2.333-0.084,6.044-0.156,7.327-0.158c-0.033,2.348,4.053,3.092,5.293,3.092
			c1.238,0,2.348,0,3.742,0s2.318-0.699,2.318-2.412s-0.355-3.178-0.355-3.178c-0.323-0.729-1.097-0.824-2.861-0.824
			c-1.764,0-4.568,0-5.5,0c-2.287,0-2.545,0.744-2.7,1.52c-0.168-0.32-0.465-0.365-0.866-0.469c-0.402-0.111-5.113-1.369-6.2-1.694
			c-1.09-0.321-3.165-1.002-3.484,0.093c-0.314,1.093-0.812,3.027,0.818,3.027C17.012,30.127,17.702,30.225,19.546,30.16z
			 M27.593,28.012c0.316-0.504,0.821-0.84,1.759-0.828c1.259,0.018,5.584,0.131,6.346,0.195c0.765,0.064,1.403,0.312,1.493,1.445
			c0.092,1.135,0.343,2.578-0.477,3.113c-0.815,0.533-3.839,0.416-5.032,0.285c-1.196-0.127-3.899-0.691-4.091-1.76
			C27.405,29.393,27.276,28.512,27.593,28.012z"/>
		<path fill="#A7A7A7" d="M57.817,26.037c-1.088,0.325-5.799,1.583-6.2,1.694c-0.401,0.104-0.699,0.148-0.867,0.469
			c-0.155-0.773-0.417-1.518-2.699-1.518c-0.932,0-3.737,0-5.501,0c-1.766,0-2.537,0.094-2.86,0.822c0,0-0.354,1.465-0.354,3.178
			s0.926,2.414,2.316,2.414c1.395,0,2.502,0,3.741,0c1.24,0,5.326-0.746,5.292-3.094c1.284,0.002,4.996,0.074,7.33,0.158
			c1.844,0.068,2.535-0.033,2.47-1.002c1.63,0,1.132-1.932,0.818-3.029C60.982,25.037,58.906,25.715,57.817,26.037z M49.964,30.463
			c-0.19,1.07-2.894,1.633-4.09,1.76c-1.194,0.131-4.215,0.248-5.032-0.285c-0.818-0.535-0.566-1.979-0.479-3.113
			c0.095-1.133,0.731-1.381,1.496-1.445c0.762-0.064,5.088-0.178,6.344-0.195c0.941-0.012,1.447,0.32,1.759,0.828
			C50.28,28.512,50.154,29.393,49.964,30.463z"/>
		<path fill="#A7A7A7" d="M58.605,33.688c-0.763,0.031-2.362,0.219-5.07,0.469c-2.711,0.256-4.648,0.539-5.097,1.389l-9.643,0.041
			l-9.647-0.041c-0.446-0.85-2.389-1.133-5.097-1.389c-2.707-0.25-4.307-0.438-5.07-0.469c-0.767-0.033-1.712-0.23-1.655,1.258
			c0.06,1.49,0.182,2.502,1.851,2.693c1.666,0.197,4.637,0.365,6.403,0.5s4.212,0.445,4.016-0.326
			c1.708-0.074,0.691,0.572,2.024,0.611c1.101,0.033,5.636,0.012,7.171,0.006c1.537,0.006,6.069,0.027,7.17-0.006
			c1.336-0.035,0.317-0.686,2.027-0.611c-0.2,0.771,2.246,0.461,4.016,0.326c1.767-0.135,4.736-0.303,6.404-0.5
			c1.664-0.191,1.788-1.205,1.848-2.693C60.319,33.457,59.372,33.654,58.605,33.688z"/>
		<path fill="#A7A7A7" d="M63.886,25.143c-1.022-1.66-3.462-3.298-4.979-4.209h0.628c0.545,0,2.205,0,2.205-1.512
			c0-1.151-1.297-1.49-1.983-1.507c-0.007,0-0.741-0.003-1.36,0c-0.395,0.005-1.223,0.012-1.231,0.862
			c-1.354-2.592-3.773-5.842-5.661-7.096c-0.64-0.428-1.404-0.45-1.488-0.451c-4.788-0.354-11.132-0.358-11.195-0.358h-0.041H38.74
			c-0.065,0-6.408,0.003-11.197,0.358c-0.085,0.001-0.848,0.026-1.488,0.451c-1.889,1.253-4.307,4.504-5.662,7.096
			c-0.011-0.85-0.835-0.857-1.232-0.862c-0.622-0.003-1.354,0-1.361,0c-0.686,0.018-1.983,0.357-1.983,1.507
			c0,1.512,1.66,1.512,2.206,1.512h0.628c-1.516,0.91-3.958,2.549-4.98,4.209c-0.896,1.457-1.213,7.216-1.192,8.845
			c0.014,1.189,0.121,3.021,0.224,4.799l0.159,2.949c0.059,1.58,0.787,2.32,2.291,2.32h5.951c2.566,0,2.592-2.398,2.595-2.445
			c0.067,0,0.133,0,0.199,0c1.53,0,2.507,0.193,3.233,0.344c0.103,0.02,0.201,0.039,0.293,0.055c0.89,0.17,5.333,0.346,5.383,0.35
			l5.898,0.031h0.074h0.075l5.895-0.031c0.053-0.004,4.497-0.178,5.387-0.35c0.094-0.016,0.191-0.035,0.295-0.055
			c0.727-0.15,1.701-0.344,3.231-0.344c0.065,0,0.134,0,0.199,0c0.006,0.047,0.031,2.445,2.595,2.445h5.95
			c1.506,0,2.233-0.74,2.292-2.32l0.159-2.949c0.103-1.777,0.209-3.609,0.224-4.799C65.103,32.359,64.782,26.6,63.886,25.143z
			 M26.668,12.602c0.362-0.24,0.858-0.262,0.923-0.265c4.78-0.356,11.085-0.359,11.149-0.359h0.038h0.041
			c0.063,0,6.368,0.006,11.148,0.359c0.066,0.003,0.561,0.024,0.923,0.265c1.847,1.227,4.279,4.596,5.505,7.109H38.779H21.161
			C22.387,17.196,24.821,13.829,26.668,12.602z M63.97,33.977c-0.013,1.164-0.118,2.986-0.221,4.744l-0.037,0.682
			c-0.047,0.783-0.088,0.791-0.451,0.836c-0.762,0.098-5.067,0.207-8.844,0.275c-0.249-0.01-0.507-0.014-0.756-0.014
			c-1.642,0-2.681,0.211-3.438,0.365c-0.107,0.021-0.205,0.039-0.298,0.059c-0.579,0.111-3.428,0.254-5.203,0.326l-5.944,0.033
			l-5.945-0.033c-1.771-0.072-4.623-0.215-5.203-0.326c-0.091-0.02-0.188-0.037-0.297-0.059c-0.761-0.154-1.796-0.365-3.437-0.365
			c-0.25,0-0.509,0.004-0.756,0.014c-3.775-0.068-8.082-0.178-8.842-0.275c-0.365-0.045-0.404-0.053-0.449-0.836l-0.039-0.682
			c-0.103-1.758-0.208-3.58-0.221-4.744c-0.031-2.178,0.418-7.264,1.026-8.252c1.26-2.044,5.277-4.237,5.761-4.495h18.405h18.404
			c0.485,0.258,4.501,2.451,5.762,4.495C63.553,26.713,64.001,31.799,63.97,33.977z"/>
	</g>
	<path fill="#A7A7A7" enable-background="new    " d="M12.517,34.68c-0.286-0.016,0.415-0.027,0.077-0.027
		c-0.227,0,0.542,0.002,0.317,0.012c-3.414-0.062-7.307-0.162-7.995-0.248c-0.331-0.043-0.364-0.047-0.407-0.76l-0.036-0.613
		c-0.094-1.59-0.187-3.236-0.201-4.289c-0.026-1.969,0.379-6.566,0.928-7.459c1.141-1.849,4.772-3.831,5.209-4.066h9.107l1-1.37
		h-9.395c1.106-2.275,3.307-5.316,4.977-6.427c0.328-0.218,0.774-0.235,0.834-0.238c4.32-0.323,10.021-0.326,10.079-0.326h0.038
		h0.036c0.057,0,5.754,0.006,10.079,0.326c0.059,0.003,0.505,0.022,0.833,0.238c0.521,0.345,1.095,0.894,1.674,1.54h1.305
		c-0.82-1.005-1.671-1.871-2.425-2.372c-0.578-0.385-1.27-0.407-1.345-0.407c-4.331-0.32-10.064-0.324-10.121-0.324h-0.036h-0.038
		c-0.059,0-5.794,0.003-10.121,0.324c-0.08,0-0.767,0.022-1.347,0.407c-1.707,1.133-3.891,4.072-5.117,6.413
		c-0.01-0.764-0.756-0.773-1.116-0.776c-0.561-0.003-1.221,0-1.227,0c-0.619,0.015-1.792,0.323-1.792,1.36
		c0,1.367,1.498,1.367,1.992,1.367h0.567c-1.37,0.823-3.577,2.302-4.501,3.803c-0.812,1.318-1.098,6.524-1.079,7.999
		c0.014,1.074,0.11,2.732,0.202,4.34l0.143,2.662c0.051,1.428,0.709,2.098,2.071,2.098h5.379c2.32,0,2.342-2.166,2.345-2.211
		c0.061,0,0.123,0,0.182,0c0.336,0-1.358,0.012-1.077,0.031l1-1.006H12.517z"/>
	<path fill="#A7A7A7" enable-background="new    " d="M13.797,28.924c-0.02-0.002-0.041-0.002-0.062-0.006
		c-2.448-0.227-3.895-0.398-4.583-0.428c-0.693-0.029-1.547-0.207-1.497,1.141c0.053,1.344,0.165,2.262,1.674,2.434
		c1.142,0.139,2.958,0.258,4.468,0.363V28.924z"/>
	<path fill="#A7A7A7" enable-background="new    " d="M13.439,22.569c-1.373-0.369-3.031-0.823-3.601-0.991
		c-0.985-0.292-2.86-0.902-3.148,0.084C6.407,22.652,5.956,24.4,7.429,24.4c-0.06,0.874,0.563,0.965,2.231,0.906
		c1.086-0.039,2.497-0.077,3.775-0.102v-2.636H13.439z"/>
</g>
</svg>
