<?xml version="1.0" encoding="utf-8"?>
<!-- Generator: Adobe Illustrator 16.0.4, SVG Export Plug-In . SVG Version: 6.00 Build 0)  -->
<!DOCTYPE svg PUBLIC "-//W3C//DTD SVG 1.1//EN" "http://www.w3.org/Graphics/SVG/1.1/DTD/svg11.dtd">
<svg version="1.1" id="Layer_1" xmlns="http://www.w3.org/2000/svg" xmlns:xlink="http://www.w3.org/1999/xlink" x="0px" y="0px"
	 width="68.354px" height="51.926px" viewBox="0 0 68.354 51.926" enable-background="new 0 0 68.354 51.926" xml:space="preserve">
<g>
	<rect x="0.376" y="-0.037" fill="none" width="67.978" height="51.963"/>
</g>
<g>
	<g>
		<ellipse fill="#A7A7A7" cx="31.063" cy="22.623" rx="1.569" ry="0.8"/>
		<path fill="#A7A7A7" d="M10.842,27.702c2.455-0.09,6.357-0.165,7.706-0.167c-0.033,2.474,4.259,3.253,5.563,3.253
			c1.3,0,2.468,0,3.932,0c1.465,0,2.438-0.737,2.438-2.536c0-1.801-0.374-3.343-0.374-3.343c-0.341-0.767-1.151-0.865-3.007-0.865
			s-4.804,0-5.784,0c-2.4,0-2.675,0.785-2.837,1.599c-0.177-0.335-0.49-0.391-0.914-0.495c-0.42-0.115-5.373-1.439-6.517-1.778
			c-1.146-0.345-3.326-1.056-3.664,0.094c-0.33,1.151-0.854,3.183,0.86,3.183C8.178,27.669,8.904,27.771,10.842,27.702z
			 M19.304,25.439c0.33-0.53,0.862-0.882,1.852-0.867c1.323,0.021,5.868,0.136,6.671,0.205c0.804,0.068,1.474,0.331,1.572,1.521
			c0.092,1.192,0.359,2.711-0.504,3.276c-0.859,0.561-4.035,0.435-5.291,0.297c-1.259-0.139-4.101-0.728-4.301-1.854
			C19.105,26.894,18.972,25.967,19.304,25.439z"/>
		<path fill="#A7A7A7" d="M32.019,24.909c0,0-0.372,1.542-0.372,3.343c0,1.799,0.972,2.536,2.437,2.536c1.059,0,1.961,0,2.868,0
			v-0.815c-1.41,0.048-3.124-0.012-3.718-0.399c-0.862-0.563-0.6-2.083-0.506-3.274c0.099-1.192,0.77-1.453,1.574-1.523
			c0.355-0.03,1.438-0.07,2.65-0.105v-0.628c-0.686,0-1.355,0-1.926,0C33.172,24.044,32.359,24.143,32.019,24.909z"/>
	</g>
	<path fill="#A7A7A7" d="M36.952,33.388l-5.332,0.024l-10.68-0.048c-0.473-0.895-2.513-1.191-5.36-1.457
		c-2.849-0.267-4.528-0.465-5.331-0.497c-0.806-0.033-1.803-0.24-1.741,1.321c0.059,1.566,0.192,2.633,1.942,2.837
		c1.753,0.205,4.876,0.387,6.736,0.523c1.859,0.145,4.429,0.469,4.22-0.342c1.797-0.079,0.728,0.603,2.129,0.645
		c1.401,0.036,8.078,0,8.078,0s2.949,0.016,5.337,0.016L36.952,33.388L36.952,33.388z"/>
	<path fill="#A7A7A7" d="M24.812,39.361c-1.864-0.075-4.857-0.228-5.468-0.346c-0.098-0.018-0.203-0.038-0.313-0.061
		c-0.798-0.159-1.889-0.384-3.615-0.384c-0.261,0-0.535,0.009-0.797,0.018c-3.968-0.072-8.495-0.19-9.295-0.291
		c-0.386-0.046-0.426-0.051-0.476-0.879l-0.04-0.715c-0.108-1.85-0.219-3.767-0.235-4.988c-0.03-2.291,0.442-7.637,1.081-8.677
		c1.324-2.149,5.548-4.456,6.057-4.726h30.5h8.223h2.316c-0.177-0.109-0.347-0.215-0.507-0.312h0.633c0.574,0,2.32,0,2.32-1.586
		c0-1.21-1.364-1.566-2.092-1.586c0,0-0.77-0.005-1.421,0c-0.412,0.003-1.255,0.01-1.295,0.852
		c-1.434-2.714-3.956-6.097-5.925-7.408c-0.688-0.459-1.53-0.472-1.54-0.472h-0.006c-5.062-0.375-11.723-0.378-11.791-0.378h-0.112
		c-0.069,0-6.739,0.003-11.773,0.378c-0.089,0-0.891,0.025-1.563,0.472c-1.985,1.32-4.527,4.738-5.951,7.461
		c-0.01-0.895-0.877-0.901-1.296-0.904c-0.653-0.005-1.419,0-1.427,0c-0.722,0.02-2.087,0.374-2.087,1.586
		c0,1.586,1.746,1.586,2.318,1.586h0.66c-1.595,0.957-4.161,2.681-5.237,4.427c-0.944,1.533-1.278,7.586-1.257,9.302
		c0.016,1.248,0.128,3.173,0.236,5.043l0.166,3.098c0.063,1.666,0.829,2.439,2.411,2.439h6.257c0.889,0,1.585-0.278,2.069-0.831
		c0.057-0.066,0.111-0.139,0.173-0.226l0.044-0.074c0.036-0.055,0.071-0.114,0.112-0.19l0.026-0.049
		c0.039-0.081,0.072-0.16,0.103-0.239l0.01-0.032c0.028-0.068,0.049-0.14,0.068-0.209l0.02-0.071
		c0.015-0.062,0.029-0.117,0.039-0.173l0.012-0.063c0.014-0.074,0.024-0.146,0.033-0.212l0.003-0.042
		c0.007-0.055,0.011-0.109,0.014-0.16c0.071,0,0.141,0,0.212,0c1.608,0,2.635,0.208,3.396,0.362
		c0.112,0.021,0.213,0.043,0.312,0.061c0.934,0.179,5.604,0.362,5.66,0.365l6.199,0.036l5.966-0.034v-1.164l-5.79,0.031
		L24.812,39.361z M18.33,9.242c0.38-0.255,0.9-0.279,0.973-0.279c5.024-0.372,11.652-0.378,11.72-0.378h0.112
		c0.066,0,6.696,0.006,11.753,0.378c0.004,0,0.547,0.019,0.938,0.277c1.943,1.294,4.509,4.846,5.789,7.471H12.544
		C13.83,14.074,16.39,10.531,18.33,9.242z"/>
	<g>
		<path fill="#A7A7A7" d="M52.641,26.717c-0.754,0-1.489,0.153-2.185,0.461c-1.339,0.585-2.367,1.655-2.897,3.017
			c-0.53,1.357-0.505,2.842,0.083,4.177c0.871,1.988,2.835,3.272,5.007,3.272c0.757,0,1.492-0.155,2.188-0.458
			c1.337-0.587,2.367-1.657,2.897-3.018c0.53-1.359,0.5-2.844-0.083-4.178C56.779,27.999,54.814,26.717,52.641,26.717z
			 M56.819,33.812c-0.437,1.113-1.28,1.991-2.376,2.473c-0.573,0.252-1.177,0.379-1.795,0.379c-1.782,0-3.395-1.055-4.107-2.686
			c-0.48-1.099-0.506-2.314-0.069-3.433c0.437-1.115,1.279-1.992,2.377-2.473c0.572-0.25,1.176-0.374,1.793-0.374
			c1.783,0,3.397,1.052,4.11,2.683C57.231,31.479,57.257,32.695,56.819,33.812z"/>
		<path fill="#A7A7A7" d="M62.712,33.033l-0.046-2.147l2.172-1.755l-1.868-4.109l-2.749,0.465l-1.287-1.22l0.337-2.766l-4.202-1.648
			l-1.654,2.25l-1.925,0.036l-1.722-2.191l-4.14,1.81l0.426,2.758l-1.268,1.307l-2.762-0.358l-1.686,4.188l2.24,1.676l0.045,2.144
			l-2.17,1.755l1.865,4.106l2.751-0.459l1.286,1.217l-0.334,2.767l4.2,1.646l1.655-2.248l1.925-0.037l1.722,2.191l4.136-1.811
			l-0.422-2.758l1.265-1.309l2.764,0.36l1.686-4.188L62.712,33.033z M62.641,37.825l-2.499-0.324l-1.947,2.01l0.385,2.493
			l-2.752,1.201l-1.553-1.977l-2.899,0.055l-1.495,2.034l-2.796-1.095l0.306-2.501l-2-1.896l-2.489,0.42l-1.242-2.735l1.954-1.579
			l-0.066-3.104l-2.016-1.512l1.119-2.783l2.496,0.325l1.95-2.007l-0.385-2.494l2.749-1.207l1.555,1.979l2.899-0.058l1.494-2.03
			l2.794,1.097L57.9,24.639l1.997,1.896l2.491-0.421l1.242,2.736l-1.956,1.577l0.068,3.105l2.016,1.51L62.641,37.825z"/>
	</g>
</g>
</svg>
