<?xml version="1.0" encoding="utf-8"?>
<!-- Generator: Adobe Illustrator 16.0.4, SVG Export Plug-In . SVG Version: 6.00 Build 0)  -->
<!DOCTYPE svg PUBLIC "-//W3C//DTD SVG 1.1//EN" "http://www.w3.org/Graphics/SVG/1.1/DTD/svg11.dtd">
<svg version="1.1" id="Layer_1" xmlns="http://www.w3.org/2000/svg" xmlns:xlink="http://www.w3.org/1999/xlink" x="0px" y="0px"
	 width="68.354px" height="51.926px" viewBox="0 0 68.354 51.926" enable-background="new 0 0 68.354 51.926" xml:space="preserve">
<g>
	<rect x="0.376" y="-0.037" fill="none" width="67.978" height="51.963"/>
</g>
<g>
	<path fill="#A7A7A7" d="M28.172,17.694c0-0.381-0.599-0.685-1.335-0.685c-0.746,0-1.348,0.304-1.348,0.685
		c0,0.373,0.603,0.681,1.348,0.681C27.573,18.373,28.172,18.064,28.172,17.694z"/>
	<path fill="#A7A7A7" d="M23.445,18.906c-1.582,0-4.102,0-4.936,0c-2.051,0-2.286,0.669-2.422,1.363
		c-0.153-0.286-0.416-0.328-0.779-0.422c-0.358-0.1-4.591-1.229-5.569-1.521c-0.973-0.29-2.835-0.9-3.123,0.082
		c-0.285,0.982-0.73,2.715,0.733,2.715c-0.056,0.875,0.563,0.968,2.217,0.903c2.096-0.074,5.426-0.143,6.582-0.143
		c-0.034,2.109,3.635,2.779,4.75,2.779c1.105,0,2.104,0,3.357,0c1.25,0,2.078-0.631,2.078-2.165c0-1.539-0.316-2.859-0.316-2.859
		C25.725,18.989,25.032,18.906,23.445,18.906z M24.982,23.63c-0.73,0.475-3.446,0.371-4.515,0.251
		c-1.075-0.117-3.507-0.62-3.679-1.583c-0.167-0.958-0.281-1.753,0-2.201c0.284-0.452,0.74-0.751,1.584-0.74
		c1.126,0.019,5.013,0.121,5.693,0.176c0.692,0.06,1.261,0.281,1.341,1.301C25.487,21.849,25.716,23.151,24.982,23.63z"/>
	<path fill="#A7A7A7" d="M56.711,35.992c-0.48-0.44-1.229-0.406-1.67,0.076c-0.008,0.008-0.013,0.015-0.02,0.018l-2.819-2.573
		c1.586-2.112,2.372-4.686,2.228-7.352c-0.166-2.993-1.485-5.751-3.72-7.755c-2.236-2.002-5.113-3.015-8.113-2.853
		c-2.994,0.163-5.749,1.485-7.753,3.72c-2.003,2.233-3.018,5.114-2.854,8.112c0.163,2.995,1.483,5.75,3.72,7.753
		c2.204,1.978,5.048,2.994,8.01,2.861c2.564-0.119,4.966-1.085,6.875-2.755l2.833,2.59l-0.018,0.021
		c-0.438,0.479-0.402,1.227,0.078,1.671l8.423,7.687l3.223-3.528L56.711,35.992z M49.815,32.696
		c-0.011,0.014-0.018,0.022-0.028,0.031l-0.081,0.088c-1.595,1.714-3.76,2.717-6.099,2.82c-2.333,0.105-4.579-0.698-6.321-2.254
		c-1.766-1.585-2.807-3.761-2.934-6.126c-0.13-2.364,0.668-4.642,2.252-6.406c1.581-1.761,3.757-2.807,6.12-2.933
		c0.028-0.004,0.059-0.004,0.085-0.005c2.338-0.105,4.577,0.693,6.32,2.254c1.769,1.584,2.809,3.755,2.939,6.123
		C52.198,28.656,51.398,30.93,49.815,32.696z"/>
	<path fill="#A7A7A7" d="M28.739,32.005l-1.832,0.01l-5.41-0.033c-1.596-0.06-4.152-0.191-4.675-0.289
		c-0.081-0.02-0.167-0.035-0.267-0.055c-0.68-0.138-1.609-0.328-3.082-0.328c-0.227,0-0.458,0.008-0.683,0.015
		c-3.389-0.061-7.253-0.16-7.939-0.248c-0.323-0.04-0.358-0.043-0.401-0.751l-0.035-0.61c-0.091-1.581-0.187-3.215-0.201-4.259
		c-0.025-1.957,0.376-6.521,0.922-7.405c1.134-1.839,4.737-3.806,5.171-4.038h25.647c0.931-0.527,1.922-0.983,2.962-1.367H11.02
		c1.099-2.254,3.283-5.274,4.938-6.377c0.328-0.218,0.77-0.236,0.826-0.241c4.295-0.316,9.956-0.318,10.006-0.318h0.102
		c0.054,0,5.718,0.002,10.035,0.323c0,0,0.468,0.012,0.8,0.236c1.441,0.959,3.285,3.376,4.463,5.465
		c0.339-0.066,0.682-0.125,1.029-0.176c-1.237-2.28-3.314-5.033-4.941-6.117c-0.592-0.391-1.309-0.405-1.309-0.405h-0.013
		c-4.323-0.319-10.01-0.323-10.064-0.323h-0.099c-0.053,0-5.753,0.004-10.046,0.32c-0.079,0.003-0.762,0.024-1.34,0.403
		c-1.692,1.129-3.863,4.048-5.082,6.375c-0.008-0.764-0.75-0.77-1.107-0.771c-0.555-0.009-1.211,0-1.219,0
		c-0.608,0.016-1.778,0.318-1.778,1.351c0,1.358,1.49,1.358,1.979,1.358h0.565c-1.363,0.816-3.554,2.287-4.472,3.777
		c-0.802,1.305-1.09,6.479-1.071,7.942c0.015,1.065,0.104,2.711,0.204,4.304l0.139,2.647C3.617,33.841,4.269,34.5,5.616,34.5h5.346
		c0.762,0,1.354-0.236,1.765-0.707c0.054-0.059,0.097-0.118,0.15-0.194l0.042-0.062c0.024-0.05,0.06-0.099,0.092-0.166l0.021-0.04
		c0.029-0.068,0.062-0.136,0.087-0.205l0.008-0.026c0.021-0.059,0.042-0.117,0.056-0.177l0.021-0.063
		c0.006-0.049,0.021-0.095,0.03-0.144l0.009-0.053c0.014-0.064,0.023-0.128,0.031-0.183l0.001-0.038
		c0.003-0.047,0.009-0.09,0.009-0.134c0.062-0.001,0.125-0.001,0.182-0.001c1.375,0,2.249,0.179,2.902,0.309
		c0.093,0.021,0.18,0.037,0.266,0.057c0.797,0.148,4.787,0.307,4.831,0.311l5.294,0.025l2.425-0.013
		C29.022,32.673,28.875,32.341,28.739,32.005z"/>
	<path fill="#A7A7A7" d="M27.972,26.957c0-0.02,0.001-0.036,0.001-0.055l-0.665,0.004l-9.123-0.043
		c-0.402-0.763-2.147-1.021-4.579-1.243c-2.428-0.229-3.864-0.396-4.549-0.425c-0.686-0.029-1.536-0.208-1.484,1.128
		c0.054,1.341,0.164,2.25,1.658,2.421c1.499,0.178,4.163,0.333,5.75,0.448c1.589,0.12,3.786,0.4,3.609-0.29
		c1.53-0.064,0.62,0.515,1.814,0.549c1.199,0.027,6.897,0,6.897,0s0.357,0.002,0.911,0.003
		C28.056,28.642,27.972,27.808,27.972,26.957z"/>
	<path fill="#A7A7A7" d="M28.459,23.422c-0.459-0.58-0.278-1.694-0.207-2.588c0.087-1.016,0.658-1.242,1.346-1.299
		c0.123-0.01,0.348-0.021,0.637-0.034c0.13-0.2,0.268-0.397,0.408-0.593c-0.147,0-0.291,0-0.426,0
		c-1.587-0.002-2.283,0.081-2.567,0.734c0,0-0.32,1.317-0.32,2.856c0,0.972,0.335,1.579,0.897,1.895
		C28.291,24.067,28.37,23.743,28.459,23.422z"/>
</g>
</svg>
