<?xml version="1.0" encoding="utf-8"?>
<!-- Generator: Adobe Illustrator 16.0.4, SVG Export Plug-In . SVG Version: 6.00 Build 0)  -->
<!DOCTYPE svg PUBLIC "-//W3C//DTD SVG 1.1//EN" "http://www.w3.org/Graphics/SVG/1.1/DTD/svg11.dtd">
<svg version="1.1" id="Layer_1" xmlns="http://www.w3.org/2000/svg" xmlns:xlink="http://www.w3.org/1999/xlink" x="0px" y="0px"
	 width="68.354px" height="51.926px" viewBox="0 0 68.354 51.926" enable-background="new 0 0 68.354 51.926" xml:space="preserve">
<g>
	<rect x="0.376" y="-0.037" fill="none" width="67.978" height="51.963"/>
</g>
<g>
	<g>
		<g>
			<g>
				<g>
					<path fill="#A7A7A7" d="M60.951,47.158H42.698c-1.112,0-2.021-0.905-2.021-2.021V25.059c0-1.114,0.909-2.021,2.021-2.021h4.759
						v2.477c0,0.689,0.298,1.175,0.563,1.175h7.608c0.265,0,0.565-0.485,0.565-1.175v-2.477h4.757c1.113,0,2.019,0.907,2.019,2.021
						v20.079C62.971,46.253,62.066,47.158,60.951,47.158z M42.697,23.428c-0.899,0-1.629,0.732-1.629,1.631v20.079
						c0,0.901,0.73,1.63,1.629,1.63H60.95c0.899,0,1.631-0.729,1.631-1.63V25.059c0-0.898-0.732-1.631-1.631-1.631h-4.37v2.09
						c0,0.876-0.418,1.562-0.953,1.562h-7.608c-0.535,0-0.955-0.686-0.955-1.562v-2.09H42.697z M53.958,24.63h-4.267
						c-0.229,0-0.444-0.091-0.609-0.253c-0.163-0.162-0.253-0.38-0.251-0.609v-1.421c0-0.431,0.313-0.788,0.725-0.853
						c-0.009-0.073-0.015-0.145-0.015-0.214c0-1.064,1.022-1.926,2.28-1.926c1.259,0,2.281,0.862,2.281,1.926
						c0,0.072-0.003,0.143-0.011,0.214c0.409,0.063,0.724,0.421,0.724,0.853v1.421C54.819,24.243,54.431,24.63,53.958,24.63z
						 M49.694,21.786c-0.308,0-0.561,0.251-0.561,0.561v1.421c0,0.147,0.059,0.29,0.166,0.392c0.103,0.108,0.246,0.165,0.393,0.165
						h4.267c0.305,0,0.555-0.251,0.555-0.56v-1.421c0-0.307-0.25-0.56-0.555-0.56H53.72l0.043-0.187
						c0.029-0.106,0.041-0.213,0.041-0.32c0-0.896-0.89-1.624-1.981-1.624c-1.09,0-1.976,0.731-1.976,1.624
						c0,0.107,0.011,0.215,0.038,0.32l0.045,0.187h-0.236V21.786z"/>
					<path fill="#A7A7A7" d="M60.951,47.551H42.698c-1.329,0-2.412-1.083-2.412-2.413V25.059c0-1.33,1.083-2.413,2.412-2.413h5.153
						v2.869c0,0.489,0.172,0.756,0.232,0.796l7.547-0.014c-0.003-0.026,0.173-0.293,0.173-0.782v-2.869h5.15
						c1.331,0,2.413,1.083,2.413,2.413v20.079C63.365,46.468,62.282,47.551,60.951,47.551z M42.697,23.82
						c-0.683,0-1.237,0.557-1.237,1.238v20.079c0,0.683,0.555,1.237,1.237,1.237H60.95c0.682,0,1.236-0.555,1.236-1.237V25.059
						c0-0.681-0.555-1.238-1.236-1.238h-3.978v1.694c0,1.116-0.579,1.957-1.346,1.957h-7.608c-0.769,0-1.348-0.841-1.348-1.957
						V23.82H42.697z M53.958,25.022h-4.267c-0.334,0-0.65-0.13-0.887-0.368c-0.239-0.236-0.369-0.553-0.369-0.887v-1.421
						c0-0.499,0.287-0.931,0.712-1.133c0.043-1.25,1.227-2.255,2.675-2.255c1.45,0,2.636,1.003,2.677,2.255
						c0.429,0.202,0.713,0.636,0.713,1.133v1.421C55.212,24.461,54.648,25.022,53.958,25.022z M49.694,22.179
						c-0.09,0-0.168,0.076-0.168,0.168v1.421c0,0.044,0.021,0.084,0.049,0.113c0.034,0.034,0.071,0.049,0.119,0.049h4.266
						c0.089,0,0.162-0.073,0.162-0.163v-1.421c0-0.093-0.073-0.168-0.162-0.168h-0.738l0.163-0.674
						c0.02-0.076,0.029-0.151,0.029-0.224c0-0.678-0.713-1.232-1.589-1.232c-0.872,0-1.584,0.553-1.584,1.232
						c0,0.075,0.008,0.152,0.027,0.224l0.165,0.674H49.694z"/>
				</g>
			</g>
		</g>
	</g>
	<g>
		<ellipse fill="#A7A7A7" cx="31.377" cy="19.458" rx="1.5" ry="0.764"/>
		<path fill="#A7A7A7" d="M27.591,20.813c-1.771,0-4.586,0-5.525,0c-2.291,0-2.552,0.749-2.71,1.525
			c-0.168-0.323-0.467-0.37-0.871-0.473c-0.405-0.11-5.132-1.374-6.227-1.7c-1.093-0.325-3.18-1.006-3.499,0.088
			c-0.316,1.104-0.816,3.041,0.822,3.041c-0.065,0.978,0.629,1.076,2.48,1.009c2.344-0.086,6.07-0.156,7.359-0.156
			c-0.033,2.356,4.07,3.104,5.315,3.104c1.242,0,2.359,0,3.757,0c1.397,0,2.327-0.702,2.327-2.421c0-1.721-0.358-3.191-0.358-3.191
			C30.139,20.909,29.365,20.813,27.591,20.813z M29.307,26.095c-0.821,0.535-3.857,0.413-5.055,0.283
			c-1.201-0.128-3.917-0.694-4.108-1.769c-0.19-1.072-0.316-1.958,0-2.462c0.315-0.504,0.824-0.843,1.768-0.832
			c1.266,0.021,5.606,0.134,6.372,0.198c0.769,0.066,1.41,0.319,1.503,1.455C29.876,24.105,30.127,25.559,29.307,26.095z"/>
		<path fill="#A7A7A7" d="M32.289,21.64c0,0-0.355,1.473-0.355,3.192c0,1.719,0.929,2.421,2.329,2.421c1.008,0,1.869,0,2.74,0
			v-0.776c-1.35,0.041-2.985-0.011-3.553-0.383c-0.824-0.536-0.572-1.992-0.479-3.127c0.09-1.136,0.732-1.387,1.5-1.454
			c0.34-0.029,1.374-0.066,2.534-0.103v-0.597c-0.653,0-1.295,0-1.839,0C33.39,20.813,32.617,20.909,32.289,21.64z"/>
		<path fill="#A7A7A7" d="M21.706,29.716c-0.45-0.855-2.399-1.142-5.12-1.394c-2.717-0.254-4.325-0.441-5.092-0.474
			c-0.77-0.032-1.719-0.229-1.661,1.265c0.058,1.498,0.181,2.512,1.857,2.706c1.673,0.196,4.657,0.37,6.432,0.503
			c1.776,0.137,4.23,0.447,4.032-0.328c1.715-0.076,0.695,0.575,2.036,0.615c1.335,0.034,7.718,0,7.718,0s2.809,0.017,5.093,0.017
			v-2.887l-5.093,0.023L21.706,29.716z"/>
		<path fill="#A7A7A7" d="M25.406,35.443c-1.779-0.073-4.641-0.218-5.224-0.33c-0.09-0.017-0.188-0.036-0.297-0.057
			c-0.763-0.156-1.806-0.367-3.454-0.367c-0.25,0-0.51,0.007-0.76,0.017c-3.792-0.072-8.115-0.183-8.879-0.278
			c-0.368-0.043-0.406-0.05-0.452-0.84L6.3,32.905c-0.101-1.767-0.209-3.596-0.223-4.765c-0.028-2.187,0.423-7.294,1.034-8.287
			c1.266-2.053,5.3-4.256,5.782-4.513h36.995c0.243,0.13,1.385,0.75,2.628,1.606l0.059,0.039h1.885l-0.533-0.4
			c-0.827-0.62-1.667-1.156-2.311-1.542h0.604c0.55,0,2.215,0,2.215-1.521c0-1.154-1.304-1.494-1.998-1.512c0,0-0.736-0.006-1.359,0
			c-0.392,0.002-1.195,0.011-1.237,0.813C48.473,10.232,46.063,7,44.185,5.749c-0.66-0.439-1.466-0.451-1.473-0.451h-0.005
			C37.87,4.941,31.509,4.937,31.446,4.937h-0.11c-0.062,0-6.436,0.004-11.245,0.361c-0.084,0-0.85,0.022-1.494,0.451
			c-1.893,1.261-4.324,4.524-5.681,7.125c-0.014-0.853-0.84-0.86-1.238-0.863c-0.625-0.003-1.36,0-1.366,0
			C9.624,12.03,8.32,12.369,8.32,13.523c0,1.521,1.666,1.521,2.214,1.521h0.632c-1.526,0.912-3.978,2.558-5.004,4.227
			c-0.898,1.461-1.218,7.247-1.197,8.884c0.012,1.192,0.12,3.033,0.221,4.816l0.159,2.961c0.06,1.588,0.792,2.329,2.304,2.329h5.977
			c0.85,0,1.513-0.269,1.977-0.795c0.054-0.064,0.106-0.133,0.164-0.217l0.043-0.066c0.035-0.056,0.068-0.113,0.106-0.188
			l0.023-0.048c0.036-0.074,0.072-0.147,0.098-0.224l0.011-0.03c0.022-0.069,0.045-0.133,0.065-0.202l0.017-0.068
			c0.014-0.056,0.026-0.111,0.037-0.166l0.013-0.059c0.011-0.068,0.022-0.138,0.03-0.203l0.002-0.04
			c0.008-0.052,0.014-0.102,0.016-0.148c0.067-0.003,0.135-0.003,0.2-0.003c1.537,0,2.518,0.197,3.246,0.345
			c0.105,0.022,0.203,0.042,0.294,0.059c0.894,0.171,5.358,0.349,5.409,0.349l5.922,0.032l5.699-0.03v-1.113l-5.533,0.03
			L25.406,35.443z M19.214,6.675c0.363-0.244,0.862-0.265,0.927-0.27c4.802-0.354,11.133-0.358,11.196-0.358h0.11
			c0.062,0,6.395,0.004,11.223,0.361c0.007,0,0.523,0.015,0.898,0.263c1.857,1.238,4.306,4.63,5.529,7.139H13.686
			C14.914,11.288,17.362,7.907,19.214,6.675z"/>
	</g>
	<path fill="#A7A7A7" enable-background="new    " d="M52.037,30.349c-3.282,0-5.945,2.703-5.945,6.036
		c0,3.335,2.663,6.04,5.945,6.04c3.286,0,5.946-2.704,5.946-6.04C57.984,33.052,55.323,30.349,52.037,30.349z M46.979,35.232
		c0.143-0.332,0.143-0.312,0.143-0.312s0.246-0.388,0.27-0.427c0.025-0.037,0.033-0.281,0.079-0.417
		c0.04-0.133,0.204-0.373,0.343-0.592c0.141-0.217,0.688-0.847,0.879-0.988c0.193-0.145,0.523-0.384,0.523-0.384
		s0.407-0.236,0.582-0.289c0.173-0.044,0.402-0.16,0.732-0.24c0.137-0.047,0.434-0.087,0.646-0.131
		c0.193-0.038,0.693-0.04,0.788-0.04c0,0,0.007,0,0.011,0c0.001,0,0.007,0,0.007,0c0.093,0,0.594,0.002,0.792,0.04
		c0.213,0.042,0.509,0.084,0.644,0.131c0.332,0.083,0.56,0.196,0.734,0.24c0.171,0.052,0.581,0.289,0.581,0.289
		s0.331,0.242,0.524,0.384c0.19,0.142,0.739,0.771,0.88,0.988c0.136,0.219,0.3,0.459,0.342,0.592
		c0.043,0.136,0.052,0.38,0.078,0.417c0.025,0.036,0.271,0.427,0.271,0.427s0-0.021,0.141,0.312
		c0.139,0.329,0.097,0.706,0.097,0.706s0.002,0.114-0.094,0.197s-0.379,0.062-0.379,0.062s0.006,0.017-0.181-0.028
		c-0.188-0.044-0.462-0.23-0.462-0.23s-0.858-0.12-0.936-0.162c-0.007-0.002-0.014-0.009-0.021-0.017
		c-0.032-0.05-0.067-0.102-0.106-0.148c0-0.003-0.001-0.006-0.001-0.006h-0.003c-0.266-0.333-0.652-0.616-1.121-0.823h-0.001h-0.003
		c-0.517-0.225-1.128-0.357-1.786-0.357c-1.263,0-2.355,0.479-2.911,1.181l0,0H49.06c-0.04,0.053-0.078,0.103-0.108,0.157
		c-0.009,0.005-0.016,0.012-0.021,0.014c-0.077,0.045-0.938,0.162-0.938,0.162s-0.27,0.187-0.458,0.23
		c-0.185,0.043-0.181,0.028-0.181,0.028s-0.283,0.021-0.379-0.062c-0.096-0.08-0.096-0.197-0.096-0.197S46.839,35.562,46.979,35.232
		z M48.09,39.961c-0.594-0.621-1.216-2.172-1.216-2.172h2.021c0,0,0.344,0.627,0.504,0.802c0.163,0.178,0.76,0.61,0.76,0.61
		l0.308,2.238C50.466,41.439,48.683,40.58,48.09,39.961z M51.709,41.468V39.37c0,0,0.083,0.035,0.266,0.035s0.264-0.035,0.264-0.035
		v2.098H51.709z M52.015,38.151c-0.676,0-1.223-0.548-1.223-1.221c0-0.679,0.548-1.225,1.223-1.225c0.676,0,1.223,0.549,1.223,1.225
		C53.24,37.606,52.691,38.151,52.015,38.151z M55.854,39.973c-0.593,0.621-2.378,1.481-2.378,1.481l0.308-2.242
		c0,0,0.599-0.428,0.761-0.607c0.161-0.175,0.507-0.802,0.507-0.802h2.021C57.074,37.803,56.448,39.354,55.854,39.973z"/>
</g>
</svg>
