<?xml version="1.0" encoding="utf-8"?>
<!-- Generator: Adobe Illustrator 16.0.0, SVG Export Plug-In . SVG Version: 6.00 Build 0)  -->
<!DOCTYPE svg PUBLIC "-//W3C//DTD SVG 1.1//EN" "http://www.w3.org/Graphics/SVG/1.1/DTD/svg11.dtd">
<svg version="1.1" id="Layer_1" xmlns="http://www.w3.org/2000/svg" xmlns:xlink="http://www.w3.org/1999/xlink" x="0px" y="0px"
	 width="68.354px" height="51.926px" viewBox="0 0 68.354 51.926" enable-background="new 0 0 68.354 51.926" xml:space="preserve">
<g opacity="0.6">
	<rect x="0" y="-0.001" fill="none" width="68.354" height="51.928"/>
</g>
<g opacity="0.6">
	<g>
		<g>
			<g>
				<path fill="#FFFFFF" d="M53.103,43.268h-12.9c-0.786,0-1.428-0.64-1.428-1.428V27.65c0-0.787,0.642-1.427,1.428-1.427h3.363
					v1.75c0,0.487,0.211,0.83,0.398,0.83h5.377c0.187,0,0.399-0.343,0.399-0.83v-1.75h3.362c0.787,0,1.427,0.64,1.427,1.427V41.84
					C54.53,42.628,53.89,43.268,53.103,43.268z M40.202,26.498c-0.635,0-1.151,0.518-1.151,1.152V41.84
					c0,0.637,0.517,1.151,1.151,1.151h12.9c0.636,0,1.152-0.515,1.152-1.151V27.65c0-0.634-0.517-1.152-1.152-1.152h-3.088v1.476
					c0,0.62-0.296,1.104-0.674,1.104h-5.377c-0.378,0-0.675-0.484-0.675-1.104v-1.476H40.202z M48.16,27.347h-3.014
					c-0.162,0-0.315-0.064-0.431-0.178c-0.115-0.115-0.179-0.269-0.178-0.431v-1.004c0-0.305,0.222-0.556,0.513-0.602
					c-0.007-0.052-0.011-0.102-0.011-0.152c0-0.751,0.723-1.361,1.612-1.361s1.612,0.61,1.612,1.361
					c0,0.051-0.002,0.101-0.008,0.152c0.289,0.045,0.512,0.297,0.512,0.602v1.004C48.769,27.074,48.494,27.347,48.16,27.347z
					 M45.147,25.338c-0.217,0-0.396,0.178-0.396,0.396v1.004c0,0.105,0.041,0.205,0.117,0.278c0.073,0.076,0.174,0.116,0.278,0.116
					h3.014c0.216,0,0.393-0.178,0.393-0.395v-1.004c0-0.218-0.177-0.396-0.393-0.396h-0.168l0.031-0.132
					c0.02-0.075,0.029-0.151,0.029-0.226c0-0.633-0.629-1.148-1.4-1.148c-0.771,0-1.397,0.516-1.397,1.148
					c0,0.076,0.008,0.152,0.027,0.226l0.032,0.132H45.147z"/>
				<path fill="#FFFFFF" d="M53.103,43.545h-12.9c-0.939,0-1.705-0.765-1.705-1.705V27.65c0-0.939,0.766-1.705,1.705-1.705h3.642
					v2.028c0,0.345,0.121,0.534,0.164,0.562l5.333-0.009c-0.002-0.019,0.122-0.208,0.122-0.553v-2.028h3.64
					c0.94,0,1.705,0.766,1.705,1.705V41.84C54.808,42.78,54.043,43.545,53.103,43.545z M40.202,26.776
					c-0.482,0-0.874,0.393-0.874,0.874V41.84c0,0.482,0.392,0.874,0.874,0.874h12.9c0.481,0,0.874-0.392,0.874-0.874V27.65
					c0-0.481-0.393-0.874-0.874-0.874h-2.811v1.197c0,0.789-0.409,1.383-0.951,1.383h-5.377c-0.543,0-0.952-0.594-0.952-1.383
					v-1.197H40.202z M48.16,27.625h-3.014c-0.237,0-0.46-0.092-0.627-0.26c-0.169-0.167-0.261-0.391-0.261-0.627v-1.004
					c0-0.352,0.203-0.658,0.503-0.801c0.03-0.883,0.867-1.593,1.891-1.593c1.024,0,1.862,0.709,1.891,1.593
					c0.303,0.143,0.504,0.45,0.504,0.801v1.004C49.047,27.228,48.648,27.625,48.16,27.625z M45.147,25.615
					c-0.064,0-0.118,0.054-0.118,0.119v1.004c0,0.031,0.014,0.06,0.034,0.08c0.024,0.025,0.051,0.035,0.084,0.035h3.014
					c0.063,0,0.115-0.051,0.115-0.115v-1.004c0-0.065-0.052-0.119-0.115-0.119h-0.521l0.115-0.476
					c0.014-0.054,0.021-0.107,0.021-0.159c0-0.479-0.504-0.871-1.123-0.871c-0.617,0-1.12,0.391-1.12,0.871
					c0,0.053,0.006,0.108,0.02,0.159l0.116,0.476H45.147z"/>
			</g>
		</g>
	</g>
</g>
<g opacity="0.6">
	<ellipse fill="#FFFFFF" cx="32.203" cy="23.692" rx="1.06" ry="0.54"/>
	<path fill="#FFFFFF" d="M29.528,24.65c-1.252,0-3.242,0-3.905,0c-1.619,0-1.803,0.529-1.915,1.078
		c-0.119-0.228-0.33-0.261-0.615-0.333c-0.286-0.079-3.627-0.971-4.4-1.201c-0.773-0.23-2.247-0.712-2.473,0.062
		c-0.224,0.78-0.577,2.149,0.581,2.149c-0.046,0.69,0.444,0.76,1.753,0.712c1.656-0.06,4.289-0.11,5.2-0.11
		c-0.023,1.665,2.876,2.193,3.756,2.193c0.878,0,1.667,0,2.655,0c0.988,0,1.645-0.496,1.645-1.711c0-1.216-0.253-2.255-0.253-2.255
		C31.328,24.718,30.781,24.65,29.528,24.65z M30.74,28.383c-0.58,0.378-2.725,0.292-3.572,0.2c-0.848-0.091-2.768-0.49-2.903-1.25
		c-0.135-0.758-0.224-1.384,0-1.74c0.223-0.357,0.582-0.596,1.249-0.588c0.894,0.015,3.962,0.094,4.503,0.14
		c0.543,0.046,0.996,0.225,1.062,1.028C31.143,26.976,31.32,28.004,30.74,28.383z"/>
	<path fill="#FFFFFF" d="M32.848,25.235c0,0-0.251,1.04-0.251,2.255c0,1.215,0.656,1.711,1.645,1.711c0.713,0,1.322,0,1.937,0
		v-0.548c-0.954,0.029-2.109-0.009-2.511-0.271c-0.582-0.379-0.404-1.407-0.339-2.21c0.064-0.803,0.518-0.981,1.06-1.028
		c0.24-0.02,0.971-0.046,1.791-0.072V24.65c-0.462,0-0.915,0-1.3,0C33.626,24.65,33.079,24.718,32.848,25.235z"/>
	<path fill="#FFFFFF" d="M25.369,30.941c-0.318-0.604-1.695-0.806-3.618-0.984c-1.92-0.179-3.056-0.312-3.598-0.335
		c-0.544-0.022-1.215-0.162-1.174,0.893c0.041,1.059,0.128,1.776,1.312,1.913c1.183,0.139,3.291,0.262,4.545,0.355
		c1.255,0.097,2.989,0.316,2.85-0.231c1.212-0.054,0.491,0.406,1.438,0.434c0.944,0.025,5.454,0,5.454,0s1.986,0.012,3.6,0.012
		v-2.04l-3.6,0.016L25.369,30.941z"/>
	<path fill="#FFFFFF" d="M27.984,34.989c-1.257-0.051-3.28-0.154-3.692-0.233c-0.063-0.012-0.133-0.025-0.21-0.04
		c-0.539-0.11-1.276-0.26-2.44-0.26c-0.177,0-0.361,0.005-0.537,0.012c-2.68-0.051-5.735-0.129-6.275-0.196
		c-0.259-0.031-0.287-0.036-0.319-0.594l-0.029-0.482c-0.072-1.249-0.148-2.542-0.158-3.368c-0.019-1.545,0.299-5.154,0.731-5.856
		c0.894-1.451,3.745-3.007,4.086-3.189h26.142c0.172,0.092,0.979,0.53,1.858,1.135l0.041,0.028h1.332l-0.377-0.283
		c-0.584-0.438-1.178-0.817-1.633-1.09h0.427c0.389,0,1.565,0,1.565-1.074c0-0.816-0.922-1.056-1.412-1.069c0,0-0.52-0.004-0.961,0
		c-0.276,0.002-0.844,0.008-0.874,0.575c-0.965-1.832-2.668-4.116-3.995-5c-0.467-0.31-1.036-0.319-1.041-0.319H40.21
		c-3.418-0.252-7.914-0.255-7.958-0.255h-0.078c-0.044,0-4.548,0.003-7.946,0.255c-0.06,0-0.601,0.016-1.056,0.319
		c-1.338,0.891-3.056,3.197-4.015,5.035c-0.009-0.603-0.593-0.608-0.875-0.61c-0.441-0.002-0.96,0-0.964,0
		c-0.487,0.014-1.409,0.253-1.409,1.069c0,1.074,1.177,1.074,1.565,1.074h0.446c-1.078,0.645-2.81,1.808-3.536,2.987
		c-0.635,1.033-0.86,5.122-0.846,6.279c0.009,0.843,0.085,2.144,0.157,3.403l0.112,2.093c0.042,1.122,0.559,1.646,1.628,1.646h4.223
		c0.601,0,1.07-0.19,1.397-0.562c0.038-0.046,0.075-0.094,0.116-0.153l0.03-0.047c0.025-0.04,0.048-0.081,0.076-0.133l0.016-0.033
		c0.026-0.053,0.051-0.105,0.07-0.159l0.007-0.021c0.016-0.049,0.033-0.094,0.046-0.142l0.012-0.05
		c0.01-0.038,0.019-0.077,0.026-0.116l0.009-0.041c0.008-0.05,0.016-0.098,0.022-0.144l0.002-0.029
		c0.005-0.037,0.009-0.072,0.01-0.105c0.048-0.002,0.096-0.002,0.142-0.002c1.086,0,1.779,0.14,2.294,0.244
		c0.074,0.016,0.143,0.029,0.208,0.041c0.632,0.121,3.786,0.246,3.822,0.247l4.185,0.023l4.027-0.021V34.99l-3.91,0.022
		L27.984,34.989z M23.608,14.659c0.256-0.172,0.609-0.187,0.655-0.19c3.393-0.25,7.867-0.253,7.912-0.253h0.078
		c0.044,0,4.519,0.003,7.931,0.255c0.005,0,0.37,0.011,0.635,0.186c1.312,0.875,3.043,3.272,3.907,5.045H19.701
		C20.57,17.919,22.299,15.53,23.608,14.659z"/>
</g>
<path opacity="0.6" fill="#FFFFFF" d="M46.803,31.388c-2.319,0-4.201,1.911-4.201,4.267c0,2.356,1.882,4.268,4.201,4.268
	c2.322,0,4.202-1.911,4.202-4.268C51.005,33.299,49.125,31.388,46.803,31.388z M43.229,34.84c0.1-0.234,0.1-0.22,0.1-0.22
	s0.174-0.275,0.191-0.301c0.017-0.027,0.023-0.2,0.055-0.295c0.029-0.094,0.145-0.264,0.243-0.419
	c0.099-0.153,0.486-0.598,0.621-0.698c0.136-0.102,0.37-0.271,0.37-0.271s0.288-0.167,0.411-0.204
	c0.122-0.032,0.284-0.113,0.518-0.17c0.096-0.033,0.306-0.062,0.457-0.093c0.136-0.026,0.49-0.029,0.556-0.029c0,0,0.005,0,0.008,0
	c0.001,0,0.005,0,0.005,0c0.065,0,0.42,0.003,0.559,0.029c0.151,0.03,0.36,0.06,0.456,0.093c0.234,0.058,0.395,0.139,0.518,0.17
	c0.121,0.036,0.411,0.204,0.411,0.204s0.234,0.17,0.37,0.271c0.135,0.1,0.523,0.545,0.622,0.698
	c0.096,0.155,0.212,0.325,0.242,0.419c0.03,0.095,0.037,0.268,0.055,0.295c0.018,0.025,0.192,0.301,0.192,0.301s0-0.014,0.099,0.22
	c0.098,0.232,0.069,0.499,0.069,0.499s0.001,0.081-0.067,0.139c-0.067,0.059-0.267,0.043-0.267,0.043s0.004,0.012-0.128-0.019
	c-0.133-0.031-0.326-0.163-0.326-0.163s-0.607-0.085-0.662-0.114c-0.004-0.002-0.009-0.007-0.014-0.012
	c-0.023-0.035-0.048-0.073-0.075-0.106c0-0.001-0.001-0.003-0.001-0.003h-0.002c-0.188-0.236-0.461-0.436-0.792-0.582h-0.001
	l-0.002-0.001c-0.365-0.158-0.797-0.252-1.262-0.252c-0.893,0-1.665,0.338-2.058,0.835l0,0h-0.001
	c-0.028,0.036-0.055,0.072-0.077,0.111c-0.006,0.003-0.01,0.008-0.014,0.01c-0.055,0.031-0.663,0.114-0.663,0.114
	s-0.191,0.132-0.324,0.163c-0.131,0.03-0.128,0.019-0.128,0.019s-0.2,0.016-0.267-0.043c-0.068-0.056-0.068-0.139-0.068-0.139
	S43.13,35.073,43.229,34.84z M44.014,38.182c-0.42-0.44-0.859-1.536-0.859-1.536h1.427c0,0,0.243,0.444,0.357,0.567
	c0.115,0.126,0.537,0.431,0.537,0.431l0.217,1.583C45.693,39.227,44.433,38.619,44.014,38.182z M46.572,39.246v-1.483
	c0,0,0.058,0.026,0.187,0.026s0.187-0.026,0.187-0.026v1.483H46.572z M46.787,36.903c-0.477,0-0.864-0.387-0.864-0.863
	c0-0.479,0.388-0.865,0.864-0.865c0.478,0,0.865,0.387,0.865,0.865C47.653,36.517,47.265,36.903,46.787,36.903z M49.5,38.19
	c-0.419,0.439-1.68,1.047-1.68,1.047l0.217-1.585c0,0,0.423-0.303,0.537-0.429c0.115-0.124,0.359-0.567,0.359-0.567h1.429
	C50.363,36.656,49.92,37.752,49.5,38.19z"/>
</svg>
