<?xml version="1.0" encoding="utf-8"?>
<!-- Generator: Adobe Illustrator 16.0.0, SVG Export Plug-In . SVG Version: 6.00 Build 0)  -->
<!DOCTYPE svg PUBLIC "-//W3C//DTD SVG 1.1//EN" "http://www.w3.org/Graphics/SVG/1.1/DTD/svg11.dtd">
<svg version="1.1" id="Layer_1" xmlns="http://www.w3.org/2000/svg" xmlns:xlink="http://www.w3.org/1999/xlink" x="0px" y="0px"
	 width="107.354px" height="84.559px" viewBox="0 0 107.354 84.559" enable-background="new 0 0 107.354 84.559"
	 xml:space="preserve">
<path fill="#777266" d="M49.162,15.952c-0.729,0-1.543,0.352-2.178,0.939c-1.188,1.108-1.6,2.776-1.412,3.162l0.001-0.002
	c0.024,0,0.165,0.055,0.457,0.055c1.021,0,2.438-0.604,3.298-1.404c0.704-0.655,0.953-1.381,0.953-1.841
	c0-0.411-0.178-0.578-0.237-0.631C49.785,15.989,49.382,15.952,49.162,15.952z"/>
<path fill="#777266" d="M37.897,14.163c-0.283,0-0.808,0.046-1.142,0.359c-0.074,0.066-0.307,0.282-0.307,0.812
	c0,0.597,0.325,1.536,1.233,2.383c1.108,1.035,2.94,1.816,4.262,1.816c0.464,0,0.628-0.104,0.63-0.104
	c0.216-0.429-0.312-2.607-1.862-4.051C39.895,14.619,38.843,14.163,37.897,14.163z"/>
<g>
	<path fill="#777266" d="M76.931,7.786c0-1.196-0.973-2.169-2.169-2.169h-8.694l10.863,10.558V7.786z"/>
	<linearGradient id="SVGID_1_" gradientUnits="userSpaceOnUse" x1="63.6047" y1="11.5793" x2="77.9309" y2="11.5793">
		<stop  offset="0" style="stop-color:#E6E6E6"/>
		<stop  offset="0.5398" style="stop-color:#FFFFFF"/>
		<stop  offset="1" style="stop-color:#C8C8C8"/>
	</linearGradient>
	<path fill="url(#SVGID_1_)" d="M77.931,18.542L63.605,4.617h11.157c1.747,0,3.169,1.421,3.169,3.169V18.542z M66.068,5.617
		l10.863,10.558V7.786c0-1.196-0.973-2.169-2.169-2.169H66.068z"/>
</g>
<g>
	<g>
		<linearGradient id="SVGID_2_" gradientUnits="userSpaceOnUse" x1="47.1555" y1="52.8655" x2="99.4192" y2="52.8655">
			<stop  offset="0" style="stop-color:#E6E6E6"/>
			<stop  offset="0.5398" style="stop-color:#FFFFFF"/>
			<stop  offset="1" style="stop-color:#C8C8C8"/>
		</linearGradient>
		<path fill="url(#SVGID_2_)" d="M62.615,79.017c-2.321,0-4.635-0.317-6.879-0.944c-2.688-0.748-4.696-1.802-6.319-3.316
			c-1.587-1.481-2.346-3.219-2.253-5.162c0.018-0.416,0.012-0.836,0.007-1.258L47.165,64.5c-0.002-0.074-0.002-0.149-0.002-0.225
			l0.002-2.271l0.021,0.078c0-0.021,0.001-0.041,0.002-0.062l0.069-2.311c-0.139-0.754-0.116-1.516,0.068-2.26l0.01-0.322
			l0.039,0.14c0.238-0.837,0.681-1.646,1.327-2.394c1.402-1.629,3.26-2.816,5.679-3.629c5.493-1.852,11.106-1.851,16.602,0.006
			c2.331,0.785,4.12,1.902,5.469,3.415c1.612,1.81,2.084,3.912,1.438,5.861l0.223,1.427c0.252,1.617,0.154,3.055-0.3,4.323
			l0.276,1.308c0.658,3.122-0.366,5.895-2.885,7.807c-1.961,1.486-4.302,2.49-7.158,3.068
			C66.224,78.829,64.397,79.017,62.615,79.017z M48.745,70.83c0.205,1.029,0.766,1.962,1.695,2.828
			c1.44,1.346,3.251,2.289,5.699,2.97c3.739,1.044,7.647,1.166,11.608,0.362c2.629-0.534,4.771-1.448,6.548-2.794
			c1.203-0.913,1.983-2.071,2.309-3.39c-0.211,0.248-0.442,0.488-0.695,0.723c-1.606,1.484-3.601,2.529-6.276,3.289
			c-3.342,0.945-6.904,1.175-10.61,0.684c-3.118-0.41-5.704-1.29-7.904-2.689C50.149,72.199,49.364,71.545,48.745,70.83z
			 M49.169,68.842c0.561,1.012,1.449,1.878,2.752,2.705c2.012,1.279,4.399,2.087,7.296,2.469c3.504,0.465,6.859,0.25,10.005-0.641
			c2.44-0.692,4.241-1.629,5.667-2.947c0.503-0.467,0.896-0.947,1.19-1.465c-0.503,0.5-1.093,0.963-1.771,1.389
			c-2.288,1.438-4.915,2.333-8.032,2.738c-1.271,0.166-2.531,0.25-3.746,0.25c-0.001,0-0.001,0-0.001,0
			c-2.817,0-5.538-0.453-8.085-1.348C52.166,71.192,50.47,70.182,49.169,68.842z M48.74,65.162c0.148,0.77,0.51,1.488,1.095,2.182
			c1.177,1.395,2.799,2.422,5.105,3.232c2.387,0.839,4.94,1.264,7.589,1.264h0.001c1.15,0,2.346-0.08,3.553-0.238
			c2.897-0.376,5.327-1.201,7.428-2.521c1.702-1.066,2.707-2.328,3.076-3.925c-0.842,0.997-1.94,1.835-3.383,2.588
			c-2.426,1.265-5.148,1.997-8.322,2.239c-4.432,0.344-8.243-0.226-11.708-1.749C51.683,67.578,49.995,66.672,48.74,65.162z
			 M49.241,63.263c0.823,1.474,2.255,2.595,4.537,3.598c3.235,1.423,6.804,1.951,10.989,1.626c2.969-0.227,5.502-0.904,7.744-2.073
			c1.638-0.854,2.752-1.813,3.508-3.019c0.027-0.043,0.055-0.088,0.08-0.133c-0.021,0.02-0.042,0.039-0.062,0.06
			c-1.723,1.622-3.899,2.744-6.853,3.531c-2.132,0.565-4.317,0.807-7.309,0.807c-0.001,0,0,0-0.001,0h-0.146
			c-1.316-0.007-4.775-0.197-8.494-1.812C52.082,65.349,50.534,64.574,49.241,63.263z M62.673,51.351
			c-2.595,0-5.225,0.442-7.815,1.315c-2.156,0.725-3.798,1.766-5.021,3.187c-1.418,1.642-1.547,3.592-0.354,5.353
			c0.916,1.354,2.256,2.36,4.348,3.266c3.466,1.505,6.682,1.682,7.903,1.688h0.141c2.893,0,4.898-0.219,6.924-0.757
			c2.703-0.72,4.676-1.729,6.209-3.173c2.102-1.979,2.223-4.435,0.324-6.566c-1.171-1.313-2.75-2.292-4.83-2.992
			C67.907,51.795,65.273,51.351,62.673,51.351z M83.782,60.266L83.782,60.266c-0.285,0-0.571-0.004-0.857-0.012
			c-0.74-0.012-1.168-0.443-1.161-1.186c0.001-0.17,0.005-0.342,0.01-0.516c0.015-0.592,0.028-1.15-0.108-1.67
			c-0.125-0.48,0.017-0.799,0.158-0.982c0.209-0.271,0.53-0.409,0.954-0.409c0.424,0.014,0.765,0.021,1.106,0.021
			c2.838,0,5.383-0.424,7.781-1.295c2.261-0.822,3.854-1.845,5.012-3.215c0.217-0.258,0.406-0.527,0.57-0.811
			c-0.271,0.265-0.568,0.523-0.895,0.775c-1.963,1.524-4.341,2.524-7.484,3.146c-1.622,0.319-3.316,0.482-5.037,0.482l0,0
			c-0.301,0-0.602-0.006-0.902-0.016c-0.755-0.022-1.181-0.471-1.166-1.23l0.01-0.471c0.016-0.59,0.03-1.146-0.105-1.66
			c-0.127-0.489,0.014-0.81,0.156-0.992c0.208-0.271,0.532-0.407,0.963-0.407l0.119,0.003c0.33,0.012,0.666,0.018,1.001,0.018
			c2.8,0,5.319-0.418,7.704-1.277c2.268-0.815,3.865-1.828,5.029-3.189c0.23-0.268,0.43-0.547,0.602-0.839
			c-0.51,0.513-1.109,0.984-1.794,1.413c-2.208,1.382-4.771,2.267-7.837,2.703c-1.65,0.236-3.272,0.318-4.876,0.244
			c-0.659-0.034-1.055-0.363-1.179-0.978c-0.156-0.781-0.49-1.553-1.021-2.36c-0.11-0.152-0.321-0.435-0.269-0.87l0.041-0.338
			c-2.8-0.3-5.342-1.038-7.58-2.203c-1.773-0.925-3.014-1.976-3.901-3.308c-1.491-2.24-1.337-4.927,0.401-7.011
			c1.396-1.676,3.258-2.877,5.859-3.78c3.766-1.306,7.836-1.655,12.123-1.039c3.002,0.43,5.505,1.296,7.652,2.647
			c1.513,0.948,2.572,2.021,3.236,3.279c0.354,0.676,0.573,1.369,0.658,2.062l0.489,2.552c0.23,1.2,0.229,2.328,0.003,3.373
			l0.029,2.452c0.004,0.283,0.016,0.566,0.029,0.85c0.033,0.734,0.066,1.492-0.051,2.267l0.022,2.553
			c0.003,0.293,0.016,0.585,0.028,0.877c0.036,0.804,0.072,1.634-0.092,2.485c-0.318,1.607-1.256,2.992-2.869,4.24
			c-1.953,1.513-4.316,2.508-7.438,3.131C87.273,60.102,85.548,60.266,83.782,60.266z M83.27,58.761
			c0.181,0.004,0.347,0.005,0.513,0.005l0,0c1.668,0,3.294-0.154,4.834-0.461c2.885-0.576,5.049-1.48,6.812-2.846
			c1.332-1.031,2.068-2.093,2.314-3.342c0.005-0.023,0.01-0.047,0.014-0.07c-1.328,1.54-3.104,2.679-5.58,3.58
			c-2.754,1-5.719,1.453-8.959,1.377c0.081,0.547,0.068,1.074,0.055,1.587L83.27,58.761z M83.269,53.088
			c0.197,0.006,0.379,0.008,0.562,0.008c1.623,0,3.221-0.153,4.746-0.455c2.906-0.574,5.084-1.482,6.855-2.859
			c1.334-1.033,2.066-2.094,2.31-3.34c0.005-0.021,0.009-0.041,0.012-0.062c-1.337,1.551-3.13,2.693-5.635,3.594
			c-2.747,0.99-5.681,1.434-8.901,1.359c0.082,0.548,0.068,1.074,0.055,1.586L83.269,53.088z M82.978,47.403
			c0.323,0.014,0.615,0.02,0.906,0.02c1.146,0,2.328-0.086,3.515-0.256c2.854-0.406,5.227-1.222,7.253-2.491
			c1.678-1.049,2.713-2.366,3.098-3.937c-0.604,0.714-1.377,1.362-2.346,1.975c-2.595,1.64-5.615,2.555-9.507,2.879
			c-1.153,0.096-2.346,0.109-3.579,0.041C82.62,46.221,82.839,46.807,82.978,47.403z M83.15,28.211
			c-2.623,0-5.172,0.421-7.572,1.253c-2.332,0.809-3.983,1.865-5.197,3.323c-1.316,1.578-1.431,3.528-0.305,5.219
			c0.741,1.113,1.805,2.006,3.345,2.809c2.71,1.41,5.917,2.146,9.531,2.186c3.165-0.014,5.738-0.414,8.097-1.259
			c2.314-0.832,3.946-1.874,5.135-3.279c1.242-1.472,1.451-3.187,0.588-4.829c-0.544-1.032-1.404-1.892-2.705-2.708
			c-1.968-1.238-4.279-2.033-7.069-2.434C85.692,28.306,84.398,28.211,83.15,28.211z"/>
		<path fill="#777266" d="M61.73,66.909c3.059,0.008,5.181-0.229,7.261-0.781c2.418-0.645,4.676-1.604,6.531-3.353
			c2.388-2.25,2.537-5.178,0.369-7.611c-1.398-1.568-3.196-2.546-5.149-3.204c-5.365-1.812-10.758-1.812-16.123-0.005
			c-2.047,0.688-3.906,1.731-5.35,3.408c-1.631,1.888-1.801,4.204-0.407,6.263c1.151,1.701,2.833,2.737,4.671,3.533
			C56.434,66.419,59.493,66.898,61.73,66.909z M82.948,43.751c3.09-0.013,5.77-0.377,8.353-1.303
			c2.08-0.747,3.994-1.773,5.454-3.501c1.427-1.689,1.693-3.733,0.68-5.662c-0.682-1.292-1.751-2.229-2.972-2.994
			c-2.254-1.418-4.745-2.165-7.36-2.54c-4.001-0.575-7.938-0.323-11.771,1.005c-2.12,0.735-4.06,1.787-5.528,3.552
			c-1.535,1.84-1.674,4.131-0.354,6.114c0.912,1.368,2.192,2.312,3.623,3.059C76.279,43.149,79.734,43.716,82.948,43.751z
			 M47.915,67.713c0,0.639,0.024,1.279-0.003,1.917c-0.089,1.865,0.691,3.342,2.016,4.577c1.713,1.599,3.789,2.525,6.01,3.144
			c3.95,1.103,7.948,1.188,11.958,0.374c2.479-0.503,4.81-1.383,6.853-2.931c2.251-1.709,3.204-4.213,2.604-7.056
			c-0.314,1.345-1.016,2.371-1.954,3.24c-1.706,1.577-3.77,2.493-5.972,3.118c-3.386,0.958-6.829,1.123-10.307,0.662
			c-2.699-0.355-5.28-1.104-7.601-2.579C49.83,71.109,48.464,69.766,47.915,67.713z M77.369,62.069
			c-0.203,0.649-0.395,1.214-0.715,1.726c-0.931,1.482-2.276,2.49-3.797,3.284c-2.515,1.311-5.221,1.941-8.033,2.156
			c-3.911,0.304-7.729-0.096-11.349-1.688c-2.526-1.11-4.728-2.621-5.538-5.505c-0.022,0.745-0.018,1.494-0.024,2.241
			c-0.014,1.356,0.484,2.52,1.349,3.544c1.448,1.717,3.357,2.729,5.431,3.457c3.734,1.312,7.584,1.572,11.487,1.062
			c2.745-0.356,5.357-1.139,7.73-2.63C76.767,67.925,77.903,65.487,77.369,62.069z M81.012,44.777
			c-0.021,0.178,0.087,0.267,0.15,0.368c0.531,0.81,0.938,1.675,1.128,2.623c0.062,0.308,0.199,0.363,0.479,0.378
			c1.587,0.074,3.165-0.013,4.735-0.237c2.68-0.382,5.229-1.147,7.545-2.598c2.883-1.802,4.078-4.401,3.46-7.62
			c-0.114,0.322-0.199,0.625-0.319,0.911c-0.646,1.54-1.815,2.61-3.188,3.478c-2.798,1.768-5.916,2.494-9.169,2.766
			C84.226,44.979,82.617,44.943,81.012,44.777z M98.53,49.049c-0.253,0.913-0.678,1.722-1.279,2.437
			c-1.426,1.688-3.295,2.696-5.329,3.437c-2.935,1.065-5.979,1.431-9.089,1.32c-0.362-0.014-0.532,0.103-0.441,0.449
			c0.208,0.789,0.127,1.588,0.123,2.384c-0.003,0.345,0.111,0.424,0.433,0.429c1.958,0.057,3.896-0.082,5.816-0.464
			c2.572-0.514,5.021-1.358,7.125-2.988c1.265-0.979,2.271-2.166,2.592-3.789C98.685,51.201,98.539,50.127,98.53,49.049z
			 M98.529,43.382c-0.256,0.938-0.698,1.756-1.318,2.479c-1.435,1.676-3.308,2.674-5.345,3.406
			c-2.906,1.048-5.918,1.413-8.994,1.304c-0.369-0.017-0.581,0.063-0.479,0.456c0.203,0.771,0.127,1.557,0.12,2.337
			c-0.007,0.354,0.091,0.456,0.44,0.467c1.94,0.062,3.864-0.078,5.77-0.454c2.593-0.513,5.055-1.359,7.17-3.003
			c1.264-0.979,2.27-2.165,2.586-3.789C98.685,45.528,98.541,44.451,98.529,43.382z"/>
	</g>
</g>
<g>
	<linearGradient id="SVGID_3_" gradientUnits="userSpaceOnUse" x1="81.2014" y1="34.425" x2="85.8948" y2="34.425">
		<stop  offset="0" style="stop-color:#E6E6E6"/>
		<stop  offset="0.5398" style="stop-color:#FFFFFF"/>
		<stop  offset="1" style="stop-color:#C8C8C8"/>
	</linearGradient>
	<path fill="url(#SVGID_3_)" d="M85.895,31.159l-1.708,3.125h1.379v0.533h-1.639v0.832h1.639v0.533h-1.63v1.508h-0.763v-1.508
		h-1.629V35.65h1.638v-0.832h-1.638v-0.533h1.334l-1.677-3.125h0.866l1.491,2.926l1.509-2.926H85.895z"/>
</g>
<g>
	<linearGradient id="SVGID_4_" gradientUnits="userSpaceOnUse" x1="60.5579" y1="57.7122" x2="65.2512" y2="57.7122">
		<stop  offset="0" style="stop-color:#E6E6E6"/>
		<stop  offset="0.5398" style="stop-color:#FFFFFF"/>
		<stop  offset="1" style="stop-color:#C8C8C8"/>
	</linearGradient>
	<path fill="url(#SVGID_4_)" d="M65.251,54.447l-1.707,3.125h1.379v0.533h-1.639v0.832h1.639v0.533h-1.631v1.508h-0.762V59.47h-1.63
		v-0.533h1.638v-0.832h-1.638v-0.533h1.335l-1.678-3.125h0.867l1.49,2.926l1.509-2.926H65.251z"/>
</g>
<g>
	<linearGradient id="SVGID_5_" gradientUnits="userSpaceOnUse" x1="10.0793" y1="28.3215" x2="77.9309" y2="28.3215">
		<stop  offset="0" style="stop-color:#E6E6E6"/>
		<stop  offset="0.5398" style="stop-color:#FFFFFF"/>
		<stop  offset="1" style="stop-color:#C8C8C8"/>
	</linearGradient>
	<path fill="url(#SVGID_5_)" d="M50.561,52.026H13.248c-1.748,0-3.169-1.422-3.169-3.17V7.786c0-1.748,1.421-3.169,3.169-3.169
		h39.908l0.146,0.145L76.8,28.036l-0.873,0.209c-0.812,0.195-1.518,0.397-2.156,0.618c-2.378,0.826-4.064,1.906-5.309,3.4
		c-0.348,0.417-0.621,0.862-0.811,1.323c-0.594,1.438-0.693,3.697,0.168,4.991c0.891,1.336,2.292,2.182,3.545,2.833
		c0.356,0.186,0.723,0.383,1.096,0.584c1.699,0.916,3.455,1.863,5.049,2.115l0.422,0.067v4.68c0,1.659-1.303,3.043-2.966,3.15
		l-0.202,0.013l-0.154-0.131c-1.094-0.932-2.41-1.649-4.026-2.195c-5.236-1.771-10.565-1.771-15.804-0.005
		c-1.638,0.551-2.972,1.276-4.077,2.218L50.561,52.026z M13.248,5.617c-1.196,0-2.169,0.973-2.169,2.169v41.069
		c0,1.196,0.973,2.17,2.169,2.17h36.947c1.175-0.967,2.572-1.716,4.265-2.285c5.442-1.836,10.999-1.835,16.442,0.006
		c1.658,0.561,3.03,1.295,4.188,2.242c1.046-0.16,1.84-1.062,1.84-2.132v-3.839c-1.643-0.362-3.39-1.305-4.945-2.143
		c-0.369-0.2-0.73-0.395-1.082-0.578c-1.366-0.709-2.899-1.641-3.916-3.166c-1.086-1.63-0.943-4.27-0.26-5.926
		c0.229-0.554,0.553-1.086,0.967-1.582c1.364-1.639,3.191-2.816,5.749-3.705c0.431-0.149,0.89-0.291,1.388-0.426L63.829,16.597
		c0.063,0.413-0.025,0.849-0.283,1.216c-1.059,1.502-2.466,2.701-4.194,3.574c0.362,0.336,0.589,0.814,0.589,1.341v4.775
		c0,1.012-0.822,1.836-1.834,1.836h-0.982v2.996h-11.26V21.863h-3.721v10.474h-11.26V29.34h-0.98c-1.011,0-1.834-0.824-1.834-1.836
		v-4.773c0-0.528,0.227-1.007,0.588-1.342c-1.73-0.875-3.137-2.074-4.192-3.574c-0.533-0.757-0.35-1.806,0.407-2.338
		c0.734-0.514,1.826-0.32,2.338,0.409c1.997,2.843,5.585,3.623,8.144,3.791c-1.231-1.261-1.931-2.825-1.931-4.34
		c0-1.19,0.45-2.266,1.267-3.028c0.825-0.765,1.932-1.169,3.205-1.169c1.716,0,3.494,0.74,4.88,2.031
		c0.758,0.707,1.424,1.605,1.925,2.586c0.195-0.238,0.399-0.457,0.611-0.655c1.09-1.016,2.493-1.6,3.85-1.6
		c1.015,0,1.898,0.323,2.555,0.934c0.657,0.613,1.019,1.475,1.019,2.428c0,0.976-0.365,1.975-1.024,2.85
		c2.561-0.043,6.845-0.632,9.088-3.826c0.36-0.51,0.996-0.781,1.608-0.697l-9.664-9.571H13.248z M46.865,31.336h9.26V28.34h1.982
		c0.46,0,0.834-0.375,0.834-0.836v-4.775c0-0.453-0.37-0.827-0.825-0.833l-2.487-0.033l2.307-0.931
		c2.03-0.818,3.643-2.061,4.793-3.693c0.214-0.305,0.141-0.729-0.164-0.944c-0.293-0.205-0.738-0.128-0.945,0.167
		c-2.6,3.7-7.523,4.252-10.227,4.252c-0.299,0-0.576-0.006-0.827-0.017l-1.173-0.047l0.926-0.881c0.902-0.841,1.418-1.9,1.418-2.907
		c0-0.682-0.242-1.269-0.7-1.696c-0.468-0.435-1.117-0.666-1.874-0.666c-1.106,0-2.261,0.485-3.167,1.332
		c-0.351,0.326-0.678,0.724-0.973,1.182l-0.524,0.815l-0.36-0.9c-0.462-1.156-1.188-2.231-2.042-3.029
		c-1.203-1.12-2.733-1.762-4.198-1.762c-1.015,0-1.888,0.312-2.523,0.901c-0.62,0.579-0.949,1.373-0.949,2.296
		c0,1.345,0.685,2.754,1.877,3.867c0.229,0.213,0.489,0.413,0.757,0.607l1.232,0.891l-1.717,0.016
		c-2.686,0-7.581-0.553-10.181-4.257c-0.207-0.294-0.65-0.374-0.945-0.165c-0.306,0.214-0.379,0.638-0.164,0.944
		c1.147,1.63,2.76,2.874,4.792,3.695l2.318,0.937l-2.5,0.027c-0.454,0.005-0.824,0.378-0.824,0.833v4.773
		c0,0.461,0.374,0.836,0.834,0.836h1.98v2.996h9.26V20.863h5.721V31.336z M57.126,45.503h-11.26v-9.445h11.26V45.503z
		 M46.866,44.503h9.26v-7.445h-9.26V44.503z M42.145,45.503H30.884v-9.445h11.261V45.503z M31.884,44.503h9.261v-7.445h-9.261
		V44.503z"/>
	<path fill="#777266" d="M70.903,48.746c1.658,0.561,3.03,1.295,4.188,2.242c1.046-0.16,1.84-1.062,1.84-2.132v-3.839
		c-1.643-0.362-3.39-1.305-4.945-2.143c-0.369-0.2-0.73-0.395-1.082-0.578c-1.366-0.709-2.899-1.641-3.916-3.166
		c-1.086-1.63-0.943-4.27-0.26-5.926c0.229-0.554,0.553-1.086,0.967-1.582c1.364-1.639,3.191-2.816,5.749-3.705
		c0.431-0.149,0.89-0.291,1.388-0.426L63.829,16.597c0.063,0.413-0.025,0.849-0.283,1.216c-1.059,1.502-2.466,2.701-4.194,3.574
		c0.362,0.336,0.589,0.814,0.589,1.341v4.775c0,1.012-0.822,1.836-1.834,1.836h-0.982v2.996h-11.26V21.863h-3.721v10.474h-11.26
		V29.34h-0.98c-1.011,0-1.834-0.824-1.834-1.836v-4.773c0-0.528,0.227-1.007,0.588-1.342c-1.73-0.875-3.137-2.074-4.192-3.574
		c-0.533-0.757-0.35-1.806,0.407-2.338c0.734-0.514,1.826-0.32,2.338,0.409c1.997,2.843,5.585,3.623,8.144,3.791
		c-1.231-1.261-1.931-2.825-1.931-4.34c0-1.19,0.45-2.266,1.267-3.028c0.825-0.765,1.932-1.169,3.205-1.169
		c1.716,0,3.494,0.74,4.88,2.031c0.758,0.707,1.424,1.605,1.925,2.586c0.195-0.238,0.399-0.457,0.611-0.655
		c1.09-1.016,2.493-1.6,3.85-1.6c1.015,0,1.898,0.323,2.555,0.934c0.657,0.613,1.019,1.475,1.019,2.428
		c0,0.976-0.365,1.975-1.024,2.85c2.561-0.043,6.845-0.632,9.088-3.826c0.36-0.51,0.996-0.781,1.608-0.697l-9.664-9.571H13.248
		c-1.196,0-2.169,0.973-2.169,2.169v41.069c0,1.196,0.973,2.17,2.169,2.17h36.947c1.175-0.967,2.572-1.716,4.265-2.285
		C59.903,46.905,65.459,46.906,70.903,48.746z M42.145,45.503H30.884v-9.445h11.261V45.503z M45.866,45.503v-9.445h11.26v9.445
		H45.866z"/>
</g>
<path opacity="0.6" fill="#C1BAAC" d="M70.802,39.936c3.594-6.075,11.11-10.257,19.806-10.257c1.062,0,2.105,0.066,3.127,0.187
	c-2.058-1.143-4.295-1.779-6.632-2.114c-4.001-0.575-7.938-0.323-11.771,1.005c-2.12,0.735-4.06,1.787-5.528,3.552
	c-1.535,1.84-1.674,4.131-0.354,6.114C69.837,39.001,70.3,39.491,70.802,39.936z"/>
<path opacity="0.6" fill="#C1BAAC" d="M50.056,63.002C52.7,57.44,60.1,53.075,69.464,51.583c-4.943-1.403-9.906-1.292-14.846,0.372
	c-2.047,0.688-3.906,1.731-5.35,3.408c-1.631,1.888-1.801,4.204-0.407,6.263C49.212,62.145,49.617,62.595,50.056,63.002z"/>
<g>
	<polygon opacity="0.6" fill="#C1BAAC" points="42.144,21.863 42.144,22.773 44.684,21.863 	"/>
	<path opacity="0.6" fill="#C1BAAC" d="M28.1,27.803c-0.016-0.098-0.03-0.197-0.03-0.299v-4.773c0-0.528,0.227-1.007,0.588-1.342
		c-1.73-0.875-3.137-2.074-4.192-3.574c-0.533-0.757-0.35-1.806,0.407-2.338c0.734-0.514,1.826-0.32,2.338,0.409
		c1.997,2.843,5.585,3.623,8.144,3.791c-1.231-1.261-1.931-2.825-1.931-4.34c0-1.19,0.45-2.266,1.267-3.028
		c0.825-0.765,1.932-1.169,3.205-1.169c1.716,0,3.494,0.74,4.88,2.031c0.758,0.707,1.424,1.605,1.925,2.586
		c0.195-0.238,0.399-0.457,0.611-0.655c1.09-1.016,2.493-1.6,3.85-1.6c1.015,0,1.898,0.323,2.555,0.934
		c0.657,0.613,1.019,1.475,1.019,2.428c0,0.804-0.26,1.62-0.716,2.373l8.56-3.066c0.074-0.095,0.151-0.184,0.221-0.283
		c0.36-0.51,0.996-0.781,1.608-0.697l-9.664-9.571H13.248c-1.196,0-2.169,0.973-2.169,2.169v26.114L28.1,27.803z"/>
</g>
<path opacity="0.6" fill="#C1BAAC" d="M76.931,10.31V7.786c0-1.196-0.973-2.169-2.169-2.169h-8.694l6.454,6.272L76.931,10.31z"/>
<path opacity="0.6" fill="#C1BAAC" d="M49.162,15.952c-0.729,0-1.543,0.352-2.178,0.939c-1.188,1.108-1.6,2.776-1.412,3.162
	l0.001-0.002c0.024,0,0.165,0.055,0.457,0.055c1.021,0,2.438-0.604,3.298-1.404c0.704-0.655,0.953-1.381,0.953-1.841
	c0-0.411-0.178-0.578-0.237-0.631C49.785,15.989,49.382,15.952,49.162,15.952z"/>
<path opacity="0.6" fill="#C1BAAC" d="M37.897,14.163c-0.283,0-0.808,0.046-1.142,0.359c-0.074,0.066-0.307,0.282-0.307,0.812
	c0,0.597,0.325,1.536,1.233,2.383c1.108,1.035,2.94,1.816,4.262,1.816c0.464,0,0.628-0.104,0.63-0.104
	c0.216-0.429-0.312-2.607-1.862-4.051C39.895,14.619,38.843,14.163,37.897,14.163z"/>
</svg>
