<?xml version="1.0" encoding="utf-8"?>
<!-- Generator: Adobe Illustrator 16.0.0, SVG Export Plug-In . SVG Version: 6.00 Build 0)  -->
<!DOCTYPE svg PUBLIC "-//W3C//DTD SVG 1.1//EN" "http://www.w3.org/Graphics/SVG/1.1/DTD/svg11.dtd">
<svg version="1.1" id="Layer_1" xmlns="http://www.w3.org/2000/svg" xmlns:xlink="http://www.w3.org/1999/xlink" x="0px" y="0px"
	 width="107.354px" height="84.559px" viewBox="0 0 107.354 84.559" enable-background="new 0 0 107.354 84.559"
	 xml:space="preserve">
<g>
	<linearGradient id="SVGID_1_" gradientUnits="userSpaceOnUse" x1="16.1116" y1="42.4172" x2="92.511" y2="42.4172">
		<stop  offset="0" style="stop-color:#E6E6E6"/>
		<stop  offset="0.5398" style="stop-color:#FFFFFF"/>
		<stop  offset="1" style="stop-color:#C8C8C8"/>
	</linearGradient>
	<path fill="url(#SVGID_1_)" d="M54.312,80.617c-21.063,0-38.2-17.137-38.2-38.201c0-21.063,17.137-38.199,38.2-38.199
		c21.062,0,38.199,17.136,38.199,38.199C92.511,63.481,75.374,80.617,54.312,80.617z M54.312,5.718
		c-20.236,0-36.7,16.463-36.7,36.699s16.464,36.701,36.7,36.701s36.699-16.465,36.699-36.701S74.548,5.718,54.312,5.718z
		 M54.312,77.276c-19.221,0-34.858-15.638-34.858-34.859c0-19.22,15.637-34.857,34.858-34.857c19.221,0,34.857,15.637,34.857,34.857
		C89.169,61.638,73.532,77.276,54.312,77.276z M54.312,9.059c-18.394,0-33.358,14.964-33.358,33.357
		c0,18.394,14.964,33.359,33.358,33.359c18.394,0,33.357-14.965,33.357-33.359C87.669,24.023,72.705,9.059,54.312,9.059z"/>
	<path fill="#777266" d="M54.312,4.968c-20.684,0-37.45,16.767-37.45,37.449c0,20.683,16.767,37.451,37.45,37.451
		c20.683,0,37.449-16.768,37.449-37.451C91.761,21.734,74.994,4.968,54.312,4.968z M54.312,76.526
		c-18.838,0-34.108-15.271-34.108-34.109c0-18.837,15.271-34.107,34.108-34.107c18.837,0,34.107,15.271,34.107,34.107
		C88.419,61.254,73.149,76.526,54.312,76.526z"/>
	<path opacity="0.6" fill="#C1BAAC" d="M41.636,74.082C29.077,69.05,20.203,56.774,20.203,42.417
		c0-18.837,15.271-34.107,34.108-34.107c9.811,0,18.648,4.148,24.871,10.78c1.25-0.304,2.517-0.558,3.801-0.754
		C76.115,10.164,65.822,4.968,54.312,4.968c-20.684,0-37.45,16.767-37.45,37.449c0,16.367,10.502,30.271,25.131,35.367
		C41.833,76.563,41.718,75.328,41.636,74.082z"/>
</g>
<line fill="none" x1="54.312" y1="56.463" x2="54.312" y2="54.262"/>
<g>
	<path fill="#777266" d="M40.024,51.086c0.113,1.178,0.23,2.352,0.353,3.531c0.083,0.812,0.809,1.648,1.552,1.789
		c8.159,1.307,16.593,1.31,24.777-0.002c0.732-0.139,1.461-0.975,1.545-1.787c0.119-1.178,0.234-2.354,0.348-3.529
		c0.085-0.861-0.519-1.968-1.291-2.371c-2.905-1.381-6.062-2.287-9.368-2.685l-0.509-0.062l0.439-3.079l0.194-0.124
		c0.667-0.424,1.042-0.996,1.069-1.342l0.387-3.235l0.729,0.744c0.018,0.018,0.053,0.048,0.09,0.052
		c0.075,0,0.133-0.051,0.139-0.115l0.353-3.356c0.009-0.079-0.057-0.134-0.122-0.141l-0.854,0.488l0.041-0.963l0.25-2.216
		c0.094-0.977,0.269-2.794-1.053-3.969c-1.07-1.051-2.85-1.668-4.777-1.668c-1.929,0-3.707,0.617-4.758,1.651
		c-1.348,1.199-1.166,3.022-1.067,4.002L48.518,33c0.044,0.424,0.095,0.858,0.146,1.293l0.182,1.582l-0.855-0.485
		c-0.132-0.005-0.201,0.049-0.193,0.13l0.351,3.345c0.008,0.067,0.066,0.123,0.132,0.123c0.037-0.003,0.076-0.025,0.112-0.061
		l0.733-0.713l0.358,3.197c0.033,0.36,0.416,0.936,1.083,1.357l0.197,0.124l0.43,3.08l-0.507,0.062
		c-3.306,0.398-6.466,1.305-9.393,2.693C40.542,49.123,39.939,50.231,40.024,51.086z"/>
	<linearGradient id="SVGID_2_" gradientUnits="userSpaceOnUse" x1="39.0164" y1="42.2195" x2="69.6077" y2="42.2195">
		<stop  offset="0" style="stop-color:#E6E6E6"/>
		<stop  offset="0.5398" style="stop-color:#FFFFFF"/>
		<stop  offset="1" style="stop-color:#C8C8C8"/>
	</linearGradient>
	<path fill="url(#SVGID_2_)" d="M54.312,58.393c-4.185,0-8.409-0.337-12.555-1.001c-1.188-0.226-2.247-1.423-2.375-2.673
		c-0.123-1.18-0.24-2.356-0.354-3.535c-0.125-1.254,0.691-2.758,1.818-3.352c2.892-1.373,5.984-2.287,9.215-2.729l-0.226-1.623
		c-0.764-0.544-1.285-1.298-1.347-1.969l-0.172-1.525l-0.037,0.001c-0.577,0-1.061-0.436-1.126-1.015l-0.352-3.352
		c-0.056-0.569,0.325-1.084,0.868-1.215c-0.052-0.438-0.103-0.875-0.148-1.316l-0.027-0.291c-0.107-1.075-0.331-3.311,1.38-4.832
		c1.233-1.214,3.223-1.921,5.44-1.921c2.217,0,4.207,0.707,5.46,1.938c1.683,1.496,1.469,3.724,1.366,4.795l-0.182,1.626
		c0.548,0.132,0.926,0.65,0.864,1.217l-0.352,3.347c-0.052,0.577-0.536,1.018-1.127,1.018l-0.032-0.001l-0.184,1.54
		c-0.051,0.65-0.567,1.406-1.333,1.954l-0.231,1.624c3.229,0.44,6.318,1.354,9.188,2.719c1.146,0.598,1.964,2.102,1.841,3.361
		c-0.113,1.178-0.23,2.354-0.35,3.535c-0.129,1.251-1.19,2.449-2.367,2.67C62.72,58.056,58.497,58.393,54.312,58.393z
		 M49.126,38.213l0.358,3.197c0.033,0.36,0.416,0.936,1.083,1.357l0.197,0.124l0.43,3.08l-0.507,0.062
		c-3.306,0.398-6.466,1.305-9.393,2.693c-0.753,0.397-1.355,1.505-1.271,2.36c0.113,1.178,0.23,2.352,0.353,3.531
		c0.083,0.812,0.809,1.648,1.552,1.789c8.159,1.307,16.593,1.31,24.777-0.002c0.732-0.139,1.461-0.975,1.545-1.787
		c0.119-1.178,0.234-2.354,0.348-3.529c0.085-0.861-0.519-1.968-1.291-2.371c-2.905-1.381-6.062-2.287-9.368-2.685l-0.509-0.062
		l0.439-3.079l0.194-0.124c0.667-0.424,1.042-0.996,1.069-1.342l0.387-3.235l0.729,0.744c0.018,0.018,0.053,0.048,0.09,0.052
		c0.075,0,0.133-0.051,0.139-0.115l0.353-3.356c0.009-0.079-0.057-0.134-0.122-0.141l-0.854,0.488l0.041-0.963l0.25-2.216
		c0.094-0.977,0.269-2.794-1.053-3.969c-1.07-1.051-2.85-1.668-4.777-1.668c-1.929,0-3.707,0.617-4.758,1.651
		c-1.348,1.199-1.166,3.022-1.067,4.002L48.518,33c0.044,0.424,0.095,0.858,0.146,1.293l0.182,1.582l-0.855-0.485
		c-0.132-0.005-0.201,0.049-0.193,0.13l0.351,3.345c0.008,0.067,0.066,0.123,0.132,0.123c0.037-0.003,0.076-0.025,0.112-0.061
		L49.126,38.213z"/>
	<g>
		<path opacity="0.6" fill="#C1BAAC" d="M48.281,38.987c0.037-0.003,0.076-0.025,0.112-0.061l0.733-0.713l0.304,2.707
			c2.756-4.55,6.198-8.497,10.164-11.617c-0.139-0.207-0.297-0.407-0.501-0.588c-1.07-1.051-2.85-1.668-4.777-1.668
			c-1.929,0-3.707,0.617-4.758,1.651c-1.348,1.199-1.166,3.022-1.067,4.002L48.518,33c0.044,0.424,0.095,0.858,0.146,1.293
			l0.182,1.582l-0.855-0.485c-0.132-0.005-0.201,0.049-0.193,0.13l0.351,3.345C48.156,38.932,48.215,38.987,48.281,38.987z"/>
		<path opacity="0.6" fill="#C1BAAC" d="M46.369,46.881c-1.751,0.469-3.452,1.074-5.074,1.845c-0.753,0.397-1.355,1.505-1.271,2.36
			c0.113,1.178,0.23,2.352,0.353,3.531c0.083,0.812,0.809,1.648,1.552,1.789c0.467,0.075,0.938,0.131,1.407,0.197
			C44.035,53.199,45.058,49.944,46.369,46.881z"/>
	</g>
</g>
<g>
	<g>
		<linearGradient id="SVGID_3_" gradientUnits="userSpaceOnUse" x1="16.6038" y1="27.2043" x2="33.0671" y2="27.2043">
			<stop  offset="0" style="stop-color:#E6E6E6"/>
			<stop  offset="0.5398" style="stop-color:#FFFFFF"/>
			<stop  offset="1" style="stop-color:#C8C8C8"/>
		</linearGradient>
		<path fill="url(#SVGID_3_)" d="M23.12,34.625c-0.064,0-0.133-0.006-0.205-0.02c-0.395-0.074-0.785-0.224-1.162-0.446
			c-0.233-0.138-0.52-0.416-0.564-0.955c-0.019-0.211-0.03-0.426-0.032-0.641l-0.039-5.998c-0.001-0.102-0.011-0.205-0.031-0.305
			c-0.013-0.067-0.043-0.143-0.177-0.214l-0.544-0.279c-0.292-0.148-0.585-0.297-0.872-0.456c-0.512-0.283-1.021-0.576-1.516-0.891
			c-0.484-0.309-0.882-0.728-1.182-1.247c-0.235-0.408-0.213-0.764-0.153-0.991c0.125-0.481,0.544-0.824,1.068-0.87
			c0.456-0.041,0.902,0.045,1.271,0.125c0.392,0.086,0.775,0.237,1.245,0.49c0.603,0.326,1.201,0.657,1.799,0.987l0.581,0.32
			l-0.117,0.506l0.238-0.44l0.378,0.445l-0.237-0.44l5.906-3.201c0.22-0.12,0.56-0.282,0.965-0.316
			c0.529-0.046,1.001,0.135,1.423,0.532c0.074,0.069,0.144,0.145,0.211,0.222c0.395,0.446,0.379,0.98-0.041,1.394
			c-0.164,0.161-0.336,0.312-0.508,0.461l-2.848,2.508c-0.262,0.229-0.485,0.505-0.717,0.798l2.729,1.683l0.718-0.505
			c0.337-0.237,0.674-0.352,1.031-0.352c0.484,0.017,0.855,0.202,1.134,0.537c0.262,0.317,0.192,0.683,0.166,0.821
			c-0.028,0.154-0.086,0.313-0.169,0.456c-0.715,1.186-1.429,2.362-2.143,3.538c-0.092,0.158-0.144,0.246-0.202,0.332
			c-0.231,0.339-0.511,0.411-0.705,0.411c-0.13,0-0.262-0.031-0.405-0.094c-0.208-0.093-0.389-0.175-0.563-0.272
			c-0.394-0.223-0.596-0.607-0.56-1.056c0.032-0.389,0.07-0.777,0.11-1.164l-2.934-1.414c-0.054,0.085-0.104,0.179-0.152,0.281
			c-0.156,0.336-0.245,0.708-0.338,1.103l-0.183,0.765c-0.223,0.933-0.447,1.865-0.673,2.796c-0.035,0.15-0.088,0.302-0.147,0.448
			C23.818,34.403,23.507,34.625,23.12,34.625z M23.098,33.629l0.021,0.496v-0.5C23.114,33.625,23.106,33.627,23.098,33.629z
			 M17.956,22.303c-0.052,0-0.104,0.002-0.157,0.006c-0.096,0.009-0.17,0.059-0.188,0.127c-0.008,0.032-0.027,0.101,0.052,0.237
			c0.219,0.378,0.506,0.682,0.853,0.903c0.478,0.304,0.969,0.587,1.463,0.86c0.276,0.154,0.558,0.296,0.839,0.438l0.561,0.288
			c0.377,0.202,0.615,0.516,0.69,0.909c0.031,0.157,0.048,0.323,0.049,0.487l0.039,5.996c0.002,0.188,0.012,0.377,0.028,0.564
			c0.012,0.141,0.054,0.166,0.077,0.179c0.261,0.154,0.528,0.26,0.794,0.315c0.042-0.103,0.072-0.19,0.092-0.278
			c0.228-0.934,0.45-1.865,0.673-2.796l0.183-0.763c0.101-0.425,0.206-0.865,0.405-1.293c0.152-0.326,0.331-0.596,0.547-0.827
			l0.251-0.268l3.779,1.819c0.355,0.17,0.471,0.378,0.428,0.765c-0.047,0.446-0.09,0.877-0.125,1.31
			c-0.005,0.063,0.005,0.076,0.052,0.102c0.128,0.071,0.265,0.133,0.401,0.195c0.03-0.048,0.056-0.092,0.081-0.135
			c0.763-1.259,1.477-2.434,2.186-3.611c0.02-0.034,0.039-0.084,0.046-0.129c-0.048-0.115-0.154-0.169-0.294-0.175
			c0,0-0.001,0-0.002,0c-0.167,0-0.312,0.054-0.477,0.169l-1.046,0.738l-0.231,0.028c-0.113,0-0.224-0.033-0.329-0.098l-3.879-2.434
			l0.629-0.787c0.276-0.348,0.548-0.691,0.892-0.993l2.851-2.51c0.158-0.137,0.315-0.274,0.465-0.421
			c-0.056-0.072-0.103-0.125-0.154-0.173c-0.195-0.183-0.381-0.268-0.586-0.268c-0.237,0.017-0.414,0.079-0.642,0.202l-5.909,3.203
			c-0.348,0.187-0.737,0.186-1.091-0.005l-0.709-0.392c-0.597-0.329-1.192-0.658-1.792-0.983c-0.383-0.207-0.687-0.328-0.982-0.393
			C18.507,22.359,18.226,22.303,17.956,22.303z"/>
	</g>
	<g>
		<linearGradient id="SVGID_4_" gradientUnits="userSpaceOnUse" x1="26.3284" y1="60.0305" x2="29.8118" y2="60.0305">
			<stop  offset="0" style="stop-color:#E6E6E6"/>
			<stop  offset="0.5398" style="stop-color:#FFFFFF"/>
			<stop  offset="1" style="stop-color:#C8C8C8"/>
		</linearGradient>
		<path fill="url(#SVGID_4_)" d="M28.548,68.416h-0.003c-0.783,0-1.311-0.514-1.312-1.277l-0.001-4.961h-0.029
			c-0.101,0-0.409,0-0.638-0.23c-0.214-0.215-0.238-0.506-0.237-0.705c0.009-1.664,0.009-3.329,0.009-4.994l0.001-2.707
			c0.003-1.24,0.733-1.688,1.345-1.844c1.077-0.271,2.127,0.543,2.127,1.641l0.001,13.811C29.812,67.942,29.34,68.415,28.548,68.416
			z"/>
		<path fill="#777266" d="M29.312,60.223c0,2.309,0,4.617,0,6.926c0,0.516-0.252,0.768-0.765,0.768
			c-0.506,0.002-0.813-0.291-0.814-0.779c-0.001-1.674,0-3.35-0.001-5.023c0-0.441-0.003-0.463-0.457-0.438
			c-0.337,0.018-0.448-0.076-0.446-0.432c0.015-2.566,0.006-5.135,0.01-7.703c0.002-0.764,0.318-1.193,0.969-1.359
			c0.772-0.197,1.504,0.361,1.504,1.156C29.313,55.631,29.312,57.928,29.312,60.223z"/>
	</g>
	<g>
		<linearGradient id="SVGID_5_" gradientUnits="userSpaceOnUse" x1="20.509" y1="60.0686" x2="25.3352" y2="60.0686">
			<stop  offset="0" style="stop-color:#E6E6E6"/>
			<stop  offset="0.5398" style="stop-color:#FFFFFF"/>
			<stop  offset="1" style="stop-color:#C8C8C8"/>
		</linearGradient>
		<path fill="url(#SVGID_5_)" d="M22.937,68.489c-0.21,0-0.416-0.052-0.609-0.153c-0.311-0.161-0.683-0.496-0.681-1.166
			c0.005-1.038,0.004-2.075,0.003-3.112l-0.001-2.239c-0.001-1.003-0.003-2.004,0.006-3.007c0.001-0.092-0.007-0.121-0.007-0.123
			c-0.707-0.111-1.137-0.682-1.137-1.443l0-0.523c-0.001-1.399-0.002-2.801,0.009-4.201c0.002-0.277,0.178-0.734,0.549-0.839
			l0.232-0.033c0.188,0,0.362,0.071,0.489,0.198c0.025,0.025,0.047,0.052,0.067,0.079c0.111-0.12,0.269-0.229,0.458-0.26
			c0.293-0.005,0.456,0.111,0.582,0.247c0.143-0.138,0.364-0.258,0.573-0.258h0.143l0.147,0.082c0.077,0.05,0.155,0.12,0.223,0.205
			c0.154-0.209,0.415-0.282,0.611-0.282l0.202,0.028c0.284,0.09,0.473,0.369,0.517,0.602c0.031,0.152,0.025,0.303,0.021,0.423
			l-0.003,0.108v4.381c0,0.802-0.366,1.31-1.088,1.51c0.004,2.844,0.003,5.618,0,8.395C24.24,67.881,23.668,68.489,22.937,68.489z
			 M21.51,56.463c0,0.086,0,0.172,0,0.258l0,0.522c0,0.438,0.26,0.497,0.345,0.516c0.808,0.187,0.801,0.845,0.799,1.062
			c-0.009,0.998-0.007,1.996-0.006,2.996l0.001,2.239c0.001,1.038,0.001,2.077-0.003,3.117c0,0.187,0.059,0.231,0.144,0.276
			c0.206,0.105,0.449-0.016,0.45-0.344c0.003-2.809,0.004-5.615-0.003-8.422c-0.001-0.184-0.006-0.75,0.705-0.928
			c0.29-0.072,0.386-0.162,0.386-0.555v-0.737c-0.282,0.097-0.669,0.05-0.885-0.136c-0.138,0.122-0.32,0.184-0.542,0.184
			c-0.171-0.008-0.371-0.044-0.528-0.166c-0.161,0.129-0.361,0.164-0.509,0.168c-0.001,0-0.002,0-0.003,0
			C21.726,56.514,21.61,56.497,21.51,56.463z"/>
		<path fill="#777266" d="M22.15,62.924c0-1.371-0.007-2.738,0.005-4.109c0.003-0.312-0.062-0.488-0.41-0.568
			c-0.485-0.109-0.734-0.498-0.734-1.002c-0.001-1.572-0.004-3.146,0.009-4.721c0.001-0.127,0.095-0.336,0.185-0.361
			c0.259-0.068,0.314,0.123,0.313,0.348c-0.003,1.02-0.001,2.037-0.001,3.057c0,0.232-0.027,0.457,0.333,0.447
			c0.285-0.008,0.302-0.166,0.301-0.377c-0.001-1.008,0-2.016,0-3.021c0-0.092-0.025-0.197,0.015-0.268
			c0.045-0.084,0.143-0.176,0.229-0.189c0.057-0.008,0.163,0.104,0.194,0.182c0.036,0.088,0.016,0.199,0.016,0.301
			c0.001,0.996,0,1.994,0.001,2.988c0,0.182-0.021,0.367,0.258,0.383c0.253,0.012,0.332-0.08,0.329-0.332
			c-0.011-1.029-0.005-2.061-0.003-3.09c0-0.102-0.018-0.227,0.034-0.297c0.058-0.074,0.225-0.162,0.271-0.133
			c0.091,0.059,0.186,0.195,0.188,0.301c0.014,0.977,0.008,1.947,0.009,2.922c0,0.104,0.005,0.203,0,0.307
			c-0.011,0.227,0.08,0.324,0.318,0.324c0.241,0,0.317-0.105,0.316-0.328c-0.004-1.041-0.002-2.082,0.002-3.125
			c0-0.107,0.001-0.24,0.058-0.322c0.043-0.061,0.188-0.096,0.267-0.072c0.074,0.023,0.153,0.133,0.169,0.215
			c0.028,0.143,0.009,0.293,0.009,0.439c0,1.461,0,2.92,0,4.381c0,0.578-0.21,0.9-0.765,1.039c-0.273,0.068-0.328,0.189-0.326,0.441
			c0.007,2.809,0.006,5.615,0.003,8.424c0,0.668-0.621,1.08-1.181,0.787c-0.289-0.15-0.414-0.395-0.413-0.723
			C22.154,65.754,22.15,64.34,22.15,62.924z"/>
	</g>
	<g>
		<g>
			<linearGradient id="SVGID_6_" gradientUnits="userSpaceOnUse" x1="48.1965" y1="74.7561" x2="62.8733" y2="74.7561">
				<stop  offset="0" style="stop-color:#E6E6E6"/>
				<stop  offset="0.5398" style="stop-color:#FFFFFF"/>
				<stop  offset="1" style="stop-color:#C8C8C8"/>
			</linearGradient>
			<path fill="url(#SVGID_6_)" d="M59.784,82.127h-0.373l-0.051-0.053H59.34l-0.874-0.002l-7.314,0.008l-0.096-0.025
				c-0.675-0.228-1.023-0.783-0.931-1.485c0.081-0.608,0.683-1.12,1.315-1.12c0.33,0.008,0.63,0.01,0.93,0.01l1.585-0.008
				l0.231,0.002c-0.01-1.346-0.006-2.659,0.001-3.973c0.001-0.066-0.007-0.105-0.075-0.189c-1.092-1.309-2.183-2.624-3.273-3.939
				l-2.442-2.953c-0.083-0.1-0.301-0.362-0.148-0.686c0.057-0.121,0.207-0.324,0.577-0.324l4.386-0.004l9.661,0.004l-0.113,0.594
				c-0.043,0.223-0.171,0.365-0.246,0.449c-1.893,2.337-3.755,4.638-5.618,6.934l-0.041,0.092c0.005,1.332,0.008,2.664-0.002,3.993
				l0.544-0.001c0.622,0,1.245,0.005,1.866,0.01l0.411,0.004c0.558,0.002,0.996,0.29,1.2,0.788c0.211,0.505,0.125,1.024-0.243,1.462
				c-0.171,0.205-0.384,0.272-0.51,0.313l-0.122,0.075L59.784,82.127z M59.47,81.069c0.094,0,0.176,0.016,0.245,0.039
				c0.036-0.013,0.071-0.023,0.101-0.033c0.199-0.182,0.193-0.303,0.135-0.441c-0.037-0.09-0.086-0.17-0.283-0.17l-0.412-0.004
				c-0.619-0.005-1.238-0.01-1.858-0.01l-0.735,0.002c-0.121,0-0.398,0-0.604-0.207c-0.188-0.189-0.207-0.43-0.206-0.594
				c0.012-1.395,0.008-2.791,0.003-4.189c-0.004-0.268,0.084-0.508,0.267-0.729c0.352-0.434,0.702-0.865,1.054-1.299
				c-0.184,0.078-0.387,0.123-0.602,0.125c-0.431,0-0.82-0.164-1.112-0.459c-0.292-0.297-0.45-0.69-0.445-1.109
				c0.007-0.873,0.667-1.535,1.535-1.535c0.427,0,0.821,0.161,1.111,0.452c0.289,0.29,0.448,0.683,0.446,1.105
				c0,0.105-0.011,0.208-0.03,0.307c1.062-1.31,2.122-2.62,3.183-3.932l-8.048-0.003l-3.526,0.004l1.922,2.324
				c1.091,1.315,2.181,2.629,3.275,3.941c0.211,0.26,0.307,0.522,0.304,0.834c-0.008,1.385-0.011,2.771,0.002,4.159
				c0.001,0.106,0.003,0.388-0.206,0.598c-0.207,0.208-0.486,0.208-0.578,0.208l-0.45-0.002l-1.585,0.008
				c-0.309,0-0.617-0.002-0.926-0.01l0,0c-0.153,0-0.314,0.156-0.327,0.252c-0.026,0.202,0.022,0.306,0.19,0.379l7.159-0.008
				l0.882,0.002L59.47,81.069z M56.551,71.455c-0.312,0-0.532,0.225-0.535,0.547c-0.002,0.15,0.054,0.29,0.157,0.395
				c0.103,0.104,0.239,0.162,0.385,0.162c0.315-0.004,0.55-0.239,0.551-0.549c0-0.158-0.053-0.295-0.154-0.396
				S56.71,71.455,56.551,71.455z"/>
			<path fill="#777266" d="M59.784,81.627c-0.054,0-0.107,0-0.161,0c-0.081-0.084-0.185-0.053-0.279-0.053
				c-0.527-0.004-1.06-0.002-1.589-0.002c-2.178,0.002-4.357,0.006-6.539,0.008c-0.455-0.152-0.655-0.482-0.595-0.945
				c0.047-0.352,0.434-0.695,0.836-0.686c0.978,0.025,1.955-0.006,2.934,0.004c0.237,0.004,0.301-0.066,0.299-0.301
				c-0.013-1.391-0.01-2.779-0.002-4.17c0.002-0.203-0.062-0.354-0.188-0.508c-1.264-1.516-2.521-3.033-3.781-4.551
				c-0.646-0.781-1.289-1.562-1.937-2.344c-0.09-0.109-0.157-0.197,0.067-0.191c1.455-0.002,2.909-0.004,4.363-0.004
				c3.019,0,6.036,0.002,9.056,0.004c-0.021,0.111-0.109,0.184-0.176,0.266c-1.86,2.299-3.722,4.6-5.586,6.896
				c-0.102,0.123-0.154,0.246-0.152,0.408c0.005,1.4,0.009,2.799-0.003,4.195c-0.002,0.244,0.074,0.301,0.306,0.297
				c1.004-0.008,2.009,0.004,3.013,0.012c0.347,0.002,0.609,0.154,0.742,0.479c0.143,0.342,0.081,0.658-0.164,0.951
				C60.12,81.545,59.932,81.535,59.784,81.627z M56.551,70.955c-0.586,0-1.03,0.447-1.035,1.043
				c-0.008,0.59,0.469,1.066,1.053,1.061c0.582-0.006,1.038-0.467,1.04-1.047C57.611,71.412,57.154,70.955,56.551,70.955z"/>
			<path opacity="0.6" fill="#C1BAAC" d="M50.719,70.424c0.419,0.504,0.838,1.008,1.257,1.513c2.449-2.023,5.955-3.343,9.895-3.508
				c0.074-0.092,0.148-0.183,0.223-0.274c0.066-0.082,0.154-0.154,0.176-0.266c-3.02-0.002-6.037-0.004-9.056-0.004
				c-1.454,0-2.908,0.002-4.363,0.004c-0.225-0.006-0.157,0.082-0.067,0.191C49.43,68.862,50.073,69.643,50.719,70.424z"/>
		</g>
	</g>
	<g>
		<g>
			<linearGradient id="SVGID_7_" gradientUnits="userSpaceOnUse" x1="73.8674" y1="60.0637" x2="91.2239" y2="60.0637">
				<stop  offset="0" style="stop-color:#E6E6E6"/>
				<stop  offset="0.5398" style="stop-color:#FFFFFF"/>
				<stop  offset="1" style="stop-color:#C8C8C8"/>
			</linearGradient>
			<path fill="url(#SVGID_7_)" d="M87.486,68.803h-9.904l0.02-0.518V57.985c-0.131,0.196-0.262,0.393-0.392,0.59
				c-0.348,0.531-0.729,0.286-0.88,0.194c-0.704-0.437-1.405-0.867-2.117-1.29c-0.068-0.04-0.273-0.162-0.331-0.418
				c-0.056-0.254,0.073-0.444,0.129-0.525c0.751-1.088,1.366-2.006,1.935-2.961c0.386-0.645,0.951-1.137,1.684-1.463
				c0.363-0.159,0.729-0.242,1.081-0.322c0.167-0.038,0.334-0.076,0.499-0.122c0.172-0.048,0.344-0.089,0.517-0.13
				c0.233-0.057,0.466-0.111,0.694-0.188l0.159-0.025h0.298l0.207,0.262c0.142,0.264,0.332,0.49,0.564,0.674
				c0.416,0.328,0.838,0.411,1.312,0.258c0.42-0.137,0.753-0.436,1.045-0.943l0.145-0.25h0.459l0.113,0.059l0.588,0.144
				c0.561,0.136,1.123,0.272,1.68,0.426c0.898,0.248,1.581,0.736,2.031,1.45c0.783,1.244,1.442,2.252,2.076,3.171
				c0.049,0.072,0.168,0.251,0.113,0.492l-0.048,0.211l-0.255,0.178c-0.724,0.435-1.447,0.878-2.172,1.325l-0.12,0.074l-0.224,0.031
				c-0.143,0-0.346-0.051-0.508-0.292c-0.137-0.208-0.271-0.412-0.408-0.615L87.486,68.803z M78.603,67.803h7.881L86.48,56.559
				c-0.006-0.074-0.02-0.242,0.084-0.428l0.396-0.713l1.052,1.564c0.17,0.252,0.34,0.504,0.508,0.756
				c0.509-0.313,1.017-0.624,1.525-0.932c-0.572-0.842-1.174-1.764-1.869-2.871c-0.313-0.496-0.802-0.84-1.451-1.02
				c-0.546-0.15-1.099-0.284-1.65-0.418l-0.408-0.1c-0.381,0.539-0.84,0.891-1.397,1.07c-0.79,0.256-1.563,0.108-2.239-0.423
				c-0.237-0.188-0.444-0.405-0.617-0.649c-0.137,0.037-0.297,0.075-0.455,0.113c-0.16,0.037-0.319,0.075-0.477,0.119
				c-0.182,0.051-0.365,0.094-0.549,0.135c-0.321,0.073-0.625,0.143-0.898,0.263c-0.545,0.243-0.947,0.59-1.229,1.061
				c-0.531,0.89-1.097,1.743-1.767,2.72c0.513,0.308,1.02,0.618,1.526,0.931c0.204-0.308,0.41-0.613,0.615-0.919l0.711-1.061
				l0.519,0.249l0.196,0.174l-0.006,0.347L78.603,67.803z"/>
			<path fill="#777266" d="M86.985,68.303c-2.961,0-5.924,0-8.885,0c0.001-0.027,0.003-0.055,0.003-0.08c0-3.91,0-7.82-0.002-11.73
				c0-0.035,0.019-0.074-0.023-0.111c-0.03,0.047-0.061,0.088-0.09,0.131c-0.398,0.596-0.802,1.188-1.196,1.789
				c-0.062,0.094-0.104,0.102-0.198,0.043c-0.707-0.438-1.411-0.871-2.126-1.295c-0.132-0.078-0.117-0.125-0.044-0.232
				c0.676-0.979,1.343-1.965,1.951-2.986c0.351-0.586,0.847-0.99,1.457-1.262c0.483-0.213,1.009-0.277,1.513-0.42
				c0.41-0.115,0.83-0.189,1.234-0.324c0.022,0,0.042,0,0.064,0c0.175,0.324,0.408,0.602,0.695,0.828
				c0.531,0.418,1.127,0.551,1.775,0.342c0.605-0.197,1.015-0.631,1.325-1.17c0.021,0,0.044,0,0.064,0
				c0.013,0.01,0.021,0.025,0.034,0.027c0.772,0.191,1.552,0.371,2.319,0.582c0.724,0.201,1.335,0.592,1.741,1.236
				c0.676,1.074,1.365,2.141,2.087,3.188c0.05,0.074,0.064,0.109-0.03,0.166c-0.729,0.438-1.455,0.883-2.181,1.33
				c-0.082,0.051-0.121,0.041-0.176-0.041c-0.264-0.402-0.533-0.801-0.803-1.201c-0.163-0.242-0.325-0.486-0.495-0.738
				c-0.039,0.07-0.021,0.129-0.021,0.186c0,3.232,0,6.469,0,9.703C86.982,66.942,86.983,67.621,86.985,68.303z"/>
		</g>
	</g>
	<g>
		<g>
			<linearGradient id="SVGID_8_" gradientUnits="userSpaceOnUse" x1="43.7209" y1="8.3079" x2="64.9094" y2="8.3079">
				<stop  offset="0" style="stop-color:#E6E6E6"/>
				<stop  offset="0.5398" style="stop-color:#FFFFFF"/>
				<stop  offset="1" style="stop-color:#C8C8C8"/>
			</linearGradient>
			<path fill="url(#SVGID_8_)" d="M49.322,14.527l-0.039,0c-0.868-0.02-1.555-0.693-1.614-1.574
				c-0.166,0.008-0.333-0.014-0.496-0.061c-0.714-0.208-1.187-0.807-1.206-1.528c-0.012-0.521-0.012-1.043-0.007-1.563
				c-0.043,0-0.086,0-0.129,0l-0.541-0.003c-0.648-0.003-1.105-0.268-1.391-0.806l-0.178-0.033V7.679l0.165-0.041
				c0.266-0.516,0.727-0.804,1.314-0.819c0.255-0.006,0.508-0.006,0.759-0.005c-0.003-0.487-0.003-0.973,0.002-1.457
				c0.01-0.966,0.727-1.695,1.668-1.695l0.042,0.001c0.071-0.9,0.755-1.567,1.639-1.574c0.957,0,1.67,0.738,1.674,1.717
				c0.004,1.004,0.006,2.009-0.001,3.015l3.19-0.004l3.184,0.004c-0.007-1.015-0.006-2.02-0.002-3.024
				c0.006-0.973,0.719-1.707,1.66-1.707l0.125,0.004c0.795,0.055,1.443,0.692,1.51,1.482c0.002,0.026,0.004,0.053,0.006,0.08
				c0.453-0.023,0.912,0.163,1.236,0.492c0.32,0.323,0.494,0.768,0.489,1.252c-0.003,0.282-0.003,0.564-0.002,0.845
				c0,0.19,0.001,0.379,0,0.569c0.093-0.001,0.185-0.001,0.276-0.001l0.662,0.002c0.725,0.001,1.209,0.313,1.473,0.951l0.119,0.084
				l-0.005,1.058L64.749,8.96c-0.271,0.529-0.729,0.82-1.304,0.835C63.089,9.803,62.734,9.806,62.38,9.8
				c0.006,0.489,0.004,0.977-0.003,1.465c-0.013,0.961-0.732,1.687-1.674,1.688l-0.048-0.001c-0.002,0.022-0.003,0.044-0.004,0.066
				c-0.074,0.86-0.781,1.508-1.646,1.508c-0.905-0.013-1.632-0.723-1.643-1.583c-0.015-1.049-0.013-2.098-0.007-3.147
				c-2.153,0.006-4.255,0.006-6.374,0c0.006,1.012,0.005,2.014,0.001,3.016C50.98,13.789,50.265,14.527,49.322,14.527z
				 M48.665,11.512l-0.001,1.001c-0.001,0.124-0.002,0.24,0.002,0.356c0.017,0.372,0.286,0.649,0.64,0.657l0.017,0.5v-0.5
				c0.388,0,0.66-0.296,0.662-0.72c0.005-1.102,0.005-2.204-0.003-3.306c0-0.091-0.002-0.331,0.185-0.519s0.428-0.188,0.519-0.188
				c2.321,0.007,4.638,0.007,6.955,0c0.123,0.008,0.344,0,0.531,0.189c0.189,0.19,0.188,0.435,0.188,0.527
				c-0.007,1.139-0.012,2.278,0.005,3.418c0.004,0.325,0.288,0.592,0.632,0.597l0,0c0.357,0,0.63-0.249,0.659-0.592
				c0.013-0.151,0.012-0.305,0.012-0.458c0-0.512,0.359-0.639,0.55-0.639h0.115l0.176,0.074c0.051,0.023,0.1,0.038,0.148,0.041
				h0.002c0.445,0,0.715-0.282,0.72-0.7c0.009-0.586,0.009-1.172-0.003-1.758c-0.001-0.083-0.004-0.324,0.182-0.512
				c0.185-0.187,0.424-0.187,0.504-0.187c0.489,0.01,0.912,0.012,1.36,0c0.224-0.005,0.354-0.099,0.456-0.324
				c0.006-0.036,0.017-0.069,0.029-0.1l-0.004-0.124c-0.113-0.347-0.229-0.431-0.588-0.432l-0.658-0.002
				c-0.197,0-0.396,0.001-0.594,0.005c0,0,0,0-0.001,0c-0.226,0-0.388-0.062-0.507-0.182c-0.182-0.185-0.179-0.418-0.178-0.495
				c0.004-0.298,0.004-0.597,0.003-0.895c-0.001-0.286-0.001-0.572,0.002-0.858c0.002-0.218-0.067-0.404-0.199-0.538
				c-0.179-0.18-0.479-0.246-0.675-0.15l-0.105,0.052l-0.189,0.024c-0.188,0-0.546-0.127-0.546-0.609
				c0-0.169,0.001-0.339-0.014-0.508c-0.024-0.298-0.279-0.547-0.58-0.568c-0.001,0-0.003,0-0.005,0
				c-0.447,0-0.711,0.285-0.713,0.709C58.35,4.902,58.35,6.004,58.36,7.105c0.001,0.082,0.003,0.334-0.186,0.526
				c-0.188,0.19-0.438,0.19-0.532,0.19l-3.469-0.004l-3.468,0.004c-0.109,0.002-0.345,0-0.535-0.191
				c-0.191-0.192-0.189-0.44-0.189-0.534c0.009-1.097,0.008-2.191,0.003-3.286c-0.002-0.425-0.272-0.721-0.659-0.721
				c-0.388,0.003-0.657,0.3-0.661,0.723l0,0.308l0,0.779l-0.599-0.121C47.973,4.759,47.888,4.73,47.804,4.7
				c-0.044-0.016-0.101-0.036-0.123-0.037c-0.449,0-0.716,0.284-0.72,0.705c-0.007,0.593-0.005,1.188,0.001,1.783
				c0.003,0.2-0.057,0.364-0.177,0.486c-0.119,0.121-0.279,0.182-0.475,0.182c-0.401-0.008-0.73-0.009-1.085,0
				c-0.242,0.006-0.38,0.103-0.477,0.333c-0.006,0.034-0.016,0.065-0.027,0.095l0.011,0.168c0.121,0.297,0.242,0.38,0.563,0.382
				l0.535,0.003c0.143,0,0.286-0.001,0.428-0.007c0.199-0.005,0.404,0.061,0.525,0.184c0.184,0.187,0.181,0.428,0.18,0.507
				c-0.007,0.616-0.011,1.236,0.004,1.854c0.007,0.289,0.184,0.505,0.484,0.592c0.156,0.044,0.305,0.023,0.495-0.069L48.665,11.512z
				"/>
			<path fill="#777266" d="M64.405,8.547c-0.062,0.021-0.054,0.084-0.072,0.129c-0.175,0.39-0.472,0.608-0.899,0.619
				c-0.455,0.012-0.908,0.01-1.36,0c-0.147-0.002-0.2,0.026-0.198,0.188c0.012,0.592,0.012,1.183,0.003,1.774
				c-0.01,0.724-0.549,1.232-1.251,1.192c-0.119-0.007-0.232-0.04-0.339-0.091c-0.105-0.052-0.121-0.01-0.121,0.085
				c0,0.177,0.001,0.354-0.014,0.531c-0.052,0.61-0.551,1.059-1.164,1.05c-0.604-0.009-1.117-0.483-1.125-1.09
				c-0.017-1.144-0.012-2.286-0.005-3.429c0.001-0.179-0.048-0.214-0.217-0.213c-2.319,0.007-4.639,0.007-6.957,0
				c-0.163,0-0.205,0.038-0.204,0.203c0.008,1.104,0.008,2.208,0.003,3.312c-0.003,0.715-0.516,1.232-1.189,1.218
				c-0.618-0.014-1.1-0.498-1.128-1.139c-0.007-0.184-0.001-0.366-0.001-0.576c-0.285,0.139-0.562,0.184-0.854,0.1
				c-0.497-0.145-0.831-0.544-0.845-1.061c-0.015-0.624-0.011-1.249-0.004-1.872c0.002-0.15-0.039-0.188-0.186-0.185
				c-0.328,0.013-0.658,0.006-0.985,0.004c-0.523-0.003-0.827-0.209-1.025-0.698c-0.01-0.024-0.015-0.05-0.046-0.056
				c0-0.157,0-0.315,0-0.474c0.059-0.015,0.051-0.072,0.066-0.111c0.172-0.41,0.482-0.628,0.926-0.64
				c0.361-0.009,0.723-0.008,1.083,0c0.128,0.003,0.168-0.032,0.166-0.163c-0.006-0.598-0.008-1.196-0.001-1.793
				c0.008-0.738,0.549-1.246,1.26-1.198c0.153,0.011,0.284,0.09,0.443,0.122c0-0.167-0.002-0.323,0-0.48
				c0.007-0.697,0.494-1.213,1.149-1.218c0.664-0.006,1.167,0.511,1.17,1.219c0.005,1.097,0.006,2.193-0.003,3.291
				c-0.001,0.18,0.044,0.224,0.223,0.223c2.313-0.006,4.625-0.006,6.938,0c0.168,0,0.22-0.031,0.218-0.212
				c-0.01-1.103-0.01-2.207-0.005-3.311c0.004-0.741,0.541-1.254,1.252-1.206c0.542,0.037,0.999,0.479,1.044,1.024
				c0.016,0.184,0.016,0.367,0.016,0.551c0,0.093,0.01,0.141,0.119,0.085c0.637-0.314,1.605,0.142,1.596,1.143
				c-0.007,0.584,0.003,1.169-0.005,1.754c-0.002,0.142,0.04,0.173,0.176,0.17c0.421-0.009,0.841-0.005,1.263-0.003
				c0.574,0.001,0.882,0.226,1.062,0.773c0.003,0.009,0.021,0.013,0.03,0.02C64.405,8.257,64.405,8.401,64.405,8.547z"/>
		</g>
	</g>
	<g>
		<linearGradient id="SVGID_9_" gradientUnits="userSpaceOnUse" x1="74.9348" y1="25.3347" x2="89.429" y2="25.3347">
			<stop  offset="0" style="stop-color:#E6E6E6"/>
			<stop  offset="0.5398" style="stop-color:#FFFFFF"/>
			<stop  offset="1" style="stop-color:#C8C8C8"/>
		</linearGradient>
		<path fill="url(#SVGID_9_)" d="M89.429,32.859H76.503l-0.051-0.105c-0.912-0.323-1.517-1.167-1.517-2.139l-0.001-3.517
			l0.001-7.035c0-1.046,0.744-1.968,1.769-2.193l0.057-0.061l10.537,0.023l0.039,0.458c0.008,0.081,0.013,0.13,0.013,0.178
			c0,0.443,0,0.886,0,1.329c0.003-0.004,0.007-0.008,0.009-0.012c0.082-0.096,0.231-0.211,0.486-0.211
			c0.251,0.01,0.387,0.015,0.557,0.001c0.338,0.01,0.708,0.173,0.708,0.672c-0.004,3.983-0.004,7.966-0.002,11.948
			c-0.001,0.008-0.001,0.014-0.001,0.019L89.429,32.859z M81.923,30.994l5.307,0.002c0-0.332,0-0.663,0-0.994
			c-0.115,0.153-0.302,0.239-0.542,0.239l-9.261-0.003c-0.087,0-0.174,0-0.262,0.007c-0.16,0.013-0.25,0.076-0.312,0.218
			c-0.065,0.147-0.052,0.258,0.048,0.387c0.055,0.07,0.136,0.145,0.418,0.145L81.923,30.994z M77.044,18.832
			c-0.064,0.015-0.117,0.019-0.148,0.021c-0.547,0.12-0.96,0.632-0.96,1.212l-0.001,7.034l0.001,2.969
			c0.001-0.002,0.001-0.004,0.003-0.006c0.207-0.479,0.615-0.77,1.148-0.812c0.115-0.009,0.228-0.01,0.34-0.01l8.928,0.003
			c-0.005-3.471-0.005-6.939-0.005-10.408l-1.197,0.001l-7.987-0.001C77.122,18.837,77.081,18.835,77.044,18.832z"/>
		<path fill="#777266" d="M76.986,18.31c0.009,0,0.019,0,0.027,0c0.044,0.052,0.103,0.024,0.152,0.024
			c2.662,0.001,5.325,0.001,7.987,0.001c0.562,0,1.124-0.002,1.687-0.002c0.004,0.046,0.011,0.091,0.011,0.136
			c0,3.704,0,7.407,0.006,11.11c0,0.138-0.039,0.162-0.168,0.162c-3.086-0.004-6.173-0.003-9.261-0.003
			c-0.1,0-0.199,0.001-0.301,0.009c-0.346,0.027-0.597,0.206-0.731,0.518c-0.139,0.311-0.1,0.617,0.111,0.891
			c0.205,0.267,0.491,0.34,0.813,0.34c3.414-0.002,6.831-0.002,10.247,0.001c0.131,0,0.164-0.03,0.164-0.164
			c-0.005-3.676-0.003-7.353-0.003-11.028c0-0.027,0.003-0.056,0-0.082c-0.02-0.11,0.019-0.152,0.138-0.146
			c0.189,0.01,0.385,0.015,0.576-0.001c0.145-0.011,0.168,0.04,0.168,0.174c-0.004,3.982-0.004,7.966-0.002,11.948
			c0,0.054-0.015,0.109,0.012,0.162c-3.934,0-7.865,0-11.799,0c-0.021-0.046-0.07-0.037-0.107-0.047
			c-0.771-0.228-1.277-0.897-1.277-1.697c0-3.517-0.002-7.034,0-10.551c0-0.818,0.578-1.53,1.376-1.705
			C76.869,18.347,76.939,18.363,76.986,18.31z"/>
	</g>
	<path fill="#777266" d="M26.518,25.83c0.026,0.019,0.051,0.035,0.074,0.051c1.116,0.688,2.231,1.374,3.347,2.062
		c0.054,0.033,0.087,0.03,0.138-0.005c0.305-0.218,0.612-0.432,0.919-0.647c0.235-0.165,0.49-0.271,0.784-0.26
		c0.29,0.011,0.525,0.136,0.708,0.355c0.1,0.12,0.086,0.27,0.06,0.407c-0.019,0.104-0.058,0.208-0.11,0.299
		c-0.71,1.178-1.424,2.354-2.138,3.529c-0.062,0.104-0.12,0.209-0.188,0.31c-0.135,0.198-0.273,0.238-0.494,0.141
		c-0.176-0.079-0.354-0.158-0.522-0.252c-0.221-0.125-0.324-0.326-0.304-0.578c0.036-0.437,0.079-0.872,0.125-1.307
		c0.021-0.194,0.027-0.193-0.146-0.276c-1.124-0.541-2.246-1.082-3.37-1.623c-0.026-0.012-0.051-0.023-0.079-0.037
		c-0.194,0.207-0.34,0.441-0.458,0.695c-0.201,0.433-0.299,0.897-0.41,1.358c-0.271,1.133-0.542,2.267-0.817,3.397
		c-0.03,0.129-0.075,0.256-0.125,0.379c-0.095,0.235-0.257,0.331-0.504,0.285c-0.354-0.066-0.688-0.201-0.999-0.385
		c-0.211-0.125-0.301-0.331-0.32-0.565c-0.018-0.2-0.028-0.402-0.03-0.604c-0.014-1.999-0.025-3.997-0.039-5.996
		c-0.001-0.133-0.015-0.268-0.04-0.397c-0.049-0.257-0.207-0.439-0.432-0.56c-0.469-0.247-0.946-0.475-1.408-0.731
		c-0.504-0.278-1.004-0.566-1.49-0.876c-0.425-0.271-0.765-0.638-1.018-1.075c-0.109-0.189-0.16-0.395-0.103-0.612
		c0.071-0.275,0.319-0.473,0.629-0.5c0.382-0.033,0.752,0.036,1.121,0.116c0.396,0.087,0.762,0.252,1.113,0.441
		c0.795,0.431,1.584,0.869,2.376,1.306c0.042,0.021,0.083,0.046,0.124,0.068c0.204,0.11,0.411,0.115,0.616,0.005
		c0.535-0.288,1.067-0.579,1.603-0.868c1.436-0.778,2.869-1.557,4.305-2.334c0.241-0.131,0.491-0.234,0.769-0.258
		c0.41-0.035,0.747,0.124,1.039,0.398c0.062,0.059,0.121,0.123,0.178,0.188c0.218,0.246,0.219,0.477-0.016,0.707
		c-0.208,0.204-0.432,0.392-0.649,0.584c-0.896,0.789-1.791,1.578-2.687,2.366c-0.31,0.271-0.563,0.592-0.817,0.912
		C26.727,25.57,26.622,25.698,26.518,25.83z"/>
	<path opacity="0.6" fill="#C1BAAC" d="M27.321,21.464c-0.871,0.472-1.741,0.944-2.612,1.416c-0.535,0.289-1.067,0.58-1.603,0.868
		c-0.205,0.11-0.412,0.105-0.616-0.005c-0.041-0.022-0.082-0.047-0.124-0.068c-0.792-0.437-1.581-0.875-2.376-1.306
		c-0.352-0.189-0.717-0.354-1.113-0.441c-0.369-0.08-0.739-0.149-1.121-0.116c-0.31,0.027-0.558,0.225-0.629,0.5
		c-0.058,0.218-0.007,0.423,0.103,0.612c0.253,0.438,0.593,0.805,1.018,1.075c0.486,0.31,0.986,0.598,1.49,0.876
		c0.462,0.257,0.939,0.484,1.408,0.731c0.225,0.12,0.383,0.303,0.432,0.56c0.025,0.13,0.039,0.265,0.04,0.397
		c0.014,1.999,0.025,3.997,0.039,5.996c0.002,0.202,0.013,0.404,0.03,0.604c0.02,0.234,0.109,0.44,0.32,0.565
		c0.085,0.05,0.175,0.086,0.263,0.128C22.702,29.185,24.524,24.916,27.321,21.464z"/>
</g>
<g opacity="0.6">
	<path fill="#C1BAAC" d="M60.583,6.548c0.435,0,0.866,0.007,1.295,0.02c0-0.391-0.002-0.782,0.003-1.172
		c0.01-1.001-0.959-1.457-1.596-1.143c-0.109,0.056-0.119,0.008-0.119-0.085c0-0.184,0-0.367-0.016-0.551
		c-0.045-0.545-0.502-0.987-1.044-1.024c-0.711-0.048-1.248,0.465-1.252,1.206c-0.004,0.945-0.002,1.891,0.004,2.836
		C58.754,6.578,59.663,6.548,60.583,6.548z"/>
	<path fill="#C1BAAC" d="M45.292,9.298c0.2,0.001,0.401-0.001,0.603-0.002c2.009-0.837,4.233-1.506,6.615-1.974
		c-0.602,0-1.204-0.001-1.807,0c-0.179,0.001-0.224-0.043-0.223-0.223c0.009-1.098,0.008-2.194,0.003-3.291
		c-0.003-0.708-0.506-1.225-1.17-1.219c-0.655,0.005-1.143,0.521-1.149,1.218c-0.002,0.157,0,0.313,0,0.48
		c-0.159-0.032-0.29-0.111-0.443-0.122c-0.711-0.048-1.252,0.46-1.26,1.198c-0.007,0.597-0.005,1.195,0.001,1.793
		c0.002,0.131-0.038,0.166-0.166,0.163c-0.36-0.008-0.722-0.009-1.083,0c-0.443,0.012-0.754,0.229-0.926,0.64
		c-0.016,0.039-0.008,0.097-0.066,0.111c0,0.158,0,0.316,0,0.474c0.031,0.006,0.036,0.031,0.046,0.056
		C44.465,9.089,44.769,9.295,45.292,9.298z"/>
</g>
<path opacity="0.6" fill="#C1BAAC" d="M75.802,31.695c0.185-6.099,4.852-11.148,11.049-12.375c0-0.284-0.001-0.567-0.001-0.851
	c0-0.045-0.007-0.09-0.011-0.136c-0.562,0-1.125,0.002-1.687,0.002c-2.662,0-5.325,0-7.987-0.001c-0.05,0-0.108,0.027-0.152-0.024
	c-0.009,0-0.019,0-0.027,0c-0.047,0.053-0.116,0.037-0.174,0.049c-0.798,0.175-1.376,0.887-1.376,1.705
	c-0.002,3.517,0,7.034,0,10.551C75.436,31.023,75.571,31.396,75.802,31.695z"/>
<path opacity="0.6" fill="#C1BAAC" d="M78.077,56.381c0.042,0.037,0.023,0.076,0.023,0.111c0.001,2.195,0.001,4.393,0.001,6.588
	c1.662-4.474,5.644-7.945,10.629-9.207c-0.043-0.068-0.09-0.135-0.133-0.203c-0.406-0.645-1.018-1.035-1.741-1.236
	c-0.768-0.211-1.547-0.391-2.319-0.582c-0.013-0.002-0.021-0.018-0.034-0.027c-0.021,0-0.043,0-0.064,0
	c-0.311,0.539-0.72,0.973-1.325,1.17c-0.648,0.209-1.244,0.076-1.775-0.342c-0.287-0.227-0.521-0.504-0.695-0.828
	c-0.022,0-0.042,0-0.064,0c-0.404,0.135-0.824,0.209-1.234,0.324c-0.504,0.143-1.029,0.207-1.513,0.42
	c-0.61,0.271-1.106,0.676-1.457,1.262c-0.608,1.021-1.275,2.008-1.951,2.986c-0.073,0.107-0.088,0.154,0.044,0.232
	c0.715,0.424,1.419,0.857,2.126,1.295c0.095,0.059,0.137,0.051,0.198-0.043c0.395-0.602,0.798-1.193,1.196-1.789
	C78.017,56.469,78.047,56.428,78.077,56.381z"/>
<path opacity="0.6" fill="#C1BAAC" d="M21.744,58.246c0.348,0.08,0.413,0.256,0.41,0.568c0,0.013,0,0.025,0,0.037
	c0.734-1.289,1.635-2.453,2.674-3.461c0-0.857,0-1.714,0-2.57c0-0.146,0.02-0.297-0.009-0.439c-0.016-0.082-0.095-0.191-0.169-0.215
	c-0.078-0.023-0.224,0.012-0.267,0.072c-0.057,0.082-0.058,0.215-0.058,0.322c-0.004,1.043-0.006,2.084-0.002,3.125
	c0.001,0.223-0.075,0.328-0.316,0.328c-0.238,0-0.329-0.098-0.318-0.324c0.005-0.104,0-0.203,0-0.307
	c-0.001-0.975,0.005-1.945-0.009-2.922c-0.002-0.105-0.097-0.242-0.188-0.301c-0.047-0.029-0.214,0.059-0.271,0.133
	c-0.052,0.07-0.034,0.195-0.034,0.297c-0.002,1.029-0.008,2.061,0.003,3.09c0.003,0.252-0.076,0.344-0.329,0.332
	c-0.279-0.016-0.258-0.201-0.258-0.383c-0.001-0.994,0-1.992-0.001-2.988c0-0.102,0.021-0.213-0.016-0.301
	c-0.031-0.078-0.138-0.189-0.194-0.182c-0.086,0.014-0.184,0.105-0.229,0.189c-0.04,0.07-0.015,0.176-0.015,0.268
	c0,1.006-0.001,2.014,0,3.021c0.001,0.211-0.016,0.369-0.301,0.377c-0.36,0.01-0.333-0.215-0.333-0.447
	c0-1.02-0.002-2.037,0.001-3.057c0.001-0.225-0.055-0.416-0.313-0.348c-0.09,0.025-0.184,0.234-0.185,0.361
	c-0.013,1.574-0.01,3.148-0.009,4.721C21.01,57.748,21.259,58.137,21.744,58.246z"/>
<path opacity="0.6" fill="#C1BAAC" d="M29.311,54.742c0-0.469,0-0.938,0-1.404c0-0.795-0.731-1.354-1.504-1.156
	c-0.65,0.166-0.967,0.596-0.969,1.359c-0.002,1.27-0.005,2.537-0.005,3.805C27.55,56.362,28.385,55.49,29.311,54.742z"/>
</svg>
