<?xml version="1.0" encoding="utf-8"?>
<!-- Generator: Adobe Illustrator 16.0.0, SVG Export Plug-In . SVG Version: 6.00 Build 0)  -->
<!DOCTYPE svg PUBLIC "-//W3C//DTD SVG 1.1//EN" "http://www.w3.org/Graphics/SVG/1.1/DTD/svg11.dtd">
<svg version="1.1" id="Layer_1" xmlns="http://www.w3.org/2000/svg" xmlns:xlink="http://www.w3.org/1999/xlink" x="0px" y="0px"
	 width="107.354px" height="84.559px" viewBox="0 0 107.354 84.559" enable-background="new 0 0 107.354 84.559"
	 xml:space="preserve">
<g>
	
		<linearGradient id="SVGID_1_" gradientUnits="userSpaceOnUse" x1="25.2957" y1="62.9573" x2="96.2493" y2="62.9573" gradientTransform="matrix(1 0 0 -1 -8.3599 108.6138)">
		<stop  offset="0" style="stop-color:#E5E5E5"/>
		<stop  offset="0.5398" style="stop-color:#FFFFFF"/>
		<stop  offset="1" style="stop-color:#C8C8C8"/>
	</linearGradient>
	<path fill="url(#SVGID_1_)" d="M86.497,53.686c-3.543,0-6.416-2.872-6.416-6.414c0-3.545,2.873-6.416,6.416-6.416
		c0.478,0,0.941,0.057,1.392,0.156V21.838h-2.632l-68.321-0.18v19.355c0.452-0.102,0.921-0.159,1.404-0.159
		c3.541,0,6.414,2.872,6.414,6.415s-2.874,6.415-6.414,6.415c-0.482,0-0.952-0.059-1.404-0.159v16.129H87.89V53.53
		C87.441,53.629,86.975,53.686,86.497,53.686z"/>
	<path fill="#787366" d="M86.497,55.021c-4.317,0-7.817-3.501-7.817-7.818s3.5-7.816,7.817-7.816l0,0V23.437H18.615v15.949
		c4.317,0,7.819,3.499,7.819,7.816s-3.502,7.818-7.819,7.818v13.275h67.882V55.021L86.497,55.021z M66.917,65.355
		c-1.137,0-2.058-0.92-2.058-2.058s0.921-2.057,2.058-2.057c1.136,0,2.055,0.923,2.055,2.057
		C68.971,64.438,68.051,65.355,66.917,65.355z M66.917,58.382c-1.137,0-2.058-0.92-2.058-2.057c0-1.134,0.921-2.058,2.058-2.058
		c1.136,0,2.055,0.922,2.055,2.058C68.971,57.462,68.051,58.382,66.917,58.382z M66.917,51.407c-1.137,0-2.058-0.922-2.058-2.057
		c0-1.136,0.921-2.053,2.058-2.053c1.136,0,2.055,0.916,2.055,2.053C68.971,50.486,68.051,51.407,66.917,51.407z M66.917,44.435
		c-1.137,0-2.058-0.921-2.058-2.055c0-1.136,0.921-2.057,2.058-2.057c1.136,0,2.055,0.921,2.055,2.057
		C68.971,43.514,68.051,44.435,66.917,44.435z M66.917,37.462c-1.137,0-2.058-0.92-2.058-2.057c0-1.136,0.921-2.058,2.058-2.058
		c1.136,0,2.055,0.922,2.055,2.058C68.971,36.543,68.051,37.462,66.917,37.462z M66.917,30.488c-1.137,0-2.058-0.92-2.058-2.057
		c0-1.136,0.921-2.057,2.058-2.057c1.136,0,2.055,0.921,2.055,2.057C68.971,29.568,68.051,30.488,66.917,30.488z"/>
	<path opacity="0.6" fill="#C0B9AB" enable-background="new    " d="M18.615,23.437v16.035c4.317,0,7.819,3.499,7.819,7.815
		c0,0.085-0.013,0.168-0.016,0.253l38.549-5.7c0.24-0.87,1.003-1.517,1.945-1.517c0.729,0,1.34,0.402,1.705,0.975l17.877-2.645
		V23.437H18.615z M66.917,37.462c-1.137,0-2.058-0.92-2.058-2.057c0-1.136,0.921-2.058,2.058-2.058c1.136,0,2.055,0.922,2.055,2.058
		C68.971,36.543,68.051,37.462,66.917,37.462z M66.917,30.488c-1.137,0-2.058-0.92-2.058-2.057c0-1.136,0.921-2.057,2.058-2.057
		c1.136,0,2.055,0.921,2.055,2.057C68.971,29.568,68.051,30.488,66.917,30.488z"/>
</g>
<g>
	
		<linearGradient id="SVGID_2_" gradientUnits="userSpaceOnUse" x1="61.0217" y1="744.1975" x2="68.385" y2="744.1975" gradientTransform="matrix(1 0 0 1 -16.7197 -708.332)">
		<stop  offset="0" style="stop-color:#E6E6E6"/>
		<stop  offset="0.5398" style="stop-color:#FFFFFF"/>
		<stop  offset="1" style="stop-color:#C8C8C8"/>
	</linearGradient>
	<path fill="url(#SVGID_2_)" d="M45.257,33.938c1.354,1.589,2.706,3.179,4.061,4.766c0.152,0.178,0.328,0.32,0.577,0.329
		c0,0,0,0,0.001,0c0.233,0.029,0.41-0.082,0.533-0.259c0.169-0.243,0.273-0.519,0.362-0.798l0,0
		c0.189-0.433,0.384-0.865,0.571-1.302c0.053-0.122,0.123-0.243,0.14-0.382c-0.112-0.007-0.184,0.026-0.205,0.15
		c-0.033,0.169-0.152,0.295-0.255,0.423c-0.098,0.12-0.174,0.251-0.255,0.382c-0.131,0.222-0.295,0.238-0.414,0.013
		c-0.143-0.263-0.378-0.439-0.544-0.674c-0.133-0.188-0.258-0.377-0.373-0.581c-0.159-0.28-0.233-0.592-0.396-0.863
		c-0.017-0.029-0.029-0.056-0.032-0.08c0.001,0.022,0.015,0.049,0.032,0.078c0.164,0.272,0.239,0.583,0.396,0.864
		c0.115,0.202,0.239,0.391,0.373,0.579c0.167,0.235,0.402,0.412,0.544,0.675c0.119,0.226,0.283,0.209,0.414-0.013
		c0.082-0.132,0.157-0.26,0.255-0.383c0.104-0.127,0.223-0.252,0.255-0.422c0.022-0.125,0.094-0.157,0.205-0.152
		c0.071-0.169,0.119-0.342,0.146-0.526c0.051-0.355,0.002-0.469-0.344-0.572c-0.414-0.123-0.806-0.301-1.209-0.444
		c-0.338-0.122-0.692-0.203-1.019-0.356l0,0c-0.387-0.162-0.788-0.291-1.182-0.433c-0.777-0.273-1.547-0.563-2.317-0.851
		c-0.366-0.14-0.744-0.243-1.098-0.417c-0.057,0-0.114,0-0.17,0c-0.029,0.113,0.038,0.184,0.103,0.257
		C44.693,33.281,44.976,33.611,45.257,33.938z M49.07,34.586c0.029,0.065,0.045,0.134,0.044,0.2
		C49.115,34.721,49.101,34.651,49.07,34.586c-0.016-0.034-0.022-0.067-0.022-0.099C49.048,34.518,49.056,34.552,49.07,34.586z"/>
	
		<linearGradient id="SVGID_3_" gradientUnits="userSpaceOnUse" x1="53.3469" y1="753.0159" x2="65.343" y2="753.0159" gradientTransform="matrix(1 0 0 1 -16.7197 -708.332)">
		<stop  offset="0" style="stop-color:#E6E6E6"/>
		<stop  offset="0.5398" style="stop-color:#FFFFFF"/>
		<stop  offset="1" style="stop-color:#C8C8C8"/>
	</linearGradient>
	<path fill="url(#SVGID_3_)" d="M48.551,40.781c-0.114-0.14-0.286-0.181-0.458-0.202c-0.518-0.061-1.038-0.116-1.556-0.173
		c-0.428-0.048-0.859-0.089-1.286-0.149c-0.455-0.065-0.913-0.073-1.368-0.153c-0.272-0.049-0.555-0.05-0.832-0.087
		c-0.42-0.056-0.843-0.086-1.264-0.144c-0.46-0.06-0.924-0.107-1.386-0.153c-0.492-0.049-0.982-0.108-1.473-0.164
		c-0.383-0.045-0.765-0.083-1.147-0.135c-0.683-0.087-1.175,0.306-1.155,0.983c0.008,0.211,0.048,0.419,0.067,0.625
		c0.026,0.302,0.046,0.602,0.08,0.9c0.049,0.462,0.124,0.924,0.153,1.387c0.032,0.516,0.095,1.028,0.154,1.541
		c0.057,0.52,0.095,1.041,0.153,1.563c0.046,0.399,0.091,0.798,0.117,1.202c0.03,0.503,0.103,1.004,0.165,1.505
		c0.029,0.213,0.037,0.432,0.156,0.622c0.101,0.163,0.237,0.234,0.423,0.205c0.102-0.426,0.2-0.845,0.479-1.214
		c0.184-0.244,0.373-0.479,0.572-0.708c0.031-0.034,0.059-0.083,0.044-0.123v0.002c0.016,0.039-0.012,0.087-0.044,0.122
		c-0.199,0.228-0.388,0.466-0.572,0.71c-0.276,0.367-0.376,0.785-0.479,1.211c0.208-0.003,0.366-0.119,0.514-0.242
		c0.484-0.403,0.961-0.812,1.438-1.223c0.237-0.203,0.458-0.428,0.708-0.619c0.243-0.188,0.476-0.385,0.703-0.593c0,0,0,0,0-0.003
		c0.304-0.251,0.609-0.499,0.905-0.758c0.505-0.438,1.014-0.869,1.526-1.296c0.695-0.574,1.372-1.172,2.057-1.759
		c0.026-0.104,0.094-0.18,0.167-0.254c0.091-0.094,0.187-0.184,0.271-0.284c0.247-0.283,0.44-0.606,0.686-0.89
		c0.122-0.143,0.324-0.302,0.118-0.541c-0.026-0.03-0.048-0.055-0.071-0.071c0.023,0.016,0.046,0.041,0.073,0.071
		c0.206,0.239,0.005,0.401-0.118,0.541c-0.246,0.284-0.44,0.605-0.686,0.893c-0.083,0.098-0.18,0.188-0.271,0.281
		c-0.074,0.074-0.142,0.152-0.168,0.255c0.065,0,0.097-0.053,0.138-0.088c0.291-0.257,0.578-0.516,0.881-0.756
		c0.272-0.215,0.522-0.461,0.781-0.695c-0.058-0.045-0.065-0.088-0.05-0.133c-0.013,0.042-0.008,0.086,0.05,0.131
		c0.026-0.012,0.057-0.016,0.077-0.033c0.219-0.191,0.447-0.373,0.649-0.578C48.646,41.14,48.667,40.922,48.551,40.781z
		 M37.381,42.713c0,0.17-0.054,0.337-0.037,0.508c0.003,0.035-0.013,0.073-0.049,0.084c0,0,0,0-0.001,0
		c0.037-0.009,0.053-0.049,0.049-0.084C37.325,43.049,37.38,42.882,37.381,42.713c-0.001-0.471-0.001-0.94-0.001-1.412
		c0-0.21,0.015-0.423-0.004-0.632c-0.022-0.268-0.029-0.544-0.245-0.756c-0.027-0.029-0.055-0.054-0.083-0.07
		c0.029,0.016,0.057,0.041,0.084,0.07c0.215,0.211,0.222,0.488,0.245,0.756c0.017,0.21,0.002,0.423,0.002,0.632
		C37.38,41.771,37.379,42.242,37.381,42.713z M39.948,46.101c0.004,0.016-0.003,0.035-0.011,0.05
		c-0.108,0.205-0.276,0.37-0.359,0.598c-0.057,0.156-0.226,0.267-0.224,0.463c0,0.054-0.049,0.102-0.09,0.141
		c-0.036,0.035-0.038,0.086-0.057,0.127c-0.032,0.071-0.052,0.141-0.056,0.212c0.004-0.071,0.024-0.142,0.056-0.214
		c0.019-0.04,0.021-0.093,0.057-0.129c0.042-0.039,0.09-0.086,0.09-0.141c-0.002-0.197,0.167-0.307,0.224-0.463
		c0.083-0.227,0.252-0.392,0.359-0.598c0.007-0.015,0.013-0.033,0.011-0.05C39.948,46.099,39.948,46.101,39.948,46.101z
		 M46.883,41.379c-0.039-0.082-0.095-0.137-0.164-0.174C46.788,41.242,46.846,41.298,46.883,41.379
		c0.019,0.031,0.038,0.045,0.061,0.05C46.921,41.426,46.899,41.411,46.883,41.379z M47.841,40.827
		c-0.225-0.058-0.452-0.115-0.678-0.168c-0.205-0.047-0.408-0.062-0.62,0.007c-0.123,0.043-0.237,0.115-0.391,0.096
		c-0.499-0.058-1-0.116-1.504-0.113c-0.194,0.001-0.391,0.036-0.578,0.019c-0.511-0.05-1.021-0.057-1.534-0.052
		c-0.246,0.001-0.344,0.099-0.394,0.337c-0.086,0.404-0.273,0.767-0.475,1.126c-0.113,0.2-0.277,0.396-0.296,0.627
		c-0.033,0.372-0.322,0.606-0.434,0.935c-0.06,0.174-0.186,0.333-0.236,0.521c-0.035,0.13-0.073,0.265-0.142,0.378
		c-0.086,0.139-0.2,0.258-0.209,0.437c-0.001,0.044-0.041,0.094-0.077,0.13c-0.074,0.075-0.131,0.163-0.152,0.262
		c-0.034,0.186-0.156,0.35-0.184,0.536c0.028-0.187,0.148-0.352,0.184-0.538c0.02-0.099,0.078-0.187,0.152-0.262
		c0.036-0.035,0.076-0.084,0.077-0.129c0.009-0.179,0.123-0.298,0.209-0.436c0.07-0.112,0.107-0.25,0.142-0.379
		c0.051-0.189,0.178-0.347,0.236-0.521c0.112-0.328,0.4-0.563,0.434-0.935c0.02-0.23,0.183-0.426,0.296-0.627
		c0.201-0.359,0.389-0.723,0.475-1.126c0.052-0.236,0.148-0.334,0.394-0.338c0.511-0.004,1.023,0.001,1.534,0.053
		c0.188,0.017,0.385-0.019,0.578-0.019c0.505-0.001,1.005,0.054,1.504,0.113c0.154,0.018,0.267-0.055,0.391-0.096
		c0.211-0.07,0.415-0.054,0.62-0.007c0.228,0.052,0.455,0.111,0.678,0.167c0.133,0.035,0.202,0.107,0.198,0.214
		C48.043,40.933,47.973,40.86,47.841,40.827z"/>
	
		<linearGradient id="SVGID_4_" gradientUnits="userSpaceOnUse" x1="48.7595" y1="763.6418" x2="59.9973" y2="763.6418" gradientTransform="matrix(1 0 0 1 -16.7197 -708.332)">
		<stop  offset="0" style="stop-color:#E6E6E6"/>
		<stop  offset="0.5398" style="stop-color:#FFFFFF"/>
		<stop  offset="1" style="stop-color:#C8C8C8"/>
	</linearGradient>
	<path fill="url(#SVGID_4_)" d="M41.801,55.629c0.205-0.212,0.447-0.389,0.647-0.607c-0.214,0.057-0.432,0.057-0.651,0.063
		c0.219-0.007,0.438-0.008,0.651-0.063c0.185-0.176,0.374-0.349,0.555-0.529c0.41-0.407,0.358-0.788-0.137-1.087
		c0,0,0,0-0.001,0.001c-0.077-0.067-0.174-0.075-0.266-0.102c-0.254-0.075-0.509-0.147-0.764-0.222
		c-0.707-0.202-1.412-0.406-2.12-0.608c-0.188,0.126-0.404,0.093-0.597,0.06c-0.255-0.045-0.503-0.019-0.747,0.024
		c-0.629,0.112-1.245,0.112-1.873-0.037c-0.423-0.103-0.867-0.104-1.303-0.029c-0.045,0.008-0.092,0.031-0.123,0.001
		c0.031,0.03,0.08,0.004,0.123-0.004c0.436-0.074,0.879-0.072,1.302,0.029c0.626,0.149,1.243,0.149,1.873,0.037
		c0.243-0.044,0.49-0.067,0.747-0.024c0.193,0.032,0.41,0.066,0.598-0.059c-0.469-0.176-0.961-0.276-1.442-0.414
		c0,0.001,0,0.001,0,0.001c-0.427-0.14-0.868-0.101-1.306-0.084h-0.001c-0.038-0.003-0.081-0.01-0.117-0.006
		c-0.62,0.081-1.208,0.282-1.799,0.474c0,0,0,0,0,0.001c-0.405,0.104-0.805,0.22-1.202,0.353l0,0
		c-0.406,0.117-0.812,0.234-1.216,0.356c-0.098,0.028-0.196,0.065-0.274,0.128c-0.001,0-0.001,0-0.002,0
		c-0.395,0.185-0.413,0.295-0.086,0.57c0.004,0.003,0.009,0.009,0.013,0.013c0.894,0.748,1.787,1.496,2.679,2.242
		c0.905,0.759,1.812,1.518,2.72,2.272c0.448,0.374,0.801,0.377,1.242,0.012c0.525-0.434,0.995-0.928,1.486-1.396
		C40.877,56.544,41.347,56.095,41.801,55.629z"/>
	
		<linearGradient id="SVGID_5_" gradientUnits="userSpaceOnUse" x1="62.4143" y1="762.7424" x2="68.6028" y2="762.7424" gradientTransform="matrix(1 0 0 1 -16.7197 -708.332)">
		<stop  offset="0" style="stop-color:#E6E6E6"/>
		<stop  offset="0.5398" style="stop-color:#FFFFFF"/>
		<stop  offset="1" style="stop-color:#C8C8C8"/>
	</linearGradient>
	<path fill="url(#SVGID_5_)" d="M48.852,56.902c0.966-1.824,1.939-3.646,2.906-5.47c0.065-0.121,0.12-0.245,0.125-0.39
		c0.008-0.188-0.112-0.299-0.302-0.271c-0.143,0.021-0.275,0.075-0.406,0.136c-0.386,0.181-0.776,0.356-1.163,0.538
		c-0.898,0.423-1.797,0.839-2.696,1.262l0,0c-0.39,0.156-0.776,0.321-1.136,0.531c-0.275,0.162-0.454,0.407-0.469,0.744l0,0
		c-0.05,0.256,0.021,0.485,0.146,0.699c0.157,0.265,0.32,0.529,0.48,0.789c0.455,0.739,0.911,1.477,1.365,2.214
		c0.02,0.04,0.038,0.084,0.064,0.119c0.229,0.34,0.396,0.336,0.615-0.017c0.026-0.043,0.046-0.09,0.067-0.137
		c-0.123,0.055-0.247,0.065-0.373,0.06c0.124,0.006,0.249-0.005,0.37-0.06C48.597,57.407,48.719,57.152,48.852,56.902z"/>
	
		<linearGradient id="SVGID_6_" gradientUnits="userSpaceOnUse" x1="47.3088" y1="753.2268" x2="53.4163" y2="753.2268" gradientTransform="matrix(1 0 0 1 -16.7197 -708.332)">
		<stop  offset="0" style="stop-color:#E6E6E6"/>
		<stop  offset="0.5398" style="stop-color:#FFFFFF"/>
		<stop  offset="1" style="stop-color:#C8C8C8"/>
	</linearGradient>
	<path fill="url(#SVGID_6_)" d="M36.513,47.265c-0.06-0.513-0.125-1.024-0.166-1.538c-0.019-0.269-0.045-0.535-0.077-0.799
		c-0.047-0.408-0.1-0.812-0.129-1.219c-0.02-0.268-0.041-0.533-0.077-0.798c-0.071-0.529-0.11-1.062-0.165-1.591
		c-0.029-0.292-0.029-0.594-0.138-0.873c-0.083-0.219-0.268-0.339-0.496-0.35c-0.291-0.011-0.486,0.176-0.695,0.329
		c-0.812,0.595-1.625,1.192-2.429,1.8c-0.268,0.202-0.555,0.378-0.798,0.61c0.052,0.122,0.144,0.126,0.239,0.12
		c-0.095,0.007-0.189,0.002-0.239-0.12c-0.102,0.041-0.178,0.119-0.266,0.184c-0.606,0.458-0.654,1.089-0.112,1.615
		c0.409,0.396,0.826,0.786,1.237,1.182c0.614,0.59,1.228,1.174,1.837,1.766c0.521,0.504,1.032,1.016,1.56,1.513
		c0.185,0.176,0.355,0.369,0.574,0.509c0.129,0.081,0.264,0.147,0.393-0.004c0.098-0.084,0.122-0.194,0.129-0.316
		c0.011-0.281-0.04-0.558-0.075-0.833C36.571,48.058,36.559,47.658,36.513,47.265z M31.927,42.849
		c0.235-0.156,0.51-0.211,0.772-0.304C32.437,42.639,32.162,42.692,31.927,42.849z M34.308,45.589
		c0.051,0.03,0.087,0.109,0.104,0.172C34.394,45.698,34.36,45.619,34.308,45.589z M34.606,46.058
		c0.206,0.295,0.414,0.594,0.585,0.91C35.019,46.652,34.812,46.355,34.606,46.058z M35.874,48.383
		c0.052-0.152,0.012-0.228-0.153-0.239C35.887,48.156,35.926,48.231,35.874,48.383z M36.199,48.814
		c0.142,0.164,0.247,0.352,0.288,0.568C36.446,49.165,36.341,48.978,36.199,48.814z"/>
	
		<linearGradient id="SVGID_7_" gradientUnits="userSpaceOnUse" x1="55.4944" y1="755.8616" x2="65.511" y2="755.8616" gradientTransform="matrix(1 0 0 1 -16.7197 -708.332)">
		<stop  offset="0" style="stop-color:#E6E6E6"/>
		<stop  offset="0.5398" style="stop-color:#FFFFFF"/>
		<stop  offset="1" style="stop-color:#C8C8C8"/>
	</linearGradient>
	<path fill="url(#SVGID_7_)" d="M43.241,51.738c-0.185,0.071-0.332,0.226-0.535,0.258c-0.157,0.022-0.308,0.07-0.467,0.083
		c-0.112,0.01-0.235,0.051-0.307,0.164c0.419,0.124,0.843,0.232,1.253,0.385c0.657,0.239,1.45-0.137,1.713-0.773
		c0.51-1.229,1.046-2.453,1.565-3.685c0.347-0.831,0.721-1.649,1.042-2.49c0.188-0.494,0.441-0.961,0.608-1.463
		c-0.135-0.052-0.24-0.045-0.374,0.054c-0.174,0.129-0.37,0.271-0.592,0.279c-0.274,0.007-0.493,0.144-0.731,0.229
		c-0.409,0.147-0.701,0.481-1,0.781c-0.302,0.307-0.556,0.665-0.719,1.065c0.163-0.4,0.417-0.762,0.72-1.066
		c0.297-0.302,0.589-0.636,0.998-0.781c0.236-0.085,0.457-0.224,0.731-0.23c0.222-0.008,0.419-0.15,0.592-0.278
		c0.134-0.101,0.238-0.107,0.374-0.056c0.266-0.545,0.534-1.086,0.677-1.68c-0.028-0.189-0.115-0.224-0.309-0.097
		c-0.284,0.188-0.537,0.408-0.78,0.646c-0.02,0.013-0.039,0.021-0.054,0.036c-0.962,0.813-1.923,1.627-2.884,2.441
		c-0.464,0.393-0.924,0.79-1.384,1.187c0.07,0.073,0.008,0.134-0.03,0.179c-0.267,0.31-0.539,0.615-0.812,0.919
		c-0.441,0.495-0.88,0.998-1.207,1.576c-0.132,0.229-0.238,0.478-0.379,0.702c-0.156,0.255-0.28,0.538-0.479,0.756l0,0
		c0.198-0.217,0.323-0.501,0.479-0.755c0.142-0.226,0.247-0.473,0.378-0.701c0.327-0.58,0.765-1.081,1.207-1.578
		c0.273-0.304,0.544-0.609,0.812-0.919c0.038-0.043,0.102-0.104,0.03-0.179c-0.558,0.437-1.079,0.912-1.621,1.364
		c-0.642,0.539-1.281,1.083-1.919,1.625c-0.291,0.247-0.589,0.487-0.863,0.754c-0.334,0.324-0.239,0.758,0.188,0.937
		c0.12,0.05,0.25,0.078,0.375,0.116c0.005-0.077,0.041-0.124,0.087-0.16c-0.046,0.034-0.081,0.083-0.086,0.16
		c0.413,0.121,0.822,0.251,1.236,0.368c0.386,0.11,0.764,0.249,1.155,0.328c0.071-0.112,0.195-0.154,0.308-0.164
		c0.16-0.015,0.31-0.062,0.467-0.084c0.204-0.031,0.349-0.187,0.535-0.258c0.23-0.092,0.321-0.276,0.398-0.473
		C43.564,51.461,43.474,51.644,43.241,51.738z M44.422,48.008c0.042-0.033,0.072-0.07,0.094-0.108
		C44.493,47.939,44.464,47.978,44.422,48.008c-0.029,0.024-0.05,0.058-0.066,0.099C44.372,48.068,44.393,48.031,44.422,48.008z
		 M43.762,50.962c0.036-0.074,0.071-0.147,0.108-0.223c-0.037,0.075-0.073,0.149-0.108,0.225c-0.025,0.049-0.044,0.104-0.063,0.157
		C43.718,51.068,43.736,51.016,43.762,50.962z"/>
	
		<linearGradient id="SVGID_8_" gradientUnits="userSpaceOnUse" x1="54.301" y1="744.7112" x2="65.4055" y2="744.7112" gradientTransform="matrix(1 0 0 1 -16.7197 -708.332)">
		<stop  offset="0" style="stop-color:#E6E6E6"/>
		<stop  offset="0.5398" style="stop-color:#FFFFFF"/>
		<stop  offset="1" style="stop-color:#C8C8C8"/>
	</linearGradient>
	<path fill="url(#SVGID_8_)" d="M39.124,36.555c-0.193,0.178-0.394,0.345-0.586,0.523c-0.265,0.25-0.537,0.495-0.791,0.76
		c-0.284,0.296-0.192,0.62,0.197,0.752c0.032,0.012,0.065,0.028,0.098,0.029c0.417,0.05,0.834,0.092,1.253,0.143
		c0.371,0.041,0.744,0.087,1.118,0.125c0.349,0.036,0.694,0.099,1.045,0.112c0.074,0.009,0.149,0.017,0.222,0.026
		c0.411,0.049,0.824,0.102,1.233,0.147c0.572,0.065,1.143,0.124,1.713,0.188c0.462,0.05,0.929,0.104,1.391,0.159
		c0.583,0.066,1.166,0.136,1.749,0.196c0.218,0.023,0.438,0.082,0.661,0.012c0.222-0.067,0.312-0.229,0.228-0.447
		c-0.057-0.144-0.152-0.266-0.255-0.382c-0.384-0.444-0.771-0.883-1.147-1.33c-0.377-0.443-0.736-0.899-1.109-1.343
		c-0.596-0.71-1.199-1.418-1.804-2.127c-0.255-0.305-0.514-0.61-0.784-0.905c-0.198-0.215-0.389-0.246-0.591-0.127
		c-0.084,0.026-0.151,0.08-0.215,0.136c-0.534,0.489-1.068,0.977-1.597,1.467C40.475,35.297,39.801,35.927,39.124,36.555z"/>
	
		<linearGradient id="SVGID_9_" gradientUnits="userSpaceOnUse" x1="56.4583" y1="765.1897" x2="64.0334" y2="765.1897" gradientTransform="matrix(1 0 0 1 -16.7197 -708.332)">
		<stop  offset="0" style="stop-color:#E6E6E6"/>
		<stop  offset="0.5398" style="stop-color:#FFFFFF"/>
		<stop  offset="1" style="stop-color:#C8C8C8"/>
	</linearGradient>
	<path fill="url(#SVGID_9_)" d="M46.781,57.823C46.782,57.823,46.782,57.823,46.781,57.823c-0.079-0.135-0.15-0.276-0.232-0.411
		c-0.403-0.654-0.794-1.314-1.189-1.973c-0.144-0.242-0.274-0.497-0.537-0.642c-0.297-0.196-0.691-0.181-0.997,0.063
		c-0.287,0.229-0.542,0.5-0.8,0.762c-0.605,0.584-1.209,1.165-1.812,1.747c0.178,0.183,0.375,0.306,0.589,0.374
		c-0.214-0.07-0.411-0.193-0.591-0.374c-0.476,0.422-0.924,0.867-1.36,1.321c-0.071,0.073-0.153,0.159-0.095,0.272
		c0.052,0.094,0.16,0.093,0.258,0.093c2.346,0,4.69,0,7.037-0.001c0.231,0,0.312-0.108,0.231-0.329
		C47.167,58.398,46.998,58.096,46.781,57.823z M44.453,55.122c-0.307,0.18-0.636,0.325-0.915,0.552
		C43.817,55.447,44.147,55.302,44.453,55.122z M43.647,57.791c-0.03-0.002-0.057-0.014-0.086-0.015
		c-0.174-0.018-0.352-0.029-0.527-0.03c0.176,0.001,0.353,0.016,0.529,0.03C43.589,57.78,43.615,57.789,43.647,57.791
		c0.508,0.009,1.013,0.062,1.52,0.075C44.658,57.855,44.152,57.8,43.647,57.791z"/>
	
		<linearGradient id="SVGID_10_" gradientUnits="userSpaceOnUse" x1="66.2795" y1="762.635" x2="71.2952" y2="762.635" gradientTransform="matrix(1 0 0 1 -16.7197 -708.332)">
		<stop  offset="0" style="stop-color:#E6E6E6"/>
		<stop  offset="0.5398" style="stop-color:#FFFFFF"/>
		<stop  offset="1" style="stop-color:#C8C8C8"/>
	</linearGradient>
	<path fill="url(#SVGID_10_)" d="M54.217,52.338L54.217,52.338c-0.165-0.33-0.331-0.663-0.499-0.99
		c-0.023-0.052-0.066-0.094-0.102-0.139c-0.181-0.224-0.566-0.246-0.76-0.015c-0.083,0.097-0.149,0.198-0.21,0.311
		c-0.531,1.007-1.062,2.017-1.595,3.023c-0.267,0.505-0.526,1.008-0.791,1.513c-0.234,0.405-0.453,0.815-0.649,1.239
		c-0.024,0.049-0.041,0.108-0.05,0.164c-0.013,0.119,0.046,0.163,0.152,0.108c0.091-0.046,0.176-0.107,0.255-0.173
		c0.907-0.756,1.813-1.514,2.719-2.271c0.543-0.46,1.092-0.918,1.636-1.375c0.166-0.14,0.295-0.293,0.238-0.53
		C54.488,52.901,54.385,52.608,54.217,52.338z"/>
	
		<linearGradient id="SVGID_11_" gradientUnits="userSpaceOnUse" x1="67.844" y1="747.6428" x2="72.635" y2="747.6428" gradientTransform="matrix(1 0 0 1 -16.7197 -708.332)">
		<stop  offset="0" style="stop-color:#E6E6E6"/>
		<stop  offset="0.5398" style="stop-color:#FFFFFF"/>
		<stop  offset="1" style="stop-color:#C8C8C8"/>
	</linearGradient>
	<path fill="url(#SVGID_11_)" d="M51.181,39.228c-0.128,0.435-0.043,0.843,0.293,1.175c0.311,0.321,0.739,0.42,1.126,0.594
		c0.004-0.279,0.136-0.54,0.044-0.835c-0.09-0.301-0.119-0.621-0.313-0.89c-0.111-0.152-0.27-0.284-0.277-0.498
		c-0.011-0.459,0.009-0.916,0.091-1.371c0.013-0.074,0.045-0.16,0.001-0.228c0.044,0.067,0.012,0.155-0.001,0.228
		c-0.083,0.455-0.102,0.912-0.093,1.371c0.008,0.215,0.167,0.345,0.277,0.498c0.194,0.27,0.224,0.589,0.313,0.89
		c0.092,0.296-0.04,0.558-0.043,0.836c0.938,0.44,1.888,0.856,2.843,1.269c0.07,0.03,0.152,0.049,0.23,0.057
		c0.2,0.022,0.29-0.098,0.217-0.284c-0.021-0.053-0.049-0.102-0.076-0.152c-0.197-0.342-0.393-0.684-0.591-1.025
		c-0.355-0.609-0.712-1.219-1.068-1.828c-0.473-0.826-0.948-1.651-1.422-2.473c-0.047-0.082-0.075-0.18-0.164-0.234l0,0
		c-0.111-0.078-0.158,0.015-0.195,0.086c-0.12,0.226-0.22,0.461-0.301,0.705l0,0c-0.163,0.335-0.307,0.678-0.437,1.028
		C51.461,38.494,51.291,38.852,51.181,39.228z M51.505,40.186c0.024-0.533,0.159-1.048,0.194-1.579
		C51.665,39.138,51.53,39.655,51.505,40.186z"/>
	
		<linearGradient id="SVGID_12_" gradientUnits="userSpaceOnUse" x1="62.5374" y1="755.5715" x2="69.1526" y2="755.5715" gradientTransform="matrix(1 0 0 1 -16.7197 -708.332)">
		<stop  offset="0" style="stop-color:#E6E6E6"/>
		<stop  offset="0.5398" style="stop-color:#FFFFFF"/>
		<stop  offset="1" style="stop-color:#C8C8C8"/>
	</linearGradient>
	<path fill="url(#SVGID_12_)" d="M52.392,48.305c-0.169-0.592-0.347-1.187-0.575-1.761l0,0c-0.087-0.28-0.169-0.559-0.27-0.831
		c-0.084-0.224-0.161-0.456-0.232-0.682c-0.11-0.348-0.222-0.692-0.345-1.035c-0.128-0.387-0.178-0.684-0.345-1.058
		c-0.016-0.137-0.106-0.363-0.18-0.481c-0.189-0.317-0.456-0.318-0.637,0.007c-0.218,0.391-0.377,0.813-0.537,1.232l0,0
		c-0.246,0.54-0.482,1.084-0.698,1.638c0,0,0,0,0.001,0l-0.001,0.001c-0.123,0.218-0.2,0.455-0.297,0.685
		c-0.787,1.847-1.576,3.691-2.362,5.541c-0.051,0.12-0.095,0.245-0.096,0.378c-0.001,0.225,0.114,0.33,0.34,0.319v-0.001
		c0.102,0.008,0.186-0.037,0.272-0.077c0.55-0.225,1.084-0.483,1.623-0.734c1.211-0.561,2.425-1.114,3.633-1.682
		C52.226,49.512,52.553,48.868,52.392,48.305z"/>
	
		<linearGradient id="SVGID_13_" gradientUnits="userSpaceOnUse" x1="46.5925" y1="757.0491" x2="52.6858" y2="757.0491" gradientTransform="matrix(1 0 0 1 -16.7197 -708.332)">
		<stop  offset="0" style="stop-color:#E6E6E6"/>
		<stop  offset="0.5398" style="stop-color:#FFFFFF"/>
		<stop  offset="1" style="stop-color:#C8C8C8"/>
	</linearGradient>
	<path fill="url(#SVGID_13_)" d="M32.471,52.217c-0.367-0.181-0.756-0.312-1.137-0.452c-0.049-0.019-0.098-0.039-0.149-0.055
		c0.052,0.016,0.102,0.035,0.152,0.055c0.382,0.141,0.768,0.272,1.137,0.452c0.034,0.018,0.071,0.035,0.072,0.084
		c0.452-0.115,0.902-0.253,1.344-0.399c0.104-0.024,0.209-0.045,0.311-0.077c0.442-0.144,0.896-0.241,1.329-0.411l0,0
		c0.441-0.206,0.571-0.552,0.283-0.955c-0.04-0.056-0.09-0.104-0.14-0.15c-0.247-0.239-0.493-0.475-0.741-0.713
		c-0.747-0.722-1.492-1.444-2.24-2.166c-0.358-0.343-0.717-0.68-1.075-1.018c-0.499-0.481-0.995-0.96-1.495-1.44
		c-0.095-0.089-0.18-0.084-0.248,0.031c0,0.104,0,0.206,0,0.308c0.103,0.332,0.129,0.679,0.194,1.017
		c0.117,0.625,0.205,1.253,0.324,1.878c0.072,0.384,0.122,0.77,0.229,1.147c0.012,0.302,0.095,0.591,0.143,0.887
		c0.081,0.484,0.176,0.969,0.263,1.451c0.032-0.002,0.06,0.008,0.09,0.012c-0.03-0.005-0.06-0.016-0.091-0.012
		c0.011,0.178,0.044,0.35,0.114,0.512c0.115,0.255,0.3,0.355,0.572,0.313c0.287-0.042,0.561-0.128,0.834-0.214
		C32.542,52.252,32.506,52.234,32.471,52.217z M34.885,51.11c0.153,0.06,0.311,0.111,0.469,0.157
		c0.041,0.015,0.077,0.029,0.107,0.052c-0.03-0.022-0.066-0.038-0.107-0.05C35.195,51.222,35.038,51.17,34.885,51.11
		c-0.053-0.02-0.098-0.057-0.148-0.083C34.785,51.053,34.83,51.088,34.885,51.11z"/>
	
		<linearGradient id="SVGID_14_" gradientUnits="userSpaceOnUse" x1="47.2395" y1="747.6106" x2="52.2791" y2="747.6106" gradientTransform="matrix(1 0 0 1 -16.7197 -708.332)">
		<stop  offset="0" style="stop-color:#E6E6E6"/>
		<stop  offset="0.5398" style="stop-color:#FFFFFF"/>
		<stop  offset="1" style="stop-color:#C8C8C8"/>
	</linearGradient>
	<path fill="url(#SVGID_14_)" d="M34.658,37.115c-0.049-0.097-0.102-0.188-0.157-0.279c-0.04-0.067-0.066-0.115-0.066-0.115
		c-0.003,0-0.005,0.002-0.008,0.002c-0.041-0.062-0.079-0.129-0.124-0.189c-0.218-0.29-0.4-0.28-0.588,0.033
		c-0.277,0.461-0.538,0.93-0.808,1.395c-0.771,1.332-1.547,2.663-2.317,3.998c-0.038,0.067-0.118,0.15-0.032,0.23
		c0.085,0.081,0.187,0.037,0.269-0.017c0.105-0.076,0.206-0.159,0.309-0.234c0.437-0.324,0.871-0.648,1.307-0.972l0,0
		c0,0,1.433-0.851,1.824-1.106c0.39-0.256,1.326-0.782,1.291-1.02C35.533,38.673,34.98,37.677,34.658,37.115z"/>
	
		<linearGradient id="SVGID_15_" gradientUnits="userSpaceOnUse" x1="67.9387" y1="755.1663" x2="73.3801" y2="755.1663" gradientTransform="matrix(1 0 0 1 -16.7197 -708.332)">
		<stop  offset="0" style="stop-color:#E6E6E6"/>
		<stop  offset="0.5398" style="stop-color:#FFFFFF"/>
		<stop  offset="1" style="stop-color:#C8C8C8"/>
	</linearGradient>
	<path fill="url(#SVGID_15_)" d="M56.648,44.358c0-0.002,0-0.003,0-0.007c0-0.003-0.002-0.006-0.002-0.008
		c-0.069-0.583-0.454-0.765-0.708-0.914c-0.022-0.012-0.044-0.024-0.065-0.038c-0.002-0.001-0.006-0.004-0.01-0.005
		c-0.15-0.101-1.199-0.568-2.186-1.005c-0.021-0.008-0.042-0.019-0.063-0.026c-0.537-0.236-1.051-0.461-1.385-0.606
		c-0.112-0.063-0.228-0.112-0.348-0.149c-0.029-0.013-0.045-0.02-0.045-0.02l0.003,0.005c-0.041-0.011-0.08-0.028-0.121-0.034
		c-0.324-0.067-0.531,0.139-0.494,0.466c0.025,0.208,0.092,0.396,0.174,0.585c0.148,0.486,0.3,0.972,0.481,1.445l0,0
		c0.025,0.087,0.049,0.174,0.077,0.261c0.324,0.964,0.646,1.929,0.968,2.891c0.001,0,0.004,0,0.005-0.001
		c0,0.001,0,0.001-0.001,0.003c0.065,0.199,0.129,0.4,0.194,0.602c0.296,0.897,0.632,1.776,1.069,2.615
		c0.117-0.015,0.194,0.022,0.227,0.149c0.012,0.048,0.024,0.125,0.1,0.117v0.002c-0.075,0.008-0.088-0.071-0.1-0.119
		c-0.033-0.126-0.109-0.164-0.229-0.149c0.2,0.404,0.396,0.811,0.601,1.207c0.086,0.159,0.184,0.321,0.325,0.438
		c0.141,0.116,0.227,0.092,0.268-0.082c0.009-0.03,0.013-0.06,0.018-0.09c0-0.002,0.002,0.001,0.002,0
		c0.074-0.307,1.142-6.124,1.248-7.13C56.666,44.607,56.662,44.478,56.648,44.358z"/>
	
		<linearGradient id="SVGID_16_" gradientUnits="userSpaceOnUse" x1="51.6624" y1="743.5334" x2="58.552" y2="743.5334" gradientTransform="matrix(1 0 0 1 -16.7197 -708.332)">
		<stop  offset="0" style="stop-color:#E6E6E6"/>
		<stop  offset="0.5398" style="stop-color:#FFFFFF"/>
		<stop  offset="1" style="stop-color:#C8C8C8"/>
	</linearGradient>
	<path fill="url(#SVGID_16_)" d="M41.818,32.848c-0.054-0.099-0.14-0.013-0.211-0.004c-0.013,0.001-0.022,0.009-0.033,0.012
		c-1.248,0.455-2.497,0.909-3.744,1.364c-0.869,0.313-1.737,0.629-2.604,0.945c-0.213,0.079-0.281,0.169-0.279,0.359h-0.004
		c0,0,0.001,0.282,0.107,0.533c0.009,0.019,0.021,0.049,0.033,0.077c0.009,0.025,0.021,0.049,0.033,0.075
		c0.167,0.382,0.537,1.178,0.829,1.278c0.013,0.004,0.029,0.004,0.04,0.008c0.259,0.14,0.572,0.152,0.862-0.012
		c0.042-0.026,0.077-0.065,0.115-0.093c0.027-0.016,0.06-0.026,0.081-0.043c0.02-0.017,0.082-0.074,0.163-0.146
		c0.094-0.087,0.193-0.173,0.287-0.263c0.396-0.366,1.002-0.927,1.635-1.511c0.066-0.057,0.128-0.118,0.193-0.178
		c0.495-0.456,0.983-0.91,1.392-1.286c0.337-0.311,0.671-0.625,1.011-0.935C41.775,32.981,41.867,32.934,41.818,32.848z"/>
</g>
</svg>
