<?xml version="1.0" encoding="utf-8"?>
<!-- Generator: Adobe Illustrator 16.0.0, SVG Export Plug-In . SVG Version: 6.00 Build 0)  -->
<!DOCTYPE svg PUBLIC "-//W3C//DTD SVG 1.1//EN" "http://www.w3.org/Graphics/SVG/1.1/DTD/svg11.dtd">
<svg version="1.1" id="Layer_1" xmlns="http://www.w3.org/2000/svg" xmlns:xlink="http://www.w3.org/1999/xlink" x="0px" y="0px"
	 width="107.354px" height="84.559px" viewBox="0 0 107.354 84.559" enable-background="new 0 0 107.354 84.559"
	 xml:space="preserve">
<g>
	<linearGradient id="SVGID_1_" gradientUnits="userSpaceOnUse" x1="23.1785" y1="45.5149" x2="92.7668" y2="45.5149">
		<stop  offset="0" style="stop-color:#E5E5E5"/>
		<stop  offset="0.5398" style="stop-color:#FFFFFF"/>
		<stop  offset="1" style="stop-color:#C8C8C8"/>
	</linearGradient>
	<path fill="url(#SVGID_1_)" d="M91.402,53.389c-3.475,0-6.292-2.816-6.292-6.291c0-3.476,2.817-6.292,6.292-6.292
		c0.47,0,0.925,0.055,1.365,0.153V22.155h-2.582l-67.006-0.176v18.983c0.443-0.099,0.902-0.155,1.375-0.155
		c3.474,0,6.292,2.816,6.292,6.292c0,3.475-2.817,6.291-6.292,6.291c-0.473,0-0.932-0.057-1.375-0.155v15.818h69.588V53.237
		C92.326,53.333,91.871,53.389,91.402,53.389z"/>
	<path fill="#787366" d="M91.401,54.697c-4.233,0-7.667-3.433-7.667-7.667s3.434-7.666,7.667-7.666h0.001V23.722H24.826v15.641
		c4.234,0,7.667,3.432,7.667,7.666s-3.433,7.667-7.667,7.667v13.02h66.575L91.401,54.697L91.401,54.697z M72.197,64.833
		c-1.113,0-2.018-0.9-2.018-2.018c0-1.115,0.904-2.016,2.018-2.016s2.016,0.905,2.016,2.016
		C74.212,63.933,73.31,64.833,72.197,64.833z M72.197,57.995c-1.113,0-2.018-0.903-2.018-2.018c0-1.113,0.904-2.018,2.018-2.018
		s2.016,0.904,2.016,2.018C74.212,57.092,73.31,57.995,72.197,57.995z M72.197,51.155c-1.113,0-2.018-0.903-2.018-2.017
		c0-1.114,0.904-2.014,2.018-2.014s2.016,0.899,2.016,2.014C74.212,50.251,73.31,51.155,72.197,51.155z M72.197,44.316
		c-1.113,0-2.018-0.902-2.018-2.016s0.904-2.017,2.018-2.017s2.016,0.903,2.016,2.017S73.31,44.316,72.197,44.316z M72.197,37.478
		c-1.113,0-2.018-0.902-2.018-2.018c0-1.113,0.904-2.018,2.018-2.018s2.016,0.904,2.016,2.018
		C74.212,36.575,73.31,37.478,72.197,37.478z M72.197,30.637c-1.113,0-2.018-0.903-2.018-2.018c0-1.113,0.904-2.018,2.018-2.018
		s2.016,0.905,2.016,2.018C74.212,29.734,73.31,30.637,72.197,30.637z"/>
	<path opacity="0.6" fill="#C0B9AB" d="M24.826,23.722v15.725c4.234,0,7.667,3.432,7.667,7.666c0,0.083-0.01,0.164-0.013,0.247
		l37.806-5.59c0.236-0.852,0.984-1.487,1.91-1.487c0.716,0,1.315,0.394,1.673,0.956l17.532-2.594V23.722H24.826z M72.197,37.478
		c-1.113,0-2.018-0.902-2.018-2.018c0-1.113,0.904-2.018,2.018-2.018s2.016,0.904,2.016,2.018
		C74.212,36.575,73.31,37.478,72.197,37.478z M72.197,30.637c-1.113,0-2.018-0.903-2.018-2.018c0-1.113,0.904-2.018,2.018-2.018
		s2.016,0.905,2.016,2.018C74.212,29.734,73.31,30.637,72.197,30.637z"/>
</g>
</svg>
