<?xml version="1.0" encoding="utf-8"?>
<!-- Generator: Adobe Illustrator 16.0.4, SVG Export Plug-In . SVG Version: 6.00 Build 0)  -->
<!DOCTYPE svg PUBLIC "-//W3C//DTD SVG 1.1//EN" "http://www.w3.org/Graphics/SVG/1.1/DTD/svg11.dtd">
<svg version="1.1" id="Layer_1" xmlns="http://www.w3.org/2000/svg" xmlns:xlink="http://www.w3.org/1999/xlink" x="0px" y="0px"
	 width="316.176px" height="272.059px" viewBox="0 0 316.176 272.059" enable-background="new 0 0 316.176 272.059"
	 xml:space="preserve">
<g>
	<g>
		<g>
			<rect x="0" y="0" fill="none" width="316.176" height="272.059"/>
		</g>
	</g>
	<g>
		<g opacity="0.6">
			<ellipse fill="#FFFFFF" cx="150.981" cy="130.259" rx="3.991" ry="2.027"/>
			<path fill="#FFFFFF" d="M99.546,143.177c6.244-0.225,16.167-0.42,19.598-0.426c-0.088,6.286,10.835,8.274,14.154,8.274
				c3.31,0,6.278,0,10.004,0c3.724,0,6.195-1.87,6.195-6.451c0-4.578-0.949-8.501-0.949-8.501c-0.862-1.949-2.923-2.201-7.648-2.201
				c-4.719,0-12.221,0-14.714,0c-6.104,0-6.802,1.995-7.216,4.064c-0.45-0.853-1.245-0.98-2.32-1.257
				c-1.072-0.296-13.67-3.657-16.578-4.522c-2.914-0.87-8.467-2.685-9.319,0.238c-0.84,2.932-2.171,8.098,2.189,8.098
				C92.769,143.091,94.611,143.356,99.546,143.177z M121.068,137.426c0.84-1.35,2.192-2.245,4.707-2.21
				c3.367,0.048,14.93,0.352,16.973,0.523c2.046,0.173,3.751,0.843,3.997,3.87c0.241,3.03,0.91,6.899-1.278,8.33
				c-2.183,1.425-10.267,1.103-13.46,0.755c-3.197-0.341-10.431-1.848-10.939-4.707
				C120.563,141.125,120.221,138.769,121.068,137.426z"/>
			<path fill="#FFFFFF" d="M201.893,132.158c-2.91,0.865-15.509,4.226-16.58,4.522c-1.072,0.276-1.869,0.404-2.319,1.257
				c-0.414-2.07-1.108-4.064-7.217-4.064c-2.49,0-9.992,0-14.711,0c-4.727,0-6.788,0.252-7.652,2.201c0,0-0.946,3.923-0.946,8.501
				c0,4.581,2.472,6.451,6.193,6.451c3.727,0,6.698,0,10.004,0c3.319,0,14.242-1.988,14.157-8.274
				c3.429,0.006,13.354,0.201,19.596,0.426c4.938,0.179,6.776-0.086,6.606-2.683c4.359,0,3.025-5.166,2.186-8.098
				C210.358,129.473,204.804,131.288,201.893,132.158z M180.898,143.987c-0.511,2.859-7.739,4.366-10.941,4.707
				c-3.191,0.348-11.277,0.67-13.459-0.755c-2.188-1.431-1.52-5.3-1.278-8.33c0.246-3.026,1.949-3.697,3.996-3.87
				c2.046-0.171,13.608-0.475,16.976-0.523c2.515-0.034,3.867,0.861,4.707,2.21C181.738,138.769,181.404,141.125,180.898,143.987z"
				/>
			<path fill="#FFFFFF" d="M204,152.609c-2.04,0.085-6.321,0.588-13.561,1.261c-7.246,0.679-12.434,1.438-13.627,3.712
				l-25.796,0.112l-25.79-0.112c-1.196-2.274-6.384-3.033-13.63-3.712c-7.24-0.673-11.521-1.176-13.561-1.261
				c-2.052-0.085-4.582-0.611-4.426,3.367c0.155,3.988,0.49,6.691,4.944,7.209c4.46,0.524,12.403,0.984,17.131,1.337
				c4.729,0.362,11.268,1.19,10.735-0.873c4.57-0.198,1.852,1.534,5.422,1.638c2.944,0.076,15.071,0.023,19.174,0.006
				c4.104,0.018,16.235,0.07,19.177-0.006c3.567-0.104,0.852-1.836,5.419-1.638c-0.53,2.063,6.011,1.235,10.735,0.873
				c4.731-0.353,12.677-0.812,17.135-1.337c4.457-0.518,4.792-3.221,4.944-7.209C208.584,151.997,206.052,152.524,204,152.609z"/>
			<path fill="#FFFFFF" d="M218.126,129.759c-2.734-4.439-9.262-8.823-13.322-11.255h1.681c1.461,0,5.899,0,5.899-4.043
				c0-3.072-3.471-3.979-5.309-4.031c-0.019,0-1.974-0.012-3.63,0c-1.065,0.009-3.27,0.027-3.301,2.299
				c-3.616-6.93-10.089-15.619-15.137-18.974c-1.712-1.14-3.75-1.2-3.977-1.203c-12.806-0.95-29.771-0.961-29.941-0.961h-0.109
				h-0.109c-0.171,0-17.138,0.011-29.94,0.961c-0.229,0.002-2.269,0.062-3.979,1.203c-5.045,3.354-11.518,12.044-15.138,18.974
				c-0.027-2.272-2.231-2.29-3.297-2.299c-1.659-0.012-3.614,0-3.632,0c-1.836,0.052-5.307,0.958-5.307,4.031
				c0,4.043,4.439,4.043,5.897,4.043h1.681c-4.059,2.432-10.586,6.816-13.323,11.255c-2.396,3.897-3.246,19.3-3.188,23.66
				c0.037,3.178,0.323,8.08,0.6,12.829l0.42,7.882c0.159,4.232,2.104,6.202,6.129,6.202h15.914c6.86,0,6.93-6.408,6.938-6.54
				c0.18,0,0.359,0,0.536,0c4.092,0,6.698,0.528,8.644,0.92c0.277,0.055,0.539,0.109,0.785,0.159
				c2.381,0.45,14.261,0.919,14.401,0.925l15.771,0.092l0.198-0.004l0.197,0.004l15.77-0.092c0.141-0.006,12.02-0.475,14.4-0.925
				c0.25-0.05,0.513-0.104,0.786-0.159c1.948-0.392,4.555-0.92,8.646-0.92c0.177,0,0.354,0,0.536,0
				c0.006,0.132,0.079,6.54,6.936,6.54h15.917c4.024,0,5.967-1.97,6.125-6.202l0.42-7.882c0.28-4.749,0.566-9.651,0.604-12.829
				C221.372,149.059,220.526,133.656,218.126,129.759z M118.593,96.22c0.968-0.646,2.29-0.706,2.466-0.712
				c12.784-0.944,29.645-0.956,29.812-0.956h0.109h0.109c0.168,0,17.027,0.012,29.814,0.956c0.177,0.006,1.498,0.067,2.466,0.712
				c4.938,3.282,11.447,12.288,14.723,19.01h-47.112h-47.111C107.145,108.508,113.655,99.503,118.593,96.22z M218.352,153.383
				c-0.036,3.117-0.317,7.981-0.591,12.695l-0.109,1.811c-0.121,2.107-0.22,2.123-1.2,2.244c-2.033,0.256-13.548,0.549-23.649,0.737
				c-0.663-0.025-1.353-0.04-2.021-0.04c-4.39,0-7.167,0.561-9.195,0.972c-0.285,0.058-0.547,0.109-0.791,0.158
				c-1.552,0.296-9.17,0.685-13.913,0.876l-15.9,0.087l-15.899-0.087c-4.743-0.191-12.363-0.58-13.913-0.876
				c-0.247-0.049-0.506-0.101-0.795-0.158c-2.028-0.411-4.804-0.972-9.191-0.972c-0.669,0-1.361,0.015-2.025,0.04
				c-10.099-0.188-21.613-0.481-23.646-0.737c-0.98-0.121-1.081-0.137-1.203-2.244l-0.106-1.811
				c-0.273-4.714-0.56-9.578-0.594-12.695c-0.076-5.822,1.121-19.423,2.75-22.071c3.37-5.469,14.111-11.326,15.402-12.021h49.221
				h49.22c1.29,0.694,12.032,6.552,15.404,12.021C217.231,133.96,218.431,147.561,218.352,153.383z"/>
		</g>
		<g opacity="0.6">
			<path fill="#FFFFFF" d="M123.878,37.305c-0.198-1.044-0.396-2.07-0.603-3.069c-15.11,4.02-28.932,11.238-40.684,20.894
				c0.408,0.948,0.874,1.935,1.392,2.9C95.469,48.453,109.03,41.289,123.878,37.305z"/>
		</g>
		<g opacity="0.6">
			<path fill="#FFFFFF" d="M230.823,70.793v-4.651c-11.77-12.965-26.585-23.118-43.379-29.165l-0.561,3.101
				C204.092,46.372,219.174,57.079,230.823,70.793z"/>
		</g>
		<g opacity="0.6">
			<path fill="#FFFFFF" d="M254.394,155.349l2.965,1.127c0.987-5.843,1.522-11.835,1.522-17.954c0-8.513-1.012-16.788-2.887-24.737
				h-3.184c1.93,7.937,2.953,16.218,2.953,24.737C255.764,144.251,255.282,149.869,254.394,155.349z"/>
		</g>
		<g opacity="0.6">
			<path fill="#FFFFFF" d="M239.876,193.899c-12.287,19.659-30.925,34.927-52.993,43.015v3.33
				c23.358-8.276,43.062-24.351,55.911-45.117L239.876,193.899z"/>
		</g>
		<g opacity="0.6">
			<path fill="#FFFFFF" d="M72.605,207.964v4.586c19.369,20.483,46.636,33.426,76.892,33.837v-3.118
				C118.94,242.843,91.511,229.264,72.605,207.964z"/>
			<path fill="#FFFFFF" d="M52.084,173.105c-3.799-10.832-5.888-22.463-5.888-34.583c0-11.058,1.736-21.714,4.923-31.731
				l-3.124-0.493c-3.19,10.181-4.917,21.007-4.917,32.224c0,12.096,2.031,23.718,5.718,34.58
				C49.881,173.105,50.979,173.105,52.084,173.105z"/>
		</g>
		<g opacity="0.6">
			<path fill-rule="evenodd" clip-rule="evenodd" fill="#FFFFFF" d="M162.186,247.481c-2.226,0.459-2.606-0.461-2.394-1.916
				c0.244-1.689-0.882-4.003,2.175-4.365c0.795-0.095,0.365-1.015,0.414-1.55c0.271-3.23,0.523-6.467,0.728-9.707
				c0.085-1.339,0.691-1.841,2.028-1.725c1.123,0.097,2.265,0.021,3.4,0.021c3.126,0,3.147,0,3.367,3.258
				c0.182,2.71,0.334,5.426,0.457,8.141c0.042,0.949,0.088,1.491,1.339,1.796c2.052,0.501,1.133,2.47,1.315,3.86
				c0.201,1.496-0.003,2.705-2.101,2.357c0.841,0.943,1.459,5.767,1.021,6.768c-0.247,0.569-0.707,0.475-1.14,0.475
				c-3.554,0.007-7.103,0.013-10.659-0.009c-0.35,0-0.809-0.029-1.032-0.243C160.499,254.069,161.12,248.65,162.186,247.481z"/>
			<path fill-rule="evenodd" clip-rule="evenodd" fill="#FFFFFF" d="M172.422,260.858c0,5.283,0,5.283-5.231,5.283
				c-1.211,0-2.423,0.009-3.632-0.007c-0.502-0.003-1.162,0.116-1.136-0.694c0.019-0.483-0.396-1.215,0.762-1.173
				c0.949,0.034,0.683-0.681,0.293-1.174c-0.12-0.149-0.457-0.11-0.609-0.253c-0.664-0.625-0.868-0.969,0.285-1.478
				c1.493-0.656,0.168-0.961-0.35-1.449c-0.696-0.654-0.785-1.171,0.497-1.382c0.712-0.116,0.73-0.676-0.037-1.193
				c-0.451-0.307-0.999-0.414-0.834-1.09c0.22-0.874,0.98-0.514,1.503-0.526c2.345-0.04,4.693,0.055,7.033-0.043
				c1.255-0.055,1.55,0.423,1.474,1.554C172.358,258.434,172.422,259.652,172.422,260.858z"/>
			<path fill-rule="evenodd" clip-rule="evenodd" fill="#FFFFFF" d="M169.414,223.665c0.024,0.325,0,0.858,0.121,1.355
				c0.46,1.86-0.121,2.521-2.131,2.499c-1.991-0.016-2.686-0.562-2.052-2.502c0.112-0.351,0.201-0.795,0.078-1.112
				c-0.943-2.456,0.464-2.511,2.312-2.515C169.365,221.386,170.048,221.809,169.414,223.665z"/>
			<path fill-rule="evenodd" clip-rule="evenodd" fill="#FFFFFF" d="M167.538,270.306c-0.529-0.275-1.57,0.611-1.991-0.49
				c-0.39-1.019,1.377-1.265,0.987-2.363c0.596-0.079,1.33-0.64,1.698,0.289c0.749,1.903,1.528,1.054,1.937-0.073
				c0.305-0.84,0.719-1.2,1.413-0.907c0.715,0.305,0.377,1.081,0.194,1.586C171.078,270.292,169.444,270.448,167.538,270.306z"/>
		</g>
		<path opacity="0.6" fill-rule="evenodd" clip-rule="evenodd" fill="#FFFFFF" d="M238.181,107.777
			c-2.841,0.524-5.724-0.475-8.162-3.014c-2.096-2.183-4.877-2.962-7.776-3.257c-1.521-0.152-2.128-0.737-2.157-2.329
			c-0.062-3.164,0.157-6.275,1.013-9.322c0.359-1.291,1.041-2.14,2.606-2.223c2.886-0.157,5.307-1.396,7.315-3.528
			c2.047-2.167,4.716-3.336,7.594-3.74c7.857-1.103,15.749-1.344,23.558,0.327c7.913,1.694,12.871,7.936,12.958,15.949
			c0.059,4.975-2.919,8.36-7.894,8.786C257.76,106.237,248.281,106.968,238.181,107.777z M248.054,83.41
			c-2.965,0.003-7.02-0.081-10.923,1.169c-3.429,1.098-4.805,2.919-4.969,6.504c-0.086,1.972-0.046,3.949-0.024,5.925
			c0.046,4.277,1.851,6.092,6.144,5.818c9.401-0.603,18.791-1.309,28.187-2.031c3.206-0.247,4.362-1.644,4.338-4.904
			c-0.039-5.336-3.711-9.824-9.392-11.361C257.395,83.443,253.263,83.339,248.054,83.41z"/>
		<path opacity="0.6" fill-rule="evenodd" clip-rule="evenodd" fill="#FFFFFF" d="M266.587,99.296
			c2.378-0.408,2.785-0.865,2.844-3.212c0.134-5.103-3.755-9.389-9.661-10.513c-6.283-1.196-12.616-0.641-19.089-0.495
			c0.62,0.907,1.327,0.674,2.07,0.654c4.208-0.114,8.415-0.125,12.61,0.381C263.414,87.082,267.68,92.054,266.587,99.296z"/>
		<path opacity="0.6" fill-rule="evenodd" clip-rule="evenodd" fill="#FFFFFF" d="M251.178,194.237
			c-8.451,0.019-15.46-5.849-17.034-14.168c-0.302-1.594-0.009-2.251,1.724-1.758c0.594,0.171,1.257,0.197,1.879,0.155
			c1.747-0.119,2.542,0.56,3.117,2.342c1.626,4.999,6.618,7.836,11.958,7.142c4.695-0.607,8.675-4.7,9.195-9.455
			c0.581-5.269-2.284-9.987-7.128-11.799c-0.745-0.279-1.908-0.027-2.085-1.159c-0.262-1.711-0.566-3.458-0.457-5.167
			c0.049-0.785,1.225-0.362,1.858-0.259c6.694,1.093,12.366,6.583,13.804,13.305C270.311,184.187,262.205,194.215,251.178,194.237z"
			/>
		<path opacity="0.6" fill-rule="evenodd" clip-rule="evenodd" fill="#FFFFFF" d="M260.632,177.151
			c-0.034,5.256-4.205,9.417-9.445,9.423c-5.343,0.01-9.6-4.256-9.557-9.572c0.043-5.312,4.354-9.501,9.707-9.432
			C256.543,167.637,260.664,171.887,260.632,177.151z M247.896,177.063c-0.015,1.656,1.44,3.172,3.118,3.255
			c1.754,0.085,3.355-1.453,3.361-3.231c0.006-1.673-1.435-3.189-3.101-3.26C249.516,173.753,247.908,175.29,247.896,177.063z
			 M251.477,183.222c-0.18-0.811-0.682-1.31-1.459-1.254c-0.657,0.049-1.171,0.551-1.169,1.238c0.007,0.779,0.49,1.354,1.304,1.346
			C250.949,184.54,251.366,183.983,251.477,183.222z M258.241,179.017c-0.158-0.633-0.585-1.129-1.456-0.979
			c-0.724,0.124-1.089,0.618-1.021,1.342c0.078,0.855,0.639,1.245,1.454,1.13C257.934,180.409,258.296,179.921,258.241,179.017z
			 M246.37,178.631c-0.097-0.831-0.587-1.267-1.412-1.216c-0.733,0.049-1.145,0.558-1.123,1.261
			c0.021,0.688,0.401,1.193,1.162,1.228C245.856,179.944,246.282,179.468,246.37,178.631z M256.814,172.599
			c-0.106-0.812-0.527-1.297-1.392-1.245c-0.767,0.043-1.132,0.533-1.129,1.24c0.002,0.855,0.526,1.303,1.354,1.25
			C256.371,173.799,256.756,173.324,256.814,172.599z M249.263,171.662c-0.069-0.826-0.48-1.312-1.348-1.268
			c-0.743,0.043-1.151,0.518-1.157,1.225c-0.007,0.852,0.511,1.29,1.346,1.266C248.852,172.861,249.208,172.39,249.263,171.662z"/>
		<path opacity="0.6" fill-rule="evenodd" clip-rule="evenodd" fill="#FFFFFF" d="M250.74,163.618
			c0.816,1.817-0.377,2.305-2.526,2.84c-4.427,1.105-7.094,4.238-7.956,8.711c-0.246,1.294-0.558,1.729-1.896,1.522
			c-1.942-0.302-3.909-0.457-5.872-0.558c-1.088-0.058-1.24-0.479-1.137-1.479c0.896-8.744,8.652-16.538,17.323-17.411
			c1.173-0.119,1.479,0.233,1.522,1.346C250.249,160.077,250.506,161.561,250.74,163.618z"/>
		<path opacity="0.6" fill-rule="evenodd" clip-rule="evenodd" fill="#FFFFFF" d="M60.664,193.272
			c0.067,3.459-0.421,6.841-1.299,10.182c-0.211,0.81-0.429,1.482-1.365,1.826c-4.326,1.587-10.835-0.441-14.182-4.49
			c-3.309-3.995-3.722-9.53-0.883-13.929c3.75-5.795,9.409-6.619,14.781-5.932c1.028,0.132,1.262,0.871,1.487,1.693
			C60.155,186.108,60.715,189.646,60.664,193.272z"/>
		<path opacity="0.6" fill-rule="evenodd" clip-rule="evenodd" fill="#FFFFFF" d="M69.533,199.054c1.305,0,2.614-0.024,3.92,0.006
			c1.256,0.03,1.975,0.682,2.006,1.964c0.034,1.278-0.615,2.045-1.888,2.07c-2.694,0.046-5.392,0.049-8.085-0.007
			c-1.265-0.027-1.938-0.804-1.895-2.076c0.045-1.257,0.74-1.942,2.018-1.957C66.918,199.038,68.225,199.054,69.533,199.054z"/>
		<path opacity="0.6" fill-rule="evenodd" clip-rule="evenodd" fill="#FFFFFF" d="M69.487,191.147
			c1.226-0.003,2.451,0.006,3.675-0.003c1.338-0.016,2.227,0.514,2.292,1.951c0.065,1.422-0.735,2.122-2.091,2.138
			c-2.612,0.03-5.224,0.03-7.838-0.021c-1.263-0.021-1.944-0.768-1.935-2.04c0.009-1.278,0.734-1.957,1.978-2.013
			C66.872,191.107,68.181,191.15,69.487,191.147z"/>
		<path opacity="0.6" fill-rule="evenodd" clip-rule="evenodd" fill="#FFFFFF" d="M69.63,187.32c-1.304,0-2.612,0.007-3.917,0
			c-1.387-0.009-2.151-0.703-2.119-2.101c0.029-1.278,0.781-1.924,2.04-1.933c2.611-0.013,5.222-0.02,7.835,0.005
			c1.27,0.013,1.979,0.701,1.986,1.973c0.006,1.404-0.753,2.078-2.152,2.059C72.08,187.311,70.854,187.32,69.63,187.32z"/>
		<g opacity="0.6">
			<path fill-rule="evenodd" clip-rule="evenodd" fill="#FFFFFF" d="M82.88,71.68c0.028-1.847-0.638-2.188-2.305-2.178
				c-11.68,0.062-23.362,0.068-35.042-0.006c-1.816-0.009-2.43,0.449-2.399,2.348c0.108,7.08,0.122,14.161-0.008,21.237
				c-0.038,2.001,0.714,2.275,2.438,2.251c5.751-0.098,11.505-0.036,17.256-0.036c5.93,0,11.859-0.055,17.788,0.03
				c1.64,0.024,2.308-0.277,2.276-2.144C82.764,86.016,82.774,78.848,82.88,71.68z M62.083,91.118
				c-0.337,0.531-0.759,1.126-1.467,0.744c-0.655-0.356-0.035-0.924,0.008-1.39c0.03-0.342,0.221-0.666,0.301-1.007
				c0.357-1.53,1.741-3.207,1.075-4.465c-0.609-1.145-2.736-0.023-4.316-0.648c1.218-3.346,2.389-6.648,3.624-9.927
				c0.354-0.94,4.699-1.691,5.457-0.979c0.502,0.475,0.072,0.94-0.101,1.404c-0.701,1.883-1.394,3.768-2.152,5.823
				c1.405,0.073,2.58,0.135,4.066,0.213C66.306,84.466,64.199,87.793,62.083,91.118z"/>
			<path fill-rule="evenodd" clip-rule="evenodd" fill="#FFFFFF" d="M62.745,99.652c-6.018,0-12.037,0.016-18.054-0.016
				c-0.912-0.005-2.186,0.549-2.113-1.364c0.063-1.65,1.006-1.537,2.113-1.534c12.214,0.009,24.428,0.006,36.643,0
				c1.083,0,2.06-0.164,2.116,1.522c0.064,1.909-1.198,1.371-2.116,1.376C75.136,99.667,68.943,99.652,62.745,99.652z"/>
			<path fill-rule="evenodd" clip-rule="evenodd" fill="#FFFFFF" d="M72.381,66.985c-0.114-2.094,0.926-2.793,3.058-2.723
				c1.832,0.061,2.818,0.41,2.791,2.426C78.189,69.44,72.506,69.262,72.381,66.985z"/>
			<path fill-rule="evenodd" clip-rule="evenodd" fill="#FFFFFF" d="M47.806,66.925c-0.156-2.01,0.721-2.663,2.806-2.674
				c2.141-0.01,3.166,0.686,3.038,2.748C53.51,69.237,47.997,69.401,47.806,66.925z"/>
		</g>
		<g opacity="0.6">
			<path fill="#FFFFFF" d="M172.651,48.717c-0.549-7.426-0.959-14.862-1.413-22.295c-0.197-3.219-1.531-5.774-4.028-7.89
				c-3.787-3.209-7.459-6.561-11.082-9.953c-1.63-1.524-3.368-2.461-5.631-2.227c-0.758,0.078-1.387,0.04-1.767-0.335V3.302
				c0-0.899-0.876-1.628-1.956-1.628h-6.061c-1.081,0-1.956,0.729-1.956,1.628v3.081c-2.563,0.184-2.95,0.897-2.954,4.021
				c-0.004,12.703,0.05,25.406-0.041,38.11c-0.02,2.687,0.857,3.772,3.632,3.745c9.933-0.104,19.868-0.09,29.8-0.008
				C171.777,52.273,172.845,51.385,172.651,48.717z M153.26,46.841c-5.289-0.256-9.535-4.856-9.28-10.056
				c0.26-5.311,4.776-9.467,10.052-9.251c5.305,0.219,9.476,4.734,9.257,10.023C163.069,42.839,158.475,47.091,153.26,46.841z
				 M165.417,24.678c-2.36,0-11.056-2.93-11.056-2.93s-1.227-0.378-1.417-1.796c-0.188-1.416-1.51-7.652-0.755-8.596
				c0.755-0.946,2.362,0.094,2.362,0.094l12.755,11.527C167.307,22.978,167.78,24.678,165.417,24.678z"/>
			<path fill-rule="evenodd" clip-rule="evenodd" fill="#FFFFFF" d="M153.65,31.271c1.352,1.894,2.548,3.375,3.525,4.992
				c1.136,1.883,0.782,3.726-0.9,5.11c-1.669,1.375-3.562,1.375-5.237,0.004c-1.685-1.375-2.074-3.198-0.92-5.091
				C151.1,34.674,152.286,33.186,153.65,31.271z"/>
		</g>
	</g>
</g>
</svg>
