<?xml version="1.0" encoding="utf-8"?>
<!-- Generator: Adobe Illustrator 16.0.0, SVG Export Plug-In . SVG Version: 6.00 Build 0)  -->
<!DOCTYPE svg PUBLIC "-//W3C//DTD SVG 1.1//EN" "http://www.w3.org/Graphics/SVG/1.1/DTD/svg11.dtd">
<svg version="1.1" id="Layer_1" xmlns="http://www.w3.org/2000/svg" xmlns:xlink="http://www.w3.org/1999/xlink" x="0px" y="0px"
	 width="316.176px" height="272.059px" viewBox="0 0 316.176 272.059" enable-background="new 0 0 316.176 272.059"
	 xml:space="preserve">
<g>
	<g>
		<g>
			<rect fill="none" width="316.176" height="272.059"/>
		</g>
	</g>
	<g opacity="0.6">
		<g>
			<path fill="#FFFFFF" d="M133.376,124.805c0-1.947-3.11-3.531-6.944-3.531c-3.838,0-6.949,1.584-6.949,3.531
				c0,1.951,3.111,3.531,6.949,3.531C130.266,128.336,133.376,126.756,133.376,124.805z"/>
			<path fill="#FFFFFF" d="M36.909,147.292c10.864-0.393,28.135-0.73,34.111-0.74c-0.152,10.934,18.859,14.398,24.633,14.398
				c5.76,0,10.928,0,17.413,0c6.481,0,10.782-3.258,10.782-11.229c0-7.973-1.652-14.793-1.652-14.793
				c-1.502-3.389-5.09-3.834-13.309-3.834c-8.216,0-21.269,0-25.611,0c-10.625,0-11.836,3.475-12.559,7.08
				c-0.783-1.494-2.168-1.715-4.039-2.191c-1.865-0.514-23.793-6.369-28.854-7.875c-5.072-1.508-14.736-4.67-16.219,0.414
				c-1.463,5.107-3.783,14.096,3.81,14.096C25.113,147.141,28.321,147.6,36.909,147.292z M74.37,137.282
				c1.459-2.346,3.812-3.908,8.194-3.852c5.855,0.092,25.985,0.611,29.537,0.908c3.56,0.309,6.528,1.473,6.959,6.744
				c0.421,5.27,1.584,12.006-2.225,14.494c-3.802,2.479-17.869,1.92-23.429,1.314c-5.564-0.594-18.15-3.219-19.037-8.193
				C73.487,143.721,72.897,139.616,74.37,137.282z"/>
			<path fill="#FFFFFF" d="M130.665,134.928c0,0-1.652,6.82-1.652,14.793c0,7.971,4.305,11.229,10.789,11.229
				c4.685,0,8.678,0,12.705,0v-3.604c-6.255,0.203-13.84-0.053-16.479-1.77c-3.809-2.488-2.645-9.225-2.221-14.494
				c0.428-5.271,3.396-6.436,6.955-6.744c1.57-0.129,6.369-0.303,11.744-0.467v-2.777c-3.033,0-6.01,0-8.525,0
				C135.758,131.094,132.173,131.54,130.665,134.928z"/>
		</g>
		<path fill="#FFFFFF" d="M152.506,172.463l-23.611,0.1l-47.292-0.203c-2.079-3.965-11.112-5.277-23.722-6.457
			c-12.604-1.178-20.047-2.049-23.603-2.195c-3.57-0.15-7.974-1.068-7.702,5.855c0.27,6.941,0.85,11.65,8.605,12.547
			c7.764,0.916,21.586,1.717,29.815,2.332c8.233,0.631,19.61,2.068,18.688-1.52c7.951-0.35,3.221,2.67,9.432,2.848
			c6.197,0.16,35.768,0,35.768,0s13.037,0.07,23.621,0.07V172.463z"/>
		<path fill="#FFFFFF" d="M230.933,111.496c-3.827-2.869-7.724-5.357-10.71-7.151h2.809c2.537,0,10.262,0,10.262-7.034
			c0-5.35-6.041-6.93-9.259-7.021c0,0-3.409-0.021-6.3,0c-1.816,0.018-5.539,0.048-5.734,3.773
			c-6.326-12.015-17.503-26.99-26.213-32.792c-3.051-2.036-6.785-2.093-6.82-2.093h-0.025c-22.414-1.651-51.898-1.671-52.193-1.671
			h-0.506c-0.299,0-29.832,0.02-52.115,1.669c-0.391,0.005-3.951,0.11-6.926,2.093C58.42,67.108,47.157,82.236,40.86,94.298
			c-0.053-3.957-3.887-3.99-5.74-4.008c-2.891-0.016-6.291,0.005-6.322,0c-3.197,0.091-9.237,1.671-9.237,7.021
			c0,7.034,7.724,7.034,10.263,7.034h2.926c-7.059,4.235-18.422,11.865-23.188,19.591c-4.164,6.781-5.645,33.592-5.549,41.182
			c0.064,5.531,0.562,14.057,1.039,22.328l0.733,13.715c0.278,7.369,3.667,10.801,10.668,10.801h27.7
			c3.938,0,7.02-1.242,9.162-3.686c0.253-0.287,0.495-0.611,0.766-1.004l0.199-0.312c0.164-0.256,0.312-0.52,0.494-0.861
			l0.111-0.217c0.17-0.35,0.324-0.697,0.451-1.047l0.051-0.135c0.109-0.314,0.209-0.619,0.299-0.93l0.086-0.324
			c0.063-0.26,0.124-0.512,0.174-0.766l0.057-0.266c0.057-0.328,0.107-0.645,0.143-0.943l0.021-0.193
			c0.025-0.238,0.047-0.477,0.064-0.697c0.309-0.004,0.623-0.004,0.932-0.004c7.119,0,11.658,0.916,15.039,1.602
			c0.484,0.098,0.943,0.186,1.371,0.268c4.143,0.795,24.82,1.605,25.066,1.617l27.447,0.156l26.42-0.15v-5.154l-25.646,0.146
			l-28.104-0.152c-8.251-0.332-21.514-1.008-24.215-1.527c-0.424-0.078-0.88-0.172-1.385-0.271
			c-3.527-0.715-8.361-1.693-15.994-1.693c-1.164,0-2.37,0.027-3.527,0.07c-17.573-0.33-37.613-0.84-41.155-1.281
			c-1.702-0.213-1.88-0.238-2.093-3.904l-0.186-3.158c-0.477-8.193-0.971-16.672-1.035-22.09
			c-0.133-10.135,1.953-33.805,4.787-38.414c5.866-9.516,24.561-19.717,26.807-20.92h171.449c1.133,0.605,6.43,3.484,12.203,7.449
			l0.26,0.179h8.734L230.933,111.496z M44.434,98.646c5.699-11.696,17.033-27.37,25.621-33.083c1.688-1.123,3.99-1.226,4.301-1.238
			c22.246-1.643,51.592-1.663,51.887-1.663h0.506c0.292,0,29.641,0.02,52.023,1.669c0.024,0,2.428,0.075,4.156,1.228
			c8.601,5.731,19.959,21.454,25.626,33.087H44.434z"/>
		<path fill="#FFFFFF" d="M241.348,183.186c-1.552,1.633-2.99,2.818-4.3,3.531c-1.591,0.863-3.509,1.287-5.753,1.287
			c-2.826,0-5.039-0.947-6.635-2.83c-1.52-1.762-2.271-4.125-2.271-7.1c0-4.607,1.392-8.725,4.175-12.355
			c2.645-3.406,6.094-5.105,10.355-5.105c3.445,0,5.908,1.078,7.375,3.229l0.556-2.338h7.745l-3.844,16.113
			c-0.199,0.852-0.299,1.678-0.299,2.457c0,1.797,0.947,2.701,2.857,2.701c2.418,0,4.368-0.969,5.838-2.922
			c1.498-1.986,2.232-4.621,2.232-7.902c0-4.484-1.538-8.322-4.635-11.523c-3.969-4.104-9.533-6.15-16.631-6.15
			c-5.613,0-10.33,1.51-14.142,4.518c-2.745,2.199-4.763,5.064-6.055,8.604c-0.843,2.277-1.257,4.783-1.257,7.51
			c0,5.738,1.762,10.342,5.283,13.801c3.673,3.605,9.02,5.406,16.043,5.406c4.346,0,8.561-0.668,12.611-2.027l1.627,5.324
			c-4.998,1.488-9.789,2.236-14.354,2.236c-9.941,0-17.424-3.084-22.441-9.252c-3.305-4.076-4.952-9.365-4.952-15.865
			c0-4.602,1.153-8.873,3.442-12.785c2.09-3.566,4.895-6.432,8.429-8.607c4.528-2.809,9.987-4.215,16.374-4.215
			c7.785,0,14.299,2.289,19.496,6.863c2.79,2.432,4.801,5.396,6.029,8.881c0.754,2.172,1.132,4.545,1.132,7.133
			c0,5.066-1.523,9.102-4.55,12.104c-2.829,2.812-6.662,4.217-11.5,4.217C244.364,188.125,241.698,186.477,241.348,183.186z
			 M238.067,166.424c-1.973,0-3.66,0.996-5.072,2.979c-0.805,1.133-1.424,2.516-1.877,4.154c-0.408,1.498-0.619,2.793-0.619,3.9
			c0,3.223,1.385,4.828,4.154,4.828c2.478,0,4.421-1.34,5.842-4.027c1.188-2.246,1.775-4.58,1.775-7.008
			C242.274,168.036,240.875,166.424,238.067,166.424z"/>
		<path fill="#FFFFFF" d="M304.555,121.274H172.657c-4.426,0-7.859,3.184-7.859,7.051v92.342c0,3.867,3.684,7.053,7.859,7.053
			h131.898c4.172,0,7.613-3.186,7.613-7.053v-92.342C312.168,124.458,308.727,121.274,304.555,121.274z M171.239,177.729
			c-1.576,0-2.854-1.275-2.854-2.852c0-1.574,1.277-2.852,2.854-2.852c1.574,0,2.852,1.277,2.852,2.852
			C174.09,176.454,172.813,177.729,171.239,177.729z M298.409,215.887c0,0.23-0.242,0.455-0.488,0.455v0.008H179.042
			c-0.242,0-0.49-0.232-0.49-0.463v-82.561c0-0.221,0.248-0.451,0.49-0.451H297.92c0.249,0,0.488,0.23,0.488,0.451V215.887z
			 M306.278,186.596c0,0.611-0.533,1.096-1.189,1.096c-0.658,0-1.188-0.492-1.188-1.096v-18.332c0-0.617,0.533-1.104,1.188-1.104
			c0.656,0,1.189,0.494,1.189,1.104V186.596z M304.868,164.352c-0.906,0-1.641-0.752-1.641-1.678c0-0.924,0.734-1.672,1.641-1.672
			c0.904,0,1.643,0.748,1.643,1.672C306.51,163.6,305.772,164.352,304.868,164.352z"/>
	</g>
</g>
</svg>
