<?xml version="1.0" encoding="utf-8"?>
<!-- Generator: Adobe Illustrator 16.0.4, SVG Export Plug-In . SVG Version: 6.00 Build 0)  -->
<!DOCTYPE svg PUBLIC "-//W3C//DTD SVG 1.1//EN" "http://www.w3.org/Graphics/SVG/1.1/DTD/svg11.dtd">
<svg version="1.1" id="Layer_1" xmlns="http://www.w3.org/2000/svg" xmlns:xlink="http://www.w3.org/1999/xlink" x="0px" y="0px"
	 width="316.176px" height="272.059px" viewBox="0 0 316.176 272.059" enable-background="new 0 0 316.176 272.059"
	 xml:space="preserve">
<g>
	<g>
		<rect x="0" y="0" fill="none" width="316.176" height="272.059"/>
	</g>
</g>
<g opacity="0.6">
	<path fill="#FFFFFF" d="M185.599,21.084c-0.593-1.793-1.606-2.529-3.492-2.539c-1.38-0.01-2.759-0.021-4.148,0.01
		c-0.444,0.01-0.583-0.09-0.576-0.557c0.026-1.926-0.007-3.845,0.017-5.763c0.025-3.29-3.15-4.78-5.243-3.757
		c-0.355,0.186-0.391,0.031-0.391-0.275c0-0.615,0-1.206-0.058-1.809c-0.145-1.789-1.646-3.248-3.432-3.361
		c-2.329-0.16-4.097,1.527-4.109,3.96c-0.013,3.624-0.013,7.246,0.019,10.87c0.008,0.599-0.169,0.701-0.716,0.701
		c-7.603-0.02-15.192-0.02-22.788,0c-0.589,0-0.736-0.141-0.736-0.732c0.032-3.615,0.026-7.209,0.013-10.807
		c-0.013-2.33-1.662-4.029-3.845-4.011c-2.144,0.019-3.748,1.716-3.767,4.001c-0.01,0.516,0,1.027,0,1.578
		c-0.525-0.109-0.951-0.365-1.457-0.402c-2.333-0.154-4.113,1.514-4.139,3.93c-0.022,1.961-0.013,3.924,0.003,5.891
		c0.006,0.434-0.122,0.543-0.544,0.537c-1.179-0.029-2.373-0.035-3.557,0c-1.466,0.037-2.478,0.756-3.041,2.105
		c-0.048,0.125-0.019,0.307-0.218,0.357c0,0.526,0,1.045,0,1.557c0.103,0.026,0.118,0.108,0.157,0.174
		c0.644,1.605,1.648,2.285,3.361,2.291c1.073,0.013,2.154,0.031,3.227-0.014c0.492-0.006,0.624,0.125,0.62,0.609
		c-0.022,2.048-0.038,4.098,0.013,6.152c0.044,1.701,1.143,3.008,2.775,3.485c0.963,0.275,1.873,0.128,2.807-0.33
		c0,0.685-0.022,1.281,0,1.892c0.09,2.105,1.68,3.693,3.704,3.738c0.032,0,0.054-0.016,0.086-0.016v0.027v-0.027
		c2.167-0.004,3.813-1.672,3.822-3.984c0.019-3.621,0.019-7.251-0.009-10.874c-0.007-0.542,0.133-0.673,0.666-0.673
		c7.611,0.029,15.238,0.029,22.845,0c0.56,0,0.724,0.12,0.71,0.702c-0.013,3.761-0.036,7.505,0.022,11.263
		c0.032,1.998,1.713,3.555,3.7,3.578c2.007,0.033,3.64-1.442,3.816-3.443c0.057-0.582,0.05-1.158,0.05-1.74
		c0-0.318,0.059-0.455,0.396-0.285c0.35,0.175,0.724,0.274,1.117,0.303c2.302,0.135,4.071-1.531,4.104-3.91
		c0.031-1.934,0.031-3.879-0.011-5.818c-0.006-0.543,0.17-0.633,0.65-0.627c1.479,0.039,2.964,0.046,4.462,0
		c1.393-0.03,2.375-0.746,2.951-2.024c0.055-0.147,0.032-0.358,0.234-0.422c0-0.487,0-0.957,0.021-1.448
		C185.669,21.129,185.606,21.115,185.599,21.084z"/>
	<path fill="#FFFFFF" d="M241.948,59.481c0.04,0,0.071,0,0.09,0c0.148,0.174,0.344,0.076,0.497,0.076c8.741,0,17.489,0,26.227,0
		c1.848,0,3.691-0.006,5.545-0.006c0.012,0.152,0.037,0.303,0.037,0.449c0,12.168,0,24.322,0.02,36.481
		c0,0.454-0.131,0.532-0.546,0.532C263.679,97,253.538,97,243.4,97c-0.331,0-0.657,0.007-0.989,0.035
		c-1.144,0.088-1.962,0.679-2.401,1.704c-0.454,1.026-0.326,2.025,0.364,2.928c0.673,0.88,1.615,1.116,2.671,1.116
		c11.209-0.006,22.431-0.006,33.65,0.007c0.428,0,0.541-0.097,0.541-0.54c-0.023-12.066-0.016-24.15-0.016-36.211
		c0-0.087,0.016-0.184,0-0.27c-0.071-0.36,0.066-0.496,0.454-0.477c0.624,0.031,1.267,0.053,1.891-0.006
		c0.48-0.038,0.551,0.135,0.551,0.568c-0.013,13.08-0.013,26.164,0,39.242c0,0.174-0.054,0.35,0.036,0.525
		c-12.92,0-25.825,0-38.746,0c-0.068-0.147-0.227-0.114-0.35-0.159c-2.531-0.75-4.186-2.938-4.186-5.563
		c0-11.556-0.012-23.104,0-34.651c0-2.684,1.895-5.026,4.512-5.603C241.575,59.602,241.795,59.659,241.948,59.481z"/>
	<path fill="#FFFFFF" d="M278.285,218.842c-9.722,0-19.452,0-29.176,0c0-0.087,0.007-0.185,0.007-0.265
		c0-12.843,0-25.678-0.007-38.512c0-0.119,0.07-0.243-0.067-0.365c-0.103,0.153-0.208,0.285-0.301,0.429
		c-1.306,1.96-2.631,3.904-3.928,5.873c-0.195,0.308-0.339,0.34-0.643,0.145c-2.327-1.444-4.633-2.866-6.981-4.255
		c-0.436-0.259-0.381-0.412-0.145-0.762c2.216-3.216,4.407-6.451,6.405-9.796c1.152-1.928,2.778-3.256,4.782-4.153
		c1.584-0.696,3.312-0.905,4.975-1.378c1.34-0.373,2.721-0.621,4.048-1.06c0.068,0,0.136,0,0.205,0
		c0.576,1.06,1.338,1.978,2.283,2.716c1.737,1.381,3.699,1.812,5.821,1.128c1.984-0.646,3.336-2.071,4.347-3.844
		c0.074,0,0.147,0,0.211,0c0.049,0.038,0.074,0.076,0.11,0.086c2.538,0.624,5.102,1.217,7.611,1.908
		c2.387,0.658,4.392,1.942,5.716,4.059c2.225,3.529,4.481,7.031,6.856,10.47c0.167,0.239,0.211,0.358-0.097,0.547
		c-2.394,1.438-4.779,2.906-7.166,4.366c-0.269,0.173-0.397,0.131-0.576-0.139c-0.867-1.314-1.754-2.627-2.641-3.931
		c-0.531-0.799-1.069-1.603-1.624-2.426c-0.126,0.222-0.069,0.423-0.069,0.608C278.243,190.904,278.282,216.61,278.285,218.842z"/>
	<g>
		<path fill="#FFFFFF" d="M47.954,182.975c-2.138,0.551-3.178,1.946-3.182,4.456c-0.016,8.437,0.013,16.874-0.032,25.298
			c-0.014,1.172,0.352,1.479,1.456,1.422c1.495-0.089,1.499-0.007,1.499,1.446c0.009,5.48,0,10.986,0.009,16.479
			c0,1.604,1.005,2.572,2.67,2.56c1.68,0,2.51-0.826,2.51-2.535c0-7.573,0.009-37.807,0.009-45.33
			C52.892,184.16,50.486,182.328,47.954,182.975z"/>
		<path fill="#FFFFFF" d="M37.599,182.93c-0.263-0.084-0.736,0.038-0.878,0.229c-0.188,0.276-0.188,0.713-0.188,1.063
			c-0.016,3.425-0.026,6.843-0.013,10.269c0.007,0.722-0.243,1.068-1.03,1.068c-0.781,0-1.082-0.313-1.047-1.062
			c0.016-0.339,0-0.666,0-1.011c-0.003-3.201,0.016-6.382-0.029-9.596c-0.006-0.347-0.32-0.788-0.621-0.993
			c-0.141-0.09-0.691,0.205-0.89,0.441c-0.173,0.23-0.109,0.641-0.109,0.979c-0.002,3.375-0.025,6.768,0.009,10.148
			c0.013,0.825-0.245,1.133-1.078,1.089c-0.916-0.058-0.845-0.66-0.845-1.256c-0.009-3.264,0-6.543-0.009-9.812
			c0-0.341,0.067-0.699-0.052-0.992c-0.102-0.258-0.445-0.628-0.634-0.604c-0.275,0.046-0.605,0.346-0.751,0.622
			c-0.132,0.23-0.056,0.581-0.056,0.883c0,3.297,0,6.606,0,9.916c0.007,0.691-0.054,1.211-0.992,1.235
			c-1.171,0.039-1.087-0.697-1.087-1.459c0-3.354-0.006-6.689,0-10.044c0.006-0.736-0.173-1.371-1.025-1.14
			c-0.297,0.076-0.604,0.762-0.614,1.178c-0.042,5.179-0.029,10.344-0.025,15.512c0,1.651,0.812,2.925,2.406,3.283
			c1.14,0.269,1.358,0.839,1.345,1.862c-0.042,4.501-0.007,22.79-0.007,27.458c-0.009,1.075,0.404,1.881,1.354,2.38
			c1.847,0.961,3.882-0.389,3.882-2.591c0.01-9.22,0.014-18.433-0.009-27.663c-0.014-0.825,0.173-1.222,1.062-1.446
			c1.831-0.454,2.519-1.517,2.519-3.411c0-4.795,0-9.584,0-14.386c0-0.479,0.061-0.965-0.036-1.439
			C38.101,183.371,37.843,183.007,37.599,182.93z"/>
	</g>
	<path fill="#FFFFFF" d="M73.413,58.399c-1.923,0.375-18.597,3.912-20.011,4.221c-1.415,0.312-1.937-0.582-2.266-0.905
		c-0.33-0.319-8.454-8.419-12.256-12.47c-3.422-3.65-9.718-5.704-11.408-3.988c-1.697,1.715,0.24,8.193,3.937,11.566
		c4.106,3.742,12.313,11.756,12.64,12.082c0.327,0.325,1.227,0.83,0.935,2.253c-0.288,1.415-3.594,18.139-3.943,20.065
		c-0.183,1.012-0.068,1.795,0.95,2.225s2.999,1.172,2.999,1.172l8.972-17.195c0,0,10.24,8.765,10.71,9.184
		c0.477,0.416,0.669,0.627,0.4,1.437c-0.269,0.813-1.31,7.157-1.402,7.933c-0.09,0.773,0.07,0.852,0.506,1.139
		c0.435,0.289,1.2,0.537,1.236,0.569c0.034,0.04,6.434-8.091,6.597-8.296c0.201-0.166,8.245-6.677,8.207-6.715
		c-0.038-0.035-0.294-0.794-0.585-1.226c-0.294-0.434-0.378-0.592-1.149-0.491c-0.771,0.104-7.099,1.232-7.909,1.512
		c-0.807,0.282-1.02,0.09-1.446-0.378c-0.424-0.464-9.328-10.583-9.328-10.583l17.066-9.212c0,0-0.771-1.972-1.213-2.981
		C75.209,58.303,74.422,58.199,73.413,58.399z"/>
	<path fill="#FFFFFF" d="M165.687,247.618c6.119-7.533,12.232-15.095,18.344-22.643c0.228-0.269,0.513-0.519,0.583-0.877
		c-4.511,0-39.233,0-43.743,0c0.07,0.358,0.355,0.608,0.582,0.877c6.11,7.548,12.224,15.109,18.344,22.643
		c0.335,0.403,0.503,0.8,0.496,1.337c-0.01,4.591-0.025,9.194,0.017,13.777c0.006,0.793-0.077,1.22-1.111,1.699
		c-1.034,0.481-7.826,3.832-9.839,4.612c0.935-0.006,25.831-0.006,26.765,0c-2.013-0.78-8.805-4.131-9.839-4.612
		c-1.034-0.479-1.117-0.906-1.11-1.699c0.041-4.583,0.024-9.187,0.016-13.777C165.185,248.418,165.35,248.022,165.687,247.618z
		 M163.766,235.18c0-1.979,1.604-3.584,3.585-3.584s3.585,1.605,3.585,3.584c0,1.981-1.604,3.585-3.585,3.585
		S163.766,237.161,163.766,235.18z"/>
	<g>
		<path fill="#FFFFFF" d="M116.573,31.467c-0.208-1.098-0.416-2.177-0.634-3.227c-15.885,4.226-30.417,11.814-42.773,21.963
			c0.429,1,0.918,2.038,1.463,3.053C86.706,43.188,100.962,35.654,116.573,31.467z"/>
	</g>
	<g>
		<path fill="#FFFFFF" d="M229.008,66.673v-4.888c-12.374-13.633-27.952-24.308-45.604-30.664l-0.593,3.258
			C200.902,40.998,216.763,52.258,229.008,66.673z"/>
	</g>
	<g>
		<path fill="#FFFFFF" d="M253.789,155.57l3.117,1.184c1.034-6.142,1.601-12.44,1.601-18.872c0-8.949-1.065-17.652-3.038-26.009
			h-3.347c2.028,8.341,3.106,17.05,3.106,26.009C255.229,143.902,254.724,149.808,253.789,155.57z"/>
	</g>
	<g>
		<path fill="#FFFFFF" d="M238.529,196.098c-12.92,20.668-32.515,36.72-55.718,45.22v3.503c24.557-8.699,45.273-25.599,58.78-47.434
			L238.529,196.098z"/>
	</g>
	<g>
		<path fill="#FFFFFF" d="M62.668,210.886v4.82c20.363,21.535,49.03,35.142,80.839,35.574v-3.278
			C111.381,247.554,82.545,233.28,62.668,210.886z"/>
		<path fill="#FFFFFF" d="M41.094,174.237c-3.994-11.389-6.19-23.616-6.19-36.355c0-11.625,1.824-22.83,5.175-33.357l-3.284-0.52
			c-3.354,10.7-5.169,22.08-5.169,33.877c0,12.715,2.136,24.933,6.011,36.353C38.777,174.237,39.933,174.237,41.094,174.237z"/>
	</g>
	<g>
		<path fill="#FFFFFF" d="M155.412,116.02c-0.09-0.083-0.24-0.094-0.298-0.006l-0.567,0.658l0.349,0.293l0.557-0.664
			C155.52,116.228,155.52,116.1,155.412,116.02z"/>
		<path fill="#FFFFFF" d="M156.093,116.781c0.074-0.09,0.061-0.23-0.05-0.326c-0.097-0.083-0.25-0.064-0.314,0.02l-0.583,0.697
			l0.366,0.309L156.093,116.781z"/>
		<path fill="#FFFFFF" d="M159.893,115.879c-2.635,0-4.779,2.145-4.779,4.775c0,2.637,2.144,4.783,4.779,4.783
			s4.782-2.146,4.782-4.783C164.675,118.024,162.531,115.879,159.893,115.879z M159.893,120.655v4.551
			c-0.02,0-0.051-0.006-0.076-0.006v0.006c-0.039,0-0.074-0.006-0.116-0.006c-0.105-0.006-0.214-0.012-0.323-0.023
			c-0.038-0.009-0.063-0.016-0.095-0.021c-0.12-0.009-0.241-0.033-0.355-0.058c-0.017,0-0.039-0.008-0.048-0.013
			c-0.128-0.032-0.257-0.062-0.382-0.099v-0.005c-1.219-0.39-2.208-1.286-2.736-2.432c-0.013-0.036-0.032-0.061-0.045-0.097
			c-0.032-0.084-0.064-0.166-0.092-0.263c-0.026-0.05-0.042-0.095-0.058-0.153c-0.028-0.073-0.039-0.152-0.063-0.227
			c-0.02-0.066-0.036-0.138-0.049-0.203c-0.016-0.068-0.022-0.133-0.041-0.203c-0.013-0.078-0.026-0.168-0.039-0.251
			c-0.007-0.058-0.007-0.114-0.013-0.175c0-0.082-0.013-0.156-0.013-0.238h0.007c0-0.031-0.007-0.054-0.007-0.086H159.893v-4.538
			c2.503,0,4.548,2.035,4.548,4.538H159.893z"/>
		<path fill="#FFFFFF" d="M200.573,121.596c-4.767-6.901-9.296-13.926-13.76-21.01c-2.657-4.244-6.681-6.82-11.47-8.145
			c-5.037-1.389-10.181-2.576-15.273-3.828c-0.071-0.018-0.122-0.096-0.219-0.172c-0.13,0-0.277,0-0.421,0
			c-2.03,3.557-4.745,6.415-8.724,7.711c-4.26,1.371-8.197,0.508-11.686-2.26c-1.895-1.482-3.422-3.326-4.577-5.451
			c-0.144,0-0.274,0-0.409,0c-2.667,0.877-5.436,1.379-8.127,2.125c-3.332,0.949-6.802,1.367-9.98,2.765
			c-4.021,1.8-7.285,4.466-9.596,8.333c-4.008,6.711-8.406,13.203-12.851,19.662c-0.477,0.699-0.586,1.006,0.292,1.523
			c4.712,2.792,9.336,5.641,14.007,8.541c0.611,0.39,0.899,0.326,1.29-0.292c2.602-3.95,5.259-7.854,7.88-11.786
			c0.185-0.287,0.396-0.554,0.604-0.859c0.275,0.242,0.132,0.492,0.132,0.732c0.016,25.757,0.016,51.51,0.016,77.276
			c0,0.161-0.016,0.354-0.016,0.532c19.512,0,39.041,0,58.547,0c-0.007-4.482-0.087-56.062-0.087-77.351
			c0-0.376-0.112-0.78,0.141-1.224c1.114,1.652,2.193,3.266,3.259,4.869c1.779,2.615,3.559,5.246,5.297,7.887
			c0.362,0.541,0.618,0.623,1.156,0.277c4.791-2.932,9.576-5.875,14.381-8.762C200.995,122.313,200.906,122.076,200.573,121.596z
			 M168.234,129.862h-17.332v-17.596h17.332V129.862z"/>
		<path fill="#FFFFFF" d="M159.893,127.879c3.989,0,7.221-3.229,7.221-7.225c0-3.985-3.231-7.214-7.221-7.214
			c-3.985,0-7.222,3.229-7.222,7.214C152.671,124.65,155.908,127.879,159.893,127.879z M159.893,125.565
			c-2.695,0-4.9-2.199-4.9-4.91c0-2.693,2.195-4.896,4.9-4.896c2.708,0,4.904,2.199,4.904,4.896
			C164.797,123.362,162.601,125.565,159.893,125.565z M164.384,115.278l0.281,0.336l-0.688,0.912l1.059-0.475l0.301,0.359
			l-0.652,0.957l1.018-0.51l0.288,0.34l-1.612,0.81l-0.327-0.392l0.618-0.949v-0.007l-1.047,0.446l-0.327-0.392L164.384,115.278z
			 M158.785,113.703h0.576l0.519,1.359l0.525-1.359h0.572v1.91h-0.384v-1.336l-0.499,1.336h-0.419l-0.503-1.336v1.336h-0.388
			V113.703z M154.912,115.733c0.188-0.232,0.454-0.412,0.711-0.199c0.077,0.072,0.118,0.09,0.208,0.27
			c0.025,0.055,0.044,0.172,0,0.281c0.224-0.135,0.457-0.097,0.614,0.059c0.228,0.229,0.202,0.492-0.026,0.761l-0.976,1.171
			l-1.472-1.231L154.912,115.733z"/>
	</g>
</g>
</svg>
