<?xml version="1.0" encoding="utf-8"?>
<!-- Generator: Adobe Illustrator 16.0.0, SVG Export Plug-In . SVG Version: 6.00 Build 0)  -->
<!DOCTYPE svg PUBLIC "-//W3C//DTD SVG 1.1//EN" "http://www.w3.org/Graphics/SVG/1.1/DTD/svg11.dtd">
<svg version="1.1" id="Layer_1" xmlns="http://www.w3.org/2000/svg" xmlns:xlink="http://www.w3.org/1999/xlink" x="0px" y="0px"
	 width="38px" height="45.334px" viewBox="0 0 38 45.334" enable-background="new 0 0 38 45.334" xml:space="preserve">
<polygon fill="#DE4415" points="38,45.334 19,40.667 0,45.334 0,0 38,0 "/>
<g>
	<path fill="#FFFFFF" d="M14.933,12.644c-3.084,0-5.499,2.478-5.499,5.642c0,3.854,3.319,6.875,7.915,11.055l1.273,1.311
		c0.197,0.201,0.558,0.203,0.756-0.002l1.234-1.271c4.621-4.206,7.953-7.239,7.953-11.092c0-3.164-2.414-5.642-5.498-5.642
		c-1.432,0-2.87,0.577-3.947,1.584L19,14.339l-0.12-0.112C17.804,13.221,16.365,12.644,14.933,12.644z"/>
</g>
</svg>
