<?xml version="1.0" encoding="utf-8"?>
<!-- Generator: Adobe Illustrator 16.0.0, SVG Export Plug-In . SVG Version: 6.00 Build 0)  -->
<!DOCTYPE svg PUBLIC "-//W3C//DTD SVG 1.1//EN" "http://www.w3.org/Graphics/SVG/1.1/DTD/svg11.dtd">
<svg version="1.1" id="Layer_1" xmlns="http://www.w3.org/2000/svg" xmlns:xlink="http://www.w3.org/1999/xlink" x="0px" y="0px"
	 width="68.354px" height="51.926px" viewBox="0 0 68.354 51.926" enable-background="new 0 0 68.354 51.926" xml:space="preserve">
<g>
	<rect x="0" fill="none" width="68.354" height="51.926"/>
</g>
<path fill="#DE4415" d="M43.444,4.872c-3.396,0-6.729,1.347-9.267,3.717c-2.536-2.37-5.87-3.717-9.266-3.717
	c-7.249,0-12.928,5.822-12.928,13.254c0,8.957,7.634,15.903,18.163,25.481l2.883,2.968c0.302,0.307,0.719,0.481,1.147,0.481
	c0.428,0,0.847-0.177,1.149-0.483l2.811-2.898C48.722,34.042,56.37,27.081,56.37,18.126C56.37,10.694,50.691,4.872,43.444,4.872z"/>
</svg>
