<?xml version="1.0" encoding="utf-8"?>
<!-- Generator: Adobe Illustrator 16.0.0, SVG Export Plug-In . SVG Version: 6.00 Build 0)  -->
<!DOCTYPE svg PUBLIC "-//W3C//DTD SVG 1.1//EN" "http://www.w3.org/Graphics/SVG/1.1/DTD/svg11.dtd">
<svg version="1.1" id="Layer_1" xmlns="http://www.w3.org/2000/svg" xmlns:xlink="http://www.w3.org/1999/xlink" x="0px" y="0px"
	 width="68.354px" height="51.927px" viewBox="0 0 68.354 51.927" enable-background="new 0 0 68.354 51.927" xml:space="preserve">
<g>
	<path opacity="0.6" fill="#FFFFFF" d="M43.444,4.872c-3.396,0-6.729,1.347-9.267,3.717c-2.536-2.37-5.87-3.717-9.266-3.717
		c-7.249,0-12.927,5.822-12.927,13.254c0,8.956,7.633,15.903,18.163,25.481l2.883,2.967c0.301,0.307,0.718,0.482,1.147,0.482
		c0.428,0,0.847-0.176,1.149-0.484l2.811-2.898C48.722,34.041,56.37,27.081,56.37,18.126C56.37,10.694,50.691,4.872,43.444,4.872z
		 M32.37,41.308c-10.975-9.991-17.186-15.993-17.186-23.182c0-5.638,4.273-10.053,9.726-10.053c2.993,0,6.069,1.481,8.03,3.865
		c0.61,0.741,1.862,0.742,2.471,0c1.962-2.384,5.04-3.865,8.032-3.865c5.453,0,9.725,4.415,9.725,10.053
		c0,7.188-6.224,13.203-17.259,23.249l-1.734,1.785L32.37,41.308z"/>
	<rect fill="none" width="68.354" height="51.927"/>
</g>
</svg>
