<?xml version="1.0" encoding="utf-8"?>
<!-- Generator: Adobe Illustrator 16.0.0, SVG Export Plug-In . SVG Version: 6.00 Build 0)  -->
<!DOCTYPE svg PUBLIC "-//W3C//DTD SVG 1.1//EN" "http://www.w3.org/Graphics/SVG/1.1/DTD/svg11.dtd">
<svg version="1.1" id="Layer_1" xmlns="http://www.w3.org/2000/svg" xmlns:xlink="http://www.w3.org/1999/xlink" x="0px" y="0px"
	 width="110.5px" height="115.779px" viewBox="0 0 110.5 115.779" enable-background="new 0 0 110.5 115.779" xml:space="preserve">
<g>
	<g>
		
			<linearGradient id="SVGID_1_" gradientUnits="userSpaceOnUse" x1="162.8906" y1="-288.9685" x2="242.8203" y2="-288.9685" gradientTransform="matrix(1 0 0 -1 -149.2949 -237.6528)">
			<stop  offset="0" style="stop-color:#E6E6E6"/>
			<stop  offset="0.5398" style="stop-color:#FFFFFF"/>
			<stop  offset="1" style="stop-color:#C8C8C8"/>
		</linearGradient>
		<path fill="url(#SVGID_1_)" d="M91.785,48.138c-1.586-2.575-5.664-5.209-7.898-6.526c0.852,0.09,1.922-0.012,1.922-0.012
			c2.197,0,3.014-1.52,3.014-2.859c0-1.938-2.762-2.015-2.762-2.015s-2.184,0-3.148,0c-1.797,0-1.596,0.892-1.465,1.799
			c-2.025-4.042-5.84-9.23-8.758-11.172c-0.818-0.54-1.857-0.556-1.857-0.556c-6.961-0.516-15.83-0.562-17.271-0.562
			c-1.443,0-10.312,0.046-17.27,0.562c0,0-1.043,0.01-1.858,0.556c-2.92,1.945-6.733,7.129-8.759,11.172
			c0.131-0.908,0.332-1.799-1.465-1.799c-0.969,0-3.146,0-3.146,0S18.3,36.802,18.3,38.741c0,1.34,0.816,2.859,3.011,2.859
			c0,0,1.076,0.102,1.924,0.012c-2.233,1.312-6.312,3.947-7.896,6.526c-1.167,1.902-1.775,10.341-1.741,13.37
			s0.476,8.963,0.598,12.086c0.079,2.055,0.867,2.801,2.72,2.801h10.598c3.685,0,3.177-3.803,3.177-3.803
			c3.581-0.141,4.273,0.375,5.573,0.62c1.301,0.249,8.261,0.53,8.261,0.53l9.035,0.05l9.036-0.05c0,0,6.963-0.281,8.264-0.53
			c1.301-0.245,1.99-0.761,5.568-0.62c0,0-0.506,3.803,3.182,3.803h10.598c1.859,0,2.643-0.746,2.725-2.801
			c0.117-3.123,0.562-9.057,0.594-12.086C93.561,58.485,92.953,50.041,91.785,48.138z"/>
		<path fill="#777266" d="M90.926,48.237c-2.17-3.523-9.129-7.155-9.129-7.155h3.244c2.133,0,3.012-0.652,3.012-1.956
			c0-1.877-2.682-1.949-2.682-1.949s-1.107-0.007-2.049,0c-0.938,0.007-1.533,0.151-1.533,0.991c0,0.576,0,1.106,0,1.106
			c-0.018,0.353-0.537,0.359-0.537,0.359c-1.85-3.987-5.838-9.543-8.846-11.546c-0.793-0.529-1.803-0.54-1.803-0.54
			c-7.359-0.544-16.96-0.544-16.96-0.544c-0.021,0-0.058,0-0.084,0c-0.025,0-0.062,0-0.08,0c0,0-9.602,0-16.963,0.544
			c0,0-1.009,0.011-1.802,0.54c-3.012,2.003-6.997,7.554-8.845,11.546c0,0-0.52-0.011-0.537-0.359c0,0,0-0.53,0-1.106
			c0-0.839-0.598-0.983-1.535-0.991c-0.939-0.007-2.048,0-2.048,0s-2.681,0.072-2.681,1.949c0,1.304,0.877,1.956,3.008,1.956h3.248
			c0,0-6.96,3.632-9.132,7.155c-1.129,1.84-1.722,10.028-1.683,12.965c0.034,2.933,0.457,8.688,0.577,11.72
			c0.074,1.987,0.838,2.708,2.637,2.708h9.021c3.574,0,3.084-3.685,3.084-3.685c3.471-0.134,5.396,0.362,6.656,0.602
			c1.262,0.241,8.012,0.511,8.012,0.511l8.935,0.052h0.126h0.125l8.936-0.052c0,0,6.75-0.27,8.012-0.511
			c1.262-0.238,3.186-0.739,6.658-0.602c0,0-0.49,3.685,3.082,3.685h9.021c1.799,0,2.561-0.721,2.637-2.708
			c0.119-3.03,0.547-8.787,0.58-11.72C92.646,58.265,92.057,50.077,90.926,48.237z M29.578,37.674
			c0.545-1.092,4.763-7.85,6.674-8.477c0.923-0.307,4.985-0.468,8.931-0.559c0.143,0.274,0.396,0.58,0.826,0.599
			c0.777,0.028,2.392,0.093,2.392,0.093s0.224,0.483,0.825,0.566c0.604,0.083,2.178,0.342,2.342,0.425
			c0.158,0.079-0.022,0.438-0.022,0.438s-1.271,0.019-2.255,0.079c-0.508,0.036-0.588,1.47-0.523,1.671
			c0.062,0.202,0.28,0.162,0.28,0.162l2.618,0.119h1.177h1.181l2.612-0.119c0,0,0.225,0.04,0.281-0.162
			c0.062-0.202-0.014-1.635-0.523-1.671c-0.98-0.062-2.252-0.079-2.252-0.079s-0.181-0.359-0.019-0.438
			c0.163-0.083,1.737-0.343,2.341-0.425c0.6-0.083,0.826-0.566,0.826-0.566s1.613-0.064,2.389-0.093
			c0.445-0.019,0.705-0.351,0.842-0.627c4.338,0.079,9.328,0.245,10.367,0.587c1.906,0.627,6.125,7.385,6.67,8.477
			c0.777,1.578,0.596,2.281-0.764,2.219c-0.342-0.015-1.467-0.061-3.086-0.126c-0.227-0.267-0.66-0.728-1.051-0.836
			c-1.344-0.366-2.453-0.525-2.453-0.525s0.283-0.22,0.164-0.709c-0.119-0.49-0.771-3.182-0.943-3.975
			c-0.17-0.789-0.574-1.542-1.516-1.542c-0.943,0-3.123,0-3.123,0s-0.783,0-0.84,0.271c-0.441-0.04-0.598,0.411-0.598,0.411
			l-1.305,2.445c0,0-0.174,0.072-0.836,0.079c-0.664,0-0.744,0.718-0.879,1.044c-0.191,0.473-0.461,1.388-0.461,1.388l-3.447,0.177
			c0,0-0.025-0.706-1.054-0.717c-1.026-0.012-4.733,0.054-5.02,0.068c-0.286,0.004-0.75,0.126-0.86,0.383
			c-0.114,0.267-0.215,0.37-0.215,0.37s0-0.173-0.346-0.173c-0.35,0-2.779,0-2.779,0L45.865,37.1c0,0-0.057-1.557-1.345-1.692
			c-0.605-0.058-1.104-0.075-1.104-0.075l-0.005-0.018c0,0-0.204-0.66-0.519-1.419c-0.317-0.757-0.494-1.409-1.431-1.431
			c-0.937-0.018-3.839-0.107-4.12,0.043c-0.279,0.151-0.436,0.347-0.436,0.347s-0.429,0.157-0.562,0.519
			c-0.731,1.978-1.232,3.444-1.191,5.159c0.006,0.255,0.111,0.284,0.164,0.284c-0.16,0.018-1.853,0.23-2.267,0.476
			c-0.213,0.126-0.447,0.338-0.632,0.515c-1.069,0.043-1.808,0.076-2.074,0.083C28.984,39.955,28.798,39.255,29.578,37.674z
			 M48.881,60.071c-2.27,0-4.077,0-6.096,0c-2.018,0-8.679-1.21-8.626-5.044c-2.089,0.004-8.142,0.123-11.948,0.259
			c-3.008,0.109-4.132-0.058-4.029-1.639c-2.653,0-1.843-3.148-1.329-4.933c0.513-1.791,3.902-0.685,5.675-0.155
			c1.778,0.53,9.454,2.58,10.106,2.754c0.658,0.177,1.142,0.255,1.417,0.771c0.254-1.257,0.681-2.475,4.398-2.475
			c1.521,0,6.094,0,8.97,0c2.875,0,4.137,0.154,4.662,1.344c0,0,0.58,2.389,0.58,5.177C52.657,58.925,51.15,60.071,48.881,60.071z
			 M53.563,48.698c-1.331,0-2.406-0.547-2.406-1.226c0-0.678,1.076-1.225,2.406-1.225c1.332,0,2.409,0.548,2.409,1.225
			C55.973,48.15,54.893,48.698,53.563,48.698z M88.945,53.65c0.104,1.582-1.02,1.745-4.029,1.636
			c-3.805-0.136-9.855-0.255-11.945-0.259c0.053,3.829-6.607,5.044-8.627,5.044c-2.018,0-3.826,0-6.098,0s-3.778-1.14-3.778-3.933
			c0-2.792,0.578-5.18,0.578-5.18c0.528-1.188,1.784-1.344,4.663-1.344c2.877,0,7.449,0,8.969,0c3.721,0,4.146,1.218,4.4,2.479
			c0.273-0.522,0.758-0.6,1.412-0.768c0.656-0.177,8.334-2.229,10.107-2.756c1.775-0.53,5.16-1.635,5.678,0.146
			C90.789,50.502,91.602,53.65,88.945,53.65z"/>
		
			<linearGradient id="SVGID_2_" gradientUnits="userSpaceOnUse" x1="165.6162" y1="-291.5549" x2="201.9561" y2="-291.5549" gradientTransform="matrix(1 0 0 -1 -149.2949 -237.6528)">
			<stop  offset="0" style="stop-color:#FFFFFF"/>
			<stop  offset="1" style="stop-color:#C8C8C8"/>
		</linearGradient>
		<path fill="url(#SVGID_2_)" d="M48.881,60.071c-2.27,0-4.077,0-6.096,0c-2.018,0-8.679-1.21-8.626-5.044
			c-2.089,0.004-8.142,0.123-11.948,0.259c-3.008,0.109-4.132-0.058-4.029-1.639c-2.653,0-1.843-3.148-1.329-4.933
			c0.513-1.791,3.902-0.685,5.675-0.155c1.778,0.53,9.454,2.58,10.106,2.754c0.658,0.177,1.142,0.255,1.417,0.771
			c0.254-1.257,0.681-2.475,4.398-2.475c1.521,0,6.094,0,8.97,0c2.875,0,4.137,0.154,4.662,1.344c0,0,0.58,2.389,0.58,5.177
			C52.657,58.925,51.15,60.071,48.881,60.071z"/>
		<ellipse opacity="0.1" fill="#A0A0A0" enable-background="new    " cx="53.563" cy="47.473" rx="2.409" ry="1.225"/>
		
			<linearGradient id="SVGID_3_" gradientUnits="userSpaceOnUse" x1="196.4111" y1="-291.5598" x2="232.751" y2="-291.5598" gradientTransform="matrix(1 0 0 -1 -149.2949 -237.6528)">
			<stop  offset="0" style="stop-color:#FFFFFF"/>
			<stop  offset="1" style="stop-color:#C8C8C8"/>
		</linearGradient>
		<path fill="url(#SVGID_3_)" d="M88.945,53.65c0.104,1.582-1.02,1.745-4.029,1.636c-3.805-0.136-9.855-0.255-11.945-0.259
			c0.053,3.829-6.607,5.044-8.627,5.044c-2.018,0-3.826,0-6.098,0s-3.778-1.14-3.778-3.933c0-2.792,0.578-5.18,0.578-5.18
			c0.528-1.188,1.784-1.344,4.663-1.344c2.877,0,7.449,0,8.969,0c3.721,0,4.146,1.218,4.4,2.479c0.273-0.522,0.758-0.6,1.412-0.768
			c0.656-0.177,8.334-2.229,10.107-2.756c1.775-0.53,5.16-1.635,5.678,0.146C90.789,50.502,91.602,53.65,88.945,53.65z"/>
		<path opacity="0.6" fill="#C1BAAC" enable-background="new    " d="M16.201,48.237c3.632-2.908,10.066-2.908,14.863-2.908
			c0.798,0,4.536-3.631,5.23-3.754c-1.21,0.807-2.29,3.711-1.96,3.726c4.451,0.172,24.616-0.62,33.104-1.945
			c0.359-0.055,0.471-1.203-1.361-2.008c1.988,0.612,2.998,1.727,3.291,1.673c7.012-1.306,9.02-1.737,11.875-1.445
			c-3.871-0.915-14.473-1.671-26.778-1.671c-7.78,0-25.34,0.32-27.281,1.138c-1.942,0.814-4.054,1.161-5.82,2.447
			C19.596,44.774,16.704,46.888,16.201,48.237z"/>
		
			<linearGradient id="SVGID_4_" gradientUnits="userSpaceOnUse" x1="178.4141" y1="-271.866" x2="227.3125" y2="-271.866" gradientTransform="matrix(1 0 0 -1 -149.2949 -237.6528)">
			<stop  offset="0" style="stop-color:#FFFFFF"/>
			<stop  offset="1" style="stop-color:#C8C8C8"/>
		</linearGradient>
		<path opacity="0.3" fill="url(#SVGID_4_)" enable-background="new    " d="M29.578,37.674c0.545-1.092,4.763-7.85,6.674-8.477
			c1.905-0.623,17.188-0.667,17.188-0.667s0.048,0,0.126,0c0.085,0,0.132,0,0.132,0s15.278,0.036,17.188,0.667
			c1.908,0.627,6.129,7.385,6.672,8.477c0.777,1.578,0.596,2.281-0.766,2.219c-1.361-0.054-15.162-0.658-23.095-0.541
			c-0.044,0-0.084,0-0.128,0c-0.042,0-0.082,0-0.126,0c-7.938-0.118-21.732,0.487-23.095,0.541
			C28.984,39.955,28.798,39.255,29.578,37.674z"/>
		<path fill="#777266" d="M38.377,50.433c2.054,0.029,9.099,0.213,10.347,0.317c1.244,0.108,2.288,0.515,2.434,2.36
			c0.146,1.848,0.556,4.207-0.776,5.079c-1.333,0.867-6.256,0.671-8.207,0.461c-1.948-0.209-6.359-1.128-6.668-2.871
			c-0.307-1.743-0.512-3.179,0-3.999C36.02,50.957,36.845,50.412,38.377,50.433z"/>
		<path fill="#777266" d="M68.928,50.433c-2.051,0.029-9.1,0.213-10.344,0.317c-1.248,0.108-2.287,0.515-2.438,2.36
			c-0.146,1.848-0.555,4.207,0.779,5.079c1.332,0.867,6.258,0.671,8.205,0.461c1.949-0.209,6.359-1.128,6.668-2.871
			s0.514-3.179,0-3.999C71.285,50.957,70.463,50.412,68.928,50.433z"/>
		
			<linearGradient id="SVGID_5_" gradientUnits="userSpaceOnUse" x1="167.2988" y1="948.0769" x2="238.2998" y2="948.0769" gradientTransform="matrix(1 0 0 1 -149.2397 -883.291)">
			<stop  offset="0" style="stop-color:#FFFFFF"/>
			<stop  offset="1" style="stop-color:#C8C8C8"/>
		</linearGradient>
		<path fill="url(#SVGID_5_)" d="M86.387,60.968c-1.238,0.051-3.82,0.354-8.193,0.762c-4.369,0.409-7.502,0.863-8.227,2.239
			L53.56,64.041l-16.407-0.072c-0.721-1.376-3.855-1.83-8.228-2.239c-4.371-0.407-6.954-0.711-8.189-0.762
			c-1.238-0.051-2.765-0.371-2.672,2.031c0.094,2.407,0.295,4.04,2.987,4.355c2.691,0.316,7.487,0.592,10.344,0.808
			c2.855,0.216,6.801,0.714,6.482-0.529c2.759-0.119,1.118,0.926,3.273,0.987c2.149,0.058,12.408,0,12.408,0s10.26,0.058,12.412,0
			c2.15-0.062,0.514-1.106,3.271-0.987c-0.32,1.243,3.621,0.745,6.48,0.529s7.65-0.49,10.344-0.808
			c2.693-0.315,2.898-1.948,2.99-4.355C89.148,60.596,87.621,60.917,86.387,60.968z"/>
	</g>
	<g>
		<g>
			<g>
				<g>
					<g>
						<path fill="#FFFFFF" d="M80.09,89.543h-2.357c-1.467,0-2.654-1.189-2.654-2.653v-2.641c-0.877-0.265-1.721-0.615-2.516-1.048
							l-1.904,1.905c-0.504,0.504-1.174,0.781-1.887,0.781s-1.383-0.278-1.887-0.781l-1.678-1.68
							c-0.504-0.503-0.779-1.173-0.779-1.884c0-0.713,0.275-1.385,0.779-1.887l1.943-1.943c-0.379-0.725-0.695-1.506-0.939-2.326
							h-2.643c-1.465,0-2.654-1.19-2.654-2.655v-2.36c0-1.463,1.189-2.654,2.654-2.654h2.643c0.254-0.846,0.588-1.656,0.996-2.42
							l-1.996-1.998c-0.506-0.505-0.783-1.174-0.783-1.888c0-0.713,0.277-1.382,0.783-1.886l1.676-1.677
							c0.504-0.504,1.172-0.782,1.885-0.782c0.715,0,1.385,0.278,1.887,0.782l2,1.997c0.758-0.405,1.57-0.739,2.42-0.994V56.21
							c0-1.464,1.188-2.655,2.654-2.655h2.359c1.465,0,2.654,1.191,2.654,2.655v2.641c0.824,0.247,1.604,0.562,2.326,0.94
							l1.945-1.943c0.502-0.504,1.172-0.781,1.885-0.781c0.711,0,1.383,0.278,1.885,0.781l1.68,1.678
							c0.504,0.505,0.779,1.173,0.779,1.887c0,0.715-0.277,1.383-0.779,1.886l-1.904,1.904c0.432,0.795,0.785,1.638,1.047,2.515
							h2.641c1.465,0,2.654,1.191,2.654,2.653v2.36c0,1.465-1.189,2.655-2.654,2.655h-2.641c-0.256,0.85-0.588,1.659-0.996,2.422
							l1.852,1.85c0.502,0.504,0.779,1.173,0.779,1.887c0,0.711-0.277,1.383-0.779,1.883l-1.68,1.68
							c-0.502,0.504-1.172,0.782-1.885,0.782s-1.381-0.279-1.885-0.782l-1.85-1.852c-0.762,0.407-1.572,0.74-2.422,0.998v2.643
							C82.746,88.352,81.555,89.543,80.09,89.543z M72.463,82.465l0.195,0.111c0.873,0.498,1.814,0.891,2.793,1.168l0.215,0.06
							v3.085c0,1.139,0.928,2.062,2.066,2.062h2.361c1.139,0,2.062-0.925,2.062-2.062v-3.084l0.215-0.061
							c0.957-0.271,1.865-0.647,2.705-1.113l0.195-0.109l2.162,2.164c0.783,0.785,2.15,0.785,2.938,0l1.678-1.679
							c0.391-0.393,0.609-0.914,0.609-1.468c0-0.557-0.217-1.078-0.609-1.471l-2.164-2.163l0.109-0.195
							c0.469-0.84,0.844-1.749,1.113-2.704l0.062-0.214h3.084c1.139,0,2.064-0.925,2.064-2.065v-2.359
							c0-1.139-0.926-2.064-2.064-2.064H91.17l-0.062-0.213c-0.275-0.982-0.67-1.922-1.166-2.795l-0.113-0.196l2.223-2.221
							c0.393-0.393,0.609-0.914,0.609-1.469c0-0.556-0.217-1.078-0.609-1.47l-1.678-1.678c-0.783-0.786-2.152-0.786-2.936,0
							l-2.256,2.253l-0.193-0.105c-0.799-0.438-1.68-0.793-2.615-1.058l-0.215-0.059v-3.084c0-1.139-0.926-2.066-2.064-2.066h-2.361
							c-1.139,0-2.064,0.928-2.064,2.066v3.086l-0.217,0.061c-0.953,0.27-1.863,0.645-2.701,1.112l-0.195,0.109l-2.312-2.312
							c-0.783-0.785-2.15-0.785-2.936,0l-1.676,1.679c-0.391,0.391-0.607,0.912-0.607,1.468c0,0.555,0.217,1.076,0.607,1.471
							l2.312,2.311l-0.109,0.193c-0.469,0.843-0.842,1.752-1.113,2.705l-0.062,0.213h-3.084c-1.139,0-2.064,0.928-2.064,2.065v2.359
							c0,1.143,0.926,2.066,2.064,2.066h3.084l0.062,0.216c0.264,0.929,0.619,1.81,1.059,2.614l0.105,0.192l-2.254,2.254
							c-0.391,0.394-0.607,0.913-0.607,1.47c0,0.554,0.217,1.077,0.607,1.469l1.676,1.678c0.785,0.786,2.154,0.786,2.938,0
							L72.463,82.465z M78.912,78.923c-4.066,0-7.377-3.306-7.377-7.374c0-4.067,3.311-7.375,7.377-7.375s7.373,3.309,7.373,7.375
							C86.285,75.617,82.979,78.923,78.912,78.923z M78.912,64.763c-3.742,0-6.785,3.043-6.785,6.785
							c0,3.741,3.043,6.784,6.785,6.784s6.785-3.043,6.785-6.784C85.695,67.807,82.654,64.763,78.912,64.763z"/>
						<path fill="#777266" d="M96.316,70.368c0-1.137-0.926-2.064-2.064-2.064h-3.086l-0.061-0.214
							c-0.277-0.979-0.67-1.921-1.166-2.794l-0.111-0.197l2.221-2.22c0.393-0.393,0.609-0.914,0.609-1.469
							c0-0.556-0.217-1.078-0.609-1.471l-1.676-1.678c-0.787-0.785-2.154-0.785-2.938,0l-2.256,2.254l-0.193-0.105
							c-0.799-0.438-1.68-0.793-2.615-1.058l-0.215-0.061v-3.084c0-1.138-0.926-2.065-2.064-2.065h-2.359
							c-1.141,0-2.066,0.927-2.066,2.065v3.085l-0.215,0.061c-0.955,0.271-1.865,0.646-2.705,1.112l-0.193,0.109l-2.312-2.311
							c-0.783-0.786-2.15-0.786-2.936,0l-1.676,1.679c-0.393,0.391-0.609,0.912-0.609,1.468c0,0.554,0.217,1.077,0.609,1.47
							l2.311,2.312l-0.109,0.193c-0.469,0.841-0.842,1.752-1.113,2.704l-0.061,0.214h-3.084c-1.141,0-2.064,0.928-2.064,2.064v2.36
							c0,1.142,0.924,2.066,2.064,2.066h3.084l0.061,0.215c0.264,0.93,0.619,1.81,1.059,2.615l0.107,0.193l-2.256,2.254
							c-0.391,0.392-0.607,0.913-0.607,1.469c0,0.553,0.217,1.076,0.607,1.468l1.678,1.678c0.785,0.786,2.152,0.786,2.936,0
							l2.223-2.222l0.195,0.111c0.875,0.498,1.816,0.89,2.793,1.167l0.215,0.061v3.085c0,1.14,0.928,2.064,2.066,2.064h2.359
							c1.139,0,2.064-0.924,2.064-2.064v-3.084l0.215-0.061c0.957-0.272,1.867-0.646,2.705-1.114l0.195-0.108l2.164,2.165
							c0.785,0.784,2.152,0.784,2.938,0l1.676-1.679c0.395-0.393,0.609-0.914,0.609-1.469c0-0.556-0.215-1.076-0.609-1.471
							l-2.162-2.163l0.109-0.194c0.469-0.84,0.844-1.749,1.115-2.704l0.061-0.214h3.084c1.139,0,2.066-0.924,2.066-2.064v-2.359
							L96.316,70.368L96.316,70.368z M78.912,78.923c-4.066,0-7.377-3.306-7.377-7.374c0-4.067,3.311-7.375,7.377-7.375
							s7.373,3.309,7.373,7.375C86.285,75.617,82.979,78.923,78.912,78.923z"/>
					</g>
				</g>
			</g>
		</g>
		<path opacity="0.6" fill="#C1BAAC" enable-background="new    " d="M66.656,74.794l0.061,0.216
			c0.07,0.244,0.146,0.484,0.229,0.721c1.295-1.877,2.865-3.611,4.668-5.172c0.486-3.599,3.57-6.385,7.299-6.385
			c0.941,0,1.836,0.185,2.662,0.504c3.357-1.277,7.023-2.107,10.885-2.396c0.127-0.271,0.199-0.566,0.199-0.872
			c0-0.556-0.217-1.078-0.607-1.471l-1.678-1.678c-0.785-0.785-2.152-0.785-2.938,0l-2.254,2.256l-0.195-0.107
			c-0.799-0.438-1.68-0.793-2.615-1.058l-0.217-0.06v-3.085c0-1.138-0.926-2.065-2.062-2.065H77.73
			c-1.139,0-2.064,0.928-2.064,2.065v3.085l-0.217,0.062c-0.955,0.271-1.863,0.645-2.703,1.112l-0.193,0.109l-2.312-2.312
			c-0.783-0.785-2.15-0.785-2.936,0l-1.678,1.678c-0.391,0.393-0.607,0.914-0.607,1.47c0,0.555,0.217,1.076,0.607,1.471l2.311,2.31
			l-0.107,0.194c-0.469,0.84-0.844,1.751-1.113,2.703l-0.061,0.214H63.57c-1.139,0-2.066,0.928-2.066,2.064v2.359
			c0,1.142,0.928,2.066,2.066,2.066H66.656L66.656,74.794z"/>
		
			<linearGradient id="SVGID_6_" gradientUnits="userSpaceOnUse" x1="95.584" y1="-640.0471" x2="112.3984" y2="-640.0471" gradientTransform="matrix(1 0 0 -1 -25.0796 -568.4985)">
			<stop  offset="0" style="stop-color:#E6E6E6"/>
			<stop  offset="0.5398" style="stop-color:#FFFFFF"/>
			<stop  offset="1" style="stop-color:#C8C8C8"/>
		</linearGradient>
		<path fill="url(#SVGID_6_)" d="M78.912,63.141c-4.643,0-8.408,3.764-8.408,8.406c0,4.645,3.766,8.408,8.408,8.408
			s8.406-3.764,8.406-8.408C87.318,66.906,83.555,63.141,78.912,63.141z M78.91,76.12c-2.525,0-4.572-2.047-4.572-4.573
			c0-2.523,2.049-4.571,4.572-4.571c2.525,0,4.574,2.048,4.574,4.571C83.484,74.073,81.436,76.12,78.91,76.12z"/>
	</g>
</g>
</svg>
