<?xml version="1.0" encoding="utf-8"?>
<!-- Generator: Adobe Illustrator 16.0.0, SVG Export Plug-In . SVG Version: 6.00 Build 0)  -->
<!DOCTYPE svg PUBLIC "-//W3C//DTD SVG 1.1//EN" "http://www.w3.org/Graphics/SVG/1.1/DTD/svg11.dtd">
<svg version="1.1" id="Layer_1" xmlns="http://www.w3.org/2000/svg" xmlns:xlink="http://www.w3.org/1999/xlink" x="0px" y="0px"
	 width="110.5px" height="115.779px" viewBox="0 0 110.5 115.779" enable-background="new 0 0 110.5 115.779" xml:space="preserve">
<g>
	
		<linearGradient id="SVGID_1_" gradientUnits="userSpaceOnUse" x1="170.4502" y1="1112.488" x2="255.3613" y2="1112.488" gradientTransform="matrix(1 0 0 1 -157.6548 -1054.5977)">
		<stop  offset="0" style="stop-color:#E6E6E6"/>
		<stop  offset="0.5398" style="stop-color:#FFFFFF"/>
		<stop  offset="1" style="stop-color:#C8C8C8"/>
	</linearGradient>
	<path fill="url(#SVGID_1_)" d="M95.856,54.515c-1.684-2.735-6.016-5.534-8.391-6.935c0.906,0.097,2.043-0.012,2.043-0.012
		c2.334,0,3.201-1.615,3.201-3.038c0-2.06-2.936-2.141-2.936-2.141s-2.319,0-3.344,0c-1.91,0-1.695,0.947-1.556,1.911
		c-2.151-4.293-6.205-9.806-9.306-11.868c-0.868-0.574-1.973-0.59-1.973-0.59c-7.396-0.549-16.816-0.598-18.349-0.598
		c-1.533,0-10.955,0.049-18.345,0.598c0,0-1.108,0.01-1.975,0.59c-3.102,2.065-7.153,7.573-9.304,11.868
		c0.139-0.966,0.352-1.911-1.557-1.911c-1.029,0-3.341,0-3.341,0s-2.936,0.081-2.936,2.141c0,1.423,0.868,3.038,3.198,3.038
		c0,0,1.144,0.107,2.044,0.012c-2.373,1.396-6.706,4.194-8.389,6.935c-1.237,2.021-1.883,10.984-1.847,14.203
		c0.036,3.218,0.505,9.521,0.635,12.839c0.084,2.183,0.921,2.976,2.889,2.976h11.258c3.914,0,3.375-4.04,3.375-4.04
		c3.804-0.148,4.54,0.398,5.92,0.659c1.382,0.265,8.776,0.563,8.776,0.563l9.598,0.053l9.6-0.053c0,0,7.396-0.3,8.778-0.563
		c1.382-0.261,2.113-0.809,5.914-0.659c0,0-0.537,4.04,3.381,4.04h11.259c1.975,0,2.809-0.793,2.896-2.976
		c0.124-3.317,0.597-9.621,0.63-12.839C97.743,65.507,97.099,56.536,95.856,54.515z"/>
	<path fill="#777266" d="M94.944,54.62c-2.305-3.742-9.698-7.601-9.698-7.601h3.448c2.265,0,3.197-0.693,3.197-2.078
		c0-1.994-2.849-2.071-2.849-2.071s-1.177-0.007-2.177,0c-0.995,0.008-1.628,0.161-1.628,1.055c0,0.61,0,1.175,0,1.175
		c-0.021,0.375-0.571,0.382-0.571,0.382c-1.964-4.235-6.201-10.138-9.396-12.265c-0.842-0.562-1.916-0.574-1.916-0.574
		c-7.816-0.578-18.017-0.578-18.017-0.578c-0.022,0-0.061,0-0.089,0c-0.027,0-0.066,0-0.085,0c0,0-10.2,0-18.02,0.578
		c0,0-1.072,0.011-1.914,0.574c-3.2,2.127-7.434,8.023-9.396,12.265c0,0-0.552-0.011-0.57-0.382c0,0,0-0.563,0-1.175
		c0-0.893-0.635-1.045-1.631-1.055c-0.998-0.007-2.175,0-2.175,0s-2.848,0.077-2.848,2.071c0,1.385,0.931,2.078,3.195,2.078h3.45
		c0,0-7.394,3.857-9.701,7.601c-1.199,1.955-1.829,10.653-1.787,13.773c0.036,3.115,0.485,9.229,0.613,12.45
		c0.079,2.109,0.89,2.876,2.801,2.876h9.583c3.797,0,3.276-3.914,3.276-3.914c3.687-0.144,5.731,0.386,7.071,0.639
		c1.34,0.257,8.511,0.542,8.511,0.542l9.492,0.056h0.133h0.133l9.494-0.056c0,0,7.169-0.285,8.512-0.542
		c1.34-0.252,3.383-0.785,7.071-0.639c0,0-0.521,3.914,3.274,3.914h9.584c1.91,0,2.72-0.767,2.801-2.876
		c0.127-3.222,0.582-9.335,0.615-12.45C96.772,65.273,96.146,56.575,94.944,54.62z M29.774,43.398c0.579-1.16,5.06-8.339,7.09-9.005
		c0.98-0.326,5.295-0.497,9.487-0.593c0.151,0.292,0.419,0.615,0.877,0.636c0.825,0.03,2.541,0.099,2.541,0.099
		s0.237,0.515,0.876,0.603c0.642,0.088,2.313,0.362,2.488,0.451c0.168,0.084-0.024,0.466-0.024,0.466s-1.351,0.02-2.396,0.084
		c-0.539,0.038-0.625,1.561-0.556,1.774c0.065,0.214,0.297,0.172,0.297,0.172l2.782,0.126h1.25h1.254l2.774-0.126
		c0,0,0.239,0.042,0.299-0.172c0.067-0.215-0.014-1.736-0.555-1.774c-1.043-0.065-2.394-0.084-2.394-0.084s-0.191-0.381-0.021-0.466
		c0.173-0.089,1.846-0.364,2.487-0.451c0.638-0.088,0.879-0.603,0.879-0.603s1.714-0.068,2.538-0.099
		c0.473-0.021,0.747-0.373,0.895-0.666c4.606,0.084,9.908,0.26,11.013,0.624c2.024,0.666,6.508,7.845,7.086,9.005
		c0.823,1.676,0.633,2.424-0.812,2.356c-0.363-0.017-1.559-0.063-3.277-0.135c-0.24-0.281-0.702-0.771-1.117-0.888
		c-1.428-0.389-2.604-0.559-2.604-0.559s0.299-0.232,0.174-0.753c-0.127-0.521-0.819-3.38-1.004-4.223
		c-0.181-0.838-0.608-1.638-1.609-1.638s-3.316,0-3.316,0s-0.832,0-0.894,0.288c-0.468-0.042-0.636,0.437-0.636,0.437l-1.385,2.599
		c0,0-0.186,0.076-0.89,0.084c-0.704,0-0.79,0.763-0.933,1.108c-0.203,0.502-0.488,1.475-0.488,1.475l-3.663,0.188
		c0,0-0.027-0.749-1.12-0.761c-1.091-0.013-5.029,0.057-5.333,0.072c-0.304,0.004-0.797,0.134-0.914,0.405
		c-0.122,0.283-0.228,0.395-0.228,0.395s0-0.185-0.367-0.185c-0.372,0-2.953,0-2.953,0l-0.298-0.877c0,0-0.061-1.652-1.429-1.797
		c-0.643-0.062-1.172-0.08-1.172-0.08l-0.005-0.019c0,0-0.217-0.702-0.551-1.507c-0.337-0.805-0.525-1.497-1.52-1.521
		c-0.995-0.019-4.078-0.114-4.376,0.046c-0.297,0.161-0.463,0.368-0.463,0.368s-0.456,0.167-0.598,0.552
		c-0.777,2.101-1.309,3.658-1.266,5.48c0.006,0.271,0.118,0.302,0.174,0.302c-0.17,0.02-1.968,0.244-2.408,0.505
		c-0.227,0.136-0.475,0.359-0.671,0.547c-1.136,0.047-1.92,0.081-2.204,0.089C29.143,45.822,28.945,45.078,29.774,43.398z
		 M50.279,67.191c-2.411,0-4.331,0-6.476,0c-2.143,0-9.22-1.285-9.164-5.358c-2.219,0.006-8.649,0.132-12.693,0.275
		c-3.195,0.116-4.389-0.062-4.28-1.741c-2.818,0-1.958-3.344-1.412-5.239c0.544-1.901,4.146-0.728,6.028-0.165
		c1.889,0.562,10.043,2.74,10.736,2.926c0.699,0.188,1.212,0.271,1.505,0.818c0.27-1.335,0.723-2.63,4.673-2.63
		c1.616,0,6.474,0,9.528,0c3.054,0,4.395,0.165,4.953,1.43c0,0,0.616,2.536,0.616,5.499C54.291,65.973,52.69,67.191,50.279,67.191z
		 M55.254,55.11c-1.414,0-2.556-0.581-2.556-1.303c0-0.72,1.143-1.301,2.556-1.301c1.415,0,2.56,0.582,2.56,1.301
		C57.813,54.527,56.666,55.11,55.254,55.11z M92.841,60.37c0.109,1.682-1.084,1.854-4.279,1.738
		c-4.041-0.145-10.469-0.271-12.69-0.275c0.058,4.068-7.021,5.358-9.163,5.358s-4.064,0-6.479,0s-4.015-1.211-4.015-4.178
		c0-2.966,0.614-5.502,0.614-5.502c0.561-1.264,1.896-1.429,4.954-1.429c3.057,0,7.913,0,9.528,0c3.951,0,4.403,1.294,4.674,2.635
		c0.291-0.556,0.807-0.639,1.502-0.815c0.695-0.188,8.852-2.367,10.734-2.928c1.887-0.563,5.482-1.735,6.031,0.156
		C94.799,57.026,95.662,60.37,92.841,60.37z"/>
	
		<linearGradient id="SVGID_2_" gradientUnits="userSpaceOnUse" x1="173.3447" y1="1115.2371" x2="211.9473" y2="1115.2371" gradientTransform="matrix(1 0 0 1 -157.6548 -1054.5977)">
		<stop  offset="0" style="stop-color:#FFFFFF"/>
		<stop  offset="1" style="stop-color:#C8C8C8"/>
	</linearGradient>
	<path fill="url(#SVGID_2_)" d="M50.279,67.191c-2.411,0-4.331,0-6.476,0c-2.143,0-9.22-1.285-9.164-5.358
		c-2.219,0.006-8.649,0.132-12.693,0.275c-3.195,0.116-4.389-0.062-4.28-1.741c-2.818,0-1.958-3.344-1.412-5.239
		c0.544-1.901,4.146-0.728,6.028-0.165c1.889,0.562,10.043,2.74,10.736,2.926c0.699,0.188,1.212,0.271,1.505,0.818
		c0.27-1.335,0.723-2.63,4.673-2.63c1.616,0,6.474,0,9.528,0c3.054,0,4.395,0.165,4.953,1.43c0,0,0.616,2.536,0.616,5.499
		C54.291,65.973,52.69,67.191,50.279,67.191z"/>
	<ellipse opacity="0.1" fill="#A0A0A0" enable-background="new    " cx="55.254" cy="53.808" rx="2.56" ry="1.302"/>
	
		<linearGradient id="SVGID_3_" gradientUnits="userSpaceOnUse" x1="206.0586" y1="1115.2419" x2="244.6621" y2="1115.2419" gradientTransform="matrix(1 0 0 1 -157.6548 -1054.5977)">
		<stop  offset="0" style="stop-color:#FFFFFF"/>
		<stop  offset="1" style="stop-color:#C8C8C8"/>
	</linearGradient>
	<path fill="url(#SVGID_3_)" d="M92.841,60.37c0.109,1.682-1.084,1.854-4.279,1.738c-4.041-0.145-10.469-0.271-12.69-0.275
		c0.058,4.068-7.021,5.358-9.163,5.358s-4.064,0-6.479,0s-4.015-1.211-4.015-4.178c0-2.966,0.614-5.502,0.614-5.502
		c0.561-1.264,1.896-1.429,4.954-1.429c3.057,0,7.913,0,9.528,0c3.951,0,4.403,1.294,4.674,2.635
		c0.291-0.556,0.807-0.639,1.502-0.815c0.695-0.188,8.852-2.367,10.734-2.928c1.887-0.563,5.482-1.735,6.031,0.156
		C94.799,57.026,95.662,60.37,92.841,60.37z"/>
	<path opacity="0.6" fill="#C1BAAC" enable-background="new    " d="M15.563,54.62c3.858-3.089,10.693-3.089,15.79-3.089
		c0.848,0,4.818-3.856,5.556-3.988c-1.285,0.857-2.433,3.942-2.082,3.958c4.729,0.183,26.15-0.658,35.167-2.066
		c0.382-0.059,0.502-1.277-1.446-2.133c2.113,0.65,3.186,1.834,3.498,1.777c7.447-1.388,9.581-1.847,12.614-1.536
		c-4.112-0.972-15.375-1.774-28.448-1.774c-8.265,0-26.919,0.341-28.981,1.209c-2.063,0.865-4.306,1.232-6.183,2.6
		C19.169,50.941,16.097,53.187,15.563,54.62z"/>
	
		<linearGradient id="SVGID_4_" gradientUnits="userSpaceOnUse" x1="186.9414" y1="1094.3201" x2="238.8877" y2="1094.3201" gradientTransform="matrix(1 0 0 1 -157.6548 -1054.5977)">
		<stop  offset="0" style="stop-color:#FFFFFF"/>
		<stop  offset="1" style="stop-color:#C8C8C8"/>
	</linearGradient>
	<path opacity="0.3" fill="url(#SVGID_4_)" enable-background="new    " d="M29.774,43.398c0.579-1.16,5.06-8.339,7.09-9.005
		c2.023-0.662,18.259-0.708,18.259-0.708s0.051,0,0.134,0c0.09,0,0.14,0,0.14,0s16.232,0.039,18.261,0.708
		c2.026,0.666,6.511,7.845,7.088,9.005c0.823,1.676,0.632,2.424-0.812,2.356c-1.447-0.058-16.107-0.698-24.537-0.574
		c-0.046,0-0.089,0-0.135,0c-0.044,0-0.087,0-0.134,0c-8.432-0.125-23.087,0.518-24.534,0.574
		C29.143,45.822,28.945,45.078,29.774,43.398z"/>
	<path fill="#777266" d="M39.121,56.953c2.182,0.031,9.666,0.227,10.992,0.337c1.322,0.115,2.431,0.549,2.585,2.509
		c0.156,1.963,0.59,4.469-0.825,5.396c-1.416,0.922-6.645,0.713-8.718,0.49c-2.07-0.222-6.755-1.199-7.083-3.051
		c-0.326-1.853-0.544-3.376,0-4.248C36.617,57.51,37.493,56.93,39.121,56.953z"/>
	<path fill="#777266" d="M71.575,56.953c-2.178,0.031-9.666,0.227-10.988,0.337c-1.324,0.115-2.43,0.549-2.589,2.509
		c-0.155,1.963-0.589,4.469,0.828,5.396c1.416,0.922,6.647,0.713,8.717,0.49c2.071-0.222,6.756-1.199,7.083-3.051
		c0.328-1.853,0.547-3.376,0-4.248C74.081,57.51,73.207,56.93,71.575,56.953z"/>
	
		<linearGradient id="SVGID_5_" gradientUnits="userSpaceOnUse" x1="175.1377" y1="-815.6565" x2="250.5635" y2="-815.6565" gradientTransform="matrix(1 0 0 -1 -157.5996 -743.4575)">
		<stop  offset="0" style="stop-color:#FFFFFF"/>
		<stop  offset="1" style="stop-color:#C8C8C8"/>
	</linearGradient>
	<path fill="url(#SVGID_5_)" d="M90.122,68.144c-1.312,0.053-4.057,0.376-8.702,0.809c-4.644,0.436-7.971,0.917-8.741,2.378
		L55.25,71.409l-17.429-0.078c-0.766-1.461-4.096-1.942-8.741-2.378c-4.643-0.433-7.387-0.756-8.7-0.809
		c-1.315-0.055-2.937-0.396-2.838,2.157c0.1,2.558,0.313,4.291,3.173,4.626c2.859,0.337,7.954,0.63,10.988,0.858
		c3.033,0.229,7.225,0.758,6.887-0.562c2.931-0.127,1.188,0.982,3.478,1.048c2.283,0.062,13.181,0,13.181,0s10.9,0.062,13.186,0
		c2.285-0.065,0.545-1.175,3.476-1.048c-0.339,1.319,3.849,0.792,6.886,0.562c3.038-0.229,8.128-0.521,10.988-0.858
		c2.861-0.335,3.078-2.068,3.176-4.626C93.058,67.749,91.435,68.09,90.122,68.144z"/>
</g>
</svg>
