<?xml version="1.0" encoding="utf-8"?>
<!-- Generator: Adobe Illustrator 16.0.0, SVG Export Plug-In . SVG Version: 6.00 Build 0)  -->
<!DOCTYPE svg PUBLIC "-//W3C//DTD SVG 1.1//EN" "http://www.w3.org/Graphics/SVG/1.1/DTD/svg11.dtd">
<svg version="1.1" id="Layer_1" xmlns="http://www.w3.org/2000/svg" xmlns:xlink="http://www.w3.org/1999/xlink" x="0px" y="0px"
	 width="219px" height="116px" viewBox="0 0 219 116" enable-background="new 0 0 219 116" xml:space="preserve">
<rect fill="none" width="219" height="116"/>
<g>
	<path fill="#FFFFFF" d="M18.596,34.989V7.714h10.317c0.859,0,1.705,0.109,2.535,0.327c0.831,0.218,1.575,0.595,2.235,1.13
		c0.659,0.536,1.192,1.251,1.599,2.146s0.609,2.02,0.609,3.374c0,0.895-0.141,1.737-0.424,2.526
		c-0.283,0.79-0.671,1.449-1.166,1.979c-0.495,0.53-1.037,0.96-1.625,1.29c1.236,0.565,2.196,1.369,2.879,2.412
		c0.683,1.042,1.024,2.312,1.024,3.807c0,1.767-0.28,3.227-0.839,4.381c-0.56,1.154-1.298,2.014-2.217,2.579
		c-0.918,0.565-1.861,0.927-2.826,1.086c-0.966,0.159-1.89,0.238-2.773,0.238H18.596z M23.666,18.702h3.586
		c0.4,0,0.807-0.041,1.219-0.124c0.412-0.082,0.78-0.247,1.104-0.495c0.324-0.247,0.589-0.592,0.795-1.033
		c0.206-0.442,0.31-1.021,0.31-1.74c0-1.013-0.209-1.79-0.627-2.332c-0.418-0.542-0.889-0.875-1.413-0.999
		c-0.524-0.124-0.986-0.185-1.387-0.185h-3.586V18.702z M23.666,30.873h3.533c1.025,0,1.849-0.156,2.473-0.468
		s1.051-0.783,1.281-1.414c0.23-0.63,0.345-1.345,0.345-2.146c0-1.166-0.203-2.055-0.609-2.667s-0.934-0.995-1.581-1.148
		c-0.648-0.153-1.284-0.229-1.908-0.229h-3.533V30.873z"/>
	<path fill="#FFFFFF" d="M40.978,34.989V7.714h6.324l5.335,20.474l5.317-20.474h6.218v27.275h-4.858V16.282L54.58,34.989h-4.01
		l-4.734-18.708v18.708H40.978z"/>
	<path fill="#FFFFFF" d="M71.539,34.989L66.734,7.714h5.035l3.18,19.096l3.551-19.096h4.911l3.515,19.096l3.215-19.096h4.893
		l-5.07,27.275h-5.353l-3.798-18.602l-3.921,18.602H71.539z"/>
	<path fill="#FFFFFF" d="M112.928,35.537c-1.507,0-2.858-0.259-4.054-0.777s-2.211-1.34-3.047-2.464
		c-0.836-1.125-1.478-2.57-1.926-4.337s-0.671-3.898-0.671-6.395c0-2.367,0.221-4.448,0.663-6.245
		c0.442-1.796,1.086-3.297,1.935-4.504c0.848-1.207,1.89-2.117,3.126-2.729c1.237-0.612,2.656-0.918,4.257-0.918
		c1.932,0,3.56,0.386,4.885,1.157c1.324,0.771,2.311,1.843,2.959,3.215c0.647,1.372,1.089,2.835,1.324,4.39l-5.211,1.042
		c-0.224-1.425-0.554-2.55-0.989-3.374s-0.933-1.36-1.493-1.607c-0.559-0.248-1.086-0.371-1.58-0.371
		c-1.578,0-2.738,0.845-3.48,2.535c-0.742,1.69-1.113,4.196-1.113,7.517c0,1.72,0.1,3.177,0.3,4.373
		c0.2,1.195,0.492,2.167,0.875,2.915c0.382,0.748,0.854,1.29,1.412,1.625c0.56,0.336,1.205,0.504,1.936,0.504
		c0.871,0,1.615-0.248,2.234-0.742c0.617-0.495,1.086-1.239,1.404-2.235c0.318-0.995,0.529-2.104,0.636-3.33l5.282,0.653
		c-0.26,1.755-0.643,3.266-1.148,4.531c-0.507,1.266-1.151,2.314-1.935,3.145s-1.72,1.443-2.809,1.837
		C115.61,35.339,114.354,35.537,112.928,35.537z"/>
	<path fill="#FFFFFF" d="M126.371,34.989V7.714h5.212v10.706h7.632V7.714h5.211v27.275h-5.211V22.835h-7.632v12.154H126.371z"/>
	<path fill="#FFFFFF" d="M149.283,34.989V7.714h5.212v27.275H149.283z"/>
	<path fill="#FFFFFF" d="M159.371,34.989V7.714h5.246l7.455,18.266V7.714h5.07v27.275h-5.247l-7.454-18.16v18.16H159.371z"/>
	<path fill="#FFFFFF" d="M179.703,34.989l7.208-27.275h6.677l7.173,27.275h-5.176l-1.448-5.794h-8.18l-1.413,5.794H179.703z
		 M187.018,24.973h6.076l-3.038-12.277L187.018,24.973z"/>
	<path fill="#FFFFFF" d="M44.272,70.989V43.714h5.211v22.93h10.122v4.346H44.272z"/>
	<path fill="#FFFFFF" d="M71.266,71.537c-1.625,0-3.071-0.298-4.337-0.893c-1.266-0.595-2.335-1.483-3.207-2.667
		s-1.534-2.659-1.987-4.426c-0.453-1.767-0.68-3.821-0.68-6.165c0-2.367,0.227-4.437,0.68-6.209
		c0.454-1.772,1.116-3.253,1.987-4.443s1.94-2.082,3.207-2.676c1.266-0.595,2.711-0.892,4.337-0.892
		c1.613,0,3.053,0.297,4.319,0.892s2.338,1.487,3.215,2.676c0.877,1.189,1.545,2.67,2.005,4.443s0.689,3.842,0.689,6.209
		c0,2.343-0.229,4.398-0.689,6.165s-1.128,3.242-2.005,4.426c-0.877,1.184-1.949,2.072-3.215,2.667S72.879,71.537,71.266,71.537z
		 M71.266,67.085c1.59,0,2.806-0.807,3.648-2.42c0.842-1.613,1.263-4.039,1.263-7.278c0-3.274-0.421-5.721-1.263-7.34
		c-0.842-1.619-2.058-2.429-3.648-2.429c-1.602,0-2.824,0.81-3.666,2.429c-0.842,1.62-1.263,4.066-1.263,7.34
		c0,3.239,0.421,5.665,1.263,7.278C68.442,66.278,69.664,67.085,71.266,67.085z"/>
	<path fill="#FFFFFF" d="M89.637,70.989V59.666l-7.048-15.952h5.247l4.558,10.812l4.558-10.812h4.964l-7.066,15.952v11.323H89.637z"
		/>
	<path fill="#FFFFFF" d="M99.636,70.989l7.208-27.275h6.677l7.173,27.275h-5.176l-1.449-5.794h-8.179l-1.413,5.794H99.636z
		 M106.949,60.973h6.076l-3.037-12.277L106.949,60.973z"/>
	<path fill="#FFFFFF" d="M123.254,70.989V43.714h5.211v22.93h10.123v4.346H123.254z"/>
	<path fill="#FFFFFF" d="M144.312,70.989V48.06h-6.73v-4.346h18.654v4.346h-6.713v22.93H144.312z"/>
	<path fill="#FFFFFF" d="M164.078,70.989V59.666l-7.048-15.952h5.247l4.557,10.812l4.559-10.812h4.963l-7.065,15.952v11.323H164.078
		z"/>
	<path fill="#FFFFFF" d="M6.583,106.989V79.714h9.522c1.248,0,2.349,0.191,3.303,0.574s1.755,0.942,2.402,1.679
		c0.647,0.735,1.137,1.637,1.466,2.702c0.33,1.066,0.495,2.282,0.495,3.648s-0.194,2.585-0.583,3.656
		c-0.389,1.072-0.936,1.979-1.643,2.721c-0.707,0.742-1.558,1.307-2.553,1.695c-0.996,0.389-2.105,0.583-3.33,0.583h-4.01v10.017
		H6.583z M11.654,92.839h3.003c0.589,0,1.125-0.108,1.607-0.326s0.898-0.527,1.246-0.928c0.347-0.4,0.615-0.883,0.804-1.448
		c0.188-0.565,0.283-1.195,0.283-1.891c0-1.401-0.336-2.487-1.007-3.259c-0.671-0.771-1.649-1.157-2.933-1.157h-3.003V92.839z"/>
	<path fill="#FFFFFF" d="M27.782,106.989V79.714h9.557c2.591,0,4.534,0.695,5.83,2.085c1.295,1.39,1.943,3.456,1.943,6.2
		c0,1.813-0.345,3.312-1.034,4.496s-1.623,2.081-2.8,2.693l4.593,11.801h-5.759l-3.798-10.847h-3.462v10.847H27.782z M32.852,92.009
		h3.25c1.178,0,2.087-0.326,2.729-0.98c0.642-0.653,0.963-1.71,0.963-3.171c0-1.401-0.307-2.423-0.918-3.064
		c-0.613-0.642-1.537-0.963-2.774-0.963h-3.25V92.009z"/>
	<path fill="#FFFFFF" d="M58.732,107.537c-1.625,0-3.071-0.298-4.337-0.893c-1.266-0.595-2.335-1.483-3.207-2.667
		s-1.534-2.659-1.987-4.426c-0.453-1.767-0.68-3.821-0.68-6.165c0-2.367,0.227-4.437,0.68-6.209
		c0.454-1.772,1.116-3.253,1.987-4.443c0.872-1.188,1.94-2.081,3.207-2.676c1.266-0.595,2.711-0.893,4.337-0.893
		c1.613,0,3.053,0.298,4.319,0.893s2.338,1.487,3.215,2.676c0.877,1.19,1.545,2.671,2.005,4.443s0.689,3.842,0.689,6.209
		c0,2.344-0.229,4.398-0.689,6.165s-1.128,3.242-2.005,4.426c-0.877,1.184-1.949,2.072-3.215,2.667S60.345,107.537,58.732,107.537z
		 M58.732,103.085c1.59,0,2.806-0.807,3.648-2.42c0.842-1.613,1.263-4.039,1.263-7.278c0-3.273-0.421-5.721-1.263-7.34
		c-0.842-1.619-2.058-2.429-3.648-2.429c-1.602,0-2.824,0.81-3.666,2.429c-0.842,1.619-1.263,4.066-1.263,7.34
		c0,3.239,0.421,5.665,1.263,7.278C55.908,102.278,57.13,103.085,58.732,103.085z"/>
	<path fill="#FFFFFF" d="M81.838,107.537c-1.342,0-2.585-0.254-3.727-0.76c-1.143-0.506-2.135-1.319-2.977-2.438
		c-0.842-1.119-1.499-2.562-1.969-4.328c-0.471-1.767-0.707-3.916-0.707-6.448c0-2.367,0.23-4.448,0.689-6.244
		c0.459-1.796,1.122-3.298,1.987-4.505c0.866-1.207,1.929-2.117,3.189-2.729c1.26-0.612,2.685-0.919,4.275-0.919
		c1.802,0,3.339,0.307,4.611,0.919c1.271,0.612,2.258,1.581,2.958,2.906c0.701,1.324,1.181,2.823,1.44,4.495l-4.964,1.061
		c-0.224-1.189-0.545-2.167-0.963-2.933s-0.907-1.29-1.466-1.572s-1.139-0.424-1.74-0.424c-1.59,0-2.777,0.859-3.56,2.579
		c-0.784,1.72-1.175,4.21-1.175,7.473c0,3.238,0.412,5.617,1.236,7.137c0.824,1.519,1.99,2.278,3.498,2.278
		c0.565,0,1.098-0.094,1.599-0.282c0.5-0.188,0.936-0.486,1.307-0.893s0.663-0.921,0.875-1.545c0.212-0.625,0.318-1.372,0.318-2.244
		v-1.519h-3.003v-3.834h8.073v14.221h-3.303l-0.459-2.756c-0.66,1.072-1.487,1.891-2.482,2.455
		C84.402,107.254,83.216,107.537,81.838,107.537z"/>
	<path fill="#FFFFFF" d="M96.111,106.989V79.714h9.557c2.591,0,4.534,0.695,5.83,2.085c1.295,1.39,1.943,3.456,1.943,6.2
		c0,1.813-0.345,3.312-1.033,4.496c-0.689,1.184-1.623,2.081-2.801,2.693l4.594,11.801h-5.759l-3.798-10.847h-3.462v10.847H96.111z
		 M101.182,92.009h3.25c1.178,0,2.087-0.326,2.729-0.98c0.642-0.653,0.963-1.71,0.963-3.171c0-1.401-0.307-2.423-0.918-3.064
		c-0.613-0.642-1.537-0.963-2.774-0.963h-3.25V92.009z"/>
	<path fill="#FFFFFF" d="M115.578,106.989l7.208-27.275h6.677l7.173,27.275h-5.176l-1.448-5.794h-8.18l-1.413,5.794H115.578z
		 M122.893,96.973h6.076l-3.038-12.277L122.893,96.973z"/>
	<path fill="#FFFFFF" d="M139.197,106.989V79.714h6.324l5.334,20.475l5.318-20.475h6.218v27.275h-4.858V88.281l-4.734,18.708h-4.01
		l-4.734-18.708v18.708H139.197z"/>
	<path fill="#FFFFFF" d="M167.268,106.989V79.714h6.324l5.334,20.475l5.318-20.475h6.218v27.275h-4.858V88.281l-4.734,18.708h-4.01
		l-4.734-18.708v18.708H167.268z"/>
	<path fill="#FFFFFF" d="M195.338,106.989V79.714h15.633v4.346h-10.422v6.907h9.805v4.258h-9.805v7.419h10.917v4.346H195.338z"/>
</g>
</svg>
