<?xml version="1.0" encoding="utf-8"?>
<!-- Generator: Adobe Illustrator 16.0.0, SVG Export Plug-In . SVG Version: 6.00 Build 0)  -->
<!DOCTYPE svg PUBLIC "-//W3C//DTD SVG 1.1//EN" "http://www.w3.org/Graphics/SVG/1.1/DTD/svg11.dtd">
<svg version="1.1" id="Layer_1" xmlns="http://www.w3.org/2000/svg" xmlns:xlink="http://www.w3.org/1999/xlink" x="0px" y="0px"
	 width="219px" height="116px" viewBox="0 0 219 116" enable-background="new 0 0 219 116" xml:space="preserve">
<rect y="-0.22" fill="none" width="219" height="116"/>
<g>
	<path fill="#FFFFFF" d="M52.108,38.799c-0.702-1.072-1.688-1.897-2.959-2.478c0.604-0.339,1.161-0.781,1.67-1.325
		c0.508-0.543,0.907-1.22,1.198-2.032c0.288-0.812,0.434-1.676,0.434-2.596c0-1.391-0.207-2.545-0.624-3.466
		c-0.42-0.92-0.969-1.656-1.645-2.206c-0.677-0.55-1.441-0.937-2.294-1.161c-0.855-0.225-1.725-0.336-2.606-0.336H34.682v28.021
		h9.584c0.909,0,1.857-0.081,2.852-0.245c0.991-0.164,1.957-0.536,2.903-1.117c0.944-0.58,1.703-1.465,2.277-2.649
		c0.575-1.184,0.862-2.686,0.862-4.5C53.16,41.173,52.81,39.871,52.108,38.799z M39.891,27.393h3.685
		c0.412,0,0.886,0.063,1.425,0.19c0.54,0.127,1.024,0.47,1.453,1.025c0.428,0.556,0.645,1.355,0.645,2.396
		c0,0.737-0.108,1.333-0.318,1.787c-0.21,0.455-0.485,0.808-0.815,1.062c-0.332,0.254-0.71,0.424-1.134,0.508
		c-0.424,0.085-0.841,0.127-1.253,0.127h-3.684h-0.003V27.393z M47.38,45.061c-0.235,0.647-0.674,1.131-1.315,1.453
		c-0.642,0.32-1.488,0.481-2.541,0.481h-3.63v-8.297h3.63c0.642,0,1.295,0.078,1.962,0.236c0.667,0.158,1.208,0.55,1.626,1.18
		c0.414,0.631,0.624,1.544,0.624,2.741C47.735,43.677,47.617,44.413,47.38,45.061z"/>
	<path fill="#FFFFFF" d="M57.678,51.223V23.2h6.496l5.481,21.034L75.117,23.2h6.389v28.022h-4.99v-19.22l-4.864,19.22h-4.12
		l-4.864-19.22v19.22H57.678z"/>
	<path fill="#FFFFFF" d="M89.074,51.223L84.138,23.2h5.173l3.267,19.619L96.225,23.2h5.046l3.611,19.619l3.303-19.619h5.028
		l-5.21,28.022h-5.499l-3.903-19.112l-4.03,19.112H89.074z"/>
	<path fill="#FFFFFF" d="M133.691,41.67v5.427c0,1.672,0.148,4.646,0.371,6.69h-3.977c0.184-1.784,0.371-5.018,0.371-6.69V41.67
		h-8.625v2.639h-3.42c0.148-1.562,0.26-3.978,0.26-5.539v-8.03c0-1.3-0.111-2.899-0.26-3.828c1.822,0.26,5.834,0.372,12.045,0.409
		v-1.747c0-3.493-0.111-4.72-0.371-5.538c1.375,0.149,2.602,0.223,3.938,0.223c0.598,0,0.709,0.149,0.111,0.669
		c-0.295,0.26-0.443,0.93-0.443,2.044v4.35c6.504-0.037,10.592-0.186,12.414-0.41c-0.072,0.967-0.186,3.272-0.186,4.573v7.136
		c0,1.487,0.113,3.754,0.186,5.315h-3.531V41.67H133.691z M130.457,38.881v-8.772h-8.625v8.773h8.625V38.881z M142.574,38.881
		v-8.772h-8.883v8.773h8.883V38.881z"/>
	<path fill="#FFFFFF" d="M157.924,54.345h-3.346c0.225-2.156,0.338-3.903,0.338-6.098V26.243c0-1.486-0.113-2.824-0.338-4.237
		c1.488,0.223,4.277,0.372,14.871,0.372s13.158-0.149,14.869-0.372c-0.225,1.189-0.334,2.788-0.334,4.237v21.932
		c0,1.859,0.072,3.531,0.334,5.613h-3.346v-1.784h-23.047v2.342H157.924z M180.969,24.979h-23.045v24.422h23.045V24.979z
		 M179.037,43.417v3.011c-2.193-0.223-5.018-0.26-9.07-0.26c-5.725,0-7.99,0.074-10.111,0.26v-3.011
		c1.785,0.186,3.605,0.26,7.623,0.26v-6.059c-2.678,0-4.461,0.074-6.062,0.223v-2.862c1.674,0.149,3.422,0.223,6.062,0.26v-4.348
		c-3.496,0.037-5.613,0.148-6.73,0.26v-3.087c1.414,0.149,4.201,0.26,9.107,0.26c3.904,0,7.1-0.074,8.328-0.26v3.085
		c-1.189-0.112-4.277-0.261-7.879-0.261v4.349c3.193,0,5.275-0.074,7.1-0.26v2.862c-1.824-0.186-3.906-0.223-7.1-0.223v6.059
		C174.168,43.677,176.92,43.603,179.037,43.417z M174.354,42.934c-0.447-1.079-1.188-2.156-2.156-3.16l2.416-1.524
		c0.781,1.115,1.525,2.119,2.381,3.011L174.354,42.934z"/>
	<path fill="#FFFFFF" d="M35.935,75.006c3.939-1.822,7.955-4.611,10.48-7.324c2.418-2.604,3.421-4.053,4.462-6.432
		c0.857,0.559,2.79,1.078,3.793,1.191c0.629,0.075,0.78,0.52-0.151,0.855c1.452,2.156,3.495,4.236,5.948,5.947
		c2.975,2.082,7.101,3.531,9.591,3.865c-1.077,0.932-1.785,2.117-2.342,3.682c-4.274-1.971-6.804-3.346-9.664-5.764
		c-1.933-1.598-3.421-3.344-5.318-6.133c-2.413,3.531-8.399,8.848-14.272,12.674C37.867,76.527,37.051,75.6,35.935,75.006"/>
	<path fill="#FFFFFF" d="M55.598,87.012l2.639-1.562c2.788,2.604,5.986,5.836,7.807,7.994l-2.825,2.006
		c-0.483-0.744-1.227-1.709-2.081-2.75c-16.431,1.375-18.623,1.672-19.778,2.119c-0.225-1.041-0.668-2.416-1.04-3.494
		c1.152-0.371,2.117-0.93,2.713-1.338c2.531-1.748,6.43-5.391,7.065-6.951c-4.834,0.035-8.439,0.111-11.301,0.336v-3.234
		c3.382,0.223,7.807,0.295,14.126,0.295c6.317,0,10.78-0.074,14.162-0.295v3.234c-3.792-0.299-8.699-0.336-16.468-0.336
		c1.226,0.779,2.046,1.189,2.565,1.338c0.891,0.223,0.965,0.371-0.039,1.002c-0.929,0.598-2.49,1.709-3.604,2.678
		c-1.19,1.041-2.343,2.045-3.939,3.42l13.494-1.041C57.864,89.131,56.639,87.941,55.598,87.012z"/>
	<path fill="#FFFFFF" d="M52.773,76.381c-3.865,0-6.171,0.074-8.254,0.371v-3.383c2.083,0.223,4.389,0.297,8.254,0.297
		s6.17-0.074,8.216-0.297v3.383C58.943,76.455,56.639,76.381,52.773,76.381z"/>
	<path fill="#FFFFFF" d="M91.019,86.307c-1.076,4.273-5.314,7.098-14.609,9.217c-0.704-1.375-1.485-2.34-2.713-3.309
		c8.215-1.002,11.971-2.824,13.083-4.756c1.041-1.748,1.639-4.127,1.639-6.918c1.633,0.301,3.306,0.449,4.125,0.449
		c0.482,0,0.556,0.184,0.035,0.631C92.432,81.77,91.911,82.773,91.019,86.307z M99.198,87.531v-8.959h-17.88v10.148h-3.605
		c0.11-1,0.15-1.484,0.15-3.641v-5.801c0-2.043-0.038-2.564-0.15-3.568c2.453,0.186,4.311,0.225,12.453,0.225
		c8.474,0,10.815-0.076,12.638-0.225c-0.149,0.744-0.188,1.449-0.188,3.605v4.646c0,1.412,0.075,2.75,0.188,3.568H99.198z
		 M90.202,73.221c-6.395,0-8.959,0.037-11.301,0.225c0.112-1.338,0.185-2.936,0.185-4.982c0-2.045-0.036-3.68-0.185-4.943
		c2.378,0.15,5.391,0.186,11.301,0.186s8.92-0.035,11.262-0.186c-0.11,1.303-0.148,2.9-0.148,4.943c0,2.045,0.036,3.645,0.148,4.982
		C99.122,73.295,96.112,73.221,90.202,73.221z M97.897,66.234H82.432v4.42h15.466V66.234z M103.881,95.115
		c-2.229-1.637-6.616-3.682-11.485-5.504l1.896-2.562c4.126,1.562,8.436,3.309,11.856,4.982L103.881,95.115z"/>
	<path fill="#FFFFFF" d="M110.717,66.156v-3.009c2.045,0.222,3.457,0.259,7.658,0.259c4.199,0,5.762-0.074,7.395-0.259v3.009
		c-0.779-0.074-1.523-0.148-2.154-0.221v19.588c1.152-0.297,2.193-0.631,2.975-0.932c-0.41,0.969-0.52,1.748-0.336,3.012
		c-0.67,0.111-1.562,0.26-2.639,0.482c0,2.641,0.074,5.391,0.297,6.877h-3.422c0.152-1.375,0.299-3.863,0.336-6.244
		c-3.83,0.855-6.43,1.672-9.33,2.789c-0.295-1.412-0.594-2.379-1.113-3.605c0.854-0.111,1.711-0.225,2.562-0.336V65.936
		C112.354,65.971,111.609,66.047,110.717,66.156z M115.736,65.861v5.279h5.094v-5.279H115.736z M120.83,73.631h-5.094v5.055h5.094
		V73.631z M120.83,81.213h-5.094v5.947c1.783-0.297,3.533-0.633,5.094-0.965V81.213z M127.076,95.115
		c-0.709-0.857-1.377-1.338-2.605-2.045c4.611-3.158,6.805-6.543,7.436-12.34c-2.75,0.035-4.35,0.146-6.467,0.371v-3.16
		c2.193,0.223,3.791,0.295,6.691,0.336c0.107-1.934,0.184-4.127,0.148-6.656c-2.938,0.037-4.273,0.111-6.246,0.336v-3.125
		c2.455,0.225,5.205,0.338,8.625,0.338c1.561-3.234,2.453-5.541,2.973-7.846c1.189,0.633,2.268,1.004,3.123,1.117
		c0.52,0.075,0.557,0.335-0.148,1.041c-0.482,0.445-2.008,2.973-3.494,5.688c2.49-0.074,3.902-0.148,5.648-0.334v3.121
		c-2.156-0.223-3.828-0.336-7.545-0.336c-0.037,2.865-0.109,4.982-0.26,6.656c4.57,0,6.281-0.111,8.846-0.334v3.158
		c-2.527-0.26-4.236-0.371-8.771-0.371c2.006,6.318,4.758,9.295,9.479,10.744c-1.152,0.965-1.639,1.932-2.229,3.385
		c-4.834-3.498-7.174-6.471-8.104-11.152C133.135,88.35,131.162,91.285,127.076,95.115z M129.713,67.756
		c-0.52-1.711-1.225-3.531-1.895-4.944l2.898-0.893c0.742,1.487,1.486,3.272,2.006,4.759L129.713,67.756z"/>
	<path fill="#FFFFFF" d="M181.344,90.953v3.232c-2.678-0.223-4.574-0.371-16.543-0.371c-12.006,0-13.9,0.148-16.578,0.371v-3.232
		c1.709,0.148,3.049,0.221,4.162,0.297v-5.836c0-0.781,0-1.934-0.148-2.752c2.713,0.076,5.799,0.111,12.379,0.111
		c6.617,0,9.627-0.035,12.34-0.111c-0.035,0.818-0.035,1.971-0.035,2.752v5.871C178.256,91.25,179.744,91.174,181.344,90.953z
		 M153.873,78.053v2.678h-3.014c0.076-1.113,0.113-2.23,0.113-3.457V66.459c0-0.893,0-1.973-0.037-2.604
		c0.816,0.109,2.488,0.184,5.539,0.184c3.049,0,4.721-0.074,5.537-0.184c-0.076,0.631-0.111,1.711-0.111,2.604v9.736
		c0,1.229,0.076,2.344,0.188,3.457h-3.049v-1.598h-5.166V78.053z M159.039,69.949v-3.531h-5.166v3.531H159.039z M159.039,75.635
		v-3.383h-5.166v3.383H159.039z M159.482,91.285v-6.059h-4.309v6.059H159.482z M167.475,76.195c-0.443,2.602-1.484,4.572-3.529,6.43
		c-0.965-0.596-1.783-0.93-3.121-1.375c3.492-2.342,4.199-4.758,4.199-9.924v-4.723c0-1.561-0.037-2.564-0.186-3.271
		c2.117,0.074,3.977,0.111,6.84,0.111c2.936,0,4.758-0.037,6.914-0.111c-0.186,0.707-0.225,1.711-0.225,3.271V78.98
		c0,1.229-0.445,2.232-5.762,2.678c0.186-0.928-0.371-2.342-1.412-3.234c3.568,0.596,4.277,0.037,4.277-1v-1.229H167.475z
		 M166.398,91.285v-6.059h-4.125v6.059H166.398z M175.471,73.814v-2.787h-7.584c0,1.004-0.037,1.934-0.109,2.787H175.471z
		 M175.471,68.648v-2.826h-7.584v2.826H175.471L175.471,68.648z M174.129,91.285v-6.059h-4.941v6.059H174.129z"/>
</g>
</svg>
