<?xml version="1.0" encoding="utf-8"?>
<!-- Generator: Adobe Illustrator 16.0.0, SVG Export Plug-In . SVG Version: 6.00 Build 0)  -->
<!DOCTYPE svg PUBLIC "-//W3C//DTD SVG 1.1//EN" "http://www.w3.org/Graphics/SVG/1.1/DTD/svg11.dtd">
<svg version="1.1" id="Layer_1" xmlns="http://www.w3.org/2000/svg" xmlns:xlink="http://www.w3.org/1999/xlink" x="0px" y="0px"
	 width="219px" height="116px" viewBox="0 0 219 116" enable-background="new 0 0 219 116" xml:space="preserve">
<rect fill="none" width="219" height="116"/>
<g>
	<path d="M19.596,35.989V8.714h10.317c0.859,0,1.705,0.109,2.535,0.327c0.831,0.218,1.575,0.595,2.235,1.13
		c0.659,0.536,1.192,1.251,1.599,2.146s0.609,2.02,0.609,3.374c0,0.895-0.141,1.737-0.424,2.526
		c-0.283,0.79-0.671,1.449-1.166,1.979c-0.495,0.53-1.037,0.96-1.625,1.29c1.236,0.565,2.196,1.369,2.879,2.412
		c0.683,1.042,1.024,2.312,1.024,3.807c0,1.767-0.28,3.227-0.839,4.381c-0.56,1.154-1.298,2.014-2.217,2.579
		c-0.918,0.565-1.861,0.927-2.826,1.086c-0.966,0.159-1.89,0.238-2.773,0.238H19.596z M24.666,19.702h3.586
		c0.4,0,0.807-0.041,1.219-0.124c0.412-0.082,0.78-0.247,1.104-0.495c0.324-0.247,0.589-0.592,0.795-1.033
		c0.206-0.442,0.31-1.021,0.31-1.74c0-1.013-0.209-1.79-0.627-2.332c-0.418-0.542-0.889-0.875-1.413-0.999
		c-0.524-0.124-0.986-0.185-1.387-0.185h-3.586V19.702z M24.666,31.873h3.533c1.025,0,1.849-0.156,2.473-0.468
		s1.051-0.783,1.281-1.414c0.23-0.63,0.345-1.345,0.345-2.146c0-1.166-0.203-2.055-0.609-2.667s-0.934-0.995-1.581-1.148
		c-0.648-0.153-1.284-0.229-1.908-0.229h-3.533V31.873z"/>
	<path d="M41.978,35.989V8.714h6.324l5.335,20.474l5.317-20.474h6.218v27.275h-4.858V17.282L55.58,35.989h-4.01l-4.734-18.708
		v18.708H41.978z"/>
	<path d="M72.539,35.989L67.734,8.714h5.035l3.18,19.096l3.551-19.096h4.911l3.515,19.096l3.215-19.096h4.893l-5.07,27.275h-5.353
		l-3.798-18.602l-3.921,18.602H72.539z"/>
	<path d="M113.928,36.537c-1.507,0-2.858-0.259-4.054-0.777s-2.211-1.34-3.047-2.464c-0.836-1.125-1.478-2.57-1.926-4.337
		s-0.671-3.898-0.671-6.395c0-2.367,0.221-4.448,0.663-6.245c0.442-1.796,1.086-3.297,1.935-4.504
		c0.848-1.207,1.89-2.117,3.126-2.729c1.237-0.612,2.656-0.918,4.257-0.918c1.932,0,3.56,0.386,4.885,1.157
		c1.324,0.771,2.311,1.843,2.959,3.215c0.647,1.372,1.089,2.835,1.324,4.39l-5.211,1.042c-0.224-1.425-0.554-2.55-0.989-3.374
		s-0.933-1.36-1.493-1.607c-0.559-0.248-1.086-0.371-1.58-0.371c-1.578,0-2.738,0.845-3.48,2.535
		c-0.742,1.69-1.113,4.196-1.113,7.517c0,1.72,0.1,3.177,0.3,4.373c0.2,1.195,0.492,2.167,0.875,2.915
		c0.382,0.748,0.854,1.29,1.412,1.625c0.56,0.336,1.205,0.504,1.936,0.504c0.871,0,1.615-0.248,2.234-0.742
		c0.617-0.495,1.086-1.239,1.404-2.235c0.318-0.995,0.529-2.104,0.636-3.33l5.282,0.653c-0.26,1.755-0.643,3.266-1.148,4.531
		c-0.507,1.266-1.151,2.314-1.935,3.145s-1.72,1.443-2.809,1.837C116.61,36.339,115.354,36.537,113.928,36.537z"/>
	<path d="M127.371,35.989V8.714h5.212v10.706h7.632V8.714h5.211v27.275h-5.211V23.835h-7.632v12.154H127.371z"/>
	<path d="M150.283,35.989V8.714h5.212v27.275H150.283z"/>
	<path d="M160.371,35.989V8.714h5.246l7.455,18.266V8.714h5.07v27.275h-5.247l-7.454-18.16v18.16H160.371z"/>
	<path d="M180.703,35.989l7.208-27.275h6.677l7.173,27.275h-5.176l-1.448-5.794h-8.18l-1.413,5.794H180.703z M188.018,25.973h6.076
		l-3.038-12.277L188.018,25.973z"/>
	<path d="M45.272,71.989V44.714h5.211v22.93h10.122v4.346H45.272z"/>
	<path d="M72.266,72.537c-1.625,0-3.071-0.298-4.337-0.893c-1.266-0.595-2.335-1.483-3.207-2.667s-1.534-2.659-1.987-4.426
		c-0.453-1.767-0.68-3.821-0.68-6.165c0-2.367,0.227-4.437,0.68-6.209c0.454-1.772,1.116-3.253,1.987-4.443s1.94-2.082,3.207-2.676
		c1.266-0.595,2.711-0.892,4.337-0.892c1.613,0,3.053,0.297,4.319,0.892s2.338,1.487,3.215,2.676
		c0.877,1.189,1.545,2.67,2.005,4.443s0.689,3.842,0.689,6.209c0,2.343-0.229,4.398-0.689,6.165s-1.128,3.242-2.005,4.426
		c-0.877,1.184-1.949,2.072-3.215,2.667S73.879,72.537,72.266,72.537z M72.266,68.085c1.59,0,2.806-0.807,3.648-2.42
		c0.842-1.613,1.263-4.039,1.263-7.278c0-3.274-0.421-5.721-1.263-7.34c-0.842-1.619-2.058-2.429-3.648-2.429
		c-1.602,0-2.824,0.81-3.666,2.429c-0.842,1.62-1.263,4.066-1.263,7.34c0,3.239,0.421,5.665,1.263,7.278
		C69.442,67.278,70.664,68.085,72.266,68.085z"/>
	<path d="M90.637,71.989V60.666l-7.048-15.952h5.247l4.558,10.812l4.558-10.812h4.964l-7.066,15.952v11.323H90.637z"/>
	<path d="M100.636,71.989l7.208-27.275h6.677l7.173,27.275h-5.176l-1.449-5.794h-8.179l-1.413,5.794H100.636z M107.949,61.973h6.076
		l-3.037-12.277L107.949,61.973z"/>
	<path d="M124.254,71.989V44.714h5.211v22.93h10.123v4.346H124.254z"/>
	<path d="M145.312,71.989V49.06h-6.73v-4.346h18.654v4.346h-6.713v22.93H145.312z"/>
	<path d="M165.078,71.989V60.666l-7.048-15.952h5.247l4.557,10.812l4.559-10.812h4.963l-7.065,15.952v11.323H165.078z"/>
	<path d="M7.583,107.989V80.714h9.522c1.248,0,2.349,0.191,3.303,0.574s1.755,0.942,2.402,1.679
		c0.647,0.735,1.137,1.637,1.466,2.702c0.33,1.066,0.495,2.282,0.495,3.648s-0.194,2.585-0.583,3.656
		c-0.389,1.072-0.936,1.979-1.643,2.721c-0.707,0.742-1.558,1.307-2.553,1.695c-0.996,0.389-2.105,0.583-3.33,0.583h-4.01v10.017
		H7.583z M12.654,93.839h3.003c0.589,0,1.125-0.108,1.607-0.326s0.898-0.527,1.246-0.928c0.347-0.4,0.615-0.883,0.804-1.448
		c0.188-0.565,0.283-1.195,0.283-1.891c0-1.401-0.336-2.487-1.007-3.259c-0.671-0.771-1.649-1.157-2.933-1.157h-3.003V93.839z"/>
	<path d="M28.782,107.989V80.714h9.557c2.591,0,4.534,0.695,5.83,2.085c1.295,1.39,1.943,3.456,1.943,6.2
		c0,1.813-0.345,3.312-1.034,4.496s-1.623,2.081-2.8,2.693l4.593,11.801h-5.759l-3.798-10.847h-3.462v10.847H28.782z M33.852,93.009
		h3.25c1.178,0,2.087-0.326,2.729-0.98c0.642-0.653,0.963-1.71,0.963-3.171c0-1.401-0.307-2.423-0.918-3.064
		c-0.613-0.642-1.537-0.963-2.774-0.963h-3.25V93.009z"/>
	<path d="M59.732,108.537c-1.625,0-3.071-0.298-4.337-0.893c-1.266-0.595-2.335-1.483-3.207-2.667s-1.534-2.659-1.987-4.426
		c-0.453-1.767-0.68-3.821-0.68-6.165c0-2.367,0.227-4.437,0.68-6.209c0.454-1.772,1.116-3.253,1.987-4.443
		c0.872-1.188,1.94-2.081,3.207-2.676c1.266-0.595,2.711-0.893,4.337-0.893c1.613,0,3.053,0.298,4.319,0.893
		s2.338,1.487,3.215,2.676c0.877,1.19,1.545,2.671,2.005,4.443s0.689,3.842,0.689,6.209c0,2.344-0.229,4.398-0.689,6.165
		s-1.128,3.242-2.005,4.426c-0.877,1.184-1.949,2.072-3.215,2.667S61.345,108.537,59.732,108.537z M59.732,104.085
		c1.59,0,2.806-0.807,3.648-2.42c0.842-1.613,1.263-4.039,1.263-7.278c0-3.273-0.421-5.721-1.263-7.34
		c-0.842-1.619-2.058-2.429-3.648-2.429c-1.602,0-2.824,0.81-3.666,2.429c-0.842,1.619-1.263,4.066-1.263,7.34
		c0,3.239,0.421,5.665,1.263,7.278C56.908,103.278,58.13,104.085,59.732,104.085z"/>
	<path d="M82.838,108.537c-1.342,0-2.585-0.254-3.727-0.76c-1.143-0.506-2.135-1.319-2.977-2.438
		c-0.842-1.119-1.499-2.562-1.969-4.328c-0.471-1.767-0.707-3.916-0.707-6.448c0-2.367,0.23-4.448,0.689-6.244
		c0.459-1.796,1.122-3.298,1.987-4.505c0.866-1.207,1.929-2.117,3.189-2.729c1.26-0.612,2.685-0.919,4.275-0.919
		c1.802,0,3.339,0.307,4.611,0.919c1.271,0.612,2.258,1.581,2.958,2.906c0.701,1.324,1.181,2.823,1.44,4.495l-4.964,1.061
		c-0.224-1.189-0.545-2.167-0.963-2.933s-0.907-1.29-1.466-1.572s-1.139-0.424-1.74-0.424c-1.59,0-2.777,0.859-3.56,2.579
		c-0.784,1.72-1.175,4.21-1.175,7.473c0,3.238,0.412,5.617,1.236,7.137c0.824,1.519,1.99,2.278,3.498,2.278
		c0.565,0,1.098-0.094,1.599-0.282c0.5-0.188,0.936-0.486,1.307-0.893s0.663-0.921,0.875-1.545c0.212-0.625,0.318-1.372,0.318-2.244
		v-1.519h-3.003v-3.834h8.073v14.221h-3.303l-0.459-2.756c-0.66,1.072-1.487,1.891-2.482,2.455
		C85.402,108.254,84.216,108.537,82.838,108.537z"/>
	<path d="M97.111,107.989V80.714h9.557c2.591,0,4.534,0.695,5.83,2.085c1.295,1.39,1.943,3.456,1.943,6.2
		c0,1.813-0.345,3.312-1.033,4.496c-0.689,1.184-1.623,2.081-2.801,2.693l4.594,11.801h-5.759l-3.798-10.847h-3.462v10.847H97.111z
		 M102.182,93.009h3.25c1.178,0,2.087-0.326,2.729-0.98c0.642-0.653,0.963-1.71,0.963-3.171c0-1.401-0.307-2.423-0.918-3.064
		c-0.613-0.642-1.537-0.963-2.774-0.963h-3.25V93.009z"/>
	<path d="M116.578,107.989l7.208-27.275h6.677l7.173,27.275h-5.176l-1.448-5.794h-8.18l-1.413,5.794H116.578z M123.893,97.973h6.076
		l-3.038-12.277L123.893,97.973z"/>
	<path d="M140.197,107.989V80.714h6.324l5.334,20.475l5.318-20.475h6.218v27.275h-4.858V89.281l-4.734,18.708h-4.01l-4.734-18.708
		v18.708H140.197z"/>
	<path d="M168.268,107.989V80.714h6.324l5.334,20.475l5.318-20.475h6.218v27.275h-4.858V89.281l-4.734,18.708h-4.01l-4.734-18.708
		v18.708H168.268z"/>
	<path d="M196.338,107.989V80.714h15.633v4.346h-10.422v6.907h9.805v4.258h-9.805v7.419h10.917v4.346H196.338z"/>
</g>
</svg>
