<?xml version="1.0" encoding="utf-8"?>
<!-- Generator: Adobe Illustrator 16.0.0, SVG Export Plug-In . SVG Version: 6.00 Build 0)  -->
<!DOCTYPE svg PUBLIC "-//W3C//DTD SVG 1.1//EN" "http://www.w3.org/Graphics/SVG/1.1/DTD/svg11.dtd">
<svg version="1.1" id="Layer_1" xmlns="http://www.w3.org/2000/svg" xmlns:xlink="http://www.w3.org/1999/xlink" x="0px" y="0px"
	 width="215px" height="76px" viewBox="0 0 215 76" enable-background="new 0 0 215 76" xml:space="preserve">
<g>
	<g>
		<path fill="#FFFFFF" d="M77.282,69.895V52.367H83.4c0.802,0,1.509,0.123,2.123,0.369c0.612,0.246,1.127,0.605,1.543,1.08
			c0.416,0.473,0.73,1.051,0.942,1.736c0.211,0.684,0.318,1.465,0.318,2.344c0,0.877-0.125,1.66-0.375,2.35
			c-0.249,0.689-0.601,1.271-1.055,1.748s-1,0.84-1.64,1.088c-0.64,0.25-1.353,0.375-2.14,0.375H80.54v6.438H77.282z M80.54,60.801
			h1.93c0.378,0,0.723-0.068,1.033-0.209s0.577-0.338,0.8-0.596s0.396-0.568,0.517-0.93c0.121-0.365,0.182-0.77,0.182-1.217
			c0-0.9-0.217-1.598-0.647-2.094c-0.432-0.494-1.06-0.742-1.885-0.742h-1.93V60.801z"/>
		<path fill="#FFFFFF" d="M90.902,69.895V52.367h6.141c1.666,0,2.914,0.447,3.746,1.34c0.833,0.895,1.249,2.221,1.249,3.984
			c0,1.166-0.222,2.129-0.665,2.889c-0.442,0.762-1.042,1.338-1.799,1.73l2.951,7.584h-3.7l-2.44-6.971h-2.225v6.971H90.902z
			 M94.161,60.268h2.088c0.756,0,1.341-0.209,1.753-0.629s0.619-1.1,0.619-2.037c0-0.9-0.197-1.559-0.59-1.969
			c-0.394-0.414-0.988-0.619-1.782-0.619h-2.088V60.268z"/>
		<path fill="#FFFFFF" d="M110.789,70.246c-1.044,0-1.973-0.191-2.786-0.574c-0.813-0.383-1.5-0.953-2.061-1.713
			c-0.56-0.762-0.985-1.709-1.277-2.844c-0.291-1.135-0.437-2.455-0.437-3.961c0-1.521,0.146-2.852,0.437-3.99
			c0.292-1.139,0.717-2.09,1.277-2.855c0.56-0.764,1.247-1.338,2.061-1.719c0.813-0.383,1.742-0.574,2.786-0.574
			c1.037,0,1.962,0.191,2.775,0.574c0.814,0.381,1.502,0.955,2.066,1.719c0.563,0.766,0.993,1.717,1.288,2.855
			c0.295,1.139,0.443,2.469,0.443,3.99c0,1.506-0.147,2.826-0.443,3.961c-0.295,1.135-0.725,2.082-1.288,2.844
			c-0.564,0.76-1.252,1.33-2.066,1.713C112.751,70.055,111.826,70.246,110.789,70.246z M110.789,67.385
			c1.021,0,1.803-0.518,2.344-1.555s0.812-2.596,0.812-4.676c0-2.104-0.271-3.676-0.812-4.717s-1.323-1.561-2.344-1.561
			c-1.029,0-1.814,0.52-2.355,1.561s-0.812,2.613-0.812,4.717c0,2.08,0.271,3.639,0.812,4.676S109.76,67.385,110.789,67.385z"/>
		<path fill="#FFFFFF" d="M125.636,70.246c-0.863,0-1.661-0.164-2.395-0.488c-0.734-0.326-1.372-0.848-1.914-1.566
			c-0.541-0.719-0.963-1.646-1.265-2.781c-0.303-1.135-0.454-2.516-0.454-4.143c0-1.521,0.147-2.859,0.443-4.012
			c0.295-1.154,0.721-2.119,1.276-2.895c0.557-0.775,1.24-1.361,2.05-1.754c0.809-0.395,1.725-0.592,2.746-0.592
			c1.158,0,2.146,0.197,2.963,0.592c0.817,0.393,1.451,1.016,1.901,1.867c0.45,0.85,0.759,1.812,0.926,2.887l-3.19,0.682
			c-0.144-0.764-0.35-1.393-0.619-1.883c-0.268-0.492-0.582-0.83-0.941-1.012c-0.36-0.182-0.732-0.271-1.118-0.271
			c-1.021,0-1.784,0.553-2.287,1.656c-0.503,1.105-0.755,2.705-0.755,4.803c0,2.08,0.265,3.609,0.794,4.586
			c0.53,0.975,1.279,1.463,2.248,1.463c0.363,0,0.706-0.061,1.027-0.182c0.321-0.121,0.601-0.311,0.839-0.572
			c0.239-0.262,0.426-0.592,0.562-0.992c0.136-0.402,0.204-0.883,0.204-1.443v-0.975h-1.93v-2.465h5.187v9.139h-2.123l-0.295-1.771
			c-0.424,0.689-0.956,1.215-1.595,1.578C127.284,70.064,126.521,70.246,125.636,70.246z"/>
		<path fill="#FFFFFF" d="M134.808,69.895V52.367h6.141c1.665,0,2.914,0.447,3.746,1.34c0.833,0.895,1.249,2.221,1.249,3.984
			c0,1.166-0.221,2.129-0.663,2.889c-0.443,0.762-1.043,1.338-1.8,1.73l2.952,7.584h-3.7l-2.44-6.971h-2.225v6.971H134.808z
			 M138.065,60.268h2.088c0.756,0,1.341-0.209,1.753-0.629s0.619-1.1,0.619-2.037c0-0.9-0.197-1.559-0.59-1.969
			c-0.394-0.414-0.988-0.619-1.782-0.619h-2.088V60.268z"/>
		<path fill="#FFFFFF" d="M147.316,69.895l4.631-17.527h4.29l4.609,17.527h-3.326l-0.931-3.723h-5.256l-0.908,3.723H147.316z
			 M152.016,63.457h3.904l-1.952-7.889L152.016,63.457z"/>
		<path fill="#FFFFFF" d="M162.492,69.895V52.367h4.063l3.427,13.156l3.417-13.156h3.995v17.527h-3.122V57.873l-3.042,12.021h-2.577
			l-3.042-12.021v12.021H162.492z"/>
		<path fill="#FFFFFF" d="M180.529,69.895V52.367h4.063l3.427,13.156l3.417-13.156h3.995v17.527h-3.122V57.873l-3.042,12.021h-2.576
			l-3.042-12.021v12.021H180.529z"/>
		<path fill="#FFFFFF" d="M198.565,69.895V52.367h10.045v2.793h-6.696V59.6h6.3v2.734h-6.3v4.768h7.015v2.793H198.565z"/>
	</g>
	<g>
		<path fill="#FFFFFF" d="M91.879,23.63V6.104h6.628c0.552,0,1.095,0.07,1.629,0.21c0.533,0.141,1.013,0.382,1.436,0.726
			c0.423,0.345,0.766,0.805,1.027,1.38c0.261,0.575,0.392,1.298,0.392,2.168c0,0.575-0.091,1.116-0.272,1.623
			s-0.432,0.931-0.749,1.271c-0.318,0.341-0.667,0.617-1.044,0.829c0.794,0.363,1.411,0.879,1.851,1.549
			c0.438,0.67,0.658,1.485,0.658,2.446c0,1.135-0.18,2.073-0.539,2.815c-0.359,0.741-0.834,1.293-1.425,1.657
			c-0.59,0.363-1.195,0.596-1.816,0.698s-1.214,0.153-1.782,0.153H91.879z M95.137,13.165h2.304c0.257,0,0.518-0.026,0.783-0.079
			c0.265-0.052,0.502-0.159,0.709-0.318c0.208-0.159,0.378-0.38,0.511-0.664c0.132-0.285,0.199-0.657,0.199-1.119
			c0-0.651-0.135-1.15-0.403-1.498c-0.269-0.349-0.571-0.562-0.908-0.643c-0.336-0.079-0.634-0.119-0.891-0.119h-2.304V13.165z
			 M95.137,20.985h2.27c0.659,0,1.188-0.1,1.589-0.3c0.401-0.2,0.675-0.504,0.823-0.908c0.148-0.405,0.221-0.865,0.221-1.379
			c0-0.749-0.13-1.32-0.391-1.714c-0.261-0.393-0.6-0.639-1.016-0.738c-0.416-0.098-0.825-0.147-1.226-0.147h-2.27V20.985z"/>
		<path fill="#FFFFFF" d="M106.26,23.63V6.104h4.063l3.429,13.155l3.416-13.155h3.996V23.63h-3.122V11.61L115,23.63h-2.577
			l-3.042-12.021V23.63H106.26z"/>
		<path fill="#FFFFFF" d="M125.897,23.63L122.81,6.104h3.235l2.043,12.271l2.281-12.271h3.155l2.259,12.271l2.066-12.271h3.145
			l-3.257,17.526h-3.439l-2.441-11.952l-2.52,11.952H125.897z"/>
		<path fill="#FFFFFF" d="M152.492,23.982c-0.968,0-1.836-0.166-2.604-0.499c-0.769-0.333-1.42-0.861-1.958-1.583
			c-0.537-0.723-0.95-1.651-1.238-2.787c-0.288-1.135-0.431-2.505-0.431-4.109c0-1.521,0.142-2.858,0.426-4.012
			s0.698-2.118,1.243-2.894c0.544-0.776,1.214-1.361,2.009-1.754c0.795-0.394,1.707-0.59,2.736-0.59
			c1.241,0,2.287,0.248,3.138,0.743c0.852,0.496,1.485,1.184,1.902,2.066c0.416,0.882,0.699,1.822,0.851,2.82l-3.348,0.67
			c-0.144-0.916-0.356-1.638-0.636-2.168s-0.6-0.875-0.959-1.033c-0.359-0.159-0.698-0.238-1.015-0.238
			c-1.014,0-1.76,0.543-2.237,1.628c-0.476,1.086-0.715,2.696-0.715,4.83c0,1.105,0.064,2.042,0.193,2.811
			c0.129,0.768,0.316,1.392,0.563,1.872c0.245,0.481,0.548,0.829,0.907,1.044c0.359,0.215,0.774,0.324,1.243,0.324
			c0.56,0,1.038-0.159,1.436-0.477c0.397-0.318,0.698-0.796,0.903-1.436c0.205-0.639,0.34-1.353,0.408-2.139l3.395,0.419
			c-0.167,1.128-0.413,2.099-0.739,2.912c-0.325,0.813-0.739,1.487-1.243,2.02c-0.503,0.533-1.105,0.927-1.805,1.181
			C154.215,23.855,153.408,23.982,152.492,23.982z"/>
		<path fill="#FFFFFF" d="M161.13,23.63V6.104h3.349v6.879h4.904V6.104h3.348V23.63h-3.348v-7.809h-4.904v7.809H161.13z"/>
		<path fill="#FFFFFF" d="M175.852,23.63V6.104h3.348V23.63H175.852z"/>
		<path fill="#FFFFFF" d="M182.333,23.63V6.104h3.371l4.791,11.737V6.104h3.258V23.63h-3.372l-4.79-11.669V23.63H182.333z"/>
		<path fill="#FFFFFF" d="M195.398,23.63l4.631-17.526h4.291l4.609,17.526h-3.326l-0.931-3.724h-5.255l-0.908,3.724H195.398z
			 M200.098,17.194h3.904l-1.952-7.889L200.098,17.194z"/>
	</g>
	<g>
		<path fill="#FFFFFF" d="M124.059,46.762V29.236h3.349v14.732h6.504v2.793H124.059z"/>
		<path fill="#FFFFFF" d="M141.403,47.113c-1.044,0-1.973-0.191-2.787-0.572c-0.813-0.383-1.5-0.953-2.06-1.715
			c-0.561-0.76-0.985-1.707-1.277-2.844c-0.291-1.135-0.437-2.455-0.437-3.961c0-1.521,0.146-2.851,0.437-3.989
			c0.292-1.139,0.717-2.09,1.277-2.855c0.56-0.764,1.247-1.338,2.06-1.72s1.743-0.573,2.787-0.573c1.037,0,1.961,0.191,2.775,0.573
			s1.502,0.956,2.066,1.72c0.563,0.765,0.993,1.716,1.289,2.855c0.295,1.139,0.443,2.469,0.443,3.989
			c0,1.506-0.147,2.826-0.443,3.961c-0.295,1.137-0.725,2.084-1.289,2.844c-0.563,0.762-1.252,1.332-2.066,1.715
			C143.364,46.922,142.44,47.113,141.403,47.113z M141.403,44.254c1.022,0,1.803-0.518,2.344-1.555
			c0.541-1.037,0.811-2.597,0.811-4.678c0-2.103-0.271-3.676-0.811-4.716c-0.542-1.041-1.322-1.561-2.344-1.561
			c-1.029,0-1.814,0.52-2.355,1.561c-0.542,1.04-0.812,2.613-0.812,4.716c0,2.081,0.27,3.641,0.812,4.678
			C139.589,43.736,140.374,44.254,141.403,44.254z"/>
		<path fill="#FFFFFF" d="M153.208,46.762v-7.275l-4.529-10.25h3.372l2.928,6.947l2.929-6.947h3.189l-4.54,10.25v7.275H153.208z"/>
		<path fill="#FFFFFF" d="M159.632,46.762l4.631-17.525h4.291l4.609,17.525h-3.326l-0.931-3.723h-5.255l-0.908,3.723H159.632z
			 M164.331,40.326h3.904l-1.951-7.889L164.331,40.326z"/>
		<path fill="#FFFFFF" d="M174.808,46.762V29.236h3.348v14.732h6.504v2.793H174.808z"/>
		<path fill="#FFFFFF" d="M188.338,46.762V32.029h-4.325v-2.792H196v2.792h-4.313v14.733H188.338z"/>
		<path fill="#FFFFFF" d="M201.04,46.762v-7.275l-4.529-10.25h3.372l2.928,6.947l2.929-6.947h3.189l-4.54,10.25v7.275H201.04z"/>
	</g>
	<rect y="0" fill="none" width="215" height="76"/>
</g>
</svg>
