<?xml version="1.0" encoding="utf-8"?>
<!-- Generator: Adobe Illustrator 16.0.0, SVG Export Plug-In . SVG Version: 6.00 Build 0)  -->
<!DOCTYPE svg PUBLIC "-//W3C//DTD SVG 1.1//EN" "http://www.w3.org/Graphics/SVG/1.1/DTD/svg11.dtd">
<svg version="1.1" id="Layer_1" xmlns="http://www.w3.org/2000/svg" xmlns:xlink="http://www.w3.org/1999/xlink" x="0px" y="0px"
	 width="107.354px" height="84.559px" viewBox="0 0 107.354 84.559" enable-background="new 0 0 107.354 84.559"
	 xml:space="preserve">
<g>
	<path fill="#787367" d="M69.877,30.443c-1.366-0.646-2.918-1.377-2.918-1.377s1.162-4.961,0.869-9.366
		c-0.286-4.409-6.387-6.43-9.287-7.441c-2.9-1.009-6.386-1.009-9.287,0c-2.9,1.012-8.994,3.03-9.285,7.441
		c-0.29,4.405,0.87,9.366,0.87,9.366s-1.551,0.731-2.918,1.377c-1.366,0.646,0,5.51,0,5.51l2.918,3.03
		c0,0,4.933,10.744,8.999,11.295c4.064,0.549,4.064,0.549,8.126,0c4.062-0.549,8.997-11.295,8.997-11.295l2.918-3.03
		C69.877,35.953,71.244,31.089,69.877,30.443z"/>
	<g>
		<path fill="#787367" d="M85.724,57.129C85.203,47.1,70.558,44.448,70.558,44.448l-12.813,9.135h-8.136l-12.814-9.135
			c0,0-14.646,2.652-15.166,12.682c-0.523,10.025,0,15.928,0,15.928h30.887h2.323h30.89C85.724,73.057,86.249,67.155,85.724,57.129z
			"/>
		
			<linearGradient id="SVGID_1_" gradientUnits="userSpaceOnUse" x1="32.5789" y1="49.3733" x2="91.0754" y2="49.3733" gradientTransform="matrix(1 0 0 -1 -8.3599 108.6138)">
			<stop  offset="0" style="stop-color:#FFFFFF"/>
			<stop  offset="1" style="stop-color:#C9C9C9"/>
		</linearGradient>
		<path fill="url(#SVGID_1_)" d="M82.504,57.938C82.032,49.879,68.762,47.75,68.762,47.75L57.15,55.092h-7.37L38.172,47.75
			c0,0-13.27,2.129-13.742,10.188c-0.475,8.053,0,12.793,0,12.793h27.984h2.104h27.987C82.504,70.731,82.979,65.99,82.504,57.938z"
			/>
		
			<linearGradient id="SVGID_2_" gradientUnits="userSpaceOnUse" x1="48.2849" y1="77.6409" x2="75.3665" y2="77.6409" gradientTransform="matrix(1 0 0 -1 -8.3599 108.6138)">
			<stop  offset="0" style="stop-color:#FFFFFF"/>
			<stop  offset="1" style="stop-color:#C9C9C9"/>
		</linearGradient>
		<path fill="url(#SVGID_2_)" d="M66.51,30.41c-1.115-0.555-2.383-1.184-2.383-1.184s0.951-4.266,0.712-8.058
			c-0.237-3.79-5.215-5.526-7.583-6.397c-2.369-0.867-5.214-0.867-7.582,0c-2.368,0.871-7.345,2.607-7.582,6.397
			c-0.238,3.792,0.711,8.058,0.711,8.058s-1.267,0.629-2.383,1.184c-1.115,0.558,0,4.741,0,4.741l2.383,2.607
			c0,0,4.026,9.242,7.344,9.712c3.318,0.473,3.318,0.473,6.636,0c3.314-0.471,7.344-9.712,7.344-9.712l2.383-2.607
			C66.51,35.148,67.627,30.966,66.51,30.41z"/>
		<path opacity="0.6" fill="#FFFFFF" enable-background="new    " d="M57.15,55.092h-7.371L38.17,47.75
			c0,0-13.269,2.129-13.742,10.188c-0.474,8.053,0,12.793,0,12.793L57.15,55.092z"/>
	</g>
	<path opacity="0.6" fill="#FFFFFF" enable-background="new    " d="M66.51,30.41c-1.115-0.555-2.383-1.184-2.383-1.184
		s0.951-4.266,0.712-8.058c-0.237-3.79-5.215-5.526-7.583-6.397c-2.369-0.867-5.214-0.867-7.582,0
		c-2.368,0.871-7.345,2.607-7.582,6.397c-0.238,3.792,0.711,8.058,0.711,8.058s-1.267,0.629-2.383,1.184
		c-1.115,0.558,0,4.741,0,4.741l2.383,2.607c0,0,4.026,9.242,7.344,9.716c3.318,0.469,3.318,0.469,6.636,0
		c3.314-0.475,7.344-9.716,7.344-9.716l2.383-2.607C66.51,35.148,67.627,30.966,66.51,30.41z M65.168,35.584l-1.973,2.158
		c0,0-3.335,7.653-6.08,8.045c-2.747,0.391-2.747,0.391-5.492,0c-2.746-0.396-6.082-8.045-6.082-8.045l-1.972-2.158
		c0,0-0.923-3.463,0-3.923s1.972-0.981,1.972-0.981s-0.785-3.532-0.588-6.67c0.195-3.139,4.316-4.578,6.276-5.296
		c1.961-0.719,4.316-0.719,6.277,0c1.964,0.719,6.083,2.157,6.278,5.296c0.198,3.138-0.588,6.67-0.588,6.67s1.049,0.521,1.972,0.981
		S65.168,35.584,65.168,35.584z"/>
</g>
</svg>
