<?xml version="1.0" encoding="utf-8"?>
<!-- Generator: Adobe Illustrator 16.0.0, SVG Export Plug-In . SVG Version: 6.00 Build 0)  -->
<!DOCTYPE svg PUBLIC "-//W3C//DTD SVG 1.1//EN" "http://www.w3.org/Graphics/SVG/1.1/DTD/svg11.dtd">
<svg version="1.1" id="Layer_1" xmlns="http://www.w3.org/2000/svg" xmlns:xlink="http://www.w3.org/1999/xlink" x="0px" y="0px"
	 width="86.191px" height="86.191px" viewBox="0 0 86.191 86.191" enable-background="new 0 0 86.191 86.191" xml:space="preserve">
<rect x="0" y="0" fill="none" width="86.191" height="86.191"/>
<g>
	<g>
		<g>
			<linearGradient id="SVGID_1_" gradientUnits="userSpaceOnUse" x1="43.0964" y1="85.5959" x2="43.0964" y2="1.5959">
				<stop  offset="0" style="stop-color:#000000"/>
				<stop  offset="1" style="stop-color:#171717"/>
			</linearGradient>
			<path fill="url(#SVGID_1_)" d="M43.095,0.901c-23.267,0-42.194,18.929-42.194,42.195s18.929,42.195,42.194,42.195
				c23.267,0,42.196-18.929,42.196-42.195S66.362,0.901,43.095,0.901z"/>
			<path fill="#C6C6C6" d="M43.095,85.791c-23.542,0-42.694-19.153-42.694-42.695c0-23.542,19.152-42.695,42.694-42.695
				s42.696,19.153,42.696,42.695C85.791,66.638,66.637,85.791,43.095,85.791z M43.095,1.401c-22.99,0-41.694,18.705-41.694,41.695
				c0,22.991,18.704,41.695,41.694,41.695c22.991,0,41.696-18.704,41.696-41.695C84.791,20.105,66.086,1.401,43.095,1.401z"/>
		</g>
	</g>
	<path fill="#C6C6C6" d="M43.094,54.234c-3.692,0-10.027-1.408-11.746-10.651c-2.211-0.845-3.687-4.417-3.866-4.872
		c-0.457-1.159-0.25-2.845,0.49-4.012c0.277-0.435,0.619-0.786,1.007-1.032c-0.8-3.832-0.022-8.735,1.964-11.868
		c2.789-4.397,8.086-6.103,12.111-6.234c4.106,0.131,9.401,1.836,12.192,6.234c1.986,3.132,2.764,8.036,1.963,11.868
		c0.389,0.246,0.73,0.597,1.006,1.032c0.742,1.167,0.949,2.853,0.492,4.012c-0.18,0.455-1.656,4.025-3.867,4.872
		C53.121,52.825,46.787,54.234,43.094,54.234z M43.054,17.904c-3.354,0.109-7.838,1.523-10.137,5.15
		c-1.82,2.866-2.446,7.701-1.43,11.005c0.105,0.343,0.047,0.714-0.156,1.009c-0.203,0.295-0.533,0.48-0.891,0.501
		c-0.174,0.011-0.34,0.14-0.496,0.385c-0.365,0.577-0.455,1.48-0.289,1.897c0.688,1.736,2.039,3.575,2.633,3.575
		c0.577,0,1.149,0.42,1.235,0.994c1.167,7.834,5.85,9.476,9.57,9.476s8.404-1.642,9.57-9.476c0.09-0.601,0.645-1.045,1.232-0.994
		c0.598,0,1.949-1.837,2.639-3.575c0.164-0.417,0.074-1.32-0.289-1.897c-0.158-0.245-0.326-0.374-0.498-0.385
		c-0.357-0.021-0.686-0.207-0.891-0.501c-0.201-0.294-0.26-0.666-0.156-1.009c1.018-3.304,0.391-8.139-1.428-11.005
		C50.973,19.427,46.487,18.013,43.054,17.904z"/>
	<path fill="#C6C6C6" d="M35.19,53.959c-3.552,0.459-9.351,1.745-16.811,5.271c-5.665,2.672-7.1,7.144-7.463,11.115
		c0.711,0.838,1.449,1.651,2.222,2.432c0.055-4.105,0.618-8.781,6.238-11.435c7.188-3.396,12.729-4.628,16.113-5.062
		c0.641-0.085,1.092-0.669,1.01-1.312C36.416,54.326,35.822,53.886,35.19,53.959z"/>
	<path fill="#C6C6C6" d="M75.274,70.348c-0.363-3.972-1.799-8.444-7.465-11.117c-7.459-3.526-13.26-4.812-16.811-5.271
		c-0.641-0.071-1.227,0.369-1.309,1.01c-0.082,0.643,0.369,1.227,1.01,1.312c3.383,0.435,8.926,1.667,16.113,5.062
		c5.621,2.654,6.186,7.331,6.238,11.437C73.823,71.999,74.563,71.186,75.274,70.348z"/>
</g>
</svg>
