<?xml version="1.0" encoding="utf-8"?>
<!-- Generator: Adobe Illustrator 16.0.0, SVG Export Plug-In . SVG Version: 6.00 Build 0)  -->
<!DOCTYPE svg PUBLIC "-//W3C//DTD SVG 1.1//EN" "http://www.w3.org/Graphics/SVG/1.1/DTD/svg11.dtd">
<svg version="1.1" id="Layer_1" xmlns="http://www.w3.org/2000/svg" xmlns:xlink="http://www.w3.org/1999/xlink" x="0px" y="0px"
	 width="68.354px" height="51.926px" viewBox="0 0 68.354 51.926" enable-background="new 0 0 68.354 51.926" xml:space="preserve">
<g opacity="0.6">
	<rect x="0" y="-0.001" fill="none" width="68.354" height="51.928"/>
</g>
<g>
	<g opacity="0.6">
		<path fill="#FFFFFF" d="M55.56,25.19h-5.396v-2.132c0-0.729-0.593-1.322-1.322-1.322H35.636c-0.729,0-1.322,0.594-1.322,1.322
			v9.188c0,0.729,0.594,1.321,1.322,1.321h0.985l-0.489,1.826c-0.088,0.331-0.064,0.584,0.069,0.759
			c0.096,0.127,0.245,0.197,0.406,0.197c0.186,0,0.382-0.088,0.6-0.271l3.006-2.511h0.924v2.029c0,0.67,0.545,1.215,1.215,1.215
			h7.345l3.036,2.536c0.195,0.162,0.374,0.246,0.531,0.246c0.131,0,0.247-0.056,0.323-0.156c0.111-0.146,0.13-0.371,0.05-0.667
			l-0.524-1.959h2.446c0.671,0,1.217-0.545,1.217-1.215v-9.189C56.776,25.737,56.23,25.19,55.56,25.19z M37.442,33.331
			c0.003-0.009,0.007-0.02,0.01-0.031l0.127-0.462h-1.942c-0.327,0-0.592-0.265-0.592-0.592v-9.188c0-0.325,0.265-0.59,0.592-0.59
			h13.206c0.326,0,0.593,0.265,0.593,0.59v9.188c0,0.327-0.267,0.592-0.593,0.592h-8.894l-3.06,2.556L37.442,33.331z M48.842,33.567
			c0.729,0,1.322-0.592,1.322-1.321v-6.535h5.395c0.385,0,0.698,0.312,0.698,0.696v9.189c0,0.383-0.313,0.695-0.698,0.695h-3.126
			l0.091,0.329c0.002,0.01,0.006,0.017,0.009,0.026l0.604,2.256c0.013,0.047,0.021,0.086,0.025,0.117
			c-0.027-0.017-0.059-0.042-0.096-0.071l-3.181-2.656h-7.531c-0.385,0-0.698-0.313-0.698-0.696v-2.029H48.842z"/>
	</g>
	<g opacity="0.6">
		<ellipse fill="#FFFFFF" cx="29.377" cy="22.114" rx="1.01" ry="0.513"/>
		<path fill="#FFFFFF" d="M26.826,23.028c-1.195,0-3.093,0-3.724,0c-1.544,0-1.721,0.507-1.825,1.03
			c-0.114-0.218-0.315-0.249-0.587-0.317c-0.272-0.075-3.459-0.926-4.196-1.146c-0.737-0.219-2.142-0.679-2.357,0.061
			c-0.213,0.74-0.551,2.048,0.553,2.048c-0.044,0.657,0.423,0.726,1.67,0.681c1.58-0.057,4.092-0.106,4.96-0.109
			c-0.022,1.59,2.743,2.094,3.583,2.094c0.836,0,1.588,0,2.531,0c0.942,0,1.568-0.472,1.568-1.631s-0.241-2.152-0.241-2.152
			C28.543,23.095,28.02,23.028,26.826,23.028z M27.982,26.59c-0.553,0.36-2.6,0.279-3.407,0.19
			c-0.809-0.086-2.638-0.467-2.768-1.192c-0.128-0.721-0.214-1.319,0-1.659c0.213-0.342,0.555-0.567,1.192-0.56
			c0.851,0.013,3.778,0.089,4.293,0.132c0.518,0.046,0.949,0.216,1.012,0.98C28.365,25.247,28.535,26.227,27.982,26.59z"/>
		<path fill="#FFFFFF" d="M29.993,23.586c0,0-0.241,0.993-0.241,2.152s0.625,1.633,1.568,1.633c0.682,0,1.262,0,1.848,0v-0.524
			c-0.91,0.029-2.014-0.008-2.396-0.257c-0.554-0.363-0.385-1.343-0.324-2.108c0.062-0.765,0.494-0.935,1.012-0.98
			c0.229-0.018,0.926-0.043,1.708-0.068v-0.404c-0.44,0-0.875,0-1.24,0C30.733,23.028,30.211,23.095,29.993,23.586z"/>
		<path fill="#FFFFFF" d="M22.86,29.029c-0.302-0.575-1.616-0.769-3.449-0.939s-2.915-0.298-3.431-0.319
			c-0.519-0.021-1.16-0.154-1.12,0.853c0.04,1.009,0.124,1.693,1.252,1.823c1.127,0.136,3.137,0.25,4.334,0.34
			c1.197,0.092,2.852,0.301,2.717-0.222c1.155-0.051,0.468,0.388,1.371,0.412c0.901,0.025,5.2,0,5.2,0s1.896,0.013,3.435,0.013
			v-1.945l-3.435,0.015L22.86,29.029z"/>
		<path fill="#FFFFFF" d="M25.353,32.889c-1.199-0.047-3.127-0.146-3.52-0.222c-0.062-0.013-0.128-0.025-0.202-0.04
			c-0.513-0.104-1.215-0.245-2.325-0.245c-0.169,0-0.344,0.004-0.513,0.01c-2.554-0.049-5.467-0.122-5.983-0.188
			c-0.248-0.029-0.273-0.033-0.305-0.566l-0.026-0.459c-0.069-1.19-0.141-2.424-0.151-3.21c-0.019-1.475,0.285-4.915,0.697-5.587
			c0.852-1.382,3.57-2.865,3.897-3.041h24.925c0.165,0.09,0.936,0.506,1.774,1.083l0.038,0.025h1.27L44.57,20.18
			c-0.557-0.416-1.124-0.778-1.558-1.038h0.408c0.369,0,1.492,0,1.492-1.023c0-0.778-0.878-1.007-1.346-1.021
			c0,0-0.496-0.003-0.916,0c-0.264,0.003-0.806,0.005-0.834,0.549c-0.919-1.747-2.544-3.925-3.811-4.768
			c-0.443-0.298-0.987-0.307-0.992-0.307h-0.003c-3.259-0.238-7.545-0.24-7.588-0.24H29.35c-0.044,0-4.339,0.002-7.578,0.24
			c-0.056,0.002-0.573,0.017-1.006,0.305c-1.277,0.851-2.914,3.049-3.829,4.804c-0.008-0.576-0.565-0.58-0.835-0.583
			c-0.421-0.003-0.915,0.001-0.919,0c-0.465,0.014-1.344,0.242-1.344,1.021c0,1.023,1.124,1.023,1.492,1.023h0.425
			c-1.026,0.615-2.678,1.724-3.371,2.847c-0.606,0.985-0.821,4.885-0.807,5.987c0.009,0.805,0.082,2.045,0.151,3.247l0.106,1.994
			c0.04,1.07,0.533,1.569,1.551,1.569h4.027c0.572,0,1.021-0.18,1.332-0.535c0.036-0.042,0.072-0.089,0.11-0.146l0.029-0.046
			c0.025-0.037,0.045-0.075,0.073-0.126l0.016-0.031c0.024-0.05,0.046-0.102,0.066-0.151l0.007-0.021
			c0.016-0.046,0.031-0.09,0.044-0.135l0.012-0.047c0.009-0.038,0.017-0.074,0.025-0.111l0.008-0.039
			c0.008-0.047,0.015-0.093,0.02-0.138l0.003-0.027c0.004-0.033,0.008-0.069,0.01-0.102c0.046-0.002,0.091-0.002,0.135-0.002
			c1.035,0,1.696,0.136,2.188,0.235c0.07,0.012,0.137,0.027,0.199,0.037c0.602,0.115,3.608,0.234,3.644,0.237l3.991,0.021
			l3.841-0.021v-0.751l-3.729,0.023L25.353,32.889z M21.18,13.502c0.245-0.164,0.58-0.179,0.625-0.179
			c3.235-0.24,7.501-0.243,7.545-0.243h0.073c0.043,0,4.309,0.003,7.564,0.243c0.003,0,0.352,0.011,0.604,0.179
			c1.25,0.833,2.901,3.118,3.726,4.811H17.455C18.283,16.612,19.932,14.332,21.18,13.502z"/>
	</g>
	<circle opacity="0.6" fill="#FFFFFF" cx="39.064" cy="27.904" r="0.832"/>
	<circle opacity="0.6" fill="#FFFFFF" cx="41.989" cy="27.904" r="0.832"/>
	<circle opacity="0.6" fill="#FFFFFF" cx="44.914" cy="27.904" r="0.832"/>
</g>
</svg>
