<?xml version="1.0" encoding="utf-8"?>
<!-- Generator: Adobe Illustrator 16.0.4, SVG Export Plug-In . SVG Version: 6.00 Build 0)  -->
<!DOCTYPE svg PUBLIC "-//W3C//DTD SVG 1.1//EN" "http://www.w3.org/Graphics/SVG/1.1/DTD/svg11.dtd">
<svg version="1.1" id="Layer_1" xmlns="http://www.w3.org/2000/svg" xmlns:xlink="http://www.w3.org/1999/xlink" x="0px" y="0px"
	 width="68.354px" height="51.926px" viewBox="0 0 68.354 51.926" enable-background="new 0 0 68.354 51.926" xml:space="preserve">
<g>
	<g>
		<rect x="0.376" y="-0.037" fill="none" width="67.978" height="51.963"/>
	</g>
	<path fill="#A7A7A7" enable-background="new    " d="M34.178,47.789c-0.334,0-0.641-0.178-0.801-0.472
		c-5.02-8.963-10.526-19.132-12.342-26.353c-0.018-0.068-0.03-0.137-0.037-0.212c-0.239-1.014-0.366-2.056-0.366-3.071
		c0-7.466,6.076-13.545,13.545-13.545c7.467,0,13.545,6.079,13.545,13.545c0,1.009-0.129,2.053-0.373,3.108
		c0,0.027-0.012,0.093-0.027,0.164c-1.814,7.227-7.324,17.396-12.344,26.362C34.816,47.611,34.511,47.789,34.178,47.789z
		 M34.178,5.977c-6.457,0-11.707,5.254-11.707,11.708c0,0.874,0.111,1.774,0.322,2.683c0.005,0.03,0.022,0.127,0.028,0.161
		c1.663,6.622,6.621,15.968,11.356,24.459c4.733-8.496,9.696-17.843,11.36-24.467c0.006-0.022,0.016-0.127,0.02-0.146
		c0.217-0.917,0.328-1.821,0.328-2.686C45.886,11.229,40.636,5.977,34.178,5.977z M34.178,24.705c-3.869,0-7.02-3.152-7.02-7.021
		c0-3.87,3.152-7.02,7.02-7.02c3.87,0,7.021,3.149,7.021,7.02C41.198,21.555,38.048,24.705,34.178,24.705z M34.178,12.503
		c-2.857,0-5.182,2.324-5.182,5.185c0,2.855,2.325,5.182,5.182,5.182c2.856,0,5.183-2.326,5.183-5.182
		C39.361,14.828,37.034,12.503,34.178,12.503z"/>
</g>
</svg>
