<?xml version="1.0" encoding="utf-8"?>
<!-- Generator: Adobe Illustrator 16.0.4, SVG Export Plug-In . SVG Version: 6.00 Build 0)  -->
<!DOCTYPE svg PUBLIC "-//W3C//DTD SVG 1.1//EN" "http://www.w3.org/Graphics/SVG/1.1/DTD/svg11.dtd">
<svg version="1.1" id="Layer_1" xmlns="http://www.w3.org/2000/svg" xmlns:xlink="http://www.w3.org/1999/xlink" x="0px" y="0px"
	 width="68.354px" height="51.926px" viewBox="0 0 68.354 51.926" enable-background="new 0 0 68.354 51.926" xml:space="preserve">
<g>
	<g>
		<rect x="0.376" y="-0.037" fill="none" width="67.978" height="51.963"/>
	</g>
</g>
<g>
	<g>
		<path fill="#A7A7A7" d="M31.773,21.446c0-0.424-0.671-0.767-1.495-0.767c-0.831,0-1.506,0.34-1.506,0.767
			c0,0.417,0.674,0.762,1.506,0.762C31.102,22.208,31.773,21.863,31.773,21.446z"/>
		<path fill="#A7A7A7" d="M10.968,26.293c2.346-0.085,6.069-0.158,7.361-0.158c-0.038,2.355,4.065,3.104,5.309,3.104
			c1.24,0,2.357,0,3.755,0c1.398,0,2.324-0.706,2.324-2.42c0-1.721-0.353-3.196-0.353-3.196c-0.328-0.728-1.102-0.821-2.875-0.821
			c-1.768,0-4.587,0-5.519,0c-2.293,0-2.556,0.746-2.71,1.523c-0.168-0.32-0.463-0.368-0.87-0.471
			c-0.403-0.11-5.132-1.375-6.228-1.699c-1.09-0.323-3.17-1.008-3.492,0.091c-0.318,1.101-0.816,3.039,0.821,3.039
			C8.428,26.261,9.121,26.365,10.968,26.293z M19.047,24.133c0.318-0.507,0.827-0.838,1.77-0.828
			c1.258,0.019,5.605,0.134,6.366,0.196c0.771,0.064,1.41,0.313,1.5,1.453c0.091,1.136,0.343,2.59-0.475,3.127
			c-0.818,0.531-3.856,0.415-5.051,0.281c-1.201-0.13-3.919-0.691-4.111-1.771C18.859,25.523,18.733,24.634,19.047,24.133z"/>
		<path fill="#A7A7A7" d="M31.188,23.624c0,0-0.357,1.474-0.357,3.195c0,1.714,0.932,2.42,2.323,2.42c1.015,0,1.878,0,2.749,0
			v-0.775c-1.354,0.044-2.992-0.012-3.557-0.383c-0.823-0.535-0.573-1.991-0.483-3.127c0.096-1.137,0.735-1.388,1.503-1.453
			c0.343-0.027,1.372-0.066,2.537-0.1v-0.6c-0.661,0-1.299,0-1.843,0C32.284,22.802,31.51,22.895,31.188,23.624z"/>
		<path fill="#A7A7A7" d="M35.897,31.724l-5.09,0.021L20.61,31.698c-0.449-0.855-2.399-1.139-5.117-1.39
			c-2.717-0.253-4.318-0.445-5.087-0.476c-0.768-0.029-1.719-0.231-1.662,1.264c0.062,1.498,0.185,2.514,1.856,2.704
			c1.673,0.2,4.654,0.375,6.429,0.502c1.778,0.136,4.233,0.449,4.035-0.324c1.71-0.074,0.692,0.575,2.03,0.611
			c1.336,0.031,7.71,0,7.71,0s2.815,0.016,5.1,0.016v-2.88h-0.007V31.724z"/>
		<path fill="#A7A7A7" d="M51.19,18.405c-7.331,0-13.298,5.964-13.298,13.296s5.967,13.29,13.298,13.29
			c7.327,0,13.287-5.958,13.287-13.29S58.517,18.405,51.19,18.405z M51.19,43.611c-6.566,0-11.915-5.345-11.915-11.91
			c0-6.569,5.349-11.911,11.915-11.911c6.562,0,11.907,5.342,11.907,11.911C63.097,38.267,57.752,43.611,51.19,43.611z"/>
		<path fill="#A7A7A7" d="M54.625,23.123c-0.279-0.118-0.609,0.018-0.726,0.307l-2.946,7.134c-0.062-0.006-0.125-0.015-0.193-0.015
			c-0.948,0-1.724,0.77-1.724,1.723c0,0.792,0.539,1.457,1.271,1.655v5.993c0,0.215,0.203,0.398,0.452,0.398
			c0.255,0,0.46-0.184,0.46-0.398v-5.993c0.726-0.201,1.267-0.863,1.267-1.655c0-0.484-0.203-0.925-0.528-1.238l2.969-7.186
			C55.041,23.562,54.907,23.237,54.625,23.123z M50.76,33.195c-0.507,0-0.92-0.417-0.92-0.924c0-0.513,0.413-0.925,0.92-0.925
			c0.51,0,0.925,0.412,0.925,0.925C51.685,32.778,51.27,33.195,50.76,33.195z"/>
		<path fill="#A7A7A7" d="M44.061,28.28c0.069-0.099,0.148-0.193,0.24-0.288c0.064-0.069,0.366-0.343,0.889-0.824
			c0.101-0.104,0.223-0.228,0.368-0.38c0.145-0.149,0.27-0.354,0.373-0.599c0.109-0.246,0.163-0.519,0.163-0.812
			c0-0.256-0.044-0.519-0.139-0.782c-0.088-0.261-0.262-0.475-0.511-0.644c-0.257-0.17-0.586-0.255-0.983-0.255
			c-0.282,0-0.534,0.048-0.746,0.131c-0.209,0.084-0.388,0.205-0.531,0.366c-0.146,0.164-0.262,0.369-0.345,0.601
			c-0.082,0.223-0.14,0.48-0.174,0.768l0.943,0.072c0.02-0.133,0.039-0.274,0.072-0.433c0.035-0.187,0.109-0.354,0.225-0.489
			c0.123-0.147,0.283-0.224,0.478-0.224c0.218,0,0.389,0.069,0.509,0.209c0.115,0.137,0.174,0.35,0.174,0.659
			c0,0.15-0.036,0.314-0.109,0.493c-0.073,0.176-0.179,0.356-0.333,0.529c-0.152,0.178-0.349,0.367-0.58,0.57
			c-0.119,0.098-0.255,0.222-0.392,0.357c-0.14,0.138-0.294,0.313-0.448,0.524c-0.147,0.201-0.279,0.432-0.371,0.69
			c-0.101,0.254-0.149,0.516-0.149,0.792v0.205h3.365v-0.861h-2.2l0.034-0.081C43.924,28.476,43.985,28.378,44.061,28.28z"/>
		<path fill="#A7A7A7" d="M55.151,31.658v1.191h3.123c-0.322,0.387-0.619,0.795-0.907,1.241c-0.276,0.447-0.534,0.907-0.76,1.384
			c-0.219,0.474-0.403,0.958-0.566,1.453c-0.155,0.495-0.268,0.982-0.328,1.46h1.563c0.088-0.483,0.202-0.965,0.337-1.454
			c0.14-0.479,0.306-0.963,0.506-1.438c0.2-0.469,0.428-0.938,0.691-1.402c0.262-0.458,0.562-0.899,0.898-1.339v-1.093H55.15
			L55.151,31.658L55.151,31.658z"/>
		<path fill="#A7A7A7" d="M48.729,29.584h1.069v-1.27h0.472v-0.876h-0.472v-3.68h-1.106l-2.121,3.53v1.025h2.159L48.729,29.584
			L48.729,29.584z M47.412,27.438l1.317-2.229v2.229H47.412z"/>
		<path fill="#A7A7A7" d="M24.309,37.42c-1.783-0.065-4.641-0.216-5.226-0.322c-0.091-0.024-0.188-0.04-0.298-0.063
			c-0.76-0.154-1.8-0.365-3.446-0.365c-0.253,0-0.511,0.009-0.763,0.017c-3.791-0.068-8.109-0.178-8.877-0.279
			c-0.36-0.043-0.4-0.046-0.448-0.838l-0.039-0.683c-0.101-1.768-0.208-3.594-0.223-4.762c-0.029-2.184,0.42-7.292,1.031-8.279
			c1.266-2.058,5.294-4.256,5.782-4.514h29.114h7.854h2.207c-0.167-0.107-0.33-0.205-0.479-0.297h0.606c0.544,0,2.213,0,2.213-1.518
			c0-1.152-1.305-1.492-1.997-1.509c0,0-0.74-0.006-1.359,0c-0.392,0-1.192,0.008-1.235,0.812c-1.366-2.592-3.778-5.823-5.654-7.072
			c-0.658-0.436-1.463-0.454-1.466-0.454h-0.01c-4.834-0.355-11.191-0.358-11.253-0.358h-0.109c-0.062,0-6.433,0.003-11.234,0.357
			c-0.091,0.001-0.853,0.025-1.498,0.452c-1.892,1.26-4.321,4.521-5.682,7.124c-0.01-0.853-0.839-0.86-1.24-0.86
			c-0.619-0.009-1.352,0-1.362,0c-0.681,0.019-1.988,0.356-1.988,1.509c0,1.518,1.665,1.518,2.211,1.518h0.632
			c-1.523,0.913-3.973,2.557-5,4.225c-0.897,1.46-1.219,7.243-1.196,8.879c0.016,1.191,0.118,3.029,0.229,4.812l0.154,2.961
			c0.058,1.589,0.791,2.326,2.297,2.326h5.977c0.85,0,1.512-0.265,1.973-0.792c0.058-0.062,0.107-0.132,0.166-0.214l0.046-0.069
			c0.029-0.055,0.066-0.112,0.105-0.188l0.023-0.043c0.035-0.078,0.068-0.154,0.098-0.226l0.01-0.032
			c0.021-0.066,0.047-0.133,0.062-0.195l0.025-0.072c0.008-0.055,0.023-0.106,0.033-0.161l0.01-0.061
			c0.017-0.072,0.027-0.142,0.033-0.205l0.004-0.043c0.003-0.052,0.008-0.101,0.008-0.146c0.069-0.003,0.138-0.003,0.203-0.003
			c1.537,0,2.517,0.198,3.246,0.344c0.104,0.024,0.2,0.041,0.296,0.061c0.89,0.167,5.352,0.346,5.401,0.349l5.919,0.03l5.698-0.03
			v-1.111l-5.531,0.03L24.309,37.42z M18.12,8.671c0.363-0.241,0.86-0.265,0.923-0.268c4.802-0.354,11.129-0.357,11.186-0.357h0.114
			c0.062,0,6.392,0.003,11.217,0.36c0.007,0,0.522,0.012,0.894,0.265c1.857,1.235,4.306,4.625,5.528,7.132H12.595
			C13.826,13.283,16.27,9.905,18.12,8.671z"/>
	</g>
</g>
</svg>
