<?xml version="1.0" encoding="utf-8"?>
<!-- Generator: Adobe Illustrator 16.0.0, SVG Export Plug-In . SVG Version: 6.00 Build 0)  -->
<!DOCTYPE svg PUBLIC "-//W3C//DTD SVG 1.1//EN" "http://www.w3.org/Graphics/SVG/1.1/DTD/svg11.dtd">
<svg version="1.1" id="Layer_1" xmlns="http://www.w3.org/2000/svg" xmlns:xlink="http://www.w3.org/1999/xlink" x="0px" y="0px"
	 width="110.5px" height="84.559px" viewBox="0 0 110.5 84.559" enable-background="new 0 0 110.5 84.559" xml:space="preserve">
<g>
	<linearGradient id="SVGID_1_" gradientUnits="userSpaceOnUse" x1="18.5381" y1="33.7175" x2="74.2734" y2="33.7175">
		<stop  offset="0" style="stop-color:#E6E6E6"/>
		<stop  offset="0.5398" style="stop-color:#FFFFFF"/>
		<stop  offset="1" style="stop-color:#C8C8C8"/>
	</linearGradient>
	<path fill="#777266" stroke="url(#SVGID_1_)" stroke-miterlimit="10" d="M62.724,9.801H30.088c-6.103,0-11.05,4.365-11.05,9.748
		v12.105v12.388v13.592h54.735V44.042V31.655V19.549C73.773,14.166,68.825,9.801,62.724,9.801z"/>
	<path opacity="0.6" fill="#BFB8AA" d="M62.839,10.337H29.835c-6.128,0-10.313,3.516-10.313,9.024l0.061,13.102v12.672"/>
	<g>
		<linearGradient id="SVGID_2_" gradientUnits="userSpaceOnUse" x1="29.9648" y1="20.3049" x2="38.439" y2="20.3049">
			<stop  offset="0" style="stop-color:#E6E6E6"/>
			<stop  offset="0.5398" style="stop-color:#FFFFFF"/>
			<stop  offset="1" style="stop-color:#C8C8C8"/>
		</linearGradient>
		<path fill="url(#SVGID_2_)" d="M34.24,17.123c1.217,0,2.436,0.015,3.653-0.007c0.395-0.01,0.551,0.068,0.545,0.515
			c-0.026,1.79-0.02,3.581-0.002,5.371c0.002,0.353-0.064,0.498-0.463,0.495c-2.524-0.018-5.049-0.014-7.572-0.002
			c-0.315,0-0.438-0.069-0.437-0.413c0.015-1.863,0.015-3.725,0.001-5.586c-0.002-0.327,0.125-0.379,0.409-0.375
			C31.662,17.131,32.951,17.123,34.24,17.123z"/>
		<linearGradient id="SVGID_3_" gradientUnits="userSpaceOnUse" x1="42.1689" y1="20.1843" x2="50.6426" y2="20.1843">
			<stop  offset="0" style="stop-color:#E6E6E6"/>
			<stop  offset="0.5398" style="stop-color:#FFFFFF"/>
			<stop  offset="1" style="stop-color:#C8C8C8"/>
		</linearGradient>
		<path fill="url(#SVGID_3_)" d="M46.444,17.002c1.216,0,2.435,0.015,3.652-0.008c0.395-0.009,0.551,0.068,0.546,0.516
			c-0.026,1.79-0.02,3.581-0.003,5.37c0.002,0.353-0.064,0.499-0.462,0.495c-2.524-0.018-5.049-0.014-7.572-0.002
			c-0.315,0-0.438-0.069-0.436-0.413c0.015-1.863,0.014-3.725,0.001-5.586c-0.003-0.326,0.125-0.379,0.409-0.375
			C43.866,17.01,45.155,17.002,46.444,17.002z"/>
		<linearGradient id="SVGID_4_" gradientUnits="userSpaceOnUse" x1="54.3721" y1="20.0637" x2="62.8457" y2="20.0637">
			<stop  offset="0" style="stop-color:#E6E6E6"/>
			<stop  offset="0.5398" style="stop-color:#FFFFFF"/>
			<stop  offset="1" style="stop-color:#C8C8C8"/>
		</linearGradient>
		<path fill="url(#SVGID_4_)" d="M58.647,16.881c1.217,0,2.436,0.015,3.653-0.007c0.395-0.009,0.551,0.068,0.545,0.515
			c-0.026,1.79-0.02,3.581-0.002,5.371c0.002,0.353-0.064,0.499-0.463,0.495c-2.524-0.018-5.05-0.014-7.572-0.002
			c-0.315,0-0.438-0.069-0.437-0.413c0.015-1.863,0.014-3.725,0.001-5.586c-0.003-0.327,0.125-0.379,0.409-0.375
			C56.069,16.889,57.357,16.881,58.647,16.881z"/>
	</g>
	<linearGradient id="SVGID_5_" gradientUnits="userSpaceOnUse" x1="29.9648" y1="29.9709" x2="38.439" y2="29.9709">
		<stop  offset="0" style="stop-color:#E6E6E6"/>
		<stop  offset="0.5398" style="stop-color:#FFFFFF"/>
		<stop  offset="1" style="stop-color:#C8C8C8"/>
	</linearGradient>
	<path fill="url(#SVGID_5_)" d="M34.24,26.788c1.217,0,2.436,0.015,3.653-0.008c0.395-0.007,0.551,0.068,0.545,0.518
		c-0.026,1.79-0.02,3.58-0.002,5.369c0.002,0.353-0.064,0.499-0.463,0.495c-2.524-0.018-5.049-0.014-7.572-0.002
		c-0.315,0-0.438-0.069-0.437-0.412c0.015-1.864,0.015-3.724,0.001-5.587c-0.002-0.325,0.125-0.38,0.409-0.376
		C31.662,26.798,32.951,26.788,34.24,26.788z"/>
	<linearGradient id="SVGID_6_" gradientUnits="userSpaceOnUse" x1="42.1689" y1="29.8503" x2="50.6426" y2="29.8503">
		<stop  offset="0" style="stop-color:#E6E6E6"/>
		<stop  offset="0.5398" style="stop-color:#FFFFFF"/>
		<stop  offset="1" style="stop-color:#C8C8C8"/>
	</linearGradient>
	<path fill="url(#SVGID_6_)" d="M46.444,26.667c1.216,0,2.435,0.015,3.653-0.007c0.395-0.007,0.551,0.068,0.546,0.517
		c-0.026,1.79-0.02,3.58-0.003,5.37c0.002,0.353-0.064,0.499-0.462,0.495c-2.524-0.018-5.049-0.014-7.572-0.002
		c-0.315,0-0.438-0.069-0.436-0.413c0.015-1.863,0.014-3.724,0.001-5.587c-0.003-0.325,0.125-0.379,0.409-0.375
		C43.866,26.677,45.155,26.667,46.444,26.667z"/>
	<linearGradient id="SVGID_7_" gradientUnits="userSpaceOnUse" x1="54.3721" y1="29.7297" x2="62.8457" y2="29.7297">
		<stop  offset="0" style="stop-color:#E6E6E6"/>
		<stop  offset="0.5398" style="stop-color:#FFFFFF"/>
		<stop  offset="1" style="stop-color:#C8C8C8"/>
	</linearGradient>
	<path fill="url(#SVGID_7_)" d="M58.647,26.547c1.217,0,2.436,0.015,3.653-0.007c0.395-0.008,0.551,0.068,0.545,0.517
		c-0.026,1.79-0.02,3.58-0.002,5.369c0.002,0.353-0.064,0.499-0.463,0.495c-2.524-0.018-5.05-0.014-7.572-0.001
		c-0.315,0-0.438-0.069-0.437-0.413c0.015-1.864,0.014-3.724,0.001-5.587c-0.003-0.325,0.125-0.379,0.409-0.376
		C56.069,26.556,57.357,26.547,58.647,26.547z"/>
	<linearGradient id="SVGID_8_" gradientUnits="userSpaceOnUse" x1="46.5103" y1="49.8596" x2="46.6433" y2="34.4538">
		<stop  offset="0.4056" style="stop-color:#E6E6E6"/>
		<stop  offset="0.5914" style="stop-color:#C8C8C8"/>
		<stop  offset="0.6219" style="stop-color:#C8C8C8"/>
		<stop  offset="1" style="stop-color:#C8C8C8"/>
	</linearGradient>
	<path fill="url(#SVGID_8_)" d="M46.574,39.999c1.518,0,3.038,0.039,4.557-0.02c0.491-0.02,0.687,0.175,0.68,1.333
		c-0.033,4.612-0.024,9.224-0.004,13.835c0.003,0.906-0.08,1.283-0.577,1.274c-3.148-0.047-6.298-0.038-9.444-0.006
		c-0.394,0-0.546-0.178-0.544-1.063c0.019-4.8,0.018-9.594,0.001-14.396c-0.003-0.836,0.156-0.977,0.51-0.966
		C43.358,40.023,44.966,39.999,46.574,39.999z"/>
	<g>
		<g>
			<polygon fill="#777266" points="28.978,3.719 30.233,1.205 31.466,3.73 34.245,4.148 32.222,6.101 32.684,8.873 30.202,7.553 
				27.708,8.849 28.197,6.082 26.195,4.11 			"/>
			
				<linearGradient id="SVGID_9_" gradientUnits="userSpaceOnUse" x1="-663.231" y1="-727.8479" x2="-654.8794" y2="-727.8479" gradientTransform="matrix(0.8119 -0.5838 -0.5838 -0.8119 140.6274 -969.9192)">
				<stop  offset="0" style="stop-color:#FFFFFF"/>
				<stop  offset="1" style="stop-color:#C8C8C8"/>
			</linearGradient>
			<path fill="url(#SVGID_9_)" d="M32.776,9.003l-2.574-1.37l-2.587,1.343l0.507-2.872L26.043,4.06l2.889-0.406l1.302-2.608
				l1.279,2.622l2.883,0.435l-2.098,2.025L32.776,9.003z M30.203,7.474l2.39,1.27l-0.446-2.668l1.948-1.879L31.42,3.798
				l-1.187-2.433l-1.209,2.418l-2.679,0.375l1.928,1.897L27.803,8.72L30.203,7.474z"/>
		</g>
		<polyline fill="#BFB8AA" points="28.271,6.041 26.339,4.141 29.022,3.764 30.233,1.341 31.421,3.775 		"/>
	</g>
	<g>
		<g>
			<polygon fill="#777266" points="37.153,3.719 38.409,1.205 39.64,3.73 42.42,4.148 40.397,6.101 40.859,8.873 38.38,7.553 
				35.884,8.849 36.374,6.082 34.371,4.11 			"/>
			
				<linearGradient id="SVGID_10_" gradientUnits="userSpaceOnUse" x1="-656.583" y1="-732.6213" x2="-648.231" y2="-732.6213" gradientTransform="matrix(0.8119 -0.5838 -0.5838 -0.8119 140.6274 -969.9192)">
				<stop  offset="0" style="stop-color:#FFFFFF"/>
				<stop  offset="1" style="stop-color:#C8C8C8"/>
			</linearGradient>
			<path fill="url(#SVGID_10_)" d="M40.953,9.003l-2.574-1.37l-2.587,1.343l0.507-2.872L34.22,4.06l2.888-0.406l1.304-2.608
				l1.28,2.622l2.883,0.435l-2.1,2.025L40.953,9.003z M38.38,7.474l2.388,1.27l-0.443-2.668l1.946-1.879l-2.676-0.399L38.41,1.365
				l-1.209,2.418l-2.68,0.375l1.93,1.897L35.979,8.72L38.38,7.474z"/>
		</g>
		<polyline fill="#BFB8AA" points="36.447,6.041 34.515,4.141 37.198,3.764 38.409,1.341 39.597,3.775 		"/>
	</g>
	<g>
		<g>
			<polygon fill="#777266" points="45.202,3.719 46.459,1.205 47.69,3.73 50.471,4.148 48.449,6.101 48.908,8.873 46.429,7.553 
				43.935,8.849 44.422,6.082 42.42,4.11 			"/>
			
				<linearGradient id="SVGID_11_" gradientUnits="userSpaceOnUse" x1="-650.0571" y1="-737.321" x2="-641.7051" y2="-737.321" gradientTransform="matrix(0.8119 -0.5838 -0.5838 -0.8119 140.6274 -969.9192)">
				<stop  offset="0" style="stop-color:#FFFFFF"/>
				<stop  offset="1" style="stop-color:#C8C8C8"/>
			</linearGradient>
			<path fill="url(#SVGID_11_)" d="M49.003,9.003l-2.573-1.37l-2.589,1.343l0.508-2.872L42.271,4.06l2.887-0.406l1.304-2.608
				l1.278,2.622l2.883,0.435l-2.098,2.025L49.003,9.003z M46.429,7.474l2.389,1.27l-0.445-2.668l1.947-1.879l-2.675-0.399
				l-1.188-2.433L45.25,3.783l-2.679,0.375l1.927,1.897L44.029,8.72L46.429,7.474z"/>
		</g>
		<polyline fill="#BFB8AA" points="44.496,6.041 42.565,4.141 45.249,3.764 46.459,1.341 47.647,3.775 		"/>
	</g>
	<g>
		<g>
			<polygon fill="#777266" points="53.38,3.719 54.634,1.205 55.865,3.73 58.646,4.148 56.626,6.101 57.086,8.873 54.604,7.553 
				52.11,8.849 52.599,6.082 50.597,4.11 			"/>
			
				<linearGradient id="SVGID_12_" gradientUnits="userSpaceOnUse" x1="-643.418" y1="-742.094" x2="-635.0669" y2="-742.094" gradientTransform="matrix(0.8119 -0.5838 -0.5838 -0.8119 140.6274 -969.9192)">
				<stop  offset="0" style="stop-color:#FFFFFF"/>
				<stop  offset="1" style="stop-color:#C8C8C8"/>
			</linearGradient>
			<path fill="url(#SVGID_12_)" d="M57.178,9.003l-2.573-1.37l-2.586,1.343l0.503-2.872L50.446,4.06l2.889-0.406l1.302-2.608
				l1.279,2.622L58.8,4.103l-2.098,2.025L57.178,9.003z M54.604,7.474l2.39,1.27l-0.442-2.668l1.945-1.879l-2.676-0.399
				l-1.186-2.433l-1.208,2.418l-2.678,0.375l1.928,1.897L52.206,8.72L54.604,7.474z"/>
		</g>
		<polyline fill="#BFB8AA" points="52.672,6.041 50.742,4.141 53.425,3.764 54.634,1.341 55.823,3.775 		"/>
	</g>
	<g>
		<g>
			<polygon fill="#777266" points="61.443,3.719 62.701,1.205 63.931,3.73 66.709,4.148 64.687,6.101 65.149,8.873 62.67,7.553 
				60.174,8.849 60.662,6.082 58.659,4.11 			"/>
			
				<linearGradient id="SVGID_13_" gradientUnits="userSpaceOnUse" x1="-636.8618" y1="-746.8015" x2="-628.5103" y2="-746.8015" gradientTransform="matrix(0.8119 -0.5838 -0.5838 -0.8119 140.6274 -969.9192)">
				<stop  offset="0" style="stop-color:#FFFFFF"/>
				<stop  offset="1" style="stop-color:#C8C8C8"/>
			</linearGradient>
			<path fill="url(#SVGID_13_)" d="M65.243,9.003l-2.573-1.37l-2.588,1.343l0.507-2.872L58.51,4.06l2.889-0.407l1.306-2.607
				l1.274,2.622l2.886,0.435l-2.099,2.025L65.243,9.003z M62.67,7.474l2.388,1.27l-0.442-2.668l1.945-1.879l-2.677-0.399
				l-1.185-2.433l-1.21,2.418l-2.68,0.375l1.93,1.897l-0.474,2.664L62.67,7.474z"/>
		</g>
		<polyline fill="#BFB8AA" points="60.737,6.041 58.803,4.141 61.487,3.764 62.701,1.341 63.886,3.775 		"/>
	</g>
	<g>
		<g>
			<linearGradient id="SVGID_14_" gradientUnits="userSpaceOnUse" x1="56.1953" y1="48.3167" x2="84.0723" y2="48.3167">
				<stop  offset="0" style="stop-color:#FFFFFF"/>
				<stop  offset="1" style="stop-color:#C8C8C8"/>
			</linearGradient>
			<path fill="url(#SVGID_14_)" d="M82.388,37.055L82.388,37.055H71.386H57.88c-0.931,0-1.685,0.756-1.685,1.687v9.261v9.887v0.001
				c0,0.935,0.754,1.688,1.685,1.688l0,0h11.003h13.505c0.932,0,1.685-0.755,1.685-1.688v-9.263v-9.884v-0.002
				C84.074,37.809,83.321,37.055,82.388,37.055z"/>
			<path fill="#777266" d="M81.905,37.417c0.9,0,1.623,0.728,1.623,1.624v0.002v9.514v8.913c0,0.9-0.727,1.625-1.623,1.625H68.897
				H58.303c-0.901,0-1.624-0.727-1.624-1.625v-0.001v-9.515v-8.913c0-0.898,0.728-1.624,1.624-1.624H71.31H81.905 M82.388,35.948
				H71.386H57.88c-1.541,0-2.791,1.253-2.791,2.794v9.261v9.887c0,1.542,1.252,2.795,2.791,2.795h11.003h13.505
				c1.541,0,2.792-1.255,2.792-2.794v-9.263v-9.884C85.183,37.2,83.929,35.948,82.388,35.948L82.388,35.948z"/>
		</g>
		
			<linearGradient id="SVGID_15_" gradientUnits="userSpaceOnUse" x1="389.7227" y1="1983.2395" x2="405.416" y2="1983.2395" gradientTransform="matrix(1 0 0 1 -315.1992 -1930.6953)">
			<stop  offset="0" style="stop-color:#E6E6E6"/>
			<stop  offset="0.5398" style="stop-color:#FFFFFF"/>
			<stop  offset="1" style="stop-color:#C8C8C8"/>
		</linearGradient>
		<path fill="url(#SVGID_15_)" d="M82.36,60.39c-4.336-0.009-7.844-3.525-7.837-7.854c0.007-4.336,3.534-7.855,7.86-7.838
			c4.338,0.016,7.844,3.536,7.832,7.861C90.201,56.893,86.683,60.401,82.36,60.39z"/>
		<g>
			<g>
				
					<linearGradient id="SVGID_16_" gradientUnits="userSpaceOnUse" x1="388.4707" y1="1983.2405" x2="406.6621" y2="1983.2405" gradientTransform="matrix(1 0 0 1 -315.1992 -1930.6953)">
					<stop  offset="0" style="stop-color:#E6E6E6"/>
					<stop  offset="0.5398" style="stop-color:#FFFFFF"/>
					<stop  offset="1" style="stop-color:#C8C8C8"/>
				</linearGradient>
				<path fill="url(#SVGID_16_)" d="M82.378,61.638h-0.022c-5.017-0.008-9.09-4.089-9.084-9.103c0.01-5.01,4.078-9.085,9.08-9.085
					c5.051,0.018,9.124,4.104,9.11,9.11C91.445,57.567,87.37,61.638,82.378,61.638z M82.386,44.308
					c-4.558,0-8.244,3.691-8.252,8.228s3.685,8.236,8.227,8.242l0.021,0.229v-0.229c4.52,0,8.211-3.687,8.226-8.224
					C90.618,48.028,86.932,44.328,82.386,44.308z M81.661,59.364c-0.072,0-0.141-0.016-0.198-0.027l-0.069-0.017
					c-1.104-0.168-2.098-0.57-2.967-1.184c-1.028-0.732-1.81-1.688-2.32-2.838c-0.275-0.618-0.46-1.299-0.549-2.017
					c-0.015-0.113,0.009-0.204,0.067-0.271c0.061-0.068,0.144-0.101,0.246-0.101l0.027,0.001c0.15,0.009,0.278-0.002,0.362-0.045
					c0.16-0.078,0.233-0.236,0.193-0.418c-0.029-0.138-0.196-0.256-0.376-0.269c-0.023,0-0.041,0.004-0.062,0.008
					c-0.236,0.026-0.373-0.072-0.412-0.141c-0.083-0.13-0.056-0.284-0.028-0.391c0.005-0.024,0.01-0.046,0.015-0.07
					c0.166-1.082,0.556-2.065,1.153-2.927c0.733-1.045,1.687-1.836,2.835-2.352c0.633-0.285,1.323-0.475,2.052-0.565l0.067-0.006
					c0.115,0,0.189,0.049,0.229,0.09c0.093,0.1,0.083,0.22,0.079,0.265c-0.008,0.15-0.004,0.265,0.051,0.356
					c0.077,0.155,0.244,0.228,0.422,0.187c0.131-0.031,0.243-0.194,0.259-0.37c0-0.021-0.003-0.043-0.004-0.063
					c-0.015-0.102-0.038-0.308,0.147-0.423c0.113-0.066,0.271-0.05,0.393-0.021c0.023,0.005,0.047,0.011,0.069,0.014
					c1.104,0.172,2.104,0.577,2.967,1.188c1.025,0.729,1.812,1.688,2.329,2.852c0.223,0.498,0.518,1.539,0.541,2.029
					c0.023,0.108-0.016,0.186-0.051,0.23c-0.086,0.113-0.221,0.113-0.263,0.113l-0.06-0.001c-0.064,0-0.128,0.001-0.188,0.013
					c-0.22,0.031-0.346,0.157-0.348,0.341c-0.007,0.195,0.124,0.334,0.345,0.375l0.023,0.229l0.031-0.225
					c0.021,0,0.04-0.004,0.06-0.005c0.229-0.024,0.36,0.075,0.402,0.143c0.08,0.129,0.046,0.281,0.023,0.392l-0.016,0.066
					c-0.161,1.084-0.552,2.065-1.151,2.929c-0.733,1.044-1.684,1.836-2.834,2.354c-0.629,0.283-1.317,0.475-2.053,0.563
					l-0.064,0.007c-0.115,0-0.187-0.05-0.225-0.091c-0.091-0.096-0.087-0.219-0.083-0.264c0.005-0.149,0.002-0.264-0.048-0.356
					c-0.079-0.159-0.246-0.229-0.421-0.187c-0.131,0.027-0.245,0.194-0.263,0.371c0,0.019,0.002,0.042,0.006,0.065
					c0.016,0.098,0.037,0.301-0.148,0.419C81.798,59.347,81.736,59.364,81.661,59.364z M76.028,53.365
					c0.091,0.624,0.255,1.213,0.493,1.747c0.478,1.071,1.207,1.963,2.169,2.649c0.807,0.574,1.737,0.947,2.774,1.108
					c0.024,0.006,0.056,0.01,0.081,0.018c0-0.033-0.003-0.065,0-0.097c0.033-0.384,0.286-0.7,0.613-0.777
					c0.371-0.087,0.751,0.082,0.927,0.417c0.08,0.148,0.1,0.301,0.101,0.45c0.64-0.09,1.239-0.261,1.783-0.507
					c1.074-0.483,1.962-1.223,2.65-2.202c0.557-0.802,0.919-1.719,1.078-2.732c0.005-0.023,0.006-0.051,0.012-0.076
					c-0.01,0-0.024,0.001-0.035,0.001l-0.145-0.017c-0.434-0.074-0.724-0.408-0.713-0.827c0.006-0.406,0.292-0.714,0.726-0.779
					c0.058-0.011,0.115-0.016,0.168-0.017c-0.056-0.449-0.291-1.295-0.489-1.732c-0.482-1.087-1.219-1.985-2.179-2.667
					c-0.807-0.577-1.74-0.947-2.772-1.11c-0.027-0.004-0.058-0.008-0.086-0.015c0.003,0.031,0.003,0.066,0.002,0.099
					c-0.035,0.376-0.284,0.695-0.614,0.775c-0.371,0.086-0.75-0.083-0.924-0.424c-0.081-0.146-0.101-0.299-0.103-0.444
					c-0.639,0.093-1.235,0.26-1.783,0.509c-1.071,0.48-1.961,1.221-2.647,2.199c-0.561,0.802-0.923,1.722-1.077,2.733
					c-0.004,0.022-0.011,0.051-0.018,0.077c0.02-0.001,0.035-0.002,0.055-0.002c0.418,0.027,0.747,0.29,0.818,0.621
					c0.082,0.386-0.086,0.747-0.434,0.923C76.307,53.351,76.146,53.364,76.028,53.365z"/>
				<path fill="#777266" d="M82.358,60.955c-4.645-0.014-8.405-3.781-8.401-8.42c0.008-4.646,3.791-8.422,8.431-8.402
					c4.647,0.018,8.405,3.79,8.395,8.426C90.765,57.204,86.993,60.965,82.358,60.955z M88.913,51.869
					c-0.012-0.431-0.299-1.466-0.517-1.955c-0.503-1.117-1.244-2.034-2.24-2.742c-0.857-0.612-1.817-0.979-2.853-1.141
					c-0.105-0.018-0.235-0.066-0.307-0.023c-0.091,0.059-0.028,0.202-0.037,0.309c-0.022,0.272-0.204,0.514-0.434,0.57
					c-0.273,0.065-0.541-0.055-0.672-0.3c-0.074-0.149-0.076-0.314-0.069-0.471c0.006-0.094-0.021-0.129-0.12-0.116
					c-0.685,0.086-1.339,0.261-1.975,0.544c-1.116,0.5-2.023,1.26-2.724,2.262c-0.592,0.852-0.949,1.793-1.107,2.814
					c-0.015,0.104-0.062,0.236-0.019,0.307c0.049,0.081,0.194,0.023,0.296,0.024c0.281,0.022,0.527,0.209,0.578,0.442
					c0.062,0.28-0.06,0.541-0.312,0.667c-0.146,0.076-0.311,0.076-0.472,0.071c-0.085-0.007-0.117,0.017-0.106,0.108
					c0.083,0.671,0.255,1.326,0.529,1.946c0.493,1.112,1.24,2.021,2.232,2.728c0.858,0.613,1.817,0.98,2.852,1.141
					c0.103,0.019,0.236,0.066,0.307,0.023c0.089-0.055,0.025-0.201,0.037-0.307c0.023-0.272,0.201-0.516,0.433-0.569
					c0.274-0.066,0.543,0.052,0.673,0.298c0.077,0.149,0.077,0.312,0.068,0.474c-0.005,0.094,0.017,0.126,0.121,0.113
					c0.685-0.085,1.343-0.258,1.971-0.543c1.119-0.496,2.022-1.259,2.727-2.265c0.59-0.846,0.951-1.789,1.108-2.812
					c0.017-0.103,0.062-0.233,0.02-0.302c-0.049-0.083-0.196-0.021-0.296-0.029c-0.023-0.003-0.044-0.003-0.067-0.011
					c-0.328-0.058-0.535-0.292-0.529-0.598c0.005-0.29,0.21-0.505,0.532-0.555c0.092-0.018,0.188-0.018,0.28-0.016
					C88.895,51.954,88.931,51.941,88.913,51.869z"/>
			</g>
			<g>
				<path fill="#777266" d="M85.354,56.119c-0.146,0.002-0.254-0.067-0.36-0.16c-0.802-0.717-1.601-1.432-2.4-2.147
					c-0.084-0.078-0.166-0.117-0.283-0.12c-0.459-0.013-0.883-0.329-1.024-0.75c-0.163-0.476-0.036-0.968,0.341-1.272
					c0.115-0.09,0.152-0.183,0.156-0.321c0.044-0.986,0.099-1.974,0.15-2.959c0.014-0.278,0.2-0.467,0.445-0.464
					c0.237,0.006,0.408,0.199,0.425,0.481c0.043,0.992,0.087,1.98,0.124,2.976c0.006,0.11,0.035,0.179,0.124,0.242
					c0.279,0.206,0.439,0.484,0.463,0.837c0.006,0.084,0.043,0.146,0.097,0.204c0.729,0.829,1.459,1.664,2.19,2.491
					c0.153,0.175,0.21,0.369,0.108,0.583C85.797,55.964,85.616,56.104,85.354,56.119z"/>
				
					<linearGradient id="SVGID_17_" gradientUnits="userSpaceOnUse" x1="396.2041" y1="1982.717" x2="401.3691" y2="1982.717" gradientTransform="matrix(1 0 0 1 -315.1992 -1930.6953)">
					<stop  offset="0" style="stop-color:#E6E6E6"/>
					<stop  offset="0.5398" style="stop-color:#FFFFFF"/>
					<stop  offset="1" style="stop-color:#C8C8C8"/>
				</linearGradient>
				<path fill="url(#SVGID_17_)" d="M85.342,56.327c-0.229,0-0.392-0.119-0.491-0.207l-0.898-0.807
					c-0.498-0.445-0.999-0.896-1.499-1.348c-0.055-0.046-0.09-0.061-0.147-0.062c-0.545-0.02-1.046-0.386-1.22-0.895
					c-0.194-0.572-0.034-1.148,0.408-1.505c0.058-0.043,0.073-0.072,0.08-0.167c0.043-0.985,0.095-1.968,0.149-2.951
					c0.021-0.393,0.294-0.672,0.642-0.672c0.368,0.014,0.627,0.293,0.645,0.684c0.045,0.991,0.088,1.983,0.124,2.974
					c0.002,0.052,0.011,0.061,0.045,0.081c0.334,0.248,0.519,0.592,0.547,0.994c0,0.019,0.003,0.032,0.042,0.074l2.188,2.491
					c0.285,0.321,0.233,0.62,0.139,0.812c-0.149,0.313-0.403,0.486-0.731,0.503H85.342L85.342,56.327z M82.369,48.133
					c-0.129,0-0.217,0.106-0.224,0.264c-0.057,0.992-0.107,1.973-0.153,2.957c-0.009,0.208-0.075,0.352-0.232,0.479
					c-0.302,0.245-0.413,0.645-0.275,1.042c0.116,0.341,0.462,0.593,0.828,0.607c0.165,0.003,0.296,0.06,0.421,0.171
					c0.502,0.449,0.998,0.9,1.501,1.345l0.9,0.807c0.078,0.073,0.14,0.103,0.208,0.103v0.212l0.006-0.212
					c0.169-0.011,0.289-0.094,0.371-0.264c0.044-0.09,0.063-0.192-0.074-0.352l-2.188-2.49c-0.063-0.071-0.141-0.172-0.146-0.327
					c-0.023-0.288-0.144-0.507-0.378-0.683c-0.141-0.102-0.206-0.224-0.214-0.4c-0.039-0.99-0.079-1.983-0.125-2.975
					C82.585,48.281,82.523,48.139,82.369,48.133z"/>
			</g>
		</g>
		<path fill="#777266" d="M75.236,35.055c0-0.933,0.758-1.689,1.689-1.689h0.866c0.933,0,1.689,0.759,1.689,1.689v3.996
			c0,0.933-0.761,1.684-1.689,1.684h-0.866c-0.934,0-1.689-0.754-1.689-1.684V35.055z"/>
		
			<linearGradient id="SVGID_18_" gradientUnits="userSpaceOnUse" x1="390.2227" y1="1967.7483" x2="394.8945" y2="1967.7483" gradientTransform="matrix(1 0 0 1 -315.1992 -1930.6953)">
			<stop  offset="0" style="stop-color:#E6E6E6"/>
			<stop  offset="0.5398" style="stop-color:#FFFFFF"/>
			<stop  offset="1" style="stop-color:#C8C8C8"/>
		</linearGradient>
		<path fill="url(#SVGID_18_)" d="M77.792,40.95h-0.866c-1.047,0-1.902-0.854-1.902-1.898v-3.996c0-1.047,0.854-1.899,1.902-1.899
			h0.866c1.047,0,1.903,0.852,1.903,1.899v3.996C79.695,40.099,78.839,40.95,77.792,40.95z M76.926,33.578
			c-0.814,0-1.48,0.661-1.48,1.477v3.996c0,0.813,0.666,1.477,1.48,1.477h0.868c0.814,0,1.478-0.664,1.478-1.477v-3.996
			c0-0.816-0.661-1.477-1.478-1.477H76.926z"/>
		<path fill="#777266" d="M60.836,35.055c0-0.933,0.76-1.689,1.69-1.689h0.865c0.935,0,1.689,0.759,1.689,1.689v3.996
			c0,0.933-0.761,1.684-1.689,1.684h-0.865c-0.934,0-1.69-0.754-1.69-1.684V35.055z"/>
		
			<linearGradient id="SVGID_19_" gradientUnits="userSpaceOnUse" x1="375.8242" y1="1967.7483" x2="380.4941" y2="1967.7483" gradientTransform="matrix(1 0 0 1 -315.1992 -1930.6953)">
			<stop  offset="0" style="stop-color:#E6E6E6"/>
			<stop  offset="0.5398" style="stop-color:#FFFFFF"/>
			<stop  offset="1" style="stop-color:#C8C8C8"/>
		</linearGradient>
		<path fill="url(#SVGID_19_)" d="M63.392,40.95h-0.867c-1.046,0-1.899-0.854-1.899-1.898v-3.996c0-1.047,0.852-1.899,1.899-1.899
			h0.867c1.046,0,1.902,0.852,1.902,1.899v3.996C65.294,40.099,64.439,40.95,63.392,40.95z M62.526,33.578
			c-0.814,0-1.478,0.661-1.478,1.477v3.996c0,0.813,0.663,1.477,1.478,1.477h0.867c0.812,0,1.481-0.664,1.481-1.477v-3.996
			c0-0.816-0.669-1.477-1.481-1.477H62.526z"/>
		<path opacity="0.6" fill="#C1BAAC" enable-background="new    " d="M63.271,35.136c0.631,0,1.197,0.259,1.603,0.679
			c0.172-1.701-0.639-2.21-1.517-2.259h-0.782c-0.844,0-1.525,0.682-1.525,1.525v2.276C61.049,36.131,62.044,35.136,63.271,35.136z"
			/>
		<path opacity="0.6" fill="#C1BAAC" enable-background="new    " d="M77.66,35.136c0.626,0,1.197,0.259,1.601,0.679
			c0.168-1.701-0.636-2.21-1.517-2.259h-0.782c-0.841,0-1.526,0.682-1.526,1.525v2.276C75.436,36.131,76.43,35.136,77.66,35.136z"/>
		<rect x="59.207" y="42.875" fill="#777266" width="15.826" height="2.419"/>
		<rect x="59.207" y="47.287" fill="#777266" width="11.494" height="2.419"/>
		<rect x="59.309" y="51.827" fill="#777266" width="6.575" height="2.418"/>
	</g>
</g>
</svg>
