<?xml version="1.0" encoding="utf-8"?>
<!-- Generator: Adobe Illustrator 16.0.0, SVG Export Plug-In . SVG Version: 6.00 Build 0)  -->
<!DOCTYPE svg PUBLIC "-//W3C//DTD SVG 1.1//EN" "http://www.w3.org/Graphics/SVG/1.1/DTD/svg11.dtd">
<svg version="1.1" id="Layer_1" xmlns="http://www.w3.org/2000/svg" xmlns:xlink="http://www.w3.org/1999/xlink" x="0px" y="0px"
	 width="110.5px" height="84.559px" viewBox="0 0 110.5 84.559" enable-background="new 0 0 110.5 84.559" xml:space="preserve">
<g>
	<g>
		
			<linearGradient id="SVGID_1_" gradientUnits="userSpaceOnUse" x1="170.0215" y1="1119.6809" x2="249.4844" y2="1119.6809" gradientTransform="matrix(1 0 0 1 -157.6548 -1085.8184)">
			<stop  offset="0" style="stop-color:#E6E6E6"/>
			<stop  offset="0.5398" style="stop-color:#FFFFFF"/>
			<stop  offset="1" style="stop-color:#C8C8C8"/>
		</linearGradient>
		<path fill="url(#SVGID_1_)" d="M90.098,30.703c-1.574-2.56-5.628-5.178-7.852-6.488c0.85,0.089,1.912-0.012,1.912-0.012
			c2.186,0,2.998-1.51,2.998-2.842c0-1.927-2.747-2.004-2.747-2.004s-2.172,0-3.129,0c-1.787,0-1.588,0.888-1.456,1.789
			c-2.015-4.018-5.807-9.176-8.709-11.107c-0.812-0.537-1.846-0.553-1.846-0.553c-6.92-0.513-15.738-0.558-17.17-0.558
			c-1.435,0-10.252,0.045-17.169,0.558c0,0-1.038,0.01-1.848,0.553c-2.904,1.934-6.694,7.088-8.708,11.107
			c0.129-0.902,0.33-1.789-1.457-1.789c-0.964,0-3.129,0-3.129,0s-2.747,0.077-2.747,2.004c0,1.333,0.811,2.842,2.993,2.842
			c0,0,1.069,0.102,1.914,0.012c-2.221,1.304-6.276,3.923-7.85,6.488c-1.161,1.892-1.766,10.28-1.732,13.293
			c0.035,3.013,0.474,8.911,0.596,12.015c0.078,2.044,0.861,2.786,2.704,2.786h10.536c3.664,0,3.158-3.78,3.158-3.78
			c3.56-0.14,4.249,0.372,5.54,0.615c1.294,0.248,8.214,0.527,8.214,0.527l8.981,0.049l8.986-0.049c0,0,6.922-0.279,8.215-0.527
			c1.294-0.243,1.977-0.755,5.534-0.615c0,0-0.503,3.78,3.165,3.78h10.533c1.849,0,2.626-0.742,2.709-2.786
			c0.116-3.104,0.562-9.002,0.589-12.015C91.864,40.993,91.26,32.596,90.098,30.703z"/>
		<path fill="#777266" d="M89.245,30.803c-2.156-3.503-9.076-7.114-9.076-7.114h3.227c2.12,0,2.993-0.649,2.993-1.945
			c0-1.866-2.667-1.938-2.667-1.938s-1.1-0.007-2.036,0c-0.932,0.006-1.522,0.151-1.522,0.986c0,0.573,0,1.099,0,1.099
			c-0.021,0.352-0.536,0.357-0.536,0.357c-1.837-3.964-5.802-9.487-8.792-11.479c-0.788-0.526-1.796-0.538-1.796-0.538
			c-7.313-0.541-16.86-0.541-16.86-0.541c-0.021,0-0.057,0-0.084,0c-0.023,0-0.061,0-0.08,0c0,0-9.544,0-16.863,0.541
			c0,0-1.003,0.012-1.792,0.538c-2.995,1.991-6.956,7.51-8.793,11.479c0,0-0.518-0.011-0.534-0.357c0,0,0-0.526,0-1.099
			c0-0.834-0.595-0.978-1.527-0.986c-0.933-0.007-2.036,0-2.036,0s-2.666,0.072-2.666,1.938c0,1.296,0.872,1.945,2.99,1.945h3.229
			c0,0-6.919,3.61-9.079,7.114c-1.124,1.829-1.712,9.969-1.674,12.889c0.034,2.915,0.455,8.637,0.574,11.651
			c0.074,1.976,0.833,2.692,2.621,2.692h8.969c3.554,0,3.066-3.664,3.066-3.664c3.45-0.134,5.364,0.36,6.617,0.599
			c1.254,0.239,7.965,0.508,7.965,0.508l8.882,0.051h0.125h0.124l8.886-0.051c0,0,6.709-0.269,7.967-0.508
			c1.252-0.236,3.164-0.735,6.616-0.599c0,0-0.485,3.664,3.063,3.664h8.97c1.787,0,2.548-0.717,2.621-2.692
			c0.116-3.012,0.544-8.736,0.576-11.651C90.956,40.772,90.369,32.632,89.245,30.803z M28.255,20.299
			c0.541-1.084,4.734-7.803,6.634-8.426c0.918-0.306,4.957-0.466,8.879-0.557c0.143,0.273,0.394,0.577,0.822,0.596
			c0.772,0.027,2.378,0.092,2.378,0.092s0.222,0.479,0.819,0.562c0.602,0.082,2.167,0.34,2.329,0.423
			c0.157,0.079-0.022,0.436-0.022,0.436s-1.263,0.019-2.241,0.078c-0.505,0.036-0.584,1.462-0.521,1.662
			c0.062,0.2,0.279,0.162,0.279,0.162l2.603,0.118h1.169h1.174l2.598-0.118c0,0,0.225,0.039,0.279-0.162
			c0.062-0.201-0.013-1.626-0.52-1.662c-0.975-0.061-2.24-0.078-2.24-0.078s-0.179-0.357-0.018-0.436
			c0.162-0.083,1.728-0.342,2.326-0.423c0.598-0.083,0.822-0.562,0.822-0.562s1.605-0.064,2.377-0.092
			c0.441-0.02,0.699-0.349,0.838-0.624c4.312,0.078,9.271,0.242,10.304,0.584c1.896,0.623,6.09,7.341,6.632,8.426
			c0.773,1.57,0.593,2.269-0.761,2.207c-0.337-0.015-1.455-0.06-3.065-0.125c-0.228-0.265-0.656-0.723-1.046-0.831
			c-1.337-0.363-2.438-0.521-2.438-0.521s0.282-0.22,0.163-0.706c-0.117-0.487-0.767-3.163-0.938-3.952
			c-0.169-0.784-0.569-1.533-1.505-1.533c-0.94,0-3.106,0-3.106,0s-0.779,0-0.835,0.27c-0.439-0.039-0.596,0.41-0.596,0.41
			l-1.296,2.43c0,0-0.173,0.072-0.832,0.079c-0.658,0-0.738,0.714-0.873,1.038c-0.19,0.472-0.459,1.381-0.459,1.381l-3.427,0.175
			c0,0-0.025-0.701-1.048-0.712c-1.02-0.012-4.706,0.054-4.99,0.067c-0.285,0.004-0.746,0.126-0.854,0.38
			c-0.114,0.266-0.215,0.368-0.215,0.368s0-0.172-0.343-0.172c-0.348,0-2.764,0-2.764,0l-0.278-0.82c0,0-0.059-1.548-1.338-1.682
			c-0.601-0.059-1.098-0.074-1.098-0.074l-0.004-0.018c0,0-0.203-0.657-0.516-1.412c-0.315-0.752-0.492-1.4-1.423-1.422
			c-0.933-0.018-3.816-0.106-4.096,0.042c-0.278,0.15-0.433,0.345-0.433,0.345s-0.428,0.156-0.559,0.517
			c-0.727,1.966-1.225,3.424-1.184,5.129c0.006,0.253,0.109,0.283,0.163,0.283c-0.158,0.017-1.842,0.229-2.253,0.473
			c-0.213,0.125-0.445,0.335-0.628,0.512c-1.062,0.042-1.797,0.076-2.062,0.082C27.664,22.569,27.479,21.871,28.255,20.299z
			 M47.445,42.568c-2.256,0-4.054,0-6.061,0c-2.006,0-8.628-1.204-8.575-5.015c-2.077,0.004-8.095,0.122-11.878,0.258
			c-2.991,0.108-4.107-0.059-4.006-1.631c-2.637,0-1.833-3.128-1.322-4.903c0.511-1.78,3.88-0.681,5.643-0.154
			c1.767,0.527,9.398,2.565,10.047,2.739c0.654,0.175,1.135,0.253,1.408,0.767c0.252-1.25,0.677-2.461,4.374-2.461
			c1.511,0,6.058,0,8.916,0s4.114,0.152,4.636,1.336c0,0,0.576,2.375,0.576,5.146C51.2,41.428,49.701,42.568,47.445,42.568z
			 M52.1,31.26c-1.322,0-2.391-0.543-2.391-1.218c0-0.674,1.069-1.218,2.391-1.218c1.324,0,2.396,0.545,2.396,1.218
			C54.497,30.716,53.422,31.26,52.1,31.26z M87.274,36.184c0.104,1.573-1.013,1.734-4.003,1.626
			c-3.782-0.136-9.797-0.254-11.877-0.258c0.054,3.809-6.566,5.015-8.575,5.015c-2.006,0-3.805,0-6.063,0
			c-2.258,0-3.756-1.135-3.756-3.911c0-2.775,0.575-5.15,0.575-5.15c0.524-1.181,1.773-1.335,4.636-1.335c2.86,0,7.405,0,8.916,0
			c3.7,0,4.122,1.209,4.374,2.464c0.272-0.519,0.754-0.597,1.405-0.763c0.65-0.178,8.285-2.217,10.047-2.74
			c1.766-0.527,5.13-1.627,5.646,0.144C89.11,33.053,89.916,36.184,87.274,36.184z"/>
		
			<linearGradient id="SVGID_2_" gradientUnits="userSpaceOnUse" x1="172.7305" y1="1122.2522" x2="208.8574" y2="1122.2522" gradientTransform="matrix(1 0 0 1 -157.6548 -1085.8184)">
			<stop  offset="0" style="stop-color:#FFFFFF"/>
			<stop  offset="1" style="stop-color:#C8C8C8"/>
		</linearGradient>
		<path fill="url(#SVGID_2_)" d="M47.445,42.568c-2.256,0-4.054,0-6.061,0c-2.006,0-8.628-1.204-8.575-5.015
			c-2.077,0.004-8.095,0.122-11.878,0.258c-2.991,0.108-4.107-0.059-4.006-1.631c-2.637,0-1.833-3.128-1.322-4.903
			c0.511-1.78,3.88-0.681,5.643-0.154c1.767,0.527,9.398,2.565,10.047,2.739c0.654,0.175,1.135,0.253,1.408,0.767
			c0.252-1.25,0.677-2.461,4.374-2.461c1.511,0,6.058,0,8.916,0s4.114,0.152,4.636,1.336c0,0,0.576,2.375,0.576,5.146
			C51.2,41.428,49.701,42.568,47.445,42.568z"/>
		<ellipse opacity="0.1" fill="#A0A0A0" enable-background="new    " cx="52.1" cy="30.042" rx="2.396" ry="1.218"/>
		
			<linearGradient id="SVGID_3_" gradientUnits="userSpaceOnUse" x1="203.3447" y1="1122.2561" x2="239.4727" y2="1122.2561" gradientTransform="matrix(1 0 0 1 -157.6548 -1085.8184)">
			<stop  offset="0" style="stop-color:#FFFFFF"/>
			<stop  offset="1" style="stop-color:#C8C8C8"/>
		</linearGradient>
		<path fill="url(#SVGID_3_)" d="M87.274,36.184c0.104,1.573-1.013,1.734-4.003,1.626c-3.782-0.136-9.797-0.254-11.877-0.258
			c0.054,3.809-6.566,5.015-8.575,5.015c-2.006,0-3.805,0-6.063,0c-2.258,0-3.756-1.135-3.756-3.911c0-2.775,0.575-5.15,0.575-5.15
			c0.524-1.181,1.773-1.335,4.636-1.335c2.86,0,7.405,0,8.916,0c3.7,0,4.122,1.209,4.374,2.464c0.272-0.519,0.754-0.597,1.405-0.763
			c0.65-0.178,8.285-2.217,10.047-2.74c1.766-0.527,5.13-1.627,5.646,0.144C89.11,33.053,89.916,36.184,87.274,36.184z"/>
		<path opacity="0.6" fill="#C1BAAC" enable-background="new    " d="M14.957,30.803c3.61-2.892,10.006-2.892,14.775-2.892
			c0.795,0,4.51-3.61,5.201-3.732c-1.204,0.802-2.277,3.688-1.949,3.704c4.425,0.171,24.472-0.617,32.91-1.933
			c0.357-0.057,0.471-1.197-1.352-1.998c1.978,0.609,2.981,1.718,3.271,1.663c6.971-1.298,8.968-1.727,11.806-1.436
			c-3.848-0.91-14.39-1.661-26.622-1.661c-7.735,0-25.192,0.317-27.123,1.131c-1.93,0.81-4.03,1.154-5.785,2.433
			C18.331,27.361,15.456,29.46,14.957,30.803z"/>
		
			<linearGradient id="SVGID_4_" gradientUnits="userSpaceOnUse" x1="185.4531" y1="1102.677" x2="234.0674" y2="1102.677" gradientTransform="matrix(1 0 0 1 -157.6548 -1085.8184)">
			<stop  offset="0" style="stop-color:#FFFFFF"/>
			<stop  offset="1" style="stop-color:#C8C8C8"/>
		</linearGradient>
		<path opacity="0.3" fill="url(#SVGID_4_)" enable-background="new    " d="M28.255,20.299c0.541-1.084,4.734-7.803,6.634-8.426
			c1.894-0.62,17.088-0.663,17.088-0.663s0.049,0,0.124,0c0.086,0,0.133,0,0.133,0s15.189,0.036,17.086,0.663
			c1.898,0.623,6.092,7.341,6.634,8.426c0.773,1.57,0.593,2.269-0.761,2.207c-1.354-0.053-15.072-0.653-22.96-0.538
			c-0.045,0-0.084,0-0.128,0c-0.042,0-0.08,0-0.125,0c-7.893-0.116-21.606,0.485-22.961,0.538
			C27.664,22.569,27.479,21.871,28.255,20.299z"/>
		<path fill="#777266" d="M37.003,32.985c2.042,0.03,9.045,0.212,10.286,0.316c1.237,0.106,2.275,0.512,2.421,2.347
			c0.145,1.836,0.552,4.181-0.772,5.048c-1.326,0.862-6.22,0.667-8.159,0.458c-1.938-0.208-6.321-1.122-6.629-2.854
			c-0.305-1.733-0.509-3.161,0-3.976C34.659,33.507,35.479,32.964,37.003,32.985z"/>
		<path fill="#777266" d="M67.376,32.985c-2.039,0.03-9.048,0.212-10.285,0.316c-1.239,0.106-2.273,0.512-2.423,2.347
			c-0.146,1.836-0.552,4.181,0.775,5.048c1.323,0.862,6.221,0.667,8.157,0.458c1.938-0.208,6.321-1.122,6.629-2.854
			c0.306-1.734,0.512-3.161,0-3.976C69.72,33.507,68.9,32.964,67.376,32.985z"/>
		
			<linearGradient id="SVGID_5_" gradientUnits="userSpaceOnUse" x1="174.4033" y1="-821.9319" x2="244.9893" y2="-821.9319" gradientTransform="matrix(1 0 0 -1 -157.5996 -774.6772)">
			<stop  offset="0" style="stop-color:#FFFFFF"/>
			<stop  offset="1" style="stop-color:#C8C8C8"/>
		</linearGradient>
		<path fill="url(#SVGID_5_)" d="M84.731,43.459c-1.229,0.05-3.796,0.352-8.142,0.757s-7.459,0.859-8.181,2.227l-16.313,0.071
			l-16.31-0.071c-0.718-1.367-3.833-1.821-8.181-2.227c-4.347-0.405-6.915-0.707-8.141-0.757c-1.231-0.052-2.75-0.368-2.657,2.02
			c0.094,2.393,0.294,4.016,2.969,4.327c2.676,0.315,7.444,0.591,10.283,0.804c2.839,0.217,6.763,0.712,6.445-0.525
			c2.743-0.119,1.111,0.921,3.254,0.983c2.136,0.055,12.334,0,12.334,0s10.201,0.055,12.341,0c2.136-0.062,0.511-1.103,3.252-0.983
			c-0.318,1.237,3.601,0.742,6.443,0.525c2.843-0.213,7.607-0.487,10.285-0.804c2.678-0.314,2.879-1.935,2.97-4.327
			C87.479,43.091,85.96,43.407,84.731,43.459z"/>
	</g>
	<line fill="none" x1="40.289" y1="45.22" x2="40.289" y2="41.993"/>
	<path fill="#777266" d="M95.478,32.614h-3.692v-0.531c0-1.074-0.89-2.26-1.964-2.26h-2.011c-1.075,0-1.945,1.186-1.945,2.26v0.692
		h-10.4v-1.009c0-1.074-0.95-1.943-2.027-1.943h-1.818c-1.071,0-1.942,1.186-1.942,2.26v0.734h-4.271
		c-1.142,0-2.069,1.353-2.069,2.496v23.5c0,1.143,0.928,2.253,2.069,2.253h30.071c1.145,0,2.656-0.89,2.656-2.579V35.313
		C98.134,34.17,97.348,32.614,95.478,32.614z"/>
	<g>
		<g>
			<linearGradient id="SVGID_6_" gradientUnits="userSpaceOnUse" x1="63.9814" y1="46.7415" x2="97.3477" y2="46.7415">
				<stop  offset="0" style="stop-color:#FFFFFF"/>
				<stop  offset="1" style="stop-color:#C8C8C8"/>
			</linearGradient>
			<path fill="url(#SVGID_6_)" d="M97.348,58.199c0,1.116-0.903,2.02-2.02,2.02h-29.33c-1.114,0-2.017-0.903-2.017-2.02V35.282
				c0-1.115,0.902-2.019,2.017-2.019h29.33c1.116,0,2.02,0.903,2.02,2.019V58.199z"/>
		</g>
	</g>
	<path fill="#777266" d="M67.365,40.982v15.911h26.599V40.982H67.365z M74.103,55.811h-5.7V51.09h5.7V55.811L74.103,55.811z
		 M74.103,50.408h-5.7v-4.723h5.7V50.408L74.103,50.408z M80.377,55.811h-5.7V51.09h5.7V55.811z M80.377,50.408h-5.7v-4.723h5.7
		V50.408z M86.651,55.811h-5.7V51.09h5.7V55.811z M86.651,50.408h-5.7v-4.723h5.7V50.408z M92.923,55.811h-5.7V51.09h5.7V55.811
		L92.923,55.811z M92.923,50.408h-5.7v-4.723h5.7V50.408L92.923,50.408z"/>
	<g>
		<path fill="#777266" d="M80.213,45.331c0.008,0.041,0.015,0.07,0.015,0.087c0,0.024-0.015,0.04-0.05,0.048
			c-0.098,0.015-0.152,0.024-0.158,0.029c-0.096,0.027-0.236,0.112-0.418,0.262c-0.187,0.15-0.334,0.293-0.451,0.435
			c-0.216,0.269-0.433,0.614-0.647,1.037c-0.236,0.46-0.388,0.854-0.452,1.181c-0.005,0.021-0.024,0.167-0.059,0.438
			c-0.021,0.142-0.05,0.22-0.087,0.237c-0.135,0.061-0.236,0.092-0.31,0.092c-0.029,0-0.048-0.032-0.055-0.096
			c-0.02-0.111-0.037-0.192-0.054-0.241c-0.14-0.386-0.393-0.737-0.759-1.058c-0.171-0.151-0.304-0.252-0.391-0.3
			c-0.045-0.024-0.171-0.074-0.372-0.147c-0.061-0.021-0.091-0.061-0.091-0.119c0-0.032,0.011-0.057,0.03-0.077
			c0.054-0.064,0.144-0.169,0.26-0.312c0.071-0.085,0.144-0.155,0.213-0.213c0.036-0.03,0.066-0.045,0.093-0.045
			c0.017,0,0.054,0.013,0.108,0.038c0.177,0.086,0.364,0.22,0.563,0.405c0.201,0.184,0.336,0.35,0.409,0.506
			c0.044,0.092,0.081,0.141,0.11,0.141c0.041,0,0.089-0.068,0.146-0.21c0.054-0.13,0.193-0.363,0.414-0.693
			c0.221-0.332,0.404-0.582,0.552-0.753c0.522-0.601,0.903-0.978,1.146-1.131c0.026-0.015,0.05-0.026,0.068-0.026
			c0.042,0,0.085,0.052,0.122,0.151C80.134,45.05,80.167,45.163,80.213,45.331z"/>
	</g>
	<g>
		<path fill="#777266" d="M92.146,51.674c0.008,0.043,0.018,0.072,0.018,0.088c0,0.025-0.018,0.039-0.05,0.047
			c-0.098,0.016-0.151,0.026-0.16,0.029c-0.096,0.027-0.234,0.113-0.421,0.263c-0.184,0.151-0.333,0.293-0.448,0.434
			c-0.215,0.268-0.432,0.616-0.647,1.038c-0.237,0.458-0.389,0.854-0.455,1.179c-0.003,0.021-0.021,0.169-0.055,0.44
			c-0.019,0.14-0.05,0.219-0.091,0.237c-0.132,0.061-0.235,0.092-0.306,0.092c-0.027,0-0.048-0.033-0.057-0.097
			c-0.019-0.111-0.036-0.193-0.052-0.24c-0.14-0.387-0.394-0.738-0.759-1.059c-0.175-0.151-0.302-0.252-0.392-0.3
			c-0.045-0.024-0.17-0.071-0.374-0.146c-0.06-0.021-0.087-0.062-0.087-0.12c0-0.032,0.009-0.058,0.029-0.077
			c0.053-0.064,0.142-0.169,0.262-0.312c0.07-0.086,0.14-0.155,0.212-0.213c0.034-0.03,0.066-0.047,0.09-0.047
			c0.021,0,0.056,0.011,0.109,0.038c0.178,0.087,0.364,0.219,0.565,0.404c0.198,0.185,0.333,0.354,0.406,0.509
			c0.042,0.093,0.079,0.141,0.113,0.141c0.036,0,0.086-0.072,0.145-0.212c0.053-0.131,0.191-0.364,0.413-0.694
			c0.221-0.333,0.404-0.581,0.552-0.752c0.52-0.602,0.903-0.978,1.146-1.132c0.027-0.015,0.05-0.023,0.071-0.023
			c0.041,0,0.08,0.05,0.118,0.149C92.067,51.395,92.1,51.507,92.146,51.674z"/>
	</g>
	<g>
		<path fill="#777266" d="M74.933,36.619c0,1.049-0.85,1.9-1.898,1.9H72.06c-1.046,0-1.897-0.851-1.897-1.9v-4.486
			c0-1.047,0.852-1.898,1.897-1.898h0.975c1.049,0,1.898,0.851,1.898,1.898V36.619z"/>
		<path fill="#777266" d="M91.162,36.619c0,1.049-0.849,1.9-1.898,1.9h-0.975c-1.046,0-1.896-0.851-1.896-1.9v-4.486
			c0-1.047,0.85-1.898,1.896-1.898h0.975c1.05,0,1.898,0.851,1.898,1.898V36.619z"/>
	</g>
</g>
</svg>
