<?xml version="1.0" encoding="utf-8"?>
<!-- Generator: Adobe Illustrator 16.0.0, SVG Export Plug-In . SVG Version: 6.00 Build 0)  -->
<!DOCTYPE svg PUBLIC "-//W3C//DTD SVG 1.1//EN" "http://www.w3.org/Graphics/SVG/1.1/DTD/svg11.dtd">
<svg version="1.1" id="Layer_1" xmlns="http://www.w3.org/2000/svg" xmlns:xlink="http://www.w3.org/1999/xlink" x="0px" y="0px"
	 width="110.5px" height="84.559px" viewBox="0 0 110.5 84.559" enable-background="new 0 0 110.5 84.559" xml:space="preserve">
<g>
	<g>
		
			<linearGradient id="SVGID_1_" gradientUnits="userSpaceOnUse" x1="169.1113" y1="1119.5178" x2="248.5273" y2="1119.5178" gradientTransform="matrix(1 0 0 1 -157.6548 -1085.8184)">
			<stop  offset="0" style="stop-color:#E6E6E6"/>
			<stop  offset="0.5398" style="stop-color:#FFFFFF"/>
			<stop  offset="1" style="stop-color:#C8C8C8"/>
		</linearGradient>
		<path fill="url(#SVGID_1_)" d="M89.143,30.542c-1.574-2.558-5.626-5.175-7.848-6.484c0.85,0.089,1.91-0.012,1.91-0.012
			c2.184,0,2.997-1.509,2.997-2.84c0-1.926-2.747-2.003-2.747-2.003s-2.17,0-3.125,0c-1.788,0-1.588,0.888-1.457,1.789
			C76.861,16.975,73.07,11.82,70.17,9.89c-0.812-0.537-1.845-0.552-1.845-0.552c-6.916-0.513-15.729-0.558-17.159-0.558
			c-1.434,0-10.247,0.045-17.159,0.558c0,0-1.037,0.01-1.847,0.552c-2.902,1.932-6.69,7.084-8.703,11.101
			c0.129-0.902,0.33-1.789-1.456-1.789c-0.963,0-3.126,0-3.126,0s-2.746,0.077-2.746,2.003c0,1.332,0.81,2.84,2.991,2.84
			c0,0,1.069,0.102,1.913,0.012c-2.22,1.304-6.272,3.921-7.846,6.484c-1.159,1.891-1.765,10.275-1.73,13.286
			c0.035,3.011,0.474,8.905,0.596,12.008c0.078,2.043,0.86,2.784,2.702,2.784h10.53c3.661,0,3.156-3.778,3.156-3.778
			c3.558-0.14,4.246,0.372,5.537,0.615c1.293,0.249,8.209,0.526,8.209,0.526l8.978,0.049l8.978-0.049c0,0,6.918-0.277,8.211-0.526
			c1.294-0.243,1.976-0.755,5.531-0.615c0,0-0.503,3.778,3.163,3.778h10.527c1.848,0,2.625-0.741,2.707-2.784
			c0.117-3.103,0.56-8.997,0.589-12.008C90.907,40.825,90.303,32.434,89.143,30.542z"/>
		<path fill="#777266" d="M88.289,30.641c-2.154-3.501-9.07-7.109-9.07-7.109h3.225c2.118,0,2.992-0.648,2.992-1.944
			c0-1.865-2.666-1.937-2.666-1.937s-1.1-0.007-2.035,0c-0.932,0.007-1.523,0.15-1.523,0.985c0,0.573,0,1.099,0,1.099
			c-0.019,0.352-0.533,0.357-0.533,0.357c-1.836-3.962-5.8-9.481-8.788-11.472c-0.788-0.526-1.794-0.538-1.794-0.538
			c-7.31-0.54-16.85-0.54-16.85-0.54c-0.021,0-0.058,0-0.085,0c-0.023,0-0.061,0-0.079,0c0,0-9.539,0-16.854,0.54
			c0,0-1.002,0.012-1.79,0.538c-2.993,1.99-6.952,7.505-8.788,11.472c0,0-0.518-0.011-0.534-0.357c0,0,0-0.526,0-1.099
			c0-0.833-0.595-0.977-1.526-0.985c-0.932-0.007-2.035,0-2.035,0s-2.664,0.072-2.664,1.937c0,1.295,0.872,1.944,2.989,1.944h3.227
			c0,0-6.916,3.608-9.073,7.109c-1.123,1.828-1.711,9.963-1.673,12.881c0.034,2.913,0.454,8.632,0.574,11.645
			c0.074,1.976,0.832,2.691,2.62,2.691h8.963c3.552,0,3.064-3.663,3.064-3.663c3.449-0.133,5.361,0.36,6.613,0.599
			c1.254,0.239,7.96,0.507,7.96,0.507l8.875,0.051h0.126h0.126l8.88-0.051c0,0,6.705-0.268,7.96-0.507
			c1.253-0.235,3.165-0.733,6.614-0.599c0,0-0.485,3.663,3.062,3.663h8.964c1.786,0,2.545-0.716,2.62-2.691
			c0.117-3.01,0.543-8.731,0.576-11.645C90,40.604,89.413,32.469,88.289,30.641z M27.336,20.144c0.541-1.084,4.731-7.798,6.63-8.421
			c0.918-0.306,4.954-0.466,8.874-0.556c0.143,0.272,0.394,0.576,0.821,0.595c0.772,0.027,2.377,0.093,2.377,0.093
			s0.222,0.479,0.819,0.562c0.601,0.082,2.165,0.34,2.327,0.422c0.157,0.079-0.022,0.436-0.022,0.436s-1.262,0.02-2.24,0.078
			c-0.504,0.036-0.584,1.461-0.52,1.661c0.062,0.2,0.279,0.161,0.279,0.161l2.602,0.118h1.168h1.174l2.595-0.118
			c0,0,0.226,0.039,0.28-0.161c0.062-0.201-0.013-1.625-0.52-1.661c-0.975-0.061-2.237-0.078-2.237-0.078s-0.18-0.356-0.02-0.436
			c0.162-0.082,1.726-0.341,2.326-0.422c0.597-0.083,0.821-0.562,0.821-0.562s1.603-0.064,2.374-0.093
			c0.441-0.02,0.699-0.349,0.836-0.623c4.311,0.078,9.267,0.242,10.3,0.583c1.895,0.623,6.086,7.337,6.628,8.421
			c0.771,1.568,0.593,2.267-0.761,2.206c-0.338-0.015-1.456-0.061-3.064-0.126c-0.227-0.265-0.656-0.722-1.045-0.83
			c-1.336-0.363-2.436-0.521-2.436-0.521s0.281-0.219,0.162-0.705c-0.118-0.487-0.767-3.162-0.938-3.95
			c-0.17-0.783-0.57-1.532-1.506-1.532c-0.938,0-3.104,0-3.104,0s-0.777,0-0.833,0.27c-0.439-0.04-0.596,0.409-0.596,0.409
			l-1.295,2.428c0,0-0.174,0.072-0.831,0.079c-0.659,0-0.739,0.713-0.873,1.037c-0.19,0.471-0.458,1.38-0.458,1.38l-3.425,0.175
			c0,0-0.026-0.701-1.049-0.712c-1.019-0.012-4.703,0.054-4.987,0.067c-0.284,0.004-0.745,0.125-0.854,0.38
			c-0.114,0.266-0.215,0.368-0.215,0.368s0-0.172-0.343-0.172c-0.348,0-2.762,0-2.762,0l-0.278-0.82c0,0-0.059-1.547-1.337-1.681
			c-0.601-0.058-1.097-0.074-1.097-0.074l-0.005-0.018c0,0-0.203-0.656-0.516-1.411c-0.315-0.752-0.491-1.399-1.421-1.421
			c-0.932-0.018-3.814-0.105-4.093,0.043c-0.278,0.15-0.433,0.344-0.433,0.344s-0.427,0.156-0.559,0.516
			c-0.727,1.965-1.224,3.422-1.184,5.126c0.007,0.253,0.109,0.282,0.163,0.282c-0.158,0.018-1.841,0.229-2.252,0.473
			c-0.212,0.125-0.444,0.336-0.628,0.512c-1.062,0.042-1.796,0.076-2.06,0.082C26.745,22.412,26.56,21.715,27.336,20.144z
			 M46.514,42.4c-2.254,0-4.051,0-6.057,0c-2.005,0-8.624-1.203-8.57-5.013c-2.075,0.004-8.09,0.122-11.872,0.257
			c-2.989,0.108-4.105-0.058-4.003-1.629c-2.635,0-1.831-3.126-1.321-4.9c0.511-1.779,3.878-0.68,5.64-0.154
			c1.766,0.527,9.392,2.563,10.041,2.737c0.654,0.176,1.135,0.253,1.408,0.766c0.251-1.25,0.676-2.458,4.371-2.458
			c1.51,0,6.054,0,8.911,0c2.856,0,4.11,0.152,4.632,1.335c0,0,0.576,2.374,0.576,5.144C50.268,41.26,48.769,42.4,46.514,42.4z
			 M51.166,31.098c-1.321,0-2.389-0.543-2.389-1.217c0-0.674,1.069-1.218,2.389-1.218c1.325,0,2.396,0.545,2.396,1.218
			C53.562,30.554,52.487,31.098,51.166,31.098z M86.321,36.019c0.104,1.572-1.014,1.733-4.003,1.625
			c-3.779-0.135-9.791-0.253-11.869-0.257c0.055,3.807-6.563,5.013-8.569,5.013s-3.803,0-6.06,0c-2.258,0-3.755-1.135-3.755-3.909
			c0-2.773,0.575-5.146,0.575-5.146c0.523-1.181,1.773-1.335,4.634-1.335c2.857,0,7.4,0,8.909,0c3.698,0,4.121,1.209,4.372,2.462
			c0.272-0.518,0.754-0.596,1.404-0.762c0.65-0.176,8.28-2.216,10.041-2.739c1.764-0.526,5.128-1.625,5.643,0.145
			C88.153,32.891,88.96,36.019,86.321,36.019z"/>
		
			<linearGradient id="SVGID_2_" gradientUnits="userSpaceOnUse" x1="171.8193" y1="1122.0872" x2="207.9248" y2="1122.0872" gradientTransform="matrix(1 0 0 1 -157.6548 -1085.8184)">
			<stop  offset="0" style="stop-color:#FFFFFF"/>
			<stop  offset="1" style="stop-color:#C8C8C8"/>
		</linearGradient>
		<path fill="url(#SVGID_2_)" d="M46.514,42.4c-2.254,0-4.051,0-6.057,0c-2.005,0-8.624-1.203-8.57-5.013
			c-2.075,0.004-8.09,0.122-11.872,0.257c-2.989,0.108-4.105-0.058-4.003-1.629c-2.635,0-1.831-3.126-1.321-4.9
			c0.511-1.779,3.878-0.68,5.64-0.154c1.766,0.527,9.392,2.563,10.041,2.737c0.654,0.176,1.135,0.253,1.408,0.766
			c0.251-1.25,0.676-2.458,4.371-2.458c1.51,0,6.054,0,8.911,0c2.856,0,4.11,0.152,4.632,1.335c0,0,0.576,2.374,0.576,5.144
			C50.268,41.26,48.769,42.4,46.514,42.4z"/>
		<ellipse opacity="0.1" fill="#A0A0A0" enable-background="new    " cx="51.166" cy="29.882" rx="2.396" ry="1.217"/>
		
			<linearGradient id="SVGID_3_" gradientUnits="userSpaceOnUse" x1="202.416" y1="1122.092" x2="238.5215" y2="1122.092" gradientTransform="matrix(1 0 0 1 -157.6548 -1085.8184)">
			<stop  offset="0" style="stop-color:#FFFFFF"/>
			<stop  offset="1" style="stop-color:#C8C8C8"/>
		</linearGradient>
		<path fill="url(#SVGID_3_)" d="M86.321,36.019c0.104,1.572-1.014,1.733-4.003,1.625c-3.779-0.135-9.791-0.253-11.869-0.257
			c0.055,3.807-6.563,5.013-8.569,5.013s-3.803,0-6.06,0c-2.258,0-3.755-1.135-3.755-3.909c0-2.773,0.575-5.146,0.575-5.146
			c0.523-1.181,1.773-1.335,4.634-1.335c2.857,0,7.4,0,8.909,0c3.698,0,4.121,1.209,4.372,2.462
			c0.272-0.518,0.754-0.596,1.404-0.762c0.65-0.176,8.28-2.216,10.041-2.739c1.764-0.526,5.128-1.625,5.643,0.145
			C88.153,32.891,88.96,36.019,86.321,36.019z"/>
		<path opacity="0.6" fill="#C1BAAC" enable-background="new    " d="M14.044,30.641c3.608-2.889,10-2.889,14.767-2.889
			c0.794,0,4.507-3.608,5.198-3.73c-1.203,0.802-2.275,3.687-1.948,3.702c4.422,0.171,24.458-0.616,32.891-1.932
			c0.357-0.056,0.47-1.196-1.353-1.996c1.977,0.608,2.979,1.717,3.271,1.662c6.966-1.297,8.962-1.725,11.799-1.435
			c-3.846-0.909-14.382-1.66-26.606-1.66c-7.73,0-25.177,0.317-27.106,1.131c-1.929,0.809-4.027,1.153-5.781,2.431
			C17.417,27.201,14.544,29.3,14.044,30.641z"/>
		
			<linearGradient id="SVGID_4_" gradientUnits="userSpaceOnUse" x1="184.5342" y1="1102.5237" x2="233.1191" y2="1102.5237" gradientTransform="matrix(1 0 0 1 -157.6548 -1085.8184)">
			<stop  offset="0" style="stop-color:#FFFFFF"/>
			<stop  offset="1" style="stop-color:#C8C8C8"/>
		</linearGradient>
		<path opacity="0.3" fill="url(#SVGID_4_)" enable-background="new    " d="M27.336,20.144c0.541-1.084,4.731-7.798,6.63-8.421
			c1.893-0.62,17.079-0.663,17.079-0.663s0.047,0,0.124,0c0.086,0,0.131,0,0.131,0s15.181,0.036,17.077,0.663
			c1.897,0.623,6.089,7.337,6.631,8.421c0.771,1.568,0.592,2.267-0.761,2.206c-1.353-0.054-15.064-0.653-22.947-0.538
			c-0.044,0-0.084,0-0.128,0c-0.041,0-0.08,0-0.125,0c-7.887-0.116-21.593,0.484-22.947,0.538
			C26.745,22.412,26.56,21.715,27.336,20.144z"/>
		<path fill="#777266" d="M36.078,32.822c2.041,0.03,9.04,0.211,10.28,0.316c1.236,0.107,2.274,0.511,2.419,2.345
			c0.144,1.835,0.552,4.179-0.772,5.046c-1.324,0.86-6.216,0.667-8.154,0.458c-1.936-0.208-6.317-1.121-6.625-2.853
			c-0.305-1.732-0.509-3.159,0-3.974C33.735,33.344,34.556,32.802,36.078,32.822z"/>
		<path fill="#777266" d="M66.433,32.822c-2.037,0.03-9.041,0.211-10.278,0.316c-1.238,0.107-2.271,0.511-2.423,2.345
			c-0.144,1.835-0.55,4.179,0.775,5.046c1.324,0.86,6.218,0.667,8.152,0.458c1.937-0.208,6.318-1.121,6.625-2.853
			c0.306-1.733,0.512-3.159,0-3.974C68.775,33.344,67.957,32.802,66.433,32.822z"/>
		
			<linearGradient id="SVGID_5_" gradientUnits="userSpaceOnUse" x1="173.4902" y1="-821.7605" x2="244.0352" y2="-821.7605" gradientTransform="matrix(1 0 0 -1 -157.5996 -774.6772)">
			<stop  offset="0" style="stop-color:#FFFFFF"/>
			<stop  offset="1" style="stop-color:#C8C8C8"/>
		</linearGradient>
		<path fill="url(#SVGID_5_)" d="M83.779,43.29c-1.229,0.05-3.794,0.352-8.139,0.757c-4.343,0.405-7.455,0.858-8.176,2.225
			l-16.301,0.071l-16.302-0.071c-0.718-1.366-3.831-1.819-8.176-2.225c-4.344-0.405-6.91-0.707-8.136-0.757
			c-1.231-0.051-2.749-0.368-2.656,2.019c0.094,2.391,0.294,4.013,2.967,4.324c2.675,0.315,7.44,0.591,10.277,0.804
			c2.838,0.217,6.758,0.711,6.441-0.526c2.741-0.118,1.11,0.922,3.252,0.983c2.134,0.055,12.328,0,12.328,0s10.194,0.055,12.334,0
			c2.135-0.062,0.51-1.102,3.25-0.983c-0.318,1.237,3.599,0.743,6.438,0.526c2.842-0.213,7.602-0.487,10.278-0.804
			c2.677-0.313,2.878-1.934,2.97-4.324C86.523,42.922,85.007,43.24,83.779,43.29z"/>
	</g>
	<line fill="none" x1="39.362" y1="45.05" x2="39.362" y2="41.825"/>
	<g>
		<g>
			
				<linearGradient id="SVGID_6_" gradientUnits="userSpaceOnUse" x1="57.9062" y1="55.6956" x2="89.8623" y2="55.6956" gradientTransform="matrix(0.9944 -0.1057 0.1057 0.9944 -5.1642 -6.9721)">
				<stop  offset="0" style="stop-color:#E6E6E6"/>
				<stop  offset="0.5398" style="stop-color:#FFFFFF"/>
				<stop  offset="1" style="stop-color:#C8C8C8"/>
			</linearGradient>
			<path fill="url(#SVGID_6_)" d="M75.885,56.488c-8.761,0.933-16.646-5.439-17.578-14.201s5.438-16.647,14.197-17.579
				c8.764-0.931,16.649,5.438,17.58,14.198c0.366,3.441-0.366,6.817-2.117,9.788l2.039,1.647l-2.895,3.583l-2.026-1.637
				C82.536,54.668,79.364,56.117,75.885,56.488z M72.598,25.58c-8.28,0.881-14.299,8.334-13.418,16.612
				c0.881,8.281,8.333,14.301,16.611,13.42c3.413-0.361,6.511-1.823,8.96-4.224l0.279-0.274l1.812,1.465l1.812-2.201l-1.841-1.488
				l0.206-0.329c1.793-2.88,2.551-6.188,2.191-9.562C88.331,30.72,80.877,24.699,72.598,25.58z"/>
			<path fill="#777266" d="M89.21,39c-0.882-8.292-8.319-14.298-16.611-13.417c-8.292,0.882-14.3,8.318-13.417,16.61
				c0.881,8.292,8.318,14.301,16.609,13.418c3.517-0.373,6.617-1.928,8.96-4.223l2.229,1.739l2.267-2.789l-2.229-1.776
				C88.733,45.807,89.579,42.48,89.21,39z"/>
		</g>
		
			<linearGradient id="SVGID_7_" gradientUnits="userSpaceOnUse" x1="209.4014" y1="939.1292" x2="236.7441" y2="939.1292" gradientTransform="matrix(0.9944 -0.1057 0.1057 0.9944 -246.9748 -869.5288)">
			<stop  offset="0" style="stop-color:#E6E6E6"/>
			<stop  offset="0.5398" style="stop-color:#FFFFFF"/>
			<stop  offset="1" style="stop-color:#C8C8C8"/>
		</linearGradient>
		<circle fill="url(#SVGID_7_)" cx="74.16" cy="40.744" r="13.671"/>
		<path opacity="0.5" fill="#F8F8F8" enable-background="new    " d="M63.978,47.017c-0.799-7.509,4.643-14.241,12.151-15.04
			c4.038-0.43,7.852,0.949,10.638,3.48c-2.271-5.427-7.901-8.963-14.052-8.308c-7.51,0.798-12.948,7.533-12.15,15.04
			c0.369,3.47,2.006,6.494,4.399,8.667C64.463,49.66,64.123,48.373,63.978,47.017z"/>
		<polygon fill="#777266" points="69.876,32.198 74.388,38.34 78.943,32.23 81.59,32.24 75.705,40.135 75.713,40.144 75.717,40.145 
			75.711,41.852 80.726,41.871 80.721,43.577 75.705,43.558 75.698,45.265 80.821,45.283 80.814,46.991 75.692,46.975 
			75.679,50.603 73.012,50.592 73.025,46.964 68.115,46.947 68.122,45.24 73.031,45.256 73.037,43.549 68.021,43.531 68.026,41.823 
			73.044,41.843 73.05,40.135 73.058,40.125 67.228,32.188 		"/>
	</g>
	<g>
		
			<linearGradient id="SVGID_8_" gradientUnits="userSpaceOnUse" x1="42.1499" y1="175.3782" x2="47.5801" y2="175.3782" gradientTransform="matrix(0.6284 -0.7779 0.7779 0.6284 -72.3689 -19.982)">
			<stop  offset="0" style="stop-color:#E6E6E6"/>
			<stop  offset="0.5398" style="stop-color:#FFFFFF"/>
			<stop  offset="1" style="stop-color:#C8C8C8"/>
		</linearGradient>
		<polygon fill="url(#SVGID_8_)" points="98.373,56.775 94.96,60.996 86.128,53.863 89.541,49.639 		"/>
		<path fill="#777266" d="M95.03,61.67l-9.574-7.735l4.013-4.968l9.575,7.736L95.03,61.67z M86.8,53.792l8.089,6.533l2.811-3.479
			l-8.087-6.535L86.8,53.792z"/>
	</g>
</g>
</svg>
