<?xml version="1.0" encoding="utf-8"?>
<!-- Generator: Adobe Illustrator 16.0.0, SVG Export Plug-In . SVG Version: 6.00 Build 0)  -->
<!DOCTYPE svg PUBLIC "-//W3C//DTD SVG 1.1//EN" "http://www.w3.org/Graphics/SVG/1.1/DTD/svg11.dtd">
<svg version="1.1" id="Layer_1" xmlns="http://www.w3.org/2000/svg" xmlns:xlink="http://www.w3.org/1999/xlink" x="0px" y="0px"
	 width="110.5px" height="84.559px" viewBox="0 0 110.5 84.559" enable-background="new 0 0 110.5 84.559" xml:space="preserve">
<g>
	<g>
		
			<linearGradient id="SVGID_1_" gradientUnits="userSpaceOnUse" x1="170.3252" y1="1119.4563" x2="249.7383" y2="1119.4563" gradientTransform="matrix(1 0 0 1 -157.6548 -1085.8184)">
			<stop  offset="0" style="stop-color:#E6E6E6"/>
			<stop  offset="0.5398" style="stop-color:#FFFFFF"/>
			<stop  offset="1" style="stop-color:#C8C8C8"/>
		</linearGradient>
		<path fill="url(#SVGID_1_)" d="M90.354,30.481c-1.574-2.559-5.625-5.175-7.847-6.484c0.849,0.089,1.91-0.012,1.91-0.012
			c2.183,0,2.996-1.509,2.996-2.84c0-1.926-2.747-2.003-2.747-2.003s-2.17,0-3.125,0c-1.788,0-1.587,0.888-1.457,1.789
			c-2.011-4.016-5.803-9.171-8.701-11.101c-0.812-0.537-1.845-0.552-1.845-0.552C62.622,8.765,53.81,8.72,52.378,8.72
			c-1.433,0-10.246,0.045-17.158,0.558c0,0-1.037,0.01-1.847,0.552c-2.902,1.932-6.689,7.083-8.702,11.101
			c0.129-0.902,0.33-1.789-1.456-1.789c-0.963,0-3.126,0-3.126,0s-2.746,0.077-2.746,2.003c0,1.332,0.811,2.84,2.991,2.84
			c0,0,1.069,0.102,1.913,0.012c-2.219,1.304-6.272,3.921-7.846,6.484c-1.159,1.891-1.765,10.274-1.73,13.285
			c0.035,3.01,0.474,8.905,0.596,12.007c0.078,2.042,0.86,2.784,2.702,2.784h10.529c3.662,0,3.156-3.778,3.156-3.778
			c3.558-0.14,4.246,0.372,5.537,0.615c1.293,0.249,8.208,0.526,8.208,0.526l8.977,0.049l8.977-0.049c0,0,6.918-0.277,8.21-0.526
			c1.295-0.243,1.978-0.755,5.532-0.615c0,0-0.502,3.778,3.163,3.778h10.527c1.847,0,2.624-0.742,2.706-2.784
			c0.117-3.102,0.559-8.997,0.589-12.007C92.118,40.763,91.515,32.372,90.354,30.481z"/>
		<path fill="#777266" d="M89.501,30.58c-2.154-3.501-9.07-7.109-9.07-7.109h3.224c2.118,0,2.992-0.648,2.992-1.944
			c0-1.865-2.665-1.936-2.665-1.936s-1.1-0.007-2.035,0c-0.933,0.006-1.524,0.15-1.524,0.984c0,0.573,0,1.099,0,1.099
			c-0.018,0.352-0.532,0.357-0.532,0.357c-1.836-3.962-5.801-9.481-8.788-11.471c-0.789-0.526-1.793-0.538-1.793-0.538
			c-7.31-0.54-16.85-0.54-16.85-0.54c-0.021,0-0.057,0-0.084,0c-0.024,0-0.061,0-0.079,0c0,0-9.539,0-16.853,0.54
			c0,0-1.002,0.012-1.79,0.538c-2.993,1.99-6.952,7.504-8.787,11.471c0,0-0.518-0.011-0.534-0.357c0,0,0-0.526,0-1.099
			c0-0.833-0.595-0.977-1.526-0.984c-0.932-0.007-2.034,0-2.034,0s-2.664,0.071-2.664,1.936c0,1.295,0.872,1.944,2.989,1.944h3.227
			c0,0-6.916,3.608-9.073,7.109c-1.123,1.827-1.711,9.962-1.672,12.881c0.034,2.912,0.454,8.632,0.574,11.644
			c0.074,1.976,0.832,2.69,2.619,2.69h8.963c3.551,0,3.064-3.662,3.064-3.662c3.448-0.133,5.36,0.36,6.613,0.599
			c1.254,0.239,7.96,0.507,7.96,0.507l8.875,0.051h0.126h0.125l8.879-0.051c0,0,6.706-0.268,7.96-0.507
			c1.253-0.235,3.165-0.733,6.614-0.599c0,0-0.485,3.662,3.062,3.662h8.964c1.786,0,2.544-0.715,2.62-2.69
			c0.116-3.01,0.543-8.731,0.575-11.644C91.211,40.543,90.624,32.407,89.501,30.58z M28.55,20.083
			c0.541-1.084,4.731-7.798,6.63-8.421c0.917-0.306,4.953-0.466,8.873-0.556c0.143,0.272,0.395,0.576,0.821,0.595
			c0.772,0.027,2.377,0.093,2.377,0.093s0.221,0.479,0.818,0.562c0.601,0.082,2.165,0.34,2.328,0.422
			c0.156,0.079-0.023,0.435-0.023,0.435s-1.262,0.02-2.24,0.078c-0.504,0.036-0.584,1.461-0.52,1.661
			c0.061,0.2,0.278,0.161,0.278,0.161l2.602,0.118h1.168h1.174l2.595-0.118c0,0,0.225,0.039,0.28-0.161
			c0.062-0.201-0.014-1.625-0.52-1.661c-0.975-0.061-2.238-0.078-2.238-0.078s-0.18-0.356-0.019-0.435
			c0.162-0.082,1.725-0.341,2.327-0.422c0.596-0.083,0.821-0.562,0.821-0.562s1.603-0.064,2.374-0.093
			c0.441-0.02,0.699-0.349,0.835-0.623c4.312,0.078,9.268,0.242,10.3,0.583c1.895,0.623,6.087,7.337,6.628,8.421
			c0.771,1.568,0.593,2.267-0.76,2.205c-0.338-0.015-1.458-0.061-3.066-0.125c-0.225-0.265-0.656-0.722-1.044-0.83
			c-1.335-0.363-2.436-0.521-2.436-0.521s0.281-0.219,0.162-0.705c-0.118-0.487-0.766-3.161-0.938-3.95
			c-0.171-0.783-0.571-1.532-1.507-1.532c-0.938,0-3.103,0-3.103,0s-0.777,0-0.833,0.27c-0.439-0.039-0.596,0.41-0.596,0.41
			l-1.295,2.428c0,0-0.175,0.072-0.831,0.078c-0.66,0-0.741,0.713-0.873,1.037c-0.19,0.471-0.459,1.38-0.459,1.38l-3.425,0.175
			c0,0-0.025-0.701-1.048-0.712c-1.019-0.012-4.703,0.054-4.987,0.067c-0.284,0.004-0.745,0.125-0.853,0.38
			c-0.115,0.266-0.216,0.368-0.216,0.368s0-0.171-0.342-0.171c-0.348,0-2.762,0-2.762,0l-0.278-0.82c0,0-0.058-1.547-1.337-1.681
			c-0.601-0.058-1.097-0.074-1.097-0.074l-0.005-0.017c0,0-0.203-0.657-0.516-1.411c-0.315-0.752-0.492-1.399-1.421-1.421
			c-0.932-0.018-3.814-0.106-4.093,0.042c-0.278,0.15-0.433,0.344-0.433,0.344s-0.427,0.156-0.559,0.517
			c-0.727,1.965-1.224,3.422-1.184,5.125c0.007,0.253,0.109,0.282,0.163,0.282c-0.158,0.018-1.841,0.229-2.252,0.473
			c-0.212,0.125-0.444,0.335-0.628,0.512c-1.062,0.042-1.796,0.076-2.06,0.082C27.958,22.351,27.773,21.654,28.55,20.083z
			 M47.728,42.338c-2.255,0-4.051,0-6.057,0c-2.005,0-8.623-1.203-8.569-5.013c-2.076,0.004-8.09,0.123-11.871,0.258
			c-2.989,0.108-4.105-0.059-4.003-1.629c-2.635,0-1.831-3.126-1.321-4.9c0.51-1.779,3.878-0.68,5.64-0.154
			c1.766,0.527,9.392,2.563,10.041,2.737c0.654,0.176,1.134,0.253,1.408,0.767c0.252-1.25,0.676-2.459,4.371-2.459
			c1.509,0,6.054,0,8.911,0c2.856,0,4.109,0.152,4.631,1.335c0,0,0.576,2.374,0.576,5.143C51.48,41.198,49.981,42.338,47.728,42.338
			z M52.378,31.037c-1.321,0-2.388-0.543-2.388-1.217c0-0.674,1.068-1.217,2.388-1.217c1.325,0,2.396,0.544,2.396,1.217
			C54.774,30.493,53.7,31.037,52.378,31.037z M87.532,35.958c0.104,1.572-1.013,1.733-4.003,1.625
			c-3.778-0.135-9.791-0.253-11.867-0.258c0.054,3.807-6.565,5.013-8.57,5.013s-3.802,0-6.06,0c-2.257,0-3.754-1.135-3.754-3.908
			c0-2.774,0.575-5.146,0.575-5.146c0.524-1.181,1.773-1.335,4.634-1.335c2.857,0,7.4,0,8.909,0c3.698,0,4.12,1.209,4.371,2.462
			c0.273-0.519,0.754-0.597,1.403-0.763c0.651-0.177,8.279-2.215,10.042-2.738c1.763-0.527,5.127-1.625,5.643,0.145
			C89.364,32.83,90.172,35.958,87.532,35.958z"/>
		
			<linearGradient id="SVGID_2_" gradientUnits="userSpaceOnUse" x1="173.0332" y1="1122.0256" x2="209.1367" y2="1122.0256" gradientTransform="matrix(1 0 0 1 -157.6548 -1085.8184)">
			<stop  offset="0" style="stop-color:#FFFFFF"/>
			<stop  offset="1" style="stop-color:#C8C8C8"/>
		</linearGradient>
		<path fill="url(#SVGID_2_)" d="M47.728,42.338c-2.255,0-4.051,0-6.057,0c-2.005,0-8.623-1.203-8.569-5.013
			c-2.076,0.004-8.09,0.123-11.871,0.258c-2.989,0.108-4.105-0.059-4.003-1.629c-2.635,0-1.831-3.126-1.321-4.9
			c0.51-1.779,3.878-0.68,5.64-0.154c1.766,0.527,9.392,2.563,10.041,2.737c0.654,0.176,1.134,0.253,1.408,0.767
			c0.252-1.25,0.676-2.459,4.371-2.459c1.509,0,6.054,0,8.911,0c2.856,0,4.109,0.152,4.631,1.335c0,0,0.576,2.374,0.576,5.143
			C51.48,41.198,49.981,42.338,47.728,42.338z"/>
		<ellipse opacity="0.1" fill="#A0A0A0" enable-background="new    " cx="52.378" cy="29.82" rx="2.396" ry="1.217"/>
		
			<linearGradient id="SVGID_3_" gradientUnits="userSpaceOnUse" x1="203.6279" y1="1122.0295" x2="239.7334" y2="1122.0295" gradientTransform="matrix(1 0 0 1 -157.6548 -1085.8184)">
			<stop  offset="0" style="stop-color:#FFFFFF"/>
			<stop  offset="1" style="stop-color:#C8C8C8"/>
		</linearGradient>
		<path fill="url(#SVGID_3_)" d="M87.532,35.958c0.104,1.572-1.013,1.733-4.003,1.625c-3.778-0.135-9.791-0.253-11.867-0.258
			c0.054,3.807-6.565,5.013-8.57,5.013s-3.802,0-6.06,0c-2.257,0-3.754-1.135-3.754-3.908c0-2.774,0.575-5.146,0.575-5.146
			c0.524-1.181,1.773-1.335,4.634-1.335c2.857,0,7.4,0,8.909,0c3.698,0,4.12,1.209,4.371,2.462c0.273-0.519,0.754-0.597,1.403-0.763
			c0.651-0.177,8.279-2.215,10.042-2.738c1.763-0.527,5.127-1.625,5.643,0.145C89.364,32.83,90.172,35.958,87.532,35.958z"/>
		<path opacity="0.6" fill="#C1BAAC" enable-background="new    " d="M15.259,30.58c3.608-2.89,10-2.89,14.766-2.89
			c0.794,0,4.507-3.608,5.197-3.73c-1.203,0.802-2.275,3.687-1.948,3.701c4.422,0.171,24.456-0.616,32.89-1.931
			c0.357-0.056,0.471-1.196-1.353-1.996c1.977,0.608,2.979,1.717,3.271,1.662c6.965-1.297,8.962-1.725,11.798-1.435
			c-3.846-0.909-14.381-1.66-26.606-1.66c-7.73,0-25.176,0.317-27.105,1.131c-1.929,0.809-4.027,1.153-5.781,2.431
			C18.631,27.14,15.758,29.238,15.259,30.58z"/>
		
			<linearGradient id="SVGID_4_" gradientUnits="userSpaceOnUse" x1="185.7471" y1="1102.4631" x2="234.3301" y2="1102.4631" gradientTransform="matrix(1 0 0 1 -157.6548 -1085.8184)">
			<stop  offset="0" style="stop-color:#FFFFFF"/>
			<stop  offset="1" style="stop-color:#C8C8C8"/>
		</linearGradient>
		<path opacity="0.3" fill="url(#SVGID_4_)" enable-background="new    " d="M28.55,20.083c0.541-1.084,4.731-7.798,6.63-8.421
			c1.893-0.62,17.078-0.663,17.078-0.663s0.047,0,0.125,0c0.085,0,0.131,0,0.131,0s15.181,0.036,17.077,0.663
			c1.896,0.623,6.089,7.337,6.63,8.421c0.771,1.568,0.591,2.267-0.76,2.205c-1.354-0.053-15.065-0.653-22.947-0.538
			c-0.044,0-0.084,0-0.128,0c-0.041,0-0.08,0-0.125,0c-7.887-0.116-21.591,0.484-22.946,0.538
			C27.958,22.351,27.773,21.654,28.55,20.083z"/>
		<path fill="#777266" d="M37.292,32.76c2.041,0.03,9.04,0.211,10.279,0.316c1.235,0.107,2.274,0.511,2.419,2.346
			c0.144,1.835,0.552,4.179-0.772,5.044c-1.324,0.861-6.215,0.667-8.154,0.458c-1.937-0.208-6.317-1.12-6.625-2.853
			c-0.305-1.732-0.509-3.159,0-3.973C34.949,33.282,35.769,32.74,37.292,32.76z"/>
		<path fill="#777266" d="M67.646,32.76c-2.037,0.03-9.042,0.211-10.278,0.316c-1.238,0.107-2.271,0.511-2.423,2.346
			c-0.145,1.835-0.55,4.179,0.774,5.044c1.324,0.861,6.217,0.667,8.153,0.458c1.936-0.208,6.317-1.12,6.625-2.853
			c0.306-1.733,0.511-3.159,0-3.973C69.988,33.282,69.17,32.74,67.646,32.76z"/>
		
			<linearGradient id="SVGID_5_" gradientUnits="userSpaceOnUse" x1="174.7041" y1="-821.699" x2="245.2461" y2="-821.699" gradientTransform="matrix(1 0 0 -1 -157.5996 -774.6772)">
			<stop  offset="0" style="stop-color:#FFFFFF"/>
			<stop  offset="1" style="stop-color:#C8C8C8"/>
		</linearGradient>
		<path fill="url(#SVGID_5_)" d="M84.99,43.229c-1.228,0.05-3.793,0.352-8.139,0.757c-4.341,0.404-7.454,0.858-8.176,2.225
			l-16.299,0.071L36.076,46.21c-0.718-1.366-3.831-1.82-8.175-2.225c-4.344-0.405-6.91-0.707-8.136-0.757
			c-1.231-0.051-2.748-0.368-2.656,2.018c0.094,2.392,0.294,4.013,2.967,4.325c2.675,0.314,7.439,0.59,10.277,0.803
			c2.837,0.217,6.758,0.712,6.44-0.526c2.741-0.117,1.111,0.922,3.253,0.983c2.134,0.056,12.327,0,12.327,0s10.194,0.056,12.333,0
			c2.135-0.062,0.509-1.101,3.25-0.983c-0.318,1.238,3.599,0.743,6.438,0.526c2.843-0.213,7.602-0.487,10.277-0.803
			c2.679-0.314,2.88-1.934,2.971-4.325C87.734,42.861,86.219,43.178,84.99,43.229z"/>
	</g>
	<line fill="none" x1="40.575" y1="44.988" x2="40.575" y2="41.764"/>
	<g>
		<linearGradient id="SVGID_6_" gradientUnits="userSpaceOnUse" x1="66.3291" y1="44.5129" x2="97.8301" y2="44.5129">
			<stop  offset="0" style="stop-color:#FFFFFF"/>
			<stop  offset="1" style="stop-color:#C8C8C8"/>
		</linearGradient>
		<circle fill="url(#SVGID_6_)" stroke="#787366" stroke-width="2" stroke-miterlimit="10" cx="82.08" cy="44.514" r="15.75"/>
		<g>
			<g>
				<path fill="#787366" d="M71.242,35.62c-0.11,0.302-0.188,0.653-0.232,1.041l1.28,0.102c0.02-0.183,0.05-0.381,0.093-0.592
					c0.052-0.252,0.156-0.478,0.31-0.666c0.162-0.199,0.381-0.3,0.649-0.3c0.297,0,0.528,0.094,0.688,0.283
					c0.16,0.186,0.236,0.477,0.236,0.894c0,0.204-0.048,0.43-0.143,0.672c-0.096,0.238-0.249,0.481-0.457,0.722
					c-0.204,0.238-0.47,0.497-0.788,0.771c-0.16,0.14-0.34,0.305-0.533,0.494c-0.19,0.187-0.394,0.421-0.602,0.702
					s-0.379,0.597-0.511,0.944c-0.132,0.346-0.199,0.706-0.199,1.075v0.283h4.57v-1.176h-2.985l0.045-0.11
					c0.055-0.137,0.133-0.273,0.234-0.409c0.095-0.132,0.208-0.262,0.327-0.386c0.093-0.094,0.5-0.471,1.208-1.119
					c0.139-0.137,0.307-0.311,0.504-0.52c0.19-0.205,0.364-0.479,0.509-0.814c0.147-0.334,0.221-0.704,0.221-1.098
					c0-0.351-0.062-0.708-0.186-1.069c-0.119-0.354-0.355-0.646-0.699-0.871c-0.347-0.229-0.795-0.344-1.334-0.344
					c-0.386,0-0.728,0.059-1.011,0.171c-0.284,0.114-0.526,0.283-0.724,0.502C71.515,35.023,71.356,35.299,71.242,35.62z"/>
				
					<linearGradient id="SVGID_7_" gradientUnits="userSpaceOnUse" x1="220.0693" y1="921.3782" x2="225.0713" y2="921.3782" gradientTransform="matrix(1 0 0 1 -149.2397 -883.291)">
					<stop  offset="0" style="stop-color:#E5E5E5"/>
					<stop  offset="0.5398" style="stop-color:#FFFFFF"/>
					<stop  offset="1" style="stop-color:#C8C8C8"/>
				</linearGradient>
				<path fill="url(#SVGID_7_)" d="M75.77,42.21h-4.902V41.76c0-0.389,0.071-0.769,0.212-1.133c0.139-0.362,0.316-0.692,0.533-0.984
					c0.214-0.286,0.422-0.529,0.619-0.72c0.197-0.192,0.377-0.359,0.539-0.5c0.313-0.27,0.573-0.523,0.772-0.754
					c0.195-0.227,0.338-0.458,0.427-0.678c0.089-0.223,0.135-0.426,0.135-0.611c0-0.369-0.067-0.633-0.197-0.787
					c-0.132-0.151-0.314-0.226-0.563-0.226c-0.221,0-0.392,0.079-0.523,0.239c-0.137,0.17-0.229,0.371-0.275,0.598
					c-0.047,0.235-0.082,0.457-0.1,0.654l-0.006,0.082l-1.609-0.129l0.007-0.083c0.043-0.434,0.126-0.825,0.249-1.163
					c0.123-0.342,0.292-0.636,0.505-0.873c0.212-0.239,0.479-0.422,0.783-0.544c0.306-0.124,0.665-0.185,1.074-0.185
					c0.569,0,1.05,0.125,1.425,0.369c0.372,0.246,0.63,0.567,0.764,0.957c0.13,0.377,0.195,0.756,0.195,1.122
					c0,0.418-0.078,0.81-0.234,1.165c-0.155,0.352-0.337,0.641-0.541,0.857c-0.197,0.212-0.368,0.39-0.511,0.528
					c-0.708,0.649-1.113,1.022-1.202,1.115c-0.116,0.116-0.221,0.24-0.315,0.368c-0.061,0.086-0.115,0.173-0.16,0.259h2.901V42.21
					L75.77,42.21z M71.034,42.043h4.57v-1.176h-2.985l0.045-0.11c0.055-0.137,0.135-0.273,0.234-0.409
					c0.098-0.132,0.208-0.264,0.329-0.388c0.091-0.093,0.498-0.469,1.206-1.118c0.139-0.138,0.31-0.311,0.504-0.519
					c0.19-0.205,0.364-0.479,0.509-0.814c0.147-0.334,0.221-0.704,0.221-1.098c0-0.351-0.062-0.708-0.186-1.069
					c-0.119-0.354-0.355-0.646-0.699-0.873c-0.347-0.227-0.795-0.342-1.334-0.342c-0.386,0-0.726,0.059-1.011,0.171
					c-0.284,0.114-0.526,0.283-0.724,0.501c-0.197,0.222-0.357,0.496-0.472,0.818c-0.11,0.303-0.188,0.652-0.229,1.04l1.279,0.103
					c0.018-0.182,0.048-0.381,0.091-0.592c0.052-0.253,0.156-0.476,0.31-0.666c0.165-0.198,0.381-0.3,0.651-0.3
					c0.295,0,0.526,0.095,0.687,0.281c0.16,0.188,0.238,0.479,0.238,0.896c0,0.204-0.05,0.431-0.145,0.671
					c-0.096,0.239-0.249,0.483-0.457,0.725c-0.204,0.238-0.47,0.497-0.788,0.769c-0.16,0.141-0.338,0.305-0.533,0.494
					c-0.19,0.184-0.392,0.42-0.6,0.704c-0.208,0.279-0.381,0.594-0.513,0.942c-0.132,0.345-0.199,0.708-0.199,1.075V42.043
					L71.034,42.043z"/>
			</g>
			<g>
				<path fill="#787366" d="M79.246,42.126V40.4h-2.936v-1.392l2.884-4.8h1.501v5.003h0.643v1.187h-0.643v1.729H79.246
					L79.246,42.126z M77.456,39.211h1.79v-3.036L77.456,39.211z"/>
				
					<linearGradient id="SVGID_8_" gradientUnits="userSpaceOnUse" x1="225.4678" y1="921.4592" x2="230.6621" y2="921.4592" gradientTransform="matrix(1 0 0 1 -149.2397 -883.291)">
					<stop  offset="0" style="stop-color:#E5E5E5"/>
					<stop  offset="0.5398" style="stop-color:#FFFFFF"/>
					<stop  offset="1" style="stop-color:#C8C8C8"/>
				</linearGradient>
				<path fill="url(#SVGID_8_)" d="M80.779,42.21h-1.615v-1.729h-2.936v-1.497l0.011-0.019l2.91-4.84h1.63v5.001h0.644v1.354h-0.644
					V42.21z M79.329,42.043h1.283v-1.726h0.644v-1.022h-0.644v-5.006H79.24l-2.848,4.741v1.287h2.937V42.043L79.329,42.043z
					 M79.329,39.295h-2.017l2.017-3.421V39.295z M77.601,39.129h1.563v-2.652L77.601,39.129z"/>
			</g>
		</g>
		<g>
			<g>
				<path fill="#787366" d="M88.228,53.606c0.089-0.652,0.24-1.315,0.45-1.987c0.212-0.67,0.47-1.33,0.773-1.977
					c0.303-0.646,0.647-1.273,1.032-1.876c0.384-0.606,0.793-1.167,1.226-1.689h-4.243v-1.619h6.2v1.491
					c-0.461,0.591-0.87,1.198-1.225,1.821c-0.357,0.625-0.67,1.262-0.942,1.905c-0.269,0.645-0.496,1.298-0.685,1.955
					c-0.188,0.66-0.337,1.32-0.454,1.976H88.228L88.228,53.606z"/>
				
					<linearGradient id="SVGID_9_" gradientUnits="userSpaceOnUse" x1="236.5947" y1="932.3225" x2="243.0137" y2="932.3225" gradientTransform="matrix(1 0 0 1 -149.2397 -883.291)">
					<stop  offset="0" style="stop-color:#E5E5E5"/>
					<stop  offset="0.5398" style="stop-color:#FFFFFF"/>
					<stop  offset="1" style="stop-color:#C8C8C8"/>
				</linearGradient>
				<path fill="url(#SVGID_9_)" d="M90.455,53.701h-2.351l0.013-0.106c0.089-0.653,0.244-1.328,0.455-2
					c0.212-0.673,0.474-1.342,0.776-1.989c0.304-0.646,0.652-1.28,1.035-1.889c0.349-0.547,0.722-1.065,1.111-1.544h-4.14v-1.812
					h6.419v1.617l-0.02,0.023c-0.454,0.582-0.863,1.191-1.217,1.809c-0.354,0.619-0.669,1.259-0.938,1.896
					c-0.266,0.637-0.498,1.292-0.682,1.945c-0.185,0.655-0.336,1.315-0.45,1.968L90.455,53.701z M88.354,53.511h1.911
					c0.115-0.629,0.265-1.269,0.444-1.902c0.188-0.659,0.418-1.322,0.687-1.966c0.271-0.645,0.589-1.288,0.946-1.914
					c0.353-0.617,0.76-1.226,1.214-1.808v-1.369h-5.979v1.431h4.348l-0.126,0.15c-0.429,0.514-0.84,1.079-1.217,1.677
					c-0.383,0.6-0.728,1.229-1.026,1.867c-0.301,0.642-0.561,1.304-0.769,1.969C88.587,52.271,88.439,52.898,88.354,53.511z"/>
			</g>
		</g>
		<g>
			<g>
				
					<linearGradient id="SVGID_10_" gradientUnits="userSpaceOnUse" x1="228.126" y1="927.804" x2="236.7305" y2="927.804" gradientTransform="matrix(1 0 0 1 -149.2397 -883.291)">
					<stop  offset="0" style="stop-color:#E5E5E5"/>
					<stop  offset="0.5398" style="stop-color:#FFFFFF"/>
					<stop  offset="1" style="stop-color:#C8C8C8"/>
				</linearGradient>
				<path fill="url(#SVGID_10_)" d="M81.5,56.498c-0.489,0-0.888-0.367-0.888-0.815v-7.945c-1.026-0.371-1.726-1.352-1.726-2.448
					c0-1.44,1.172-2.614,2.613-2.614c0.033,0,0.061,0.001,0.089,0.003l3.928-9.514c0.212-0.513,0.827-0.776,1.341-0.564
					c0.251,0.104,0.45,0.3,0.554,0.553c0.106,0.255,0.106,0.536,0,0.791l-3.964,9.604c0.433,0.48,0.671,1.092,0.671,1.74
					c0,1.096-0.699,2.075-1.726,2.447v7.944C82.391,56.131,81.992,56.498,81.5,56.498z M81.5,43.219c-1.141,0-2.069,0.93-2.069,2.07
					c0,0.924,0.628,1.741,1.526,1.988l0.199,0.055v8.351c0,0.146,0.158,0.272,0.344,0.272c0.193,0,0.347-0.122,0.347-0.272v-8.351
					l0.199-0.055c0.898-0.247,1.526-1.064,1.526-1.988c0-0.562-0.225-1.089-0.634-1.485l-0.133-0.126l4.102-9.938
					c0.05-0.122,0.05-0.255,0-0.375c-0.048-0.119-0.142-0.212-0.258-0.26c-0.243-0.101-0.53,0.026-0.63,0.27l-4.086,9.895
					l-0.284-0.035C81.6,43.228,81.553,43.219,81.5,43.219z M81.5,45.729c-0.24,0-0.437-0.195-0.437-0.439
					c0-0.242,0.196-0.439,0.437-0.439c0.243,0,0.442,0.197,0.442,0.439C81.939,45.532,81.743,45.729,81.5,45.729z M81.5,45.185
					c-0.056,0-0.102,0.046-0.102,0.104c0,0.117,0.208,0.115,0.208,0C81.606,45.231,81.559,45.185,81.5,45.185z"/>
			</g>
			<path fill="#787366" d="M86.753,32.853c-0.383-0.159-0.825,0.027-0.985,0.417l-4.005,9.705c-0.087-0.011-0.171-0.026-0.263-0.026
				c-1.29,0-2.343,1.05-2.343,2.342c0,1.076,0.734,1.979,1.726,2.25v8.144c0,0.301,0.275,0.544,0.617,0.544
				c0.343,0,0.619-0.243,0.619-0.544V47.54c0.99-0.273,1.727-1.174,1.727-2.251c0-0.66-0.279-1.253-0.72-1.68l4.032-9.767
				C87.32,33.454,87.137,33.011,86.753,32.853z M81.5,45.123c0.094,0,0.169,0.074,0.169,0.166c0,0.093-0.075,0.167-0.169,0.167
				c-0.091,0-0.166-0.074-0.166-0.167C81.334,45.198,81.409,45.123,81.5,45.123z"/>
			
				<linearGradient id="SVGID_11_" gradientUnits="userSpaceOnUse" x1="370.3662" y1="-464.9285" x2="372.8779" y2="-464.9285" gradientTransform="matrix(1 0 0 -1 -290.1196 -419.6382)">
				<stop  offset="0" style="stop-color:#FFFFFF"/>
				<stop  offset="1" style="stop-color:#C8C8C8"/>
			</linearGradient>
			<path fill="url(#SVGID_11_)" d="M81.5,44.036c0.695,0,1.259,0.562,1.259,1.254s-0.563,1.254-1.259,1.254
				c-0.69,0-1.253-0.562-1.253-1.254S80.81,44.036,81.5,44.036z"/>
		</g>
	</g>
</g>
</svg>
