<?xml version="1.0" encoding="utf-8"?>
<!-- Generator: Adobe Illustrator 16.0.0, SVG Export Plug-In . SVG Version: 6.00 Build 0)  -->
<!DOCTYPE svg PUBLIC "-//W3C//DTD SVG 1.1//EN" "http://www.w3.org/Graphics/SVG/1.1/DTD/svg11.dtd">
<svg version="1.1" id="Layer_1" xmlns="http://www.w3.org/2000/svg" xmlns:xlink="http://www.w3.org/1999/xlink" x="0px" y="0px"
	 width="110.5px" height="84.559px" viewBox="0 0 110.5 84.559" enable-background="new 0 0 110.5 84.559" xml:space="preserve">
<g>
	<g>
		
			<linearGradient id="SVGID_1_" gradientUnits="userSpaceOnUse" x1="166.8867" y1="1119.4563" x2="246.0527" y2="1119.4563" gradientTransform="matrix(1 0 0 1 -157.6548 -1085.8184)">
			<stop  offset="0" style="stop-color:#E6E6E6"/>
			<stop  offset="0.5398" style="stop-color:#FFFFFF"/>
			<stop  offset="1" style="stop-color:#C8C8C8"/>
		</linearGradient>
		<path fill="url(#SVGID_1_)" d="M86.674,30.49c-1.569-2.55-5.608-5.159-7.822-6.463c0.846,0.089,1.903-0.013,1.903-0.013
			c2.177,0,2.987-1.504,2.987-2.831c0-1.92-2.738-1.997-2.738-1.997s-2.162,0-3.115,0c-1.782,0-1.582,0.885-1.451,1.783
			c-2.007-4.003-5.785-9.143-8.676-11.066c-0.81-0.535-1.84-0.55-1.84-0.55c-6.894-0.511-15.679-0.556-17.106-0.556
			c-1.428,0-10.214,0.045-17.104,0.556c0,0-1.034,0.01-1.841,0.55c-2.893,1.927-6.669,7.062-8.675,11.066
			c0.129-0.899,0.329-1.783-1.451-1.783c-0.96,0-3.117,0-3.117,0s-2.737,0.076-2.737,1.997c0,1.327,0.808,2.831,2.981,2.831
			c0,0,1.066,0.102,1.907,0.013c-2.212,1.299-6.252,3.909-7.821,6.463c-1.156,1.885-1.759,10.242-1.725,13.243
			c0.035,3.002,0.472,8.877,0.594,11.971c0.078,2.035,0.857,2.775,2.693,2.775h10.497c3.65,0,3.146-3.767,3.146-3.767
			c3.546-0.141,4.232,0.371,5.519,0.613c1.289,0.248,8.183,0.524,8.183,0.524l8.949,0.05l8.951-0.05c0,0,6.896-0.276,8.185-0.524
			c1.29-0.242,1.97-0.754,5.514-0.613c0,0-0.501,3.767,3.153,3.767H85.11c1.842,0,2.616-0.74,2.698-2.775
			c0.117-3.094,0.559-8.969,0.587-11.971C88.433,40.741,87.83,32.376,86.674,30.49z"/>
		<path fill="#777266" d="M85.823,30.59c-2.147-3.49-9.042-7.087-9.042-7.087h3.214c2.112,0,2.983-0.646,2.983-1.938
			c0-1.859-2.657-1.93-2.657-1.93s-1.097-0.007-2.029,0c-0.929,0.006-1.519,0.15-1.519,0.981c0,0.571,0,1.096,0,1.096
			c-0.018,0.35-0.531,0.355-0.531,0.355c-1.831-3.95-5.782-9.452-8.761-11.436c-0.785-0.524-1.788-0.536-1.788-0.536
			c-7.287-0.539-16.797-0.539-16.797-0.539c-0.021,0-0.057,0-0.084,0c-0.023,0-0.061,0-0.079,0c0,0-9.509,0-16.8,0.539
			c0,0-1,0.011-1.785,0.536c-2.983,1.984-6.93,7.481-8.76,11.436c0,0-0.517-0.011-0.532-0.355c0,0,0-0.525,0-1.096
			c0-0.831-0.592-0.974-1.521-0.981c-0.929-0.007-2.028,0-2.028,0s-2.655,0.071-2.655,1.93c0,1.291,0.869,1.938,2.979,1.938h3.217
			c0,0-6.894,3.597-9.045,7.087c-1.119,1.822-1.706,9.932-1.667,12.841c0.034,2.903,0.453,8.604,0.572,11.606
			c0.074,1.971,0.829,2.683,2.611,2.683h8.936c3.54,0,3.055-3.65,3.055-3.65c3.438-0.134,5.344,0.358,6.592,0.596
			c1.25,0.24,7.936,0.506,7.936,0.506l8.848,0.052h0.125h0.125l8.852-0.052c0,0,6.685-0.266,7.936-0.506
			c1.249-0.235,3.154-0.731,6.593-0.596c0,0-0.483,3.65,3.052,3.65h8.937c1.78,0,2.537-0.712,2.611-2.683
			c0.116-3.001,0.542-8.703,0.574-11.606C87.528,40.521,86.943,32.411,85.823,30.59z M25.062,20.125
			c0.539-1.081,4.716-7.774,6.609-8.395c0.915-0.305,4.938-0.464,8.846-0.554c0.143,0.271,0.393,0.574,0.819,0.594
			c0.77,0.027,2.37,0.092,2.37,0.092s0.22,0.478,0.816,0.56c0.599,0.082,2.159,0.339,2.32,0.421
			c0.155,0.079-0.022,0.434-0.022,0.434s-1.258,0.019-2.233,0.078c-0.503,0.036-0.583,1.456-0.518,1.655
			c0.061,0.2,0.277,0.161,0.277,0.161l2.593,0.117h1.165h1.17l2.587-0.117c0,0,0.225,0.039,0.279-0.161
			c0.062-0.2-0.013-1.62-0.518-1.655c-0.972-0.061-2.231-0.078-2.231-0.078s-0.179-0.355-0.02-0.434
			c0.162-0.082,1.721-0.34,2.319-0.421c0.595-0.083,0.819-0.56,0.819-0.56s1.598-0.064,2.366-0.092
			c0.439-0.02,0.696-0.348,0.834-0.621c4.296,0.078,9.237,0.241,10.267,0.582c1.889,0.621,6.067,7.314,6.606,8.395
			c0.77,1.563,0.592,2.26-0.758,2.198c-0.336-0.015-1.451-0.061-3.055-0.125c-0.226-0.264-0.654-0.72-1.042-0.828
			c-1.331-0.362-2.428-0.519-2.428-0.519s0.28-0.219,0.162-0.703c-0.118-0.485-0.765-3.151-0.935-3.938
			c-0.17-0.781-0.569-1.527-1.502-1.527c-0.936,0-3.094,0-3.094,0s-0.774,0-0.831,0.269c-0.438-0.04-0.594,0.408-0.594,0.408
			l-1.29,2.421c0,0-0.174,0.072-0.829,0.078c-0.658,0-0.738,0.711-0.871,1.034c-0.189,0.469-0.456,1.376-0.456,1.376l-3.415,0.174
			c0,0-0.025-0.699-1.045-0.71c-1.015-0.012-4.688,0.054-4.972,0.067c-0.283,0.004-0.742,0.125-0.85,0.379
			c-0.115,0.265-0.216,0.367-0.216,0.367s0-0.171-0.341-0.171c-0.346,0-2.753,0-2.753,0l-0.277-0.817c0,0-0.058-1.542-1.333-1.675
			c-0.599-0.058-1.093-0.074-1.093-0.074l-0.005-0.017c0,0-0.202-0.655-0.514-1.407c-0.314-0.75-0.49-1.395-1.417-1.417
			c-0.929-0.018-3.802-0.105-4.081,0.042c-0.277,0.149-0.432,0.343-0.432,0.343s-0.426,0.155-0.557,0.515
			c-0.724,1.959-1.22,3.412-1.18,5.11c0.006,0.252,0.109,0.281,0.162,0.281c-0.157,0.018-1.835,0.228-2.245,0.471
			c-0.211,0.125-0.443,0.334-0.626,0.51c-1.059,0.042-1.791,0.075-2.054,0.082C24.473,22.386,24.288,21.692,25.062,20.125z
			 M44.18,42.311c-2.248,0-4.039,0-6.038,0s-8.597-1.2-8.543-4.997c-2.069,0.004-8.065,0.122-11.834,0.257
			c-2.979,0.108-4.092-0.059-3.991-1.625c-2.627,0-1.826-3.117-1.317-4.885c0.509-1.774,3.866-0.678,5.622-0.154
			c1.76,0.525,9.363,2.555,10.009,2.728c0.652,0.175,1.131,0.252,1.404,0.764c0.25-1.246,0.674-2.451,4.356-2.451
			c1.505,0,6.035,0,8.884,0c2.847,0,4.097,0.151,4.617,1.331c0,0,0.574,2.366,0.574,5.126C47.92,41.176,46.427,42.311,44.18,42.311z
			 M48.816,31.045c-1.316,0-2.38-0.542-2.38-1.214c0-0.672,1.065-1.213,2.38-1.213c1.321,0,2.389,0.543,2.389,1.213
			C51.205,30.503,50.134,31.045,48.816,31.045z M83.861,35.95c0.104,1.567-1.011,1.728-3.99,1.62
			c-3.768-0.135-9.761-0.252-11.831-0.257c0.054,3.795-6.544,4.997-8.543,4.997s-3.792,0-6.042,0s-3.742-1.131-3.742-3.896
			c0-2.765,0.573-5.13,0.573-5.13c0.521-1.178,1.768-1.331,4.619-1.331c2.849,0,7.377,0,8.882,0c3.687,0,4.107,1.206,4.357,2.455
			c0.272-0.517,0.751-0.595,1.399-0.76c0.648-0.176,8.254-2.208,10.01-2.73c1.758-0.525,5.111-1.621,5.625,0.144
			C85.688,32.832,86.492,35.95,83.861,35.95z"/>
		
			<linearGradient id="SVGID_2_" gradientUnits="userSpaceOnUse" x1="169.5859" y1="1122.0178" x2="205.5771" y2="1122.0178" gradientTransform="matrix(1 0 0 1 -157.6548 -1085.8184)">
			<stop  offset="0" style="stop-color:#FFFFFF"/>
			<stop  offset="1" style="stop-color:#C8C8C8"/>
		</linearGradient>
		<path fill="url(#SVGID_2_)" d="M44.18,42.311c-2.248,0-4.039,0-6.038,0s-8.597-1.2-8.543-4.997
			c-2.069,0.004-8.065,0.122-11.834,0.257c-2.979,0.108-4.092-0.059-3.991-1.625c-2.627,0-1.826-3.117-1.317-4.885
			c0.509-1.774,3.866-0.678,5.622-0.154c1.76,0.525,9.363,2.555,10.009,2.728c0.652,0.175,1.131,0.252,1.404,0.764
			c0.25-1.246,0.674-2.451,4.356-2.451c1.505,0,6.035,0,8.884,0c2.847,0,4.097,0.151,4.617,1.331c0,0,0.574,2.366,0.574,5.126
			C47.92,41.176,46.427,42.311,44.18,42.311z"/>
		<path opacity="0.1" fill="#A0A0A0" enable-background="new    " d="M48.816,28.619c1.319,0,2.389,0.544,2.389,1.213
			s-1.069,1.213-2.389,1.213c-1.316,0-2.385-0.543-2.385-1.213S47.5,28.619,48.816,28.619z"/>
		
			<linearGradient id="SVGID_3_" gradientUnits="userSpaceOnUse" x1="200.0859" y1="1122.0217" x2="236.0791" y2="1122.0217" gradientTransform="matrix(1 0 0 1 -157.6548 -1085.8184)">
			<stop  offset="0" style="stop-color:#FFFFFF"/>
			<stop  offset="1" style="stop-color:#C8C8C8"/>
		</linearGradient>
		<path fill="url(#SVGID_3_)" d="M83.861,35.95c0.104,1.567-1.011,1.728-3.99,1.62c-3.768-0.135-9.761-0.252-11.831-0.257
			c0.054,3.795-6.544,4.997-8.543,4.997s-3.792,0-6.042,0s-3.742-1.131-3.742-3.896c0-2.765,0.573-5.13,0.573-5.13
			c0.521-1.178,1.768-1.331,4.619-1.331c2.849,0,7.377,0,8.882,0c3.687,0,4.107,1.206,4.357,2.455
			c0.272-0.517,0.751-0.595,1.399-0.76c0.648-0.176,8.254-2.208,10.01-2.73c1.758-0.525,5.111-1.621,5.625,0.144
			C85.688,32.832,86.492,35.95,83.861,35.95z"/>
		<path opacity="0.6" fill="#C1BAAC" enable-background="new    " d="M11.812,30.59c3.596-2.88,9.969-2.88,14.72-2.88
			c0.792,0,4.493-3.597,5.181-3.718c-1.199,0.799-2.269,3.675-1.941,3.689c4.408,0.17,24.38-0.614,32.788-1.925
			c0.356-0.056,0.469-1.192-1.348-1.99c1.971,0.606,2.97,1.711,3.26,1.656c6.944-1.293,8.934-1.72,11.762-1.43
			c-3.834-0.906-14.337-1.655-26.524-1.655c-7.705,0-25.097,0.316-27.021,1.127c-1.922,0.806-4.015,1.149-5.763,2.423
			C15.174,27.16,12.31,29.252,11.812,30.59z"/>
		
			<linearGradient id="SVGID_4_" gradientUnits="userSpaceOnUse" x1="182.2617" y1="1102.5159" x2="230.6934" y2="1102.5159" gradientTransform="matrix(1 0 0 1 -157.6548 -1085.8184)">
			<stop  offset="0" style="stop-color:#FFFFFF"/>
			<stop  offset="1" style="stop-color:#C8C8C8"/>
		</linearGradient>
		<path opacity="0.3" fill="url(#SVGID_4_)" enable-background="new    " d="M25.062,20.125c0.539-1.081,4.716-7.774,6.609-8.395
			c1.887-0.618,17.025-0.66,17.025-0.66s0.047,0,0.124,0c0.085,0,0.13,0,0.13,0s15.133,0.036,17.025,0.66
			c1.891,0.621,6.069,7.314,6.608,8.395c0.77,1.563,0.591,2.26-0.758,2.198c-1.349-0.054-15.017-0.651-22.875-0.537
			c-0.044,0-0.084,0-0.127,0c-0.041,0-0.08,0-0.125,0c-7.862-0.115-21.524,0.483-22.875,0.537
			C24.473,22.386,24.288,21.692,25.062,20.125z"/>
		<path fill="#777266" d="M33.776,32.763c2.035,0.03,9.012,0.211,10.247,0.315c1.231,0.107,2.268,0.509,2.412,2.338
			c0.144,1.829,0.55,4.166-0.77,5.029c-1.32,0.857-6.196,0.665-8.128,0.456c-1.93-0.207-6.298-1.117-6.604-2.843
			c-0.304-1.727-0.507-3.149,0-3.961C31.441,33.283,32.258,32.742,33.776,32.763z"/>
		<path fill="#777266" d="M64.036,32.763c-2.031,0.03-9.013,0.211-10.247,0.315c-1.234,0.107-2.265,0.509-2.415,2.338
			c-0.144,1.829-0.549,4.166,0.772,5.029c1.319,0.857,6.198,0.665,8.126,0.456c1.931-0.207,6.299-1.117,6.605-2.843
			c0.304-1.728,0.509-3.149,0-3.961C66.371,33.283,65.556,32.742,64.036,32.763z"/>
		
			<linearGradient id="SVGID_5_" gradientUnits="userSpaceOnUse" x1="171.252" y1="-821.657" x2="241.5742" y2="-821.657" gradientTransform="matrix(1 0 0 -1 -157.5996 -774.6772)">
			<stop  offset="0" style="stop-color:#FFFFFF"/>
			<stop  offset="1" style="stop-color:#C8C8C8"/>
		</linearGradient>
		<path fill="url(#SVGID_5_)" d="M81.327,43.198c-1.224,0.05-3.781,0.353-8.112,0.756c-4.329,0.403-7.432,0.854-8.15,2.217
			l-16.25,0.071l-16.25-0.071c-0.715-1.362-3.819-1.813-8.15-2.217c-4.33-0.403-6.888-0.706-8.11-0.756
			c-1.227-0.049-2.74-0.366-2.647,2.012c0.094,2.386,0.293,4.002,2.958,4.312c2.667,0.313,7.417,0.588,10.245,0.801
			c2.829,0.216,6.737,0.708,6.421-0.524c2.732-0.118,1.107,0.918,3.242,0.98c2.128,0.054,12.289,0,12.289,0s10.163,0.054,12.294,0
			c2.129-0.062,0.509-1.099,3.24-0.98c-0.317,1.232,3.587,0.74,6.418,0.524c2.833-0.213,7.578-0.485,10.246-0.801
			c2.669-0.312,2.87-1.927,2.96-4.312C84.062,42.831,82.551,43.149,81.327,43.198z"/>
	</g>
	<line fill="none" x1="37.05" y1="44.952" x2="37.05" y2="41.739"/>
	<g>
		<g>
			<linearGradient id="SVGID_6_" gradientUnits="userSpaceOnUse" x1="60.9492" y1="46.8284" x2="92.8203" y2="46.8284">
				<stop  offset="0" style="stop-color:#FFFFFF"/>
				<stop  offset="1" style="stop-color:#C8C8C8"/>
			</linearGradient>
			<path fill="url(#SVGID_6_)" d="M90.895,33.953L90.895,33.953H78.316h-15.44c-1.064,0-1.927,0.865-1.927,1.928v10.59v11.302v0.002
				c0,1.068,0.862,1.93,1.927,1.93l0,0h12.579h15.439c1.064,0,1.926-0.863,1.926-1.93v-10.59V35.883v-0.002
				C92.822,34.815,91.962,33.953,90.895,33.953z"/>
			<path fill="#777266" d="M90.343,34.367c1.029,0,1.856,0.832,1.856,1.857v0.002v10.876v10.19c0,1.029-0.831,1.858-1.856,1.858
				H75.471H63.359c-1.031,0-1.857-0.831-1.857-1.858l0,0V46.414v-10.19c0-1.027,0.832-1.857,1.857-1.857h14.87H90.343
				 M90.895,32.687H78.316h-15.44c-1.762,0-3.191,1.432-3.191,3.194v10.59v11.302c0,1.763,1.432,3.196,3.191,3.196h12.579h15.439
				c1.762,0,3.192-1.436,3.192-3.194v-10.59V35.883C94.09,34.119,92.656,32.687,90.895,32.687L90.895,32.687z"/>
		</g>
		
			<linearGradient id="SVGID_7_" gradientUnits="userSpaceOnUse" x1="397.1035" y1="1982.3577" x2="415.043" y2="1982.3577" gradientTransform="matrix(1 0 0 1 -315.1992 -1930.6953)">
			<stop  offset="0" style="stop-color:#E6E6E6"/>
			<stop  offset="0.5398" style="stop-color:#FFFFFF"/>
			<stop  offset="1" style="stop-color:#C8C8C8"/>
		</linearGradient>
		<path fill="url(#SVGID_7_)" d="M90.863,60.632c-4.957-0.011-8.968-4.032-8.96-8.981c0.008-4.955,4.04-8.981,8.986-8.959
			c4.959,0.017,8.968,4.043,8.954,8.987C99.827,56.633,95.805,60.643,90.863,60.632z"/>
		<g>
			<g>
				
					<linearGradient id="SVGID_8_" gradientUnits="userSpaceOnUse" x1="395.6719" y1="1982.3567" x2="416.4688" y2="1982.3567" gradientTransform="matrix(1 0 0 1 -315.1992 -1930.6953)">
					<stop  offset="0" style="stop-color:#E6E6E6"/>
					<stop  offset="0.5398" style="stop-color:#FFFFFF"/>
					<stop  offset="1" style="stop-color:#C8C8C8"/>
				</linearGradient>
				<path fill="url(#SVGID_8_)" d="M90.884,62.059h-0.026c-5.734-0.009-10.392-4.675-10.385-10.408
					c0.011-5.726,4.662-10.387,10.381-10.387c5.774,0.022,10.431,4.693,10.415,10.417C101.249,57.404,96.59,62.059,90.884,62.059z
					 M90.892,42.244c-5.21,0-9.425,4.222-9.433,9.406c-0.01,5.188,4.212,9.418,9.404,9.424l0.024,0.262v-0.262
					c5.167,0,9.387-4.215,9.404-9.402C100.304,46.499,96.09,42.268,90.892,42.244z M90.064,59.458c-0.083,0-0.161-0.018-0.227-0.03
					l-0.08-0.02c-1.263-0.192-2.398-0.652-3.392-1.354c-1.176-0.837-2.069-1.93-2.653-3.244c-0.314-0.708-0.525-1.484-0.627-2.308
					c-0.018-0.129,0.01-0.232,0.077-0.309c0.068-0.077,0.164-0.114,0.281-0.114h0.031c0.172,0.011,0.318-0.002,0.414-0.05
					c0.183-0.09,0.267-0.271,0.221-0.479c-0.033-0.158-0.224-0.292-0.43-0.307c-0.027,0-0.046,0.004-0.071,0.009
					c-0.27,0.03-0.426-0.082-0.472-0.16c-0.095-0.148-0.062-0.326-0.032-0.446c0.007-0.028,0.012-0.055,0.018-0.08
					c0.189-1.239,0.636-2.361,1.318-3.348c0.839-1.193,1.928-2.099,3.241-2.688c0.723-0.326,1.513-0.544,2.345-0.647l0.078-0.007
					c0.132,0,0.217,0.057,0.261,0.104c0.106,0.112,0.095,0.251,0.091,0.303c-0.01,0.173-0.004,0.302,0.058,0.408
					c0.088,0.177,0.279,0.259,0.482,0.213c0.149-0.036,0.278-0.222,0.297-0.425c0-0.023-0.004-0.048-0.006-0.071
					c-0.017-0.116-0.043-0.352,0.17-0.483c0.129-0.075,0.309-0.056,0.448-0.025c0.026,0.006,0.053,0.013,0.079,0.017
					c1.263,0.196,2.404,0.658,3.392,1.357c1.172,0.834,2.071,1.93,2.663,3.26c0.254,0.569,0.592,1.759,0.618,2.32
					c0.026,0.123-0.018,0.211-0.059,0.263c-0.098,0.13-0.251,0.13-0.3,0.13h-0.068c-0.073,0-0.146,0-0.216,0.013
					c-0.25,0.037-0.395,0.182-0.396,0.391c-0.008,0.223,0.143,0.383,0.394,0.428l0.027,0.264l0.035-0.257
					c0.024,0,0.047-0.005,0.068-0.007c0.261-0.028,0.412,0.086,0.461,0.164c0.09,0.146,0.052,0.321,0.025,0.447l-0.018,0.077
					c-0.185,1.239-0.631,2.361-1.316,3.348c-0.839,1.193-1.924,2.099-3.239,2.689c-0.719,0.324-1.507,0.544-2.348,0.646
					l-0.073,0.007c-0.132,0-0.213-0.057-0.257-0.104c-0.104-0.107-0.1-0.248-0.095-0.3c0.006-0.17,0.002-0.302-0.055-0.407
					c-0.09-0.182-0.281-0.264-0.481-0.214c-0.149,0.032-0.28,0.222-0.301,0.425c0,0.021,0.003,0.048,0.008,0.073
					c0.018,0.112,0.042,0.346-0.171,0.479C90.22,59.439,90.149,59.458,90.064,59.458z M83.624,52.599
					c0.104,0.714,0.291,1.388,0.563,1.998c0.547,1.225,1.381,2.245,2.48,3.028c0.922,0.656,1.985,1.084,3.172,1.268
					c0.028,0.006,0.063,0.011,0.093,0.021c0-0.039-0.004-0.076,0-0.112c0.038-0.438,0.327-0.801,0.7-0.888
					c0.425-0.099,0.859,0.094,1.06,0.478c0.092,0.168,0.113,0.343,0.116,0.514c0.73-0.104,1.416-0.298,2.037-0.578
					c1.229-0.555,2.244-1.399,3.03-2.52c0.637-0.917,1.052-1.964,1.232-3.123c0.006-0.028,0.008-0.059,0.015-0.089
					c-0.012,0-0.028,0.003-0.04,0.003l-0.166-0.02c-0.496-0.084-0.827-0.467-0.815-0.945c0.007-0.464,0.335-0.816,0.83-0.892
					c0.066-0.011,0.132-0.018,0.192-0.02c-0.063-0.512-0.334-1.479-0.56-1.979c-0.552-1.243-1.394-2.271-2.491-3.05
					c-0.922-0.658-1.989-1.083-3.17-1.269c-0.031-0.005-0.065-0.009-0.099-0.018c0.005,0.036,0.005,0.075,0.003,0.114
					c-0.04,0.43-0.325,0.794-0.702,0.885c-0.424,0.1-0.857-0.095-1.057-0.483c-0.093-0.168-0.114-0.341-0.117-0.509
					c-0.729,0.107-1.412,0.298-2.038,0.582c-1.225,0.549-2.242,1.396-3.026,2.515c-0.642,0.915-1.056,1.969-1.231,3.126
					c-0.005,0.025-0.014,0.058-0.021,0.086c0.022,0,0.04-0.002,0.062-0.002c0.478,0.032,0.854,0.332,0.936,0.71
					c0.094,0.442-0.099,0.854-0.495,1.056C83.942,52.583,83.759,52.599,83.624,52.599z"/>
				<path fill="#777266" d="M90.86,61.278c-5.31-0.015-9.609-4.323-9.604-9.627c0.01-5.312,4.334-9.628,9.639-9.604
					c5.313,0.02,9.609,4.332,9.597,9.633C100.471,56.989,96.16,61.288,90.86,61.278z M98.354,50.891
					c-0.014-0.494-0.342-1.677-0.59-2.235c-0.575-1.278-1.423-2.325-2.562-3.135c-0.979-0.701-2.077-1.12-3.26-1.306
					c-0.121-0.02-0.271-0.075-0.351-0.025c-0.104,0.066-0.033,0.23-0.043,0.352c-0.025,0.312-0.233,0.589-0.496,0.651
					c-0.312,0.076-0.618-0.06-0.769-0.341c-0.084-0.17-0.086-0.36-0.078-0.539c0.006-0.106-0.025-0.147-0.138-0.132
					c-0.782,0.097-1.531,0.298-2.258,0.621c-1.276,0.572-2.313,1.44-3.113,2.586c-0.677,0.974-1.086,2.051-1.266,3.219
					c-0.018,0.116-0.071,0.27-0.021,0.35c0.056,0.093,0.222,0.025,0.338,0.027c0.321,0.026,0.603,0.24,0.661,0.506
					c0.07,0.321-0.068,0.619-0.356,0.764c-0.166,0.086-0.354,0.086-0.539,0.08c-0.098-0.007-0.134,0.02-0.122,0.125
					c0.095,0.767,0.291,1.516,0.605,2.226c0.563,1.271,1.418,2.31,2.552,3.116c0.981,0.702,2.078,1.123,3.261,1.307
					c0.116,0.019,0.27,0.075,0.351,0.025c0.102-0.062,0.028-0.23,0.042-0.35c0.027-0.313,0.23-0.592,0.494-0.651
					c0.314-0.076,0.621,0.058,0.77,0.341c0.089,0.17,0.089,0.355,0.078,0.541c-0.006,0.106,0.02,0.143,0.14,0.13
					c0.782-0.097,1.534-0.296,2.252-0.621c1.28-0.568,2.312-1.44,3.118-2.588c0.673-0.968,1.086-2.047,1.267-3.217
					c0.019-0.118,0.071-0.268,0.022-0.345c-0.056-0.096-0.225-0.024-0.339-0.035c-0.027-0.002-0.05-0.002-0.076-0.011
					c-0.376-0.066-0.612-0.334-0.605-0.684c0.005-0.331,0.239-0.577,0.608-0.635c0.104-0.02,0.214-0.02,0.32-0.018
					C98.333,50.989,98.375,50.971,98.354,50.891z"/>
			</g>
			<g>
				<path fill="#777266" d="M94.285,55.75c-0.167,0.002-0.29-0.078-0.412-0.184c-0.916-0.82-1.829-1.637-2.743-2.456
					c-0.097-0.089-0.19-0.135-0.325-0.137c-0.524-0.015-1.009-0.378-1.171-0.856c-0.187-0.544-0.041-1.107,0.39-1.455
					c0.132-0.104,0.175-0.209,0.179-0.369c0.05-1.127,0.112-2.256,0.172-3.382c0.017-0.317,0.229-0.533,0.51-0.531
					c0.271,0.007,0.466,0.229,0.485,0.551c0.049,1.135,0.1,2.264,0.142,3.401c0.007,0.127,0.041,0.205,0.143,0.278
					c0.319,0.235,0.501,0.553,0.528,0.956c0.007,0.095,0.05,0.169,0.111,0.233c0.832,0.947,1.667,1.903,2.504,2.849
					c0.175,0.199,0.239,0.421,0.124,0.665C94.792,55.571,94.585,55.731,94.285,55.75z"/>
				
					<linearGradient id="SVGID_9_" gradientUnits="userSpaceOnUse" x1="404.5117" y1="1981.76" x2="410.4189" y2="1981.76" gradientTransform="matrix(1 0 0 1 -315.1992 -1930.6953)">
					<stop  offset="0" style="stop-color:#E6E6E6"/>
					<stop  offset="0.5398" style="stop-color:#FFFFFF"/>
					<stop  offset="1" style="stop-color:#C8C8C8"/>
				</linearGradient>
				<path fill="url(#SVGID_9_)" d="M94.272,55.988c-0.263,0-0.448-0.136-0.562-0.237l-1.026-0.922
					c-0.57-0.51-1.143-1.025-1.714-1.541c-0.062-0.052-0.104-0.069-0.169-0.069c-0.623-0.023-1.196-0.442-1.395-1.023
					c-0.223-0.653-0.039-1.314,0.467-1.72c0.066-0.05,0.083-0.084,0.092-0.192c0.049-1.127,0.108-2.249,0.171-3.373
					c0.023-0.449,0.335-0.769,0.732-0.769c0.421,0.015,0.718,0.334,0.737,0.781c0.052,1.133,0.101,2.269,0.143,3.399
					c0.002,0.061,0.012,0.069,0.051,0.093c0.382,0.285,0.594,0.678,0.626,1.138c0,0.021,0.003,0.036,0.047,0.084l2.502,2.849
					c0.327,0.367,0.268,0.708,0.158,0.927c-0.17,0.358-0.46,0.557-0.836,0.576H94.272L94.272,55.988z M90.874,46.619
					c-0.148,0-0.249,0.121-0.256,0.301c-0.065,1.135-0.123,2.255-0.176,3.38c-0.01,0.239-0.086,0.403-0.266,0.548
					c-0.346,0.281-0.473,0.736-0.315,1.191c0.133,0.389,0.529,0.678,0.947,0.695c0.188,0.002,0.338,0.066,0.481,0.194
					c0.573,0.514,1.141,1.029,1.716,1.537l1.029,0.923c0.089,0.082,0.159,0.117,0.238,0.117v0.241l0.006-0.241
					c0.193-0.013,0.331-0.108,0.425-0.303c0.051-0.101,0.072-0.22-0.086-0.401l-2.501-2.847c-0.072-0.082-0.161-0.196-0.168-0.373
					c-0.026-0.33-0.164-0.581-0.433-0.781c-0.159-0.117-0.235-0.255-0.243-0.458c-0.045-1.131-0.091-2.267-0.143-3.399
					C91.12,46.788,91.05,46.626,90.874,46.619z"/>
			</g>
		</g>
		<path fill="#777266" d="M82.718,31.667c0-1.066,0.867-1.932,1.932-1.932h0.991c1.066,0,1.932,0.868,1.932,1.932v4.568
			c0,1.066-0.87,1.925-1.932,1.925h-0.991c-1.066,0-1.932-0.861-1.932-1.925V31.667z"/>
		
			<linearGradient id="SVGID_10_" gradientUnits="userSpaceOnUse" x1="397.6758" y1="1964.6467" x2="403.0156" y2="1964.6467" gradientTransform="matrix(1 0 0 1 -315.1992 -1930.6953)">
			<stop  offset="0" style="stop-color:#E6E6E6"/>
			<stop  offset="0.5398" style="stop-color:#FFFFFF"/>
			<stop  offset="1" style="stop-color:#C8C8C8"/>
		</linearGradient>
		<path fill="url(#SVGID_10_)" d="M85.641,38.406h-0.991c-1.196,0-2.174-0.976-2.174-2.171v-4.568c0-1.198,0.976-2.171,2.174-2.171
			h0.991c1.197,0,2.176,0.974,2.176,2.171v4.568C87.816,37.433,86.838,38.406,85.641,38.406z M84.649,29.978
			c-0.931,0-1.691,0.755-1.691,1.689v4.568c0,0.93,0.761,1.688,1.691,1.688h0.993c0.932,0,1.689-0.758,1.689-1.688v-4.568
			c0-0.934-0.756-1.689-1.689-1.689H84.649z"/>
		<path fill="#777266" d="M66.255,31.667c0-1.066,0.868-1.932,1.933-1.932h0.99c1.068,0,1.931,0.868,1.931,1.932v4.568
			c0,1.066-0.869,1.925-1.931,1.925h-0.99c-1.067,0-1.933-0.861-1.933-1.925V31.667z"/>
		
			<linearGradient id="SVGID_11_" gradientUnits="userSpaceOnUse" x1="381.2129" y1="1964.6467" x2="386.5508" y2="1964.6467" gradientTransform="matrix(1 0 0 1 -315.1992 -1930.6953)">
			<stop  offset="0" style="stop-color:#E6E6E6"/>
			<stop  offset="0.5398" style="stop-color:#FFFFFF"/>
			<stop  offset="1" style="stop-color:#C8C8C8"/>
		</linearGradient>
		<path fill="url(#SVGID_11_)" d="M69.178,38.406h-0.992c-1.196,0-2.172-0.976-2.172-2.171v-4.568c0-1.198,0.974-2.171,2.172-2.171
			h0.992c1.195,0,2.174,0.974,2.174,2.171v4.568C71.352,37.433,70.375,38.406,69.178,38.406z M68.188,29.978
			c-0.932,0-1.688,0.755-1.688,1.689v4.568c0,0.93,0.757,1.688,1.688,1.688h0.992c0.929,0,1.693-0.758,1.693-1.688v-4.568
			c0-0.934-0.765-1.689-1.693-1.689H68.188z"/>
		<path opacity="0.6" fill="#C1BAAC" enable-background="new    " d="M69.039,31.759c0.721,0,1.368,0.297,1.831,0.776
			c0.197-1.945-0.729-2.526-1.732-2.583h-0.896c-0.965,0-1.743,0.78-1.743,1.744v2.602C66.499,32.897,67.636,31.759,69.039,31.759z"
			/>
		<path opacity="0.6" fill="#C1BAAC" enable-background="new    " d="M85.489,31.759c0.716,0,1.369,0.297,1.831,0.776
			c0.191-1.945-0.728-2.526-1.734-2.583h-0.894c-0.962,0-1.745,0.78-1.745,1.744v2.602C82.947,32.897,84.083,31.759,85.489,31.759z"
			/>
		<rect x="64.394" y="40.608" fill="#777266" width="18.093" height="2.765"/>
		<rect x="64.394" y="45.653" fill="#777266" width="13.14" height="2.766"/>
		<rect x="64.509" y="50.842" fill="#777266" width="7.518" height="2.765"/>
	</g>
</g>
</svg>
