<?xml version="1.0" encoding="utf-8"?>
<!-- Generator: Adobe Illustrator 16.0.4, SVG Export Plug-In . SVG Version: 6.00 Build 0)  -->
<!DOCTYPE svg PUBLIC "-//W3C//DTD SVG 1.1//EN" "http://www.w3.org/Graphics/SVG/1.1/DTD/svg11.dtd">
<svg version="1.1" id="Layer_1" xmlns="http://www.w3.org/2000/svg" xmlns:xlink="http://www.w3.org/1999/xlink" x="0px" y="0px"
	 width="68.354px" height="51.926px" viewBox="0 0 68.354 51.926" enable-background="new 0 0 68.354 51.926" xml:space="preserve">
<g>
	<g>
		<g>
			<rect x="0.376" y="-0.037" fill="none" width="67.978" height="51.963"/>
		</g>
	</g>
</g>
<g>
	<g>
		<path fill="#A7A7A7" d="M48.054,34.464c-0.021-0.05-0.038-0.074-0.062-0.074c0,0-0.022,0.002-0.032,0.01
			c-0.123,0.08-0.32,0.27-0.585,0.575c-0.075,0.088-0.168,0.216-0.28,0.381c-0.112,0.172-0.184,0.288-0.208,0.357
			c-0.032,0.067-0.054,0.105-0.077,0.105c-0.016,0-0.033-0.03-0.057-0.075c-0.038-0.074-0.105-0.159-0.205-0.255
			c-0.104-0.094-0.197-0.163-0.29-0.207c-0.025-0.017-0.043-0.02-0.054-0.02c-0.013,0-0.03,0.008-0.048,0.022
			c-0.034,0.027-0.071,0.064-0.107,0.108c-0.06,0.075-0.104,0.129-0.133,0.16c-0.013,0.008-0.017,0.022-0.017,0.036
			c0,0.027,0.017,0.05,0.045,0.064c0.104,0.036,0.166,0.057,0.19,0.071c0.045,0.027,0.112,0.078,0.2,0.155
			c0.187,0.161,0.312,0.341,0.386,0.535c0.013,0.027,0.02,0.069,0.027,0.121c0.008,0.036,0.016,0.054,0.016,0.054
			c0.05,0,0.104-0.018,0.168-0.047c0.024-0.015,0.035-0.051,0.047-0.126c0.017-0.135,0.027-0.21,0.029-0.219
			c0.03-0.166,0.106-0.368,0.227-0.599c0.112-0.217,0.223-0.393,0.329-0.529c0.063-0.071,0.137-0.147,0.231-0.219
			c0.096-0.078,0.165-0.125,0.212-0.138c0,0,0.03-0.007,0.082-0.013c0.018-0.005,0.024-0.016,0.024-0.024
			c0-0.008-0.002-0.021-0.007-0.045C48.083,34.549,48.068,34.491,48.054,34.464z"/>
	</g>
	<g>
		<ellipse fill="#A7A7A7" cx="27.792" cy="23.66" rx="1.398" ry="0.708"/>
		<path fill="#A7A7A7" d="M9.809,28.176c2.185-0.077,5.654-0.143,6.851-0.146c-0.029,2.193,3.786,2.89,4.95,2.89
			c1.156,0,2.193,0,3.498,0c1.303,0,2.165-0.653,2.165-2.256c0-1.6-0.333-2.971-0.333-2.971c-0.305-0.679-1.023-0.768-2.674-0.768
			c-1.652,0-4.271,0-5.142,0c-2.134,0-2.378,0.694-2.525,1.418c-0.156-0.299-0.432-0.34-0.808-0.438
			c-0.375-0.102-4.778-1.277-5.799-1.582c-1.022-0.305-2.96-0.937-3.254,0.083c-0.295,1.026-0.763,2.83,0.762,2.83
			C7.44,28.147,8.085,28.24,9.809,28.176z M17.337,26.166c0.291-0.469,0.762-0.784,1.639-0.771c1.178,0.016,5.223,0.121,5.941,0.183
			c0.709,0.059,1.308,0.294,1.391,1.353c0.089,1.058,0.322,2.414-0.445,2.912c-0.759,0.494-3.586,0.387-4.701,0.264
			c-1.12-0.122-3.648-0.646-3.823-1.646C17.154,27.458,17.034,26.634,17.337,26.166z"/>
		<path fill="#A7A7A7" d="M42.719,27.659c0.209,0,0.376-0.172,0.376-0.379v-3.579c0-0.208-0.165-0.379-0.376-0.379
			c-0.205,0-0.372,0.17-0.372,0.379v3.579C42.347,27.487,42.514,27.659,42.719,27.659z"/>
		<path fill="#A7A7A7" d="M52.45,27.659c0.203,0,0.372-0.172,0.372-0.379v-3.579c0-0.208-0.169-0.379-0.372-0.379
			c-0.214,0-0.378,0.17-0.378,0.379v3.579C52.074,27.487,52.237,27.659,52.45,27.659z"/>
		<path fill="#A7A7A7" d="M28.641,25.694c0,0-0.33,1.37-0.33,2.969c0,1.603,0.865,2.256,2.168,2.256c0.942,0,1.743,0,2.547,0v-0.723
			c-1.25,0.041-2.771-0.012-3.304-0.355c-0.771-0.496-0.529-1.853-0.445-2.913c0.083-1.055,0.679-1.291,1.393-1.353
			c0.317-0.026,1.278-0.061,2.356-0.094v-0.557c-0.604,0-1.203,0-1.705,0C29.667,24.924,28.941,25.014,28.641,25.694z"/>
		<path fill="#A7A7A7" d="M33.026,33.23l-4.737,0.022l-9.503-0.042c-0.413-0.796-2.227-1.059-4.759-1.292
			c-2.536-0.238-4.03-0.413-4.746-0.443c-0.718-0.027-1.603-0.211-1.549,1.178c0.055,1.393,0.174,2.337,1.733,2.518
			c1.561,0.185,4.335,0.343,5.987,0.47c1.654,0.128,3.94,0.413,3.757-0.307c1.593-0.067,0.643,0.538,1.893,0.57
			c1.244,0.034,7.184,0,7.184,0s2.619,0.017,4.748,0.017v-2.69H33.026L33.026,33.23z"/>
		<path fill="#A7A7A7" d="M48.78,20.988c-0.771-0.575-1.549-1.074-2.152-1.438h0.564c0.511,0,2.061,0,2.061-1.411
			c0-1.075-1.213-1.394-1.86-1.41c0,0-0.683-0.006-1.262,0c-0.367,0.005-1.115,0.008-1.154,0.756
			c-1.27-2.414-3.514-5.42-5.264-6.589c-0.609-0.406-1.363-0.419-1.363-0.419h-0.01c-4.501-0.332-10.424-0.334-10.485-0.334h-0.1
			c-0.061,0-5.996,0.003-10.471,0.334c-0.079,0-0.794,0.023-1.391,0.419c-1.768,1.175-4.027,4.214-5.291,6.639
			c-0.011-0.797-0.775-0.801-1.156-0.806c-0.575-0.006-1.264,0-1.27,0c-0.64,0.016-1.855,0.335-1.855,1.41
			c0,1.411,1.556,1.411,2.062,1.411h0.59c-1.421,0.852-3.698,2.384-4.661,3.935c-0.837,1.362-1.134,6.749-1.113,8.27
			c0.014,1.112,0.117,2.825,0.209,4.489l0.148,2.75c0.055,1.487,0.735,2.171,2.142,2.171h5.563c0.795,0,1.411-0.249,1.84-0.742
			c0.053-0.053,0.1-0.12,0.155-0.2l0.041-0.061c0.03-0.053,0.061-0.108,0.097-0.177l0.022-0.042
			c0.034-0.069,0.061-0.139,0.089-0.208l0.011-0.03c0.026-0.062,0.042-0.125,0.062-0.185l0.019-0.065
			c0.013-0.053,0.024-0.103,0.033-0.152l0.014-0.055c0.008-0.062,0.021-0.129,0.029-0.189l0.003-0.036
			c0.005-0.049,0.008-0.098,0.01-0.139c0.067-0.005,0.128-0.005,0.189-0.005c1.433,0,2.342,0.185,3.021,0.324
			c0.1,0.017,0.195,0.033,0.28,0.052c0.828,0.159,4.986,0.322,5.034,0.325l5.509,0.033l5.304-0.033v-1.034l-5.144,0.03l-5.647-0.032
			c-1.662-0.067-4.325-0.2-4.862-0.308c-0.086-0.015-0.18-0.031-0.279-0.051c-0.709-0.146-1.681-0.342-3.216-0.342
			c-0.23,0-0.477,0.008-0.707,0.013c-3.527-0.064-7.558-0.167-8.268-0.253c-0.34-0.047-0.377-0.053-0.421-0.787l-0.035-0.632
			c-0.097-1.649-0.198-3.354-0.211-4.439c-0.027-2.04,0.395-6.791,0.965-7.716c1.178-1.911,4.935-3.959,5.386-4.198h34.433
			c0.231,0.115,1.294,0.697,2.454,1.496l0.05,0.029h1.754L48.78,20.988z M11.32,18.405c1.145-2.347,3.423-5.499,5.146-6.646
			c0.338-0.224,0.801-0.245,0.868-0.251c4.467-0.326,10.36-0.333,10.421-0.333h0.1c0.061,0,5.952,0.007,10.45,0.336
			c0.006,0,0.486,0.018,0.838,0.249c1.728,1.15,4.002,4.31,5.147,6.646H11.32z"/>
		<path fill="#A7A7A7" d="M61.7,40.83c-0.139,0.005-0.251-0.061-0.353-0.152c-0.776-0.7-1.558-1.395-2.335-2.093
			c-0.083-0.075-0.16-0.113-0.275-0.113c-0.447-0.014-0.86-0.328-0.998-0.731c-0.156-0.467-0.032-0.946,0.332-1.24
			c0.115-0.085,0.152-0.177,0.152-0.312c0.043-0.96,0.095-1.92,0.146-2.879c0.018-0.27,0.197-0.452,0.435-0.45
			c0.229,0.007,0.396,0.194,0.411,0.469c0.043,0.965,0.091,1.921,0.123,2.896c0.011,0.1,0.039,0.173,0.119,0.232
			c0.278,0.203,0.43,0.474,0.454,0.812c0.002,0.083,0.039,0.145,0.091,0.201c0.711,0.805,1.42,1.62,2.132,2.423
			c0.148,0.173,0.206,0.358,0.105,0.565C62.13,40.678,61.957,40.818,61.7,40.83z"/>
		<path fill="#A7A7A7" d="M58.784,45.538c-4.52-0.014-8.178-3.678-8.176-8.192c0.015-4.525,3.691-8.195,8.207-8.176
			c4.521,0.018,8.18,3.691,8.169,8.199C66.962,41.885,63.291,45.543,58.784,45.538z M65.159,36.701
			c-0.008-0.426-0.284-1.432-0.497-1.907c-0.49-1.087-1.213-1.981-2.182-2.67c-0.835-0.596-1.769-0.953-2.774-1.107
			c-0.108-0.023-0.23-0.062-0.3-0.023c-0.087,0.055-0.028,0.194-0.035,0.3c-0.019,0.266-0.2,0.498-0.421,0.552
			c-0.269,0.067-0.528-0.047-0.656-0.288c-0.07-0.147-0.07-0.305-0.068-0.457c0.007-0.093-0.02-0.126-0.117-0.116
			c-0.661,0.085-1.301,0.257-1.922,0.531c-1.085,0.487-1.964,1.225-2.648,2.198c-0.573,0.834-0.926,1.749-1.075,2.743
			c-0.015,0.098-0.064,0.227-0.021,0.3c0.046,0.077,0.19,0.017,0.288,0.02c0.272,0.021,0.512,0.207,0.566,0.432
			c0.054,0.272-0.062,0.526-0.305,0.651c-0.143,0.076-0.304,0.076-0.461,0.069c-0.08-0.008-0.11,0.018-0.103,0.105
			c0.083,0.654,0.247,1.289,0.518,1.894c0.474,1.086,1.207,1.968,2.171,2.651c0.833,0.6,1.765,0.957,2.776,1.115
			c0.095,0.014,0.228,0.06,0.299,0.016c0.084-0.053,0.021-0.193,0.032-0.294c0.025-0.267,0.194-0.504,0.419-0.557
			c0.271-0.061,0.528,0.053,0.655,0.29c0.08,0.146,0.08,0.306,0.064,0.462c-0.002,0.088,0.021,0.124,0.123,0.11
			c0.662-0.083,1.302-0.252,1.919-0.529c1.09-0.486,1.965-1.225,2.653-2.204c0.572-0.819,0.922-1.739,1.073-2.737
			c0.021-0.102,0.067-0.23,0.021-0.295c-0.046-0.079-0.188-0.016-0.284-0.027c-0.023-0.002-0.043-0.002-0.069-0.012
			c-0.317-0.052-0.518-0.281-0.51-0.581c0.002-0.28,0.205-0.49,0.515-0.544c0.093-0.014,0.185-0.014,0.272-0.014
			C65.145,36.78,65.184,36.764,65.159,36.701z"/>
		<path fill="#A7A7A7" d="M52.074,42.934H38.161c-0.704,0-1.275-0.574-1.275-1.275V27.459c0-0.7,0.571-1.274,1.275-1.274h2.271
			h1.391v-2.746c0-0.494,0.404-0.895,0.896-0.895c0.494,0,0.9,0.401,0.9,0.895v2.746h1.391h5.152h1.39v-2.746
			c0-0.494,0.4-0.895,0.899-0.895c0.493,0,0.896,0.401,0.896,0.895v2.746h1.388h2.272c0.705,0,1.275,0.574,1.275,1.274v0.2h1.391
			v-0.2c0-1.466-1.193-2.66-2.666-2.66h-2.272v-1.36c0-1.263-1.026-2.287-2.283-2.287c-1.267,0-2.289,1.025-2.289,2.287v1.36h-5.152
			v-1.36c0-1.263-1.03-2.287-2.29-2.287c-1.259,0-2.286,1.025-2.286,2.287v1.36h-2.271c-1.47,0-2.663,1.192-2.663,2.66v14.199
			c0,1.467,1.193,2.666,2.663,2.666h13.913v-1.391H52.074z"/>
	</g>
	<path fill="#A7A7A7" enable-background="new    " d="M49.021,40.117h-0.038v-0.075c-0.149-0.343-0.236-0.715-0.338-1.08v1.152
		h-3.383v-2.799h3.106c-0.012-0.136-0.037-0.266-0.041-0.404h-3.065v-2.8h3.383v0.374c0.325-1.181,0.889-2.248,1.649-3.162h-9.365
		v9.435h8.438C49.255,40.544,49.121,40.34,49.021,40.117z M44.922,40.117h-3.378v-2.802h3.378V40.117z M44.922,36.908h-3.378v-2.8
		h3.378V36.908z"/>
</g>
</svg>
