<?xml version="1.0" encoding="utf-8"?>
<!-- Generator: Adobe Illustrator 16.0.4, SVG Export Plug-In . SVG Version: 6.00 Build 0)  -->
<!DOCTYPE svg PUBLIC "-//W3C//DTD SVG 1.1//EN" "http://www.w3.org/Graphics/SVG/1.1/DTD/svg11.dtd">
<svg version="1.1" id="Layer_1" xmlns="http://www.w3.org/2000/svg" xmlns:xlink="http://www.w3.org/1999/xlink" x="0px" y="0px"
	 width="68.354px" height="51.926px" viewBox="0 0 68.354 51.926" enable-background="new 0 0 68.354 51.926" xml:space="preserve">
<g>
	<g>
		<g>
			<rect x="0.376" y="-0.037" fill="none" width="67.978" height="51.963"/>
		</g>
	</g>
</g>
<g>
	<circle fill="#A7A7A7" cx="23.865" cy="25.963" r="2.375"/>
	<circle fill="#A7A7A7" cx="33.74" cy="25.963" r="2.375"/>
	<circle fill="#A7A7A7" cx="44.49" cy="25.963" r="2.375"/>
</g>
<path fill="#A7A7A7" d="M34.177,44.775c-10.374,0-18.812-8.439-18.812-18.812c0-10.374,8.439-18.812,18.812-18.812
	c10.373,0,18.812,8.439,18.812,18.812C52.99,36.336,44.55,44.775,34.177,44.775z M34.177,9.068c-9.316,0-16.896,7.579-16.896,16.895
	c0,9.316,7.58,16.896,16.896,16.896c9.316,0,16.896-7.579,16.896-16.896C51.073,16.647,43.493,9.068,34.177,9.068z"/>
</svg>
