<?xml version="1.0" encoding="utf-8"?>
<!-- Generator: Adobe Illustrator 16.0.4, SVG Export Plug-In . SVG Version: 6.00 Build 0)  -->
<!DOCTYPE svg PUBLIC "-//W3C//DTD SVG 1.1//EN" "http://www.w3.org/Graphics/SVG/1.1/DTD/svg11.dtd">
<svg version="1.1" id="Layer_1" xmlns="http://www.w3.org/2000/svg" xmlns:xlink="http://www.w3.org/1999/xlink" x="0px" y="0px"
	 width="68.354px" height="51.926px" viewBox="0 0 68.354 51.926" enable-background="new 0 0 68.354 51.926" xml:space="preserve">
<g>
	<g>
		<g>
			<rect x="0.376" y="-0.037" fill="none" width="67.978" height="51.963"/>
		</g>
	</g>
</g>
<g>
	<g>
		<ellipse fill="#A7A7A7" cx="32.66" cy="20.835" rx="1.412" ry="0.717"/>
		<path fill="#A7A7A7" d="M14.441,25.412c2.21-0.08,5.726-0.147,6.941-0.15c-0.031,2.226,3.839,2.93,5.014,2.93
			c1.173,0,2.225,0,3.544,0c1.32,0,2.196-0.661,2.196-2.284c0-1.625-0.334-3.012-0.334-3.012c-0.307-0.689-1.039-0.783-2.713-0.783
			c-1.672,0-4.328,0-5.21,0c-2.165,0-2.41,0.709-2.558,1.443c-0.159-0.305-0.441-0.348-0.821-0.445
			c-0.382-0.106-4.848-1.297-5.875-1.604c-1.034-0.306-3-0.949-3.301,0.087c-0.296,1.038-0.769,2.866,0.777,2.866
			C12.038,25.379,12.693,25.475,14.441,25.412z M22.064,23.375c0.297-0.479,0.78-0.796,1.667-0.782
			c1.191,0.018,5.291,0.124,6.012,0.186c0.725,0.062,1.329,0.298,1.415,1.371c0.088,1.071,0.323,2.444-0.451,2.95
			c-0.773,0.503-3.636,0.391-4.768,0.27c-1.134-0.122-3.693-0.652-3.875-1.667C21.885,24.684,21.762,23.85,22.064,23.375z"/>
	</g>
	<path fill="#A7A7A7" d="M39.232,35.879c-0.331,0.015-0.649,0.029-0.941,0.04l-5.63,0.03l-5.632-0.03
		c-1.678-0.069-4.379-0.205-4.928-0.31c-0.088-0.021-0.178-0.036-0.279-0.058c-0.722-0.144-1.703-0.344-3.257-0.344
		c-0.236,0-0.483,0.003-0.717,0.013c-3.577-0.065-7.657-0.169-8.375-0.261c-0.349-0.044-0.386-0.049-0.428-0.792l-0.039-0.646
		c-0.097-1.662-0.198-3.388-0.209-4.493c-0.029-2.062,0.399-6.88,0.973-7.817c1.193-1.937,5-4.013,5.458-4.26h17.437h6.57v-1.439
		h-6.57H15.969c1.159-2.381,3.469-5.571,5.217-6.735c0.345-0.227,0.812-0.248,0.876-0.25c4.525-0.336,10.5-0.339,10.563-0.339h0.036
		h0.039c0.059,0,6.034,0.004,10.562,0.339c0.062,0.002,0.529,0.023,0.873,0.25c0.39,0.26,0.811,0.624,1.239,1.056h1.422
		c-0.713-0.813-1.431-1.496-2.082-1.928c-0.604-0.403-1.329-0.427-1.407-0.428C38.772,7.141,32.76,7.138,32.702,7.138h-0.037h-0.037
		c-0.062,0-6.073,0.003-10.61,0.339c-0.079,0-0.8,0.024-1.407,0.428c-1.789,1.187-4.08,4.267-5.365,6.721
		c-0.011-0.804-0.789-0.812-1.167-0.817c-0.587-0.001-1.281,0-1.289,0c-0.647,0.019-1.877,0.338-1.877,1.429
		c0,1.432,1.571,1.432,2.087,1.432h0.595c-1.437,0.862-3.75,2.414-4.72,3.985c-0.846,1.381-1.147,6.838-1.128,8.382
		c0.012,1.127,0.115,2.864,0.212,4.546l0.149,2.791c0.054,1.5,0.745,2.2,2.17,2.2h5.638c2.43,0,2.455-2.271,2.458-2.315
		c0.063,0,0.126,0,0.188,0c1.45,0,2.373,0.181,3.063,0.322c0.098,0.02,0.188,0.039,0.278,0.056c0.843,0.161,5.051,0.326,5.101,0.329
		l5.587,0.033h0.072h0.071l5.585-0.033c0.015,0,0.38-0.015,0.917-0.04v-1.047H39.232L39.232,35.879z"/>
	<path fill="#A7A7A7" d="M39.318,30.524l-6.644,0.028l-9.139-0.039c-0.424-0.804-2.263-1.075-4.83-1.313
		c-2.564-0.241-4.08-0.418-4.803-0.445c-0.724-0.032-1.622-0.219-1.568,1.19c0.055,1.411,0.174,2.37,1.756,2.556
		c1.577,0.185,4.39,0.348,6.067,0.475c1.674,0.126,3.991,0.421,3.805-0.31c1.616-0.072,0.652,0.541,1.917,0.579
		c1.044,0.028,5.338,0.013,6.794,0.005c1.393,0.008,5.396,0.023,6.645-0.001V30.524z"/>
	<path fill="#A7A7A7" d="M39.318,27.373c-1.172,0.123-3.945,0.219-4.704-0.276c-0.775-0.505-0.54-1.878-0.454-2.951
		c0.088-1.073,0.689-1.31,1.418-1.372c0.447-0.037,2.193-0.093,3.739-0.136v-0.524c-1.03,0-2.197,0-3.083,0
		c-1.675,0-2.407,0.089-2.714,0.779c0,0-0.333,1.388-0.333,3.011s0.876,2.287,2.196,2.287s2.368,0,3.541,0
		c0.112,0,0.242-0.006,0.394-0.021V27.373z"/>
	<g>
		<path fill="#A7A7A7" d="M58.381,12.589h-6.295h-0.31H45.48c-1.229,0-2.226,0.891-2.226,1.992v28.216
			c0,1.098,0.997,1.991,2.226,1.991h6.297h0.31h6.295c1.227,0,2.226-0.89,2.226-1.991V14.581
			C60.607,13.478,59.61,12.589,58.381,12.589z M49.665,15.162h2.111h0.31h2.109c0.143,0,0.26,0.108,0.26,0.236
			c0,0.127-0.117,0.231-0.26,0.231h-2.109h-0.31h-2.111c-0.143,0-0.262-0.102-0.262-0.231
			C49.404,15.268,49.523,15.162,49.665,15.162z M51.929,43.903c-0.766-0.027-1.379-0.588-1.379-1.282
			c0-0.691,0.613-1.252,1.379-1.284c0.769,0.028,1.382,0.59,1.382,1.284C53.309,43.313,52.696,43.875,51.929,43.903z M59.329,40.395
			h-7.245h-0.31h-7.247V17.037h7.247h0.31h7.245V40.395z"/>
		<g>
			<path fill="#A7A7A7" d="M51.59,26.205l-1.966,1.921l0.455,1.32l1.927-0.606c0,0,0.284-1.259,0.548-2.471L51.59,26.205z"/>
			<path fill="#A7A7A7" d="M53.216,31.007l1.939-1.899l-0.828-2.435l-1.133-0.193c-0.229,1.07-0.463,2.164-0.512,2.392
				c-0.104,0.475-0.178,0.479-0.414,0.555c-0.095,0.032-0.976,0.295-1.992,0.598l0.182,0.519L53.216,31.007z"/>
			<path fill="#A7A7A7" d="M49.476,29.637l-0.552-1.584c-0.01-0.026,0.003-0.072,0.025-0.096l2.366-2.292
				c0.023-0.023,0.072-0.037,0.108-0.031l1.246,0.215c0.181-0.826,0.331-1.533,0.338-1.667h-4.731c-0.7,0-1.265,0.507-1.265,1.134
				v5.1L49.476,29.637z"/>
			<path fill="#A7A7A7" d="M55.52,24.181h-1.838c0,0-0.176,0.822-0.379,1.776l1.408,0.24c0.03,0.005,0.072,0.036,0.081,0.065
				l1.002,2.911c0.013,0.029-0.002,0.074-0.025,0.096l-2.333,2.269c-0.022,0.021-0.072,0.034-0.105,0.029l-3.323-0.561l-0.003,0.024
				l0.003-0.024c-0.032-0.006-0.07-0.035-0.081-0.063l-0.257-0.738c-1.192,0.351-2.396,0.709-2.665,0.79v0.8
				c0,0.628,0.568,1.135,1.269,1.135h7.245c0.7,0,1.268-0.507,1.268-1.135v-6.481C56.787,24.689,56.221,24.181,55.52,24.181z"/>
		</g>
	</g>
</g>
</svg>
