<?xml version="1.0" encoding="utf-8"?>
<!-- Generator: Adobe Illustrator 16.0.4, SVG Export Plug-In . SVG Version: 6.00 Build 0)  -->
<!DOCTYPE svg PUBLIC "-//W3C//DTD SVG 1.1//EN" "http://www.w3.org/Graphics/SVG/1.1/DTD/svg11.dtd">
<svg version="1.1" id="Layer_1" xmlns="http://www.w3.org/2000/svg" xmlns:xlink="http://www.w3.org/1999/xlink" x="0px" y="0px"
	 width="68.354px" height="51.926px" viewBox="0 0 68.354 51.926" enable-background="new 0 0 68.354 51.926" xml:space="preserve">
<g>
	<g>
		<g>
			<rect x="0.376" y="-0.037" fill="none" width="67.978" height="51.963"/>
		</g>
	</g>
</g>
<g>
	<path fill="#A7A7A7" d="M30.962,38.489l-2.451-0.894c-0.351-0.13-0.744,0.054-0.873,0.409c-0.131,0.353,0.051,0.742,0.407,0.873
		l2.45,0.894c0.077,0.029,0.156,0.042,0.235,0.042c0.278,0,0.54-0.172,0.64-0.448C31.498,39.012,31.318,38.619,30.962,38.489z"/>
	<path fill="#A7A7A7" d="M26.062,36.702l-2.453-0.895c-0.349-0.129-0.744,0.055-0.874,0.407c-0.129,0.355,0.053,0.746,0.408,0.875
		l2.451,0.896c0.077,0.027,0.155,0.041,0.233,0.041c0.278,0,0.539-0.172,0.64-0.451C26.598,37.223,26.413,36.831,26.062,36.702z"/>
	<path fill="#A7A7A7" d="M35.865,40.279l-2.453-0.896c-0.349-0.128-0.744,0.057-0.874,0.406c-0.129,0.355,0.053,0.748,0.408,0.878
		l2.452,0.893c0.078,0.027,0.156,0.041,0.234,0.041c0.279,0,0.537-0.173,0.64-0.447C36.402,40.8,36.219,40.408,35.865,40.279z"/>
	<path fill="#A7A7A7" d="M40.768,42.07l-2.451-0.897c-0.355-0.129-0.744,0.054-0.875,0.407c-0.13,0.355,0.054,0.746,0.408,0.875
		l2.45,0.896c0.079,0.029,0.159,0.042,0.235,0.042c0.277,0,0.539-0.172,0.642-0.449C41.304,42.59,41.119,42.198,40.768,42.07z"/>
	<path fill="#A7A7A7" d="M44.449,12.751c-3.34,0-6.062,2.719-6.062,6.061c0,3.343,2.723,6.063,6.062,6.063
		c3.343,0,6.064-2.72,6.064-6.063C50.516,15.472,47.792,12.751,44.449,12.751z M44.449,23.292c-2.465,0-4.477-2.009-4.477-4.476
		c0-2.469,2.012-4.477,4.477-4.477c2.469,0,4.474,2.007,4.474,4.477C48.924,21.281,46.918,23.292,44.449,23.292z"/>
	<path fill="#A7A7A7" d="M44.449,7.113c-6.452,0-11.698,5.249-11.698,11.698c0,0.876,0.108,1.779,0.314,2.655
		c0.009,0.063,0.015,0.122,0.031,0.181c1.469,5.845,5.738,13.917,9.838,21.279c-0.257,0.021-0.498,0.184-0.593,0.445
		c-0.128,0.354,0.054,0.745,0.409,0.873c0,0,1.505,0.568,1.698,0.568c0.288,0,0.552-0.154,0.691-0.409
		c4.338-7.742,9.093-16.525,10.66-22.767c0.013-0.061,0.024-0.117,0.024-0.141c0.209-0.91,0.322-1.812,0.322-2.684
		C56.149,12.362,50.9,7.113,44.449,7.113z M54.279,21.134c-0.003,0.017-0.011,0.108-0.016,0.127
		c-1.439,5.72-5.724,13.793-9.813,21.13c-4.089-7.335-8.371-15.405-9.808-21.123c-0.005-0.027-0.019-0.112-0.024-0.138
		c-0.184-0.785-0.278-1.562-0.278-2.317c0-5.574,4.534-10.111,10.111-10.111c5.575,0,10.11,4.537,10.11,10.113
		C54.561,19.563,54.466,20.344,54.279,21.134z"/>
	<path fill="#A7A7A7" d="M23.748,19.037c0-2.203-1.792-3.994-3.996-3.994c-2.203,0-3.993,1.791-3.993,3.994
		c0,2.203,1.791,3.995,3.993,3.995C21.956,23.031,23.748,21.24,23.748,19.037z M19.752,16.387c1.462,0,2.653,1.19,2.653,2.653
		c0,1.461-1.189,2.652-2.653,2.652c-1.462,0-2.651-1.189-2.651-2.652S18.291,16.387,19.752,16.387z"/>
	<path fill="#A7A7A7" d="M19.752,11.488c-4.161,0-7.545,3.386-7.545,7.548c0,0.56,0.067,1.136,0.202,1.715
		c0.005,0.041,0.011,0.082,0.021,0.113c0.974,3.873,3.869,9.265,6.558,14.072c0.192,0.319,0.361,0.769,0.688,0.888l1.015,0.369
		c0.076,0.028,0.154,0.043,0.234,0.043c0.277,0,0.54-0.174,0.64-0.45c0.129-0.354-0.053-0.746-0.408-0.875l-0.52-0.191
		c2.654-4.758,5.481-10.048,6.44-13.868c0.015-0.062,0.018-0.091,0.017-0.091c0,0-0.001,0.001-0.001,0.005
		c0.136-0.594,0.208-1.177,0.208-1.729C27.301,14.874,23.913,11.488,19.752,11.488z M13.719,20.458
		c-0.114-0.488-0.173-0.965-0.173-1.421c0-3.421,2.784-6.206,6.205-6.206c3.422,0,6.208,2.784,6.208,6.208
		c0,0.456-0.059,0.934-0.172,1.42l-0.013,0.082c-0.871,3.471-3.396,8.291-6.022,13.015c-2.622-4.72-5.144-9.534-6.014-12.995
		L13.719,20.458z"/>
</g>
</svg>
