<?xml version="1.0" encoding="utf-8"?>
<!-- Generator: Adobe Illustrator 16.0.4, SVG Export Plug-In . SVG Version: 6.00 Build 0)  -->
<!DOCTYPE svg PUBLIC "-//W3C//DTD SVG 1.1//EN" "http://www.w3.org/Graphics/SVG/1.1/DTD/svg11.dtd">
<svg version="1.1" id="Layer_1" xmlns="http://www.w3.org/2000/svg" xmlns:xlink="http://www.w3.org/1999/xlink" x="0px" y="0px"
	 width="68.354px" height="51.926px" viewBox="0 0 68.354 51.926" enable-background="new 0 0 68.354 51.926" xml:space="preserve">
<g>
	<g>
		<g>
			<rect x="0.376" y="-0.037" fill="none" width="67.978" height="51.963"/>
		</g>
	</g>
</g>
<polygon fill="#A7A7A7" enable-background="new    " points="43.374,24.706 35.435,24.706 35.435,16.765 32.919,16.765 
	32.919,24.706 24.98,24.706 24.98,27.218 32.919,27.218 32.919,35.16 35.435,35.16 35.435,27.218 43.374,27.218 "/>
<g>
	<g>
		<path fill="#A7A7A7" d="M48.97,34.366l-1.125-0.64c0,0-0.248,0.443-0.531,0.867c-0.133,0.219-0.293,0.417-0.398,0.577
			c-0.107,0.155-0.188,0.257-0.188,0.257l1.031,0.779c0,0,0.084-0.107,0.203-0.277c0.119-0.171,0.287-0.388,0.432-0.623
			C48.7,34.848,48.97,34.366,48.97,34.366z"/>
		<path fill="#A7A7A7" d="M50.509,30.736l-1.244-0.362c0,0-0.035,0.122-0.088,0.306c-0.062,0.18-0.141,0.419-0.225,0.662
			c-0.09,0.238-0.186,0.474-0.252,0.65c-0.072,0.178-0.129,0.293-0.129,0.293l1.186,0.521c0,0,0.061-0.126,0.137-0.313
			c0.076-0.194,0.178-0.453,0.275-0.706c0.09-0.262,0.18-0.522,0.244-0.717C50.472,30.871,50.509,30.736,50.509,30.736z"/>
		<path fill="#A7A7A7" d="M51.169,26.861l-1.293-0.067c0,0-0.01,0.127-0.025,0.318c-0.018,0.189-0.027,0.444-0.066,0.695
			c-0.055,0.506-0.15,1.005-0.15,1.005l1.273,0.234c0,0,0.105-0.541,0.164-1.086c0.041-0.274,0.053-0.55,0.07-0.757
			C51.157,27.001,51.169,26.861,51.169,26.861z"/>
	</g>
	<g>
		<path fill="#A7A7A7" d="M40.111,41.908l-0.451-1.213c0,0-0.119,0.044-0.301,0.105c-0.182,0.058-0.42,0.15-0.664,0.215
			c-0.246,0.067-0.49,0.144-0.676,0.187c-0.186,0.041-0.309,0.071-0.309,0.071l0.289,1.263c0,0,0.135-0.031,0.336-0.076
			c0.201-0.047,0.465-0.131,0.73-0.202c0.266-0.072,0.525-0.174,0.721-0.235C39.982,41.958,40.111,41.908,40.111,41.908z"/>
		<path fill="#A7A7A7" d="M43.622,40.113l-0.721-1.077c0,0-0.105,0.07-0.266,0.171c-0.16,0.104-0.375,0.242-0.598,0.364
			c-0.221,0.13-0.443,0.252-0.613,0.335c-0.172,0.089-0.283,0.147-0.283,0.147l0.572,1.159c0,0,0.125-0.062,0.309-0.157
			c0.186-0.089,0.426-0.225,0.664-0.363c0.24-0.133,0.471-0.279,0.646-0.395C43.507,40.187,43.622,40.113,43.622,40.113z"/>
		<path fill="#A7A7A7" d="M46.616,37.565l-0.947-0.886c0,0-0.088,0.093-0.221,0.231c-0.127,0.144-0.314,0.317-0.498,0.491
			c-0.18,0.18-0.375,0.343-0.521,0.47c-0.143,0.124-0.24,0.207-0.24,0.207l0.824,0.999c0,0,0.105-0.091,0.262-0.226
			c0.154-0.137,0.365-0.311,0.562-0.507c0.199-0.191,0.4-0.379,0.539-0.533C46.521,37.663,46.616,37.565,46.616,37.565z"/>
	</g>
	<g>
		<path fill="#A7A7A7" d="M28.475,41.982l0.435-1.22c0,0-0.12-0.035-0.297-0.111c-0.176-0.07-0.417-0.157-0.648-0.261
			c-0.231-0.104-0.465-0.205-0.636-0.291c-0.169-0.085-0.283-0.145-0.283-0.145l-0.59,1.154c0,0,0.122,0.062,0.307,0.156
			c0.187,0.089,0.439,0.2,0.69,0.314c0.25,0.111,0.511,0.204,0.702,0.284C28.344,41.942,28.475,41.982,28.475,41.982z"/>
		<path fill="#A7A7A7" d="M32.32,42.866l0.141-1.289c0,0-0.128-0.016-0.317-0.039c-0.191-0.022-0.441-0.057-0.692-0.105
			c-0.25-0.043-0.5-0.088-0.686-0.138c-0.187-0.044-0.311-0.069-0.311-0.069l-0.305,1.257c0,0,0.133,0.031,0.335,0.078
			c0.198,0.051,0.471,0.1,0.743,0.146c0.27,0.053,0.543,0.089,0.749,0.114C32.184,42.851,32.32,42.866,32.32,42.866z"/>
		<path fill="#A7A7A7" d="M36.249,42.84l-0.156-1.284c0,0-0.125,0.014-0.314,0.038c-0.191,0.015-0.443,0.032-0.697,0.054
			c-0.254,0.017-0.509,0.017-0.701,0.023c-0.19,0.007-0.317,0-0.317,0l-0.012,1.296c0,0,0.139,0.005,0.346-0.003
			c0.206-0.005,0.48-0.005,0.756-0.023c0.273-0.021,0.549-0.041,0.756-0.058C36.113,42.858,36.249,42.84,36.249,42.84z"/>
	</g>
	<g>
		<path fill="#A7A7A7" d="M19.515,34.563l1.118-0.655c0,0-0.263-0.437-0.488-0.895c-0.122-0.225-0.221-0.46-0.3-0.632
			c-0.078-0.176-0.131-0.292-0.131-0.292l-1.193,0.507c0,0,0.057,0.126,0.144,0.315c0.084,0.187,0.193,0.44,0.325,0.684
			C19.232,34.091,19.515,34.563,19.515,34.563z"/>
		<path fill="#A7A7A7" d="M21.893,37.709l0.937-0.894c0,0-0.087-0.095-0.22-0.231c-0.13-0.138-0.292-0.335-0.46-0.528
			c-0.167-0.191-0.317-0.398-0.437-0.543c-0.121-0.148-0.193-0.255-0.193-0.255l-1.044,0.766c0,0,0.079,0.115,0.208,0.277
			c0.13,0.16,0.293,0.381,0.473,0.588c0.183,0.207,0.358,0.421,0.5,0.571C21.799,37.608,21.893,37.709,21.893,37.709z"/>
		<path fill="#A7A7A7" d="M24.919,40.219l0.708-1.085c0,0-0.11-0.067-0.267-0.174c-0.156-0.109-0.363-0.257-0.57-0.404
			c-0.201-0.159-0.401-0.314-0.55-0.435c-0.147-0.122-0.243-0.205-0.243-0.205L23.156,38.9c0,0,0.103,0.09,0.264,0.225
			c0.162,0.126,0.379,0.297,0.595,0.468c0.224,0.158,0.449,0.318,0.617,0.439C24.802,40.146,24.919,40.219,24.919,40.219z"/>
	</g>
	<g>
		<path fill="#A7A7A7" d="M17.421,23.121l1.277,0.216c0,0,0.023-0.126,0.056-0.312c0.028-0.189,0.089-0.436,0.146-0.685
			c0.053-0.249,0.123-0.494,0.176-0.677c0.052-0.184,0.087-0.306,0.087-0.306l-1.239-0.38c0,0-0.036,0.132-0.093,0.331
			c-0.058,0.199-0.133,0.464-0.191,0.733c-0.062,0.269-0.127,0.536-0.159,0.741C17.446,22.986,17.421,23.121,17.421,23.121z"/>
		<path fill="#A7A7A7" d="M17.219,27.058l1.294-0.081c0,0-0.001-0.03-0.006-0.087c-0.004-0.055-0.011-0.135-0.012-0.23
			c-0.006-0.192-0.012-0.445-0.02-0.699c0.006-0.256,0.013-0.511,0.02-0.701c0.002-0.191,0.018-0.318,0.018-0.318l-1.294-0.082
			c0,0-0.015,0.138-0.021,0.343c-0.004,0.207-0.012,0.482-0.018,0.756c0.006,0.275,0.014,0.551,0.018,0.756
			c0.001,0.104,0.008,0.19,0.013,0.25C17.216,27.024,17.219,27.058,17.219,27.058z"/>
		<path fill="#A7A7A7" d="M17.918,30.928l1.241-0.378c0,0-0.035-0.121-0.088-0.307c-0.055-0.182-0.122-0.425-0.175-0.676
			c-0.057-0.249-0.116-0.494-0.144-0.686c-0.032-0.187-0.057-0.311-0.057-0.311l-1.277,0.212c0,0,0.025,0.136,0.06,0.34
			c0.031,0.203,0.095,0.473,0.158,0.739c0.057,0.271,0.13,0.535,0.188,0.734C17.88,30.795,17.918,30.928,17.918,30.928z"/>
	</g>
	<g>
		<path fill="#A7A7A7" d="M23.17,13.011l0.839,0.987c0,0,0.095-0.087,0.243-0.206c0.15-0.118,0.351-0.276,0.551-0.432
			c0.208-0.147,0.414-0.295,0.57-0.405c0.161-0.105,0.267-0.173,0.267-0.173l-0.707-1.087c0,0-0.115,0.074-0.288,0.188
			c-0.168,0.119-0.394,0.278-0.617,0.438c-0.216,0.169-0.434,0.34-0.597,0.467C23.272,12.917,23.17,13.011,23.17,13.011z"/>
		<path fill="#A7A7A7" d="M20.483,15.895l1.042,0.769c0,0,0.073-0.106,0.193-0.253c0.12-0.148,0.271-0.355,0.438-0.547
			c0.167-0.191,0.33-0.387,0.46-0.526c0.133-0.138,0.22-0.23,0.22-0.23l-0.936-0.896c0,0-0.094,0.1-0.237,0.249
			c-0.142,0.15-0.318,0.363-0.499,0.57c-0.181,0.206-0.344,0.43-0.475,0.59C20.561,15.781,20.483,15.895,20.483,15.895z"/>
		<path fill="#A7A7A7" d="M18.532,19.307l1.191,0.507c0,0,0.053-0.115,0.13-0.29c0.081-0.173,0.18-0.408,0.302-0.632
			c0.116-0.225,0.229-0.455,0.33-0.618C20.579,18.109,20.645,18,20.645,18l-1.118-0.659c0,0-0.068,0.119-0.171,0.3
			c-0.107,0.176-0.23,0.423-0.354,0.668c-0.132,0.243-0.242,0.496-0.327,0.684C18.588,19.181,18.532,19.307,18.532,19.307z"/>
	</g>
	<g>
		<path fill="#A7A7A7" d="M34.074,8.958l0.008,1.296c0,0,0.127-0.005,0.318,0.002c0.19,0.008,0.447,0.005,0.699,0.024
			c0.254,0.019,0.51,0.038,0.699,0.053c0.191,0.024,0.314,0.041,0.314,0.041l0.158-1.286c0,0-0.139-0.018-0.344-0.043
			c-0.203-0.016-0.479-0.037-0.754-0.058c-0.275-0.019-0.55-0.018-0.756-0.025C34.213,8.954,34.074,8.958,34.074,8.958z"/>
		<path fill="#A7A7A7" d="M30.161,9.439l0.304,1.258c0,0,0.125-0.028,0.31-0.072c0.185-0.047,0.436-0.091,0.686-0.136
			c0.25-0.049,0.503-0.082,0.692-0.104c0.189-0.025,0.315-0.042,0.315-0.042l-0.141-1.288c0,0-0.136,0.018-0.342,0.044
			c-0.206,0.024-0.479,0.06-0.749,0.113c-0.27,0.048-0.542,0.096-0.742,0.147C30.294,9.409,30.161,9.439,30.161,9.439z"/>
		<path fill="#A7A7A7" d="M26.474,10.807l0.589,1.154c0,0,0.112-0.057,0.282-0.145c0.173-0.079,0.405-0.184,0.635-0.288
			c0.235-0.103,0.474-0.19,0.649-0.261c0.176-0.073,0.3-0.11,0.3-0.11l-0.434-1.221c0,0-0.133,0.04-0.325,0.118
			c-0.191,0.079-0.45,0.172-0.702,0.282c-0.25,0.114-0.501,0.228-0.69,0.313C26.597,10.745,26.474,10.807,26.474,10.807z"/>
	</g>
	<g>
		<path fill="#A7A7A7" d="M45.031,12.862l-0.826,0.998c0,0,0.098,0.083,0.244,0.208c0.143,0.125,0.338,0.291,0.518,0.469
			c0.188,0.175,0.371,0.35,0.498,0.492c0.135,0.138,0.221,0.229,0.221,0.229l0.947-0.883c0,0-0.092-0.099-0.236-0.249
			c-0.139-0.152-0.34-0.342-0.541-0.531c-0.193-0.193-0.406-0.373-0.561-0.506C45.136,12.953,45.031,12.862,45.031,12.862z"/>
		<path fill="#A7A7A7" d="M41.724,10.717l-0.576,1.16c0,0,0.113,0.057,0.283,0.145c0.174,0.083,0.393,0.209,0.613,0.336
			c0.225,0.124,0.439,0.26,0.598,0.364c0.162,0.104,0.268,0.173,0.268,0.173l0.721-1.078c0,0-0.115-0.074-0.291-0.185
			c-0.17-0.112-0.404-0.261-0.645-0.393c-0.24-0.14-0.479-0.276-0.664-0.366C41.847,10.78,41.724,10.717,41.724,10.717z"/>
		<path fill="#A7A7A7" d="M38.021,9.396l-0.291,1.262c0,0,0.125,0.029,0.309,0.072c0.188,0.044,0.43,0.119,0.676,0.187
			c0.244,0.067,0.482,0.161,0.666,0.217c0.18,0.058,0.299,0.106,0.299,0.106l0.453-1.213c0,0-0.129-0.052-0.324-0.116
			c-0.197-0.062-0.455-0.161-0.721-0.234c-0.266-0.075-0.529-0.155-0.73-0.203C38.154,9.426,38.021,9.396,38.021,9.396z"/>
	</g>
	<g>
		<path fill="#A7A7A7" d="M50.913,22.898L49.64,23.13c0,0,0.096,0.5,0.15,1.007c0.037,0.251,0.045,0.507,0.062,0.696
			c0.016,0.191,0.025,0.317,0.025,0.317l1.295-0.065c0,0-0.012-0.138-0.027-0.343c-0.02-0.206-0.027-0.481-0.07-0.753
			C51.017,23.441,50.911,22.898,50.913,22.898z"/>
		<path fill="#A7A7A7" d="M49.761,19.126l-1.186,0.522c0,0,0.057,0.114,0.125,0.292c0.07,0.177,0.162,0.415,0.254,0.651
			c0.084,0.241,0.164,0.482,0.225,0.662c0.053,0.183,0.088,0.306,0.088,0.306l1.242-0.362c0,0-0.037-0.132-0.096-0.331
			c-0.064-0.196-0.152-0.457-0.242-0.718c-0.1-0.257-0.199-0.512-0.277-0.706C49.822,19.251,49.761,19.126,49.761,19.126z"/>
		<path fill="#A7A7A7" d="M47.775,15.735l-1.035,0.779c0,0,0.305,0.41,0.584,0.833c0.283,0.423,0.529,0.869,0.529,0.869l1.129-0.64
			c0,0-0.27-0.481-0.576-0.94C48.103,16.177,47.775,15.735,47.775,15.735z"/>
	</g>
</g>
</svg>
