<?xml version="1.0" encoding="utf-8"?>
<!-- Generator: Adobe Illustrator 16.0.0, SVG Export Plug-In . SVG Version: 6.00 Build 0)  -->
<!DOCTYPE svg PUBLIC "-//W3C//DTD SVG 1.1//EN" "http://www.w3.org/Graphics/SVG/1.1/DTD/svg11.dtd">
<svg version="1.1" id="Layer_1" xmlns="http://www.w3.org/2000/svg" xmlns:xlink="http://www.w3.org/1999/xlink" x="0px" y="0px"
	 width="68.354px" height="51.926px" viewBox="0 0 68.354 51.926" enable-background="new 0 0 68.354 51.926" xml:space="preserve">
<g>
	<g>
		<rect x="0" y="-0.001" fill="none" width="68.354" height="51.928"/>
	</g>
</g>
<g opacity="0.6">
	<path fill="#FFFFFF" d="M31.73,35.499l-1.866-0.681c-0.267-0.098-0.567,0.041-0.665,0.312c-0.099,0.269,0.04,0.566,0.31,0.665
		l1.865,0.68c0.059,0.022,0.119,0.032,0.179,0.032c0.212,0,0.411-0.131,0.487-0.341C32.138,35.896,32,35.598,31.73,35.499z"/>
	<path fill="#FFFFFF" d="M27.999,34.138l-1.867-0.681c-0.266-0.098-0.566,0.042-0.665,0.311c-0.099,0.27,0.04,0.567,0.311,0.666
		l1.866,0.681c0.058,0.021,0.118,0.031,0.178,0.031c0.211,0,0.41-0.131,0.487-0.343C28.407,34.534,28.267,34.236,27.999,34.138z"/>
	<path fill="#FFFFFF" d="M35.462,36.861l-1.867-0.681c-0.266-0.098-0.566,0.042-0.665,0.309c-0.099,0.271,0.04,0.569,0.31,0.668
		l1.867,0.68c0.059,0.021,0.119,0.031,0.178,0.031c0.213,0,0.41-0.131,0.488-0.341C35.87,37.258,35.732,36.96,35.462,36.861z"/>
	<path fill="#FFFFFF" d="M39.195,38.224l-1.867-0.682c-0.27-0.098-0.566,0.041-0.666,0.31c-0.098,0.27,0.041,0.568,0.311,0.666
		l1.865,0.682c0.061,0.022,0.121,0.032,0.18,0.032c0.211,0,0.41-0.131,0.488-0.341C39.603,38.62,39.462,38.322,39.195,38.224z"/>
	<path fill="#FFFFFF" d="M41.997,15.905c-2.543,0-4.615,2.07-4.615,4.614c0,2.545,2.072,4.616,4.615,4.616
		c2.545,0,4.617-2.071,4.617-4.616C46.615,17.976,44.542,15.905,41.997,15.905z M41.997,23.929c-1.877,0-3.408-1.529-3.408-3.407
		c0-1.88,1.531-3.408,3.408-3.408c1.879,0,3.406,1.528,3.406,3.408C45.404,22.399,43.876,23.929,41.997,23.929z"/>
	<path fill="#FFFFFF" d="M41.997,11.613c-4.912,0-8.905,3.996-8.905,8.905c0,0.667,0.082,1.354,0.239,2.021
		c0.007,0.048,0.012,0.093,0.024,0.138c1.118,4.449,4.368,10.594,7.489,16.199c-0.195,0.016-0.379,0.14-0.451,0.339
		c-0.098,0.269,0.041,0.567,0.311,0.665c0,0,1.146,0.433,1.293,0.433c0.219,0,0.42-0.117,0.527-0.312
		c3.301-5.894,6.922-12.58,8.115-17.332c0.01-0.046,0.018-0.089,0.018-0.107c0.16-0.693,0.246-1.379,0.246-2.043
		C50.904,15.609,46.907,11.613,41.997,11.613z M49.48,22.287c-0.002,0.013-0.008,0.082-0.012,0.097
		c-1.096,4.354-4.357,10.5-7.471,16.086c-3.113-5.584-6.373-11.728-7.466-16.081c-0.004-0.021-0.015-0.085-0.019-0.105
		c-0.14-0.597-0.212-1.189-0.212-1.764c0-4.243,3.451-7.697,7.697-7.697c4.244,0,7.697,3.454,7.697,7.699
		C49.695,21.091,49.622,21.685,49.48,22.287z"/>
	<path fill="#FFFFFF" d="M26.238,20.69c0-1.677-1.365-3.04-3.042-3.04s-3.04,1.363-3.04,3.04s1.363,3.041,3.04,3.041
		S26.238,22.367,26.238,20.69z M23.196,18.673c1.113,0,2.019,0.906,2.019,2.02c0,1.112-0.905,2.019-2.019,2.019
		s-2.019-0.906-2.019-2.019C21.177,19.579,22.083,18.673,23.196,18.673z"/>
	<path fill="#FFFFFF" d="M23.196,14.944c-3.168,0-5.745,2.577-5.745,5.746c0,0.426,0.051,0.865,0.154,1.306
		c0.004,0.031,0.009,0.062,0.016,0.086c0.742,2.948,2.946,7.053,4.993,10.713c0.146,0.243,0.275,0.585,0.524,0.676l0.772,0.281
		c0.058,0.021,0.118,0.032,0.178,0.032c0.211,0,0.411-0.131,0.487-0.342c0.099-0.27-0.04-0.568-0.31-0.666l-0.396-0.146
		c2.021-3.622,4.173-7.649,4.903-10.558c0.011-0.047,0.013-0.069,0.012-0.069c0,0-0.001,0.001-0.001,0.004
		c0.104-0.453,0.159-0.896,0.159-1.317C28.943,17.521,26.364,14.944,23.196,14.944z M18.603,21.772
		c-0.087-0.371-0.132-0.735-0.132-1.082c0-2.604,2.119-4.724,4.724-4.724s4.725,2.119,4.725,4.726c0,0.347-0.045,0.711-0.131,1.081
		l-0.009,0.062c-0.664,2.642-2.585,6.312-4.585,9.908c-1.997-3.592-3.916-7.258-4.579-9.893L18.603,21.772z"/>
</g>
</svg>
