<?xml version="1.0" encoding="utf-8"?>
<!-- Generator: Adobe Illustrator 16.0.0, SVG Export Plug-In . SVG Version: 6.00 Build 0)  -->
<!DOCTYPE svg PUBLIC "-//W3C//DTD SVG 1.1//EN" "http://www.w3.org/Graphics/SVG/1.1/DTD/svg11.dtd">
<svg version="1.1" id="Layer_1" xmlns="http://www.w3.org/2000/svg" xmlns:xlink="http://www.w3.org/1999/xlink" x="0px" y="0px"
	 width="68.354px" height="51.926px" viewBox="0 0 68.354 51.926" enable-background="new 0 0 68.354 51.926" xml:space="preserve">
<g>
	<g>
		<rect x="0" y="-0.001" fill="none" width="68.354" height="51.928"/>
	</g>
</g>
<g opacity="0.6">
	<path fill="#FFFFFF" d="M34.176,38.475c-0.22,0-0.42-0.117-0.524-0.31c-3.298-5.885-6.913-12.562-8.105-17.302
		c-0.012-0.045-0.018-0.09-0.023-0.139c-0.156-0.665-0.239-1.351-0.239-2.017c0-4.902,3.988-8.894,8.893-8.894
		c4.903,0,8.895,3.991,8.895,8.894c0,0.662-0.085,1.348-0.245,2.04c0,0.019-0.009,0.062-0.02,0.106
		c-1.191,4.746-4.809,11.424-8.103,17.309C34.595,38.357,34.394,38.475,34.176,38.475z M34.176,11.022
		c-4.24,0-7.687,3.448-7.687,7.687c0,0.573,0.072,1.165,0.212,1.761c0.005,0.021,0.015,0.084,0.019,0.105
		c1.093,4.348,4.347,10.483,7.456,16.059c3.108-5.577,6.366-11.716,7.459-16.063c0.004-0.014,0.01-0.083,0.013-0.097
		c0.142-0.602,0.215-1.194,0.215-1.763C41.863,14.471,38.415,11.022,34.176,11.022z M34.176,23.319c-2.54,0-4.608-2.069-4.608-4.611
		c0-2.54,2.068-4.607,4.608-4.607c2.541,0,4.609,2.067,4.609,4.607C38.785,21.25,36.717,23.319,34.176,23.319z M34.176,15.307
		c-1.875,0-3.403,1.526-3.403,3.404c0,1.875,1.528,3.402,3.403,3.402c1.876,0,3.402-1.527,3.402-3.402
		C37.578,16.833,36.052,15.307,34.176,15.307z"/>
	<path fill="#FFFFFF" d="M46.771,35.384l2.074-0.923l-10.327,0.477L42.23,37.4l2.031-0.902c1.918,0.452,3.079,1.032,3.079,1.667
		c0,1.437-5.894,2.602-13.164,2.602c-7.27,0-13.164-1.165-13.164-2.602c0-0.997,2.847-1.863,7.02-2.299l-0.726-1.343
		c-6.431,0.596-10.95,2.001-10.95,3.642c0,2.18,7.979,3.946,17.821,3.946s17.821-1.767,17.821-3.946
		C51.998,37.077,49.988,36.097,46.771,35.384z"/>
</g>
</svg>
