<?xml version="1.0" encoding="utf-8"?>
<!-- Generator: Adobe Illustrator 16.0.4, SVG Export Plug-In . SVG Version: 6.00 Build 0)  -->
<!DOCTYPE svg PUBLIC "-//W3C//DTD SVG 1.1//EN" "http://www.w3.org/Graphics/SVG/1.1/DTD/svg11.dtd">
<svg version="1.1" id="Layer_1" xmlns="http://www.w3.org/2000/svg" xmlns:xlink="http://www.w3.org/1999/xlink" x="0px" y="0px"
	 width="68.354px" height="51.926px" viewBox="0 0 68.354 51.926" enable-background="new 0 0 68.354 51.926" xml:space="preserve">
<g>
	<g>
		<g>
			<rect x="0.376" y="-0.037" fill="none" width="67.978" height="51.963"/>
		</g>
	</g>
</g>
<g id="Layer_1-2">
	<path fill="#A7A7A7" stroke="#A7A7A7" stroke-miterlimit="10" d="M34.177,6.561c8.164,0,14.781,6.617,14.783,14.779v1.36
		c1.217,0.126,2.143,1.151,2.145,2.374v7.882c0,0.633-0.252,1.24-0.699,1.687l0,0c-0.445,0.447-1.051,0.699-1.684,0.7H46.42v1.497
		c0,3.566-2.778,6.516-6.339,6.728v1.399c0,0.219-0.177,0.397-0.396,0.398h-3.33c-0.22,0-0.398-0.179-0.398-0.398l0,0v-3.563
		c0-0.221,0.179-0.399,0.398-0.399l0,0h3.328c0.219,0.002,0.396,0.18,0.396,0.399v1.369c3.122-0.211,5.548-2.804,5.548-5.933v-0.332
		c-0.067,0.051-0.149,0.08-0.233,0.082h-3.337c-0.219,0.001-0.397-0.175-0.399-0.395c0,0,0-0.001,0-0.002V21.84
		c0-0.221,0.18-0.399,0.399-0.399l0,0h3.328h0.072v-0.104c0-6.229-5.05-11.28-11.28-11.28c-6.23,0-11.28,5.051-11.28,11.28v0.104
		h0.072h3.328c0.219,0.002,0.396,0.18,0.396,0.399v14.352c0,0.219-0.178,0.396-0.396,0.396h-3.328c-0.219,0-0.396-0.178-0.396-0.396
		V35.34h-2.936c-1.317,0-2.385-1.066-2.388-2.384v-7.882c0.002-0.631,0.253-1.234,0.7-1.68l0,0l0,0
		c0.388-0.387,0.897-0.631,1.443-0.688v-1.359C19.389,13.184,26.006,6.562,34.17,6.561C34.173,6.561,34.175,6.561,34.177,6.561z
		 M23.368,23.087v12.708h2.53V22.238h-2.533v0.852L23.368,23.087z M22.503,23.483h-2.866c-0.421-0.001-0.826,0.167-1.124,0.467l0,0
		c-0.299,0.298-0.467,0.702-0.466,1.124v7.882c0.001,0.879,0.712,1.591,1.59,1.593h2.936V23.486L22.503,23.483z M44.989,34.938
		v-12.7h-2.532v13.559h2.532V34.938z M48.562,23.479h-2.778v11.063h2.937c0.42,0,0.824-0.168,1.121-0.466l0,0
		c0.299-0.298,0.467-0.702,0.467-1.124v-7.878c-0.002-0.877-0.713-1.588-1.59-1.591L48.562,23.479z M44.068,11.448
		c-5.471-5.458-14.33-5.449-19.789,0.021c-2.613,2.619-4.083,6.166-4.087,9.866v1.348h1.91v-1.348
		c0-6.669,5.406-12.075,12.075-12.075c6.67,0,12.075,5.406,12.075,12.075v1.348h1.909v-1.348c0.004-3.708-1.471-7.264-4.094-9.883
		V11.448z"/>
</g>
</svg>
