<?xml version="1.0" encoding="utf-8"?>
<!-- Generator: Adobe Illustrator 16.0.0, SVG Export Plug-In . SVG Version: 6.00 Build 0)  -->
<!DOCTYPE svg PUBLIC "-//W3C//DTD SVG 1.1//EN" "http://www.w3.org/Graphics/SVG/1.1/DTD/svg11.dtd">
<svg version="1.1" id="Layer_1" xmlns="http://www.w3.org/2000/svg" xmlns:xlink="http://www.w3.org/1999/xlink" x="0px" y="0px"
	 width="108px" height="84.559px" viewBox="121.427 0 108 84.559" enable-background="new 121.427 0 108 84.559"
	 xml:space="preserve">
<g>
	<g>
		<g>
			<g>
				<path fill="#FFFFFF" d="M56.927,72.772h-4c-2.481,0-4.5-2.018-4.5-4.498v-4.477c-1.482-0.446-2.913-1.043-4.261-1.777
					l-3.229,3.229c-0.854,0.854-1.987,1.323-3.196,1.323c-1.208,0-2.345-0.471-3.197-1.323l-2.842-2.846
					c-0.854-0.854-1.324-1.988-1.324-3.196c0-1.207,0.47-2.345,1.324-3.196l3.294-3.294c-0.646-1.23-1.181-2.553-1.597-3.943h-4.476
					c-2.481,0-4.5-2.02-4.5-4.501v-4c0-2.479,2.019-4.499,4.5-4.499H33.4c0.434-1.435,0.998-2.811,1.688-4.102l-3.385-3.386
					c-0.854-0.854-1.324-1.989-1.324-3.198c0-1.208,0.47-2.343,1.324-3.197l2.842-2.844c0.854-0.854,1.989-1.324,3.198-1.324
					c1.208,0,2.343,0.47,3.195,1.324l3.388,3.387c1.286-0.688,2.665-1.254,4.102-1.687V16.27c0-2.48,2.019-4.501,4.5-4.501h4
					c2.481,0,4.5,2.021,4.5,4.501v4.477c1.396,0.418,2.718,0.953,3.944,1.594l3.295-3.294c0.854-0.854,1.987-1.324,3.194-1.324
					s2.345,0.47,3.196,1.324l2.844,2.844c0.854,0.854,1.324,1.989,1.324,3.198c0,1.208-0.471,2.343-1.324,3.197l-3.229,3.227
					c0.734,1.346,1.332,2.776,1.779,4.261h4.475c2.481,0,4.5,2.02,4.5,4.499v4c0,2.481-2.019,4.501-4.5,4.501h-4.475
					c-0.434,1.438-0.998,2.812-1.688,4.103l3.135,3.136c0.854,0.854,1.324,1.989,1.324,3.197s-0.47,2.344-1.324,3.195l-2.844,2.846
					c-0.854,0.854-1.989,1.323-3.196,1.323c-1.208,0-2.343-0.472-3.194-1.323l-3.138-3.138c-1.289,0.688-2.665,1.255-4.103,1.688
					v4.477C61.427,70.754,59.409,72.772,56.927,72.772z M43.995,60.776l0.332,0.188c1.482,0.843,3.076,1.508,4.735,1.978
					l0.364,0.104v5.229c0,1.931,1.57,3.498,3.5,3.498h4c1.93,0,3.5-1.567,3.5-3.498v-5.229l0.364-0.104
					c1.619-0.46,3.162-1.094,4.584-1.887l0.33-0.184l3.667,3.668c1.329,1.33,3.646,1.33,4.979,0l2.844-2.846
					c0.665-0.665,1.031-1.549,1.031-2.488c0-0.941-0.366-1.825-1.031-2.49l-3.667-3.668l0.187-0.329
					c0.794-1.425,1.428-2.966,1.886-4.583l0.104-0.363h5.228c1.93,0,3.5-1.568,3.5-3.501v-4c0-1.929-1.57-3.499-3.5-3.499h-5.228
					L75.6,36.408c-0.471-1.663-1.137-3.258-1.979-4.737L73.43,31.34l3.766-3.764c0.665-0.665,1.031-1.551,1.031-2.49
					c0-0.941-0.366-1.826-1.031-2.491l-2.844-2.844c-1.33-1.33-3.646-1.33-4.979,0l-3.822,3.819l-0.328-0.18
					c-1.355-0.741-2.848-1.344-4.432-1.792l-0.364-0.1V16.27c0-1.931-1.57-3.501-3.5-3.501h-4c-1.93,0-3.5,1.57-3.5,3.501v5.23
					l-0.364,0.103c-1.62,0.458-3.162,1.093-4.583,1.885l-0.33,0.186l-3.917-3.918c-1.329-1.33-3.648-1.33-4.979,0l-2.842,2.844
					c-0.665,0.665-1.031,1.549-1.031,2.49c0,0.939,0.366,1.826,1.031,2.491l3.917,3.917l-0.186,0.33
					c-0.794,1.425-1.428,2.967-1.886,4.583l-0.104,0.362h-5.229c-1.93,0-3.5,1.57-3.5,3.499v4c0,1.933,1.57,3.501,3.5,3.501h5.229
					l0.104,0.364c0.446,1.577,1.049,3.068,1.794,4.431l0.179,0.328l-3.819,3.821c-0.665,0.665-1.031,1.549-1.031,2.489
					c0,0.939,0.366,1.826,1.031,2.489l2.842,2.846c1.329,1.33,3.648,1.33,4.979,0L43.995,60.776z M54.928,54.771
					c-6.893,0-12.5-5.604-12.5-12.499c0-6.893,5.607-12.501,12.5-12.501s12.5,5.608,12.5,12.501
					C67.428,49.165,61.821,54.771,54.928,54.771z M54.928,30.771c-6.341,0-11.5,5.159-11.5,11.501c0,6.341,5.159,11.499,11.5,11.499
					c6.342,0,11.5-5.158,11.5-11.499C66.428,35.93,61.27,30.771,54.928,30.771z"/>
				<path fill="#777266" d="M84.428,40.271c0-1.929-1.57-3.499-3.5-3.499H75.7l-0.104-0.362c-0.471-1.663-1.137-3.258-1.979-4.737
					L73.43,31.34l3.766-3.764c0.665-0.665,1.031-1.551,1.031-2.49c0-0.941-0.366-1.826-1.031-2.491l-2.844-2.844
					c-1.33-1.33-3.646-1.33-4.979,0l-3.822,3.819l-0.328-0.18c-1.355-0.741-2.848-1.344-4.432-1.792l-0.364-0.1V16.27
					c0-1.931-1.57-3.501-3.5-3.501h-4c-1.93,0-3.5,1.57-3.5,3.501v5.23l-0.364,0.103c-1.62,0.458-3.162,1.093-4.583,1.885
					l-0.33,0.186l-3.917-3.918c-1.329-1.33-3.648-1.33-4.979,0l-2.842,2.844c-0.665,0.665-1.031,1.549-1.031,2.49
					c0,0.939,0.366,1.826,1.031,2.491l3.917,3.917l-0.186,0.33c-0.794,1.425-1.428,2.967-1.886,4.583l-0.104,0.362h-5.229
					c-1.93,0-3.5,1.57-3.5,3.499v4c0,1.933,1.57,3.501,3.5,3.501h5.229l0.104,0.364c0.446,1.577,1.049,3.068,1.794,4.431
					l0.179,0.328l-3.819,3.821c-0.665,0.665-1.031,1.549-1.031,2.489c0,0.939,0.366,1.826,1.031,2.489l2.842,2.846
					c1.329,1.33,3.648,1.33,4.979,0l3.765-3.767l0.332,0.188c1.482,0.843,3.076,1.508,4.735,1.978l0.364,0.104v5.229
					c0,1.931,1.57,3.498,3.5,3.498h4c1.93,0,3.5-1.567,3.5-3.498v-5.229l0.364-0.104c1.619-0.46,3.162-1.094,4.584-1.887l0.33-0.184
					l3.667,3.668c1.329,1.33,3.646,1.33,4.979,0l2.844-2.846c0.665-0.665,1.031-1.549,1.031-2.488c0-0.941-0.366-1.825-1.031-2.49
					l-3.667-3.668l0.187-0.329c0.794-1.425,1.428-2.966,1.886-4.583l0.104-0.363h5.228c1.93,0,3.5-1.568,3.5-3.501v-4h-0.005V40.271
					z M54.928,54.771c-6.893,0-12.5-5.604-12.5-12.499c0-6.893,5.607-12.501,12.5-12.501s12.5,5.608,12.5,12.501
					C67.428,49.165,61.821,54.771,54.928,54.771z"/>
			</g>
		</g>
	</g>
</g>
<path opacity="0.6" fill="#C1BAAC" enable-background="new    " d="M34.156,47.772l0.104,0.364c0.117,0.415,0.247,0.823,0.386,1.226
	c2.195-3.183,4.857-6.124,7.911-8.768c0.824-6.1,6.052-10.823,12.374-10.823c1.592,0,3.11,0.312,4.512,0.856
	c5.688-2.167,11.903-3.574,18.451-4.062c0.213-0.459,0.336-0.958,0.336-1.479c0-0.941-0.366-1.826-1.029-2.491l-2.846-2.844
	c-1.33-1.33-3.646-1.33-4.979,0l-3.822,3.821l-0.328-0.182c-1.355-0.741-2.848-1.344-4.432-1.792L60.427,21.5v-5.229
	c0-1.931-1.57-3.501-3.5-3.501h-4c-1.93,0-3.5,1.57-3.5,3.501V21.5l-0.364,0.103c-1.62,0.458-3.162,1.093-4.583,1.885l-0.33,0.186
	l-3.917-3.918c-1.329-1.33-3.648-1.33-4.979,0l-2.842,2.844c-0.665,0.665-1.031,1.549-1.031,2.49c0,0.939,0.366,1.826,1.031,2.491
	l3.917,3.917l-0.186,0.33c-0.794,1.425-1.428,2.967-1.886,4.583l-0.104,0.362h-5.229c-1.93,0-3.5,1.57-3.5,3.499v4
	c0,1.933,1.57,3.501,3.5,3.501L34.156,47.772L34.156,47.772z"/>
<g>
	
		<linearGradient id="SVGID_1_" gradientUnits="userSpaceOnUse" x1="202.0657" y1="907.5579" x2="206.2668" y2="907.5579" gradientTransform="matrix(1 0 0 1 -149.2397 -883.291)">
		<stop  offset="0" style="stop-color:#E6E6E6"/>
		<stop  offset="0.5398" style="stop-color:#FFFFFF"/>
		<stop  offset="1" style="stop-color:#C8C8C8"/>
	</linearGradient>
	<circle fill="url(#SVGID_1_)" cx="54.927" cy="24.266" r="2.101"/>
	
		<linearGradient id="SVGID_2_" gradientUnits="userSpaceOnUse" x1="215.2688" y1="912.2092" x2="219.4719" y2="912.2092" gradientTransform="matrix(1 0 0 1 -149.2397 -883.291)">
		<stop  offset="0" style="stop-color:#E6E6E6"/>
		<stop  offset="0.5398" style="stop-color:#FFFFFF"/>
		<stop  offset="1" style="stop-color:#C8C8C8"/>
	</linearGradient>
	<circle fill="url(#SVGID_2_)" cx="68.131" cy="28.918" r="2.101"/>
	
		<linearGradient id="SVGID_3_" gradientUnits="userSpaceOnUse" x1="220.3704" y1="926.3127" x2="224.5735" y2="926.3127" gradientTransform="matrix(1 0 0 1 -149.2397 -883.291)">
		<stop  offset="0" style="stop-color:#E6E6E6"/>
		<stop  offset="0.5398" style="stop-color:#FFFFFF"/>
		<stop  offset="1" style="stop-color:#C8C8C8"/>
	</linearGradient>
	<circle fill="url(#SVGID_3_)" cx="73.232" cy="43.021" r="2.101"/>
	
		<linearGradient id="SVGID_4_" gradientUnits="userSpaceOnUse" x1="215.2688" y1="938.6165" x2="219.4719" y2="938.6165" gradientTransform="matrix(1 0 0 1 -149.2397 -883.291)">
		<stop  offset="0" style="stop-color:#E6E6E6"/>
		<stop  offset="0.5398" style="stop-color:#FFFFFF"/>
		<stop  offset="1" style="stop-color:#C8C8C8"/>
	</linearGradient>
	<circle fill="url(#SVGID_4_)" cx="68.131" cy="55.325" r="2.101"/>
	
		<linearGradient id="SVGID_5_" gradientUnits="userSpaceOnUse" x1="202.0657" y1="943.5676" x2="206.2668" y2="943.5676" gradientTransform="matrix(1 0 0 1 -149.2397 -883.291)">
		<stop  offset="0" style="stop-color:#E6E6E6"/>
		<stop  offset="0.5398" style="stop-color:#FFFFFF"/>
		<stop  offset="1" style="stop-color:#C8C8C8"/>
	</linearGradient>
	<circle fill="url(#SVGID_5_)" cx="54.927" cy="60.276" r="2.101"/>
	
		<linearGradient id="SVGID_6_" gradientUnits="userSpaceOnUse" x1="188.261" y1="938.6165" x2="192.4641" y2="938.6165" gradientTransform="matrix(1 0 0 1 -149.2397 -883.291)">
		<stop  offset="0" style="stop-color:#E6E6E6"/>
		<stop  offset="0.5398" style="stop-color:#FFFFFF"/>
		<stop  offset="1" style="stop-color:#C8C8C8"/>
	</linearGradient>
	<circle fill="url(#SVGID_6_)" cx="41.123" cy="55.325" r="2.101"/>
	
		<linearGradient id="SVGID_7_" gradientUnits="userSpaceOnUse" x1="183.761" y1="926.3127" x2="187.9641" y2="926.3127" gradientTransform="matrix(1 0 0 1 -149.2397 -883.291)">
		<stop  offset="0" style="stop-color:#E6E6E6"/>
		<stop  offset="0.5398" style="stop-color:#FFFFFF"/>
		<stop  offset="1" style="stop-color:#C8C8C8"/>
	</linearGradient>
	<circle fill="url(#SVGID_7_)" cx="36.623" cy="43.021" r="2.101"/>
	
		<linearGradient id="SVGID_8_" gradientUnits="userSpaceOnUse" x1="188.261" y1="912.2092" x2="192.4641" y2="912.2092" gradientTransform="matrix(1 0 0 1 -149.2397 -883.291)">
		<stop  offset="0" style="stop-color:#E6E6E6"/>
		<stop  offset="0.5398" style="stop-color:#FFFFFF"/>
		<stop  offset="1" style="stop-color:#C8C8C8"/>
	</linearGradient>
	<circle fill="url(#SVGID_8_)" cx="41.123" cy="28.918" r="2.101"/>
</g>
<linearGradient id="SVGID_9_" gradientUnits="userSpaceOnUse" x1="189.9172" y1="925.5627" x2="218.4172" y2="925.5627" gradientTransform="matrix(1 0 0 1 -149.2397 -883.291)">
	<stop  offset="0" style="stop-color:#E6E6E6"/>
	<stop  offset="0.5398" style="stop-color:#FFFFFF"/>
	<stop  offset="1" style="stop-color:#C8C8C8"/>
</linearGradient>
<circle fill="url(#SVGID_9_)" cx="54.928" cy="42.271" r="14.25"/>
<circle fill="#777266" cx="54.927" cy="42.271" r="7.75"/>
<g>
	<g>
		<g>
			<g>
				<path fill="#FFFFFF" d="M175.16,71.771h-4.18c-2.594,0-4.703-2.108-4.703-4.7v-4.679c-1.55-0.467-3.044-1.09-4.453-1.857
					l-3.375,3.375c-0.892,0.892-2.077,1.384-3.34,1.384s-2.451-0.492-3.342-1.384l-2.971-2.975c-0.892-0.892-1.383-2.077-1.383-3.34
					c0-1.262,0.491-2.45,1.383-3.34l3.443-3.443c-0.675-1.285-1.233-2.668-1.668-4.121h-4.679c-2.594,0-4.702-2.11-4.702-4.704
					v-4.18c0-2.591,2.108-4.702,4.702-4.702h4.68c0.452-1.499,1.042-2.938,1.764-4.287l-3.537-3.538
					c-0.893-0.893-1.384-2.079-1.384-3.342c0-1.263,0.491-2.449,1.384-3.341l2.97-2.973c0.892-0.893,2.079-1.384,3.343-1.384
					c1.262,0,2.448,0.491,3.339,1.384l3.541,3.54c1.344-0.719,2.785-1.31,4.287-1.763v-4.678c0-2.593,2.108-4.705,4.702-4.705h4.18
					c2.594,0,4.702,2.112,4.702,4.705V17.4c1.46,0.438,2.841,0.996,4.123,1.666l3.444-3.443c0.891-0.893,2.076-1.383,3.338-1.383
					c1.261,0,2.45,0.491,3.34,1.383l2.973,2.973c0.893,0.893,1.384,2.079,1.384,3.343c0,1.263-0.492,2.448-1.384,3.34l-3.374,3.373
					c0.768,1.407,1.392,2.901,1.859,4.453h4.676c2.594,0,4.703,2.111,4.703,4.702v4.18c0,2.594-2.109,4.704-4.703,4.704h-4.676
					c-0.454,1.503-1.044,2.939-1.765,4.288l3.276,3.277c0.892,0.893,1.384,2.078,1.384,3.341c0,1.262-0.492,2.45-1.384,3.339
					l-2.973,2.975c-0.892,0.892-2.079,1.384-3.341,1.384s-2.447-0.493-3.337-1.384l-3.28-3.28c-1.347,0.72-2.785,1.312-4.287,1.766
					v4.679C179.864,69.662,177.755,71.771,175.16,71.771z M161.646,59.234l0.348,0.197c1.549,0.881,3.215,1.576,4.948,2.067
					l0.381,0.107v5.465c0,2.017,1.641,3.655,3.658,3.655h4.18c2.018,0,3.658-1.639,3.658-3.655v-5.465l0.381-0.109
					c1.692-0.48,3.304-1.144,4.79-1.971l0.346-0.192l3.831,3.833c1.39,1.391,3.811,1.391,5.203,0l2.973-2.974
					c0.695-0.695,1.079-1.618,1.079-2.601c0-0.984-0.384-1.908-1.079-2.603l-3.832-3.833l0.194-0.345
					c0.829-1.489,1.492-3.099,1.971-4.789l0.109-0.38h5.464c2.017,0,3.657-1.639,3.657-3.658v-4.181
					c0-2.017-1.641-3.657-3.657-3.657h-5.464l-0.109-0.378c-0.492-1.739-1.188-3.405-2.067-4.951l-0.2-0.346l3.936-3.934
					c0.695-0.695,1.078-1.621,1.078-2.603c0-0.984-0.383-1.909-1.078-2.604l-2.972-2.972c-1.391-1.391-3.812-1.391-5.203,0
					l-3.994,3.992l-0.343-0.188c-1.417-0.775-2.978-1.404-4.632-1.873l-0.381-0.104v-5.464c0-2.018-1.641-3.66-3.658-3.66h-4.18
					c-2.018,0-3.658,1.642-3.658,3.66v5.465l-0.381,0.107c-1.692,0.479-3.305,1.142-4.789,1.97l-0.345,0.194l-4.095-4.094
					c-1.389-1.391-3.812-1.391-5.202,0l-2.97,2.972c-0.694,0.695-1.078,1.618-1.078,2.603c0,0.981,0.384,1.908,1.078,2.604
					l4.094,4.094l-0.194,0.345c-0.83,1.488-1.492,3.1-1.971,4.79l-0.109,0.378h-5.464c-2.018,0-3.658,1.642-3.658,3.657v4.18
					c0,2.021,1.641,3.659,3.658,3.659h5.464l0.109,0.381c0.467,1.647,1.096,3.207,1.875,4.631l0.187,0.343l-3.992,3.992
					c-0.694,0.696-1.077,1.62-1.077,2.603c0,0.981,0.383,1.908,1.077,2.602l2.97,2.974c1.39,1.391,3.814,1.391,5.204,0
					L161.646,59.234z M173.072,52.958c-7.203,0-13.063-5.856-13.063-13.062c0-7.205,5.86-13.065,13.063-13.065
					s13.063,5.861,13.063,13.065C186.135,47.101,180.275,52.958,173.072,52.958z M173.072,27.876
					c-6.627,0-12.019,5.392-12.019,12.021c0,6.626,5.392,12.017,12.019,12.017c6.628,0,12.019-5.391,12.019-12.017
					C185.09,33.268,179.699,27.876,173.072,27.876z"/>
				<path fill="#777266" d="M203.902,37.804c0-2.015-1.642-3.656-3.657-3.656h-5.464l-0.109-0.379
					c-0.492-1.737-1.188-3.405-2.067-4.95l-0.196-0.347l3.936-3.934c0.695-0.695,1.078-1.621,1.078-2.603
					c0-0.984-0.383-1.909-1.078-2.604l-2.972-2.972c-1.391-1.391-3.812-1.391-5.203,0l-3.994,3.992l-0.343-0.188
					c-1.417-0.775-2.978-1.404-4.632-1.873l-0.381-0.104v-5.464c0-2.018-1.641-3.66-3.658-3.66h-4.18
					c-2.018,0-3.658,1.642-3.658,3.66v5.465l-0.381,0.107c-1.692,0.479-3.305,1.142-4.789,1.97l-0.345,0.194l-4.095-4.094
					c-1.389-1.391-3.812-1.391-5.202,0l-2.97,2.972c-0.694,0.695-1.078,1.618-1.078,2.603c0,0.981,0.384,1.908,1.078,2.604
					l4.094,4.094l-0.194,0.345c-0.83,1.488-1.492,3.1-1.971,4.79l-0.109,0.378h-5.464c-2.018,0-3.658,1.642-3.658,3.657v4.18
					c0,2.021,1.641,3.659,3.658,3.659h5.464l0.109,0.381c0.467,1.647,1.096,3.207,1.875,4.631l0.187,0.343l-3.992,3.992
					c-0.694,0.696-1.077,1.62-1.077,2.603c0,0.981,0.383,1.908,1.077,2.602l2.97,2.974c1.39,1.391,3.814,1.391,5.204,0l3.935-3.937
					l0.347,0.197c1.549,0.881,3.215,1.576,4.948,2.066l0.381,0.108v5.465c0,2.018,1.642,3.655,3.658,3.655h4.18
					c2.017,0,3.658-1.638,3.658-3.655v-5.465l0.381-0.109c1.691-0.481,3.305-1.144,4.79-1.972l0.345-0.191l3.833,3.833
					c1.389,1.391,3.81,1.391,5.203,0l2.972-2.974c0.695-0.695,1.078-1.619,1.078-2.601c0-0.983-0.383-1.907-1.078-2.604
					l-3.833-3.833l0.196-0.344c0.829-1.489,1.491-3.099,1.97-4.79l0.109-0.38h5.464c2.017,0,3.658-1.638,3.658-3.657v-4.181
					L203.902,37.804L203.902,37.804z M173.072,52.958c-7.203,0-13.063-5.856-13.063-13.062c0-7.205,5.86-13.065,13.063-13.065
					s13.063,5.861,13.063,13.065C186.135,47.101,180.275,52.958,173.072,52.958z"/>
			</g>
		</g>
	</g>
</g>
<path opacity="0.6" fill="#C1BAAC" enable-background="new    " d="M151.363,45.644l0.109,0.381c0.122,0.434,0.258,0.86,0.402,1.28
	c2.295-3.325,5.077-6.4,8.27-9.163c0.86-6.374,6.323-11.311,12.931-11.311c1.664,0,3.251,0.327,4.715,0.895
	c5.945-2.264,12.44-3.735,19.283-4.246c0.223-0.479,0.352-1.001,0.352-1.545c0-0.984-0.383-1.909-1.076-2.604l-2.974-2.972
	c-1.39-1.391-3.811-1.391-5.203,0l-3.995,3.994l-0.343-0.19c-1.416-0.775-2.976-1.404-4.631-1.873l-0.384-0.104v-5.465
	c0-2.017-1.641-3.659-3.658-3.659h-4.18c-2.018,0-3.658,1.642-3.658,3.659v5.465l-0.381,0.107c-1.692,0.479-3.305,1.142-4.789,1.97
	l-0.345,0.194l-4.095-4.094c-1.389-1.391-3.812-1.391-5.202,0l-2.97,2.972c-0.694,0.695-1.078,1.618-1.078,2.603
	c0,0.981,0.384,1.908,1.078,2.604l4.094,4.094l-0.194,0.345c-0.83,1.488-1.492,3.1-1.971,4.79l-0.109,0.378h-5.464
	c-2.018,0-3.658,1.642-3.658,3.657v4.18c0,2.021,1.641,3.659,3.658,3.659L151.363,45.644L151.363,45.644z"/>
<linearGradient id="SVGID_10_" gradientUnits="userSpaceOnUse" x1="158.179" y1="39.8953" x2="187.9631" y2="39.8953">
	<stop  offset="0" style="stop-color:#E6E6E6"/>
	<stop  offset="0.5398" style="stop-color:#FFFFFF"/>
	<stop  offset="1" style="stop-color:#C8C8C8"/>
</linearGradient>
<path fill="url(#SVGID_10_)" d="M173.072,25.003c-8.225,0-14.893,6.667-14.893,14.892c0,8.226,6.668,14.893,14.893,14.893
	s14.892-6.667,14.892-14.893C187.963,31.67,181.296,25.003,173.072,25.003z M173.071,47.994c-4.474,0-8.1-3.627-8.1-8.1
	s3.626-8.099,8.1-8.099c4.473,0,8.1,3.626,8.1,8.099S177.543,47.994,173.071,47.994z"/>
<g>
	<g>
		<g>
			<g>
				<linearGradient id="SVGID_11_" gradientUnits="userSpaceOnUse" x1="-102.825" y1="43.0032" x2="-39.071" y2="43.0032">
					<stop  offset="0" style="stop-color:#E6E6E6"/>
					<stop  offset="0.5398" style="stop-color:#FFFFFF"/>
					<stop  offset="1" style="stop-color:#C8C8C8"/>
				</linearGradient>
				<path fill="url(#SVGID_11_)" d="M-68.856,74.879h-4.18c-2.594,0-4.703-2.107-4.703-4.699V65.5
					c-1.55-0.467-3.044-1.09-4.453-1.857l-3.375,3.375c-0.892,0.893-2.077,1.385-3.34,1.385s-2.451-0.492-3.342-1.385l-2.971-2.975
					c-0.892-0.891-1.383-2.076-1.383-3.34c0-1.262,0.491-2.449,1.383-3.34l3.443-3.443c-0.675-1.285-1.233-2.668-1.668-4.121h-4.679
					c-2.594,0-4.702-2.109-4.702-4.703v-4.18c0-2.591,2.108-4.701,4.702-4.701h4.68c0.452-1.5,1.042-2.938,1.764-4.287l-3.537-3.538
					c-0.893-0.893-1.384-2.079-1.384-3.342c0-1.263,0.491-2.449,1.384-3.341l2.97-2.973c0.892-0.893,2.079-1.384,3.343-1.384
					c1.262,0,2.448,0.491,3.339,1.384l3.541,3.54c1.344-0.719,2.785-1.31,4.287-1.763v-4.678c0-2.593,2.108-4.705,4.702-4.705h4.18
					c2.594,0,4.702,2.112,4.702,4.705v4.677c1.46,0.438,2.841,0.996,4.123,1.666l3.444-3.443c0.891-0.893,2.076-1.383,3.338-1.383
					c1.261,0,2.45,0.491,3.34,1.383l2.973,2.973c0.893,0.893,1.384,2.079,1.384,3.343c0,1.263-0.492,2.448-1.384,3.34l-3.374,3.372
					c0.768,1.407,1.392,2.902,1.859,4.453h4.676c2.594,0,4.703,2.111,4.703,4.702v4.179c0,2.594-2.109,4.705-4.703,4.705h-4.676
					c-0.454,1.502-1.044,2.939-1.765,4.287l3.276,3.277c0.892,0.893,1.384,2.078,1.384,3.342c0,1.262-0.492,2.449-1.384,3.338
					l-2.973,2.975c-0.892,0.893-2.079,1.385-3.341,1.385s-2.447-0.494-3.337-1.385l-3.28-3.279
					c-1.347,0.719-2.785,1.312-4.287,1.766v4.678C-64.153,72.772-66.261,74.879-68.856,74.879z M-82.371,62.342l0.348,0.197
					c1.549,0.881,3.215,1.576,4.948,2.068l0.381,0.107v5.465c0,2.016,1.641,3.654,3.658,3.654h4.18c2.018,0,3.658-1.639,3.658-3.654
					v-5.465l0.381-0.109c1.692-0.48,3.304-1.145,4.79-1.971l0.346-0.193l3.831,3.834c1.39,1.391,3.811,1.391,5.203,0l2.973-2.975
					c0.695-0.695,1.079-1.617,1.079-2.6c0-0.984-0.384-1.908-1.079-2.604l-3.832-3.832l0.194-0.346
					c0.829-1.488,1.492-3.098,1.971-4.789l0.109-0.379h5.464c2.017,0,3.657-1.639,3.657-3.658v-4.181
					c0-2.017-1.641-3.657-3.657-3.657h-5.464l-0.109-0.378c-0.492-1.739-1.188-3.405-2.067-4.951l-0.2-0.346l3.936-3.934
					c0.695-0.695,1.078-1.621,1.078-2.603c0-0.984-0.383-1.909-1.078-2.604l-2.972-2.972c-1.391-1.391-3.812-1.391-5.203,0
					l-3.994,3.992l-0.343-0.188c-1.417-0.775-2.978-1.404-4.632-1.873l-0.381-0.104v-5.464c0-2.018-1.641-3.66-3.658-3.66h-4.18
					c-2.018,0-3.658,1.642-3.658,3.66v5.465l-0.381,0.107c-1.692,0.479-3.305,1.142-4.789,1.97l-0.345,0.194l-4.095-4.094
					c-1.389-1.391-3.812-1.391-5.202,0l-2.97,2.972c-0.694,0.695-1.078,1.618-1.078,2.603c0,0.981,0.384,1.908,1.078,2.604
					l4.094,4.094l-0.194,0.345c-0.83,1.488-1.492,3.1-1.971,4.79l-0.109,0.378h-5.464c-2.018,0-3.658,1.642-3.658,3.657v4.179
					c0,2.021,1.641,3.66,3.658,3.66h5.464l0.109,0.381c0.467,1.646,1.096,3.207,1.875,4.631l0.187,0.342l-3.992,3.992
					c-0.694,0.697-1.077,1.621-1.077,2.604c0,0.98,0.383,1.908,1.077,2.602l2.97,2.973c1.39,1.391,3.814,1.391,5.204,0
					L-82.371,62.342z M-70.945,56.067c-7.203,0-13.063-5.855-13.063-13.061c0-7.206,5.86-13.066,13.063-13.066
					s13.063,5.86,13.063,13.066C-57.882,50.209-63.742,56.067-70.945,56.067z M-70.945,30.985c-6.627,0-12.019,5.392-12.019,12.021
					c0,6.625,5.392,12.016,12.019,12.016c6.628,0,12.019-5.391,12.019-12.016C-58.927,36.377-64.317,30.985-70.945,30.985z"/>
				<path fill="none" stroke="#777266" stroke-miterlimit="10" d="M-40.119,40.931c0-2.015-1.642-3.656-3.657-3.656h-5.464
					l-0.109-0.379c-0.492-1.737-1.188-3.405-2.067-4.95l-0.196-0.347l3.936-3.934c0.695-0.695,1.078-1.62,1.078-2.603
					c0-0.984-0.383-1.909-1.078-2.604l-2.972-2.972c-1.391-1.392-3.812-1.392-5.203,0l-3.994,3.991l-0.343-0.188
					c-1.417-0.775-2.978-1.404-4.632-1.873l-0.381-0.104V15.85c0-2.019-1.641-3.66-3.658-3.66h-4.18
					c-2.018,0-3.658,1.642-3.658,3.66v5.465l-0.381,0.107c-1.692,0.479-3.305,1.143-4.789,1.97l-0.345,0.194l-4.095-4.095
					c-1.389-1.391-3.812-1.391-5.202,0l-2.97,2.972c-0.694,0.695-1.078,1.618-1.078,2.603c0,0.981,0.384,1.908,1.078,2.604
					l4.094,4.094l-0.194,0.345c-0.83,1.488-1.492,3.1-1.971,4.79l-0.109,0.378h-5.464c-2.018,0-3.658,1.642-3.658,3.657v4.178
					c0,2.021,1.641,3.66,3.658,3.66h5.464l0.109,0.381c0.467,1.646,1.096,3.207,1.875,4.631l0.187,0.342l-3.992,3.992
					c-0.694,0.697-1.077,1.621-1.077,2.604c0,0.98,0.383,1.908,1.077,2.602l2.97,2.973c1.39,1.391,3.814,1.391,5.204,0l3.935-3.936
					l0.347,0.197c1.549,0.881,3.215,1.576,4.948,2.066l0.381,0.107v5.465c0,2.018,1.642,3.656,3.658,3.656h4.18
					c2.017,0,3.658-1.639,3.658-3.656v-5.465l0.381-0.109c1.691-0.48,3.305-1.143,4.79-1.971l0.345-0.191l3.833,3.832
					c1.389,1.391,3.81,1.391,5.203,0l2.972-2.973c0.695-0.695,1.078-1.619,1.078-2.602s-0.383-1.906-1.078-2.604l-3.833-3.832
					l0.196-0.344c0.829-1.49,1.491-3.1,1.97-4.791l0.109-0.379h5.464c2.017,0,3.658-1.639,3.658-3.658V40.93L-40.119,40.931
					L-40.119,40.931z M-70.949,56.084c-7.203,0-13.063-5.855-13.063-13.061c0-7.205,5.86-13.065,13.063-13.065
					s13.063,5.86,13.063,13.065C-57.886,50.227-63.746,56.084-70.949,56.084z"/>
			</g>
		</g>
	</g>
</g>
</svg>
