<?xml version="1.0" encoding="utf-8"?>
<!-- Generator: Adobe Illustrator 16.0.0, SVG Export Plug-In . SVG Version: 6.00 Build 0)  -->
<!DOCTYPE svg PUBLIC "-//W3C//DTD SVG 1.1//EN" "http://www.w3.org/Graphics/SVG/1.1/DTD/svg11.dtd">
<svg version="1.1" id="Layer_1" xmlns="http://www.w3.org/2000/svg" xmlns:xlink="http://www.w3.org/1999/xlink" x="0px" y="0px"
	 width="107.354px" height="84.559px" viewBox="0 0 107.354 84.559" enable-background="new 0 0 107.354 84.559"
	 xml:space="preserve">
<g>
	<g>
		<polygon fill="#777266" points="29.425,32.486 74.121,32.486 62.561,14.505 		"/>
		
			<linearGradient id="SVGID_1_" gradientUnits="userSpaceOnUse" x1="168.3352" y1="-89.7615" x2="215.9172" y2="-89.7615" gradientTransform="matrix(1 0 0 -1 -140.8799 -66.3462)">
			<stop  offset="0" style="stop-color:#E6E6E6"/>
			<stop  offset="0.5398" style="stop-color:#FFFFFF"/>
			<stop  offset="1" style="stop-color:#C8C8C8"/>
		</linearGradient>
		<path fill="url(#SVGID_1_)" d="M75.037,32.986H27.455l35.275-19.141L75.037,32.986z M31.394,31.986h41.812L62.392,15.166
			L31.394,31.986z"/>
		
			<linearGradient id="SVGID_2_" gradientUnits="userSpaceOnUse" x1="164.6467" y1="-114.3445" x2="225.8997" y2="-114.3445" gradientTransform="matrix(1 0 0 -1 -140.8799 -66.3462)">
			<stop  offset="0" style="stop-color:#E6E6E6"/>
			<stop  offset="0.5398" style="stop-color:#FFFFFF"/>
			<stop  offset="1" style="stop-color:#C8C8C8"/>
		</linearGradient>
		<path fill="url(#SVGID_2_)" d="M81.735,69.619H27.052c-1.812,0-3.285-1.476-3.285-3.285l0.009-32.88
			c0.061-1.141,0.448-3.715,2.633-5.49c2.842-2.307,6.423-1.424,6.488-1.409l2.481,0.59l-2.521,0.392
			c-0.154,0.023-3.658,0.615-4.127,4.735h56.29v34.062C85.019,68.145,83.546,69.619,81.735,69.619z M24.767,33.699v32.635
			c0,1.26,1.025,2.285,2.285,2.285h54.683c1.261,0,2.284-1.025,2.284-2.285V33.272H27.664l0.024-0.523
			c0.141-2.942,1.586-4.515,2.893-5.338c-1.065,0.081-2.395,0.397-3.541,1.331c-1.942,1.577-2.234,3.927-2.27,4.863L24.767,33.699z"
			/>
		
			<linearGradient id="SVGID_3_" gradientUnits="userSpaceOnUse" x1="174.5569" y1="-89.761" x2="222.1399" y2="-89.761" gradientTransform="matrix(1 0 0 -1 -140.8799 -66.3462)">
			<stop  offset="0" style="stop-color:#E6E6E6"/>
			<stop  offset="0.5398" style="stop-color:#FFFFFF"/>
			<stop  offset="1" style="stop-color:#C8C8C8"/>
		</linearGradient>
		<path fill="url(#SVGID_3_)" d="M81.26,32.986H33.677l35.275-19.142L81.26,32.986z M37.616,31.986h41.812l-10.814-16.82
			L37.616,31.986z"/>
		<path fill="#777266" d="M84.019,33.272H27.664l0.024-0.523c0.141-2.942,1.586-4.515,2.893-5.338
			c-1.065,0.081-2.395,0.397-3.541,1.331c-1.942,1.577-2.234,3.927-2.27,4.863L24.768,33.7v32.635c0,1.26,1.025,2.285,2.285,2.285
			h54.683c1.261,0,2.284-1.025,2.284-2.285L84.019,33.272L84.019,33.272z"/>
		<polygon fill="#777266" points="68.614,15.165 37.616,31.986 79.427,31.986 		"/>
	</g>
	<g opacity="0.8">
		<g>
			
				<line fill="none" stroke="#FFFFFF" stroke-width="0.75" stroke-miterlimit="10" x1="31.388" y1="64.699" x2="32.888" y2="64.699"/>
			<path fill="none" stroke="#FFFFFF" stroke-width="0.75" stroke-miterlimit="10" stroke-dasharray="3.008,1.0027" d="
				M33.891,64.699h43.831c1.539,0,2.785-1.246,2.785-2.785V38.996c0-1.538-1.246-2.785-2.785-2.785H33.39"/>
			
				<line fill="none" stroke="#FFFFFF" stroke-width="0.75" stroke-miterlimit="10" x1="32.888" y1="36.212" x2="31.388" y2="36.212"/>
		</g>
	</g>
</g>
<path opacity="0.6" fill="#C1BAAC" enable-background="new    " d="M84.019,33.272H27.664l0.024-0.523
	c0.141-2.942,1.586-4.515,2.893-5.338c-1.065,0.081-2.395,0.397-3.541,1.331c-1.942,1.577-2.234,3.927-2.27,4.863L24.768,33.7v22.79
	L84.02,39.55L84.019,33.272L84.019,33.272z"/>
<g>
	
		<linearGradient id="SVGID_4_" gradientUnits="userSpaceOnUse" x1="202.9875" y1="-116.509" x2="225.3372" y2="-116.509" gradientTransform="matrix(1 0 0 -1 -140.8799 -66.3462)">
		<stop  offset="0" style="stop-color:#E6E6E6"/>
		<stop  offset="0.5398" style="stop-color:#FFFFFF"/>
		<stop  offset="1" style="stop-color:#C8C8C8"/>
	</linearGradient>
	<path fill="url(#SVGID_4_)" d="M84.457,41.935H64.893c-1.538,0-2.785,1.247-2.785,2.784v10.887c0,1.539,1.247,2.785,2.785,2.785
		h19.562L84.457,41.935L84.457,41.935z"/>
</g>
<circle fill="#777266" cx="72.157" cy="50.321" r="3.303"/>
</svg>
