<?xml version="1.0" encoding="utf-8"?>
<!-- Generator: Adobe Illustrator 16.0.0, SVG Export Plug-In . SVG Version: 6.00 Build 0)  -->
<!DOCTYPE svg PUBLIC "-//W3C//DTD SVG 1.1//EN" "http://www.w3.org/Graphics/SVG/1.1/DTD/svg11.dtd">
<svg version="1.1" id="Layer_1" xmlns="http://www.w3.org/2000/svg" xmlns:xlink="http://www.w3.org/1999/xlink" x="0px" y="0px"
	 width="68.354px" height="51.926px" viewBox="0 0 68.354 51.926" enable-background="new 0 0 68.354 51.926" xml:space="preserve">
<g opacity="0.6">
	<rect x="0" y="-0.001" fill="none" width="68.354" height="51.928"/>
</g>
<g>
	<path opacity="0.6" fill="#FFFFFF" d="M39.376,14.482c0.044-0.001,0.088-0.002,0.132-0.004c0.039,0.032,0.079,0.063,0.12,0.097
		c-0.084,0-0.168,0-0.252,0C39.376,14.544,39.376,14.514,39.376,14.482z"/>
	<path opacity="0.6" fill="#FFFFFF" d="M42.183,14.481c0.044,0,0.087,0,0.13,0c0,0.031,0,0.062,0,0.094c-0.043,0-0.086,0-0.13,0
		C42.183,14.544,42.183,14.513,42.183,14.481z"/>
	<path opacity="0.6" fill="#FFFFFF" d="M29.898,14.479c0.044,0.002,0.087,0.002,0.129,0.003c0,0.031,0,0.062,0,0.093
		c-0.043,0-0.087,0-0.129,0C29.898,14.543,29.898,14.511,29.898,14.479z"/>
	<path opacity="0.6" fill="#FFFFFF" d="M27.091,14.482c0.043,0,0.085-0.001,0.128-0.002c0.001,0.031,0.001,0.062,0.001,0.095
		c-0.043,0-0.087,0-0.13,0C27.09,14.544,27.091,14.514,27.091,14.482z"/>
	<path opacity="0.6" fill="#FFFFFF" d="M27.242,19.02c0.706,0,1.411,0.009,2.117-0.005c0.229-0.005,0.32,0.039,0.317,0.299
		c-0.017,1.038-0.012,2.075-0.003,3.112c0.002,0.205-0.038,0.289-0.269,0.287c-1.462-0.011-2.926-0.008-4.389-0.002
		c-0.183,0.001-0.254-0.04-0.252-0.238c0.009-1.08,0.008-2.159,0-3.238c-0.002-0.188,0.072-0.22,0.237-0.218
		C25.748,19.024,26.495,19.02,27.242,19.02z"/>
	<path opacity="0.6" fill="#FFFFFF" d="M34.724,19.02c0.705,0,1.411,0.009,2.117-0.005c0.229-0.005,0.32,0.039,0.316,0.299
		c-0.017,1.038-0.012,2.075-0.003,3.112c0.002,0.205-0.038,0.289-0.268,0.287c-1.464-0.011-2.927-0.008-4.391-0.002
		c-0.182,0.001-0.253-0.04-0.251-0.238c0.009-1.08,0.008-2.159,0-3.238c-0.001-0.188,0.072-0.22,0.237-0.218
		C33.23,19.024,33.978,19.02,34.724,19.02z"/>
	<path opacity="0.6" fill="#FFFFFF" d="M42.205,19.02c0.706,0,1.411,0.009,2.116-0.005c0.23-0.005,0.322,0.039,0.317,0.299
		c-0.016,1.038-0.012,2.075-0.002,3.112c0.001,0.205-0.038,0.289-0.269,0.287c-1.463-0.011-2.926-0.008-4.389-0.002
		c-0.183,0.001-0.254-0.04-0.253-0.238c0.009-1.08,0.009-2.159,0-3.238c-0.001-0.188,0.073-0.22,0.238-0.218
		C40.711,19.024,41.458,19.02,42.205,19.02z"/>
	<path opacity="0.6" fill="#FFFFFF" d="M27.242,23.751c0.706,0,1.411,0.008,2.117-0.005c0.229-0.005,0.32,0.039,0.317,0.299
		c-0.017,1.037-0.012,2.074-0.003,3.112c0.002,0.204-0.038,0.289-0.269,0.286c-1.462-0.011-2.926-0.008-4.389-0.001
		c-0.183,0.001-0.254-0.041-0.252-0.239c0.009-1.08,0.008-2.158,0-3.237c-0.002-0.188,0.072-0.22,0.237-0.219
		C25.748,23.755,26.495,23.751,27.242,23.751z"/>
	<path opacity="0.6" fill="#FFFFFF" d="M34.724,23.751c0.705,0,1.411,0.008,2.117-0.005c0.229-0.005,0.32,0.039,0.316,0.299
		c-0.017,1.037-0.012,2.074-0.003,3.112c0.002,0.204-0.038,0.289-0.268,0.286c-1.464-0.011-2.927-0.008-4.391-0.001
		c-0.182,0.001-0.253-0.041-0.251-0.239c0.009-1.08,0.008-2.158,0-3.237c-0.001-0.188,0.072-0.22,0.237-0.219
		C33.23,23.755,33.978,23.751,34.724,23.751z"/>
	<path opacity="0.6" fill="#FFFFFF" d="M42.205,23.751c0.706,0,1.411,0.008,2.116-0.005c0.23-0.005,0.322,0.039,0.317,0.299
		c-0.016,1.037-0.012,2.074-0.002,3.112c0.001,0.204-0.038,0.289-0.269,0.286c-1.463-0.011-2.926-0.008-4.389-0.001
		c-0.183,0.001-0.254-0.041-0.253-0.239c0.009-1.08,0.009-2.158,0-3.237c-0.001-0.188,0.073-0.22,0.238-0.219
		C40.711,23.755,41.458,23.751,42.205,23.751z"/>
	<g opacity="0.6">
		<g>
			<polygon fill="#FFFFFF" points="24.792,11.634 25.496,10.224 26.188,11.641 27.747,11.875 26.613,12.971 26.872,14.526 
				25.479,13.786 24.079,14.513 24.354,12.96 23.23,11.854 			"/>
			<path fill="#FFFFFF" d="M26.924,14.6l-1.445-0.769l-1.451,0.754l0.284-1.611l-1.166-1.147l1.62-0.228l0.731-1.464l0.717,1.472
				l1.619,0.242l-1.178,1.137L26.924,14.6z M25.48,13.741l1.34,0.714l-0.249-1.498l1.093-1.055l-1.501-0.225l-0.666-1.364
				l-0.679,1.357l-1.503,0.211l1.082,1.064l-0.265,1.495L25.48,13.741z"/>
		</g>
	</g>
	<g opacity="0.6">
		<g>
			<polygon fill="#FFFFFF" points="29.38,11.634 30.085,10.224 30.776,11.641 32.336,11.875 31.2,12.971 31.459,14.526 
				30.068,13.786 28.668,14.513 28.943,12.96 27.819,11.854 			"/>
			<path fill="#FFFFFF" d="M31.512,14.6l-1.444-0.769l-1.452,0.754l0.285-1.611l-1.167-1.147l1.621-0.228l0.73-1.464l0.718,1.472
				l1.618,0.242l-1.177,1.137L31.512,14.6z M30.068,13.741l1.34,0.714l-0.249-1.498l1.093-1.055l-1.501-0.225l-0.665-1.364
				l-0.679,1.357l-1.503,0.211l1.081,1.064l-0.264,1.495L30.068,13.741z"/>
		</g>
	</g>
	<g opacity="0.6">
		<g>
			<polygon fill="#FFFFFF" points="33.897,11.634 34.602,10.224 35.293,11.641 36.853,11.875 35.719,12.971 35.977,14.526 
				34.585,13.786 33.185,14.513 33.459,12.96 32.336,11.854 			"/>
			<path fill="#FFFFFF" d="M36.03,14.6l-1.444-0.769l-1.451,0.754l0.283-1.611l-1.166-1.147l1.62-0.228l0.731-1.464l0.718,1.472
				l1.618,0.242l-1.178,1.137L36.03,14.6z M34.585,13.741l1.34,0.714l-0.249-1.498l1.093-1.055l-1.501-0.225l-0.666-1.364
				l-0.679,1.357l-1.504,0.211l1.082,1.064l-0.264,1.495L34.585,13.741z"/>
		</g>
	</g>
	<g opacity="0.6">
		<g>
			<polygon fill="#FFFFFF" points="38.486,11.634 39.191,10.224 39.881,11.641 41.442,11.875 40.307,12.971 40.566,14.526 
				39.173,13.786 37.774,14.513 38.047,12.96 36.924,11.854 			"/>
			<path fill="#FFFFFF" d="M40.617,14.6l-1.444-0.769l-1.452,0.754l0.284-1.611l-1.166-1.147l1.62-0.228l0.732-1.464l0.716,1.472
				l1.619,0.242l-1.178,1.137L40.617,14.6z M39.174,13.741l1.34,0.714l-0.25-1.498l1.094-1.055l-1.502-0.225l-0.666-1.364
				l-0.678,1.357l-1.503,0.211l1.081,1.064l-0.264,1.495L39.174,13.741z"/>
		</g>
	</g>
	<g opacity="0.6">
		<g>
			<polygon fill="#FFFFFF" points="43.011,11.634 43.716,10.224 44.407,11.641 45.967,11.875 44.831,12.971 45.091,14.526 
				43.698,13.786 42.299,14.513 42.573,12.96 41.449,11.854 			"/>
			<path fill="#FFFFFF" d="M45.143,14.6l-1.444-0.769l-1.452,0.754l0.284-1.611l-1.165-1.147l1.62-0.229l0.731-1.463l0.717,1.472
				l1.619,0.242l-1.178,1.137L45.143,14.6z M43.698,13.741l1.341,0.714l-0.249-1.498l1.092-1.055l-1.502-0.225l-0.665-1.364
				l-0.679,1.357l-1.503,0.211l1.082,1.064l-0.264,1.495L43.698,13.741z"/>
		</g>
	</g>
	<path opacity="0.6" fill="#FFFFFF" d="M48.571,18.631c0-1.884-1.065-3.307-2.798-3.754c-0.335-0.086-0.675-0.105-1.019-0.105
		c-1.102-0.002-2.203-0.007-3.304-0.01c-0.043,0-0.087,0-0.13,0c-0.892,0-1.785,0-2.677,0c-0.043,0-0.086,0-0.13,0
		c-1.059,0-2.116,0-3.175,0c-0.266,0-0.531,0-0.798,0c-0.243,0-0.485,0-0.729,0c-0.267,0-0.532,0-0.798,0c-1.059,0-2.116,0-3.175,0
		c-0.043,0-0.087,0-0.13,0c-0.892,0-1.784,0-2.677,0c-0.043,0-0.087,0-0.129,0c-1.102,0.003-2.203,0.008-3.304,0.01
		c-0.344,0-0.685,0.02-1.02,0.105c-1.731,0.447-2.797,1.87-2.798,3.754c-0.001,7.607,0.002,15.215-0.006,22.821
		c0,0.27,0.057,0.34,0.335,0.339c4.688-0.004,9.376-0.003,14.064-0.003s9.377-0.001,14.065,0.003
		c0.277,0.001,0.334-0.069,0.334-0.339C48.569,33.846,48.572,26.238,48.571,18.631z M45.799,39.339
		c-3.056-0.009-6.111-0.011-9.166,0.002c-0.306,0.003-0.351-0.102-0.35-0.368c0.01-2.235,0.003-4.471,0.011-6.705
		c0.001-0.235-0.048-0.316-0.304-0.314c-0.482,0.004-0.966,0.002-1.449,0c-0.242,0-0.485-0.001-0.729,0
		c-0.483,0.002-0.967,0.004-1.449,0c-0.255-0.002-0.305,0.079-0.304,0.314c0.008,2.234,0.001,4.47,0.011,6.705
		c0.001,0.267-0.044,0.371-0.35,0.368c-3.055-0.013-6.11-0.011-9.166-0.002c-0.253,0.001-0.329-0.054-0.329-0.318
		c0.008-6.797,0.005-13.595,0.006-20.392c0.001-0.915,0.492-1.41,1.402-1.41c3.515-0.001,7.029-0.001,10.543-0.001
		s7.029,0,10.543,0.001c0.91,0,1.401,0.495,1.402,1.41c0.001,6.797-0.002,13.595,0.007,20.392
		C46.129,39.285,46.053,39.34,45.799,39.339z"/>
</g>
</svg>
