<?xml version="1.0" encoding="utf-8"?>
<!-- Generator: Adobe Illustrator 16.0.4, SVG Export Plug-In . SVG Version: 6.00 Build 0)  -->
<!DOCTYPE svg PUBLIC "-//W3C//DTD SVG 1.1//EN" "http://www.w3.org/Graphics/SVG/1.1/DTD/svg11.dtd">
<svg version="1.1" id="Layer_1" xmlns="http://www.w3.org/2000/svg" xmlns:xlink="http://www.w3.org/1999/xlink" x="0px" y="0px"
	 width="68.354px" height="51.926px" viewBox="0 0 68.354 51.926" enable-background="new 0 0 68.354 51.926" xml:space="preserve">
<g>
	<g>
		<rect x="0.376" y="-0.037" fill="none" width="67.978" height="51.963"/>
	</g>
</g>
<g>
	<g>
		<ellipse fill="#A7A7A7" cx="32.809" cy="24.852" rx="0.769" ry="0.39"/>
		<path fill="#A7A7A7" d="M22.905,27.339c1.203-0.043,3.114-0.081,3.774-0.082c-0.018,1.211,2.085,1.592,2.724,1.592
			c0.638,0,1.209,0,1.926,0s1.193-0.358,1.193-1.24s-0.183-1.637-0.183-1.637c-0.166-0.375-0.562-0.423-1.472-0.423
			c-0.909,0-2.352,0-2.833,0c-1.175,0-1.31,0.384-1.39,0.782c-0.086-0.165-0.24-0.188-0.447-0.242
			c-0.207-0.057-2.632-0.704-3.191-0.871c-0.561-0.167-1.631-0.517-1.794,0.045c-0.161,0.564-0.418,1.56,0.423,1.56
			C21.601,27.323,21.955,27.373,22.905,27.339z M27.05,26.231c0.162-0.259,0.422-0.432,0.905-0.425
			c0.65,0.01,2.875,0.067,3.268,0.101c0.394,0.033,0.722,0.162,0.769,0.744c0.046,0.583,0.175,1.327-0.245,1.604
			c-0.421,0.274-1.976,0.213-2.591,0.145c-0.616-0.064-2.008-0.354-2.106-0.904C26.953,26.944,26.887,26.49,27.05,26.231z"/>
		<path fill="#A7A7A7" d="M42.611,25.218c-0.56,0.167-2.985,0.813-3.192,0.871c-0.206,0.053-0.36,0.077-0.446,0.242
			c-0.08-0.398-0.213-0.782-1.39-0.782c-0.479,0-1.924,0-2.832,0c-0.911,0-1.307,0.048-1.474,0.424c0,0-0.182,0.755-0.182,1.637
			c0,0.881,0.476,1.241,1.191,1.241c0.718,0,1.29,0,1.926,0c0.64,0,2.743-0.382,2.725-1.592c0.66,0.001,2.572,0.038,3.774,0.082
			c0.95,0.032,1.306-0.018,1.271-0.518c0.84,0,0.583-0.994,0.421-1.559C44.24,24.702,43.17,25.051,42.611,25.218z M38.568,27.495
			c-0.099,0.55-1.489,0.841-2.106,0.906c-0.613,0.067-2.171,0.131-2.59-0.145c-0.421-0.277-0.292-1.02-0.246-1.604
			c0.047-0.583,0.375-0.713,0.769-0.745c0.395-0.032,2.62-0.091,3.269-0.101c0.483-0.006,0.743,0.166,0.905,0.425
			C38.732,26.493,38.665,26.944,38.568,27.495z"/>
		<path fill="#A7A7A7" d="M43.016,29.155c-0.392,0.017-1.217,0.113-2.61,0.243c-1.396,0.132-2.394,0.277-2.623,0.715l-4.966,0.022
			l-4.966-0.022c-0.23-0.438-1.23-0.583-2.625-0.715c-1.394-0.129-2.217-0.227-2.611-0.243c-0.396-0.017-0.882-0.117-0.852,0.648
			c0.029,0.769,0.094,1.289,0.952,1.389c0.857,0.101,2.388,0.189,3.298,0.257c0.91,0.069,2.169,0.229,2.066-0.168
			c0.879-0.038,0.357,0.296,1.044,0.316c0.566,0.016,2.901,0.004,3.693,0.001c0.789,0.003,3.124,0.015,3.691-0.001
			c0.686-0.021,0.163-0.354,1.043-0.316c-0.102,0.397,1.157,0.238,2.068,0.168c0.911-0.067,2.439-0.157,3.297-0.257
			c0.858-0.1,0.924-0.62,0.952-1.389C43.898,29.036,43.411,29.139,43.016,29.155z"/>
		<path fill="#A7A7A7" d="M45.736,24.755c-0.527-0.854-1.783-1.699-2.565-2.166h0.325c0.279,0,1.135,0,1.135-0.778
			c0-0.593-0.667-0.767-1.021-0.777c-0.005,0-0.381-0.002-0.699,0c-0.206,0.001-0.63,0.005-0.636,0.443
			c-0.697-1.335-1.943-3.006-2.914-3.652c-0.331-0.219-0.723-0.231-0.767-0.231c-2.465-0.183-5.731-0.185-5.764-0.185h-0.022h-0.02
			c-0.034,0-3.301,0.002-5.765,0.185c-0.044,0-0.437,0.012-0.766,0.231c-0.972,0.646-2.216,2.318-2.914,3.652
			c-0.004-0.438-0.429-0.442-0.635-0.443c-0.318-0.002-0.696,0-0.699,0c-0.354,0.011-1.022,0.185-1.022,0.777
			c0,0.778,0.855,0.778,1.136,0.778h0.323c-0.782,0.468-2.039,1.312-2.564,2.166c-0.462,0.751-0.625,3.716-0.614,4.556
			c0.007,0.61,0.062,1.556,0.117,2.471l0.08,1.517c0.03,0.814,0.404,1.194,1.181,1.194h3.064c1.321,0,1.333-1.233,1.336-1.259
			c0.035,0,0.069,0,0.103,0c0.788,0,1.29,0.102,1.666,0.176c0.053,0.011,0.104,0.022,0.15,0.031
			c0.459,0.086,2.747,0.176,2.774,0.178l3.036,0.018h0.039h0.037l3.036-0.018c0.027-0.002,2.314-0.092,2.773-0.178
			c0.048-0.01,0.099-0.021,0.15-0.031c0.376-0.074,0.878-0.176,1.666-0.176c0.033,0,0.066,0,0.103,0
			c0.002,0.024,0.016,1.259,1.336,1.259h3.064c0.775,0,1.149-0.381,1.181-1.194l0.079-1.517c0.055-0.915,0.11-1.857,0.117-2.471
			C46.361,28.471,46.198,25.506,45.736,24.755z M26.573,18.299c0.186-0.125,0.441-0.135,0.476-0.137
			c2.462-0.182,5.707-0.184,5.739-0.184h0.02h0.022c0.032,0,3.277,0.002,5.739,0.184c0.035,0.001,0.29,0.012,0.476,0.137
			c0.95,0.632,2.204,2.366,2.835,3.659h-9.072h-9.069C24.369,20.665,25.622,18.931,26.573,18.299z M45.779,29.305
			c-0.007,0.599-0.06,1.536-0.112,2.442l-0.022,0.349c-0.021,0.406-0.042,0.409-0.23,0.433c-0.392,0.049-2.608,0.104-4.554,0.142
			c-0.127-0.005-0.26-0.008-0.388-0.008c-0.845,0-1.379,0.107-1.771,0.188c-0.055,0.011-0.105,0.021-0.151,0.029
			c-0.299,0.058-1.768,0.132-2.68,0.17l-3.062,0.017l-3.061-0.017c-0.913-0.038-2.38-0.112-2.679-0.17
			c-0.047-0.009-0.098-0.021-0.153-0.029c-0.391-0.08-0.925-0.188-1.771-0.188c-0.129,0-0.261,0.003-0.388,0.008
			c-1.945-0.037-4.162-0.093-4.553-0.142c-0.188-0.023-0.208-0.026-0.231-0.433l-0.021-0.349c-0.052-0.907-0.107-1.845-0.114-2.442
			c-0.016-1.123,0.216-3.741,0.53-4.25c0.648-1.052,2.716-2.181,2.964-2.314h9.476h9.476c0.249,0.133,2.317,1.262,2.966,2.314
			C45.564,25.564,45.794,28.182,45.779,29.305z"/>
	</g>
	<g>
		<path fill="#A7A7A7" d="M27.591,6.955c-0.038-0.201-0.077-0.398-0.117-0.591c-2.909,0.773-5.569,2.165-7.833,4.023
			c0.079,0.183,0.169,0.373,0.269,0.56C22.121,9.103,24.731,7.724,27.591,6.955z"/>
	</g>
	<g>
		<path fill="#A7A7A7" d="M48.18,13.403v-0.895c-2.267-2.496-5.119-4.451-8.352-5.615L39.72,7.49
			C43.033,8.702,45.937,10.763,48.18,13.403z"/>
	</g>
	<g>
		<path fill="#A7A7A7" d="M52.718,29.682l0.571,0.218c0.189-1.125,0.292-2.278,0.292-3.456c0-1.639-0.195-3.232-0.556-4.763h-0.614
			c0.374,1.528,0.569,3.122,0.569,4.763C52.982,27.548,52.889,28.626,52.718,29.682z"/>
	</g>
	<g>
		<path fill="#A7A7A7" d="M49.922,37.104c-2.365,3.783-5.953,6.725-10.202,8.281v0.641c4.498-1.592,8.291-4.688,10.765-8.686
			L49.922,37.104z"/>
	</g>
	<g>
		<path fill="#A7A7A7" d="M17.719,39.813v0.881c3.729,3.945,8.979,6.437,14.804,6.515v-0.601
			C26.64,46.527,21.36,43.913,17.719,39.813z"/>
		<path fill="#A7A7A7" d="M13.768,33.101c-0.731-2.085-1.133-4.324-1.133-6.658c0-2.129,0.335-4.18,0.948-6.109l-0.602-0.095
			c-0.614,1.96-0.947,4.045-0.947,6.204c0,2.329,0.391,4.567,1.102,6.656C13.344,33.101,13.556,33.101,13.768,33.101z"/>
	</g>
	<g>
		<path fill="#A7A7A7" d="M34.965,47.422c-0.428,0.088-0.501-0.091-0.46-0.371c0.046-0.325-0.169-0.771,0.418-0.838
			c0.153-0.021,0.069-0.196,0.079-0.301c0.054-0.62,0.102-1.243,0.142-1.868c0.016-0.257,0.132-0.354,0.389-0.331
			c0.217,0.019,0.436,0.004,0.654,0.004c0.603,0,0.605,0,0.648,0.626c0.036,0.522,0.066,1.046,0.088,1.567
			c0.009,0.183,0.019,0.289,0.259,0.347c0.395,0.097,0.218,0.476,0.253,0.743c0.038,0.287-0.001,0.521-0.404,0.453
			c0.16,0.182,0.28,1.11,0.196,1.303c-0.047,0.109-0.137,0.092-0.22,0.092c-0.684,0.001-1.367,0.002-2.053-0.002
			c-0.065,0-0.155-0.006-0.198-0.046C34.641,48.688,34.761,47.646,34.965,47.422z"/>
		<path fill="#A7A7A7" d="M36.936,49.996c0,1.017,0,1.017-1.007,1.017c-0.234,0-0.468,0.002-0.699-0.002
			c-0.098,0-0.224,0.022-0.219-0.135c0.004-0.092-0.076-0.232,0.147-0.225c0.183,0.007,0.131-0.13,0.057-0.227
			c-0.023-0.027-0.089-0.021-0.116-0.048c-0.129-0.12-0.167-0.188,0.054-0.285c0.288-0.127,0.033-0.186-0.066-0.278
			c-0.135-0.126-0.151-0.226,0.095-0.267c0.139-0.022,0.143-0.131-0.007-0.23c-0.087-0.059-0.192-0.079-0.159-0.21
			c0.043-0.168,0.188-0.099,0.289-0.101c0.451-0.008,0.903,0.011,1.354-0.008c0.243-0.011,0.299,0.079,0.286,0.298
			C36.923,49.528,36.936,49.764,36.936,49.996z"/>
		<path fill="#A7A7A7" d="M36.357,42.836c0.005,0.062,0,0.163,0.023,0.26c0.088,0.359-0.023,0.484-0.41,0.48
			c-0.385-0.002-0.517-0.108-0.396-0.48c0.023-0.067,0.039-0.153,0.018-0.215c-0.184-0.472,0.089-0.483,0.444-0.484
			C36.347,42.396,36.48,42.478,36.357,42.836z"/>
		<path fill="#A7A7A7" d="M35.995,51.816c-0.103-0.055-0.302,0.116-0.383-0.095c-0.075-0.197,0.266-0.245,0.19-0.456
			c0.114-0.016,0.256-0.123,0.328,0.056c0.144,0.367,0.293,0.202,0.372-0.014c0.06-0.161,0.139-0.232,0.272-0.176
			c0.139,0.06,0.073,0.209,0.036,0.306C36.678,51.812,36.363,51.843,35.995,51.816z"/>
	</g>
	<path fill="#A7A7A7" d="M49.596,20.523c-0.547,0.102-1.101-0.091-1.57-0.58c-0.404-0.42-0.938-0.57-1.497-0.626
		c-0.294-0.029-0.41-0.142-0.415-0.448c-0.014-0.609,0.028-1.208,0.193-1.794c0.068-0.248,0.202-0.411,0.502-0.428
		c0.558-0.03,1.022-0.269,1.409-0.679c0.394-0.417,0.909-0.643,1.462-0.72c1.513-0.213,3.032-0.259,4.537,0.063
		c1.522,0.326,2.478,1.529,2.493,3.071c0.013,0.958-0.562,1.609-1.52,1.691C53.365,20.227,51.541,20.367,49.596,20.523z
		 M51.497,15.833c-0.57,0-1.352-0.016-2.103,0.224c-0.66,0.212-0.926,0.562-0.958,1.253c-0.017,0.379-0.01,0.761-0.004,1.141
		c0.009,0.823,0.355,1.172,1.184,1.12c1.81-0.116,3.617-0.251,5.426-0.392c0.617-0.047,0.84-0.315,0.836-0.943
		c-0.009-1.027-0.715-1.891-1.81-2.188C53.295,15.839,52.5,15.819,51.497,15.833z"/>
	<path fill="#A7A7A7" d="M55.066,18.891c0.458-0.078,0.535-0.166,0.548-0.617c0.024-0.983-0.724-1.809-1.86-2.025
		c-1.21-0.23-2.43-0.124-3.675-0.096c0.119,0.175,0.255,0.13,0.398,0.126c0.81-0.021,1.619-0.023,2.427,0.073
		C54.455,16.539,55.276,17.496,55.066,18.891z"/>
	<path fill="#A7A7A7" d="M52.099,37.171c-1.627,0.002-2.977-1.127-3.279-2.729c-0.059-0.307-0.002-0.434,0.332-0.338
		c0.114,0.033,0.243,0.037,0.362,0.029c0.335-0.022,0.488,0.108,0.601,0.451c0.312,0.962,1.274,1.509,2.302,1.375
		c0.905-0.117,1.672-0.906,1.771-1.82c0.111-1.015-0.44-1.922-1.373-2.271c-0.143-0.054-0.367-0.006-0.4-0.224
		c-0.051-0.33-0.109-0.665-0.089-0.994c0.011-0.152,0.237-0.07,0.358-0.051c1.288,0.212,2.381,1.269,2.658,2.562
		C55.782,35.234,54.222,37.166,52.099,37.171z"/>
	<path fill="#A7A7A7" d="M53.919,33.88c-0.007,1.012-0.81,1.813-1.818,1.813c-1.029,0.002-1.849-0.82-1.84-1.843
		c0.008-1.022,0.838-1.828,1.868-1.815C53.132,32.049,53.925,32.866,53.919,33.88z M51.467,33.863
		c-0.003,0.318,0.277,0.609,0.602,0.625c0.336,0.018,0.646-0.279,0.646-0.621c0.001-0.321-0.276-0.613-0.597-0.628
		C51.779,33.227,51.469,33.521,51.467,33.863z M52.156,35.049c-0.034-0.157-0.132-0.252-0.282-0.241
		c-0.126,0.009-0.226,0.105-0.226,0.238c0.002,0.149,0.095,0.26,0.251,0.259C52.055,35.303,52.135,35.195,52.156,35.049z
		 M53.459,34.239c-0.031-0.121-0.113-0.218-0.282-0.188c-0.14,0.023-0.208,0.118-0.196,0.257c0.016,0.165,0.123,0.24,0.28,0.219
		C53.4,34.507,53.47,34.414,53.459,34.239z M51.173,34.165c-0.02-0.159-0.113-0.244-0.271-0.234
		c-0.143,0.01-0.221,0.108-0.216,0.243c0.004,0.132,0.075,0.23,0.224,0.237C51.073,34.418,51.156,34.326,51.173,34.165z
		 M53.185,33.005c-0.021-0.158-0.103-0.25-0.269-0.241c-0.148,0.008-0.217,0.103-0.217,0.238c0.001,0.165,0.102,0.251,0.261,0.243
		C53.099,33.235,53.173,33.143,53.185,33.005z M51.731,32.824c-0.014-0.159-0.093-0.252-0.26-0.245
		c-0.144,0.008-0.222,0.1-0.223,0.236c-0.001,0.164,0.099,0.248,0.259,0.243C51.651,33.055,51.719,32.965,51.731,32.824z"/>
	<path fill="#A7A7A7" d="M52.014,31.275c0.157,0.348-0.071,0.442-0.484,0.545c-0.853,0.212-1.366,0.816-1.533,1.68
		c-0.048,0.247-0.107,0.332-0.365,0.292c-0.374-0.06-0.753-0.089-1.131-0.109c-0.208-0.011-0.238-0.093-0.218-0.284
		c0.172-1.683,1.665-3.185,3.336-3.352c0.226-0.022,0.284,0.044,0.292,0.259C51.919,30.593,51.969,30.878,52.014,31.275z"/>
	<path fill="#A7A7A7" d="M15.42,36.983c0.013,0.666-0.081,1.318-0.25,1.961c-0.041,0.157-0.083,0.285-0.264,0.352
		c-0.833,0.306-2.086-0.085-2.73-0.866c-0.638-0.768-0.717-1.834-0.17-2.682c0.721-1.115,1.811-1.274,2.845-1.141
		c0.2,0.023,0.244,0.167,0.288,0.326C15.322,35.604,15.429,36.285,15.42,36.983z"/>
	<path fill="#A7A7A7" d="M17.127,38.097c0.252,0,0.503-0.005,0.755,0.002c0.243,0.005,0.381,0.131,0.386,0.378
		c0.006,0.246-0.119,0.395-0.363,0.398c-0.52,0.009-1.039,0.011-1.558,0c-0.243-0.007-0.373-0.156-0.364-0.401
		c0.009-0.242,0.142-0.374,0.387-0.377C16.624,38.094,16.876,38.097,17.127,38.097z"/>
	<path fill="#A7A7A7" d="M17.119,36.574c0.235-0.001,0.472,0.001,0.707-0.001c0.257-0.003,0.428,0.1,0.441,0.377
		c0.013,0.273-0.141,0.409-0.402,0.411c-0.504,0.007-1.006,0.007-1.509-0.004c-0.243-0.004-0.375-0.146-0.373-0.392
		c0.001-0.246,0.141-0.379,0.38-0.388C16.616,36.567,16.867,36.575,17.119,36.574z"/>
	<path fill="#A7A7A7" d="M17.147,35.838c-0.251,0-0.504,0-0.755,0c-0.268-0.002-0.415-0.137-0.408-0.405
		c0.005-0.246,0.15-0.371,0.392-0.371c0.504-0.003,1.006-0.006,1.509,0c0.245,0.002,0.382,0.137,0.383,0.38
		c0.001,0.271-0.146,0.4-0.415,0.396C17.618,35.836,17.382,35.838,17.147,35.838z"/>
	<g>
		<path fill="#A7A7A7" d="M19.698,13.575c0.005-0.356-0.124-0.421-0.445-0.42c-2.249,0.012-4.498,0.013-6.747-0.001
			c-0.35-0.002-0.468,0.086-0.462,0.452c0.021,1.363,0.022,2.727-0.001,4.089c-0.007,0.385,0.138,0.437,0.469,0.433
			c1.107-0.02,2.215-0.006,3.321-0.006c1.142,0,2.284-0.01,3.425,0.005c0.316,0.004,0.445-0.053,0.438-0.413
			C19.675,16.334,19.677,14.954,19.698,13.575z M15.694,17.317c-0.065,0.102-0.146,0.217-0.282,0.143
			c-0.126-0.068-0.006-0.179,0.001-0.268c0.005-0.065,0.043-0.127,0.058-0.193c0.068-0.294,0.336-0.618,0.207-0.86
			c-0.118-0.221-0.527-0.004-0.832-0.125c0.235-0.645,0.461-1.28,0.698-1.911c0.068-0.181,0.904-0.326,1.05-0.189
			c0.097,0.091,0.015,0.18-0.019,0.27c-0.134,0.362-0.269,0.725-0.413,1.121c0.271,0.015,0.496,0.026,0.783,0.041
			C16.506,16.036,16.101,16.676,15.694,17.317z"/>
		<path fill="#A7A7A7" d="M15.821,18.959c-1.159,0-2.317,0.004-3.476-0.003c-0.176-0.001-0.421,0.105-0.406-0.263
			c0.013-0.317,0.194-0.296,0.406-0.296c2.352,0.002,4.703,0.001,7.055,0c0.209,0,0.396-0.031,0.407,0.293
			c0.013,0.368-0.231,0.265-0.407,0.266C18.206,18.962,17.014,18.959,15.821,18.959z"/>
		<path fill="#A7A7A7" d="M17.676,12.67c-0.022-0.403,0.178-0.538,0.59-0.524c0.353,0.012,0.542,0.08,0.537,0.468
			C18.794,13.143,17.7,13.108,17.676,12.67z"/>
		<path fill="#A7A7A7" d="M12.945,12.659c-0.03-0.387,0.139-0.514,0.541-0.515c0.412-0.002,0.61,0.132,0.584,0.529
			C14.043,13.104,12.982,13.135,12.945,12.659z"/>
	</g>
	<g>
		<path fill="#A7A7A7" d="M36.98,9.153c-0.105-1.43-0.186-2.861-0.271-4.292c-0.038-0.621-0.295-1.113-0.776-1.52
			c-0.729-0.618-1.436-1.264-2.133-1.916c-0.313-0.293-0.648-0.474-1.085-0.429c-0.146,0.015-0.268,0.007-0.339-0.064V0.41
			c0-0.173-0.169-0.314-0.378-0.314h-1.166c-0.208,0-0.376,0.14-0.376,0.314v0.593c-0.493,0.036-0.568,0.173-0.569,0.775
			c-0.001,2.446,0.009,4.892-0.007,7.337c-0.003,0.518,0.165,0.727,0.699,0.721c1.912-0.021,3.825-0.018,5.737-0.001
			C36.812,9.837,37.018,9.667,36.98,9.153z M33.247,8.792c-1.017-0.048-1.835-0.934-1.787-1.935c0.05-1.023,0.919-1.823,1.936-1.781
			c1.021,0.042,1.824,0.912,1.782,1.929C35.135,8.021,34.252,8.84,33.247,8.792z M35.588,4.526c-0.455,0-2.128-0.564-2.128-0.564
			s-0.236-0.074-0.273-0.347c-0.037-0.271-0.292-1.473-0.145-1.655c0.146-0.182,0.454,0.019,0.454,0.019l2.456,2.219
			C35.951,4.198,36.043,4.526,35.588,4.526z"/>
		<path fill="#A7A7A7" d="M33.323,5.793c0.26,0.366,0.491,0.65,0.678,0.962c0.219,0.362,0.15,0.717-0.173,0.984
			c-0.321,0.266-0.685,0.266-1.007,0.001c-0.325-0.266-0.4-0.616-0.177-0.98C32.832,6.449,33.059,6.164,33.323,5.793z"/>
	</g>
</g>
</svg>
