<?xml version="1.0" encoding="utf-8"?>
<!-- Generator: Adobe Illustrator 16.0.4, SVG Export Plug-In . SVG Version: 6.00 Build 0)  -->
<!DOCTYPE svg PUBLIC "-//W3C//DTD SVG 1.1//EN" "http://www.w3.org/Graphics/SVG/1.1/DTD/svg11.dtd">
<svg version="1.1" id="Layer_1" xmlns="http://www.w3.org/2000/svg" xmlns:xlink="http://www.w3.org/1999/xlink" x="0px" y="0px"
	 width="68.354px" height="51.926px" viewBox="0 0 68.354 51.926" enable-background="new 0 0 68.354 51.926" xml:space="preserve">
<g>
	<g>
		<rect x="0.376" y="-0.037" fill="none" width="67.978" height="51.963"/>
	</g>
</g>
<g>
	<path fill="#A7A7A7" d="M34.178,8.322c-9.743,0-17.643,7.898-17.643,17.642c0,9.74,7.896,17.64,17.643,17.64
		c9.74,0,17.641-7.896,17.641-17.64C51.819,16.218,43.918,8.322,34.178,8.322z M49.188,18.988c0.79,1.695,1.263,3.45,1.45,5.212
		c-0.518,2.542-1.933,5.122-4.077,7.416c0.173-2.956-0.351-6.165-1.627-9.314c1.441-1.591,2.576-3.268,3.363-4.97
		C48.62,17.859,48.921,18.413,49.188,18.988z M34.206,27.571c-3.026,1.334-6.076,2.133-8.929,2.412
		c-1.706-3.711-2.319-7.555-1.966-10.946c2.104-0.076,4.227-0.521,6.272-1.378L34.206,27.571z M30.84,17.072
		c1.975-1.01,3.679-2.349,5.083-3.913c2.83,1.916,5.374,4.857,7.12,8.545c-2.047,2.006-4.615,3.824-7.58,5.284L30.84,17.072z
		 M35.01,29.297l3.632,7.796c-2.018,0.871-4.055,1.449-6.029,1.744c-2.482-1.651-4.747-4.093-6.457-7.135
		C29.009,31.404,32.026,30.609,35.01,29.297z M36.265,28.713c2.922-1.438,5.471-3.235,7.527-5.226
		c1.23,3.273,1.645,6.575,1.312,9.54c-1.493,1.321-3.245,2.508-5.204,3.484L36.265,28.713z M47.281,15.86
		c-0.721,1.593-1.776,3.18-3.135,4.694c-1.836-3.648-4.458-6.541-7.378-8.411c0.542-0.698,1.03-1.432,1.462-2.203
		C41.761,10.83,44.978,12.878,47.281,15.86z M36.883,9.663c-0.373,0.629-0.782,1.236-1.243,1.819
		c-1.625-0.878-3.318-1.436-5.002-1.644C32.723,9.374,34.841,9.328,36.883,9.663z M34.797,12.464
		c-1.263,1.364-2.773,2.525-4.508,3.421l-2.405-5.159C30.158,10.566,32.542,11.187,34.797,12.464z M29.032,16.468
		c-1.808,0.752-3.671,1.165-5.529,1.255c0.472-2.549,1.534-4.778,3.12-6.416L29.032,16.468z M24.169,12.86
		c-0.923,1.416-1.581,3.071-1.96,4.875c-0.735-0.023-1.464-0.099-2.185-0.213C21.078,15.743,22.476,14.155,24.169,12.86z
		 M19.375,18.726c0.86,0.166,1.733,0.265,2.614,0.301c-0.446,3.436,0.078,7.305,1.69,11.054c-2.025,0.065-3.922-0.138-5.599-0.608
		C17.278,25.786,17.78,22.005,19.375,18.726z M19.248,32.938c-0.267-0.568-0.493-1.152-0.689-1.738
		c1.801,0.488,3.819,0.693,5.954,0.613c1.588,3.004,3.708,5.468,6.083,7.236c-3.135,0.162-6.02-0.414-8.294-1.656
		C21.075,36.119,20.036,34.63,19.248,32.938z M24.913,39.606c2.241,0.676,4.784,0.894,7.442,0.602
		c1.759,1.008,3.604,1.656,5.436,1.881C33.279,43.088,28.617,42.13,24.913,39.606z M34.401,39.88
		c1.602-0.33,3.221-0.836,4.825-1.533l1.33,2.861C38.534,41.347,36.427,40.881,34.401,39.88z M40.481,37.765
		c1.559-0.782,2.989-1.69,4.264-2.703c-0.534,2.193-1.53,4.102-2.938,5.556L40.481,37.765z M44.26,39.076
		c1.012-1.548,1.704-3.382,2.059-5.382c1.93-1.851,3.41-3.922,4.334-6.073C50.195,32.086,47.929,36.271,44.26,39.076z"/>
</g>
</svg>
