<?xml version="1.0" encoding="utf-8"?>
<!-- Generator: Adobe Illustrator 16.0.4, SVG Export Plug-In . SVG Version: 6.00 Build 0)  -->
<!DOCTYPE svg PUBLIC "-//W3C//DTD SVG 1.1//EN" "http://www.w3.org/Graphics/SVG/1.1/DTD/svg11.dtd">
<svg version="1.1" id="Layer_1" xmlns="http://www.w3.org/2000/svg" xmlns:xlink="http://www.w3.org/1999/xlink" x="0px" y="0px"
	 width="68.354px" height="51.926px" viewBox="0 0 68.354 51.926" enable-background="new 0 0 68.354 51.926" xml:space="preserve">
<g>
	<g>
		<g>
			<rect x="0.376" y="-0.037" fill="none" width="67.978" height="51.963"/>
		</g>
	</g>
	<g>
		<g>
			<g>
				<path fill="#A7A7A7" d="M31.281,9.181h-6.695c-2.266,0-4.138,1.688-4.384,3.849h1.303c0.24-1.451,1.524-2.566,3.081-2.566h5.066
					L31.281,9.181z"/>
				<path fill="#A7A7A7" d="M49.893,22.309V35.21c0,1.266-0.795,2.352-1.925,2.812v1.351c1.848-0.516,3.207-2.185,3.207-4.163
					V21.298L49.893,22.309z"/>
			</g>
			<path fill="#A7A7A7" d="M43.691,24.361v18.545c0,1.681-1.404,3.049-3.132,3.049H18.385c-1.726,0-3.13-1.368-3.13-3.049V21.209
				c0-1.68,1.404-3.048,3.13-3.048h6.704v-1.283h-6.704c-2.434,0-4.414,1.942-4.414,4.331v21.697c0,2.389,1.981,4.33,4.414,4.33
				h22.175c2.435,0,4.413-1.941,4.413-4.33V24.361H43.691z"/>
		</g>
		<polygon fill="#A7A7A7" points="44.546,16.878 35.963,16.878 35.993,12.816 28.725,18.801 35.906,23.915 35.939,20.085 
			44.546,20.085 		"/>
		<polygon fill="#A7A7A7" points="38.56,11.728 47.143,11.728 47.113,15.792 54.382,9.804 47.199,4.689 47.17,8.521 38.56,8.521 		
			"/>
	</g>
</g>
</svg>
