<?xml version="1.0" encoding="utf-8"?>
<!-- Generator: Adobe Illustrator 16.0.4, SVG Export Plug-In . SVG Version: 6.00 Build 0)  -->
<!DOCTYPE svg PUBLIC "-//W3C//DTD SVG 1.1//EN" "http://www.w3.org/Graphics/SVG/1.1/DTD/svg11.dtd">
<svg version="1.1" id="Layer_1" xmlns="http://www.w3.org/2000/svg" xmlns:xlink="http://www.w3.org/1999/xlink" x="0px" y="0px"
	 width="68.354px" height="51.926px" viewBox="0 0 68.354 51.926" enable-background="new 0 0 68.354 51.926" xml:space="preserve">
<g>
	<g>
		<g>
			<rect x="0.376" y="-0.037" fill="none" width="67.978" height="51.963"/>
		</g>
	</g>
	<g>
		<path fill="#A7A7A7" d="M50.868,9.749H12.32c-2.33,0-4.217,1.888-4.217,4.215V43.12c0,2.319,1.886,4.213,4.217,4.213h38.548
			c2.329,0,4.222-1.893,4.222-4.213V13.962C55.092,11.637,53.201,9.749,50.868,9.749z M51.989,43.118
			c0,0.608-0.499,1.105-1.12,1.105H12.32c-0.612,0-1.108-0.497-1.108-1.105V13.962c0-0.612,0.496-1.11,1.108-1.11h38.548
			c0.621,0,1.12,0.498,1.12,1.11V43.118z"/>
		<path fill="#A7A7A7" d="M56.027,4.593H17.476c-2.327,0-4.216,3.179-4.216,3.179h3.108c0,0,0.495-0.073,1.108-0.073h38.551
			c0.619,0,1.12,0.5,1.12,1.111v29.153c0,0.61-0.48,1.107-0.48,1.107v3.106c0,0,3.584-1.892,3.584-4.214V8.809
			C60.25,6.481,58.36,4.593,56.027,4.593z"/>
		<path fill="#A7A7A7" d="M15.91,40.246h29.748V17.778H15.91V40.246z M34.157,23.788h5.493v1.554h-3.63v2.534h3.207v1.526H36.02
			v4.135h-1.863V23.788z M30.55,23.788h1.865v9.75H30.55V23.788z M22.34,26.508c0.166-0.641,0.403-1.179,0.71-1.612
			c0.312-0.431,0.691-0.756,1.141-0.975c0.449-0.218,0.958-0.331,1.528-0.331c0.642,0,1.193,0.112,1.649,0.331
			c0.455,0.219,0.808,0.564,1.057,1.038c0.252,0.472,0.42,1.011,0.516,1.608l-1.778,0.378c-0.081-0.426-0.195-0.773-0.344-1.05
			c-0.149-0.273-0.323-0.458-0.523-0.558c-0.199-0.104-0.408-0.154-0.621-0.154c-0.569,0-0.993,0.307-1.273,0.921
			c-0.278,0.615-0.419,1.506-0.419,2.674c0,1.158,0.148,2.008,0.441,2.551c0.296,0.543,0.71,0.813,1.251,0.813
			c0.202,0,0.393-0.033,0.57-0.1c0.179-0.069,0.335-0.172,0.468-0.318c0.13-0.146,0.237-0.332,0.311-0.554
			c0.077-0.226,0.114-0.489,0.114-0.803v-0.543h-1.076v-1.37h2.889v5.083h-1.179l-0.166-0.983c-0.234,0.382-0.53,0.675-0.886,0.878
			c-0.355,0.201-0.778,0.301-1.274,0.301c-0.478,0-0.922-0.09-1.33-0.271c-0.41-0.183-0.764-0.47-1.066-0.871
			c-0.3-0.402-0.534-0.915-0.703-1.549c-0.168-0.631-0.252-1.397-0.252-2.305C22.094,27.893,22.176,27.149,22.34,26.508z"/>
	</g>
</g>
</svg>
