<?xml version="1.0" encoding="utf-8"?>
<!-- Generator: Adobe Illustrator 16.0.4, SVG Export Plug-In . SVG Version: 6.00 Build 0)  -->
<!DOCTYPE svg PUBLIC "-//W3C//DTD SVG 1.1//EN" "http://www.w3.org/Graphics/SVG/1.1/DTD/svg11.dtd">
<svg version="1.1" id="Layer_1" xmlns="http://www.w3.org/2000/svg" xmlns:xlink="http://www.w3.org/1999/xlink" x="0px" y="0px"
	 width="68.354px" height="51.926px" viewBox="0 0 68.354 51.926" enable-background="new 0 0 68.354 51.926" xml:space="preserve">
<g>
	<g>
		<g>
			<rect x="0.376" y="-0.037" fill="none" width="67.978" height="51.963"/>
		</g>
	</g>
	<g>
		<path fill="#A7A7A7" d="M38.407,17.552h-1.475c0,4.786-4.734,8.682-10.552,8.682c-5.818,0-10.552-3.895-10.552-8.682h-1.475
			c0,5.602,5.395,10.156,12.026,10.156C33.012,27.708,38.407,23.153,38.407,17.552z"/>
		<path fill="#A7A7A7" d="M57.791,13.056H45.07V8.027c0-1.72-1.397-3.117-3.117-3.117H10.81c-1.719,0-3.117,1.398-3.117,3.117V29.69
			c0,1.72,1.398,3.118,3.117,3.118h2.323l-1.151,4.305c-0.208,0.775-0.154,1.378,0.162,1.786c0.227,0.296,0.576,0.468,0.96,0.468
			c0.437,0,0.9-0.21,1.411-0.638l7.089-5.92h2.177v4.781c0,1.58,1.286,2.866,2.869,2.866h17.317l7.158,5.979
			c0.461,0.383,0.882,0.579,1.252,0.579c0.311,0,0.583-0.13,0.764-0.369c0.266-0.345,0.305-0.873,0.119-1.571l-1.235-4.618h5.768
			c1.582,0,2.868-1.286,2.868-2.866V15.926C60.658,14.344,59.372,13.056,57.791,13.056z M15.068,32.248
			c0.008-0.022,0.017-0.048,0.022-0.071l0.3-1.09h-4.58c-0.769,0-1.395-0.627-1.395-1.396V8.027c0-0.769,0.626-1.395,1.395-1.395
			h31.142c0.771,0,1.396,0.625,1.396,1.395V29.69c0,0.77-0.625,1.396-1.396,1.396H20.981l-7.215,6.026L15.068,32.248z M41.952,32.81
			c1.72,0,3.117-1.399,3.117-3.119V14.282h12.722c0.907,0,1.644,0.736,1.645,1.643v21.663c0,0.908-0.737,1.646-1.645,1.646h-7.372
			l0.214,0.773c0.005,0.021,0.012,0.04,0.02,0.062l1.425,5.32c0.028,0.11,0.048,0.2,0.06,0.274
			c-0.063-0.041-0.139-0.096-0.226-0.167l-7.5-6.263H26.651c-0.907,0-1.645-0.738-1.645-1.646V32.81H41.952z"/>
	</g>
</g>
</svg>
