<?xml version="1.0" encoding="utf-8"?>
<!-- Generator: Adobe Illustrator 16.0.4, SVG Export Plug-In . SVG Version: 6.00 Build 0)  -->
<!DOCTYPE svg PUBLIC "-//W3C//DTD SVG 1.1//EN" "http://www.w3.org/Graphics/SVG/1.1/DTD/svg11.dtd">
<svg version="1.1" id="Layer_1" xmlns="http://www.w3.org/2000/svg" xmlns:xlink="http://www.w3.org/1999/xlink" x="0px" y="0px"
	 width="68.354px" height="51.926px" viewBox="0 0 68.354 51.926" enable-background="new 0 0 68.354 51.926" xml:space="preserve">
<g>
	<g>
		<g>
			<rect x="0.376" y="-0.037" fill="none" width="67.978" height="51.963"/>
		</g>
	</g>
	<path fill="#A7A7A7" enable-background="new    " d="M54.212,4.66c-0.172-0.155-0.4-0.215-0.627-0.192L28.896,7.651
		c-0.399,0.051-0.699,0.389-0.699,0.793v4.774v22.795c-1.453-1.748-3.759-2.884-6.363-2.884c-4.395,0-7.969,3.213-7.969,7.164
		c0,3.955,3.574,7.168,7.969,7.168c4.393,0,7.959-3.213,7.959-7.168V13.919l23.099-2.981v17.91c-1.455-1.749-3.77-2.887-6.373-2.887
		c-4.396,0-7.963,3.214-7.963,7.17c0,3.951,3.566,7.164,7.963,7.164c4.393,0,7.971-3.213,7.971-7.164V10.036v-4.78
		C54.488,5.029,54.386,4.811,54.212,4.66z"/>
</g>
</svg>
