<?xml version="1.0" encoding="utf-8"?>
<!-- Generator: Adobe Illustrator 16.0.4, SVG Export Plug-In . SVG Version: 6.00 Build 0)  -->
<!DOCTYPE svg PUBLIC "-//W3C//DTD SVG 1.1//EN" "http://www.w3.org/Graphics/SVG/1.1/DTD/svg11.dtd">
<svg version="1.1" id="Layer_1" xmlns="http://www.w3.org/2000/svg" xmlns:xlink="http://www.w3.org/1999/xlink" x="0px" y="0px"
	 width="68.354px" height="51.926px" viewBox="0 0 68.354 51.926" enable-background="new 0 0 68.354 51.926" xml:space="preserve">
<g>
	<g>
		<g>
			<rect x="0.376" y="-0.037" fill="none" width="67.978" height="51.963"/>
		</g>
	</g>
</g>
<g>
	<path fill="#A7A7A7" d="M50.788,47.455H12.429c-2.314,0-4.194-1.883-4.194-4.192V14.252c0-2.314,1.878-4.194,4.194-4.194h38.359
		c2.322,0,4.199,1.879,4.199,4.194v29.011C54.99,45.572,53.103,47.455,50.788,47.455z M12.429,13.149
		c-0.61,0-1.103,0.496-1.103,1.104v29.011c0,0.604,0.493,1.1,1.103,1.1h38.359c0.615,0,1.113-0.496,1.113-1.1V14.252
		c0-0.608-0.498-1.104-1.113-1.104L12.429,13.149L12.429,13.149z"/>
	<path fill="#A7A7A7" d="M22.437,19.833c2.013,0,3.643,1.631,3.643,3.642c0,2.008-1.629,3.639-3.643,3.639
		c-2.012,0-3.641-1.631-3.641-3.639C18.796,21.462,20.425,19.833,22.437,19.833z M46.322,38.182H17.484l2.33-4.662l2.624,3.354
		l8.005-9.903l4.522,5.604l5.973-11l5.385,11.947V38.182z"/>
	<path fill="#A7A7A7" d="M55.915,4.929H17.561c-2.32,0-4.195,3.164-4.195,3.164h3.089c0,0,0.493-0.073,1.105-0.073h38.354
		c0.617,0,1.119,0.497,1.119,1.105v29.007c0,0.608-0.479,1.103-0.479,1.103v3.091c0,0,3.562-1.881,3.562-4.193V9.124
		C60.118,6.808,58.238,4.929,55.915,4.929z"/>
</g>
</svg>
