<?xml version="1.0" encoding="utf-8"?>
<!-- Generator: Adobe Illustrator 16.0.4, SVG Export Plug-In . SVG Version: 6.00 Build 0)  -->
<!DOCTYPE svg PUBLIC "-//W3C//DTD SVG 1.1//EN" "http://www.w3.org/Graphics/SVG/1.1/DTD/svg11.dtd">
<svg version="1.1" id="Layer_1" xmlns="http://www.w3.org/2000/svg" xmlns:xlink="http://www.w3.org/1999/xlink" x="0px" y="0px"
	 width="68.354px" height="51.926px" viewBox="0 0 68.354 51.926" enable-background="new 0 0 68.354 51.926" xml:space="preserve">
<g>
	<g>
		<g>
			<rect x="0.376" y="-0.037" fill="none" width="67.978" height="51.963"/>
		</g>
	</g>
</g>
<g>
	<path fill="#A7A7A7" d="M44.038,0.706h-19.74c-1.938,0-3.539,1.616-3.539,3.524v43.449c0,1.926,1.619,3.541,3.539,3.541h19.755
		c1.924,0,3.541-1.59,3.541-3.541V4.245C47.575,2.306,45.991,0.706,44.038,0.706z M30.544,3.535h7.264
		c0.27,0,0.486,0.214,0.479,0.481c0,0.268-0.209,0.474-0.479,0.474h-7.264c-0.252,0-0.474-0.206-0.474-0.474
		C30.071,3.749,30.279,3.535,30.544,3.535z M34.178,49.069c-1.253,0-2.261-1.004-2.261-2.256c0-1.25,1.008-2.258,2.261-2.258
		c1.25,0,2.258,1.008,2.256,2.258C36.435,48.065,35.429,49.069,34.178,49.069z M46.091,42.323H22.26V7.495h23.832V42.323z"/>
	<rect x="24.405" y="10.158" fill="#A7A7A7" width="14.483" height="3.258"/>
	<rect x="40.693" y="10.158" fill="#A7A7A7" width="3.254" height="3.258"/>
	<rect x="24.405" y="15.329" fill="#A7A7A7" width="19.542" height="10.56"/>
	<rect x="24.405" y="28.644" fill="#A7A7A7" width="8.585" height="10.869"/>
	<rect x="35.366" y="28.644" fill="#A7A7A7" width="8.58" height="10.869"/>
</g>
</svg>
