<?xml version="1.0" encoding="utf-8"?>
<!-- Generator: Adobe Illustrator 16.0.4, SVG Export Plug-In . SVG Version: 6.00 Build 0)  -->
<!DOCTYPE svg PUBLIC "-//W3C//DTD SVG 1.1//EN" "http://www.w3.org/Graphics/SVG/1.1/DTD/svg11.dtd">
<svg version="1.1" id="Layer_1" xmlns="http://www.w3.org/2000/svg" xmlns:xlink="http://www.w3.org/1999/xlink" x="0px" y="0px"
	 width="68.354px" height="51.926px" viewBox="0 0 68.354 51.926" enable-background="new 0 0 68.354 51.926" xml:space="preserve">
<g>
	<g>
		<g>
			<rect x="0.376" y="-0.037" fill="none" width="67.978" height="51.963"/>
		</g>
	</g>
</g>
<g>
	<g>
		<rect x="42.007" y="8.19" fill="#A7A7A7" width="1.494" height="1.494"/>
		<rect x="45.572" y="8.19" fill="#A7A7A7" width="1.492" height="1.494"/>
		<rect x="49.132" y="8.19" fill="#A7A7A7" width="1.492" height="1.494"/>
		<rect x="52.693" y="8.19" fill="#A7A7A7" width="1.494" height="1.494"/>
		<rect x="56.255" y="8.19" fill="#A7A7A7" width="1.494" height="1.494"/>
		<rect x="59.818" y="8.19" fill="#A7A7A7" width="1.494" height="1.494"/>
		<rect x="52.693" y="21.174" fill="#A7A7A7" width="1.494" height="1.493"/>
		<rect x="56.255" y="21.174" fill="#A7A7A7" width="1.494" height="1.493"/>
		<rect x="59.818" y="21.174" fill="#A7A7A7" width="1.494" height="1.493"/>
		<path fill="#A7A7A7" d="M50.316,17.82v-4.822l3.752,2.412L50.316,17.82z"/>
	</g>
	<rect x="8.004" y="13.271" fill="#A7A7A7" width="3.145" height="3.144"/>
	<rect x="8.004" y="19.208" fill="#A7A7A7" width="7.506" height="1.966"/>
	<rect x="8.004" y="23.966" fill="#A7A7A7" width="8.728" height="1.965"/>
	<rect x="8.004" y="28.723" fill="#A7A7A7" width="8.728" height="1.967"/>
	<path fill="#A7A7A7" d="M48.331,47.356H21.368c-1.627,0-2.95-1.322-2.95-2.947V24.02c0-1.626,1.322-2.95,2.95-2.95h26.963
		c1.629,0,2.953,1.324,2.953,2.95v20.39C51.284,46.033,49.958,47.356,48.331,47.356z M21.368,23.243
		c-0.429,0-0.777,0.348-0.777,0.776v20.39c0,0.426,0.348,0.775,0.777,0.775h26.963c0.43,0,0.779-0.35,0.779-0.775V24.02
		c0-0.429-0.35-0.776-0.779-0.776H21.368z"/>
	<path fill="#A7A7A7" d="M28.401,27.94c1.414,0,2.559,1.145,2.559,2.559c0,1.413-1.145,2.559-2.559,2.559
		c-1.413,0-2.559-1.146-2.559-2.559C25.843,29.085,26.989,27.94,28.401,27.94z M45.191,40.839H24.92l1.637-3.278l1.844,2.357
		l5.629-6.962l3.174,3.939l4.199-7.729l3.787,8.394V40.839z"/>
	<path fill="#A7A7A7" d="M16.731,34.992H6.653c-0.528,0-0.957-0.492-0.957-1.096v-21.69c0-0.604,0.429-1.096,0.957-1.096h15.5
		c0.527,0,0.957,0.491,0.957,1.096v7.002h2.174c0-3.877,0-7.002,0-7.002c0-1.801-1.404-3.269-3.13-3.269H6.653
		c-1.726,0-3.128,1.468-3.128,3.269v21.69c0,1.801,1.403,3.269,3.128,3.269H16.73L16.731,34.992L16.731,34.992z"/>
	<path fill="#A7A7A7" d="M61.724,4.569h-19.93c-1.711,0-3.102,1.393-3.102,3.104v11.534h2.172V7.672c0-0.513,0.418-0.931,0.93-0.931
		h19.93c0.516,0,0.934,0.418,0.934,0.931v15.62c0,0.514-0.418,0.933-0.932,0.933h-9.119v2.171h9.119
		c0.828,0,1.609-0.322,2.193-0.907c0.59-0.588,0.91-1.368,0.91-2.196V7.672C64.829,5.961,63.437,4.569,61.724,4.569z"/>
</g>
</svg>
