<?xml version="1.0" encoding="utf-8"?>
<!-- Generator: Adobe Illustrator 16.0.0, SVG Export Plug-In . SVG Version: 6.00 Build 0)  -->
<!DOCTYPE svg PUBLIC "-//W3C//DTD SVG 1.1//EN" "http://www.w3.org/Graphics/SVG/1.1/DTD/svg11.dtd">
<svg version="1.1" id="Layer_1" xmlns="http://www.w3.org/2000/svg" xmlns:xlink="http://www.w3.org/1999/xlink" x="0px" y="0px"
	 width="110.5px" height="115.779px" viewBox="-139.198 -31.22 110.5 115.779"
	 enable-background="new -139.198 -31.22 110.5 115.779" xml:space="preserve">
<g>
	
		<linearGradient id="SVGID_1_" gradientUnits="userSpaceOnUse" x1="-106.4783" y1="734.9045" x2="-30.0798" y2="734.9045" gradientTransform="matrix(1 0 0 1 -16.7197 -708.332)">
		<stop  offset="0" style="stop-color:#E6E6E6"/>
		<stop  offset="0.5398" style="stop-color:#FFFFFF"/>
		<stop  offset="1" style="stop-color:#C8C8C8"/>
	</linearGradient>
	<path fill="url(#SVGID_1_)" d="M-84.999,64.773c-21.062,0-38.199-17.137-38.199-38.201c0-21.062,17.138-38.198,38.199-38.198
		c21.062,0,38.199,17.135,38.199,38.198C-46.8,47.636-63.935,64.773-84.999,64.773z M-84.999-10.126
		c-20.234,0-36.699,16.463-36.699,36.698c0,20.236,16.465,36.701,36.699,36.701c20.236,0,36.699-16.465,36.699-36.701
		C-48.3,6.337-64.761-10.126-84.999-10.126z M-84.999,61.431c-19.221,0-34.856-15.637-34.856-34.858
		c0-19.22,15.637-34.856,34.856-34.856c19.223,0,34.857,15.638,34.857,34.856C-50.14,45.794-65.777,61.431-84.999,61.431z
		 M-84.999-6.785c-18.394,0-33.356,14.964-33.356,33.356c0,18.393,14.964,33.358,33.356,33.358
		c18.396,0,33.357-14.965,33.357-33.358C-51.641,8.178-66.604-6.785-84.999-6.785z"/>
	<linearGradient id="SVGID_2_" gradientUnits="userSpaceOnUse" x1="-122.448" y1="26.5735" x2="-47.5496" y2="26.5735">
		<stop  offset="0" style="stop-color:#FFFFFF"/>
		<stop  offset="1" style="stop-color:#C8C8C8"/>
	</linearGradient>
	<path fill="url(#SVGID_2_)" d="M-84.999-10.876c-20.684,0-37.449,16.767-37.449,37.448c0,20.683,16.768,37.451,37.449,37.451
		c20.685,0,37.449-16.768,37.449-37.451C-47.55,5.889-64.315-10.876-84.999-10.876z M-84.999,60.681
		c-18.838,0-34.106-15.271-34.106-34.108c0-18.837,15.271-34.106,34.106-34.106s34.107,15.271,34.107,34.106
		C-50.89,45.409-66.161,60.681-84.999,60.681z"/>
</g>
<line fill="none" x1="-84.999" y1="40.62" x2="-84.999" y2="38.417"/>
<g>
	<g>
		
			<linearGradient id="SVGID_3_" gradientUnits="userSpaceOnUse" x1="-105.9866" y1="719.6907" x2="-89.5222" y2="719.6907" gradientTransform="matrix(1 0 0 1 -16.7197 -708.332)">
			<stop  offset="0" style="stop-color:#E6E6E6"/>
			<stop  offset="0.5398" style="stop-color:#FFFFFF"/>
			<stop  offset="1" style="stop-color:#C8C8C8"/>
		</linearGradient>
		<path fill="url(#SVGID_3_)" d="M-116.189,18.781c-0.063,0-0.134-0.006-0.205-0.021c-0.396-0.073-0.785-0.224-1.162-0.445
			c-0.233-0.139-0.521-0.416-0.563-0.955c-0.02-0.211-0.029-0.427-0.031-0.642l-0.039-5.998c-0.001-0.103-0.012-0.205-0.031-0.305
			c-0.013-0.067-0.043-0.144-0.177-0.215l-0.544-0.278c-0.292-0.147-0.586-0.297-0.872-0.456c-0.513-0.283-1.021-0.576-1.517-0.892
			c-0.483-0.31-0.883-0.729-1.183-1.246c-0.235-0.408-0.213-0.765-0.153-0.991c0.125-0.48,0.545-0.824,1.068-0.87
			c0.456-0.041,0.9,0.045,1.271,0.125c0.393,0.086,0.774,0.237,1.244,0.49c0.604,0.325,1.201,0.656,1.799,0.986l0.582,0.319
			l-0.116,0.507l0.237-0.439l0.377,0.444l-0.235-0.439l5.905-3.201c0.221-0.12,0.561-0.281,0.966-0.315
			c0.528-0.046,1.001,0.136,1.423,0.531c0.072,0.069,0.145,0.146,0.211,0.223c0.395,0.445,0.379,0.979-0.041,1.395
			c-0.164,0.161-0.336,0.312-0.508,0.461l-2.85,2.508c-0.262,0.229-0.483,0.506-0.717,0.799l2.729,1.684l0.72-0.505
			c0.337-0.237,0.674-0.354,1.03-0.354c0.484,0.019,0.854,0.202,1.135,0.537c0.262,0.317,0.191,0.684,0.166,0.821
			c-0.027,0.153-0.086,0.312-0.169,0.456c-0.716,1.186-1.431,2.361-2.144,3.538c-0.093,0.157-0.145,0.245-0.203,0.332
			c-0.229,0.339-0.51,0.41-0.705,0.41c-0.129,0-0.262-0.03-0.403-0.095c-0.208-0.093-0.39-0.175-0.563-0.271
			c-0.394-0.224-0.596-0.607-0.56-1.057c0.032-0.39,0.069-0.776,0.108-1.164l-2.934-1.414c-0.054,0.085-0.104,0.18-0.152,0.28
			c-0.154,0.337-0.244,0.708-0.338,1.104l-0.183,0.765c-0.224,0.934-0.446,1.865-0.673,2.796c-0.035,0.15-0.088,0.303-0.146,0.448
			C-115.493,18.558-115.802,18.781-116.189,18.781z M-116.212,17.785l0.021,0.496v-0.5
			C-116.196,17.781-116.204,17.783-116.212,17.785z M-121.353,6.459c-0.054,0-0.104,0.002-0.157,0.006
			c-0.096,0.009-0.17,0.06-0.188,0.127c-0.008,0.032-0.026,0.102,0.053,0.237c0.219,0.378,0.506,0.682,0.854,0.902
			c0.479,0.304,0.969,0.587,1.463,0.859c0.275,0.154,0.559,0.296,0.838,0.438l0.562,0.288c0.377,0.202,0.615,0.517,0.689,0.908
			c0.031,0.157,0.049,0.323,0.05,0.487l0.039,5.996c0.002,0.188,0.012,0.377,0.026,0.563c0.012,0.142,0.055,0.166,0.078,0.179
			c0.26,0.154,0.527,0.261,0.793,0.314c0.043-0.103,0.072-0.189,0.092-0.277c0.229-0.935,0.451-1.864,0.674-2.796l0.184-0.764
			c0.102-0.425,0.206-0.864,0.405-1.293c0.151-0.325,0.331-0.596,0.547-0.826l0.251-0.269l3.777,1.818
			c0.355,0.17,0.473,0.378,0.43,0.766c-0.047,0.445-0.09,0.877-0.125,1.311c-0.005,0.062,0.005,0.075,0.052,0.103
			c0.128,0.07,0.265,0.133,0.401,0.194c0.029-0.048,0.056-0.093,0.081-0.136c0.763-1.259,1.477-2.434,2.187-3.61
			c0.02-0.034,0.038-0.084,0.045-0.129c-0.048-0.115-0.154-0.169-0.293-0.176h-0.002c-0.168,0-0.312,0.055-0.478,0.17l-1.048,0.737
			l-0.229,0.027c-0.112,0-0.225-0.032-0.329-0.098l-3.879-2.435l0.629-0.787c0.276-0.349,0.549-0.69,0.893-0.993l2.852-2.51
			c0.158-0.138,0.314-0.273,0.465-0.421c-0.056-0.072-0.104-0.125-0.154-0.174c-0.193-0.183-0.381-0.269-0.586-0.269
			c-0.235,0.018-0.414,0.079-0.642,0.202l-5.909,3.203c-0.348,0.188-0.736,0.187-1.091-0.005l-0.709-0.393
			c-0.599-0.329-1.192-0.658-1.792-0.982c-0.383-0.207-0.688-0.328-0.982-0.394C-120.802,6.514-121.085,6.459-121.353,6.459z"/>
	</g>
	<g>
		
			<linearGradient id="SVGID_4_" gradientUnits="userSpaceOnUse" x1="-96.2605" y1="752.5178" x2="-92.7771" y2="752.5178" gradientTransform="matrix(1 0 0 1 -16.7197 -708.332)">
			<stop  offset="0" style="stop-color:#E6E6E6"/>
			<stop  offset="0.5398" style="stop-color:#FFFFFF"/>
			<stop  offset="1" style="stop-color:#C8C8C8"/>
		</linearGradient>
		<path fill="url(#SVGID_4_)" d="M-110.761,52.572h-0.003c-0.783,0-1.312-0.514-1.312-1.275v-4.961h-0.028
			c-0.103,0-0.409,0-0.64-0.23c-0.213-0.215-0.236-0.506-0.235-0.705c0.009-1.664,0.009-3.328,0.009-4.994l0.001-2.707
			c0.003-1.238,0.731-1.688,1.345-1.844c1.078-0.27,2.127,0.543,2.127,1.643l0.002,13.811
			C-109.499,52.097-109.969,52.572-110.761,52.572z"/>
		<path fill="#777266" d="M-109.999,44.378c0,2.311,0,4.617,0,6.926c0,0.518-0.252,0.77-0.765,0.77
			c-0.506,0.002-0.813-0.291-0.813-0.779c-0.002-1.674,0-3.35-0.002-5.021c0-0.441-0.002-0.465-0.457-0.438
			c-0.336,0.018-0.446-0.076-0.444-0.434c0.015-2.564,0.006-5.135,0.01-7.703c0.002-0.764,0.318-1.191,0.97-1.357
			c0.771-0.197,1.504,0.359,1.504,1.156C-109.997,39.788-109.999,42.083-109.999,44.378z"/>
	</g>
	<g>
		
			<linearGradient id="SVGID_5_" gradientUnits="userSpaceOnUse" x1="-102.0803" y1="752.5579" x2="-97.2546" y2="752.5579" gradientTransform="matrix(1 0 0 1 -16.7197 -708.332)">
			<stop  offset="0" style="stop-color:#E6E6E6"/>
			<stop  offset="0.5398" style="stop-color:#FFFFFF"/>
			<stop  offset="1" style="stop-color:#C8C8C8"/>
		</linearGradient>
		<path fill="url(#SVGID_5_)" d="M-116.374,52.646c-0.209,0-0.416-0.053-0.607-0.154c-0.312-0.16-0.684-0.494-0.682-1.166
			c0.004-1.037,0.004-2.074,0.002-3.111v-2.238c-0.002-1.004-0.004-2.004,0.006-3.008c0-0.092-0.008-0.121-0.008-0.123
			c-0.707-0.109-1.137-0.682-1.137-1.441V40.88c-0.001-1.398-0.002-2.801,0.01-4.201c0.002-0.275,0.178-0.732,0.549-0.838
			l0.231-0.033c0.188,0,0.362,0.07,0.489,0.197c0.023,0.025,0.047,0.053,0.066,0.08c0.11-0.121,0.27-0.23,0.457-0.262
			c0.293-0.004,0.457,0.111,0.582,0.248c0.145-0.139,0.364-0.258,0.573-0.258h0.144l0.146,0.08c0.077,0.051,0.155,0.121,0.223,0.205
			c0.154-0.209,0.416-0.281,0.611-0.281l0.202,0.027c0.284,0.09,0.474,0.369,0.517,0.604c0.031,0.15,0.025,0.303,0.021,0.424
			l-0.003,0.107v4.381c0,0.803-0.366,1.311-1.088,1.51c0.004,2.844,0.003,5.617,0,8.395
			C-115.069,52.038-115.641,52.646-116.374,52.646z M-117.8,40.62c0,0.086,0,0.172,0,0.258V41.4c0,0.438,0.26,0.496,0.346,0.516
			c0.809,0.188,0.801,0.846,0.799,1.062c-0.01,0.998-0.008,1.996-0.006,2.996v2.238c0.002,1.039,0.002,2.078-0.002,3.117
			c0,0.188,0.06,0.23,0.145,0.275c0.206,0.105,0.447-0.016,0.45-0.344c0.003-2.811,0.004-5.615-0.005-8.422
			c0-0.186-0.006-0.75,0.705-0.93c0.291-0.07,0.388-0.16,0.388-0.555v-0.736c-0.282,0.098-0.669,0.051-0.886-0.137
			c-0.139,0.123-0.319,0.186-0.543,0.186c-0.17-0.01-0.371-0.045-0.526-0.166c-0.161,0.129-0.36,0.164-0.511,0.168h-0.002
			C-117.585,40.669-117.7,40.654-117.8,40.62z"/>
		<path fill="#777266" d="M-117.161,47.079c0-1.371-0.006-2.738,0.006-4.109c0.004-0.312-0.062-0.486-0.409-0.566
			c-0.485-0.109-0.733-0.498-0.733-1.002c-0.002-1.572-0.005-3.146,0.008-4.723c0.002-0.127,0.097-0.336,0.187-0.359
			c0.259-0.068,0.313,0.123,0.312,0.348c-0.002,1.021,0,2.037,0,3.057c0,0.232-0.026,0.457,0.332,0.447
			c0.285-0.008,0.303-0.166,0.301-0.377c0-1.008,0-2.016,0-3.021c0-0.092-0.023-0.197,0.017-0.268
			c0.045-0.084,0.144-0.176,0.229-0.189c0.058-0.008,0.162,0.105,0.193,0.184c0.036,0.088,0.016,0.197,0.016,0.301
			c0.002,0.996,0,1.994,0.002,2.988c0,0.182-0.021,0.365,0.258,0.383c0.254,0.012,0.332-0.08,0.328-0.332
			c-0.01-1.029-0.004-2.062-0.002-3.09c0-0.104-0.019-0.229,0.033-0.299c0.06-0.072,0.227-0.16,0.271-0.133
			c0.091,0.061,0.186,0.195,0.188,0.303c0.015,0.977,0.008,1.945,0.01,2.922c0,0.104,0.005,0.203,0,0.307
			c-0.012,0.227,0.08,0.324,0.318,0.324c0.24,0,0.316-0.105,0.315-0.328c-0.005-1.041-0.002-2.082,0.002-3.125
			c0-0.107,0.001-0.24,0.058-0.322c0.043-0.061,0.188-0.096,0.268-0.072c0.074,0.023,0.152,0.135,0.169,0.217
			c0.028,0.143,0.01,0.293,0.01,0.438c0,1.461,0,2.92,0,4.381c0,0.578-0.21,0.9-0.767,1.039c-0.271,0.068-0.328,0.189-0.324,0.441
			c0.007,2.809,0.006,5.615,0.003,8.424c0,0.668-0.621,1.08-1.183,0.787c-0.289-0.15-0.414-0.396-0.412-0.723
			C-117.157,49.909-117.161,48.495-117.161,47.079z"/>
	</g>
	<g>
		<g>
			
				<linearGradient id="SVGID_6_" gradientUnits="userSpaceOnUse" x1="-74.3938" y1="767.2444" x2="-59.7166" y2="767.2444" gradientTransform="matrix(1 0 0 1 -16.7197 -708.332)">
				<stop  offset="0" style="stop-color:#E6E6E6"/>
				<stop  offset="0.5398" style="stop-color:#FFFFFF"/>
				<stop  offset="1" style="stop-color:#C8C8C8"/>
			</linearGradient>
			<path fill="url(#SVGID_6_)" d="M-79.525,66.282h-0.373l-0.052-0.053h-0.021l-0.874-0.002l-7.314,0.008l-0.096-0.023
				c-0.675-0.229-1.021-0.783-0.931-1.486c0.081-0.605,0.683-1.119,1.313-1.119c0.33,0.008,0.631,0.01,0.932,0.01l1.585-0.008
				l0.229,0.002c-0.01-1.346-0.006-2.658,0.002-3.973c0-0.066-0.008-0.105-0.076-0.189c-1.092-1.309-2.182-2.623-3.271-3.938
				l-2.441-2.953c-0.084-0.1-0.301-0.361-0.147-0.686c0.058-0.121,0.207-0.324,0.577-0.324l4.386-0.004l9.661,0.004l-0.113,0.594
				c-0.043,0.223-0.171,0.365-0.246,0.449c-1.893,2.336-3.755,4.637-5.617,6.934l-0.041,0.092c0.004,1.332,0.008,2.664-0.002,3.994
				l0.543-0.002c0.623,0,1.246,0.006,1.867,0.012l0.41,0.004c0.559,0.002,0.996,0.289,1.2,0.787
				c0.211,0.506,0.125,1.023-0.243,1.463c-0.171,0.205-0.384,0.27-0.51,0.311l-0.122,0.076L-79.525,66.282z M-79.841,65.224
				c0.094,0,0.176,0.018,0.245,0.039c0.036-0.012,0.071-0.021,0.101-0.031c0.199-0.184,0.193-0.305,0.137-0.441
				c-0.037-0.09-0.086-0.17-0.283-0.17l-0.412-0.004c-0.619-0.006-1.238-0.01-1.857-0.01l-0.734,0.002c-0.121,0-0.398,0-0.604-0.207
				c-0.188-0.189-0.207-0.432-0.207-0.596c0.014-1.395,0.008-2.791,0.004-4.188c-0.004-0.27,0.084-0.508,0.268-0.729
				c0.352-0.434,0.702-0.865,1.055-1.299c-0.185,0.078-0.388,0.123-0.603,0.125c-0.433,0-0.82-0.164-1.112-0.459
				c-0.292-0.297-0.449-0.689-0.445-1.109c0.008-0.873,0.668-1.535,1.535-1.535c0.428,0,0.821,0.162,1.111,0.453
				c0.289,0.289,0.447,0.684,0.445,1.104c0,0.105-0.012,0.209-0.029,0.307c1.062-1.309,2.122-2.619,3.184-3.932l-8.049-0.002
				l-3.525,0.004l1.922,2.324c1.092,1.312,2.182,2.629,3.275,3.939c0.211,0.26,0.307,0.521,0.303,0.834
				c-0.008,1.385-0.01,2.771,0.002,4.158c0.002,0.105,0.004,0.389-0.205,0.6c-0.207,0.207-0.485,0.207-0.577,0.207l-0.45-0.002
				l-1.585,0.008c-0.31,0-0.617-0.002-0.927-0.01l0,0c-0.152,0-0.312,0.156-0.326,0.252c-0.025,0.201,0.021,0.307,0.189,0.379
				l7.158-0.008l0.883,0.002L-79.841,65.224z M-82.759,55.611c-0.312,0-0.531,0.227-0.535,0.547
				c-0.002,0.15,0.055,0.291,0.157,0.396c0.103,0.104,0.239,0.162,0.386,0.162c0.314-0.004,0.549-0.24,0.551-0.549
				c0-0.158-0.053-0.295-0.153-0.396C-82.456,55.669-82.599,55.611-82.759,55.611z"/>
			<path fill="#777266" d="M-79.525,65.782c-0.056,0-0.107,0-0.161,0c-0.081-0.084-0.186-0.053-0.279-0.053
				c-0.527-0.004-1.06-0.002-1.589-0.002c-2.178,0.002-4.356,0.006-6.539,0.008c-0.454-0.15-0.655-0.48-0.595-0.943
				c0.047-0.354,0.434-0.695,0.836-0.688c0.979,0.025,1.955-0.006,2.934,0.004c0.237,0.004,0.301-0.064,0.299-0.301
				c-0.013-1.391-0.01-2.779-0.002-4.17c0.002-0.203-0.062-0.355-0.188-0.508c-1.266-1.518-2.521-3.033-3.781-4.551
				c-0.646-0.781-1.289-1.562-1.937-2.346c-0.091-0.107-0.157-0.195,0.065-0.189c1.455-0.002,2.909-0.004,4.363-0.004
				c3.02,0,6.036,0.002,9.057,0.004c-0.021,0.109-0.108,0.184-0.177,0.266c-1.86,2.299-3.722,4.6-5.586,6.896
				c-0.103,0.123-0.153,0.244-0.151,0.406c0.004,1.4,0.008,2.801-0.004,4.195c-0.002,0.244,0.074,0.301,0.308,0.297
				c1.004-0.008,2.009,0.004,3.013,0.012c0.348,0.002,0.607,0.154,0.742,0.48c0.143,0.342,0.081,0.658-0.164,0.951
				C-79.189,65.7-79.378,65.691-79.525,65.782z M-82.759,55.111c-0.586,0-1.029,0.447-1.035,1.043
				c-0.008,0.592,0.469,1.066,1.053,1.062c0.582-0.006,1.039-0.467,1.041-1.047C-81.7,55.568-82.157,55.111-82.759,55.111z"/>
			<path opacity="0.6" fill="#C1BAAC" enable-background="new    " d="M-88.591,54.579c0.42,0.504,0.838,1.008,1.258,1.514
				c2.448-2.023,5.955-3.344,9.896-3.508c0.073-0.094,0.147-0.184,0.224-0.273c0.065-0.082,0.153-0.154,0.176-0.268
				c-3.021-0.002-6.037-0.004-9.057-0.004c-1.453,0-2.908,0.002-4.363,0.004c-0.225-0.006-0.156,0.082-0.065,0.191
				C-89.88,53.017-89.237,53.798-88.591,54.579z"/>
		</g>
	</g>
	<g>
		<g>
			
				<linearGradient id="SVGID_7_" gradientUnits="userSpaceOnUse" x1="-48.7214" y1="752.551" x2="-31.3645" y2="752.551" gradientTransform="matrix(1 0 0 1 -16.7197 -708.332)">
				<stop  offset="0" style="stop-color:#E6E6E6"/>
				<stop  offset="0.5398" style="stop-color:#FFFFFF"/>
				<stop  offset="1" style="stop-color:#C8C8C8"/>
			</linearGradient>
			<path fill="url(#SVGID_7_)" d="M-51.825,52.958h-9.902l0.02-0.518V42.14c-0.131,0.197-0.262,0.395-0.392,0.592
				c-0.349,0.529-0.729,0.285-0.88,0.193c-0.704-0.438-1.405-0.867-2.117-1.291c-0.068-0.039-0.273-0.162-0.331-0.418
				c-0.056-0.254,0.073-0.443,0.13-0.523c0.75-1.088,1.365-2.006,1.934-2.961c0.388-0.646,0.951-1.139,1.686-1.465
				c0.363-0.158,0.729-0.24,1.081-0.32c0.167-0.039,0.334-0.076,0.499-0.123c0.172-0.047,0.344-0.088,0.518-0.129
				c0.232-0.059,0.465-0.111,0.693-0.188l0.159-0.025h0.298l0.207,0.264c0.143,0.264,0.332,0.488,0.562,0.674
				c0.416,0.328,0.838,0.41,1.312,0.258c0.42-0.137,0.753-0.438,1.045-0.943l0.145-0.25h0.459l0.113,0.061l0.588,0.143
				c0.562,0.137,1.123,0.273,1.682,0.428c0.896,0.248,1.58,0.734,2.029,1.449c0.783,1.244,1.442,2.252,2.076,3.172
				c0.049,0.07,0.168,0.25,0.113,0.49l-0.048,0.211l-0.255,0.18c-0.725,0.436-1.447,0.879-2.174,1.324l-0.118,0.074l-0.226,0.031
				c-0.143,0-0.346-0.051-0.508-0.293c-0.137-0.207-0.271-0.412-0.408-0.615L-51.825,52.958z M-60.708,51.958h7.881l-0.004-11.244
				c-0.006-0.074-0.02-0.242,0.084-0.428l0.396-0.713l1.053,1.562c0.17,0.252,0.34,0.504,0.508,0.756
				c0.508-0.311,1.018-0.623,1.524-0.932c-0.571-0.842-1.174-1.764-1.869-2.871c-0.313-0.496-0.802-0.84-1.45-1.02
				c-0.547-0.15-1.1-0.285-1.649-0.418l-0.408-0.102c-0.381,0.539-0.84,0.893-1.397,1.07c-0.789,0.256-1.562,0.107-2.237-0.424
				c-0.237-0.188-0.444-0.404-0.617-0.648c-0.138,0.037-0.297,0.076-0.455,0.113c-0.16,0.037-0.319,0.074-0.478,0.119
				c-0.183,0.051-0.364,0.094-0.549,0.135c-0.322,0.072-0.625,0.145-0.897,0.264c-0.545,0.242-0.947,0.59-1.229,1.061
				c-0.531,0.891-1.097,1.744-1.767,2.721c0.513,0.309,1.021,0.619,1.524,0.932c0.205-0.309,0.41-0.613,0.615-0.92l0.711-1.061
				l0.521,0.248l0.194,0.176l-0.006,0.346L-60.708,51.958z"/>
			<path fill="#777266" d="M-52.325,52.458c-2.961,0-5.924,0-8.885,0c0-0.027,0.002-0.055,0.002-0.08c0-3.91,0-7.82-0.002-11.729
				c0-0.035,0.021-0.074-0.021-0.111c-0.03,0.047-0.062,0.088-0.092,0.131c-0.396,0.596-0.801,1.188-1.194,1.789
				c-0.062,0.094-0.104,0.102-0.198,0.043c-0.707-0.438-1.41-0.871-2.126-1.295c-0.132-0.078-0.116-0.125-0.044-0.232
				c0.676-0.979,1.344-1.965,1.951-2.984c0.352-0.586,0.848-0.99,1.457-1.264c0.482-0.213,1.009-0.275,1.514-0.42
				c0.409-0.113,0.829-0.188,1.233-0.322c0.021,0,0.042,0,0.063,0c0.174,0.322,0.407,0.602,0.694,0.826
				c0.531,0.42,1.127,0.553,1.774,0.344c0.604-0.197,1.016-0.631,1.324-1.17c0.021,0,0.045,0,0.064,0
				c0.014,0.01,0.021,0.023,0.034,0.025c0.771,0.191,1.552,0.371,2.317,0.582c0.726,0.201,1.336,0.592,1.741,1.236
				c0.677,1.074,1.365,2.141,2.087,3.188c0.051,0.074,0.064,0.109-0.029,0.166c-0.729,0.439-1.455,0.885-2.182,1.33
				c-0.082,0.053-0.121,0.041-0.176-0.041c-0.264-0.4-0.533-0.801-0.803-1.199c-0.163-0.242-0.325-0.486-0.495-0.738
				c-0.039,0.068-0.021,0.129-0.021,0.186c0,3.232,0,6.471,0,9.703C-52.329,51.097-52.327,51.777-52.325,52.458z"/>
		</g>
	</g>
	<g>
		<g>
			
				<linearGradient id="SVGID_8_" gradientUnits="userSpaceOnUse" x1="-78.8689" y1="700.7971" x2="-57.6814" y2="700.7971" gradientTransform="matrix(1 0 0 1 -16.7197 -708.332)">
				<stop  offset="0" style="stop-color:#E6E6E6"/>
				<stop  offset="0.5398" style="stop-color:#FFFFFF"/>
				<stop  offset="1" style="stop-color:#C8C8C8"/>
			</linearGradient>
			<path fill="url(#SVGID_8_)" d="M-89.989-1.318h-0.037c-0.868-0.02-1.557-0.692-1.614-1.573c-0.166,0.008-0.333-0.015-0.496-0.062
				C-92.85-3.16-93.325-3.76-93.343-4.48C-93.354-5-93.354-5.524-93.349-6.042c-0.043,0-0.086,0-0.129,0l-0.541-0.003
				c-0.647-0.004-1.104-0.269-1.392-0.807l-0.178-0.033v-1.279l0.164-0.041c0.266-0.517,0.727-0.805,1.314-0.819
				c0.255-0.006,0.508-0.006,0.759-0.005c-0.003-0.486-0.003-0.973,0.002-1.457c0.011-0.966,0.728-1.694,1.668-1.694l0.042,0.001
				c0.071-0.899,0.755-1.566,1.639-1.573c0.957,0,1.67,0.737,1.674,1.717c0.004,1.004,0.008,2.009,0,3.015l3.189-0.004l3.184,0.004
				c-0.006-1.015-0.006-2.02-0.002-3.022c0.006-0.974,0.721-1.707,1.66-1.707l0.125,0.004c0.795,0.055,1.443,0.691,1.51,1.481
				c0.002,0.025,0.004,0.054,0.006,0.08c0.453-0.022,0.912,0.162,1.236,0.491c0.32,0.323,0.494,0.769,0.489,1.252
				c-0.003,0.282-0.003,0.564-0.002,0.846c0,0.189,0.001,0.379,0,0.568c0.093-0.001,0.185-0.001,0.274-0.001l0.662,0.002
				c0.727,0.001,1.209,0.312,1.475,0.951l0.119,0.084l-0.006,1.059l-0.154,0.052c-0.271,0.529-0.729,0.82-1.305,0.836
				c-0.355,0.008-0.711,0.011-1.064,0.005c0.006,0.488,0.004,0.977-0.003,1.465c-0.015,0.961-0.731,1.688-1.674,1.688l-0.05-0.001
				c-0.002,0.021-0.002,0.044-0.004,0.065c-0.072,0.859-0.779,1.508-1.646,1.508c-0.905-0.013-1.632-0.723-1.644-1.583
				c-0.016-1.049-0.014-2.098-0.008-3.146c-2.151,0.006-4.254,0.006-6.373,0c0.006,1.012,0.004,2.014,0,3.016
				C-88.331-2.055-89.046-1.318-89.989-1.318z M-90.644-4.332l-0.001,1.001c-0.001,0.124-0.002,0.239,0.002,0.355
				c0.018,0.372,0.286,0.648,0.641,0.656l0.016,0.5v-0.5c0.39,0,0.66-0.296,0.662-0.72c0.007-1.103,0.007-2.204-0.002-3.307
				c0-0.091-0.002-0.331,0.186-0.52s0.428-0.188,0.52-0.188c2.32,0.008,4.639,0.008,6.955,0c0.123,0.009,0.344,0,0.53,0.188
				c0.188,0.189,0.188,0.436,0.188,0.527c-0.008,1.139-0.012,2.277,0.006,3.418c0.004,0.324,0.287,0.592,0.632,0.597l0,0
				c0.356,0,0.63-0.249,0.658-0.592c0.014-0.15,0.013-0.306,0.013-0.458c0-0.513,0.357-0.64,0.551-0.64h0.114l0.177,0.074
				c0.051,0.022,0.1,0.038,0.147,0.041h0.002c0.444,0,0.715-0.282,0.72-0.7c0.01-0.586,0.01-1.172-0.003-1.758
				c-0.001-0.083-0.004-0.324,0.183-0.513c0.186-0.188,0.424-0.188,0.504-0.188c0.488,0.011,0.912,0.013,1.359,0
				c0.225-0.005,0.354-0.1,0.456-0.323c0.007-0.036,0.017-0.069,0.029-0.101l-0.005-0.124c-0.112-0.348-0.229-0.432-0.588-0.433
				l-0.657-0.002c-0.197,0-0.396,0.001-0.595,0.005c0,0,0,0-0.002,0c-0.226,0-0.388-0.062-0.506-0.183
				c-0.183-0.185-0.18-0.418-0.179-0.494c0.004-0.299,0.004-0.598,0.003-0.896c-0.001-0.286-0.001-0.572,0.002-0.857
				c0.002-0.219-0.066-0.404-0.199-0.538c-0.179-0.181-0.479-0.246-0.675-0.149l-0.104,0.052l-0.188,0.023
				c-0.188,0-0.546-0.127-0.546-0.608c0-0.169,0.001-0.339-0.016-0.508c-0.022-0.299-0.277-0.548-0.578-0.568
				c-0.002,0-0.004,0-0.006,0c-0.446,0-0.711,0.285-0.713,0.709c-0.006,1.104-0.006,2.206,0.004,3.308
				c0,0.082,0.002,0.334-0.187,0.525c-0.188,0.189-0.438,0.189-0.532,0.189l-3.469-0.004l-3.468,0.004
				c-0.108,0.003-0.347,0-0.535-0.19c-0.19-0.191-0.188-0.439-0.188-0.533c0.01-1.098,0.008-2.19,0.002-3.286
				c-0.002-0.425-0.271-0.722-0.657-0.722c-0.39,0.003-0.657,0.301-0.661,0.724v0.309v0.778l-0.6-0.121
				c-0.092-0.02-0.178-0.048-0.262-0.077c-0.043-0.017-0.101-0.036-0.123-0.037c-0.449,0-0.716,0.284-0.72,0.705
				c-0.007,0.593-0.005,1.188,0.001,1.782c0.003,0.2-0.059,0.364-0.177,0.486c-0.119,0.12-0.279,0.182-0.476,0.182
				c-0.4-0.008-0.729-0.009-1.086,0c-0.242,0.007-0.379,0.104-0.477,0.333c-0.006,0.034-0.018,0.064-0.027,0.096l0.012,0.168
				c0.121,0.297,0.242,0.38,0.562,0.382l0.535,0.004c0.143,0,0.286-0.002,0.428-0.008c0.199-0.005,0.404,0.062,0.525,0.185
				c0.184,0.188,0.181,0.429,0.18,0.507c-0.007,0.616-0.011,1.236,0.004,1.854c0.008,0.289,0.184,0.506,0.484,0.593
				c0.154,0.044,0.305,0.022,0.494-0.069L-90.644-4.332z"/>
			<path fill="#777266" d="M-74.905-7.296c-0.062,0.021-0.055,0.084-0.071,0.129c-0.175,0.39-0.474,0.607-0.899,0.618
				c-0.455,0.013-0.908,0.011-1.358,0c-0.147-0.002-0.2,0.025-0.198,0.188c0.012,0.593,0.012,1.184,0.003,1.774
				c-0.01,0.724-0.549,1.231-1.251,1.191c-0.119-0.008-0.232-0.04-0.339-0.092c-0.104-0.052-0.121-0.01-0.121,0.085
				c0,0.178,0.001,0.354-0.015,0.531c-0.053,0.609-0.551,1.06-1.163,1.05c-0.604-0.009-1.117-0.482-1.125-1.09
				c-0.019-1.145-0.013-2.286-0.007-3.43c0.002-0.179-0.047-0.214-0.217-0.213c-2.317,0.008-4.639,0.008-6.957,0
				c-0.162,0-0.205,0.038-0.203,0.203c0.009,1.104,0.009,2.208,0.002,3.312c-0.002,0.715-0.516,1.231-1.188,1.218
				c-0.617-0.014-1.102-0.498-1.128-1.139c-0.007-0.185-0.001-0.366-0.001-0.576c-0.285,0.14-0.562,0.185-0.854,0.101
				c-0.498-0.146-0.832-0.544-0.846-1.062c-0.015-0.624-0.011-1.249-0.004-1.872c0.002-0.149-0.039-0.188-0.188-0.186
				c-0.326,0.014-0.656,0.007-0.983,0.004c-0.522-0.003-0.827-0.209-1.024-0.697c-0.011-0.023-0.016-0.05-0.047-0.057
				c0-0.156,0-0.314,0-0.475c0.06-0.015,0.051-0.071,0.066-0.11c0.172-0.409,0.48-0.628,0.926-0.641
				c0.361-0.009,0.723-0.008,1.083,0c0.128,0.003,0.168-0.031,0.166-0.163c-0.006-0.598-0.008-1.195-0.001-1.793
				c0.008-0.737,0.549-1.245,1.26-1.197c0.153,0.012,0.284,0.09,0.443,0.122c0-0.167-0.002-0.323,0-0.479
				c0.007-0.697,0.494-1.213,1.148-1.219c0.664-0.006,1.166,0.512,1.17,1.22c0.004,1.097,0.006,2.192-0.004,3.291
				c0,0.18,0.045,0.224,0.225,0.223c2.312-0.006,4.625-0.006,6.938,0c0.168,0,0.221-0.03,0.219-0.212
				c-0.01-1.104-0.01-2.207-0.006-3.311c0.004-0.741,0.541-1.255,1.252-1.206c0.543,0.036,1,0.479,1.045,1.023
				c0.017,0.185,0.017,0.366,0.017,0.551c0,0.094,0.011,0.142,0.119,0.085c0.637-0.313,1.604,0.143,1.596,1.144
				c-0.007,0.584,0.003,1.169-0.005,1.754c-0.002,0.143,0.04,0.173,0.176,0.17c0.422-0.009,0.842-0.005,1.264-0.003
				c0.574,0.001,0.882,0.227,1.062,0.772c0.003,0.01,0.021,0.014,0.03,0.021C-74.905-7.587-74.905-7.444-74.905-7.296z"/>
		</g>
	</g>
	<g>
		
			<linearGradient id="SVGID_9_" gradientUnits="userSpaceOnUse" x1="-47.658" y1="717.8206" x2="-33.1619" y2="717.8206" gradientTransform="matrix(1 0 0 1 -16.7197 -708.332)">
			<stop  offset="0" style="stop-color:#E6E6E6"/>
			<stop  offset="0.5398" style="stop-color:#FFFFFF"/>
			<stop  offset="1" style="stop-color:#C8C8C8"/>
		</linearGradient>
		<path fill="url(#SVGID_9_)" d="M-49.882,17.014h-12.926l-0.051-0.104c-0.912-0.322-1.518-1.167-1.518-2.139l-0.002-3.518
			l0.002-7.035c0-1.046,0.744-1.968,1.77-2.192l0.057-0.062l10.537,0.022l0.039,0.458c0.008,0.081,0.014,0.13,0.014,0.179
			c0,0.442,0,0.886,0,1.329c0.002-0.005,0.006-0.009,0.008-0.013c0.082-0.097,0.231-0.211,0.486-0.211
			c0.252,0.01,0.387,0.016,0.557,0.001c0.34,0.01,0.709,0.173,0.709,0.672c-0.004,3.982-0.004,7.966-0.002,11.947
			c-0.002,0.009-0.002,0.015-0.002,0.021L-49.882,17.014z M-57.386,15.15l5.308,0.002c0-0.332,0-0.663,0-0.994
			c-0.114,0.153-0.303,0.239-0.543,0.239l-9.26-0.004c-0.088,0-0.175,0-0.263,0.008c-0.16,0.014-0.25,0.075-0.312,0.219
			c-0.064,0.146-0.053,0.258,0.047,0.387c0.057,0.069,0.138,0.146,0.418,0.146L-57.386,15.15z M-62.265,2.988
			c-0.063,0.016-0.116,0.02-0.147,0.021c-0.547,0.12-0.961,0.632-0.961,1.212v7.034v2.969c0.002-0.002,0.002-0.004,0.004-0.006
			c0.207-0.479,0.615-0.771,1.147-0.812c0.115-0.009,0.228-0.01,0.341-0.01l8.928,0.003C-52.96,9.927-52.96,6.461-52.96,2.991
			l-1.197,0.001l-7.985-0.001C-62.187,2.993-62.228,2.991-62.265,2.988z"/>
		<path fill="#777266" d="M-62.325,2.466c0.011,0,0.021,0,0.027,0c0.045,0.052,0.104,0.023,0.152,0.023
			c2.662,0.001,5.324,0.001,7.986,0.001c0.562,0,1.123-0.002,1.688-0.002c0.004,0.046,0.012,0.092,0.012,0.137
			c0,3.704,0,7.406,0.006,11.109c0,0.139-0.039,0.162-0.168,0.162c-3.086-0.005-6.174-0.004-9.262-0.004
			c-0.1,0-0.199,0.002-0.301,0.01c-0.348,0.026-0.598,0.206-0.73,0.519c-0.14,0.312-0.101,0.617,0.11,0.892
			c0.205,0.268,0.491,0.34,0.812,0.34c3.414-0.002,6.832-0.002,10.248,0.001c0.131,0,0.164-0.029,0.164-0.164
			c-0.006-3.676-0.004-7.354-0.004-11.027c0-0.027,0.004-0.057,0-0.082c-0.02-0.11,0.021-0.152,0.139-0.146
			c0.189,0.01,0.386,0.016,0.576-0.001c0.146-0.012,0.168,0.04,0.168,0.174c-0.004,3.981-0.004,7.967-0.002,11.948
			c0,0.054-0.016,0.108,0.013,0.161c-3.935,0-7.865,0-11.8,0c-0.021-0.046-0.069-0.036-0.106-0.047
			c-0.771-0.229-1.276-0.896-1.276-1.696c0-3.518-0.002-7.034,0-10.552c0-0.817,0.578-1.529,1.375-1.705
			C-62.44,2.503-62.372,2.518-62.325,2.466z"/>
	</g>
	<path fill="#777266" d="M-112.792,9.986c0.025,0.02,0.051,0.035,0.073,0.052c1.116,0.688,2.229,1.374,3.347,2.062
		c0.056,0.033,0.088,0.03,0.14-0.005c0.305-0.218,0.61-0.432,0.919-0.646c0.234-0.165,0.488-0.271,0.783-0.26
		c0.289,0.011,0.525,0.136,0.707,0.354c0.102,0.12,0.088,0.271,0.062,0.406c-0.021,0.104-0.058,0.208-0.11,0.3
		c-0.709,1.178-1.424,2.354-2.138,3.528c-0.062,0.104-0.12,0.209-0.188,0.311c-0.135,0.197-0.271,0.237-0.492,0.142
		c-0.178-0.079-0.354-0.158-0.521-0.253c-0.222-0.125-0.324-0.325-0.305-0.577c0.036-0.438,0.079-0.872,0.125-1.308
		c0.021-0.193,0.025-0.192-0.146-0.275c-1.123-0.541-2.246-1.082-3.369-1.623c-0.025-0.013-0.051-0.022-0.08-0.037
		c-0.192,0.207-0.34,0.44-0.457,0.694c-0.2,0.434-0.299,0.897-0.409,1.358c-0.271,1.133-0.542,2.267-0.817,3.396
		c-0.029,0.129-0.074,0.256-0.125,0.379c-0.095,0.234-0.257,0.331-0.504,0.284c-0.354-0.064-0.688-0.2-0.999-0.385
		c-0.211-0.125-0.301-0.331-0.319-0.564c-0.019-0.199-0.027-0.401-0.029-0.604c-0.016-1.999-0.025-3.997-0.039-5.996
		c-0.001-0.133-0.016-0.269-0.04-0.396c-0.05-0.257-0.207-0.438-0.433-0.561c-0.469-0.247-0.945-0.475-1.407-0.73
		c-0.505-0.277-1.005-0.565-1.49-0.876c-0.425-0.271-0.767-0.639-1.019-1.074c-0.108-0.189-0.16-0.396-0.104-0.612
		c0.071-0.274,0.319-0.473,0.629-0.5c0.383-0.033,0.752,0.036,1.121,0.116c0.396,0.087,0.762,0.252,1.113,0.44
		c0.795,0.432,1.584,0.868,2.376,1.307c0.042,0.021,0.083,0.046,0.124,0.067c0.203,0.109,0.41,0.114,0.615,0.005
		c0.535-0.288,1.066-0.579,1.604-0.867c1.436-0.778,2.869-1.558,4.305-2.334c0.241-0.132,0.491-0.234,0.771-0.259
		c0.409-0.035,0.747,0.124,1.039,0.397c0.062,0.06,0.12,0.123,0.178,0.188c0.218,0.246,0.22,0.478-0.017,0.707
		c-0.209,0.204-0.432,0.393-0.648,0.584c-0.896,0.789-1.791,1.578-2.688,2.366c-0.311,0.271-0.562,0.592-0.816,0.911
		C-112.583,9.725-112.687,9.854-112.792,9.986z"/>
	<path opacity="0.6" fill="#C1BAAC" enable-background="new    " d="M-111.989,5.621c-0.87,0.472-1.74,0.943-2.611,1.416
		c-0.535,0.288-1.066,0.579-1.604,0.867c-0.205,0.109-0.412,0.104-0.615-0.005c-0.041-0.021-0.082-0.048-0.124-0.067
		c-0.792-0.438-1.581-0.875-2.376-1.307c-0.354-0.188-0.719-0.354-1.113-0.44c-0.369-0.08-0.738-0.149-1.121-0.116
		c-0.311,0.027-0.559,0.226-0.629,0.5c-0.059,0.219-0.007,0.423,0.104,0.612c0.252,0.438,0.594,0.805,1.019,1.074
		c0.485,0.311,0.985,0.599,1.489,0.876c0.463,0.258,0.939,0.483,1.408,0.73c0.226,0.12,0.383,0.304,0.433,0.561
		c0.024,0.131,0.039,0.266,0.04,0.396c0.014,1.999,0.023,3.997,0.039,5.996c0.002,0.202,0.013,0.403,0.029,0.604
		c0.021,0.233,0.108,0.439,0.319,0.564c0.085,0.05,0.175,0.086,0.263,0.128C-116.607,13.341-114.786,9.072-111.989,5.621z"/>
</g>
<g opacity="0.6">
	<path fill="#C1BAAC" d="M-78.726-9.296c0.435,0,0.866,0.007,1.295,0.02c0-0.391-0.002-0.781,0.003-1.172
		c0.01-1.001-0.959-1.457-1.596-1.144c-0.109,0.057-0.119,0.009-0.119-0.085c0-0.185,0-0.366-0.018-0.551
		c-0.045-0.545-0.502-0.987-1.043-1.023c-0.711-0.049-1.248,0.465-1.252,1.206c-0.004,0.944-0.002,1.891,0.004,2.836
		C-80.555-9.266-79.646-9.296-78.726-9.296z"/>
	<path fill="#C1BAAC" d="M-94.017-6.546c0.2,0.001,0.399-0.001,0.603-0.003c2.01-0.837,4.233-1.506,6.615-1.974
		c-0.602,0-1.203-0.002-1.807,0c-0.18,0.001-0.225-0.044-0.225-0.224c0.01-1.099,0.008-2.193,0.004-3.291
		c-0.004-0.708-0.506-1.226-1.17-1.22c-0.654,0.006-1.144,0.521-1.148,1.219c-0.002,0.156,0,0.312,0,0.479
		c-0.159-0.032-0.29-0.11-0.443-0.122c-0.711-0.048-1.252,0.46-1.26,1.197c-0.007,0.598-0.005,1.195,0.001,1.794
		c0.002,0.131-0.038,0.166-0.166,0.162c-0.36-0.008-0.722-0.009-1.083,0c-0.443,0.013-0.754,0.229-0.926,0.641
		c-0.018,0.039-0.01,0.098-0.066,0.11c0,0.158,0,0.316,0,0.475c0.031,0.007,0.036,0.031,0.047,0.057
		C-94.844-6.754-94.542-6.549-94.017-6.546z"/>
</g>
<path opacity="0.6" fill="#C1BAAC" enable-background="new    " d="M-117.565,42.402c0.348,0.08,0.413,0.256,0.408,0.568
	c0,0.014,0,0.025,0,0.037c0.734-1.289,1.637-2.453,2.676-3.461c0-0.857,0-1.715,0-2.57c0-0.146,0.02-0.297-0.01-0.438
	c-0.016-0.082-0.096-0.191-0.17-0.217c-0.078-0.021-0.224,0.014-0.267,0.072c-0.057,0.082-0.058,0.215-0.058,0.322
	c-0.006,1.043-0.008,2.084-0.004,3.125c0.003,0.223-0.073,0.328-0.314,0.328c-0.238,0-0.328-0.1-0.318-0.324
	c0.006-0.105,0-0.203,0-0.307c0-0.977,0.006-1.945-0.008-2.924c-0.002-0.104-0.098-0.24-0.188-0.301
	c-0.048-0.029-0.216,0.061-0.271,0.133c-0.053,0.07-0.035,0.195-0.035,0.299c-0.002,1.027-0.008,2.061,0.004,3.09
	c0.002,0.252-0.076,0.344-0.33,0.332c-0.277-0.018-0.258-0.201-0.258-0.385c0-0.992,0-1.99,0-2.986c0-0.104,0.021-0.213-0.017-0.301
	c-0.03-0.078-0.14-0.189-0.194-0.184c-0.086,0.014-0.184,0.105-0.229,0.189c-0.04,0.068-0.016,0.176-0.016,0.268
	c0,1.006-0.002,2.014,0,3.021c0,0.211-0.017,0.369-0.301,0.377c-0.361,0.01-0.334-0.215-0.334-0.447c0-1.02-0.002-2.037,0.002-3.057
	c0-0.225-0.056-0.416-0.312-0.348c-0.092,0.023-0.186,0.232-0.186,0.359c-0.014,1.574-0.011,3.148-0.01,4.723
	C-118.3,41.904-118.051,42.292-117.565,42.402z"/>
<path opacity="0.6" fill="#C1BAAC" enable-background="new    " d="M-109.999,38.898c0-0.469,0-0.938,0-1.402
	c0-0.797-0.73-1.355-1.504-1.156c-0.649,0.166-0.968,0.596-0.97,1.357c-0.002,1.271-0.005,2.537-0.005,3.807
	C-111.76,40.517-110.925,39.646-109.999,38.898z"/>
<g>
	<g>
		<path fill="#787366" d="M-66.911,22.588c-4.071,0-7.371,3.3-7.371,7.37c0,4.07,3.3,7.371,7.371,7.371
			c4.07,0,7.37-3.301,7.37-7.371C-59.541,25.887-62.841,22.588-66.911,22.588z M-66.855,35c-2.725,0-4.934-2.207-4.934-4.932
			c0-2.725,2.209-4.934,4.934-4.934s4.933,2.209,4.933,4.934C-61.923,32.793-64.131,35-66.855,35z"/>
		<linearGradient id="SVGID_10_" gradientUnits="userSpaceOnUse" x1="-74.4939" y1="29.9573" x2="-59.3289" y2="29.9573">
			<stop  offset="0" style="stop-color:#FFFFFF"/>
			<stop  offset="1" style="stop-color:#C8C8C8"/>
		</linearGradient>
		<path fill="url(#SVGID_10_)" d="M-66.911,37.539c-4.182,0-7.583-3.4-7.583-7.582c0-4.18,3.401-7.582,7.583-7.582
			c4.18,0,7.582,3.401,7.582,7.582C-59.329,34.139-62.731,37.539-66.911,37.539z M-66.911,22.799c-3.948,0-7.16,3.212-7.16,7.159
			c0,3.947,3.212,7.16,7.16,7.16c3.947,0,7.159-3.213,7.159-7.16C-59.752,26.01-62.964,22.799-66.911,22.799z M-66.855,35.213
			c-2.837,0-5.145-2.309-5.145-5.145c0-2.837,2.308-5.145,5.145-5.145s5.145,2.308,5.145,5.145
			C-61.711,32.905-64.018,35.213-66.855,35.213z M-66.855,25.346c-2.604,0-4.722,2.118-4.722,4.722c0,2.604,2.117,4.721,4.722,4.721
			c2.604,0,4.722-2.117,4.722-4.721C-62.134,27.465-64.252,25.346-66.855,25.346z"/>
	</g>
	<g>
		<circle fill="#787366" cx="-66.93" cy="30.104" r="3.327"/>
		<linearGradient id="SVGID_11_" gradientUnits="userSpaceOnUse" x1="-70.4695" y1="30.1038" x2="-63.3923" y2="30.1038">
			<stop  offset="0" style="stop-color:#FFFFFF"/>
			<stop  offset="1" style="stop-color:#C8C8C8"/>
		</linearGradient>
		<path fill="url(#SVGID_11_)" d="M-66.93,33.643c-1.951,0-3.539-1.588-3.539-3.539s1.588-3.539,3.539-3.539
			s3.538,1.587,3.538,3.539S-64.979,33.643-66.93,33.643z M-66.93,26.987c-1.719,0-3.116,1.398-3.116,3.117s1.397,3.115,3.116,3.115
			c1.718,0,3.116-1.396,3.116-3.115S-65.213,26.987-66.93,26.987z"/>
	</g>
	<g>
		<path fill="#787366" d="M-104.017,23.935c-3.662,0-6.631,2.969-6.631,6.631c0,3.662,2.969,6.631,6.631,6.631
			s6.631-2.969,6.631-6.631C-97.386,26.904-100.355,23.935-104.017,23.935z M-103.968,35.104c-2.451,0-4.438-1.986-4.438-4.438
			s1.986-4.439,4.438-4.439s4.438,1.988,4.438,4.439S-101.516,35.104-103.968,35.104z"/>
		<linearGradient id="SVGID_12_" gradientUnits="userSpaceOnUse" x1="-110.8601" y1="30.5667" x2="-97.1755" y2="30.5667">
			<stop  offset="0" style="stop-color:#FFFFFF"/>
			<stop  offset="1" style="stop-color:#C8C8C8"/>
		</linearGradient>
		<path fill="url(#SVGID_12_)" d="M-104.017,37.408c-3.773,0-6.843-3.068-6.843-6.842c0-3.773,3.069-6.842,6.843-6.842
			c3.772,0,6.842,3.069,6.842,6.842C-97.176,34.34-100.245,37.408-104.017,37.408z M-104.017,24.147c-3.54,0-6.42,2.88-6.42,6.419
			c0,3.539,2.88,6.42,6.42,6.42s6.419-2.881,6.419-6.42C-97.598,27.027-100.477,24.147-104.017,24.147z M-103.968,35.315
			c-2.563,0-4.649-2.086-4.649-4.648c0-2.564,2.086-4.65,4.649-4.65s4.649,2.085,4.649,4.65
			C-99.318,33.229-101.404,35.315-103.968,35.315z M-103.968,26.439c-2.33,0-4.227,1.895-4.227,4.227
			c0,2.33,1.896,4.227,4.227,4.227c2.331,0,4.227-1.896,4.227-4.227C-99.741,28.334-101.636,26.439-103.968,26.439z"/>
	</g>
	<g>
		<circle fill="#787366" cx="-104.035" cy="30.698" r="2.993"/>
		<linearGradient id="SVGID_13_" gradientUnits="userSpaceOnUse" x1="-107.24" y1="30.6975" x2="-100.8298" y2="30.6975">
			<stop  offset="0" style="stop-color:#FFFFFF"/>
			<stop  offset="1" style="stop-color:#C8C8C8"/>
		</linearGradient>
		<path fill="url(#SVGID_13_)" d="M-104.035,33.903c-1.768,0-3.205-1.438-3.205-3.205s1.438-3.205,3.205-3.205
			s3.205,1.437,3.205,3.205S-102.267,33.903-104.035,33.903z M-104.035,27.916c-1.534,0-2.782,1.248-2.782,2.781
			s1.248,2.781,2.782,2.781s2.782-1.248,2.782-2.781S-102.501,27.916-104.035,27.916z"/>
	</g>
	<g>
		<path fill="#787366" d="M-67.069,25.398c0,0,1.127,1.585,1.338,2.325c0.212,0.74-8.312,3.732-8.312,3.732l8.315-3.027
			c0,0,0.912,1.76,0.947,2.359c0.035,0.598-8.911,2.676-8.911,2.676s-2.359-0.141-2.993-0.598c0,0-0.071,0.457-0.811,0.281
			c-0.74-0.176-1.268-0.07-1.268-0.07l-0.705-0.635c0,0,0.105,0.494-1.69,0.6c-1.797,0.105-2.184-0.494-2.184-0.494v0.494h-0.317
			v-0.459l-0.846,0.318l0.142,0.387l-0.916,0.176l-0.211-0.492l-0.353,0.211v0.281v0.318h-6.938c0,0-1.128,0.844-4.156-2.924
			c0,0-0.035-1.727,1.162-2.289c1.197-0.564,1.761-0.705,1.761-0.705s-0.739-1.514-1.585-0.634c-0.845,0.88-0.915-0.634-0.915-0.634
			l0.141-1.479h-0.317l-0.423-0.141c0,0-0.176-1.374,0.458-1.127c0.635,0.246-0.95-0.035,0.635-0.951l-0.212-0.546h-0.903
			l-0.541,1.039c0,0-0.387,0.388-0.493-0.246l0.282-1.058c0,0,0-0.281-0.951-0.493l-0.458,0.529v2.853l1.233,1.162l-0.212,0.282
			l-2.501-1.233c0,0-1.585-1.162-5.882-0.457l-1.62-0.74c0,0,2.959-1.197,6.34-0.634l1.444-2.712c0,0-0.388-0.282-0.388-0.74h-0.599
			l-0.07,0.142h-0.669c0,0-0.986-2.678-0.07-4.579h0.634c0,0,1.831,0,2.324,1.62s0.317,0.599,0.317,0.599l-0.07-1.761l-0.388-0.106
			c0,0-1.162,0.705-1.409-1.443c-0.246-2.148,1.62-2.148,1.62-2.148l1.162,1.408l0.635,0.951l0.739,0.141l-0.211-0.845l0.845-0.458
			l0.635,0.599l0.07,0.493l0.423-0.353l-0.282-1.937l-0.774-0.142l-0.106-1.197c0,0,0.353-0.563,1.163-0.458l0.563-0.422
			c0,0-0.106-0.811-0.106-1.128c0-0.316,0.563-1.057,0.563-1.057s-0.211-1.057,0.142-1.585c0.352-0.528,0.81-1.69,1.515-1.973
			c0.704-0.281,0.281,2.185,0.281,2.185s-0.047,0.532-1.021,0.528c0,0-1.268,1.232-1.021,2.677c0.246,1.443,0.105,0.493,0.105,0.493
			l0.811,0.176l0.881-0.563c0,0,0.88,0.105,0.599,0.669l-0.986,0.563c0,0-0.07,0.669-0.599,0.846
			c-0.528,0.176-0.353,0.599-0.353,0.599l-1.232-0.141l0.176,1.796c0,0,1.162,0.212,1.339,1.127
			c0.176,0.916-0.142,0.528-0.142,0.528s1.479-2.465,9.439-0.352c0,0,1.585,0.739,2.854,1.655c1.268,0.916,2.888,1.409,8.383-0.423
			c0,0,0.986-0.07,1.021,0.353s0.176-0.74,0.176-0.74h5.389c0,0,0.811-0.141,1.233,0.916c0.422,1.057-0.07,0.528-0.07,0.528
			l3.944,0.353c0,0,0.423,0.352,0.212,1.232c-0.212,0.881-0.493,1.093,0.915,3.082h-0.281c0,0-1.198-0.687-1.691-2.765
			c-0.492-2.078-0.176-0.282-0.176-0.282l-2.008,0.035l0.07,0.74c0,0-0.07,0.634-0.669,0.281s-0.739-0.845-0.739-0.845l-1.832-0.035
			l-2.888,0.845l-3.487,3.275l0.035,0.247l0.423-0.035l1.374-1.62l0.634-0.07l0.105,0.422l-1.69,1.973V24.8l-1.339,1.69l1.55,1.479
			L-67.069,25.398z"/>
		<linearGradient id="SVGID_14_" gradientUnits="userSpaceOnUse" x1="-109.3474" y1="19.053" x2="-59.1375" y2="19.053">
			<stop  offset="0" style="stop-color:#FFFFFF"/>
			<stop  offset="1" style="stop-color:#C8C8C8"/>
		</linearGradient>
		<path fill="url(#SVGID_14_)" d="M-92.183,4.242c0.556,0,0.177,2.207,0.177,2.207s-0.047,0.528-1.011,0.528
			c-0.003,0-0.007,0-0.011,0c0,0-1.268,1.232-1.021,2.677c0.106,0.623,0.141,0.8,0.146,0.8c0.006,0-0.04-0.307-0.04-0.307
			l0.811,0.176l0.881-0.563c0,0,0.88,0.105,0.599,0.669l-0.986,0.563c0,0-0.07,0.669-0.599,0.846
			c-0.528,0.176-0.353,0.599-0.353,0.599l-1.232-0.141l0.176,1.796c0,0,1.162,0.212,1.339,1.127c0.024,0.13,0.039,0.233,0.047,0.315
			c-0.137,0.127-0.188,0.213-0.188,0.213s0.067,0.082,0.122,0.082c0.049,0,0.088-0.062,0.066-0.295
			c0.374-0.347,1.384-0.995,3.702-0.995c1.356,0,3.161,0.222,5.549,0.856c0,0,1.585,0.739,2.854,1.655
			c0.642,0.464,1.374,0.819,2.654,0.819c1.248,0,3.016-0.338,5.729-1.242c0,0,0.062-0.004,0.154-0.004
			c0.279,0,0.841,0.039,0.867,0.356c0.005,0.064,0.013,0.093,0.022,0.093c0.053,0,0.153-0.833,0.153-0.833h5.389
			c0,0,0.036-0.006,0.097-0.006c0.228,0,0.803,0.088,1.137,0.922c0.113,0.284,0.161,0.454,0.169,0.55l-0.239-0.021
			c0,0,0.123,0.132,0.193,0.132c0.032,0,0.054-0.028,0.046-0.11l3.705,0.331c0,0,0.423,0.352,0.212,1.232
			c-0.212,0.881-0.493,1.093,0.915,3.082h-0.281c0,0-1.198-0.687-1.691-2.765c-0.181-0.762-0.252-1.003-0.271-1.003
			c-0.032,0,0.095,0.721,0.095,0.721l-2.008,0.035l0.07,0.74c0,0-0.043,0.388-0.349,0.388c-0.085,0-0.19-0.029-0.32-0.106
			c-0.599-0.353-0.739-0.845-0.739-0.845l-1.832-0.035l-2.888,0.845l-3.487,3.275l0.035,0.247l0.423-0.035l1.374-1.62l0.634-0.07
			l0.105,0.422l-1.69,1.973V24.8l-1.339,1.69l1.55,1.479l5.495-2.571c0,0,1.127,1.585,1.338,2.325
			c0.144,0.502-3.75,2.047-6.258,2.984l-2.054,0.748l0,0l0,0c0.001,0,0.874-0.307,2.054-0.748l6.262-2.279
			c0,0,0.912,1.76,0.947,2.359c0.035,0.598-8.911,2.676-8.911,2.676s-2.359-0.141-2.993-0.598c0,0-0.05,0.322-0.502,0.322
			c-0.088,0-0.189-0.012-0.309-0.041c-0.336-0.08-0.629-0.102-0.848-0.102c-0.264,0-0.42,0.031-0.42,0.031l-0.705-0.635
			c0,0,0.105,0.494-1.69,0.6c-0.146,0.008-0.282,0.012-0.41,0.012c-1.446,0-1.773-0.506-1.773-0.506v0.494h-0.317v-0.459
			l-0.846,0.318l0.142,0.387l-0.916,0.176l-0.211-0.492l-0.353,0.211v0.281v0.318h-6.938c0,0-0.108,0.08-0.348,0.08
			c-0.533,0-1.718-0.402-3.809-3.004c0,0-0.035-1.727,1.162-2.289c1.197-0.564,1.761-0.705,1.761-0.705s-0.443-0.909-1.037-0.909
			c-0.172,0-0.357,0.076-0.548,0.274s-0.341,0.275-0.461,0.275c-0.412,0-0.454-0.909-0.454-0.909l0.141-1.479h-0.317l-0.423-0.141
			c0,0-0.147-1.156,0.317-1.156c0.04,0,0.085,0.008,0.135,0.026c0.062,0.06,0.136,0.088,0.157,0.088
			c0.022,0-0.007-0.028-0.151-0.085c-0.002-0.001-0.004-0.002-0.006-0.003c-0.146-0.14-0.223-0.45,0.641-0.948l-0.212-0.546h-0.903
			l-0.541,1.039c0,0-0.117,0.117-0.24,0.117c-0.101,0-0.205-0.078-0.253-0.363l0.282-1.058c0,0,0-0.281-0.951-0.493l-0.458,0.529
			v2.853l1.233,1.162l-0.212,0.282l-2.501-1.233c0,0-0.934-0.684-3.31-0.685c-0.72,0-1.572,0.063-2.572,0.228l-1.62-0.74
			c0,0,1.939-0.785,4.472-0.785c0.596,0,1.225,0.044,1.868,0.151l1.444-2.712c0,0-0.388-0.282-0.388-0.74h-0.599l-0.07,0.142h-0.669
			c0,0-0.986-2.678-0.07-4.579h0.634c0,0,1.831,0,2.324,1.62c0.218,0.717,0.306,0.916,0.335,0.916c0.037,0-0.018-0.317-0.018-0.317
			l-0.07-1.761l-0.388-0.106c0,0-0.183,0.111-0.418,0.111c-0.359,0-0.842-0.257-0.991-1.555c-0.246-2.148,1.62-2.148,1.62-2.148
			l1.162,1.408l0.635,0.951l0.739,0.141l-0.211-0.845l0.845-0.458l0.635,0.599l0.07,0.493l0.423-0.353l-0.282-1.937l-0.774-0.142
			l-0.106-1.197c0,0,0.295-0.471,0.964-0.471c0.063,0,0.129,0.004,0.199,0.013l0.563-0.422c0,0-0.106-0.811-0.106-1.128
			c0-0.316,0.563-1.057,0.563-1.057s-0.211-1.057,0.142-1.585c0.352-0.528,0.81-1.69,1.515-1.973
			C-92.25,4.25-92.216,4.242-92.183,4.242 M-92.183,3.82c-0.087,0-0.175,0.018-0.262,0.053c-0.669,0.267-1.098,1.045-1.441,1.669
			c-0.098,0.177-0.189,0.344-0.268,0.461c-0.348,0.521-0.287,1.336-0.235,1.712c-0.239,0.332-0.541,0.82-0.541,1.164
			c0,0.23,0.047,0.661,0.079,0.937l-0.239,0.179c-0.024-0.001-0.049-0.001-0.073-0.001c-0.713,0-1.167,0.421-1.322,0.67l-0.075,0.12
			l0.013,0.141l0.105,1.197l0.028,0.321l0.317,0.058l0.476,0.087l0.118,0.811l-0.298-0.282l-0.223-0.21l-0.27,0.146l-0.845,0.457
			l-0.288,0.156l0.079,0.318l0.007,0.027l-0.407-0.611l-0.012-0.018l-0.015-0.017l-1.162-1.409l-0.127-0.153h-0.199
			c-0.038,0-0.944,0.008-1.55,0.687c-0.419,0.469-0.583,1.119-0.49,1.933c0.022,0.197,0.062,0.432,0.126,0.667
			c-0.179-0.032-0.344-0.046-0.48-0.046h-0.634h-0.267l-0.115,0.239c-0.981,2.04,0.013,4.792,0.055,4.908l0.103,0.276h0.295h0.669
			h0.261l0.064-0.127c0.056,0.15,0.135,0.277,0.213,0.378l-1.158,2.175c-0.53-0.073-1.079-0.11-1.636-0.11
			c-2.585,0-4.548,0.782-4.63,0.815l-0.91,0.368l0.893,0.408l1.62,0.739l0.117,0.054l0.127-0.021
			c0.896-0.147,1.737-0.222,2.504-0.222c2.172,0,3.056,0.6,3.064,0.605l0.029,0.022l0.029,0.013l2.501,1.233l0.314,0.155l0.21-0.281
			l0.212-0.281l0.227-0.302l-0.274-0.26l-1.101-1.037V22.28l0.184-0.212c0.166,0.048,0.271,0.094,0.336,0.128l-0.224,0.839
			l-0.023,0.088l0.015,0.091c0.108,0.646,0.505,0.717,0.67,0.717c0.277,0,0.482-0.185,0.539-0.241l0.046-0.046l0.03-0.058
			l0.423-0.812h0.272c-0.325,0.24-0.504,0.479-0.554,0.73c-0.051,0.033-0.097,0.073-0.138,0.12
			c-0.326,0.371-0.272,1.105-0.234,1.404l0.034,0.264l0.252,0.083l0.41,0.138l-0.099,1.042l-0.003,0.03l0.001,0.029
			c0.03,0.635,0.275,1.313,0.877,1.313c0.254,0,0.505-0.133,0.767-0.406c0.063-0.066,0.157-0.146,0.242-0.146
			c0.113,0,0.254,0.113,0.382,0.26c-0.302,0.111-0.728,0.287-1.285,0.549c-1.43,0.672-1.407,2.598-1.405,2.68l0.003,0.145
			l0.09,0.111c1.16,1.443,2.819,3.164,4.139,3.164c0.196,0,0.345-0.041,0.446-0.082h6.84h0.423v-0.281l0.221-0.043l0.915-0.176
			l0.487-0.094l-0.053-0.146h0.19h0.317h0.423v-0.176c0.317,0.107,0.755,0.189,1.351,0.189c0.14,0,0.286-0.006,0.435-0.014
			c0.827-0.049,1.386-0.178,1.721-0.402l0.367,0.33l0.157,0.141l0.208-0.041l0,0c0,0,0.128-0.023,0.338-0.023
			c0.245,0,0.498,0.031,0.75,0.092c0.145,0.033,0.28,0.051,0.406,0.051c0.285,0,0.491-0.088,0.635-0.205
			c0.89,0.348,2.48,0.459,2.835,0.48l0.062,0.004l0.06-0.014c0.022-0.006,2.269-0.527,4.481-1.117c1.305-0.348,2.345-0.65,3.091-0.9
			c0.46-0.152,0.804-0.285,1.051-0.402c0.224-0.105,0.638-0.301,0.614-0.693c-0.038-0.654-0.834-2.223-0.994-2.529l-0.068-0.133
			c0.1-0.145,0.149-0.309,0.096-0.494c-0.225-0.786-1.28-2.285-1.399-2.453l-0.205-0.287l-0.319,0.149l-5.232,2.448l-1.062-1.014
			l1.1-1.389l0.092-0.115V24.8v-0.126l1.589-1.854l0.142-0.166l-0.053-0.212l-0.105-0.423l-0.09-0.357l-0.117,0.013l1.034-0.972
			l2.729-0.798l1.502,0.028c0.13,0.228,0.37,0.54,0.799,0.792c0.186,0.109,0.365,0.165,0.534,0.165c0.47,0,0.729-0.396,0.77-0.765
			l0.004-0.043l-0.004-0.043l-0.027-0.285l1.32-0.023c0.536,2.194,1.825,2.955,1.88,2.986l0.098,0.057h0.113h0.281h0.817
			l-0.473-0.667c-1.147-1.622-1.08-1.871-0.918-2.473c0.021-0.08,0.045-0.17,0.068-0.267c0.266-1.104-0.288-1.603-0.352-1.656
			l-0.102-0.084l-0.131-0.012l-3.404-0.305c-0.03-0.091-0.068-0.194-0.116-0.312c-0.44-1.102-1.281-1.188-1.528-1.188
			c-0.051,0-0.093,0.003-0.123,0.006h-5.362h-0.374l-0.045,0.372c-0.004,0.026-0.007,0.053-0.011,0.079
			c-0.163-0.042-0.364-0.067-0.613-0.067c-0.104,0-0.177,0.005-0.185,0.005l-0.053,0.004l-0.051,0.017
			c-2.463,0.821-4.293,1.221-5.595,1.221c-1.148,0-1.793-0.296-2.407-0.739c-1.285-0.929-2.855-1.665-2.922-1.695l-0.033-0.017
			l-0.037-0.01c-2.174-0.577-4.078-0.87-5.657-0.87c-1.737,0-2.801,0.354-3.429,0.708c-0.266-0.63-0.886-0.931-1.267-1.062
			l-0.097-0.987l0.713,0.081l0.807,0.093l-0.364-0.667l0,0c0.013-0.009,0.041-0.026,0.092-0.044
			c0.502-0.167,0.747-0.622,0.842-0.975l0.819-0.468l0.11-0.063l0.058-0.114c0.174-0.347,0.082-0.615,0.013-0.744
			c-0.23-0.429-0.823-0.52-0.939-0.534l-0.15-0.018l-0.128,0.081l-0.733,0.47l-0.383-0.083c-0.011-0.062-0.022-0.131-0.035-0.207
			c-0.167-0.976,0.522-1.878,0.794-2.188c1.045-0.066,1.221-0.715,1.248-0.874h0.001c0.003-0.019,0.078-0.463,0.113-0.963
			c0.071-1.011-0.087-1.34-0.232-1.513C-91.831,3.899-92,3.82-92.183,3.82L-92.183,3.82z"/>
	</g>
	<linearGradient id="SVGID_15_" gradientUnits="userSpaceOnUse" x1="-96.0212" y1="18.8645" x2="-80.5969" y2="18.8645">
		<stop  offset="0" style="stop-color:#FFFFFF"/>
		<stop  offset="1" style="stop-color:#C8C8C8"/>
	</linearGradient>
	<path opacity="0.8" fill="url(#SVGID_15_)" d="M-94.331,17.755l-1.69,2.571l2.994,2.854c0,0,1.056,0.119,0.81-0.592
		c-0.246-0.712,2.606-0.782,2.606-0.782l0.704,0.782c0,0,0.529,0.557,1.163-0.113c0,0-2.36-2.395-1.727-3.17
		c0.635-0.774,0.563-1.726,5.354-1.373c0,0,0.775,0.105,2.043,1.268v-0.634c0,0,0.247-0.775,1.093-0.563
		c0.845,0.211,0.069-0.778-0.177-0.951c-0.247-0.173-2.89-2.438-7.996-2.505c0,0-2.935-0.105-4.108,0.988l-0.012,0.319l-0.177-0.106
		l-0.387,0.705l-0.388,0.141L-94.331,17.755z"/>
	<g>
		<g>
			
				<linearGradient id="SVGID_16_" gradientUnits="userSpaceOnUse" x1="488.5208" y1="1782.761" x2="488.5208" y2="1784.4167" gradientTransform="matrix(1 0 0 1 -580.2383 -1764.834)">
				<stop  offset="0" style="stop-color:#FFFFFF"/>
				<stop  offset="1" style="stop-color:#9D9B99"/>
			</linearGradient>
			<circle fill="url(#SVGID_16_)" cx="-91.719" cy="18.753" r="0.848"/>
			<path fill="#817D7C" d="M-91.719,19.653c-0.496,0-0.899-0.404-0.899-0.9s0.403-0.9,0.899-0.9c0.497,0,0.901,0.404,0.901,0.9
				S-91.221,19.653-91.719,19.653z M-91.719,17.958c-0.438,0-0.794,0.356-0.794,0.795s0.356,0.795,0.794,0.795
				c0.438,0,0.795-0.356,0.795-0.795S-91.28,17.958-91.719,17.958z"/>
		</g>
		<g>
			
				<linearGradient id="SVGID_17_" gradientUnits="userSpaceOnUse" x1="488.0979" y1="1782.7502" x2="488.0979" y2="1783.5779" gradientTransform="matrix(1 0 0 1 -580.2383 -1764.834)">
				<stop  offset="0" style="stop-color:#13599D"/>
				<stop  offset="1" style="stop-color:#0E4A89"/>
			</linearGradient>
			<path fill="url(#SVGID_17_)" d="M-92.565,18.753h0.848v-0.849C-92.185,17.903-92.565,18.284-92.565,18.753z"/>
			
				<linearGradient id="SVGID_18_" gradientUnits="userSpaceOnUse" x1="488.9446" y1="1783.5979" x2="488.9446" y2="1784.4261" gradientTransform="matrix(1 0 0 1 -580.2383 -1764.834)">
				<stop  offset="0" style="stop-color:#13599D"/>
				<stop  offset="1" style="stop-color:#0E4A89"/>
			</linearGradient>
			<path fill="url(#SVGID_18_)" d="M-91.718,18.752V19.6c0.468,0,0.847-0.38,0.847-0.849H-91.718z"/>
		</g>
		<g>
			
				<linearGradient id="SVGID_19_" gradientUnits="userSpaceOnUse" x1="338.3313" y1="1430.2971" x2="340.2307" y2="1430.2971" gradientTransform="matrix(1 0 0 1 -430.999 -1411.543)">
				<stop  offset="0" style="stop-color:#FFFFFF"/>
				<stop  offset="1" style="stop-color:#C7C8C8"/>
			</linearGradient>
			<path fill="url(#SVGID_19_)" d="M-91.719,19.703c-0.523,0-0.949-0.427-0.949-0.949c0-0.523,0.426-0.95,0.949-0.95
				s0.95,0.427,0.95,0.95C-90.768,19.276-91.194,19.703-91.719,19.703z M-91.719,18.008c-0.411,0-0.745,0.334-0.745,0.745
				c0,0.41,0.335,0.745,0.745,0.745c0.411,0,0.746-0.335,0.746-0.745S-91.307,18.008-91.719,18.008z"/>
		</g>
	</g>
	<ellipse fill="#787366" cx="-89.594" cy="15.278" rx="1.41" ry="0.545"/>
	<g>
		<path fill="#C0B9AB" d="M-101.535,31.387l-1.587,0.051c0,0,0.176-0.283-0.246-0.529c-0.423-0.246,1.69-1.162,1.69-1.162l0.035-0.6
			l-0.916,0.176l0.881-2.218h0.316l0.704-1.761l1.163-2.642l0.528-1.339l2.219-4.473l0.255-0.566
			c0.035-0.012,0.061-0.03,0.073-0.056c0.061-0.125-0.183-0.367-0.543-0.541c-0.359-0.175-0.7-0.216-0.761-0.092
			c-0.004,0.008-0.006,0.017-0.008,0.026c-0.001-0.002-0.002-0.003-0.003-0.005l-2.324,5.037l-0.688,1.392l-0.771,1.896
			c0,0-1.127-0.161-2.008-0.196s0.014,0.924,0.014,0.924c0.599,0.985-0.634,1.761-0.634,1.761l-0.916,2.676c0,0,0,0.775,0.916,0.389
			l0.176,0.107l-0.774,1.652c0,0-0.282,1.305,0.951,0.951c0.717-0.205,1.661-0.279,2.325-0.305 M-103.404,28.795l-0.246-0.246
			l0.669-1.269l0.409-0.677c0.031,0.049,0.069,0.099,0.119,0.149L-103.404,28.795z"/>
		<path fill="#787366" d="M-104.171,32.422c-0.199,0-0.36-0.059-0.481-0.172c-0.34-0.316-0.207-0.951-0.201-0.979l0.008-0.025
			l0.731-1.559l-0.04-0.025c-0.321,0.125-0.576,0.127-0.761,0.006c-0.256-0.17-0.259-0.506-0.259-0.521l0.007-0.037l0.929-2.714
			l0.034-0.021c0.046-0.029,1.122-0.723,0.603-1.596c-0.108-0.117-0.534-0.608-0.396-0.909c0.064-0.141,0.231-0.208,0.479-0.197
			c0.733,0.029,1.646,0.146,1.931,0.186l0.737-1.814l0.69-1.399l2.416-5.235l0.04,0.069c0.06-0.024,0.144-0.036,0.264-0.021
			c0.156,0.019,0.344,0.078,0.529,0.168c0.185,0.09,0.348,0.2,0.459,0.312c0.18,0.179,0.173,0.307,0.137,0.383
			c-0.014,0.028-0.04,0.064-0.091,0.093l-0.236,0.526l-2.221,4.477l-0.524,1.33l-1.164,2.646l-0.731,1.829h-0.317l-0.775,1.954
			l0.855-0.164l-0.047,0.814l-0.065,0.029c-0.851,0.367-1.598,0.799-1.672,0.961c0.18,0.109,0.285,0.234,0.321,0.377
			c0.011,0.047,0.014,0.09,0.011,0.129l1.434-0.045l0.008,0.229l-1.802,0.055l0.114-0.182c0.017-0.029,0.091-0.193-0.208-0.367
			c-0.104-0.062-0.114-0.148-0.111-0.195c0.021-0.344,1.183-0.895,1.75-1.143l0.022-0.383l-0.976,0.188l0.985-2.485h0.317
			l0.676-1.689l1.164-2.645l0.526-1.335l2.223-4.481l0.273-0.608l0.048-0.016c0.004-0.037-0.137-0.218-0.482-0.386
			c-0.347-0.168-0.576-0.167-0.613-0.138l-0.037,0.253l-0.049-0.065l-2.244,4.862l-0.688,1.395l-0.801,1.972l-0.089-0.013
			c-0.011-0.002-1.132-0.161-1.996-0.195c-0.143-0.007-0.24,0.019-0.262,0.064c-0.055,0.12,0.176,0.465,0.364,0.667l0.014,0.019
			c0.507,0.835-0.176,1.59-0.636,1.895l-0.896,2.62c0.004,0.055,0.027,0.229,0.156,0.312c0.125,0.082,0.332,0.066,0.6-0.047
			l0.055-0.023l0.313,0.193l-0.812,1.732c-0.015,0.078-0.088,0.543,0.137,0.752c0.133,0.125,0.359,0.143,0.673,0.053
			c0.729-0.209,1.683-0.283,2.354-0.309l0.009,0.229c-0.658,0.025-1.592,0.098-2.299,0.299
			C-103.911,32.401-104.048,32.422-104.171,32.422z M-103.369,28.99l-0.422-0.42l0.709-1.343l0.507-0.841l0.099,0.155
			c0.03,0.048,0.064,0.09,0.104,0.13l0.057,0.057L-103.369,28.99z M-103.51,28.528l0.071,0.072l0.69-1.485l-0.136,0.225
			L-103.51,28.528z"/>
	</g>
	<g>
		<linearGradient id="SVGID_20_" gradientUnits="userSpaceOnUse" x1="-105.1121" y1="23.9348" x2="-96.3562" y2="23.9348">
			<stop  offset="0" style="stop-color:#FFFFFF"/>
			<stop  offset="1" style="stop-color:#C8C8C8"/>
		</linearGradient>
		<path fill="url(#SVGID_20_)" d="M-101.464,31.994c-0.658,0.027-1.602,0.1-2.312,0.303c-0.146,0.041-0.277,0.062-0.394,0.062
			c-0.215,0-0.38-0.07-0.491-0.209c-0.25-0.309-0.138-0.844-0.133-0.865l0.004-0.012l0.755-1.609l-0.113-0.07
			c-0.166,0.068-0.315,0.102-0.442,0.102c-0.412,0-0.521-0.357-0.521-0.549l0.003-0.018l0.922-2.693l0.016-0.011
			c0.003-0.002,0.305-0.193,0.529-0.499c0.293-0.399,0.323-0.799,0.091-1.186c-0.068-0.073-0.511-0.567-0.392-0.842
			c0.052-0.12,0.189-0.175,0.422-0.166c0.779,0.031,1.761,0.162,1.972,0.191l0.756-1.859l0.688-1.395l2.364-5.123l0.011,0.016
			c0.035-0.029,0.094-0.053,0.191-0.053c0.161,0,0.38,0.062,0.601,0.169c0.18,0.087,0.337,0.193,0.443,0.3
			c0.153,0.152,0.152,0.254,0.124,0.312c-0.016,0.033-0.043,0.058-0.082,0.075l-0.246,0.546l-2.22,4.475l-0.526,1.335l-1.163,2.644
			l-0.717,1.792h-0.317l-0.831,2.097l0.888-0.172l-0.041,0.699l-0.03,0.014c-0.656,0.283-1.701,0.814-1.715,1.029
			c0,0.006-0.001,0.02,0.03,0.039c0.166,0.096,0.267,0.211,0.298,0.34c0.018,0.07,0.012,0.133,0,0.178l1.719-0.053 M-101.535,31.44
			l-1.685,0.053l0.053-0.084c0.002-0.002,0.047-0.078,0.021-0.182c-0.025-0.1-0.109-0.191-0.249-0.273
			c-0.071-0.041-0.084-0.098-0.082-0.137c0.021-0.33,1.397-0.953,1.749-1.105l0.029-0.5l-0.944,0.182l0.93-2.341h0.317l0.69-1.728
			l1.163-2.644l0.528-1.337l2.221-4.477l0.263-0.585l0.022-0.008c0.016-0.005,0.035-0.015,0.043-0.029
			c0.013-0.027-0.006-0.094-0.104-0.191c-0.099-0.098-0.246-0.197-0.415-0.279c-0.204-0.099-0.411-0.157-0.555-0.157
			c-0.072,0-0.123,0.016-0.136,0.042c-0.002,0.003-0.003,0.006-0.003,0.011l-0.021,0.138l-0.026-0.041l-2.284,4.95l-0.688,1.393
			l-0.785,1.932l-0.041-0.006c-0.011-0.002-1.135-0.162-2.002-0.196c-0.181-0.008-0.288,0.027-0.321,0.103
			c-0.071,0.163,0.192,0.536,0.376,0.732l0.007,0.009c0.256,0.423,0.224,0.875-0.096,1.309c-0.209,0.284-0.473,0.469-0.54,0.514
			l-0.906,2.652c0.002,0.062,0.032,0.434,0.415,0.434c0.12,0,0.263-0.035,0.427-0.104l0.025-0.012l0.239,0.148l-0.792,1.689
			c-0.011,0.055-0.093,0.518,0.112,0.771c0.144,0.18,0.407,0.217,0.773,0.111c0.66-0.188,1.515-0.266,2.163-0.299 M-103.387,28.885
			l-0.327-0.326l0.687-1.303l0.455-0.752l0.045,0.071c0.033,0.051,0.069,0.097,0.113,0.14l0.025,0.026L-103.387,28.885z
			 M-103.586,28.539l0.166,0.164l0.903-1.941c-0.019-0.02-0.036-0.041-0.053-0.062l-0.366,0.608L-103.586,28.539z"/>
		<linearGradient id="SVGID_21_" gradientUnits="userSpaceOnUse" x1="-105.2263" y1="23.8948" x2="-96.2415" y2="23.8948">
			<stop  offset="0" style="stop-color:#FFFFFF"/>
			<stop  offset="1" style="stop-color:#C8C8C8"/>
		</linearGradient>
		<path fill="url(#SVGID_21_)" d="M-104.17,32.475c-0.251,0-0.446-0.086-0.581-0.252c-0.268-0.332-0.176-0.859-0.155-0.961
			l0.008-0.025l0.704-1.504c-0.146,0.053-0.278,0.078-0.396,0.078c-0.466,0-0.636-0.396-0.636-0.664l0.004-0.035l0.939-2.75
			l0.034-0.021c0.027-0.018,0.307-0.197,0.514-0.481c0.265-0.36,0.295-0.703,0.091-1.048c-0.174-0.19-0.54-0.644-0.404-0.957
			c0.073-0.166,0.252-0.242,0.531-0.234c0.697,0.027,1.545,0.134,1.896,0.18l0.723-1.776l0.691-1.402l2.449-5.305l0.067,0.102
			c0.185-0.057,0.492,0.009,0.803,0.159c0.19,0.093,0.358,0.207,0.475,0.322c0.2,0.2,0.19,0.352,0.146,0.442
			c-0.021,0.043-0.054,0.08-0.096,0.107l-0.23,0.511l-2.222,4.479l-0.522,1.326l-1.165,2.647l-0.744,1.86h-0.316l-0.727,1.831
			l0.827-0.158l-0.054,0.914l-0.094,0.041c-0.758,0.328-1.469,0.725-1.62,0.898c0.162,0.107,0.263,0.234,0.299,0.379
			c0.007,0.029,0.012,0.059,0.014,0.088l1.59-0.051l0.008,0.229l-0.214,0.008l0.004,0.105l-1.898,0.059l0.166-0.266l0,0
			c0,0,0.02-0.039,0.006-0.092c-0.017-0.068-0.085-0.139-0.195-0.203c-0.093-0.055-0.144-0.143-0.138-0.242
			c0.02-0.34,0.949-0.822,1.752-1.178l0.017-0.281l-1.004,0.193l1.034-2.608h0.317l0.663-1.656l1.164-2.646l0.526-1.332l2.225-4.486
			l0.292-0.631c-0.011-0.014-0.025-0.03-0.046-0.051c-0.09-0.09-0.226-0.181-0.384-0.257c-0.187-0.091-0.38-0.146-0.505-0.146
			c-0.013,0-0.024,0-0.033,0.001l-0.06,0.392l-0.077-0.12l-2.197,4.761l-0.688,1.395l-0.815,2.007l-0.129-0.018
			c-0.012-0.002-1.131-0.161-1.991-0.195c-0.162-0.008-0.208,0.025-0.212,0.034c-0.03,0.07,0.121,0.357,0.354,0.608l0.021,0.027
			c0.282,0.466,0.247,0.962-0.102,1.436c-0.194,0.265-0.432,0.446-0.536,0.52l-0.887,2.594c0.007,0.092,0.052,0.305,0.3,0.305
			c0.104,0,0.232-0.033,0.382-0.096l0.08-0.033l0.376,0.23l-0.829,1.77c-0.031,0.174-0.045,0.496,0.092,0.666
			c0.141,0.174,0.433,0.135,0.653,0.072c0.682-0.195,1.566-0.271,2.189-0.303l0.005,0.105c0.06-0.004,0.118-0.006,0.174-0.008
			l0.009,0.229c-0.657,0.025-1.587,0.098-2.285,0.297C-103.9,32.451-104.044,32.475-104.17,32.475z M-103.353,29.082l-0.502-0.502
			l0.727-1.377l0.553-0.917l0.145,0.228c0.027,0.044,0.06,0.083,0.097,0.12l0.083,0.083L-103.353,29.082z"/>
	</g>
	<linearGradient id="SVGID_22_" gradientUnits="userSpaceOnUse" x1="-104.3699" y1="31.5266" x2="-103.7" y2="31.5266">
		<stop  offset="0" style="stop-color:#FFFFFF"/>
		<stop  offset="1" style="stop-color:#C8C8C8"/>
	</linearGradient>
	<path fill="url(#SVGID_22_)" d="M-104.035,31.862c-0.185,0-0.335-0.15-0.335-0.336c0-0.184,0.15-0.334,0.335-0.334
		s0.335,0.15,0.335,0.334C-103.7,31.711-103.85,31.862-104.035,31.862z M-104.035,31.297c-0.126,0-0.229,0.104-0.229,0.229
		c0,0.127,0.103,0.23,0.229,0.23s0.229-0.104,0.229-0.23C-103.805,31.401-103.909,31.297-104.035,31.297z"/>
	<linearGradient id="SVGID_23_" gradientUnits="userSpaceOnUse" x1="-81.0417" y1="21.9221" x2="-72.8591" y2="21.9221">
		<stop  offset="0" style="stop-color:#FFFFFF"/>
		<stop  offset="1" style="stop-color:#C8C8C8"/>
	</linearGradient>
	<path fill="url(#SVGID_23_)" d="M-78.177,23.768c-0.088,0-0.177-0.008-0.266-0.021c-0.564-0.09-0.575-1.068-0.573-1.229
		l-2.025-2.369l0.102-0.01c0.007,0,0.68-0.062,1.054-0.062c0.237,0,0.283,0.022,0.297,0.072c0.006,0.021,0.003,0.049-0.033,0.076
		c0.122,0.155,1.252,0.676,2.321,1.11l2.909-0.456c0.015-0.004,0.465-0.106,0.871-0.106c0.328,0,0.536,0.069,0.62,0.205
		c0.063,0.103,0.055,0.236-0.027,0.399c-0.273,0.548-0.847,0.662-1.279,0.662l0,0c-0.191,0-0.337-0.022-0.383-0.031
		c-0.982,0.365-2.466,0.991-2.562,1.232C-77.279,23.555-77.691,23.768-78.177,23.768z M-80.829,20.235l1.919,2.244V22.5
		c-0.001,0.011-0.027,1.062,0.483,1.143c0.083,0.014,0.167,0.02,0.249,0.02c0.444,0,0.815-0.186,0.927-0.461
		c0.146-0.363,2.382-1.203,2.637-1.298l0.015-0.005l0.015,0.003c0.002,0.001,0.16,0.032,0.377,0.032l0,0
		c0.403,0,0.936-0.104,1.186-0.604c0.063-0.128,0.074-0.228,0.031-0.297c-0.062-0.102-0.246-0.155-0.53-0.155
		c-0.395,0-0.847,0.104-0.851,0.104l-2.942,0.461l-0.014-0.006c-0.719-0.291-2.394-0.993-2.409-1.216
		c0-0.013,0.001-0.023,0.006-0.034c-0.031-0.003-0.08-0.006-0.155-0.006C-80.169,20.181-80.626,20.218-80.829,20.235z
		 M-78.059,23.308c-0.21,0-0.381-0.166-0.381-0.37s0.171-0.369,0.381-0.369c0.211,0,0.382,0.165,0.382,0.369
		S-77.848,23.308-78.059,23.308z M-78.059,22.675c-0.151,0-0.275,0.118-0.275,0.264c0,0.146,0.124,0.265,0.275,0.265
		c0.152,0,0.276-0.118,0.276-0.265C-77.783,22.793-77.907,22.675-78.059,22.675z M-76.942,22.295l-0.022-0.026
		c-0.005-0.007-0.057-0.071-0.045-0.191c0.017-0.186,0.166-0.395,0.443-0.623l0.01-0.009l0.013-0.003
		c0.05-0.01,1.226-0.265,1.718-0.265c0.13,0,0.2,0.017,0.234,0.055c0.046,0.051,0.074,0.094,0.063,0.139
		c-0.012,0.046-0.056,0.062-0.099,0.078s-0.096,0.035-0.143,0.083c-0.144,0.143-1.807,0.652-2.14,0.753L-76.942,22.295z
		 M-76.509,21.544c-0.418,0.347-0.41,0.554-0.388,0.627c0.762-0.232,1.958-0.619,2.052-0.714c0.064-0.063,0.135-0.09,0.181-0.106
		c0.008-0.003,0.017-0.007,0.024-0.01c-0.006-0.008-0.015-0.021-0.03-0.037c-0.001-0.001-0.025-0.021-0.156-0.021
		C-75.28,21.283-76.38,21.515-76.509,21.544z M-78.84,21.977l-1.348-1.24l0.453-0.182l1.22,0.682c0.037,0.025,0.33,0.231,0.28,0.443
		c-0.036,0.15-0.226,0.246-0.581,0.294L-78.84,21.977z M-79.993,20.772l1.188,1.094c0.375-0.054,0.454-0.154,0.468-0.21
		c0.028-0.12-0.164-0.282-0.233-0.329l-1.172-0.654L-79.993,20.772z"/>
	<g>
		<path fill="#C0B9AB" d="M-81.02,17.09c0,0,0.846,0.913,0,0.809c-0.845-0.104-1.191,0.347-1.159,1.195l0.767,0.876h1.66
			c0,0,0.126,0.397,2.346,1.259c0,0,3.832-0.274,3.983-0.551c0.152-0.277,1.878-1.519,1.878-1.519l6.445-1.261
			c0,0,0.775-0.773-0.81-1.83l-5.773,0.066l-0.108,0.92c0,0-0.159-0.743-0.935-0.537C-73.502,16.724-79.174,18.724-81.02,17.09z"/>
		<path fill="#787366" d="M-77.425,21.344l-0.023-0.01c-1.753-0.68-2.234-1.082-2.366-1.251h-1.65l-0.827-0.945l-0.002-0.041
			c-0.018-0.476,0.081-0.83,0.295-1.052c0.219-0.227,0.544-0.316,0.993-0.261c0.145,0.018,0.233-0.003,0.243-0.026
			c0.038-0.087-0.149-0.384-0.342-0.592l0.16-0.163c0.456,0.404,1.21,0.609,2.242,0.609c2.001,0,4.48-0.76,5.539-1.084
			c0.185-0.057,0.324-0.1,0.407-0.122c0.1-0.026,0.196-0.04,0.286-0.04c0.285,0,0.481,0.135,0.609,0.293l0.075-0.639l5.909-0.068
			l0.029,0.021c0.649,0.433,1.002,0.879,1.046,1.325c0.041,0.416-0.208,0.67-0.219,0.681l-0.024,0.024l-0.034,0.007l-6.421,1.256
			c-0.661,0.477-1.724,1.282-1.824,1.466c-0.158,0.289-2.621,0.506-4.076,0.61L-77.425,21.344z M-81.361,19.855h1.692l0.025,0.08
			c0.005,0.006,0.218,0.385,2.254,1.178c1.772-0.128,3.7-0.35,3.875-0.503c0.147-0.272,1.61-1.334,1.902-1.544l0.045-0.019
			l6.407-1.254c0.047-0.06,0.157-0.229,0.131-0.478c-0.038-0.362-0.354-0.753-0.915-1.134l-5.638,0.065l-0.176,1.488l-0.146-0.657
			c-0.005-0.02-0.113-0.483-0.566-0.483c-0.07,0-0.146,0.011-0.228,0.032c-0.082,0.022-0.218,0.064-0.398,0.119
			c-1.069,0.328-3.571,1.095-5.606,1.095c-0.777,0-1.409-0.114-1.89-0.34c0.057,0.123,0.082,0.248,0.038,0.348
			c-0.04,0.093-0.147,0.202-0.48,0.162c-0.369-0.045-0.632,0.018-0.8,0.192c-0.163,0.17-0.241,0.454-0.232,0.845L-81.361,19.855z"/>
	</g>
	<linearGradient id="SVGID_24_" gradientUnits="userSpaceOnUse" x1="-94.9792" y1="28.9993" x2="-88.4568" y2="28.9993">
		<stop  offset="0" style="stop-color:#FFFFFF"/>
		<stop  offset="1" style="stop-color:#C8C8C8"/>
	</linearGradient>
	<path fill="url(#SVGID_24_)" d="M-94.979,29.418c0,0,0.784,1.797,2.067,1.973s3.172-0.248,3.172-0.248s1.64-1.795,1.212-2.746
		c-0.428-0.952-0.855-1.832-2.139-1.832s-3.707,0.845-4.063,1.55L-94.979,29.418z"/>
	<linearGradient id="SVGID_25_" gradientUnits="userSpaceOnUse" x1="-97.175" y1="29.6877" x2="-64.554" y2="29.6877">
		<stop  offset="0" style="stop-color:#FFFFFF"/>
		<stop  offset="1" style="stop-color:#C8C8C8"/>
	</linearGradient>
	<path fill="url(#SVGID_25_)" d="M-94.944,29.389c-1.176,0.141-1.141,1.232-1.212,1.338s3.208,2.643,3.208,2.643l6.595-0.246
		c0.749,0.422,2.958-0.74,2.958-0.74l3.957,0.035c0,0-0.25-0.318,0.143-0.811c0.393-0.494,1.283,0,1.283,0l1.105,0.035
		c0.356-1.197,1.497-1.338,1.497-1.338l0.096-1.064l8.458-3.937c1.461,1.268,1.176,2.994,1.176,2.994l-8.731,3.275l-0.82-0.105
		l-0.855,0.811l1.711-0.07l0.356-0.564l8.448-3.135c1.247,0.529,0.998,2.113,0.998,2.113l-0.179,0.564l-8.732,2.289h-0.998
		l-0.927-0.07c-1.462-0.635-1.711-0.141-1.711-0.141c-1.604,0.281-2.46-0.564-2.603-0.248c-0.143,0.318-2.994,0.178-2.994,0.178
		s-1.177-0.318-1.212-0.035c-0.036,0.281-2.21,0.914-2.21,0.914s-5.454,0-6.345,0c-0.892,0-1.533-0.352-1.533-0.352l-2.103-1.619
		c0,0-1.426-0.846-0.963-2.361c0.464-1.514,2.389-1.654,2.389-1.654L-94.944,29.389z"/>
	<linearGradient id="SVGID_26_" gradientUnits="userSpaceOnUse" x1="-94.9441" y1="28.7375" x2="-94.6941" y2="28.7375">
		<stop  offset="0" style="stop-color:#FFFFFF"/>
		<stop  offset="1" style="stop-color:#C8C8C8"/>
	</linearGradient>
	<line fill="url(#SVGID_26_)" x1="-94.694" y1="28.086" x2="-94.944" y2="29.389"/>
</g>
</svg>
