<?xml version="1.0" encoding="utf-8"?>
<!-- Generator: Adobe Illustrator 16.0.0, SVG Export Plug-In . SVG Version: 6.00 Build 0)  -->
<!DOCTYPE svg PUBLIC "-//W3C//DTD SVG 1.1//EN" "http://www.w3.org/Graphics/SVG/1.1/DTD/svg11.dtd">
<svg version="1.1" id="Layer_1" xmlns="http://www.w3.org/2000/svg" xmlns:xlink="http://www.w3.org/1999/xlink" x="0px" y="0px"
	 width="110.5px" height="115.779px" viewBox="0 0 110.5 115.779" enable-background="new 0 0 110.5 115.779" xml:space="preserve">
<g>
	<g>
		<g>
			<g>
				<g>
					<path fill="#FFFFFF" d="M87.775,53.653h-2.099c-1.303,0-2.361-1.058-2.361-2.36v-2.349c-0.779-0.234-1.529-0.548-2.236-0.933
						l-1.695,1.694c-0.447,0.449-1.043,0.695-1.677,0.695c-0.635,0-1.231-0.246-1.679-0.695l-1.492-1.494
						c-0.447-0.447-0.693-1.043-0.693-1.677s0.246-1.23,0.693-1.677l1.729-1.729c-0.338-0.645-0.619-1.34-0.838-2.069h-2.35
						c-1.302,0-2.36-1.06-2.36-2.361v-2.1c0-1.301,1.059-2.361,2.36-2.361h2.351c0.227-0.753,0.522-1.475,0.886-2.152l-1.776-1.776
						c-0.449-0.448-0.694-1.044-0.694-1.679s0.245-1.229,0.694-1.677l1.492-1.493c0.447-0.449,1.043-0.695,1.678-0.695
						c0.634,0,1.23,0.246,1.678,0.695l1.778,1.777c0.675-0.361,1.397-0.658,2.152-0.886v-2.349c0-1.302,1.058-2.363,2.36-2.363h2.1
						c1.303,0,2.361,1.062,2.361,2.363v2.349c0.733,0.22,1.426,0.5,2.069,0.836l1.729-1.729c0.447-0.448,1.042-0.694,1.676-0.694
						c0.635,0,1.23,0.246,1.678,0.694l1.493,1.493c0.448,0.448,0.694,1.043,0.694,1.678c0,0.636-0.246,1.23-0.694,1.678
						l-1.694,1.693c0.386,0.707,0.699,1.457,0.934,2.236h2.348c1.304,0,2.362,1.061,2.362,2.361v2.1
						c0,1.302-1.059,2.361-2.362,2.361h-2.348c-0.229,0.755-0.524,1.476-0.887,2.153l1.646,1.646
						c0.447,0.448,0.694,1.044,0.694,1.678s-0.247,1.23-0.694,1.677l-1.494,1.494c-0.447,0.448-1.042,0.694-1.677,0.694
						c-0.633,0-1.229-0.246-1.676-0.694l-1.646-1.647c-0.677,0.361-1.398,0.658-2.153,0.887v2.35
						C90.138,52.594,89.079,53.653,87.775,53.653z M80.99,47.358l0.175,0.099c0.776,0.442,1.613,0.792,2.483,1.038l0.191,0.054
						v2.744c0,1.014,0.823,1.836,1.837,1.836h2.1c1.014,0,1.836-0.824,1.836-1.836v-2.744l0.191-0.055
						c0.85-0.241,1.66-0.575,2.405-0.989l0.174-0.097l1.925,1.925c0.697,0.697,1.913,0.697,2.611,0l1.494-1.494
						c0.348-0.349,0.541-0.812,0.541-1.306s-0.193-0.958-0.541-1.308l-1.925-1.925l0.098-0.173c0.416-0.748,0.748-1.557,0.989-2.405
						l0.055-0.19h2.743c1.014,0,1.837-0.823,1.837-1.837v-2.1c0-1.012-0.823-1.836-1.837-1.836H97.63l-0.055-0.189
						c-0.246-0.873-0.596-1.711-1.038-2.486l-0.101-0.174l1.977-1.976c0.35-0.349,0.541-0.813,0.541-1.307
						c0-0.494-0.191-0.959-0.541-1.308l-1.492-1.493c-0.698-0.697-1.914-0.697-2.612,0l-2.006,2.005l-0.172-0.095
						c-0.712-0.389-1.495-0.704-2.326-0.94l-0.191-0.052v-2.744c0-1.013-0.823-1.838-1.837-1.838h-2.099
						c-1.015,0-1.837,0.825-1.837,1.838v2.744L83.649,26.8c-0.85,0.24-1.659,0.573-2.405,0.988l-0.173,0.097l-2.057-2.055
						c-0.697-0.698-1.914-0.698-2.612,0l-1.49,1.493c-0.35,0.349-0.542,0.812-0.542,1.307c0,0.492,0.192,0.958,0.542,1.308
						l2.056,2.055l-0.099,0.174c-0.416,0.747-0.749,1.557-0.989,2.405l-0.055,0.189h-2.743c-1.014,0-1.837,0.825-1.837,1.838v2.098
						c0,1.015,0.823,1.838,1.837,1.838h2.743l0.055,0.191c0.234,0.827,0.551,1.609,0.941,2.325l0.095,0.173l-2.005,2.005
						c-0.349,0.349-0.541,0.812-0.541,1.306c0,0.493,0.192,0.959,0.541,1.307l1.491,1.494c0.698,0.698,1.915,0.698,2.613,0
						L80.99,47.358z M86.728,44.207c-3.617,0-6.561-2.94-6.561-6.56c0-3.617,2.943-6.56,6.561-6.56c3.616,0,6.559,2.942,6.559,6.56
						S90.344,44.207,86.728,44.207z M86.728,31.611c-3.328,0-6.036,2.708-6.036,6.036s2.708,6.035,6.036,6.035
						s6.035-2.707,6.035-6.035C92.762,34.319,90.055,31.611,86.728,31.611z"/>
					<path fill="#777266" d="M102.209,36.596c0-1.011-0.825-1.836-1.837-1.836h-2.744l-0.055-0.189
						c-0.248-0.872-0.596-1.71-1.037-2.486l-0.1-0.174l1.977-1.975c0.35-0.35,0.541-0.814,0.541-1.309
						c0-0.493-0.191-0.959-0.541-1.307l-1.492-1.493c-0.698-0.698-1.914-0.698-2.612,0l-2.006,2.005l-0.172-0.094
						c-0.712-0.39-1.495-0.706-2.326-0.94l-0.191-0.053v-2.744c0-1.013-0.823-1.837-1.837-1.837h-2.099
						c-1.015,0-1.837,0.824-1.837,1.837v2.744L83.649,26.8c-0.85,0.24-1.659,0.573-2.405,0.99l-0.173,0.097l-2.057-2.055
						c-0.697-0.7-1.914-0.7-2.612,0l-1.49,1.492c-0.35,0.349-0.542,0.812-0.542,1.306c0,0.493,0.192,0.959,0.542,1.308l2.056,2.057
						l-0.099,0.173c-0.416,0.748-0.749,1.558-0.989,2.406l-0.055,0.188h-2.743c-1.014,0-1.837,0.825-1.837,1.837v2.1
						c0,1.014,0.823,1.837,1.837,1.837h2.743l0.055,0.19c0.234,0.827,0.551,1.61,0.941,2.326l0.095,0.172l-2.005,2.006
						c-0.349,0.349-0.541,0.812-0.541,1.307c0,0.492,0.192,0.957,0.541,1.306l1.491,1.494c0.698,0.698,1.915,0.698,2.613,0
						l1.977-1.978l0.173,0.099c0.778,0.443,1.615,0.792,2.484,1.038l0.192,0.054v2.744c0,1.014,0.824,1.836,1.837,1.836h2.098
						c1.015,0,1.838-0.822,1.838-1.836v-2.744l0.191-0.054c0.85-0.242,1.659-0.575,2.405-0.99l0.173-0.097l1.925,1.925
						c0.698,0.698,1.913,0.698,2.613,0l1.491-1.493c0.35-0.349,0.541-0.812,0.541-1.306c0-0.494-0.191-0.959-0.541-1.309
						l-1.924-1.925l0.099-0.173c0.416-0.746,0.749-1.555,0.989-2.405l0.055-0.19h2.743c1.014,0,1.838-0.822,1.838-1.836v-2.1
						H102.209L102.209,36.596z M86.728,44.207c-3.617,0-6.561-2.94-6.561-6.56c0-3.617,2.943-6.56,6.561-6.56
						c3.616,0,6.559,2.942,6.559,6.56S90.344,44.207,86.728,44.207z"/>
				</g>
			</g>
		</g>
	</g>
	<path opacity="0.6" fill="#C1BAAC" enable-background="new    " d="M75.826,40.534l0.055,0.191c0.062,0.218,0.13,0.432,0.201,0.642
		c1.152-1.669,2.551-3.212,4.153-4.601c0.432-3.2,3.175-5.679,6.493-5.679c0.836,0,1.632,0.164,2.367,0.448
		c2.985-1.137,6.247-1.875,9.683-2.132c0.113-0.24,0.178-0.503,0.178-0.776c0-0.493-0.193-0.959-0.54-1.307l-1.494-1.493
		c-0.698-0.698-1.913-0.698-2.612,0l-2.006,2.006l-0.173-0.095c-0.711-0.39-1.494-0.706-2.325-0.94l-0.193-0.053v-2.745
		c0-1.012-0.824-1.836-1.836-1.836h-2.1c-1.014,0-1.837,0.824-1.837,1.836v2.745L83.648,26.8c-0.849,0.24-1.659,0.573-2.404,0.989
		l-0.173,0.098l-2.057-2.056c-0.697-0.699-1.914-0.699-2.612,0l-1.491,1.492c-0.349,0.349-0.542,0.812-0.542,1.307
		c0,0.493,0.193,0.958,0.542,1.308l2.056,2.056l-0.098,0.174c-0.416,0.746-0.749,1.558-0.989,2.404l-0.055,0.19h-2.744
		c-1.014,0-1.838,0.825-1.838,1.837v2.099c0,1.015,0.825,1.838,1.838,1.838L75.826,40.534L75.826,40.534z"/>
	
		<linearGradient id="SVGID_1_" gradientUnits="userSpaceOnUse" x1="87.6094" y1="102.1863" x2="102.5654" y2="102.1863" gradientTransform="matrix(1 0 0 -1 -8.3599 139.8335)">
		<stop  offset="0" style="stop-color:#E6E6E6"/>
		<stop  offset="0.5398" style="stop-color:#FFFFFF"/>
		<stop  offset="1" style="stop-color:#C8C8C8"/>
	</linearGradient>
	<path fill="url(#SVGID_1_)" d="M86.728,30.169c-4.13,0-7.479,3.349-7.479,7.479c0,4.131,3.349,7.478,7.479,7.478
		c4.129,0,7.478-3.347,7.478-7.478C94.205,33.517,90.856,30.169,86.728,30.169z M86.727,41.714c-2.246,0-4.067-1.82-4.067-4.067
		c0-2.246,1.821-4.066,4.067-4.066s4.068,1.82,4.068,4.066C90.795,39.893,88.972,41.714,86.727,41.714z"/>
</g>
<g>
	<g>
		<path fill="#787366" d="M82.67,68.654c-6.938,0-12.562,5.625-12.562,12.562s5.624,12.562,12.562,12.562
			c6.938,0,12.562-5.624,12.562-12.562S89.608,68.654,82.67,68.654z M82.765,89.812c-4.643,0-8.407-3.765-8.407-8.407
			c0-4.645,3.765-8.408,8.407-8.408c4.645,0,8.408,3.764,8.408,8.408C91.173,86.048,87.409,89.812,82.765,89.812z"/>
		<linearGradient id="SVGID_2_" gradientUnits="userSpaceOnUse" x1="69.748" y1="81.2166" x2="95.5928" y2="81.2166">
			<stop  offset="0" style="stop-color:#FFFFFF"/>
			<stop  offset="1" style="stop-color:#C8C8C8"/>
		</linearGradient>
		<path fill="url(#SVGID_2_)" d="M82.67,94.139c-7.125,0-12.922-5.798-12.922-12.923s5.797-12.923,12.922-12.923
			c7.126,0,12.923,5.798,12.923,12.923S89.796,94.139,82.67,94.139z M82.67,69.014c-6.728,0-12.201,5.474-12.201,12.202
			s5.474,12.201,12.201,12.201c6.729,0,12.202-5.473,12.202-12.201S89.398,69.014,82.67,69.014z M82.765,90.172
			c-4.834,0-8.767-3.934-8.767-8.767c0-4.836,3.933-8.768,8.767-8.768c4.835,0,8.769,3.932,8.769,8.768
			C91.533,86.238,87.6,90.172,82.765,90.172z M82.765,73.357c-4.437,0-8.047,3.61-8.047,8.048c0,4.437,3.61,8.047,8.047,8.047
			c4.438,0,8.049-3.61,8.049-8.047C90.813,76.968,87.203,73.357,82.765,73.357z"/>
	</g>
	<g>
		<circle fill="#787366" cx="82.638" cy="81.465" r="5.671"/>
		<linearGradient id="SVGID_3_" gradientUnits="userSpaceOnUse" x1="76.6064" y1="81.4656" x2="88.6689" y2="81.4656">
			<stop  offset="0" style="stop-color:#FFFFFF"/>
			<stop  offset="1" style="stop-color:#C8C8C8"/>
		</linearGradient>
		<path fill="url(#SVGID_3_)" d="M82.637,87.496c-3.325,0-6.03-2.705-6.03-6.031c0-3.325,2.705-6.03,6.03-6.03
			c3.326,0,6.032,2.705,6.032,6.03C88.669,84.791,85.963,87.496,82.637,87.496z M82.637,76.154c-2.928,0-5.311,2.383-5.311,5.311
			s2.383,5.311,5.311,5.311c2.929,0,5.312-2.383,5.312-5.311S85.565,76.154,82.637,76.154z"/>
	</g>
	<g>
		<path fill="#787366" d="M19.43,70.952c-6.242,0-11.302,5.061-11.302,11.302s5.06,11.302,11.302,11.302
			c6.241,0,11.301-5.061,11.301-11.302S25.671,70.952,19.43,70.952z M19.515,89.987c-4.177,0-7.563-3.387-7.563-7.564
			c0-4.177,3.387-7.563,7.563-7.563c4.178,0,7.564,3.387,7.564,7.563C27.079,86.6,23.692,89.987,19.515,89.987z"/>
		<linearGradient id="SVGID_4_" gradientUnits="userSpaceOnUse" x1="7.7676" y1="82.2537" x2="31.0908" y2="82.2537">
			<stop  offset="0" style="stop-color:#FFFFFF"/>
			<stop  offset="1" style="stop-color:#C8C8C8"/>
		</linearGradient>
		<path fill="url(#SVGID_4_)" d="M19.43,93.916c-6.431,0-11.662-5.232-11.662-11.662c0-6.431,5.231-11.662,11.662-11.662
			c6.43,0,11.661,5.231,11.661,11.662C31.091,88.683,25.859,93.916,19.43,93.916z M19.43,71.312
			c-6.033,0-10.941,4.909-10.941,10.941c0,6.033,4.908,10.94,10.941,10.94c6.032,0,10.94-4.907,10.94-10.94
			C30.37,76.221,25.462,71.312,19.43,71.312z M19.515,90.346c-4.369,0-7.924-3.555-7.924-7.924s3.555-7.924,7.924-7.924
			s7.925,3.555,7.925,7.924S23.884,90.346,19.515,90.346z M19.515,75.219c-3.972,0-7.203,3.231-7.203,7.203
			c0,3.973,3.231,7.204,7.203,7.204c3.973,0,7.204-3.231,7.204-7.204C26.719,78.451,23.487,75.219,19.515,75.219z"/>
	</g>
	<g>
		<circle fill="#787366" cx="19.4" cy="82.477" r="5.102"/>
		<linearGradient id="SVGID_5_" gradientUnits="userSpaceOnUse" x1="13.9375" y1="82.4773" x2="24.8623" y2="82.4773">
			<stop  offset="0" style="stop-color:#FFFFFF"/>
			<stop  offset="1" style="stop-color:#C8C8C8"/>
		</linearGradient>
		<path fill="url(#SVGID_5_)" d="M19.399,87.939c-3.011,0-5.462-2.45-5.462-5.462s2.451-5.462,5.462-5.462
			c3.012,0,5.463,2.45,5.463,5.462S22.411,87.939,19.399,87.939z M19.399,77.735c-2.614,0-4.741,2.128-4.741,4.742
			s2.127,4.741,4.741,4.741c2.615,0,4.742-2.127,4.742-4.741S22.015,77.735,19.399,77.735z"/>
	</g>
	<g>
		<path fill="#787366" d="M82.401,73.445c0,0,1.921,2.701,2.281,3.962c0.359,1.261-14.167,6.363-14.167,6.363l14.173-5.162
			c0,0,1.555,3,1.614,4.021c0.061,1.021-15.188,4.562-15.188,4.562s-4.022-0.24-5.102-1.021c0,0-0.121,0.78-1.382,0.48
			c-1.26-0.301-2.161-0.121-2.161-0.121l-1.2-1.08c0,0,0.18,0.841-2.881,1.021c-3.062,0.181-3.723-0.841-3.723-0.841v0.841h-0.54
			v-0.78l-1.44,0.54l0.24,0.66l-1.562,0.301l-0.359-0.841l-0.601,0.359v0.481v0.54H38.579c0,0-1.921,1.44-7.083-4.983
			c0,0-0.061-2.94,1.98-3.901c2.042-0.961,3.002-1.2,3.002-1.2s-1.261-2.581-2.701-1.081c-1.441,1.501-1.562-1.08-1.562-1.08
			l0.241-2.521h-0.541l-0.721-0.239c0,0-0.3-2.341,0.78-1.921c1.081,0.42-1.62-0.062,1.081-1.621l-0.36-0.931h-1.539l-0.922,1.771
			c0,0-0.66,0.659-0.841-0.421l0.48-1.802c0,0,0-0.479-1.621-0.84l-0.78,0.901v4.862l2.102,1.98l-0.36,0.479l-4.263-2.101
			c0,0-2.701-1.981-10.024-0.78l-2.762-1.261c0,0,5.043-2.041,10.806-1.081l2.462-4.621c0,0-0.661-0.481-0.661-1.262h-1.021
			l-0.12,0.24h-1.141c0,0-1.681-4.562-0.119-7.804h1.08c0,0,3.121,0,3.962,2.762c0.84,2.762,0.54,1.021,0.54,1.021l-0.12-3.002
			l-0.66-0.18c0,0-1.98,1.201-2.401-2.461c-0.42-3.661,2.762-3.661,2.762-3.661l1.981,2.4l1.079,1.62l1.262,0.241l-0.36-1.441
			l1.44-0.78l1.081,1.021l0.12,0.841l0.72-0.601l-0.479-3.301l-1.321-0.241l-0.18-2.041c0,0,0.6-0.96,1.98-0.78l0.96-0.72
			c0,0-0.18-1.382-0.18-1.921c0-0.541,0.961-1.802,0.961-1.802s-0.36-1.8,0.24-2.701c0.6-0.9,1.381-2.881,2.581-3.361
			s0.479,3.722,0.479,3.722s-0.08,0.907-1.74,0.9c0,0-2.161,2.102-1.741,4.562s0.181,0.84,0.181,0.84l1.38,0.301l1.501-0.961
			c0,0,1.501,0.181,1.021,1.141l-1.681,0.961c0,0-0.12,1.141-1.021,1.44s-0.601,1.021-0.601,1.021l-2.101-0.24l0.3,3.062
			c0,0,1.981,0.36,2.281,1.921s-0.24,0.9-0.24,0.9s2.521-4.202,16.088-0.6c0,0,2.701,1.26,4.862,2.82s4.923,2.402,14.287-0.72
			c0,0,1.682-0.12,1.741,0.601c0.06,0.72,0.3-1.261,0.3-1.261h9.185c0,0,1.381-0.24,2.101,1.561c0.721,1.801-0.119,0.9-0.119,0.9
			l6.723,0.601c0,0,0.721,0.601,0.36,2.102c-0.36,1.5-0.84,1.86,1.561,5.252h-0.479c0,0-2.042-1.171-2.882-4.713
			s-0.3-0.479-0.3-0.479l-3.422,0.06l0.12,1.261c0,0-0.12,1.08-1.141,0.48c-1.021-0.601-1.261-1.44-1.261-1.44L82.04,63.36
			l-4.922,1.441l-5.943,5.583l0.061,0.42l0.721-0.062l2.341-2.761l1.08-0.119l0.181,0.72l-2.881,3.361v0.48l-2.282,2.882
			l2.642,2.521L82.401,73.445z"/>
		<linearGradient id="SVGID_6_" gradientUnits="userSpaceOnUse" x1="10.3447" y1="62.6296" x2="95.9189" y2="62.6296">
			<stop  offset="0" style="stop-color:#FFFFFF"/>
			<stop  offset="1" style="stop-color:#C8C8C8"/>
		</linearGradient>
		<path fill="url(#SVGID_6_)" d="M39.599,37.389c0.946,0,0.301,3.76,0.301,3.76s-0.079,0.9-1.721,0.9c-0.007,0-0.013,0-0.02,0
			c0,0-2.161,2.102-1.741,4.562c0.182,1.062,0.239,1.363,0.248,1.363c0.01,0-0.067-0.523-0.067-0.523l1.38,0.301l1.501-0.961
			c0,0,1.501,0.181,1.021,1.141l-1.681,0.961c0,0-0.12,1.141-1.021,1.44s-0.601,1.021-0.601,1.021l-2.101-0.24l0.3,3.062
			c0,0,1.981,0.36,2.281,1.921c0.042,0.221,0.068,0.397,0.081,0.537c-0.232,0.216-0.321,0.363-0.321,0.363s0.114,0.14,0.208,0.14
			c0.082,0,0.149-0.106,0.113-0.503c0.637-0.59,2.357-1.696,6.309-1.696c2.312,0,5.388,0.379,9.458,1.46c0,0,2.701,1.26,4.862,2.82
			c1.095,0.791,2.344,1.396,4.524,1.396c2.127,0,5.14-0.575,9.763-2.116c0,0,0.105-0.008,0.264-0.008
			c0.476,0,1.433,0.067,1.478,0.608c0.009,0.11,0.022,0.157,0.039,0.157c0.089,0,0.261-1.418,0.261-1.418h9.185
			c0,0,0.062-0.011,0.165-0.011c0.388,0,1.367,0.149,1.936,1.571c0.194,0.484,0.275,0.773,0.29,0.937l-0.409-0.036
			c0,0,0.21,0.226,0.33,0.226c0.056,0,0.092-0.049,0.079-0.189l6.313,0.564c0,0,0.721,0.601,0.36,2.102
			c-0.36,1.5-0.84,1.86,1.561,5.252h-0.479c0,0-2.042-1.171-2.882-4.713c-0.309-1.298-0.431-1.709-0.462-1.709
			c-0.056,0,0.162,1.229,0.162,1.229l-3.422,0.06l0.12,1.261c0,0-0.073,0.662-0.595,0.662c-0.145,0-0.324-0.051-0.546-0.182
			c-1.021-0.601-1.261-1.44-1.261-1.44L82.04,63.36l-4.922,1.441l-5.943,5.583l0.061,0.42l0.721-0.062l2.341-2.761l1.08-0.119
			l0.181,0.72l-2.881,3.361v0.48l-2.282,2.882l2.642,2.521l9.365-4.382c0,0,1.921,2.701,2.281,3.962
			c0.244,0.856-6.393,3.49-10.667,5.088l-3.5,1.275l0,0l0,0c0.002-0.001,1.49-0.523,3.5-1.275l10.673-3.887c0,0,1.555,3,1.614,4.021
			c0.061,1.021-15.188,4.562-15.188,4.562s-4.022-0.24-5.102-1.021c0,0-0.085,0.549-0.856,0.549c-0.147,0-0.322-0.021-0.525-0.068
			c-0.572-0.137-1.071-0.174-1.444-0.174c-0.448,0-0.717,0.053-0.717,0.053l-1.2-1.08c0,0,0.18,0.841-2.881,1.021
			c-0.248,0.015-0.481,0.021-0.698,0.021c-2.467,0-3.024-0.861-3.024-0.861v0.841h-0.54v-0.78l-1.44,0.54l0.24,0.66l-1.562,0.301
			l-0.359-0.841l-0.601,0.359v0.481v0.54H38.579c0,0-0.184,0.139-0.592,0.139c-0.908,0-2.928-0.687-6.491-5.122
			c0,0-0.061-2.94,1.98-3.901c2.042-0.961,3.002-1.2,3.002-1.2s-0.757-1.55-1.768-1.55c-0.294,0-0.609,0.132-0.934,0.469
			c-0.324,0.339-0.582,0.47-0.786,0.47c-0.703,0-0.775-1.55-0.775-1.55l0.241-2.521h-0.541l-0.721-0.239
			c0,0-0.252-1.972,0.541-1.972c0.068,0,0.146,0.015,0.23,0.046c0.104,0.101,0.229,0.148,0.268,0.148s-0.012-0.049-0.259-0.144
			c-0.003-0.002-0.006-0.004-0.009-0.005c-0.25-0.238-0.38-0.767,1.09-1.616l-0.36-0.931h-1.539l-0.922,1.771
			c0,0-0.2,0.199-0.41,0.199c-0.171,0-0.35-0.134-0.431-0.62l0.48-1.802c0,0,0-0.479-1.621-0.84l-0.78,0.901v4.862l2.102,1.98
			l-0.36,0.479l-4.263-2.101c0,0-1.591-1.167-5.641-1.167c-1.228,0-2.68,0.107-4.384,0.387l-2.762-1.261
			c0,0,3.305-1.337,7.621-1.337c1.016,0,2.087,0.073,3.185,0.256l2.462-4.621c0,0-0.661-0.481-0.661-1.262h-1.021l-0.12,0.24h-1.141
			c0,0-1.681-4.562-0.119-7.804h1.08c0,0,3.121,0,3.962,2.762c0.371,1.222,0.521,1.562,0.57,1.562c0.063,0-0.03-0.541-0.03-0.541
			l-0.12-3.002l-0.66-0.18c0,0-0.312,0.188-0.712,0.188c-0.612,0-1.436-0.438-1.689-2.649c-0.42-3.661,2.762-3.661,2.762-3.661
			l1.981,2.4l1.079,1.62l1.262,0.241l-0.36-1.441l1.44-0.78l1.081,1.021l0.12,0.841l0.72-0.601l-0.479-3.301l-1.321-0.241
			l-0.18-2.041c0,0,0.502-0.803,1.643-0.803c0.107,0,0.22,0.008,0.338,0.022l0.96-0.72c0,0-0.18-1.382-0.18-1.921
			c0-0.541,0.961-1.802,0.961-1.802s-0.36-1.8,0.24-2.701c0.6-0.9,1.381-2.881,2.581-3.361
			C39.484,37.401,39.544,37.389,39.599,37.389 M39.599,36.669c-0.147,0-0.297,0.03-0.446,0.09c-1.14,0.456-1.87,1.781-2.457,2.846
			c-0.166,0.301-0.323,0.585-0.456,0.785c-0.592,0.888-0.489,2.276-0.4,2.917c-0.407,0.566-0.921,1.398-0.921,1.985
			c0,0.392,0.078,1.126,0.134,1.595l-0.407,0.306c-0.042-0.002-0.084-0.002-0.125-0.002c-1.216,0-1.989,0.717-2.254,1.141
			l-0.128,0.205l0.021,0.24l0.181,2.041l0.048,0.547l0.54,0.099l0.812,0.147l0.201,1.381l-0.509-0.479l-0.38-0.358l-0.458,0.249
			l-1.44,0.78l-0.491,0.266l0.135,0.542l0.013,0.048l-0.695-1.042l-0.021-0.03l-0.023-0.028l-1.98-2.401l-0.216-0.263h-0.34
			c-0.065,0-1.61,0.014-2.643,1.171c-0.713,0.799-0.993,1.907-0.835,3.294c0.039,0.337,0.104,0.735,0.216,1.137
			c-0.306-0.055-0.586-0.078-0.82-0.078h-1.08h-0.453l-0.196,0.408c-1.674,3.477,0.021,8.167,0.093,8.365l0.174,0.471h0.502h1.141
			h0.445l0.109-0.218c0.096,0.258,0.229,0.474,0.363,0.645l-1.975,3.706c-0.904-0.125-1.84-0.188-2.788-0.188
			c-4.405,0-7.751,1.333-7.891,1.39l-1.552,0.629l1.522,0.694l2.762,1.261l0.199,0.091l0.216-0.035
			c1.526-0.25,2.962-0.377,4.268-0.377c3.701,0,5.207,1.022,5.222,1.032l0.052,0.037l0.049,0.023l4.263,2.102l0.536,0.264
			l0.358-0.479l0.36-0.48l0.386-0.515l-0.468-0.441l-1.875-1.768v-4.283l0.313-0.361c0.283,0.082,0.462,0.16,0.572,0.219
			l-0.381,1.43l-0.04,0.15l0.025,0.153c0.184,1.103,0.859,1.222,1.141,1.222c0.473,0,0.823-0.313,0.92-0.411l0.078-0.077
			l0.051-0.099l0.721-1.383h0.464c-0.554,0.41-0.859,0.815-0.943,1.245c-0.086,0.056-0.164,0.124-0.234,0.204
			c-0.557,0.633-0.465,1.885-0.399,2.394l0.058,0.448l0.429,0.144l0.7,0.233l-0.169,1.776l-0.005,0.051l0.002,0.052
			c0.051,1.08,0.47,2.235,1.495,2.235c0.433,0,0.859-0.226,1.306-0.69c0.108-0.112,0.269-0.247,0.414-0.247
			c0.192,0,0.433,0.192,0.65,0.442c-0.514,0.192-1.241,0.488-2.19,0.936c-2.438,1.146-2.397,4.429-2.396,4.567l0.005,0.247
			l0.154,0.19c1.977,2.459,4.804,5.39,7.053,5.39c0.336,0,0.588-0.067,0.761-0.138h11.657h0.721v-0.481l0.376-0.072l1.561-0.301
			l0.83-0.159l-0.091-0.247h0.325h0.54h0.721V86.89c0.542,0.184,1.287,0.323,2.304,0.323c0.236,0,0.486-0.008,0.74-0.023
			c1.409-0.082,2.361-0.303,2.933-0.688l0.625,0.564l0.269,0.241l0.354-0.07l0,0c0,0,0.218-0.039,0.575-0.039
			c0.419,0,0.849,0.051,1.278,0.153c0.246,0.059,0.479,0.088,0.691,0.088c0.487,0,0.838-0.148,1.084-0.35
			c1.516,0.593,4.228,0.784,4.831,0.82l0.104,0.007l0.102-0.023c0.039-0.01,3.867-0.901,7.639-1.905
			c2.224-0.592,3.996-1.107,5.267-1.533c0.784-0.263,1.371-0.486,1.792-0.687c0.379-0.179,1.086-0.514,1.046-1.183
			c-0.065-1.116-1.422-3.786-1.693-4.311l-0.117-0.228c0.169-0.244,0.254-0.525,0.163-0.84c-0.383-1.341-2.182-3.895-2.386-4.181
			l-0.349-0.49l-0.544,0.255l-8.918,4.173l-1.81-1.728l1.872-2.366l0.156-0.196v-0.251v-0.214l2.708-3.159l0.242-0.282l-0.09-0.362
			l-0.181-0.719l-0.152-0.611l-0.2,0.022l1.763-1.655l4.65-1.362l2.561,0.051c0.221,0.387,0.631,0.92,1.36,1.35
			c0.317,0.186,0.623,0.28,0.911,0.28c0.801,0,1.241-0.675,1.311-1.303l0.008-0.073l-0.007-0.074l-0.046-0.486l2.249-0.039
			c0.914,3.74,3.111,5.037,3.205,5.091l0.166,0.096h0.192h0.479h1.393l-0.805-1.137c-1.956-2.764-1.842-3.188-1.564-4.215
			c0.035-0.136,0.077-0.288,0.117-0.453c0.451-1.882-0.491-2.732-0.601-2.823l-0.173-0.144l-0.224-0.02l-5.802-0.52
			c-0.052-0.154-0.116-0.331-0.197-0.532c-0.751-1.879-2.184-2.024-2.604-2.024c-0.088,0-0.159,0.005-0.211,0.011h-9.139h-0.639
			l-0.076,0.634c-0.006,0.044-0.011,0.089-0.018,0.135c-0.277-0.073-0.621-0.115-1.045-0.115c-0.179,0-0.301,0.008-0.315,0.009
			l-0.09,0.006l-0.086,0.029c-4.198,1.399-7.316,2.079-9.535,2.079c-1.957,0-3.056-0.503-4.103-1.26
			c-2.19-1.582-4.866-2.837-4.979-2.89l-0.058-0.027L53.712,55.7c-3.707-0.983-6.951-1.482-9.644-1.482
			c-2.961,0-4.772,0.604-5.844,1.206c-0.451-1.074-1.508-1.587-2.158-1.809l-0.165-1.684l1.216,0.139l1.375,0.157l-0.62-1.136l0,0
			c0.021-0.016,0.068-0.046,0.155-0.074c0.856-0.286,1.273-1.061,1.435-1.662l1.396-0.798l0.189-0.107l0.098-0.195
			c0.296-0.591,0.141-1.049,0.022-1.269c-0.393-0.729-1.402-0.886-1.602-0.91l-0.257-0.03l-0.217,0.14l-1.25,0.8l-0.652-0.142
			c-0.019-0.105-0.039-0.223-0.062-0.353c-0.283-1.663,0.891-3.2,1.354-3.73c1.779-0.113,2.08-1.218,2.127-1.489h0.001
			c0.005-0.032,0.134-0.789,0.194-1.642c0.121-1.723-0.148-2.282-0.397-2.577C40.199,36.805,39.911,36.669,39.599,36.669
			L39.599,36.669z"/>
	</g>
	<linearGradient id="SVGID_7_" gradientUnits="userSpaceOnUse" x1="33.0576" y1="62.3113" x2="59.3457" y2="62.3113">
		<stop  offset="0" style="stop-color:#FFFFFF"/>
		<stop  offset="1" style="stop-color:#C8C8C8"/>
	</linearGradient>
	<path opacity="0.8" fill="url(#SVGID_7_)" d="M35.938,60.419l-2.881,4.383l5.103,4.862c0,0,1.801,0.203,1.38-1.01
		c-0.42-1.212,4.442-1.332,4.442-1.332l1.201,1.332c0,0,0.9,0.949,1.98-0.19c0,0-4.022-4.082-2.941-5.403
		c1.08-1.32,0.959-2.941,9.124-2.341c0,0,1.321,0.18,3.482,2.16V61.8c0,0,0.42-1.32,1.86-0.96c1.441,0.359,0.119-1.326-0.301-1.622
		c-0.42-0.295-4.925-4.154-13.627-4.268c0,0-5.001-0.18-7.002,1.684l-0.021,0.544l-0.301-0.181l-0.659,1.201l-0.66,0.239
		L35.938,60.419z"/>
	<g>
		<g>
			
				<linearGradient id="SVGID_8_" gradientUnits="userSpaceOnUse" x1="620.6309" y1="1825.5476" x2="620.6309" y2="1828.3688" gradientTransform="matrix(1 0 0 1 -580.2383 -1764.834)">
				<stop  offset="0" style="stop-color:#FFFFFF"/>
				<stop  offset="1" style="stop-color:#9D9B99"/>
			</linearGradient>
			<circle fill="url(#SVGID_8_)" cx="40.392" cy="62.12" r="1.444"/>
			<path fill="#817D7C" d="M40.392,63.654c-0.846,0-1.534-0.688-1.534-1.534c0-0.847,0.688-1.535,1.534-1.535
				s1.534,0.688,1.534,1.535C41.926,62.966,41.237,63.654,40.392,63.654z M40.392,60.764c-0.747,0-1.354,0.608-1.354,1.355
				c0,0.746,0.607,1.354,1.354,1.354s1.354-0.607,1.354-1.354C41.746,61.373,41.139,60.764,40.392,60.764z"/>
		</g>
		<g>
			
				<linearGradient id="SVGID_9_" gradientUnits="userSpaceOnUse" x1="619.9082" y1="1825.5261" x2="619.9082" y2="1826.9393" gradientTransform="matrix(1 0 0 1 -580.2383 -1764.834)">
				<stop  offset="0" style="stop-color:#13599D"/>
				<stop  offset="1" style="stop-color:#0E4A89"/>
			</linearGradient>
			<path fill="url(#SVGID_9_)" d="M38.947,62.12h1.444v-1.447C39.595,60.673,38.947,61.32,38.947,62.12z"/>
			
				<linearGradient id="SVGID_10_" gradientUnits="userSpaceOnUse" x1="621.3535" y1="1826.9714" x2="621.3535" y2="1828.3855" gradientTransform="matrix(1 0 0 1 -580.2383 -1764.834)">
				<stop  offset="0" style="stop-color:#13599D"/>
				<stop  offset="1" style="stop-color:#0E4A89"/>
			</linearGradient>
			<path fill="url(#SVGID_10_)" d="M40.392,62.118v1.446c0.799,0,1.444-0.647,1.444-1.446H40.392z"/>
		</g>
		<g>
			
				<linearGradient id="SVGID_11_" gradientUnits="userSpaceOnUse" x1="469.7725" y1="1473.6638" x2="473.0088" y2="1473.6638" gradientTransform="matrix(1 0 0 1 -430.999 -1411.543)">
				<stop  offset="0" style="stop-color:#FFFFFF"/>
				<stop  offset="1" style="stop-color:#C7C8C8"/>
			</linearGradient>
			<path fill="url(#SVGID_11_)" d="M40.392,63.738c-0.893,0-1.618-0.727-1.618-1.618s0.726-1.618,1.618-1.618
				c0.892,0,1.618,0.727,1.618,1.618C42.011,63.011,41.285,63.738,40.392,63.738z M40.392,60.849c-0.702,0-1.271,0.569-1.271,1.271
				c0,0.699,0.57,1.27,1.271,1.27s1.271-0.57,1.271-1.27C41.662,61.42,41.092,60.849,40.392,60.849z"/>
		</g>
	</g>
	<ellipse fill="#787366" cx="44.011" cy="56.197" rx="2.402" ry="0.928"/>
	<g>
		<path fill="#C0B9AB" d="M23.66,83.652l-2.704,0.085c0,0,0.3-0.479-0.421-0.9c-0.72-0.421,2.882-1.981,2.882-1.981l0.06-1.021
			l-1.561,0.301l1.501-3.782h0.541l1.2-3.001l1.98-4.502l0.9-2.281l3.781-7.624l0.435-0.965c0.06-0.02,0.104-0.051,0.126-0.096
			c0.103-0.212-0.312-0.625-0.925-0.923c-0.614-0.298-1.194-0.366-1.297-0.155c-0.008,0.015-0.011,0.029-0.014,0.045
			c-0.002-0.003-0.004-0.005-0.005-0.008l-3.963,8.585l-1.17,2.371l-1.314,3.232c0,0-1.921-0.274-3.422-0.335
			s0.024,1.574,0.024,1.574c1.02,1.682-1.081,3.002-1.081,3.002l-1.561,4.562c0,0,0,1.321,1.561,0.661l0.3,0.185l-1.32,2.816
			c0,0-0.479,2.221,1.621,1.621c1.223-0.351,2.832-0.476,3.964-0.52 M20.476,79.235l-0.42-0.42l1.141-2.161l0.696-1.155
			c0.053,0.084,0.118,0.169,0.203,0.254L20.476,79.235z"/>
		<path fill="#787366" d="M19.169,85.31c-0.312,0-0.563-0.087-0.75-0.262c-0.536-0.502-0.322-1.527-0.312-1.571l0.007-0.018
			l1.286-2.745l-0.192-0.118c-0.537,0.219-0.957,0.231-1.249,0.038c-0.389-0.258-0.394-0.778-0.394-0.8l0.005-0.028l1.571-4.593
			l0.026-0.018c0.005-0.003,0.519-0.33,0.901-0.851c0.499-0.681,0.552-1.36,0.155-2.02c-0.117-0.127-0.878-0.976-0.665-1.442
			c0.092-0.199,0.333-0.291,0.717-0.276c1.327,0.053,3.001,0.276,3.361,0.327l1.287-3.169l1.174-2.377l4.029-8.731l0.018,0.026
			c0.228-0.19,0.822-0.059,1.351,0.197c0.306,0.148,0.574,0.33,0.756,0.511c0.261,0.261,0.259,0.434,0.211,0.532
			c-0.027,0.056-0.074,0.099-0.141,0.128l-0.418,0.931l-3.783,7.626l-0.897,2.275l-1.982,4.505l-1.222,3.055h-0.54l-1.418,3.573
			l1.513-0.291l-0.07,1.191l-0.05,0.021c-1.119,0.484-2.901,1.389-2.923,1.754c0,0.012-0.002,0.036,0.051,0.066
			c0.283,0.165,0.454,0.361,0.509,0.582c0.029,0.119,0.019,0.225-0.001,0.303l2.569-0.081l0.005,0.18l-2.873,0.091l0.09-0.144
			c0.003-0.005,0.079-0.134,0.034-0.309c-0.044-0.171-0.187-0.328-0.424-0.466c-0.122-0.072-0.144-0.167-0.14-0.234
			c0.034-0.563,2.382-1.623,2.979-1.885l0.051-0.851l-1.609,0.31l1.584-3.991h0.541l1.178-2.945l1.982-4.505l0.898-2.277
			l3.785-7.632l0.449-0.996l0.037-0.013c0.026-0.009,0.061-0.024,0.073-0.051c0.022-0.047-0.01-0.159-0.177-0.325
			c-0.167-0.167-0.419-0.336-0.706-0.477c-0.629-0.305-1.117-0.32-1.177-0.196c-0.003,0.005-0.005,0.011-0.006,0.018L30.198,57.1
			l-0.045-0.07l-3.894,8.436l-1.171,2.374l-1.339,3.292l-0.069-0.01c-0.019-0.004-1.934-0.275-3.412-0.335
			c-0.211-0.01-0.474,0.015-0.546,0.171c-0.127,0.277,0.324,0.915,0.639,1.252l0.011,0.015c0.438,0.722,0.382,1.492-0.161,2.231
			c-0.356,0.484-0.806,0.8-0.921,0.876l-1.545,4.517c0.004,0.076,0.035,0.453,0.312,0.636c0.247,0.163,0.625,0.14,1.122-0.071
			l0.043-0.018l0.408,0.251l-1.351,2.879c-0.02,0.102-0.175,0.983,0.262,1.392c0.256,0.24,0.676,0.278,1.249,0.114
			c1.229-0.352,2.846-0.478,3.984-0.522l0.007,0.18c-1.129,0.044-2.729,0.169-3.942,0.516C19.592,85.275,19.368,85.31,19.169,85.31z
			 M20.503,79.389l-0.559-0.559l1.172-2.22l0.774-1.282l0.077,0.123c0.056,0.086,0.118,0.164,0.192,0.237l0.044,0.045L20.503,79.389
			z M20.166,78.799l0.282,0.281l1.54-3.309c-0.031-0.034-0.062-0.07-0.09-0.107L21.272,76.7L20.166,78.799z"/>
	</g>
	<g>
		<linearGradient id="SVGID_12_" gradientUnits="userSpaceOnUse" x1="17.5645" y1="70.9519" x2="32.4868" y2="70.9519">
			<stop  offset="0" style="stop-color:#FFFFFF"/>
			<stop  offset="1" style="stop-color:#C8C8C8"/>
		</linearGradient>
		<path fill="url(#SVGID_12_)" d="M23.781,84.689c-1.121,0.044-2.729,0.169-3.941,0.515c-0.247,0.071-0.473,0.106-0.671,0.106
			c-0.364,0-0.646-0.119-0.837-0.355c-0.425-0.526-0.233-1.438-0.226-1.478l0.007-0.019l1.286-2.744l-0.192-0.118
			c-0.284,0.115-0.537,0.174-0.754,0.174c-0.703,0-0.889-0.611-0.889-0.936l0.005-0.028l1.571-4.593l0.026-0.018
			c0.005-0.003,0.519-0.33,0.901-0.851c0.499-0.681,0.552-1.36,0.155-2.02c-0.117-0.126-0.871-0.968-0.668-1.436
			c0.089-0.203,0.323-0.299,0.72-0.283c1.327,0.053,3.001,0.276,3.361,0.327l1.287-3.169l1.174-2.377l4.029-8.731l0.018,0.027
			c0.06-0.051,0.16-0.091,0.327-0.091c0.274,0,0.647,0.104,1.023,0.287c0.306,0.148,0.574,0.33,0.756,0.512
			c0.261,0.26,0.259,0.433,0.211,0.531c-0.027,0.056-0.074,0.099-0.141,0.128l-0.418,0.931l-3.783,7.626l-0.897,2.275l-1.982,4.505
			l-1.222,3.055h-0.54l-1.418,3.572l1.513-0.29l-0.07,1.191l-0.05,0.021c-1.119,0.484-2.901,1.389-2.923,1.754
			c0,0.012-0.002,0.036,0.051,0.066c0.283,0.165,0.454,0.361,0.509,0.582c0.029,0.119,0.019,0.225-0.001,0.303l2.93-0.092
			 M23.66,83.742l-2.87,0.091l0.09-0.144c0.003-0.005,0.079-0.135,0.034-0.309c-0.044-0.171-0.187-0.328-0.424-0.466
			c-0.122-0.072-0.144-0.167-0.14-0.234c0.034-0.563,2.382-1.623,2.979-1.885l0.051-0.851l-1.609,0.31l1.584-3.991h0.541
			l1.178-2.945l1.982-4.505l0.898-2.277l3.785-7.631l0.449-0.997l0.037-0.013c0.026-0.009,0.061-0.025,0.073-0.051
			c0.022-0.046-0.01-0.159-0.177-0.325c-0.167-0.167-0.419-0.336-0.706-0.477c-0.348-0.168-0.701-0.269-0.945-0.269
			c-0.123,0-0.21,0.027-0.231,0.072c-0.003,0.005-0.005,0.011-0.006,0.018l-0.036,0.235l-0.045-0.069l-3.894,8.436l-1.171,2.374
			l-1.339,3.292l-0.069-0.01c-0.019-0.003-1.934-0.276-3.412-0.335c-0.309-0.012-0.492,0.048-0.548,0.175
			c-0.121,0.278,0.328,0.914,0.641,1.248l0.011,0.015c0.438,0.722,0.382,1.493-0.161,2.231c-0.356,0.484-0.806,0.799-0.921,0.875
			l-1.545,4.519c0.004,0.106,0.055,0.741,0.708,0.741c0.204,0,0.447-0.06,0.727-0.178l0.043-0.018l0.408,0.251l-1.351,2.879
			c-0.019,0.095-0.158,0.884,0.192,1.316c0.246,0.305,0.694,0.367,1.318,0.189c1.124-0.321,2.581-0.454,3.688-0.509 M20.503,79.389
			l-0.559-0.559l1.172-2.22l0.774-1.282l0.077,0.122c0.056,0.087,0.118,0.165,0.192,0.238l0.044,0.045L20.503,79.389z
			 M20.166,78.798l0.282,0.282l1.54-3.309c-0.031-0.034-0.062-0.07-0.091-0.107L21.272,76.7L20.166,78.798z"/>
		<linearGradient id="SVGID_13_" gradientUnits="userSpaceOnUse" x1="17.4746" y1="70.9363" x2="32.5771" y2="70.9363">
			<stop  offset="0" style="stop-color:#FFFFFF"/>
			<stop  offset="1" style="stop-color:#C8C8C8"/>
		</linearGradient>
		<path fill="url(#SVGID_13_)" d="M19.169,85.4c-0.394,0-0.699-0.131-0.907-0.39c-0.453-0.561-0.252-1.512-0.243-1.551l0.009-0.029
			l1.257-2.682l-0.086-0.053c-0.277,0.109-0.527,0.164-0.745,0.164c-0.774,0-0.979-0.67-0.979-1.025l0.006-0.043l1.584-4.637
			l0.055-0.034c0.005-0.004,0.505-0.323,0.876-0.829c0.475-0.646,0.526-1.289,0.155-1.912c-0.167-0.181-0.898-1.018-0.677-1.525
			c0.105-0.243,0.369-0.353,0.805-0.337c1.263,0.051,2.849,0.256,3.301,0.317l1.262-3.104l1.176-2.383l4.098-8.877l0.058,0.09
			c0.273-0.129,0.814-0.027,1.362,0.239c0.314,0.152,0.591,0.339,0.78,0.527c0.299,0.299,0.289,0.51,0.229,0.635
			c-0.032,0.065-0.083,0.118-0.152,0.154l-0.405,0.901l-3.785,7.63l-0.895,2.268l-1.983,4.509l-1.243,3.109h-0.54l-1.334,3.362
			l1.466-0.281l-0.081,1.362l-0.101,0.043c-1.477,0.641-2.786,1.4-2.865,1.657c0.312,0.187,0.493,0.399,0.553,0.642
			c0.02,0.076,0.025,0.153,0.019,0.23l2.82-0.089l0.006,0.181l-0.363,0.012l0.006,0.18l-3.04,0.095l0.18-0.286c0,0,0,0-0.001,0
			c0,0,0.059-0.102,0.024-0.238c-0.038-0.146-0.166-0.285-0.382-0.41c-0.171-0.1-0.189-0.242-0.185-0.317
			c0.035-0.581,2.057-1.534,2.983-1.94l0.039-0.679l-1.656,0.317l1.668-4.2h0.54l1.155-2.889l1.984-4.508l0.897-2.274l3.788-7.638
			l0.463-1.03l0.074-0.024c0.008-0.003,0.014-0.005,0.018-0.007c-0.007-0.031-0.041-0.106-0.155-0.221
			c-0.16-0.16-0.403-0.323-0.683-0.458c-0.336-0.163-0.674-0.261-0.905-0.261c-0.102,0-0.147,0.021-0.155,0.027l-0.065,0.457
			l-0.085-0.132l-3.824,8.287l-1.173,2.376l-1.361,3.351l-0.14-0.02c-0.019-0.003-1.924-0.274-3.403-0.334
			c-0.259-0.011-0.423,0.033-0.461,0.121c-0.085,0.196,0.254,0.753,0.623,1.15l0.017,0.021c0.465,0.763,0.407,1.569-0.16,2.34
			c-0.341,0.462-0.762,0.773-0.918,0.88l-1.529,4.473c0.008,0.139,0.076,0.638,0.617,0.638c0.191,0,0.424-0.058,0.691-0.171
			l0.086-0.035l0.516,0.318l-1.379,2.941c-0.06,0.311-0.087,0.908,0.175,1.232c0.222,0.273,0.634,0.326,1.224,0.158
			c1.154-0.329,2.653-0.46,3.708-0.512l0.009,0.18c0.102-0.005,0.2-0.009,0.295-0.014l0.007,0.181
			c-1.125,0.044-2.719,0.169-3.92,0.511C19.61,85.364,19.376,85.4,19.169,85.4z M18.192,83.507c0,0-0.189,0.896,0.21,1.392
			c0.031,0.039,0.064,0.074,0.102,0.105c-0.037-0.031-0.07-0.066-0.102-0.105C18.025,84.431,18.175,83.601,18.192,83.507l0.007-0.02
			l1.315-2.807l0,0L18.192,83.507L18.192,83.507z M20.997,83.636c-0.016,0.056-0.035,0.091-0.04,0.099l-0.001,0.002l1.38-0.043
			l-1.364,0.043L20.997,83.636z M21.007,83.384c0.008,0.036,0.011,0.07,0.012,0.103C21.018,83.452,21.014,83.418,21.007,83.384z
			 M20.769,83.003c0.114,0.103,0.189,0.213,0.226,0.33C20.959,83.216,20.883,83.105,20.769,83.003z M20.44,82.7
			c0.001,0.051,0.028,0.094,0.082,0.129C20.469,82.794,20.441,82.751,20.44,82.7z M23.417,80.855l-0.051,0.022
			c-0.744,0.325-1.386,0.645-1.877,0.93C22.317,81.335,23.345,80.887,23.417,80.855L23.417,80.855z M18.052,80.585
			c0.104,0.058,0.232,0.094,0.39,0.096C18.286,80.678,18.157,80.642,18.052,80.585z M18.956,80.592
			c-0.18,0.058-0.344,0.087-0.489,0.089C18.612,80.678,18.776,80.649,18.956,80.592z M17.654,79.837l-0.001,0.013
			c0,0.162,0.058,0.417,0.229,0.602c-0.151-0.163-0.221-0.391-0.228-0.599L17.654,79.837z M22.707,78.142l-0.791,1.993
			L22.707,78.142z M19.215,75.273l-1.561,4.562l0.005-0.015L19.215,75.273l0.025-0.017c0.124-0.082,0.555-0.388,0.897-0.854
			c0.026-0.035,0.052-0.071,0.075-0.107c-0.022,0.034-0.047,0.069-0.072,0.104C19.753,74.927,19.231,75.262,19.215,75.273z
			 M23.417,76.353h0.541H23.417z M19.628,70.955c-0.111,0.35,0.358,0.983,0.661,1.31l0.012,0.016
			c0.006,0.009,0.011,0.019,0.017,0.029c-0.007-0.013-0.015-0.025-0.021-0.038l-0.006-0.006
			C20.011,71.965,19.517,71.308,19.628,70.955z M23.464,71.001c0.14,0.02,0.222,0.03,0.229,0.031l0,0l-0.069-0.01
			C23.587,71.017,23.532,71.01,23.464,71.001z M20.215,70.696c0.019,0,0.037,0,0.057,0.001c0.169,0.007,0.344,0.017,0.52,0.028
			c-0.177-0.012-0.351-0.021-0.52-0.028C20.252,70.696,20.233,70.696,20.215,70.696z M27.547,62.463l-1.367,2.963l-1.175,2.38
			l-0.826,2.033l0.826-2.033l1.175-2.38L27.547,62.463z M29.066,64.499l-1.03,2.077l-0.333,0.844l0.333-0.844L29.066,64.499z
			 M32.387,57.872c-0.002,0.005-0.004,0.009-0.006,0.013c-0.013,0.026-0.034,0.05-0.063,0.068c0.029-0.019,0.05-0.041,0.063-0.068
			C32.383,57.881,32.385,57.877,32.387,57.872z M30.472,56.684c0.257,0,0.625,0.104,0.984,0.278
			c0.142,0.068,0.275,0.145,0.396,0.224c-0.121-0.079-0.254-0.155-0.396-0.224C31.092,56.786,30.733,56.684,30.472,56.684z
			 M20.53,79.545l-0.696-0.697l1.202-2.278l0.853-1.411l0.155,0.245c0.052,0.081,0.11,0.153,0.18,0.223l0.089,0.089L20.53,79.545z
			 M20.476,79.235L20.476,79.235l1.295-2.782L20.476,79.235z M20.056,78.814l0.354,0.355L20.056,78.814z M20.276,78.781l0.145,0.145
			l1.301-2.796l-0.372,0.617L20.276,78.781z M21.558,76.055l-0.364,0.603l-1.039,1.97l1.039-1.97L21.558,76.055z M21.98,75.624
			c0.023,0.029,0.049,0.058,0.074,0.086l0.041,0.045v-0.002C22.055,75.712,22.017,75.669,21.98,75.624z M21.889,75.505l0.074,0.096
			c-0.024-0.032-0.048-0.065-0.07-0.102L21.889,75.505z"/>
	</g>
	<linearGradient id="SVGID_14_" gradientUnits="userSpaceOnUse" x1="18.8301" y1="83.8904" x2="19.9697" y2="83.8904">
		<stop  offset="0" style="stop-color:#FFFFFF"/>
		<stop  offset="1" style="stop-color:#C8C8C8"/>
	</linearGradient>
	<path fill="url(#SVGID_14_)" d="M19.399,84.461c-0.314,0-0.569-0.256-0.569-0.57s0.255-0.57,0.569-0.57s0.57,0.256,0.57,0.57
		S19.714,84.461,19.399,84.461z M19.399,83.501c-0.215,0-0.39,0.174-0.39,0.39c0,0.215,0.175,0.39,0.39,0.39
		c0.216,0,0.391-0.175,0.391-0.39C19.79,83.675,19.615,83.501,19.399,83.501z"/>
	<linearGradient id="SVGID_15_" gradientUnits="userSpaceOnUse" x1="58.5869" y1="67.5203" x2="72.5332" y2="67.5203">
		<stop  offset="0" style="stop-color:#FFFFFF"/>
		<stop  offset="1" style="stop-color:#C8C8C8"/>
	</linearGradient>
	<path fill="url(#SVGID_15_)" d="M63.47,70.667c-0.15,0-0.303-0.012-0.453-0.036c-0.963-0.152-0.98-1.821-0.977-2.096l-3.453-4.037
		l0.173-0.017c0.012-0.001,1.159-0.107,1.797-0.107c0.404,0,0.483,0.038,0.506,0.124c0.009,0.034,0.006,0.083-0.058,0.131
		c0.209,0.263,2.135,1.15,3.957,1.891l4.958-0.777c0.026-0.006,0.792-0.181,1.484-0.181c0.559,0,0.915,0.117,1.058,0.349
		c0.108,0.176,0.093,0.404-0.046,0.683c-0.466,0.932-1.444,1.128-2.182,1.128l0,0c-0.326,0-0.573-0.039-0.652-0.054
		c-1.675,0.623-4.202,1.688-4.367,2.101C65,70.305,64.298,70.667,63.47,70.667z M58.951,64.645l3.271,3.825l-0.002,0.035
		c0,0.018-0.046,1.811,0.825,1.947c0.142,0.022,0.284,0.034,0.425,0.034c0.756,0,1.391-0.317,1.578-0.787
		c0.248-0.619,4.061-2.05,4.494-2.21l0.024-0.01l0.026,0.006c0.002,0,0.272,0.055,0.642,0.055l0,0c0.688,0,1.595-0.179,2.021-1.029
		c0.108-0.218,0.127-0.389,0.054-0.507c-0.106-0.172-0.419-0.264-0.904-0.264c-0.672,0-1.442,0.177-1.45,0.178l-5.013,0.786
		l-0.023-0.01c-1.227-0.497-4.08-1.694-4.105-2.072c-0.002-0.021,0.001-0.041,0.009-0.06c-0.054-0.005-0.137-0.009-0.265-0.009
		C60.075,64.554,59.296,64.616,58.951,64.645z M63.672,69.884c-0.358,0-0.65-0.283-0.65-0.631c0-0.347,0.292-0.63,0.65-0.63
		c0.357,0,0.649,0.283,0.649,0.63C64.321,69.6,64.029,69.884,63.672,69.884z M63.672,68.802c-0.26,0-0.47,0.202-0.47,0.45
		s0.21,0.45,0.47,0.45c0.259,0,0.47-0.202,0.47-0.45S63.931,68.802,63.672,68.802z M65.575,68.156l-0.038-0.046
		c-0.01-0.011-0.097-0.121-0.079-0.325c0.029-0.315,0.284-0.673,0.758-1.062l0.016-0.014l0.021-0.005
		c0.085-0.018,2.09-0.452,2.929-0.452c0.221,0,0.34,0.028,0.399,0.094c0.077,0.087,0.126,0.159,0.107,0.235
		c-0.02,0.078-0.095,0.107-0.168,0.134c-0.072,0.027-0.162,0.061-0.243,0.141c-0.243,0.244-3.079,1.112-3.646,1.283L65.575,68.156z
		 M66.312,66.876c-0.711,0.591-0.699,0.943-0.66,1.068c1.298-0.395,3.337-1.056,3.497-1.216c0.109-0.108,0.229-0.152,0.309-0.183
		c0.013-0.005,0.028-0.011,0.041-0.016c-0.01-0.014-0.025-0.034-0.052-0.063c-0.001-0.001-0.043-0.034-0.266-0.034
		C68.407,66.432,66.534,66.829,66.312,66.876z M62.341,67.615l-2.298-2.114l0.773-0.31l2.078,1.162
		c0.064,0.043,0.563,0.395,0.478,0.755c-0.061,0.257-0.385,0.421-0.99,0.502L62.341,67.615z M60.375,65.562l2.025,1.863
		c0.64-0.092,0.774-0.264,0.796-0.359c0.049-0.204-0.278-0.479-0.396-0.56l-1.996-1.116L60.375,65.562z"/>
	<g>
		<path fill="#C0B9AB" d="M58.625,59.285c0,0,1.439,1.557,0,1.378c-1.441-0.178-2.031,0.59-1.977,2.037l1.307,1.494h2.83
			c0,0,0.215,0.676,3.997,2.145c0,0,6.531-0.467,6.79-0.939c0.259-0.472,3.2-2.588,3.2-2.588l10.984-2.148
			c0,0,1.321-1.318-1.38-3.119l-9.84,0.113l-0.186,1.568c0,0-0.271-1.268-1.593-0.915C71.438,58.662,61.771,62.071,58.625,59.285z"
			/>
		<path fill="#787366" d="M64.769,66.43l-0.019-0.008c-3.219-1.249-3.883-1.931-4.018-2.139h-2.818l-1.354-1.549l-0.001-0.032
			c-0.029-0.782,0.13-1.358,0.474-1.716c0.349-0.361,0.888-0.501,1.604-0.413c0.072,0.009,0.139,0.014,0.197,0.014h0.001
			c0.181,0,0.29-0.041,0.326-0.121c0.101-0.232-0.315-0.811-0.603-1.121l0.127-0.128c0.797,0.706,2.106,1.063,3.891,1.063
			c3.426,0,7.662-1.298,9.471-1.853c0.318-0.098,0.548-0.168,0.689-0.205c0.162-0.043,0.317-0.065,0.462-0.065
			c0.62,0,0.947,0.395,1.107,0.699l0.152-1.289l9.946-0.114l0.023,0.016c1.08,0.72,1.665,1.454,1.736,2.181
			c0.065,0.662-0.325,1.06-0.342,1.076l-0.02,0.02l-0.027,0.006l-10.966,2.145c-0.825,0.595-2.955,2.177-3.157,2.546
			c-0.27,0.491-5.764,0.908-6.863,0.986L64.769,66.43z M57.995,64.103h2.856l0.02,0.063c0.01,0.023,0.319,0.68,3.925,2.081
			c3.116-0.224,6.518-0.611,6.697-0.892c0.266-0.484,3.105-2.53,3.227-2.617l0.035-0.016l10.956-2.143
			c0.069-0.081,0.323-0.416,0.272-0.916c-0.066-0.656-0.631-1.357-1.634-2.03l-9.732,0.112l-0.239,2.022l-0.114-0.526
			c-0.008-0.036-0.207-0.904-1.066-0.904c-0.129,0-0.269,0.02-0.415,0.059c-0.139,0.037-0.379,0.11-0.684,0.204
			c-1.816,0.557-6.07,1.86-9.523,1.86c-1.487,0-2.656-0.247-3.488-0.733c0.18,0.271,0.332,0.594,0.237,0.811
			c-0.066,0.151-0.231,0.229-0.49,0.229l0,0c-0.067,0-0.141-0.005-0.221-0.015c-0.654-0.081-1.144,0.04-1.451,0.359
			c-0.304,0.315-0.446,0.838-0.425,1.553L57.995,64.103z"/>
	</g>
	<linearGradient id="SVGID_16_" gradientUnits="userSpaceOnUse" x1="34.833" y1="79.5828" x2="45.9502" y2="79.5828">
		<stop  offset="0" style="stop-color:#FFFFFF"/>
		<stop  offset="1" style="stop-color:#C8C8C8"/>
	</linearGradient>
	<path fill="url(#SVGID_16_)" d="M34.833,80.297c0,0,1.336,3.062,3.523,3.36c2.187,0.301,5.407-0.42,5.407-0.42
		s2.794-3.062,2.065-4.682c-0.729-1.621-1.458-3.121-3.646-3.121c-2.187,0-6.317,1.44-6.925,2.642L34.833,80.297z"/>
	<g>
		<linearGradient id="SVGID_17_" gradientUnits="userSpaceOnUse" x1="31.0908" y1="80.7566" x2="86.6885" y2="80.7566">
			<stop  offset="0" style="stop-color:#FFFFFF"/>
			<stop  offset="1" style="stop-color:#C8C8C8"/>
		</linearGradient>
		<path fill="url(#SVGID_17_)" d="M34.894,80.246c-2.004,0.241-1.943,2.102-2.065,2.281c-0.121,0.181,5.468,4.502,5.468,4.502
			l11.239-0.419c1.275,0.72,5.042-1.261,5.042-1.261l6.743,0.06c0,0-0.425-0.54,0.243-1.38c0.668-0.842,2.187,0,2.187,0l1.884,0.06
			c0.607-2.041,2.552-2.282,2.552-2.282l0.163-1.812l14.414-6.712c2.491,2.161,2.005,5.102,2.005,5.102l-14.881,5.584l-1.397-0.18
			l-1.459,1.38l2.917-0.119l0.607-0.961l14.398-5.343c2.125,0.9,1.7,3.602,1.7,3.602l-0.304,0.96l-14.884,3.903h-1.701l-1.579-0.121
			c-2.491-1.08-2.916-0.239-2.916-0.239c-2.734,0.479-4.192-0.961-4.436-0.421s-5.103,0.3-5.103,0.3s-2.005-0.54-2.065-0.06
			s-3.767,1.561-3.767,1.561s-9.295,0-10.814,0c-1.519,0-2.611-0.601-2.611-0.601l-3.584-2.761c0,0-2.431-1.44-1.641-4.022
			c0.789-2.581,4.07-2.82,4.07-2.82L34.894,80.246z"/>
		<path fill="#787366" d="M49.912,88.32H39.085c-1.523,0-2.609-0.586-2.655-0.611l-3.596-2.769
			c-0.016-0.009-2.473-1.501-1.671-4.119c0.331-1.083,1.155-1.925,2.382-2.436c0.922-0.384,1.733-0.447,1.768-0.45l0.117-0.008
			l-0.46,2.4l-0.065,0.008c-1.59,0.19-1.827,1.444-1.929,1.979c-0.02,0.105-0.034,0.173-0.051,0.22c0.246,0.356,3.327,2.8,5.4,4.403
			l11.232-0.419l0.021,0.012c0.172,0.097,0.407,0.146,0.699,0.146c1.562,0,4.23-1.394,4.257-1.408l0.021-0.011l6.612,0.059
			c-0.096-0.229-0.182-0.708,0.325-1.345c0.215-0.271,0.529-0.407,0.935-0.407c0.609,0,1.228,0.311,1.347,0.373l1.794,0.058
			c0.568-1.791,2.173-2.196,2.534-2.266l0.161-1.795l0.047-0.021l14.468-6.736l0.044,0.038c2.5,2.168,2.04,5.154,2.034,5.184
			l-0.008,0.052l-14.951,5.61l-1.377-0.178l-1.253,1.186l2.628-0.108l0.6-0.946l0.027-0.011l14.432-5.354l0.033,0.015
			c0.898,0.38,1.486,1.142,1.701,2.203c0.161,0.794,0.059,1.466,0.054,1.495l-0.322,1.02l-0.048,0.013L71.478,87.3h-1.713
			l-1.615-0.127c-0.832-0.361-1.518-0.544-2.037-0.544c-0.61,0-0.762,0.261-0.764,0.264l-0.021,0.038l-0.043,0.009
			c-0.382,0.066-0.765,0.101-1.138,0.101c-1.088,0-1.918-0.285-2.468-0.474c-0.276-0.095-0.494-0.17-0.631-0.17
			c-0.084,0-0.113,0.027-0.133,0.07c-0.05,0.111-0.183,0.406-2.942,0.406c-1.154,0-2.236-0.053-2.247-0.053l-0.019-0.003
			c-0.01-0.003-0.956-0.256-1.549-0.256c-0.244,0-0.395,0.045-0.404,0.12c-0.062,0.499-2.948,1.379-3.83,1.636L49.912,88.32z
			 M36.528,87.558c0.002,0,1.084,0.583,2.557,0.583h10.802c1.751-0.512,3.657-1.223,3.69-1.483c0.022-0.184,0.219-0.277,0.582-0.277
			c0.591,0,1.479,0.23,1.586,0.26c0.109,0.005,1.137,0.053,2.229,0.053c2.517,0,2.756-0.25,2.778-0.3
			c0.053-0.117,0.152-0.177,0.297-0.177c0.166,0,0.386,0.075,0.688,0.18c0.539,0.185,1.352,0.464,2.409,0.464
			c0.352,0,0.712-0.031,1.069-0.092c0.073-0.096,0.308-0.319,0.896-0.319c0.541,0,1.246,0.186,2.095,0.552l1.564,0.12l1.683-0.001
			l14.825-3.887l0.288-0.912c0.001-0.014,0.382-2.602-1.617-3.478l-14.336,5.318l-0.616,0.976l-3.204,0.132l1.664-1.575l1.418,0.183
			l14.811-5.558c0.047-0.393,0.259-2.986-1.938-4.93l-14.314,6.665l-0.165,1.833l-0.072,0.009c-0.019,0.002-1.894,0.26-2.477,2.218
			L65.7,84.18l-1.975-0.062l-0.019-0.011c-0.007-0.004-0.663-0.362-1.279-0.362c-0.348,0-0.614,0.114-0.794,0.34
			c-0.611,0.77-0.257,1.249-0.242,1.269l0.112,0.147l-0.185-0.002l-6.721-0.06c-0.27,0.141-2.77,1.418-4.32,1.418
			c-0.312,0-0.568-0.053-0.765-0.156l-11.247,0.42l-0.025-0.02c-0.015-0.011-1.414-1.094-2.78-2.185
			c-2.829-2.258-2.775-2.338-2.707-2.439c0.011-0.021,0.029-0.114,0.045-0.196c0.107-0.566,0.357-1.884,2.019-2.115l0.391-2.037
			c-0.258,0.031-0.902,0.135-1.598,0.425c-1.191,0.498-1.957,1.278-2.275,2.32c-0.76,2.481,1.576,3.903,1.601,3.917L36.528,87.558
			L36.528,87.558z"/>
	</g>
	<linearGradient id="SVGID_18_" gradientUnits="userSpaceOnUse" x1="34.8936" y1="79.1355" x2="35.3193" y2="79.1355">
		<stop  offset="0" style="stop-color:#FFFFFF"/>
		<stop  offset="1" style="stop-color:#C8C8C8"/>
	</linearGradient>
	<line fill="url(#SVGID_18_)" x1="35.319" y1="78.026" x2="34.894" y2="80.246"/>
</g>
</svg>
