<?xml version="1.0" encoding="utf-8"?>
<!-- Generator: Adobe Illustrator 16.0.0, SVG Export Plug-In . SVG Version: 6.00 Build 0)  -->
<!DOCTYPE svg PUBLIC "-//W3C//DTD SVG 1.1//EN" "http://www.w3.org/Graphics/SVG/1.1/DTD/svg11.dtd">
<svg version="1.1" id="Layer_1" xmlns="http://www.w3.org/2000/svg" xmlns:xlink="http://www.w3.org/1999/xlink" x="0px" y="0px"
	 width="110.5px" height="115.779px" viewBox="0 0 110.5 115.779" enable-background="new 0 0 110.5 115.779" xml:space="preserve">
<g>
	<g>
		<path fill="#787366" d="M87.622,56.542c-7.285,0-13.19,5.906-13.19,13.191c0,7.286,5.905,13.191,13.19,13.191
			c7.286,0,13.192-5.905,13.192-13.191C100.814,62.448,94.908,56.542,87.622,56.542z M87.723,78.76
			c-4.875,0-8.828-3.951-8.828-8.828c0-4.876,3.953-8.829,8.828-8.829c4.877,0,8.83,3.953,8.83,8.829S92.6,78.76,87.723,78.76z"/>
		
			<linearGradient id="SVGID_1_" gradientUnits="userSpaceOnUse" x1="82.4121" y1="70.1003" x2="109.5508" y2="70.1003" gradientTransform="matrix(1 0 0 -1 -8.3599 139.8335)">
			<stop  offset="0" style="stop-color:#FFFFFF"/>
			<stop  offset="1" style="stop-color:#C8C8C8"/>
		</linearGradient>
		<path fill="url(#SVGID_1_)" d="M87.622,83.302c-7.481,0-13.569-6.088-13.569-13.569c0-7.482,6.088-13.57,13.569-13.57
			s13.569,6.088,13.569,13.57C101.191,77.215,95.104,83.302,87.622,83.302z M87.622,56.92c-7.065,0-12.813,5.748-12.813,12.813
			c0,7.064,5.748,12.812,12.813,12.812s12.813-5.748,12.813-12.812C100.436,62.668,94.688,56.92,87.622,56.92z M87.723,79.137
			c-5.076,0-9.207-4.131-9.207-9.207s4.131-9.207,9.207-9.207c5.077,0,9.207,4.131,9.207,9.207
			C96.93,75.008,92.8,79.137,87.723,79.137z M87.723,61.479c-4.66,0-8.451,3.792-8.451,8.451s3.791,8.45,8.451,8.45
			s8.45-3.791,8.45-8.45S92.383,61.479,87.723,61.479z"/>
	</g>
	<g>
		<circle fill="#787366" cx="87.588" cy="69.994" r="5.955"/>
		
			<linearGradient id="SVGID_2_" gradientUnits="userSpaceOnUse" x1="89.6133" y1="69.8386" x2="102.2812" y2="69.8386" gradientTransform="matrix(1 0 0 -1 -8.3599 139.8335)">
			<stop  offset="0" style="stop-color:#FFFFFF"/>
			<stop  offset="1" style="stop-color:#C8C8C8"/>
		</linearGradient>
		<path fill="url(#SVGID_2_)" d="M87.588,76.328c-3.492,0-6.334-2.841-6.334-6.334c0-3.492,2.842-6.333,6.334-6.333
			s6.334,2.841,6.334,6.333C93.922,73.487,91.08,76.328,87.588,76.328z M87.588,64.417c-3.074,0-5.576,2.502-5.576,5.577
			s2.502,5.577,5.576,5.577c3.075,0,5.577-2.502,5.577-5.577S90.663,64.417,87.588,64.417z"/>
	</g>
	<g>
		<path fill="#787366" d="M21.21,58.955c-6.554,0-11.868,5.313-11.868,11.868s5.314,11.868,11.868,11.868
			c6.555,0,11.868-5.313,11.868-11.868S27.765,58.955,21.21,58.955z M21.3,78.943c-4.386,0-7.942-3.558-7.942-7.942
			c0-4.388,3.557-7.942,7.942-7.942c4.387,0,7.943,3.556,7.943,7.942C29.243,75.385,25.687,78.943,21.3,78.943z"/>
		
			<linearGradient id="SVGID_3_" gradientUnits="userSpaceOnUse" x1="17.3237" y1="69.0105" x2="41.8159" y2="69.0105" gradientTransform="matrix(1 0 0 -1 -8.3599 139.8335)">
			<stop  offset="0" style="stop-color:#FFFFFF"/>
			<stop  offset="1" style="stop-color:#C8C8C8"/>
		</linearGradient>
		<path fill="url(#SVGID_3_)" d="M21.21,83.069c-6.753,0-12.246-5.494-12.246-12.246c0-6.753,5.493-12.247,12.246-12.247
			s12.246,5.494,12.246,12.247C33.456,77.575,27.963,83.069,21.21,83.069z M21.21,59.333c-6.336,0-11.489,5.154-11.489,11.49
			c0,6.335,5.153,11.489,11.489,11.489S32.7,77.158,32.7,70.823C32.7,64.487,27.546,59.333,21.21,59.333z M21.3,79.321
			c-4.588,0-8.32-3.732-8.32-8.32c0-4.589,3.732-8.321,8.32-8.321c4.589,0,8.321,3.732,8.321,8.321
			C29.621,75.589,25.889,79.321,21.3,79.321z M21.3,63.435c-4.171,0-7.564,3.394-7.564,7.564c0,4.17,3.394,7.564,7.564,7.564
			c4.172,0,7.565-3.396,7.565-7.564C28.865,66.829,25.472,63.435,21.3,63.435z"/>
	</g>
	<g>
		<circle fill="#787366" cx="21.18" cy="71.057" r="5.357"/>
		
			<linearGradient id="SVGID_4_" gradientUnits="userSpaceOnUse" x1="23.8037" y1="68.7761" x2="35.2749" y2="68.7761" gradientTransform="matrix(1 0 0 -1 -8.3599 139.8335)">
			<stop  offset="0" style="stop-color:#FFFFFF"/>
			<stop  offset="1" style="stop-color:#C8C8C8"/>
		</linearGradient>
		<path fill="url(#SVGID_4_)" d="M21.18,76.794c-3.163,0-5.736-2.572-5.736-5.735s2.573-5.736,5.736-5.736
			c3.163,0,5.735,2.573,5.735,5.736S24.343,76.794,21.18,76.794z M21.18,66.078c-2.746,0-4.979,2.233-4.979,4.979
			c0,2.745,2.233,4.979,4.979,4.979c2.745,0,4.979-2.233,4.979-4.979C26.159,68.311,23.925,66.078,21.18,66.078z"/>
	</g>
	<g>
		<path fill="#787366" d="M87.34,61.572c0,0,2.018,2.837,2.396,4.161c0.377,1.323-14.877,6.682-14.877,6.682l14.884-5.421
			c0,0,1.632,3.151,1.694,4.224c0.062,1.071-15.949,4.791-15.949,4.791s-4.223-0.252-5.357-1.071c0,0-0.126,0.819-1.449,0.505
			c-1.324-0.315-2.27-0.127-2.27-0.127l-1.262-1.134c0,0,0.188,0.882-3.025,1.07c-3.214,0.189-3.908-0.883-3.908-0.883v0.883h-0.568
			v-0.818L56.135,75l0.254,0.693l-1.641,0.314l-0.377-0.883l-0.632,0.378v0.505v0.567H41.32c0,0-2.018,1.513-7.438-5.232
			c0,0-0.062-3.089,2.081-4.098s3.151-1.261,3.151-1.261s-1.324-2.711-2.837-1.135c-1.513,1.575-1.639-1.136-1.639-1.136
			l0.252-2.646h-0.567l-0.757-0.253c0,0-0.315-2.458,0.82-2.018c1.134,0.441-1.702-0.062,1.134-1.702l-0.378-0.977h-1.616
			l-0.968,1.859c0,0-0.693,0.692-0.883-0.441l0.504-1.892c0,0,0-0.504-1.702-0.884l-0.819,0.946v5.105l2.207,2.081L31.486,63.4
			l-4.476-2.206c0,0-2.837-2.081-10.527-0.819l-2.9-1.324c0,0,5.296-2.144,11.348-1.135l2.584-4.854c0,0-0.693-0.504-0.693-1.323
			H25.75l-0.126,0.252h-1.198c0,0-1.765-4.791-0.126-8.195h1.135c0,0,3.278,0,4.16,2.9c0.883,2.898,0.568,1.071,0.568,1.071
			l-0.126-3.151l-0.694-0.189c0,0-2.08,1.262-2.521-2.585c-0.441-3.845,2.9-3.845,2.9-3.845l2.08,2.521l1.135,1.701l1.323,0.253
			l-0.378-1.515l1.513-0.818l1.135,1.071l0.126,0.882l0.757-0.63l-0.504-3.467l-1.388-0.253L35.332,35.6c0,0,0.631-1.01,2.08-0.82
			l1.009-0.756c0,0-0.189-1.45-0.189-2.019c0-0.567,1.009-1.892,1.009-1.892s-0.378-1.891,0.252-2.836
			c0.631-0.946,1.45-3.026,2.711-3.53c1.261-0.505,0.504,3.908,0.504,3.908s-0.084,0.952-1.828,0.945c0,0-2.269,2.206-1.828,4.791
			c0.441,2.585,0.189,0.883,0.189,0.883l1.45,0.314l1.576-1.009c0,0,1.576,0.189,1.071,1.197l-1.766,1.009
			c0,0-0.126,1.197-1.071,1.513c-0.945,0.316-0.63,1.072-0.63,1.072l-2.207-0.252l0.315,3.215c0,0,2.08,0.378,2.396,2.019
			c0.315,1.639-0.252,0.944-0.252,0.944s2.647-4.413,16.895-0.631c0,0,2.838,1.324,5.106,2.963c2.269,1.64,5.169,2.521,15.003-0.756
			c0,0,1.766-0.126,1.828,0.63c0.062,0.757,0.314-1.323,0.314-1.323h9.646c0,0,1.449-0.253,2.206,1.64
			c0.756,1.891-0.126,0.945-0.126,0.945l7.061,0.631c0,0,0.756,0.63,0.379,2.206c-0.379,1.575-0.884,1.955,1.639,5.517H99.57
			c0,0-2.145-1.229-3.025-4.949c-0.883-3.719-0.316-0.504-0.316-0.504l-3.592,0.062l0.125,1.323c0,0-0.125,1.136-1.197,0.505
			c-1.071-0.631-1.323-1.514-1.323-1.514l-3.277-0.062l-5.17,1.514l-6.241,5.862l0.063,0.44l0.757-0.062l2.458-2.899l1.135-0.126
			l0.188,0.756l-3.025,3.531V60.5l-2.396,3.025l2.773,2.647L87.34,61.572z"/>
		
			<linearGradient id="SVGID_5_" gradientUnits="userSpaceOnUse" x1="20.0298" y1="89.6199" x2="109.8965" y2="89.6199" gradientTransform="matrix(1 0 0 -1 -8.3599 139.8335)">
			<stop  offset="0" style="stop-color:#FFFFFF"/>
			<stop  offset="1" style="stop-color:#C8C8C8"/>
		</linearGradient>
		<path fill="url(#SVGID_5_)" d="M42.391,23.708c0.993,0,0.316,3.949,0.316,3.949s-0.083,0.945-1.808,0.945
			c-0.007,0-0.014,0-0.021,0c0,0-2.269,2.206-1.828,4.791c0.19,1.114,0.252,1.433,0.26,1.433c0.011,0-0.07-0.55-0.07-0.55
			l1.45,0.314l1.576-1.009c0,0,1.576,0.189,1.071,1.197l-1.766,1.009c0,0-0.126,1.197-1.071,1.513
			c-0.945,0.316-0.63,1.072-0.63,1.072l-2.207-0.252l0.315,3.215c0,0,2.08,0.378,2.396,2.019c0.045,0.23,0.071,0.417,0.085,0.563
			c-0.244,0.228-0.337,0.381-0.337,0.381s0.119,0.146,0.218,0.146c0.086,0,0.156-0.111,0.119-0.526
			c0.669-0.621,2.476-1.782,6.626-1.782c2.428,0,5.656,0.397,9.933,1.532c0,0,2.836,1.324,5.105,2.963
			c1.148,0.83,2.46,1.467,4.751,1.467c2.233,0,5.397-0.604,10.252-2.223c0,0,0.11-0.008,0.276-0.008c0.5,0,1.505,0.07,1.552,0.638
			c0.01,0.116,0.024,0.166,0.041,0.166c0.094,0,0.274-1.489,0.274-1.489h9.646c0,0,0.063-0.012,0.173-0.012
			c0.406,0,1.436,0.157,2.033,1.65c0.203,0.509,0.288,0.812,0.304,0.983l-0.43-0.038c0,0,0.221,0.235,0.347,0.235
			c0.059,0,0.096-0.051,0.083-0.197l6.63,0.593c0,0,0.758,0.63,0.379,2.206s-0.883,1.955,1.639,5.517h-0.504
			c0,0-2.144-1.229-3.024-4.949c-0.323-1.362-0.453-1.795-0.485-1.795c-0.059,0,0.17,1.291,0.17,1.291l-3.594,0.062l0.126,1.323
			c0,0-0.077,0.694-0.624,0.694c-0.152,0-0.34-0.053-0.572-0.189c-1.072-0.631-1.324-1.514-1.324-1.514l-3.277-0.062l-5.17,1.514
			l-6.241,5.862l0.063,0.44l0.757-0.062l2.458-2.899l1.135-0.126l0.189,0.756l-3.026,3.531v0.504l-2.396,3.025l2.772,2.647
			l9.835-4.603c0,0,2.018,2.837,2.396,4.161c0.257,0.898-6.713,3.665-11.201,5.343l-3.676,1.339l0,0l0,0
			c0.002-0.001,1.564-0.55,3.676-1.339l11.208-4.082c0,0,1.632,3.151,1.694,4.224c0.062,1.071-15.949,4.791-15.949,4.791
			s-4.223-0.252-5.357-1.071c0,0-0.089,0.577-0.898,0.577c-0.154,0-0.338-0.021-0.551-0.072c-0.603-0.145-1.125-0.184-1.518-0.184
			c-0.473,0-0.752,0.057-0.752,0.057L65.15,74.18c0,0,0.188,0.882-3.025,1.07c-0.262,0.017-0.505,0.022-0.732,0.022
			c-2.591,0-3.176-0.905-3.176-0.905v0.883h-0.568v-0.818L56.135,75l0.254,0.693l-1.641,0.314l-0.377-0.883l-0.632,0.378v0.505
			v0.567H41.32c0,0-0.193,0.146-0.621,0.146c-0.954,0-3.075-0.723-6.817-5.379c0,0-0.062-3.089,2.081-4.098s3.151-1.261,3.151-1.261
			s-0.795-1.627-1.856-1.627c-0.309-0.001-0.64,0.137-0.98,0.492c-0.341,0.354-0.611,0.491-0.825,0.491
			c-0.738,0-0.813-1.627-0.813-1.627l0.252-2.646h-0.567l-0.757-0.253c0,0-0.265-2.069,0.568-2.069c0.072,0,0.151,0.016,0.241,0.049
			c0.109,0.104,0.241,0.156,0.281,0.156c0.04,0-0.012-0.052-0.271-0.152c-0.004-0.002-0.007-0.003-0.011-0.004
			c-0.263-0.251-0.398-0.807,1.145-1.697l-0.378-0.978h-1.616l-0.968,1.859c0,0-0.21,0.209-0.431,0.209
			c-0.181,0-0.367-0.141-0.452-0.65l0.504-1.892c0,0,0-0.504-1.702-0.884l-0.819,0.946v5.105l2.207,2.081l-0.38,0.506l-4.476-2.206
			c0,0-1.672-1.227-5.924-1.227c-1.289,0-2.814,0.112-4.604,0.406l-2.9-1.324c0,0,3.471-1.403,8.003-1.403
			c1.066,0,2.191,0.077,3.345,0.27l2.584-4.854c0,0-0.693-0.504-0.693-1.323H25.75l-0.126,0.252h-1.198c0,0-1.765-4.791-0.126-8.195
			h1.135c0,0,3.278,0,4.16,2.9c0.391,1.282,0.547,1.64,0.6,1.64c0.066,0-0.031-0.567-0.031-0.567l-0.126-3.151l-0.694-0.189
			c0,0-0.326,0.197-0.747,0.197c-0.644,0-1.508-0.46-1.774-2.782c-0.441-3.845,2.9-3.845,2.9-3.845l2.08,2.521l1.135,1.702
			l1.323,0.252l-0.378-1.515l1.513-0.818l1.135,1.071l0.126,0.882l0.757-0.63l-0.504-3.467l-1.388-0.253l-0.19-2.144
			c0,0,0.527-0.845,1.726-0.845c0.112,0,0.23,0.009,0.354,0.023l1.009-0.756c0,0-0.189-1.45-0.189-2.019
			c0-0.567,1.009-1.892,1.009-1.892s-0.378-1.891,0.252-2.836c0.631-0.946,1.45-3.026,2.711-3.53
			C42.271,23.719,42.333,23.708,42.391,23.708 M42.391,22.952c-0.154,0-0.312,0.031-0.469,0.094c-1.196,0.479-1.964,1.87-2.58,2.988
			c-0.175,0.316-0.339,0.615-0.479,0.825c-0.621,0.932-0.514,2.391-0.421,3.062c-0.428,0.597-0.968,1.47-0.968,2.085
			c0,0.411,0.083,1.184,0.142,1.676l-0.428,0.32C37.144,34,37.1,34,37.057,34c-1.276,0-2.089,0.753-2.367,1.198l-0.135,0.215
			l0.022,0.252l0.189,2.145l0.051,0.574l0.567,0.104l0.852,0.154l0.211,1.45l-0.534-0.505l-0.398-0.376l-0.48,0.262l-1.514,0.818
			l-0.516,0.279l0.142,0.569l0.013,0.051l-0.729-1.095l-0.021-0.032l-0.025-0.029l-2.08-2.521l-0.227-0.275h-0.356
			c-0.069,0-1.691,0.014-2.775,1.229c-0.748,0.84-1.044,2.004-0.876,3.459c0.04,0.354,0.108,0.771,0.226,1.193
			c-0.321-0.058-0.615-0.083-0.861-0.083H24.3h-0.476l-0.206,0.429c-1.758,3.651,0.021,8.577,0.098,8.785l0.183,0.495h0.527h1.198
			h0.467l0.114-0.229c0.101,0.271,0.242,0.497,0.383,0.676l-2.073,3.894c-0.95-0.132-1.933-0.197-2.929-0.197
			c-4.626,0-8.14,1.399-8.286,1.46l-1.63,0.659l1.599,0.729l2.9,1.323l0.209,0.096l0.228-0.037c1.602-0.263,3.109-0.396,4.481-0.396
			c3.887,0,5.468,1.072,5.483,1.084l0.054,0.039l0.053,0.023l4.476,2.206l0.562,0.277l0.377-0.502l0.378-0.505l0.405-0.54
			l-0.491-0.465l-1.969-1.855V55.99l0.329-0.381c0.297,0.087,0.485,0.169,0.601,0.23l-0.4,1.5l-0.042,0.158l0.027,0.161
			c0.192,1.158,0.902,1.283,1.198,1.283c0.495,0,0.863-0.33,0.965-0.433l0.083-0.082l0.053-0.103l0.757-1.453h0.487
			c-0.581,0.432-0.902,0.856-0.991,1.309c-0.09,0.06-0.172,0.131-0.246,0.215c-0.584,0.664-0.487,1.979-0.419,2.514l0.061,0.472
			l0.45,0.149l0.736,0.245l-0.178,1.866l-0.006,0.053l0.003,0.054c0.053,1.136,0.492,2.35,1.569,2.35
			c0.454,0,0.902-0.237,1.371-0.726c0.113-0.119,0.281-0.26,0.435-0.26c0.202,0,0.454,0.201,0.683,0.464
			c-0.539,0.201-1.303,0.513-2.301,0.982c-2.558,1.203-2.517,4.65-2.514,4.798l0.005,0.258l0.161,0.2
			c2.075,2.582,5.045,5.66,7.407,5.66c0.352,0,0.617-0.07,0.799-0.146h12.241h0.757v-0.505l0.395-0.075l1.64-0.314l0.871-0.168
			l-0.094-0.261h0.34h0.567h0.757v-0.315c0.568,0.192,1.352,0.339,2.418,0.339c0.25,0,0.512-0.008,0.777-0.023
			c1.479-0.088,2.48-0.319,3.08-0.722l0.656,0.591l0.281,0.255l0.373-0.073l0,0c0,0,0.229-0.042,0.604-0.042
			c0.439,0,0.891,0.054,1.342,0.16c0.258,0.062,0.503,0.095,0.727,0.095c0.513,0,0.881-0.157,1.139-0.368
			c1.592,0.622,4.439,0.823,5.074,0.86l0.108,0.008l0.106-0.025c0.041-0.009,4.061-0.944,8.021-1.999
			c2.334-0.622,4.195-1.164,5.53-1.61c0.823-0.274,1.438-0.512,1.882-0.721c0.398-0.188,1.141-0.54,1.1-1.242
			c-0.069-1.173-1.494-3.977-1.779-4.526l-0.123-0.238c0.178-0.257,0.268-0.552,0.172-0.882c-0.4-1.408-2.291-4.09-2.506-4.393
			l-0.365-0.514l-0.57,0.267l-9.367,4.384l-1.899-1.813l1.968-2.485l0.163-0.206V60.5v-0.225l2.845-3.317l0.254-0.298l-0.096-0.379
			l-0.188-0.756l-0.161-0.643l-0.21,0.023l1.852-1.738l4.885-1.43l2.688,0.052c0.23,0.407,0.663,0.968,1.43,1.418
			c0.332,0.195,0.654,0.295,0.957,0.295c0.84,0,1.303-0.709,1.375-1.368l0.01-0.076l-0.008-0.078l-0.049-0.511l2.361-0.041
			c0.96,3.928,3.268,5.289,3.365,5.347l0.176,0.1h0.201h0.504h1.463l-0.846-1.192c-2.055-2.902-1.935-3.35-1.645-4.428
			c0.038-0.142,0.082-0.303,0.123-0.476c0.475-1.977-0.516-2.869-0.63-2.965l-0.181-0.15l-0.235-0.021l-6.095-0.544
			c-0.053-0.163-0.12-0.349-0.205-0.561c-0.789-1.973-2.295-2.125-2.735-2.125c-0.092,0-0.167,0.005-0.221,0.011H79.27H78.6
			l-0.08,0.665c-0.006,0.046-0.013,0.095-0.019,0.143c-0.292-0.076-0.651-0.121-1.099-0.121c-0.188,0-0.316,0.009-0.33,0.01
			l-0.096,0.007l-0.09,0.029c-4.408,1.47-7.685,2.185-10.014,2.185c-2.057,0-3.209-0.528-4.309-1.322
			c-2.301-1.661-5.11-2.979-5.229-3.035l-0.062-0.028l-0.064-0.018c-3.893-1.032-7.3-1.558-10.126-1.558
			c-3.109,0-5.014,0.635-6.138,1.268c-0.475-1.129-1.584-1.667-2.267-1.9l-0.173-1.768l1.275,0.146l1.445,0.165l-0.652-1.19l0,0
			c0.021-0.019,0.072-0.05,0.163-0.079c0.899-0.301,1.338-1.113,1.507-1.745l1.466-0.837l0.199-0.113l0.103-0.205
			c0.311-0.621,0.147-1.102,0.023-1.333c-0.413-0.766-1.474-0.93-1.682-0.954l-0.27-0.032l-0.229,0.146l-1.312,0.841l-0.686-0.148
			c-0.02-0.11-0.04-0.233-0.063-0.37c-0.298-1.746,0.936-3.36,1.422-3.917c1.868-0.119,2.185-1.279,2.233-1.564h0.001
			c0.006-0.033,0.141-0.829,0.204-1.724c0.128-1.811-0.155-2.396-0.417-2.707C43.021,23.094,42.72,22.952,42.391,22.952
			L42.391,22.952z"/>
	</g>
	
		<linearGradient id="SVGID_6_" gradientUnits="userSpaceOnUse" x1="43.8818" y1="89.9539" x2="71.4873" y2="89.9539" gradientTransform="matrix(1 0 0 -1 -8.3599 139.8335)">
		<stop  offset="0" style="stop-color:#FFFFFF"/>
		<stop  offset="1" style="stop-color:#C8C8C8"/>
	</linearGradient>
	<path opacity="0.8" fill="url(#SVGID_6_)" enable-background="new    " d="M38.548,47.893l-3.026,4.602l5.358,5.106
		c0,0,1.892,0.214,1.45-1.061c-0.442-1.273,4.665-1.398,4.665-1.398l1.261,1.398c0,0,0.945,0.996,2.08-0.201
		c0,0-4.224-4.287-3.089-5.674c1.135-1.387,1.007-3.089,9.581-2.459c0,0,1.388,0.189,3.656,2.271v-1.136
		c0,0,0.441-1.387,1.955-1.009c1.513,0.379,0.125-1.392-0.315-1.702c-0.44-0.31-5.173-4.362-14.312-4.481
		c0,0-5.252-0.188-7.354,1.77l-0.021,0.57L40.123,44.3L39.43,45.56l-0.693,0.252L38.548,47.893z"/>
	<g>
		<g>
			
				<linearGradient id="SVGID_7_" gradientUnits="userSpaceOnUse" x1="631.8223" y1="-1673.2024" x2="631.8223" y2="-1676.1653" gradientTransform="matrix(1 0 0 -1 -588.5977 -1625.0005)">
				<stop  offset="0" style="stop-color:#FFFFFF"/>
				<stop  offset="1" style="stop-color:#9D9B99"/>
			</linearGradient>
			<circle fill="url(#SVGID_7_)" cx="43.224" cy="49.678" r="1.517"/>
			<path fill="#817D7C" d="M43.224,51.29c-0.889,0-1.611-0.723-1.611-1.61c0-0.889,0.723-1.611,1.611-1.611
				c0.888,0,1.611,0.723,1.611,1.611C44.835,50.567,44.112,51.29,43.224,51.29z M43.224,48.257c-0.784,0-1.422,0.639-1.422,1.423
				c0,0.783,0.638,1.423,1.422,1.423c0.784,0,1.423-0.64,1.423-1.423C44.647,48.895,44.008,48.257,43.224,48.257z"/>
		</g>
		<g>
			
				<linearGradient id="SVGID_8_" gradientUnits="userSpaceOnUse" x1="631.0645" y1="-1673.1809" x2="631.0645" y2="-1674.6637" gradientTransform="matrix(1 0 0 -1 -588.5977 -1625.0005)">
				<stop  offset="0" style="stop-color:#13599D"/>
				<stop  offset="1" style="stop-color:#0E4A89"/>
			</linearGradient>
			<path fill="url(#SVGID_8_)" d="M41.707,49.677h1.518V48.16C42.387,48.158,41.707,48.839,41.707,49.677z"/>
			
				<linearGradient id="SVGID_9_" gradientUnits="userSpaceOnUse" x1="632.5811" y1="-1674.6975" x2="632.5811" y2="-1676.1816" gradientTransform="matrix(1 0 0 -1 -588.5977 -1625.0005)">
				<stop  offset="0" style="stop-color:#13599D"/>
				<stop  offset="1" style="stop-color:#0E4A89"/>
			</linearGradient>
			<path fill="url(#SVGID_9_)" d="M43.225,49.677v1.52c0.838,0,1.516-0.679,1.516-1.52H43.225z"/>
		</g>
		<g>
			
				<linearGradient id="SVGID_10_" gradientUnits="userSpaceOnUse" x1="480.8838" y1="-1321.3889" x2="484.2832" y2="-1321.3889" gradientTransform="matrix(1 0 0 -1 -439.3594 -1271.7095)">
				<stop  offset="0" style="stop-color:#FFFFFF"/>
				<stop  offset="1" style="stop-color:#C7C8C8"/>
			</linearGradient>
			<path fill="url(#SVGID_10_)" d="M43.224,51.379c-0.938,0-1.699-0.763-1.699-1.697c0-0.938,0.762-1.701,1.699-1.701
				s1.7,0.764,1.7,1.701C44.925,50.616,44.162,51.379,43.224,51.379z M43.224,48.344c-0.737,0-1.334,0.598-1.334,1.333
				c0,0.734,0.599,1.335,1.334,1.335c0.735,0,1.334-0.601,1.334-1.335C44.558,48.944,43.959,48.344,43.224,48.344z"/>
		</g>
	</g>
	<ellipse fill="#787366" cx="47.025" cy="43.459" rx="2.523" ry="0.975"/>
	<path fill="#C0B9AB" stroke="#787366" stroke-miterlimit="10" d="M25.653,72.292l-2.84,0.089c0,0,0.315-0.505-0.441-0.944
		c-0.757-0.441,3.025-2.081,3.025-2.081l0.063-1.071l-1.64,0.314l1.576-3.972h0.567l1.261-3.151l2.081-4.729l0.945-2.396
		l3.972-8.008l0.455-1.013c0.063-0.021,0.109-0.054,0.133-0.101c0.107-0.224-0.328-0.656-0.972-0.97
		c-0.645-0.312-1.255-0.386-1.362-0.162c-0.007,0.015-0.011,0.029-0.014,0.046c-0.002-0.002-0.004-0.004-0.006-0.007l-4.16,9.015
		l-1.229,2.49l-1.381,3.396c0,0-2.017-0.29-3.593-0.353c-1.576-0.063,0.025,1.652,0.025,1.652c1.071,1.766-1.135,3.152-1.135,3.152
		l-1.64,4.791c0,0,0,1.387,1.64,0.693l0.314,0.193l-1.387,2.957c0,0-0.504,2.333,1.702,1.702c1.284-0.367,2.974-0.499,4.162-0.545
		 M22.309,67.652l-0.441-0.441l1.198-2.269l0.731-1.212c0.056,0.087,0.125,0.177,0.214,0.266L22.309,67.652z"/>
	
		<linearGradient id="SVGID_11_" gradientUnits="userSpaceOnUse" x1="27.6118" y1="80.8796" x2="43.2812" y2="80.8796" gradientTransform="matrix(1 0 0 -1 -8.3599 139.8335)">
		<stop  offset="0" style="stop-color:#FFFFFF"/>
		<stop  offset="1" style="stop-color:#C8C8C8"/>
	</linearGradient>
	
		<linearGradient id="SVGID_12_" gradientUnits="userSpaceOnUse" x1="27.1118" y1="80.9167" x2="43.7812" y2="80.9167" gradientTransform="matrix(1 0 0 -1 -8.3599 139.8335)">
		<stop  offset="0" style="stop-color:#FFFFFF"/>
		<stop  offset="1" style="stop-color:#C8C8C8"/>
	</linearGradient>
	<path fill="url(#SVGID_11_)" stroke="url(#SVGID_12_)" stroke-miterlimit="10" d="M25.78,73.38
		c-1.177,0.046-2.866,0.179-4.139,0.541c-0.26,0.074-0.496,0.112-0.704,0.112c-0.384,0-0.68-0.126-0.88-0.374
		c-0.445-0.553-0.245-1.51-0.236-1.551l0.007-0.021l1.351-2.882l-0.202-0.124c-0.298,0.122-0.564,0.184-0.791,0.184
		c-0.739,0-0.934-0.643-0.934-0.981l0.005-0.031l1.649-4.821l0.028-0.019c0.006-0.004,0.545-0.347,0.946-0.895
		c0.524-0.716,0.579-1.429,0.163-2.12c-0.122-0.132-0.914-1.018-0.7-1.508c0.093-0.215,0.339-0.313,0.755-0.299
		c1.395,0.057,3.152,0.291,3.529,0.344l1.353-3.326l1.232-2.497l4.25-9.142c0.062-0.052,0.168-0.095,0.344-0.095
		c0.287,0,0.68,0.11,1.074,0.302c0.321,0.156,0.603,0.348,0.794,0.537c0.274,0.273,0.271,0.454,0.222,0.559
		c-0.028,0.059-0.078,0.104-0.147,0.134l-0.439,0.978l-3.973,8.011l-0.942,2.388l-2.082,4.731l-1.283,3.209h-0.567l-1.488,3.751
		l1.589-0.307l-0.073,1.252l-0.054,0.022c-1.174,0.509-3.046,1.459-3.069,1.842c-0.001,0.013-0.002,0.038,0.054,0.07
		c0.297,0.173,0.477,0.379,0.534,0.61c0.03,0.125,0.02,0.235-0.002,0.316l3.077-0.096 M25.653,72.385L22.64,72.48l0.094-0.149
		c0.003-0.006,0.082-0.142,0.036-0.324c-0.046-0.18-0.195-0.345-0.445-0.489c-0.129-0.075-0.15-0.176-0.146-0.245
		c0.036-0.592,2.501-1.706,3.129-1.98l0.053-0.892l-1.688,0.324l1.663-4.191h0.567l1.236-3.093l2.082-4.731l0.944-2.392l3.975-8.013
		l0.472-1.049l0.039-0.013c0.027-0.01,0.064-0.026,0.077-0.054c0.023-0.048-0.011-0.167-0.186-0.342
		c-0.177-0.177-0.44-0.354-0.743-0.499c-0.364-0.179-0.735-0.283-0.991-0.283c-0.13,0-0.222,0.027-0.244,0.075
		c-0.002,0.006-0.004,0.013-0.006,0.021l-0.037,0.246l-0.047-0.072l-4.089,8.858l-1.23,2.492l-1.405,3.457l-0.073-0.012
		c-0.021-0.003-2.03-0.289-3.584-0.351c-0.323-0.013-0.516,0.049-0.574,0.184c-0.127,0.293,0.345,0.959,0.673,1.312l0.011,0.016
		c0.46,0.757,0.401,1.567-0.17,2.343c-0.374,0.509-0.845,0.84-0.967,0.921l-1.622,4.743c0.004,0.112,0.059,0.778,0.744,0.778
		c0.213,0,0.47-0.062,0.763-0.187l0.045-0.021l0.429,0.265l-1.418,3.023c-0.02,0.1-0.166,0.928,0.201,1.383
		c0.259,0.318,0.729,0.386,1.384,0.198c1.182-0.338,2.712-0.479,3.873-0.534 M22.338,67.815l-0.587-0.586l1.23-2.332l0.813-1.349
		l0.081,0.129c0.059,0.093,0.124,0.174,0.202,0.252l0.047,0.047L22.338,67.815z M21.984,67.193l0.296,0.297l1.617-3.475
		c-0.033-0.037-0.064-0.074-0.095-0.112l-0.656,1.087L21.984,67.193z"/>
	
		<linearGradient id="SVGID_13_" gradientUnits="userSpaceOnUse" x1="28.9399" y1="67.2937" x2="30.1387" y2="67.2937" gradientTransform="matrix(1 0 0 -1 -8.3599 139.8335)">
		<stop  offset="0" style="stop-color:#FFFFFF"/>
		<stop  offset="1" style="stop-color:#C8C8C8"/>
	</linearGradient>
	<path fill="url(#SVGID_13_)" d="M21.179,73.139c-0.33,0-0.599-0.27-0.599-0.6s0.269-0.599,0.599-0.599c0.331,0,0.6,0.269,0.6,0.599
		S21.51,73.139,21.179,73.139z M21.179,72.132c-0.226,0-0.409,0.185-0.409,0.409c0,0.228,0.184,0.41,0.409,0.41
		c0.227,0,0.41-0.184,0.41-0.41C21.589,72.315,21.405,72.132,21.179,72.132z"/>
	
		<linearGradient id="SVGID_14_" gradientUnits="userSpaceOnUse" x1="70.6914" y1="84.4832" x2="85.3359" y2="84.4832" gradientTransform="matrix(1 0 0 -1 -8.3599 139.8335)">
		<stop  offset="0" style="stop-color:#FFFFFF"/>
		<stop  offset="1" style="stop-color:#C8C8C8"/>
	</linearGradient>
	<path fill="url(#SVGID_14_)" d="M67.459,58.654c-0.156,0-0.318-0.012-0.477-0.037c-1.012-0.16-1.029-1.913-1.025-2.201l-3.625-4.24
		l0.182-0.017c0.012-0.001,1.217-0.112,1.887-0.112c0.426,0,0.508,0.04,0.531,0.129c0.01,0.037,0.006,0.09-0.061,0.139
		c0.22,0.276,2.24,1.208,4.154,1.984l5.207-0.814c0.026-0.006,0.832-0.19,1.56-0.19c0.587,0,0.96,0.124,1.11,0.367
		c0.113,0.185,0.098,0.424-0.049,0.716c-0.49,0.979-1.517,1.186-2.291,1.186l0,0c-0.342,0-0.604-0.041-0.686-0.057
		c-1.759,0.653-4.413,1.773-4.586,2.205C69.066,58.275,68.329,58.654,67.459,58.654z M62.713,52.332l3.436,4.018v0.035
		c-0.002,0.021-0.051,1.901,0.865,2.047c0.147,0.022,0.299,0.034,0.445,0.034c0.794,0,1.46-0.332,1.658-0.825
		c0.26-0.65,4.264-2.152,4.72-2.321l0.024-0.01l0.027,0.006c0.002,0.001,0.285,0.057,0.674,0.057l0,0
		c0.722,0,1.676-0.187,2.121-1.08c0.114-0.229,0.135-0.407,0.059-0.531c-0.112-0.182-0.439-0.276-0.95-0.276
		c-0.706,0-1.515,0.186-1.522,0.188l-5.266,0.824l-0.023-0.01c-1.287-0.522-4.285-1.779-4.312-2.177
		c-0.001-0.022,0.002-0.043,0.01-0.062c-0.057-0.006-0.145-0.011-0.277-0.011C63.895,52.235,63.075,52.301,62.713,52.332z
		 M67.671,57.832c-0.376,0-0.683-0.297-0.683-0.662c0-0.363,0.307-0.661,0.683-0.661s0.683,0.298,0.683,0.661
		C68.354,57.535,68.047,57.832,67.671,57.832z M67.671,56.697c-0.271,0-0.493,0.212-0.493,0.473c0,0.262,0.223,0.474,0.493,0.474
		c0.272,0,0.493-0.212,0.493-0.474C68.164,56.909,67.943,56.697,67.671,56.697z M69.67,56.018l-0.04-0.049
		c-0.011-0.013-0.103-0.127-0.082-0.342c0.03-0.331,0.298-0.707,0.795-1.115l0.019-0.016l0.021-0.005
		c0.089-0.019,2.194-0.475,3.076-0.475c0.231,0,0.356,0.028,0.419,0.099c0.082,0.091,0.132,0.167,0.111,0.247
		c-0.021,0.082-0.1,0.112-0.176,0.141c-0.076,0.027-0.17,0.063-0.256,0.147c-0.256,0.256-3.232,1.168-3.828,1.348L69.67,56.018z
		 M70.443,54.674c-0.746,0.62-0.732,0.99-0.692,1.122c1.364-0.415,3.505-1.107,3.674-1.276c0.113-0.113,0.239-0.16,0.322-0.191
		c0.015-0.005,0.028-0.011,0.044-0.017c-0.012-0.016-0.027-0.036-0.055-0.066c-0.002-0.001-0.045-0.036-0.278-0.036
		C72.645,54.208,70.678,54.624,70.443,54.674z M66.273,55.45l-2.414-2.22l0.812-0.325l2.184,1.22
		c0.066,0.045,0.592,0.414,0.502,0.793c-0.063,0.271-0.403,0.441-1.039,0.526L66.273,55.45z M64.21,53.294l2.126,1.957
		c0.672-0.097,0.812-0.275,0.837-0.376c0.052-0.216-0.293-0.505-0.417-0.589l-2.097-1.172L64.21,53.294z"/>
	<path fill="#C0B9AB" stroke="#787366" stroke-miterlimit="10" d="M62.37,46.702c0,0,1.514,1.635,0,1.447
		c-1.513-0.188-2.132,0.619-2.074,2.14l1.372,1.568h2.973c0,0,0.226,0.71,4.197,2.253c0,0,6.857-0.491,7.13-0.986
		c0.271-0.496,3.36-2.718,3.36-2.718l11.535-2.257c0,0,1.388-1.385-1.448-3.275l-10.334,0.119l-0.194,1.646
		c0,0-0.283-1.33-1.672-0.96C75.827,46.048,65.675,49.628,62.37,46.702z"/>
	
		<linearGradient id="SVGID_15_" gradientUnits="userSpaceOnUse" x1="45.7471" y1="71.8171" x2="57.4219" y2="71.8171" gradientTransform="matrix(1 0 0 -1 -8.3599 139.8335)">
		<stop  offset="0" style="stop-color:#FFFFFF"/>
		<stop  offset="1" style="stop-color:#C8C8C8"/>
	</linearGradient>
	<path fill="url(#SVGID_15_)" d="M37.387,68.766c0,0,1.403,3.216,3.7,3.53s5.678-0.44,5.678-0.44s2.935-3.216,2.169-4.918
		s-1.531-3.277-3.828-3.277s-6.634,1.513-7.272,2.773L37.387,68.766z"/>
	
		<linearGradient id="SVGID_16_" gradientUnits="userSpaceOnUse" x1="41.8193" y1="70.5808" x2="100.2021" y2="70.5808" gradientTransform="matrix(1 0 0 -1 -8.3599 139.8335)">
		<stop  offset="0" style="stop-color:#FFFFFF"/>
		<stop  offset="1" style="stop-color:#C8C8C8"/>
	</linearGradient>
	<path fill="url(#SVGID_16_)" stroke="#787366" stroke-miterlimit="10" d="M37.45,68.715c-2.105,0.252-2.041,2.206-2.169,2.396
		c-0.128,0.189,5.741,4.728,5.741,4.728l11.803-0.439c1.34,0.756,5.296-1.324,5.296-1.324l7.081,0.062c0,0-0.446-0.565,0.255-1.448
		c0.702-0.883,2.297,0,2.297,0l1.979,0.062c0.638-2.144,2.68-2.396,2.68-2.396l0.172-1.903l15.139-7.049
		c2.614,2.27,2.104,5.356,2.104,5.356l-15.629,5.864l-1.467-0.188l-1.53,1.448l3.062-0.125L74.9,72.75l15.121-5.609
		c2.231,0.944,1.785,3.781,1.785,3.781l-0.318,1.009l-15.631,4.098H74.07l-1.657-0.126c-2.615-1.135-3.062-0.252-3.062-0.252
		c-2.871,0.504-4.401-1.009-4.658-0.441c-0.254,0.567-5.358,0.315-5.358,0.315s-2.104-0.567-2.168-0.062
		c-0.063,0.504-3.956,1.64-3.956,1.64s-9.761,0-11.355,0c-1.594,0-2.743-0.632-2.743-0.632l-3.765-2.898
		c0,0-2.552-1.513-1.723-4.224c0.83-2.712,4.274-2.964,4.274-2.964L37.45,68.715z"/>
	<line fill="none" x1="37.896" y1="66.383" x2="37.45" y2="68.715"/>
</g>
</svg>
