<?xml version="1.0" encoding="utf-8"?>
<!-- Generator: Adobe Illustrator 16.0.0, SVG Export Plug-In . SVG Version: 6.00 Build 0)  -->
<!DOCTYPE svg PUBLIC "-//W3C//DTD SVG 1.1//EN" "http://www.w3.org/Graphics/SVG/1.1/DTD/svg11.dtd">
<svg version="1.1" id="Layer_1" xmlns="http://www.w3.org/2000/svg" xmlns:xlink="http://www.w3.org/1999/xlink" x="0px" y="0px"
	 width="110.5px" height="115.779px" viewBox="0 0 110.5 115.779" enable-background="new 0 0 110.5 115.779" xml:space="preserve">
<g>
	<g>
		<g>
			<path fill="#787366" d="M84.597,66.327c-7.118,0-12.89,5.771-12.89,12.889c0,7.119,5.771,12.89,12.89,12.89
				s12.89-5.771,12.89-12.89C97.486,72.097,91.715,66.327,84.597,66.327z M84.694,88.035c-4.765,0-8.627-3.861-8.627-8.626
				s3.862-8.627,8.627-8.627s8.627,3.862,8.627,8.627S89.459,88.035,84.694,88.035z"/>
			<linearGradient id="SVGID_1_" gradientUnits="userSpaceOnUse" x1="71.3379" y1="79.2166" x2="97.8555" y2="79.2166">
				<stop  offset="0" style="stop-color:#FFFFFF"/>
				<stop  offset="1" style="stop-color:#C8C8C8"/>
			</linearGradient>
			<path fill="url(#SVGID_1_)" d="M84.597,92.475c-7.311,0-13.259-5.948-13.259-13.26c0-7.311,5.948-13.258,13.259-13.258
				s13.259,5.947,13.259,13.258C97.855,86.527,91.907,92.475,84.597,92.475z M84.597,66.696c-6.903,0-12.52,5.616-12.52,12.52
				c0,6.904,5.616,12.521,12.52,12.521c6.904,0,12.52-5.616,12.52-12.521C97.116,72.312,91.501,66.696,84.597,66.696z
				 M84.694,88.404c-4.96,0-8.996-4.034-8.996-8.995s4.036-8.996,8.996-8.996c4.961,0,8.997,4.035,8.997,8.996
				S89.655,88.404,84.694,88.404z M84.694,71.152c-4.553,0-8.256,3.704-8.256,8.257s3.703,8.256,8.256,8.256
				s8.257-3.703,8.257-8.256S89.247,71.152,84.694,71.152z"/>
		</g>
		<g>
			<circle fill="#787366" cx="84.563" cy="79.471" r="5.819"/>
			<linearGradient id="SVGID_2_" gradientUnits="userSpaceOnUse" x1="78.375" y1="79.4705" x2="90.751" y2="79.4705">
				<stop  offset="0" style="stop-color:#FFFFFF"/>
				<stop  offset="1" style="stop-color:#C8C8C8"/>
			</linearGradient>
			<path fill="url(#SVGID_2_)" d="M84.563,85.659c-3.412,0-6.188-2.775-6.188-6.188c0-3.413,2.776-6.189,6.188-6.189
				s6.188,2.776,6.188,6.189C90.751,82.884,87.976,85.659,84.563,85.659z M84.563,74.022c-3.004,0-5.448,2.444-5.448,5.449
				c0,3.004,2.444,5.448,5.448,5.448s5.449-2.444,5.449-5.448C90.013,76.467,87.567,74.022,84.563,74.022z"/>
		</g>
		<g>
			<path fill="#787366" d="M19.707,68.684c-6.403,0-11.596,5.191-11.596,11.596c0,6.405,5.192,11.597,11.596,11.597
				c6.405,0,11.597-5.191,11.597-11.597C31.304,73.876,26.112,68.684,19.707,68.684z M19.796,88.215
				c-4.286,0-7.761-3.474-7.761-7.761s3.475-7.762,7.761-7.762s7.761,3.475,7.761,7.762S24.082,88.215,19.796,88.215z"/>
			<linearGradient id="SVGID_3_" gradientUnits="userSpaceOnUse" x1="7.7422" y1="80.28" x2="31.6738" y2="80.28">
				<stop  offset="0" style="stop-color:#FFFFFF"/>
				<stop  offset="1" style="stop-color:#C8C8C8"/>
			</linearGradient>
			<path fill="url(#SVGID_3_)" d="M19.707,92.246c-6.597,0-11.965-5.368-11.965-11.966s5.368-11.965,11.965-11.965
				c6.599,0,11.967,5.367,11.967,11.965S26.306,92.246,19.707,92.246z M19.707,69.053c-6.188,0-11.226,5.037-11.226,11.227
				c0,6.19,5.037,11.227,11.226,11.227c6.19,0,11.228-5.036,11.228-11.227C30.935,74.091,25.897,69.053,19.707,69.053z
				 M19.796,88.585c-4.483,0-8.131-3.647-8.131-8.131s3.647-8.13,8.131-8.13s8.13,3.646,8.13,8.13S24.279,88.585,19.796,88.585z
				 M19.796,73.062c-4.075,0-7.391,3.315-7.391,7.392c0,4.075,3.315,7.392,7.391,7.392s7.391-3.316,7.391-7.392
				C27.187,76.378,23.871,73.062,19.796,73.062z"/>
		</g>
		<g>
			<circle fill="#787366" cx="19.677" cy="80.51" r="5.235"/>
			<linearGradient id="SVGID_4_" gradientUnits="userSpaceOnUse" x1="14.0732" y1="80.5095" x2="25.2812" y2="80.5095">
				<stop  offset="0" style="stop-color:#FFFFFF"/>
				<stop  offset="1" style="stop-color:#C8C8C8"/>
			</linearGradient>
			<path fill="url(#SVGID_4_)" d="M19.678,86.114c-3.09,0-5.604-2.514-5.604-5.604c0-3.092,2.515-5.605,5.604-5.605
				s5.604,2.514,5.604,5.605C25.281,83.6,22.768,86.114,19.678,86.114z M19.678,75.644c-2.683,0-4.865,2.183-4.865,4.866
				c0,2.682,2.183,4.864,4.865,4.864s4.864-2.183,4.864-4.864C24.542,77.827,22.36,75.644,19.678,75.644z"/>
		</g>
		<g>
			<path fill="#787366" d="M84.32,71.243c0,0,1.972,2.771,2.341,4.064c0.369,1.293-14.535,6.528-14.535,6.528l14.542-5.297
				c0,0,1.595,3.08,1.656,4.126c0.062,1.049-15.582,4.683-15.582,4.683s-4.128-0.247-5.237-1.047c0,0-0.122,0.8-1.416,0.492
				s-2.218-0.124-2.218-0.124L62.64,83.56c0,0,0.185,0.863-2.956,1.048c-3.142,0.185-3.819-0.863-3.819-0.863v0.863H55.31v-0.801
				l-1.479,0.555l0.247,0.677l-1.602,0.309l-0.369-0.862l-0.617,0.369v0.493v0.554H39.357c0,0-1.971,1.479-7.269-5.111
				c0,0-0.062-3.02,2.032-4.004c2.095-0.986,3.081-1.232,3.081-1.232s-1.294-2.647-2.772-1.108
				c-1.479,1.539-1.602-1.108-1.602-1.108l0.246-2.587h-0.554l-0.74-0.247c0,0-0.308-2.401,0.801-1.971
				c1.109,0.431-1.662-0.062,1.109-1.663l-0.369-0.955h-1.58l-0.946,1.818c0,0-0.678,0.676-0.862-0.432l0.493-1.849
				c0,0,0-0.492-1.663-0.861l-0.801,0.924v4.988l2.155,2.033l-0.369,0.491l-4.373-2.155c0,0-2.771-2.032-10.286-0.799l-2.833-1.295
				c0,0,5.174-2.094,11.087-1.109l2.525-4.742c0,0-0.678-0.492-0.678-1.293h-1.047l-0.124,0.247h-1.17c0,0-1.725-4.682-0.123-8.008
				h1.108c0,0,3.203,0,4.065,2.833c0.862,2.834,0.555,1.047,0.555,1.047l-0.124-3.08l-0.677-0.185c0,0-2.032,1.232-2.464-2.525
				c-0.432-3.757,2.833-3.757,2.833-3.757l2.032,2.463l1.109,1.664l1.294,0.246l-0.37-1.478l1.478-0.802l1.109,1.048l0.123,0.862
				l0.739-0.616l-0.493-3.388L33.69,47.96l-0.185-2.094c0,0,0.615-0.985,2.032-0.8l0.985-0.739c0,0-0.185-1.417-0.185-1.972
				c0-0.555,0.985-1.848,0.985-1.848s-0.369-1.848,0.247-2.772c0.616-0.923,1.416-2.956,2.647-3.449
				c1.232-0.493,0.493,3.819,0.493,3.819s-0.082,0.931-1.786,0.923c0,0-2.218,2.156-1.786,4.682
				c0.432,2.525,0.185,0.862,0.185,0.862l1.417,0.308l1.54-0.985c0,0,1.54,0.185,1.046,1.17l-1.725,0.985
				c0,0-0.122,1.17-1.046,1.478c-0.925,0.308-0.616,1.048-0.616,1.048l-2.156-0.246l0.308,3.141c0,0,2.033,0.369,2.341,1.972
				c0.309,1.601-0.245,0.923-0.245,0.923s2.585-4.311,16.506-0.616c0,0,2.772,1.294,4.989,2.895
				c2.218,1.602,5.052,2.464,14.659-0.739c0,0,1.726-0.123,1.787,0.616s0.308-1.293,0.308-1.293h9.424c0,0,1.417-0.247,2.155,1.601
				c0.739,1.848-0.123,0.924-0.123,0.924l6.899,0.616c0,0,0.738,0.617,0.369,2.158c-0.369,1.539-0.862,1.909,1.602,5.388H96.27
				c0,0-2.094-1.2-2.956-4.834c-0.862-3.634-0.308-0.493-0.308-0.493l-3.511,0.062l0.122,1.293c0,0-0.122,1.109-1.17,0.493
				c-1.047-0.615-1.294-1.479-1.294-1.479l-3.202-0.061L78.9,62.372l-6.099,5.729l0.062,0.431l0.738-0.062l2.403-2.834l1.108-0.122
				l0.185,0.738l-2.957,3.449v0.493l-2.341,2.957l2.711,2.587L84.32,71.243z"/>
			<linearGradient id="SVGID_5_" gradientUnits="userSpaceOnUse" x1="10.3867" y1="60.1443" x2="98.1914" y2="60.1443">
				<stop  offset="0" style="stop-color:#FFFFFF"/>
				<stop  offset="1" style="stop-color:#C8C8C8"/>
			</linearGradient>
			<path fill="url(#SVGID_5_)" d="M40.402,34.246c0.972,0,0.31,3.858,0.31,3.858s-0.082,0.923-1.768,0.923c-0.005,0-0.013,0-0.019,0
				c0,0-2.218,2.156-1.786,4.682c0.186,1.089,0.246,1.399,0.254,1.399c0.011,0-0.069-0.537-0.069-0.537l1.417,0.308l1.54-0.985
				c0,0,1.54,0.185,1.046,1.17l-1.725,0.985c0,0-0.122,1.17-1.046,1.478c-0.925,0.308-0.616,1.048-0.616,1.048l-2.156-0.246
				l0.308,3.141c0,0,2.033,0.369,2.341,1.972c0.044,0.226,0.07,0.407,0.083,0.551c-0.237,0.222-0.328,0.372-0.328,0.372
				s0.116,0.144,0.212,0.144c0.085,0,0.153-0.109,0.116-0.516c0.654-0.606,2.419-1.74,6.474-1.74c2.372,0,5.527,0.387,9.704,1.496
				c0,0,2.772,1.294,4.989,2.895c1.123,0.812,2.404,1.433,4.643,1.433c2.183,0,5.274-0.591,10.017-2.172
				c0,0,0.107-0.008,0.271-0.008c0.488,0,1.47,0.069,1.517,0.624c0.009,0.113,0.022,0.162,0.04,0.162
				c0.091,0,0.268-1.456,0.268-1.456h9.424c0,0,0.063-0.012,0.169-0.012c0.397,0,1.403,0.154,1.986,1.612
				c0.199,0.497,0.281,0.794,0.298,0.962l-0.421-0.038c0,0,0.215,0.231,0.34,0.231c0.056,0,0.094-0.05,0.081-0.194l6.479,0.578
				c0,0,0.738,0.617,0.369,2.158c-0.369,1.539-0.862,1.909,1.602,5.388H96.27c0,0-2.094-1.2-2.956-4.834
				c-0.316-1.332-0.442-1.755-0.475-1.755c-0.056,0,0.167,1.262,0.167,1.262l-3.511,0.062l0.122,1.293c0,0-0.075,0.68-0.609,0.68
				c-0.148,0-0.333-0.053-0.561-0.187c-1.047-0.615-1.294-1.479-1.294-1.479l-3.202-0.061L78.9,62.372l-6.099,5.729l0.062,0.431
				l0.738-0.062l2.403-2.834l1.108-0.122l0.185,0.738l-2.957,3.449v0.493l-2.341,2.957l2.711,2.587l9.608-4.496
				c0,0,1.972,2.771,2.341,4.064c0.251,0.88-6.559,3.581-10.943,5.221l-3.592,1.308l0,0l0,0c0.002,0,1.529-0.536,3.592-1.308
				l10.95-3.989c0,0,1.595,3.08,1.656,4.126c0.062,1.049-15.582,4.683-15.582,4.683s-4.128-0.247-5.237-1.047
				c0,0-0.085,0.562-0.878,0.562c-0.151,0-0.329-0.021-0.538-0.07c-0.589-0.141-1.1-0.179-1.482-0.179
				c-0.461,0-0.735,0.055-0.735,0.055L62.64,83.56c0,0,0.185,0.863-2.956,1.048c-0.255,0.016-0.494,0.021-0.718,0.021
				c-2.529,0-3.102-0.885-3.102-0.885v0.863H55.31v-0.801l-1.479,0.555l0.247,0.677l-1.602,0.309l-0.369-0.862l-0.617,0.369v0.493
				v0.554H39.357c0,0-0.189,0.142-0.607,0.142c-0.933,0-3.004-0.703-6.661-5.253c0,0-0.062-3.02,2.032-4.004
				c2.095-0.986,3.081-1.232,3.081-1.232s-0.777-1.589-1.815-1.589c-0.302-0.001-0.624,0.134-0.957,0.48
				c-0.333,0.348-0.598,0.481-0.808,0.481c-0.72,0-0.794-1.59-0.794-1.59l0.246-2.587h-0.554l-0.74-0.247
				c0,0-0.258-2.022,0.556-2.022c0.069,0,0.148,0.016,0.235,0.049c0.107,0.103,0.236,0.152,0.274,0.152
				c0.04,0-0.012-0.051-0.265-0.149c-0.003-0.001-0.006-0.003-0.01-0.003c-0.257-0.246-0.389-0.788,1.119-1.66l-0.369-0.955h-1.58
				l-0.946,1.818c0,0-0.205,0.204-0.42,0.204c-0.177,0-0.358-0.137-0.442-0.636l0.493-1.849c0,0,0-0.492-1.663-0.861l-0.801,0.924
				v4.988l2.155,2.033l-0.369,0.491l-4.373-2.155c0,0-1.633-1.196-5.787-1.196c-1.26,0-2.751,0.109-4.499,0.397l-2.833-1.295
				c0,0,3.391-1.371,7.819-1.371c1.042,0,2.141,0.075,3.268,0.262l2.525-4.742c0,0-0.678-0.492-0.678-1.293h-1.047l-0.124,0.247
				h-1.17c0,0-1.725-4.682-0.123-8.008h1.108c0,0,3.203,0,4.065,2.833c0.381,1.253,0.533,1.604,0.586,1.604
				c0.063,0-0.031-0.557-0.031-0.557l-0.124-3.08l-0.677-0.185c0,0-0.319,0.193-0.73,0.193c-0.629,0-1.473-0.449-1.733-2.718
				c-0.432-3.757,2.833-3.757,2.833-3.757l2.032,2.463l1.109,1.664l1.294,0.246l-0.37-1.478l1.478-0.802l1.109,1.048l0.123,0.862
				l0.739-0.616l-0.493-3.388L33.69,47.96l-0.185-2.094c0,0,0.515-0.823,1.686-0.823c0.11,0,0.226,0.006,0.347,0.023l0.985-0.739
				c0,0-0.185-1.417-0.185-1.972c0-0.555,0.985-1.848,0.985-1.848s-0.369-1.848,0.247-2.772c0.616-0.923,1.416-2.956,2.647-3.449
				C40.286,34.259,40.347,34.246,40.402,34.246 M40.402,33.507c-0.151,0-0.305,0.031-0.458,0.093
				c-1.169,0.467-1.919,1.827-2.521,2.919c-0.17,0.31-0.33,0.602-0.467,0.806c-0.607,0.91-0.502,2.336-0.412,2.994
				C36.127,40.9,35.6,41.752,35.6,42.355c0,0.402,0.081,1.156,0.138,1.637l-0.418,0.313c-0.043-0.001-0.087-0.002-0.128-0.002
				c-1.247,0-2.041,0.736-2.312,1.171l-0.132,0.21l0.022,0.247l0.185,2.094l0.05,0.561l0.554,0.101l0.833,0.152l0.206,1.417
				l-0.522-0.493l-0.389-0.368l-0.47,0.255l-1.479,0.801l-0.503,0.273l0.139,0.557l0.012,0.048l-0.713-1.069l-0.021-0.032
				l-0.024-0.029l-2.032-2.463l-0.222-0.269h-0.349c-0.067,0-1.652,0.014-2.711,1.202c-0.731,0.819-1.02,1.957-0.855,3.379
				c0.038,0.345,0.105,0.754,0.221,1.166c-0.314-0.055-0.603-0.079-0.843-0.079h-1.108h-0.464l-0.202,0.418
				c-1.717,3.567,0.021,8.38,0.095,8.583l0.18,0.484h0.515h1.17h0.457l0.111-0.225c0.099,0.265,0.237,0.486,0.373,0.661
				l-2.024,3.804c-0.929-0.128-1.889-0.193-2.861-0.193c-4.521,0-7.953,1.367-8.097,1.426l-1.592,0.646l1.562,0.713l2.833,1.294
				l0.204,0.093l0.223-0.036c1.565-0.257,3.038-0.387,4.379-0.387c3.797,0,5.342,1.048,5.356,1.06l0.053,0.037l0.051,0.024
				l4.373,2.155l0.551,0.271l0.368-0.491l0.369-0.492l0.396-0.528l-0.48-0.453l-1.924-1.813V65.79l0.321-0.372
				c0.29,0.085,0.475,0.165,0.587,0.226l-0.39,1.467l-0.042,0.153l0.026,0.158c0.188,1.132,0.882,1.254,1.171,1.254
				c0.484,0,0.844-0.322,0.942-0.422l0.081-0.081l0.052-0.1l0.739-1.419h0.477c-0.567,0.42-0.882,0.836-0.968,1.276
				c-0.088,0.059-0.169,0.129-0.241,0.211c-0.569,0.648-0.477,1.933-0.409,2.455l0.06,0.461l0.439,0.147l0.72,0.239l-0.174,1.822
				l-0.006,0.052l0.003,0.053c0.051,1.109,0.481,2.295,1.532,2.295c0.445,0,0.882-0.232,1.341-0.709
				c0.11-0.115,0.275-0.254,0.424-0.254c0.197,0,0.445,0.198,0.668,0.455c-0.527,0.196-1.273,0.499-2.248,0.959
				c-2.5,1.176-2.46,4.545-2.456,4.688l0.005,0.252l0.158,0.195c2.026,2.523,4.928,5.53,7.236,5.53c0.343,0,0.603-0.069,0.78-0.141
				h11.96h0.74v-0.494l0.386-0.074l1.602-0.309l0.852-0.164l-0.093-0.253h0.333h0.555h0.738v-0.31
				c0.557,0.189,1.321,0.331,2.363,0.331c0.243,0,0.5-0.007,0.762-0.023c1.444-0.084,2.423-0.312,3.008-0.704l0.642,0.577
				l0.276,0.248l0.363-0.072l0,0c0,0,0.223-0.04,0.59-0.04c0.43,0,0.87,0.053,1.312,0.157c0.253,0.061,0.491,0.091,0.709,0.091
				c0.5,0,0.86-0.153,1.112-0.358c1.556,0.608,4.337,0.804,4.958,0.841l0.106,0.007l0.105-0.024c0.039-0.01,3.967-0.923,7.837-1.954
				c2.281-0.606,4.1-1.137,5.403-1.573c0.806-0.27,1.406-0.499,1.839-0.704c0.39-0.185,1.114-0.526,1.074-1.213
				c-0.067-1.146-1.459-3.886-1.738-4.423l-0.121-0.233c0.174-0.251,0.261-0.54,0.169-0.863c-0.394-1.375-2.24-3.995-2.449-4.289
				l-0.357-0.502l-0.559,0.261l-9.15,4.282l-1.857-1.773l1.923-2.428l0.16-0.202v-0.257v-0.22l2.778-3.241l0.248-0.29l-0.093-0.37
				l-0.185-0.739l-0.157-0.627l-0.204,0.023l1.808-1.699l4.773-1.396l2.626,0.051c0.226,0.397,0.647,0.944,1.396,1.385
				c0.325,0.191,0.64,0.288,0.936,0.288c0.821,0,1.273-0.692,1.345-1.337l0.008-0.074l-0.007-0.077l-0.047-0.499l2.307-0.039
				c0.938,3.837,3.192,5.168,3.289,5.224l0.171,0.098h0.196h0.493h1.429l-0.826-1.167c-2.007-2.836-1.89-3.271-1.605-4.324
				c0.037-0.14,0.079-0.296,0.12-0.466c0.464-1.931-0.503-2.803-0.615-2.896l-0.177-0.147l-0.23-0.02l-5.953-0.532
				c-0.053-0.159-0.119-0.34-0.202-0.547c-0.771-1.927-2.241-2.077-2.673-2.077c-0.09,0-0.163,0.005-0.216,0.011h-9.377h-0.654
				l-0.079,0.65c-0.006,0.045-0.011,0.091-0.018,0.138c-0.286-0.074-0.638-0.118-1.073-0.118c-0.184,0-0.309,0.008-0.322,0.009
				l-0.093,0.007l-0.089,0.029c-4.307,1.436-7.507,2.133-9.783,2.133c-2.008,0-3.136-0.517-4.21-1.292
				c-2.248-1.623-4.993-2.911-5.109-2.965l-0.06-0.028l-0.062-0.017c-3.803-1.01-7.132-1.521-9.895-1.521
				c-3.037,0-4.897,0.62-5.996,1.238c-0.463-1.103-1.548-1.628-2.215-1.856l-0.169-1.728l1.247,0.143l1.411,0.161l-0.637-1.165
				H38.63c0.021-0.016,0.071-0.048,0.16-0.077c0.879-0.293,1.308-1.089,1.473-1.705l1.433-0.819l0.193-0.111l0.1-0.2
				c0.304-0.606,0.145-1.076,0.022-1.302c-0.402-0.748-1.438-0.908-1.643-0.932l-0.262-0.031l-0.225,0.142L38.6,44.093l-0.669-0.146
				c-0.02-0.108-0.04-0.228-0.062-0.362c-0.292-1.706,0.914-3.283,1.389-3.828c1.827-0.116,2.135-1.25,2.183-1.528h0.001
				c0.005-0.032,0.139-0.811,0.2-1.684c0.124-1.768-0.152-2.343-0.408-2.645C41.019,33.647,40.724,33.507,40.402,33.507
				L40.402,33.507z"/>
		</g>
		<linearGradient id="SVGID_6_" gradientUnits="userSpaceOnUse" x1="33.6914" y1="59.8171" x2="60.665" y2="59.8171">
			<stop  offset="0" style="stop-color:#FFFFFF"/>
			<stop  offset="1" style="stop-color:#C8C8C8"/>
		</linearGradient>
		<path opacity="0.8" fill="url(#SVGID_6_)" d="M36.646,57.877l-2.955,4.496l5.235,4.989c0,0,1.847,0.208,1.416-1.035
			c-0.43-1.244,4.559-1.366,4.559-1.366l1.231,1.366c0,0,0.924,0.974,2.032-0.196c0,0-4.126-4.189-3.018-5.544
			s0.984-3.018,9.361-2.403c0,0,1.355,0.185,3.573,2.217v-1.108c0,0,0.432-1.354,1.91-0.985c1.478,0.37,0.122-1.36-0.31-1.664
			c-0.431-0.302-5.054-4.263-13.983-4.379c0,0-5.131-0.184-7.184,1.728l-0.021,0.557l-0.308-0.185l-0.678,1.232l-0.678,0.247
			L36.646,57.877z"/>
		<g>
			<g>
				
					<linearGradient id="SVGID_7_" gradientUnits="userSpaceOnUse" x1="621.4551" y1="1823.0115" x2="621.4551" y2="1825.9071" gradientTransform="matrix(1 0 0 1 -580.2383 -1764.834)">
					<stop  offset="0" style="stop-color:#FFFFFF"/>
					<stop  offset="1" style="stop-color:#9D9B99"/>
				</linearGradient>
				<circle fill="url(#SVGID_7_)" cx="41.216" cy="59.621" r="1.482"/>
				<path fill="#817D7C" d="M41.216,61.196c-0.867,0-1.573-0.706-1.573-1.574s0.706-1.575,1.573-1.575
					c0.868,0,1.574,0.707,1.574,1.575S42.084,61.196,41.216,61.196z M41.216,58.232c-0.766,0-1.389,0.624-1.389,1.39
					s0.623,1.39,1.389,1.39c0.767,0,1.39-0.623,1.39-1.39S41.982,58.232,41.216,58.232z"/>
			</g>
			<g>
				
					<linearGradient id="SVGID_8_" gradientUnits="userSpaceOnUse" x1="620.7148" y1="1822.9919" x2="620.7148" y2="1824.4413" gradientTransform="matrix(1 0 0 1 -580.2383 -1764.834)">
					<stop  offset="0" style="stop-color:#13599D"/>
					<stop  offset="1" style="stop-color:#0E4A89"/>
				</linearGradient>
				<path fill="url(#SVGID_8_)" d="M39.734,59.622h1.482v-1.485C40.399,58.136,39.734,58.802,39.734,59.622z"/>
				
					<linearGradient id="SVGID_9_" gradientUnits="userSpaceOnUse" x1="622.1973" y1="1824.4734" x2="622.1973" y2="1825.9237" gradientTransform="matrix(1 0 0 1 -580.2383 -1764.834)">
					<stop  offset="0" style="stop-color:#13599D"/>
					<stop  offset="1" style="stop-color:#0E4A89"/>
				</linearGradient>
				<path fill="url(#SVGID_9_)" d="M41.217,59.62v1.483c0.818,0,1.481-0.663,1.481-1.483H41.217z"/>
			</g>
			<g>
				
					<linearGradient id="SVGID_10_" gradientUnits="userSpaceOnUse" x1="470.5547" y1="1471.1648" x2="473.876" y2="1471.1648" gradientTransform="matrix(1 0 0 1 -430.999 -1411.543)">
					<stop  offset="0" style="stop-color:#FFFFFF"/>
					<stop  offset="1" style="stop-color:#C7C8C8"/>
				</linearGradient>
				<path fill="url(#SVGID_10_)" d="M41.216,61.282c-0.916,0-1.66-0.744-1.66-1.659c0-0.916,0.744-1.661,1.66-1.661
					s1.661,0.745,1.661,1.661C42.878,60.538,42.133,61.282,41.216,61.282z M41.216,58.319c-0.72,0-1.303,0.583-1.303,1.303
					c0,0.718,0.585,1.302,1.303,1.302c0.719,0,1.305-0.584,1.305-1.302S41.935,58.319,41.216,58.319z"/>
			</g>
		</g>
		<ellipse fill="#787366" cx="44.93" cy="53.545" rx="2.465" ry="0.953"/>
		<g>
			<path fill="#C0B9AB" d="M24.05,81.716l-2.776,0.087c0,0,0.309-0.493-0.431-0.924c-0.739-0.432,2.956-2.033,2.956-2.033
				l0.062-1.047l-1.603,0.309l1.54-3.881h0.555l1.232-3.08l2.032-4.619l0.924-2.341l3.881-7.822l0.445-0.99
				c0.061-0.021,0.105-0.053,0.129-0.099c0.105-0.217-0.32-0.64-0.95-0.947c-0.629-0.305-1.225-0.376-1.331-0.158
				c-0.006,0.014-0.011,0.029-0.014,0.045c0-0.003-0.003-0.004-0.004-0.008l-4.065,8.809l-1.202,2.434l-1.348,3.316
				c0,0-1.971-0.282-3.511-0.344s0.024,1.615,0.024,1.615c1.047,1.725-1.109,3.08-1.109,3.08l-1.601,4.681c0,0,0,1.355,1.601,0.678
				l0.309,0.189l-1.355,2.891c0,0-0.492,2.278,1.663,1.662c1.255-0.358,2.905-0.486,4.066-0.531 M20.782,77.183l-0.433-0.432
				l1.171-2.218l0.715-1.184c0.055,0.085,0.122,0.173,0.208,0.26L20.782,77.183z"/>
			<path fill="#787366" d="M19.44,83.417c-0.32,0-0.579-0.09-0.77-0.27c-0.551-0.515-0.33-1.567-0.32-1.611l0.007-0.019l1.319-2.815
				l-0.197-0.122c-0.551,0.225-0.981,0.238-1.282,0.039c-0.398-0.264-0.402-0.798-0.402-0.82l0.004-0.03l1.612-4.711l0.028-0.019
				c0.005-0.002,0.532-0.338,0.924-0.872c0.513-0.7,0.566-1.396,0.158-2.072c-0.12-0.131-0.9-1.003-0.681-1.481
				c0.094-0.203,0.341-0.298,0.734-0.283c1.363,0.055,3.08,0.284,3.449,0.335l1.321-3.25l1.204-2.439l4.135-8.959l0.018,0.027
				c0.233-0.195,0.845-0.06,1.386,0.203c0.313,0.152,0.589,0.338,0.775,0.524c0.268,0.268,0.266,0.445,0.217,0.545
				c-0.027,0.058-0.075,0.102-0.144,0.132l-0.43,0.955l-3.882,7.826l-0.922,2.334l-2.033,4.623l-1.254,3.135h-0.554l-1.455,3.666
				l1.553-0.3l-0.071,1.224l-0.053,0.022c-1.147,0.496-2.977,1.425-2.998,1.799c-0.001,0.012-0.002,0.036,0.052,0.068
				c0.29,0.169,0.466,0.371,0.521,0.597c0.03,0.123,0.02,0.229-0.001,0.311l2.637-0.082l0.005,0.185L21.104,81.9l0.093-0.147
				c0.003-0.004,0.081-0.137,0.035-0.316c-0.045-0.175-0.192-0.336-0.436-0.479c-0.126-0.073-0.147-0.171-0.143-0.238
				c0.034-0.579,2.443-1.667,3.057-1.936l0.052-0.872l-1.65,0.317l1.625-4.096h0.555l1.209-3.021l2.033-4.623l0.922-2.338
				l3.885-7.829L32.8,55.3l0.038-0.013c0.028-0.009,0.062-0.026,0.076-0.052c0.022-0.048-0.01-0.163-0.182-0.334
				c-0.172-0.171-0.431-0.345-0.725-0.488c-0.646-0.313-1.146-0.329-1.208-0.203c-0.003,0.005-0.005,0.012-0.005,0.02l-0.038,0.24
				l-0.045-0.071l-3.995,8.656l-1.202,2.435l-1.373,3.378l-0.072-0.011c-0.019-0.002-1.983-0.281-3.501-0.342
				c-0.215-0.01-0.485,0.015-0.56,0.176c-0.13,0.283,0.333,0.938,0.655,1.283l0.011,0.016c0.449,0.74,0.392,1.53-0.166,2.289
				c-0.365,0.496-0.825,0.82-0.943,0.898l-1.586,4.635c0.003,0.079,0.036,0.465,0.321,0.652c0.253,0.168,0.641,0.143,1.151-0.073
				l0.043-0.019l0.419,0.258l-1.385,2.954c-0.021,0.104-0.18,1.009,0.268,1.429c0.263,0.245,0.693,0.284,1.281,0.117
				c1.263-0.361,2.92-0.491,4.089-0.537l0.007,0.185c-1.158,0.045-2.8,0.174-4.045,0.53C19.875,83.381,19.646,83.417,19.44,83.417z
				 M20.809,77.342l-0.571-0.572l1.201-2.278l0.794-1.315l0.081,0.125c0.057,0.088,0.12,0.168,0.196,0.245l0.046,0.045
				L20.809,77.342z M20.463,76.735l0.29,0.289l1.581-3.396c-0.033-0.035-0.064-0.071-0.093-0.11L21.6,74.582L20.463,76.735z"/>
		</g>
		<g>
			<linearGradient id="SVGID_11_" gradientUnits="userSpaceOnUse" x1="17.7949" y1="68.6843" x2="33.1055" y2="68.6843">
				<stop  offset="0" style="stop-color:#FFFFFF"/>
				<stop  offset="1" style="stop-color:#C8C8C8"/>
			</linearGradient>
			<path fill="url(#SVGID_11_)" d="M24.173,82.779c-1.15,0.045-2.8,0.174-4.044,0.529c-0.253,0.072-0.484,0.108-0.688,0.108
				c-0.374,0-0.662-0.123-0.858-0.365c-0.436-0.54-0.241-1.476-0.231-1.516l0.007-0.02l1.319-2.814l-0.197-0.122
				c-0.292,0.118-0.551,0.179-0.773,0.179c-0.721,0-0.911-0.628-0.911-0.96l0.004-0.03l1.612-4.712l0.028-0.018
				c0.005-0.002,0.532-0.338,0.924-0.873c0.513-0.698,0.566-1.396,0.158-2.071c-0.118-0.129-0.893-0.994-0.685-1.474
				c0.091-0.209,0.333-0.306,0.738-0.291c1.363,0.055,3.08,0.284,3.449,0.335l1.321-3.25l1.204-2.439l4.135-8.958l0.018,0.027
				c0.062-0.052,0.164-0.093,0.336-0.093c0.281,0,0.664,0.107,1.05,0.294c0.313,0.152,0.589,0.338,0.775,0.524
				c0.268,0.268,0.266,0.445,0.217,0.546c-0.027,0.058-0.075,0.101-0.144,0.131l-0.43,0.955l-3.882,7.826l-0.922,2.334l-2.033,4.623
				l-1.254,3.135h-0.554l-1.455,3.665l1.553-0.299l-0.071,1.224l-0.053,0.022c-1.147,0.496-2.977,1.425-2.998,1.799
				c-0.001,0.012-0.002,0.036,0.052,0.068c0.29,0.169,0.466,0.371,0.521,0.597c0.03,0.123,0.02,0.229-0.001,0.311l3.006-0.095
				 M24.05,81.808L21.104,81.9l0.093-0.147c0.003-0.004,0.081-0.138,0.035-0.316c-0.045-0.175-0.192-0.336-0.436-0.479
				c-0.126-0.073-0.147-0.171-0.143-0.238c0.034-0.579,2.443-1.667,3.057-1.936l0.052-0.872l-1.65,0.317l1.625-4.096h0.555
				l1.209-3.021l2.033-4.623l0.922-2.338l3.885-7.829L32.8,55.3l0.038-0.013c0.028-0.009,0.062-0.026,0.076-0.052
				c0.022-0.047-0.01-0.163-0.182-0.334c-0.172-0.171-0.431-0.345-0.725-0.488c-0.356-0.173-0.72-0.276-0.97-0.276
				c-0.127,0-0.216,0.028-0.238,0.075c-0.003,0.005-0.005,0.011-0.005,0.019l-0.038,0.24l-0.045-0.071l-3.995,8.656l-1.202,2.435
				l-1.373,3.378l-0.072-0.011c-0.019-0.001-1.983-0.282-3.501-0.342c-0.317-0.014-0.504,0.049-0.561,0.179
				c-0.126,0.286,0.336,0.938,0.656,1.28l0.011,0.016c0.449,0.74,0.392,1.531-0.166,2.289c-0.365,0.496-0.825,0.819-0.943,0.898
				l-1.586,4.636c0.004,0.109,0.057,0.76,0.727,0.76c0.209,0,0.459-0.061,0.746-0.182l0.043-0.019l0.419,0.258l-1.385,2.954
				c-0.019,0.098-0.162,0.907,0.196,1.351c0.252,0.312,0.713,0.378,1.353,0.195c1.154-0.331,2.649-0.467,3.784-0.522 M20.809,77.342
				l-0.571-0.572l1.201-2.278l0.794-1.315l0.081,0.125c0.057,0.088,0.12,0.168,0.196,0.245l0.046,0.045L20.809,77.342z
				 M20.463,76.734l0.29,0.29l1.581-3.396c-0.033-0.035-0.064-0.071-0.093-0.11L21.6,74.581L20.463,76.734z"/>
			<linearGradient id="SVGID_12_" gradientUnits="userSpaceOnUse" x1="17.7021" y1="68.6677" x2="33.1973" y2="68.6677">
				<stop  offset="0" style="stop-color:#FFFFFF"/>
				<stop  offset="1" style="stop-color:#C8C8C8"/>
			</linearGradient>
			<path fill="url(#SVGID_12_)" d="M19.44,83.51c-0.403,0-0.717-0.135-0.931-0.399c-0.465-0.576-0.259-1.552-0.25-1.593l0.01-0.03
				l1.288-2.75l-0.087-0.055c-0.284,0.112-0.541,0.168-0.765,0.168c-0.795,0-1.004-0.688-1.004-1.052l0.006-0.045l1.626-4.758
				l0.056-0.035c0.005-0.003,0.519-0.329,0.898-0.85c0.486-0.663,0.541-1.322,0.16-1.962c-0.172-0.186-0.922-1.044-0.695-1.565
				c0.108-0.249,0.38-0.361,0.826-0.346c1.295,0.052,2.923,0.263,3.387,0.326l1.294-3.185l1.207-2.445l4.204-9.109l0.059,0.093
				c0.28-0.132,0.836-0.028,1.398,0.245c0.322,0.157,0.606,0.349,0.8,0.542c0.307,0.306,0.297,0.523,0.234,0.651
				c-0.031,0.068-0.084,0.122-0.154,0.16l-0.417,0.925l-3.883,7.828l-0.918,2.327l-2.035,4.625l-1.275,3.19h-0.555l-1.368,3.451
				l1.503-0.29l-0.082,1.398l-0.104,0.045c-1.514,0.656-2.858,1.437-2.939,1.7c0.32,0.191,0.506,0.409,0.567,0.657
				c0.02,0.078,0.025,0.158,0.02,0.237l2.893-0.091l0.007,0.186l-0.373,0.011l0.005,0.185l-3.117,0.098l0.183-0.293l0,0
				c0,0,0.061-0.104,0.025-0.246c-0.039-0.149-0.172-0.292-0.393-0.421c-0.175-0.102-0.193-0.247-0.188-0.325
				c0.035-0.595,2.11-1.573,3.061-1.99l0.041-0.697l-1.7,0.326l1.711-4.31h0.555l1.186-2.964l2.034-4.625l0.922-2.334l3.887-7.837
				l0.476-1.056l0.077-0.026c0.007-0.001,0.014-0.005,0.017-0.006c-0.006-0.03-0.042-0.109-0.159-0.226
				c-0.164-0.165-0.413-0.331-0.7-0.471c-0.345-0.167-0.692-0.266-0.929-0.266c-0.105,0-0.15,0.02-0.16,0.027l-0.066,0.468
				l-0.086-0.135L26.8,63.094l-1.203,2.438L24.2,68.97l-0.144-0.021c-0.019-0.002-1.975-0.28-3.492-0.342
				c-0.265-0.011-0.434,0.033-0.473,0.124c-0.088,0.201,0.26,0.773,0.64,1.18l0.018,0.022c0.476,0.783,0.417,1.61-0.165,2.4
				c-0.35,0.475-0.781,0.794-0.941,0.903l-1.57,4.589c0.009,0.143,0.079,0.655,0.634,0.655c0.196,0,0.435-0.059,0.71-0.176
				l0.087-0.036l0.529,0.326l-1.415,3.019c-0.06,0.318-0.088,0.932,0.181,1.264c0.228,0.281,0.649,0.336,1.255,0.163
				c1.184-0.338,2.724-0.472,3.805-0.524l0.009,0.185c0.104-0.006,0.206-0.011,0.303-0.014l0.009,0.185
				c-1.156,0.045-2.791,0.172-4.023,0.524C19.894,83.47,19.653,83.51,19.44,83.51z M18.438,81.566c0,0-0.194,0.92,0.215,1.427
				c0.032,0.041,0.067,0.077,0.104,0.108c-0.037-0.031-0.071-0.067-0.104-0.108C18.268,82.515,18.42,81.663,18.438,81.566
				l0.007-0.021l1.351-2.88l0,0L18.438,81.566L18.438,81.566z M21.317,81.699c-0.018,0.057-0.037,0.093-0.042,0.101l-0.002,0.003
				l1.417-0.044l-1.399,0.043L21.317,81.699z M21.327,81.439c0.007,0.036,0.011,0.072,0.011,0.105
				C21.338,81.51,21.334,81.474,21.327,81.439z M21.082,81.049c0.117,0.105,0.194,0.219,0.231,0.34
				C21.277,81.267,21.199,81.154,21.082,81.049z M20.746,80.738c0,0.053,0.027,0.097,0.083,0.132
				C20.774,80.835,20.747,80.79,20.746,80.738z M23.799,78.845l-0.051,0.022c-0.764,0.334-1.423,0.662-1.927,0.955
				C22.671,79.337,23.726,78.879,23.799,78.845L23.799,78.845z M18.294,78.567c0.106,0.06,0.238,0.097,0.4,0.099
				C18.535,78.664,18.402,78.628,18.294,78.567z M19.222,78.576c-0.185,0.059-0.352,0.088-0.501,0.09
				C18.87,78.664,19.038,78.635,19.222,78.576z M17.887,77.801l-0.001,0.013c0.001,0.167,0.06,0.428,0.234,0.618
				c-0.155-0.168-0.225-0.4-0.233-0.615V77.801z M23.07,76.062l-0.812,2.045L23.07,76.062z M19.487,73.118l-1.601,4.681l0.005-0.016
				L19.487,73.118l0.026-0.018c0.127-0.084,0.568-0.397,0.922-0.875c0.026-0.037,0.052-0.074,0.076-0.111
				c-0.023,0.035-0.049,0.071-0.074,0.106C20.039,72.763,19.505,73.107,19.487,73.118z M23.799,74.226h0.555H23.799z M19.911,68.687
				c-0.113,0.358,0.368,1.008,0.679,1.344l0.012,0.016c0.006,0.01,0.012,0.02,0.019,0.029c-0.009-0.013-0.016-0.025-0.023-0.038
				l-0.006-0.007C20.305,69.724,19.797,69.051,19.911,68.687z M23.847,68.734c0.144,0.02,0.229,0.031,0.236,0.032l0,0l-0.071-0.01
				C23.974,68.752,23.918,68.743,23.847,68.734z M20.514,68.421c0.019,0,0.039,0.001,0.059,0.002
				c0.174,0.007,0.352,0.016,0.533,0.028c-0.182-0.013-0.36-0.021-0.533-0.028C20.553,68.422,20.532,68.421,20.514,68.421z
				 M28.037,59.973l-1.403,3.041l-1.204,2.44l-0.849,2.087l0.849-2.087l1.204-2.44L28.037,59.973z M29.596,62.062l-1.058,2.131
				l-0.341,0.866l0.341-0.866L29.596,62.062z M33.002,55.263c-0.002,0.004-0.003,0.008-0.005,0.013
				c-0.014,0.028-0.035,0.051-0.065,0.07c0.03-0.019,0.052-0.042,0.065-0.07C32.999,55.272,33,55.267,33.002,55.263z M31.038,54.045
				c0.264,0,0.642,0.106,1.009,0.284c0.146,0.072,0.283,0.149,0.406,0.231c-0.123-0.082-0.26-0.16-0.406-0.231
				C31.675,54.149,31.306,54.045,31.038,54.045z M20.837,77.5l-0.713-0.714l1.232-2.338L22.231,73l0.159,0.251
				c0.053,0.083,0.113,0.158,0.184,0.229l0.092,0.092L20.837,77.5z M20.781,77.183L20.781,77.183l1.329-2.854L20.781,77.183z
				 M20.35,76.752l0.365,0.364L20.35,76.752z M20.577,76.717l0.148,0.148l1.335-2.868l-0.383,0.633L20.577,76.717z M21.891,73.92
				l-0.373,0.619l-1.066,2.021l1.066-2.021L21.891,73.92z M22.325,73.477c0.023,0.03,0.05,0.06,0.076,0.089l0.042,0.045V73.61
				C22.401,73.568,22.362,73.523,22.325,73.477z M22.232,73.355l0.075,0.1c-0.026-0.034-0.05-0.068-0.072-0.104L22.232,73.355z"/>
		</g>
		<linearGradient id="SVGID_13_" gradientUnits="userSpaceOnUse" x1="19.0928" y1="81.9597" x2="20.2627" y2="81.9597">
			<stop  offset="0" style="stop-color:#FFFFFF"/>
			<stop  offset="1" style="stop-color:#C8C8C8"/>
		</linearGradient>
		<path fill="url(#SVGID_13_)" d="M19.678,82.545c-0.323,0-0.585-0.263-0.585-0.585c0-0.323,0.262-0.585,0.585-0.585
			c0.322,0,0.585,0.262,0.585,0.585C20.263,82.282,20,82.545,19.678,82.545z M19.678,81.559c-0.221,0-0.4,0.179-0.4,0.4
			c0,0.221,0.18,0.399,0.4,0.399s0.399-0.179,0.399-0.399C20.077,81.738,19.898,81.559,19.678,81.559z"/>
		<linearGradient id="SVGID_14_" gradientUnits="userSpaceOnUse" x1="59.8857" y1="65.1638" x2="74.1953" y2="65.1638">
			<stop  offset="0" style="stop-color:#FFFFFF"/>
			<stop  offset="1" style="stop-color:#C8C8C8"/>
		</linearGradient>
		<path fill="url(#SVGID_14_)" d="M64.896,68.392c-0.154,0-0.312-0.013-0.465-0.038c-0.988-0.156-1.006-1.869-1.003-2.15
			l-3.543-4.142l0.179-0.018c0.011-0.001,1.188-0.109,1.843-0.109c0.415,0,0.495,0.038,0.519,0.127
			c0.009,0.035,0.005,0.085-0.058,0.134c0.213,0.271,2.188,1.18,4.06,1.939l5.086-0.797c0.027-0.007,0.813-0.186,1.524-0.186
			c0.573,0,0.938,0.119,1.085,0.358c0.11,0.179,0.095,0.415-0.048,0.698c-0.478,0.958-1.481,1.158-2.237,1.158l0,0
			c-0.336,0-0.59-0.04-0.671-0.055c-1.717,0.64-4.312,1.733-4.48,2.155C66.466,68.02,65.746,68.392,64.896,68.392z M60.259,62.214
			l3.356,3.924l-0.001,0.036c-0.001,0.019-0.049,1.857,0.846,1.999c0.146,0.023,0.292,0.034,0.437,0.034
			c0.775,0,1.427-0.324,1.619-0.808c0.255-0.636,4.166-2.103,4.611-2.268l0.025-0.01l0.025,0.006c0.003,0,0.28,0.056,0.66,0.056l0,0
			c0.704,0,1.636-0.184,2.072-1.055c0.111-0.225,0.13-0.399,0.056-0.521c-0.109-0.177-0.431-0.271-0.928-0.271
			c-0.69,0-1.479,0.181-1.489,0.183l-5.144,0.806l-0.023-0.009c-1.258-0.512-4.187-1.739-4.213-2.128
			c-0.001-0.021,0.002-0.042,0.009-0.061c-0.055-0.005-0.14-0.009-0.271-0.009C61.413,62.12,60.613,62.182,60.259,62.214z
			 M65.104,67.588c-0.368,0-0.668-0.29-0.668-0.646s0.3-0.646,0.668-0.646c0.367,0,0.666,0.29,0.666,0.646
			S65.471,67.588,65.104,67.588z M65.104,66.479c-0.266,0-0.482,0.208-0.482,0.462c0,0.255,0.217,0.462,0.482,0.462
			s0.481-0.207,0.481-0.462C65.585,66.687,65.369,66.479,65.104,66.479z M67.056,65.815l-0.038-0.047
			c-0.011-0.012-0.1-0.124-0.08-0.333c0.028-0.324,0.289-0.691,0.775-1.091l0.018-0.015l0.021-0.005
			c0.087-0.019,2.145-0.463,3.005-0.463c0.226,0,0.349,0.028,0.409,0.095c0.081,0.09,0.13,0.164,0.11,0.242
			c-0.02,0.08-0.097,0.109-0.172,0.137c-0.074,0.027-0.167,0.062-0.249,0.146c-0.251,0.25-3.16,1.141-3.741,1.316L67.056,65.815z
			 M67.813,64.501c-0.73,0.607-0.718,0.97-0.678,1.098c1.332-0.405,3.424-1.083,3.59-1.248c0.11-0.111,0.233-0.157,0.314-0.188
			c0.014-0.005,0.029-0.011,0.042-0.017c-0.009-0.014-0.025-0.035-0.053-0.064c-0.002-0.001-0.044-0.035-0.272-0.035
			C69.962,64.047,68.04,64.453,67.813,64.501z M63.737,65.26l-2.357-2.169l0.794-0.318l2.133,1.192
			c0.064,0.045,0.577,0.404,0.488,0.775c-0.061,0.263-0.394,0.431-1.015,0.514L63.737,65.26z M61.722,63.154l2.076,1.912
			c0.658-0.095,0.795-0.271,0.818-0.369c0.05-0.21-0.286-0.491-0.407-0.574l-2.049-1.145L61.722,63.154z"/>
		<g>
			<path fill="#C0B9AB" d="M59.925,56.712c0,0,1.478,1.598,0,1.415c-1.479-0.182-2.083,0.605-2.027,2.089l1.34,1.534h2.903
				c0,0,0.221,0.693,4.102,2.2c0,0,6.702-0.48,6.968-0.964c0.265-0.484,3.283-2.655,3.283-2.655l11.271-2.205
				c0,0,1.355-1.353-1.417-3.2l-10.096,0.116l-0.19,1.608c0,0-0.278-1.3-1.634-0.938C73.071,56.073,63.153,59.571,59.925,56.712z"/>
			<path fill="#787366" d="M66.229,64.045l-0.021-0.008c-3.302-1.281-3.983-1.981-4.122-2.194h-2.891l-1.39-1.59l-0.002-0.033
				c-0.03-0.802,0.134-1.394,0.486-1.761c0.358-0.37,0.91-0.514,1.645-0.423c0.074,0.009,0.143,0.013,0.203,0.013l0,0
				c0.187,0,0.299-0.041,0.335-0.123c0.104-0.239-0.323-0.833-0.616-1.15l0.128-0.131c0.819,0.725,2.161,1.091,3.993,1.091
				c3.515,0,7.861-1.332,9.717-1.901c0.327-0.1,0.563-0.172,0.709-0.211c0.166-0.043,0.324-0.066,0.473-0.066
				c0.637,0,0.972,0.404,1.136,0.717l0.157-1.323l10.205-0.118l0.024,0.017c1.108,0.738,1.708,1.492,1.781,2.239
				c0.066,0.678-0.334,1.086-0.352,1.104l-0.019,0.019l-0.028,0.005L76.53,60.419c-0.847,0.609-3.031,2.232-3.24,2.612
				c-0.275,0.504-5.913,0.932-7.041,1.013L66.229,64.045z M59.279,61.658h2.931l0.021,0.064c0.01,0.023,0.327,0.696,4.026,2.135
				c3.198-0.229,6.688-0.628,6.872-0.915c0.272-0.497,3.186-2.597,3.31-2.686l0.037-0.016l11.241-2.198
				c0.071-0.084,0.332-0.426,0.279-0.939c-0.068-0.674-0.647-1.394-1.676-2.084l-9.986,0.116l-0.245,2.075l-0.117-0.539
				c-0.009-0.038-0.212-0.928-1.095-0.928c-0.132,0-0.274,0.02-0.426,0.059c-0.143,0.039-0.389,0.115-0.701,0.21
				c-1.864,0.571-6.229,1.909-9.771,1.909c-1.525,0-2.726-0.253-3.58-0.753c0.185,0.279,0.341,0.61,0.244,0.832
				c-0.067,0.156-0.237,0.235-0.504,0.235l0,0c-0.068,0-0.144-0.005-0.226-0.015c-0.672-0.083-1.174,0.042-1.489,0.369
				c-0.312,0.324-0.458,0.859-0.435,1.593L59.279,61.658z"/>
		</g>
		<linearGradient id="SVGID_15_" gradientUnits="userSpaceOnUse" x1="35.5117" y1="77.5388" x2="46.9199" y2="77.5388">
			<stop  offset="0" style="stop-color:#FFFFFF"/>
			<stop  offset="1" style="stop-color:#C8C8C8"/>
		</linearGradient>
		<path fill="url(#SVGID_15_)" d="M35.512,78.272c0,0,1.372,3.141,3.616,3.448c2.244,0.309,5.548-0.432,5.548-0.432
			s2.867-3.141,2.12-4.804c-0.749-1.662-1.496-3.203-3.74-3.203s-6.483,1.479-7.105,2.711L35.512,78.272z"/>
		<g>
			<linearGradient id="SVGID_16_" gradientUnits="userSpaceOnUse" x1="31.6733" y1="78.7449" x2="88.7197" y2="78.7449">
				<stop  offset="0" style="stop-color:#FFFFFF"/>
				<stop  offset="1" style="stop-color:#C8C8C8"/>
			</linearGradient>
			<path fill="url(#SVGID_16_)" d="M35.575,78.22c-2.058,0.247-1.994,2.156-2.119,2.341c-0.124,0.185,5.61,4.62,5.61,4.62
				l11.531-0.432c1.309,0.738,5.174-1.294,5.174-1.294l6.919,0.062c0,0-0.436-0.555,0.25-1.417c0.686-0.863,2.244,0,2.244,0
				l1.932,0.062c0.623-2.094,2.618-2.341,2.618-2.341l0.168-1.858l14.79-6.888c2.556,2.218,2.057,5.234,2.057,5.234l-15.27,5.729
				l-1.434-0.185l-1.496,1.416l2.992-0.122l0.624-0.986l14.772-5.482c2.182,0.925,1.746,3.696,1.746,3.696l-0.312,0.985
				l-15.272,4.005h-1.745l-1.621-0.125c-2.555-1.108-2.992-0.245-2.992-0.245c-2.805,0.491-4.301-0.985-4.551-0.432
				c-0.248,0.555-5.235,0.308-5.235,0.308s-2.058-0.554-2.119-0.062c-0.063,0.492-3.865,1.602-3.865,1.602s-9.537,0-11.095,0
				c-1.559,0-2.681-0.616-2.681-0.616l-3.679-2.833c0,0-2.492-1.479-1.683-4.127c0.811-2.647,4.177-2.895,4.177-2.895L35.575,78.22z
				"/>
			<path fill="#787366" d="M50.985,86.505H39.877c-1.564,0-2.679-0.602-2.726-0.627l-3.689-2.84
				c-0.016-0.01-2.537-1.541-1.715-4.229c0.339-1.11,1.186-1.974,2.444-2.499c0.946-0.393,1.778-0.458,1.813-0.46l0.12-0.009
				l-0.473,2.463l-0.066,0.008c-1.631,0.195-1.875,1.481-1.979,2.03c-0.021,0.11-0.035,0.179-0.053,0.227
				c0.253,0.365,3.415,2.874,5.541,4.519l11.524-0.431l0.023,0.012c0.176,0.1,0.417,0.15,0.717,0.15c1.603,0,4.341-1.43,4.368-1.444
				l0.021-0.012l6.785,0.062c-0.098-0.235-0.186-0.728,0.334-1.382c0.221-0.277,0.543-0.418,0.958-0.418
				c0.626,0,1.26,0.32,1.383,0.385l1.84,0.059c0.584-1.837,2.23-2.254,2.6-2.325l0.167-1.842l0.048-0.022l14.845-6.912l0.045,0.039
				c2.565,2.226,2.093,5.289,2.088,5.319l-0.009,0.053L71.49,82.135l-1.413-0.182l-1.284,1.216l2.697-0.11l0.614-0.971l0.029-0.011
				l14.808-5.495l0.033,0.015c0.922,0.39,1.525,1.172,1.746,2.261c0.164,0.815,0.059,1.505,0.055,1.534l-0.33,1.048l-0.049,0.012
				l-15.284,4.008h-1.757l-1.657-0.131c-0.854-0.371-1.558-0.559-2.091-0.559c-0.626,0-0.782,0.268-0.783,0.271l-0.021,0.038
				l-0.044,0.01c-0.392,0.068-0.784,0.104-1.168,0.104c-1.116,0-1.968-0.293-2.532-0.486c-0.282-0.097-0.507-0.174-0.646-0.174
				c-0.086,0-0.116,0.027-0.136,0.071c-0.052,0.115-0.188,0.417-3.021,0.417c-1.184,0-2.294-0.054-2.305-0.054l-0.02-0.004
				c-0.01-0.002-0.98-0.262-1.589-0.262c-0.25,0-0.405,0.045-0.414,0.123c-0.065,0.513-3.025,1.414-3.931,1.679L50.985,86.505z
				 M37.252,85.723c0.003,0,1.111,0.598,2.625,0.598h11.082c1.797-0.525,3.751-1.255,3.786-1.521
				c0.023-0.188,0.225-0.284,0.598-0.284c0.606,0,1.517,0.236,1.628,0.266c0.112,0.006,1.165,0.054,2.285,0.054
				c2.583,0,2.828-0.256,2.852-0.308c0.055-0.12,0.157-0.181,0.305-0.181c0.17,0,0.396,0.077,0.707,0.184
				c0.552,0.189,1.387,0.477,2.472,0.477c0.36,0,0.73-0.032,1.098-0.095c0.074-0.098,0.314-0.327,0.919-0.327
				c0.556,0,1.279,0.191,2.149,0.566l1.605,0.123l1.727-0.001L88.3,81.285l0.296-0.935c0.001-0.014,0.391-2.671-1.659-3.569
				l-14.709,5.458l-0.633,1l-3.288,0.135l1.707-1.615l1.454,0.188l15.197-5.703c0.049-0.402,0.268-3.063-1.988-5.058l-14.688,6.839
				l-0.169,1.88l-0.074,0.009c-0.02,0.004-1.943,0.268-2.542,2.276l-0.02,0.068l-2.026-0.065l-0.018-0.011
				c-0.009-0.003-0.682-0.371-1.314-0.371c-0.355,0-0.63,0.116-0.813,0.349c-0.629,0.789-0.265,1.282-0.249,1.303l0.115,0.149
				L62.69,83.61l-6.896-0.062c-0.277,0.145-2.843,1.455-4.434,1.455c-0.32,0-0.583-0.054-0.784-0.16l-11.541,0.431l-0.025-0.021
				c-0.015-0.011-1.45-1.122-2.853-2.241c-2.903-2.316-2.848-2.398-2.778-2.502c0.013-0.021,0.031-0.118,0.047-0.202
				c0.11-0.582,0.366-1.933,2.071-2.171l0.4-2.09c-0.264,0.033-0.926,0.138-1.64,0.436c-1.222,0.511-2.007,1.312-2.334,2.381
				c-0.78,2.547,1.617,4.006,1.642,4.021L37.252,85.723L37.252,85.723z"/>
		</g>
		<linearGradient id="SVGID_17_" gradientUnits="userSpaceOnUse" x1="35.5752" y1="77.0808" x2="36.0117" y2="77.0808">
			<stop  offset="0" style="stop-color:#FFFFFF"/>
			<stop  offset="1" style="stop-color:#C8C8C8"/>
		</linearGradient>
		<line fill="url(#SVGID_17_)" x1="36.012" y1="75.942" x2="35.575" y2="78.22"/>
	</g>
	<g>
		<g>
			<path fill-rule="evenodd" clip-rule="evenodd" fill="#787366" d="M102.483,23.656c0,0.374,0,0.589,0,0.805
				c0.001,6.875,0.001,13.75,0.001,20.626c-0.001,0.724-0.119,0.893-0.818,0.911c-1.089,0.031-2.18-0.004-3.269,0.018
				c-0.535,0.01-0.497-0.446-0.606-0.735c-0.041-0.109,0.194-0.367,0.353-0.498c0.175-0.146,0.406-0.225,0.652-0.352
				c-0.129-0.26-0.238-0.479-0.412-0.831c0.393,0,0.698-0.032,0.996,0.007c0.563,0.07,0.743-0.119,0.739-0.708
				c-0.024-4.537-0.014-9.074-0.014-13.612c0-0.931-0.016-1.862,0.005-2.793c0.01-0.394-0.128-0.503-0.516-0.503
				C91.946,26,84.298,26.002,76.651,25.988c-0.491-0.001-0.59,0.173-0.589,0.62c0.013,5.469,0.014,10.938-0.004,16.406
				c-0.002,0.488,0.159,0.601,0.614,0.598c2.556-0.019,5.112-0.01,7.667-0.011c0.151,0,0.305,0,0.561,0
				c-0.177,0.312-0.305,0.54-0.454,0.804c0.187,0.108,0.37,0.183,0.515,0.303c0.197,0.167,0.531,0.387,0.513,0.549
				c-0.051,0.422-0.222,0.782-0.828,0.776c-3.308-0.033-6.617-0.014-9.926-0.021c-0.843-0.002-1.012-0.185-1.012-1
				c-0.001-6.757-0.001-13.513,0-20.27c0-1.044,0.106-1.161,1.15-1.161c8.42-0.004,16.841-0.006,25.262-0.002
				C100.886,23.58,101.651,23.628,102.483,23.656z"/>
			<linearGradient id="SVGID_18_" gradientUnits="userSpaceOnUse" x1="73.4336" y1="34.8044" x2="102.7578" y2="34.8044">
				<stop  offset="0" style="stop-color:#FFFFFF"/>
				<stop  offset="1" style="stop-color:#C8C8C8"/>
			</linearGradient>
			<path fill="url(#SVGID_18_)" d="M84.661,46.306h-0.019c-1.774-0.017-3.528-0.02-5.158-0.02l-2.775,0.001
				c-0.664,0-1.326-0.001-1.989-0.002c-0.986-0.002-1.286-0.3-1.286-1.273v-20.27c0-1.194,0.239-1.435,1.425-1.436
				c8.421-0.003,16.841-0.006,25.262-0.001c0.524,0,1.042,0.022,1.589,0.045c0.256,0.012,0.517,0.022,0.783,0.031l0.266,0.009
				v21.696c0,0.783-0.162,1.16-1.084,1.186c-0.379,0.01-0.757,0.014-1.136,0.014l-1.267-0.004c-0.289,0-0.579,0.001-0.868,0.008
				h-0.001c-0.644,0-0.759-0.483-0.82-0.742c-0.015-0.059-0.027-0.117-0.048-0.17c-0.112-0.295,0.224-0.632,0.434-0.807
				c0.14-0.116,0.296-0.191,0.459-0.268l-0.485-0.979h0.442c0.126,0,0.243-0.002,0.353-0.005c0.265-0.008,0.493-0.009,0.679,0.014
				c0.062,0.008,0.118,0.013,0.169,0.013c0.065,0,0.152-0.008,0.188-0.043c0.027-0.029,0.075-0.119,0.073-0.404
				c-0.019-3.462-0.017-6.98-0.015-10.383l0.001-3.23c0-0.274-0.001-0.549-0.003-0.824c-0.003-0.647-0.007-1.316,0.008-1.976
				c0.004-0.157-0.022-0.192-0.022-0.192c-0.001-0.001-0.037-0.03-0.214-0.03c-7.657,0.01-15.301,0.013-22.949-0.002
				c-0.213,0-0.261,0.038-0.27,0.045c-0.013,0.014-0.045,0.069-0.045,0.3c0.014,6.002,0.014,11.368-0.003,16.407
				c-0.001,0.221,0.038,0.271,0.046,0.279c0.011,0.01,0.06,0.043,0.276,0.043c1.344-0.009,2.672-0.012,4.001-0.012l4.715,0.002
				l-0.548,0.968c0.107,0.058,0.215,0.12,0.314,0.204c0.037,0.031,0.078,0.063,0.12,0.098c0.256,0.202,0.521,0.412,0.488,0.694
				C85.664,45.965,85.3,46.306,84.661,46.306z M79.484,45.738c1.631,0,3.386,0.003,5.164,0.02l0.013,0.275v-0.274
				c0.342,0,0.48-0.125,0.534-0.489c-0.051-0.065-0.194-0.179-0.276-0.244c-0.048-0.037-0.094-0.074-0.135-0.108
				c-0.076-0.063-0.176-0.115-0.289-0.176c-0.062-0.031-0.123-0.064-0.187-0.101l-0.234-0.136l0.356-0.629l-3.774-0.002
				c-1.327,0-2.654,0.003-3.981,0.012c-0.001,0-0.001,0-0.001,0c-0.247,0-0.504-0.024-0.685-0.205
				c-0.184-0.184-0.206-0.453-0.205-0.667c0.017-5.038,0.017-10.403,0.004-16.404c0-0.251,0.024-0.508,0.205-0.689
				c0.182-0.183,0.445-0.206,0.653-0.206c7.656,0.014,15.3,0.013,22.947,0.002c0.199,0,0.444,0.021,0.612,0.194
				c0.169,0.173,0.183,0.419,0.179,0.588c-0.015,0.653-0.011,1.318-0.008,1.962c0.001,0.275,0.002,0.551,0.002,0.826l-0.001,3.23
				c-0.001,3.402-0.003,6.92,0.016,10.38c0.002,0.259-0.023,0.583-0.233,0.793c-0.177,0.177-0.423,0.238-0.814,0.188
				c-0.139-0.017-0.319-0.018-0.523-0.013l0.339,0.684l-0.239,0.125c-0.08,0.042-0.159,0.079-0.235,0.114
				c-0.147,0.069-0.274,0.128-0.368,0.206c-0.11,0.092-0.206,0.204-0.246,0.265c0.016,0.051,0.029,0.107,0.043,0.163
				c0.069,0.288,0.096,0.321,0.265,0.321c0.306-0.006,0.599-0.008,0.892-0.008l1.267,0.004c0.373,0,0.747-0.003,1.12-0.014
				c0.51-0.014,0.551-0.015,0.551-0.637V23.92c-0.176-0.007-0.35-0.014-0.523-0.021c-0.541-0.022-1.053-0.044-1.565-0.044
				c-8.421-0.004-16.841-0.003-25.262,0.001c-0.876,0-0.876,0-0.876,0.887v20.27c0,0.669,0.056,0.724,0.737,0.725
				c0.664,0.001,1.326,0.001,1.989,0.001L79.484,45.738z"/>
		</g>
		<g>
			<path fill-rule="evenodd" clip-rule="evenodd" fill="#787366" d="M97.471,42.802c-0.59,0.553-0.612,1.062,0.27,1.458
				c0.001,0.062,0.002,0.122,0.004,0.185c-0.175,0.093-0.407,0.148-0.508,0.292c-0.105,0.151-0.185,0.473-0.099,0.577
				c0.346,0.422,0.342,0.681-0.219,0.851c-0.122,0.038-0.219,0.154-0.345,0.247c0.07,0.201,0.187,0.386,0.184,0.568
				c-0.003,0.154-0.148,0.442-0.223,0.44c-0.737-0.027-0.713,0.438-0.663,0.943c0.005,0.053-0.031,0.112-0.075,0.25
				c-0.756-0.265-1.137,0.079-1.113,0.995c-0.823-0.526-1.25-0.188-1.514,0.614c-0.627-0.744-1.117-0.591-1.507,0.183
				c-0.272-0.301-0.479-0.529-0.744-0.819c-0.627,0.697-1.1,0.565-1.328-0.326c-0.234,0.063-0.412,0.089-0.572,0.157
				c-0.376,0.16-0.535-0.015-0.541-0.36c-0.006-0.46-0.207-0.592-0.639-0.479c-0.353,0.092-0.554-0.047-0.478-0.431
				c0.084-0.425,0.015-0.685-0.501-0.695c-0.334-0.006-0.513-0.186-0.332-0.555c0.067-0.14,0.09-0.301,0.151-0.513
				c-0.261-0.17-0.661-0.293-0.759-0.538c-0.074-0.19,0.228-0.53,0.507-0.938c-0.154-0.087-0.312-0.172-0.465-0.263
				c-0.136-0.08-0.267-0.167-0.479-0.302c0.377-0.289,0.625-0.48,0.889-0.681c-0.208-0.331-0.361-0.576-0.557-0.888
				c0.491-0.327,1.271-0.569,0.554-1.385c0.225-0.107,0.357-0.209,0.504-0.231c0.405-0.062,0.594-0.236,0.501-0.676
				c-0.086-0.399,0.163-0.44,0.495-0.442c0.19,0,0.495-0.096,0.553-0.233c0.316-0.749,0.295-0.757,1.079-0.447
				c0.066-0.074,0.175-0.145,0.211-0.243c0.207-0.571,0.482-0.772,0.99-0.266c0.059,0.06,0.337-0.013,0.44-0.105
				c0.156-0.14,0.249-0.35,0.437-0.633c0.489,0.81,0.962,1.062,1.524,0.324c0.129,0.157,0.259,0.249,0.288,0.365
				c0.13,0.501,0.362,0.654,0.847,0.371c0.321-0.187,0.481,0.035,0.518,0.334c0.054,0.46,0.249,0.669,0.743,0.541
				c0.415-0.108,0.417,0.188,0.362,0.462c-0.078,0.396,0.058,0.591,0.469,0.626c0.339,0.029,0.623,0.186,0.411,0.572
				c-0.259,0.471-0.105,0.679,0.356,0.809C97.216,42.551,97.31,42.676,97.471,42.802z"/>
			<linearGradient id="SVGID_19_" gradientUnits="userSpaceOnUse" x1="85.0039" y1="44.2429" x2="98.0215" y2="44.2429">
				<stop  offset="0" style="stop-color:#FFFFFF"/>
				<stop  offset="1" style="stop-color:#C8C8C8"/>
			</linearGradient>
			<path fill="url(#SVGID_19_)" d="M91.729,50.885l-0.818-0.901c-0.244,0.216-0.477,0.322-0.704,0.322
				c-0.255,0-0.584-0.131-0.801-0.717c-0.111,0.026-0.201,0.048-0.279,0.082c-0.129,0.054-0.244,0.081-0.353,0.081
				c-0.271,0-0.562-0.182-0.569-0.689c-0.004-0.248-0.053-0.248-0.11-0.248c-0.049,0-0.111,0.01-0.185,0.03
				c-0.093,0.023-0.18,0.036-0.261,0.036c-0.24,0-0.378-0.106-0.45-0.194c-0.119-0.145-0.155-0.343-0.106-0.591
				c0.049-0.245,0.013-0.305,0.006-0.313c-0.016-0.019-0.083-0.051-0.242-0.054c-0.354-0.007-0.519-0.159-0.596-0.285
				s-0.135-0.343,0.021-0.666c0.032-0.066,0.053-0.151,0.079-0.258c-0.022-0.012-0.045-0.023-0.066-0.034
				c-0.244-0.126-0.521-0.271-0.627-0.536c-0.115-0.289,0.094-0.581,0.36-0.949c-0.068-0.038-0.137-0.078-0.205-0.118
				c-0.092-0.054-0.184-0.112-0.3-0.187l-0.519-0.328l1.004-0.769l-0.566-0.902l0.222-0.148c0.078-0.052,0.161-0.102,0.247-0.152
				c0.212-0.124,0.45-0.266,0.473-0.4c0.015-0.095-0.062-0.245-0.22-0.423l-0.238-0.273l0.327-0.156
				c0.071-0.035,0.134-0.068,0.189-0.098c0.126-0.069,0.246-0.135,0.391-0.157c0.191-0.029,0.25-0.078,0.268-0.103
				c0.028-0.04,0.03-0.128,0.005-0.245c-0.048-0.23-0.018-0.416,0.094-0.552c0.164-0.203,0.433-0.221,0.671-0.222
				c0.112,0,0.261-0.051,0.31-0.087l0.015-0.035c0.19-0.452,0.315-0.752,0.692-0.752c0.149,0,0.312,0.055,0.553,0.148
				c0.008-0.008,0.014-0.017,0.018-0.022c0.063-0.176,0.265-0.73,0.743-0.73c0.2,0,0.405,0.1,0.63,0.306
				c0.048-0.012,0.109-0.034,0.132-0.052c0.074-0.066,0.141-0.176,0.225-0.315c0.049-0.081,0.102-0.167,0.165-0.264l0.238-0.36
				l0.225,0.37c0.331,0.547,0.541,0.629,0.638,0.629c0.119,0,0.27-0.114,0.435-0.331l0.212-0.277l0.22,0.271
				c0.038,0.048,0.078,0.089,0.114,0.127c0.093,0.097,0.189,0.199,0.226,0.345c0.03,0.114,0.092,0.305,0.173,0.305
				c0.034,0,0.115-0.013,0.271-0.104c0.121-0.07,0.239-0.106,0.353-0.106c0.24,0,0.517,0.169,0.574,0.644
				c0.04,0.338,0.134,0.338,0.216,0.338c0.052,0,0.115-0.01,0.188-0.029c0.324-0.084,0.527,0.035,0.612,0.139
				c0.155,0.189,0.124,0.457,0.087,0.642c-0.026,0.133-0.016,0.208,0.004,0.232c0.018,0.026,0.085,0.056,0.22,0.068
				c0.33,0.027,0.563,0.149,0.672,0.353c0.067,0.125,0.114,0.335-0.044,0.624c-0.114,0.207-0.089,0.273-0.088,0.275
				c0.003,0.007,0.035,0.069,0.278,0.138c0.142,0.04,0.24,0.131,0.339,0.22c0.038,0.035,0.081,0.075,0.131,0.113l0.251,0.197
				l-0.233,0.219c-0.237,0.222-0.354,0.422-0.332,0.562c0.025,0.145,0.211,0.304,0.525,0.445l0.159,0.071l0.01,0.524l-0.147,0.079
				c-0.061,0.033-0.127,0.062-0.191,0.089c-0.083,0.035-0.196,0.083-0.222,0.121c-0.05,0.071-0.086,0.211-0.086,0.276
				c0.168,0.21,0.336,0.481,0.249,0.767c-0.09,0.295-0.399,0.42-0.625,0.49c-0.021,0.006-0.059,0.036-0.096,0.067
				c0.063,0.145,0.131,0.309,0.128,0.49c-0.003,0.166-0.164,0.71-0.495,0.71l-0.061-0.001c-0.146,0-0.25,0.026-0.294,0.074
				c-0.084,0.094-0.056,0.379-0.036,0.569c0.01,0.097-0.02,0.174-0.048,0.248c-0.011,0.03-0.024,0.066-0.039,0.112l-0.084,0.27
				l-0.268-0.094c-0.137-0.047-0.254-0.071-0.353-0.071c-0.139,0-0.202,0.048-0.237,0.084c-0.111,0.115-0.168,0.369-0.159,0.716
				l0.014,0.517l-0.436-0.279c-0.219-0.139-0.402-0.208-0.546-0.208c-0.091,0-0.337,0-0.559,0.677l-0.153,0.468l-0.317-0.375
				c-0.21-0.25-0.406-0.388-0.551-0.388c-0.212,0-0.405,0.323-0.503,0.515L91.729,50.885z M90.919,49.177l0.698,0.77
				c0.404-0.56,0.935-0.639,1.454-0.212c0.157-0.311,0.436-0.654,0.919-0.654c0.141,0,0.287,0.029,0.441,0.088
				c0.042-0.289,0.139-0.509,0.293-0.667c0.206-0.211,0.504-0.292,0.864-0.228c-0.027-0.296-0.032-0.634,0.187-0.876
				c0.146-0.162,0.358-0.244,0.647-0.253c0.03-0.058,0.06-0.137,0.061-0.171c0.001-0.066-0.043-0.167-0.088-0.273
				c-0.028-0.065-0.057-0.131-0.081-0.2l-0.066-0.192l0.164-0.12c0.035-0.026,0.067-0.054,0.099-0.081
				c0.09-0.077,0.191-0.165,0.329-0.206c0.222-0.067,0.26-0.125,0.261-0.128l0,0c-0.002,0-0.002-0.076-0.176-0.288
				c-0.206-0.252-0.043-0.722,0.086-0.906c0.078-0.112,0.187-0.184,0.298-0.239c-0.304-0.195-0.479-0.423-0.522-0.686
				c-0.045-0.27,0.054-0.548,0.289-0.834c-0.022-0.02-0.043-0.035-0.055-0.04c-0.214-0.062-0.516-0.175-0.633-0.453
				c-0.088-0.208-0.051-0.454,0.112-0.752c0.041-0.075,0.04-0.108,0.04-0.109c-0.006,0-0.071-0.044-0.233-0.058
				c-0.286-0.023-0.485-0.116-0.611-0.283c-0.125-0.166-0.159-0.384-0.104-0.669c0.015-0.072,0.02-0.121,0.02-0.153
				c-0.012,0.002-0.026,0.005-0.043,0.01c-0.119,0.031-0.226,0.045-0.325,0.045c-0.303,0-0.68-0.142-0.761-0.82
				c-0.012-0.09-0.033-0.14-0.047-0.161c-0.006,0.005-0.027,0.013-0.059,0.032c-0.641,0.374-1.069,0.162-1.251-0.54
				c-0.002-0.005-0.01-0.013-0.019-0.024c-0.213,0.203-0.429,0.303-0.656,0.303c-0.355,0-0.642-0.25-0.862-0.533
				c-0.078,0.126-0.157,0.239-0.263,0.333c-0.139,0.124-0.386,0.197-0.543,0.197c-0.115,0-0.207-0.034-0.275-0.102
				c-0.203-0.203-0.299-0.209-0.309-0.209c-0.026,0-0.118,0.067-0.23,0.375c-0.046,0.131-0.143,0.219-0.212,0.284
				c-0.018,0.016-0.036,0.033-0.052,0.049l-0.127,0.141l-0.178-0.07c-0.234-0.093-0.438-0.173-0.515-0.173
				c-0.024,0.027-0.107,0.225-0.188,0.416l-0.023,0.058c-0.127,0.302-0.597,0.4-0.805,0.4c-0.146,0.001-0.212,0.012-0.239,0.021
				c0,0.016,0,0.045,0.011,0.09c0.06,0.279,0.029,0.499-0.091,0.672c-0.122,0.177-0.33,0.286-0.637,0.333
				c-0.034,0.005-0.079,0.026-0.134,0.055c0.127,0.209,0.175,0.407,0.144,0.596c-0.062,0.387-0.415,0.598-0.729,0.783l0.543,0.864
				l-0.775,0.595c0.048,0.031,0.093,0.059,0.14,0.086c0.107,0.064,0.217,0.125,0.325,0.185l0.397,0.224l-0.17,0.248
				c-0.06,0.086-0.119,0.168-0.177,0.248c-0.112,0.154-0.261,0.36-0.29,0.453c0.054,0.073,0.235,0.166,0.357,0.23
				c0.1,0.051,0.198,0.103,0.284,0.158l0.169,0.11l-0.056,0.195c-0.019,0.067-0.034,0.129-0.048,0.188
				c-0.032,0.129-0.062,0.252-0.12,0.371c-0.042,0.087-0.045,0.13-0.044,0.143c0.005-0.001,0.044,0.017,0.136,0.019
				c0.308,0.006,0.522,0.09,0.658,0.258c0.183,0.227,0.152,0.527,0.106,0.764c-0.014,0.068-0.012,0.11-0.009,0.13
				c0.005,0,0.014,0.001,0.026,0.001c0.022,0,0.063-0.004,0.121-0.019c0.121-0.032,0.227-0.047,0.324-0.047
				c0.242,0,0.649,0.102,0.659,0.788c0.002,0.103,0.021,0.15,0.027,0.16c0.008-0.01,0.052-0.014,0.132-0.048
				c0.128-0.054,0.259-0.085,0.398-0.118c0.063-0.014,0.134-0.031,0.21-0.051l0.268-0.072l0.068,0.27
				c0.09,0.348,0.223,0.564,0.349,0.564c0.058,0,0.223-0.035,0.51-0.355L90.919,49.177z"/>
		</g>
		<path fill-rule="evenodd" clip-rule="evenodd" fill="#787366" d="M87.956,33.759c-2.971-0.001-5.941-0.013-8.913,0.01
			c-0.519,0.005-0.693-0.137-0.676-0.667c0.038-1.147-0.068-0.977,0.995-0.978c5.863-0.004,11.727-0.003,17.59-0.001
			c0.699,0,0.666,0.005,0.711,0.908c0.027,0.575-0.158,0.746-0.732,0.741C93.939,33.746,90.947,33.76,87.956,33.759z"/>
		<path opacity="0.8" fill-rule="evenodd" clip-rule="evenodd" fill="#C0B9AB" enable-background="new    " d="M90.766,50.834
			c0.299,0.324,0.563,0.611,0.892,0.966c0.496-0.894,1.098-1.213,1.836-0.213c0.163-0.271,0.315-0.437,0.371-0.631
			c0.139-0.483,0.369-0.583,0.873-0.455c0.441,0.112,0.586,0.265,0.567,0.706c-0.03,0.75-0.014,1.503,0,2.255
			c0.009,0.47-0.197,0.542-0.594,0.387c-0.918-0.355-1.837-0.711-2.767-1.033c-0.2-0.069-0.47-0.05-0.675,0.023
			c-0.946,0.336-1.88,0.708-2.821,1.06c-0.104,0.038-0.227,0.029-0.424,0.051c0-1.059-0.037-2.079,0.036-3.09
			c0.013-0.165,0.505-0.324,0.796-0.42c0.103-0.033,0.318,0.102,0.396,0.219c0.172,0.257,0.288,0.551,0.447,0.874
			C90.063,51.294,90.388,51.081,90.766,50.834z"/>
		<path fill-rule="evenodd" clip-rule="evenodd" fill="#787366" d="M87.964,30.515c-1.425,0-2.85-0.011-4.273,0.005
			c-0.407,0.005-0.595-0.119-0.532-0.545c0.022-0.155,0.019-0.318,0.001-0.474c-0.048-0.431,0.121-0.605,0.566-0.604
			c2.848,0.007,5.697,0.001,8.545-0.01c0.395-0.002,0.601,0.142,0.58,0.554c-0.008,0.158-0.017,0.319,0.005,0.475
			c0.067,0.49-0.177,0.61-0.619,0.604C90.812,30.505,89.387,30.515,87.964,30.515z"/>
		<path opacity="0.6" fill-rule="evenodd" clip-rule="evenodd" fill="#C0B9AB" enable-background="new    " d="M86.528,46.898
			c0.067-0.14,0.09-0.301,0.15-0.513c-0.26-0.17-0.66-0.293-0.758-0.538c-0.075-0.19,0.228-0.53,0.507-0.938
			c-0.155-0.087-0.312-0.172-0.465-0.263c-0.137-0.08-0.268-0.167-0.48-0.302c0.378-0.289,0.626-0.48,0.89-0.681
			c-0.208-0.331-0.361-0.576-0.557-0.888c0.491-0.327,1.27-0.569,0.554-1.385c0.225-0.107,0.357-0.209,0.504-0.231
			c0.405-0.062,0.594-0.236,0.5-0.676c-0.085-0.399,0.164-0.44,0.496-0.442c0.19,0,0.495-0.096,0.553-0.233
			c0.315-0.749,0.295-0.757,1.079-0.447c0.066-0.074,0.175-0.145,0.211-0.243c0.207-0.571,0.482-0.772,0.99-0.266
			c0.059,0.06,0.337-0.013,0.44-0.105c0.156-0.14,0.248-0.35,0.436-0.633c0.49,0.81,0.963,1.062,1.524,0.324
			c0.13,0.157,0.259,0.249,0.288,0.365c0.13,0.501,0.362,0.654,0.848,0.371c0.321-0.187,0.48,0.035,0.517,0.334
			c0.055,0.46,0.25,0.669,0.744,0.541c0.415-0.108,0.417,0.188,0.361,0.462"/>
	</g>
</g>
</svg>
