<?xml version="1.0" encoding="utf-8"?>
<!-- Generator: Adobe Illustrator 16.0.4, SVG Export Plug-In . SVG Version: 6.00 Build 0)  -->
<!DOCTYPE svg PUBLIC "-//W3C//DTD SVG 1.1//EN" "http://www.w3.org/Graphics/SVG/1.1/DTD/svg11.dtd">
<svg version="1.1" id="Layer_1" xmlns="http://www.w3.org/2000/svg" xmlns:xlink="http://www.w3.org/1999/xlink" x="0px" y="0px"
	 width="107.354px" height="84.559px" viewBox="0 0 107.354 84.559" enable-background="new 0 0 107.354 84.559"
	 xml:space="preserve">
<linearGradient id="SVGID_1_" gradientUnits="userSpaceOnUse" x1="15.1755" y1="42.2786" x2="92.1755" y2="42.2786">
	<stop  offset="0" style="stop-color:#FFFFFF"/>
	<stop  offset="1" style="stop-color:#C8C8C8"/>
</linearGradient>
<path fill="url(#SVGID_1_)" d="M53.676,3.779c-21.229,0-38.5,17.271-38.5,38.5c0,21.229,17.271,38.5,38.5,38.5
	c21.229,0,38.5-17.271,38.5-38.5C92.176,21.05,74.905,3.779,53.676,3.779z M53.676,67.655c-13.992,0-25.376-11.384-25.376-25.376
	s11.384-25.376,25.376-25.376s25.376,11.384,25.376,25.376S67.668,67.655,53.676,67.655z"/>
<g>
	<g>
		<path fill="#777266" d="M57.955,47.188c0,4.771-0.032,9.542,0.023,14.312c0.013,1.047-0.226,1.416-1.332,1.364
			c-2.081-0.094-4.169-0.062-6.251-0.01c-0.792,0.021-1.02-0.203-1.018-1.006c0.026-9.815,0.034-19.631-0.008-29.448
			c-0.005-0.991,0.428-1.028,1.168-1.018c2.028,0.028,4.062,0.072,6.087-0.016c1.069-0.046,1.368,0.258,1.355,1.342
			C57.92,37.536,57.955,42.363,57.955,47.188z"/>
		<path fill="#777266" d="M53.738,19.631c2.974,0.008,4.595,1.452,4.617,4.11c0.022,2.736-1.631,4.202-4.717,4.182
			c-3.084-0.022-4.564-1.355-4.572-4.115C49.061,21,50.602,19.623,53.738,19.631z"/>
	</g>
	<path fill="#777266" d="M53.676,79.446c-20.494,0-37.167-16.673-37.167-37.167S33.181,5.112,53.676,5.112
		s37.167,16.673,37.167,37.167S74.17,79.446,53.676,79.446z M53.676,15.112c-14.98,0-27.167,12.187-27.167,27.167
		c0,14.979,12.187,27.167,27.167,27.167c14.979,0,27.167-12.188,27.167-27.167C80.843,27.299,68.655,15.112,53.676,15.112z"/>
</g>
<path opacity="0.6" fill="#C1BAAC" d="M53.676,79.446c-20.494,0-37.167-16.673-37.167-37.167S33.181,5.112,53.676,5.112
	s37.167,16.673,37.167,37.167S74.17,79.446,53.676,79.446z M54.801,8.784c-19.089,0-34.619,15.53-34.619,34.619
	c0,19.088,15.53,34.619,34.619,34.619c19.088,0,34.619-15.531,34.619-34.619C89.42,24.314,73.888,8.784,54.801,8.784z"/>
</svg>
