<?xml version="1.0" encoding="utf-8"?>
<!-- Generator: Adobe Illustrator 16.0.4, SVG Export Plug-In . SVG Version: 6.00 Build 0)  -->
<!DOCTYPE svg PUBLIC "-//W3C//DTD SVG 1.1//EN" "http://www.w3.org/Graphics/SVG/1.1/DTD/svg11.dtd">
<svg version="1.1" id="Layer_1" xmlns="http://www.w3.org/2000/svg" xmlns:xlink="http://www.w3.org/1999/xlink" x="0px" y="0px"
	 width="107.354px" height="84.559px" viewBox="0 0 107.354 84.559" enable-background="new 0 0 107.354 84.559"
	 xml:space="preserve">
<linearGradient id="SVGID_1_" gradientUnits="userSpaceOnUse" x1="19.0095" y1="42.2795" x2="88.3435" y2="42.2795">
	<stop  offset="0" style="stop-color:#FFFFFF"/>
	<stop  offset="1" style="stop-color:#C8C8C8"/>
</linearGradient>
<circle fill="url(#SVGID_1_)" cx="53.677" cy="42.28" r="34.667"/>
<g>
	<path fill="#777266" d="M39.582,59.334c3.976-0.978,8.169-1.547,12.476-1.683l0.038-13.305l-14.86-0.043
		C37.393,49.74,38.232,54.861,39.582,59.334z"/>
	<path fill="#777266" d="M52.003,75.323l0.039-13.7c-3.85,0.125-7.627,0.567-11.179,1.414C43.582,69.787,47.56,74.41,52.003,75.323z
		"/>
	<path fill="#777266" d="M70.098,44.4L56,44.359l-0.037,13.359c4.037,0.148,8.004,0.619,11.752,1.518
		C69.068,54.812,69.916,49.762,70.098,44.4z"/>
	<path fill="#777266" d="M55.951,61.621l-0.039,13.512c4.176-1.246,7.918-5.762,10.514-12.201
		C63.086,62.166,59.553,61.762,55.951,61.621z"/>
	<path fill="#777266" d="M67.877,25.625c-3.772,0.884-7.764,1.341-11.826,1.463l-0.038,13.358l14.104,0.04
		C69.982,35.129,69.18,30.066,67.877,25.625z"/>
	<path fill="#777266" d="M71.551,60.299c2.728,0.867,5.294,1.945,7.681,3.188c4.342-5.227,7.074-11.83,7.541-19.032L74.01,44.418
		C73.824,50.182,72.979,55.57,71.551,60.299z"/>
	<path fill="#777266" d="M74.031,40.499l12.764,0.037c-0.379-7.23-3.035-13.862-7.317-19.145c-2.414,1.243-5.002,2.326-7.752,3.188
		C73.088,29.327,73.893,34.729,74.031,40.499z"/>
	<path fill="#777266" d="M64.664,73.584c4.431-1.556,8.426-4.013,11.769-7.162c-1.938-0.939-3.996-1.758-6.164-2.441
		C68.762,67.822,66.854,71.057,64.664,73.584z"/>
</g>
<path fill="#777266" d="M76.738,18.424c-3.359-3.246-7.396-5.774-11.887-7.381c2.213,2.583,4.133,5.899,5.621,9.832
	C72.678,20.194,74.777,19.373,76.738,18.424z"/>
<path opacity="0.6" fill="#C1BAAC" d="M64.851,11.043c1.099,1.282,2.124,2.746,3.062,4.375c0.982-0.558,1.943-1.073,2.883-1.548
	C68.926,12.745,66.94,11.79,64.851,11.043z"/>
<path fill="#777266" d="M56.102,9.441l-0.041,13.747c3.627-0.12,7.19-0.508,10.559-1.271C64.066,15.348,60.318,10.728,56.102,9.441z
	"/>
<path opacity="0.6" fill="#C1BAAC" d="M56.102,9.441l-0.041,13.747c0.221-0.007,0.438-0.025,0.659-0.035
	c2.678-2.191,5.298-4.079,7.816-5.693C62.2,13.285,59.285,10.412,56.102,9.441z"/>
<path fill="#777266" d="M37.235,40.394l14.866,0.042l0.038-13.305c-4.324-0.155-8.544-0.755-12.523-1.757
	C38.255,29.846,37.401,34.965,37.235,40.394z"/>
<path opacity="0.6" fill="#C1BAAC" d="M52.139,27.131c-4.324-0.155-8.544-0.755-12.523-1.757c-1.361,4.472-2.215,9.591-2.381,15.02
	l3.645,0.01c1.592-2.646,3.442-5.171,5.572-7.499c1.901-2.079,3.802-3.99,5.687-5.749V27.131z"/>
<path fill="#777266" d="M33.324,44.293l-12.766-0.037c0.435,7.35,3.237,14.059,7.685,19.354c2.346-1.235,4.844-2.315,7.525-3.188
	C34.33,55.637,33.477,50.164,33.324,44.293z"/>
<path opacity="0.6" fill="#C1BAAC" d="M20.558,44.256c0.435,7.35,3.237,14.059,7.685,19.354c1.811-0.954,3.715-1.812,5.723-2.557
	c0.167-1.596,0.408-3.204,0.74-4.814c-0.793-3.705-1.271-7.72-1.381-11.946L20.558,44.256z"/>
<path fill="#777266" d="M31.046,66.535c3.285,3.062,7.181,5.467,11.498,7.002c-2.15-2.486-4.025-5.658-5.5-9.431
	C34.938,64.795,32.923,65.605,31.046,66.535z"/>
<path opacity="0.6" fill="#C1BAAC" d="M31.046,66.535c0.878,0.818,1.803,1.586,2.765,2.306c-0.08-1.149-0.115-2.316-0.101-3.499
	C32.798,65.717,31.904,66.11,31.046,66.535z"/>
<path fill="#777266" d="M40.904,21.667c3.572,0.879,7.369,1.349,11.249,1.499l0.04-13.932C47.7,10.131,43.656,14.816,40.904,21.667z
	"/>
<path fill="#777266" d="M42.727,10.962c-4.396,1.541-8.375,3.968-11.701,7.082c1.896,0.962,3.924,1.802,6.062,2.52
	C38.594,16.715,40.527,13.487,42.727,10.962z"/>
<path fill="#777266" d="M35.8,24.246c-2.692-0.906-5.225-2.013-7.572-3.288c-4.447,5.303-7.236,12.027-7.661,19.386l12.771,0.038
	C33.495,34.518,34.355,29.038,35.8,24.246z"/>
<path opacity="0.6" fill="#C1BAAC" d="M40.904,21.667c3.572,0.879,7.369,1.349,11.249,1.499l0.04-13.932
	C47.7,10.131,43.656,14.816,40.904,21.667z"/>
<path opacity="0.6" fill="#C1BAAC" d="M42.727,10.962c-4.396,1.541-8.375,3.968-11.701,7.082c1.896,0.962,3.924,1.802,6.062,2.52
	C38.594,16.715,40.527,13.487,42.727,10.962z"/>
<path opacity="0.6" fill="#C1BAAC" d="M35.8,24.246c-2.692-0.906-5.225-2.013-7.572-3.288c-4.447,5.303-7.236,12.027-7.661,19.386
	l12.771,0.038C33.495,34.518,34.355,29.038,35.8,24.246z"/>
</svg>
