<?xml version="1.0" encoding="utf-8"?>
<!-- Generator: Adobe Illustrator 16.0.0, SVG Export Plug-In . SVG Version: 6.00 Build 0)  -->
<!DOCTYPE svg PUBLIC "-//W3C//DTD SVG 1.1//EN" "http://www.w3.org/Graphics/SVG/1.1/DTD/svg11.dtd">
<svg version="1.1" id="Layer_1" xmlns="http://www.w3.org/2000/svg" xmlns:xlink="http://www.w3.org/1999/xlink" x="0px" y="0px"
	 width="110.5px" height="115.779px" viewBox="0 0 110.5 115.779" enable-background="new 0 0 110.5 115.779" xml:space="preserve">
<g>
	<g>
		<path fill="#797467" d="M74.886,27.287c1.335,1.229,8.007,15.34,8.007,15.34l1.313,1.645l1.152-1.317l-0.331-2.135
			c0,0-0.086-1.482,0.658-2.304c0.743-0.821,2.63-0.821,2.63-0.821s2.045,0.077,3.455,0.987c1.404,0.908,1.679,1.316,1.803,2.133
			c0.132,0.819-0.331,1.311-0.82,1.974c-0.485,0.665-2.299,0.987-2.299,0.987l-2.959,0.655l-1.148,2.135l3.449,3.948
			c0,0,2.336,5.436,2.634,7.561c0.294,2.124-0.659,11.177-0.659,11.177s-0.323,16.089-0.82,17.92
			c-0.504,1.824-1.154,2.133-1.154,2.133H81.91l-0.984-2.133l-4.279-3.946H50.053h-2.008H21.449l-4.275,3.946l-0.982,2.133H8.3
			c0,0-0.651-0.309-1.152-2.133c-0.493-1.829-0.822-17.92-0.822-17.92s-0.949-9.054-0.655-11.177
			C5.966,55.949,8.3,50.513,8.3,50.513l3.451-3.948l-1.149-2.135l-2.96-0.655c0,0-1.812-0.322-2.301-0.987
			c-0.489-0.664-0.95-1.155-0.821-1.974C4.647,40,4.921,39.586,6.326,38.681c1.411-0.91,3.455-0.987,3.455-0.987
			s1.883,0,2.629,0.821c0.746,0.817,0.659,2.304,0.659,2.304l-0.332,2.135l1.149,1.317l1.318-1.645c0,0,6.32-14.115,7.654-15.34
			H74.886z"/>
		
			<linearGradient id="SVGID_1_" gradientUnits="userSpaceOnUse" x1="20.7715" y1="735.4099" x2="110.7656" y2="735.4099" gradientTransform="matrix(1 0 0 1 -16.7197 -677.1113)">
			<stop  offset="0" style="stop-color:#FFFFFF"/>
			<stop  offset="1" style="stop-color:#C8C8C8"/>
		</linearGradient>
		<path fill="url(#SVGID_1_)" d="M89.896,89.754h-8.278l-1.063-2.315l-4.08-3.767H21.628l-4.084,3.767l-1.066,2.315H8.201
			l-0.09-0.043c-0.142-0.066-0.867-0.495-1.394-2.422C6.215,85.444,5.9,70.17,5.879,69.283c-0.059-0.58-0.946-9.141-0.652-11.269
			c0.299-2.16,2.567-7.454,2.663-7.675l0.029-0.064l3.292-3.763l-0.904-1.686L7.55,44.215c-0.314-0.059-2.002-0.388-2.567-1.157
			c-0.053-0.072-0.111-0.147-0.162-0.215c-0.436-0.579-0.887-1.178-0.742-2.094c0.157-1.012,0.572-1.516,2.006-2.442
			c1.493-0.962,3.591-1.053,3.678-1.058c0,0,0,0,0.004,0c0.236,0,2.123,0.031,2.973,0.97c0.863,0.943,0.775,2.559,0.771,2.625
			l-0.004,0.044L13.21,42.82l0.663,0.755l0.946-1.184c0.754-1.682,6.385-14.195,7.741-15.434l0.128-0.114h52.367l0.128,0.114
			c1.352,1.238,7.302,13.771,8.091,15.434l0.948,1.184l0.664-0.755l-0.307-1.976c0-0.064-0.084-1.677,0.774-2.625
			c0.854-0.941,2.745-0.97,2.957-0.97c0.107,0.004,2.202,0.095,3.698,1.06c1.439,0.927,1.845,1.428,2.009,2.44
			c0.145,0.916-0.313,1.515-0.743,2.098c-0.055,0.069-0.107,0.139-0.157,0.211c-0.569,0.771-2.252,1.103-2.584,1.161l-2.745,0.612
			l-0.904,1.682l3.293,3.766l0.029,0.064c0.099,0.226,2.363,5.517,2.661,7.675c0.294,2.125-0.592,10.686-0.65,11.266
			c-0.021,0.89-0.332,16.165-0.838,18.006c-0.526,1.927-1.253,2.355-1.39,2.422L89.896,89.754z M90.518,80.569
			c0.398-1.453,0.718-6.866,0.804-11.322l0.004-0.038c0.009-0.089,0.942-9.021,0.659-11.07c-0.269-1.918-2.309-6.762-2.573-7.38
			l-3.607-4.125l1.397-2.589l3.154-0.7c0.701-0.126,1.78-0.461,2.036-0.817c0.059-0.075,0.111-0.147,0.166-0.222
			c0.435-0.572,0.659-0.9,0.573-1.414c-0.102-0.643-0.267-0.964-1.61-1.831c-1.288-0.833-3.205-0.914-3.226-0.914
			c-0.451,0-1.782,0.122-2.281,0.671c-0.562,0.63-0.546,1.8-0.542,1.961l0.357,2.318l-1.644,1.873l-1.68-2.103l-0.021-0.045
			c-2.575-5.447-6.677-13.742-7.799-15.085H23.054c-1.107,1.34-5.004,9.632-7.442,15.075l-0.021,0.052l-1.683,2.107l-1.643-1.877
			l0.357-2.315c0.007-0.157,0.024-1.333-0.543-1.959c-0.501-0.549-1.829-0.671-2.297-0.676c0,0.004-1.928,0.085-3.209,0.918
			c-1.344,0.867-1.51,1.192-1.613,1.831c-0.079,0.514,0.145,0.838,0.58,1.414c0.049,0.072,0.107,0.147,0.162,0.222
			c0.266,0.356,1.339,0.69,2.019,0.812l3.177,0.705l1.397,2.589l-3.607,4.125c-0.266,0.616-2.306,5.461-2.575,7.38
			c-0.282,2.048,0.65,10.981,0.659,11.07l0.004,0.038c0.091,4.456,0.112,10.014,0.51,11.468c0.327,1.21,13.99,2.068,13.99,2.068
			h55.542c0,0,11.703-0.88,13.477-1.98C90.419,80.722,90.492,80.646,90.518,80.569z"/>
	</g>
	<path opacity="0.8" fill="#3F3F3F" enable-background="new    " d="M90.857,77.96c0,0,0.561,9.724-1.381,10.804
		c-1.936,1.079-7.562,0.188-7.562,0.188s-0.934-0.482-1.009-2.981c-0.074-2.495,0.033-3.595,0.033-3.595
		c-0.621,0.062,9.396-0.889,9.579-1.807C90.696,79.653,90.879,78.261,90.857,77.96z"/>
	<g opacity="0.8">
		<path fill="#5E5F5F" d="M81.516,44.053c0,0-6.195-15.933-8.041-16.228c-1.525-0.245-18.012-0.489-23.646-0.564
			c0-0.014,0-0.027,0-0.027s-0.344,0.006-0.938,0.013c-0.596-0.006-0.936-0.013-0.936-0.013s0,0.013,0,0.027
			c-5.631,0.075-22.122,0.319-23.648,0.564c-1.84,0.296-8.04,16.228-8.04,16.228s30.12-0.266,32.624-0.245
			C51.4,43.827,81.516,44.053,81.516,44.053z"/>
		
			<linearGradient id="SVGID_2_" gradientUnits="userSpaceOnUse" x1="32.6626" y1="712.7566" x2="98.5674" y2="712.7566" gradientTransform="matrix(1 0 0 1 -16.7197 -677.1113)">
			<stop  offset="0" style="stop-color:#FFFFFF"/>
			<stop  offset="1" style="stop-color:#C8C8C8"/>
		</linearGradient>
		<path fill="url(#SVGID_2_)" d="M49.828,27.235c0,0,0.004,0.013,0.004,0.027c5.63,0.075,22.117,0.319,23.642,0.564
			c1.846,0.294,8.041,16.225,8.041,16.225S51.4,43.827,48.89,43.809c-0.082,0-0.197,0-0.348,0c-4.183,0-32.271,0.242-32.271,0.242
			s6.195-15.931,8.04-16.225c1.527-0.245,18.013-0.489,23.648-0.564c0-0.019,0-0.027,0-0.027s0.335,0.004,0.932,0.013
			C49.488,27.239,49.828,27.235,49.828,27.235 M47.742,27.009v0.029c-6.729,0.095-21.973,0.326-23.469,0.566
			c-0.344,0.054-0.909,0.421-2.193,2.77c-0.747,1.364-1.651,3.245-2.688,5.583c-1.762,3.979-3.317,7.97-3.334,8.013l-0.116,0.309
			l0.328-0.004c0.281-0.002,28.139-0.243,32.271-0.243c0.151,0,0.267,0,0.348,0l32.625,0.243l0.332,0.004l-0.124-0.309
			c-0.013-0.04-1.572-4.035-3.331-8.009c-1.037-2.338-1.936-4.219-2.687-5.583c-1.288-2.352-1.849-2.718-2.193-2.774
			c-1.5-0.236-16.74-0.471-23.468-0.564l-0.004-0.027h-0.216l-0.934,0.013l-0.932-0.013L47.742,27.009L47.742,27.009z"/>
	</g>
	<path opacity="0.6" fill="#BFB8AA" enable-background="new    " d="M74.073,44.053h-6.71c0,0-2.906,4.967-3.574,6.989
		c-0.672,2.021-2.46,7.404-2.46,7.404s6.798,1.226,7.042,0.654c0.119-0.271,0.837-4.331,2.015-7.45
		C71.555,48.536,74.073,44.053,74.073,44.053z"/>
	<path opacity="0.6" fill="#BFB8AA" enable-background="new    " d="M24.277,44.053h6.705c0,0,2.907,4.967,3.579,6.989
		c0.667,2.021,2.459,7.404,2.459,7.404s-6.8,1.226-7.045,0.654c-0.116-0.271-0.833-4.331-2.007-7.45
		C26.786,48.536,24.277,44.053,24.277,44.053z"/>
	<path opacity="0.8" fill="#BFB8AA" enable-background="new    " d="M75.952,71.283c0,0.701-1.059,1.271-2.37,1.271H24.684
		c-1.311,0-2.368-0.568-2.368-1.271v-3.68c0-0.697,1.057-1.267,2.368-1.267h48.898c1.312,0,2.37,0.568,2.37,1.267V71.283z"/>
	
		<linearGradient id="SVGID_3_" gradientUnits="userSpaceOnUse" x1="37.8271" y1="743.7488" x2="93.9316" y2="743.7488" gradientTransform="matrix(1 0 0 1 -16.7197 -677.1113)">
		<stop  offset="0" style="stop-color:#FFFFFF"/>
		<stop  offset="1" style="stop-color:#C8C8C8"/>
	</linearGradient>
	<path fill="url(#SVGID_3_)" d="M70.768,59.845c-4.179-1.75-6.456-1.249-6.456-1.249l-15.125-0.498v-0.003l-0.038,0.003
		l-0.034-0.003v0.003l-15.126,0.498c0,0-2.277-0.501-6.456,1.249c-4.18,1.75-6.378,6.146-6.382,7.664
		c-0.007,1.522-0.53,3.994,2.277,5.919c2.816,1.918,15.653,1.747,19.679,1.747c1.886,0,3.595,0,4.873,0c1.442,0,2.342,0,2.342,0
		c1.276,0,2.984,0,4.871,0c4.027,0,16.864,0.171,19.677-1.747c2.81-1.924,2.333-5.08,2.281-5.919
		C77.096,66.671,74.946,61.595,70.768,59.845z"/>
	<path opacity="0.8" fill="#5E5F5F" enable-background="new    " d="M69.171,60.598c-3.897-1.568-4.549-1.07-6.016-1.115
		c-1.474-0.049-14.104-0.444-14.104-0.444v-0.006l-0.027,0.006l-0.029-0.006v0.006l-14.103,0.444c0,0-2.123-0.45-6.016,1.115
		c-3.894,1.564-5.988,5.079-5.946,6.855c0.041,1.776-0.499,3.573,2.123,5.291c2.621,1.717,14.588,1.566,18.336,1.566
		c1.761,0,3.35,0,4.54,0c1.352,0,2.185,0,2.185,0c1.19,0,2.783,0,4.545,0c3.749,0,15.718,0.15,18.34-1.566
		c2.612-1.718,2.205-4.44,2.117-5.291C75.03,66.604,73.065,62.163,69.171,60.598z"/>
	<g>
		<line fill="none" x1="25.023" y1="62.94" x2="72.638" y2="62.94"/>
		<rect x="25.023" y="62.719" fill="#B1B1B0" width="47.614" height="0.445"/>
	</g>
	<g>
		<line fill="none" x1="23.618" y1="64.879" x2="74.073" y2="64.879"/>
		<rect x="23.618" y="64.656" fill="#B1B1B0" width="50.455" height="0.447"/>
	</g>
	<g>
		<line fill="none" x1="27.852" y1="60.857" x2="70.249" y2="60.857"/>
		<rect x="27.852" y="60.632" fill="#B1B1B0" width="42.397" height="0.446"/>
	</g>
	
		<linearGradient id="SVGID_4_" gradientUnits="userSpaceOnUse" x1="36.2812" y1="1483.6462" x2="43.541" y2="1483.6462" gradientTransform="matrix(1 0 0 1 -25.1348 -1409.6387)">
		<stop  offset="0" style="stop-color:#FFFFFF"/>
		<stop  offset="1" style="stop-color:#C8C8C8"/>
	</linearGradient>
	<path opacity="0.8" fill="url(#SVGID_4_)" enable-background="new    " d="M14.894,77.543c1.974-0.056,3.528-1.638,3.513-3.565
		c-0.013-1.909-1.622-3.494-3.579-3.509c-2.036-0.019-3.765,1.731-3.678,3.699C11.245,76.039,12.966,77.602,14.894,77.543z"/>
	
		<linearGradient id="SVGID_5_" gradientUnits="userSpaceOnUse" x1="104.54" y1="1483.6462" x2="111.8008" y2="1483.6462" gradientTransform="matrix(1 0 0 1 -25.1348 -1409.6387)">
		<stop  offset="0" style="stop-color:#FFFFFF"/>
		<stop  offset="1" style="stop-color:#C8C8C8"/>
	</linearGradient>
	<path opacity="0.8" fill="url(#SVGID_5_)" enable-background="new    " d="M83.148,77.543c1.975-0.056,3.53-1.638,3.518-3.565
		c-0.017-1.909-1.627-3.494-3.583-3.509c-2.031-0.019-3.761,1.731-3.675,3.699C79.496,76.039,81.226,77.602,83.148,77.543z"/>
	
		<linearGradient id="SVGID_6_" gradientUnits="userSpaceOnUse" x1="42.3364" y1="755.6082" x2="89.1748" y2="755.6082" gradientTransform="matrix(1 0 0 1 -16.7197 -677.1113)">
		<stop  offset="0" style="stop-color:#FFFFFF"/>
		<stop  offset="1" style="stop-color:#C8C8C8"/>
	</linearGradient>
	<path opacity="0.8" fill="url(#SVGID_6_)" enable-background="new    " d="M49.837,76.415H48.24H25.617c0,0,0,2.405,1.12,2.863
		c1.115,0.453,3.872,0.845,5.44,0.977c1.256,0.102,11.958,0.251,16.063,0.302v0.021c0,0,0.296-0.001,0.802-0.013
		c0.501,0.012,0.795,0.013,0.795,0.013v-0.021c4.101-0.051,14.802-0.2,16.067-0.302c1.558-0.132,4.319-0.523,5.437-0.977
		c1.114-0.456,1.114-2.863,1.114-2.863H49.837z"/>
	
		<linearGradient id="SVGID_7_" gradientUnits="userSpaceOnUse" x1="61.9619" y1="732.9265" x2="69.6865" y2="732.9265" gradientTransform="matrix(1 0 0 1 -16.7197 -677.1113)">
		<stop  offset="0" style="stop-color:#FFFFFF"/>
		<stop  offset="1" style="stop-color:#C8C8C8"/>
	</linearGradient>
	<path fill="url(#SVGID_7_)" d="M49.438,54.464c0.021,0.001,0.038,0.005,0.059,0.009c0.008,0.008,0.013,0.017,0.021,0.021
		c0.21,0.031,0.397,0.141,0.604,0.195c0,0.005,0,0.012,0.004,0.018c-0.004,0.021,0.013,0.031,0.025,0.038
		c0.137,0.071,0.246,0.167,0.336,0.28c0.038,0.039,0.067,0.049,0.12,0.049c0.283,0,0.564,0,0.85,0c0.17,0,0.344-0.006,0.519-0.01
		c0.331,0,0.659,0,0.99-0.002c0.009,0.036-0.022,0.061-0.044,0.086c-0.279,0.327-0.594,0.623-0.934,0.898
		c-0.099,0.084-0.204,0.15-0.345,0.125c-0.285,0-0.57-0.001-0.862-0.001c-0.021,0-0.04-0.002-0.053,0.022
		c-0.037,0.077-0.071,0.152-0.113,0.232c0.117,0.042,0.145-0.041,0.166-0.109c0.025-0.061,0.059-0.085,0.126-0.086
		c0.243-0.008,0.493-0.024,0.736-0.038c0.047,0.001,0.093-0.036,0.157,0.018c-0.021,0.007-0.033,0.008-0.044,0.02
		c-0.161,0.103-0.325,0.206-0.479,0.316c-0.103,0.075-0.214,0.108-0.348,0.098c-0.091-0.008-0.179,0.004-0.27-0.004
		c-0.161-0.013-0.306,0.008-0.415,0.143c-0.008,0.01-0.019,0.013-0.027,0.021c-0.395,0.287-0.842,0.402-1.337,0.369
		c-0.443-0.031-0.833-0.18-1.144-0.49c-0.029-0.026-0.061-0.035-0.103-0.035c-0.162,0-0.328-0.004-0.485,0.002
		c-0.113,0.008-0.212-0.019-0.3-0.08c-0.166-0.118-0.344-0.219-0.494-0.357c0.008-0.012,0.017-0.016,0.029-0.013
		c0.302,0.029,0.603,0.025,0.9,0.043c0.062,0.007,0.107,0.007,0.132,0.085c0.008-0.115-0.025-0.149-0.111-0.149
		c-0.304,0-0.598,0-0.896,0c-0.025,0.001-0.059-0.015-0.067,0.021c-0.008,0-0.013,0-0.021,0c-0.011-0.02-0.028-0.028-0.053-0.029
		c-0.004,0-0.004-0.002-0.004-0.002c-0.029-0.048-0.076-0.076-0.117-0.104c0-0.001,0-0.005-0.007-0.004
		c0-0.005-0.008-0.009-0.012-0.014c-0.042-0.032-0.088-0.062-0.125-0.099c-0.21-0.188-0.401-0.397-0.584-0.61
		c-0.067-0.078-0.141-0.148-0.179-0.244c0.763-0.004,1.53-0.006,2.297-0.006c0.117-0.002,0.258-0.093,0.304-0.206l-0.004,0.001
		c0.048-0.056,0.124-0.059,0.178-0.104c0.069-0.06,0.157-0.089,0.235-0.134c0.132-0.072,0.284-0.12,0.424-0.149
		c0.149-0.031,0.314-0.047,0.472-0.039C49.247,54.457,49.344,54.486,49.438,54.464z M46.204,55.282
		c-0.013-0.004-0.021-0.013-0.029-0.013c-0.227,0-0.452,0-0.68,0c-0.017,0-0.028,0.004-0.028,0.025
		c0.012,0.002,0.02,0.008,0.024,0.008c0.228,0.015,0.461-0.021,0.688,0.017c0.008,0.001,0.017-0.013,0.025-0.017
		c0.286,0.01,0.569,0.017,0.854,0.023c0.124,0.002,0.25,0.006,0.382,0.011c0.029,0,0.055-0.007,0.055-0.038
		c0-0.036-0.034-0.017-0.055-0.021c-0.021,0-0.042,0-0.063,0C46.989,55.282,46.598,55.282,46.204,55.282z M51.906,55.728
		c0.107,0.012,0.223-0.008,0.332-0.012c0,0,0-0.001-0.005-0.013c-0.104-0.01-0.22-0.005-0.327,0.003c-0.319,0-0.641,0-0.959,0.001
		c-0.137,0-0.141,0-0.141,0.129c0.004,0.037-0.059,0.113,0.033,0.113c0.078,0.004,0.046-0.077,0.042-0.113
		c0-0.069,0.025-0.074,0.086-0.074C51.283,55.754,51.596,55.74,51.906,55.728z M49.127,54.592c-0.426,0.004-0.804,0.119-1.123,0.382
		c-0.585,0.478-0.573,1.246,0.015,1.695c0.653,0.5,1.725,0.414,2.273-0.185c0.416-0.45,0.395-1.066-0.054-1.484
		C49.927,54.715,49.547,54.598,49.127,54.592z M52.391,55.29c0-0.008,0-0.013,0-0.017c-0.568,0-1.135,0-1.704,0
		c0.029,0.071,0.055,0.136,0.073,0.199c0.009,0.021,0.018,0.038,0.047,0.03c0.033-0.009,0.013-0.03,0.013-0.045
		c-0.013-0.027-0.021-0.05-0.034-0.076c-0.029-0.05-0.013-0.062,0.042-0.062c0.349-0.003,0.688-0.014,1.037-0.022
		C52.038,55.299,52.217,55.295,52.391,55.29z M45.948,55.723c0.008,0.025,0.024,0.021,0.036,0.021
		c0.39,0.01,0.785,0.019,1.175,0.029c0.09,0.004,0.185-0.011,0.185,0.116c0,0.004,0.004,0.007,0.013,0.013
		c0-0.03-0.004-0.064,0-0.096c0.016-0.08-0.017-0.096-0.099-0.095c-0.411,0.004-0.816,0.003-1.228,0.003
		C46,55.716,45.977,55.719,45.948,55.723z M52.429,55.259c0.107,0.015,0.223,0.057,0.336,0
		C52.651,55.259,52.536,55.259,52.429,55.259z"/>
	<path fill="none" d="M51.644,56.174c0.141,0.022,0.246-0.042,0.345-0.127c0.34-0.274,0.654-0.572,0.934-0.899
		c0.021-0.025,0.053-0.048,0.044-0.084c0.005-0.008,0.005-0.017,0.005-0.021c0.024-0.009,0.059-0.016,0.088,0.004
		c-0.162,0.212-0.34,0.405-0.531,0.586c-0.398,0.388-0.842,0.729-1.326,1.014c-0.051,0.029-0.093,0.04-0.145,0.04
		c-0.179-0.002-0.354,0.003-0.527-0.002c-0.071,0-0.124,0.022-0.174,0.068c-0.659,0.584-1.796,0.628-2.498,0.093
		c-0.019-0.013-0.036-0.021-0.048-0.038c-0.088-0.11-0.199-0.137-0.34-0.122c-0.097,0.01-0.187-0.005-0.283,0.003
		c-0.158,0.024-0.29-0.028-0.41-0.117c-0.158-0.113-0.323-0.216-0.468-0.344c0.015-0.004,0.02-0.02,0.02-0.032
		c0.008,0,0.017,0,0.021,0l-0.004-0.004c0,0.017,0.004,0.024,0.021,0.021v-0.001c0.146,0.141,0.328,0.239,0.49,0.357
		c0.092,0.061,0.186,0.088,0.299,0.08c0.162-0.006,0.323-0.002,0.489-0.002c0.036,0,0.069,0.008,0.099,0.035
		c0.315,0.31,0.705,0.458,1.144,0.49c0.491,0.033,0.942-0.083,1.337-0.369c0.009-0.008,0.019-0.011,0.027-0.021
		c0.105-0.134,0.25-0.155,0.416-0.143c0.09,0.008,0.183-0.004,0.272,0.004c0.13,0.013,0.237-0.021,0.349-0.098
		c0.148-0.11,0.311-0.213,0.475-0.316c0.012-0.011,0.022-0.012,0.044-0.02c-0.065-0.054-0.111-0.017-0.153-0.018
		C51.644,56.186,51.644,56.179,51.644,56.174z"/>
	<path fill="none" d="M47.847,54.876c-0.046,0.111-0.183,0.204-0.304,0.207c-0.766,0.002-1.534,0.004-2.301,0.006
		c-0.021-0.015-0.042-0.017-0.067-0.015c0.013-0.036,0.046-0.019,0.071-0.019c0.344-0.004,0.684,0,1.028-0.004
		c0.435,0,0.871-0.004,1.301-0.004c0.051,0,0.08-0.017,0.111-0.049C47.738,54.953,47.771,54.891,47.847,54.876z"/>
	<path fill="none" d="M49.438,54.464c-0.094,0.022-0.191-0.007-0.281-0.011c-0.162-0.006-0.323,0.008-0.477,0.042
		c-0.145,0.027-0.292,0.078-0.428,0.145c-0.073,0.046-0.162,0.077-0.233,0.137c-0.052,0.042-0.132,0.046-0.172,0.102
		c0.149-0.167,0.351-0.256,0.566-0.333c0.063-0.023,0.128-0.041,0.195-0.059c0.034,0.027,0.042,0.017,0.046-0.018
		c0.222-0.038,0.447-0.057,0.671-0.036C49.369,54.436,49.409,54.424,49.438,54.464z"/>
	<path fill="none" d="M45.175,55.074c0.025-0.002,0.046,0,0.067,0.015c0.042,0.095,0.116,0.168,0.183,0.244
		c0.183,0.216,0.37,0.422,0.584,0.611c0.042,0.034,0.083,0.063,0.125,0.099c-0.021,0.004-0.042,0.004-0.059,0.004
		c-0.34-0.272-0.629-0.596-0.888-0.94C45.184,55.095,45.18,55.085,45.175,55.074z"/>
	<path fill="#797467" d="M49.127,54.592c0.419,0.006,0.799,0.123,1.108,0.408c0.451,0.418,0.473,1.034,0.057,1.484
		c-0.548,0.598-1.62,0.684-2.273,0.185c-0.592-0.449-0.6-1.219-0.015-1.695C48.323,54.711,48.701,54.596,49.127,54.592z
		 M49.161,54.66c-0.361,0-0.664,0.077-0.934,0.244c-0.737,0.462-0.75,1.337-0.021,1.78c0.573,0.354,1.423,0.279,1.916-0.165
		c0.493-0.44,0.497-1.099-0.004-1.519C49.837,54.766,49.497,54.664,49.161,54.66z"/>
	<path fill="#E7E7E7" d="M52.429,55.259c0.107,0,0.223,0,0.336,0C52.647,55.313,52.536,55.271,52.429,55.259z"/>
	<path fill="#F9F9FA" d="M46.345,56.188c0.012,0.003,0.029-0.004,0.021,0.021C46.345,56.212,46.345,56.204,46.345,56.188z"/>
	<path fill="#E7E7E7" d="M49.161,54.66c0.335,0.004,0.676,0.104,0.961,0.342c0.502,0.421,0.497,1.078,0,1.521
		c-0.493,0.443-1.343,0.519-1.916,0.164c-0.729-0.444-0.716-1.319,0.021-1.779C48.498,54.737,48.796,54.66,49.161,54.66z
		 M49.033,56.835c0.328,0.008,0.655-0.091,0.919-0.275c0.623-0.428,0.61-1.214-0.021-1.616c-0.535-0.338-1.318-0.292-1.799,0.107
		c-0.51,0.423-0.51,1.078,0,1.487C48.389,56.744,48.697,56.829,49.033,56.835z"/>
	<path fill="#797467" d="M49.033,56.837c-0.335-0.008-0.644-0.093-0.9-0.298c-0.51-0.41-0.51-1.066,0-1.487
		c0.477-0.399,1.264-0.446,1.799-0.107c0.636,0.401,0.644,1.188,0.021,1.616C49.688,56.744,49.36,56.844,49.033,56.837z
		 M48.099,55.735c0.004,0,0.008,0,0.012,0c0.038,0.08,0.076,0.159,0.107,0.242c0.012,0.029,0.021,0.057,0.067,0.053
		c0.042-0.001,0.076,0,0.099-0.045c0.038-0.076,0.08-0.146,0.122-0.218c0.009-0.013,0.017-0.032,0.036-0.025
		c0.021,0.006,0.012,0.023,0.012,0.042c0,0.059-0.004,0.119-0.008,0.181c-0.004,0.034-0.01,0.079,0.05,0.062
		c0.046-0.01,0.124,0.049,0.128-0.056c0.004-0.16,0.017-0.319,0.025-0.479c0-0.022,0.004-0.041-0.013-0.06
		c-0.031-0.023-0.206,0.011-0.231,0.05c-0.059,0.099-0.122,0.196-0.178,0.3c-0.013-0.008-0.017-0.013-0.017-0.015
		c-0.034-0.068-0.067-0.139-0.101-0.209c-0.057-0.135-0.057-0.135-0.209-0.129c-0.042,0-0.055,0.015-0.059,0.052
		c-0.013,0.16-0.029,0.321-0.046,0.481c0,0.027-0.021,0.08,0.038,0.064c0.05-0.01,0.136,0.053,0.145-0.056
		C48.082,55.897,48.09,55.815,48.099,55.735z M49.726,55.773c-0.109-0.113-0.195-0.207-0.279-0.309
		c-0.059-0.063-0.128-0.042-0.191-0.034c-0.04,0.008-0.021,0.063-0.021,0.097c-0.008,0.145-0.004,0.29-0.013,0.435
		c-0.004,0.054,0.013,0.08,0.067,0.068c0.046-0.009,0.12,0.033,0.111-0.064c-0.004-0.089,0-0.18,0-0.269
		c0.109,0.09,0.199,0.183,0.279,0.281c0.057,0.072,0.128,0.047,0.195,0.047c0.027,0.004,0.023-0.02,0.023-0.039
		c0-0.17-0.002-0.342-0.002-0.512c-0.004-0.08-0.067-0.04-0.105-0.046c-0.038-0.008-0.073-0.011-0.069,0.048
		C49.726,55.57,49.726,55.661,49.726,55.773z M50.231,55.735c0,0-0.009,0-0.013,0c0-0.084,0-0.169,0-0.254
		c0-0.099-0.084-0.046-0.126-0.059c-0.044-0.011-0.061,0.013-0.061,0.061c0.009,0.145,0.009,0.281,0.013,0.426
		c0.004,0.133,0.004,0.132,0.145,0.121c0.033-0.004,0.046-0.014,0.046-0.051C50.231,55.901,50.231,55.817,50.231,55.735z
		 M48.903,55.736c-0.004,0-0.013,0-0.017,0c0,0.081,0.004,0.158-0.004,0.236c-0.004,0.045,0.013,0.062,0.059,0.058
		c0.025-0.004,0.05-0.004,0.071,0c0.036,0.004,0.061-0.005,0.061-0.053c0-0.164,0.004-0.326,0.013-0.489
		c0.004-0.048-0.017-0.069-0.061-0.061c-0.042,0.015-0.122-0.04-0.122,0.057C48.903,55.57,48.903,55.654,48.903,55.736z"/>
	
		<linearGradient id="SVGID_8_" gradientUnits="userSpaceOnUse" x1="64.6133" y1="732.8425" x2="65.4717" y2="732.8425" gradientTransform="matrix(1 0 0 1 -16.7197 -677.1113)">
		<stop  offset="0" style="stop-color:#FFFFFF"/>
		<stop  offset="1" style="stop-color:#C8C8C8"/>
	</linearGradient>
	<path fill="url(#SVGID_8_)" d="M48.099,55.735c-0.009,0.08-0.017,0.159-0.021,0.237c-0.009,0.107-0.095,0.044-0.145,0.057
		c-0.059,0.014-0.038-0.036-0.034-0.065c0.017-0.162,0.029-0.321,0.046-0.483c0-0.036,0.013-0.05,0.059-0.052
		c0.149-0.002,0.149-0.006,0.21,0.132c0.029,0.067,0.063,0.141,0.097,0.208c0.004,0.004,0.004,0.004,0.017,0.015
		c0.061-0.103,0.12-0.204,0.178-0.302c0.025-0.038,0.2-0.073,0.231-0.046c0.021,0.017,0.013,0.038,0.013,0.056
		c-0.008,0.16-0.021,0.322-0.021,0.481c-0.004,0.107-0.086,0.044-0.132,0.058c-0.059,0.016-0.054-0.029-0.05-0.064
		c0.008-0.06,0.008-0.12,0.013-0.18c0-0.019,0.004-0.036-0.017-0.042c-0.019-0.008-0.023,0.015-0.032,0.025
		c-0.042,0.074-0.088,0.145-0.126,0.218c-0.019,0.046-0.057,0.043-0.099,0.046c-0.042,0.001-0.055-0.025-0.067-0.055
		c-0.032-0.081-0.065-0.162-0.103-0.244C48.107,55.735,48.103,55.735,48.099,55.735z M48.536,55.727c0.006,0,0.006,0.008,0.01,0.009
		c0.008-0.009,0.008-0.012,0.013-0.021c0-0.001-0.004-0.009-0.013-0.013C48.542,55.711,48.542,55.716,48.536,55.727z"/>
	
		<linearGradient id="SVGID_9_" gradientUnits="userSpaceOnUse" x1="65.9395" y1="732.8376" x2="66.6206" y2="732.8376" gradientTransform="matrix(1 0 0 1 -16.7197 -677.1113)">
		<stop  offset="0" style="stop-color:#FFFFFF"/>
		<stop  offset="1" style="stop-color:#C8C8C8"/>
	</linearGradient>
	<path fill="url(#SVGID_9_)" d="M49.726,55.773c0-0.112,0-0.204,0-0.298c-0.008-0.059,0.031-0.054,0.069-0.048
		c0.038,0.009,0.101-0.034,0.103,0.046c0,0.17,0.004,0.342,0.004,0.512c0,0.021,0.004,0.044-0.023,0.041
		c-0.067-0.001-0.143,0.024-0.195-0.047c-0.08-0.102-0.17-0.193-0.279-0.285c0,0.092-0.008,0.183,0,0.272
		c0.008,0.098-0.065,0.055-0.111,0.063c-0.059,0.013-0.071-0.016-0.071-0.067c0.008-0.147,0.008-0.293,0.013-0.435
		c0.004-0.034-0.019-0.09,0.025-0.099c0.062-0.006,0.132-0.027,0.187,0.034C49.53,55.566,49.616,55.66,49.726,55.773z"/>
	
		<linearGradient id="SVGID_10_" gradientUnits="userSpaceOnUse" x1="66.752" y1="732.8386" x2="66.9561" y2="732.8386" gradientTransform="matrix(1 0 0 1 -16.7197 -677.1113)">
		<stop  offset="0" style="stop-color:#FFFFFF"/>
		<stop  offset="1" style="stop-color:#C8C8C8"/>
	</linearGradient>
	<path fill="url(#SVGID_10_)" d="M50.231,55.735c0,0.082,0,0.166,0.004,0.244c0,0.038-0.013,0.047-0.05,0.051
		c-0.136,0.012-0.136,0.013-0.141-0.121c-0.004-0.145-0.004-0.281-0.013-0.426c0-0.048,0.017-0.069,0.061-0.061
		c0.042,0.013,0.122-0.04,0.122,0.059c0,0.085,0,0.17,0,0.254C50.223,55.735,50.231,55.735,50.231,55.735z"/>
	
		<linearGradient id="SVGID_11_" gradientUnits="userSpaceOnUse" x1="65.6025" y1="732.8386" x2="65.8056" y2="732.8386" gradientTransform="matrix(1 0 0 1 -16.7197 -677.1113)">
		<stop  offset="0" style="stop-color:#FFFFFF"/>
		<stop  offset="1" style="stop-color:#C8C8C8"/>
	</linearGradient>
	<path fill="url(#SVGID_11_)" d="M48.903,55.736c0-0.083,0-0.167,0-0.253c0-0.096,0.076-0.042,0.122-0.057
		c0.044-0.01,0.061,0.013,0.061,0.061c-0.008,0.164-0.013,0.325-0.013,0.489c-0.004,0.048-0.025,0.058-0.061,0.053
		c-0.025-0.004-0.05-0.004-0.071,0c-0.046,0.004-0.063-0.013-0.059-0.058c0.008-0.079,0-0.155,0-0.236
		C48.89,55.736,48.898,55.736,48.903,55.736z"/>
	<path fill="#2B2C2C" d="M48.536,55.727c0.006-0.011,0.006-0.016,0.01-0.024c0.008,0.004,0.013,0.011,0.013,0.013
		c-0.004,0.008-0.004,0.011-0.013,0.021C48.542,55.732,48.542,55.727,48.536,55.727z"/>
	<path opacity="0.8" fill="#BFB8AA" enable-background="new    " d="M63.321,71.363c0,0.698-0.569,1.268-1.271,1.268H35.863
		c-0.701,0-1.269-0.566-1.269-1.268v-3.684c0-0.695,0.568-1.267,1.269-1.267h26.188c0.701,0,1.271,0.571,1.271,1.267V71.363z"/>
	<g>
		<path fill="#BFB8AA" d="M68.799,24.488C67.04,24.438,57.89,23.93,48.771,23.93c-9.117,0-18.207,0.508-19.965,0.558
			c-3.765,0.115-6.188,2.351-6.188,2.351h25.583h1.194h25.588C74.984,26.839,72.562,24.602,68.799,24.488z"/>
	</g>
	<g>
		<line fill="none" x1="49.016" y1="24.015" x2="49.016" y2="20.698"/>
		
			<linearGradient id="SVGID_12_" gradientUnits="userSpaceOnUse" x1="65.3994" y1="699.4685" x2="66.0674" y2="699.4685" gradientTransform="matrix(1 0 0 1 -16.7197 -677.1113)">
			<stop  offset="0" style="stop-color:#FFFFFF"/>
			<stop  offset="1" style="stop-color:#C8C8C8"/>
		</linearGradient>
		<rect x="48.68" y="20.698" fill="url(#SVGID_12_)" width="0.667" height="3.316"/>
	</g>
	<g>
		<line fill="none" x1="49.016" y1="16.309" x2="49.016" y2="20.737"/>
		
			<linearGradient id="SVGID_13_" gradientUnits="userSpaceOnUse" x1="65.623" y1="695.6345" x2="65.8466" y2="695.6345" gradientTransform="matrix(1 0 0 1 -16.7197 -677.1113)">
			<stop  offset="0" style="stop-color:#FFFFFF"/>
			<stop  offset="1" style="stop-color:#C8C8C8"/>
		</linearGradient>
		<rect x="48.903" y="16.309" fill="url(#SVGID_13_)" width="0.225" height="4.428"/>
	</g>
	
		<linearGradient id="SVGID_14_" gradientUnits="userSpaceOnUse" x1="91.7275" y1="732.0632" x2="105.0986" y2="732.0632" gradientTransform="matrix(1 0 0 1 -16.7197 -677.1113)">
		<stop  offset="0" style="stop-color:#FFFFFF"/>
		<stop  offset="1" style="stop-color:#C8C8C8"/>
	</linearGradient>
	<path fill="url(#SVGID_14_)" d="M78.422,49.145c-1.22,0.344-5.216,2.314-2.47,7.18c2.738,4.864,6.533,4.57,6.533,4.57
		s6.609,0.32,5.83-5.995C87.537,48.582,79.649,48.799,78.422,49.145z"/>
	
		<linearGradient id="SVGID_15_" gradientUnits="userSpaceOnUse" x1="92.8936" y1="731.8464" x2="104.5967" y2="731.8464" gradientTransform="matrix(1 0 0 1 -16.7197 -677.1113)">
		<stop  offset="0" style="stop-color:#A8A7A7"/>
		<stop  offset="0.3438" style="stop-color:#A9AAAA"/>
		<stop  offset="0.5634" style="stop-color:#B3B3B3"/>
		<stop  offset="0.7481" style="stop-color:#C2C1C1"/>
		<stop  offset="0.9126" style="stop-color:#D7D8D7"/>
		<stop  offset="1" style="stop-color:#E5E6E5"/>
	</linearGradient>
	<path fill="url(#SVGID_15_)" d="M87.877,55.383c0,3.455-1.551,4.608-4.865,4.608c-3.312,0-6.838-2.449-6.838-5.909
		c0-3.454,1.291-4.603,4.604-4.603C84.091,49.479,87.877,51.921,87.877,55.383z"/>
	<path opacity="0.4" fill="#BFB8AA" enable-background="new    " d="M60.949,43.641c0,0-0.81,0.19-1.448-1.443
		c-0.634-1.636-0.237-4.754,0-5.695c0.241-0.943,1.028-1.876,3.629-1.781c0,0,3.371-0.162,3.786,1.702
		c0.414,1.857,0.613,6.131,0,6.543C66.302,43.373,66.377,43.831,60.949,43.641z"/>
	<path fill="#5E5F5F" d="M59.079,43.939c0,0,3.762-3.392,8.604,0h3.28c0,0-7.266-8.046-15.053,0H59.079z"/>
	
		<linearGradient id="SVGID_16_" gradientUnits="userSpaceOnUse" x1="-779.8003" y1="732.5906" x2="-766.4282" y2="732.5906" gradientTransform="matrix(-1 0 0 1 -756.8477 -677.1113)">
		<stop  offset="0" style="stop-color:#FFFFFF"/>
		<stop  offset="1" style="stop-color:#C8C8C8"/>
	</linearGradient>
	<path fill="url(#SVGID_16_)" d="M19.537,49.675c1.224,0.346,5.217,2.313,2.472,7.175c-2.74,4.871-6.531,4.572-6.531,4.572
		s-6.613,0.32-5.833-5.995C10.423,49.109,18.319,49.33,19.537,49.675z"/>
	
		<linearGradient id="SVGID_17_" gradientUnits="userSpaceOnUse" x1="-778.6367" y1="732.3738" x2="-766.9351" y2="732.3738" gradientTransform="matrix(-1 0 0 1 -756.8477 -677.1113)">
		<stop  offset="0" style="stop-color:#A8A7A7"/>
		<stop  offset="0.3438" style="stop-color:#A9AAAA"/>
		<stop  offset="0.5634" style="stop-color:#B3B3B3"/>
		<stop  offset="0.7481" style="stop-color:#C2C1C1"/>
		<stop  offset="0.9126" style="stop-color:#D7D8D7"/>
		<stop  offset="1" style="stop-color:#E5E6E5"/>
	</linearGradient>
	<path fill="url(#SVGID_17_)" d="M10.087,55.909c0,3.456,1.551,4.609,4.864,4.609c3.313,0,6.838-2.449,6.838-5.905
		c0-3.458-1.29-4.605-4.603-4.605S10.087,52.454,10.087,55.909z"/>
	
		<linearGradient id="SVGID_18_" gradientUnits="userSpaceOnUse" x1="37.7046" y1="744.1052" x2="93.8115" y2="744.1052" gradientTransform="matrix(1 0 0 1 -16.7197 -677.1113)">
		<stop  offset="0" style="stop-color:#FFFFFF"/>
		<stop  offset="1" style="stop-color:#C8C8C8"/>
	</linearGradient>
	<path fill="url(#SVGID_18_)" d="M49.029,59.791l15.113,0.498l0.149,0.017l0.174-0.043c0.051-0.009,0.256-0.038,0.608-0.038
		c0.811,0,2.536,0.157,5.057,1.211c3.461,1.452,5.41,5.737,5.563,6.544c0,0.061,0.004,0.122,0.013,0.194
		c0.08,0.941,0.261,3.146-1.713,4.495c-0.833,0.565-4.084,1.521-16.545,1.521c-0.526,0-1.012-0.001-1.441-0.001
		c-0.353-0.003-0.661-0.004-0.935-0.004h-4.87h-2.347h-4.874c-0.273,0-0.584,0.001-0.932,0.004c-0.428,0-0.917,0.001-1.444,0.001
		c-12.457,0-15.715-0.953-16.541-1.521c-1.845-1.261-1.779-2.723-1.717-4.136c0.008-0.23,0.017-0.446,0.021-0.663
		c0-0.328,0.353-1.533,1.381-2.979c0.788-1.109,2.152-2.61,4.176-3.458c2.521-1.053,4.25-1.213,5.055-1.213
		c0.352,0,0.563,0.031,0.608,0.038l0.133,0.034l0.191-0.005L49.029,59.791 M49.06,58.451h-0.031h-0.034v0.001L33.868,58.95
		c0,0-0.302-0.066-0.887-0.066c-1.021,0-2.911,0.202-5.569,1.315c-4.184,1.751-6.377,6.146-6.386,7.667
		c-0.004,1.521-0.531,3.991,2.28,5.916c2.384,1.63,11.983,1.755,17.3,1.755c0.953,0,1.767-0.008,2.375-0.008
		c1.891,0,3.595,0,4.874,0c1.446,0,2.347,0,2.347,0c1.276,0,2.98,0,4.87,0c0.611,0,1.424,0.008,2.376,0.008
		c5.316,0,14.917-0.125,17.301-1.755c2.811-1.925,2.334-5.075,2.279-5.916c-0.057-0.838-2.206-5.916-6.38-7.667
		c-2.659-1.109-4.551-1.315-5.575-1.315c-0.583,0-0.886,0.066-0.886,0.066L49.06,58.451L49.06,58.451L49.06,58.451z"/>
	<path opacity="0.8" fill="#3F3F3F" enable-background="new    " d="M6.999,77.99c0,0-0.556,9.724,1.38,10.807
		c1.938,1.08,7.564,0.188,7.564,0.188s0.933-0.485,1.008-2.984c0.074-2.491-0.03-3.596-0.03-3.596
		c0.614,0.063-9.4-0.885-9.578-1.802C7.156,79.684,6.978,78.296,6.999,77.99z"/>
	<path opacity="0.4" fill="#BFB8AA" enable-background="new    " d="M30.447,43.896c0,0-0.804,0.19-1.443-1.443
		c-0.638-1.638-0.24-4.75,0-5.695c0.24-0.944,1.028-1.876,3.625-1.781c0,0,3.371-0.159,3.786,1.698c0.418,1.861,0.618,6.137,0,6.545
		C35.804,43.633,35.875,44.086,30.447,43.896z"/>
	
		<linearGradient id="SVGID_19_" gradientUnits="userSpaceOnUse" x1="28.188" y1="731.3181" x2="36.8428" y2="731.3181" gradientTransform="matrix(1 0 0 1 -16.7197 -677.1113)">
		<stop  offset="0" style="stop-color:#A8A7A7"/>
		<stop  offset="0.3438" style="stop-color:#A9AAAA"/>
		<stop  offset="0.5634" style="stop-color:#B3B3B3"/>
		<stop  offset="0.7481" style="stop-color:#C2C1C1"/>
		<stop  offset="0.9126" style="stop-color:#D7D8D7"/>
		<stop  offset="1" style="stop-color:#E5E6E5"/>
	</linearGradient>
	<path fill="url(#SVGID_19_)" d="M15.793,50.318c2.389,0,4.33,1.741,4.33,3.888c0,2.151-1.941,3.89-4.33,3.89
		s-4.325-1.739-4.325-3.89C11.468,52.059,13.404,50.318,15.793,50.318z"/>
	
		<linearGradient id="SVGID_20_" gradientUnits="userSpaceOnUse" x1="27.9409" y1="734.9089" x2="36.7266" y2="734.9089" gradientTransform="matrix(1 0 0 1 -16.7197 -677.1113)">
		<stop  offset="0" style="stop-color:#818383"/>
		<stop  offset="0.4033" style="stop-color:#848485"/>
		<stop  offset="0.6608" style="stop-color:#8B8B8B"/>
		<stop  offset="0.8768" style="stop-color:#9C9B9B"/>
		<stop  offset="1" style="stop-color:#A8A7A7"/>
	</linearGradient>
	<path fill="url(#SVGID_20_)" d="M15.793,59.362c1.406,0,2.828-0.527,3.712-1.169c1.215-0.888-0.066-2.049-0.788-1.305
		c-0.51,0.523-1.692,1.023-2.924,1.023c-1.409,0-2.757-0.485-3.313-1.359c-0.551-0.876-1.779,0.238-1.016,1.124
		C11.946,58.243,13.563,59.362,15.793,59.362z"/>
	
		<linearGradient id="SVGID_21_" gradientUnits="userSpaceOnUse" x1="31.4854" y1="732.7078" x2="38.5088" y2="732.7078" gradientTransform="matrix(1 0 0 1 -16.7197 -677.1113)">
		<stop  offset="0" style="stop-color:#FFFFFF"/>
		<stop  offset="1" style="stop-color:#C8C8C8"/>
	</linearGradient>
	<path opacity="0.2" fill="url(#SVGID_21_)" enable-background="new    " d="M20.309,50.677c-2.446,1.317-5.717,3.618-5.536,6.498
		c0.091,1.362,0.208,2.455,0.357,3.34c3.264-0.087,6.659-2.509,6.659-5.902C21.789,52.586,21.345,51.355,20.309,50.677z"/>
	
		<linearGradient id="SVGID_22_" gradientUnits="userSpaceOnUse" x1="-1344.9248" y1="731.3181" x2="-1336.2695" y2="731.3181" gradientTransform="matrix(-1 0 0 1 -1258.0723 -677.1113)">
		<stop  offset="0" style="stop-color:#A8A7A7"/>
		<stop  offset="0.3438" style="stop-color:#A9AAAA"/>
		<stop  offset="0.5634" style="stop-color:#B3B3B3"/>
		<stop  offset="0.7481" style="stop-color:#C2C1C1"/>
		<stop  offset="0.9126" style="stop-color:#D7D8D7"/>
		<stop  offset="1" style="stop-color:#E5E6E5"/>
	</linearGradient>
	<path fill="url(#SVGID_22_)" d="M82.527,50.318c2.389,0,4.325,1.741,4.325,3.888c0,2.151-1.937,3.89-4.325,3.89
		s-4.33-1.739-4.33-3.89C78.197,52.059,80.139,50.318,82.527,50.318z"/>
	
		<linearGradient id="SVGID_23_" gradientUnits="userSpaceOnUse" x1="-1345.1724" y1="734.9099" x2="-1336.3848" y2="734.9099" gradientTransform="matrix(-1 0 0 1 -1258.0723 -677.1113)">
		<stop  offset="0" style="stop-color:#818383"/>
		<stop  offset="0.4033" style="stop-color:#848485"/>
		<stop  offset="0.6608" style="stop-color:#8B8B8B"/>
		<stop  offset="0.8768" style="stop-color:#9C9B9B"/>
		<stop  offset="1" style="stop-color:#A8A7A7"/>
	</linearGradient>
	<path fill="url(#SVGID_23_)" d="M82.527,59.362c-1.406,0-2.831-0.527-3.711-1.169c-1.219-0.888,0.065-2.049,0.787-1.305
		c0.506,0.523,1.696,1.023,2.924,1.023c1.406,0,2.754-0.485,3.31-1.359c0.555-0.875,1.778,0.238,1.024,1.124
		C86.374,58.243,84.758,59.362,82.527,59.362z"/>
	
		<linearGradient id="SVGID_24_" gradientUnits="userSpaceOnUse" x1="-1341.623" y1="732.7078" x2="-1334.6074" y2="732.7078" gradientTransform="matrix(-1 0 0 1 -1258.0723 -677.1113)">
		<stop  offset="0" style="stop-color:#FFFFFF"/>
		<stop  offset="1" style="stop-color:#C8C8C8"/>
	</linearGradient>
	<path opacity="0.2" fill="url(#SVGID_24_)" enable-background="new    " d="M78.015,50.677c2.443,1.317,5.715,3.618,5.528,6.498
		c-0.088,1.362-0.203,2.455-0.353,3.34c-3.26-0.087-6.655-2.509-6.655-5.902C76.531,52.586,76.976,51.355,78.015,50.677z"/>
	<path fill="#5E5F5F" d="M89.157,78.44c-0.718,1.4-3.956,1.641-7.382,2.124c-2.988,0.421-24.671,0.872-32.751,0.98
		c-8.086-0.106-29.769-0.56-32.758-0.98c-3.421-0.483-6.664-0.724-7.381-2.124C8.168,77.039,7.023,67.709,6.26,63.454
		c0.208,2.848,0.506,5.703,0.51,5.751l0.004,0.037c0.091,4.457,0.112,10.016,0.51,11.468c0.327,1.21,13.99,2.065,13.99,2.065h23.867
		h7.763h23.858c0,0,13.663-0.854,13.999-2.065c0.393-1.452,0.414-7.009,0.506-11.468l0.005-0.037
		c0.004-0.052,0.302-2.905,0.51-5.751C91.023,67.709,89.875,77.039,89.157,78.44z"/>
	<g>
		<g>
			<path fill-rule="evenodd" clip-rule="evenodd" fill="#787468" d="M85.283,102.748c-6.771,0-13.542,0-20.316,0
				c-0.183,0-0.369-0.002-0.557-0.007c-0.888-0.018-1.708-0.908-1.704-1.799c0.029-10.63,0.029-21.262,0-31.891
				c-0.004-0.976,0.829-1.784,1.713-1.857c0.19-0.021,0.378-0.018,0.561-0.018c13.562-0.003,27.122-0.004,40.681,0.005
				c0.353,0,0.72,0.034,1.048,0.141c0.776,0.265,1.221,0.92,1.246,1.738c0,0.085,0,0.17,0,0.255c0,10.444-0.004,20.888,0.009,31.335
				c0,0.889-0.305,1.568-1.121,1.923c-0.327,0.146-0.726,0.168-1.089,0.168C98.932,102.752,92.106,102.748,85.283,102.748z
				 M104.223,99.327c0-9.59,0-19.128,0-28.664c-12.618,0-25.202,0-37.789,0c0,9.574,0,19.107,0,28.664
				C79.039,99.327,91.608,99.327,104.223,99.327z M64.551,85.767c0.456,0,0.807-0.353,0.802-0.8
				c-0.004-0.411-0.363-0.777-0.772-0.795c-0.426-0.018-0.812,0.354-0.82,0.791C63.747,85.415,64.1,85.767,64.551,85.767z"/>
			<linearGradient id="SVGID_25_" gradientUnits="userSpaceOnUse" x1="62.1709" y1="84.9617" x2="108.5" y2="84.9617">
				<stop  offset="0" style="stop-color:#FFFFFF"/>
				<stop  offset="1" style="stop-color:#C8C8C8"/>
			</linearGradient>
			<path fill="url(#SVGID_25_)" d="M94.377,103.286h-29.41c-0.188,0-0.378-0.001-0.569-0.005c-1.169-0.027-2.235-1.144-2.227-2.339
				c0.025-10.581,0.025-21.309,0-31.89c-0.009-1.217,0.982-2.292,2.202-2.397c0.143-0.014,0.291-0.016,0.437-0.016l0.172,0.537
				v-0.537l18.184-0.002c7.501,0,14.994,0.002,22.495,0.007c0.473,0,0.871,0.053,1.216,0.167c0.981,0.336,1.584,1.17,1.615,2.235
				v6.539c-0.002,8.354-0.002,16.709,0.009,25.064c0,1.187-0.489,2-1.446,2.416c-0.428,0.188-0.896,0.215-1.301,0.215
				C101.962,103.286,98.168,103.286,94.377,103.286z M63.267,85.334c0,5.217-0.009,10.431-0.021,15.61
				c-0.004,0.611,0.593,1.248,1.178,1.261c0.183,0.004,0.365,0.006,0.544,0.006h29.41c3.791,0,7.583,0,11.374-0.006
				c0.276,0,0.625-0.016,0.873-0.123c0.562-0.245,0.8-0.675,0.8-1.432c-0.011-8.355-0.009-16.711-0.009-25.064V69.06
				c-0.017-0.599-0.329-1.041-0.88-1.23c-0.229-0.073-0.522-0.109-0.875-0.109c-7.501-0.004-14.998-0.007-22.495-0.007L64.81,67.717
				c-0.111,0-0.225,0-0.341,0.012c-0.585,0.049-1.228,0.603-1.224,1.319c0.013,5.172,0.021,10.38,0.021,15.588
				c0.153-0.565,0.685-1.002,1.282-1.002l0.057,0.003c0.688,0.026,1.278,0.632,1.284,1.327c0.005,0.36-0.132,0.696-0.382,0.948
				c-0.506,0.51-1.416,0.506-1.914-0.004C63.437,85.745,63.323,85.55,63.267,85.334z M64.549,84.171v0.539
				c-0.113,0-0.25,0.122-0.254,0.263c-0.002,0.093,0.035,0.15,0.069,0.183c0.062,0.067,0.312,0.068,0.378,0
				c0.033-0.032,0.073-0.093,0.071-0.183c0-0.121-0.13-0.259-0.254-0.263L64.549,84.171z M104.76,99.864H65.896V70.125h38.863
				V99.864z M66.973,98.789h36.713V71.201H66.973V98.789z"/>
		</g>
		
			<linearGradient id="SVGID_26_" gradientUnits="userSpaceOnUse" x1="69.5" y1="29.3269" x2="98.1641" y2="29.3269" gradientTransform="matrix(0 1 -1 0 114.655 1.1628)">
			<stop  offset="0" style="stop-color:#E4E5E4"/>
			<stop  offset="0.5398" style="stop-color:#FFFFFF"/>
			<stop  offset="1" style="stop-color:#C8C8C8"/>
		</linearGradient>
		<path fill-rule="evenodd" clip-rule="evenodd" fill="url(#SVGID_26_)" d="M104.223,99.327c-12.614,0-25.184,0-37.789,0
			c0-9.557,0-19.09,0-28.664c12.587,0,25.171,0,37.789,0C104.223,80.199,104.223,89.737,104.223,99.327z"/>
		<path opacity="0.6" fill-rule="evenodd" clip-rule="evenodd" fill="#BFB9AA" enable-background="new    " d="M64.551,85.767
			c-0.451,0-0.804-0.353-0.791-0.804c0.009-0.438,0.395-0.809,0.82-0.791c0.409,0.018,0.769,0.384,0.772,0.795
			C65.357,85.415,65.007,85.767,64.551,85.767z"/>
		<path opacity="0.6" fill-rule="evenodd" clip-rule="evenodd" fill="#BFB9AA" enable-background="new    " d="M106.013,85.057
			c-0.225-0.004-0.398-0.175-0.39-0.396c0.004-0.221,0.194-0.405,0.409-0.393c0.199,0.009,0.375,0.189,0.38,0.393
			C106.412,84.883,106.237,85.057,106.013,85.057z"/>
	</g>
	<path fill="#787366" d="M85.309,95.456c-1.621,0-3.062-0.259-4.324-0.776c-1.261-0.515-2.321-1.233-3.188-2.155
		c-0.865-0.918-1.524-2.015-1.979-3.289c-0.451-1.271-0.68-2.665-0.68-4.178c0-1.562,0.271-2.99,0.808-4.284
		c0.535-1.294,1.293-2.411,2.269-3.353c1.033-0.991,2.171-1.697,3.409-2.122c1.24-0.426,2.562-0.638,3.975-0.638
		c1.53,0,2.907,0.247,4.135,0.738s2.269,1.158,3.123,2.003c0.858,0.843,1.518,1.828,1.981,2.95c0.462,1.122,0.692,2.312,0.692,3.572
		c0,1.117-0.157,2.101-0.472,2.947c-0.315,0.851-0.745,1.56-1.287,2.133c-0.541,0.569-1.173,1-1.897,1.291
		c-0.722,0.288-1.49,0.433-2.305,0.433c-0.353,0-0.665-0.02-0.934-0.062s-0.502-0.102-0.697-0.176
		c-0.199-0.077-0.369-0.164-0.51-0.266c-0.145-0.103-0.267-0.213-0.369-0.341c-0.115-0.144-0.219-0.311-0.307-0.503
		c-0.088-0.193-0.148-0.421-0.183-0.681c-0.497,0.521-0.934,0.923-1.312,1.209c-0.376,0.286-0.774,0.485-1.184,0.6
		c-0.411,0.114-0.829,0.17-1.249,0.17c-0.548,0-1.024-0.104-1.436-0.31c-0.413-0.205-0.758-0.489-1.034-0.85
		c-0.275-0.362-0.485-0.786-0.624-1.272c-0.136-0.488-0.208-1.019-0.208-1.589c0-0.731,0.097-1.476,0.284-2.237
		c0.188-0.761,0.442-1.428,0.757-2.004c0.315-0.574,0.632-1.039,0.951-1.392c0.443-0.487,0.953-0.873,1.523-1.153
		c0.573-0.281,1.207-0.422,1.904-0.422c0.738,0,1.324,0.126,1.759,0.377c0.432,0.253,0.76,0.567,0.976,0.945l0.214-0.957h2.861
		l-1.438,6.602c-0.073,0.304-0.111,0.658-0.111,1.061c0,0.303,0.074,0.556,0.219,0.757c0.149,0.2,0.411,0.303,0.789,0.303
		c0.68,0,1.255-0.229,1.728-0.683c0.47-0.452,0.798-1.043,0.976-1.771c0.181-0.726,0.269-1.456,0.269-2.185
		c0-0.983-0.192-1.927-0.583-2.83c-0.391-0.904-0.951-1.687-1.684-2.352c-0.73-0.663-1.589-1.149-2.577-1.456
		c-0.986-0.306-1.996-0.459-3.03-0.459c-1.103,0-2.122,0.195-3.062,0.579c-0.942,0.386-1.761,0.934-2.456,1.639
		c-0.734,0.724-1.303,1.6-1.717,2.636c-0.409,1.032-0.616,2.174-0.616,3.426c0,1.303,0.182,2.461,0.543,3.48
		c0.359,1.016,0.877,1.875,1.554,2.583c0.68,0.704,1.502,1.242,2.472,1.612c0.97,0.369,2.065,0.554,3.283,0.554
		c0.771,0,1.567-0.091,2.388-0.276c0.819-0.185,1.563-0.429,2.235-0.732l0.771,1.992c-0.89,0.379-1.77,0.667-2.632,0.863
		C87.203,95.355,86.282,95.456,85.309,95.456z M84.049,88.334c0.562,0,1.047-0.203,1.454-0.611c0.407-0.406,0.706-0.859,0.889-1.36
		c0.187-0.498,0.314-0.935,0.392-1.305c0.102-0.52,0.151-0.932,0.151-1.234c0-0.696-0.157-1.205-0.466-1.524
		c-0.126-0.143-0.285-0.257-0.473-0.34c-0.19-0.085-0.402-0.127-0.638-0.127c-0.294,0-0.573,0.068-0.837,0.208
		c-0.265,0.14-0.502,0.326-0.714,0.562c-0.269,0.284-0.493,0.637-0.68,1.052c-0.183,0.417-0.336,0.902-0.452,1.455
		c-0.086,0.37-0.128,0.765-0.128,1.186c0,0.655,0.124,1.16,0.372,1.513C83.17,88.159,83.543,88.334,84.049,88.334z"/>
</g>
</svg>
