<?xml version="1.0" encoding="utf-8"?>
<!-- Generator: Adobe Illustrator 16.0.0, SVG Export Plug-In . SVG Version: 6.00 Build 0)  -->
<!DOCTYPE svg PUBLIC "-//W3C//DTD SVG 1.1//EN" "http://www.w3.org/Graphics/SVG/1.1/DTD/svg11.dtd">
<svg version="1.1" id="Layer_1" xmlns="http://www.w3.org/2000/svg" xmlns:xlink="http://www.w3.org/1999/xlink" x="0px" y="0px"
	 width="110.5px" height="115.779px" viewBox="-139.198 -31.22 110.5 115.779"
	 enable-background="new -139.198 -31.22 110.5 115.779" xml:space="preserve">
<g>
	<path fill="#787366" d="M-70.921,18.414c1.084,0.994,6.49,12.427,6.49,12.427l1.065,1.331l0.932-1.065l-0.266-1.731
		c0,0-0.071-1.199,0.532-1.864c0.603-0.665,2.131-0.667,2.131-0.667s1.656,0.063,2.797,0.799c1.14,0.737,1.36,1.068,1.464,1.731
		c0.105,0.664-0.27,1.061-0.666,1.598c-0.396,0.538-1.865,0.799-1.865,0.799l-2.396,0.532l-0.933,1.731l2.796,3.196
		c0,0,1.892,4.404,2.131,6.125c0.239,1.722-0.532,9.056-0.532,9.056s-0.261,13.035-0.666,14.515
		c-0.405,1.48-0.933,1.732-0.933,1.732h-6.392l-0.799-1.732l-3.462-3.195h-21.545h-1.626h-21.545l-3.462,3.195l-0.799,1.732h-6.392
		c0,0-0.528-0.252-0.932-1.732c-0.405-1.479-0.666-14.515-0.666-14.515s-0.771-7.334-0.532-9.056c0.239-1.721,2.13-6.125,2.13-6.125
		l2.797-3.196l-0.933-1.731l-2.397-0.532c0,0-1.469-0.261-1.864-0.799s-0.771-0.935-0.666-1.598s0.325-0.994,1.465-1.731
		c1.141-0.736,2.797-0.799,2.797-0.799s1.527,0.001,2.131,0.667c0.603,0.665,0.532,1.864,0.532,1.864l-0.266,1.731l0.932,1.065
		l1.065-1.332c0,0,5.118-11.433,6.203-12.427H-70.921z"/>
	<linearGradient id="SVGID_1_" gradientUnits="userSpaceOnUse" x1="-128.3044" y1="43.5374" x2="-55.3953" y2="43.5374">
		<stop  offset="0" style="stop-color:#FFFFFF"/>
		<stop  offset="1" style="stop-color:#C8C8C8"/>
	</linearGradient>
	<path fill="url(#SVGID_1_)" d="M-58.757,69.023h-6.706l-0.866-1.876l-3.305-3.051h-44.433l-3.305,3.051l-0.866,1.876h-6.706
		l-0.074-0.035c-0.113-0.054-0.699-0.401-1.126-1.963c-0.408-1.494-0.664-13.867-0.678-14.588c-0.05-0.471-0.769-7.405-0.53-9.127
		c0.243-1.75,2.079-6.038,2.156-6.22l0.023-0.053l2.669-3.049l-0.735-1.365l-2.235-0.496c-0.253-0.044-1.619-0.315-2.077-0.938
		c-0.043-0.059-0.087-0.117-0.129-0.172c-0.354-0.47-0.72-0.956-0.603-1.696c0.129-0.822,0.464-1.228,1.626-1.979
		c1.209-0.781,2.908-0.854,2.979-0.856c0.193-0.001,1.722,0.022,2.413,0.784c0.698,0.769,0.629,2.074,0.626,2.129l-0.003,0.034
		l-0.241,1.564l0.537,0.613l0.766-0.958c0.61-1.361,5.174-11.5,6.27-12.504l0.104-0.095h42.426l0.104,0.095
		c1.094,1.002,5.917,11.155,6.554,12.501l0.769,0.96l0.536-0.613l-0.244-1.598c-0.003-0.055-0.072-1.36,0.625-2.129
		c0.691-0.762,2.227-0.785,2.399-0.785c0.085,0.003,1.783,0.076,2.993,0.857c1.162,0.751,1.496,1.157,1.626,1.979
		c0.117,0.74-0.249,1.226-0.602,1.696c-0.042,0.056-0.086,0.114-0.129,0.173c-0.459,0.623-1.824,0.894-2.093,0.941l-2.22,0.494
		l-0.735,1.364l2.668,3.05l0.023,0.053c0.078,0.182,1.914,4.469,2.157,6.219c0.239,1.722-0.48,8.654-0.53,9.127
		c-0.014,0.721-0.27,13.094-0.678,14.588c-0.427,1.562-1.013,1.909-1.126,1.963L-58.757,69.023z M-64.999,68.298h6.041
		c0.123-0.114,0.435-0.486,0.702-1.464c0.322-1.18,0.581-10.814,0.653-14.427l0.002-0.031c0.008-0.072,0.765-7.309,0.534-8.968
		c-0.215-1.554-1.87-5.48-2.083-5.98l-2.924-3.342l1.13-2.098l2.559-0.569c0.566-0.101,1.438-0.37,1.651-0.66
		c0.045-0.062,0.09-0.122,0.135-0.18c0.351-0.467,0.531-0.729,0.465-1.147c-0.082-0.519-0.215-0.781-1.303-1.484
		c-1.044-0.675-2.598-0.741-2.614-0.741c-0.367,0.001-1.444,0.101-1.849,0.547c-0.403,0.445-0.455,1.278-0.44,1.583l0.29,1.88
		l-1.329,1.518l-1.362-1.703l-0.018-0.038c-2.085-4.411-5.408-11.134-6.318-12.22h-41.833c-0.896,1.085-4.055,7.804-6.028,12.213
		l-0.019,0.042l-1.364,1.706l-1.329-1.518l0.289-1.878c0.004-0.127,0.021-1.078-0.44-1.585c-0.404-0.446-1.508-0.547-1.863-0.547
		c-0.001,0-1.559,0.069-2.6,0.741c-1.088,0.703-1.222,0.965-1.304,1.484c-0.066,0.417,0.114,0.68,0.466,1.147
		c0.044,0.058,0.089,0.118,0.134,0.18c0.213,0.29,1.085,0.559,1.636,0.657l2.574,0.571l1.13,2.098l-2.924,3.342
		c-0.212,0.499-1.867,4.426-2.082,5.98c-0.23,1.659,0.526,8.896,0.534,8.968l0.002,0.031c0.072,3.612,0.331,13.247,0.653,14.427
		c0.267,0.977,0.58,1.35,0.702,1.464h6.041l0.732-1.586l3.619-3.341h45l3.619,3.341L-64.999,68.298z"/>
</g>
<g opacity="0.8">
	<path fill="#5E5E5E" d="M-65.547,31.997c0,0-5.02-12.907-6.514-13.146c-1.237-0.198-14.594-0.396-19.157-0.458
		c0-0.012,0-0.02,0-0.02s-0.276,0.003-0.759,0.01c-0.483-0.006-0.759-0.01-0.759-0.01s0,0.008,0,0.02
		c-4.563,0.062-17.92,0.26-19.157,0.458c-1.494,0.239-6.514,13.146-6.514,13.146s24.4-0.212,26.43-0.197
		S-65.547,31.997-65.547,31.997z"/>
	<linearGradient id="SVGID_2_" gradientUnits="userSpaceOnUse" x1="-118.6721" y1="25.1848" x2="-65.281" y2="25.1848">
		<stop  offset="0" style="stop-color:#FFFFFF"/>
		<stop  offset="1" style="stop-color:#C8C8C8"/>
	</linearGradient>
	<path fill="url(#SVGID_2_)" d="M-91.218,18.373c0,0,0,0.008,0,0.02c4.563,0.062,17.92,0.26,19.157,0.458
		c1.494,0.239,6.514,13.146,6.514,13.146s-24.399-0.182-26.43-0.197c-0.07,0-0.165-0.001-0.285-0.001
		c-3.387,0-26.145,0.198-26.145,0.198s5.02-12.907,6.514-13.146c1.237-0.198,14.594-0.396,19.157-0.458c0-0.012,0-0.02,0-0.02
		s0.275,0.003,0.759,0.01C-91.493,18.376-91.218,18.373-91.218,18.373 M-92.908,18.19l-0.001,0.024
		c-5.452,0.075-17.8,0.264-19.012,0.458c-0.28,0.045-0.735,0.341-1.778,2.247c-0.605,1.104-1.337,2.626-2.176,4.521
		c-1.426,3.223-2.687,6.458-2.699,6.491l-0.097,0.249l0.267-0.002c0.228-0.002,22.796-0.197,26.144-0.198
		c0.122,0,0.215,0.001,0.284,0.001l26.43,0.197l0.267,0.002l-0.097-0.249c-0.013-0.033-1.273-3.268-2.7-6.491
		c-0.839-1.895-1.571-3.417-2.176-4.521c-1.043-1.906-1.499-2.202-1.778-2.247c-1.212-0.194-13.56-0.383-19.012-0.458l-0.001-0.024
		l-0.175,0.001l-0.759,0.01l-0.754-0.01L-92.908,18.19L-92.908,18.19z"/>
</g>
<linearGradient id="SVGID_3_" gradientUnits="userSpaceOnUse" x1="-123.7346" y1="41.0276" x2="-112.5354" y2="41.0276">
	<stop  offset="0" style="stop-color:#FFFFFF"/>
	<stop  offset="1" style="stop-color:#C8C8C8"/>
</linearGradient>
<path opacity="0.8" fill="url(#SVGID_3_)" d="M-116.561,45.498c-2.208,1.13-4.365,1.086-5.941-0.404
	c-1.309-1.235-1.646-3.057-0.67-4.848c1.052-1.928,2.736-3.638,5.222-4.303c2.627-0.703,3.934,0.851,4.902,2.333
	C-111.554,40.541-113.509,43.932-116.561,45.498z"/>
<path opacity="0.6" fill="#C0B9AB" enable-background="new    " d="M-67.121,31.997h-5.434c0,0-2.354,4.026-2.898,5.663
	c-0.543,1.636-1.992,6-1.992,6s5.508,0.99,5.705,0.53c0.095-0.223,0.676-3.511,1.63-6.036
	C-69.156,35.63-67.121,31.997-67.121,31.997z"/>
<path opacity="0.6" fill="#C0B9AB" enable-background="new    " d="M-110.833,31.997h5.433c0,0,2.354,4.026,2.898,5.663
	c0.543,1.636,1.992,6,1.992,6s-5.508,0.99-5.705,0.53c-0.095-0.223-0.677-3.511-1.63-6.036
	C-108.798,35.63-110.833,31.997-110.833,31.997z"/>
<linearGradient id="SVGID_4_" gradientUnits="userSpaceOnUse" x1="-67.6624" y1="41.0276" x2="-56.4631" y2="41.0276">
	<stop  offset="0" style="stop-color:#FFFFFF"/>
	<stop  offset="1" style="stop-color:#C8C8C8"/>
</linearGradient>
<path opacity="0.8" fill="url(#SVGID_4_)" d="M-67.151,38.276c0.969-1.482,2.275-3.036,4.902-2.333
	c2.486,0.665,4.17,2.375,5.222,4.303c0.976,1.792,0.639,3.613-0.669,4.848c-1.576,1.49-3.733,1.534-5.941,0.404
	C-66.688,43.932-68.643,40.541-67.151,38.276z"/>
<path opacity="0.8" fill="#C0B9AB" enable-background="new    " d="M-70.054,54.062c0,0.567-0.858,1.027-1.917,1.027h-39.62
	c-1.059,0-1.917-0.46-1.917-1.027V51.08c0-0.567,0.858-1.027,1.917-1.027h39.62c1.059,0,1.917,0.46,1.917,1.027V54.062z"/>
<linearGradient id="SVGID_5_" gradientUnits="userSpaceOnUse" x1="-114.5051" y1="50.2952" x2="-69.03" y2="50.2952">
	<stop  offset="0" style="stop-color:#FFFFFF"/>
	<stop  offset="1" style="stop-color:#C8C8C8"/>
</linearGradient>
<path fill="url(#SVGID_5_)" d="M-74.254,44.792c-3.385-1.417-5.231-1.012-5.231-1.012l-12.255-0.403l0-0.002l-0.027,0.001
	l-0.026-0.001l0,0.002l-12.256,0.403c0,0-1.846-0.405-5.231,1.012c-3.385,1.418-5.601,5.737-5.17,6.21c0,0-0.431,3.235,1.847,4.792
	c2.277,1.556,12.679,1.417,15.94,1.417c1.531,0,2.912,0,3.947,0c1.171,0,1.9,0,1.9,0c1.035,0,2.417,0,3.947,0
	c3.262,0,13.664,0.139,15.941-1.417c2.277-1.557,1.846-4.792,1.846-4.792C-68.653,50.53-70.869,46.21-74.254,44.792z"/>
<path opacity="0.8" fill="#5E5E5E" d="M-75.547,45.404c-3.155-1.268-4.876-0.905-4.876-0.905l-11.422-0.361v-0.001h-0.025h-0.025
	v0.001l-11.422,0.361c0,0-1.721-0.362-4.875,0.905c-3.155,1.268-5.22,5.131-4.819,5.554c0,0-0.401,2.895,1.721,4.286
	c2.122,1.393,11.816,1.268,14.856,1.268c1.426,0,2.714,0,3.679,0c1.092,0,1.771,0,1.771,0c0.965,0,2.252,0,3.679,0
	c3.04,0,12.734,0.125,14.856-1.268c2.123-1.392,1.721-4.286,1.721-4.286C-70.327,50.534-72.392,46.671-75.547,45.404z"/>
<linearGradient id="SVGID_6_" gradientUnits="userSpaceOnUse" x1="-114.1409" y1="788.7913" x2="-108.26" y2="788.7913" gradientTransform="matrix(1 0 0 1 -8.415 -732.5273)">
	<stop  offset="0" style="stop-color:#FFFFFF"/>
	<stop  offset="1" style="stop-color:#C8C8C8"/>
</linearGradient>
<path opacity="0.8" fill="url(#SVGID_6_)" d="M-119.522,59.129c1.6-0.044,2.858-1.326,2.847-2.889
	c-0.012-1.546-1.315-2.828-2.9-2.842c-1.649-0.015-3.049,1.402-2.978,2.996C-122.479,57.912-121.081,59.179-119.522,59.129z"/>
<linearGradient id="SVGID_7_" gradientUnits="userSpaceOnUse" x1="-53.8425" y1="788.7913" x2="-47.9622" y2="788.7913" gradientTransform="matrix(1 0 0 1 -8.415 -732.5273)">
	<stop  offset="0" style="stop-color:#FFFFFF"/>
	<stop  offset="1" style="stop-color:#C8C8C8"/>
</linearGradient>
<path opacity="0.8" fill="url(#SVGID_7_)" d="M-59.223,59.129c1.6-0.044,2.858-1.326,2.846-2.889
	c-0.011-1.546-1.314-2.828-2.9-2.842c-1.649-0.015-3.049,1.402-2.978,2.996C-62.18,57.912-60.783,59.179-59.223,59.129z"/>
<linearGradient id="SVGID_8_" gradientUnits="userSpaceOnUse" x1="-110.8328" y1="60.1467" x2="-72.8845" y2="60.1467">
	<stop  offset="0" style="stop-color:#FFFFFF"/>
	<stop  offset="1" style="stop-color:#C8C8C8"/>
</linearGradient>
<path opacity="0.8" fill="url(#SVGID_8_)" d="M-91.213,58.215h-1.292h-18.328c0,0,0,2.234,0.905,2.656
	c0.906,0.423,3.14,0.785,4.407,0.906c1.022,0.098,9.69,0.233,13.016,0.282v0.02c0,0,0.236-0.004,0.646-0.01
	c0.409,0.006,0.646,0.01,0.646,0.01v-0.02c3.325-0.049,11.994-0.185,13.016-0.282c1.268-0.121,3.501-0.483,4.407-0.906
	c0.906-0.422,0.906-2.656,0.906-2.656H-91.213z"/>
<linearGradient id="SVGID_9_" gradientUnits="userSpaceOnUse" x1="-89.9324" y1="41.5256" x2="-83.6741" y2="41.5256">
	<stop  offset="0" style="stop-color:#FFFFFF"/>
	<stop  offset="1" style="stop-color:#C8C8C8"/>
</linearGradient>
<path fill-rule="evenodd" clip-rule="evenodd" fill="url(#SVGID_9_)" d="M-86.534,40.432c0.016,0.003,0.032,0.005,0.048,0.008
	c0.005,0.005,0.009,0.014,0.014,0.014c0.173,0.027,0.324,0.116,0.492,0.158c0.001,0.006,0.003,0.012,0.005,0.018
	c-0.006,0.018,0.009,0.025,0.02,0.03c0.108,0.057,0.195,0.138,0.272,0.227c0.027,0.031,0.054,0.042,0.095,0.041
	c0.23-0.001,0.46,0,0.689-0.002c0.141-0.001,0.281-0.004,0.422-0.006c0.268,0,0.535-0.002,0.803-0.002
	c0.005,0.031-0.021,0.048-0.038,0.067c-0.225,0.268-0.481,0.508-0.754,0.731c-0.083,0.068-0.165,0.121-0.28,0.103
	c-0.232-0.001-0.464-0.002-0.697-0.003c-0.019,0-0.037-0.001-0.047,0.02c-0.029,0.062-0.059,0.124-0.089,0.186
	c0.095,0.035,0.116-0.033,0.136-0.089c0.018-0.05,0.045-0.067,0.1-0.069c0.199-0.008,0.398-0.021,0.597-0.032
	c0.037,0.002,0.073-0.028,0.128,0.015c-0.016,0.005-0.029,0.007-0.038,0.014c-0.128,0.085-0.258,0.169-0.384,0.258
	c-0.084,0.06-0.174,0.088-0.281,0.079c-0.072-0.006-0.146,0.004-0.219-0.002c-0.132-0.01-0.251,0.005-0.336,0.114
	c-0.005,0.006-0.015,0.011-0.022,0.016c-0.32,0.231-0.685,0.326-1.083,0.299c-0.358-0.024-0.675-0.148-0.928-0.396
	c-0.024-0.024-0.049-0.028-0.081-0.028c-0.132,0-0.264-0.004-0.395,0.001c-0.091,0.004-0.168-0.016-0.242-0.067
	c-0.134-0.094-0.28-0.175-0.398-0.289c0.005-0.008,0.013-0.012,0.023-0.011c0.243,0.026,0.488,0.021,0.731,0.037
	c0.046,0.003,0.088,0.003,0.104,0.068c0.007-0.094-0.017-0.122-0.091-0.122c-0.242,0-0.484,0-0.726,0.001
	c-0.018,0-0.043-0.013-0.054,0.014c-0.005,0-0.01,0-0.015,0c-0.012-0.011-0.025-0.021-0.042-0.021c-0.003,0-0.005-0.002-0.006-0.006
	c-0.022-0.036-0.059-0.056-0.093-0.08c0-0.003-0.002-0.005-0.005-0.004c-0.004-0.003-0.008-0.007-0.012-0.011
	c-0.033-0.026-0.067-0.051-0.099-0.079c-0.174-0.151-0.326-0.321-0.475-0.494c-0.053-0.062-0.114-0.121-0.146-0.198
	c0.621-0.002,1.242-0.004,1.863-0.005c0.096-0.001,0.207-0.076,0.245-0.167l-0.002,0.002c0.036-0.045,0.1-0.048,0.143-0.084
	c0.056-0.047,0.126-0.072,0.19-0.107c0.108-0.058,0.228-0.098,0.343-0.121c0.123-0.025,0.255-0.037,0.386-0.032
	C-86.687,40.427-86.611,40.448-86.534,40.432z M-89.154,41.096c-0.008-0.004-0.017-0.01-0.025-0.01c-0.184,0-0.367,0-0.55,0
	c-0.012,0-0.024,0.002-0.021,0.02c0.005,0.002,0.012,0.006,0.018,0.006c0.185,0.01,0.371-0.015,0.555,0.013
	c0.007,0.001,0.016-0.007,0.024-0.011c0.229,0.006,0.459,0.011,0.689,0.018c0.103,0.002,0.206,0.006,0.309,0.009
	c0.024,0.001,0.045-0.005,0.044-0.03c-0.001-0.029-0.028-0.014-0.043-0.016c-0.016-0.003-0.033-0.001-0.049-0.001
	C-88.52,41.095-88.837,41.095-89.154,41.096z M-84.535,41.458c0.089,0.007,0.178-0.007,0.268-0.009c0-0.002,0-0.003-0.001-0.011
	c-0.088-0.008-0.177-0.006-0.267,0.001c-0.258,0-0.517,0-0.775,0.001c-0.112,0-0.116,0-0.113,0.106
	c0.001,0.03-0.052,0.091,0.025,0.092c0.065,0.001,0.038-0.063,0.036-0.094c-0.002-0.055,0.021-0.058,0.068-0.059
	C-85.041,41.478-84.788,41.467-84.535,41.458z M-86.786,40.536c-0.345,0.003-0.652,0.097-0.912,0.31
	c-0.471,0.387-0.464,1.009,0.014,1.375c0.527,0.403,1.397,0.332,1.842-0.151c0.336-0.366,0.319-0.865-0.046-1.204
	C-86.137,40.635-86.447,40.541-86.786,40.536z M-84.144,41.101c0-0.004,0-0.008,0-0.012c-0.458,0-0.916,0-1.377,0
	c0.021,0.058,0.041,0.11,0.059,0.162c0.006,0.017,0.014,0.029,0.035,0.024c0.028-0.006,0.013-0.023,0.009-0.036
	c-0.007-0.021-0.013-0.043-0.024-0.062c-0.022-0.038-0.011-0.047,0.033-0.048c0.279-0.004,0.559-0.01,0.838-0.016
	C-84.428,41.11-84.286,41.105-84.144,41.101z M-89.361,41.45c0.005,0.022,0.019,0.019,0.029,0.019
	c0.317,0.009,0.633,0.02,0.95,0.026c0.075,0.001,0.149-0.007,0.15,0.094c0,0.002,0.006,0.003,0.012,0.008
	c0-0.027-0.004-0.051,0-0.075c0.014-0.066-0.016-0.08-0.083-0.079c-0.331,0.004-0.662,0.003-0.994,0.003
	C-89.317,41.447-89.339,41.449-89.361,41.45z M-84.113,41.077c0.091,0.011,0.181,0.043,0.273,0
	C-83.931,41.077-84.022,41.077-84.113,41.077z"/>
<path fill-rule="evenodd" clip-rule="evenodd" fill="none" d="M-84.747,41.819c0.115,0.018,0.197-0.035,0.28-0.103
	c0.273-0.224,0.529-0.463,0.754-0.731c0.017-0.02,0.043-0.036,0.038-0.067c0-0.006,0-0.012,0-0.019
	c0.022-0.005,0.044-0.01,0.07,0.005c-0.128,0.171-0.273,0.327-0.427,0.476c-0.325,0.313-0.684,0.587-1.078,0.821
	c-0.038,0.022-0.074,0.032-0.119,0.031c-0.141-0.001-0.282,0.003-0.423-0.001c-0.06-0.002-0.101,0.017-0.143,0.054
	c-0.534,0.475-1.454,0.509-2.024,0.076c-0.013-0.01-0.028-0.019-0.037-0.03c-0.07-0.09-0.164-0.111-0.277-0.099
	c-0.074,0.007-0.151-0.005-0.225,0.003c-0.13,0.016-0.236-0.026-0.338-0.098c-0.126-0.091-0.261-0.172-0.378-0.275
	c0.015-0.005,0.018-0.017,0.019-0.029c0.005,0,0.01,0,0.015,0l-0.001-0.001c-0.001,0.011,0.001,0.018,0.016,0.015l-0.002-0.001
	c0.119,0.114,0.265,0.195,0.398,0.289c0.073,0.052,0.15,0.072,0.242,0.067c0.131-0.006,0.263-0.001,0.395-0.001
	c0.032,0,0.057,0.004,0.081,0.028c0.253,0.248,0.569,0.372,0.928,0.396c0.399,0.027,0.763-0.067,1.083-0.299
	c0.007-0.005,0.017-0.01,0.022-0.016c0.084-0.109,0.204-0.125,0.336-0.114c0.072,0.006,0.146-0.004,0.219,0.002
	c0.106,0.01,0.196-0.019,0.281-0.079c0.126-0.089,0.256-0.172,0.384-0.258c0.009-0.006,0.022-0.008,0.038-0.014
	c-0.055-0.043-0.091-0.012-0.128-0.015C-84.747,41.827-84.747,41.823-84.747,41.819z"/>
<path fill-rule="evenodd" clip-rule="evenodd" fill="none" d="M-87.824,40.766c-0.038,0.091-0.149,0.167-0.245,0.167
	c-0.621,0.001-1.242,0.003-1.863,0.005c-0.017-0.01-0.035-0.015-0.055-0.012c0.011-0.032,0.039-0.015,0.058-0.015
	c0.277-0.002,0.555-0.001,0.833-0.002c0.353-0.001,0.705-0.005,1.058-0.006c0.039,0,0.064-0.011,0.091-0.038
	C-87.912,40.829-87.885,40.779-87.824,40.766z"/>
<path fill-rule="evenodd" clip-rule="evenodd" fill="none" d="M-86.534,40.432c-0.077,0.017-0.153-0.005-0.229-0.008
	c-0.131-0.005-0.263,0.007-0.386,0.032c-0.115,0.023-0.235,0.063-0.343,0.121c-0.064,0.035-0.134,0.06-0.19,0.107
	c-0.042,0.036-0.106,0.039-0.143,0.084c0.123-0.136,0.288-0.209,0.46-0.271c0.053-0.018,0.108-0.031,0.161-0.046
	c0.024,0.023,0.034,0.013,0.036-0.014c0.18-0.03,0.362-0.046,0.545-0.029C-86.593,40.41-86.556,40.399-86.534,40.432z"/>
<path fill-rule="evenodd" clip-rule="evenodd" fill="none" d="M-89.988,40.927c0.02-0.003,0.039,0.001,0.055,0.012
	c0.032,0.077,0.094,0.135,0.146,0.198c0.148,0.173,0.3,0.343,0.475,0.494c0.032,0.028,0.066,0.053,0.099,0.079
	c-0.015,0.002-0.029,0.003-0.043,0.004c-0.278-0.223-0.511-0.483-0.721-0.763C-89.981,40.945-89.984,40.936-89.988,40.927z"/>
<path fill-rule="evenodd" clip-rule="evenodd" fill="#787366" d="M-86.786,40.536c0.34,0.005,0.649,0.099,0.899,0.33
	c0.365,0.339,0.382,0.838,0.046,1.204c-0.445,0.483-1.315,0.554-1.842,0.151c-0.479-0.367-0.485-0.989-0.014-1.375
	C-87.438,40.633-87.132,40.539-86.786,40.536z M-86.761,40.591c-0.292,0-0.536,0.063-0.755,0.2
	c-0.598,0.372-0.604,1.082-0.014,1.443c0.464,0.284,1.15,0.225,1.551-0.133c0.402-0.359,0.403-0.89-0.002-1.231
	C-86.211,40.677-86.487,40.594-86.761,40.591z"/>
<path fill-rule="evenodd" clip-rule="evenodd" fill="#E8E7E7" d="M-84.113,41.077c0.091,0,0.182,0,0.273,0
	C-83.932,41.12-84.022,41.088-84.113,41.077z"/>
<path fill-rule="evenodd" clip-rule="evenodd" fill="#F9F9F9" d="M-89.04,41.831c0.01,0.001,0.024-0.003,0.016,0.015
	C-89.038,41.849-89.041,41.842-89.04,41.831z"/>
<path fill-rule="evenodd" clip-rule="evenodd" fill="#E8E7E7" d="M-86.761,40.591c0.275,0.004,0.551,0.086,0.78,0.279
	c0.405,0.341,0.404,0.872,0.002,1.231c-0.401,0.358-1.087,0.417-1.551,0.133c-0.591-0.361-0.584-1.072,0.014-1.443
	C-87.297,40.654-87.053,40.591-86.761,40.591z M-86.864,42.354c0.265,0.004,0.531-0.075,0.745-0.223
	c0.504-0.348,0.495-0.984-0.019-1.311c-0.432-0.274-1.068-0.236-1.458,0.089c-0.412,0.343-0.414,0.872,0.001,1.204
	C-87.384,42.281-87.135,42.35-86.864,42.354z"/>
<path fill-rule="evenodd" clip-rule="evenodd" fill="#787366" d="M-86.864,42.354c-0.271-0.004-0.521-0.074-0.729-0.242
	c-0.415-0.332-0.414-0.86-0.001-1.204c0.39-0.325,1.026-0.363,1.458-0.089c0.514,0.327,0.523,0.963,0.019,1.311
	C-86.332,42.279-86.598,42.359-86.864,42.354z M-87.62,41.462c0.004,0,0.009-0.001,0.013-0.001c0.029,0.066,0.059,0.132,0.087,0.199
	c0.01,0.023,0.017,0.044,0.052,0.042c0.033-0.002,0.062,0,0.08-0.037c0.029-0.06,0.065-0.117,0.1-0.175
	c0.006-0.01,0.009-0.028,0.028-0.022c0.018,0.005,0.013,0.021,0.012,0.034c-0.002,0.048-0.005,0.098-0.009,0.146
	c-0.002,0.029-0.008,0.064,0.042,0.052c0.036-0.009,0.101,0.038,0.104-0.044c0.005-0.13,0.012-0.261,0.019-0.392
	c0-0.015,0.007-0.032-0.008-0.044c-0.029-0.023-0.169,0.004-0.189,0.037c-0.048,0.081-0.096,0.162-0.146,0.244
	c-0.008-0.007-0.011-0.008-0.012-0.01c-0.026-0.057-0.053-0.113-0.078-0.17c-0.05-0.109-0.05-0.108-0.172-0.104
	c-0.033,0.001-0.043,0.01-0.046,0.041c-0.011,0.13-0.025,0.26-0.037,0.391c-0.002,0.022-0.019,0.062,0.032,0.053
	c0.039-0.009,0.106,0.04,0.112-0.044C-87.632,41.592-87.626,41.527-87.62,41.462z M-86.303,41.495
	c-0.084-0.093-0.158-0.171-0.227-0.252c-0.043-0.05-0.102-0.031-0.151-0.025c-0.035,0.004-0.015,0.049-0.016,0.076
	c-0.005,0.117-0.005,0.234-0.011,0.352c-0.002,0.043,0.009,0.063,0.057,0.055c0.036-0.007,0.096,0.027,0.09-0.052
	c-0.005-0.073-0.001-0.147-0.001-0.22c0.087,0.075,0.161,0.15,0.225,0.231c0.046,0.059,0.104,0.037,0.16,0.039
	c0.023,0.001,0.021-0.019,0.021-0.035c-0.001-0.137-0.004-0.274-0.005-0.412c-0.001-0.066-0.053-0.032-0.083-0.038
	c-0.029-0.005-0.061-0.009-0.058,0.04C-86.301,41.328-86.303,41.403-86.303,41.495z M-85.89,41.462c-0.005,0-0.01,0-0.014,0
	c0-0.069,0-0.137,0-0.206c0-0.079-0.063-0.036-0.098-0.044c-0.039-0.009-0.052,0.009-0.051,0.047
	c0.005,0.115,0.006,0.23,0.008,0.345c0.002,0.106,0.002,0.105,0.115,0.097c0.031-0.002,0.04-0.012,0.04-0.04
	C-85.891,41.595-85.89,41.529-85.89,41.462z M-86.967,41.465c-0.005,0-0.01,0-0.015,0c0,0.064,0.003,0.128-0.001,0.192
	c-0.002,0.036,0.01,0.047,0.046,0.044c0.019-0.002,0.038-0.002,0.057,0c0.034,0.003,0.049-0.005,0.05-0.042
	c0.001-0.133,0.005-0.266,0.011-0.397c0.002-0.04-0.013-0.056-0.051-0.047c-0.034,0.009-0.098-0.035-0.096,0.044
	C-86.966,41.328-86.967,41.397-86.967,41.465z"/>
<linearGradient id="SVGID_10_" gradientUnits="userSpaceOnUse" x1="-87.7854" y1="41.4592" x2="-87.0916" y2="41.4592">
	<stop  offset="0" style="stop-color:#FFFFFF"/>
	<stop  offset="1" style="stop-color:#C8C8C8"/>
</linearGradient>
<path fill-rule="evenodd" clip-rule="evenodd" fill="url(#SVGID_10_)" d="M-87.62,41.462c-0.005,0.065-0.012,0.129-0.017,0.195
	c-0.006,0.084-0.073,0.035-0.112,0.044c-0.051,0.01-0.034-0.031-0.032-0.053c0.012-0.131,0.026-0.26,0.037-0.391
	c0.002-0.031,0.013-0.04,0.046-0.041c0.122-0.004,0.122-0.006,0.172,0.104c0.025,0.057,0.052,0.113,0.078,0.17
	c0.001,0.002,0.003,0.003,0.012,0.01c0.05-0.083,0.098-0.164,0.146-0.244c0.02-0.032,0.16-0.06,0.189-0.037
	c0.015,0.012,0.008,0.029,0.008,0.044c-0.006,0.13-0.014,0.261-0.019,0.392c-0.003,0.083-0.067,0.036-0.104,0.044
	c-0.049,0.012-0.043-0.023-0.042-0.052c0.004-0.049,0.006-0.098,0.009-0.146c0-0.012,0.005-0.029-0.012-0.034
	c-0.019-0.005-0.022,0.012-0.028,0.022c-0.034,0.058-0.07,0.115-0.1,0.175c-0.018,0.037-0.047,0.035-0.08,0.037
	c-0.035,0.002-0.042-0.019-0.052-0.042c-0.028-0.067-0.058-0.132-0.087-0.199C-87.612,41.461-87.616,41.462-87.62,41.462z
	 M-87.266,41.453c0.004,0.004,0.007,0.007,0.01,0.009c0.003-0.005,0.007-0.01,0.008-0.015c0-0.002-0.004-0.006-0.008-0.01
	C-87.259,41.442-87.262,41.448-87.266,41.453z"/>
<linearGradient id="SVGID_11_" gradientUnits="userSpaceOnUse" x1="-86.7092" y1="41.4563" x2="-86.157" y2="41.4563">
	<stop  offset="0" style="stop-color:#FFFFFF"/>
	<stop  offset="1" style="stop-color:#C8C8C8"/>
</linearGradient>
<path fill-rule="evenodd" clip-rule="evenodd" fill="url(#SVGID_11_)" d="M-86.303,41.495c0-0.092,0.002-0.167-0.001-0.241
	c-0.003-0.048,0.029-0.045,0.058-0.04c0.03,0.005,0.083-0.029,0.083,0.038c0.001,0.138,0.004,0.275,0.005,0.412
	c0,0.016,0.003,0.036-0.021,0.035c-0.055-0.002-0.114,0.021-0.16-0.039c-0.063-0.081-0.137-0.156-0.225-0.231
	c0,0.073-0.004,0.147,0.001,0.22c0.005,0.079-0.055,0.044-0.09,0.052c-0.048,0.008-0.059-0.012-0.057-0.055
	c0.006-0.118,0.006-0.235,0.011-0.352c0.001-0.026-0.019-0.072,0.016-0.076c0.049-0.006,0.107-0.025,0.151,0.025
	C-86.461,41.324-86.388,41.403-86.303,41.495z"/>
<linearGradient id="SVGID_12_" gradientUnits="userSpaceOnUse" x1="-86.0525" y1="41.4563" x2="-85.8894" y2="41.4563">
	<stop  offset="0" style="stop-color:#FFFFFF"/>
	<stop  offset="1" style="stop-color:#C8C8C8"/>
</linearGradient>
<path fill-rule="evenodd" clip-rule="evenodd" fill="url(#SVGID_12_)" d="M-85.89,41.462c0,0.066-0.001,0.133,0,0.199
	c0,0.028-0.009,0.038-0.04,0.04c-0.113,0.008-0.113,0.009-0.115-0.097c-0.002-0.115-0.003-0.23-0.008-0.345
	c-0.001-0.039,0.012-0.056,0.051-0.047c0.035,0.009,0.098-0.034,0.098,0.044c0,0.069,0,0.137,0,0.206
	C-85.9,41.462-85.895,41.462-85.89,41.462z"/>
<linearGradient id="SVGID_13_" gradientUnits="userSpaceOnUse" x1="-86.9836" y1="41.4563" x2="-86.8201" y2="41.4563">
	<stop  offset="0" style="stop-color:#FFFFFF"/>
	<stop  offset="1" style="stop-color:#C8C8C8"/>
</linearGradient>
<path fill-rule="evenodd" clip-rule="evenodd" fill="url(#SVGID_13_)" d="M-86.967,41.465c0-0.068,0.001-0.137,0-0.206
	c-0.001-0.08,0.062-0.035,0.096-0.044c0.038-0.009,0.053,0.007,0.051,0.047c-0.006,0.132-0.01,0.265-0.011,0.397
	c0,0.037-0.016,0.045-0.05,0.042c-0.019-0.002-0.038-0.002-0.057,0c-0.036,0.003-0.048-0.008-0.046-0.044
	c0.004-0.064,0.001-0.127,0.001-0.192C-86.977,41.465-86.972,41.465-86.967,41.465z"/>
<path fill-rule="evenodd" clip-rule="evenodd" fill="#2B2B2B" d="M-87.266,41.453c0.004-0.005,0.007-0.011,0.011-0.016
	c0.003,0.003,0.008,0.007,0.008,0.01c-0.001,0.005-0.005,0.01-0.008,0.015C-87.259,41.46-87.262,41.457-87.266,41.453z"/>
<path opacity="0.8" fill="#C0B9AB" enable-background="new    " d="M-75.287,54.122c0,0.567-0.459,1.026-1.027,1.026h-21.219
	c-0.567,0-1.027-0.459-1.027-1.026v-2.981c0-0.567,0.46-1.027,1.027-1.027h21.219c0.567,0,1.027,0.46,1.027,1.027V54.122z"/>
<g>
	<path fill="#C0B9AB" d="M-76.609,15.878c-1.36-0.042-8.426-0.452-15.468-0.452c-7.042,0-14.06,0.41-15.42,0.452
		c-2.908,0.091-4.777,1.902-4.777,1.902h19.76h0.922h19.76C-71.832,17.78-73.701,15.969-76.609,15.878z"/>
	<linearGradient id="SVGID_14_" gradientUnits="userSpaceOnUse" x1="-113.6165" y1="16.6028" x2="-70.4895" y2="16.6028">
		<stop  offset="0" style="stop-color:#FFFFFF"/>
		<stop  offset="1" style="stop-color:#C8C8C8"/>
	</linearGradient>
	<path fill="url(#SVGID_14_)" d="M-92.077,15.426c7.042,0,14.108,0.41,15.468,0.452c2.908,0.091,4.777,1.902,4.777,1.902h-19.76
		h-0.922h-19.76c0,0,1.869-1.811,4.777-1.902C-106.137,15.836-99.119,15.426-92.077,15.426 M-92.077,14.883
		c-5.628,0-11.263,0.263-13.97,0.389c-0.694,0.032-1.195,0.056-1.466,0.064c-3.083,0.096-5.057,1.975-5.139,2.055l-0.963,0.934
		h1.342h19.76h0.922h19.76h1.342l-0.964-0.934c-0.083-0.08-2.056-1.958-5.139-2.055c-0.27-0.008-0.771-0.031-1.464-0.063
		C-80.779,15.145-86.443,14.883-92.077,14.883L-92.077,14.883z"/>
</g>
<g>
	<line fill="#C0B9AB" x1="-87.422" y1="15.401" x2="-87.422" y2="12.715"/>
	<linearGradient id="SVGID_15_" gradientUnits="userSpaceOnUse" x1="-87.6936" y1="14.0579" x2="-87.1501" y2="14.0579">
		<stop  offset="0" style="stop-color:#FFFFFF"/>
		<stop  offset="1" style="stop-color:#C8C8C8"/>
	</linearGradient>
	<rect x="-87.694" y="12.715" fill="url(#SVGID_15_)" width="0.543" height="2.687"/>
</g>
<g>
	<line fill="#C0B9AB" x1="-87.422" y1="9.157" x2="-87.422" y2="12.745"/>
	<linearGradient id="SVGID_16_" gradientUnits="userSpaceOnUse" x1="-87.5125" y1="10.9514" x2="-87.3313" y2="10.9514">
		<stop  offset="0" style="stop-color:#FFFFFF"/>
		<stop  offset="1" style="stop-color:#C8C8C8"/>
	</linearGradient>
	<rect x="-87.512" y="9.157" fill="url(#SVGID_16_)" width="0.181" height="3.587"/>
</g>
<g>
	<g>
		<g>
			<g>
				<g>
					<path fill="#FFFFFF" d="M-54.804,19.141h-2.821c-1.751,0-3.174-1.422-3.174-3.172v-3.158c-1.047-0.316-2.056-0.736-3.006-1.253
						l-2.279,2.279c-0.602,0.602-1.402,0.933-2.254,0.933s-1.654-0.332-2.256-0.933l-2.006-2.009
						c-0.603-0.602-0.933-1.402-0.933-2.253c0-0.853,0.331-1.655,0.933-2.256l2.324-2.324c-0.455-0.866-0.832-1.8-1.125-2.781
						h-3.159c-1.751,0-3.175-1.424-3.175-3.175v-2.822c0-1.749,1.423-3.174,3.175-3.174h3.16c0.304-1.012,0.703-1.982,1.19-2.895
						l-2.387-2.388c-0.603-0.604-0.935-1.404-0.935-2.257c0-0.853,0.332-1.653,0.935-2.255l2.005-2.006
						c0.603-0.603,1.402-0.935,2.255-0.935c0.853,0,1.654,0.332,2.254,0.935l2.391,2.389c0.907-0.485,1.879-0.884,2.894-1.19v-3.158
						c0-1.75,1.422-3.176,3.173-3.176h2.823c1.751,0,3.174,1.426,3.174,3.176v3.157c0.985,0.296,1.917,0.673,2.782,1.125
						l2.325-2.324c0.602-0.603,1.402-0.934,2.254-0.934s1.653,0.332,2.254,0.934l2.007,2.006c0.603,0.604,0.933,1.403,0.933,2.257
						c0,0.854-0.332,1.653-0.933,2.255l-2.277,2.277c0.517,0.95,0.939,1.958,1.254,3.006h3.157c1.751,0,3.174,1.425,3.174,3.174
						v2.822c0,1.751-1.423,3.175-3.174,3.175h-3.157c-0.307,1.015-0.705,1.984-1.191,2.895l2.212,2.212
						c0.6,0.603,0.933,1.403,0.933,2.256c0,0.851-0.333,1.654-0.933,2.252l-2.007,2.009c-0.602,0.602-1.403,0.934-2.255,0.934
						c-0.851,0-1.652-0.333-2.252-0.934l-2.213-2.214c-0.911,0.486-1.88,0.885-2.895,1.192v3.16
						C-51.628,17.718-53.052,19.141-54.804,19.141z M-63.925,10.678l0.234,0.133c1.045,0.595,2.17,1.065,3.339,1.396l0.258,0.072
						v3.689c0,1.361,1.108,2.466,2.47,2.466h2.823c1.362,0,2.467-1.106,2.467-2.466V12.28l0.258-0.073
						c1.143-0.324,2.231-0.774,3.234-1.331l0.233-0.13l2.586,2.587c0.938,0.939,2.573,0.939,3.512,0l2.007-2.007
						c0.468-0.47,0.728-1.093,0.728-1.756c0-0.665-0.259-1.288-0.728-1.758l-2.587-2.587l0.131-0.233
						c0.559-1.005,1.007-2.092,1.33-3.233l0.074-0.256h3.689c1.361,0,2.469-1.106,2.469-2.47v-2.821
						c0-1.362-1.108-2.469-2.469-2.469h-3.689l-0.074-0.255c-0.331-1.175-0.802-2.298-1.394-3.342l-0.135-0.234l2.657-2.655
						c0.47-0.47,0.729-1.094,0.729-1.757c0-0.664-0.259-1.289-0.729-1.758l-2.006-2.006c-0.938-0.939-2.573-0.939-3.511,0
						l-2.697,2.694l-0.231-0.126c-0.956-0.523-2.01-0.948-3.127-1.264l-0.258-0.07v-3.688c0-1.362-1.106-2.471-2.469-2.471h-2.821
						c-1.363,0-2.47,1.109-2.47,2.471v3.689l-0.258,0.073c-1.142,0.322-2.229,0.771-3.232,1.33l-0.233,0.131l-2.764-2.764
						c-0.937-0.939-2.572-0.939-3.511,0l-2.003,2.007c-0.469,0.468-0.728,1.091-0.728,1.756c0,0.663,0.259,1.287,0.728,1.758
						l2.763,2.763l-0.131,0.232c-0.56,1.006-1.006,2.094-1.33,3.234l-0.074,0.255h-3.687c-1.363,0-2.47,1.109-2.47,2.469v2.822
						c0,1.365,1.106,2.471,2.47,2.471h3.687l0.074,0.257c0.315,1.111,0.74,2.164,1.266,3.126l0.127,0.231l-2.695,2.694
						c-0.468,0.471-0.727,1.093-0.727,1.758c0,0.662,0.259,1.288,0.727,1.756l2.004,2.007c0.938,0.939,2.575,0.939,3.512,0
						L-63.925,10.678z M-56.213,6.442c-4.863,0-8.819-3.953-8.819-8.817s3.957-8.819,8.819-8.819s8.817,3.956,8.817,8.819
						C-47.396,2.489-51.35,6.442-56.213,6.442z M-56.213-10.489c-4.474,0-8.113,3.639-8.113,8.114c0,4.473,3.639,8.112,8.113,8.112
						S-48.1,2.098-48.1-2.375C-48.101-6.849-51.739-10.489-56.213-10.489z"/>
					<path fill="#777266" d="M-35.401-3.787c0-1.36-1.109-2.469-2.47-2.469h-3.688l-0.074-0.256
						c-0.332-1.171-0.801-2.297-1.394-3.341l-0.133-0.235l2.657-2.654c0.469-0.47,0.728-1.094,0.728-1.757
						c0-0.664-0.259-1.289-0.728-1.759l-2.007-2.006c-0.938-0.938-2.573-0.938-3.511,0l-2.697,2.695l-0.231-0.126
						c-0.956-0.524-2.01-0.948-3.127-1.264l-0.258-0.072v-3.688c0-1.361-1.106-2.471-2.469-2.471h-2.821
						c-1.363,0-2.47,1.109-2.47,2.471v3.689l-0.258,0.072c-1.142,0.324-2.229,0.771-3.233,1.33l-0.233,0.131l-2.764-2.763
						c-0.937-0.94-2.572-0.94-3.511,0l-2.004,2.007c-0.469,0.468-0.728,1.091-0.728,1.756c0,0.662,0.259,1.288,0.728,1.757
						l2.763,2.763l-0.131,0.232c-0.56,1.006-1.006,2.094-1.33,3.234l-0.074,0.255h-3.687c-1.363,0-2.469,1.109-2.469,2.469v2.822
						c0,1.365,1.106,2.471,2.469,2.471h3.687l0.074,0.257c0.315,1.112,0.74,2.164,1.266,3.127l0.127,0.231l-2.696,2.695
						c-0.468,0.469-0.727,1.092-0.727,1.757c0,0.661,0.259,1.287,0.727,1.755l2.005,2.007c0.938,0.939,2.575,0.939,3.512,0
						l2.657-2.657l0.233,0.133c1.047,0.595,2.171,1.064,3.34,1.395l0.258,0.073v3.689c0,1.362,1.108,2.468,2.469,2.468h2.822
						c1.362,0,2.469-1.105,2.469-2.468V12.28l0.258-0.073c1.142-0.325,2.231-0.772,3.234-1.332l0.232-0.129l2.589,2.588
						c0.938,0.938,2.572,0.938,3.512,0l2.005-2.007c0.47-0.47,0.728-1.093,0.728-1.756c0-0.665-0.258-1.287-0.728-1.759
						l-2.587-2.587l0.132-0.232c0.56-1.004,1.007-2.091,1.331-3.233l0.074-0.256h3.688c1.362,0,2.47-1.105,2.47-2.469v-2.821
						H-35.401L-35.401-3.787z M-56.213,6.442c-4.863,0-8.819-3.953-8.819-8.817s3.957-8.819,8.819-8.819s8.817,3.956,8.817,8.819
						C-47.396,2.489-51.35,6.442-56.213,6.442z"/>
				</g>
			</g>
		</g>
	</g>
	<path opacity="0.6" fill="#C1BAAC" enable-background="new    " d="M-70.868,1.505l0.074,0.257
		c0.082,0.293,0.174,0.581,0.271,0.863c1.549-2.244,3.428-4.319,5.583-6.185c0.581-4.303,4.268-7.635,8.728-7.635
		c1.124,0,2.195,0.221,3.183,0.604c4.014-1.528,8.398-2.521,13.016-2.865c0.151-0.324,0.238-0.677,0.238-1.043
		c0-0.664-0.259-1.289-0.726-1.758l-2.008-2.007c-0.938-0.938-2.572-0.938-3.511,0l-2.697,2.698l-0.232-0.129
		c-0.955-0.524-2.009-0.948-3.126-1.264l-0.26-0.071v-3.689c0-1.361-1.108-2.47-2.468-2.47h-2.823c-1.362,0-2.469,1.109-2.469,2.47
		v3.689l-0.258,0.073c-1.142,0.323-2.229,0.77-3.232,1.33l-0.232,0.131l-2.764-2.764c-0.937-0.939-2.573-0.939-3.512,0l-2.005,2.006
		c-0.467,0.47-0.728,1.093-0.728,1.758c0,0.663,0.261,1.287,0.728,1.758l2.763,2.762l-0.13,0.232
		c-0.56,1.005-1.007,2.093-1.33,3.233l-0.074,0.255h-3.688c-1.362,0-2.471,1.109-2.471,2.469v2.821c0,1.365,1.109,2.471,2.471,2.471
		L-70.868,1.505L-70.868,1.505z"/>
	
		<linearGradient id="SVGID_17_" gradientUnits="userSpaceOnUse" x1="-49.5466" y1="705.9573" x2="-29.4402" y2="705.9573" gradientTransform="matrix(1 0 0 1 -16.7197 -708.332)">
		<stop  offset="0" style="stop-color:#E6E6E6"/>
		<stop  offset="0.5398" style="stop-color:#FFFFFF"/>
		<stop  offset="1" style="stop-color:#C8C8C8"/>
	</linearGradient>
	<path fill="url(#SVGID_17_)" d="M-56.213-12.428c-5.552,0-10.054,4.5-10.054,10.052c0,5.554,4.502,10.054,10.054,10.054
		s10.053-4.5,10.053-10.054C-46.161-7.927-50.662-12.428-56.213-12.428z M-56.214,3.091c-3.02,0-5.468-2.448-5.468-5.468
		c0-3.019,2.449-5.467,5.468-5.467c3.019,0,5.468,2.449,5.468,5.467C-50.746,0.643-53.196,3.091-56.214,3.091z"/>
</g>
</svg>
