<?xml version="1.0" encoding="utf-8"?>
<!-- Generator: Adobe Illustrator 16.0.0, SVG Export Plug-In . SVG Version: 6.00 Build 0)  -->
<!DOCTYPE svg PUBLIC "-//W3C//DTD SVG 1.1//EN" "http://www.w3.org/Graphics/SVG/1.1/DTD/svg11.dtd">
<svg version="1.1" id="Layer_1" xmlns="http://www.w3.org/2000/svg" xmlns:xlink="http://www.w3.org/1999/xlink" x="0px" y="0px"
	 width="110.5px" height="115.779px" viewBox="0 0 110.5 115.779" enable-background="new 0 0 110.5 115.779" xml:space="preserve">
<g>
	<g>
		<path fill="#787366" d="M80.988,32.239c1.334,1.223,7.981,15.284,7.981,15.284l1.312,1.637l1.146-1.311l-0.328-2.129
			c0,0-0.087-1.475,0.655-2.293c0.74-0.818,2.619-0.819,2.619-0.819s2.039,0.078,3.439,0.983c1.402,0.906,1.672,1.313,1.803,2.128
			c0.129,0.814-0.332,1.304-0.819,1.966c-0.486,0.662-2.293,0.982-2.293,0.982l-2.947,0.654L92.41,51.45l3.438,3.932
			c0,0,2.326,5.417,2.62,7.533c0.293,2.117-0.655,11.137-0.655,11.137s-0.321,16.031-0.817,17.852
			c-0.498,1.82-1.146,2.129-1.146,2.129h-7.861l-0.981-2.129l-4.259-3.93H56.25h-2H27.753l-4.258,3.93l-0.983,2.129h-7.861
			c0,0-0.649-0.309-1.147-2.129c-0.497-1.82-0.818-17.852-0.818-17.852s-0.949-9.018-0.655-11.135s2.62-7.534,2.62-7.534
			l3.439-3.932l-1.147-2.129l-2.948-0.654c0,0-1.806-0.32-2.292-0.982c-0.487-0.662-0.948-1.15-0.819-1.966
			c0.129-0.814,0.399-1.223,1.801-2.128c1.402-0.906,3.439-0.983,3.439-0.983s1.879,0.001,2.621,0.819
			c0.742,0.817,0.655,2.293,0.655,2.293l-0.328,2.129l1.146,1.311l1.311-1.638c0,0,6.294-14.062,7.628-15.283L80.988,32.239
			L80.988,32.239z"/>
		
			<linearGradient id="SVGID_1_" gradientUnits="userSpaceOnUse" x1="18.7769" y1="76.697" x2="108.4424" y2="76.697" gradientTransform="matrix(1 0 0 -1 -8.3599 139.8335)">
			<stop  offset="0" style="stop-color:#FFFFFF"/>
			<stop  offset="1" style="stop-color:#C8C8C8"/>
		</linearGradient>
		<path fill="url(#SVGID_1_)" d="M95.949,94.479h-8.246l-1.065-2.309l-4.063-3.752H27.927l-4.065,3.752l-1.065,2.309H14.55
			l-0.091-0.043C14.32,94.37,13.6,93.94,13.075,92.02c-0.502-1.836-0.816-17.055-0.834-17.939
			c-0.061-0.578-0.945-9.107-0.651-11.225c0.298-2.152,2.556-7.426,2.652-7.648l0.028-0.064l3.282-3.751l-0.903-1.678L13.9,49.104
			c-0.312-0.055-1.992-0.388-2.556-1.153c-0.053-0.074-0.106-0.145-0.159-0.214c-0.435-0.577-0.885-1.175-0.741-2.086
			c0.16-1.01,0.571-1.511,2-2.434c1.487-0.961,3.575-1.051,3.664-1.054c0.001,0,0.001,0,0.003,0c0.241,0,2.118,0.03,2.964,0.965
			c0.858,0.944,0.774,2.55,0.77,2.617l-0.005,0.043l-0.296,1.924l0.66,0.753l0.942-1.179c0.75-1.674,6.363-14.143,7.711-15.377
			l0.127-0.116h52.178l0.127,0.116c1.346,1.232,7.277,13.719,8.061,15.375l0.945,1.182l0.66-0.753l-0.303-1.966
			c-0.002-0.068-0.086-1.673,0.771-2.618c0.85-0.938,2.736-0.965,2.949-0.966c0.105,0.005,2.193,0.094,3.682,1.055
			c1.43,0.924,1.841,1.424,2.001,2.434c0.144,0.911-0.308,1.509-0.741,2.086c-0.052,0.069-0.105,0.142-0.158,0.213
			c-0.563,0.768-2.244,1.1-2.574,1.157l-2.73,0.607l-0.902,1.678l3.281,3.751l0.028,0.064c0.096,0.224,2.354,5.496,2.651,7.648
			c0.293,2.117-0.59,10.645-0.65,11.225c-0.02,0.887-0.332,16.104-0.834,17.939c-0.525,1.92-1.246,2.35-1.385,2.416L95.949,94.479z
			 M96.566,85.327c0.396-1.447,0.713-6.84,0.801-11.281l0.004-0.039c0.01-0.09,0.939-8.988,0.656-11.027
			c-0.266-1.914-2.3-6.741-2.562-7.354l-3.597-4.11l1.391-2.58l3.146-0.699c0.695-0.125,1.77-0.456,2.03-0.812
			c0.056-0.075,0.11-0.147,0.165-0.221c0.432-0.573,0.654-0.896,0.572-1.41c-0.1-0.639-0.266-0.96-1.604-1.824
			c-1.285-0.83-3.195-0.911-3.215-0.912c-0.451,0.001-1.775,0.125-2.273,0.672c-0.564,0.625-0.545,1.792-0.541,1.951l0.355,2.31
			l-1.634,1.866l-1.676-2.094l-0.022-0.047c-2.562-5.425-6.65-13.692-7.77-15.028H29.35c-1.103,1.334-4.987,9.597-7.414,15.02
			l-0.023,0.052l-1.678,2.098l-1.633-1.866l0.355-2.31c0.005-0.156,0.025-1.326-0.542-1.951c-0.497-0.548-1.822-0.671-2.291-0.672
			c-0.001,0.001-1.917,0.084-3.197,0.912c-1.338,0.864-1.502,1.187-1.604,1.824c-0.081,0.514,0.141,0.837,0.573,1.41
			c0.054,0.071,0.11,0.146,0.165,0.221c0.262,0.355,1.334,0.688,2.012,0.809l3.166,0.703l1.39,2.58l-3.596,4.11
			c-0.261,0.613-2.296,5.441-2.562,7.353c-0.283,2.039,0.647,10.939,0.657,11.027l0.002,0.039c0.089,4.441,0.112,9.979,0.508,11.428
			c0.329,1.203,13.94,2.057,13.94,2.057h55.34c0,0,11.658-0.875,13.429-1.971C96.469,85.481,96.543,85.405,96.566,85.327z"/>
	</g>
	<path opacity="0.8" fill="#3F3F3F" enable-background="new    " d="M96.904,82.725c0,0,0.557,9.689-1.375,10.766
		c-1.93,1.076-7.535,0.188-7.535,0.188s-0.928-0.482-1.002-2.971c-0.074-2.486,0.03-3.58,0.03-3.58
		c-0.618,0.061,9.361-0.887,9.544-1.801C96.746,84.413,96.926,83.03,96.904,82.725z"/>
	<g opacity="0.8">
		<path fill="#5E5E5E" d="M87.598,48.944c0,0-6.173-15.874-8.01-16.168c-1.521-0.243-17.948-0.486-23.561-0.562
			c0-0.015-0.001-0.025-0.001-0.025s-0.339,0.004-0.933,0.012c-0.594-0.007-0.933-0.012-0.933-0.012s-0.001,0.011-0.001,0.025
			c-5.612,0.076-22.039,0.319-23.56,0.562c-1.837,0.295-8.01,16.168-8.01,16.168s30.007-0.261,32.504-0.243
			C57.591,48.719,87.598,48.944,87.598,48.944z"/>
		
			<linearGradient id="SVGID_2_" gradientUnits="userSpaceOnUse" x1="30.623" y1="99.2673" x2="96.2852" y2="99.2673" gradientTransform="matrix(1 0 0 -1 -8.3599 139.8335)">
			<stop  offset="0" style="stop-color:#FFFFFF"/>
			<stop  offset="1" style="stop-color:#C8C8C8"/>
		</linearGradient>
		<path fill="url(#SVGID_2_)" d="M56.027,32.188c0,0,0.001,0.011,0.001,0.025c5.611,0.076,22.038,0.319,23.561,0.562
			c1.837,0.295,8.01,16.168,8.01,16.168s-30.007-0.225-32.503-0.243c-0.086,0-0.202-0.001-0.351-0.001
			c-4.165,0-32.153,0.244-32.153,0.244s6.173-15.874,8.01-16.168c1.521-0.243,17.948-0.486,23.56-0.562
			c0-0.015,0.001-0.025,0.001-0.025s0.339,0.004,0.933,0.012C55.688,32.192,56.027,32.188,56.027,32.188 M53.948,31.963
			l-0.001,0.028c-6.705,0.094-21.891,0.325-23.382,0.563c-0.344,0.056-0.903,0.419-2.187,2.763c-0.744,1.359-1.644,3.23-2.676,5.562
			c-1.755,3.964-3.305,7.942-3.32,7.981l-0.119,0.308l0.329-0.003c0.28-0.002,28.035-0.242,32.152-0.242c0.15,0,0.265,0,0.349,0
			l32.503,0.242l0.329,0.003l-0.121-0.307c-0.014-0.039-1.564-4.019-3.32-7.981c-1.029-2.331-1.931-4.202-2.675-5.562
			c-1.282-2.344-1.843-2.708-2.187-2.763c-1.491-0.238-16.678-0.471-23.383-0.563l-0.001-0.027l-0.215,0.001l-0.934,0.012
			l-0.928-0.012L53.948,31.963L53.948,31.963z"/>
	</g>
	<path opacity="0.6" fill="#C0B9AB" enable-background="new    " d="M80.181,48.944h-6.683c0,0-2.896,4.951-3.563,6.964
		c-0.668,2.015-2.448,7.378-2.448,7.378s6.772,1.221,7.016,0.652c0.117-0.271,0.832-4.316,2.005-7.422
		C77.678,53.41,80.181,48.944,80.181,48.944z"/>
	<path opacity="0.6" fill="#C0B9AB" enable-background="new    " d="M30.568,48.944h6.682c0,0,2.896,4.951,3.563,6.964
		c0.668,2.015,2.45,7.378,2.45,7.378s-6.774,1.221-7.016,0.652c-0.117-0.271-0.832-4.316-2.004-7.422
		C33.07,53.41,30.568,48.944,30.568,48.944z"/>
	<path opacity="0.8" fill="#C0B9AB" enable-background="new    " d="M82.055,76.079c0,0.697-1.057,1.264-2.357,1.264H30.971
		c-1.303,0-2.357-0.566-2.357-1.264v-3.668c0-0.695,1.055-1.262,2.357-1.262h48.726c1.303,0,2.357,0.564,2.357,1.262V76.079z"/>
	
		<linearGradient id="SVGID_3_" gradientUnits="userSpaceOnUse" x1="35.7695" y1="68.3875" x2="91.6709" y2="68.3875" gradientTransform="matrix(1 0 0 -1 -8.3599 139.8335)">
		<stop  offset="0" style="stop-color:#FFFFFF"/>
		<stop  offset="1" style="stop-color:#C8C8C8"/>
	</linearGradient>
	<path fill="url(#SVGID_3_)" d="M76.89,64.68c-4.162-1.744-6.435-1.246-6.435-1.246l-15.071-0.496l-0.001-0.002l-0.032,0.002
		l-0.032-0.002l-0.001,0.002l-15.073,0.496c0,0-2.271-0.498-6.434,1.246c-4.163,1.742-6.351,6.121-6.358,7.635
		c-0.008,1.516-0.53,3.98,2.271,5.895c2.801,1.914,15.593,1.742,19.604,1.742c1.883,0,3.581,0,4.854,0c1.44,0,2.336,0,2.336,0
		c1.272,0,2.972,0,4.854,0c4.011,0,16.804,0.172,19.603-1.742c2.802-1.914,2.326-5.059,2.272-5.895
		C83.193,71.479,81.053,66.423,76.89,64.68z"/>
	<path opacity="0.8" fill="#5E5E5E" enable-background="new    " d="M75.299,65.43c-3.881-1.561-4.531-1.068-5.996-1.113
		c-1.466-0.047-14.047-0.443-14.047-0.443V63.87l-0.03,0.004l-0.03-0.004l-0.001,0.004l-14.047,0.443c0,0-2.117-0.447-5.997,1.113
		c-3.88,1.559-5.968,5.059-5.926,6.83c0.043,1.771-0.493,3.561,2.117,5.271c2.61,1.711,14.532,1.559,18.271,1.559
		c1.754,0,3.337,0,4.524,0c1.343,0,2.177,0,2.177,0c1.188,0,2.771,0,4.524,0c3.738,0,15.66,0.152,18.271-1.559
		c2.608-1.713,2.2-4.426,2.116-5.271C81.14,71.415,79.18,66.989,75.299,65.43z"/>
	<g>
		<line fill="none" x1="31.309" y1="67.762" x2="78.756" y2="67.762"/>
		<rect x="31.309" y="67.542" fill="#B1B1B1" width="47.447" height="0.443"/>
	</g>
	<g>
		<line fill="none" x1="29.913" y1="69.694" x2="80.181" y2="69.694"/>
		<rect x="29.913" y="69.471" fill="#B1B1B1" width="50.268" height="0.445"/>
	</g>
	<g>
		<line fill="none" x1="34.13" y1="65.686" x2="76.375" y2="65.686"/>
		<rect x="34.13" y="65.462" fill="#B1B1B1" width="42.245" height="0.445"/>
	</g>
	
		<linearGradient id="SVGID_4_" gradientUnits="userSpaceOnUse" x1="34.2612" y1="-671.4817" x2="41.4941" y2="-671.4817" gradientTransform="matrix(1 0 0 -1 -16.7749 -592.6938)">
		<stop  offset="0" style="stop-color:#FFFFFF"/>
		<stop  offset="1" style="stop-color:#C8C8C8"/>
	</linearGradient>
	<path opacity="0.8" fill="url(#SVGID_4_)" enable-background="new    " d="M21.218,82.311c1.968-0.055,3.516-1.631,3.501-3.553
		c-0.015-1.9-1.617-3.479-3.567-3.496c-2.028-0.018-3.75,1.725-3.663,3.688C17.581,80.815,19.3,82.372,21.218,82.311z"/>
	
		<linearGradient id="SVGID_5_" gradientUnits="userSpaceOnUse" x1="102.2705" y1="-671.4817" x2="109.502" y2="-671.4817" gradientTransform="matrix(1 0 0 -1 -16.7749 -592.6938)">
		<stop  offset="0" style="stop-color:#FFFFFF"/>
		<stop  offset="1" style="stop-color:#C8C8C8"/>
	</linearGradient>
	<path opacity="0.8" fill="url(#SVGID_5_)" enable-background="new    " d="M89.226,82.311c1.968-0.055,3.517-1.631,3.501-3.553
		c-0.015-1.9-1.617-3.479-3.566-3.496c-2.027-0.018-3.75,1.725-3.662,3.688C85.589,80.815,87.308,82.372,89.226,82.311z"/>
	
		<linearGradient id="SVGID_6_" gradientUnits="userSpaceOnUse" x1="40.2642" y1="56.572" x2="86.9336" y2="56.572" gradientTransform="matrix(1 0 0 -1 -8.3599 139.8335)">
		<stop  offset="0" style="stop-color:#FFFFFF"/>
		<stop  offset="1" style="stop-color:#C8C8C8"/>
	</linearGradient>
	<path opacity="0.8" fill="url(#SVGID_6_)" enable-background="new    " d="M56.034,81.186h-1.589H31.904c0,0,0,2.398,1.114,2.854
		c1.113,0.451,3.861,0.842,5.42,0.971c1.256,0.104,11.917,0.252,16.007,0.305v0.021c0,0,0.291-0.004,0.794-0.012
		c0.504,0.008,0.795,0.012,0.795,0.012v-0.021c4.087-0.053,14.751-0.199,16.007-0.305c1.559-0.129,4.306-0.52,5.42-0.971
		c1.113-0.453,1.113-2.854,1.113-2.854H56.034z"/>
	
		<linearGradient id="SVGID_7_" gradientUnits="userSpaceOnUse" x1="59.8164" y1="79.1707" x2="67.5146" y2="79.1707" gradientTransform="matrix(1 0 0 -1 -8.3599 139.8335)">
		<stop  offset="0" style="stop-color:#FFFFFF"/>
		<stop  offset="1" style="stop-color:#C8C8C8"/>
	</linearGradient>
	<path fill="url(#SVGID_7_)" d="M55.638,59.317c0.02,0.002,0.039,0.006,0.059,0.01c0.006,0.006,0.011,0.016,0.018,0.018
		c0.212,0.033,0.398,0.143,0.605,0.195c0.002,0.006,0.003,0.014,0.005,0.02c-0.007,0.021,0.012,0.031,0.024,0.037
		c0.133,0.07,0.239,0.17,0.334,0.277c0.034,0.041,0.066,0.053,0.118,0.053c0.282-0.002,0.564-0.002,0.848-0.002
		c0.173-0.002,0.346-0.006,0.52-0.01c0.328,0,0.657,0,0.985-0.002c0.008,0.037-0.024,0.059-0.045,0.084
		c-0.277,0.328-0.593,0.623-0.93,0.898c-0.102,0.082-0.202,0.148-0.344,0.125c-0.286,0-0.571-0.002-0.856-0.002
		c-0.021,0-0.046-0.004-0.059,0.021c-0.035,0.076-0.071,0.152-0.108,0.229c0.115,0.043,0.143-0.039,0.167-0.107
		c0.021-0.062,0.056-0.082,0.123-0.086c0.244-0.008,0.489-0.023,0.733-0.039c0.044,0.004,0.091-0.033,0.156,0.02
		c-0.02,0.006-0.033,0.008-0.046,0.018c-0.158,0.104-0.318,0.207-0.474,0.316c-0.104,0.074-0.214,0.107-0.346,0.096
		c-0.089-0.008-0.179,0.006-0.268-0.002c-0.162-0.014-0.31,0.006-0.414,0.143c-0.009,0.008-0.02,0.012-0.027,0.02
		c-0.394,0.283-0.842,0.4-1.332,0.367c-0.44-0.031-0.83-0.182-1.141-0.488c-0.03-0.027-0.062-0.033-0.101-0.033
		c-0.162,0-0.324-0.006-0.485,0.002c-0.112,0.006-0.207-0.02-0.297-0.082c-0.165-0.117-0.345-0.217-0.49-0.355
		c0.007-0.01,0.016-0.014,0.028-0.014c0.299,0.031,0.6,0.027,0.899,0.045c0.057,0.004,0.107,0.004,0.128,0.084
		c0.008-0.115-0.021-0.148-0.111-0.148c-0.298,0-0.596,0-0.894,0c-0.021,0-0.053-0.016-0.065,0.02c-0.006,0-0.013,0-0.019,0
		c-0.015-0.016-0.031-0.025-0.053-0.027c-0.004,0-0.007-0.002-0.007-0.006c-0.027-0.045-0.072-0.07-0.114-0.1
		c0-0.004-0.003-0.006-0.007-0.004c-0.005-0.006-0.01-0.01-0.015-0.016c-0.041-0.031-0.083-0.062-0.122-0.098
		c-0.214-0.188-0.401-0.395-0.584-0.607c-0.065-0.076-0.141-0.148-0.18-0.242c0.764-0.004,1.528-0.006,2.292-0.008
		c0.118,0,0.255-0.092,0.302-0.205l-0.002,0.002c0.044-0.057,0.122-0.059,0.175-0.104c0.068-0.059,0.155-0.088,0.234-0.133
		c0.133-0.07,0.28-0.119,0.423-0.148c0.15-0.029,0.313-0.045,0.474-0.039C55.45,59.309,55.543,59.339,55.638,59.317z M52.417,60.134
		c-0.011-0.004-0.021-0.012-0.031-0.012c-0.226,0-0.451,0-0.677,0c-0.014,0-0.029,0.002-0.026,0.023
		c0.007,0.002,0.016,0.008,0.022,0.008c0.229,0.014,0.457-0.018,0.684,0.018c0.009,0.002,0.02-0.01,0.029-0.016
		c0.282,0.008,0.564,0.016,0.847,0.021c0.127,0.004,0.253,0.008,0.38,0.012c0.029,0,0.056-0.006,0.055-0.037
		c-0.001-0.035-0.034-0.018-0.054-0.02c-0.02-0.004-0.04-0.002-0.061-0.002C53.196,60.132,52.806,60.134,52.417,60.134z
		 M58.097,60.577c0.109,0.01,0.221-0.008,0.328-0.012c0-0.002,0-0.004-0.002-0.014c-0.106-0.01-0.218-0.006-0.326,0.002
		c-0.317,0-0.637,0.002-0.954,0.002c-0.138,0-0.143,0.002-0.14,0.131c0.002,0.035-0.062,0.111,0.031,0.113
		c0.08,0.002,0.046-0.078,0.045-0.115c-0.004-0.068,0.024-0.072,0.083-0.072C57.474,60.602,57.785,60.591,58.097,60.577z
		 M55.327,59.444c-0.425,0.004-0.801,0.119-1.12,0.381c-0.58,0.477-0.572,1.24,0.018,1.691c0.647,0.496,1.718,0.408,2.265-0.186
		c0.414-0.449,0.394-1.062-0.057-1.48C56.126,59.567,55.746,59.452,55.327,59.444z M58.576,60.139c0-0.006,0-0.01,0-0.014
		c-0.562,0-1.126,0-1.692,0c0.026,0.07,0.05,0.135,0.073,0.199c0.007,0.02,0.017,0.035,0.043,0.029
		c0.033-0.008,0.016-0.029,0.011-0.045c-0.01-0.027-0.017-0.053-0.03-0.076c-0.026-0.049-0.013-0.059,0.041-0.061
		c0.346-0.004,0.688-0.014,1.032-0.02C58.228,60.151,58.402,60.143,58.576,60.139z M52.161,60.569
		c0.006,0.027,0.022,0.023,0.036,0.023c0.389,0.012,0.778,0.021,1.167,0.031c0.093,0.002,0.185-0.01,0.185,0.115
		c0,0.004,0.007,0.006,0.015,0.012c0-0.033-0.005-0.064,0.001-0.094c0.017-0.082-0.02-0.098-0.102-0.096
		c-0.407,0.004-0.814,0.002-1.222,0.002C52.215,60.565,52.189,60.567,52.161,60.569z M58.617,60.11c0.11,0.014,0.222,0.055,0.334,0
		C58.839,60.11,58.728,60.11,58.617,60.11z"/>
	<path fill="none" d="M57.836,61.02c0.142,0.023,0.242-0.041,0.344-0.125c0.337-0.275,0.65-0.57,0.93-0.898
		c0.021-0.023,0.053-0.045,0.045-0.082c0.002-0.01,0.002-0.018,0.002-0.023c0.026-0.008,0.055-0.012,0.086,0.006
		c-0.158,0.211-0.336,0.402-0.524,0.584c-0.398,0.387-0.841,0.725-1.326,1.01c-0.045,0.029-0.091,0.041-0.146,0.041
		c-0.174-0.002-0.349,0.002-0.521-0.002c-0.072-0.002-0.123,0.021-0.175,0.066c-0.657,0.584-1.788,0.625-2.489,0.094
		c-0.016-0.014-0.034-0.021-0.046-0.039c-0.086-0.109-0.202-0.135-0.341-0.121c-0.092,0.012-0.186-0.006-0.277,0.004
		c-0.16,0.021-0.29-0.029-0.414-0.119c-0.156-0.111-0.322-0.213-0.466-0.34c0.018-0.006,0.021-0.02,0.023-0.033
		c0.006,0,0.013,0,0.019,0l-0.002-0.002c-0.002,0.014,0.002,0.02,0.019,0.018l-0.002-0.002c0.146,0.141,0.325,0.24,0.49,0.355
		c0.09,0.064,0.185,0.09,0.297,0.082c0.161-0.006,0.323,0,0.485-0.002c0.039,0,0.07,0.008,0.101,0.035
		c0.311,0.307,0.7,0.457,1.141,0.486c0.49,0.033,0.938-0.082,1.332-0.367c0.009-0.008,0.021-0.012,0.027-0.02
		c0.104-0.135,0.252-0.154,0.414-0.143c0.089,0.008,0.179-0.004,0.268,0.004c0.132,0.012,0.241-0.021,0.346-0.098
		c0.154-0.109,0.314-0.211,0.474-0.316c0.013-0.008,0.026-0.012,0.046-0.018c-0.065-0.053-0.112-0.014-0.156-0.018
		C57.836,61.032,57.836,61.026,57.836,61.02z"/>
	<path fill="none" d="M54.052,59.727c-0.047,0.113-0.184,0.205-0.302,0.207c-0.764,0-1.527,0.004-2.292,0.006
		c-0.021-0.012-0.043-0.018-0.067-0.014c0.013-0.039,0.047-0.021,0.07-0.021c0.342-0.002,0.683,0,1.024-0.002
		c0.434,0,0.867-0.006,1.301-0.006c0.047,0,0.078-0.014,0.111-0.047C53.944,59.805,53.978,59.743,54.052,59.727z"/>
	<path fill="none" d="M55.638,59.317c-0.095,0.021-0.188-0.008-0.282-0.01c-0.16-0.008-0.323,0.008-0.474,0.039
		c-0.143,0.029-0.29,0.078-0.423,0.148c-0.079,0.043-0.166,0.074-0.234,0.133c-0.053,0.043-0.131,0.047-0.175,0.102
		c0.151-0.166,0.354-0.256,0.565-0.332c0.064-0.023,0.132-0.039,0.198-0.057c0.029,0.025,0.041,0.016,0.044-0.02
		c0.222-0.035,0.445-0.055,0.671-0.035C55.566,59.29,55.612,59.276,55.638,59.317z"/>
	<path fill="none" d="M51.391,59.927c0.024-0.004,0.047,0.002,0.067,0.014c0.04,0.094,0.115,0.166,0.18,0.244
		c0.183,0.213,0.37,0.42,0.584,0.607c0.039,0.033,0.081,0.064,0.122,0.098c-0.019,0.002-0.036,0.004-0.054,0.006
		c-0.342-0.275-0.629-0.596-0.886-0.939C51.399,59.946,51.396,59.934,51.391,59.927z"/>
	<path fill="#787366" d="M55.327,59.444c0.419,0.008,0.799,0.123,1.105,0.406c0.449,0.418,0.471,1.031,0.057,1.48
		c-0.547,0.594-1.617,0.682-2.265,0.186c-0.59-0.451-0.598-1.217-0.018-1.691C54.527,59.563,54.903,59.448,55.327,59.444z
		 M55.359,59.512c-0.359,0-0.659,0.076-0.929,0.244c-0.735,0.459-0.743,1.332-0.018,1.775c0.571,0.35,1.414,0.275,1.907-0.164
		c0.493-0.441,0.495-1.096-0.002-1.514C56.035,59.616,55.697,59.516,55.359,59.512z"/>
	<path fill="#E8E7E7" d="M58.617,60.11c0.11,0,0.223,0,0.334,0C58.838,60.163,58.728,60.124,58.617,60.11z"/>
	<path fill="#F9F9F9" d="M52.557,61.036c0.012,0.004,0.029-0.004,0.019,0.02C52.559,61.059,52.555,61.052,52.557,61.036z"/>
	<path fill="#E8E7E7" d="M55.359,59.512c0.338,0.004,0.677,0.104,0.959,0.342c0.498,0.42,0.495,1.072,0.002,1.514
		s-1.336,0.516-1.907,0.164c-0.726-0.443-0.718-1.316,0.018-1.773C54.7,59.589,54.999,59.512,55.359,59.512z M55.233,61.68
		c0.326,0.006,0.652-0.092,0.917-0.273c0.619-0.428,0.608-1.211-0.023-1.611c-0.53-0.338-1.312-0.291-1.792,0.107
		c-0.507,0.422-0.509,1.072,0.001,1.48C54.593,61.591,54.899,61.675,55.233,61.68z"/>
	<path fill="#787366" d="M55.233,61.68c-0.334-0.006-0.64-0.09-0.897-0.297c-0.51-0.408-0.508-1.059-0.001-1.48
		c0.479-0.398,1.262-0.445,1.792-0.107c0.633,0.4,0.644,1.184,0.023,1.611C55.886,61.589,55.559,61.686,55.233,61.68z
		 M54.302,60.583c0.006,0,0.011,0,0.016,0c0.036,0.082,0.073,0.16,0.107,0.242c0.013,0.029,0.021,0.057,0.064,0.053
		c0.041-0.002,0.076,0.002,0.099-0.045c0.036-0.072,0.08-0.145,0.122-0.215c0.008-0.014,0.012-0.035,0.034-0.027
		c0.022,0.006,0.016,0.025,0.016,0.041c-0.003,0.061-0.006,0.119-0.011,0.18c-0.003,0.035-0.01,0.078,0.051,0.064
		c0.044-0.012,0.124,0.047,0.128-0.055c0.005-0.162,0.015-0.322,0.021-0.48c0.001-0.02,0.009-0.041-0.009-0.057
		c-0.035-0.027-0.208,0.006-0.232,0.047c-0.06,0.098-0.118,0.197-0.18,0.299c-0.01-0.008-0.013-0.01-0.015-0.012
		c-0.032-0.07-0.064-0.141-0.096-0.211c-0.062-0.133-0.062-0.131-0.212-0.127c-0.041,0.002-0.054,0.014-0.057,0.051
		c-0.013,0.16-0.03,0.32-0.045,0.48c-0.002,0.027-0.023,0.078,0.038,0.064c0.048-0.012,0.131,0.051,0.139-0.055
		C54.287,60.743,54.296,60.665,54.302,60.583z M55.921,60.624c-0.104-0.115-0.193-0.209-0.278-0.311
		c-0.054-0.061-0.125-0.037-0.186-0.031c-0.043,0.008-0.019,0.062-0.021,0.094c-0.007,0.145-0.006,0.289-0.013,0.436
		c-0.003,0.053,0.011,0.078,0.069,0.066c0.045-0.01,0.118,0.033,0.111-0.062c-0.006-0.09-0.001-0.182-0.001-0.271
		c0.107,0.094,0.197,0.186,0.276,0.285c0.056,0.07,0.128,0.045,0.196,0.047c0.027,0.002,0.024-0.023,0.024-0.041
		c-0.002-0.17-0.006-0.34-0.008-0.51c-0.001-0.082-0.063-0.039-0.102-0.045c-0.035-0.008-0.075-0.012-0.071,0.047
		C55.925,60.419,55.921,60.51,55.921,60.624z M56.43,60.583c-0.005,0-0.011,0-0.017,0c0-0.084,0-0.168,0-0.252
		c0-0.098-0.078-0.045-0.121-0.055c-0.048-0.012-0.063,0.01-0.062,0.059c0.009,0.141,0.009,0.281,0.012,0.424
		c0.004,0.131,0.004,0.131,0.142,0.119c0.037-0.004,0.05-0.014,0.049-0.049C56.428,60.747,56.43,60.665,56.43,60.583z
		 M55.106,60.587c-0.006,0-0.013,0-0.019,0c0,0.078,0.004,0.156-0.002,0.234c-0.002,0.045,0.013,0.061,0.057,0.057
		c0.023-0.002,0.047-0.002,0.069,0c0.041,0.004,0.061-0.006,0.062-0.053c0.001-0.162,0.006-0.326,0.014-0.488
		c0.003-0.047-0.016-0.068-0.062-0.059c-0.042,0.012-0.12-0.041-0.118,0.057C55.107,60.419,55.106,60.503,55.106,60.587z"/>
	
		<linearGradient id="SVGID_8_" gradientUnits="userSpaceOnUse" x1="62.46" y1="79.2546" x2="63.3126" y2="79.2546" gradientTransform="matrix(1 0 0 -1 -8.3599 139.8335)">
		<stop  offset="0" style="stop-color:#FFFFFF"/>
		<stop  offset="1" style="stop-color:#C8C8C8"/>
	</linearGradient>
	<path fill="url(#SVGID_8_)" d="M54.302,60.583c-0.006,0.082-0.015,0.16-0.021,0.238c-0.008,0.105-0.091,0.045-0.139,0.055
		c-0.062,0.014-0.04-0.035-0.038-0.064c0.015-0.158,0.032-0.318,0.045-0.479c0.003-0.037,0.016-0.051,0.057-0.053
		c0.15-0.004,0.15-0.006,0.212,0.129c0.031,0.07,0.063,0.141,0.096,0.209c0.002,0.002,0.005,0.006,0.015,0.014
		c0.062-0.102,0.12-0.201,0.18-0.301c0.024-0.039,0.197-0.074,0.232-0.047c0.018,0.018,0.01,0.037,0.009,0.057
		c-0.007,0.16-0.017,0.32-0.021,0.48c-0.004,0.104-0.084,0.043-0.128,0.055c-0.061,0.016-0.054-0.027-0.051-0.062
		c0.005-0.061,0.008-0.121,0.011-0.18c0-0.018,0.007-0.037-0.016-0.041c-0.022-0.008-0.026,0.014-0.034,0.025
		c-0.042,0.072-0.086,0.143-0.122,0.217c-0.022,0.045-0.058,0.043-0.099,0.045c-0.043,0.002-0.052-0.023-0.064-0.053
		c-0.034-0.082-0.071-0.162-0.107-0.244C54.313,60.583,54.308,60.583,54.302,60.583z M54.738,60.573
		c0.005,0.004,0.009,0.008,0.013,0.012c0.004-0.008,0.009-0.014,0.011-0.021c0.001-0.002-0.006-0.008-0.01-0.012
		C54.746,60.559,54.743,60.565,54.738,60.573z"/>
	
		<linearGradient id="SVGID_9_" gradientUnits="userSpaceOnUse" x1="63.7842" y1="79.2585" x2="64.4609" y2="79.2585" gradientTransform="matrix(1 0 0 -1 -8.3599 139.8335)">
		<stop  offset="0" style="stop-color:#FFFFFF"/>
		<stop  offset="1" style="stop-color:#C8C8C8"/>
	</linearGradient>
	<path fill="url(#SVGID_9_)" d="M55.921,60.624c0-0.113,0.004-0.205,0-0.297c-0.004-0.059,0.036-0.055,0.071-0.049
		c0.037,0.008,0.101-0.035,0.102,0.047c0.002,0.168,0.006,0.34,0.008,0.508c0,0.02,0.003,0.043-0.024,0.041
		c-0.068,0-0.142,0.025-0.196-0.047c-0.079-0.1-0.168-0.191-0.276-0.283c0,0.09-0.005,0.182,0.001,0.27
		c0.007,0.098-0.066,0.055-0.111,0.062c-0.059,0.012-0.072-0.014-0.069-0.066c0.007-0.145,0.006-0.289,0.013-0.434
		c0.002-0.033-0.022-0.088,0.021-0.094c0.061-0.008,0.132-0.029,0.186,0.031C55.728,60.415,55.818,60.509,55.921,60.624z"/>
	
		<linearGradient id="SVGID_10_" gradientUnits="userSpaceOnUse" x1="64.5889" y1="79.2566" x2="64.791" y2="79.2566" gradientTransform="matrix(1 0 0 -1 -8.3599 139.8335)">
		<stop  offset="0" style="stop-color:#FFFFFF"/>
		<stop  offset="1" style="stop-color:#C8C8C8"/>
	</linearGradient>
	<path fill="url(#SVGID_10_)" d="M56.43,60.583c0,0.082-0.002,0.164,0.001,0.246c0.001,0.035-0.012,0.045-0.049,0.049
		c-0.138,0.012-0.138,0.012-0.142-0.119c-0.003-0.143-0.003-0.283-0.012-0.424c-0.001-0.049,0.016-0.07,0.062-0.059
		c0.043,0.01,0.121-0.043,0.121,0.055c0,0.084,0,0.168,0,0.252C56.419,60.583,56.425,60.583,56.43,60.583z"/>
	
		<linearGradient id="SVGID_11_" gradientUnits="userSpaceOnUse" x1="63.4453" y1="79.2566" x2="63.6479" y2="79.2566" gradientTransform="matrix(1 0 0 -1 -8.3599 139.8335)">
		<stop  offset="0" style="stop-color:#FFFFFF"/>
		<stop  offset="1" style="stop-color:#C8C8C8"/>
	</linearGradient>
	<path fill="url(#SVGID_11_)" d="M55.106,60.587c0-0.084,0.001-0.168,0-0.252c-0.002-0.098,0.076-0.045,0.118-0.057
		c0.047-0.01,0.065,0.012,0.062,0.059c-0.008,0.162-0.013,0.326-0.014,0.488c-0.001,0.047-0.021,0.057-0.062,0.053
		c-0.022-0.002-0.046-0.002-0.069,0c-0.044,0.004-0.059-0.012-0.057-0.057c0.006-0.078,0.002-0.156,0.002-0.234
		C55.093,60.587,55.1,60.587,55.106,60.587z"/>
	<path fill="#2B2B2B" d="M54.738,60.573c0.005-0.008,0.009-0.014,0.014-0.021c0.004,0.004,0.011,0.01,0.01,0.012
		c-0.002,0.008-0.007,0.014-0.011,0.021C54.746,60.581,54.743,60.577,54.738,60.573z"/>
	<path opacity="0.8" fill="#C0B9AB" enable-background="new    " d="M69.471,76.153c0,0.697-0.564,1.264-1.264,1.264H42.112
		c-0.697,0-1.262-0.564-1.262-1.264v-3.666c0-0.697,0.565-1.264,1.262-1.264h26.095c0.697,0,1.264,0.566,1.264,1.264V76.153z"/>
	<g>
		<path fill="#C0B9AB" d="M74.929,29.453c-1.755-0.052-10.871-0.557-19.956-0.557c-9.085,0-18.139,0.505-19.894,0.557
			c-3.752,0.111-6.164,2.339-6.164,2.339h25.493h1.19h25.493C81.092,31.793,78.68,29.566,74.929,29.453z"/>
	</g>
	<g>
		<line fill="none" x1="55.215" y1="28.978" x2="55.215" y2="25.674"/>
		
			<linearGradient id="SVGID_12_" gradientUnits="userSpaceOnUse" x1="63.2412" y1="112.5076" x2="63.9092" y2="112.5076" gradientTransform="matrix(1 0 0 -1 -8.3599 139.8335)">
			<stop  offset="0" style="stop-color:#FFFFFF"/>
			<stop  offset="1" style="stop-color:#C8C8C8"/>
		</linearGradient>
		<rect x="54.881" y="25.674" fill="url(#SVGID_12_)" width="0.668" height="3.304"/>
	</g>
	<g>
		<line fill="none" x1="55.215" y1="21.3" x2="55.215" y2="25.712"/>
		
			<linearGradient id="SVGID_13_" gradientUnits="userSpaceOnUse" x1="63.4629" y1="116.3279" x2="63.687" y2="116.3279" gradientTransform="matrix(1 0 0 -1 -8.3599 139.8335)">
			<stop  offset="0" style="stop-color:#FFFFFF"/>
			<stop  offset="1" style="stop-color:#C8C8C8"/>
		</linearGradient>
		<rect x="55.103" y="21.3" fill="url(#SVGID_13_)" width="0.224" height="4.412"/>
	</g>
	
		<linearGradient id="SVGID_14_" gradientUnits="userSpaceOnUse" x1="89.4727" y1="80.03" x2="102.7979" y2="80.03" gradientTransform="matrix(1 0 0 -1 -8.3599 139.8335)">
		<stop  offset="0" style="stop-color:#FFFFFF"/>
		<stop  offset="1" style="stop-color:#C8C8C8"/>
	</linearGradient>
	<path fill="url(#SVGID_14_)" d="M84.517,54.019c-1.218,0.344-5.196,2.304-2.464,7.152c2.732,4.848,6.51,4.555,6.51,4.555
		s6.588,0.32,5.812-5.975C93.597,53.456,85.736,53.675,84.517,54.019z"/>
	
		<linearGradient id="SVGID_15_" gradientUnits="userSpaceOnUse" x1="90.6367" y1="80.2458" x2="102.293" y2="80.2458" gradientTransform="matrix(1 0 0 -1 -8.3599 139.8335)">
		<stop  offset="0" style="stop-color:#A8A8A8"/>
		<stop  offset="0.3438" style="stop-color:#ABABAB"/>
		<stop  offset="0.5634" style="stop-color:#B4B4B4"/>
		<stop  offset="0.7481" style="stop-color:#C2C2C2"/>
		<stop  offset="0.9126" style="stop-color:#D7D7D7"/>
		<stop  offset="1" style="stop-color:#E6E6E6"/>
	</linearGradient>
	<path fill="url(#SVGID_15_)" d="M93.934,60.231c0,3.445-1.544,4.594-4.845,4.594c-3.302,0-6.812-2.441-6.812-5.887
		c0-3.444,1.283-4.587,4.584-4.587S93.934,56.785,93.934,60.231z"/>
	<path opacity="0.4" fill="#C0B9AB" enable-background="new    " d="M67.105,48.531c0,0-0.803,0.191-1.438-1.438
		s-0.239-4.732,0-5.672c0.238-0.94,1.021-1.87,3.609-1.773c0,0,3.362-0.161,3.775,1.691c0.412,1.853,0.609,6.113,0,6.521
		C72.441,48.267,72.515,48.723,67.105,48.531z"/>
	<path fill="#5E5E5E" d="M65.242,48.831c0,0,3.75-3.379,8.574,0h3.268c0,0-7.238-8.019-14.997,0H65.242z"/>
	
		<linearGradient id="SVGID_16_" gradientUnits="userSpaceOnUse" x1="-293.2402" y1="79.5037" x2="-279.916" y2="79.5037" gradientTransform="matrix(-1 0 0 -1 -263.9883 139.8335)">
		<stop  offset="0" style="stop-color:#FFFFFF"/>
		<stop  offset="1" style="stop-color:#C8C8C8"/>
	</linearGradient>
	<path fill="url(#SVGID_16_)" d="M25.848,54.546c1.219,0.344,5.197,2.304,2.464,7.15c-2.732,4.85-6.509,4.555-6.509,4.555
		s-6.589,0.32-5.812-5.973C16.768,53.984,24.63,54.202,25.848,54.546z"/>
	
		<linearGradient id="SVGID_17_" gradientUnits="userSpaceOnUse" x1="-292.0767" y1="79.7185" x2="-280.4204" y2="79.7185" gradientTransform="matrix(-1 0 0 -1 -263.9883 139.8335)">
		<stop  offset="0" style="stop-color:#A8A8A8"/>
		<stop  offset="0.3438" style="stop-color:#ABABAB"/>
		<stop  offset="0.5634" style="stop-color:#B4B4B4"/>
		<stop  offset="0.7481" style="stop-color:#C2C2C2"/>
		<stop  offset="0.9126" style="stop-color:#D7D7D7"/>
		<stop  offset="1" style="stop-color:#E6E6E6"/>
	</linearGradient>
	<path fill="url(#SVGID_17_)" d="M16.432,60.759c0,3.443,1.544,4.594,4.845,4.594c3.301,0,6.811-2.443,6.811-5.887
		c0-3.445-1.283-4.588-4.584-4.588C20.203,54.877,16.432,57.315,16.432,60.759z"/>
	
		<linearGradient id="SVGID_18_" gradientUnits="userSpaceOnUse" x1="35.6484" y1="68.0349" x2="91.5479" y2="68.0349" gradientTransform="matrix(1 0 0 -1 -8.3599 139.8335)">
		<stop  offset="0" style="stop-color:#FFFFFF"/>
		<stop  offset="1" style="stop-color:#C8C8C8"/>
	</linearGradient>
	<path fill="url(#SVGID_18_)" d="M55.229,64.626l15.06,0.496l0.148,0.016l0.174-0.043c0.047-0.008,0.254-0.037,0.605-0.037
		c0.804,0,2.525,0.156,5.033,1.207c3.453,1.445,5.394,5.715,5.545,6.521c0.004,0.057,0.009,0.119,0.016,0.191
		c0.077,0.938,0.262,3.133-1.709,4.48c-0.826,0.564-4.068,1.514-16.482,1.514c-0.524,0-1.008-0.002-1.438-0.002
		c-0.347-0.002-0.658-0.002-0.931-0.002h-4.854h-2.335h-4.854c-0.272,0-0.584,0-0.93,0.002c-0.429,0-0.912,0.002-1.437,0.002
		c-12.415,0-15.657-0.949-16.483-1.514c-1.836-1.256-1.771-2.713-1.71-4.121c0.01-0.23,0.02-0.447,0.021-0.662
		c0.002-0.326,0.35-1.525,1.374-2.965c0.786-1.105,2.147-2.604,4.164-3.447c2.509-1.049,4.232-1.207,5.036-1.207
		c0.352,0,0.557,0.029,0.605,0.037l0.134,0.035l0.188-0.006L55.229,64.626 M55.262,63.288l-0.033,0.002l-0.033-0.002v0.002
		l-15.073,0.496c0,0-0.3-0.064-0.882-0.064c-1.019,0-2.902,0.201-5.551,1.311c-4.163,1.742-6.351,6.121-6.359,7.637
		c-0.007,1.516-0.529,3.979,2.271,5.895c2.376,1.623,11.941,1.746,17.238,1.746c0.947,0,1.757-0.004,2.367-0.004
		c1.882,0,3.581,0,4.854,0c1.44,0,2.335,0,2.335,0c1.272,0,2.973,0,4.854,0c0.609,0,1.42,0.004,2.367,0.004
		c5.297,0,14.862-0.123,17.237-1.746c2.802-1.916,2.325-5.059,2.271-5.895s-2.195-5.895-6.358-7.637
		c-2.647-1.109-4.532-1.311-5.551-1.311c-0.583,0-0.884,0.064-0.884,0.064L55.261,63.29L55.262,63.288L55.262,63.288z"/>
	<path opacity="0.8" fill="#3F3F3F" enable-background="new    " d="M13.355,82.759c0,0-0.557,9.688,1.374,10.766
		c1.93,1.076,7.536,0.188,7.536,0.188s0.928-0.482,1.002-2.973c0.075-2.484-0.029-3.58-0.029-3.58
		c0.616,0.061-9.362-0.885-9.543-1.799C13.513,84.446,13.333,83.061,13.355,82.759z"/>
	<path opacity="0.4" fill="#C0B9AB" enable-background="new    " d="M36.718,48.786c0,0-0.803,0.191-1.439-1.438
		c-0.635-1.63-0.239-4.731,0-5.673c0.24-0.94,1.022-1.87,3.611-1.773c0,0,3.362-0.161,3.774,1.691c0.413,1.854,0.612,6.114,0,6.521
		C42.052,48.523,42.126,48.979,36.718,48.786z"/>
	
		<linearGradient id="SVGID_19_" gradientUnits="userSpaceOnUse" x1="26.166" y1="80.7722" x2="34.7881" y2="80.7722" gradientTransform="matrix(1 0 0 -1 -8.3599 139.8335)">
		<stop  offset="0" style="stop-color:#A8A8A8"/>
		<stop  offset="0.3438" style="stop-color:#ABABAB"/>
		<stop  offset="0.5634" style="stop-color:#B4B4B4"/>
		<stop  offset="0.7481" style="stop-color:#C2C2C2"/>
		<stop  offset="0.9126" style="stop-color:#D7D7D7"/>
		<stop  offset="1" style="stop-color:#E6E6E6"/>
	</linearGradient>
	<ellipse fill="url(#SVGID_19_)" cx="22.117" cy="59.061" rx="4.311" ry="3.875"/>
	
		<linearGradient id="SVGID_20_" gradientUnits="userSpaceOnUse" x1="25.9214" y1="77.1941" x2="34.6743" y2="77.1941" gradientTransform="matrix(1 0 0 -1 -8.3599 139.8335)">
		<stop  offset="0" style="stop-color:#828282"/>
		<stop  offset="0.4033" style="stop-color:#858585"/>
		<stop  offset="0.6608" style="stop-color:#8D8D8D"/>
		<stop  offset="0.8768" style="stop-color:#9C9C9C"/>
		<stop  offset="1" style="stop-color:#A8A8A8"/>
	</linearGradient>
	<path fill="url(#SVGID_20_)" d="M22.117,64.198c1.399,0,2.819-0.525,3.697-1.166c1.212-0.883-0.068-2.039-0.786-1.299
		c-0.505,0.521-1.687,1.02-2.912,1.02c-1.404,0-2.747-0.484-3.299-1.355c-0.552-0.871-1.772,0.236-1.015,1.121
		C18.285,63.083,19.894,64.198,22.117,64.198z"/>
	
		<linearGradient id="SVGID_21_" gradientUnits="userSpaceOnUse" x1="29.4556" y1="79.3865" x2="36.4482" y2="79.3865" gradientTransform="matrix(1 0 0 -1 -8.3599 139.8335)">
		<stop  offset="0" style="stop-color:#FFFFFF"/>
		<stop  offset="1" style="stop-color:#C8C8C8"/>
	</linearGradient>
	<path opacity="0.2" fill="url(#SVGID_21_)" enable-background="new    " d="M26.616,55.547c-2.44,1.308-5.698,3.602-5.513,6.471
		c0.088,1.357,0.203,2.447,0.355,3.328c3.247-0.086,6.63-2.5,6.63-5.881C28.088,57.446,27.646,56.218,26.616,55.547z"/>
	
		<linearGradient id="SVGID_22_" gradientUnits="userSpaceOnUse" x1="-858.1289" y1="80.7722" x2="-849.5059" y2="80.7722" gradientTransform="matrix(-1 0 0 -1 -765.2129 139.8335)">
		<stop  offset="0" style="stop-color:#A8A8A8"/>
		<stop  offset="0.3438" style="stop-color:#ABABAB"/>
		<stop  offset="0.5634" style="stop-color:#B4B4B4"/>
		<stop  offset="0.7481" style="stop-color:#C2C2C2"/>
		<stop  offset="0.9126" style="stop-color:#D7D7D7"/>
		<stop  offset="1" style="stop-color:#E6E6E6"/>
	</linearGradient>
	<ellipse fill="url(#SVGID_22_)" cx="88.604" cy="59.061" rx="4.312" ry="3.875"/>
	
		<linearGradient id="SVGID_23_" gradientUnits="userSpaceOnUse" x1="-858.3735" y1="77.1941" x2="-849.6201" y2="77.1941" gradientTransform="matrix(-1 0 0 -1 -765.2129 139.8335)">
		<stop  offset="0" style="stop-color:#828282"/>
		<stop  offset="0.4033" style="stop-color:#858585"/>
		<stop  offset="0.6608" style="stop-color:#8D8D8D"/>
		<stop  offset="0.8768" style="stop-color:#9C9C9C"/>
		<stop  offset="1" style="stop-color:#A8A8A8"/>
	</linearGradient>
	<path fill="url(#SVGID_23_)" d="M88.604,64.198c-1.398,0-2.818-0.525-3.695-1.166c-1.213-0.883,0.067-2.039,0.785-1.299
		c0.504,0.521,1.688,1.02,2.91,1.02c1.403,0,2.748-0.484,3.301-1.355s1.771,0.238,1.017,1.121
		C92.437,63.083,90.826,64.198,88.604,64.198z"/>
	
		<linearGradient id="SVGID_24_" gradientUnits="userSpaceOnUse" x1="-854.8394" y1="79.3865" x2="-847.8467" y2="79.3865" gradientTransform="matrix(-1 0 0 -1 -765.2129 139.8335)">
		<stop  offset="0" style="stop-color:#FFFFFF"/>
		<stop  offset="1" style="stop-color:#C8C8C8"/>
	</linearGradient>
	<path opacity="0.2" fill="url(#SVGID_24_)" enable-background="new    " d="M84.107,55.547c2.438,1.308,5.696,3.602,5.512,6.471
		c-0.088,1.357-0.203,2.447-0.354,3.328c-3.247-0.086-6.631-2.5-6.631-5.881C82.633,57.446,83.076,56.218,84.107,55.547z"/>
	<path fill="#5E5E5E" d="M95.213,83.208c-0.713,1.395-3.943,1.631-7.354,2.113c-2.979,0.422-24.584,0.871-32.634,0.98
		c-8.052-0.107-29.657-0.559-32.635-0.98c-3.412-0.482-6.641-0.721-7.354-2.113c-0.714-1.396-1.856-10.691-2.618-14.934
		c0.208,2.838,0.505,5.682,0.511,5.73l0.002,0.039c0.089,4.441,0.112,9.977,0.508,11.426c0.329,1.203,13.94,2.059,13.94,2.059
		h23.779h7.732h23.778c0,0,13.611-0.854,13.94-2.059c0.396-1.449,0.417-6.984,0.507-11.426l0.004-0.039
		c0.004-0.051,0.303-2.893,0.51-5.73C97.07,72.516,95.928,81.811,95.213,83.208z"/>
</g>
</svg>
