<?xml version="1.0" encoding="utf-8"?>
<!-- Generator: Adobe Illustrator 16.0.0, SVG Export Plug-In . SVG Version: 6.00 Build 0)  -->
<!DOCTYPE svg PUBLIC "-//W3C//DTD SVG 1.1//EN" "http://www.w3.org/Graphics/SVG/1.1/DTD/svg11.dtd">
<svg version="1.1" id="Layer_1" xmlns="http://www.w3.org/2000/svg" xmlns:xlink="http://www.w3.org/1999/xlink" x="0px" y="0px"
	 width="110.5px" height="115.779px" viewBox="0 0 110.5 115.779" enable-background="new 0 0 110.5 115.779" xml:space="preserve">
<g>
	<g>
		<g>
			<path fill="#787366" d="M75.878,21.139c1.334,1.222,7.981,15.284,7.981,15.284l1.311,1.637l1.146-1.311l-0.328-2.129
				c0,0-0.087-1.474,0.655-2.293c0.741-0.818,2.62-0.819,2.62-0.819s2.038,0.078,3.439,0.983c1.402,0.906,1.672,1.314,1.802,2.128
				c0.129,0.815-0.332,1.304-0.819,1.966c-0.486,0.662-2.293,0.982-2.293,0.982l-2.947,0.655l-1.146,2.129l3.439,3.931
				c0,0,2.326,5.417,2.62,7.533c0.293,2.117-0.655,11.135-0.655,11.135s-0.321,16.031-0.818,17.854
				c-0.498,1.818-1.146,2.129-1.146,2.129h-7.861l-0.982-2.129l-4.258-3.932H51.14h-2H22.642l-4.258,3.932l-0.983,2.129H9.541
				c0,0-0.649-0.311-1.147-2.129c-0.497-1.822-0.818-17.854-0.818-17.854S6.626,53.934,6.92,51.817
				c0.294-2.116,2.62-7.533,2.62-7.533l3.439-3.931l-1.147-2.129l-2.948-0.655c0,0-1.806-0.32-2.292-0.982
				c-0.487-0.662-0.948-1.15-0.819-1.966c0.129-0.814,0.399-1.223,1.801-2.128c1.402-0.906,3.439-0.983,3.439-0.983
				s1.879,0.001,2.621,0.819c0.742,0.818,0.655,2.293,0.655,2.293l-0.328,2.129l1.146,1.311l1.311-1.638
				c0,0,6.294-14.062,7.628-15.283H75.878z"/>
			<linearGradient id="SVGID_1_" gradientUnits="userSpaceOnUse" x1="5.3062" y1="52.0364" x2="94.9727" y2="52.0364">
				<stop  offset="0" style="stop-color:#FFFFFF"/>
				<stop  offset="1" style="stop-color:#C8C8C8"/>
			</linearGradient>
			<path fill="url(#SVGID_1_)" d="M90.839,83.38h-8.247l-1.065-2.309l-4.064-3.752H22.816l-4.065,3.752l-1.065,2.309H9.44
				l-0.091-0.043c-0.139-0.066-0.859-0.496-1.384-2.416C7.462,79.085,7.148,63.866,7.13,62.981
				c-0.061-0.58-0.945-9.108-0.651-11.225c0.298-2.152,2.556-7.426,2.652-7.648l0.028-0.064l3.282-3.751l-0.903-1.678l-2.749-0.611
				c-0.312-0.055-1.992-0.388-2.556-1.153c-0.053-0.073-0.106-0.144-0.159-0.213c-0.435-0.577-0.885-1.175-0.741-2.086
				c0.16-1.01,0.571-1.511,2-2.434c1.487-0.961,3.575-1.051,3.664-1.054c0.001,0,0.001,0,0.003,0c0.241,0,2.118,0.031,2.964,0.965
				c0.858,0.945,0.774,2.55,0.77,2.618l-0.005,0.042l-0.296,1.924l0.66,0.753l0.942-1.178c0.75-1.674,6.363-14.143,7.711-15.377
				l0.127-0.117h52.178l0.127,0.117c1.346,1.232,7.277,13.718,8.061,15.375l0.945,1.181l0.66-0.753l-0.302-1.966
				c-0.003-0.068-0.087-1.672,0.771-2.618c0.85-0.937,2.737-0.965,2.95-0.966c0.105,0.005,2.193,0.094,3.681,1.055
				c1.429,0.924,1.841,1.424,2.001,2.434c0.144,0.911-0.307,1.509-0.741,2.086c-0.052,0.069-0.105,0.141-0.159,0.213
				c-0.563,0.767-2.243,1.099-2.574,1.157l-2.73,0.607l-0.902,1.678l3.281,3.751l0.028,0.064c0.096,0.224,2.354,5.496,2.652,7.648
				c0.293,2.118-0.591,10.645-0.651,11.225c-0.019,0.885-0.332,16.104-0.834,17.939c-0.525,1.92-1.246,2.35-1.385,2.416
				L90.839,83.38z M91.455,74.227c0.396-1.449,0.714-6.84,0.802-11.283l0.004-0.039c0.009-0.088,0.939-8.987,0.656-11.027
				c-0.266-1.913-2.3-6.74-2.562-7.354l-3.596-4.11l1.39-2.58l3.146-0.699c0.696-0.125,1.77-0.456,2.031-0.812
				c0.055-0.075,0.11-0.147,0.165-0.22c0.432-0.574,0.654-0.897,0.572-1.411c-0.1-0.638-0.265-0.96-1.603-1.824
				c-1.285-0.83-3.195-0.911-3.215-0.912c-0.451,0.001-1.776,0.125-2.273,0.672c-0.565,0.625-0.546,1.792-0.541,1.951l0.355,2.31
				l-1.634,1.866l-1.676-2.094l-0.022-0.047c-2.563-5.425-6.65-13.692-7.77-15.028H24.24c-1.103,1.334-4.987,9.597-7.414,15.019
				l-0.023,0.052l-1.678,2.098l-1.633-1.866l0.355-2.31c0.005-0.156,0.025-1.326-0.542-1.951c-0.497-0.548-1.822-0.671-2.291-0.672
				c-0.001,0.001-1.917,0.084-3.197,0.912c-1.338,0.864-1.502,1.187-1.604,1.824c-0.081,0.514,0.141,0.837,0.573,1.411
				c0.054,0.071,0.11,0.145,0.165,0.22c0.262,0.356,1.334,0.688,2.012,0.809l3.166,0.703l1.39,2.58l-3.596,4.11
				c-0.261,0.614-2.296,5.442-2.562,7.354c-0.283,2.039,0.647,10.939,0.657,11.027l0.002,0.039
				c0.089,4.443,0.112,9.979,0.508,11.428c0.329,1.203,13.94,2.057,13.94,2.057H77.81c0,0,11.658-0.875,13.428-1.971
				C91.358,74.382,91.434,74.305,91.455,74.227z"/>
		</g>
		<path opacity="0.8" fill="#3F3F3F" d="M91.794,71.626c0,0,0.556,9.689-1.375,10.766c-1.93,1.076-7.535,0.186-7.535,0.186
			s-0.928-0.482-1.002-2.969c-0.075-2.486,0.03-3.582,0.03-3.582c-0.618,0.061,9.361-0.885,9.543-1.799
			C91.636,73.313,91.815,71.93,91.794,71.626z"/>
		<g opacity="0.8">
			<path fill="#5E5E5E" d="M82.487,37.844c0,0-6.173-15.874-8.01-16.168c-1.521-0.243-17.948-0.487-23.561-0.562
				c0-0.014-0.001-0.025-0.001-0.025s-0.339,0.004-0.933,0.012c-0.594-0.007-0.933-0.012-0.933-0.012s-0.001,0.011-0.001,0.025
				c-5.612,0.076-22.039,0.32-23.56,0.562c-1.837,0.295-8.01,16.168-8.01,16.168s30.007-0.261,32.504-0.243
				C52.48,37.619,82.487,37.844,82.487,37.844z"/>
			<linearGradient id="SVGID_2_" gradientUnits="userSpaceOnUse" x1="17.1523" y1="29.4656" x2="82.8145" y2="29.4656">
				<stop  offset="0" style="stop-color:#FFFFFF"/>
				<stop  offset="1" style="stop-color:#C8C8C8"/>
			</linearGradient>
			<path fill="url(#SVGID_2_)" d="M50.916,21.088c0,0,0.001,0.011,0.001,0.025c5.612,0.076,22.039,0.32,23.561,0.562
				c1.837,0.295,8.01,16.168,8.01,16.168s-30.007-0.225-32.504-0.243c-0.086,0-0.202-0.001-0.351-0.001
				c-4.165,0-32.153,0.244-32.153,0.244s6.173-15.874,8.01-16.168c1.521-0.243,17.948-0.487,23.56-0.562
				c0-0.014,0.001-0.025,0.001-0.025s0.339,0.004,0.933,0.012C50.577,21.093,50.916,21.088,50.916,21.088 M48.837,20.863
				l-0.001,0.029c-6.705,0.093-21.891,0.325-23.382,0.563c-0.344,0.056-0.903,0.419-2.187,2.763
				c-0.744,1.359-1.644,3.23-2.676,5.561c-1.755,3.964-3.305,7.943-3.32,7.982l-0.119,0.307l0.329-0.003
				c0.28-0.002,28.035-0.242,32.152-0.242c0.15,0,0.265,0,0.349,0l32.504,0.242l0.329,0.003l-0.12-0.307
				c-0.014-0.039-1.564-4.019-3.32-7.982c-1.03-2.331-1.931-4.202-2.675-5.561c-1.282-2.344-1.843-2.708-2.187-2.763
				c-1.491-0.238-16.677-0.471-23.383-0.563l-0.001-0.028l-0.215,0.001l-0.934,0.012l-0.928-0.012L48.837,20.863L48.837,20.863z"/>
		</g>
		<path opacity="0.6" fill="#C0B9AB" enable-background="new    " d="M75.07,37.844h-6.682c0,0-2.896,4.951-3.564,6.964
			c-0.668,2.014-2.449,7.379-2.449,7.379s6.773,1.219,7.016,0.652c0.118-0.272,0.832-4.317,2.005-7.423
			C72.567,42.312,75.07,37.844,75.07,37.844z"/>
		<path opacity="0.6" fill="#C0B9AB" enable-background="new    " d="M25.457,37.844h6.682c0,0,2.896,4.951,3.563,6.964
			c0.668,2.014,2.45,7.379,2.45,7.379s-6.774,1.219-7.016,0.652c-0.117-0.272-0.832-4.317-2.004-7.423
			C27.959,42.312,25.457,37.844,25.457,37.844z"/>
		<path opacity="0.8" fill="#C0B9AB" enable-background="new    " d="M76.944,64.979c0,0.697-1.056,1.264-2.358,1.264H25.86
			c-1.303,0-2.357-0.566-2.357-1.264v-3.666c0-0.697,1.055-1.264,2.357-1.264h48.726c1.303,0,2.358,0.566,2.358,1.264V64.979z"/>
		<linearGradient id="SVGID_3_" gradientUnits="userSpaceOnUse" x1="22.2993" y1="60.3464" x2="78.2021" y2="60.3464">
			<stop  offset="0" style="stop-color:#FFFFFF"/>
			<stop  offset="1" style="stop-color:#C8C8C8"/>
		</linearGradient>
		<path fill="url(#SVGID_3_)" d="M71.779,53.58c-4.162-1.744-6.435-1.246-6.435-1.246l-15.071-0.495l-0.001-0.003l-0.032,0.002
			l-0.032-0.002l-0.001,0.003l-15.072,0.495c0,0-2.271-0.498-6.434,1.246c-4.163,1.742-6.351,6.122-6.358,7.635
			c-0.008,1.516-0.53,3.98,2.271,5.895c2.801,1.914,15.593,1.742,19.604,1.742c1.883,0,3.581,0,4.854,0c1.44,0,2.337,0,2.337,0
			c1.272,0,2.972,0,4.854,0c4.011,0,16.804,0.172,19.603-1.742c2.801-1.914,2.326-5.059,2.272-5.895
			C78.083,60.38,75.942,55.323,71.779,53.58z"/>
		<path opacity="0.8" fill="#5E5E5E" d="M70.188,54.33c-3.88-1.56-4.531-1.067-5.996-1.113c-1.466-0.046-14.048-0.443-14.048-0.443
			v-0.003l-0.03,0.002l-0.03-0.002l-0.001,0.003l-14.047,0.443c0,0-2.117-0.446-5.997,1.113c-3.88,1.56-5.968,5.059-5.926,6.831
			c0.043,1.771-0.493,3.561,2.117,5.271c2.61,1.713,14.532,1.559,18.271,1.559c1.754,0,3.337,0,4.524,0c1.343,0,2.178,0,2.178,0
			c1.187,0,2.77,0,4.524,0c3.738,0,15.66,0.154,18.271-1.559c2.609-1.711,2.201-4.424,2.117-5.271
			C76.029,60.315,74.069,55.89,70.188,54.33z"/>
		<g>
			<linearGradient id="SVGID_4_" gradientUnits="userSpaceOnUse" x1="26.1982" y1="56.6633" x2="73.6455" y2="56.6633">
				<stop  offset="0" style="stop-color:#A8A8A8"/>
				<stop  offset="0.3438" style="stop-color:#ABABAB"/>
				<stop  offset="0.5634" style="stop-color:#B4B4B4"/>
				<stop  offset="0.7481" style="stop-color:#C2C2C2"/>
				<stop  offset="0.9126" style="stop-color:#D7D7D7"/>
				<stop  offset="1" style="stop-color:#E6E6E6"/>
			</linearGradient>
			<line fill="url(#SVGID_4_)" x1="26.198" y1="56.663" x2="73.646" y2="56.663"/>
			<rect x="26.198" y="56.442" fill="#B1B1B1" width="47.447" height="0.445"/>
		</g>
		<g>
			<linearGradient id="SVGID_5_" gradientUnits="userSpaceOnUse" x1="24.8022" y1="58.5945" x2="75.0703" y2="58.5945">
				<stop  offset="0" style="stop-color:#A8A8A8"/>
				<stop  offset="0.3438" style="stop-color:#ABABAB"/>
				<stop  offset="0.5634" style="stop-color:#B4B4B4"/>
				<stop  offset="0.7481" style="stop-color:#C2C2C2"/>
				<stop  offset="0.9126" style="stop-color:#D7D7D7"/>
				<stop  offset="1" style="stop-color:#E6E6E6"/>
			</linearGradient>
			<line fill="url(#SVGID_5_)" x1="24.802" y1="58.594" x2="75.07" y2="58.594"/>
			<rect x="24.802" y="58.372" fill="#B1B1B1" width="50.268" height="0.445"/>
		</g>
		<g>
			<linearGradient id="SVGID_6_" gradientUnits="userSpaceOnUse" x1="29.0195" y1="54.5862" x2="71.2646" y2="54.5862">
				<stop  offset="0" style="stop-color:#A8A8A8"/>
				<stop  offset="0.3438" style="stop-color:#ABABAB"/>
				<stop  offset="0.5634" style="stop-color:#B4B4B4"/>
				<stop  offset="0.7481" style="stop-color:#C2C2C2"/>
				<stop  offset="0.9126" style="stop-color:#D7D7D7"/>
				<stop  offset="1" style="stop-color:#E6E6E6"/>
			</linearGradient>
			<line fill="url(#SVGID_6_)" x1="29.02" y1="54.586" x2="71.265" y2="54.586"/>
			<rect x="29.02" y="54.363" fill="#B1B1B1" width="42.245" height="0.445"/>
		</g>
		
			<linearGradient id="SVGID_7_" gradientUnits="userSpaceOnUse" x1="20.7905" y1="800.2156" x2="28.0234" y2="800.2156" gradientTransform="matrix(1 0 0 1 -8.415 -732.5273)">
			<stop  offset="0" style="stop-color:#FFFFFF"/>
			<stop  offset="1" style="stop-color:#C8C8C8"/>
		</linearGradient>
		<path opacity="0.8" fill="url(#SVGID_7_)" d="M16.107,71.212c1.968-0.055,3.516-1.631,3.501-3.553
			c-0.015-1.9-1.617-3.479-3.567-3.496c-2.028-0.016-3.75,1.725-3.663,3.688C12.471,69.716,14.189,71.272,16.107,71.212z"/>
		
			<linearGradient id="SVGID_8_" gradientUnits="userSpaceOnUse" x1="88.7988" y1="800.2156" x2="96.0312" y2="800.2156" gradientTransform="matrix(1 0 0 1 -8.415 -732.5273)">
			<stop  offset="0" style="stop-color:#FFFFFF"/>
			<stop  offset="1" style="stop-color:#C8C8C8"/>
		</linearGradient>
		<path opacity="0.8" fill="url(#SVGID_8_)" d="M84.115,71.212c1.968-0.055,3.516-1.631,3.501-3.553
			c-0.015-1.9-1.617-3.479-3.567-3.496c-2.027-0.016-3.749,1.725-3.662,3.688C80.479,69.716,82.197,71.272,84.115,71.212z"/>
		<linearGradient id="SVGID_9_" gradientUnits="userSpaceOnUse" x1="26.7935" y1="72.1609" x2="73.4639" y2="72.1609">
			<stop  offset="0" style="stop-color:#FFFFFF"/>
			<stop  offset="1" style="stop-color:#C8C8C8"/>
		</linearGradient>
		<path opacity="0.8" fill="url(#SVGID_9_)" d="M50.923,70.087h-1.589H26.793c0,0,0,2.398,1.114,2.852
			c1.113,0.453,3.861,0.844,5.42,0.973c1.256,0.104,11.917,0.25,16.007,0.303v0.021c0,0,0.291-0.004,0.794-0.012
			c0.504,0.008,0.795,0.012,0.795,0.012v-0.021c4.088-0.053,14.751-0.199,16.007-0.303c1.559-0.129,4.306-0.52,5.42-0.973
			s1.114-2.852,1.114-2.852H50.923z"/>
		<linearGradient id="SVGID_10_" gradientUnits="userSpaceOnUse" x1="46.3481" y1="49.5618" x2="54.0449" y2="49.5618">
			<stop  offset="0" style="stop-color:#FFFFFF"/>
			<stop  offset="1" style="stop-color:#C8C8C8"/>
		</linearGradient>
		<path fill-rule="evenodd" clip-rule="evenodd" fill="url(#SVGID_10_)" d="M50.527,48.217c0.02,0.003,0.039,0.007,0.059,0.011
			c0.006,0.005,0.011,0.015,0.018,0.017c0.213,0.033,0.398,0.143,0.605,0.194c0.002,0.007,0.003,0.014,0.005,0.021
			c-0.007,0.021,0.012,0.031,0.025,0.037c0.132,0.069,0.239,0.169,0.334,0.277c0.034,0.04,0.066,0.053,0.118,0.052
			c0.282-0.002,0.564-0.001,0.847-0.002c0.173-0.001,0.346-0.005,0.52-0.009c0.328-0.001,0.657-0.001,0.986-0.002
			c0.007,0.038-0.025,0.059-0.046,0.083c-0.277,0.329-0.592,0.624-0.929,0.899c-0.102,0.083-0.202,0.148-0.344,0.125
			c-0.286,0-0.571-0.002-0.856-0.002c-0.022,0-0.046-0.004-0.059,0.022c-0.035,0.077-0.071,0.153-0.108,0.229
			c0.115,0.043,0.142-0.04,0.167-0.108c0.021-0.062,0.055-0.082,0.123-0.085c0.244-0.009,0.489-0.025,0.733-0.039
			c0.044,0.003,0.091-0.035,0.156,0.018c-0.019,0.006-0.033,0.009-0.046,0.018c-0.158,0.104-0.318,0.207-0.473,0.316
			c-0.104,0.074-0.214,0.108-0.346,0.097c-0.089-0.008-0.179,0.005-0.268-0.003c-0.162-0.013-0.309,0.007-0.414,0.142
			c-0.008,0.008-0.019,0.012-0.027,0.02c-0.394,0.284-0.842,0.4-1.332,0.367c-0.44-0.03-0.83-0.181-1.141-0.487
			c-0.03-0.028-0.062-0.034-0.101-0.034c-0.162,0.001-0.324-0.005-0.485,0.002c-0.112,0.006-0.207-0.019-0.297-0.082
			c-0.165-0.117-0.345-0.216-0.49-0.356c0.007-0.01,0.016-0.014,0.028-0.013c0.299,0.032,0.6,0.027,0.899,0.045
			c0.057,0.004,0.107,0.004,0.128,0.083c0.008-0.115-0.021-0.148-0.111-0.148c-0.298,0-0.596,0-0.894,0
			c-0.021,0.001-0.053-0.015-0.065,0.02c-0.006-0.001-0.013-0.001-0.019-0.001c-0.015-0.015-0.031-0.025-0.053-0.026
			c-0.004-0.001-0.007-0.003-0.007-0.007c-0.027-0.044-0.072-0.069-0.114-0.099c0-0.003-0.003-0.006-0.007-0.004
			c-0.005-0.006-0.01-0.01-0.015-0.015c-0.041-0.032-0.083-0.063-0.122-0.098c-0.214-0.187-0.401-0.395-0.584-0.607
			c-0.065-0.077-0.141-0.149-0.18-0.243c0.764-0.003,1.528-0.006,2.292-0.007c0.118-0.001,0.255-0.093,0.302-0.206l-0.002,0.002
			c0.044-0.056,0.122-0.059,0.175-0.103c0.068-0.058,0.155-0.089,0.234-0.132c0.133-0.071,0.28-0.12,0.423-0.149
			c0.15-0.03,0.313-0.046,0.474-0.039C50.339,48.21,50.433,48.239,50.527,48.217z M47.307,49.034
			c-0.011-0.005-0.021-0.012-0.031-0.012c-0.226,0-0.451,0-0.677,0c-0.014,0-0.029,0.002-0.026,0.023
			c0.007,0.003,0.016,0.009,0.022,0.009c0.229,0.012,0.457-0.019,0.684,0.016c0.009,0.002,0.02-0.009,0.029-0.015
			c0.282,0.008,0.564,0.015,0.847,0.021c0.127,0.004,0.253,0.008,0.38,0.012c0.029,0.001,0.056-0.006,0.055-0.037
			c-0.001-0.035-0.034-0.018-0.054-0.02c-0.02-0.003-0.04-0.001-0.061-0.001C48.085,49.032,47.695,49.033,47.307,49.034z
			 M52.986,49.479c0.109,0.009,0.22-0.009,0.328-0.012c0-0.002,0-0.005-0.002-0.014c-0.107-0.01-0.218-0.006-0.326,0.002
			c-0.318,0-0.637,0.001-0.954,0.002c-0.138,0-0.143,0.001-0.14,0.13c0.002,0.036-0.062,0.112,0.031,0.113
			c0.08,0.002,0.046-0.077,0.045-0.115c-0.004-0.067,0.025-0.071,0.083-0.072C52.363,49.503,52.675,49.49,52.986,49.479z
			 M50.217,48.345c-0.425,0.003-0.801,0.119-1.12,0.381c-0.58,0.475-0.572,1.24,0.018,1.69c0.647,0.497,1.718,0.409,2.265-0.185
			c0.414-0.449,0.394-1.062-0.056-1.48C51.016,48.467,50.636,48.352,50.217,48.345z M53.467,49.04c0-0.006,0-0.01,0-0.015
			c-0.563,0-1.127,0-1.693,0c0.026,0.071,0.05,0.136,0.073,0.2c0.007,0.02,0.017,0.035,0.043,0.029
			c0.033-0.008,0.016-0.029,0.011-0.045c-0.01-0.026-0.017-0.053-0.03-0.076c-0.027-0.048-0.013-0.059,0.041-0.06
			c0.345-0.005,0.688-0.013,1.032-0.02C53.117,49.051,53.291,49.044,53.467,49.04z M47.051,49.47
			c0.006,0.027,0.022,0.023,0.036,0.023c0.389,0.011,0.778,0.022,1.167,0.031c0.093,0.002,0.185-0.009,0.185,0.116
			c0,0.003,0.007,0.005,0.015,0.01c0-0.032-0.005-0.063,0.001-0.093c0.017-0.081-0.02-0.098-0.102-0.096
			c-0.407,0.004-0.814,0.002-1.222,0.003C47.104,49.465,47.078,49.468,47.051,49.47z M53.506,49.011
			c0.111,0.013,0.222,0.053,0.335,0C53.729,49.011,53.617,49.011,53.506,49.011z"/>
		<path fill-rule="evenodd" clip-rule="evenodd" fill="none" d="M52.726,49.921c0.142,0.023,0.242-0.042,0.344-0.125
			c0.337-0.275,0.651-0.57,0.929-0.899c0.021-0.024,0.053-0.045,0.046-0.083c0.001-0.009,0.001-0.016,0.001-0.022
			c0.027-0.008,0.055-0.013,0.087,0.005c-0.158,0.212-0.337,0.403-0.525,0.585c-0.399,0.387-0.841,0.724-1.326,1.01
			c-0.045,0.028-0.091,0.04-0.146,0.04c-0.174-0.002-0.348,0.003-0.521-0.002c-0.073-0.002-0.123,0.021-0.175,0.066
			c-0.657,0.584-1.788,0.626-2.489,0.094c-0.016-0.013-0.034-0.022-0.046-0.038c-0.086-0.11-0.202-0.136-0.341-0.121
			c-0.092,0.01-0.186-0.006-0.277,0.004c-0.16,0.02-0.29-0.03-0.414-0.12c-0.156-0.112-0.322-0.212-0.466-0.339
			c0.018-0.006,0.021-0.021,0.023-0.035c0.006,0,0.013,0,0.019,0.001l-0.002-0.003c-0.002,0.014,0.002,0.021,0.019,0.019
			l-0.002-0.002c0.146,0.141,0.325,0.239,0.49,0.356c0.09,0.063,0.185,0.088,0.297,0.082c0.161-0.007,0.323-0.001,0.485-0.002
			c0.039,0,0.07,0.006,0.101,0.034c0.311,0.307,0.7,0.457,1.141,0.487c0.49,0.033,0.938-0.083,1.332-0.367
			c0.009-0.008,0.02-0.012,0.027-0.02c0.105-0.135,0.252-0.154,0.414-0.142c0.089,0.008,0.179-0.005,0.268,0.003
			c0.132,0.012,0.241-0.022,0.346-0.097c0.154-0.109,0.314-0.212,0.473-0.316c0.013-0.009,0.027-0.012,0.046-0.018
			c-0.065-0.053-0.112-0.015-0.156-0.018C52.726,49.933,52.726,49.927,52.726,49.921z"/>
		<path fill-rule="evenodd" clip-rule="evenodd" fill="none" d="M48.941,48.628c-0.047,0.113-0.184,0.205-0.302,0.206
			c-0.764,0.001-1.527,0.004-2.292,0.007c-0.021-0.013-0.043-0.018-0.067-0.015c0.013-0.039,0.047-0.02,0.07-0.02
			c0.342-0.002,0.683,0,1.024-0.002c0.434-0.001,0.867-0.006,1.301-0.007c0.047,0,0.078-0.014,0.111-0.046
			C48.833,48.705,48.867,48.644,48.941,48.628z"/>
		<path fill-rule="evenodd" clip-rule="evenodd" fill="none" d="M50.527,48.217c-0.095,0.021-0.188-0.007-0.282-0.01
			c-0.16-0.007-0.323,0.009-0.474,0.039c-0.143,0.029-0.29,0.078-0.423,0.149c-0.079,0.043-0.166,0.074-0.234,0.132
			c-0.053,0.044-0.131,0.047-0.175,0.103c0.151-0.167,0.354-0.257,0.565-0.333c0.064-0.023,0.132-0.038,0.198-0.057
			c0.029,0.027,0.041,0.016,0.044-0.018c0.222-0.036,0.445-0.056,0.671-0.035C50.455,48.191,50.501,48.177,50.527,48.217z"/>
		<path fill-rule="evenodd" clip-rule="evenodd" fill="none" d="M46.281,48.826c0.024-0.003,0.047,0.002,0.067,0.015
			c0.04,0.094,0.115,0.166,0.18,0.243c0.183,0.213,0.37,0.421,0.584,0.607c0.039,0.034,0.081,0.065,0.122,0.098
			c-0.019,0.002-0.036,0.004-0.054,0.006c-0.342-0.274-0.629-0.595-0.886-0.939C46.288,48.846,46.286,48.835,46.281,48.826z"/>
		<path fill-rule="evenodd" clip-rule="evenodd" fill="#787366" d="M50.217,48.345c0.419,0.007,0.799,0.122,1.106,0.406
			c0.449,0.418,0.47,1.031,0.056,1.48c-0.547,0.594-1.617,0.682-2.265,0.185c-0.59-0.45-0.598-1.216-0.018-1.69
			C49.416,48.464,49.792,48.348,50.217,48.345z M50.248,48.412c-0.359,0-0.659,0.077-0.929,0.245
			c-0.735,0.458-0.743,1.331-0.018,1.775c0.571,0.35,1.414,0.276,1.907-0.164c0.494-0.441,0.496-1.095-0.002-1.514
			C50.925,48.517,50.586,48.417,50.248,48.412z"/>
		<path fill-rule="evenodd" clip-rule="evenodd" fill="#E8E7E7" d="M53.506,49.011c0.111,0,0.223,0,0.335,0
			C53.728,49.064,53.617,49.024,53.506,49.011z"/>
		<path fill-rule="evenodd" clip-rule="evenodd" fill="#F9F9F9" d="M47.446,49.938c0.012,0.002,0.029-0.004,0.019,0.019
			C47.448,49.959,47.444,49.951,47.446,49.938z"/>
		<path fill-rule="evenodd" clip-rule="evenodd" fill="#E8E7E7" d="M50.248,48.412c0.338,0.005,0.677,0.104,0.959,0.343
			c0.498,0.419,0.496,1.072,0.002,1.514c-0.493,0.44-1.336,0.514-1.907,0.164c-0.726-0.444-0.718-1.317,0.018-1.775
			C49.589,48.49,49.889,48.412,50.248,48.412z M50.122,50.58c0.326,0.007,0.653-0.092,0.917-0.273
			c0.62-0.428,0.609-1.21-0.023-1.612c-0.53-0.338-1.312-0.29-1.792,0.109c-0.507,0.422-0.509,1.072,0.001,1.48
			C49.482,50.49,49.788,50.575,50.122,50.58z"/>
		<path fill-rule="evenodd" clip-rule="evenodd" fill="#787366" d="M50.122,50.581c-0.334-0.006-0.64-0.091-0.897-0.297
			c-0.51-0.408-0.508-1.059-0.001-1.48c0.479-0.399,1.262-0.447,1.792-0.109c0.633,0.402,0.644,1.185,0.023,1.612
			C50.775,50.489,50.448,50.587,50.122,50.581z M49.191,49.484c0.006-0.001,0.011-0.001,0.016-0.001
			c0.036,0.082,0.073,0.162,0.107,0.244c0.013,0.028,0.021,0.055,0.064,0.052c0.041-0.002,0.076,0.001,0.099-0.045
			c0.036-0.073,0.08-0.144,0.122-0.215c0.008-0.014,0.012-0.035,0.034-0.027c0.022,0.005,0.016,0.025,0.016,0.041
			c-0.003,0.06-0.006,0.119-0.011,0.18c-0.003,0.035-0.01,0.078,0.051,0.063c0.044-0.011,0.124,0.048,0.128-0.054
			c0.005-0.161,0.015-0.322,0.021-0.481c0.001-0.019,0.009-0.04-0.009-0.056c-0.035-0.028-0.208,0.006-0.232,0.046
			c-0.06,0.099-0.118,0.199-0.18,0.3c-0.01-0.008-0.013-0.01-0.015-0.012c-0.032-0.07-0.064-0.14-0.096-0.21
			c-0.062-0.134-0.062-0.132-0.212-0.128c-0.041,0.002-0.054,0.014-0.057,0.051c-0.013,0.161-0.03,0.321-0.045,0.48
			c-0.002,0.028-0.023,0.078,0.038,0.064c0.048-0.01,0.131,0.051,0.139-0.054C49.177,49.644,49.186,49.565,49.191,49.484z
			 M50.811,49.525c-0.104-0.115-0.193-0.21-0.278-0.31c-0.054-0.062-0.125-0.038-0.186-0.031c-0.043,0.006-0.019,0.061-0.021,0.093
			c-0.007,0.145-0.006,0.289-0.013,0.435c-0.003,0.053,0.011,0.078,0.069,0.066c0.045-0.008,0.118,0.034,0.111-0.062
			c-0.006-0.09-0.001-0.181-0.001-0.271c0.107,0.093,0.197,0.185,0.276,0.285c0.056,0.071,0.128,0.045,0.196,0.046
			c0.028,0.002,0.025-0.022,0.025-0.041c-0.002-0.169-0.006-0.339-0.008-0.508c-0.001-0.082-0.064-0.039-0.102-0.046
			c-0.035-0.007-0.075-0.011-0.071,0.048C50.814,49.32,50.811,49.411,50.811,49.525z M51.319,49.484c-0.005,0-0.011,0-0.017,0
			c0-0.084,0-0.168,0-0.252c0-0.097-0.078-0.044-0.121-0.055c-0.048-0.012-0.063,0.011-0.062,0.058
			c0.008,0.142,0.008,0.283,0.011,0.425c0.004,0.131,0.004,0.13,0.142,0.119c0.037-0.004,0.05-0.014,0.049-0.049
			C51.317,49.648,51.319,49.566,51.319,49.484z M49.995,49.488c-0.006,0-0.013,0-0.019,0c0,0.078,0.004,0.157-0.002,0.235
			c-0.002,0.045,0.013,0.06,0.057,0.055c0.023-0.002,0.047-0.002,0.069,0c0.041,0.005,0.061-0.005,0.062-0.051
			c0.001-0.163,0.006-0.327,0.014-0.489c0.003-0.048-0.016-0.068-0.062-0.058c-0.042,0.011-0.12-0.042-0.118,0.055
			C49.996,49.32,49.995,49.404,49.995,49.488z"/>
		<linearGradient id="SVGID_11_" gradientUnits="userSpaceOnUse" x1="48.9888" y1="49.4802" x2="49.8413" y2="49.4802">
			<stop  offset="0" style="stop-color:#FFFFFF"/>
			<stop  offset="1" style="stop-color:#C8C8C8"/>
		</linearGradient>
		<path fill-rule="evenodd" clip-rule="evenodd" fill="url(#SVGID_11_)" d="M49.191,49.484c-0.006,0.081-0.015,0.16-0.021,0.239
			c-0.008,0.104-0.091,0.044-0.139,0.054c-0.062,0.014-0.04-0.036-0.038-0.064c0.015-0.159,0.032-0.319,0.045-0.48
			c0.003-0.037,0.016-0.049,0.057-0.051c0.15-0.004,0.15-0.006,0.212,0.128c0.031,0.07,0.063,0.14,0.096,0.21
			c0.002,0.002,0.005,0.004,0.015,0.012c0.062-0.101,0.12-0.201,0.18-0.3c0.024-0.04,0.197-0.074,0.232-0.046
			c0.018,0.016,0.01,0.037,0.009,0.056c-0.007,0.159-0.017,0.32-0.021,0.481c-0.004,0.102-0.084,0.043-0.128,0.054
			c-0.061,0.015-0.054-0.028-0.051-0.063c0.005-0.061,0.008-0.12,0.011-0.18c0-0.016,0.007-0.036-0.016-0.041
			c-0.022-0.008-0.026,0.014-0.034,0.027c-0.042,0.071-0.086,0.142-0.122,0.215c-0.022,0.046-0.058,0.043-0.099,0.045
			c-0.043,0.003-0.052-0.023-0.064-0.052c-0.034-0.082-0.071-0.162-0.107-0.244C49.202,49.483,49.197,49.483,49.191,49.484z
			 M49.627,49.473c0.005,0.004,0.009,0.008,0.013,0.011c0.004-0.007,0.009-0.012,0.011-0.02c0.001-0.002-0.006-0.008-0.01-0.012
			C49.636,49.46,49.632,49.466,49.627,49.473z"/>
		<linearGradient id="SVGID_12_" gradientUnits="userSpaceOnUse" x1="50.313" y1="49.4773" x2="50.9912" y2="49.4773">
			<stop  offset="0" style="stop-color:#FFFFFF"/>
			<stop  offset="1" style="stop-color:#C8C8C8"/>
		</linearGradient>
		<path fill-rule="evenodd" clip-rule="evenodd" fill="url(#SVGID_12_)" d="M50.811,49.525c0-0.113,0.004-0.205,0-0.297
			c-0.004-0.059,0.036-0.055,0.071-0.048c0.037,0.007,0.101-0.036,0.102,0.046c0.002,0.169,0.006,0.339,0.008,0.508
			c0,0.019,0.003,0.043-0.025,0.041c-0.068-0.001-0.141,0.025-0.196-0.046c-0.079-0.101-0.169-0.192-0.276-0.285
			c0,0.091-0.005,0.182,0.001,0.271c0.007,0.097-0.066,0.055-0.111,0.062c-0.059,0.012-0.072-0.014-0.069-0.066
			c0.007-0.146,0.006-0.29,0.013-0.435c0.002-0.032-0.022-0.087,0.021-0.093c0.061-0.007,0.132-0.03,0.186,0.031
			C50.617,49.315,50.707,49.409,50.811,49.525z"/>
		<linearGradient id="SVGID_13_" gradientUnits="userSpaceOnUse" x1="51.1191" y1="49.4773" x2="51.3203" y2="49.4773">
			<stop  offset="0" style="stop-color:#FFFFFF"/>
			<stop  offset="1" style="stop-color:#C8C8C8"/>
		</linearGradient>
		<path fill-rule="evenodd" clip-rule="evenodd" fill="url(#SVGID_13_)" d="M51.319,49.484c0,0.082-0.002,0.164,0.001,0.246
			c0.001,0.035-0.012,0.045-0.049,0.049c-0.138,0.011-0.138,0.012-0.142-0.119c-0.003-0.142-0.003-0.283-0.011-0.425
			c-0.001-0.047,0.015-0.069,0.062-0.058c0.043,0.011,0.121-0.042,0.121,0.055c0,0.084,0,0.168,0,0.252
			C51.309,49.484,51.314,49.484,51.319,49.484z"/>
		<linearGradient id="SVGID_14_" gradientUnits="userSpaceOnUse" x1="49.9746" y1="49.4768" x2="50.1758" y2="49.4768">
			<stop  offset="0" style="stop-color:#FFFFFF"/>
			<stop  offset="1" style="stop-color:#C8C8C8"/>
		</linearGradient>
		<path fill-rule="evenodd" clip-rule="evenodd" fill="url(#SVGID_14_)" d="M49.995,49.488c0-0.084,0.001-0.168,0-0.253
			c-0.002-0.097,0.076-0.044,0.118-0.055c0.047-0.011,0.065,0.01,0.062,0.058c-0.008,0.162-0.013,0.326-0.014,0.489
			c-0.001,0.046-0.021,0.056-0.062,0.051c-0.022-0.002-0.046-0.002-0.069,0c-0.044,0.005-0.059-0.01-0.057-0.055
			c0.006-0.078,0.002-0.157,0.002-0.235C49.982,49.488,49.989,49.488,49.995,49.488z"/>
		<path fill-rule="evenodd" clip-rule="evenodd" fill="#2B2B2B" d="M49.627,49.473c0.005-0.007,0.009-0.013,0.014-0.021
			c0.004,0.004,0.011,0.01,0.01,0.012c-0.002,0.008-0.007,0.013-0.011,0.02C49.636,49.481,49.632,49.477,49.627,49.473z"/>
		<path opacity="0.8" fill="#C0B9AB" enable-background="new    " d="M64.36,65.053c0,0.697-0.565,1.264-1.263,1.264H37.001
			c-0.697,0-1.262-0.566-1.262-1.264v-3.666c0-0.697,0.565-1.264,1.262-1.264h26.096c0.697,0,1.263,0.566,1.263,1.264V65.053z"/>
		<g>
			<path fill="#C0B9AB" d="M69.818,18.355c-1.755-0.052-10.871-0.557-19.956-0.557s-18.139,0.505-19.894,0.557
				c-3.752,0.111-6.164,2.338-6.164,2.338h25.493h1.19h25.493C75.981,20.693,73.569,18.466,69.818,18.355z"/>
		</g>
		<g>
			<line fill="#C0B9AB" x1="50.104" y1="17.879" x2="50.104" y2="14.574"/>
			<linearGradient id="SVGID_15_" gradientUnits="userSpaceOnUse" x1="49.7705" y1="16.2263" x2="50.4385" y2="16.2263">
				<stop  offset="0" style="stop-color:#FFFFFF"/>
				<stop  offset="1" style="stop-color:#C8C8C8"/>
			</linearGradient>
			<rect x="49.771" y="14.574" fill="url(#SVGID_15_)" width="0.668" height="3.304"/>
		</g>
		<g>
			<line fill="#C0B9AB" x1="50.104" y1="10.2" x2="50.104" y2="14.612"/>
			<linearGradient id="SVGID_16_" gradientUnits="userSpaceOnUse" x1="49.9922" y1="12.406" x2="50.2158" y2="12.406">
				<stop  offset="0" style="stop-color:#FFFFFF"/>
				<stop  offset="1" style="stop-color:#C8C8C8"/>
			</linearGradient>
			<rect x="49.992" y="10.2" fill="url(#SVGID_16_)" width="0.224" height="4.412"/>
		</g>
		<linearGradient id="SVGID_17_" gradientUnits="userSpaceOnUse" x1="76.0029" y1="48.7039" x2="89.3281" y2="48.7039">
			<stop  offset="0" style="stop-color:#FFFFFF"/>
			<stop  offset="1" style="stop-color:#C8C8C8"/>
		</linearGradient>
		<path fill="url(#SVGID_17_)" d="M79.406,42.919c-1.218,0.344-5.196,2.304-2.464,7.152c2.732,4.848,6.51,4.554,6.51,4.554
			s6.588,0.32,5.812-5.974C88.486,42.357,80.626,42.575,79.406,42.919z"/>
		<linearGradient id="SVGID_18_" gradientUnits="userSpaceOnUse" x1="77.167" y1="48.488" x2="88.8232" y2="48.488">
			<stop  offset="0" style="stop-color:#A8A8A8"/>
			<stop  offset="0.3438" style="stop-color:#ABABAB"/>
			<stop  offset="0.5634" style="stop-color:#B4B4B4"/>
			<stop  offset="0.7481" style="stop-color:#C2C2C2"/>
			<stop  offset="0.9126" style="stop-color:#D7D7D7"/>
			<stop  offset="1" style="stop-color:#E6E6E6"/>
		</linearGradient>
		<path fill="url(#SVGID_18_)" d="M88.823,49.131c0,3.445-1.544,4.594-4.845,4.594s-6.812-2.442-6.812-5.887
			c0-3.443,1.284-4.587,4.585-4.587C85.052,43.251,88.823,45.687,88.823,49.131z"/>
		<path opacity="0.4" fill="#C0B9AB" d="M61.995,37.432c0,0-0.803,0.191-1.438-1.439s-0.239-4.732,0-5.672s1.021-1.87,3.61-1.773
			c0,0,3.362-0.161,3.775,1.691c0.412,1.853,0.61,6.114,0,6.521C67.331,37.167,67.404,37.623,61.995,37.432z"/>
		<path fill="#5E5E5E" d="M60.131,37.732c0,0,3.75-3.378,8.575,0h3.267c0,0-7.238-8.018-14.997,0H60.131z"/>
		
			<linearGradient id="SVGID_19_" gradientUnits="userSpaceOnUse" x1="204.7295" y1="49.2302" x2="218.0537" y2="49.2302" gradientTransform="matrix(-1 0 0 1 228.8711 0)">
			<stop  offset="0" style="stop-color:#FFFFFF"/>
			<stop  offset="1" style="stop-color:#C8C8C8"/>
		</linearGradient>
		<path fill="url(#SVGID_19_)" d="M20.738,43.447c1.219,0.344,5.197,2.304,2.464,7.151c-2.732,4.849-6.509,4.554-6.509,4.554
			s-6.589,0.321-5.812-5.973C11.658,42.884,19.519,43.103,20.738,43.447z"/>
		
			<linearGradient id="SVGID_20_" gradientUnits="userSpaceOnUse" x1="205.8936" y1="49.0149" x2="217.5498" y2="49.0149" gradientTransform="matrix(-1 0 0 1 228.8711 0)">
			<stop  offset="0" style="stop-color:#A8A8A8"/>
			<stop  offset="0.3438" style="stop-color:#ABABAB"/>
			<stop  offset="0.5634" style="stop-color:#B4B4B4"/>
			<stop  offset="0.7481" style="stop-color:#C2C2C2"/>
			<stop  offset="0.9126" style="stop-color:#D7D7D7"/>
			<stop  offset="1" style="stop-color:#E6E6E6"/>
		</linearGradient>
		<path fill="url(#SVGID_20_)" d="M11.321,49.659c0,3.443,1.544,4.593,4.845,4.593s6.811-2.442,6.811-5.886
			c0-3.445-1.283-4.589-4.584-4.589S11.321,46.215,11.321,49.659z"/>
		<linearGradient id="SVGID_21_" gradientUnits="userSpaceOnUse" x1="22.1772" y1="60.699" x2="78.0801" y2="60.699">
			<stop  offset="0" style="stop-color:#FFFFFF"/>
			<stop  offset="1" style="stop-color:#C8C8C8"/>
		</linearGradient>
		<path fill="url(#SVGID_21_)" d="M50.118,53.527l15.061,0.496l0.148,0.016l0.174-0.044c0.047-0.008,0.253-0.037,0.605-0.037
			c0.804,0,2.526,0.157,5.034,1.207c3.453,1.446,5.393,5.715,5.544,6.522c0.004,0.057,0.009,0.121,0.016,0.191
			c0.077,0.938,0.262,3.135-1.709,4.482c-0.827,0.564-4.068,1.514-16.483,1.514c-0.524,0-1.008-0.002-1.438-0.002
			c-0.347-0.002-0.658-0.004-0.93-0.004h-4.854H48.95h-4.854c-0.272,0-0.584,0.002-0.93,0.004c-0.429,0-0.912,0.002-1.437,0.002
			c-12.415,0-15.657-0.949-16.483-1.514c-1.836-1.256-1.771-2.713-1.71-4.123c0.01-0.229,0.02-0.445,0.021-0.662
			c0.002-0.326,0.35-1.525,1.374-2.965c0.786-1.105,2.147-2.601,4.164-3.446c2.509-1.05,4.232-1.207,5.036-1.207
			c0.352,0,0.557,0.029,0.605,0.037l0.134,0.034l0.188-0.006L50.118,53.527 M50.151,52.189l-0.033,0.001l-0.033-0.001v0.002
			l-15.072,0.496c0,0-0.3-0.065-0.882-0.065c-1.019,0-2.902,0.201-5.551,1.311c-4.163,1.743-6.351,6.122-6.359,7.637
			c-0.007,1.514-0.529,3.979,2.271,5.893c2.376,1.623,11.941,1.748,17.238,1.748c0.947,0,1.757-0.004,2.367-0.004
			c1.882,0,3.581,0,4.854,0c1.44,0,2.336,0,2.336,0c1.272,0,2.973,0,4.854,0c0.608,0,1.419,0.004,2.367,0.004
			c5.296,0,14.862-0.125,17.237-1.748c2.801-1.914,2.325-5.057,2.271-5.893c-0.055-0.836-2.196-5.894-6.359-7.637
			c-2.648-1.109-4.532-1.311-5.551-1.311c-0.583,0-0.883,0.065-0.883,0.065l-15.072-0.496V52.189L50.151,52.189z"/>
		<path opacity="0.8" fill="#3F3F3F" d="M8.245,71.659c0,0-0.557,9.689,1.374,10.766c1.93,1.076,7.536,0.186,7.536,0.186
			s0.928-0.482,1.002-2.971c0.075-2.486-0.029-3.58-0.029-3.58c0.616,0.061-9.362-0.885-9.543-1.799
			C8.403,73.346,8.222,71.962,8.245,71.659z"/>
		<path opacity="0.4" fill="#C0B9AB" d="M31.607,37.688c0,0-0.803,0.191-1.439-1.439c-0.635-1.63-0.239-4.731,0-5.673
			c0.24-0.94,1.022-1.87,3.611-1.773c0,0,3.362-0.161,3.774,1.691c0.413,1.854,0.612,6.114,0,6.522
			C36.941,37.423,37.015,37.879,31.607,37.688z"/>
		<linearGradient id="SVGID_22_" gradientUnits="userSpaceOnUse" x1="12.6958" y1="47.9612" x2="21.3169" y2="47.9612">
			<stop  offset="0" style="stop-color:#A8A8A8"/>
			<stop  offset="0.3438" style="stop-color:#ABABAB"/>
			<stop  offset="0.5634" style="stop-color:#B4B4B4"/>
			<stop  offset="0.7481" style="stop-color:#C2C2C2"/>
			<stop  offset="0.9126" style="stop-color:#D7D7D7"/>
			<stop  offset="1" style="stop-color:#E6E6E6"/>
		</linearGradient>
		<ellipse fill="url(#SVGID_22_)" cx="17.006" cy="47.961" rx="4.311" ry="3.875"/>
		<linearGradient id="SVGID_23_" gradientUnits="userSpaceOnUse" x1="12.4507" y1="51.5398" x2="21.2041" y2="51.5398">
			<stop  offset="0" style="stop-color:#828282"/>
			<stop  offset="0.4033" style="stop-color:#858585"/>
			<stop  offset="0.6608" style="stop-color:#8D8D8D"/>
			<stop  offset="0.8768" style="stop-color:#9C9C9C"/>
			<stop  offset="1" style="stop-color:#A8A8A8"/>
		</linearGradient>
		<path fill="url(#SVGID_23_)" d="M17.006,53.099c1.399,0,2.819-0.527,3.697-1.166c1.212-0.884-0.068-2.039-0.786-1.299
			c-0.505,0.521-1.687,1.018-2.912,1.018c-1.404,0-2.747-0.484-3.299-1.354c-0.552-0.871-1.772,0.237-1.016,1.121
			C13.175,51.984,14.784,53.099,17.006,53.099z"/>
		<linearGradient id="SVGID_24_" gradientUnits="userSpaceOnUse" x1="15.9844" y1="49.3474" x2="22.9775" y2="49.3474">
			<stop  offset="0" style="stop-color:#FFFFFF"/>
			<stop  offset="1" style="stop-color:#C8C8C8"/>
		</linearGradient>
		<path opacity="0.2" fill="url(#SVGID_24_)" d="M21.505,44.448c-2.44,1.308-5.698,3.602-5.513,6.471
			c0.088,1.357,0.203,2.447,0.355,3.329c3.247-0.087,6.63-2.5,6.63-5.881C22.978,46.346,22.536,45.118,21.505,44.448z"/>
		
			<linearGradient id="SVGID_25_" gradientUnits="userSpaceOnUse" x1="-360.1582" y1="47.9612" x2="-351.5371" y2="47.9612" gradientTransform="matrix(-1 0 0 1 -272.3535 0)">
			<stop  offset="0" style="stop-color:#A8A8A8"/>
			<stop  offset="0.3438" style="stop-color:#ABABAB"/>
			<stop  offset="0.5634" style="stop-color:#B4B4B4"/>
			<stop  offset="0.7481" style="stop-color:#C2C2C2"/>
			<stop  offset="0.9126" style="stop-color:#D7D7D7"/>
			<stop  offset="1" style="stop-color:#E6E6E6"/>
		</linearGradient>
		<ellipse fill="url(#SVGID_25_)" cx="83.494" cy="47.961" rx="4.311" ry="3.875"/>
		
			<linearGradient id="SVGID_26_" gradientUnits="userSpaceOnUse" x1="-360.4033" y1="51.5398" x2="-351.6504" y2="51.5398" gradientTransform="matrix(-1 0 0 1 -272.3535 0)">
			<stop  offset="0" style="stop-color:#828282"/>
			<stop  offset="0.4033" style="stop-color:#858585"/>
			<stop  offset="0.6608" style="stop-color:#8D8D8D"/>
			<stop  offset="0.8768" style="stop-color:#9C9C9C"/>
			<stop  offset="1" style="stop-color:#A8A8A8"/>
		</linearGradient>
		<path fill="url(#SVGID_26_)" d="M83.493,53.099c-1.398,0-2.818-0.527-3.696-1.166c-1.212-0.884,0.068-2.039,0.785-1.299
			c0.505,0.521,1.688,1.018,2.911,1.018c1.403,0,2.748-0.484,3.301-1.354c0.552-0.871,1.771,0.237,1.016,1.121
			C87.326,51.984,85.717,53.099,83.493,53.099z"/>
		
			<linearGradient id="SVGID_27_" gradientUnits="userSpaceOnUse" x1="-356.8691" y1="49.3474" x2="-349.876" y2="49.3474" gradientTransform="matrix(-1 0 0 1 -272.3535 0)">
			<stop  offset="0" style="stop-color:#FFFFFF"/>
			<stop  offset="1" style="stop-color:#C8C8C8"/>
		</linearGradient>
		<path opacity="0.2" fill="url(#SVGID_27_)" d="M78.996,44.448c2.439,1.308,5.697,3.602,5.512,6.471
			c-0.088,1.357-0.202,2.447-0.354,3.329c-3.247-0.087-6.631-2.5-6.631-5.881C77.522,46.346,77.965,45.118,78.996,44.448z"/>
		<path fill="#5E5E5E" d="M90.103,72.108c-0.713,1.395-3.943,1.631-7.354,2.115c-2.979,0.422-24.583,0.871-32.634,0.979
			c-8.052-0.107-29.657-0.557-32.635-0.979c-3.412-0.484-6.641-0.721-7.354-2.115c-0.714-1.396-1.856-10.691-2.618-14.933
			c0.208,2.839,0.505,5.681,0.511,5.73l0.002,0.039c0.089,4.443,0.112,9.979,0.508,11.428c0.329,1.203,13.94,2.057,13.94,2.057
			h23.779h7.733H77.76c0,0,13.611-0.854,13.94-2.057c0.396-1.449,0.417-6.984,0.507-11.428l0.003-0.039
			c0.004-0.049,0.303-2.891,0.511-5.73C91.959,61.417,90.817,70.712,90.103,72.108z"/>
	</g>
	<linearGradient id="SVGID_28_" gradientUnits="userSpaceOnUse" x1="67.3877" y1="78.6394" x2="102.0244" y2="78.6394">
		<stop  offset="0" style="stop-color:#FFFFFF"/>
		<stop  offset="1" style="stop-color:#C8C8C8"/>
	</linearGradient>
	<rect x="67.388" y="66.03" fill="url(#SVGID_28_)" width="34.637" height="25.219"/>
	<g>
		<g>
			<path fill="#787366" d="M104.817,63.915c0,0.516,0,0.812,0,1.107c0,9.455,0,18.91,0,28.365c0,0.996-0.164,1.229-1.125,1.254
				c-1.496,0.041-2.998-0.004-4.496,0.023c-0.734,0.014-0.682-0.613-0.832-1.012c-0.057-0.148,0.268-0.504,0.484-0.686
				c0.242-0.199,0.559-0.309,0.898-0.484c-0.18-0.355-0.328-0.658-0.568-1.143c0.539,0,0.961-0.041,1.371,0.01
				c0.771,0.098,1.02-0.164,1.016-0.973c-0.035-6.24-0.02-12.48-0.02-18.721c0-1.279-0.021-2.562,0.008-3.842
				c0.012-0.539-0.178-0.691-0.709-0.691c-10.52,0.016-21.035,0.018-31.553-0.004c-0.676,0-0.811,0.24-0.809,0.855
				c0.018,7.52,0.02,15.041-0.006,22.561c-0.002,0.67,0.217,0.826,0.844,0.822c3.516-0.027,7.031-0.014,10.545-0.016
				c0.209,0,0.418,0,0.771,0c-0.244,0.43-0.42,0.742-0.625,1.104c0.258,0.148,0.51,0.252,0.707,0.42
				c0.271,0.229,0.73,0.531,0.705,0.754c-0.07,0.58-0.305,1.074-1.137,1.066c-4.551-0.045-9.102-0.018-13.652-0.029
				c-1.156-0.002-1.391-0.252-1.391-1.375c-0.002-9.291-0.002-18.582,0-27.875c0-1.436,0.146-1.596,1.58-1.596
				c11.582-0.006,23.162-0.008,34.74-0.002C102.62,63.811,103.673,63.878,104.817,63.915z"/>
			
				<linearGradient id="SVGID_29_" gradientUnits="userSpaceOnUse" x1="73.2266" y1="60.5847" x2="113.5547" y2="60.5847" gradientTransform="matrix(1 0 0 -1 -8.3599 139.8335)">
				<stop  offset="0" style="stop-color:#FFFFFF"/>
				<stop  offset="1" style="stop-color:#C8C8C8"/>
			</linearGradient>
			<path fill="url(#SVGID_29_)" d="M80.308,95.065h-0.025c-2.439-0.023-4.852-0.027-7.094-0.027l-3.814,0.002
				c-0.914,0-1.826-0.002-2.738-0.004c-1.355-0.002-1.77-0.412-1.77-1.75V65.411c0-1.641,0.33-1.973,1.959-1.975
				c11.582-0.004,23.162-0.008,34.74,0c0.723,0,1.436,0.029,2.188,0.061c0.352,0.016,0.709,0.029,1.076,0.043l0.365,0.012v29.836
				c0,1.078-0.225,1.596-1.492,1.631c-0.52,0.016-1.041,0.02-1.561,0.02l-1.742-0.004c-0.396,0-0.797,0.002-1.193,0.01l0,0
				c-0.885,0-1.043-0.664-1.129-1.021c-0.02-0.082-0.037-0.162-0.066-0.234c-0.152-0.404,0.309-0.869,0.598-1.109
				c0.191-0.16,0.404-0.262,0.629-0.367l-0.666-1.346h0.607c0.172,0,0.332-0.004,0.484-0.01c0.363-0.01,0.678-0.01,0.934,0.021
				c0.084,0.012,0.162,0.018,0.23,0.018c0.092,0,0.211-0.012,0.258-0.059c0.039-0.041,0.104-0.166,0.102-0.557
				c-0.023-4.76-0.021-9.6-0.02-14.279v-4.439c0-0.379-0.002-0.756-0.004-1.133c-0.006-0.891-0.01-1.811,0.012-2.717
				c0.006-0.217-0.031-0.266-0.033-0.266c0,0-0.049-0.041-0.293-0.041c-10.529,0.014-21.043,0.018-31.561-0.004
				c-0.293,0-0.359,0.053-0.369,0.062c-0.02,0.02-0.062,0.098-0.062,0.414c0.02,8.25,0.018,15.631-0.004,22.562
				c-0.002,0.303,0.051,0.371,0.062,0.383c0.014,0.014,0.082,0.061,0.379,0.061c1.85-0.014,3.676-0.018,5.504-0.018l6.482,0.002
				L80.526,92.3c0.148,0.08,0.297,0.166,0.434,0.279c0.051,0.041,0.107,0.086,0.168,0.133c0.352,0.279,0.715,0.566,0.67,0.957
				C81.687,94.596,81.185,95.065,80.308,95.065z M73.187,94.284c2.246,0,4.658,0.004,7.104,0.027l0.016,0.377v-0.377
				c0.471,0,0.662-0.172,0.736-0.672c-0.07-0.088-0.27-0.246-0.381-0.334c-0.066-0.051-0.129-0.104-0.186-0.15
				c-0.104-0.086-0.24-0.158-0.398-0.242c-0.082-0.043-0.168-0.088-0.254-0.139l-0.322-0.186l0.488-0.865L74.8,91.721
				c-1.824,0-3.65,0.002-5.475,0.016c-0.002,0-0.002,0-0.002,0c-0.342,0-0.693-0.035-0.941-0.283
				c-0.252-0.254-0.283-0.625-0.281-0.918c0.021-6.93,0.023-14.307,0.004-22.559c0-0.344,0.033-0.699,0.283-0.947
				c0.25-0.252,0.613-0.283,0.9-0.283c10.525,0.02,21.039,0.018,31.557,0.002c0.271,0,0.607,0.031,0.84,0.27
				s0.252,0.574,0.248,0.809c-0.021,0.896-0.016,1.812-0.014,2.697c0.004,0.377,0.006,0.756,0.006,1.137l-0.002,4.439
				c-0.004,4.68-0.006,9.518,0.02,14.277c0.002,0.354-0.031,0.801-0.32,1.09c-0.242,0.244-0.582,0.326-1.119,0.258
				c-0.191-0.023-0.439-0.025-0.721-0.018l0.467,0.941l-0.33,0.17c-0.111,0.059-0.221,0.109-0.324,0.158
				c-0.203,0.094-0.377,0.176-0.506,0.283c-0.154,0.125-0.283,0.277-0.338,0.363c0.021,0.07,0.041,0.146,0.059,0.225
				c0.094,0.395,0.133,0.439,0.363,0.439c0.42-0.008,0.824-0.01,1.227-0.01l1.742,0.004c0.514,0,1.027-0.002,1.541-0.018
				c0.701-0.02,0.756-0.021,0.758-0.877V64.28c-0.244-0.01-0.48-0.02-0.719-0.027c-0.746-0.033-1.449-0.062-2.154-0.062
				c-11.58-0.006-23.16-0.002-34.74,0.002c-1.205,0-1.205,0-1.205,1.219v27.875c0,0.92,0.076,0.994,1.016,0.996
				c0.912,0.002,1.824,0.002,2.736,0.002H73.187z"/>
		</g>
		<g>
			<path fill="#787366" d="M97.925,90.247c-0.812,0.762-0.842,1.459,0.371,2.006c0,0.084,0.002,0.168,0.004,0.252
				c-0.24,0.129-0.561,0.203-0.699,0.404c-0.145,0.205-0.252,0.646-0.135,0.791c0.475,0.582,0.469,0.938-0.299,1.17
				c-0.168,0.053-0.303,0.211-0.477,0.338c0.098,0.277,0.256,0.531,0.252,0.783c-0.004,0.213-0.203,0.607-0.305,0.605
				c-1.014-0.037-0.982,0.604-0.912,1.297c0.008,0.074-0.043,0.152-0.104,0.344c-1.039-0.363-1.562,0.109-1.529,1.369
				c-1.133-0.725-1.719-0.258-2.082,0.844c-0.863-1.021-1.537-0.811-2.074,0.25c-0.375-0.412-0.66-0.725-1.021-1.125
				c-0.861,0.959-1.514,0.777-1.826-0.447c-0.322,0.088-0.568,0.123-0.789,0.217c-0.516,0.219-0.734-0.023-0.742-0.496
				c-0.01-0.633-0.285-0.816-0.879-0.66c-0.486,0.127-0.762-0.064-0.658-0.592c0.115-0.584,0.021-0.941-0.688-0.955
				c-0.461-0.008-0.707-0.256-0.459-0.764c0.094-0.191,0.125-0.414,0.209-0.707c-0.359-0.232-0.908-0.402-1.043-0.738
				c-0.104-0.262,0.311-0.73,0.697-1.291c-0.213-0.121-0.43-0.236-0.641-0.361c-0.188-0.109-0.367-0.229-0.66-0.414
				c0.521-0.398,0.861-0.66,1.223-0.938c-0.285-0.457-0.496-0.793-0.764-1.221c0.674-0.449,1.744-0.783,0.762-1.904
				c0.309-0.146,0.49-0.289,0.691-0.318c0.557-0.086,0.816-0.328,0.688-0.93c-0.115-0.549,0.225-0.607,0.684-0.609
				c0.262,0,0.68-0.133,0.758-0.32c0.436-1.031,0.406-1.043,1.486-0.615c0.09-0.102,0.238-0.199,0.289-0.332
				c0.283-0.785,0.664-1.062,1.361-0.365c0.082,0.08,0.463-0.018,0.605-0.146c0.217-0.191,0.344-0.482,0.602-0.869
				c0.672,1.111,1.322,1.459,2.098,0.443c0.176,0.217,0.354,0.342,0.395,0.504c0.178,0.688,0.498,0.9,1.166,0.51
				c0.439-0.258,0.66,0.049,0.709,0.459c0.076,0.633,0.344,0.922,1.023,0.742c0.57-0.146,0.572,0.26,0.498,0.637
				c-0.107,0.545,0.078,0.814,0.645,0.861c0.465,0.039,0.857,0.254,0.566,0.785c-0.357,0.648-0.146,0.936,0.488,1.113
				C97.573,89.901,97.702,90.073,97.925,90.247z"/>
			
				<linearGradient id="SVGID_30_" gradientUnits="userSpaceOnUse" x1="89.1387" y1="47.6052" x2="107.043" y2="47.6052" gradientTransform="matrix(1 0 0 -1 -8.3599 139.8335)">
				<stop  offset="0" style="stop-color:#FFFFFF"/>
				<stop  offset="1" style="stop-color:#C8C8C8"/>
			</linearGradient>
			<path fill="url(#SVGID_30_)" d="M90.026,101.362l-1.127-1.24c-0.336,0.299-0.652,0.443-0.967,0.443c-0.35,0-0.805-0.18-1.1-0.986
				c-0.154,0.037-0.279,0.068-0.387,0.113c-0.178,0.074-0.336,0.111-0.484,0.111c-0.371,0-0.771-0.25-0.781-0.949
				c-0.006-0.34-0.074-0.34-0.152-0.34c-0.066,0-0.152,0.014-0.254,0.039c-0.127,0.035-0.248,0.051-0.357,0.051
				c-0.33,0-0.52-0.146-0.619-0.268c-0.164-0.199-0.213-0.473-0.146-0.812c0.066-0.338,0.018-0.418,0.006-0.432
				c-0.02-0.025-0.111-0.07-0.332-0.074c-0.484-0.01-0.713-0.219-0.818-0.393c-0.107-0.174-0.188-0.473,0.029-0.914
				c0.045-0.092,0.072-0.209,0.109-0.357c-0.031-0.016-0.062-0.031-0.094-0.047c-0.336-0.172-0.717-0.369-0.861-0.736
				c-0.16-0.396,0.129-0.797,0.496-1.305c-0.096-0.053-0.189-0.107-0.283-0.162c-0.127-0.076-0.254-0.156-0.414-0.258l-0.711-0.451
				l1.379-1.057l-0.775-1.242l0.305-0.203c0.105-0.07,0.221-0.137,0.338-0.207c0.289-0.172,0.619-0.367,0.65-0.553
				c0.02-0.129-0.088-0.336-0.303-0.582l-0.328-0.373l0.449-0.217c0.1-0.045,0.186-0.094,0.262-0.135
				c0.174-0.096,0.338-0.186,0.537-0.215c0.264-0.041,0.344-0.105,0.369-0.141c0.037-0.057,0.039-0.178,0.006-0.338
				c-0.066-0.314-0.023-0.572,0.129-0.76c0.225-0.277,0.594-0.303,0.922-0.303c0.156,0,0.359-0.072,0.426-0.121l0.021-0.047
				c0.262-0.623,0.434-1.035,0.951-1.035c0.207,0,0.432,0.076,0.76,0.203c0.012-0.012,0.021-0.021,0.025-0.031
				c0.086-0.24,0.363-1.004,1.021-1.004c0.273,0,0.559,0.139,0.865,0.42c0.066-0.014,0.15-0.045,0.184-0.07
				c0.1-0.09,0.191-0.242,0.307-0.436c0.066-0.109,0.141-0.23,0.227-0.359l0.33-0.496l0.309,0.508
				c0.455,0.754,0.744,0.867,0.877,0.867c0.166,0,0.371-0.158,0.596-0.455l0.293-0.381l0.303,0.371
				c0.055,0.066,0.107,0.123,0.156,0.174c0.129,0.135,0.262,0.271,0.312,0.475c0.041,0.156,0.125,0.42,0.236,0.42
				c0.049,0,0.16-0.02,0.373-0.143c0.166-0.1,0.328-0.146,0.484-0.146c0.33,0,0.711,0.232,0.789,0.885
				c0.057,0.465,0.186,0.465,0.297,0.465c0.072,0,0.16-0.014,0.258-0.041c0.447-0.115,0.727,0.049,0.844,0.191
				c0.213,0.26,0.17,0.627,0.121,0.883c-0.037,0.184-0.023,0.285,0.004,0.32c0.025,0.033,0.117,0.076,0.301,0.092
				c0.455,0.039,0.775,0.207,0.926,0.486c0.092,0.172,0.156,0.461-0.062,0.857c-0.156,0.285-0.121,0.375-0.121,0.379
				c0.006,0.01,0.049,0.094,0.383,0.188c0.195,0.055,0.332,0.182,0.467,0.305c0.053,0.047,0.111,0.1,0.178,0.154l0.348,0.271
				l-0.32,0.301c-0.328,0.305-0.488,0.58-0.457,0.771c0.033,0.201,0.291,0.418,0.723,0.613l0.217,0.098l0.016,0.721l-0.203,0.109
				c-0.082,0.045-0.174,0.082-0.264,0.121c-0.115,0.049-0.27,0.115-0.305,0.166c-0.068,0.1-0.117,0.291-0.117,0.383
				c0.23,0.287,0.461,0.66,0.344,1.053c-0.125,0.406-0.551,0.58-0.861,0.674c-0.027,0.008-0.08,0.049-0.131,0.092
				c0.086,0.199,0.18,0.424,0.176,0.674c-0.004,0.227-0.227,0.977-0.682,0.977l-0.082-0.002c-0.201,0-0.344,0.035-0.404,0.102
				c-0.117,0.129-0.078,0.523-0.051,0.783c0.014,0.133-0.027,0.238-0.064,0.34c-0.016,0.041-0.033,0.092-0.053,0.154l-0.117,0.373
				l-0.367-0.129c-0.186-0.064-0.35-0.098-0.484-0.098c-0.191,0-0.277,0.066-0.326,0.115c-0.152,0.16-0.23,0.51-0.219,0.986
				l0.018,0.709l-0.598-0.383c-0.299-0.191-0.553-0.287-0.75-0.287c-0.127,0-0.463,0-0.768,0.932l-0.211,0.645l-0.436-0.52
				c-0.293-0.342-0.559-0.533-0.758-0.533c-0.291,0-0.559,0.445-0.691,0.711L90.026,101.362z M88.911,99.014l0.963,1.059
				c0.555-0.77,1.281-0.877,2-0.291c0.215-0.426,0.598-0.898,1.264-0.898c0.191,0,0.393,0.041,0.605,0.123
				c0.059-0.398,0.189-0.701,0.402-0.92c0.283-0.289,0.691-0.4,1.188-0.312c-0.035-0.408-0.041-0.873,0.258-1.205
				c0.201-0.223,0.494-0.338,0.891-0.35c0.041-0.078,0.082-0.189,0.082-0.236c0.002-0.09-0.057-0.227-0.119-0.373
				c-0.041-0.09-0.08-0.182-0.111-0.277l-0.094-0.262l0.227-0.166c0.049-0.035,0.094-0.074,0.137-0.111
				c0.123-0.105,0.264-0.227,0.453-0.281c0.305-0.094,0.357-0.174,0.359-0.178l0,0c-0.002,0-0.002-0.104-0.24-0.396
				c-0.283-0.346-0.061-0.992,0.117-1.246c0.105-0.154,0.256-0.252,0.41-0.33c-0.418-0.268-0.66-0.584-0.721-0.941
				c-0.061-0.369,0.072-0.754,0.398-1.148c-0.031-0.025-0.059-0.047-0.074-0.055c-0.297-0.084-0.711-0.238-0.871-0.621
				c-0.121-0.287-0.07-0.625,0.154-1.035c0.057-0.104,0.055-0.15,0.055-0.15c-0.008,0-0.098-0.061-0.32-0.08
				c-0.395-0.031-0.67-0.16-0.842-0.389s-0.219-0.529-0.141-0.92c0.018-0.1,0.025-0.166,0.025-0.209
				c-0.016,0.002-0.035,0.006-0.059,0.012c-0.166,0.043-0.312,0.064-0.449,0.064c-0.414,0-0.934-0.197-1.045-1.129
				c-0.014-0.123-0.045-0.193-0.062-0.223c-0.01,0.01-0.039,0.02-0.082,0.045c-0.883,0.516-1.473,0.223-1.721-0.742
				c-0.002-0.006-0.014-0.018-0.025-0.033c-0.291,0.279-0.588,0.414-0.902,0.414c-0.488,0-0.883-0.344-1.186-0.73
				c-0.107,0.174-0.217,0.328-0.363,0.459c-0.189,0.17-0.527,0.27-0.746,0.27c-0.158,0-0.285-0.045-0.377-0.141
				c-0.281-0.279-0.412-0.287-0.426-0.287c-0.035,0-0.162,0.092-0.316,0.516c-0.064,0.18-0.197,0.301-0.291,0.389
				c-0.025,0.023-0.051,0.045-0.07,0.066l-0.176,0.195l-0.244-0.096c-0.322-0.129-0.602-0.238-0.707-0.238
				c-0.033,0.037-0.146,0.309-0.258,0.57l-0.033,0.08c-0.174,0.414-0.82,0.551-1.105,0.551c-0.201,0-0.291,0.018-0.33,0.029
				c0,0.02,0,0.061,0.014,0.123c0.082,0.383,0.041,0.686-0.123,0.924c-0.17,0.242-0.455,0.393-0.877,0.457
				c-0.045,0.006-0.107,0.035-0.184,0.074c0.176,0.291,0.24,0.561,0.197,0.822c-0.084,0.533-0.57,0.822-1,1.076l0.744,1.189
				l-1.066,0.818c0.066,0.041,0.129,0.08,0.193,0.117c0.146,0.09,0.297,0.172,0.445,0.254l0.547,0.309l-0.232,0.338
				c-0.082,0.119-0.166,0.234-0.244,0.342c-0.152,0.213-0.359,0.498-0.398,0.623c0.074,0.102,0.322,0.23,0.492,0.316
				c0.137,0.07,0.273,0.141,0.391,0.217l0.232,0.152l-0.076,0.268c-0.025,0.092-0.047,0.178-0.066,0.258
				c-0.043,0.178-0.084,0.346-0.164,0.51c-0.059,0.119-0.062,0.18-0.061,0.195c0.01,0,0.062,0.023,0.188,0.025
				c0.422,0.01,0.717,0.125,0.904,0.355c0.252,0.312,0.209,0.725,0.145,1.053c-0.018,0.092-0.016,0.15-0.01,0.178
				c0.006-0.002,0.018,0,0.035,0c0.031,0,0.086-0.004,0.168-0.025c0.166-0.045,0.311-0.064,0.443-0.064
				c0.332,0,0.895,0.141,0.908,1.084c0.002,0.141,0.027,0.207,0.039,0.219c0.008-0.014,0.07-0.02,0.18-0.064
				c0.176-0.074,0.355-0.117,0.547-0.162c0.09-0.021,0.186-0.043,0.289-0.07l0.369-0.1l0.096,0.369
				c0.121,0.48,0.305,0.777,0.479,0.777c0.078,0,0.305-0.049,0.701-0.488L88.911,99.014z"/>
		</g>
		<path fill="#787366" d="M84.841,77.811c-4.086-0.002-8.172-0.018-12.258,0.014c-0.715,0.004-0.955-0.189-0.932-0.918
			c0.055-1.578-0.094-1.342,1.369-1.344c8.062-0.006,16.127-0.006,24.189-0.004c0.963,0,0.916,0.01,0.979,1.25
			c0.037,0.789-0.217,1.025-1.008,1.018C93.065,77.794,88.952,77.811,84.841,77.811z"/>
		<path opacity="0.8" fill="#C0B9AB" enable-background="new    " d="M88.702,101.29c0.412,0.447,0.775,0.842,1.229,1.33
			c0.682-1.229,1.508-1.668,2.521-0.293c0.227-0.371,0.436-0.602,0.512-0.869c0.191-0.662,0.506-0.801,1.201-0.625
			c0.607,0.154,0.805,0.365,0.779,0.973c-0.041,1.031-0.018,2.066,0,3.1c0.014,0.646-0.27,0.746-0.814,0.533
			c-1.264-0.488-2.525-0.979-3.807-1.418c-0.273-0.096-0.645-0.07-0.926,0.031c-1.303,0.461-2.586,0.973-3.881,1.457
			c-0.145,0.053-0.312,0.039-0.584,0.07c0-1.457-0.049-2.857,0.051-4.25c0.018-0.225,0.693-0.445,1.094-0.576
			c0.141-0.045,0.439,0.139,0.545,0.299c0.234,0.354,0.396,0.758,0.615,1.203C87.737,101.925,88.183,101.632,88.702,101.29z"/>
		<path fill="#787366" d="M84.849,73.348c-1.957,0-3.918-0.014-5.875,0.01c-0.561,0.004-0.82-0.166-0.734-0.75
			c0.031-0.215,0.029-0.438,0.004-0.652c-0.066-0.592,0.166-0.834,0.777-0.832c3.918,0.012,7.834,0.002,11.754-0.014
			c0.541,0,0.824,0.195,0.797,0.762c-0.01,0.219-0.023,0.439,0.006,0.652c0.094,0.674-0.244,0.838-0.852,0.834
			C88.767,73.335,86.808,73.35,84.849,73.348z"/>
		<path opacity="0.6" fill="#C0B9AB" enable-background="new    " d="M82.876,95.878c0.094-0.191,0.123-0.412,0.207-0.705
			c-0.357-0.234-0.908-0.404-1.041-0.74c-0.105-0.26,0.311-0.729,0.695-1.289c-0.213-0.121-0.43-0.236-0.641-0.363
			c-0.186-0.109-0.367-0.229-0.658-0.414c0.52-0.398,0.859-0.66,1.221-0.938c-0.283-0.455-0.494-0.791-0.764-1.221
			c0.674-0.449,1.746-0.781,0.762-1.904c0.309-0.146,0.49-0.287,0.691-0.318c0.559-0.086,0.816-0.326,0.689-0.93
			c-0.117-0.549,0.225-0.607,0.682-0.607c0.262,0,0.682-0.133,0.76-0.32c0.436-1.031,0.406-1.043,1.484-0.615
			c0.09-0.104,0.24-0.201,0.289-0.334c0.285-0.785,0.664-1.062,1.363-0.365c0.08,0.082,0.461-0.018,0.605-0.145
			c0.215-0.193,0.342-0.482,0.598-0.871c0.674,1.111,1.324,1.461,2.098,0.443c0.178,0.217,0.355,0.344,0.396,0.504
			c0.178,0.689,0.498,0.9,1.166,0.51c0.439-0.258,0.66,0.049,0.709,0.459c0.076,0.635,0.344,0.922,1.023,0.744
			c0.568-0.146,0.572,0.26,0.498,0.637"/>
	</g>
</g>
</svg>
