<?xml version="1.0" encoding="utf-8"?>
<!-- Generator: Adobe Illustrator 16.0.0, SVG Export Plug-In . SVG Version: 6.00 Build 0)  -->
<!DOCTYPE svg PUBLIC "-//W3C//DTD SVG 1.1//EN" "http://www.w3.org/Graphics/SVG/1.1/DTD/svg11.dtd">
<svg version="1.1" id="Layer_1" xmlns="http://www.w3.org/2000/svg" xmlns:xlink="http://www.w3.org/1999/xlink" x="0px" y="0px"
	 width="110.5px" height="115.779px" viewBox="-139.198 -31.22 110.5 115.779"
	 enable-background="new -139.198 -31.22 110.5 115.779" xml:space="preserve">
<g>
	<g>
		<path fill-rule="evenodd" clip-rule="evenodd" fill="#787366" d="M-37.585-14.662c0,0.402,0,0.634,0,0.866
			c0,7.395,0,14.79,0,22.184c0,0.779-0.129,0.96-0.88,0.98c-1.171,0.033-2.344-0.003-3.516,0.019
			c-0.575,0.011-0.534-0.48-0.652-0.791c-0.044-0.117,0.209-0.395,0.379-0.537c0.189-0.156,0.438-0.241,0.702-0.378
			c-0.139-0.279-0.255-0.515-0.443-0.894c0.421,0,0.751-0.033,1.072,0.007c0.604,0.077,0.798-0.127,0.795-0.761
			c-0.027-4.88-0.016-9.76-0.016-14.64c0-1.001-0.016-2.004,0.007-3.005c0.009-0.422-0.139-0.542-0.556-0.541
			c-8.226,0.011-16.451,0.013-24.677-0.003c-0.528-0.001-0.633,0.187-0.632,0.668c0.013,5.881,0.015,11.763-0.004,17.645
			c-0.002,0.524,0.17,0.646,0.661,0.643c2.749-0.02,5.498-0.01,8.247-0.011c0.163,0,0.327,0,0.602,0
			c-0.19,0.336-0.328,0.58-0.488,0.863c0.201,0.116,0.398,0.197,0.553,0.328c0.212,0.179,0.572,0.416,0.551,0.59
			c-0.055,0.454-0.238,0.84-0.89,0.833c-3.559-0.035-7.117-0.014-10.676-0.022c-0.905-0.002-1.088-0.198-1.088-1.075
			c0-7.267,0-14.534,0-21.801c0-1.124,0.115-1.248,1.237-1.248c9.057-0.005,18.114-0.007,27.17-0.002
			C-39.304-14.743-38.481-14.692-37.585-14.662z"/>
		<linearGradient id="SVGID_1_" gradientUnits="userSpaceOnUse" x1="-68.8308" y1="-2.6702" x2="-37.2908" y2="-2.6702">
			<stop  offset="0" style="stop-color:#FFFFFF"/>
			<stop  offset="1" style="stop-color:#C8C8C8"/>
		</linearGradient>
		<path fill="url(#SVGID_1_)" d="M-56.756,9.7h-0.019c-1.91-0.019-3.795-0.021-5.549-0.021l-2.984,0.001
			c-0.714,0-1.427-0.001-2.141-0.003c-1.059-0.002-1.382-0.322-1.382-1.369v-21.801c0-1.283,0.258-1.543,1.532-1.544
			c9.057-0.003,18.114-0.006,27.17-0.001c0.565,0,1.122,0.024,1.71,0.048c0.275,0.011,0.555,0.023,0.842,0.033l0.285,0.009V8.388
			c0,0.843-0.175,1.248-1.166,1.275c-0.407,0.012-0.814,0.015-1.221,0.015l-1.363-0.003c-0.311,0-0.623,0.001-0.934,0.007
			c-0.001,0-0.001,0-0.001,0c-0.691,0-0.815-0.519-0.882-0.797c-0.015-0.064-0.029-0.127-0.051-0.184
			c-0.12-0.317,0.241-0.68,0.467-0.868c0.15-0.125,0.316-0.205,0.493-0.287l-0.521-1.053h0.475c0.135,0,0.261-0.004,0.38-0.008
			c0.284-0.007,0.529-0.008,0.729,0.017c0.066,0.009,0.127,0.013,0.182,0.013c0.071,0,0.164-0.008,0.201-0.046
			c0.03-0.031,0.081-0.129,0.08-0.435c-0.02-3.723-0.018-7.508-0.016-11.168l0.001-3.472c0-0.296-0.002-0.591-0.003-0.886
			c-0.004-0.697-0.007-1.417,0.009-2.125c0.004-0.169-0.024-0.207-0.025-0.208c-0.001,0-0.039-0.031-0.23-0.031
			c-8.235,0.011-16.457,0.013-24.683-0.003c-0.229,0-0.281,0.041-0.29,0.049c-0.015,0.014-0.048,0.076-0.047,0.323
			c0.015,6.454,0.013,12.226-0.004,17.647c0,0.237,0.041,0.291,0.049,0.299c0.011,0.012,0.064,0.047,0.296,0.047
			c1.447-0.01,2.875-0.013,4.304-0.013l5.071,0.002l-0.589,1.041c0.116,0.062,0.232,0.129,0.338,0.219
			c0.04,0.033,0.084,0.068,0.13,0.104c0.275,0.218,0.56,0.443,0.524,0.748C-55.676,9.333-56.068,9.7-56.756,9.7z M-62.323,9.089
			c1.755,0,3.643,0.003,5.555,0.021l0.013,0.295V9.111c0.369,0,0.518-0.134,0.575-0.525c-0.054-0.07-0.209-0.192-0.297-0.262
			c-0.052-0.041-0.101-0.08-0.145-0.117c-0.082-0.068-0.188-0.124-0.312-0.189c-0.065-0.034-0.132-0.07-0.2-0.108l-0.253-0.146
			l0.383-0.677l-4.059-0.002c-1.427,0-2.855,0.002-4.282,0.013c0,0-0.001,0-0.001,0c-0.267,0-0.542-0.027-0.736-0.22
			c-0.197-0.199-0.222-0.489-0.221-0.718c0.017-5.42,0.019-11.19,0.004-17.644c0-0.269,0.026-0.546,0.22-0.741
			c0.196-0.196,0.479-0.222,0.704-0.222c8.233,0.016,16.456,0.013,24.681,0.002c0.213,0,0.476,0.024,0.658,0.209
			c0.181,0.186,0.196,0.45,0.193,0.633c-0.016,0.701-0.013,1.417-0.01,2.109c0.002,0.295,0.004,0.592,0.004,0.889l-0.002,3.473
			c-0.002,3.66-0.004,7.443,0.017,11.165c0.002,0.277-0.025,0.626-0.251,0.853c-0.19,0.191-0.456,0.255-0.876,0.202
			c-0.149-0.019-0.344-0.02-0.563-0.014l0.365,0.736l-0.257,0.134c-0.087,0.045-0.172,0.085-0.254,0.123
			c-0.158,0.074-0.295,0.138-0.395,0.221c-0.12,0.099-0.222,0.218-0.265,0.285c0.017,0.056,0.031,0.114,0.045,0.175
			C-42.21,9.057-42.18,9.093-42,9.093c0.329-0.006,0.644-0.008,0.959-0.008l1.363,0.004c0.402,0,0.803-0.003,1.204-0.014
			c0.548-0.015,0.592-0.016,0.593-0.686l-0.001-22.765c-0.19-0.007-0.376-0.015-0.562-0.022c-0.583-0.025-1.133-0.048-1.686-0.048
			c-9.057-0.005-18.114-0.002-27.17,0.002c-0.943,0-0.943,0-0.943,0.953V8.308c0,0.72,0.06,0.778,0.794,0.78
			c0.713,0.002,1.426,0.002,2.139,0.002L-62.323,9.089z"/>
	</g>
	<g>
		<path fill-rule="evenodd" clip-rule="evenodd" fill="#787366" d="M-42.977,5.932c-0.634,0.595-0.659,1.142,0.29,1.568
			c0.001,0.066,0.002,0.131,0.003,0.197c-0.188,0.101-0.438,0.16-0.546,0.317c-0.112,0.161-0.196,0.506-0.106,0.619
			c0.373,0.455,0.368,0.733-0.234,0.916c-0.131,0.041-0.236,0.166-0.373,0.265c0.077,0.216,0.201,0.415,0.198,0.611
			c-0.003,0.167-0.159,0.476-0.238,0.474c-0.794-0.028-0.768,0.472-0.713,1.016c0.005,0.057-0.034,0.119-0.082,0.269
			c-0.812-0.284-1.223,0.085-1.197,1.07c-0.886-0.566-1.345-0.202-1.627,0.661c-0.675-0.8-1.203-0.636-1.622,0.196
			c-0.293-0.323-0.516-0.568-0.799-0.88c-0.674,0.75-1.184,0.607-1.428-0.351c-0.253,0.068-0.444,0.096-0.617,0.169
			c-0.404,0.171-0.575-0.017-0.581-0.387c-0.007-0.495-0.223-0.638-0.688-0.516c-0.379,0.099-0.595-0.05-0.514-0.463
			c0.09-0.457,0.016-0.736-0.538-0.748c-0.36-0.006-0.552-0.2-0.358-0.597c0.073-0.149,0.097-0.323,0.162-0.552
			c-0.28-0.183-0.71-0.315-0.814-0.578c-0.082-0.204,0.243-0.57,0.545-1.008c-0.167-0.095-0.336-0.185-0.501-0.284
			c-0.146-0.086-0.287-0.179-0.516-0.324c0.407-0.312,0.673-0.516,0.956-0.733c-0.223-0.356-0.388-0.62-0.598-0.955
			c0.527-0.352,1.365-0.612,0.596-1.49c0.241-0.114,0.384-0.225,0.541-0.249c0.437-0.067,0.639-0.255,0.539-0.728
			c-0.091-0.429,0.176-0.475,0.534-0.476c0.205,0,0.532-0.104,0.594-0.251c0.34-0.806,0.317-0.815,1.161-0.481
			c0.07-0.08,0.188-0.156,0.226-0.261c0.223-0.614,0.52-0.831,1.066-0.286c0.063,0.063,0.362-0.014,0.473-0.114
			c0.169-0.15,0.269-0.377,0.47-0.68c0.526,0.87,1.035,1.142,1.64,0.348c0.138,0.17,0.278,0.268,0.31,0.394
			c0.139,0.539,0.388,0.704,0.911,0.398c0.344-0.201,0.516,0.038,0.555,0.359c0.06,0.496,0.27,0.721,0.801,0.582
			c0.446-0.115,0.447,0.202,0.389,0.497c-0.083,0.426,0.062,0.637,0.504,0.674c0.364,0.031,0.67,0.199,0.442,0.615
			c-0.279,0.506-0.114,0.73,0.383,0.871C-43.251,5.662-43.15,5.796-42.977,5.932z"/>
		<linearGradient id="SVGID_2_" gradientUnits="userSpaceOnUse" x1="-56.386" y1="7.4817" x2="-42.3845" y2="7.4817">
			<stop  offset="0" style="stop-color:#FFFFFF"/>
			<stop  offset="1" style="stop-color:#C8C8C8"/>
		</linearGradient>
		<path fill="url(#SVGID_2_)" d="M-49.154,14.625l-0.881-0.97c-0.263,0.233-0.512,0.347-0.757,0.347
			c-0.273,0-0.628-0.142-0.86-0.771c-0.12,0.028-0.218,0.052-0.302,0.088c-0.138,0.059-0.262,0.087-0.379,0.087
			c-0.291,0-0.604-0.194-0.612-0.742c-0.004-0.267-0.058-0.267-0.119-0.267c-0.052,0-0.119,0.011-0.199,0.031
			c-0.099,0.027-0.193,0.04-0.28,0.04c-0.258,0-0.406-0.114-0.484-0.21c-0.128-0.156-0.167-0.37-0.114-0.635
			c0.052-0.264,0.014-0.327,0.005-0.337c-0.016-0.02-0.088-0.055-0.259-0.058c-0.38-0.008-0.559-0.171-0.641-0.307
			c-0.083-0.135-0.146-0.369,0.023-0.715c0.035-0.071,0.057-0.163,0.085-0.279c-0.024-0.012-0.048-0.024-0.072-0.037
			c-0.263-0.135-0.561-0.29-0.674-0.576c-0.124-0.311,0.101-0.625,0.388-1.021c-0.074-0.042-0.148-0.084-0.221-0.127
			c-0.1-0.059-0.198-0.122-0.323-0.201l-0.557-0.353l1.079-0.828l-0.607-0.971l0.239-0.159c0.083-0.056,0.173-0.108,0.265-0.163
			c0.227-0.134,0.484-0.286,0.508-0.432c0.016-0.102-0.068-0.264-0.236-0.456l-0.257-0.292l0.352-0.168
			c0.078-0.036,0.144-0.073,0.204-0.105c0.137-0.075,0.266-0.146,0.42-0.169c0.207-0.031,0.27-0.082,0.29-0.11
			c0.03-0.043,0.031-0.139,0.004-0.264c-0.052-0.247-0.018-0.447,0.1-0.594c0.176-0.218,0.465-0.237,0.722-0.238
			c0.121,0,0.281-0.056,0.333-0.095l0.016-0.037c0.205-0.487,0.34-0.809,0.745-0.809c0.161,0,0.336,0.059,0.593,0.159
			c0.009-0.01,0.017-0.018,0.02-0.024c0.068-0.189,0.285-0.785,0.799-0.785c0.215,0,0.437,0.108,0.677,0.328
			c0.053-0.011,0.119-0.036,0.144-0.056c0.079-0.07,0.15-0.189,0.241-0.339c0.052-0.086,0.109-0.181,0.177-0.283l0.257-0.388
			l0.242,0.397c0.356,0.59,0.582,0.678,0.685,0.678c0.129,0,0.291-0.123,0.467-0.355l0.228-0.298l0.236,0.291
			c0.042,0.052,0.085,0.096,0.123,0.136c0.1,0.106,0.204,0.214,0.244,0.372c0.032,0.122,0.099,0.329,0.186,0.329
			c0.038,0,0.125-0.015,0.291-0.111c0.13-0.077,0.258-0.114,0.38-0.114c0.258,0,0.556,0.181,0.617,0.692
			c0.043,0.363,0.144,0.363,0.232,0.363c0.055,0,0.124-0.01,0.202-0.031c0.349-0.09,0.567,0.038,0.658,0.149
			c0.167,0.203,0.133,0.492,0.095,0.691c-0.028,0.144-0.017,0.224,0.003,0.25c0.021,0.027,0.092,0.059,0.236,0.072
			c0.356,0.03,0.607,0.162,0.724,0.38c0.073,0.135,0.123,0.361-0.048,0.671c-0.122,0.224-0.095,0.293-0.095,0.296
			c0.004,0.008,0.038,0.074,0.3,0.147c0.152,0.042,0.26,0.142,0.365,0.237c0.042,0.038,0.087,0.079,0.14,0.122l0.271,0.212
			l-0.25,0.235c-0.255,0.239-0.382,0.454-0.357,0.604c0.027,0.157,0.227,0.327,0.565,0.479l0.17,0.076l0.012,0.564l-0.16,0.086
			c-0.064,0.035-0.135,0.065-0.206,0.096c-0.089,0.038-0.21,0.09-0.238,0.129c-0.054,0.077-0.092,0.228-0.092,0.298
			c0.18,0.226,0.361,0.518,0.268,0.824c-0.097,0.318-0.431,0.454-0.672,0.527c-0.023,0.006-0.063,0.039-0.103,0.072
			c0.067,0.156,0.141,0.333,0.138,0.527c-0.003,0.177-0.177,0.763-0.533,0.763l-0.065-0.002c-0.157,0-0.269,0.028-0.315,0.081
			c-0.092,0.1-0.061,0.408-0.04,0.612c0.01,0.104-0.021,0.186-0.051,0.266c-0.012,0.032-0.026,0.071-0.042,0.12l-0.091,0.292
			l-0.289-0.101c-0.145-0.051-0.272-0.076-0.378-0.076c-0.149,0-0.217,0.052-0.255,0.09c-0.12,0.124-0.182,0.398-0.172,0.77
			l0.014,0.556l-0.467-0.299c-0.234-0.149-0.432-0.225-0.587-0.225c-0.099,0-0.363,0-0.601,0.729l-0.165,0.503l-0.341-0.405
			c-0.228-0.268-0.438-0.417-0.593-0.417c-0.227,0-0.436,0.348-0.541,0.556L-49.154,14.625z M-50.025,12.788l0.752,0.829
			c0.434-0.603,1.003-0.687,1.564-0.228c0.169-0.333,0.469-0.704,0.988-0.704c0.15,0,0.308,0.032,0.475,0.096
			c0.044-0.312,0.148-0.548,0.315-0.719c0.221-0.227,0.54-0.314,0.928-0.245c-0.028-0.318-0.033-0.682,0.202-0.942
			c0.157-0.174,0.386-0.264,0.696-0.273c0.032-0.062,0.063-0.147,0.064-0.185c0.002-0.071-0.044-0.178-0.094-0.292
			c-0.031-0.07-0.062-0.142-0.087-0.216l-0.073-0.206l0.177-0.13c0.038-0.027,0.073-0.058,0.107-0.087
			c0.096-0.083,0.206-0.177,0.353-0.221c0.239-0.073,0.28-0.136,0.281-0.138l0,0c-0.001,0-0.002-0.081-0.188-0.31
			c-0.221-0.271-0.046-0.775,0.092-0.974c0.084-0.121,0.201-0.198,0.321-0.258c-0.327-0.21-0.516-0.457-0.563-0.737
			c-0.048-0.29,0.057-0.59,0.312-0.898c-0.024-0.021-0.046-0.038-0.059-0.043c-0.231-0.064-0.556-0.186-0.681-0.486
			c-0.095-0.224-0.055-0.488,0.121-0.809c0.044-0.081,0.043-0.117,0.043-0.117c-0.006,0-0.077-0.047-0.25-0.062
			c-0.308-0.025-0.523-0.125-0.658-0.304c-0.135-0.179-0.172-0.415-0.111-0.72c0.015-0.078,0.021-0.13,0.021-0.165
			c-0.013,0.002-0.028,0.006-0.046,0.009c-0.129,0.034-0.244,0.05-0.351,0.05c-0.325,0-0.731-0.153-0.818-0.883
			c-0.012-0.096-0.036-0.15-0.05-0.173c-0.007,0.006-0.029,0.014-0.063,0.034c-0.689,0.402-1.151,0.174-1.345-0.58
			c-0.003-0.005-0.011-0.014-0.021-0.026c-0.228,0.218-0.46,0.325-0.706,0.325c-0.382,0-0.69-0.269-0.927-0.572
			c-0.084,0.137-0.168,0.257-0.283,0.359C-49.736,1.922-50,2-50.171,2c-0.123,0-0.222-0.036-0.294-0.109
			c-0.22-0.219-0.322-0.225-0.333-0.225c-0.028,0-0.127,0.072-0.247,0.403c-0.051,0.141-0.154,0.235-0.229,0.305
			c-0.02,0.018-0.04,0.035-0.055,0.052l-0.137,0.153l-0.191-0.076c-0.253-0.1-0.471-0.186-0.554-0.186
			c-0.026,0.029-0.115,0.242-0.201,0.447l-0.026,0.062c-0.137,0.324-0.642,0.431-0.865,0.431c-0.158,0.001-0.228,0.013-0.258,0.023
			c0,0.017,0,0.048,0.011,0.096c0.063,0.3,0.032,0.537-0.097,0.723c-0.132,0.19-0.356,0.307-0.686,0.358
			c-0.036,0.005-0.084,0.027-0.144,0.058c0.137,0.227,0.187,0.438,0.154,0.643c-0.067,0.417-0.446,0.643-0.783,0.842l0.583,0.93
			l-0.834,0.64c0.052,0.033,0.102,0.063,0.151,0.093c0.116,0.069,0.232,0.134,0.35,0.198l0.428,0.241l-0.184,0.265
			c-0.063,0.093-0.129,0.183-0.19,0.268c-0.12,0.166-0.281,0.388-0.312,0.487c0.058,0.079,0.252,0.179,0.384,0.248
			c0.107,0.056,0.213,0.11,0.305,0.17l0.182,0.119l-0.06,0.208c-0.021,0.073-0.037,0.14-0.052,0.203
			c-0.034,0.139-0.066,0.27-0.129,0.398c-0.045,0.093-0.047,0.14-0.047,0.153c0.007-0.001,0.048,0.018,0.146,0.02
			c0.33,0.007,0.562,0.098,0.707,0.278c0.197,0.244,0.165,0.567,0.114,0.822c-0.014,0.073-0.013,0.118-0.009,0.14
			c0.006-0.001,0.015,0.001,0.028,0c0.025,0,0.068-0.003,0.13-0.02c0.13-0.034,0.244-0.05,0.348-0.05
			c0.26,0,0.698,0.109,0.709,0.848c0.001,0.109,0.022,0.161,0.03,0.171c0.007-0.011,0.055-0.015,0.141-0.051
			c0.137-0.059,0.278-0.092,0.428-0.127c0.07-0.017,0.145-0.034,0.227-0.056l0.289-0.078l0.074,0.29
			c0.095,0.374,0.239,0.607,0.375,0.607c0.062,0,0.239-0.038,0.548-0.382L-50.025,12.788z"/>
	</g>
	<path fill-rule="evenodd" clip-rule="evenodd" fill="#787366" d="M-53.21-3.795c-3.196-0.001-6.392-0.013-9.587,0.011
		c-0.558,0.004-0.747-0.148-0.728-0.718c0.042-1.234-0.073-1.05,1.07-1.051c6.306-0.005,12.613-0.004,18.919-0.003
		c0.752,0,0.716,0.007,0.765,0.978c0.029,0.617-0.169,0.802-0.788,0.796C-46.776-3.809-49.993-3.794-53.21-3.795z"/>
	<path opacity="0.8" fill-rule="evenodd" clip-rule="evenodd" fill="#C0B9AB" enable-background="new    " d="M-50.189,14.569
		c0.321,0.349,0.606,0.658,0.96,1.041c0.533-0.961,1.179-1.305,1.973-0.229c0.176-0.291,0.34-0.471,0.399-0.681
		c0.149-0.519,0.396-0.625,0.939-0.488c0.475,0.12,0.63,0.285,0.61,0.76c-0.033,0.807-0.015,1.617,0,2.425
		c0.009,0.506-0.212,0.583-0.639,0.417c-0.988-0.383-1.975-0.766-2.976-1.11c-0.215-0.075-0.505-0.054-0.725,0.024
		c-1.019,0.362-2.023,0.762-3.036,1.14c-0.112,0.042-0.244,0.031-0.456,0.056c0-1.139-0.04-2.235,0.04-3.324
		c0.013-0.176,0.542-0.349,0.855-0.452c0.109-0.035,0.342,0.11,0.425,0.234c0.184,0.278,0.31,0.594,0.481,0.94
		C-50.945,15.064-50.596,14.836-50.189,14.569z"/>
	<path fill-rule="evenodd" clip-rule="evenodd" fill="#787366" d="M-53.203-7.285c-1.532,0-3.064-0.01-4.596,0.008
		c-0.438,0.004-0.64-0.13-0.573-0.587c0.024-0.167,0.021-0.342,0.002-0.51c-0.052-0.463,0.13-0.651,0.608-0.649
		c3.064,0.008,6.127,0.001,9.192-0.011c0.423-0.001,0.645,0.152,0.624,0.596c-0.008,0.169-0.018,0.342,0.005,0.509
		c0.073,0.528-0.191,0.657-0.667,0.652C-50.139-7.295-51.671-7.284-53.203-7.285z"/>
	<path opacity="0.6" fill-rule="evenodd" clip-rule="evenodd" fill="#C0B9AB" enable-background="new    " d="M-54.747,10.336
		c0.073-0.149,0.097-0.323,0.162-0.552c-0.28-0.183-0.71-0.315-0.815-0.578c-0.082-0.204,0.244-0.57,0.545-1.008
		c-0.167-0.095-0.336-0.185-0.501-0.284c-0.146-0.086-0.287-0.179-0.516-0.324c0.407-0.312,0.673-0.516,0.956-0.733
		c-0.223-0.356-0.388-0.62-0.598-0.955c0.526-0.352,1.364-0.612,0.595-1.49c0.241-0.114,0.384-0.225,0.541-0.249
		c0.437-0.067,0.639-0.255,0.538-0.728c-0.09-0.429,0.177-0.475,0.534-0.476c0.205,0,0.532-0.104,0.594-0.251
		c0.34-0.806,0.317-0.815,1.161-0.481c0.071-0.08,0.188-0.156,0.226-0.261c0.223-0.614,0.52-0.831,1.066-0.286
		c0.063,0.063,0.362-0.014,0.473-0.114c0.169-0.15,0.268-0.377,0.469-0.68c0.527,0.87,1.036,1.142,1.64,0.348
		c0.139,0.17,0.278,0.268,0.31,0.394c0.139,0.539,0.389,0.704,0.912,0.398c0.344-0.201,0.516,0.038,0.555,0.359
		c0.06,0.496,0.27,0.721,0.801,0.582c0.445-0.115,0.447,0.202,0.389,0.497"/>
</g>
<g>
	<path fill="#787366" d="M-57.921,18.414c1.084,0.994,6.49,12.427,6.49,12.427l1.065,1.331l0.932-1.065l-0.266-1.731
		c0,0-0.071-1.199,0.532-1.864c0.603-0.665,2.131-0.667,2.131-0.667s1.656,0.063,2.797,0.799c1.14,0.737,1.36,1.068,1.464,1.731
		c0.105,0.664-0.27,1.061-0.666,1.598c-0.396,0.538-1.865,0.799-1.865,0.799l-2.396,0.532l-0.933,1.731l2.796,3.196
		c0,0,1.892,4.404,2.131,6.125c0.239,1.722-0.532,9.056-0.532,9.056s-0.261,13.035-0.666,14.515
		c-0.405,1.48-0.933,1.732-0.933,1.732h-6.392l-0.799-1.732l-3.462-3.195h-21.545h-1.626h-21.545l-3.462,3.195l-0.799,1.732h-6.392
		c0,0-0.528-0.252-0.932-1.732c-0.405-1.479-0.666-14.515-0.666-14.515s-0.771-7.334-0.532-9.056c0.239-1.721,2.13-6.125,2.13-6.125
		l2.797-3.196l-0.933-1.731l-2.397-0.532c0,0-1.469-0.261-1.864-0.799s-0.771-0.935-0.666-1.598s0.325-0.994,1.465-1.731
		c1.141-0.736,2.797-0.799,2.797-0.799s1.527,0.001,2.131,0.667c0.603,0.665,0.532,1.864,0.532,1.864l-0.266,1.731l0.932,1.065
		l1.065-1.332c0,0,5.118-11.433,6.203-12.427H-57.921z"/>
	<linearGradient id="SVGID_3_" gradientUnits="userSpaceOnUse" x1="-115.3044" y1="43.5374" x2="-42.3953" y2="43.5374">
		<stop  offset="0" style="stop-color:#FFFFFF"/>
		<stop  offset="1" style="stop-color:#C8C8C8"/>
	</linearGradient>
	<path fill="url(#SVGID_3_)" d="M-45.757,69.023h-6.706l-0.866-1.876l-3.305-3.051h-44.433l-3.305,3.051l-0.866,1.876h-6.706
		l-0.074-0.035c-0.113-0.054-0.699-0.401-1.126-1.963c-0.408-1.494-0.664-13.867-0.678-14.588c-0.05-0.471-0.769-7.405-0.53-9.127
		c0.243-1.75,2.079-6.038,2.156-6.22l0.023-0.053l2.669-3.049l-0.735-1.365l-2.235-0.496c-0.253-0.044-1.619-0.315-2.077-0.938
		c-0.043-0.059-0.087-0.117-0.129-0.172c-0.354-0.47-0.72-0.956-0.603-1.696c0.129-0.822,0.464-1.228,1.626-1.979
		c1.209-0.781,2.908-0.854,2.979-0.856c0.193-0.001,1.722,0.022,2.413,0.784c0.698,0.769,0.629,2.074,0.626,2.129l-0.003,0.034
		l-0.241,1.564l0.537,0.613l0.766-0.958c0.61-1.361,5.174-11.5,6.27-12.504l0.104-0.095h42.426l0.104,0.095
		c1.094,1.002,5.917,11.155,6.554,12.501l0.769,0.96l0.536-0.613l-0.244-1.598c-0.003-0.055-0.072-1.36,0.625-2.129
		c0.691-0.762,2.227-0.785,2.399-0.785c0.085,0.003,1.783,0.076,2.993,0.857c1.162,0.751,1.496,1.157,1.626,1.979
		c0.117,0.74-0.249,1.226-0.602,1.696c-0.042,0.056-0.086,0.114-0.129,0.173c-0.459,0.623-1.824,0.894-2.093,0.941l-2.22,0.494
		l-0.735,1.364l2.668,3.05l0.023,0.053c0.078,0.182,1.914,4.469,2.157,6.219c0.239,1.722-0.48,8.654-0.53,9.127
		c-0.014,0.721-0.27,13.094-0.678,14.588c-0.427,1.562-1.013,1.909-1.126,1.963L-45.757,69.023z M-51.999,68.298h6.041
		c0.123-0.114,0.435-0.486,0.702-1.464c0.322-1.18,0.581-10.814,0.653-14.427l0.002-0.031c0.008-0.072,0.765-7.309,0.534-8.968
		c-0.215-1.554-1.87-5.48-2.083-5.98l-2.924-3.342l1.13-2.098l2.559-0.569c0.566-0.101,1.438-0.37,1.651-0.66
		c0.045-0.062,0.09-0.122,0.135-0.18c0.351-0.467,0.531-0.729,0.465-1.147c-0.082-0.519-0.215-0.781-1.303-1.484
		c-1.044-0.675-2.598-0.741-2.614-0.741c-0.367,0.001-1.444,0.101-1.849,0.547c-0.403,0.445-0.455,1.278-0.44,1.583l0.29,1.88
		l-1.329,1.518l-1.362-1.703l-0.018-0.038c-2.085-4.411-5.408-11.134-6.318-12.22h-41.833c-0.896,1.085-4.055,7.804-6.028,12.213
		l-0.019,0.042l-1.364,1.706l-1.329-1.518l0.289-1.878c0.004-0.127,0.021-1.078-0.44-1.585c-0.404-0.446-1.508-0.547-1.863-0.547
		c-0.001,0-1.559,0.069-2.6,0.741c-1.088,0.703-1.222,0.965-1.304,1.484c-0.066,0.417,0.114,0.68,0.466,1.147
		c0.044,0.058,0.089,0.118,0.134,0.18c0.213,0.29,1.085,0.559,1.636,0.657l2.574,0.571l1.13,2.098l-2.924,3.342
		c-0.212,0.499-1.867,4.426-2.082,5.98c-0.23,1.659,0.526,8.896,0.534,8.968l0.002,0.031c0.072,3.612,0.331,13.247,0.653,14.427
		c0.267,0.977,0.58,1.35,0.702,1.464h6.041l0.732-1.586l3.619-3.341h45l3.619,3.341L-51.999,68.298z"/>
</g>
<g opacity="0.8">
	<path fill="#5E5E5E" d="M-52.547,31.997c0,0-5.02-12.907-6.514-13.146c-1.237-0.198-14.594-0.396-19.157-0.458
		c0-0.012,0-0.02,0-0.02s-0.276,0.003-0.759,0.01c-0.483-0.006-0.759-0.01-0.759-0.01s0,0.008,0,0.02
		c-4.563,0.062-17.92,0.26-19.157,0.458c-1.494,0.239-6.514,13.146-6.514,13.146s24.4-0.212,26.43-0.197
		S-52.547,31.997-52.547,31.997z"/>
	<linearGradient id="SVGID_4_" gradientUnits="userSpaceOnUse" x1="-105.6721" y1="25.1848" x2="-52.281" y2="25.1848">
		<stop  offset="0" style="stop-color:#FFFFFF"/>
		<stop  offset="1" style="stop-color:#C8C8C8"/>
	</linearGradient>
	<path fill="url(#SVGID_4_)" d="M-78.218,18.373c0,0,0,0.008,0,0.02c4.563,0.062,17.92,0.26,19.157,0.458
		c1.494,0.239,6.514,13.146,6.514,13.146s-24.399-0.182-26.43-0.197c-0.07,0-0.165-0.001-0.285-0.001
		c-3.387,0-26.145,0.198-26.145,0.198s5.02-12.907,6.514-13.146c1.237-0.198,14.594-0.396,19.157-0.458c0-0.012,0-0.02,0-0.02
		s0.275,0.003,0.759,0.01C-78.493,18.376-78.218,18.373-78.218,18.373 M-79.908,18.19l-0.001,0.024
		c-5.452,0.075-17.8,0.264-19.012,0.458c-0.28,0.045-0.735,0.341-1.778,2.247c-0.605,1.104-1.337,2.626-2.176,4.521
		c-1.426,3.223-2.687,6.458-2.699,6.491l-0.097,0.249l0.267-0.002c0.228-0.002,22.796-0.197,26.144-0.198
		c0.122,0,0.215,0.001,0.284,0.001l26.43,0.197l0.267,0.002l-0.097-0.249c-0.013-0.033-1.273-3.268-2.7-6.491
		c-0.839-1.895-1.571-3.417-2.176-4.521c-1.043-1.906-1.499-2.202-1.778-2.247c-1.212-0.194-13.56-0.383-19.012-0.458l-0.001-0.024
		l-0.175,0.001l-0.759,0.01l-0.754-0.01L-79.908,18.19L-79.908,18.19z"/>
</g>
<linearGradient id="SVGID_5_" gradientUnits="userSpaceOnUse" x1="-110.7346" y1="41.0276" x2="-99.5354" y2="41.0276">
	<stop  offset="0" style="stop-color:#FFFFFF"/>
	<stop  offset="1" style="stop-color:#C8C8C8"/>
</linearGradient>
<path opacity="0.8" fill="url(#SVGID_5_)" d="M-103.561,45.498c-2.208,1.13-4.365,1.086-5.941-0.404
	c-1.309-1.235-1.646-3.057-0.67-4.848c1.052-1.928,2.736-3.638,5.222-4.303c2.627-0.703,3.934,0.851,4.902,2.333
	C-98.554,40.541-100.509,43.932-103.561,45.498z"/>
<path opacity="0.6" fill="#C0B9AB" enable-background="new    " d="M-59.121,31.997h-5.434c0,0-2.354,4.026-2.898,5.663
	c-0.543,1.636-1.992,6-1.992,6s5.508,0.99,5.705,0.53c0.095-0.223,0.676-3.511,1.63-6.036
	C-61.156,35.63-59.121,31.997-59.121,31.997z"/>
<path opacity="0.6" fill="#C0B9AB" enable-background="new    " d="M-97.833,31.997h5.433c0,0,2.354,4.026,2.898,5.663
	c0.543,1.636,1.992,6,1.992,6s-5.508,0.99-5.705,0.53c-0.095-0.223-0.677-3.511-1.63-6.036
	C-95.798,35.63-97.833,31.997-97.833,31.997z"/>
<linearGradient id="SVGID_6_" gradientUnits="userSpaceOnUse" x1="-59.6624" y1="41.0276" x2="-48.4631" y2="41.0276">
	<stop  offset="0" style="stop-color:#FFFFFF"/>
	<stop  offset="1" style="stop-color:#C8C8C8"/>
</linearGradient>
<path opacity="0.8" fill="url(#SVGID_6_)" d="M-59.151,38.276c0.969-1.482,2.275-3.036,4.902-2.333
	c2.486,0.665,4.17,2.375,5.222,4.303c0.976,1.792,0.639,3.613-0.669,4.848c-1.576,1.49-3.733,1.534-5.941,0.404
	C-58.688,43.932-60.643,40.541-59.151,38.276z"/>
<path opacity="0.8" fill="#C0B9AB" enable-background="new    " d="M-57.054,54.062c0,0.567-0.858,1.027-1.917,1.027h-39.62
	c-1.059,0-1.917-0.46-1.917-1.027V51.08c0-0.567,0.858-1.027,1.917-1.027h39.62c1.059,0,1.917,0.46,1.917,1.027V54.062z"/>
<linearGradient id="SVGID_7_" gradientUnits="userSpaceOnUse" x1="-101.5051" y1="50.2952" x2="-56.03" y2="50.2952">
	<stop  offset="0" style="stop-color:#FFFFFF"/>
	<stop  offset="1" style="stop-color:#C8C8C8"/>
</linearGradient>
<path fill="url(#SVGID_7_)" d="M-61.254,44.792c-3.385-1.417-5.231-1.012-5.231-1.012l-12.255-0.403l0-0.002l-0.027,0.001
	l-0.026-0.001l0,0.002l-12.256,0.403c0,0-1.846-0.405-5.231,1.012c-3.385,1.418-5.601,5.737-5.17,6.21c0,0-0.431,3.235,1.847,4.792
	c2.277,1.556,12.679,1.417,15.94,1.417c1.531,0,2.912,0,3.947,0c1.171,0,1.9,0,1.9,0c1.035,0,2.417,0,3.947,0
	c3.262,0,13.664,0.139,15.941-1.417c2.277-1.557,1.846-4.792,1.846-4.792C-55.653,50.53-57.869,46.21-61.254,44.792z"/>
<path opacity="0.8" fill="#5E5E5E" d="M-62.547,45.404c-3.155-1.268-4.876-0.905-4.876-0.905l-11.422-0.361v-0.001h-0.025h-0.025
	v0.001l-11.422,0.361c0,0-1.721-0.362-4.875,0.905c-3.155,1.268-5.22,5.131-4.819,5.554c0,0-0.401,2.895,1.721,4.286
	c2.122,1.393,11.816,1.268,14.856,1.268c1.426,0,2.714,0,3.679,0c1.092,0,1.771,0,1.771,0c0.965,0,2.252,0,3.679,0
	c3.04,0,12.734,0.125,14.856-1.268c2.123-1.392,1.721-4.286,1.721-4.286C-57.327,50.534-59.392,46.671-62.547,45.404z"/>
<linearGradient id="SVGID_8_" gradientUnits="userSpaceOnUse" x1="-101.1409" y1="788.7913" x2="-95.26" y2="788.7913" gradientTransform="matrix(1 0 0 1 -8.415 -732.5273)">
	<stop  offset="0" style="stop-color:#FFFFFF"/>
	<stop  offset="1" style="stop-color:#C8C8C8"/>
</linearGradient>
<path opacity="0.8" fill="url(#SVGID_8_)" d="M-106.522,59.129c1.6-0.044,2.858-1.326,2.847-2.889
	c-0.012-1.546-1.315-2.828-2.9-2.842c-1.649-0.015-3.049,1.402-2.978,2.996C-109.479,57.912-108.081,59.179-106.522,59.129z"/>
<linearGradient id="SVGID_9_" gradientUnits="userSpaceOnUse" x1="-45.8425" y1="788.7913" x2="-39.9622" y2="788.7913" gradientTransform="matrix(1 0 0 1 -8.415 -732.5273)">
	<stop  offset="0" style="stop-color:#FFFFFF"/>
	<stop  offset="1" style="stop-color:#C8C8C8"/>
</linearGradient>
<path opacity="0.8" fill="url(#SVGID_9_)" d="M-51.223,59.129c1.6-0.044,2.858-1.326,2.846-2.889
	c-0.011-1.546-1.314-2.828-2.9-2.842c-1.649-0.015-3.049,1.402-2.978,2.996C-54.18,57.912-52.783,59.179-51.223,59.129z"/>
<linearGradient id="SVGID_10_" gradientUnits="userSpaceOnUse" x1="-97.8328" y1="60.1467" x2="-59.8845" y2="60.1467">
	<stop  offset="0" style="stop-color:#FFFFFF"/>
	<stop  offset="1" style="stop-color:#C8C8C8"/>
</linearGradient>
<path opacity="0.8" fill="url(#SVGID_10_)" d="M-78.213,58.215h-1.292h-18.328c0,0,0,2.234,0.905,2.656
	c0.906,0.423,3.14,0.785,4.407,0.906c1.022,0.098,9.69,0.233,13.016,0.282v0.02c0,0,0.236-0.004,0.646-0.01
	c0.409,0.006,0.646,0.01,0.646,0.01v-0.02c3.325-0.049,11.994-0.185,13.016-0.282c1.268-0.121,3.501-0.483,4.407-0.906
	c0.906-0.422,0.906-2.656,0.906-2.656H-78.213z"/>
<linearGradient id="SVGID_11_" gradientUnits="userSpaceOnUse" x1="-81.9324" y1="41.5256" x2="-75.6741" y2="41.5256">
	<stop  offset="0" style="stop-color:#FFFFFF"/>
	<stop  offset="1" style="stop-color:#C8C8C8"/>
</linearGradient>
<path fill-rule="evenodd" clip-rule="evenodd" fill="url(#SVGID_11_)" d="M-78.534,40.432c0.016,0.003,0.032,0.005,0.048,0.008
	c0.005,0.005,0.009,0.014,0.014,0.014c0.173,0.027,0.324,0.116,0.492,0.158c0.001,0.006,0.003,0.012,0.005,0.018
	c-0.006,0.018,0.009,0.025,0.02,0.03c0.108,0.057,0.195,0.138,0.272,0.227c0.027,0.031,0.054,0.042,0.095,0.041
	c0.23-0.001,0.46,0,0.689-0.002c0.141-0.001,0.281-0.004,0.422-0.006c0.268,0,0.535-0.002,0.803-0.002
	c0.005,0.031-0.021,0.048-0.038,0.067c-0.225,0.268-0.481,0.508-0.754,0.731c-0.083,0.068-0.165,0.121-0.28,0.103
	c-0.232-0.001-0.464-0.002-0.697-0.003c-0.019,0-0.037-0.001-0.047,0.02c-0.029,0.062-0.059,0.124-0.089,0.186
	c0.095,0.035,0.116-0.033,0.136-0.089c0.018-0.05,0.045-0.067,0.1-0.069c0.199-0.008,0.398-0.021,0.597-0.032
	c0.037,0.002,0.073-0.028,0.128,0.015c-0.016,0.005-0.029,0.007-0.038,0.014c-0.128,0.085-0.258,0.169-0.384,0.258
	c-0.084,0.06-0.174,0.088-0.281,0.079c-0.072-0.006-0.146,0.004-0.219-0.002c-0.132-0.01-0.251,0.005-0.336,0.114
	c-0.005,0.006-0.015,0.011-0.022,0.016c-0.32,0.231-0.685,0.326-1.083,0.299c-0.358-0.024-0.675-0.148-0.928-0.396
	c-0.024-0.024-0.049-0.028-0.081-0.028c-0.132,0-0.264-0.004-0.395,0.001c-0.091,0.004-0.168-0.016-0.242-0.067
	c-0.134-0.094-0.28-0.175-0.398-0.289c0.005-0.008,0.013-0.012,0.023-0.011c0.243,0.026,0.488,0.021,0.731,0.037
	c0.046,0.003,0.088,0.003,0.104,0.068c0.007-0.094-0.017-0.122-0.091-0.122c-0.242,0-0.484,0-0.726,0.001
	c-0.018,0-0.043-0.013-0.054,0.014c-0.005,0-0.01,0-0.015,0c-0.012-0.011-0.025-0.021-0.042-0.021c-0.003,0-0.005-0.002-0.006-0.006
	c-0.022-0.036-0.059-0.056-0.093-0.08c0-0.003-0.002-0.005-0.005-0.004c-0.004-0.003-0.008-0.007-0.012-0.011
	c-0.033-0.026-0.067-0.051-0.099-0.079c-0.174-0.151-0.326-0.321-0.475-0.494c-0.053-0.062-0.114-0.121-0.146-0.198
	c0.621-0.002,1.242-0.004,1.863-0.005c0.096-0.001,0.207-0.076,0.245-0.167l-0.002,0.002c0.036-0.045,0.1-0.048,0.143-0.084
	c0.056-0.047,0.126-0.072,0.19-0.107c0.108-0.058,0.228-0.098,0.343-0.121c0.123-0.025,0.255-0.037,0.386-0.032
	C-78.687,40.427-78.611,40.448-78.534,40.432z M-81.154,41.096c-0.008-0.004-0.017-0.01-0.025-0.01c-0.184,0-0.367,0-0.55,0
	c-0.012,0-0.024,0.002-0.021,0.02c0.005,0.002,0.012,0.006,0.018,0.006c0.185,0.01,0.371-0.015,0.555,0.013
	c0.007,0.001,0.016-0.007,0.024-0.011c0.229,0.006,0.459,0.011,0.689,0.018c0.103,0.002,0.206,0.006,0.309,0.009
	c0.024,0.001,0.045-0.005,0.044-0.03c-0.001-0.029-0.028-0.014-0.043-0.016c-0.016-0.003-0.033-0.001-0.049-0.001
	C-80.52,41.095-80.837,41.095-81.154,41.096z M-76.535,41.458c0.089,0.007,0.178-0.007,0.268-0.009c0-0.002,0-0.003-0.001-0.011
	c-0.088-0.008-0.177-0.006-0.267,0.001c-0.258,0-0.517,0-0.775,0.001c-0.112,0-0.116,0-0.113,0.106
	c0.001,0.03-0.052,0.091,0.025,0.092c0.065,0.001,0.038-0.063,0.036-0.094c-0.002-0.055,0.021-0.058,0.068-0.059
	C-77.041,41.478-76.788,41.467-76.535,41.458z M-78.786,40.536c-0.345,0.003-0.652,0.097-0.912,0.31
	c-0.471,0.387-0.464,1.009,0.014,1.375c0.527,0.403,1.397,0.332,1.842-0.151c0.336-0.366,0.319-0.865-0.046-1.204
	C-78.137,40.635-78.447,40.541-78.786,40.536z M-76.144,41.101c0-0.004,0-0.008,0-0.012c-0.458,0-0.916,0-1.377,0
	c0.021,0.058,0.041,0.11,0.059,0.162c0.006,0.017,0.014,0.029,0.035,0.024c0.028-0.006,0.013-0.023,0.009-0.036
	c-0.007-0.021-0.013-0.043-0.024-0.062c-0.022-0.038-0.011-0.047,0.033-0.048c0.279-0.004,0.559-0.01,0.838-0.016
	C-76.428,41.11-76.286,41.105-76.144,41.101z M-81.361,41.45c0.005,0.022,0.019,0.019,0.029,0.019
	c0.317,0.009,0.633,0.02,0.95,0.026c0.075,0.001,0.149-0.007,0.15,0.094c0,0.002,0.006,0.003,0.012,0.008
	c0-0.027-0.004-0.051,0-0.075c0.014-0.066-0.016-0.08-0.083-0.079c-0.331,0.004-0.662,0.003-0.994,0.003
	C-81.317,41.447-81.339,41.449-81.361,41.45z M-76.113,41.077c0.091,0.011,0.181,0.043,0.273,0
	C-75.931,41.077-76.022,41.077-76.113,41.077z"/>
<path fill-rule="evenodd" clip-rule="evenodd" fill="none" d="M-76.747,41.819c0.115,0.018,0.197-0.035,0.28-0.103
	c0.273-0.224,0.529-0.463,0.754-0.731c0.017-0.02,0.043-0.036,0.038-0.067c0-0.006,0-0.012,0-0.019
	c0.022-0.005,0.044-0.01,0.07,0.005c-0.128,0.171-0.273,0.327-0.427,0.476c-0.325,0.313-0.684,0.587-1.078,0.821
	c-0.038,0.022-0.074,0.032-0.119,0.031c-0.141-0.001-0.282,0.003-0.423-0.001c-0.06-0.002-0.101,0.017-0.143,0.054
	c-0.534,0.475-1.454,0.509-2.024,0.076c-0.013-0.01-0.028-0.019-0.037-0.03c-0.07-0.09-0.164-0.111-0.277-0.099
	c-0.074,0.007-0.151-0.005-0.225,0.003c-0.13,0.016-0.236-0.026-0.338-0.098c-0.126-0.091-0.261-0.172-0.378-0.275
	c0.015-0.005,0.018-0.017,0.019-0.029c0.005,0,0.01,0,0.015,0l-0.001-0.001c-0.001,0.011,0.001,0.018,0.016,0.015l-0.002-0.001
	c0.119,0.114,0.265,0.195,0.398,0.289c0.073,0.052,0.15,0.072,0.242,0.067c0.131-0.006,0.263-0.001,0.395-0.001
	c0.032,0,0.057,0.004,0.081,0.028c0.253,0.248,0.569,0.372,0.928,0.396c0.399,0.027,0.763-0.067,1.083-0.299
	c0.007-0.005,0.017-0.01,0.022-0.016c0.084-0.109,0.204-0.125,0.336-0.114c0.072,0.006,0.146-0.004,0.219,0.002
	c0.106,0.01,0.196-0.019,0.281-0.079c0.126-0.089,0.256-0.172,0.384-0.258c0.009-0.006,0.022-0.008,0.038-0.014
	c-0.055-0.043-0.091-0.012-0.128-0.015C-76.747,41.827-76.747,41.823-76.747,41.819z"/>
<path fill-rule="evenodd" clip-rule="evenodd" fill="none" d="M-79.824,40.766c-0.038,0.091-0.149,0.167-0.245,0.167
	c-0.621,0.001-1.242,0.003-1.863,0.005c-0.017-0.01-0.035-0.015-0.055-0.012c0.011-0.032,0.039-0.015,0.058-0.015
	c0.277-0.002,0.555-0.001,0.833-0.002c0.353-0.001,0.705-0.005,1.058-0.006c0.039,0,0.064-0.011,0.091-0.038
	C-79.912,40.829-79.885,40.779-79.824,40.766z"/>
<path fill-rule="evenodd" clip-rule="evenodd" fill="none" d="M-78.534,40.432c-0.077,0.017-0.153-0.005-0.229-0.008
	c-0.131-0.005-0.263,0.007-0.386,0.032c-0.115,0.023-0.235,0.063-0.343,0.121c-0.064,0.035-0.134,0.06-0.19,0.107
	c-0.042,0.036-0.106,0.039-0.143,0.084c0.123-0.136,0.288-0.209,0.46-0.271c0.053-0.018,0.108-0.031,0.161-0.046
	c0.024,0.023,0.034,0.013,0.036-0.014c0.18-0.03,0.362-0.046,0.545-0.029C-78.593,40.41-78.556,40.399-78.534,40.432z"/>
<path fill-rule="evenodd" clip-rule="evenodd" fill="none" d="M-81.988,40.927c0.02-0.003,0.039,0.001,0.055,0.012
	c0.032,0.077,0.094,0.135,0.146,0.198c0.148,0.173,0.3,0.343,0.475,0.494c0.032,0.028,0.066,0.053,0.099,0.079
	c-0.015,0.002-0.029,0.003-0.043,0.004c-0.278-0.223-0.511-0.483-0.721-0.763C-81.981,40.945-81.984,40.936-81.988,40.927z"/>
<path fill-rule="evenodd" clip-rule="evenodd" fill="#787366" d="M-78.786,40.536c0.34,0.005,0.649,0.099,0.899,0.33
	c0.365,0.339,0.382,0.838,0.046,1.204c-0.445,0.483-1.315,0.554-1.842,0.151c-0.479-0.367-0.485-0.989-0.014-1.375
	C-79.438,40.633-79.132,40.539-78.786,40.536z M-78.761,40.591c-0.292,0-0.536,0.063-0.755,0.2
	c-0.598,0.372-0.604,1.082-0.014,1.443c0.464,0.284,1.15,0.225,1.551-0.133c0.402-0.359,0.403-0.89-0.002-1.231
	C-78.211,40.677-78.487,40.594-78.761,40.591z"/>
<path fill-rule="evenodd" clip-rule="evenodd" fill="#E8E7E7" d="M-76.113,41.077c0.091,0,0.182,0,0.273,0
	C-75.932,41.12-76.022,41.088-76.113,41.077z"/>
<path fill-rule="evenodd" clip-rule="evenodd" fill="#F9F9F9" d="M-81.04,41.831c0.01,0.001,0.024-0.003,0.016,0.015
	C-81.038,41.849-81.041,41.842-81.04,41.831z"/>
<path fill-rule="evenodd" clip-rule="evenodd" fill="#E8E7E7" d="M-78.761,40.591c0.275,0.004,0.551,0.086,0.78,0.279
	c0.405,0.341,0.404,0.872,0.002,1.231c-0.401,0.358-1.087,0.417-1.551,0.133c-0.591-0.361-0.584-1.072,0.014-1.443
	C-79.297,40.654-79.053,40.591-78.761,40.591z M-78.864,42.354c0.265,0.004,0.531-0.075,0.745-0.223
	c0.504-0.348,0.495-0.984-0.019-1.311c-0.432-0.274-1.068-0.236-1.458,0.089c-0.412,0.343-0.414,0.872,0.001,1.204
	C-79.384,42.281-79.135,42.35-78.864,42.354z"/>
<path fill-rule="evenodd" clip-rule="evenodd" fill="#787366" d="M-78.864,42.354c-0.271-0.004-0.521-0.074-0.729-0.242
	c-0.415-0.332-0.414-0.86-0.001-1.204c0.39-0.325,1.026-0.363,1.458-0.089c0.514,0.327,0.523,0.963,0.019,1.311
	C-78.332,42.279-78.598,42.359-78.864,42.354z M-79.62,41.462c0.004,0,0.009-0.001,0.013-0.001c0.029,0.066,0.059,0.132,0.087,0.199
	c0.01,0.023,0.017,0.044,0.052,0.042c0.033-0.002,0.062,0,0.08-0.037c0.029-0.06,0.065-0.117,0.1-0.175
	c0.006-0.01,0.009-0.028,0.028-0.022c0.018,0.005,0.013,0.021,0.012,0.034c-0.002,0.048-0.005,0.098-0.009,0.146
	c-0.002,0.029-0.008,0.064,0.042,0.052c0.036-0.009,0.101,0.038,0.104-0.044c0.005-0.13,0.012-0.261,0.019-0.392
	c0-0.015,0.007-0.032-0.008-0.044c-0.029-0.023-0.169,0.004-0.189,0.037c-0.048,0.081-0.096,0.162-0.146,0.244
	c-0.008-0.007-0.011-0.008-0.012-0.01c-0.026-0.057-0.053-0.113-0.078-0.17c-0.05-0.109-0.05-0.108-0.172-0.104
	c-0.033,0.001-0.043,0.01-0.046,0.041c-0.011,0.13-0.025,0.26-0.037,0.391c-0.002,0.022-0.019,0.062,0.032,0.053
	c0.039-0.009,0.106,0.04,0.112-0.044C-79.632,41.592-79.626,41.527-79.62,41.462z M-78.303,41.495
	c-0.084-0.093-0.158-0.171-0.227-0.252c-0.043-0.05-0.102-0.031-0.151-0.025c-0.035,0.004-0.015,0.049-0.016,0.076
	c-0.005,0.117-0.005,0.234-0.011,0.352c-0.002,0.043,0.009,0.063,0.057,0.055c0.036-0.007,0.096,0.027,0.09-0.052
	c-0.005-0.073-0.001-0.147-0.001-0.22c0.087,0.075,0.161,0.15,0.225,0.231c0.046,0.059,0.104,0.037,0.16,0.039
	c0.023,0.001,0.021-0.019,0.021-0.035c-0.001-0.137-0.004-0.274-0.005-0.412c-0.001-0.066-0.053-0.032-0.083-0.038
	c-0.029-0.005-0.061-0.009-0.058,0.04C-78.301,41.328-78.303,41.403-78.303,41.495z M-77.89,41.462c-0.005,0-0.01,0-0.014,0
	c0-0.069,0-0.137,0-0.206c0-0.079-0.063-0.036-0.098-0.044c-0.039-0.009-0.052,0.009-0.051,0.047
	c0.005,0.115,0.006,0.23,0.008,0.345c0.002,0.106,0.002,0.105,0.115,0.097c0.031-0.002,0.04-0.012,0.04-0.04
	C-77.891,41.595-77.89,41.529-77.89,41.462z M-78.967,41.465c-0.005,0-0.01,0-0.015,0c0,0.064,0.003,0.128-0.001,0.192
	c-0.002,0.036,0.01,0.047,0.046,0.044c0.019-0.002,0.038-0.002,0.057,0c0.034,0.003,0.049-0.005,0.05-0.042
	c0.001-0.133,0.005-0.266,0.011-0.397c0.002-0.04-0.013-0.056-0.051-0.047c-0.034,0.009-0.098-0.035-0.096,0.044
	C-78.966,41.328-78.967,41.397-78.967,41.465z"/>
<linearGradient id="SVGID_12_" gradientUnits="userSpaceOnUse" x1="-79.7854" y1="41.4592" x2="-79.0916" y2="41.4592">
	<stop  offset="0" style="stop-color:#FFFFFF"/>
	<stop  offset="1" style="stop-color:#C8C8C8"/>
</linearGradient>
<path fill-rule="evenodd" clip-rule="evenodd" fill="url(#SVGID_12_)" d="M-79.62,41.462c-0.005,0.065-0.012,0.129-0.017,0.195
	c-0.006,0.084-0.073,0.035-0.112,0.044c-0.051,0.01-0.034-0.031-0.032-0.053c0.012-0.131,0.026-0.26,0.037-0.391
	c0.002-0.031,0.013-0.04,0.046-0.041c0.122-0.004,0.122-0.006,0.172,0.104c0.025,0.057,0.052,0.113,0.078,0.17
	c0.001,0.002,0.003,0.003,0.012,0.01c0.05-0.083,0.098-0.164,0.146-0.244c0.02-0.032,0.16-0.06,0.189-0.037
	c0.015,0.012,0.008,0.029,0.008,0.044c-0.006,0.13-0.014,0.261-0.019,0.392c-0.003,0.083-0.067,0.036-0.104,0.044
	c-0.049,0.012-0.043-0.023-0.042-0.052c0.004-0.049,0.006-0.098,0.009-0.146c0-0.012,0.005-0.029-0.012-0.034
	c-0.019-0.005-0.022,0.012-0.028,0.022c-0.034,0.058-0.07,0.115-0.1,0.175c-0.018,0.037-0.047,0.035-0.08,0.037
	c-0.035,0.002-0.042-0.019-0.052-0.042c-0.028-0.067-0.058-0.132-0.087-0.199C-79.612,41.461-79.616,41.462-79.62,41.462z
	 M-79.266,41.453c0.004,0.004,0.007,0.007,0.01,0.009c0.003-0.005,0.007-0.01,0.008-0.015c0-0.002-0.004-0.006-0.008-0.01
	C-79.259,41.442-79.262,41.448-79.266,41.453z"/>
<linearGradient id="SVGID_13_" gradientUnits="userSpaceOnUse" x1="-78.7092" y1="41.4563" x2="-78.157" y2="41.4563">
	<stop  offset="0" style="stop-color:#FFFFFF"/>
	<stop  offset="1" style="stop-color:#C8C8C8"/>
</linearGradient>
<path fill-rule="evenodd" clip-rule="evenodd" fill="url(#SVGID_13_)" d="M-78.303,41.495c0-0.092,0.002-0.167-0.001-0.241
	c-0.003-0.048,0.029-0.045,0.058-0.04c0.03,0.005,0.083-0.029,0.083,0.038c0.001,0.138,0.004,0.275,0.005,0.412
	c0,0.016,0.003,0.036-0.021,0.035c-0.055-0.002-0.114,0.021-0.16-0.039c-0.063-0.081-0.137-0.156-0.225-0.231
	c0,0.073-0.004,0.147,0.001,0.22c0.005,0.079-0.055,0.044-0.09,0.052c-0.048,0.008-0.059-0.012-0.057-0.055
	c0.006-0.118,0.006-0.235,0.011-0.352c0.001-0.026-0.019-0.072,0.016-0.076c0.049-0.006,0.107-0.025,0.151,0.025
	C-78.461,41.324-78.388,41.403-78.303,41.495z"/>
<linearGradient id="SVGID_14_" gradientUnits="userSpaceOnUse" x1="-78.0525" y1="41.4563" x2="-77.8894" y2="41.4563">
	<stop  offset="0" style="stop-color:#FFFFFF"/>
	<stop  offset="1" style="stop-color:#C8C8C8"/>
</linearGradient>
<path fill-rule="evenodd" clip-rule="evenodd" fill="url(#SVGID_14_)" d="M-77.89,41.462c0,0.066-0.001,0.133,0,0.199
	c0,0.028-0.009,0.038-0.04,0.04c-0.113,0.008-0.113,0.009-0.115-0.097c-0.002-0.115-0.003-0.23-0.008-0.345
	c-0.001-0.039,0.012-0.056,0.051-0.047c0.035,0.009,0.098-0.034,0.098,0.044c0,0.069,0,0.137,0,0.206
	C-77.9,41.462-77.895,41.462-77.89,41.462z"/>
<linearGradient id="SVGID_15_" gradientUnits="userSpaceOnUse" x1="-78.9836" y1="41.4563" x2="-78.8201" y2="41.4563">
	<stop  offset="0" style="stop-color:#FFFFFF"/>
	<stop  offset="1" style="stop-color:#C8C8C8"/>
</linearGradient>
<path fill-rule="evenodd" clip-rule="evenodd" fill="url(#SVGID_15_)" d="M-78.967,41.465c0-0.068,0.001-0.137,0-0.206
	c-0.001-0.08,0.062-0.035,0.096-0.044c0.038-0.009,0.053,0.007,0.051,0.047c-0.006,0.132-0.01,0.265-0.011,0.397
	c0,0.037-0.016,0.045-0.05,0.042c-0.019-0.002-0.038-0.002-0.057,0c-0.036,0.003-0.048-0.008-0.046-0.044
	c0.004-0.064,0.001-0.127,0.001-0.192C-78.977,41.465-78.972,41.465-78.967,41.465z"/>
<path fill-rule="evenodd" clip-rule="evenodd" fill="#2B2B2B" d="M-79.266,41.453c0.004-0.005,0.007-0.011,0.011-0.016
	c0.003,0.003,0.008,0.007,0.008,0.01c-0.001,0.005-0.005,0.01-0.008,0.015C-79.259,41.46-79.262,41.457-79.266,41.453z"/>
<path opacity="0.8" fill="#C0B9AB" enable-background="new    " d="M-67.287,54.122c0,0.567-0.459,1.026-1.027,1.026h-21.219
	c-0.567,0-1.027-0.459-1.027-1.026v-2.981c0-0.567,0.46-1.027,1.027-1.027h21.219c0.567,0,1.027,0.46,1.027,1.027V54.122z"/>
<g>
	<path fill="#C0B9AB" d="M-63.609,15.878c-1.36-0.042-8.426-0.452-15.468-0.452c-7.042,0-14.06,0.41-15.42,0.452
		c-2.908,0.091-4.777,1.902-4.777,1.902h19.76h0.922h19.76C-58.832,17.78-60.701,15.969-63.609,15.878z"/>
	<linearGradient id="SVGID_16_" gradientUnits="userSpaceOnUse" x1="-100.6165" y1="16.6028" x2="-57.4895" y2="16.6028">
		<stop  offset="0" style="stop-color:#FFFFFF"/>
		<stop  offset="1" style="stop-color:#C8C8C8"/>
	</linearGradient>
	<path fill="url(#SVGID_16_)" d="M-79.077,15.426c7.042,0,14.108,0.41,15.468,0.452c2.908,0.091,4.777,1.902,4.777,1.902h-19.76
		h-0.922h-19.76c0,0,1.869-1.811,4.777-1.902C-93.137,15.836-86.119,15.426-79.077,15.426 M-79.077,14.883
		c-5.628,0-11.263,0.263-13.97,0.389c-0.694,0.032-1.195,0.056-1.466,0.064c-3.083,0.096-5.057,1.975-5.139,2.055l-0.963,0.934
		h1.342h19.76h0.922h19.76h1.342l-0.964-0.934c-0.083-0.08-2.056-1.958-5.139-2.055c-0.27-0.008-0.771-0.031-1.464-0.063
		C-67.779,15.145-73.443,14.883-79.077,14.883L-79.077,14.883z"/>
</g>
<g>
	<line fill="#C0B9AB" x1="-79.422" y1="15.401" x2="-79.422" y2="12.715"/>
	<linearGradient id="SVGID_17_" gradientUnits="userSpaceOnUse" x1="-79.6936" y1="14.0579" x2="-79.1501" y2="14.0579">
		<stop  offset="0" style="stop-color:#FFFFFF"/>
		<stop  offset="1" style="stop-color:#C8C8C8"/>
	</linearGradient>
	<rect x="-79.694" y="12.715" fill="url(#SVGID_17_)" width="0.543" height="2.687"/>
</g>
<g>
	<line fill="#C0B9AB" x1="-79.422" y1="9.157" x2="-79.422" y2="12.745"/>
	<linearGradient id="SVGID_18_" gradientUnits="userSpaceOnUse" x1="-79.5125" y1="10.9514" x2="-79.3313" y2="10.9514">
		<stop  offset="0" style="stop-color:#FFFFFF"/>
		<stop  offset="1" style="stop-color:#C8C8C8"/>
	</linearGradient>
	<rect x="-79.512" y="9.157" fill="url(#SVGID_18_)" width="0.181" height="3.587"/>
</g>
</svg>
