<?xml version="1.0" encoding="utf-8"?>
<!-- Generator: Adobe Illustrator 16.0.0, SVG Export Plug-In . SVG Version: 6.00 Build 0)  -->
<!DOCTYPE svg PUBLIC "-//W3C//DTD SVG 1.1//EN" "http://www.w3.org/Graphics/SVG/1.1/DTD/svg11.dtd">
<svg version="1.1" id="Layer_1" xmlns="http://www.w3.org/2000/svg" xmlns:xlink="http://www.w3.org/1999/xlink" x="0px" y="0px"
	 width="110.5px" height="84.559px" viewBox="0 0 110.5 84.559" enable-background="new 0 0 110.5 84.559" xml:space="preserve">
<g>
	<path fill="#787367" d="M32.983,18.406h53.081v40.613c-0.043,1.928-0.729,3.578-2.057,4.948c-1.328,1.37-2.893,2.099-4.691,2.185
		h-46.14c-2.828,0.043-4.992-0.75-6.491-2.377c-1.5-1.628-2.25-4.242-2.25-7.84V26.309h8.547V18.406z"/>
	<path opacity="0.6" fill="#C0BAAB" enable-background="new    " d="M32.125,54.681V29.362h-4.178v25.319
		c0,1.843,0.182,3.213,0.546,4.113c0.364,0.899,0.868,1.349,1.51,1.349s1.157-0.449,1.542-1.349
		C31.932,57.894,32.125,56.524,32.125,54.681z"/>
	<linearGradient id="SVGID_1_" gradientUnits="userSpaceOnUse" x1="36.0679" y1="42.2791" x2="81.6943" y2="42.2791">
		<stop  offset="0" style="stop-color:#E6E6E6"/>
		<stop  offset="0.5398" style="stop-color:#FFFFFF"/>
		<stop  offset="1" style="stop-color:#C8C8C8"/>
	</linearGradient>
	<path fill="url(#SVGID_1_)" d="M81.694,59.019V22.776H37.289v33.159c0,2.528-0.408,4.477-1.221,5.848h43.249
		c0.728-0.043,1.307-0.364,1.734-0.965C81.479,60.219,81.694,59.619,81.694,59.019z"/>
	<rect x="44.229" y="36.592" fill="#787367" width="10.153" height="1.414"/>
	<rect x="44.229" y="41.347" fill="#787367" width="10.153" height="1.414"/>
	<rect x="44.229" y="45.909" fill="#787367" width="10.153" height="1.413"/>
	<rect x="44.229" y="50.343" fill="#787367" width="10.153" height="1.414"/>
	<rect x="44.229" y="54.906" fill="#787367" width="10.153" height="1.414"/>
	<rect x="44.229" y="29.137" fill="#787367" width="31.296" height="2.763"/>
	<rect x="58.432" y="36.592" fill="#787367" width="17.094" height="11.625"/>
	<linearGradient id="SVGID_2_" gradientUnits="userSpaceOnUse" x1="59.2852" y1="39.8611" x2="63.3711" y2="39.8611">
		<stop  offset="0" style="stop-color:#E6E6E6"/>
		<stop  offset="0.5398" style="stop-color:#FFFFFF"/>
		<stop  offset="1" style="stop-color:#C8C8C8"/>
	</linearGradient>
	<circle fill="url(#SVGID_2_)" cx="61.328" cy="39.861" r="2.043"/>
	<linearGradient id="SVGID_3_" gradientUnits="userSpaceOnUse" x1="58.7021" y1="42.7092" x2="74.8838" y2="42.7092">
		<stop  offset="0" style="stop-color:#E6E6E6"/>
		<stop  offset="0.5398" style="stop-color:#FFFFFF"/>
		<stop  offset="1" style="stop-color:#C8C8C8"/>
	</linearGradient>
	<polygon fill="url(#SVGID_3_)" points="58.702,47.368 60.009,44.752 61.48,46.633 65.975,41.075 68.51,44.221 71.861,38.051 
		74.884,44.752 74.884,47.368 	"/>
</g>
</svg>
