<?xml version="1.0" encoding="utf-8"?>
<!-- Generator: Adobe Illustrator 16.0.0, SVG Export Plug-In . SVG Version: 6.00 Build 0)  -->
<!DOCTYPE svg PUBLIC "-//W3C//DTD SVG 1.1//EN" "http://www.w3.org/Graphics/SVG/1.1/DTD/svg11.dtd">
<svg version="1.1" id="cn" xmlns="http://www.w3.org/2000/svg" xmlns:xlink="http://www.w3.org/1999/xlink" x="0px" y="0px"
	 width="819px" height="405.047px" viewBox="0 0 819 405.047" enable-background="new 0 0 819 405.047" xml:space="preserve">
<g opacity="0.7">
	
		<radialGradient id="SVGID_1_" cx="-5995.709" cy="817.9014" r="101.2832" gradientTransform="matrix(1 0 0 1 6390.375 -592.3281)" gradientUnits="userSpaceOnUse">
		<stop  offset="0.6492" style="stop-color:#000000;stop-opacity:0"/>
		<stop  offset="1" style="stop-color:#692C17"/>
	</radialGradient>
	<path fill="url(#SVGID_1_)" d="M440.59,240.827l41.672,24.268c3.177-5.521,5.754-11.428,7.647-17.631l-46.03-14.369
		C443.066,235.812,441.955,238.4,440.59,240.827z"/>
	
		<radialGradient id="SVGID_2_" cx="-5995.709" cy="817.9053" r="101.2825" gradientTransform="matrix(1 0 0 1 6390.375 -592.3281)" gradientUnits="userSpaceOnUse">
		<stop  offset="0.6492" style="stop-color:#000000;stop-opacity:0"/>
		<stop  offset="1" style="stop-color:#692C17"/>
	</radialGradient>
	<path fill="url(#SVGID_2_)" d="M492.857,210.409l-47.71,6.745c0.214,1.636,0.336,3.302,0.336,4.992
		c0,3.194-0.396,6.297-1.141,9.267l46.806,11.584c1.646-6.646,2.524-13.595,2.524-20.746
		C493.672,218.232,493.39,214.28,492.857,210.409z"/>
	
		<radialGradient id="SVGID_3_" cx="-5995.709" cy="817.9062" r="101.2832" gradientTransform="matrix(1 0 0 1 6390.375 -592.3281)" gradientUnits="userSpaceOnUse">
		<stop  offset="0.6492" style="stop-color:#000000;stop-opacity:0"/>
		<stop  offset="1" style="stop-color:#692C17"/>
	</radialGradient>
	<path fill="url(#SVGID_3_)" d="M492.121,205.954c-2.189-11.434-6.646-22.062-12.879-31.401l-40.016,26.682
		c2.77,4.21,4.721,9.001,5.643,14.154L492.121,205.954z"/>
	
		<radialGradient id="SVGID_4_" cx="-5995.709" cy="817.9072" r="101.2836" gradientTransform="matrix(1 0 0 1 6390.375 -592.3281)" gradientUnits="userSpaceOnUse">
		<stop  offset="0.6492" style="stop-color:#000000;stop-opacity:0"/>
		<stop  offset="1" style="stop-color:#692C17"/>
	</radialGradient>
	<path fill="url(#SVGID_4_)" d="M453.11,149.208l-25.057,40.928c3.817,2.475,7.174,5.607,9.889,9.249l38.562-28.709
		C470.113,162.155,462.174,154.864,453.11,149.208z"/>
	
		<radialGradient id="SVGID_5_" cx="-5995.709" cy="817.9033" r="101.28" gradientTransform="matrix(1 0 0 1 6390.375 -592.3281)" gradientUnits="userSpaceOnUse">
		<stop  offset="0.6492" style="stop-color:#000000;stop-opacity:0"/>
		<stop  offset="1" style="stop-color:#692C17"/>
	</radialGradient>
	<path fill="url(#SVGID_5_)" d="M407.636,136.215c-9.598,0-18.821,1.572-27.438,4.47l15.218,45.254
		c3.76-1.237,7.771-1.918,11.938-1.918c0.848,0,1.686,0.038,2.521,0.092l2.94-47.737
		C411.104,136.273,409.377,136.215,407.636,136.215z"/>
	
		<radialGradient id="SVGID_6_" cx="-5995.708" cy="817.9053" r="101.2843" gradientTransform="matrix(1 0 0 1 6390.375 -592.3281)" gradientUnits="userSpaceOnUse">
		<stop  offset="0.6492" style="stop-color:#000000;stop-opacity:0"/>
		<stop  offset="1" style="stop-color:#692C17"/>
	</radialGradient>
	<path fill="url(#SVGID_6_)" d="M324.656,245.034c1.646,5.995,3.917,11.729,6.749,17.129l42.259-22.164
		c-1.253-2.358-2.261-4.869-2.999-7.49L324.656,245.034z"/>
	
		<radialGradient id="SVGID_7_" cx="-5995.709" cy="817.9033" r="101.2819" gradientTransform="matrix(1 0 0 1 6390.375 -592.3281)" gradientUnits="userSpaceOnUse">
		<stop  offset="0.6492" style="stop-color:#000000;stop-opacity:0"/>
		<stop  offset="1" style="stop-color:#692C17"/>
	</radialGradient>
	<path fill="url(#SVGID_7_)" d="M369.228,222.148c0-0.172,0.01-0.34,0.014-0.51l-47.62-0.92c-0.01,0.512-0.021,1.021-0.021,1.529
		c0,6.241,0.671,12.328,1.935,18.189l46.611-9.984C369.552,227.78,369.228,225.002,369.228,222.148z"/>
	
		<radialGradient id="SVGID_8_" cx="-5995.708" cy="817.9043" r="101.281" gradientTransform="matrix(1 0 0 1 6390.375 -592.3281)" gradientUnits="userSpaceOnUse">
		<stop  offset="0.6492" style="stop-color:#000000;stop-opacity:0"/>
		<stop  offset="1" style="stop-color:#692C17"/>
	</radialGradient>
	<path fill="url(#SVGID_8_)" d="M371.911,208.094l-44.258-17.603c-3.188,8.025-5.203,16.646-5.836,25.646l47.504,3.438
		C369.593,215.543,370.488,211.688,371.911,208.094z"/>
	
		<radialGradient id="SVGID_9_" cx="-5995.708" cy="817.9053" r="101.2864" gradientTransform="matrix(1 0 0 1 6390.375 -592.3281)" gradientUnits="userSpaceOnUse">
		<stop  offset="0.6492" style="stop-color:#000000;stop-opacity:0"/>
		<stop  offset="1" style="stop-color:#692C17"/>
	</radialGradient>
	<path fill="url(#SVGID_9_)" d="M329.546,186.105l43.213,20.018c1.755-3.781,4.108-7.225,6.944-10.209l-34.629-32.719
		C338.74,169.903,333.475,177.631,329.546,186.105z"/>
	
		<radialGradient id="SVGID_10_" cx="-5995.709" cy="817.9023" r="101.2797" gradientTransform="matrix(1 0 0 1 6390.375 -592.3281)" gradientUnits="userSpaceOnUse">
		<stop  offset="0.6492" style="stop-color:#000000;stop-opacity:0"/>
		<stop  offset="1" style="stop-color:#692C17"/>
	</radialGradient>
	<path fill="url(#SVGID_10_)" d="M348.26,159.988l32.88,34.489c3.457-3.275,7.522-5.91,12.02-7.714l-17.562-44.378
		C365.365,146.493,356.106,152.505,348.26,159.988z"/>
	
		<radialGradient id="SVGID_11_" cx="-5995.709" cy="817.9033" r="101.2819" gradientTransform="matrix(1 0 0 1 6390.375 -592.3281)" gradientUnits="userSpaceOnUse">
		<stop  offset="0.6492" style="stop-color:#000000;stop-opacity:0"/>
		<stop  offset="1" style="stop-color:#692C17"/>
	</radialGradient>
	<path fill="url(#SVGID_11_)" d="M417.25,136.753l-5.727,47.5c5.271,0.574,10.216,2.225,14.617,4.724l22.603-42.321
		C439.198,141.452,428.554,138.01,417.25,136.753z"/>
</g>
<radialGradient id="SVGID_12_" cx="-5984.7627" cy="-185.5801" r="183.5241" gradientTransform="matrix(-0.706 -0.7082 0.8338 -0.8313 -3627.7795 -4153.981)" gradientUnits="userSpaceOnUse">
	<stop  offset="0.7847" style="stop-color:#000000;stop-opacity:0"/>
	<stop  offset="1" style="stop-color:#692C17;stop-opacity:0.6"/>
</radialGradient>
<circle fill="url(#SVGID_12_)" cx="407.349" cy="219.575" r="156.165"/>
<g>
	
		<radialGradient id="SVGID_13_" cx="-5956.376" cy="840.5693" r="113.7989" gradientTransform="matrix(1 0 0 1 6390.375 -592.3281)" gradientUnits="userSpaceOnUse">
		<stop  offset="0.7827" style="stop-color:#000000;stop-opacity:0"/>
		<stop  offset="1" style="stop-color:#692C17"/>
	</radialGradient>
	<path fill="url(#SVGID_13_)" d="M440.59,240.827l41.672,24.268c3.177-5.521,5.754-11.428,7.647-17.631l-46.03-14.369
		C443.066,235.812,441.955,238.4,440.59,240.827z"/>
	
		<radialGradient id="SVGID_14_" cx="-5956.376" cy="840.5723" r="113.799" gradientTransform="matrix(1 0 0 1 6390.375 -592.3281)" gradientUnits="userSpaceOnUse">
		<stop  offset="0.7827" style="stop-color:#000000;stop-opacity:0"/>
		<stop  offset="1" style="stop-color:#692C17"/>
	</radialGradient>
	<path fill="url(#SVGID_14_)" d="M492.857,210.409l-47.71,6.745c0.214,1.636,0.336,3.302,0.336,4.992
		c0,3.194-0.396,6.297-1.141,9.267l46.806,11.584c1.646-6.646,2.524-13.595,2.524-20.746
		C493.672,218.232,493.39,214.28,492.857,210.409z"/>
	
		<radialGradient id="SVGID_15_" cx="-5956.376" cy="840.5723" r="113.8005" gradientTransform="matrix(1 0 0 1 6390.375 -592.3281)" gradientUnits="userSpaceOnUse">
		<stop  offset="0.7827" style="stop-color:#000000;stop-opacity:0"/>
		<stop  offset="1" style="stop-color:#692C17"/>
	</radialGradient>
	<path fill="url(#SVGID_15_)" d="M492.121,205.954c-2.189-11.434-6.646-22.062-12.879-31.401l-40.016,26.682
		c2.77,4.21,4.721,9.001,5.643,14.154L492.121,205.954z"/>
	
		<radialGradient id="SVGID_16_" cx="-5956.376" cy="840.5742" r="113.8012" gradientTransform="matrix(1 0 0 1 6390.375 -592.3281)" gradientUnits="userSpaceOnUse">
		<stop  offset="0.7827" style="stop-color:#000000;stop-opacity:0"/>
		<stop  offset="1" style="stop-color:#692C17"/>
	</radialGradient>
	<path fill="url(#SVGID_16_)" d="M453.11,149.208l-25.057,40.928c3.817,2.475,7.174,5.607,9.889,9.249l38.562-28.709
		C470.113,162.155,462.174,154.864,453.11,149.208z"/>
	
		<radialGradient id="SVGID_17_" cx="-5956.376" cy="840.5713" r="113.7976" gradientTransform="matrix(1 0 0 1 6390.375 -592.3281)" gradientUnits="userSpaceOnUse">
		<stop  offset="0.7827" style="stop-color:#000000;stop-opacity:0"/>
		<stop  offset="1" style="stop-color:#692C17"/>
	</radialGradient>
	<path fill="url(#SVGID_17_)" d="M407.636,136.215c-9.598,0-18.821,1.572-27.438,4.47l15.218,45.254
		c3.76-1.237,7.771-1.918,11.938-1.918c0.848,0,1.686,0.038,2.521,0.092l2.94-47.737
		C411.104,136.273,409.377,136.215,407.636,136.215z"/>
	
		<radialGradient id="SVGID_18_" cx="-5956.375" cy="840.5732" r="113.8005" gradientTransform="matrix(1 0 0 1 6390.375 -592.3281)" gradientUnits="userSpaceOnUse">
		<stop  offset="0.7827" style="stop-color:#000000;stop-opacity:0"/>
		<stop  offset="1" style="stop-color:#692C17"/>
	</radialGradient>
	<path fill="url(#SVGID_18_)" d="M324.656,245.034c1.646,5.995,3.917,11.729,6.749,17.129l42.259-22.164
		c-1.253-2.358-2.261-4.869-2.999-7.49L324.656,245.034z"/>
	
		<radialGradient id="SVGID_19_" cx="-5956.376" cy="840.5693" r="113.7977" gradientTransform="matrix(1 0 0 1 6390.375 -592.3281)" gradientUnits="userSpaceOnUse">
		<stop  offset="0.7827" style="stop-color:#000000;stop-opacity:0"/>
		<stop  offset="1" style="stop-color:#692C17"/>
	</radialGradient>
	<path fill="url(#SVGID_19_)" d="M369.228,222.148c0-0.172,0.01-0.34,0.014-0.51l-47.62-0.92c-0.01,0.512-0.021,1.021-0.021,1.529
		c0,6.241,0.671,12.328,1.935,18.189l46.611-9.984C369.552,227.78,369.228,225.002,369.228,222.148z"/>
	
		<radialGradient id="SVGID_20_" cx="-5956.375" cy="840.5723" r="113.7994" gradientTransform="matrix(1 0 0 1 6390.375 -592.3281)" gradientUnits="userSpaceOnUse">
		<stop  offset="0.7827" style="stop-color:#000000;stop-opacity:0"/>
		<stop  offset="1" style="stop-color:#692C17"/>
	</radialGradient>
	<path fill="url(#SVGID_20_)" d="M371.911,208.094l-44.258-17.603c-3.188,8.025-5.203,16.646-5.836,25.646l47.504,3.438
		C369.593,215.543,370.488,211.688,371.911,208.094z"/>
	
		<radialGradient id="SVGID_21_" cx="-5956.375" cy="840.5703" r="113.8" gradientTransform="matrix(1 0 0 1 6390.375 -592.3281)" gradientUnits="userSpaceOnUse">
		<stop  offset="0.7827" style="stop-color:#000000;stop-opacity:0"/>
		<stop  offset="1" style="stop-color:#692C17"/>
	</radialGradient>
	<path fill="url(#SVGID_21_)" d="M329.546,186.105l43.213,20.018c1.755-3.781,4.108-7.225,6.944-10.209l-34.629-32.719
		C338.74,169.903,333.475,177.631,329.546,186.105z"/>
	
		<radialGradient id="SVGID_22_" cx="-5956.376" cy="840.5684" r="113.7963" gradientTransform="matrix(1 0 0 1 6390.375 -592.3281)" gradientUnits="userSpaceOnUse">
		<stop  offset="0.7827" style="stop-color:#000000;stop-opacity:0"/>
		<stop  offset="1" style="stop-color:#692C17"/>
	</radialGradient>
	<path fill="url(#SVGID_22_)" d="M348.26,159.988l32.88,34.489c3.457-3.275,7.522-5.91,12.02-7.714l-17.562-44.378
		C365.365,146.493,356.106,152.505,348.26,159.988z"/>
	
		<radialGradient id="SVGID_23_" cx="-5956.376" cy="840.5693" r="113.797" gradientTransform="matrix(1 0 0 1 6390.375 -592.3281)" gradientUnits="userSpaceOnUse">
		<stop  offset="0.7827" style="stop-color:#000000;stop-opacity:0"/>
		<stop  offset="1" style="stop-color:#692C17"/>
	</radialGradient>
	<path fill="url(#SVGID_23_)" d="M417.25,136.753l-5.727,47.5c5.271,0.574,10.216,2.225,14.617,4.724l22.603-42.321
		C439.198,141.452,428.554,138.01,417.25,136.753z"/>
</g>
<g>
	
		<linearGradient id="SVGID_24_" gradientUnits="userSpaceOnUse" x1="-6071.5146" y1="833.2354" x2="-6071.5146" y2="717.8405" gradientTransform="matrix(1 0 0 1 6390.375 -592.3281)">
		<stop  offset="0.1843" style="stop-color:#000000;stop-opacity:0"/>
		<stop  offset="0.7056" style="stop-color:#AD2401;stop-opacity:0.9605"/>
		<stop  offset="0.9894" style="stop-color:#FF7800"/>
	</linearGradient>
	<path fill="url(#SVGID_24_)" d="M319.928,222.732c0-0.686,0.01-1.363,0.024-2.043l-4.013-0.078c-0.009,0.514-0.02,1.021-0.02,1.537
		c0,6.688,0.725,13.201,2.086,19.479l3.795-0.812C320.576,234.979,319.928,228.934,319.928,222.732z"/>
	
		<linearGradient id="SVGID_25_" gradientUnits="userSpaceOnUse" x1="-6069.1562" y1="833.2334" x2="-6069.1562" y2="717.8365" gradientTransform="matrix(1 0 0 1 6390.375 -592.3281)">
		<stop  offset="0.1843" style="stop-color:#000000;stop-opacity:0"/>
		<stop  offset="0.7056" style="stop-color:#AD2401;stop-opacity:0.9605"/>
		<stop  offset="0.9894" style="stop-color:#FF7800"/>
	</linearGradient>
	<path fill="url(#SVGID_25_)" d="M326.289,189.947l-3.929-1.562c-3.399,8.555-5.546,17.745-6.212,27.344l4.032,0.291
		C320.878,206.861,322.99,198.1,326.289,189.947z"/>
	
		<linearGradient id="SVGID_26_" gradientUnits="userSpaceOnUse" x1="-5901.8027" y1="833.2344" x2="-5901.8027" y2="717.8364" gradientTransform="matrix(1 0 0 1 6390.375 -592.3281)">
		<stop  offset="0.1843" style="stop-color:#000000;stop-opacity:0"/>
		<stop  offset="0.7056" style="stop-color:#AD2401;stop-opacity:0.9605"/>
		<stop  offset="0.9894" style="stop-color:#FF7800"/>
	</linearGradient>
	<path fill="url(#SVGID_26_)" d="M497.16,204.948c-2.307-12.113-7-23.38-13.573-33.289l-3.604,2.399
		c6.33,9.426,10.869,20.153,13.146,31.694L497.16,204.948z"/>
	
		<linearGradient id="SVGID_27_" gradientUnits="userSpaceOnUse" x1="-6065.8916" y1="833.2363" x2="-6065.8916" y2="717.8423" gradientTransform="matrix(1 0 0 1 6390.375 -592.3281)">
		<stop  offset="0.1843" style="stop-color:#000000;stop-opacity:0"/>
		<stop  offset="0.7056" style="stop-color:#AD2401;stop-opacity:0.9605"/>
		<stop  offset="0.9894" style="stop-color:#FF7800"/>
	</linearGradient>
	<path fill="url(#SVGID_27_)" d="M319.213,246.516c1.763,6.395,4.2,12.498,7.232,18.246l3.309-1.731
		c-2.874-5.521-5.175-11.392-6.823-17.522L319.213,246.516z"/>
	
		<linearGradient id="SVGID_28_" gradientUnits="userSpaceOnUse" x1="-6030.5938" y1="833.2314" x2="-6030.5938" y2="717.8362" gradientTransform="matrix(1 0 0 1 6390.375 -592.3281)">
		<stop  offset="0.1843" style="stop-color:#000000;stop-opacity:0"/>
		<stop  offset="0.7056" style="stop-color:#AD2401;stop-opacity:0.9605"/>
		<stop  offset="0.9894" style="stop-color:#FF7800"/>
	</linearGradient>
	<path fill="url(#SVGID_28_)" d="M344.353,155.89l3.06,3.208c7.994-7.533,17.405-13.58,27.797-17.689l-1.674-4.229
		C362.614,141.53,352.729,147.923,344.353,155.89z"/>
	
		<linearGradient id="SVGID_29_" gradientUnits="userSpaceOnUse" x1="-5994.5889" y1="833.2383" x2="-5994.5889" y2="717.8351" gradientTransform="matrix(1 0 0 1 6390.375 -592.3281)">
		<stop  offset="0.1843" style="stop-color:#000000;stop-opacity:0"/>
		<stop  offset="0.7056" style="stop-color:#AD2401;stop-opacity:0.9605"/>
		<stop  offset="0.9894" style="stop-color:#FF7800"/>
	</linearGradient>
	<path fill="url(#SVGID_29_)" d="M378.419,135.395l1.453,4.325c8.644-2.86,17.882-4.413,27.48-4.413
		c1.854,0,3.692,0.065,5.521,0.179l0.28-4.58c-1.92-0.119-3.853-0.188-5.802-0.188C397.24,130.717,387.514,132.363,378.419,135.395z
		"/>
	
		<linearGradient id="SVGID_30_" gradientUnits="userSpaceOnUse" x1="-5956.0635" y1="833.2246" x2="-5956.0635" y2="717.8372" gradientTransform="matrix(1 0 0 1 6390.375 -592.3281)">
		<stop  offset="0.1843" style="stop-color:#000000;stop-opacity:0"/>
		<stop  offset="0.7056" style="stop-color:#AD2401;stop-opacity:0.9605"/>
		<stop  offset="0.9894" style="stop-color:#FF7800"/>
	</linearGradient>
	<path fill="url(#SVGID_30_)" d="M417.356,135.88c11.404,1.299,22.145,4.787,31.783,10.042l2.127-3.984
		c-10.11-5.547-21.385-9.233-33.361-10.61L417.356,135.88z"/>
	
		<linearGradient id="SVGID_31_" gradientUnits="userSpaceOnUse" x1="-5923.2549" y1="833.2314" x2="-5923.2549" y2="717.8375" gradientTransform="matrix(1 0 0 1 6390.375 -592.3281)">
		<stop  offset="0.1843" style="stop-color:#000000;stop-opacity:0"/>
		<stop  offset="0.7056" style="stop-color:#AD2401;stop-opacity:0.9605"/>
		<stop  offset="0.9894" style="stop-color:#FF7800"/>
	</linearGradient>
	<path fill="url(#SVGID_31_)" d="M455.895,144.659l-2.352,3.839c9.155,5.71,17.185,13.063,23.657,21.654l3.495-2.602
		C473.931,158.473,465.514,150.698,455.895,144.659z"/>
	
		<linearGradient id="SVGID_32_" gradientUnits="userSpaceOnUse" x1="-5894.8105" y1="833.2344" x2="-5894.8105" y2="717.838" gradientTransform="matrix(1 0 0 1 6390.375 -592.3281)">
		<stop  offset="0.1843" style="stop-color:#000000;stop-opacity:0"/>
		<stop  offset="0.7056" style="stop-color:#AD2401;stop-opacity:0.9605"/>
		<stop  offset="0.9894" style="stop-color:#FF7800"/>
	</linearGradient>
	<path fill="url(#SVGID_32_)" d="M497.937,209.689l-4.045,0.57c0.582,4.074,0.89,8.236,0.89,12.473
		c0,7.084-0.848,13.966-2.438,20.561l3.753,0.93c1.753-7.067,2.688-14.461,2.688-22.072
		C498.783,217.922,498.49,213.766,497.937,209.689z"/>
	
		<linearGradient id="SVGID_33_" gradientUnits="userSpaceOnUse" x1="-5901.2588" y1="833.2344" x2="-5901.2588" y2="717.8258" gradientTransform="matrix(1 0 0 1 6390.375 -592.3281)">
		<stop  offset="0.1843" style="stop-color:#000000;stop-opacity:0"/>
		<stop  offset="0.7056" style="stop-color:#AD2401;stop-opacity:0.9605"/>
		<stop  offset="0.9894" style="stop-color:#FF7800"/>
	</linearGradient>
	<path fill="url(#SVGID_33_)" d="M483.453,265.79l3.218,1.871c3.36-5.853,6.097-12.104,8.107-18.681l-3.666-1.146
		C489.227,254.15,486.646,260.165,483.453,265.79z"/>
	
		<linearGradient id="SVGID_34_" gradientUnits="userSpaceOnUse" x1="-6056.1084" y1="833.2334" x2="-6056.1084" y2="717.8395" gradientTransform="matrix(1 0 0 1 6390.375 -592.3281)">
		<stop  offset="0.1843" style="stop-color:#000000;stop-opacity:0"/>
		<stop  offset="0.7056" style="stop-color:#AD2401;stop-opacity:0.9605"/>
		<stop  offset="0.9894" style="stop-color:#FF7800"/>
	</linearGradient>
	<path fill="url(#SVGID_34_)" d="M324.378,183.712l3.856,1.788c4.045-8.581,9.441-16.398,15.92-23.174l-3.202-3.026
		C334.19,166.442,328.57,174.678,324.378,183.712z"/>
</g>
<linearGradient id="SVGID_35_" gradientUnits="userSpaceOnUse" x1="-5982.8701" y1="649.2178" x2="-5982.8701" y2="931.9873" gradientTransform="matrix(1 0 0 1 6390.375 -592.3281)">
	<stop  offset="0" style="stop-color:#A12C17"/>
	<stop  offset="0.1834" style="stop-color:#9E2B17"/>
	<stop  offset="0.317" style="stop-color:#952915"/>
	<stop  offset="0.4348" style="stop-color:#852413"/>
	<stop  offset="0.5435" style="stop-color:#6E1E10"/>
	<stop  offset="0.6459" style="stop-color:#51160C"/>
	<stop  offset="0.7436" style="stop-color:#2E0D07"/>
	<stop  offset="0.836" style="stop-color:#040101"/>
	<stop  offset="0.8449" style="stop-color:#000000"/>
</linearGradient>
<path opacity="0.6" fill="url(#SVGID_35_)" enable-background="new    " d="M274.528,298.648
	c-13.678-23.059-21.541-49.969-21.541-78.723c0-85.335,69.182-154.514,154.519-154.514c85.336,0,154.516,69.179,154.516,154.514
	c0,28.666-7.814,55.504-21.417,78.514l1.492,0.881c13.754-23.27,21.657-50.402,21.657-79.395
	c0-86.292-69.955-156.247-156.248-156.247s-156.249,69.955-156.249,156.247c0,29.074,7.951,56.287,21.782,79.604L274.528,298.648z"
	/>
<path fill="#FFFFFF" d="M264.794,358.387"/>
<path opacity="0.76" fill="none" stroke="#282828" stroke-width="4" stroke-miterlimit="10" enable-background="new    " d="
	M526.646,109.215"/>
<path fill="#FFFFFF" d="M235.113,314.83c-15.541-28.146-24.397-60.495-24.397-94.919c0-108.604,88.041-196.646,196.643-196.646
	C515.961,23.265,604,111.306,604,219.911c0,34.205-8.742,66.364-24.104,94.378c-0.35,0.634-0.35,1.275,0.268,1.646l2.271,1.27
	c0.315,0.168,1.069,0.213,1.39-0.368c15.829-28.756,24.849-61.78,24.849-96.922C608.67,108.729,518.537,18.6,407.358,18.6
	s-201.309,90.129-201.309,201.312c0,35.271,9.082,68.414,25.018,97.24c0.285,0.521,0.92,0.742,1.363,0.55l2.591-1.444
	C235.32,316.02,235.523,315.572,235.113,314.83z"/>
<linearGradient id="SVGID_36_" gradientUnits="userSpaceOnUse" x1="-6384.5049" y1="815.708" x2="-6269.144" y2="935.1894" gradientTransform="matrix(1 0 0 1 6390.375 -592.3281)">
	<stop  offset="0" style="stop-color:#BDBDBD"/>
	<stop  offset="1" style="stop-color:#FFFFFF;stop-opacity:0"/>
</linearGradient>
<path fill="url(#SVGID_36_)" d="M106.923,226.561c56.057,0,101.501,45.445,101.501,101.502c0,30.688-13.634,58.164-35.151,76.775
	l-1.75-2.035c21.122-18.205,34.514-45.135,34.514-75.207c0-54.83-44.445-99.279-99.273-99.279
	c-54.831,0-99.279,44.449-99.279,99.279c0,30.074,13.396,57.004,34.521,75.211l-1.613,1.873
	c-21.41-18.607-34.965-46.021-34.965-76.617C5.422,272.006,50.864,226.561,106.923,226.561z"/>
<g>
	
		<radialGradient id="SVGID_37_" cx="-5982.7373" cy="823.4531" r="94.7652" gradientTransform="matrix(1 0 0 1 6390.375 -592.3281)" gradientUnits="userSpaceOnUse">
		<stop  offset="0.9238" style="stop-color:#000000;stop-opacity:0"/>
		<stop  offset="1" style="stop-color:#F36417"/>
	</radialGradient>
	<path fill="url(#SVGID_37_)" d="M324.955,222.25c0-0.49,0.012-0.979,0.021-1.465l-3.354-0.064c-0.01,0.51-0.021,1.021-0.021,1.529
		c0,6.242,0.671,12.328,1.935,18.191l3.281-0.701C325.602,234.102,324.955,228.252,324.955,222.25z"/>
	
		<radialGradient id="SVGID_38_" cx="-5982.7402" cy="823.4502" r="94.7618" gradientTransform="matrix(1 0 0 1 6390.375 -592.3281)" gradientUnits="userSpaceOnUse">
		<stop  offset="0.9238" style="stop-color:#000000;stop-opacity:0"/>
		<stop  offset="1" style="stop-color:#F36417"/>
	</radialGradient>
	<path fill="url(#SVGID_38_)" d="M330.775,191.731l-3.119-1.241c-3.188,8.026-5.203,16.646-5.836,25.646l3.349,0.242
		C325.774,207.729,327.709,199.444,330.775,191.731z"/>
	
		<radialGradient id="SVGID_39_" cx="-5982.7422" cy="823.4482" r="94.7543" gradientTransform="matrix(1 0 0 1 6390.375 -592.3281)" gradientUnits="userSpaceOnUse">
		<stop  offset="0.9238" style="stop-color:#000000;stop-opacity:0"/>
		<stop  offset="1" style="stop-color:#F36417"/>
	</radialGradient>
	<path fill="url(#SVGID_39_)" d="M329.546,186.105l3.046,1.411c3.772-8.145,8.836-15.571,14.924-22.018l-2.438-2.306
		C338.74,169.903,333.475,177.631,329.546,186.105z"/>
	
		<radialGradient id="SVGID_40_" cx="-5982.7393" cy="823.4541" r="94.7629" gradientTransform="matrix(1 0 0 1 6390.375 -592.3281)" gradientUnits="userSpaceOnUse">
		<stop  offset="0.9238" style="stop-color:#000000;stop-opacity:0"/>
		<stop  offset="1" style="stop-color:#F36417"/>
	</radialGradient>
	<path fill="url(#SVGID_40_)" d="M348.26,159.988l2.313,2.431c7.535-7.188,16.432-12.964,26.254-16.912l-1.233-3.121
		C365.365,146.493,356.106,152.505,348.26,159.988z"/>
	
		<radialGradient id="SVGID_41_" cx="-5982.7402" cy="823.457" r="94.7649" gradientTransform="matrix(1 0 0 1 6390.375 -592.3281)" gradientUnits="userSpaceOnUse">
		<stop  offset="0.9238" style="stop-color:#000000;stop-opacity:0"/>
		<stop  offset="1" style="stop-color:#F36417"/>
	</radialGradient>
	<path fill="url(#SVGID_41_)" d="M380.198,140.685l1.07,3.183c8.281-2.785,17.148-4.297,26.368-4.297
		c1.671,0,3.329,0.057,4.976,0.153l0.206-3.349c-1.715-0.104-3.438-0.16-5.182-0.16
		C398.039,136.215,388.816,137.787,380.198,140.685z"/>
	
		<radialGradient id="SVGID_42_" cx="-5982.7402" cy="823.4619" r="94.7684" gradientTransform="matrix(1 0 0 1 6390.375 -592.3281)" gradientUnits="userSpaceOnUse">
		<stop  offset="0.9238" style="stop-color:#000000;stop-opacity:0"/>
		<stop  offset="1" style="stop-color:#F36417"/>
	</radialGradient>
	<path fill="url(#SVGID_42_)" d="M416.849,140.085c10.882,1.207,21.127,4.52,30.312,9.532l1.582-2.962
		c-9.549-5.203-20.189-8.646-31.493-9.902L416.849,140.085z"/>
	
		<radialGradient id="SVGID_43_" cx="-5982.7402" cy="823.4561" r="94.7631" gradientTransform="matrix(1 0 0 1 6390.375 -592.3281)" gradientUnits="userSpaceOnUse">
		<stop  offset="0.9238" style="stop-color:#000000;stop-opacity:0"/>
		<stop  offset="1" style="stop-color:#F36417"/>
	</radialGradient>
	<path fill="url(#SVGID_43_)" d="M453.11,149.208l-1.752,2.862c8.699,5.432,16.316,12.431,22.453,20.608l2.691-2.004
		C470.113,162.155,462.174,154.864,453.11,149.208z"/>
	
		<radialGradient id="SVGID_44_" cx="-5982.7412" cy="823.4492" r="94.7621" gradientTransform="matrix(1 0 0 1 6390.375 -592.3281)" gradientUnits="userSpaceOnUse">
		<stop  offset="0.9238" style="stop-color:#000000;stop-opacity:0"/>
		<stop  offset="1" style="stop-color:#F36417"/>
	</radialGradient>
	<path fill="url(#SVGID_44_)" d="M492.121,205.954c-2.189-11.434-6.646-22.062-12.879-31.401l-2.793,1.862
		c5.994,8.98,10.274,19.201,12.379,30.192L492.121,205.954z"/>
	
		<radialGradient id="SVGID_45_" cx="-5982.7529" cy="823.4531" r="94.7761" gradientTransform="matrix(1 0 0 1 6390.375 -592.3281)" gradientUnits="userSpaceOnUse">
		<stop  offset="0.9238" style="stop-color:#000000;stop-opacity:0"/>
		<stop  offset="1" style="stop-color:#F36417"/>
	</radialGradient>
	<path fill="url(#SVGID_45_)" d="M492.857,210.409l-3.323,0.469c0.515,3.722,0.782,7.517,0.782,11.373
		c0,6.875-0.845,13.556-2.427,19.938l3.259,0.809c1.646-6.646,2.524-13.593,2.524-20.746
		C493.672,218.232,493.39,214.28,492.857,210.409z"/>
	
		<radialGradient id="SVGID_46_" cx="-5982.7393" cy="823.4531" r="94.7606" gradientTransform="matrix(1 0 0 1 6390.375 -592.3281)" gradientUnits="userSpaceOnUse">
		<stop  offset="0.9238" style="stop-color:#000000;stop-opacity:0"/>
		<stop  offset="1" style="stop-color:#F36417"/>
	</radialGradient>
	<path fill="url(#SVGID_46_)" d="M479.362,263.404l2.9,1.688c3.177-5.521,5.754-11.428,7.647-17.631l-3.2-1
		C484.887,252.424,482.41,258.1,479.362,263.404z"/>
	
		<radialGradient id="SVGID_47_" cx="-5982.7373" cy="823.4541" r="94.7646" gradientTransform="matrix(1 0 0 1 6390.375 -592.3281)" gradientUnits="userSpaceOnUse">
		<stop  offset="0.9238" style="stop-color:#000000;stop-opacity:0"/>
		<stop  offset="1" style="stop-color:#F36417"/>
	</radialGradient>
	<path fill="url(#SVGID_47_)" d="M324.656,245.034c1.646,5.995,3.917,11.729,6.749,17.129l2.976-1.562
		c-2.722-5.186-4.904-10.688-6.483-16.449L324.656,245.034z"/>
</g>
<g>
	<path fill="#FFFFFF" d="M48.082,259.303C11.64,291.609,8.154,347.246,40.176,383.84c0.324,0.371,0.614,0.229,0.836,0.03
		l2.771-2.457c0.217-0.19,0.396-0.521,0.072-0.888c-30.181-34.547-26.876-87.033,7.512-117.52
		c34.398-30.492,86.937-27.461,117.605,6.688c0.132,0.146,0.479,0.314,0.854-0.018l2.889-2.561c0.233-0.207,0.144-0.512,0.039-0.629
		C140.278,230.221,84.558,226.971,48.082,259.303z"/>
	<path fill="#E5E5E5" d="M50.51,262.043c-35.074,31.092-38.303,84.729-7.212,119.805l0.486-0.435
		c0.292-0.259,0.364-0.554,0.072-0.888c-30.181-34.549-26.876-87.033,7.512-117.52c34.382-30.479,86.877-27.465,117.555,6.632
		c0.296,0.329,0.59,0.321,0.905,0.044l0.481-0.432C139.219,234.182,85.582,230.954,50.51,262.043z"/>
	<circle fill="none" cx="106.254" cy="325.265" r="88.302"/>
</g>
<linearGradient id="SVGID_48_" gradientUnits="userSpaceOnUse" x1="-5357.208" y1="815.7061" x2="-5241.8467" y2="935.1871" gradientTransform="matrix(-1 0 0 1 -4544.6855 -592.3281)">
	<stop  offset="0" style="stop-color:#BDBDBD"/>
	<stop  offset="1" style="stop-color:#FFFFFF;stop-opacity:0"/>
</linearGradient>
<path fill="url(#SVGID_48_)" d="M711.469,226.561c-56.06,0-101.501,45.445-101.501,101.502c0,30.688,13.634,58.164,35.148,76.775
	l1.75-2.035c-21.119-18.205-34.512-45.135-34.512-75.207c0-54.83,44.445-99.279,99.273-99.279c54.829,0,99.274,44.449,99.274,99.279
	c0,30.074-13.393,57.004-34.519,75.211L778,404.68c21.407-18.607,34.966-46.021,34.966-76.617
	C812.97,272.006,767.528,226.561,711.469,226.561z"/>
<g>
	<path fill="#FFFFFF" d="M770.311,259.303c36.441,32.307,39.928,87.942,7.904,124.537c-0.323,0.371-0.613,0.229-0.836,0.03
		l-2.771-2.457c-0.218-0.19-0.396-0.521-0.074-0.888c30.185-34.547,26.877-87.033-7.509-117.52
		c-34.401-30.492-86.938-27.461-117.608,6.688c-0.131,0.146-0.479,0.314-0.853-0.018l-2.889-2.561
		c-0.233-0.207-0.146-0.512-0.039-0.628C678.114,230.221,733.834,226.971,770.311,259.303z"/>
	<path fill="#E5E5E5" d="M767.883,262.043c35.071,31.092,38.303,84.729,7.211,119.805l-0.485-0.435
		c-0.292-0.259-0.366-0.554-0.075-0.888c30.185-34.549,26.877-87.033-7.508-117.52c-34.383-30.479-86.877-27.465-117.556,6.632
		c-0.296,0.329-0.591,0.321-0.905,0.044l-0.484-0.432C679.172,234.182,732.81,230.954,767.883,262.043z"/>
	<circle fill="none" cx="712.138" cy="325.265" r="88.302"/>
</g>
<linearGradient id="SVGID_49_" gradientUnits="userSpaceOnUse" x1="-5652.7305" y1="690.7295" x2="-5709.9321" y2="869.4285" gradientTransform="matrix(-0.9643 -0.2647 -0.2647 0.9643 -4867.8076 -2104.9573)">
	<stop  offset="0.4307" style="stop-color:#7A7A7A;stop-opacity:0.8"/>
	<stop  offset="0.8304" style="stop-color:#E8E8E8;stop-opacity:0"/>
</linearGradient>
<path fill="url(#SVGID_49_)" d="M463.793,12.393c82.155,22.552,139.645,90.536,152.812,169.39l-3.529,0.554
	c-13.06-77.436-69.562-144.158-150.276-166.313C351.89-14.419,237.302,50.809,206.859,161.717
	c-10.614,38.677-9.584,77.797,0.948,113.645c0.385,1.31-0.357,1.91-0.887,2.095l-0.687,0.205c-0.858,0.297-1.249-0.343-1.342-0.654
	c-10.98-36.709-12.146-76.841-1.259-116.512C234.58,47.753,351.057-18.552,463.793,12.393z"/>
<linearGradient id="SVGID_50_" gradientUnits="userSpaceOnUse" x1="-5852.7988" y1="637.5215" x2="-6082.1323" y2="816.1879" gradientTransform="matrix(1 0 0 1 6390.375 -592.3281)">
	<stop  offset="0.4615" style="stop-color:#E8E8E8;stop-opacity:0.8"/>
	<stop  offset="0.7193" style="stop-color:#7A7A7A;stop-opacity:0.8"/>
	<stop  offset="1" style="stop-color:#000000;stop-opacity:0.6"/>
</linearGradient>
<path fill="url(#SVGID_50_)" d="M463.793,12.393c82.155,22.552,139.645,90.536,152.812,169.39l-0.447,0.07l-0.186,0.029
	c-13.135-78.425-70.324-146.028-152.049-168.46C351.74-17.371,235.835,48.61,205.042,160.793
	c-10.918,39.776-9.659,80.02,1.501,116.771l-0.312,0.096c-0.858,0.297-1.249-0.344-1.342-0.654
	c-10.98-36.709-12.146-76.841-1.259-116.512C234.58,47.753,351.057-18.552,463.793,12.393z"/>
<g>
	<path fill="#E56822" d="M613.649,195.791l8.35-0.938c-0.356-0.394-0.644-0.716-0.854-0.969s-0.376-0.477-0.5-0.669l1.364-0.975
		c0.203,0.274,0.462,0.587,0.771,0.937c0.312,0.351,0.623,0.674,0.938,0.971c0.312,0.296,0.565,0.527,0.767,0.693l0.203,1.767
		l-10.806,1.212L613.649,195.791z"/>
	<path fill="#E56822" d="M615.047,218.436l8.399-0.014c-0.312-0.43-0.56-0.781-0.735-1.058c-0.186-0.274-0.322-0.517-0.427-0.722
		l1.468-0.819c0.172,0.298,0.395,0.636,0.663,1.019c0.27,0.383,0.544,0.738,0.819,1.066c0.279,0.328,0.507,0.586,0.688,0.771
		l0.007,1.776l-10.875,0.021L615.047,218.436z"/>
	<path fill="#E56822" d="M614.698,226.859c0.022-0.609,0.167-1.127,0.437-1.549c0.269-0.42,0.646-0.758,1.142-1.01
		c0.494-0.254,1.095-0.428,1.804-0.525c0.712-0.1,1.515-0.131,2.412-0.1c0.896,0.033,1.692,0.125,2.394,0.275
		c0.692,0.146,1.278,0.365,1.752,0.654c0.472,0.287,0.826,0.65,1.062,1.09c0.236,0.438,0.345,0.967,0.32,1.574
		c-0.021,0.611-0.166,1.131-0.435,1.554c-0.27,0.425-0.646,0.763-1.14,1.019c-0.491,0.256-1.091,0.432-1.796,0.529
		c-0.706,0.098-1.507,0.131-2.4,0.098c-0.9-0.031-1.699-0.125-2.398-0.271c-0.699-0.15-1.286-0.369-1.76-0.66
		c-0.478-0.291-0.828-0.656-1.063-1.1C614.781,227.999,614.674,227.471,614.698,226.859z M616.448,226.924
		c-0.013,0.328,0.146,0.598,0.461,0.807c0.317,0.207,0.787,0.354,1.407,0.438c0.62,0.082,1.288,0.139,2.001,0.164
		c1.073,0.039,1.903,0.012,2.492-0.078c0.588-0.092,0.975-0.23,1.158-0.424c0.185-0.193,0.279-0.396,0.289-0.617
		c0.012-0.34-0.146-0.607-0.469-0.812c-0.322-0.199-0.791-0.342-1.4-0.422s-1.271-0.131-1.979-0.158
		c-0.715-0.023-1.317-0.021-1.817,0.008c-0.5,0.027-0.907,0.09-1.226,0.178c-0.312,0.088-0.545,0.209-0.688,0.36
		C616.531,226.52,616.455,226.706,616.448,226.924z"/>
	<path fill="#E56822" d="M611.506,232.17l0.778-0.711c0.211,0.232,0.438,0.438,0.67,0.611c0.235,0.176,0.48,0.307,0.736,0.396
		c0.256,0.094,0.498,0.146,0.729,0.16l0.209,0.016l0.054-0.824l2.425,0.16l-0.136,2.055l-2.295-0.15
		c-0.536-0.033-1.026-0.154-1.474-0.357c-0.443-0.205-0.806-0.436-1.072-0.688C611.861,232.584,611.652,232.361,611.506,232.17z"/>
	<path fill="#E56822" d="M613.912,238.793c0.062-0.607,0.232-1.115,0.525-1.521c0.291-0.401,0.689-0.717,1.197-0.938
		c0.508-0.227,1.117-0.363,1.831-0.42c0.713-0.059,1.519-0.043,2.415,0.041c0.893,0.086,1.683,0.225,2.369,0.414
		c0.686,0.189,1.257,0.441,1.711,0.758c0.451,0.312,0.782,0.697,0.992,1.146c0.209,0.453,0.284,0.982,0.229,1.594
		c-0.06,0.607-0.233,1.117-0.524,1.523c-0.293,0.404-0.688,0.724-1.192,0.945c-0.506,0.229-1.113,0.367-1.824,0.425
		c-0.711,0.06-1.514,0.043-2.404-0.041c-0.896-0.086-1.688-0.226-2.38-0.413c-0.688-0.189-1.262-0.445-1.718-0.764
		c-0.456-0.316-0.788-0.703-0.998-1.157C613.932,239.936,613.857,239.402,613.912,238.793z M615.658,238.961
		c-0.028,0.328,0.105,0.604,0.411,0.832c0.309,0.225,0.77,0.396,1.382,0.518c0.613,0.117,1.275,0.211,1.986,0.277
		c1.068,0.104,1.898,0.125,2.492,0.067c0.593-0.056,0.986-0.175,1.182-0.354c0.196-0.18,0.308-0.379,0.324-0.6
		c0.032-0.34-0.104-0.615-0.418-0.837c-0.312-0.22-0.771-0.388-1.374-0.503c-0.604-0.113-1.261-0.203-1.967-0.271
		c-0.712-0.066-1.316-0.104-1.817-0.101c-0.501-0.003-0.911,0.034-1.229,0.104c-0.318,0.07-0.559,0.177-0.709,0.32
		C615.77,238.559,615.682,238.743,615.658,238.961z"/>
	<path fill="#E56822" d="M612.977,246.891c0.083-0.604,0.277-1.104,0.585-1.498c0.31-0.393,0.72-0.688,1.235-0.893
		c0.517-0.201,1.133-0.318,1.848-0.348c0.715-0.028,1.52,0.02,2.411,0.141c0.888,0.119,1.672,0.289,2.351,0.506
		c0.683,0.219,1.238,0.492,1.683,0.826c0.438,0.33,0.757,0.729,0.944,1.188c0.19,0.461,0.244,0.994,0.161,1.604
		c-0.081,0.604-0.275,1.104-0.586,1.502c-0.308,0.396-0.719,0.691-1.229,0.896c-0.519,0.205-1.13,0.322-1.843,0.354
		c-0.713,0.026-1.514-0.021-2.398-0.142c-0.896-0.118-1.68-0.286-2.36-0.508c-0.681-0.22-1.241-0.494-1.686-0.83
		c-0.443-0.334-0.761-0.731-0.95-1.192C612.948,248.031,612.894,247.497,612.977,246.891z M614.715,247.127
		c-0.045,0.326,0.08,0.605,0.377,0.848c0.297,0.238,0.749,0.428,1.356,0.57s1.27,0.262,1.977,0.355
		c1.062,0.146,1.894,0.199,2.484,0.168c0.599-0.031,0.994-0.135,1.195-0.311c0.203-0.172,0.318-0.365,0.353-0.586
		c0.045-0.336-0.082-0.617-0.388-0.854c-0.302-0.229-0.754-0.416-1.354-0.557c-0.604-0.141-1.252-0.258-1.954-0.354
		c-0.708-0.098-1.312-0.152-1.812-0.176c-0.5-0.021-0.911,0-1.23,0.061c-0.322,0.059-0.563,0.154-0.725,0.293
		C614.838,246.73,614.742,246.909,614.715,247.127z"/>
	<path fill="#E56822" d="M611.656,255.256c0.108-0.604,0.324-1.094,0.648-1.471c0.323-0.383,0.747-0.66,1.271-0.844
		c0.524-0.184,1.146-0.271,1.86-0.271s1.517,0.08,2.403,0.238c0.882,0.152,1.655,0.354,2.323,0.604
		c0.673,0.242,1.22,0.541,1.646,0.894c0.426,0.351,0.725,0.761,0.896,1.228c0.175,0.471,0.203,1.006,0.099,1.604
		c-0.108,0.603-0.324,1.095-0.648,1.476c-0.324,0.385-0.747,0.666-1.27,0.852c-0.523,0.186-1.144,0.273-1.854,0.273
		s-1.511-0.08-2.393-0.234c-0.891-0.157-1.666-0.359-2.339-0.604c-0.67-0.246-1.224-0.545-1.648-0.897
		c-0.429-0.354-0.729-0.767-0.896-1.231C611.576,256.395,611.547,255.859,611.656,255.256z M613.383,255.564
		c-0.062,0.324,0.055,0.609,0.341,0.859c0.287,0.25,0.729,0.459,1.334,0.627c0.603,0.168,1.256,0.313,1.959,0.438
		c1.056,0.188,1.882,0.274,2.478,0.271c0.599-0.008,0.998-0.096,1.209-0.258c0.209-0.164,0.334-0.354,0.371-0.57
		c0.062-0.336-0.057-0.623-0.348-0.865c-0.293-0.244-0.734-0.445-1.329-0.611c-0.594-0.164-1.239-0.309-1.938-0.434
		c-0.7-0.125-1.305-0.207-1.804-0.248c-0.499-0.039-0.909-0.037-1.232,0.006c-0.323,0.047-0.567,0.135-0.732,0.266
		S613.42,255.348,613.383,255.564z"/>
</g>
<polygon fill="#E56822" points="624.596,210.146 624.461,208.484 621.064,206.493 624.108,203.995 623.977,202.333 619.807,205.758 
	615.148,203.03 615.28,204.693 618.678,206.682 615.633,209.184 615.765,210.844 619.938,207.42 "/>
<path fill="#C9C7C8" d="M235.261,214.588c-0.048,1.676-0.079,3.354-0.079,5.041c0,11.955,1.22,23.623,3.54,34.891l11.053-2.311
	c-2.164-10.521-3.302-21.418-3.302-32.58c0-1.576,0.029-3.146,0.074-4.715L235.261,214.588z"/>
<path fill="#E1E0DE" d="M246.472,219.629c0-1.576,0.029-3.146,0.074-4.715l-2.69-0.078c-0.046,1.594-0.075,3.188-0.075,4.793
	c0,11.352,1.158,22.432,3.359,33.131l2.635-0.551C247.611,241.688,246.472,230.792,246.472,219.629z"/>
<path fill="#C9C7C8" d="M255.842,301.471l9.935-5.369c-5.933-10.959-10.622-22.688-13.896-34.994l-10.937,2.82
	C244.451,277.131,249.479,289.713,255.842,301.471z"/>
<path fill="#E1E0DE" d="M265.777,296.102c-5.933-10.959-10.622-22.688-13.896-34.994l-2.607,0.676
	c3.33,12.52,8.102,24.449,14.137,35.602L265.777,296.102z"/>
<path fill="#9D9C9B" d="M235.261,214.588c-0.048,1.676-0.079,3.354-0.079,5.041c0,11.955,1.22,23.623,3.54,34.891l1.589-0.332
	c-2.297-11.16-3.505-22.719-3.505-34.559c0-1.67,0.03-3.334,0.078-4.994L235.261,214.588z"/>
<path fill="#9D9C9B" d="M257.27,300.698c-6.301-11.642-11.28-24.104-14.752-37.177l-1.572,0.404
	c3.508,13.203,8.533,25.785,14.896,37.543L257.27,300.698z"/>
<path fill="#BD9A34" d="M247.084,205.646c1.663-19.306,6.729-37.631,14.604-54.381l-10.16-4.766l-0.064-0.021
	c-8.425,17.922-13.848,37.531-15.627,58.186L247.084,205.646z"/>
<path fill="#9E7F29" d="M237.454,204.803c1.762-20.462,7.136-39.889,15.48-57.645l-1.406-0.66l-0.064-0.021
	c-8.425,17.922-13.848,37.531-15.627,58.187L237.454,204.803z"/>
<path fill="#E9C25A" d="M244.402,205.411l2.685,0.231c1.663-19.304,6.729-37.629,14.604-54.379l-2.438-1.144
	C251.246,167.151,246.093,185.784,244.402,205.411z"/>
<path fill="#BD9A34" d="M255.919,137.645L255.919,137.645l9.94,5.353c8.987-16.559,20.805-31.354,34.787-43.759l-7.485-8.447
	C278.187,104.071,265.538,119.914,255.919,137.645z"/>
<g>
	<path fill="#C9C7C8" d="M228.875,281.44c-0.279-1.015-0.449-1.61-0.507-1.787l-0.342-1.028c-0.088,0.013-0.191,0.026-0.307,0.042
		c-0.228,0.029-0.547,0.085-0.958,0.17l-0.667,0.134c-0.024-0.319-0.129-0.821-0.31-1.506l0.671,0.037
		c0.093,0.004,0.489-0.006,1.187-0.03l-0.694-2.088c-0.039-0.119-0.265-0.707-0.674-1.766c0.455-0.093,0.932-0.222,1.432-0.388
		l1.359-0.45c0.349-0.115,0.582-0.198,0.698-0.248l0.667-0.291c0.178,0.709,0.348,1.309,0.513,1.803l1.561,4.69l1.391-0.462
		l-1.669-5.016c-0.198-0.593-0.434-1.218-0.71-1.875c0.439-0.088,0.937-0.225,1.494-0.409l1.75-0.579
		c0.345-0.114,0.566-0.193,0.667-0.238l0.651-0.285c0.164,0.666,0.337,1.272,0.518,1.818l1.483,4.455
		c0.216,0.649,0.466,1.316,0.752,2c-0.798,0.207-1.495,0.408-2.089,0.605l-5.969,1.977c-0.485,0.16-0.806,0.273-0.964,0.336
		L228.875,281.44z M231.456,279.081l-1.68-5.049l-1.938,0.643l1.68,5.048L231.456,279.081z M228.955,284.597l2.268-2.567
		c0.255,0.278,0.648,0.645,1.18,1.097l-0.458,0.395c-0.594,0.508-1.119,1.086-1.574,1.732l-0.271,0.383
		C229.738,285.231,229.357,284.885,228.955,284.597z M237.128,277.202l-1.84-5.531l-2.142,0.709l1.841,5.531L237.128,277.202z
		 M242.388,282.638l-0.582-0.291l-0.854-0.479l-0.91-0.494l-4.955,1.641l0.172,0.514c0.051,0.156,0.214,0.558,0.488,1.205
		c-0.244,0.052-0.388,0.086-0.436,0.101l-0.03,0.011l-0.071,0.023l-0.117,0.039l-0.031,0.011c-0.006,0.001-0.016,0.005-0.032,0.01
		c-0.03,0.016-0.094,0.042-0.19,0.08c-0.005,0.003-0.152,0.06-0.438,0.171c-0.185-0.729-0.288-1.127-0.311-1.194l-0.238-0.717
		c-0.033-0.099-0.191-0.485-0.472-1.158c0.542-0.122,1.187-0.307,1.932-0.554l4.266-1.412l0.031-0.141
		c0.189-1.083,0.294-1.786,0.313-2.109c0.066-1.089-0.188-2.493-0.76-4.212c-0.323-0.971-0.992-2.632-2.005-4.983l-0.307-0.712
		c0.746,0.243,1.244,0.332,1.494,0.267l0.447-0.114l0.177,0.581c0.008,0.027,0.017,0.053,0.026,0.079l0.161,0.483l0.218,0.628
		l0.077,0.233l0.082,0.242l0.219,0.636c0.862,2.729,1.335,4.347,1.414,4.851c0.156,1.021,0.087,2.111-0.205,3.268
		c-0.127,0.521-0.169,0.847-0.126,0.977c0.08,0.239,0.306,0.435,0.682,0.587c0.267,0.108,0.783,0.251,1.548,0.431
		c-0.047,0.085-0.082,0.146-0.105,0.182c-0.247,0.422-0.384,0.678-0.412,0.768L242.388,282.638z"/>
	<path fill="#C9C7C8" d="M236.645,263.087l-0.19-0.311c-0.453-0.743-1.07-1.375-1.851-1.897c-0.912-0.608-2.116-0.739-3.613-0.393
		l-0.529,0.122l0.07,0.304c0.088,0.384,0.224,0.848,0.406,1.39c-0.424,0.042-0.858,0.114-1.302,0.217l-2.55,0.591
		c-0.315,0.073-0.527,0.128-0.637,0.165l-0.643,0.216c-0.026-0.14-0.045-0.242-0.054-0.308c-0.107-0.655-0.17-1.027-0.191-1.118
		l-0.652-2.815c-1.447-0.267-2.474-0.416-3.078-0.449l-0.702-0.04c0.112-0.561,0.193-1.136,0.243-1.726l0.988,0.327
		c0.658,0.218,1.411,0.427,2.256,0.624l-0.195-0.848c-0.08-0.342-0.21-0.783-0.392-1.325c0.375-0.031,0.814-0.104,1.317-0.222
		l2.55-0.59c0.294-0.068,0.495-0.121,0.604-0.157l0.659-0.221c0.065,0.524,0.143,0.979,0.231,1.362l0.185,0.8l4.231-0.996
		c0.176-0.041,0.292-0.11,0.348-0.208c0.061-0.104,0.045-0.353-0.046-0.747c-0.105-0.453-0.22-0.719-0.345-0.797
		c-0.132-0.082-0.389-0.123-0.772-0.124c-0.214-0.001-0.348-0.007-0.401-0.018l-0.477,0.061c0.122-0.157,0.217-0.319,0.284-0.488
		c0.08-0.191,0.142-0.594,0.186-1.205c0.34,0.056,0.679,0.107,1.017,0.152c0.383,0.052,0.681,0.148,0.895,0.29
		c0.184,0.12,0.333,0.276,0.445,0.47c0.128,0.212,0.284,0.713,0.466,1.502c0.215,0.928,0.263,1.512,0.144,1.753
		c-0.087,0.183-0.24,0.325-0.459,0.426c-0.146,0.068-0.429,0.151-0.846,0.247l-4.361,1.011l0.266,1.152
		c0.94-0.146,1.631-0.238,2.073-0.278c0.726-0.073,1.446,0.027,2.156,0.301c0.657,0.253,1.512,0.832,2.566,1.74l0.464,0.397
		c-0.236,0.319-0.399,0.564-0.488,0.737C236.82,262.36,236.728,262.668,236.645,263.087z M223.031,263.763
		c-0.262-0.428-0.564-0.83-0.905-1.206l2.074-2.284c0.302,0.43,0.621,0.834,0.956,1.211l-0.371,0.222
		c-0.109,0.063-0.328,0.274-0.656,0.632c-0.374,0.406-0.635,0.723-0.785,0.949L223.031,263.763z M238.446,264.81
		c-0.319,0.057-0.782,0.137-1.39,0.237c-0.541,0.093-0.985,0.179-1.333,0.259l-9.959,2.307c-0.304,0.071-0.702,0.18-1.191,0.327
		l-1.217,0.366c-0.01-0.07-0.018-0.125-0.021-0.164c-0.025-0.298-0.036-0.449-0.038-0.454l-0.057-0.207
		c-0.018-0.08-0.105-0.344-0.259-0.791c1.083-0.161,1.906-0.306,2.467-0.437l9.959-2.307c0.433-0.101,0.899-0.226,1.4-0.375
		l1.264-0.377c0.011,0.07,0.017,0.122,0.019,0.155c0.04,0.294,0.073,0.499,0.101,0.617c0.006,0.026,0.077,0.258,0.211,0.693
		L238.446,264.81z M229.341,261.171l-1.104-4.767l-2.581,0.599l1.103,4.767L229.341,261.171z M226.49,265.86
		c-0.188-0.4-0.398-0.773-0.631-1.118l2.63-1.638c0.198,0.467,0.424,0.913,0.682,1.343l-0.474,0.144
		c-0.158,0.048-0.6,0.279-1.326,0.694c-0.208,0.122-0.38,0.229-0.517,0.322L226.49,265.86z M231.558,268.849l-0.443-0.015
		l-0.733-0.032c-0.113-0.002-0.605,0.042-1.475,0.13c-0.428,0.049-0.828,0.116-1.203,0.203l-0.513,0.119
		c0.015-0.498-0.024-0.978-0.114-1.439l1.091-0.102l0.513-0.051l0.602-0.063l0.224-0.019c0.281-0.031,0.486-0.054,0.619-0.067
		c0.583-0.057,0.878-0.086,0.884-0.087l0.432-0.032C231.481,267.957,231.521,268.442,231.558,268.849z"/>
	<path fill="#C9C7C8" d="M228.109,243.955c-0.225-0.185-0.483-0.382-0.777-0.59l2.629-3.788c0.082,0.076,0.145,0.137,0.19,0.181
		c0.358,0.36,0.598,0.584,0.722,0.673l0.459,0.334l-0.41,0.404c-0.189,0.192-0.548,0.616-1.074,1.273
		c-0.521,0.656-0.823,1.084-0.907,1.283l-0.05,0.123l2.74-0.373c0.387-0.053,0.777-0.116,1.17-0.191l1.198-0.23
		c0.013,0.264,0.036,0.52,0.071,0.77c0.032,0.244,0.087,0.573,0.166,0.988l-0.181,0.016c-0.916,0.064-1.653,0.135-2.213,0.211
		l-5.513,0.75l0.469,3.483c0.093,0.688,0.264,1.676,0.515,2.962c-0.038,0.006-0.132,0.013-0.28,0.021
		c-0.131,0.013-0.218,0.021-0.262,0.027c-0.136,0.014-0.229,0.021-0.279,0.022c-0.028,0.003-0.054,0.007-0.082,0.011
		c-0.027,0.003-0.083,0.008-0.164,0.014l-0.016,0.002l-0.548,0.125c-0.099-1.308-0.195-2.311-0.29-3.01l-0.465-3.467l-4.11,0.56
		l-0.973,0.183l-1.004,0.187c-0.011-0.446-0.02-0.705-0.029-0.775l-0.007-0.041l-0.003-0.032c-0.003-0.017-0.055-0.26-0.157-0.732
		l-0.041-0.178c0.89-0.055,1.574-0.114,2.052-0.18l0.277-0.037l-0.432-3.206c-0.07-0.526-0.177-1.152-0.319-1.879
		c0.204-0.006,0.377-0.016,0.52-0.03c0.044-0.005,0.104-0.011,0.181-0.016c0.054-0.008,0.098-0.011,0.131-0.01
		c0.022-0.003,0.035-0.005,0.041-0.005l0.032-0.005l0.033-0.004l0.04-0.006l0.042-0.006c0.021-0.003,0.043-0.009,0.063-0.018
		l0.548-0.123c0.042,0.729,0.099,1.355,0.17,1.883l0.433,3.221l2.3-0.312l-0.579-4.296c-0.08-0.597-0.238-1.477-0.471-2.638
		c0.322,0.006,0.57-0.003,0.743-0.027l0.066-0.008l0.032-0.005c0.056-0.007,0.318-0.067,0.79-0.182
		c0.081,1.177,0.163,2.071,0.246,2.685l0.575,4.279L228.109,243.955z"/>
	<path fill="#BD9A34" d="M230.389,158.289c-0.049-0.025-0.201-0.104-0.453-0.237l-0.046-0.018c-0.013-0.011-0.022-0.017-0.028-0.02
		l-0.015-0.005c-0.066-0.026-0.268-0.081-0.606-0.165c0.476-1.022,0.805-1.762,0.987-2.222l0.094-0.237l1.338-3.419l-0.214-0.083
		c-0.234-0.091-0.4-0.15-0.496-0.175l-0.56-0.146c0.2-0.37,0.315-0.593,0.345-0.669l0.012-0.031c0.007-0.02,0.063-0.21,0.164-0.572
		l0.036-0.136c0.287,0.17,0.624,0.33,1.011,0.481l0.215,0.083l1.249-3.153c0.215-0.54,0.559-1.496,1.031-2.866
		c0.232,0.143,0.389,0.23,0.47,0.262l0.055,0.021l0.021,0.009c0.006,0.002,0.013,0.004,0.024,0.009
		c0.028,0.005,0.18,0.043,0.457,0.115c0.028,0.005,0.068,0.015,0.121,0.029c-0.474,1.017-0.878,1.949-1.214,2.796l-1.244,3.137
		l0.943,0.384l0.94-2.372c0.265-0.669,0.564-1.495,0.895-2.479c0.175,0.109,0.27,0.167,0.285,0.173l0.031,0.012l0.202,0.069
		l0.23,0.089l0.401,0.103c-0.381,0.783-0.735,1.587-1.062,2.413l-2.422,6.106c-0.319,0.806-0.602,1.609-0.848,2.408
		c-0.158-0.091-0.28-0.153-0.368-0.187c-0.02-0.008-0.047-0.021-0.081-0.041c-0.033-0.018-0.055-0.03-0.065-0.034l-0.022-0.009
		l-0.016-0.006l-0.015-0.005c-0.057-0.022-0.25-0.076-0.581-0.164c0.417-0.903,0.756-1.685,1.017-2.342l0.984-2.479l-0.949-0.368
		l-1.354,3.412C230.983,156.524,230.683,157.368,230.389,158.289z M236.545,158.488c-0.363-0.2-0.705-0.362-1.026-0.486l-0.796-0.31
		c-0.265-0.103-0.446-0.167-0.541-0.192l-0.561-0.147c0.3-0.607,0.543-1.148,0.732-1.623l2.402-6.061
		c0.194-0.489,0.394-1.065,0.598-1.728c0.552,0.272,0.898,0.436,1.042,0.492l0.796,0.309c0.138,0.053,0.5,0.164,1.086,0.333
		c-0.309,0.633-0.561,1.189-0.75,1.669l-2.403,6.061C236.942,157.265,236.748,157.825,236.545,158.488z M236.066,156.801
		l2.677-6.748l-0.919-0.357l-2.669,6.734L236.066,156.801z M237.748,161.779c-0.036-0.014-0.111-0.049-0.225-0.104
		c-0.199-0.089-0.333-0.153-0.4-0.191c-0.068-0.021-0.147-0.045-0.236-0.074l-0.41-0.123c0.81-1.834,1.249-2.841,1.321-3.02
		l0.569-1.438c-0.198,0.07-0.447,0.162-0.745,0.276c0.036-0.345,0.057-0.814,0.062-1.406l1.162-0.079l1.14-2.877
		c-0.265-0.279-0.547-0.535-0.843-0.769c0.335-0.4,0.601-0.744,0.798-1.032c0.178,0.204,0.349,0.412,0.512,0.622l0.51-1.285
		c0.287-0.725,0.671-1.794,1.149-3.209c0.171,0.102,0.3,0.172,0.384,0.21c0.037,0.015,0.076,0.033,0.12,0.056
		c0.035,0.014,0.062,0.027,0.081,0.04c0.011,0.004,0.018,0.008,0.024,0.009l0.014,0.006l0.024,0.009
		c0.05,0.02,0.26,0.074,0.624,0.163c-0.622,1.36-1.076,2.401-1.363,3.125l-3.167,7.989
		C238.582,159.366,238.213,160.4,237.748,161.779z M242.91,161.187c-0.33-0.146-0.612-0.275-0.843-0.389
		c-0.173-0.085-0.331-0.155-0.473-0.21l-1.056-0.41c-0.128-0.05-0.34-0.12-0.64-0.213l-0.66-0.203
		c0.439-0.96,0.685-1.506,0.737-1.639l2.555-6.442c0.061-0.153,0.269-0.755,0.627-1.806c0.382,0.196,0.807,0.384,1.277,0.566
		l1.01,0.392c0.327,0.127,0.563,0.213,0.71,0.258l0.692,0.215c-0.129,0.238-0.238,0.467-0.325,0.687
		c-0.086,0.219-0.161,0.449-0.222,0.691c-0.08-0.037-0.143-0.07-0.189-0.101c-0.029-0.017-0.12-0.055-0.272-0.114l-0.138-0.054
		l-2.857,7.208l0.123,0.047l0.199,0.077l0.293,0.062c-0.029,0.059-0.05,0.102-0.06,0.126c-0.095,0.199-0.15,0.307-0.164,0.325
		c-0.056,0.113-0.092,0.188-0.106,0.224l-0.015,0.038C243.075,160.615,243.008,160.836,242.91,161.187z M241.939,159.273
		l2.858-7.208l-1.148-0.446l-2.857,7.208L241.939,159.273z"/>
	<path fill="#BD9A34" d="M249.161,146.738c-0.282-0.158-0.687-0.391-1.219-0.697c-0.476-0.273-0.873-0.488-1.19-0.647l-9.124-4.533
		c-0.28-0.139-0.655-0.307-1.125-0.504l-1.169-0.488c0.037-0.062,0.067-0.107,0.088-0.14c0.174-0.245,0.261-0.37,0.264-0.375
		l0.09-0.194c0.037-0.073,0.14-0.332,0.31-0.774c0.936,0.562,1.659,0.971,2.174,1.227l9.125,4.534
		c0.397,0.197,0.835,0.397,1.316,0.599l1.213,0.51c-0.038,0.061-0.066,0.105-0.086,0.132c-0.159,0.252-0.265,0.432-0.32,0.54
		c-0.012,0.024-0.106,0.248-0.284,0.669L249.161,146.738z M241.279,145.489l-0.331-0.293l-0.543-0.491
		c-0.084-0.072-0.489-0.351-1.214-0.833c-0.359-0.234-0.71-0.436-1.053-0.606l-0.47-0.233c0.332-0.375,0.61-0.77,0.838-1.184
		l0.902,0.614l0.426,0.285l0.503,0.333l0.183,0.128c0.235,0.153,0.407,0.266,0.518,0.34c0.484,0.326,0.729,0.49,0.735,0.493
		l0.351,0.248C241.792,144.751,241.51,145.151,241.279,145.489z M238.006,136.155c0.074-0.496,0.102-0.998,0.083-1.504l3.06-0.448
		c-0.045,0.523-0.06,1.037-0.046,1.541l-0.426-0.064c-0.125-0.02-0.429,0.005-0.911,0.071c-0.548,0.077-0.952,0.156-1.213,0.234
		L238.006,136.155z M239.312,139.969c0.113-0.429,0.191-0.85,0.235-1.263l3.069,0.403c-0.147,0.485-0.261,0.974-0.339,1.469
		l-0.456-0.19c-0.151-0.063-0.639-0.165-1.464-0.304c-0.238-0.039-0.439-0.065-0.604-0.079L239.312,139.969z M248.887,144.267
		l0.054-0.36c0.129-0.861,0.062-1.74-0.2-2.638c-0.308-1.048-1.148-1.913-2.52-2.594l-0.485-0.241l-0.141,0.28
		c-0.179,0.352-0.374,0.795-0.582,1.329c-0.353-0.236-0.733-0.456-1.139-0.658l-2.336-1.16c-0.289-0.144-0.488-0.236-0.596-0.278
		l-0.632-0.241c0.069-0.125,0.122-0.215,0.156-0.271c0.34-0.573,0.531-0.901,0.573-0.984l1.31-2.586
		c-0.939-1.123-1.629-1.89-2.072-2.3l-0.513-0.476c0.446-0.36,0.878-0.753,1.295-1.177l0.547,0.878
		c0.366,0.586,0.808,1.223,1.33,1.912l0.395-0.779c0.159-0.313,0.343-0.737,0.552-1.271c0.309,0.215,0.692,0.437,1.153,0.665
		l2.337,1.162c0.27,0.133,0.458,0.221,0.565,0.262l0.646,0.248c-0.286,0.447-0.519,0.846-0.698,1.198l-0.372,0.735l3.886,1.913
		c0.162,0.081,0.296,0.101,0.401,0.062c0.113-0.042,0.262-0.244,0.445-0.607c0.212-0.416,0.293-0.694,0.248-0.833
		c-0.048-0.146-0.22-0.342-0.513-0.586c-0.163-0.136-0.263-0.226-0.296-0.267l-0.404-0.256c0.194-0.044,0.372-0.11,0.532-0.195
		c0.184-0.099,0.489-0.37,0.917-0.814c0.225,0.259,0.452,0.513,0.681,0.762c0.261,0.283,0.428,0.547,0.5,0.792
		c0.065,0.21,0.079,0.425,0.041,0.645c-0.038,0.245-0.241,0.729-0.608,1.455c-0.432,0.853-0.771,1.334-1.017,1.444
		c-0.184,0.086-0.393,0.099-0.626,0.038c-0.157-0.041-0.426-0.156-0.809-0.347l-3.996-1.985l-0.536,1.058
		c0.815,0.485,1.405,0.852,1.769,1.1c0.605,0.405,1.093,0.938,1.461,1.6c0.341,0.61,0.624,1.601,0.85,2.97l0.1,0.602
		c-0.386,0.096-0.669,0.183-0.849,0.259C249.489,143.817,249.22,143.997,248.887,144.267z M244.514,138.157l2.219-4.379
		l-2.366-1.176l-2.218,4.38L244.514,138.157z"/>
	<path fill="#BD9A34" d="M254.619,124.099c-0.053-0.284-0.126-0.601-0.218-0.948l4.452-1.264c0.013,0.111,0.023,0.199,0.03,0.261
		c0.044,0.506,0.084,0.831,0.123,0.977l0.139,0.55l-0.576,0.053c-0.269,0.027-0.816,0.129-1.643,0.304
		c-0.821,0.178-1.329,0.317-1.52,0.418l-0.117,0.063l2.344,1.446c0.33,0.203,0.671,0.4,1.022,0.591l1.067,0.581
		c-0.159,0.212-0.306,0.425-0.44,0.639c-0.131,0.209-0.3,0.499-0.505,0.869l-0.15-0.102c-0.744-0.531-1.356-0.943-1.836-1.239
		l-4.717-2.908l-1.875,2.987c-0.371,0.591-0.873,1.463-1.507,2.615c-0.032-0.02-0.108-0.073-0.228-0.16
		c-0.108-0.073-0.182-0.121-0.219-0.145c-0.113-0.076-0.19-0.13-0.229-0.16c-0.023-0.015-0.046-0.029-0.069-0.043
		s-0.069-0.046-0.136-0.093l-0.014-0.009l-0.502-0.25c0.764-1.072,1.335-1.908,1.711-2.509l1.867-2.975l-3.517-2.168l-0.864-0.475
		l-0.891-0.492c0.279-0.351,0.437-0.557,0.475-0.617l0.021-0.035l0.019-0.027c0.009-0.014,0.125-0.236,0.349-0.666l0.083-0.162
		c0.718,0.521,1.282,0.907,1.691,1.16l0.238,0.146l1.727-2.75c0.283-0.452,0.603-1.003,0.961-1.655
		c0.16,0.125,0.299,0.227,0.417,0.306c0.038,0.023,0.088,0.058,0.149,0.102c0.047,0.029,0.083,0.054,0.108,0.076
		c0.019,0.012,0.03,0.019,0.034,0.021l0.028,0.018l0.028,0.017l0.034,0.021l0.035,0.021c0.019,0.012,0.04,0.021,0.061,0.028
		l0.501,0.25c-0.436,0.59-0.794,1.111-1.078,1.563l-1.735,2.764l1.968,1.214l2.313-3.687c0.321-0.512,0.765-1.291,1.332-2.336
		c0.243,0.208,0.439,0.358,0.588,0.45l0.055,0.034l0.028,0.018c0.047,0.029,0.288,0.148,0.724,0.358
		c-0.694,0.961-1.206,1.704-1.536,2.229l-2.305,3.673L254.619,124.099z"/>
	<path fill="#878688" d="M339.785,44.093c1.373-0.385,2.31-0.665,2.81-0.839l3.517-1.221c-0.035-0.051-0.063-0.088-0.082-0.109
		c-0.164-0.22-0.262-0.35-0.294-0.391c-0.025-0.037-0.043-0.062-0.053-0.076l-0.544-0.606c0.491-0.229,0.989-0.511,1.491-0.847
		l0.889,1.542l3.111-1.081c0.407-0.141,1.341-0.512,2.802-1.112c0.042,0.217,0.076,0.375,0.104,0.475
		c0.004,0.01,0.009,0.023,0.015,0.038c0.013,0.054,0.021,0.088,0.026,0.104c0.013,0.053,0.021,0.085,0.024,0.095
		c0.005,0.015,0.009,0.026,0.011,0.031l0.008,0.023l0.009,0.023c0.02,0.057,0.117,0.261,0.293,0.615
		c-1.302,0.372-2.263,0.665-2.883,0.88l-8.035,2.791c-0.651,0.227-1.562,0.582-2.73,1.068c-0.041-0.101-0.076-0.192-0.104-0.274
		c-0.025-0.072-0.042-0.13-0.052-0.172l-0.06-0.273l-0.124-0.303L339.785,44.093z M342.847,52.814
		c1.373-0.385,2.237-0.639,2.591-0.761l3.611-1.254l-0.08-0.231l-0.091-0.211l-0.113-0.271c0.791-0.5,1.614-1.068,2.472-1.706
		l-5.753,1.998c-0.214,0.074-1.007,0.396-2.38,0.965c-0.005-0.033-0.011-0.057-0.017-0.073l-0.092-0.391l-0.09-0.262l-0.038-0.107
		l-0.019-0.055l-0.011-0.031l-0.008-0.023l-0.187-0.385c1.088-0.297,1.908-0.542,2.46-0.734l6.722-2.334
		c0.532-0.185,1.213-0.456,2.048-0.814l0.021,0.087l0.061,0.248c0.031,0.121,0.05,0.192,0.056,0.213
		c0.004,0.01,0.007,0.029,0.012,0.056c0.046,0.168,0.071,0.255,0.074,0.26l0.011,0.031l0.01,0.031
		c0.024,0.072,0.117,0.262,0.277,0.57c-0.754,0.318-1.412,0.674-1.976,1.066l-1.439,1.001l-0.623,0.424l0.07,0.201l3.564-1.239
		c0.406-0.141,1.288-0.493,2.645-1.057c0.076,0.4,0.137,0.67,0.186,0.808c0.042,0.119,0.142,0.312,0.299,0.58
		c-1.503,0.43-2.414,0.7-2.732,0.811l-3.564,1.238l0.388,1.111c0.229,0.657,0.326,1.076,0.29,1.256
		c-0.062,0.339-0.306,0.63-0.729,0.875c-0.218,0.127-0.66,0.359-1.327,0.694c-0.143-0.245-0.261-0.43-0.353-0.56
		c-0.124-0.166-0.389-0.41-0.799-0.733c0.368-0.082,0.76-0.196,1.178-0.341c0.266-0.092,0.405-0.202,0.42-0.327
		c0.012-0.114-0.035-0.325-0.142-0.634l-0.303-0.863l-3.611,1.254c-0.234,0.082-1.069,0.418-2.505,1.009
		c-0.026-0.094-0.047-0.162-0.062-0.204c-0.009-0.025-0.024-0.086-0.047-0.183c-0.019-0.074-0.032-0.119-0.037-0.133l-0.065-0.185
		l-0.045-0.131l-0.041-0.116l-0.005-0.015L342.847,52.814z M351.872,42.211c0.081,0.398,0.2,0.824,0.358,1.276l0.306,0.879
		c0.103,0.293,0.178,0.492,0.226,0.596l0.282,0.61c-0.601,0.151-1.083,0.291-1.449,0.417l-6.44,2.237
		c-0.396,0.138-0.84,0.321-1.333,0.55l-0.024-0.096c-0.135-0.501-0.249-0.888-0.344-1.16l-0.307-0.879
		c-0.101-0.288-0.18-0.497-0.236-0.627l-0.263-0.601c0.503-0.116,0.965-0.248,1.387-0.395l6.472-2.248
		C350.898,42.636,351.352,42.449,351.872,42.211z M344.794,47.193l6.466-2.264l-0.393-1.125l-6.473,2.248L344.794,47.193z"/>
	<path fill="#878688" d="M357.195,44.946l0.011-0.44l0.024-0.729c0.001-0.112-0.048-0.599-0.147-1.46
		c-0.054-0.425-0.126-0.822-0.217-1.191l-0.126-0.508c0.501,0.006,0.985-0.041,1.45-0.139l0.113,1.082l0.057,0.507l0.07,0.597
		l0.021,0.222c0.035,0.277,0.059,0.481,0.074,0.613c0.063,0.578,0.097,0.871,0.098,0.876l0.037,0.428
		C358.093,44.854,357.604,44.901,357.195,44.946z M361.339,51.711c-0.061-0.316-0.146-0.774-0.254-1.375
		c-0.099-0.537-0.19-0.976-0.276-1.32l-2.433-9.846c-0.073-0.3-0.188-0.693-0.342-1.177l-0.381-1.2
		c0.071-0.013,0.125-0.021,0.165-0.024c0.299-0.029,0.452-0.044,0.457-0.046l0.208-0.06c0.08-0.02,0.344-0.11,0.793-0.271
		c0.175,1.073,0.33,1.887,0.466,2.441l2.434,9.845c0.106,0.428,0.236,0.889,0.393,1.383l0.395,1.249
		c-0.072,0.012-0.123,0.019-0.157,0.021c-0.296,0.045-0.502,0.082-0.619,0.111c-0.028,0.006-0.259,0.081-0.696,0.222L361.339,51.711
		z M360.15,39.86c0.4-0.195,0.772-0.41,1.118-0.647l1.678,2.58c-0.467,0.205-0.915,0.439-1.344,0.702l-0.149-0.468
		c-0.051-0.156-0.289-0.59-0.714-1.304c-0.125-0.205-0.234-0.374-0.331-0.507L360.15,39.86z M362.224,36.387
		c0.427-0.269,0.829-0.575,1.204-0.92l2.323,2.017c-0.43,0.308-0.833,0.631-1.209,0.971l-0.227-0.364
		c-0.066-0.107-0.281-0.32-0.645-0.64c-0.414-0.364-0.736-0.618-0.964-0.763L362.224,36.387z M363.055,49.892l0.31-0.195
		c0.744-0.464,1.374-1.088,1.89-1.872c0.603-0.917,0.723-2.115,0.356-3.596l-0.129-0.522l-0.306,0.075
		c-0.386,0.095-0.85,0.238-1.395,0.429c-0.046-0.421-0.123-0.85-0.233-1.289l-0.622-2.521c-0.077-0.312-0.135-0.521-0.173-0.63
		l-0.226-0.634c0.141-0.029,0.244-0.049,0.31-0.061c0.658-0.117,1.033-0.188,1.124-0.21l2.829-0.698
		c0.251-1.441,0.392-2.462,0.418-3.064l0.033-0.697c0.565,0.102,1.144,0.171,1.739,0.209l-0.318,0.987
		c-0.213,0.659-0.414,1.409-0.604,2.251l0.852-0.21c0.343-0.085,0.786-0.222,1.331-0.413c0.035,0.373,0.114,0.808,0.236,1.304
		l0.624,2.521c0.071,0.291,0.126,0.49,0.165,0.598l0.229,0.65c-0.527,0.074-0.983,0.159-1.37,0.254l-0.803,0.199l1.05,4.181
		c0.042,0.175,0.114,0.29,0.212,0.344c0.104,0.058,0.356,0.038,0.753-0.06c0.455-0.112,0.721-0.231,0.798-0.357
		c0.081-0.132,0.119-0.389,0.117-0.769c-0.002-0.213,0.002-0.346,0.012-0.399l-0.066-0.471c0.16,0.118,0.325,0.209,0.494,0.273
		c0.194,0.075,0.6,0.129,1.217,0.163c-0.053,0.338-0.101,0.675-0.143,1.01c-0.048,0.382-0.141,0.68-0.281,0.894
		c-0.12,0.187-0.275,0.337-0.468,0.452c-0.212,0.13-0.714,0.294-1.507,0.49c-0.932,0.23-1.52,0.289-1.765,0.175
		c-0.186-0.083-0.33-0.233-0.435-0.448c-0.07-0.145-0.155-0.424-0.257-0.836l-1.066-4.312l-1.157,0.285
		c0.156,0.932,0.258,1.616,0.304,2.054c0.081,0.72-0.013,1.436-0.28,2.146c-0.247,0.655-0.822,1.515-1.725,2.579l-0.395,0.468
		c-0.324-0.229-0.573-0.386-0.748-0.472C363.788,50.052,363.476,49.966,363.055,49.892z M364.903,42.605l4.788-1.183l-0.631-2.553
		l-4.788,1.183L364.903,42.605z"/>
	<path fill="#878688" d="M382.201,41.073c0.185-0.226,0.379-0.487,0.587-0.782l3.844,2.542c-0.077,0.083-0.137,0.146-0.18,0.192
		c-0.359,0.362-0.583,0.605-0.67,0.729l-0.333,0.463l-0.411-0.4c-0.195-0.186-0.626-0.533-1.293-1.043
		c-0.667-0.505-1.102-0.798-1.303-0.877l-0.125-0.047l0.407,2.714c0.057,0.382,0.125,0.768,0.206,1.157l0.245,1.186
		c-0.266,0.018-0.523,0.045-0.774,0.083c-0.245,0.037-0.576,0.098-0.994,0.183l-0.017-0.178c-0.075-0.909-0.154-1.64-0.236-2.195
		l-0.817-5.459l-3.502,0.528c-0.693,0.105-1.686,0.293-2.978,0.565c-0.005-0.037-0.015-0.13-0.026-0.277
		c-0.014-0.13-0.023-0.216-0.029-0.259c-0.016-0.136-0.024-0.229-0.025-0.278c-0.004-0.026-0.008-0.053-0.012-0.08
		c-0.003-0.027-0.009-0.081-0.016-0.163l-0.002-0.017l-0.132-0.542c1.315-0.121,2.324-0.235,3.028-0.341l3.485-0.526l-0.608-4.07
		l-0.194-0.962l-0.2-0.994c0.449-0.018,0.709-0.033,0.78-0.044l0.041-0.006l0.033-0.005c0.017-0.002,0.263-0.059,0.737-0.169
		l0.178-0.043c0.064,0.882,0.132,1.56,0.204,2.033l0.041,0.275l3.224-0.487c0.529-0.079,1.159-0.196,1.888-0.351
		c0.009,0.202,0.021,0.375,0.035,0.515c0.006,0.043,0.013,0.103,0.019,0.179c0.008,0.054,0.012,0.098,0.011,0.131
		c0.004,0.021,0.006,0.035,0.006,0.04l0.005,0.033l0.005,0.033l0.006,0.04l0.006,0.04c0.003,0.021,0.01,0.043,0.019,0.063
		l0.131,0.542c-0.734,0.056-1.366,0.123-1.895,0.203l-3.24,0.489l0.341,2.278l4.32-0.652c0.599-0.091,1.483-0.262,2.65-0.516
		c-0.002,0.32,0.009,0.565,0.035,0.738l0.009,0.064l0.006,0.032c0.008,0.054,0.072,0.314,0.192,0.78
		c-1.184,0.102-2.084,0.199-2.701,0.292l-4.304,0.649L382.201,41.073z"/>
	<path fill="#C1DDF4" d="M508.221,66.869c0.327,0.43,0.687,0.796,1.078,1.099l-0.48,0.444l-0.78,0.694l-0.561,0.528
		c-0.112,0.837-0.119,1.621-0.021,2.352l3.349-4.683l-1.913-1.347c-0.09-0.062-0.464-0.293-1.126-0.691
		c0.02-0.019,0.036-0.035,0.045-0.049c0.112-0.128,0.193-0.222,0.242-0.281l0.02-0.027l0.068-0.082
		c0.039-0.046,0.062-0.073,0.068-0.082s0.012-0.016,0.015-0.02l0.015-0.021c0.034-0.049,0.145-0.235,0.329-0.561
		c0.492,0.426,0.823,0.7,0.994,0.82l1.685,1.185l1.126-1.575l-1.037-0.73c-0.274-0.192-0.587-0.379-0.938-0.559
		c0.021-0.031,0.074-0.095,0.157-0.19l0.087-0.108l0.024-0.034c0.028-0.04,0.057-0.074,0.083-0.102
		c0.029-0.032,0.048-0.053,0.054-0.062c0.007-0.009,0.011-0.016,0.015-0.02l0.01-0.014l0.01-0.013
		c0.034-0.049,0.139-0.227,0.312-0.534c0.397,0.321,0.707,0.558,0.927,0.713l0.983,0.692l0.727-1.014
		c0.19-0.268,0.313-0.448,0.367-0.544l0.348-0.598c0.248,0.221,0.458,0.393,0.634,0.516c0.18,0.126,0.382,0.245,0.605,0.356
		c-0.276,0.293-0.55,0.628-0.821,1.007l-0.753,1.054l0.876,0.616c0.261,0.183,0.608,0.396,1.045,0.635
		c-0.172,0.173-0.304,0.321-0.398,0.442c-0.044,0.062-0.076,0.103-0.098,0.122c-0.036,0.041-0.061,0.071-0.073,0.088
		c-0.009,0.014-0.019,0.031-0.025,0.052c0.001,0.007,0,0.014-0.004,0.018l-0.198,0.362c-0.341-0.308-0.656-0.562-0.949-0.769
		l-0.862-0.606l-1.126,1.574l1.118,0.787c0.233,0.164,0.64,0.409,1.217,0.734c-0.154,0.159-0.267,0.281-0.333,0.368
		c-0.026,0.036-0.06,0.076-0.098,0.122c-0.026,0.035-0.047,0.06-0.064,0.075c-0.01,0.013-0.017,0.022-0.02,0.027l-0.018,0.027
		c-0.046,0.062-0.129,0.22-0.251,0.476c0.703,0,1.297-0.091,1.784-0.27c0.649-0.238,1.388-0.822,2.214-1.751l0.516-0.58l-0.512-0.36
		c-0.306-0.215-0.749-0.501-1.331-0.856l0.04-0.042c0.188-0.208,0.302-0.339,0.341-0.393l0.014-0.02l0.005-0.007
		c0.006-0.009,0.052-0.077,0.136-0.205l0.185-0.312c0.708,0.565,1.119,0.888,1.231,0.967l3.369,2.369
		c0.171,0.12,0.613,0.398,1.329,0.835c-0.284,0.301-0.581,0.633-0.896,0.994l-1.856,2.144c-0.179,0.203-0.416,0.403-0.714,0.602
		c-0.221,0.139-0.43,0.215-0.63,0.229c-0.198,0.014-0.452-0.031-0.763-0.136c-0.337-0.116-0.817-0.344-1.444-0.686l0.026-0.051
		c0.123-0.248,0.194-0.411,0.218-0.489c0.047-0.16,0.086-0.591,0.114-1.292c0.379,0.386,0.763,0.716,1.154,0.992
		c0.273,0.193,0.508,0.244,0.701,0.153c0.072-0.036,0.215-0.15,0.427-0.342l0.057-0.05l0.117-0.108
		c0.044-0.042,0.072-0.068,0.087-0.079c0.014-0.01,0.022-0.018,0.026-0.021l1.493-1.777l-1.818-1.279
		c-0.706,0.74-1.361,1.349-1.966,1.826c-0.287,0.232-0.616,0.436-0.983,0.611c-0.654,0.31-1.252,0.517-1.794,0.624l-0.355,0.071
		l3.451,2.427c0.354,0.25,0.758,0.507,1.21,0.771c-0.262,0.271-0.526,0.593-0.792,0.966l-1.537,2.149
		c-0.182,0.253-0.301,0.43-0.358,0.529l-0.328,0.571c-0.435-0.373-0.814-0.673-1.139-0.9l-2.897-2.038
		c-0.282-0.199-0.654-0.427-1.112-0.683c0.293-0.315,0.58-0.668,0.859-1.06l1.489-2.082c0.201-0.28,0.323-0.461,0.368-0.543
		l0.262-0.479c-0.109-0.33-0.28-0.657-0.514-0.982l0.448,0.054c-0.479-0.417-0.837-0.708-1.075-0.876l-0.875-0.616l-1.232,1.721
		l0.998,0.702c0.036,0.025,0.163,0.102,0.383,0.229l0.5,0.292c-0.206,0.202-0.332,0.337-0.38,0.404
		c-0.011,0.013-0.032,0.048-0.065,0.105l-0.11,0.183l-0.221,0.365c-0.326-0.281-0.577-0.486-0.757-0.612l-1.025-0.721l-1.861,2.602
		c0.344,0.455,0.696,0.864,1.059,1.226c0.546,0.557,1.567,1.363,3.063,2.416c1.321,0.929,2.604,1.711,3.851,2.348l0.728,0.371
		c-0.131,0.042-0.23,0.072-0.298,0.091c-0.619,0.193-1.011,0.352-1.18,0.475l-0.474,0.349l-0.601-0.463
		c-0.163-0.121-0.484-0.361-0.965-0.719c-2.773-2.031-4.569-3.476-5.389-4.332c-0.559-0.587-0.957-1.121-1.194-1.602
		c-0.387-0.78-0.58-1.658-0.577-2.633l-0.259,0.219c-1.092,0.904-1.683,1.39-1.773,1.46l-0.427,0.342
		c-0.065-0.561-0.224-1.086-0.474-1.576c0.923-0.468,1.698-0.975,2.327-1.522c0.685-0.602,1.431-1.39,2.238-2.367L508.221,66.869z
		 M512.74,74.399l2.911,2.048l1.574-2.201l-2.91-2.048L512.74,74.399z"/>
	<path fill="#C1DDF4" d="M517.49,83.111c0.223-0.234,0.55-0.57,0.98-1.008c0.384-0.392,0.692-0.722,0.925-0.991l6.678-7.702
		c0.206-0.235,0.462-0.557,0.77-0.962l0.766-1.008c0.051,0.05,0.089,0.09,0.115,0.119c0.196,0.226,0.297,0.34,0.301,0.344
		l0.168,0.133c0.062,0.053,0.29,0.215,0.682,0.484c-0.781,0.766-1.358,1.365-1.736,1.799l-6.678,7.703
		c-0.289,0.335-0.593,0.709-0.908,1.124l-0.798,1.045c-0.051-0.05-0.087-0.088-0.107-0.113c-0.208-0.213-0.357-0.359-0.449-0.438
		c-0.021-0.018-0.216-0.162-0.584-0.434L517.49,83.111z M519.972,83.439l0.339,0.138c0.81,0.331,1.684,0.478,2.625,0.439
		c1.102-0.046,2.153-0.647,3.156-1.806l0.355-0.409l-0.237-0.203c-0.302-0.257-0.687-0.55-1.156-0.879
		c0.318-0.282,0.625-0.596,0.923-0.938l1.71-1.973c0.211-0.244,0.352-0.413,0.418-0.507l0.391-0.551
		c0.104,0.097,0.18,0.168,0.228,0.216c0.476,0.464,0.749,0.726,0.82,0.787l2.204,1.882c1.328-0.636,2.247-1.118,2.756-1.446
		l0.592-0.38c0.242,0.517,0.52,1.026,0.832,1.53l-0.995,0.317c-0.662,0.211-1.394,0.486-2.195,0.824l0.664,0.566
		c0.267,0.228,0.635,0.506,1.104,0.836c-0.285,0.246-0.596,0.563-0.934,0.952l-1.709,1.972c-0.197,0.227-0.33,0.388-0.396,0.482
		l-0.401,0.563c-0.365-0.383-0.697-0.703-0.999-0.96l-0.625-0.534l-2.826,3.285c-0.12,0.136-0.173,0.26-0.16,0.371
		c0.014,0.119,0.174,0.311,0.484,0.575c0.354,0.303,0.604,0.449,0.753,0.438c0.154-0.012,0.388-0.129,0.698-0.354
		c0.174-0.125,0.284-0.199,0.334-0.222l0.349-0.328c-0.005,0.197,0.017,0.384,0.061,0.559c0.052,0.202,0.24,0.561,0.568,1.079
		c-0.309,0.154-0.611,0.312-0.911,0.474c-0.341,0.184-0.641,0.281-0.897,0.292c-0.222,0.013-0.434-0.025-0.64-0.115
		c-0.23-0.096-0.654-0.406-1.271-0.934c-0.727-0.621-1.113-1.062-1.161-1.326c-0.038-0.198,0.001-0.402,0.118-0.612
		c0.078-0.142,0.258-0.374,0.537-0.696l2.925-3.374l-0.901-0.77c-0.675,0.668-1.178,1.148-1.512,1.44
		c-0.543,0.485-1.184,0.827-1.922,1.024c-0.68,0.182-1.718,0.217-3.111,0.107l-0.612-0.048c0.002-0.395-0.012-0.688-0.043-0.879
		C520.263,84.126,520.154,83.825,519.972,83.439z M520.654,75.818l0.366-0.248l0.612-0.405c0.094-0.066,0.464-0.389,1.114-0.971
		c0.317-0.291,0.602-0.581,0.853-0.87l0.344-0.396c0.285,0.409,0.602,0.772,0.95,1.091l-0.823,0.723l-0.383,0.342l-0.449,0.404
		l-0.171,0.146c-0.207,0.189-0.36,0.328-0.459,0.417c-0.438,0.389-0.659,0.584-0.662,0.589l-0.33,0.279
		C521.247,76.491,520.926,76.123,520.654,75.818z M526.531,75.246c0.391,0.211,0.783,0.388,1.177,0.529l-1.151,2.86
		c-0.437-0.258-0.888-0.484-1.35-0.679l0.297-0.394c0.099-0.131,0.318-0.576,0.658-1.337c0.096-0.22,0.171-0.407,0.227-0.562
		L526.531,75.246z M527.018,80.691l3.731,3.186l1.732-1.997l-3.732-3.186L527.018,80.691z M530.577,74.902
		c0.467,0.19,0.95,0.336,1.449,0.438l-0.315,3.055c-0.501-0.169-0.999-0.306-1.495-0.412l0.169-0.396
		c0.05-0.116,0.101-0.415,0.154-0.895c0.059-0.547,0.083-0.955,0.07-1.225L530.577,74.902z"/>
	<path fill="#C1DDF4" d="M538.26,93.816c0.291,0.017,0.618,0.023,0.979,0.019l0.128,4.591c-0.113-0.014-0.2-0.025-0.262-0.034
		c-0.505-0.08-0.833-0.119-0.983-0.118l-0.573,0.001l0.093-0.566c0.039-0.266,0.076-0.818,0.111-1.655
		c0.03-0.834,0.021-1.355-0.03-1.565l-0.032-0.128l-1.994,1.907c-0.282,0.27-0.559,0.549-0.833,0.842l-0.833,0.887
		c-0.166-0.204-0.339-0.396-0.514-0.577c-0.172-0.178-0.413-0.411-0.723-0.698l0.136-0.119c0.703-0.589,1.258-1.078,1.666-1.468
		l4.014-3.837l-2.451-2.529c-0.485-0.5-1.212-1.194-2.18-2.082c0.027-0.026,0.099-0.087,0.214-0.182
		c0.099-0.086,0.163-0.145,0.195-0.175c0.103-0.091,0.174-0.151,0.213-0.182c0.02-0.019,0.039-0.038,0.06-0.057
		c0.02-0.019,0.061-0.054,0.125-0.107l0.011-0.012l0.37-0.421c0.856,0.994,1.531,1.745,2.024,2.253l2.439,2.517l2.991-2.861
		l0.679-0.717l0.702-0.739c0.273,0.354,0.435,0.555,0.484,0.606l0.028,0.03l0.023,0.023c0.012,0.012,0.199,0.178,0.562,0.498
		l0.138,0.118c-0.687,0.566-1.204,1.016-1.553,1.349l-0.202,0.193l2.258,2.327c0.37,0.381,0.828,0.824,1.376,1.325
		c-0.163,0.124-0.296,0.233-0.403,0.328c-0.031,0.03-0.077,0.07-0.136,0.119c-0.04,0.038-0.073,0.066-0.102,0.084
		c-0.015,0.016-0.025,0.025-0.028,0.029l-0.025,0.022l-0.023,0.022l-0.029,0.028l-0.029,0.028c-0.017,0.016-0.03,0.033-0.043,0.052
		l-0.369,0.421c-0.469-0.561-0.887-1.033-1.257-1.415l-2.269-2.339l-1.674,1.601l3.023,3.118c0.42,0.433,1.069,1.048,1.951,1.846
		c-0.265,0.185-0.459,0.337-0.587,0.458l-0.047,0.045l-0.024,0.023c-0.039,0.038-0.216,0.241-0.529,0.609
		c-0.767-0.899-1.364-1.572-1.796-2.017l-3.012-3.107L538.26,93.816z"/>
	<path fill="#0E77D9" d="M583.526,214.305l0.328,0.442c0.333,0.453,0.934,0.961,1.8,1.523c0.744,0.485,1.482,0.81,2.211,0.973
		c0.533,0.113,1.591,0.22,3.176,0.32c0.527,0.037,0.856,0.056,0.987,0.055l1.629,0.029l1.481,0.029v-0.361
		c0-0.428-0.031-0.92-0.097-1.479c0.158,0.017,0.268,0.027,0.328,0.031c0.061,0.007,0.097,0.009,0.107,0.009
		c0.021,0,0.05,0,0.083-0.001l0.114,0.009l0.115,0.008c0.034,0.001,0.056,0,0.066,0h0.032c0.071,0,0.283-0.021,0.634-0.06
		c-0.067,0.893-0.101,1.451-0.101,1.676l-0.005,4.288c0.001,0.142,0.026,0.777,0.081,1.905c-0.934-0.3-2.342-0.729-4.229-1.288
		l-0.001,0.854c0,0.422,0.027,0.92,0.081,1.494l-0.205-0.04c-1.942-0.39-3.274-0.729-3.998-1.017
		c-0.85-0.333-1.734-0.773-2.656-1.325c-0.334,0.298-0.592,0.602-0.774,0.914c-0.137,0.235-0.374,0.775-0.709,1.62l-0.28,0.706
		c-0.077-0.07-0.134-0.125-0.172-0.163c-0.357-0.344-0.639-0.567-0.848-0.672l-0.461-0.229l0.347-0.56
		c0.506-0.812,1.149-1.64,1.929-2.485c-0.718-0.792-1.463-1.732-2.235-2.82l-0.395-0.557c0.253-0.197,0.424-0.344,0.511-0.437
		c0.077-0.083,0.336-0.409,0.775-0.979l0.262,0.689c0.438,1.154,1.127,2.227,2.07,3.215c0.713-0.418,1.369-0.734,1.967-0.949
		c0.422-0.149,1.298-0.428,2.626-0.836c-0.845-0.053-1.489-0.134-1.934-0.242c-0.889-0.223-1.688-0.502-2.402-0.84
		c-0.903-0.437-1.838-1.044-2.803-1.824l-0.444-0.361C582.779,215.33,583.113,214.908,583.526,214.305z M587.397,209.449l0.444,0.36
		c0.816,0.665,1.757,1.223,2.82,1.669c0.355,0.146,1.05,0.402,2.08,0.767v-0.624c0.001-0.433-0.025-0.941-0.079-1.527
		c0.252,0.032,0.575,0.053,0.97,0.062c0.011,0.001,0.02,0,0.025,0h0.008l0.443-0.066c-0.055,0.871-0.082,1.38-0.083,1.527
		l-0.001,0.855l1.365-0.004c0.423-0.001,0.796-0.013,1.12-0.036l1.233-0.085c-0.033,0.323-0.05,0.613-0.051,0.871
		c0,0.252,0.017,0.504,0.049,0.756c-0.966-0.075-1.76-0.111-2.386-0.109l-1.333,0.003l-0.001,0.904c0,0.087,0.026,0.597,0.081,1.526
		c-0.203-0.032-0.352-0.048-0.444-0.048l-0.297,0.001l-0.262,0.001l-0.429,0.05c0.055-0.592,0.083-1.101,0.085-1.528v-0.903
		l-2.567,0.007c0.186,0.338,0.405,0.645,0.657,0.918l-2.223,1.582c-0.213-0.442-0.486-0.848-0.822-1.213l0.512-0.199
		c0.461-0.182,0.85-0.412,1.169-0.692l0.444-0.395l-5.216,0.013c-0.494,0-0.943,0.012-1.349,0.035l-1.234,0.068
		c0.016-0.301,0.024-0.556,0.025-0.764c0-0.187-0.008-0.462-0.023-0.829c0.471,0.021,0.924,0.041,1.357,0.062
		c0.389,0.021,0.781,0.03,1.175,0.03l5.858-0.015c-1.409-0.468-2.599-0.957-3.569-1.47l-0.937-0.49
		C586.447,210.256,586.908,209.899,587.397,209.449z M590.612,218.887c0.021,0.372,0.081,0.783,0.179,1.231l-0.559,0.1
		c-0.708,0.128-1.219,0.241-1.531,0.341c-0.4,0.132-1.104,0.449-2.107,0.95c1.311,0.708,2.483,1.165,3.521,1.371l0.903,0.178
		l0.002-1.084c0.001-0.099-0.026-0.558-0.08-1.379c1.123,0.38,1.847,0.614,2.17,0.701l2.024,0.537l0.003-2.776l-0.223-0.008
		l-0.625-0.023l-0.6-0.015l-1.547-0.062L590.612,218.887z"/>
	<path fill="#0E77D9" d="M582.918,230.256l0.083,0.354c0.195,0.848,0.581,1.641,1.156,2.38c0.672,0.862,1.773,1.362,3.303,1.499
		l0.541,0.048l0.029-0.311c0.037-0.393,0.054-0.875,0.054-1.447c0.415,0.093,0.849,0.158,1.304,0.199l2.604,0.232
		c0.322,0.028,0.541,0.042,0.656,0.042l0.679-0.006c-0.019,0.142-0.034,0.244-0.046,0.311c-0.105,0.655-0.163,1.029-0.171,1.122
		l-0.272,2.88c1.289,0.703,2.216,1.165,2.778,1.386l0.653,0.256c-0.284,0.497-0.542,1.019-0.776,1.564l-0.832-0.618
		c-0.558-0.413-1.205-0.845-1.944-1.296l-0.081,0.867c-0.033,0.349-0.049,0.81-0.048,1.382c-0.366-0.088-0.806-0.154-1.318-0.2
		l-2.605-0.232c-0.3-0.026-0.509-0.04-0.624-0.039l-0.694,0.004c0.104-0.519,0.174-0.975,0.211-1.367l0.077-0.818l-4.326-0.369
		c-0.18-0.016-0.312,0.014-0.397,0.088c-0.09,0.08-0.153,0.322-0.191,0.726c-0.043,0.464-0.018,0.752,0.075,0.865
		c0.1,0.118,0.33,0.237,0.693,0.358c0.203,0.067,0.327,0.114,0.374,0.141l0.472,0.092c-0.165,0.111-0.307,0.236-0.424,0.374
		c-0.136,0.159-0.321,0.521-0.557,1.09c-0.305-0.16-0.609-0.313-0.915-0.462c-0.347-0.169-0.6-0.354-0.758-0.555
		c-0.137-0.171-0.229-0.366-0.274-0.585c-0.055-0.241-0.044-0.766,0.032-1.572c0.089-0.949,0.229-1.521,0.417-1.712
		c0.141-0.147,0.331-0.235,0.569-0.263c0.161-0.02,0.455-0.009,0.882,0.029l4.456,0.397l0.11-1.179
		c-0.938-0.154-1.622-0.281-2.054-0.381c-0.712-0.157-1.362-0.476-1.95-0.958c-0.542-0.443-1.17-1.261-1.883-2.452l-0.315-0.523
		c0.325-0.229,0.558-0.412,0.696-0.549C582.523,230.892,582.708,230.628,582.918,230.256z M581.755,228.058
		c0.32,0.045,0.785,0.113,1.393,0.207c0.543,0.081,0.992,0.138,1.348,0.169l10.174,0.908c0.312,0.028,0.722,0.048,1.232,0.061
		l1.27,0.031c-0.013,0.069-0.023,0.124-0.032,0.161c-0.071,0.291-0.107,0.438-0.107,0.444l-0.012,0.214
		c-0.008,0.082-0.009,0.359-0.004,0.832c-1.079-0.184-1.904-0.302-2.479-0.353l-10.174-0.908c-0.442-0.039-0.924-0.065-1.446-0.079
		l-1.318-0.035c0.012-0.07,0.023-0.121,0.031-0.154c0.056-0.292,0.088-0.498,0.1-0.618c0.002-0.027,0.009-0.269,0.018-0.724
		L581.755,228.058z M589.24,234.351l-0.458,4.876l2.638,0.235l0.458-4.876L589.24,234.351z M589.564,226.362l0.414,0.152
		l0.687,0.259c0.106,0.037,0.586,0.148,1.438,0.335c0.422,0.087,0.823,0.147,1.206,0.182l0.523,0.047
		c-0.17,0.469-0.286,0.938-0.347,1.404l-1.067-0.244l-0.501-0.11l-0.591-0.127l-0.219-0.052c-0.276-0.059-0.479-0.102-0.608-0.129
		c-0.571-0.129-0.859-0.192-0.865-0.193l-0.419-0.104C589.354,227.233,589.47,226.761,589.564,226.362z M593.426,230.781
		c0.052,0.439,0.134,0.859,0.245,1.259l-3.01,0.739c-0.041-0.505-0.115-1.001-0.224-1.489l0.494,0.012
		c0.165,0.004,0.658-0.079,1.478-0.248c0.236-0.051,0.434-0.099,0.592-0.146L593.426,230.781z M596.044,233.853
		c0.113,0.488,0.273,0.965,0.478,1.429l-2.688,1.525c-0.15-0.503-0.324-0.985-0.523-1.448l0.422-0.095
		c0.123-0.027,0.397-0.16,0.822-0.397c0.482-0.27,0.83-0.49,1.045-0.657L596.044,233.853z"/>
	<path fill="#0E77D9" d="M584.985,251.103c0.155,0.246,0.338,0.514,0.552,0.803l-3.687,2.788c-0.054-0.099-0.096-0.177-0.123-0.231
		c-0.228-0.454-0.386-0.741-0.474-0.863l-0.332-0.461l0.517-0.258c0.241-0.123,0.714-0.415,1.421-0.877
		c0.7-0.463,1.121-0.776,1.264-0.939l0.086-0.102l-2.717-0.495c-0.384-0.069-0.773-0.13-1.171-0.179l-1.209-0.154
		c0.07-0.254,0.128-0.506,0.175-0.753c0.046-0.242,0.096-0.573,0.153-0.992l0.176,0.04c0.889,0.224,1.611,0.386,2.167,0.487
		l5.467,0.995l0.651-3.458c0.128-0.684,0.275-1.677,0.442-2.978c0.037,0.007,0.129,0.029,0.271,0.066
		c0.129,0.028,0.215,0.048,0.258,0.056c0.134,0.029,0.224,0.052,0.271,0.065c0.027,0.005,0.055,0.01,0.081,0.015
		c0.027,0.005,0.08,0.018,0.16,0.038l0.016,0.003l0.561,0.052c-0.318,1.273-0.543,2.258-0.674,2.952l-0.647,3.441l4.076,0.742
		l0.979,0.128l1.013,0.135c-0.131,0.427-0.203,0.676-0.216,0.746l-0.008,0.04l-0.006,0.032c-0.004,0.017-0.03,0.265-0.082,0.746
		l-0.017,0.18c-0.861-0.223-1.53-0.379-2.004-0.465l-0.274-0.05l-0.6,3.183c-0.099,0.522-0.194,1.152-0.288,1.887
		c-0.195-0.059-0.363-0.103-0.502-0.133c-0.043-0.008-0.102-0.022-0.177-0.041c-0.053-0.01-0.096-0.021-0.127-0.031
		c-0.021-0.004-0.035-0.007-0.04-0.008l-0.032-0.006l-0.033-0.006l-0.041-0.008l-0.04-0.007c-0.021-0.004-0.044-0.005-0.066-0.004
		l-0.56-0.052c0.189-0.706,0.334-1.32,0.432-1.843l0.603-3.2l-2.282-0.415l-0.803,4.267c-0.109,0.592-0.238,1.477-0.381,2.654
		c-0.304-0.105-0.542-0.174-0.715-0.205l-0.064-0.012l-0.032-0.007c-0.055-0.01-0.323-0.033-0.806-0.071
		c0.294-1.145,0.496-2.021,0.611-2.629l0.8-4.25L584.985,251.103z"/>
</g>
<path fill="#9E7F29" d="M255.919,137.645L255.919,137.645l1.429,0.771c9.528-17.562,22.058-33.254,36.89-46.41l-1.074-1.214
	C278.187,104.071,265.538,119.914,255.919,137.645z"/>
<path fill="#E9C25A" d="M263.49,141.721l2.371,1.276c8.987-16.559,20.805-31.354,34.787-43.759l-1.785-2.014
	C284.643,109.837,272.628,124.883,263.49,141.721z"/>
<path fill="#878688" d="M307.725,93.304c16.986-13.415,36.743-23.47,58.271-29.181l-2.731-10.958
	c-23.141,6.112-44.371,16.917-62.612,31.341L307.725,93.304z"/>
<path fill="#A3A2A2" d="M307.725,93.304c16.986-13.415,36.743-23.47,58.271-29.181l-0.65-2.613
	c-21.912,5.807-42.021,16.041-59.306,29.696L307.725,93.304z"/>
<path fill="#5E5E5E" d="M301.668,85.771c18.061-14.278,39.079-24.976,61.985-31.031l-0.393-1.574
	c-23.141,6.112-44.371,16.917-62.612,31.341L301.668,85.771z"/>
<path fill="#878688" d="M372.903,50.906l2.26,11.062c10.401-2.112,21.166-3.224,32.191-3.224c11.202,0,22.135,1.147,32.691,3.326
	c0.989-4.783,2.129-10.253,2.295-11.056c-11.297-2.332-22.998-3.561-34.986-3.561C395.555,47.457,384.033,48.646,372.903,50.906z"/>
<path fill="#A3A2A2" d="M374.621,59.333l0.539,2.638c10.401-2.112,21.166-3.224,32.191-3.224c11.202,0,22.135,1.147,32.691,3.326
	c0.18-0.866,0.36-1.755,0.547-2.636c-10.732-2.216-21.853-3.383-33.238-3.383C396.145,56.055,385.198,57.185,374.621,59.333z"/>
<path fill="#5E5E5E" d="M372.903,50.906l0.325,1.591c11.027-2.239,22.438-3.418,34.127-3.418c11.875,0,23.466,1.217,34.656,3.526
	c0.169-0.811,0.284-1.37,0.329-1.589c-11.297-2.332-22.997-3.561-34.985-3.561C395.555,47.457,384.033,48.646,372.903,50.906z"/>
<path fill="#C1DDF4" d="M507.24,93.511l6.964-8.888c-18.073-14.326-39.099-25.093-62.009-31.256L452,53.409l-2.886,10.823
	C470.598,69.99,490.304,80.078,507.24,93.511z"/>
<path fill="#87AEC4" d="M513.201,85.9l1-1.276c-18.073-14.326-39.099-25.093-62.009-31.256L452,53.409l-0.396,1.479
	C474.365,60.988,495.25,71.672,513.201,85.9z"/>
<path fill="#D7E9F4" d="M449.115,64.233c21.479,5.759,41.188,15.846,58.123,29.278l1.659-2.119
	c-17.22-13.654-37.253-23.907-59.09-29.761L449.115,64.233z"/>
<path fill="#C1DDF4" d="M521.668,90.896l-7.498,8.44c16.381,14.555,29.766,32.401,39.119,52.508l10.225-4.746l0.021-0.005
	C553.524,125.575,539.198,106.474,521.668,90.896z"/>
<path fill="#D7E9F4" d="M515.959,97.323l-1.789,2.014c16.381,14.555,29.766,32.401,39.116,52.508l2.442-1.134
	C546.221,130.268,532.613,112.123,515.959,97.323z"/>
<path fill="#87AEC4" d="M521.668,90.896l-1.078,1.213c17.362,15.431,31.554,34.351,41.47,55.664l1.454-0.675l0.021-0.005
	C553.524,125.575,539.198,106.474,521.668,90.896z"/>
<path fill="#0E77D9" d="M556.902,160.203c7.312,18.385,11.337,38.436,11.337,59.426c0,1.617-0.031,3.229-0.078,4.834l11.286,0.303
	c0.05-1.707,0.082-3.416,0.082-5.137c0-22.455-4.304-43.902-12.122-63.571C566.58,156.383,561.85,158.25,556.902,160.203z"/>
<path fill="#2F9BF4" d="M556.902,160.203c7.312,18.385,11.337,38.436,11.337,59.426c0,1.617-0.031,3.229-0.078,4.834l2.691,0.072
	c0.048-1.633,0.079-3.266,0.079-4.906c0-21.339-4.091-41.724-11.524-60.416C558.59,159.537,557.746,159.869,556.902,160.203z"/>
<path fill="#022A84" d="M565.896,156.654c7.746,19.484,12.01,40.731,12.01,62.977c0,1.705-0.032,3.399-0.081,5.094l1.622,0.043
	c0.05-1.707,0.082-3.416,0.082-5.137c0-22.455-4.304-43.902-12.122-63.571C567.177,156.148,566.651,156.356,565.896,156.654z"/>
<path fill="#0E77D9" d="M578.853,234.831l-11.245-0.998c-1.954,22.336-8.464,43.36-18.604,62.146l9.938,5.358
	C569.795,281.239,576.762,258.732,578.853,234.831z"/>
<path fill="#2F9BF4" d="M570.287,234.068l-2.683-0.234c-1.954,22.336-8.464,43.361-18.606,62.146l2.369,1.275
	C561.684,278.161,568.302,256.779,570.287,234.068z"/>
<path fill="#022A84" d="M578.853,234.831l-1.616-0.146c-2.072,23.682-8.973,45.972-19.727,65.881l1.429,0.771
	C569.795,281.239,576.762,258.732,578.853,234.831z"/>
<g>
	<path fill="#FFFFFF" d="M449.324,52.501c-0.207-0.049-0.983-0.234-1.797-0.425l0,0c-0.808-0.191-1.589-0.376-1.796-0.426
		c-0.47-0.11-0.505,0.479-0.505,0.479l-3.339,17.084c0,0-0.054,0.275,0.144,0.322c0.09,0.021,0.688,0.161,1.293,0.306l0,0
		c0.605,0.144,1.201,0.284,1.295,0.306c0.194,0.046,0.271-0.225,0.271-0.225l4.673-16.769
		C449.565,53.155,449.797,52.612,449.324,52.501z"/>
	<path fill="#C7C5C6" d="M449.432,52.544c-0.016,0.115-0.053,0.207-0.053,0.207l-4.675,16.769c0,0-0.073,0.271-0.271,0.226
		c-0.093-0.022-0.688-0.163-1.294-0.307h-0.001c-0.532-0.126-1.057-0.25-1.237-0.293l-0.014,0.069c0,0-0.056,0.275,0.143,0.322
		c0.093,0.021,0.688,0.161,1.293,0.306l0,0c0.606,0.144,1.202,0.284,1.295,0.306c0.195,0.046,0.271-0.225,0.271-0.225l4.673-16.769
		C449.565,53.155,449.75,52.708,449.432,52.544z"/>
	<circle fill="none" cx="407.355" cy="219.575" r="172.527"/>
</g>
<g>
	<path fill="#FFFFFF" d="M369.087,51.62c-0.157,0.035-0.744,0.178-1.354,0.323l0,0c-0.607,0.146-1.197,0.287-1.354,0.324
		c-0.354,0.085-0.176,0.508-0.176,0.508l3.656,13.046c0,0,0.062,0.21,0.208,0.176c0.069-0.018,0.52-0.124,0.978-0.233l0,0
		c0.458-0.109,0.904-0.217,0.976-0.234c0.147-0.034,0.104-0.25,0.104-0.25l-2.649-13.286
		C369.473,51.992,369.441,51.534,369.087,51.62z"/>
	<path fill="#C7C5C6" d="M369.172,51.613c0.028,0.085,0.037,0.161,0.037,0.161l2.648,13.288c0,0,0.042,0.214-0.104,0.249
		c-0.07,0.018-0.521,0.125-0.978,0.234l0,0c-0.398,0.096-0.795,0.19-0.933,0.224l0.014,0.053c0,0,0.062,0.21,0.208,0.176
		c0.069-0.018,0.52-0.124,0.978-0.233l0,0c0.457-0.109,0.903-0.217,0.976-0.234c0.146-0.034,0.104-0.25,0.104-0.25l-2.648-13.286
		C369.473,51.992,369.443,51.617,369.172,51.613z"/>
	<circle fill="none" cx="407.355" cy="219.575" r="172.527"/>
</g>
<g>
	<path fill="#FFFFFF" d="M519.412,88.747c-0.121-0.105-0.586-0.492-1.064-0.896l0,0c-0.479-0.403-0.944-0.791-1.067-0.895
		c-0.276-0.233-0.511,0.163-0.511,0.163l-8.297,10.711c0,0-0.134,0.174-0.02,0.271c0.058,0.046,0.406,0.341,0.771,0.645h-0.001
		c0.36,0.302,0.715,0.598,0.771,0.644c0.115,0.097,0.265-0.065,0.265-0.065l9.091-10.047
		C519.346,89.278,519.695,88.979,519.412,88.747z"/>
	<path fill="#C7C5C6" d="M519.471,88.81c-0.051,0.075-0.108,0.126-0.108,0.126l-9.089,10.048c0,0-0.146,0.162-0.263,0.064
		c-0.059-0.046-0.409-0.342-0.771-0.645h-0.002c-0.313-0.265-0.628-0.524-0.731-0.615l-0.034,0.043c0,0-0.134,0.174-0.02,0.271
		c0.058,0.046,0.406,0.341,0.771,0.645h-0.001c0.361,0.302,0.715,0.598,0.771,0.644c0.115,0.097,0.265-0.065,0.265-0.065
		l9.091-10.047C519.346,89.278,519.629,89.031,519.471,88.81z"/>
	<circle fill="none" cx="407.354" cy="219.574" r="172.527"/>
</g>
<g>
	<path fill="#FFFFFF" d="M579.182,231.788c0.011-0.16,0.047-0.767,0.083-1.394l0,0c0.038-0.625,0.073-1.229,0.083-1.392
		c0.021-0.362-0.438-0.312-0.438-0.312l-13.545-0.295c0,0-0.219-0.004-0.228,0.146c-0.005,0.068-0.032,0.527-0.062,1l0,0
		c-0.024,0.473-0.056,0.932-0.061,1.002c-0.009,0.148,0.21,0.172,0.21,0.172l13.481,1.328
		C578.713,232.049,579.158,232.15,579.182,231.788z"/>
	<path fill="#C7C5C6" d="M579.16,231.872c-0.09,0.002-0.166-0.017-0.166-0.017l-13.479-1.324c0,0-0.217-0.021-0.208-0.174
		c0.004-0.069,0.03-0.528,0.06-1v-0.002c0.024-0.412,0.05-0.813,0.062-0.957l-0.06-0.002c0,0-0.218-0.004-0.227,0.147
		c-0.005,0.069-0.032,0.529-0.062,1h-0.002c-0.023,0.472-0.055,0.931-0.06,1.002c-0.009,0.149,0.21,0.172,0.21,0.172l13.481,1.328
		C578.713,232.049,579.078,232.129,579.16,231.872z"/>
	<circle fill="none" cx="407.355" cy="219.574" r="172.527"/>
</g>
<g>
	<path fill="#FFFFFF" d="M555.853,306.879c0.081-0.141,0.381-0.664,0.69-1.207l0,0c0.312-0.545,0.609-1.07,0.689-1.211
		c0.186-0.312-0.25-0.477-0.25-0.477l-12.004-6.281c0,0-0.192-0.1-0.269,0.031c-0.035,0.062-0.267,0.461-0.498,0.869h-0.002
		c-0.233,0.406-0.462,0.811-0.498,0.869c-0.075,0.133,0.108,0.246,0.108,0.246l11.487,7.184
		C555.316,306.904,555.672,307.195,555.853,306.879z"/>
	<path fill="#C7C5C6" d="M555.797,306.945c-0.082-0.036-0.145-0.086-0.145-0.086l-11.491-7.18c0,0-0.184-0.115-0.104-0.248
		c0.035-0.062,0.265-0.463,0.498-0.871h0.001c0.204-0.354,0.4-0.709,0.476-0.83l-0.049-0.025c0,0-0.193-0.1-0.27,0.031
		c-0.034,0.062-0.267,0.463-0.498,0.869l0,0c-0.234,0.406-0.466,0.811-0.5,0.869c-0.074,0.133,0.108,0.246,0.108,0.246l11.488,7.184
		C555.316,306.904,555.61,307.141,555.797,306.945z"/>
	<circle fill="none" cx="407.355" cy="219.574" r="172.527"/>
</g>
<g>
	<path fill="#FFFFFF" d="M254.221,140.686c-0.073,0.144-0.343,0.686-0.624,1.245l0,0c-0.281,0.561-0.552,1.103-0.625,1.245
		c-0.163,0.326,0.277,0.46,0.277,0.46l12.334,5.604c0,0,0.2,0.09,0.268-0.046c0.032-0.063,0.238-0.476,0.45-0.896l0,0
		c0.211-0.421,0.417-0.833,0.45-0.897c0.064-0.135-0.125-0.239-0.125-0.239l-11.871-6.529
		C254.755,140.631,254.384,140.36,254.221,140.686z"/>
	<path fill="#C7C5C6" d="M254.271,140.617c0.084,0.031,0.146,0.075,0.146,0.075l11.873,6.529c0,0,0.188,0.106,0.123,0.241
		c-0.032,0.064-0.239,0.477-0.449,0.896l0,0c-0.188,0.369-0.366,0.731-0.43,0.857l0.049,0.022c0,0,0.2,0.09,0.268-0.046
		c0.032-0.063,0.238-0.476,0.45-0.896l0,0c0.211-0.421,0.417-0.833,0.45-0.897c0.064-0.135-0.125-0.239-0.125-0.239l-11.871-6.529
		C254.755,140.631,254.448,140.412,254.271,140.617z"/>
	<circle fill="none" cx="407.355" cy="219.575" r="172.527"/>
</g>
<g>
	<path fill="#FFFFFF" d="M239.406,257.872c0.037,0.157,0.182,0.746,0.325,1.354l0,0c0.146,0.607,0.287,1.195,0.324,1.354
		c0.085,0.354,0.508,0.174,0.508,0.174l13.045-3.658c0,0,0.21-0.061,0.178-0.207c-0.02-0.07-0.125-0.52-0.233-0.977l0,0
		c-0.109-0.459-0.217-0.906-0.234-0.979c-0.034-0.146-0.25-0.104-0.25-0.104l-13.285,2.651
		C239.779,257.486,239.321,257.52,239.406,257.872z"/>
	<path fill="#C7C5C6" d="M239.4,257.788c0.084-0.031,0.161-0.037,0.161-0.037l13.287-2.651c0,0,0.214-0.043,0.249,0.104
		c0.017,0.068,0.124,0.52,0.234,0.975l0,0c0.096,0.402,0.188,0.797,0.224,0.934l0.053-0.014c0,0,0.21-0.061,0.178-0.207
		c-0.02-0.07-0.125-0.518-0.233-0.977l0,0c-0.109-0.457-0.217-0.904-0.234-0.977c-0.034-0.146-0.25-0.104-0.25-0.104l-13.286,2.649
		C239.779,257.486,239.403,257.516,239.4,257.788z"/>
	<circle fill="none" cx="407.354" cy="219.576" r="172.527"/>
</g>
<g>
	<path fill="#FFFFFF" d="M298.093,86.394c-0.163,0.137-0.775,0.654-1.411,1.19l0,0c-0.635,0.536-1.249,1.053-1.41,1.189
		c-0.369,0.312,0.083,0.69,0.083,0.69l11.74,12.853c0,0,0.188,0.207,0.344,0.077c0.072-0.06,0.539-0.454,1.017-0.856l0,0
		c0.479-0.402,0.943-0.796,1.019-0.857c0.151-0.13-0.021-0.352-0.021-0.352L298.76,86.593
		C298.76,86.593,298.462,86.082,298.093,86.394z"/>
	<path fill="#C7C5C6" d="M298.189,86.336c0.083,0.08,0.138,0.164,0.138,0.164l10.689,13.735c0,0,0.173,0.224,0.02,0.353
		c-0.07,0.062-0.54,0.456-1.017,0.856h-0.001c-0.417,0.354-0.829,0.699-0.971,0.821l0.047,0.052c0,0,0.188,0.207,0.344,0.077
		c0.072-0.06,0.539-0.454,1.017-0.856l0,0c0.479-0.402,0.943-0.796,1.019-0.857c0.151-0.13-0.021-0.352-0.021-0.352l-10.689-13.736
		C298.76,86.593,298.511,86.177,298.189,86.336z"/>
	<circle fill="none" cx="407.355" cy="219.575" r="172.527"/>
</g>
<g>
	<path fill="#FFFFFF" d="M235.494,207.786c-0.015,0.213-0.059,1.014-0.104,1.844l0,0c-0.046,0.83-0.09,1.631-0.101,1.845
		c-0.026,0.481,0.56,0.411,0.56,0.411l17.406,0.271c0,0,0.281,0.005,0.292-0.196c0.005-0.095,0.039-0.703,0.072-1.326h0.001
		c0.032-0.623,0.065-1.233,0.07-1.33c0.013-0.198-0.27-0.227-0.27-0.227l-17.33-1.638
		C236.095,207.438,235.519,207.305,235.494,207.786z"/>
	<path fill="#C7C5C6" d="M235.517,207.676c0.116-0.006,0.212,0.016,0.212,0.016l17.331,1.639c0,0,0.28,0.023,0.271,0.229
		c-0.005,0.096-0.039,0.705-0.073,1.326l0,0c-0.029,0.549-0.062,1.084-0.069,1.271l0.07,0.002c0,0,0.281,0.005,0.292-0.196
		c0.005-0.095,0.039-0.703,0.072-1.328h0.001c0.034-0.623,0.065-1.231,0.07-1.327c0.013-0.201-0.27-0.228-0.27-0.228l-17.33-1.64
		C236.095,207.438,235.623,207.333,235.517,207.676z"/>
	<circle fill="none" cx="407.355" cy="219.575" r="172.527"/>
</g>
<g>
	<path fill="#FFFFFF" d="M257.232,304.062c0.106,0.188,0.512,0.879,0.93,1.6l0,0c0.417,0.717,0.817,1.411,0.927,1.596
		c0.243,0.418,0.691,0.037,0.691,0.037l14.696-9.332c0,0,0.237-0.148,0.135-0.322c-0.047-0.082-0.354-0.608-0.667-1.146v-0.003
		c-0.312-0.536-0.618-1.067-0.668-1.149c-0.102-0.172-0.35-0.041-0.35-0.041l-15.384,8.146
		C257.543,303.441,256.988,303.646,257.232,304.062z"/>
	<path fill="#C7C5C6" d="M257.19,303.959c0.097-0.068,0.188-0.104,0.188-0.104l15.384-8.146c0,0,0.249-0.133,0.35,0.041
		c0.049,0.082,0.355,0.609,0.667,1.148l0,0c0.276,0.475,0.546,0.938,0.643,1.102l0.059-0.037c0,0,0.237-0.15,0.135-0.324
		c-0.047-0.08-0.354-0.605-0.667-1.146v-0.002c-0.312-0.539-0.619-1.068-0.668-1.15c-0.102-0.172-0.35-0.043-0.35-0.043
		l-15.384,8.146C257.543,303.441,257.091,303.614,257.19,303.959z"/>
	<circle fill="none" cx="407.355" cy="219.575" r="172.527"/>
</g>
<g>
	<path fill="#FFFFFF" d="M566.371,153.331c-0.084-0.195-0.399-0.933-0.729-1.694l0,0c-0.33-0.762-0.646-1.499-0.734-1.694
		c-0.188-0.441-0.685-0.119-0.685-0.119l-15.688,7.537c0,0-0.255,0.123-0.176,0.309c0.038,0.085,0.281,0.646,0.528,1.22l0,0
		c0.248,0.572,0.491,1.133,0.525,1.22c0.08,0.186,0.345,0.083,0.345,0.083l16.231-6.278
		C565.99,153.913,566.567,153.774,566.371,153.331z"/>
	<path fill="#C7C5C6" d="M566.403,153.44c-0.101,0.058-0.197,0.082-0.197,0.082l-16.23,6.28c0,0-0.263,0.102-0.343-0.083
		c-0.039-0.088-0.281-0.649-0.529-1.221l0.001-0.001c-0.218-0.501-0.431-0.994-0.505-1.166l-0.062,0.028
		c0,0-0.254,0.123-0.175,0.309c0.038,0.085,0.281,0.646,0.528,1.22l0,0c0.248,0.572,0.49,1.133,0.526,1.22
		c0.078,0.186,0.345,0.083,0.345,0.083l16.23-6.278C565.99,153.913,566.461,153.794,566.403,153.44z"/>
	<circle fill="none" cx="407.355" cy="219.575" r="172.527"/>
</g>
<g>
	<path fill="#FFFFFF" d="M260.385,220.695v-0.889c0-0.924,0.165-1.812,0.495-2.68s0.753-1.645,1.27-2.336
		c0.52-0.693,1.012-1.271,1.479-1.729c0.469-0.457,0.903-0.856,1.301-1.205c0.771-0.66,1.4-1.274,1.892-1.851
		c0.491-0.567,0.852-1.137,1.073-1.698c0.227-0.562,0.336-1.082,0.336-1.558c0-0.947-0.176-1.627-0.524-2.037
		c-0.354-0.41-0.856-0.614-1.52-0.614c-0.593,0-1.063,0.219-1.422,0.651c-0.354,0.438-0.593,0.946-0.711,1.53
		s-0.199,1.119-0.241,1.609l-3.504-0.277c0.104-1.041,0.299-1.967,0.59-2.772c0.293-0.81,0.688-1.489,1.188-2.05
		c0.5-0.561,1.105-0.981,1.828-1.271c0.72-0.289,1.562-0.432,2.523-0.432c1.354,0,2.473,0.288,3.348,0.863
		c0.877,0.573,1.469,1.312,1.774,2.214c0.312,0.901,0.464,1.789,0.464,2.66c0,0.989-0.185,1.903-0.552,2.741
		c-0.369,0.838-0.794,1.517-1.276,2.031c-0.479,0.516-0.893,0.938-1.229,1.271c-1.729,1.584-2.7,2.483-2.92,2.704
		c-0.288,0.296-0.548,0.603-0.781,0.921c-0.229,0.315-0.412,0.633-0.539,0.944h7.147v3.25h-11.49V220.695L260.385,220.695z"/>
	<path fill="#FFFFFF" d="M279.696,221.09c-0.699,0-1.321-0.076-1.863-0.229s-1.019-0.355-1.422-0.615
		c-0.406-0.26-0.756-0.562-1.041-0.906c-0.288-0.346-0.531-0.713-0.729-1.101c-0.199-0.386-0.362-0.776-0.489-1.181
		c-0.127-0.401-0.229-0.793-0.314-1.176l3.453-0.773c0.073,0.68,0.22,1.25,0.432,1.723c0.212,0.469,0.484,0.797,0.818,0.982
		c0.335,0.188,0.688,0.277,1.061,0.277c0.778,0,1.36-0.344,1.746-1.027c0.385-0.688,0.577-1.633,0.577-2.846
		c0-0.711-0.074-1.336-0.222-1.879c-0.148-0.541-0.354-0.945-0.616-1.219c-0.194-0.192-0.404-0.344-0.628-0.442
		c-0.228-0.103-0.527-0.151-0.908-0.151c-0.524,0-0.969,0.166-1.333,0.5c-0.364,0.337-0.639,0.776-0.825,1.328l-2.958-0.443
		l1.612-10.423h9.128v3.084h-6.665l-0.673,4.315c0.347-0.348,0.766-0.623,1.257-0.832c0.491-0.207,1.113-0.312,1.866-0.312
		c0.53,0,1.067,0.094,1.609,0.277c0.542,0.187,1.032,0.509,1.476,0.965c0.381,0.426,0.688,0.891,0.927,1.396
		c0.238,0.508,0.41,1.09,0.521,1.738c0.111,0.648,0.165,1.311,0.165,1.969c0,1.031-0.117,1.979-0.359,2.84
		c-0.24,0.855-0.606,1.594-1.101,2.209c-0.488,0.611-1.108,1.092-1.856,1.436C281.58,220.918,280.702,221.09,279.696,221.09z"/>
</g>
<g>
	<path fill="#FFFFFF" d="M286.504,299.814c-1.083,0-2.006-0.225-2.771-0.668c-0.762-0.441-1.382-1.096-1.857-1.945
		c-0.479-0.854-0.827-1.904-1.047-3.148c-0.223-1.244-0.33-2.662-0.33-4.254c0-1.582,0.107-2.992,0.33-4.232
		c0.22-1.236,0.566-2.284,1.047-3.135c0.479-0.854,1.099-1.498,1.857-1.942c0.765-0.442,1.688-0.666,2.771-0.666
		s2.008,0.224,2.771,0.666c0.769,0.444,1.393,1.093,1.872,1.942c0.482,0.851,0.834,1.896,1.057,3.135
		c0.22,1.24,0.33,2.65,0.33,4.232c0,1.592-0.11,3.01-0.33,4.254c-0.223,1.244-0.571,2.295-1.057,3.148
		c-0.48,0.852-1.104,1.504-1.872,1.945C288.512,299.592,287.587,299.814,286.504,299.814z M286.504,296.717
		c0.584,0,1.05-0.287,1.396-0.863c0.349-0.573,0.573-1.412,0.682-2.514c0.104-1.104,0.156-2.281,0.156-3.543
		c0-1.896-0.1-3.359-0.298-4.395c-0.198-1.029-0.475-1.704-0.826-2.02c-0.351-0.312-0.721-0.471-1.107-0.471
		c-0.604,0-1.068,0.293-1.403,0.877c-0.334,0.584-0.552,1.418-0.652,2.5c-0.102,1.084-0.15,2.252-0.15,3.504
		c0,1.264,0.042,2.332,0.127,3.213c0.085,0.88,0.216,1.598,0.394,2.146c0.181,0.553,0.406,0.949,0.688,1.192
		C285.783,296.592,286.115,296.717,286.504,296.717z"/>
</g>
<g>
	<path fill="#FFFFFF" d="M314.631,127.707c-0.872,0-1.688-0.152-2.438-0.457c-0.752-0.306-1.408-0.814-1.968-1.53
		c-0.559-0.715-0.999-1.667-1.32-2.854c-0.318-1.189-0.479-2.67-0.479-4.438c0-1.676,0.129-3.178,0.387-4.507
		c0.259-1.329,0.656-2.452,1.193-3.37c0.538-0.919,1.222-1.621,2.051-2.107c0.829-0.486,1.817-0.729,2.971-0.729
		c0.981,0,1.842,0.167,2.577,0.502c0.736,0.334,1.307,0.824,1.708,1.473c0.401,0.646,0.68,1.364,0.831,2.151l-3.401,0.787
		c-0.052-0.313-0.128-0.598-0.229-0.852c-0.104-0.254-0.232-0.474-0.396-0.66c-0.161-0.169-0.348-0.294-0.56-0.375
		c-0.212-0.079-0.439-0.119-0.688-0.119c-0.244,0-0.48,0.044-0.711,0.134c-0.229,0.088-0.453,0.251-0.674,0.488
		c-0.354,0.396-0.626,0.995-0.812,1.797c-0.188,0.799-0.307,1.812-0.355,3.04c0.34-0.415,0.785-0.765,1.34-1.049
		c0.557-0.282,1.262-0.425,2.113-0.425c1.151,0,2.104,0.353,2.856,1.055c0.752,0.701,1.25,1.531,1.49,2.487
		c0.239,0.956,0.36,1.837,0.36,2.642c0,1.337-0.174,2.449-0.521,3.339c-0.349,0.889-0.801,1.598-1.357,2.126
		c-0.56,0.529-1.188,0.904-1.885,1.124C316.021,127.597,315.323,127.707,314.631,127.707z M314.53,124.978
		c0.562,0,1.021-0.187,1.379-0.559s0.604-0.852,0.735-1.436s0.196-1.15,0.196-1.7c0-0.567-0.051-1.089-0.146-1.562
		c-0.098-0.474-0.241-0.883-0.432-1.225c-0.191-0.345-0.434-0.609-0.727-0.802c-0.291-0.188-0.628-0.284-1.01-0.284
		c-0.39,0-0.729,0.096-1.021,0.284c-0.291,0.191-0.535,0.457-0.729,0.802c-0.193,0.342-0.341,0.751-0.438,1.225
		c-0.099,0.474-0.146,0.994-0.146,1.562c0,0.871,0.114,1.6,0.344,2.184s0.521,0.98,0.876,1.193
		C313.767,124.872,314.14,124.978,314.53,124.978z"/>
	<path fill="#FFFFFF" d="M328.026,127.707c-1.083,0-2.006-0.223-2.768-0.667c-0.764-0.443-1.382-1.095-1.86-1.948
		c-0.478-0.854-0.827-1.904-1.047-3.148c-0.22-1.243-0.33-2.662-0.33-4.253c0-1.583,0.11-2.994,0.33-4.233s0.569-2.285,1.047-3.136
		c0.479-0.854,1.1-1.497,1.86-1.942c0.762-0.443,1.685-0.666,2.768-0.666s2.009,0.223,2.774,0.666
		c0.766,0.445,1.39,1.092,1.872,1.942c0.479,0.851,0.834,1.896,1.054,3.136s0.33,2.65,0.33,4.233c0,1.592-0.11,3.01-0.33,4.253
		c-0.22,1.244-0.571,2.294-1.054,3.148c-0.483,0.854-1.106,1.505-1.872,1.948C330.031,127.485,329.109,127.707,328.026,127.707z
		 M328.026,124.609c0.584,0,1.051-0.288,1.396-0.862c0.346-0.575,0.571-1.413,0.679-2.515c0.104-1.101,0.159-2.28,0.159-3.542
		c0-1.896-0.102-3.359-0.298-4.393c-0.199-1.032-0.478-1.705-0.826-2.02c-0.353-0.312-0.723-0.47-1.11-0.47
		c-0.601,0-1.066,0.292-1.402,0.876c-0.334,0.584-0.553,1.418-0.651,2.501c-0.103,1.083-0.152,2.251-0.152,3.504
		c0,1.262,0.042,2.332,0.127,3.212c0.085,0.88,0.217,1.597,0.396,2.146c0.178,0.55,0.404,0.948,0.686,1.192
		C327.305,124.485,327.636,124.609,328.026,124.609z"/>
</g>
<g>
	<path fill="#FFFFFF" d="M420.647,97.749V82.908c-0.762,0.55-1.386,0.982-1.872,1.302c-0.487,0.315-0.912,0.563-1.276,0.742
		l-1.443-2.591c0.521-0.305,1.126-0.693,1.803-1.168c0.677-0.474,1.309-0.956,1.893-1.446c0.584-0.491,1.04-0.894,1.37-1.206h3.148
		v19.208H420.647z"/>
	<path fill="#FFFFFF" d="M435.209,98.142c-1.084,0-2.009-0.222-2.771-0.667c-0.762-0.443-1.382-1.094-1.86-1.948
		c-0.478-0.854-0.823-1.903-1.047-3.147c-0.22-1.244-0.33-2.662-0.33-4.253c0-1.583,0.11-2.994,0.33-4.234
		c0.224-1.239,0.569-2.285,1.047-3.135c0.479-0.853,1.103-1.498,1.86-1.943c0.763-0.442,1.688-0.666,2.771-0.666
		c1.082,0,2.008,0.224,2.771,0.666c0.766,0.445,1.391,1.092,1.872,1.943c0.48,0.85,0.834,1.896,1.054,3.135
		c0.224,1.24,0.33,2.651,0.33,4.234c0,1.591-0.106,3.009-0.33,4.253c-0.22,1.244-0.567,2.294-1.054,3.147
		c-0.485,0.854-1.105,1.505-1.872,1.948C437.217,97.92,436.289,98.142,435.209,98.142z M435.209,95.044
		c0.584,0,1.049-0.288,1.396-0.863c0.347-0.575,0.573-1.413,0.679-2.514c0.106-1.102,0.159-2.281,0.159-3.542
		c0-1.896-0.101-3.36-0.298-4.394c-0.199-1.031-0.475-1.705-0.826-2.019c-0.351-0.314-0.721-0.47-1.106-0.47
		c-0.604,0-1.068,0.292-1.403,0.876c-0.334,0.584-0.552,1.418-0.653,2.501c-0.101,1.083-0.151,2.253-0.151,3.505
		c0,1.261,0.039,2.332,0.127,3.212c0.084,0.88,0.216,1.596,0.394,2.146c0.179,0.551,0.406,0.948,0.688,1.193
		C434.487,94.921,434.82,95.044,435.209,95.044z"/>
	<path fill="#FFFFFF" d="M448.828,98.142c-1.082,0-2.006-0.222-2.768-0.667c-0.762-0.443-1.382-1.094-1.859-1.948
		c-0.479-0.854-0.828-1.903-1.048-3.147s-0.329-2.662-0.329-4.253c0-1.583,0.109-2.994,0.329-4.234
		c0.22-1.239,0.569-2.285,1.048-3.135c0.479-0.853,1.102-1.498,1.859-1.943c0.762-0.442,1.686-0.666,2.768-0.666
		c1.084,0,2.011,0.224,2.774,0.666c0.767,0.445,1.39,1.092,1.872,1.943c0.48,0.85,0.834,1.896,1.054,3.135
		c0.22,1.24,0.33,2.651,0.33,4.234c0,1.591-0.11,3.009-0.33,4.253s-0.571,2.294-1.054,3.147c-0.483,0.854-1.105,1.505-1.872,1.948
		C450.838,97.92,449.912,98.142,448.828,98.142z M448.828,95.044c0.584,0,1.054-0.288,1.396-0.863
		c0.346-0.575,0.572-1.413,0.679-2.514c0.107-1.102,0.159-2.281,0.159-3.542c0-1.896-0.1-3.36-0.298-4.394
		c-0.199-1.031-0.479-1.705-0.826-2.019c-0.351-0.313-0.721-0.47-1.11-0.47c-0.601,0-1.064,0.292-1.399,0.876
		c-0.334,0.584-0.554,1.418-0.653,2.501c-0.099,1.083-0.15,2.251-0.15,3.504c0,1.261,0.04,2.332,0.129,3.212
		c0.084,0.88,0.215,1.596,0.394,2.146c0.178,0.55,0.405,0.948,0.688,1.193C448.11,94.92,448.442,95.044,448.828,95.044z"/>
</g>
<g>
	<path fill="#FFFFFF" d="M508.85,175.553v-14.841c-0.762,0.55-1.387,0.982-1.872,1.302c-0.487,0.316-0.912,0.564-1.276,0.742
		l-1.444-2.59c0.521-0.306,1.127-0.694,1.804-1.168c0.677-0.475,1.308-0.956,1.892-1.447c0.584-0.491,1.041-0.893,1.371-1.206h3.148
		v19.208H508.85L508.85,175.553z"/>
	<path fill="#FFFFFF" d="M524.285,175.553v-4.188h-7.119v-3.377l6.992-11.642h3.646v12.137h1.562v2.882h-1.562v4.188H524.285z
		 M519.947,168.482h4.343v-7.362L519.947,168.482z"/>
	<path fill="#FFFFFF" d="M537.031,175.947c-1.082,0-2.006-0.222-2.768-0.667c-0.762-0.442-1.383-1.094-1.86-1.947
		c-0.477-0.854-0.827-1.904-1.047-3.148c-0.22-1.244-0.33-2.662-0.33-4.253c0-1.583,0.11-2.994,0.33-4.234
		c0.22-1.238,0.569-2.284,1.047-3.135c0.479-0.852,1.102-1.498,1.86-1.942c0.762-0.443,1.686-0.666,2.768-0.666
		c1.084,0,2.009,0.223,2.774,0.666c0.766,0.444,1.39,1.092,1.872,1.942c0.479,0.851,0.834,1.896,1.054,3.135
		c0.22,1.24,0.33,2.651,0.33,4.234c0,1.591-0.11,3.009-0.33,4.253s-0.571,2.294-1.054,3.148c-0.483,0.854-1.106,1.505-1.872,1.947
		C539.041,175.725,538.115,175.947,537.031,175.947z M537.031,172.849c0.584,0,1.053-0.288,1.396-0.863
		c0.346-0.574,0.572-1.413,0.679-2.514c0.107-1.101,0.159-2.281,0.159-3.542c0-1.896-0.1-3.36-0.298-4.393
		c-0.199-1.032-0.479-1.705-0.826-2.02c-0.351-0.312-0.722-0.47-1.11-0.47c-0.601,0-1.064,0.292-1.399,0.876
		c-0.334,0.584-0.556,1.418-0.653,2.501s-0.151,2.251-0.151,3.504c0,1.261,0.041,2.332,0.128,3.212
		c0.084,0.88,0.217,1.596,0.396,2.146c0.178,0.55,0.405,0.947,0.687,1.192C536.313,172.725,536.645,172.849,537.031,172.849z"/>
</g>
<line fill="none" x1="407.349" y1="219.598" x2="567.545" y2="156.519"/>
</svg>
