<?xml version="1.0" encoding="utf-8"?>
<!-- Generator: Adobe Illustrator 16.0.0, SVG Export Plug-In . SVG Version: 6.00 Build 0)  -->
<!DOCTYPE svg PUBLIC "-//W3C//DTD SVG 1.1//EN" "http://www.w3.org/Graphics/SVG/1.1/DTD/svg11.dtd">
<svg version="1.1" id="en" xmlns="http://www.w3.org/2000/svg" xmlns:xlink="http://www.w3.org/1999/xlink" x="0px" y="0px"
	 width="819px" height="405.047px" viewBox="0 0 819 405.047" enable-background="new 0 0 819 405.047" xml:space="preserve">
<g opacity="0.7">
	
		<radialGradient id="SVGID_1_" cx="-5995.709" cy="818.1162" r="101.2827" gradientTransform="matrix(1 0 0 1 6390.375 -592.3281)" gradientUnits="userSpaceOnUse">
		<stop  offset="0.6492" style="stop-color:#000000;stop-opacity:0"/>
		<stop  offset="1" style="stop-color:#692C17"/>
	</radialGradient>
	<path fill="url(#SVGID_1_)" d="M440.59,241.038l41.672,24.269c3.177-5.521,5.754-11.429,7.647-17.632l-46.03-14.366
		C443.066,236.023,441.955,238.611,440.59,241.038z"/>
	
		<radialGradient id="SVGID_2_" cx="-5995.709" cy="818.1162" r="101.2825" gradientTransform="matrix(1 0 0 1 6390.375 -592.3281)" gradientUnits="userSpaceOnUse">
		<stop  offset="0.6492" style="stop-color:#000000;stop-opacity:0"/>
		<stop  offset="1" style="stop-color:#692C17"/>
	</radialGradient>
	<path fill="url(#SVGID_2_)" d="M492.857,210.62l-47.71,6.746c0.214,1.635,0.336,3.301,0.336,4.991c0,3.195-0.396,6.299-1.141,9.267
		l46.806,11.584c1.646-6.646,2.524-13.592,2.524-20.746C493.672,218.443,493.39,214.491,492.857,210.62z"/>
	
		<radialGradient id="SVGID_3_" cx="-5995.709" cy="818.1162" r="101.2832" gradientTransform="matrix(1 0 0 1 6390.375 -592.3281)" gradientUnits="userSpaceOnUse">
		<stop  offset="0.6492" style="stop-color:#000000;stop-opacity:0"/>
		<stop  offset="1" style="stop-color:#692C17"/>
	</radialGradient>
	<path fill="url(#SVGID_3_)" d="M492.121,206.165c-2.189-11.434-6.646-22.062-12.879-31.4l-40.016,26.682
		c2.77,4.212,4.721,9.002,5.643,14.152L492.121,206.165z"/>
	
		<radialGradient id="SVGID_4_" cx="-5995.709" cy="818.1143" r="101.2819" gradientTransform="matrix(1 0 0 1 6390.375 -592.3281)" gradientUnits="userSpaceOnUse">
		<stop  offset="0.6492" style="stop-color:#000000;stop-opacity:0"/>
		<stop  offset="1" style="stop-color:#692C17"/>
	</radialGradient>
	<path fill="url(#SVGID_4_)" d="M453.11,149.419l-25.057,40.928c3.817,2.475,7.174,5.607,9.889,9.249l38.562-28.709
		C470.113,162.366,462.174,155.075,453.11,149.419z"/>
	
		<radialGradient id="SVGID_5_" cx="-5995.709" cy="818.1143" r="101.28" gradientTransform="matrix(1 0 0 1 6390.375 -592.3281)" gradientUnits="userSpaceOnUse">
		<stop  offset="0.6492" style="stop-color:#000000;stop-opacity:0"/>
		<stop  offset="1" style="stop-color:#692C17"/>
	</radialGradient>
	<path fill="url(#SVGID_5_)" d="M407.636,136.426c-9.597,0-18.821,1.572-27.438,4.47l15.218,45.254
		c3.759-1.237,7.77-1.918,11.938-1.918c0.848,0,1.686,0.038,2.521,0.092l2.941-47.737
		C411.104,136.484,409.377,136.426,407.636,136.426z"/>
	
		<radialGradient id="SVGID_6_" cx="-5995.708" cy="818.1201" r="101.2768" gradientTransform="matrix(1 0 0 1 6390.375 -592.3281)" gradientUnits="userSpaceOnUse">
		<stop  offset="0.6492" style="stop-color:#000000;stop-opacity:0"/>
		<stop  offset="1" style="stop-color:#692C17"/>
	</radialGradient>
	<path fill="url(#SVGID_6_)" d="M324.656,245.245c1.646,5.996,3.917,11.729,6.749,17.129l42.259-22.164
		c-1.253-2.358-2.261-4.869-2.999-7.487L324.656,245.245z"/>
	
		<radialGradient id="SVGID_7_" cx="-5995.709" cy="818.1162" r="101.2827" gradientTransform="matrix(1 0 0 1 6390.375 -592.3281)" gradientUnits="userSpaceOnUse">
		<stop  offset="0.6492" style="stop-color:#000000;stop-opacity:0"/>
		<stop  offset="1" style="stop-color:#692C17"/>
	</radialGradient>
	<path fill="url(#SVGID_7_)" d="M369.228,222.359c0-0.172,0.01-0.34,0.014-0.51l-47.62-0.918c-0.01,0.51-0.021,1.02-0.021,1.529
		c0,6.242,0.671,12.328,1.935,18.189l46.611-9.984C369.552,227.991,369.228,225.213,369.228,222.359z"/>
	
		<radialGradient id="SVGID_8_" cx="-5995.708" cy="818.1152" r="101.281" gradientTransform="matrix(1 0 0 1 6390.375 -592.3281)" gradientUnits="userSpaceOnUse">
		<stop  offset="0.6492" style="stop-color:#000000;stop-opacity:0"/>
		<stop  offset="1" style="stop-color:#692C17"/>
	</radialGradient>
	<path fill="url(#SVGID_8_)" d="M371.911,208.307l-44.258-17.604c-3.188,8.025-5.203,16.646-5.836,25.646l47.504,3.438
		C369.593,215.754,370.488,211.896,371.911,208.307z"/>
	
		<radialGradient id="SVGID_9_" cx="-5995.708" cy="818.1152" r="101.2863" gradientTransform="matrix(1 0 0 1 6390.375 -592.3281)" gradientUnits="userSpaceOnUse">
		<stop  offset="0.6492" style="stop-color:#000000;stop-opacity:0"/>
		<stop  offset="1" style="stop-color:#692C17"/>
	</radialGradient>
	<path fill="url(#SVGID_9_)" d="M329.546,186.316l43.213,20.018c1.755-3.781,4.108-7.225,6.944-10.209l-34.629-32.719
		C338.74,170.114,333.475,177.842,329.546,186.316z"/>
	
		<radialGradient id="SVGID_10_" cx="-5995.708" cy="818.1143" r="101.2841" gradientTransform="matrix(1 0 0 1 6390.375 -592.3281)" gradientUnits="userSpaceOnUse">
		<stop  offset="0.6492" style="stop-color:#000000;stop-opacity:0"/>
		<stop  offset="1" style="stop-color:#692C17"/>
	</radialGradient>
	<path fill="url(#SVGID_10_)" d="M348.26,160.199l32.88,34.488c3.457-3.275,7.523-5.91,12.02-7.714l-17.562-44.378
		C365.365,146.704,356.106,152.716,348.26,160.199z"/>
	
		<radialGradient id="SVGID_11_" cx="-5995.709" cy="818.1143" r="101.2819" gradientTransform="matrix(1 0 0 1 6390.375 -592.3281)" gradientUnits="userSpaceOnUse">
		<stop  offset="0.6492" style="stop-color:#000000;stop-opacity:0"/>
		<stop  offset="1" style="stop-color:#692C17"/>
	</radialGradient>
	<path fill="url(#SVGID_11_)" d="M417.25,136.964l-5.727,47.5c5.271,0.574,10.216,2.225,14.617,4.724l22.603-42.32
		C439.198,141.663,428.554,138.221,417.25,136.964z"/>
</g>
<radialGradient id="SVGID_12_" cx="-5984.7627" cy="-185.3696" r="183.5247" gradientTransform="matrix(-0.706 -0.7082 0.8338 -0.8313 -3627.9553 -4153.5952)" gradientUnits="userSpaceOnUse">
	<stop  offset="0.7847" style="stop-color:#000000;stop-opacity:0"/>
	<stop  offset="1" style="stop-color:#692C17;stop-opacity:0.6"/>
</radialGradient>
<circle fill="url(#SVGID_12_)" cx="407.349" cy="219.786" r="156.165"/>
<g>
	
		<radialGradient id="SVGID_13_" cx="-5956.376" cy="840.7822" r="113.7989" gradientTransform="matrix(1 0 0 1 6390.375 -592.3281)" gradientUnits="userSpaceOnUse">
		<stop  offset="0.7827" style="stop-color:#000000;stop-opacity:0"/>
		<stop  offset="1" style="stop-color:#692C17"/>
	</radialGradient>
	<path fill="url(#SVGID_13_)" d="M440.59,241.038l41.672,24.269c3.177-5.521,5.754-11.429,7.647-17.632l-46.03-14.366
		C443.066,236.023,441.955,238.611,440.59,241.038z"/>
	
		<radialGradient id="SVGID_14_" cx="-5956.376" cy="840.7832" r="113.799" gradientTransform="matrix(1 0 0 1 6390.375 -592.3281)" gradientUnits="userSpaceOnUse">
		<stop  offset="0.7827" style="stop-color:#000000;stop-opacity:0"/>
		<stop  offset="1" style="stop-color:#692C17"/>
	</radialGradient>
	<path fill="url(#SVGID_14_)" d="M492.857,210.62l-47.71,6.746c0.214,1.635,0.336,3.301,0.336,4.991
		c0,3.195-0.396,6.299-1.141,9.267l46.806,11.584c1.646-6.646,2.524-13.592,2.524-20.746
		C493.672,218.443,493.39,214.491,492.857,210.62z"/>
	
		<radialGradient id="SVGID_15_" cx="-5956.376" cy="840.7852" r="113.8031" gradientTransform="matrix(1 0 0 1 6390.375 -592.3281)" gradientUnits="userSpaceOnUse">
		<stop  offset="0.7827" style="stop-color:#000000;stop-opacity:0"/>
		<stop  offset="1" style="stop-color:#692C17"/>
	</radialGradient>
	<path fill="url(#SVGID_15_)" d="M492.121,206.165c-2.189-11.434-6.646-22.062-12.879-31.4l-40.016,26.682
		c2.77,4.212,4.721,9.002,5.643,14.152L492.121,206.165z"/>
	
		<radialGradient id="SVGID_16_" cx="-5956.376" cy="840.7812" r="113.7982" gradientTransform="matrix(1 0 0 1 6390.375 -592.3281)" gradientUnits="userSpaceOnUse">
		<stop  offset="0.7827" style="stop-color:#000000;stop-opacity:0"/>
		<stop  offset="1" style="stop-color:#692C17"/>
	</radialGradient>
	<path fill="url(#SVGID_16_)" d="M453.11,149.419l-25.057,40.928c3.817,2.475,7.174,5.607,9.889,9.249l38.562-28.709
		C470.113,162.366,462.174,155.075,453.11,149.419z"/>
	
		<radialGradient id="SVGID_17_" cx="-5956.376" cy="840.7822" r="113.7976" gradientTransform="matrix(1 0 0 1 6390.375 -592.3281)" gradientUnits="userSpaceOnUse">
		<stop  offset="0.7827" style="stop-color:#000000;stop-opacity:0"/>
		<stop  offset="1" style="stop-color:#692C17"/>
	</radialGradient>
	<path fill="url(#SVGID_17_)" d="M407.636,136.426c-9.597,0-18.821,1.572-27.438,4.47l15.218,45.254
		c3.759-1.237,7.77-1.918,11.938-1.918c0.848,0,1.686,0.038,2.521,0.092l2.941-47.737
		C411.104,136.484,409.377,136.426,407.636,136.426z"/>
	
		<radialGradient id="SVGID_18_" cx="-5956.375" cy="840.7852" r="113.7992" gradientTransform="matrix(1 0 0 1 6390.375 -592.3281)" gradientUnits="userSpaceOnUse">
		<stop  offset="0.7827" style="stop-color:#000000;stop-opacity:0"/>
		<stop  offset="1" style="stop-color:#692C17"/>
	</radialGradient>
	<path fill="url(#SVGID_18_)" d="M324.656,245.245c1.646,5.996,3.917,11.729,6.749,17.129l42.259-22.164
		c-1.253-2.358-2.261-4.869-2.999-7.487L324.656,245.245z"/>
	
		<radialGradient id="SVGID_19_" cx="-5956.376" cy="840.7803" r="113.7971" gradientTransform="matrix(1 0 0 1 6390.375 -592.3281)" gradientUnits="userSpaceOnUse">
		<stop  offset="0.7827" style="stop-color:#000000;stop-opacity:0"/>
		<stop  offset="1" style="stop-color:#692C17"/>
	</radialGradient>
	<path fill="url(#SVGID_19_)" d="M369.228,222.359c0-0.172,0.01-0.34,0.014-0.51l-47.62-0.918c-0.01,0.51-0.021,1.02-0.021,1.529
		c0,6.242,0.671,12.328,1.935,18.189l46.611-9.984C369.552,227.991,369.228,225.213,369.228,222.359z"/>
	
		<radialGradient id="SVGID_20_" cx="-5956.375" cy="840.7832" r="113.7994" gradientTransform="matrix(1 0 0 1 6390.375 -592.3281)" gradientUnits="userSpaceOnUse">
		<stop  offset="0.7827" style="stop-color:#000000;stop-opacity:0"/>
		<stop  offset="1" style="stop-color:#692C17"/>
	</radialGradient>
	<path fill="url(#SVGID_20_)" d="M371.911,208.307l-44.258-17.604c-3.188,8.025-5.203,16.646-5.836,25.646l47.504,3.438
		C369.593,215.754,370.488,211.896,371.911,208.307z"/>
	
		<radialGradient id="SVGID_21_" cx="-5956.375" cy="840.7812" r="113.8" gradientTransform="matrix(1 0 0 1 6390.375 -592.3281)" gradientUnits="userSpaceOnUse">
		<stop  offset="0.7827" style="stop-color:#000000;stop-opacity:0"/>
		<stop  offset="1" style="stop-color:#692C17"/>
	</radialGradient>
	<path fill="url(#SVGID_21_)" d="M329.546,186.316l43.213,20.018c1.755-3.781,4.108-7.225,6.944-10.209l-34.629-32.719
		C338.74,170.114,333.475,177.842,329.546,186.316z"/>
	
		<radialGradient id="SVGID_22_" cx="-5956.375" cy="840.7803" r="113.7984" gradientTransform="matrix(1 0 0 1 6390.375 -592.3281)" gradientUnits="userSpaceOnUse">
		<stop  offset="0.7827" style="stop-color:#000000;stop-opacity:0"/>
		<stop  offset="1" style="stop-color:#692C17"/>
	</radialGradient>
	<path fill="url(#SVGID_22_)" d="M348.26,160.199l32.88,34.488c3.457-3.275,7.523-5.91,12.02-7.714l-17.562-44.378
		C365.365,146.704,356.106,152.716,348.26,160.199z"/>
	
		<radialGradient id="SVGID_23_" cx="-5956.376" cy="840.7803" r="113.797" gradientTransform="matrix(1 0 0 1 6390.375 -592.3281)" gradientUnits="userSpaceOnUse">
		<stop  offset="0.7827" style="stop-color:#000000;stop-opacity:0"/>
		<stop  offset="1" style="stop-color:#692C17"/>
	</radialGradient>
	<path fill="url(#SVGID_23_)" d="M417.25,136.964l-5.727,47.5c5.271,0.574,10.216,2.225,14.617,4.724l22.603-42.32
		C439.198,141.663,428.554,138.221,417.25,136.964z"/>
</g>
<g>
	
		<linearGradient id="SVGID_24_" gradientUnits="userSpaceOnUse" x1="-6071.5146" y1="833.4463" x2="-6071.5146" y2="718.0434" gradientTransform="matrix(1 0 0 1 6390.375 -592.3281)">
		<stop  offset="0.1843" style="stop-color:#000000;stop-opacity:0"/>
		<stop  offset="0.7056" style="stop-color:#AD2401;stop-opacity:0.9605"/>
		<stop  offset="0.9894" style="stop-color:#FF7800"/>
	</linearGradient>
	<path fill="url(#SVGID_24_)" d="M319.928,222.943c0-0.684,0.01-1.363,0.024-2.043l-4.013-0.077c-0.009,0.513-0.02,1.021-0.02,1.536
		c0,6.688,0.725,13.201,2.086,19.479l3.795-0.812C320.576,235.189,319.928,229.145,319.928,222.943z"/>
	
		<linearGradient id="SVGID_25_" gradientUnits="userSpaceOnUse" x1="-6069.1562" y1="833.4453" x2="-6069.1562" y2="718.0466" gradientTransform="matrix(1 0 0 1 6390.375 -592.3281)">
		<stop  offset="0.1843" style="stop-color:#000000;stop-opacity:0"/>
		<stop  offset="0.7056" style="stop-color:#AD2401;stop-opacity:0.9605"/>
		<stop  offset="0.9894" style="stop-color:#FF7800"/>
	</linearGradient>
	<path fill="url(#SVGID_25_)" d="M326.289,190.158l-3.929-1.562c-3.399,8.555-5.546,17.744-6.212,27.343l4.032,0.291
		C320.878,207.073,322.99,198.311,326.289,190.158z"/>
	
		<linearGradient id="SVGID_26_" gradientUnits="userSpaceOnUse" x1="-5901.8027" y1="833.4453" x2="-5901.8027" y2="718.0473" gradientTransform="matrix(1 0 0 1 6390.375 -592.3281)">
		<stop  offset="0.1843" style="stop-color:#000000;stop-opacity:0"/>
		<stop  offset="0.7056" style="stop-color:#AD2401;stop-opacity:0.9605"/>
		<stop  offset="0.9894" style="stop-color:#FF7800"/>
	</linearGradient>
	<path fill="url(#SVGID_26_)" d="M497.16,205.159c-2.307-12.114-7-23.381-13.573-33.29l-3.604,2.399
		c6.33,9.426,10.869,20.153,13.146,31.694L497.16,205.159z"/>
	
		<linearGradient id="SVGID_27_" gradientUnits="userSpaceOnUse" x1="-6065.8916" y1="833.4473" x2="-6065.8916" y2="718.0563" gradientTransform="matrix(1 0 0 1 6390.375 -592.3281)">
		<stop  offset="0.1843" style="stop-color:#000000;stop-opacity:0"/>
		<stop  offset="0.7056" style="stop-color:#AD2401;stop-opacity:0.9605"/>
		<stop  offset="0.9894" style="stop-color:#FF7800"/>
	</linearGradient>
	<path fill="url(#SVGID_27_)" d="M319.213,246.727c1.763,6.395,4.2,12.498,7.232,18.246l3.309-1.73
		c-2.874-5.521-5.175-11.393-6.823-17.523L319.213,246.727z"/>
	
		<linearGradient id="SVGID_28_" gradientUnits="userSpaceOnUse" x1="-6030.5938" y1="833.4482" x2="-6030.5938" y2="718.0454" gradientTransform="matrix(1 0 0 1 6390.375 -592.3281)">
		<stop  offset="0.1843" style="stop-color:#000000;stop-opacity:0"/>
		<stop  offset="0.7056" style="stop-color:#AD2401;stop-opacity:0.9605"/>
		<stop  offset="0.9894" style="stop-color:#FF7800"/>
	</linearGradient>
	<path fill="url(#SVGID_28_)" d="M344.353,156.101l3.06,3.208c7.994-7.533,17.405-13.58,27.797-17.689l-1.674-4.229
		C362.614,141.741,352.729,148.134,344.353,156.101z"/>
	
		<linearGradient id="SVGID_29_" gradientUnits="userSpaceOnUse" x1="-5994.5889" y1="833.4482" x2="-5994.5889" y2="718.045" gradientTransform="matrix(1 0 0 1 6390.375 -592.3281)">
		<stop  offset="0.1843" style="stop-color:#000000;stop-opacity:0"/>
		<stop  offset="0.7056" style="stop-color:#AD2401;stop-opacity:0.9605"/>
		<stop  offset="0.9894" style="stop-color:#FF7800"/>
	</linearGradient>
	<path fill="url(#SVGID_29_)" d="M378.419,135.606l1.453,4.325c8.644-2.86,17.882-4.413,27.48-4.413
		c1.854,0,3.692,0.065,5.521,0.179l0.28-4.579c-1.92-0.12-3.853-0.188-5.802-0.188C397.24,130.928,387.514,132.574,378.419,135.606z
		"/>
	
		<linearGradient id="SVGID_30_" gradientUnits="userSpaceOnUse" x1="-5956.0635" y1="833.4355" x2="-5956.0635" y2="718.0482" gradientTransform="matrix(1 0 0 1 6390.375 -592.3281)">
		<stop  offset="0.1843" style="stop-color:#000000;stop-opacity:0"/>
		<stop  offset="0.7056" style="stop-color:#AD2401;stop-opacity:0.9605"/>
		<stop  offset="0.9894" style="stop-color:#FF7800"/>
	</linearGradient>
	<path fill="url(#SVGID_30_)" d="M417.356,136.091c11.404,1.299,22.145,4.787,31.783,10.042l2.127-3.984
		c-10.11-5.547-21.385-9.233-33.361-10.61L417.356,136.091z"/>
	
		<linearGradient id="SVGID_31_" gradientUnits="userSpaceOnUse" x1="-5923.2549" y1="833.4482" x2="-5923.2549" y2="718.0477" gradientTransform="matrix(1 0 0 1 6390.375 -592.3281)">
		<stop  offset="0.1843" style="stop-color:#000000;stop-opacity:0"/>
		<stop  offset="0.7056" style="stop-color:#AD2401;stop-opacity:0.9605"/>
		<stop  offset="0.9894" style="stop-color:#FF7800"/>
	</linearGradient>
	<path fill="url(#SVGID_31_)" d="M455.895,144.87l-2.352,3.839c9.155,5.71,17.185,13.063,23.657,21.654l3.495-2.604
		C473.931,158.684,465.514,150.909,455.895,144.87z"/>
	
		<linearGradient id="SVGID_32_" gradientUnits="userSpaceOnUse" x1="-5894.8105" y1="833.4453" x2="-5894.8105" y2="718.049" gradientTransform="matrix(1 0 0 1 6390.375 -592.3281)">
		<stop  offset="0.1843" style="stop-color:#000000;stop-opacity:0"/>
		<stop  offset="0.7056" style="stop-color:#AD2401;stop-opacity:0.9605"/>
		<stop  offset="0.9894" style="stop-color:#FF7800"/>
	</linearGradient>
	<path fill="url(#SVGID_32_)" d="M497.937,209.9l-4.045,0.572c0.582,4.072,0.89,8.236,0.89,12.471
		c0,7.084-0.848,13.967-2.438,20.561l3.753,0.93c1.753-7.067,2.688-14.459,2.688-22.072
		C498.783,218.133,498.49,213.977,497.937,209.9z"/>
	
		<linearGradient id="SVGID_33_" gradientUnits="userSpaceOnUse" x1="-5901.2588" y1="833.4453" x2="-5901.2588" y2="718.0367" gradientTransform="matrix(1 0 0 1 6390.375 -592.3281)">
		<stop  offset="0.1843" style="stop-color:#000000;stop-opacity:0"/>
		<stop  offset="0.7056" style="stop-color:#AD2401;stop-opacity:0.9605"/>
		<stop  offset="0.9894" style="stop-color:#FF7800"/>
	</linearGradient>
	<path fill="url(#SVGID_33_)" d="M483.453,266l3.218,1.871c3.36-5.852,6.097-12.105,8.107-18.68l-3.666-1.146
		C489.227,254.361,486.646,260.375,483.453,266z"/>
	
		<linearGradient id="SVGID_34_" gradientUnits="userSpaceOnUse" x1="-6056.1084" y1="833.4453" x2="-6056.1084" y2="718.049" gradientTransform="matrix(1 0 0 1 6390.375 -592.3281)">
		<stop  offset="0.1843" style="stop-color:#000000;stop-opacity:0"/>
		<stop  offset="0.7056" style="stop-color:#AD2401;stop-opacity:0.9605"/>
		<stop  offset="0.9894" style="stop-color:#FF7800"/>
	</linearGradient>
	<path fill="url(#SVGID_34_)" d="M324.378,183.923l3.856,1.788c4.045-8.581,9.441-16.398,15.92-23.174l-3.202-3.026
		C334.19,166.653,328.57,174.889,324.378,183.923z"/>
</g>
<linearGradient id="SVGID_35_" gradientUnits="userSpaceOnUse" x1="-5982.8711" y1="649.4307" x2="-5982.8711" y2="932.1995" gradientTransform="matrix(1 0 0 1 6390.375 -592.3281)">
	<stop  offset="0" style="stop-color:#A12C17"/>
	<stop  offset="0.1834" style="stop-color:#9E2B17"/>
	<stop  offset="0.317" style="stop-color:#952915"/>
	<stop  offset="0.4348" style="stop-color:#852413"/>
	<stop  offset="0.5435" style="stop-color:#6E1E10"/>
	<stop  offset="0.6459" style="stop-color:#51160C"/>
	<stop  offset="0.7436" style="stop-color:#2E0D07"/>
	<stop  offset="0.836" style="stop-color:#040101"/>
	<stop  offset="0.8449" style="stop-color:#000000"/>
</linearGradient>
<path opacity="0.6" fill="url(#SVGID_35_)" enable-background="new    " d="M274.528,298.859
	c-13.678-23.059-21.541-49.969-21.541-78.721c0-85.336,69.182-154.515,154.518-154.515S562.02,134.803,562.02,220.139
	c0,28.666-7.814,55.502-21.417,78.512l1.492,0.883c13.754-23.27,21.657-50.404,21.657-79.395
	c0-86.292-69.955-156.248-156.249-156.248s-156.248,69.955-156.248,156.248c0,29.074,7.951,56.287,21.782,79.604L274.528,298.859z"
	/>
<path fill="#FFFFFF" d="M264.794,358.598"/>
<path opacity="0.76" fill="none" stroke="#282828" stroke-width="4" stroke-miterlimit="10" enable-background="new    " d="
	M526.646,109.426"/>
<path fill="#FFFFFF" d="M235.113,315.042c-15.541-28.146-24.397-60.496-24.397-94.92c0-108.604,88.041-196.646,196.643-196.646
	C515.961,23.476,604,111.517,604,220.122c0,34.205-8.742,66.366-24.104,94.379c-0.35,0.633-0.35,1.274,0.268,1.646l2.271,1.27
	c0.315,0.168,1.069,0.214,1.39-0.368c15.829-28.756,24.849-61.78,24.849-96.922c0-111.184-90.134-201.312-201.312-201.312
	s-201.309,90.129-201.309,201.312c0,35.271,9.082,68.414,25.018,97.241c0.285,0.521,0.921,0.74,1.363,0.549l2.591-1.443
	C235.32,316.23,235.523,315.783,235.113,315.042z"/>
<linearGradient id="SVGID_36_" gradientUnits="userSpaceOnUse" x1="-6384.5049" y1="815.918" x2="-6269.145" y2="935.3978" gradientTransform="matrix(1 0 0 1 6390.375 -592.3281)">
	<stop  offset="0" style="stop-color:#BDBDBD"/>
	<stop  offset="1" style="stop-color:#FFFFFF;stop-opacity:0"/>
</linearGradient>
<path fill="url(#SVGID_36_)" d="M106.923,226.771c56.057,0,101.501,45.443,101.501,101.5c0,30.688-13.634,58.164-35.151,76.775
	l-1.75-2.035c21.122-18.205,34.514-45.135,34.514-75.207c0-54.83-44.445-99.279-99.273-99.279
	c-54.831,0-99.279,44.449-99.279,99.279c0,30.074,13.396,57.004,34.521,75.211l-1.613,1.873
	c-21.41-18.607-34.965-46.021-34.965-76.617C5.422,272.217,50.864,226.771,106.923,226.771z"/>
<g>
	
		<radialGradient id="SVGID_37_" cx="-5982.7373" cy="823.6641" r="94.7652" gradientTransform="matrix(1 0 0 1 6390.375 -592.3281)" gradientUnits="userSpaceOnUse">
		<stop  offset="0.9238" style="stop-color:#000000;stop-opacity:0"/>
		<stop  offset="1" style="stop-color:#F36417"/>
	</radialGradient>
	<path fill="url(#SVGID_37_)" d="M324.955,222.461c0-0.488,0.012-0.979,0.021-1.465l-3.354-0.064
		c-0.01,0.51-0.021,1.021-0.021,1.529c0,6.242,0.671,12.328,1.935,18.191l3.281-0.701
		C325.602,234.312,324.955,228.463,324.955,222.461z"/>
	
		<radialGradient id="SVGID_38_" cx="-5982.7402" cy="823.6641" r="94.7615" gradientTransform="matrix(1 0 0 1 6390.375 -592.3281)" gradientUnits="userSpaceOnUse">
		<stop  offset="0.9238" style="stop-color:#000000;stop-opacity:0"/>
		<stop  offset="1" style="stop-color:#F36417"/>
	</radialGradient>
	<path fill="url(#SVGID_38_)" d="M330.775,191.942l-3.119-1.24c-3.188,8.025-5.203,16.646-5.836,25.646l3.349,0.242
		C325.774,207.939,327.709,199.655,330.775,191.942z"/>
	
		<radialGradient id="SVGID_39_" cx="-5982.7422" cy="823.6582" r="94.7543" gradientTransform="matrix(1 0 0 1 6390.375 -592.3281)" gradientUnits="userSpaceOnUse">
		<stop  offset="0.9238" style="stop-color:#000000;stop-opacity:0"/>
		<stop  offset="1" style="stop-color:#F36417"/>
	</radialGradient>
	<path fill="url(#SVGID_39_)" d="M329.546,186.316l3.046,1.411c3.772-8.145,8.836-15.571,14.924-22.018l-2.438-2.306
		C338.74,170.114,333.475,177.842,329.546,186.316z"/>
	
		<radialGradient id="SVGID_40_" cx="-5982.7393" cy="823.6709" r="94.7699" gradientTransform="matrix(1 0 0 1 6390.375 -592.3281)" gradientUnits="userSpaceOnUse">
		<stop  offset="0.9238" style="stop-color:#000000;stop-opacity:0"/>
		<stop  offset="1" style="stop-color:#F36417"/>
	</radialGradient>
	<path fill="url(#SVGID_40_)" d="M348.26,160.199l2.313,2.43c7.535-7.188,16.432-12.964,26.254-16.912l-1.233-3.121
		C365.365,146.704,356.106,152.716,348.26,160.199z"/>
	
		<radialGradient id="SVGID_41_" cx="-5982.7402" cy="823.668" r="94.7649" gradientTransform="matrix(1 0 0 1 6390.375 -592.3281)" gradientUnits="userSpaceOnUse">
		<stop  offset="0.9238" style="stop-color:#000000;stop-opacity:0"/>
		<stop  offset="1" style="stop-color:#F36417"/>
	</radialGradient>
	<path fill="url(#SVGID_41_)" d="M380.198,140.896l1.07,3.183c8.281-2.785,17.148-4.297,26.368-4.297
		c1.671,0,3.329,0.057,4.976,0.153l0.206-3.349c-1.715-0.104-3.438-0.16-5.182-0.16
		C398.039,136.426,388.816,137.998,380.198,140.896z"/>
	
		<radialGradient id="SVGID_42_" cx="-5982.7402" cy="823.6719" r="94.7684" gradientTransform="matrix(1 0 0 1 6390.375 -592.3281)" gradientUnits="userSpaceOnUse">
		<stop  offset="0.9238" style="stop-color:#000000;stop-opacity:0"/>
		<stop  offset="1" style="stop-color:#F36417"/>
	</radialGradient>
	<path fill="url(#SVGID_42_)" d="M416.849,140.296c10.882,1.207,21.127,4.52,30.312,9.532l1.582-2.961
		c-9.549-5.204-20.189-8.646-31.493-9.903L416.849,140.296z"/>
	
		<radialGradient id="SVGID_43_" cx="-5982.7402" cy="823.667" r="94.7631" gradientTransform="matrix(1 0 0 1 6390.375 -592.3281)" gradientUnits="userSpaceOnUse">
		<stop  offset="0.9238" style="stop-color:#000000;stop-opacity:0"/>
		<stop  offset="1" style="stop-color:#F36417"/>
	</radialGradient>
	<path fill="url(#SVGID_43_)" d="M453.11,149.419l-1.752,2.863c8.699,5.431,16.316,12.43,22.453,20.607l2.691-2.004
		C470.113,162.366,462.174,155.075,453.11,149.419z"/>
	
		<radialGradient id="SVGID_44_" cx="-5982.7412" cy="823.6611" r="94.7629" gradientTransform="matrix(1 0 0 1 6390.375 -592.3281)" gradientUnits="userSpaceOnUse">
		<stop  offset="0.9238" style="stop-color:#000000;stop-opacity:0"/>
		<stop  offset="1" style="stop-color:#F36417"/>
	</radialGradient>
	<path fill="url(#SVGID_44_)" d="M492.121,206.165c-2.189-11.434-6.646-22.062-12.879-31.4l-2.793,1.862
		c5.994,8.98,10.274,19.201,12.379,30.193L492.121,206.165z"/>
	
		<radialGradient id="SVGID_45_" cx="-5982.7529" cy="823.6641" r="94.7761" gradientTransform="matrix(1 0 0 1 6390.375 -592.3281)" gradientUnits="userSpaceOnUse">
		<stop  offset="0.9238" style="stop-color:#000000;stop-opacity:0"/>
		<stop  offset="1" style="stop-color:#F36417"/>
	</radialGradient>
	<path fill="url(#SVGID_45_)" d="M492.857,210.62l-3.323,0.469c0.515,3.72,0.782,7.515,0.782,11.373
		c0,6.875-0.845,13.556-2.427,19.938l3.259,0.809c1.646-6.646,2.524-13.592,2.524-20.746
		C493.672,218.443,493.39,214.491,492.857,210.62z"/>
	
		<radialGradient id="SVGID_46_" cx="-5982.7393" cy="823.6631" r="94.7604" gradientTransform="matrix(1 0 0 1 6390.375 -592.3281)" gradientUnits="userSpaceOnUse">
		<stop  offset="0.9238" style="stop-color:#000000;stop-opacity:0"/>
		<stop  offset="1" style="stop-color:#F36417"/>
	</radialGradient>
	<path fill="url(#SVGID_46_)" d="M479.362,263.616l2.9,1.688c3.177-5.52,5.754-11.428,7.647-17.631l-3.2-1
		C484.887,252.635,482.41,258.311,479.362,263.616z"/>
	
		<radialGradient id="SVGID_47_" cx="-5982.7373" cy="823.6641" r="94.7645" gradientTransform="matrix(1 0 0 1 6390.375 -592.3281)" gradientUnits="userSpaceOnUse">
		<stop  offset="0.9238" style="stop-color:#000000;stop-opacity:0"/>
		<stop  offset="1" style="stop-color:#F36417"/>
	</radialGradient>
	<path fill="url(#SVGID_47_)" d="M324.656,245.245c1.646,5.996,3.917,11.729,6.749,17.129l2.976-1.562
		c-2.722-5.186-4.904-10.688-6.483-16.448L324.656,245.245z"/>
</g>
<g>
	<path fill="#FFFFFF" d="M48.082,259.516C11.64,291.82,8.154,347.458,40.176,384.051c0.324,0.371,0.614,0.229,0.836,0.03
		l2.771-2.457c0.217-0.19,0.396-0.521,0.072-0.888c-30.181-34.547-26.876-87.033,7.512-117.52
		c34.398-30.492,86.937-27.461,117.605,6.689c0.132,0.146,0.479,0.312,0.854-0.02l2.889-2.561c0.233-0.207,0.144-0.512,0.039-0.627
		C140.278,230.432,84.558,227.182,48.082,259.516z"/>
	<path fill="#E5E5E5" d="M50.51,262.254c-35.074,31.092-38.303,84.729-7.212,119.805l0.486-0.435
		c0.292-0.258,0.364-0.554,0.072-0.888c-30.181-34.547-26.876-87.033,7.512-117.52c34.382-30.478,86.877-27.465,117.555,6.633
		c0.296,0.329,0.59,0.32,0.905,0.043l0.481-0.432C139.219,234.393,85.582,231.165,50.51,262.254z"/>
	<circle fill="none" cx="106.254" cy="325.476" r="88.302"/>
</g>
<linearGradient id="SVGID_48_" gradientUnits="userSpaceOnUse" x1="-5357.2041" y1="815.916" x2="-5241.8433" y2="935.397" gradientTransform="matrix(-1 0 0 1 -4544.6855 -592.3281)">
	<stop  offset="0" style="stop-color:#BDBDBD"/>
	<stop  offset="1" style="stop-color:#FFFFFF;stop-opacity:0"/>
</linearGradient>
<path fill="url(#SVGID_48_)" d="M711.469,226.771c-56.06,0-101.501,45.443-101.501,101.5c0,30.688,13.634,58.164,35.148,76.775
	l1.75-2.035c-21.119-18.205-34.512-45.135-34.512-75.207c0-54.83,44.445-99.279,99.273-99.279c54.829,0,99.274,44.449,99.274,99.279
	c0,30.074-13.393,57.004-34.519,75.211l1.611,1.873c21.408-18.607,34.967-46.021,34.967-76.617
	C812.97,272.217,767.528,226.771,711.469,226.771z"/>
<g>
	<path fill="#FFFFFF" d="M770.311,259.516c36.441,32.305,39.928,87.94,7.904,124.535c-0.323,0.371-0.613,0.229-0.836,0.03
		l-2.771-2.457c-0.218-0.19-0.396-0.521-0.074-0.888c30.185-34.547,26.877-87.033-7.509-117.52
		c-34.401-30.492-86.938-27.461-117.608,6.689c-0.131,0.146-0.479,0.312-0.853-0.02l-2.889-2.561
		c-0.233-0.207-0.146-0.512-0.039-0.627C678.114,230.432,733.834,227.182,770.311,259.516z"/>
	<path fill="#E5E5E5" d="M767.883,262.254c35.071,31.092,38.303,84.729,7.211,119.805l-0.485-0.435
		c-0.292-0.258-0.366-0.554-0.075-0.888c30.185-34.547,26.877-87.033-7.508-117.52c-34.383-30.478-86.877-27.465-117.556,6.633
		c-0.296,0.329-0.591,0.32-0.905,0.043l-0.484-0.432C679.172,234.393,732.81,231.165,767.883,262.254z"/>
	<circle fill="none" cx="712.138" cy="325.476" r="88.302"/>
</g>
<linearGradient id="SVGID_49_" gradientUnits="userSpaceOnUse" x1="-5652.7861" y1="690.9346" x2="-5709.9868" y2="869.6306" gradientTransform="matrix(-0.9643 -0.2647 -0.2647 0.9643 -4867.8076 -2104.9573)">
	<stop  offset="0.4307" style="stop-color:#7A7A7A;stop-opacity:0.8"/>
	<stop  offset="0.8304" style="stop-color:#E8E8E8;stop-opacity:0"/>
</linearGradient>
<path fill="url(#SVGID_49_)" d="M463.793,12.604c82.155,22.552,139.645,90.536,152.812,169.39l-3.529,0.554
	c-13.06-77.436-69.562-144.158-150.276-166.313C351.889-14.21,237.301,51.019,206.858,161.927
	c-10.614,38.677-9.584,77.796,0.948,113.644c0.385,1.311-0.358,1.91-0.887,2.096l-0.687,0.205c-0.858,0.297-1.249-0.344-1.342-0.654
	c-10.98-36.709-12.146-76.841-1.259-116.512C234.58,47.964,351.057-18.341,463.793,12.604z"/>
<linearGradient id="SVGID_50_" gradientUnits="userSpaceOnUse" x1="-5852.7988" y1="637.7334" x2="-6082.1333" y2="816.3998" gradientTransform="matrix(1 0 0 1 6390.375 -592.3281)">
	<stop  offset="0.4615" style="stop-color:#E8E8E8;stop-opacity:0.8"/>
	<stop  offset="0.7193" style="stop-color:#7A7A7A;stop-opacity:0.8"/>
	<stop  offset="1" style="stop-color:#000000;stop-opacity:0.6"/>
</linearGradient>
<path fill="url(#SVGID_50_)" d="M463.793,12.604c82.155,22.552,139.645,90.536,152.812,169.39l-0.447,0.07l-0.186,0.029
	c-13.135-78.425-70.324-146.028-152.049-168.46C351.74-17.16,235.835,48.821,205.042,161.004
	c-10.918,39.776-9.659,80.02,1.501,116.771l-0.312,0.096c-0.858,0.297-1.249-0.344-1.342-0.654
	c-10.98-36.709-12.146-76.841-1.259-116.512C234.58,47.964,351.057-18.341,463.793,12.604z"/>
<g>
	<path fill="#E56822" d="M613.649,196.002l8.35-0.938c-0.356-0.394-0.644-0.716-0.854-0.969c-0.21-0.253-0.376-0.477-0.5-0.669
		l1.364-0.975c0.203,0.274,0.462,0.587,0.771,0.937c0.312,0.351,0.623,0.674,0.938,0.971c0.312,0.296,0.565,0.527,0.767,0.693
		l0.203,1.767l-10.806,1.212L613.649,196.002z"/>
	<path fill="#E56822" d="M615.047,218.646l8.399-0.016c-0.312-0.43-0.56-0.781-0.735-1.055c-0.186-0.275-0.322-0.518-0.427-0.723
		l1.468-0.818c0.172,0.295,0.395,0.635,0.663,1.016c0.271,0.383,0.544,0.738,0.819,1.068c0.279,0.326,0.507,0.586,0.688,0.771
		l0.007,1.776l-10.875,0.021L615.047,218.646z"/>
	<path fill="#E56822" d="M614.698,227.07c0.022-0.609,0.167-1.127,0.437-1.549c0.269-0.42,0.646-0.756,1.142-1.008
		c0.494-0.254,1.095-0.43,1.804-0.527s1.515-0.131,2.412-0.098c0.896,0.033,1.692,0.125,2.394,0.273
		c0.692,0.148,1.278,0.367,1.752,0.656c0.472,0.287,0.826,0.65,1.062,1.092c0.236,0.438,0.345,0.963,0.32,1.572
		c-0.021,0.612-0.166,1.132-0.435,1.555c-0.27,0.422-0.646,0.762-1.14,1.016c-0.491,0.256-1.091,0.432-1.796,0.531
		c-0.706,0.098-1.507,0.131-2.4,0.098c-0.9-0.033-1.699-0.125-2.398-0.271c-0.699-0.152-1.286-0.371-1.76-0.662
		c-0.478-0.291-0.828-0.656-1.063-1.1C614.781,228.209,614.674,227.682,614.698,227.07z M616.448,227.135
		c-0.013,0.328,0.146,0.598,0.461,0.807c0.317,0.207,0.787,0.354,1.407,0.438c0.62,0.082,1.288,0.137,2.001,0.162
		c1.073,0.039,1.903,0.014,2.492-0.076c0.588-0.092,0.975-0.232,1.158-0.426c0.185-0.191,0.279-0.396,0.289-0.617
		c0.012-0.338-0.146-0.607-0.469-0.811c-0.322-0.199-0.791-0.342-1.4-0.422s-1.271-0.131-1.979-0.157
		c-0.715-0.026-1.317-0.024-1.817,0.007c-0.5,0.027-0.907,0.088-1.226,0.176c-0.312,0.09-0.545,0.211-0.688,0.363
		C616.531,226.729,616.455,226.917,616.448,227.135z"/>
	<path fill="#E56822" d="M611.506,232.381l0.778-0.711c0.211,0.232,0.438,0.438,0.67,0.613c0.235,0.174,0.48,0.305,0.736,0.395
		c0.256,0.094,0.498,0.146,0.729,0.16l0.209,0.016l0.054-0.824l2.425,0.16l-0.136,2.055l-2.295-0.15
		c-0.536-0.033-1.026-0.154-1.474-0.357c-0.443-0.205-0.806-0.436-1.072-0.688C611.861,232.795,611.652,232.573,611.506,232.381z"/>
	<path fill="#E56822" d="M613.912,239.004c0.062-0.607,0.232-1.115,0.525-1.521c0.291-0.401,0.689-0.717,1.197-0.938
		c0.508-0.227,1.117-0.363,1.831-0.42c0.713-0.059,1.519-0.043,2.415,0.041c0.893,0.086,1.683,0.225,2.369,0.414
		c0.686,0.189,1.257,0.441,1.711,0.758c0.451,0.312,0.782,0.697,0.992,1.146c0.209,0.453,0.284,0.983,0.229,1.594
		c-0.06,0.607-0.233,1.117-0.524,1.523c-0.293,0.404-0.688,0.725-1.192,0.945c-0.506,0.229-1.113,0.367-1.824,0.426
		c-0.711,0.061-1.514,0.043-2.404-0.041c-0.896-0.087-1.688-0.227-2.38-0.414c-0.688-0.189-1.262-0.444-1.718-0.764
		c-0.456-0.316-0.788-0.702-0.998-1.156C613.932,240.146,613.857,239.614,613.912,239.004z M615.658,239.172
		c-0.028,0.328,0.105,0.604,0.411,0.832c0.309,0.225,0.77,0.396,1.382,0.518c0.613,0.117,1.275,0.211,1.986,0.277
		c1.068,0.104,1.898,0.125,2.492,0.068c0.593-0.057,0.986-0.176,1.182-0.355c0.196-0.18,0.308-0.379,0.324-0.6
		c0.032-0.339-0.104-0.615-0.418-0.836c-0.312-0.221-0.771-0.389-1.374-0.503c-0.604-0.114-1.261-0.204-1.967-0.272
		c-0.712-0.066-1.316-0.103-1.817-0.1c-0.501-0.003-0.911,0.033-1.229,0.104c-0.318,0.069-0.559,0.176-0.709,0.319
		C615.77,238.77,615.682,238.954,615.658,239.172z"/>
	<path fill="#E56822" d="M612.977,247.102c0.083-0.604,0.277-1.104,0.585-1.498c0.31-0.393,0.72-0.688,1.235-0.893
		c0.517-0.201,1.133-0.318,1.848-0.347c0.715-0.029,1.52,0.019,2.411,0.14c0.888,0.119,1.672,0.289,2.351,0.506
		c0.683,0.219,1.238,0.492,1.683,0.826c0.438,0.33,0.757,0.729,0.944,1.188c0.19,0.461,0.244,0.994,0.161,1.604
		c-0.081,0.604-0.275,1.104-0.586,1.502c-0.308,0.396-0.719,0.691-1.229,0.896c-0.519,0.205-1.13,0.322-1.843,0.354
		c-0.713,0.027-1.514-0.021-2.398-0.139c-0.896-0.121-1.68-0.289-2.36-0.511c-0.681-0.217-1.241-0.494-1.686-0.83
		c-0.443-0.334-0.761-0.731-0.95-1.192C612.948,248.243,612.894,247.708,612.977,247.102z M614.715,247.338
		c-0.045,0.326,0.08,0.605,0.377,0.848c0.297,0.238,0.749,0.432,1.356,0.57c0.607,0.143,1.27,0.262,1.977,0.355
		c1.062,0.146,1.894,0.199,2.484,0.169c0.599-0.032,0.994-0.136,1.195-0.31c0.203-0.174,0.318-0.367,0.353-0.588
		c0.045-0.336-0.082-0.617-0.388-0.853c-0.302-0.229-0.754-0.415-1.354-0.558c-0.604-0.141-1.252-0.256-1.954-0.354
		c-0.708-0.098-1.312-0.152-1.812-0.176c-0.5-0.021-0.911,0-1.23,0.061c-0.322,0.059-0.563,0.154-0.725,0.293
		C614.838,246.941,614.742,247.12,614.715,247.338z"/>
	<path fill="#E56822" d="M611.656,255.467c0.108-0.603,0.324-1.094,0.648-1.471c0.323-0.382,0.747-0.66,1.271-0.844
		c0.524-0.183,1.146-0.271,1.86-0.271s1.517,0.08,2.403,0.238c0.882,0.152,1.655,0.354,2.323,0.604
		c0.673,0.244,1.22,0.541,1.646,0.895c0.426,0.35,0.725,0.76,0.896,1.229c0.175,0.469,0.203,1.004,0.099,1.604
		c-0.108,0.602-0.324,1.094-0.648,1.475c-0.324,0.385-0.747,0.666-1.27,0.852c-0.523,0.186-1.144,0.273-1.854,0.273
		s-1.511-0.079-2.393-0.234c-0.891-0.156-1.666-0.359-2.339-0.604c-0.67-0.246-1.224-0.545-1.648-0.897
		c-0.429-0.354-0.729-0.767-0.896-1.231C611.576,256.605,611.547,256.07,611.656,255.467z M613.383,255.775
		c-0.062,0.324,0.055,0.609,0.341,0.859c0.287,0.25,0.729,0.459,1.334,0.627c0.603,0.17,1.256,0.314,1.959,0.439
		c1.056,0.188,1.882,0.273,2.478,0.27c0.599-0.008,0.998-0.096,1.209-0.258c0.209-0.164,0.334-0.354,0.371-0.57
		c0.062-0.334-0.057-0.623-0.348-0.865c-0.293-0.242-0.734-0.445-1.329-0.611c-0.594-0.164-1.239-0.309-1.938-0.434
		c-0.7-0.125-1.305-0.207-1.804-0.248c-0.499-0.039-0.909-0.037-1.232,0.006c-0.323,0.047-0.567,0.135-0.732,0.266
		S613.42,255.559,613.383,255.775z"/>
</g>
<polygon fill="#E56822" points="624.596,210.355 624.461,208.695 621.064,206.704 624.108,204.208 623.977,202.544 619.807,205.969 
	615.148,203.243 615.28,204.905 618.678,206.893 615.633,209.395 615.765,211.055 619.938,207.631 "/>
<path fill="#C9C7C8" d="M235.261,214.799c-0.048,1.676-0.079,3.354-0.079,5.041c0,11.955,1.22,23.623,3.54,34.891l11.053-2.311
	c-2.164-10.521-3.302-21.418-3.302-32.58c0-1.576,0.029-3.146,0.074-4.715L235.261,214.799z"/>
<path fill="#E1E0DE" d="M246.472,219.84c0-1.576,0.029-3.146,0.074-4.715l-2.69-0.078c-0.046,1.594-0.075,3.188-0.075,4.793
	c0,11.352,1.158,22.432,3.359,33.131l2.635-0.551C247.611,241.898,246.472,231.002,246.472,219.84z"/>
<path fill="#C9C7C8" d="M255.842,301.682l9.935-5.369c-5.933-10.959-10.622-22.688-13.896-34.994l-10.937,2.82
	C244.451,277.342,249.479,289.924,255.842,301.682z"/>
<path fill="#E1E0DE" d="M265.777,296.312c-5.933-10.961-10.622-22.688-13.896-34.996l-2.607,0.676
	c3.33,12.52,8.102,24.451,14.137,35.602L265.777,296.312z"/>
<path fill="#9D9C9B" d="M235.261,214.799c-0.048,1.676-0.079,3.354-0.079,5.041c0,11.955,1.22,23.623,3.54,34.891l1.589-0.332
	c-2.297-11.157-3.505-22.717-3.505-34.559c0-1.67,0.03-3.334,0.078-4.994L235.261,214.799z"/>
<path fill="#9D9C9B" d="M257.27,300.909c-6.301-11.644-11.28-24.104-14.752-37.179l-1.572,0.406
	c3.508,13.202,8.533,25.784,14.896,37.542L257.27,300.909z"/>
<path fill="#BD9A34" d="M247.084,205.855c1.663-19.304,6.729-37.63,14.604-54.38l-10.16-4.766l-0.064-0.021
	c-8.425,17.922-13.848,37.531-15.627,58.187L247.084,205.855z"/>
<path fill="#9E7F29" d="M237.454,205.014c1.762-20.462,7.136-39.889,15.48-57.645l-1.406-0.66l-0.064-0.021
	c-8.425,17.922-13.848,37.531-15.627,58.187L237.454,205.014z"/>
<path fill="#E9C25A" d="M244.402,205.622l2.685,0.233c1.663-19.305,6.729-37.631,14.604-54.381l-2.438-1.144
	C251.246,167.362,246.093,185.995,244.402,205.622z"/>
<path fill="#BD9A34" d="M255.919,137.855L255.919,137.855l9.94,5.353c8.987-16.559,20.805-31.354,34.787-43.758l-7.485-8.448
	C278.187,104.281,265.538,120.125,255.919,137.855z"/>
<path fill="#9E7F29" d="M255.919,137.855L255.919,137.855l1.429,0.771c9.528-17.562,22.058-33.254,36.89-46.41l-1.074-1.214
	C278.187,104.281,265.538,120.125,255.919,137.855z"/>
<path fill="#E9C25A" d="M263.49,141.932l2.371,1.276c8.987-16.559,20.805-31.354,34.787-43.758l-1.785-2.015
	C284.643,110.048,272.628,125.094,263.49,141.932z"/>
<path fill="#878688" d="M307.725,93.515c16.986-13.415,36.743-23.47,58.271-29.181l-2.731-10.958
	c-23.141,6.112-44.371,16.917-62.612,31.341L307.725,93.515z"/>
<path fill="#A3A2A2" d="M307.725,93.515c16.986-13.415,36.743-23.47,58.271-29.181l-0.65-2.613
	c-21.912,5.807-42.021,16.041-59.306,29.696L307.725,93.515z"/>
<path fill="#5E5E5E" d="M301.668,85.982c18.061-14.278,39.079-24.976,61.985-31.03l-0.393-1.575
	c-23.141,6.112-44.371,16.917-62.612,31.341L301.668,85.982z"/>
<path fill="#878688" d="M372.903,51.118l2.26,11.062c10.401-2.112,21.166-3.224,32.191-3.224c11.202,0,22.135,1.147,32.691,3.327
	c0.989-4.784,2.129-10.254,2.295-11.057c-11.297-2.332-22.998-3.561-34.986-3.561C395.555,47.667,384.033,48.857,372.903,51.118z"/>
<path fill="#A3A2A2" d="M374.621,59.544l0.539,2.638c10.401-2.112,21.166-3.224,32.191-3.224c11.202,0,22.135,1.147,32.691,3.327
	c0.18-0.867,0.36-1.756,0.547-2.637c-10.732-2.216-21.853-3.383-33.238-3.383C396.145,56.266,385.198,57.396,374.621,59.544z"/>
<path fill="#5E5E5E" d="M372.903,51.118l0.325,1.59c11.027-2.239,22.439-3.418,34.127-3.418c11.875,0,23.466,1.217,34.656,3.526
	c0.169-0.811,0.284-1.37,0.329-1.589c-11.297-2.332-22.997-3.561-34.985-3.561C395.555,47.667,384.033,48.857,372.903,51.118z"/>
<path fill="#C1DDF4" d="M507.24,93.722l6.964-8.888c-18.073-14.326-39.099-25.092-62.009-31.256L452,53.62l-2.886,10.823
	C470.598,70.202,490.304,80.289,507.24,93.722z"/>
<path fill="#87AEC4" d="M513.201,86.111l1-1.276c-18.073-14.326-39.099-25.092-62.009-31.256L452,53.62l-0.396,1.479
	C474.365,61.198,495.25,71.883,513.201,86.111z"/>
<path fill="#D7E9F4" d="M449.115,64.444c21.479,5.759,41.188,15.846,58.123,29.278l1.659-2.119
	c-17.22-13.654-37.253-23.907-59.09-29.761L449.115,64.444z"/>
<path fill="#C1DDF4" d="M521.668,91.106l-7.498,8.44c16.381,14.555,29.766,32.401,39.119,52.508l10.225-4.746l0.021-0.005
	C553.524,125.786,539.198,106.685,521.668,91.106z"/>
<path fill="#D7E9F4" d="M515.959,97.534l-1.789,2.013c16.381,14.555,29.766,32.402,39.116,52.508l2.442-1.134
	C546.221,130.479,532.613,112.333,515.959,97.534z"/>
<path fill="#87AEC4" d="M521.668,91.106l-1.078,1.213c17.362,15.431,31.554,34.351,41.47,55.664l1.454-0.675l0.021-0.005
	C553.524,125.786,539.198,106.685,521.668,91.106z"/>
<path fill="#0E77D9" d="M556.902,160.414c7.312,18.385,11.337,38.436,11.337,59.426c0,1.617-0.031,3.229-0.078,4.834l11.286,0.303
	c0.05-1.707,0.082-3.416,0.082-5.137c0-22.455-4.304-43.902-12.122-63.571C566.58,156.594,561.85,158.461,556.902,160.414z"/>
<path fill="#2F9BF4" d="M556.902,160.414c7.312,18.385,11.337,38.436,11.337,59.426c0,1.617-0.031,3.229-0.078,4.834l2.691,0.072
	c0.048-1.632,0.079-3.266,0.079-4.906c0-21.339-4.091-41.723-11.524-60.416C558.59,159.748,557.746,160.08,556.902,160.414z"/>
<path fill="#022A84" d="M565.896,156.865c7.746,19.484,12.01,40.731,12.01,62.976c0,1.705-0.032,3.399-0.081,5.093l1.622,0.043
	c0.05-1.705,0.082-3.416,0.082-5.136c0-22.455-4.304-43.902-12.122-63.571C567.177,156.359,566.651,156.567,565.896,156.865z"/>
<path fill="#0E77D9" d="M578.853,235.042l-11.245-0.998c-1.954,22.336-8.464,43.363-18.604,62.146l9.938,5.358
	C569.795,281.45,576.762,258.943,578.853,235.042z"/>
<path fill="#2F9BF4" d="M570.287,234.28l-2.683-0.235c-1.954,22.336-8.464,43.363-18.606,62.146l2.369,1.275
	C561.684,278.372,568.302,256.991,570.287,234.28z"/>
<path fill="#022A84" d="M578.853,235.042l-1.616-0.146c-2.072,23.682-8.973,45.973-19.727,65.881l1.429,0.771
	C569.795,281.45,576.762,258.943,578.853,235.042z"/>
<g>
	<path fill="#FFFFFF" d="M449.324,52.712c-0.207-0.049-0.983-0.234-1.797-0.425l0,0c-0.808-0.191-1.589-0.376-1.796-0.426
		c-0.47-0.11-0.505,0.479-0.505,0.479l-3.339,17.084c0,0-0.054,0.276,0.144,0.322c0.09,0.021,0.688,0.162,1.293,0.306l0,0
		c0.605,0.146,1.201,0.284,1.295,0.306c0.194,0.046,0.271-0.225,0.271-0.225l4.673-16.768
		C449.565,53.366,449.797,52.823,449.324,52.712z"/>
	<path fill="#C7C5C6" d="M449.432,52.755c-0.016,0.115-0.053,0.207-0.053,0.207l-4.675,16.769c0,0-0.073,0.271-0.271,0.226
		c-0.093-0.022-0.688-0.163-1.294-0.307h-0.001c-0.532-0.126-1.057-0.25-1.237-0.293l-0.014,0.069c0,0-0.056,0.276,0.143,0.322
		c0.093,0.021,0.688,0.162,1.293,0.306l0,0c0.606,0.144,1.202,0.284,1.295,0.306c0.195,0.046,0.271-0.225,0.271-0.225l4.673-16.768
		C449.565,53.366,449.75,52.919,449.432,52.755z"/>
	<circle fill="none" cx="407.355" cy="219.786" r="172.527"/>
</g>
<g>
	<path fill="#FFFFFF" d="M369.087,51.831c-0.157,0.036-0.744,0.178-1.354,0.323l0,0c-0.607,0.146-1.197,0.287-1.354,0.324
		c-0.354,0.085-0.176,0.508-0.176,0.508l3.656,13.047c0,0,0.062,0.21,0.208,0.175c0.069-0.018,0.52-0.124,0.978-0.233l0,0
		c0.458-0.108,0.904-0.217,0.976-0.233c0.147-0.035,0.104-0.25,0.104-0.25l-2.649-13.287
		C369.473,52.203,369.441,51.745,369.087,51.831z"/>
	<path fill="#C7C5C6" d="M369.172,51.823c0.028,0.086,0.037,0.161,0.037,0.161l2.648,13.288c0,0,0.042,0.214-0.104,0.249
		c-0.07,0.018-0.521,0.125-0.978,0.234l0,0c-0.398,0.096-0.795,0.19-0.933,0.224l0.014,0.054c0,0,0.062,0.21,0.208,0.175
		c0.069-0.018,0.52-0.124,0.978-0.233l0,0c0.457-0.108,0.903-0.217,0.976-0.233c0.146-0.035,0.104-0.25,0.104-0.25l-2.648-13.287
		C369.473,52.203,369.443,51.828,369.172,51.823z"/>
	<circle fill="none" cx="407.355" cy="219.786" r="172.527"/>
</g>
<g>
	<path fill="#FFFFFF" d="M519.412,88.958c-0.121-0.105-0.586-0.492-1.064-0.896l0,0c-0.479-0.402-0.944-0.791-1.067-0.895
		c-0.276-0.233-0.511,0.163-0.511,0.163l-8.297,10.711c0,0-0.134,0.174-0.02,0.271c0.058,0.046,0.406,0.341,0.771,0.645h-0.001
		c0.36,0.302,0.715,0.598,0.771,0.644c0.115,0.097,0.265-0.065,0.265-0.065l9.091-10.047
		C519.346,89.489,519.695,89.19,519.412,88.958z"/>
	<path fill="#C7C5C6" d="M519.471,89.021c-0.051,0.075-0.108,0.126-0.108,0.126l-9.089,10.048c0,0-0.146,0.162-0.263,0.064
		c-0.059-0.046-0.409-0.342-0.771-0.644h-0.002c-0.313-0.266-0.628-0.525-0.731-0.616l-0.034,0.043c0,0-0.134,0.174-0.02,0.271
		c0.058,0.046,0.406,0.341,0.771,0.645h-0.001c0.361,0.302,0.715,0.598,0.771,0.644c0.115,0.097,0.265-0.065,0.265-0.065
		l9.091-10.047C519.346,89.489,519.629,89.242,519.471,89.021z"/>
	<circle fill="none" cx="407.354" cy="219.785" r="172.527"/>
</g>
<g>
	<path fill="#FFFFFF" d="M579.182,231.999c0.011-0.16,0.047-0.767,0.083-1.392l0,0c0.038-0.627,0.073-1.229,0.083-1.392
		c0.021-0.362-0.438-0.313-0.438-0.313l-13.545-0.295c0,0-0.219-0.002-0.228,0.147c-0.005,0.072-0.032,0.531-0.062,1.002l0,0
		c-0.024,0.47-0.056,0.931-0.061,1.002c-0.009,0.15,0.21,0.171,0.21,0.171l13.481,1.327
		C578.713,232.26,579.158,232.361,579.182,231.999z"/>
	<path fill="#C7C5C6" d="M579.16,232.083c-0.09,0.002-0.166-0.015-0.166-0.015l-13.479-1.325c0,0-0.217-0.021-0.208-0.173
		c0.004-0.071,0.03-0.53,0.06-1.002l0,0c0.024-0.412,0.05-0.815,0.062-0.959l-0.06-0.002c0,0-0.218-0.002-0.227,0.147
		c-0.005,0.072-0.032,0.531-0.062,1.002h-0.002c-0.023,0.47-0.055,0.931-0.06,1.002c-0.009,0.15,0.21,0.171,0.21,0.171l13.481,1.327
		C578.713,232.26,579.078,232.34,579.16,232.083z"/>
	<circle fill="none" cx="407.355" cy="219.785" r="172.527"/>
</g>
<g>
	<path fill="#FFFFFF" d="M555.853,307.09c0.081-0.14,0.381-0.664,0.69-1.207l0,0c0.312-0.545,0.609-1.068,0.689-1.211
		c0.186-0.312-0.25-0.477-0.25-0.477l-12.004-6.281c0,0-0.192-0.1-0.269,0.031c-0.035,0.062-0.267,0.463-0.498,0.869h-0.002
		c-0.233,0.406-0.462,0.811-0.498,0.869c-0.075,0.133,0.108,0.246,0.108,0.246l11.487,7.184
		C555.316,307.115,555.672,307.406,555.853,307.09z"/>
	<path fill="#C7C5C6" d="M555.797,307.156c-0.082-0.037-0.145-0.086-0.145-0.086l-11.491-7.182c0,0-0.184-0.115-0.104-0.246
		c0.035-0.062,0.265-0.464,0.498-0.871h0.001c0.204-0.354,0.4-0.709,0.476-0.832l-0.049-0.024c0,0-0.193-0.101-0.27,0.032
		c-0.034,0.062-0.267,0.462-0.498,0.869v-0.002c-0.234,0.408-0.466,0.812-0.5,0.871c-0.074,0.133,0.108,0.246,0.108,0.246
		l11.488,7.184C555.316,307.115,555.61,307.352,555.797,307.156z"/>
	<circle fill="none" cx="407.355" cy="219.785" r="172.527"/>
</g>
<g>
	<path fill="#FFFFFF" d="M254.221,140.897c-0.073,0.144-0.343,0.686-0.624,1.245l0,0c-0.281,0.561-0.552,1.103-0.625,1.245
		c-0.163,0.326,0.277,0.46,0.277,0.46l12.334,5.604c0,0,0.2,0.089,0.268-0.047c0.032-0.063,0.238-0.476,0.45-0.896l0,0
		c0.211-0.421,0.417-0.833,0.45-0.897c0.064-0.135-0.125-0.239-0.125-0.239l-11.871-6.529
		C254.755,140.842,254.384,140.571,254.221,140.897z"/>
	<path fill="#C7C5C6" d="M254.271,140.828c0.084,0.031,0.146,0.075,0.146,0.075l11.873,6.529c0,0,0.188,0.106,0.123,0.241
		c-0.032,0.064-0.239,0.477-0.449,0.896l0,0c-0.188,0.369-0.366,0.729-0.43,0.855l0.049,0.023c0,0,0.2,0.089,0.268-0.047
		c0.032-0.063,0.238-0.476,0.45-0.896l0,0c0.211-0.421,0.417-0.833,0.45-0.897c0.064-0.135-0.125-0.239-0.125-0.239l-11.871-6.529
		C254.755,140.842,254.448,140.623,254.271,140.828z"/>
	<circle fill="none" cx="407.355" cy="219.786" r="172.527"/>
</g>
<g>
	<path fill="#FFFFFF" d="M239.406,258.083c0.037,0.158,0.182,0.746,0.325,1.354l0,0c0.146,0.607,0.287,1.195,0.324,1.354
		c0.085,0.354,0.508,0.174,0.508,0.174l13.045-3.658c0,0,0.21-0.061,0.178-0.207c-0.02-0.069-0.125-0.52-0.233-0.977l0,0
		c-0.109-0.459-0.217-0.906-0.234-0.979c-0.034-0.146-0.25-0.104-0.25-0.104l-13.285,2.651
		C239.779,257.698,239.321,257.73,239.406,258.083z"/>
	<path fill="#C7C5C6" d="M239.4,257.999c0.084-0.031,0.161-0.037,0.161-0.037l13.287-2.651c0,0,0.214-0.043,0.249,0.104
		c0.017,0.068,0.124,0.52,0.234,0.975l0,0c0.096,0.402,0.188,0.797,0.224,0.935l0.053-0.015c0,0,0.21-0.061,0.178-0.207
		c-0.02-0.069-0.125-0.518-0.233-0.977l0,0c-0.109-0.457-0.217-0.904-0.234-0.977c-0.034-0.146-0.25-0.104-0.25-0.104l-13.286,2.649
		C239.779,257.698,239.403,257.727,239.4,257.999z"/>
	<circle fill="none" cx="407.354" cy="219.787" r="172.527"/>
</g>
<g>
	<path fill="#FFFFFF" d="M298.093,86.605c-0.163,0.138-0.775,0.654-1.411,1.19l0,0c-0.635,0.536-1.249,1.053-1.41,1.189
		c-0.369,0.312,0.083,0.69,0.083,0.69l11.74,12.853c0,0,0.188,0.207,0.344,0.077c0.072-0.06,0.539-0.454,1.017-0.856l0,0
		c0.479-0.402,0.943-0.796,1.019-0.857c0.151-0.13-0.021-0.352-0.021-0.352L298.76,86.804
		C298.76,86.804,298.462,86.293,298.093,86.605z"/>
	<path fill="#C7C5C6" d="M298.189,86.547c0.083,0.08,0.138,0.164,0.138,0.164l10.689,13.735c0,0,0.173,0.224,0.02,0.353
		c-0.07,0.062-0.54,0.456-1.017,0.856h-0.001c-0.417,0.354-0.829,0.699-0.971,0.821l0.047,0.052c0,0,0.188,0.207,0.344,0.077
		c0.072-0.06,0.539-0.454,1.017-0.856l0,0c0.479-0.402,0.943-0.796,1.019-0.857c0.151-0.13-0.021-0.352-0.021-0.352l-10.689-13.736
		C298.76,86.804,298.511,86.388,298.189,86.547z"/>
	<circle fill="none" cx="407.355" cy="219.786" r="172.527"/>
</g>
<g>
	<path fill="#FFFFFF" d="M235.494,207.997c-0.015,0.213-0.059,1.014-0.104,1.844l0,0c-0.046,0.83-0.09,1.632-0.101,1.845
		c-0.026,0.481,0.56,0.412,0.56,0.412l17.406,0.271c0,0,0.281,0.004,0.292-0.197c0.005-0.094,0.039-0.703,0.072-1.328h0.001
		c0.032-0.623,0.065-1.231,0.07-1.327c0.013-0.201-0.27-0.228-0.27-0.228l-17.33-1.64
		C236.095,207.646,235.519,207.516,235.494,207.997z"/>
	<path fill="#C7C5C6" d="M235.517,207.889c0.116-0.008,0.212,0.014,0.212,0.014l17.331,1.637c0,0,0.28,0.025,0.271,0.229
		c-0.005,0.096-0.039,0.707-0.073,1.326v0.002c-0.029,0.547-0.062,1.082-0.069,1.271h0.07c0,0,0.281,0.004,0.292-0.197
		c0.005-0.094,0.039-0.703,0.072-1.326h0.001c0.034-0.623,0.065-1.232,0.07-1.328c0.013-0.201-0.27-0.229-0.27-0.229l-17.33-1.639
		C236.095,207.646,235.623,207.543,235.517,207.889z"/>
	<circle fill="none" cx="407.355" cy="219.786" r="172.527"/>
</g>
<g>
	<path fill="#FFFFFF" d="M257.232,304.273c0.106,0.188,0.512,0.879,0.93,1.6l0,0c0.417,0.717,0.817,1.411,0.927,1.596
		c0.243,0.418,0.691,0.037,0.691,0.037l14.696-9.332c0,0,0.237-0.148,0.135-0.322c-0.047-0.082-0.354-0.605-0.667-1.146V296.7
		c-0.312-0.539-0.618-1.068-0.668-1.15c-0.102-0.172-0.35-0.043-0.35-0.043l-15.384,8.147
		C257.543,303.652,256.988,303.857,257.232,304.273z"/>
	<path fill="#C7C5C6" d="M257.19,304.17c0.097-0.068,0.188-0.104,0.188-0.104l15.384-8.146c0,0,0.249-0.133,0.35,0.041
		c0.049,0.082,0.355,0.609,0.667,1.148l0,0c0.276,0.475,0.546,0.938,0.643,1.102l0.059-0.037c0,0,0.237-0.148,0.135-0.324
		c-0.047-0.08-0.354-0.605-0.667-1.146v-0.002c-0.312-0.539-0.619-1.068-0.668-1.15c-0.102-0.172-0.35-0.043-0.35-0.043
		l-15.384,8.148C257.543,303.652,257.091,303.825,257.19,304.17z"/>
	<circle fill="none" cx="407.355" cy="219.786" r="172.527"/>
</g>
<g>
	<path fill="#FFFFFF" d="M566.371,153.542c-0.084-0.195-0.399-0.933-0.729-1.694l0,0c-0.33-0.762-0.646-1.499-0.734-1.694
		c-0.188-0.441-0.685-0.118-0.685-0.118l-15.688,7.536c0,0-0.255,0.123-0.176,0.309c0.038,0.085,0.281,0.646,0.528,1.22l0,0
		c0.248,0.572,0.491,1.133,0.525,1.22c0.08,0.186,0.345,0.083,0.345,0.083l16.231-6.278
		C565.99,154.124,566.567,153.985,566.371,153.542z"/>
	<path fill="#C7C5C6" d="M566.403,153.651c-0.101,0.058-0.197,0.082-0.197,0.082l-16.23,6.28c0,0-0.263,0.102-0.343-0.083
		c-0.039-0.088-0.281-0.649-0.529-1.221l0.001-0.001c-0.218-0.501-0.431-0.994-0.505-1.166l-0.062,0.028
		c0,0-0.254,0.123-0.175,0.309c0.038,0.085,0.281,0.646,0.528,1.22l0,0c0.248,0.572,0.49,1.133,0.526,1.22
		c0.078,0.186,0.345,0.083,0.345,0.083l16.23-6.278C565.99,154.124,566.461,154.005,566.403,153.651z"/>
	<circle fill="none" cx="407.355" cy="219.786" r="172.527"/>
</g>
<g>
	<path fill="#FFFFFF" d="M260.385,220.906v-0.889c0-0.925,0.165-1.813,0.495-2.681c0.33-0.862,0.753-1.642,1.27-2.336
		c0.52-0.692,1.012-1.271,1.479-1.728s0.903-0.858,1.301-1.207c0.771-0.657,1.4-1.272,1.892-1.848
		c0.491-0.57,0.852-1.138,1.073-1.701c0.227-0.562,0.336-1.08,0.336-1.556c0-0.946-0.176-1.627-0.524-2.037
		c-0.354-0.409-0.856-0.614-1.52-0.614c-0.593,0-1.063,0.219-1.422,0.651c-0.354,0.438-0.593,0.947-0.711,1.531
		s-0.199,1.12-0.241,1.61l-3.504-0.278c0.104-1.041,0.299-1.968,0.59-2.772c0.293-0.81,0.688-1.492,1.188-2.051
		c0.5-0.56,1.105-0.981,1.828-1.271c0.72-0.289,1.562-0.432,2.523-0.432c1.354,0,2.473,0.288,3.348,0.863
		c0.877,0.574,1.469,1.312,1.774,2.215c0.312,0.9,0.464,1.787,0.464,2.66c0,0.988-0.185,1.902-0.552,2.74
		c-0.369,0.84-0.794,1.516-1.276,2.031c-0.479,0.518-0.893,0.938-1.229,1.271c-1.729,1.582-2.7,2.481-2.92,2.703
		c-0.288,0.297-0.548,0.604-0.781,0.922c-0.229,0.313-0.412,0.631-0.539,0.942h7.147v3.25h-11.49V220.906L260.385,220.906z"/>
	<path fill="#FFFFFF" d="M279.696,221.301c-0.699,0-1.321-0.076-1.863-0.229c-0.542-0.153-1.019-0.356-1.422-0.616
		c-0.406-0.259-0.756-0.562-1.041-0.906c-0.288-0.346-0.531-0.713-0.729-1.101c-0.199-0.385-0.362-0.776-0.489-1.18
		c-0.127-0.404-0.229-0.795-0.314-1.177l3.453-0.772c0.073,0.679,0.22,1.25,0.432,1.722c0.212,0.469,0.484,0.797,0.818,0.981
		c0.335,0.188,0.688,0.279,1.061,0.279c0.778,0,1.36-0.343,1.746-1.027c0.385-0.687,0.577-1.635,0.577-2.844
		c0-0.711-0.074-1.339-0.222-1.88c-0.148-0.543-0.354-0.948-0.616-1.219c-0.194-0.194-0.404-0.345-0.628-0.444
		c-0.228-0.103-0.527-0.15-0.908-0.15c-0.524,0-0.969,0.166-1.333,0.5c-0.364,0.337-0.639,0.777-0.825,1.326l-2.958-0.442
		l1.612-10.422h9.128v3.084h-6.665l-0.673,4.315c0.347-0.349,0.766-0.625,1.257-0.832s1.113-0.312,1.866-0.312
		c0.53,0,1.067,0.092,1.609,0.276c0.542,0.188,1.032,0.511,1.476,0.968c0.381,0.422,0.688,0.889,0.927,1.396
		c0.239,0.508,0.41,1.088,0.521,1.739c0.111,0.649,0.165,1.308,0.165,1.968c0,1.032-0.117,1.979-0.359,2.838
		c-0.24,0.858-0.606,1.596-1.101,2.209c-0.488,0.612-1.108,1.092-1.856,1.437C281.58,221.129,280.702,221.301,279.696,221.301z"/>
</g>
<g>
	<path fill="#FFFFFF" d="M286.504,300.025c-1.083,0-2.006-0.225-2.771-0.668c-0.762-0.441-1.382-1.094-1.857-1.945
		c-0.479-0.854-0.827-1.904-1.047-3.148c-0.223-1.244-0.33-2.662-0.33-4.254c0-1.582,0.107-2.992,0.33-4.232
		c0.22-1.236,0.566-2.283,1.047-3.135c0.479-0.854,1.099-1.498,1.857-1.941c0.765-0.443,1.688-0.666,2.771-0.666
		s2.008,0.223,2.771,0.666c0.769,0.443,1.393,1.092,1.872,1.941c0.482,0.852,0.834,1.896,1.057,3.135
		c0.22,1.24,0.33,2.65,0.33,4.232c0,1.592-0.11,3.01-0.33,4.254c-0.223,1.244-0.571,2.295-1.057,3.148
		c-0.48,0.854-1.104,1.504-1.872,1.945C288.512,299.803,287.587,300.025,286.504,300.025z M286.504,296.928
		c0.584,0,1.05-0.287,1.396-0.863c0.349-0.572,0.573-1.412,0.682-2.514c0.104-1.102,0.156-2.281,0.156-3.543
		c0-1.896-0.1-3.359-0.298-4.394c-0.198-1.03-0.475-1.704-0.826-2.02c-0.351-0.312-0.721-0.472-1.107-0.472
		c-0.604,0-1.068,0.293-1.403,0.877c-0.334,0.584-0.552,1.418-0.652,2.5c-0.102,1.084-0.15,2.252-0.15,3.504
		c0,1.264,0.042,2.332,0.127,3.213s0.216,1.598,0.394,2.146c0.181,0.552,0.406,0.947,0.688,1.191
		C285.783,296.805,286.115,296.928,286.504,296.928z"/>
</g>
<g>
	<path fill="#FFFFFF" d="M314.631,127.918c-0.872,0-1.688-0.152-2.438-0.457c-0.753-0.306-1.408-0.814-1.968-1.53
		c-0.559-0.715-0.999-1.667-1.32-2.854c-0.318-1.189-0.479-2.67-0.479-4.438c0-1.676,0.129-3.178,0.387-4.507
		c0.259-1.329,0.656-2.452,1.193-3.37c0.538-0.919,1.222-1.621,2.051-2.107c0.829-0.486,1.817-0.729,2.971-0.729
		c0.981,0,1.842,0.167,2.577,0.502c0.736,0.334,1.307,0.824,1.708,1.473c0.401,0.646,0.68,1.364,0.831,2.151l-3.401,0.787
		c-0.052-0.313-0.128-0.598-0.229-0.852c-0.104-0.254-0.232-0.474-0.396-0.659c-0.161-0.17-0.348-0.295-0.56-0.375
		s-0.439-0.12-0.688-0.12c-0.244,0-0.48,0.044-0.711,0.134c-0.229,0.088-0.453,0.251-0.674,0.488
		c-0.354,0.396-0.626,0.995-0.812,1.797c-0.188,0.799-0.307,1.812-0.355,3.04c0.34-0.415,0.785-0.765,1.34-1.048
		c0.557-0.283,1.262-0.426,2.113-0.426c1.151,0,2.104,0.353,2.856,1.055c0.752,0.701,1.25,1.531,1.49,2.487
		c0.239,0.956,0.36,1.837,0.36,2.642c0,1.337-0.174,2.45-0.521,3.339c-0.349,0.889-0.801,1.598-1.357,2.126
		c-0.56,0.529-1.188,0.904-1.885,1.124C316.021,127.808,315.323,127.918,314.631,127.918z M314.53,125.188
		c0.562,0,1.021-0.187,1.379-0.559s0.604-0.852,0.735-1.436s0.196-1.15,0.196-1.7c0-0.567-0.051-1.089-0.146-1.562
		c-0.098-0.474-0.241-0.883-0.432-1.225c-0.191-0.345-0.434-0.609-0.727-0.802c-0.291-0.188-0.628-0.284-1.01-0.284
		c-0.39,0-0.729,0.096-1.021,0.284c-0.291,0.191-0.535,0.457-0.729,0.802c-0.193,0.342-0.341,0.751-0.438,1.225
		c-0.099,0.474-0.146,0.994-0.146,1.562c0,0.872,0.114,1.6,0.344,2.184s0.521,0.981,0.876,1.193
		C313.767,125.082,314.14,125.188,314.53,125.188z"/>
	<path fill="#FFFFFF" d="M328.026,127.918c-1.083,0-2.006-0.223-2.768-0.667c-0.764-0.443-1.382-1.095-1.86-1.948
		c-0.478-0.854-0.827-1.904-1.047-3.146c-0.22-1.243-0.33-2.661-0.33-4.253c0-1.583,0.11-2.993,0.33-4.233
		c0.22-1.239,0.569-2.285,1.047-3.135c0.479-0.853,1.1-1.498,1.86-1.943c0.762-0.443,1.685-0.666,2.768-0.666
		s2.009,0.223,2.774,0.666c0.766,0.445,1.39,1.092,1.872,1.943c0.479,0.85,0.834,1.896,1.054,3.135c0.22,1.24,0.33,2.65,0.33,4.233
		c0,1.592-0.11,3.01-0.33,4.253c-0.22,1.244-0.571,2.295-1.054,3.146c-0.483,0.854-1.106,1.505-1.872,1.948
		C330.031,127.696,329.109,127.918,328.026,127.918z M328.026,124.82c0.584,0,1.051-0.288,1.396-0.862
		c0.346-0.575,0.571-1.413,0.679-2.515c0.104-1.101,0.159-2.28,0.159-3.542c0-1.896-0.102-3.359-0.298-4.393
		c-0.199-1.032-0.478-1.705-0.826-2.02c-0.353-0.312-0.723-0.47-1.11-0.47c-0.601,0-1.066,0.292-1.402,0.876
		c-0.334,0.584-0.553,1.418-0.651,2.501c-0.103,1.083-0.152,2.251-0.152,3.504c0,1.262,0.042,2.332,0.127,3.212
		c0.085,0.881,0.217,1.597,0.396,2.146c0.178,0.55,0.404,0.948,0.686,1.193C327.305,124.696,327.636,124.82,328.026,124.82z"/>
</g>
<g>
	<path fill="#FFFFFF" d="M420.647,97.959v-14.84c-0.762,0.55-1.386,0.982-1.872,1.302c-0.487,0.315-0.912,0.563-1.276,0.742
		l-1.443-2.591c0.521-0.305,1.126-0.693,1.803-1.168c0.677-0.474,1.309-0.956,1.893-1.446c0.584-0.491,1.04-0.894,1.37-1.206h3.148
		V97.96L420.647,97.959L420.647,97.959z"/>
	<path fill="#FFFFFF" d="M435.209,98.353c-1.084,0-2.009-0.222-2.771-0.667c-0.762-0.442-1.382-1.094-1.86-1.948
		c-0.478-0.854-0.823-1.903-1.047-3.147c-0.22-1.244-0.33-2.662-0.33-4.253c0-1.583,0.11-2.994,0.33-4.234
		c0.224-1.239,0.569-2.285,1.047-3.135c0.479-0.853,1.103-1.498,1.86-1.943c0.763-0.442,1.688-0.666,2.771-0.666
		c1.082,0,2.008,0.224,2.771,0.666c0.766,0.445,1.391,1.093,1.872,1.943c0.48,0.85,0.834,1.896,1.054,3.135
		c0.224,1.24,0.33,2.651,0.33,4.234c0,1.591-0.106,3.009-0.33,4.253c-0.22,1.244-0.567,2.294-1.054,3.147
		c-0.485,0.854-1.105,1.506-1.872,1.948C437.217,98.131,436.289,98.353,435.209,98.353z M435.209,95.255
		c0.584,0,1.049-0.288,1.396-0.863c0.347-0.575,0.573-1.413,0.679-2.514c0.106-1.102,0.159-2.281,0.159-3.542
		c0-1.896-0.101-3.36-0.298-4.394c-0.199-1.031-0.475-1.705-0.826-2.019c-0.351-0.314-0.721-0.47-1.106-0.47
		c-0.604,0-1.068,0.292-1.403,0.876c-0.334,0.584-0.552,1.418-0.653,2.501c-0.101,1.083-0.151,2.252-0.151,3.505
		c0,1.261,0.039,2.332,0.127,3.212c0.084,0.88,0.216,1.596,0.394,2.146c0.179,0.551,0.406,0.948,0.688,1.193
		C434.487,95.132,434.82,95.255,435.209,95.255z"/>
	<path fill="#FFFFFF" d="M448.828,98.353c-1.082,0-2.006-0.222-2.768-0.667c-0.762-0.442-1.382-1.094-1.859-1.948
		c-0.479-0.854-0.828-1.903-1.048-3.147c-0.22-1.244-0.329-2.662-0.329-4.253c0-1.583,0.109-2.994,0.329-4.234
		c0.22-1.239,0.569-2.285,1.048-3.135c0.479-0.853,1.102-1.498,1.859-1.943c0.762-0.442,1.686-0.666,2.768-0.666
		c1.084,0,2.011,0.224,2.774,0.666c0.767,0.445,1.39,1.093,1.872,1.943c0.48,0.85,0.834,1.896,1.054,3.135
		c0.22,1.24,0.33,2.651,0.33,4.234c0,1.591-0.11,3.009-0.33,4.253c-0.22,1.244-0.571,2.294-1.054,3.147
		c-0.483,0.854-1.105,1.506-1.872,1.948C450.838,98.131,449.912,98.353,448.828,98.353z M448.828,95.255
		c0.584,0,1.054-0.288,1.396-0.863c0.346-0.575,0.572-1.413,0.679-2.514c0.107-1.102,0.159-2.281,0.159-3.542
		c0-1.896-0.1-3.36-0.298-4.394c-0.199-1.031-0.479-1.705-0.826-2.019c-0.351-0.313-0.721-0.47-1.11-0.47
		c-0.601,0-1.064,0.292-1.399,0.876c-0.334,0.584-0.554,1.418-0.653,2.501c-0.099,1.083-0.15,2.251-0.15,3.504
		c0,1.261,0.04,2.332,0.129,3.212c0.084,0.88,0.215,1.596,0.394,2.146c0.178,0.551,0.405,0.948,0.688,1.193
		C448.11,95.131,448.442,95.255,448.828,95.255z"/>
</g>
<g>
	<path fill="#D8D8D9" d="M242.156,279.732c0.227,0.617,0.341,1.174,0.342,1.668c0.001,0.496-0.094,0.945-0.286,1.346
		c-0.19,0.402-0.467,0.768-0.829,1.096c-0.362,0.326-0.789,0.631-1.281,0.91l-0.779-1.279c0.302-0.164,0.586-0.346,0.853-0.543
		c0.266-0.199,0.483-0.43,0.655-0.688c0.17-0.258,0.275-0.553,0.312-0.889c0.039-0.334-0.022-0.717-0.182-1.148
		c-0.194-0.527-0.455-0.926-0.784-1.189c-0.328-0.266-0.672-0.395-1.033-0.387c-0.36,0.006-0.697,0.066-1.011,0.182
		c-0.546,0.199-0.961,0.502-1.24,0.908c-0.281,0.406-0.402,0.961-0.366,1.664l0.076,1.371c0.026,0.516,0.002,0.977-0.074,1.383
		c-0.076,0.406-0.207,0.766-0.396,1.08s-0.435,0.586-0.74,0.812c-0.305,0.229-0.675,0.422-1.107,0.58
		c-0.716,0.262-1.4,0.324-2.053,0.188c-0.652-0.137-1.171-0.43-1.557-0.881c-0.386-0.451-0.677-0.949-0.879-1.494
		c-0.178-0.482-0.283-0.939-0.316-1.369c-0.033-0.432,0.019-0.838,0.153-1.219c0.135-0.381,0.354-0.742,0.657-1.086
		c0.304-0.342,0.701-0.664,1.19-0.973l0.845,1.178c-0.254,0.164-0.493,0.346-0.715,0.545c-0.221,0.201-0.4,0.424-0.538,0.67
		s-0.22,0.518-0.248,0.816s0.025,0.627,0.157,0.988c0.189,0.514,0.446,0.889,0.77,1.125s0.663,0.346,1.015,0.328
		c0.354-0.02,0.679-0.082,0.979-0.191c0.53-0.195,0.911-0.5,1.14-0.916c0.23-0.416,0.324-0.955,0.279-1.615l-0.096-1.521
		c-0.03-0.496-0.009-0.932,0.066-1.309c0.074-0.377,0.205-0.719,0.389-1.025c0.387-0.633,1.035-1.113,1.942-1.445
		c0.504-0.186,0.989-0.283,1.455-0.297c0.466-0.014,0.902,0.072,1.306,0.256c0.404,0.186,0.77,0.473,1.097,0.863
		C241.652,278.615,241.929,279.117,242.156,279.732z"/>
	<path fill="#D8D8D9" d="M239.838,273.852l-12.099,3.887l-0.459-1.422l12.099-3.887L239.838,273.852z"/>
	<path fill="#D8D8D9" d="M238.316,269.053l-12.247,3.391l-0.4-1.439l10.962-3.035l-1.36-4.896l1.285-0.357L238.316,269.053z"/>
	<path fill="#D8D8D9" d="M235.698,259.041l-11.657,6.07l-0.33-1.457l9.973-5.117l-11.2-0.311l-0.317-1.41l13.13,0.455
		L235.698,259.041z"/>
	<path fill="#D8D8D9" d="M234.19,251.992l-12.529,2.123l-1.128-6.705l1.315-0.223l0.88,5.23l4.187-0.709l-0.832-4.947l1.29-0.219
		l0.833,4.947l4.422-0.748l-0.919-5.459l1.315-0.221L234.19,251.992z"/>
	<path fill="#D8D8D9" d="M232.65,242.357l-12.629,1.404l-0.431-3.943c-0.093-0.854,0.009-1.572,0.304-2.152
		c0.295-0.58,0.723-0.992,1.28-1.236c0.559-0.244,1.132-0.4,1.721-0.465c0.507-0.057,1.006-0.035,1.497,0.061
		c0.491,0.098,0.914,0.271,1.27,0.523c0.356,0.254,0.636,0.549,0.839,0.891l5.312-2.754l0.184,1.688l-5.035,2.486l0.033,0.301
		l0.252,2.311l5.242-0.584L232.65,242.357z M226.003,241.609l-0.236-2.164c-0.037-0.326-0.115-0.619-0.237-0.879
		c-0.122-0.258-0.294-0.473-0.517-0.643c-0.223-0.172-0.496-0.291-0.818-0.359c-0.322-0.07-0.703-0.08-1.146-0.031
		c-0.862,0.098-1.461,0.359-1.798,0.791c-0.336,0.432-0.464,1.018-0.383,1.756l0.228,2.074L226.003,241.609z"/>
	<path fill="#B8973A" d="M244.46,153.631c-0.229,0.565-0.553,1.041-0.971,1.43c-0.417,0.389-0.937,0.66-1.561,0.81
		c-0.623,0.151-1.353,0.172-2.192,0.063c-0.838-0.109-1.796-0.378-2.875-0.807c-1.047-0.417-1.923-0.874-2.628-1.373
		c-0.704-0.498-1.242-1.025-1.617-1.582c-0.374-0.556-0.587-1.137-0.639-1.742c-0.052-0.605,0.051-1.226,0.309-1.861
		c0.279-0.687,0.651-1.233,1.114-1.639s1.011-0.648,1.642-0.726c0.63-0.076,1.29-0.046,1.978,0.092l-0.266,1.506
		c-0.678-0.134-1.242-0.157-1.69-0.069c-0.449,0.087-0.797,0.261-1.041,0.521s-0.426,0.535-0.542,0.825
		c-0.19,0.468-0.229,0.915-0.115,1.341s0.351,0.83,0.711,1.212c0.363,0.384,0.835,0.747,1.418,1.091s1.251,0.666,2.004,0.965
		c0.758,0.301,1.453,0.518,2.083,0.651c0.632,0.133,1.192,0.174,1.682,0.124c0.491-0.05,0.905-0.192,1.246-0.426
		c0.339-0.233,0.599-0.569,0.777-1.006c0.204-0.503,0.256-0.989,0.157-1.457c-0.099-0.468-0.32-0.854-0.663-1.158
		s-0.728-0.542-1.156-0.712l-1.121-0.446l-0.521,1.281l-1.16-0.46l1.078-2.655l5.858,2.329l-0.374,0.923l-1.302-0.243
		c0.366,0.494,0.58,1.006,0.639,1.538C244.781,152.504,244.694,153.057,244.46,153.631z"/>
	<path fill="#B8973A" d="M248.729,143.952c-0.304,0.634-0.697,1.146-1.183,1.534s-1.058,0.642-1.718,0.76
		c-0.659,0.119-1.406,0.097-2.241-0.067c-0.835-0.163-1.752-0.479-2.753-0.947c-1.01-0.473-1.846-0.978-2.504-1.513
		c-0.66-0.536-1.155-1.094-1.483-1.676c-0.329-0.581-0.495-1.18-0.5-1.798c-0.005-0.617,0.144-1.243,0.447-1.878
		c0.306-0.639,0.701-1.154,1.188-1.544c0.487-0.39,1.061-0.645,1.723-0.762c0.661-0.117,1.411-0.094,2.247,0.07
		c0.837,0.165,1.762,0.483,2.772,0.956c1.001,0.469,1.83,0.97,2.487,1.505c0.657,0.534,1.149,1.092,1.475,1.672
		c0.327,0.58,0.491,1.18,0.495,1.8C249.184,142.684,249.034,143.313,248.729,143.952z M247.554,143.402
		c0.216-0.45,0.292-0.894,0.228-1.33c-0.064-0.436-0.253-0.862-0.564-1.278c-0.311-0.415-0.735-0.815-1.272-1.2
		c-0.537-0.385-1.171-0.748-1.898-1.088c-0.739-0.346-1.43-0.603-2.074-0.771c-0.644-0.168-1.226-0.239-1.748-0.214
		c-0.521,0.026-0.975,0.151-1.358,0.378c-0.384,0.227-0.683,0.565-0.899,1.017c-0.213,0.445-0.285,0.887-0.219,1.325
		c0.066,0.438,0.256,0.862,0.569,1.275c0.311,0.413,0.737,0.812,1.277,1.198c0.539,0.386,1.179,0.752,1.917,1.098
		c0.728,0.34,1.413,0.594,2.056,0.762c0.642,0.167,1.222,0.239,1.742,0.215c0.521-0.023,0.971-0.148,1.353-0.376
		S247.341,143.849,247.554,143.402z"/>
	<path fill="#B8973A" d="M251.472,137.848l-11.166-5.975l0.719-1.316l9.994,5.349l2.442-4.478l1.172,0.627L251.472,137.848z"/>
	<path fill="#B8973A" d="M255.634,130.318l-10.824-6.562l1.589-2.575c0.436-0.706,0.923-1.257,1.46-1.654
		c0.538-0.397,1.132-0.635,1.786-0.715c0.653-0.079,1.37-0.001,2.152,0.235c0.782,0.237,1.636,0.635,2.561,1.196
		c1.847,1.12,3.002,2.298,3.47,3.535c0.465,1.236,0.264,2.559-0.604,3.967L255.634,130.318z M255.314,128.37l0.819-1.325
		c0.319-0.519,0.489-1.02,0.508-1.504c0.019-0.483-0.09-0.951-0.328-1.403c-0.239-0.452-0.594-0.891-1.069-1.312
		c-0.475-0.423-1.046-0.837-1.714-1.242c-0.664-0.402-1.29-0.715-1.879-0.937c-0.588-0.222-1.134-0.334-1.636-0.337
		c-0.503-0.003-0.96,0.115-1.374,0.352c-0.413,0.238-0.781,0.617-1.101,1.136l-0.836,1.353L255.314,128.37z"/>
	<path fill="#A0A0A0" d="M330.909,60.681l-5.377-11.409l3.411-1.593c0.555-0.26,1.072-0.406,1.553-0.438
		c0.482-0.033,0.926,0.036,1.333,0.207c0.406,0.17,0.774,0.439,1.103,0.806s0.617,0.815,0.868,1.348
		c0.252,0.537,0.407,1.054,0.461,1.552c0.055,0.497,0.003,0.965-0.152,1.401c-0.157,0.438-0.419,0.839-0.786,1.206
		s-0.845,0.688-1.435,0.963l-1.753,0.82l2.124,4.507L330.909,60.681z M329.605,54.419l1.649-0.771
		c0.534-0.25,0.927-0.567,1.178-0.952c0.252-0.385,0.356-0.79,0.315-1.215c-0.043-0.425-0.156-0.835-0.342-1.229
		c-0.369-0.759-0.83-1.249-1.378-1.47c-0.55-0.221-1.186-0.163-1.911,0.176l-1.708,0.799L329.605,54.419z"/>
	<path fill="#A0A0A0" d="M339.693,56.667l-4.78-11.668l1.395-0.567l4.279,10.444l4.745-1.93l0.501,1.224L339.693,56.667z"/>
	<path fill="#A0A0A0" d="M346.898,53.742l-0.675-13.109l1.666-0.577l7.61,10.707l-1.493,0.518l-1.863-2.682l-4.153,1.438
		l0.206,3.256L346.898,53.742z M347.892,48.722l3.511-1.217l-3.933-5.732L347.892,48.722z"/>
	<path fill="#A0A0A0" d="M358.885,49.779l-3.169-10.831l-3.233,0.942l-0.371-1.27l7.936-2.314l0.371,1.27l-3.249,0.948l3.168,10.831
		L358.885,49.779z"/>
	<path fill="#A0A0A0" d="M365.904,47.853l-3.032-12.237l1.461-0.362l3.033,12.237L365.904,47.853z"/>
	<path fill="#A0A0A0" d="M370.525,46.709l-2.478-12.361l1.598-0.322l6.451,8.815l-1.948-9.72l1.429-0.287l2.478,12.361l-1.599,0.322
		l-6.444-8.783l1.941,9.688L370.525,46.709z"/>
	<path fill="#A0A0A0" d="M384.641,44.492c-0.721,0.101-1.343,0.077-1.865-0.072c-0.522-0.149-0.961-0.401-1.32-0.755
		c-0.358-0.354-0.641-0.797-0.848-1.328c-0.208-0.532-0.357-1.129-0.45-1.793l-1.151-8.299l1.491-0.209l1.152,8.299
		c0.151,1.101,0.456,1.875,0.911,2.325c0.454,0.45,1.086,0.619,1.895,0.505c0.771-0.108,1.314-0.441,1.629-1
		c0.315-0.558,0.396-1.387,0.244-2.487l-1.15-8.298l1.499-0.21l1.151,8.299c0.092,0.663,0.11,1.278,0.056,1.847
		c-0.054,0.568-0.206,1.071-0.451,1.51c-0.245,0.439-0.594,0.802-1.048,1.087C385.932,44.199,385.35,44.392,384.641,44.492z"/>
	<path fill="#A0A0A0" d="M390.772,43.362l-0.917-12.576l2.047-0.155l3.743,10.602l2.322-11.06l1.979-0.149l0.917,12.576
		l-1.419,0.107l-0.746-10.239l-2.142,10.457l-1.592,0.12l-3.519-10.03l0.746,10.239L390.772,43.362z"/>
	<path fill="#C1DDF4" d="M498.996,66.905l6.758-10.703l2.572,1.595c0.705,0.438,1.252,0.924,1.645,1.46
		c0.393,0.537,0.625,1.129,0.695,1.777c0.072,0.649-0.016,1.361-0.266,2.136c-0.248,0.774-0.662,1.62-1.24,2.535
		c-1.152,1.826-2.355,2.966-3.607,3.42c-1.252,0.455-2.58,0.247-3.986-0.625L498.996,66.905z M500.963,66.601l1.324,0.821
		c0.518,0.322,1.02,0.493,1.506,0.516c0.488,0.021,0.961-0.084,1.42-0.316c0.457-0.232,0.904-0.584,1.336-1.052
		c0.434-0.468,0.857-1.033,1.273-1.694c0.414-0.656,0.738-1.276,0.969-1.859c0.232-0.583,0.354-1.124,0.363-1.623
		c0.01-0.5-0.104-0.955-0.336-1.367c-0.234-0.412-0.611-0.779-1.129-1.101l-1.352-0.838L500.963,66.601z"/>
	<path fill="#C1DDF4" d="M507.85,72.542l7.209-10.409l1.24,0.844l-7.211,10.409L507.85,72.542z"/>
	<path fill="#C1DDF4" d="M510.336,74.179l10.553-7.95l1.41,1.043l-4.678,12.295l-1.264-0.935l1.195-3.044l-3.516-2.601l-2.602,2.006
		L510.336,74.179z M515.076,72.165l2.975,2.199l2.582-6.466L515.076,72.165z"/>
	<path fill="#C1DDF4" d="M518.957,80.597l8.252-9.616l1.561,1.317l-4.854,10.181l9.475-6.274l1.51,1.276l-8.254,9.616l-1.082-0.914
		l6.719-7.829l-8.918,5.969l-1.215-1.026l4.607-9.615l-6.719,7.829L518.957,80.597z"/>
	<path fill="#C1DDF4" d="M531.547,92.114c-0.504-0.49-0.861-1.025-1.07-1.606c-0.209-0.581-0.26-1.2-0.154-1.858
		c0.105-0.657,0.373-1.351,0.805-2.081c0.432-0.73,1.035-1.488,1.812-2.275c0.783-0.795,1.539-1.416,2.268-1.86
		c0.729-0.445,1.424-0.728,2.086-0.848s1.287-0.083,1.877,0.112c0.588,0.195,1.135,0.538,1.639,1.027
		c0.506,0.494,0.867,1.032,1.076,1.615c0.211,0.583,0.264,1.204,0.156,1.863s-0.377,1.355-0.811,2.087s-1.043,1.495-1.826,2.29
		c-0.775,0.788-1.527,1.402-2.254,1.846s-1.42,0.724-2.08,0.842c-0.658,0.119-1.285,0.079-1.877-0.118
		C532.602,92.953,532.053,92.607,531.547,92.114z M532.457,91.19c0.357,0.348,0.756,0.562,1.191,0.643
		c0.438,0.081,0.904,0.043,1.402-0.114s1.02-0.426,1.564-0.805c0.541-0.381,1.096-0.856,1.662-1.43
		c0.572-0.581,1.047-1.146,1.42-1.695c0.371-0.55,0.633-1.074,0.781-1.571c0.146-0.498,0.176-0.963,0.09-1.396
		c-0.09-0.434-0.312-0.825-0.672-1.173c-0.354-0.344-0.75-0.556-1.188-0.635c-0.439-0.079-0.906-0.039-1.402,0.121
		c-0.496,0.159-1.016,0.429-1.562,0.811c-0.547,0.381-1.105,0.862-1.678,1.443c-0.566,0.573-1.035,1.133-1.406,1.681
		c-0.369,0.548-0.631,1.07-0.781,1.565c-0.148,0.496-0.178,0.96-0.088,1.392S532.104,90.846,532.457,91.19z"/>
	<path fill="#C1DDF4" d="M536.686,96.89l9.453-8.458l1.088,1.2l-4.365,10.032l7.432-6.651l0.973,1.072l-9.453,8.458l-1.09-1.201
		l4.344-10.01l-7.408,6.629L536.686,96.89z"/>
	<path fill="#C1DDF4" d="M543.854,104.938l9.963-7.862l1.883,2.356c0.518,0.647,0.871,1.288,1.061,1.924
		c0.188,0.637,0.207,1.272,0.057,1.909c-0.152,0.635-0.475,1.278-0.969,1.928c-0.494,0.648-1.168,1.309-2.02,1.98
		c-1.699,1.342-3.215,2.019-4.547,2.033c-1.332,0.014-2.512-0.623-3.543-1.912L543.854,104.938z M545.809,105.302l0.969,1.213
		c0.381,0.476,0.795,0.804,1.246,0.986s0.934,0.239,1.443,0.171c0.51-0.067,1.047-0.251,1.611-0.55s1.154-0.691,1.77-1.176
		c0.609-0.483,1.123-0.96,1.537-1.433c0.414-0.474,0.709-0.945,0.887-1.412c0.176-0.468,0.225-0.935,0.143-1.401
		c-0.082-0.466-0.312-0.937-0.693-1.412l-0.99-1.239L545.809,105.302z"/>
	<path fill="#0E77D9" d="M580.162,178.157l12.449-2.551l0.787,3.853c0.15,0.729,0.156,1.365,0.02,1.907
		c-0.135,0.542-0.418,0.966-0.852,1.272s-0.939,0.52-1.521,0.639c-0.424,0.087-0.822,0.116-1.195,0.085
		c-0.373-0.029-0.711-0.126-1.014-0.291c-0.303-0.165-0.562-0.36-0.783-0.589c-0.125,0.679-0.41,1.217-0.854,1.616
		c-0.445,0.398-1.061,0.679-1.846,0.839c-0.736,0.151-1.363,0.171-1.879,0.059c-0.516-0.113-0.945-0.317-1.289-0.616
		s-0.615-0.67-0.814-1.115c-0.201-0.445-0.355-0.927-0.461-1.447L580.162,178.157z M581.676,179.322l0.432,2.108
		c0.072,0.354,0.178,0.67,0.316,0.95c0.139,0.278,0.322,0.505,0.551,0.679s0.51,0.288,0.842,0.343
		c0.334,0.054,0.73,0.034,1.193-0.061c0.693-0.142,1.193-0.378,1.502-0.706s0.467-0.676,0.473-1.044
		c0.006-0.367-0.021-0.695-0.08-0.984l-0.463-2.26L581.676,179.322z M587.668,178.094l0.414,2.027
		c0.084,0.412,0.229,0.767,0.436,1.062s0.482,0.489,0.83,0.581c0.344,0.091,0.73,0.092,1.154,0.005
		c0.715-0.146,1.197-0.419,1.441-0.819c0.246-0.4,0.303-0.925,0.17-1.573l-0.43-2.107L587.668,178.094z"/>
	<path fill="#0E77D9" d="M581.969,187.312l12.557-1.949l0.227,1.477l-11.238,1.745l0.771,5.022l-1.316,0.205L581.969,187.312z"/>
	<path fill="#0E77D9" d="M583.174,198.444c-0.074-0.719-0.027-1.334,0.141-1.848c0.17-0.514,0.439-0.943,0.809-1.288
		c0.369-0.345,0.826-0.612,1.367-0.803c0.543-0.19,1.15-0.322,1.82-0.394l8.396-0.898l0.156,1.485l-8.396,0.899
		c-1.111,0.119-1.902,0.398-2.373,0.837c-0.471,0.438-0.662,1.06-0.578,1.865c0.082,0.768,0.396,1.316,0.947,1.646
		s1.383,0.434,2.494,0.315l8.396-0.899l0.156,1.494l-8.395,0.899c-0.672,0.071-1.291,0.072-1.863,0.001
		c-0.57-0.071-1.07-0.235-1.502-0.491c-0.434-0.257-0.785-0.614-1.057-1.072C583.422,199.735,583.25,199.152,583.174,198.444z"/>
	<path fill="#0E77D9" d="M584,203.933l12.684-0.718l0.365,6.791l-1.33,0.075l-0.285-5.298l-4.238,0.24l0.268,5.01l-1.305,0.074
		l-0.27-5.01l-4.479,0.252l0.299,5.527l-1.332,0.075L584,203.933z"/>
	<path fill="#0E77D9" d="M584.471,217.803l12.697,0.318l-0.088,3.012c-0.023,0.828-0.17,1.545-0.436,2.154
		c-0.268,0.611-0.666,1.111-1.191,1.504c-0.527,0.391-1.191,0.68-1.988,0.861c-0.799,0.184-1.74,0.262-2.826,0.234
		c-2.166-0.055-3.762-0.502-4.789-1.34c-1.025-0.84-1.514-2.082-1.467-3.73L584.471,217.803z M585.727,219.33l-0.045,1.553
		c-0.018,0.605,0.086,1.125,0.312,1.551c0.227,0.428,0.557,0.779,0.99,1.053s0.963,0.477,1.588,0.607
		c0.623,0.129,1.328,0.205,2.113,0.225c0.777,0.02,1.479-0.021,2.1-0.119c0.623-0.102,1.154-0.273,1.592-0.521
		c0.438-0.246,0.777-0.574,1.016-0.984c0.24-0.41,0.369-0.92,0.387-1.525l0.045-1.586L585.727,219.33z"/>
	<path fill="#0E77D9" d="M584.043,228.271l12.672,0.848l-0.107,1.49l-12.67-0.848L584.043,228.271z"/>
	<path fill="#0E77D9" d="M583.852,231.551l12.219,4.975l-0.195,1.74l-13.029,2.268l0.174-1.559l3.244-0.529l0.486-4.336
		l-3.051-1.203L583.852,231.551z M587.989,234.58l-0.41,3.666l6.914-1.088L587.989,234.58z"/>
	<path fill="#0E77D9" d="M582.617,242.25l12.512,2.145l-0.357,2.006l-11.281,1.053l10.227,4.896l-0.344,1.943l-12.512-2.145
		l0.248-1.393l10.184,1.746l-9.682-4.578l0.277-1.562l10.666-0.975l-10.184-1.744L582.617,242.25z"/>
	<path fill="#0E77D9" d="M579.078,258.57c0.168-0.682,0.449-1.262,0.846-1.738c0.398-0.477,0.908-0.84,1.529-1.088
		c0.623-0.248,1.359-0.375,2.211-0.383c0.85-0.008,1.814,0.117,2.889,0.375c1.088,0.26,2.01,0.586,2.764,0.979
		c0.756,0.393,1.354,0.84,1.793,1.344c0.441,0.502,0.727,1.055,0.857,1.658c0.131,0.605,0.111,1.246-0.055,1.928
		c-0.17,0.688-0.453,1.271-0.852,1.75c-0.398,0.48-0.908,0.844-1.533,1.092s-1.365,0.375-2.219,0.381
		c-0.854,0.008-1.824-0.119-2.912-0.381c-1.074-0.258-1.99-0.582-2.742-0.975c-0.752-0.391-1.346-0.838-1.785-1.34
		c-0.438-0.502-0.721-1.057-0.852-1.662C578.887,259.902,578.908,259.256,579.078,258.57z M580.34,258.873
		c-0.119,0.484-0.104,0.934,0.049,1.348s0.422,0.793,0.811,1.137c0.391,0.344,0.887,0.65,1.492,0.92s1.299,0.498,2.082,0.686
		c0.795,0.189,1.523,0.303,2.189,0.338s1.252-0.012,1.756-0.143c0.506-0.129,0.926-0.344,1.256-0.641
		c0.328-0.299,0.555-0.691,0.674-1.176c0.119-0.479,0.1-0.926-0.055-1.34s-0.428-0.793-0.816-1.135s-0.889-0.646-1.496-0.916
		c-0.609-0.27-1.309-0.5-2.104-0.689c-0.781-0.188-1.506-0.299-2.168-0.334c-0.664-0.035-1.246,0.012-1.752,0.139
		s-0.922,0.34-1.25,0.639S580.457,258.395,580.34,258.873z"/>
	<path fill="#0E77D9" d="M577.643,265.109l12.139,3.674l-0.479,1.549l-10.898,1.471l9.545,2.889l-0.43,1.385l-12.139-3.676
		l0.48-1.547l10.865-1.482l-9.512-2.879L577.643,265.109z"/>
	<path fill="#0E77D9" d="M574.471,275.066l11.898,4.375l-1.062,2.826c-0.291,0.775-0.662,1.41-1.113,1.902
		c-0.453,0.49-0.99,0.838-1.615,1.041s-1.346,0.262-2.16,0.18c-0.812-0.084-1.729-0.312-2.746-0.686
		c-2.029-0.746-3.393-1.682-4.09-2.805c-0.697-1.125-0.756-2.461-0.174-4.006L574.471,275.066z M575.162,276.916l-0.549,1.457
		c-0.213,0.57-0.283,1.094-0.209,1.57c0.076,0.479,0.273,0.916,0.594,1.314c0.322,0.398,0.756,0.762,1.303,1.084
		c0.549,0.324,1.189,0.621,1.924,0.893c0.73,0.268,1.406,0.455,2.025,0.561c0.623,0.105,1.18,0.111,1.674,0.018
		c0.494-0.092,0.92-0.295,1.281-0.607c0.359-0.312,0.646-0.752,0.861-1.322l0.559-1.486L575.162,276.916z"/>
</g>
<g>
	<path fill="#FFFFFF" d="M508.85,175.764v-14.841c-0.762,0.55-1.387,0.982-1.872,1.302c-0.487,0.316-0.912,0.564-1.276,0.742
		l-1.444-2.59c0.521-0.306,1.127-0.694,1.804-1.168c0.677-0.475,1.308-0.956,1.892-1.447c0.584-0.491,1.041-0.893,1.371-1.206h3.148
		v19.208H508.85z"/>
	<path fill="#FFFFFF" d="M524.285,175.764v-4.188h-7.119v-3.378l6.992-11.642h3.646v12.137h1.562v2.883h-1.562v4.188H524.285
		L524.285,175.764z M519.947,168.693h4.343v-7.362L519.947,168.693z"/>
	<path fill="#FFFFFF" d="M537.031,176.158c-1.082,0-2.006-0.223-2.768-0.667c-0.762-0.443-1.383-1.095-1.86-1.948
		c-0.477-0.854-0.827-1.904-1.047-3.148s-0.33-2.662-0.33-4.253c0-1.583,0.11-2.994,0.33-4.233c0.22-1.239,0.569-2.285,1.047-3.136
		c0.479-0.852,1.102-1.498,1.86-1.942c0.762-0.443,1.686-0.666,2.768-0.666c1.084,0,2.009,0.223,2.774,0.666
		c0.766,0.444,1.39,1.092,1.872,1.942c0.479,0.851,0.834,1.896,1.054,3.136c0.22,1.24,0.33,2.65,0.33,4.233
		c0,1.591-0.11,3.009-0.33,4.253s-0.571,2.294-1.054,3.148c-0.483,0.854-1.106,1.505-1.872,1.948
		C539.041,175.936,538.115,176.158,537.031,176.158z M537.031,173.06c0.584,0,1.053-0.288,1.396-0.863
		c0.346-0.574,0.572-1.412,0.679-2.514c0.107-1.101,0.159-2.281,0.159-3.542c0-1.896-0.1-3.36-0.298-4.393
		c-0.199-1.032-0.479-1.705-0.826-2.02c-0.351-0.312-0.722-0.47-1.11-0.47c-0.601,0-1.064,0.292-1.399,0.876
		c-0.334,0.584-0.556,1.418-0.653,2.501s-0.151,2.251-0.151,3.504c0,1.261,0.041,2.332,0.128,3.212
		c0.084,0.88,0.217,1.596,0.396,2.146c0.178,0.55,0.405,0.947,0.687,1.192C536.313,172.936,536.645,173.06,537.031,173.06z"/>
</g>
<line fill="none" x1="407.349" y1="219.809" x2="567.545" y2="156.729"/>
</svg>
