<?xml version="1.0" encoding="utf-8"?>
<!-- Generator: Adobe Illustrator 16.0.0, SVG Export Plug-In . SVG Version: 6.00 Build 0)  -->
<!DOCTYPE svg PUBLIC "-//W3C//DTD SVG 1.1//EN" "http://www.w3.org/Graphics/SVG/1.1/DTD/svg11.dtd">
<svg version="1.1" id="b" xmlns="http://www.w3.org/2000/svg" xmlns:xlink="http://www.w3.org/1999/xlink" x="0px" y="0px"
	 width="42.941px" height="197.275px" viewBox="150.83 4.34 42.941 197.275" enable-background="new 150.83 4.34 42.941 197.275"
	 xml:space="preserve">
<g>
	<g>
		<g>
			
				<linearGradient id="SVGID_1_" gradientUnits="userSpaceOnUse" x1="-543.4719" y1="117.2615" x2="-480.5181" y2="-57.547" gradientTransform="matrix(1 -0.0019 -0.0019 -1 684.188 131.9064)">
				<stop  offset="0" style="stop-color:#F8EA4A"/>
				<stop  offset="0.2606" style="stop-color:#F8E749"/>
				<stop  offset="0.4192" style="stop-color:#F6DF46"/>
				<stop  offset="0.5505" style="stop-color:#F4D141"/>
				<stop  offset="0.6669" style="stop-color:#F1BC3A"/>
				<stop  offset="0.7735" style="stop-color:#EDA231"/>
				<stop  offset="0.8728" style="stop-color:#E88125"/>
				<stop  offset="0.9649" style="stop-color:#E25C18"/>
				<stop  offset="1" style="stop-color:#DF4B12"/>
			</linearGradient>
			<path fill="url(#SVGID_1_)" d="M176.37,174.63c-0.215-6.325-2.737-165.679-2.743-167.604c-0.003-1.926-0.407-2.687-1.518-2.685
				c-1.112,0.005-1.515,0.764-1.513,2.691c0.005,1.924-1.916,161.286-2.106,167.618c-0.19,6.331,0.636,15.963,0.842,18.847
				c0.208,2.895,0.827,8.119,3.148,8.118c2.324-0.007,2.918-5.238,3.115-8.127C175.794,190.597,176.583,180.961,176.37,174.63z"/>
			<path fill="#FFFCF8" d="M173.486,200.238c0.005,0.756-0.449,1.373-1.006,1.374l0,0c-0.562-0.002-1.014-0.615-1.016-1.368
				L171.099,5.713c0.001-0.757,0.449-1.37,1.009-1.372l0,0c0.557-0.002,1.013,0.612,1.013,1.37L173.486,200.238z"/>
			
				<linearGradient id="SVGID_2_" gradientUnits="userSpaceOnUse" x1="-541.7122" y1="117.8958" x2="-485.4461" y2="-38.342" gradientTransform="matrix(1 -0.0019 -0.0019 -1 684.188 131.9064)">
				<stop  offset="0" style="stop-color:#FFFFFF"/>
				<stop  offset="0.4545" style="stop-color:#F8F6CF"/>
				<stop  offset="0.7084" style="stop-color:#F5F2B9"/>
			</linearGradient>
			<path fill="url(#SVGID_2_)" d="M172.109,4.34c-1.113,0.004-1.515,0.764-1.513,2.691c0.005,1.924-1.916,161.287-2.106,167.618
				c-0.005,0.134-0.008,0.278-0.011,0.417c0.209,12.948,1.553,6.568,1.709-10.27C170.354,146.73,172.116,8.686,172.109,4.34z"/>
			
				<linearGradient id="SVGID_3_" gradientUnits="userSpaceOnUse" x1="10313.9355" y1="119.1355" x2="10370.2021" y2="-37.1031" gradientTransform="matrix(-1 0.0019 -0.0019 -1 10516.2422 114.243)">
				<stop  offset="0" style="stop-color:#FFFFFF"/>
				<stop  offset="0.4545" style="stop-color:#F8F6CF"/>
				<stop  offset="0.7084" style="stop-color:#F5F2B9"/>
			</linearGradient>
			<path fill="url(#SVGID_3_)" d="M172.109,4.34c1.11-0.001,1.515,0.759,1.517,2.685c0.005,1.926,2.528,161.278,2.743,167.604
				c0.004,0.141,0.01,0.28,0.008,0.419c-0.155,12.951-1.522,6.578-1.744-10.259C174.398,146.721,172.115,8.687,172.109,4.34z"/>
		</g>
	</g>
</g>
<linearGradient id="SVGID_4_" gradientUnits="userSpaceOnUse" x1="-529.5134" y1="-15.9348" x2="-529.5134" y2="-56.187" gradientTransform="matrix(0.9998 -0.0208 -0.0208 -0.9998 687.9713 126.5359)">
	<stop  offset="0" style="stop-color:#FFFFFF"/>
	<stop  offset="0.0057" style="stop-color:#FFFDF8"/>
	<stop  offset="0.0142" style="stop-color:#FFF8E4"/>
	<stop  offset="0.0245" style="stop-color:#FFF0C3"/>
	<stop  offset="0.036" style="stop-color:#FFE495"/>
	<stop  offset="0.0487" style="stop-color:#FFD55A"/>
	<stop  offset="0.0622" style="stop-color:#FFC314"/>
	<stop  offset="0.0658" style="stop-color:#FFBE00"/>
	<stop  offset="0.1673" style="stop-color:#FF2309"/>
	<stop  offset="0.1773" style="stop-color:#E92108"/>
	<stop  offset="0.1991" style="stop-color:#C01C06"/>
	<stop  offset="0.2228" style="stop-color:#9C1804"/>
	<stop  offset="0.2482" style="stop-color:#7D1503"/>
	<stop  offset="0.2759" style="stop-color:#641202"/>
	<stop  offset="0.3067" style="stop-color:#511001"/>
	<stop  offset="0.3425" style="stop-color:#430E00"/>
	<stop  offset="0.3876" style="stop-color:#3B0D00"/>
	<stop  offset="0.4726" style="stop-color:#390D00"/>
	<stop  offset="0.5475" style="stop-color:#3C0D00"/>
	<stop  offset="0.602" style="stop-color:#450E01"/>
	<stop  offset="0.6501" style="stop-color:#551001"/>
	<stop  offset="0.6945" style="stop-color:#6C1302"/>
	<stop  offset="0.7363" style="stop-color:#891604"/>
	<stop  offset="0.7762" style="stop-color:#AC1A05"/>
	<stop  offset="0.8139" style="stop-color:#D61E07"/>
	<stop  offset="0.8459" style="stop-color:#FF2309"/>
	<stop  offset="0.8633" style="stop-color:#FF5006"/>
	<stop  offset="0.8843" style="stop-color:#FF7F04"/>
	<stop  offset="0.9029" style="stop-color:#FFA102"/>
	<stop  offset="0.9182" style="stop-color:#FFB600"/>
	<stop  offset="0.9282" style="stop-color:#FFBE00"/>
	<stop  offset="1" style="stop-color:#FFFFFF"/>
</linearGradient>
<path fill="url(#SVGID_4_)" d="M166.605,190.357c-0.088-0.021-0.178-0.044-0.268-0.065c-8.587-2.131-14.918-8.843-15.087-16.925
	c-0.17-8.23,6.101-15.308,14.833-17.672c0.405-0.118,1.574-0.441,1.242-2.074c-0.243-1.199-1.854-1.074-2.317-0.91
	c-8.429,3.048-14.369,11.207-14.174,20.665c0.191,9.206,6.146,16.939,14.344,19.83c0.67,0.223,2.085,0.16,2.468-0.681
	C168.221,191.26,167.016,190.478,166.605,190.357z"/>
<linearGradient id="SVGID_5_" gradientUnits="userSpaceOnUse" x1="-503.5183" y1="-15.9373" x2="-503.5183" y2="-56.1889" gradientTransform="matrix(0.9998 -0.0208 -0.0208 -0.9998 687.9713 126.5359)">
	<stop  offset="0" style="stop-color:#FFFFFF"/>
	<stop  offset="0.1573" style="stop-color:#FFBE00"/>
	<stop  offset="0.3066" style="stop-color:#C35509"/>
	<stop  offset="0.532" style="stop-color:#541700"/>
	<stop  offset="0.5754" style="stop-color:#571900"/>
	<stop  offset="0.6069" style="stop-color:#601D00"/>
	<stop  offset="0.6347" style="stop-color:#702600"/>
	<stop  offset="0.6604" style="stop-color:#873200"/>
	<stop  offset="0.6846" style="stop-color:#A44100"/>
	<stop  offset="0.7077" style="stop-color:#C75400"/>
	<stop  offset="0.7295" style="stop-color:#F16900"/>
	<stop  offset="0.7362" style="stop-color:#FF7100"/>
	<stop  offset="0.8927" style="stop-color:#FFBE00"/>
	<stop  offset="1" style="stop-color:#FFFFFF"/>
</linearGradient>
<path fill="url(#SVGID_5_)" d="M177.768,192.313c0.42,0.822,1.835,0.826,2.494,0.577c8.071-3.229,13.695-11.203,13.504-20.408
	c-0.197-9.46-6.474-17.362-15.022-20.058c-0.469-0.143-2.082-0.202-2.274,1.009c-0.266,1.642,0.917,1.919,1.326,2.018
	c8.821,1.998,15.384,8.81,15.556,17.037c0.168,8.084-5.881,15.055-14.37,17.543c-0.087,0.022-0.177,0.048-0.262,0.074
	C178.312,190.245,177.14,191.075,177.768,192.313z"/>
</svg>
