<?xml version="1.0" encoding="utf-8"?>
<!-- Generator: Adobe Illustrator 16.0.4, SVG Export Plug-In . SVG Version: 6.00 Build 0)  -->
<!DOCTYPE svg PUBLIC "-//W3C//DTD SVG 1.1//EN" "http://www.w3.org/Graphics/SVG/1.1/DTD/svg11.dtd">
<svg version="1.1" id="Layer_1" xmlns="http://www.w3.org/2000/svg" xmlns:xlink="http://www.w3.org/1999/xlink" x="0px" y="0px"
	 width="68.354px" height="51.926px" viewBox="0 0 68.354 51.926" enable-background="new 0 0 68.354 51.926" xml:space="preserve">
<g>
	<g>
		<rect x="0" y="-0.001" fill="none" width="68.354" height="51.928"/>
	</g>
</g>
<g>
	<polygon fill="#A7A7A7" enable-background="new    " points="55.339,29.332 53.471,33.775 51.6,29.332 49.507,29.332 
		51.865,34.666 50.608,34.666 50.608,35.781 52.365,35.781 52.365,36.922 50.608,36.922 50.608,38.029 52.365,38.029 52.365,40.357 
		54.477,40.357 54.477,38.029 56.233,38.029 56.233,36.922 54.477,36.922 54.477,35.781 56.233,35.781 56.233,34.666 54.961,34.666 
		57.318,29.332 	"/>
	<g>
		<ellipse fill="#A7A7A7" cx="29.265" cy="20.292" rx="1.47" ry="0.748"/>
		<path fill="#A7A7A7" d="M10.292,25.059c2.302-0.084,5.964-0.154,7.229-0.157c-0.032,2.317,3.998,3.051,5.22,3.051
			c1.222,0,2.315,0,3.689,0c1.375,0,2.287-0.689,2.287-2.378c0-1.692-0.35-3.137-0.35-3.137c-0.32-0.718-1.079-0.814-2.823-0.814
			c-1.741,0-4.506,0-5.425,0c-2.254,0-2.509,0.737-2.664,1.502c-0.166-0.315-0.459-0.362-0.856-0.465
			c-0.396-0.109-5.043-1.349-6.115-1.67c-1.075-0.317-3.122-0.988-3.437,0.091c-0.309,1.08-0.801,2.985,0.807,2.985
			C7.793,25.025,8.474,25.123,10.292,25.059z M18.23,22.937c0.311-0.496,0.809-0.828,1.737-0.814c1.24,0.019,5.506,0.128,6.26,0.193
			c0.754,0.064,1.383,0.31,1.474,1.426s0.336,2.545-0.47,3.073c-0.806,0.523-3.786,0.406-4.965,0.279
			c-1.18-0.125-3.848-0.681-4.037-1.738C18.043,24.301,17.917,23.432,18.23,22.937z"/>
	</g>
	<path fill="#A7A7A7" enable-background="new    " d="M29.265,36.031l-5.866-0.033c-1.749-0.07-4.561-0.211-5.132-0.322
		c-0.091-0.02-0.188-0.037-0.293-0.061c-0.749-0.146-1.773-0.357-3.391-0.357c-0.246,0-0.501,0.004-0.747,0.012
		c-3.722-0.066-7.97-0.172-8.72-0.27c-0.362-0.045-0.4-0.051-0.445-0.826l-0.037-0.672c-0.103-1.734-0.206-3.531-0.218-4.68
		c-0.03-2.148,0.414-7.164,1.011-8.14c1.243-2.017,5.206-4.179,5.684-4.434h18.155h18.152c0.419,0.224,3.521,1.923,5.111,3.702
		c0.307-0.053,0.614-0.099,0.926-0.133c0.094-0.043,0.186-0.09,0.279-0.13c-1.126-1.488-3.251-2.908-4.618-3.728h0.621
		c0.536,0,2.175,0,2.175-1.491c0-1.136-1.279-1.469-1.957-1.487c-0.007,0-0.728-0.003-1.341,0c-0.391,0.005-1.205,0.013-1.215,0.85
		c-1.335-2.556-3.722-5.763-5.584-6.999c-0.63-0.42-1.384-0.443-1.468-0.444c-4.723-0.351-10.979-0.353-11.042-0.353h-0.04h-0.042
		c-0.064,0-6.322,0.003-11.043,0.353c-0.084,0.002-0.837,0.024-1.468,0.444c-1.862,1.238-4.248,4.443-5.583,6.999
		c-0.011-0.837-0.823-0.845-1.216-0.85c-0.613-0.003-1.333,0-1.34,0C7.897,13,6.618,13.332,6.618,14.468
		c0,1.491,1.636,1.491,2.174,1.491h0.621c-1.497,0.897-3.906,2.513-4.914,4.15c-0.885,1.438-1.197,7.119-1.178,8.727
		c0.014,1.174,0.12,2.979,0.222,4.732L3.7,36.475c0.057,1.561,0.775,2.289,2.26,2.289h5.869c2.531,0,2.556-2.363,2.559-2.41
		c0.066,0,0.133,0,0.196,0c1.51,0,2.473,0.191,3.188,0.338c0.103,0.02,0.199,0.039,0.292,0.057c0.876,0.17,5.259,0.34,5.309,0.344
		l5.817,0.033h0.075h0.072l5.814-0.033c0.035-0.002,2.02-0.08,3.588-0.182c0.36-0.412,0.769-0.82,1.225-1.191
		c-0.932,0.102-3.297,0.219-4.839,0.279L29.265,36.031z M17.316,7.737c0.357-0.236,0.847-0.257,0.91-0.26
		c4.715-0.351,10.934-0.352,10.997-0.352h0.042h0.039c0.062,0,6.28,0.004,10.996,0.352c0.064,0.003,0.553,0.024,0.91,0.26
		c1.821,1.213,4.222,4.534,5.429,7.014H29.265H11.886C13.094,12.272,15.496,8.95,17.316,7.737z"/>
	<path fill="#A7A7A7" enable-background="new    " d="M40.839,29.385c-1.069,0.213-1.798,0.508-2.048,0.986l-9.512,0.041
		l-9.513-0.041c-0.442-0.838-2.356-1.119-5.03-1.369c-2.671-0.25-4.248-0.434-5.001-0.465c-0.757-0.031-1.69-0.225-1.632,1.24
		c0.057,1.471,0.179,2.469,1.825,2.662c1.643,0.193,4.571,0.361,6.317,0.492c1.742,0.133,4.155,0.438,3.959-0.322
		c1.684-0.074,0.682,0.564,1.999,0.602c1.085,0.029,5.56,0.014,7.072,0.004c1.517,0.01,5.984,0.025,7.071-0.004
		c1.319-0.037,0.313-0.676,2-0.602c-0.111,0.436,0.626,0.521,1.602,0.49C40.088,31.805,40.393,30.561,40.839,29.385z"/>
	<path fill="#A7A7A7" enable-background="new    " d="M41.005,24.902c0.522,0.003,1.451,0.016,2.522,0.034
		c1.524-1.852,3.487-3.333,5.729-4.282c-0.445,0.104-0.878,0.239-1.216,0.337c-1.073,0.321-5.72,1.562-6.114,1.671
		c-0.396,0.102-0.689,0.148-0.856,0.462c-0.152-0.764-0.409-1.498-2.662-1.498c-0.918,0-3.686,0-5.427,0
		c-1.742,0-2.501,0.092-2.821,0.812c0,0-0.35,1.445-0.35,3.135c0,1.689,0.912,2.38,2.285,2.38c1.376,0,2.469,0,3.689,0
		C37.009,27.955,41.04,27.219,41.005,24.902z M36.263,27.094c-1.181,0.127-4.159,0.244-4.965-0.279
		c-0.807-0.529-0.559-1.957-0.473-3.073c0.092-1.115,0.722-1.362,1.476-1.426c0.753-0.065,5.019-0.177,6.26-0.195
		c0.927-0.012,1.426,0.318,1.734,0.817c0.311,0.495,0.188,1.364,0,2.419C40.108,26.412,37.443,26.965,36.263,27.094z"/>
	<path fill="#A7A7A7" enable-background="new    " d="M53.434,45.891c-6.396,0-11.599-5.203-11.599-11.6s5.202-11.599,11.599-11.599
		c6.395,0,11.6,5.202,11.6,11.599S59.829,45.891,53.434,45.891z M53.434,23.788c-5.791,0-10.504,4.712-10.504,10.503
		s4.712,10.504,10.504,10.504c5.79,0,10.502-4.711,10.502-10.504C63.936,28.5,59.224,23.788,53.434,23.788z"/>
</g>
</svg>
