<?xml version="1.0" encoding="utf-8"?>
<!-- Generator: Adobe Illustrator 16.0.4, SVG Export Plug-In . SVG Version: 6.00 Build 0)  -->
<!DOCTYPE svg PUBLIC "-//W3C//DTD SVG 1.1//EN" "http://www.w3.org/Graphics/SVG/1.1/DTD/svg11.dtd">
<svg version="1.1" id="Layer_1" xmlns="http://www.w3.org/2000/svg" xmlns:xlink="http://www.w3.org/1999/xlink" x="0px" y="0px"
	 width="68.354px" height="51.926px" viewBox="0 0 68.354 51.926" enable-background="new 0 0 68.354 51.926" xml:space="preserve">
<g>
	<g>
		<rect x="0" y="-0.001" fill="none" width="68.354" height="51.928"/>
	</g>
</g>
<g>
	<g>
		<g>
			<path fill="#A7A7A7" d="M56.962,34.405c-0.62-1.45-2.558-2.519-4.933-1.654c-1.307,0.479-7.823,2.871-8.567,3.218
				c-0.742,0.35-1.479-0.015-1.479-0.015s-1.063-0.389-1.738-0.446l-0.301-0.022c-1.694-0.141-5.324-0.75-10.749-1.447
				c-1.737-1.054-3.782-1.504-5.544-1.952c-0.002-0.005-0.384-0.074-0.386-0.079c-1.779-0.15-3.191,0.112-4.979,0.676
				c-4.916,1.547-6.964,7.056-7.048,7.291c-0.167,0.459,0.073,0.969,0.528,1.138c0.461,0.174,0.971-0.072,1.142-0.528
				c0.018-0.051,1.845-4.923,5.911-6.203c3.667-1.152,7.197-0.628,10.802,1.597l0.163,0.102l0.191,0.024
				c4.776,0.618,8.239,0.898,9.714,1.019l0.258,0.021c0.682,0.054,1.123,0.284,1.392,0.586c0.045,0.12,0.114,0.221,0.196,0.306
				c0.105,0.221,0.151,0.455,0.133,0.688c-0.045,0.672-0.543,1.327-1.551,1.277l-16.409-0.813c-0.016-0.005-0.034-0.005-0.048-0.005
				c-0.47,0-0.86,0.366-0.885,0.842c-0.025,0.496,0.356,0.911,0.844,0.935l16.412,0.814c0.066,0.005,0.132,0.007,0.199,0.007
				c1.963,0,3.117-1.49,3.214-2.939c0.018-0.307-0.007-0.621-0.078-0.931c2.2-0.828,7.839-2.956,9.274-3.482
				c1.429-0.524,2.431,0.077,2.686,0.675c0.257,0.609-0.183,1.269-1.186,1.756c-4.856,2.377-15.515,7.45-18.351,8.604
				c-2.431,0.987-4.829,0.811-8.406,0.143c-4.702-0.889-8.279,1.029-9.16,1.771c-0.376,0.317-0.424,0.876-0.107,1.254
				c0.176,0.21,0.425,0.315,0.679,0.315c0.201,0,0.408-0.069,0.571-0.206c0.584-0.489,3.597-2.158,7.686-1.391
				c3.82,0.719,6.585,0.913,9.406-0.24c2.871-1.169,13.583-6.27,18.465-8.652C57.073,37.4,57.494,35.658,56.962,34.405z"/>
		</g>
	</g>
	<g>
		<ellipse fill="#A7A7A7" cx="34.175" cy="14.865" rx="1.154" ry="0.586"/>
		<path fill="#A7A7A7" d="M19.299,18.604c1.805-0.068,4.674-0.121,5.667-0.124c-0.024,1.815,3.135,2.391,4.093,2.391
			c0.959,0,1.816,0,2.895,0s1.793-0.541,1.793-1.865s-0.274-2.458-0.274-2.458c-0.25-0.562-0.846-0.636-2.213-0.636
			c-1.365,0-3.534,0-4.253,0c-1.768,0-1.968,0.576-2.09,1.177c-0.128-0.247-0.36-0.286-0.67-0.363
			c-0.311-0.087-3.955-1.059-4.795-1.31c-0.843-0.249-2.448-0.775-2.694,0.07c-0.243,0.846-0.629,2.34,0.632,2.34
			C17.339,18.576,17.872,18.652,19.299,18.604z M25.524,16.939c0.243-0.39,0.634-0.649,1.361-0.639
			c0.973,0.015,4.319,0.101,4.909,0.151c0.591,0.049,1.085,0.244,1.155,1.118c0.073,0.875,0.263,1.995-0.369,2.409
			c-0.63,0.412-2.969,0.319-3.892,0.219c-0.925-0.099-3.016-0.534-3.164-1.362C25.375,18.009,25.277,17.326,25.524,16.939z"/>
		<path fill="#A7A7A7" d="M48.899,15.413c-0.843,0.25-4.483,1.222-4.793,1.311c-0.312,0.079-0.543,0.115-0.672,0.363
			c-0.12-0.6-0.321-1.173-2.088-1.173c-0.719,0-2.889,0-4.255,0c-1.367,0-1.962,0.072-2.212,0.634c0,0-0.275,1.134-0.275,2.458
			s0.716,1.866,1.793,1.866c1.078,0,1.936,0,2.893,0c0.958,0,4.119-0.577,4.092-2.392c0.994,0.001,3.864,0.056,5.67,0.124
			c1.426,0.051,1.961-0.026,1.911-0.777c1.259,0,0.874-1.496,0.632-2.343C51.347,14.641,49.74,15.164,48.899,15.413z M42.824,18.835
			c-0.146,0.828-2.236,1.264-3.162,1.362c-0.925,0.101-3.261,0.192-3.894-0.218c-0.633-0.414-0.44-1.534-0.37-2.408
			c0.072-0.877,0.565-1.07,1.157-1.12c0.591-0.051,3.937-0.138,4.907-0.152c0.728-0.011,1.118,0.249,1.361,0.64
			C43.069,17.326,42.971,18.009,42.824,18.835z"/>
		<path fill="#A7A7A7" d="M49.507,21.331c-0.589,0.024-1.827,0.169-3.92,0.364c-2.098,0.196-3.597,0.416-3.941,1.071l-7.46,0.034
			l-7.46-0.034c-0.345-0.656-1.847-0.875-3.942-1.071c-2.094-0.195-3.332-0.34-3.923-0.364c-0.591-0.026-1.324-0.177-1.279,0.973
			c0.045,1.152,0.14,1.936,1.431,2.085c1.288,0.152,3.586,0.284,4.954,0.388c1.366,0.103,3.258,0.343,3.106-0.255
			c1.32-0.056,0.534,0.444,1.566,0.474c0.853,0.021,4.359,0.009,5.546,0.003c1.187,0.006,4.694,0.018,5.545-0.003
			c1.032-0.029,0.246-0.529,1.569-0.474c-0.152,0.598,1.738,0.357,3.107,0.255c1.365-0.104,3.662-0.236,4.953-0.388
			c1.287-0.151,1.384-0.933,1.428-2.085C50.833,21.151,50.101,21.304,49.507,21.331z"/>
		<path fill="#A7A7A7" d="M53.592,14.721c-0.789-1.285-2.678-2.551-3.853-3.254h0.486c0.422,0,1.706,0,1.706-1.17
			c0-0.889-1.004-1.151-1.534-1.167c-0.005,0-0.572-0.001-1.051,0c-0.306,0.004-0.945,0.01-0.954,0.668
			c-1.048-2.006-2.918-4.519-4.377-5.489c-0.494-0.329-1.086-0.349-1.15-0.35c-3.704-0.273-8.611-0.277-8.659-0.277h-0.032h-0.032
			c-0.051,0-4.955,0.002-8.659,0.277c-0.066,0.001-0.656,0.021-1.151,0.35c-1.459,0.971-3.331,3.483-4.377,5.489
			c-0.01-0.658-0.647-0.663-0.955-0.668c-0.479-0.001-1.045,0-1.05,0c-0.53,0.015-1.535,0.277-1.535,1.167
			c0,1.17,1.284,1.17,1.706,1.17h0.487c-1.173,0.704-3.062,1.97-3.853,3.254c-0.693,1.125-0.938,5.583-0.923,6.843
			c0.012,0.919,0.094,2.336,0.174,3.709l0.121,2.28c0.045,1.223,0.608,1.793,1.773,1.793h4.602c1.985,0,2.005-1.853,2.007-1.891
			c0.052,0,0.104,0,0.155,0c1.184,0,1.938,0.15,2.5,0.267c0.08,0.014,0.155,0.031,0.229,0.043c0.687,0.133,4.123,0.268,4.163,0.268
			l4.561,0.026h0.059h0.057l4.56-0.026c0.041,0,3.478-0.134,4.167-0.268c0.07-0.012,0.146-0.029,0.227-0.043
			c0.562-0.116,1.316-0.267,2.502-0.267c0.05,0,0.103,0,0.152,0c0.005,0.038,0.027,1.891,2.006,1.891h4.604
			c1.163,0,1.728-0.57,1.772-1.793l0.123-2.28c0.08-1.374,0.16-2.791,0.175-3.709C54.534,20.304,54.287,15.846,53.592,14.721z
			 M24.806,5.02c0.282-0.184,0.666-0.201,0.714-0.204c3.696-0.273,8.573-0.277,8.623-0.277h0.032h0.032
			c0.05,0,4.924,0.002,8.623,0.277c0.05,0.002,0.433,0.02,0.713,0.204c1.425,0.951,3.31,3.556,4.257,5.5H34.175H20.549
			C21.496,8.576,23.379,5.971,24.806,5.02z M53.658,21.553c-0.011,0.902-0.094,2.31-0.172,3.671l-0.028,0.525
			c-0.035,0.607-0.068,0.612-0.349,0.648c-0.59,0.073-3.919,0.159-6.838,0.211c-0.192-0.008-0.394-0.011-0.587-0.011
			c-1.269,0-2.072,0.165-2.659,0.28c-0.083,0.021-0.158,0.033-0.23,0.048c-0.448,0.087-2.653,0.199-4.023,0.255l-4.597,0.026
			l-4.599-0.026c-1.37-0.056-3.575-0.168-4.023-0.255c-0.073-0.015-0.147-0.026-0.23-0.048c-0.586-0.115-1.39-0.28-2.659-0.28
			c-0.193,0-0.394,0.003-0.584,0.011c-2.921-0.052-6.25-0.138-6.838-0.211c-0.284-0.037-0.314-0.041-0.35-0.648l-0.03-0.525
			c-0.079-1.361-0.16-2.769-0.17-3.671c-0.024-1.683,0.324-5.617,0.794-6.38c0.975-1.581,4.082-3.277,4.455-3.479h14.237h14.233
			c0.374,0.202,3.481,1.897,4.456,3.479C53.335,15.936,53.682,19.869,53.658,21.553z"/>
	</g>
</g>
</svg>
