<?xml version="1.0" encoding="utf-8"?>
<!-- Generator: Adobe Illustrator 16.0.4, SVG Export Plug-In . SVG Version: 6.00 Build 0)  -->
<!DOCTYPE svg PUBLIC "-//W3C//DTD SVG 1.1//EN" "http://www.w3.org/Graphics/SVG/1.1/DTD/svg11.dtd">
<svg version="1.1" id="Layer_1" xmlns="http://www.w3.org/2000/svg" xmlns:xlink="http://www.w3.org/1999/xlink" x="0px" y="0px"
	 width="68.354px" height="51.926px" viewBox="0 0 68.354 51.926" enable-background="new 0 0 68.354 51.926" xml:space="preserve">
<g>
	<g>
		<rect x="0" y="-0.001" fill="none" width="68.354" height="51.928"/>
	</g>
</g>
<g>
	<path fill="#A7A7A7" d="M53.593,19.767c-0.66-1.214-3.802-6.165-4.299-7.116c-0.503-0.949-1.255-2.48-2.708-3.067
		c-1.451-0.583-7.024-2.338-9.799-3.214c-2.777-0.876-4.019-0.583-5.698,0c-1.683,0.583-5.845,2.044-8.001,2.705
		c-2.158,0.658-3.031,1.897-3.678,3.083c-0.646,1.185-3.443,5.386-4.321,7.067c-0.874,1.683-1.827,2.631-1.459,5.045
		c0,0,0.658,4.235,1.459,8.961c0.806,4.723,1.828,4.916,3.361,6.231c1.536,1.316,4.822,3.872,6.722,5.287
		c1.897,1.415,3.068,1.358,5.698,1.358c2.63,0,7.014,0,8.591,0s2.516-0.582,4.709-2.295c2.192-1.719,5.329-4.279,6.663-5.425
		c1.331-1.149,1.953-1.995,2.246-3.421c0.293-1.427,1.172-6.316,1.611-9.021C55.124,23.245,54.249,20.979,53.593,19.767z
		 M47.022,13.317c0.118-0.358,0.266-0.698,0.441-1.027c0.053-0.106,0.122-0.239,0.283-0.128c0.131,0.078,0.171,0.224,0.236,0.342
		c0.695,1.2,1.386,2.406,2.076,3.611c0.521,0.884,1.042,1.777,1.56,2.665c0.287,0.499,0.575,0.997,0.861,1.497
		c0.04,0.07,0.081,0.141,0.108,0.221c0.11,0.271-0.021,0.446-0.313,0.414c-0.118-0.014-0.233-0.038-0.334-0.084
		c-1.397-0.604-5.336-2.25-5.789-2.716c-0.495-0.487-0.615-1.08-0.429-1.715c0.161-0.548,0.407-1.07,0.658-1.582
		C46.571,14.309,46.784,13.806,47.022,13.317z M24.58,19.019c-0.026-0.296-0.084-0.6-0.095-0.907
		c-0.031-0.989,0.688-1.56,1.685-1.436c0.558,0.075,1.115,0.132,1.674,0.196c0.715,0.082,1.433,0.167,2.146,0.24
		c0.677,0.067,1.354,0.132,2.024,0.224c0.616,0.085,1.231,0.126,1.845,0.208c0.404,0.053,0.82,0.053,1.213,0.126
		c0.665,0.118,1.335,0.13,2,0.225c0.622,0.088,1.251,0.149,1.876,0.218c0.755,0.083,1.516,0.162,2.27,0.249
		c0.251,0.033,0.501,0.095,0.67,0.299c0.169,0.208,0.139,0.523-0.116,0.77c-0.295,0.302-1.023,0.878-1.061,0.895
		c-0.006-0.002-0.745,0.702-1.141,1.015c-0.441,0.353-3.478,2.959-4.488,3.796c-0.75,0.624-1.491,1.255-2.229,1.896
		c-0.431,0.372-0.875,0.733-1.321,1.103c0,0.005,0,0.005,0,0.005c-0.331,0.305-0.671,0.593-1.024,0.869
		c-0.366,0.274-0.686,0.605-1.034,0.899c-0.697,0.598-1.391,1.198-2.098,1.785c-0.214,0.178-1.22,0.291-1.368,0.053
		c-0.173-0.277-0.187-0.596-0.229-0.908c-0.087-0.729-0.195-1.463-0.239-2.194c-0.037-0.59-0.104-1.172-0.17-1.756
		c-0.084-0.76-0.14-1.522-0.222-2.28c-0.087-0.751-0.179-1.497-0.227-2.25c-0.042-0.675-0.152-1.346-0.22-2.019
		C24.646,19.901,24.619,19.462,24.58,19.019z M24.585,31.066c-0.007,0.179-0.045,0.342-0.187,0.463
		c-0.19,0.218-0.387,0.122-0.571,0.004c-0.321-0.204-0.571-0.488-0.839-0.74c-0.774-0.727-1.518-1.474-2.279-2.208
		c-0.889-0.866-1.784-1.715-2.681-2.578c-0.598-0.577-1.204-1.145-1.805-1.722c-0.788-0.769-0.721-1.69,0.168-2.361
		c0.128-0.092,1.159-0.86,1.549-1.155c1.175-0.885,2.359-1.76,3.543-2.628c0.307-0.222,0.591-0.495,1.014-0.478
		c0.336,0.014,0.604,0.191,0.727,0.509c0.159,0.408,0.159,0.848,0.198,1.272c0.081,0.773,0.136,1.554,0.239,2.323
		c0.052,0.385,0.086,0.772,0.116,1.165c0.039,0.593,0.119,1.184,0.187,1.778c0.047,0.385,0.085,0.775,0.114,1.166
		c0.058,0.752,0.156,1.497,0.242,2.247c0.066,0.574,0.081,1.154,0.156,1.733C24.527,30.253,24.604,30.655,24.585,31.066z
		 M27.913,32.827c0.4-0.392,0.835-0.741,1.258-1.105c0.931-0.789,1.862-1.583,2.801-2.368c0.788-0.658,3.709-3.147,4.385-3.725
		c1.401-1.184,2.804-2.37,4.21-3.557c0.022-0.022,0.045-0.036,0.077-0.053c0.353-0.347,0.723-0.67,1.14-0.944
		c0.279-0.184,0.406-0.135,0.451,0.143c-0.212,0.865-1.602,3.866-1.874,4.587c-0.468,1.23-1.016,2.424-1.521,3.638
		c-0.759,1.797-1.538,3.582-2.286,5.377c-0.38,0.928-1.537,1.476-2.5,1.128c-0.598-0.222-2.956-0.89-3.518-1.047
		c-0.601-0.172-2.173-0.634-2.348-0.707C27.561,33.934,27.425,33.298,27.913,32.827z M38.037,34.391
		c1.148-2.701,2.297-5.393,3.446-8.087c0.142-0.334,0.253-0.682,0.435-1.001l0,0c0,0,0.657-1.604,1.018-2.393
		c0.234-0.61,0.47-1.226,0.784-1.793c0.263-0.475,0.656-0.475,0.929-0.011c0.108,0.174,0.239,0.502,0.263,0.703
		c0.244,0.544,0.315,0.976,0.504,1.545c0.18,0.499,0.345,1,0.503,1.508c0.103,0.329,0.215,0.668,0.339,0.995
		c0.146,0.395,0.267,0.803,0.391,1.21c0.334,0.843,0.593,1.707,0.844,2.574c0.234,0.819-0.245,1.757-1.033,2.126
		c-1.763,0.829-3.531,1.636-5.301,2.457c-0.785,0.362-1.564,0.738-2.372,1.066c-0.121,0.059-0.245,0.126-0.393,0.115l0,0
		c-0.332,0.02-0.499-0.137-0.497-0.463C37.895,34.745,37.962,34.565,38.037,34.391z M35.694,6.852c0.081,0,0.166,0,0.246,0
		c0.521,0.254,1.072,0.404,1.604,0.608c1.122,0.421,2.248,0.843,3.379,1.24c0.581,0.21,1.162,0.396,1.729,0.636
		c0.479,0.222,0.99,0.34,1.488,0.52c0.587,0.207,1.158,0.466,1.764,0.646c0.503,0.15,0.577,0.318,0.501,0.835
		c-0.04,0.267-0.34,1.153-0.418,1.331c-0.273,0.635-0.558,1.267-0.83,1.896c-0.13,0.409-0.281,0.811-0.532,1.167
		c-0.179,0.26-0.436,0.421-0.775,0.38l0,0c-0.368-0.015-0.621-0.222-0.844-0.481c-1.978-2.314-3.95-4.636-5.927-6.955
		c-0.411-0.477-0.824-0.955-1.233-1.446C35.746,7.122,35.653,7.017,35.694,6.852z M33.735,7.403c0.294-0.175,0.571-0.129,0.86,0.187
		c0.399,0.428,0.776,0.874,1.146,1.317c0.883,1.036,1.764,2.07,2.633,3.108c0.543,0.646,1.068,1.311,1.619,1.956
		c0.544,0.654,1.113,1.296,1.675,1.939c0.149,0.173,0.287,0.348,0.37,0.562c0.12,0.317-0.009,0.55-0.332,0.648
		c-0.323,0.103-0.649,0.015-0.968-0.017c-0.849-0.088-1.701-0.19-2.548-0.285c-0.678-0.081-1.356-0.161-2.031-0.234
		c-0.834-0.093-1.666-0.18-2.501-0.276c-0.596-0.066-1.2-0.14-1.8-0.213c-0.108-0.013-0.216-0.025-0.323-0.034
		c-0.515-0.022-1.017-0.113-1.523-0.166c-0.545-0.056-1.093-0.124-1.636-0.182c-0.608-0.075-1.218-0.135-1.828-0.208
		c-0.048-0.002-0.095-0.025-0.145-0.042c-0.563-0.193-0.696-0.669-0.284-1.1c0.37-0.386,0.766-0.741,1.154-1.106
		c0.279-0.263,0.574-0.506,0.854-0.766c0.989-0.917,1.971-1.832,2.962-2.751c0.775-0.716,1.553-1.429,2.33-2.142
		C33.514,7.52,33.609,7.442,33.735,7.403z M22.036,10.989c-0.005-0.273,0.094-0.407,0.404-0.524
		c1.267-0.462,2.535-0.922,3.799-1.379c1.819-0.664,3.64-1.326,5.463-1.988c0.017-0.008,0.031-0.018,0.048-0.018
		c0.105-0.014,0.229-0.141,0.309,0.002c0.07,0.127-0.063,0.194-0.135,0.261c-0.497,0.457-0.983,0.912-1.475,1.366
		c-0.597,0.547-1.309,1.212-2.033,1.879c-0.092,0.087-0.187,0.175-0.281,0.261c-0.92,0.85-1.809,1.667-2.386,2.2
		c-0.137,0.135-0.282,0.26-0.418,0.387c-0.116,0.101-0.209,0.186-0.24,0.21c-0.026,0.025-0.074,0.043-0.113,0.064
		c-0.059,0.04-0.111,0.095-0.174,0.131c-0.423,0.243-0.876,0.226-1.255,0.02c-0.017-0.004-0.039-0.004-0.061-0.011
		c-0.423-0.148-0.962-1.307-1.207-1.865c-0.017-0.039-0.037-0.076-0.048-0.111c-0.019-0.042-0.037-0.083-0.048-0.111
		c-0.156-0.367-0.158-0.781-0.158-0.781h0.008L22.036,10.989L22.036,10.989z M15.679,20.38c1.124-1.949,2.256-3.889,3.379-5.832
		c0.392-0.679,0.775-1.367,1.179-2.039c0.273-0.456,0.54-0.471,0.858-0.045c0.068,0.083,0.122,0.181,0.181,0.274
		c0.005,0,0.008-0.002,0.011-0.002c0,0,0.042,0.07,0.096,0.168c0.085,0.133,0.157,0.266,0.229,0.409
		c0.469,0.818,1.279,2.271,1.316,2.519c0.05,0.347-1.316,1.112-1.883,1.484c-0.571,0.376-2.664,1.616-2.664,1.616
		c-0.635,0.472-1.269,0.945-1.906,1.417c-0.15,0.112-0.299,0.23-0.452,0.343c-0.116,0.079-0.271,0.142-0.392,0.021
		C15.508,20.596,15.623,20.476,15.679,20.38z M16.481,35.327c-0.103-0.238-0.153-0.49-0.17-0.75c0.002,0,0,0,0.002,0
		c-0.127-0.703-0.264-1.41-0.385-2.114c-0.069-0.438-0.19-0.858-0.209-1.297c-0.153-0.548-0.226-1.114-0.332-1.673
		c-0.176-0.914-0.305-1.83-0.474-2.739c-0.094-0.497-0.131-1.001-0.284-1.486c0-0.149,0-0.297,0-0.451
		c0.1-0.165,0.222-0.174,0.364-0.047c0.73,0.704,1.455,1.4,2.181,2.105c0.521,0.491,1.042,0.983,1.567,1.482
		c1.091,1.055,2.178,2.107,3.269,3.16c0.357,0.349,0.717,0.692,1.08,1.041c0.075,0.066,0.144,0.136,0.204,0.221
		c0.42,0.587,0.23,1.092-0.412,1.395c-0.629,0.244-1.292,0.387-1.937,0.6c-0.15,0.043-0.303,0.078-0.457,0.109
		c-0.64,0.214-2.758,0.836-3.177,0.896C16.918,35.841,16.648,35.698,16.481,35.327z M26.026,44.335
		c-1.324-1.099-2.647-2.204-3.967-3.313c-1.301-1.089-2.601-2.178-3.908-3.268c-0.008-0.011-0.013-0.018-0.019-0.022
		c-0.477-0.4-0.45-0.562,0.124-0.829h0.002c0.116-0.093,0.258-0.145,0.402-0.188c0.587-0.176,1.181-0.348,1.774-0.52
		c0.579-0.193,1.163-0.365,1.752-0.517c0.861-0.281,1.719-0.573,2.626-0.691c0.052-0.002,0.116,0.004,0.172,0.011l0,0
		c0.639-0.027,1.281-0.084,1.905,0.123c0,0,0,0,0-0.004c0.7,0.201,4.166,1.202,5.199,1.494c0.371,0.111,0.741,0.213,1.111,0.325
		c0.136,0.038,0.275,0.051,0.391,0.15c0-0.004,0-0.004,0-0.004c0.721,0.436,0.8,0.991,0.198,1.585
		c-0.264,0.26-1.452,1.349-1.752,1.657c-0.66,0.681-1.346,1.335-2.026,1.992c-0.715,0.684-1.403,1.408-2.171,2.037
		C27.194,44.885,26.68,44.885,26.026,44.335z M39.698,45.319c-3.423,0.004-6.847,0.004-10.267,0.004c-0.142,0-0.301,0-0.376-0.135
		c-0.087-0.166,0.033-0.289,0.136-0.397c0.638-0.665,3.75-3.625,4.628-4.477c0.381-0.387,0.749-0.78,1.171-1.113
		c0.447-0.354,1.022-0.378,1.454-0.092c0.385,0.212,0.573,0.582,0.787,0.935c0.575,0.962,1.146,1.925,1.733,2.878
		c0.12,0.202,0.223,0.405,0.335,0.602c0.32,0.4,0.565,0.836,0.735,1.318C40.152,45.166,40.034,45.319,39.698,45.319z M40.74,43.498
		c-0.037-0.053-0.063-0.119-0.095-0.173c-0.659-1.075-1.326-2.153-1.991-3.231c-0.233-0.379-0.471-0.765-0.701-1.153
		c-0.178-0.312-0.282-0.644-0.211-1.018c0.024-0.497,0.282-0.854,0.688-1.087c0.522-0.308,1.086-0.546,1.654-0.775
		c1.313-0.615,2.627-1.224,3.937-1.845c0.566-0.263,1.131-0.519,1.696-0.782c0.192-0.087,0.386-0.168,0.594-0.202
		c0.277-0.037,0.449,0.124,0.439,0.398c-0.009,0.211-0.09,0.391-0.184,0.567c-1.409,2.66-4.551,8.452-4.829,9.071
		C41.455,43.89,41.075,43.99,40.74,43.498z M50.31,37.557c-0.796,0.67-1.596,1.335-2.39,2.008c-1.324,1.106-2.642,2.208-3.966,3.314
		c-0.116,0.09-0.24,0.183-0.373,0.249c-0.155,0.081-0.239,0.02-0.221-0.159c0.017-0.078,0.038-0.167,0.071-0.234
		c0.286-0.627,0.604-1.222,0.946-1.812c0.388-0.733,0.767-1.47,1.154-2.206c0.78-1.468,1.552-2.939,2.327-4.41
		c0.091-0.166,0.188-0.312,0.309-0.456c0.283-0.333,0.843-0.306,1.111,0.024c0.05,0.062,0.111,0.127,0.146,0.2
		c0.244,0.482,0.49,0.967,0.729,1.446c0.246,0.396,0.394,0.823,0.499,1.262C50.735,37.128,50.549,37.354,50.31,37.557z
		 M53.705,24.465c-0.159,1.469-1.715,9.956-1.825,10.406c0,0,0-0.006,0,0c-0.011,0.042-0.014,0.088-0.027,0.129
		c-0.058,0.256-0.184,0.289-0.387,0.12c-0.211-0.174-0.35-0.403-0.476-0.64c-0.303-0.579-2.003-4.267-2.435-5.579
		c-0.095-0.295-0.187-0.586-0.284-0.872c0-0.005-0.005-0.005-0.005-0.005c-0.474-1.406-0.942-2.814-1.413-4.219
		c-0.041-0.128-0.077-0.254-0.114-0.38c-0.261-0.691-0.484-1.4-0.699-2.11c-0.121-0.272-0.216-0.55-0.253-0.853
		c-0.056-0.477,0.244-0.777,0.721-0.678c0.056,0.006,0.117,0.034,0.174,0.05l-0.006-0.009c0,0,0.023,0.012,0.066,0.028
		c0.178,0.052,0.346,0.124,0.509,0.218c0.486,0.211,1.241,0.54,2.02,0.882c0.028,0.011,0.062,0.026,0.092,0.037
		c1.441,0.639,2.971,1.321,3.192,1.469c0.005,0,0.011,0.008,0.016,0.008c0.029,0.022,0.059,0.039,0.092,0.056
		c0.373,0.217,0.934,0.48,1.034,1.331c0,0.004,0.006,0.009,0.006,0.014c0,0.003,0,0.007,0,0.011
		C53.721,24.053,53.729,24.242,53.705,24.465z"/>
</g>
</svg>
