<?xml version="1.0" encoding="utf-8"?>
<!-- Generator: Adobe Illustrator 16.0.4, SVG Export Plug-In . SVG Version: 6.00 Build 0)  -->
<!DOCTYPE svg PUBLIC "-//W3C//DTD SVG 1.1//EN" "http://www.w3.org/Graphics/SVG/1.1/DTD/svg11.dtd">
<svg version="1.1" id="Layer_1" xmlns="http://www.w3.org/2000/svg" xmlns:xlink="http://www.w3.org/1999/xlink" x="0px" y="0px"
	 width="68.354px" height="51.926px" viewBox="0 0 68.354 51.926" enable-background="new 0 0 68.354 51.926" xml:space="preserve">
<g>
	<path fill="#A7A7A7" d="M49.091,12.524c-0.089-0.293-0.563-0.586-0.993-0.475l-6.171,1.689l-0.961-3.597l6.139-1.689
		c0.205-0.054,0.372-0.184,0.481-0.369c0.117-0.197,0.151-0.436,0.096-0.65c-0.146-0.529-0.602-0.77-1.056-0.66L40.5,8.461
		l-0.793-2.868L29.043,8.51c-0.305,0.078-0.535,0.251-0.676,0.5c-0.157,0.277-0.188,0.616-0.089,0.956l0.916,3.397l-0.652,0.225
		c-4.962,1.723-7.775,3.869-8.851,6.757c-1.879,4.988,1.954,10.955,6.77,17.672c0.471,0.656,1.218,1.645,2.137,2.86l0.843,1.119
		c0.994,1.318,2.112,2.802,3.259,4.337h4.692c-1.727-2.342-3.475-4.653-4.957-6.612c-1.287-1.687-2.359-3.099-2.943-3.927
		c-4.014-5.625-7.519-10.945-6.31-14.168c0.63-1.683,2.72-3.164,6.212-4.402l0.754-0.268l0.91,3.365
		c0.196,0.662,0.812,1.071,1.45,0.909l10.68-2.942l-0.792-2.866l6.145-1.69c0.43-0.129,0.702-0.587,0.583-0.997L49.091,12.524z"/>
</g>
</svg>
