<?xml version="1.0" encoding="utf-8"?>
<!-- Generator: Adobe Illustrator 16.0.4, SVG Export Plug-In . SVG Version: 6.00 Build 0)  -->
<!DOCTYPE svg PUBLIC "-//W3C//DTD SVG 1.1//EN" "http://www.w3.org/Graphics/SVG/1.1/DTD/svg11.dtd">
<svg version="1.1" id="Layer_1" xmlns="http://www.w3.org/2000/svg" xmlns:xlink="http://www.w3.org/1999/xlink" x="0px" y="0px"
	 width="68.354px" height="51.926px" viewBox="0 0 68.354 51.926" enable-background="new 0 0 68.354 51.926" xml:space="preserve">
<g>
	<g>
		<g>
			<g>
				<rect x="0.376" y="-0.037" fill="none" width="67.978" height="51.963"/>
			</g>
		</g>
	</g>
	<path fill="#A7A7A7" d="M33.175,47.966c-0.34,0-0.649-0.18-0.813-0.479c-5.103-9.107-10.697-19.441-12.544-26.779
		c-0.019-0.068-0.026-0.138-0.033-0.212c-0.243-1.032-0.371-2.092-0.371-3.123c0-7.589,6.174-13.766,13.765-13.766
		S46.944,9.781,46.944,17.37c0,1.026-0.131,2.085-0.379,3.158c0,0.029-0.013,0.093-0.026,0.164
		c-1.847,7.347-7.443,17.682-12.544,26.794C33.824,47.786,33.514,47.966,33.175,47.966z M33.175,5.473
		c-6.563,0-11.898,5.34-11.898,11.897c0,0.887,0.114,1.803,0.33,2.726c0.006,0.032,0.022,0.13,0.029,0.163
		c1.691,6.73,6.729,16.228,11.541,24.857c4.811-8.634,9.856-18.134,11.547-24.864c0.006-0.022,0.015-0.128,0.02-0.149
		c0.219-0.932,0.334-1.85,0.334-2.729C45.073,10.812,39.737,5.473,33.175,5.473z"/>
	<g>
		<path fill="#A7A7A7" d="M38.861,13.765c-0.037-0.117-0.227-0.233-0.398-0.189l-2.463,0.674l-0.383-1.436l2.449-0.674
			c0.082-0.021,0.148-0.074,0.191-0.147c0.047-0.079,0.061-0.174,0.039-0.259c-0.057-0.211-0.238-0.308-0.42-0.264l-2.445,0.674
			l-0.316-1.145l-4.258,1.164c-0.122,0.031-0.214,0.1-0.27,0.2c-0.062,0.11-0.075,0.246-0.035,0.382l0.364,1.355l-0.259,0.091
			c-1.981,0.688-3.104,1.544-3.534,2.697c-0.75,1.99,0.781,4.373,2.703,7.055c0.187,0.262,0.486,0.656,0.853,1.141l0.336,0.447
			c0.397,0.526,0.843,1.117,1.301,1.73h1.873c-0.688-0.934-1.387-1.857-1.978-2.639c-0.514-0.674-0.942-1.236-1.175-1.568
			c-1.602-2.244-3.001-4.367-2.519-5.654c0.252-0.671,1.086-1.263,2.48-1.758l0.301-0.106l0.363,1.343
			c0.078,0.265,0.324,0.428,0.579,0.364l4.264-1.174l-0.316-1.145l2.451-0.675c0.172-0.051,0.281-0.235,0.234-0.398L38.861,13.765z"
			/>
	</g>
</g>
</svg>
