<?xml version="1.0" encoding="utf-8"?>
<!-- Generator: Adobe Illustrator 16.0.0, SVG Export Plug-In . SVG Version: 6.00 Build 0)  -->
<!DOCTYPE svg PUBLIC "-//W3C//DTD SVG 1.1//EN" "http://www.w3.org/Graphics/SVG/1.1/DTD/svg11.dtd">
<svg version="1.1" id="Layer_1" xmlns="http://www.w3.org/2000/svg" xmlns:xlink="http://www.w3.org/1999/xlink" x="0px" y="0px"
	 width="110.5px" height="84.559px" viewBox="-139.198 0 110.5 84.559" enable-background="new -139.198 0 110.5 84.559"
	 xml:space="preserve">
<g>
	<path fill-rule="evenodd" clip-rule="evenodd" fill="#E3E3E3" d="M-81.971,15.041c0.078-0.002,0.156-0.004,0.234-0.007
		c0.071,0.057,0.143,0.114,0.214,0.171c-0.149,0-0.298,0-0.448,0C-81.971,15.15-81.971,15.096-81.971,15.041z"/>
	<path fill-rule="evenodd" clip-rule="evenodd" fill="#E3E3E3" d="M-76.971,15.038c0.077,0.001,0.154,0.001,0.23,0.001
		c0,0.055,0.001,0.111,0.001,0.166c-0.077,0-0.154,0-0.231,0C-76.971,15.15-76.971,15.094-76.971,15.038z"/>
	<path fill-rule="evenodd" clip-rule="evenodd" fill="#E3E3E3" d="M-98.855,15.036c0.077,0.002,0.154,0.003,0.229,0.005
		c0.001,0.055,0.001,0.109,0.001,0.164c-0.077,0-0.155,0-0.231,0C-98.856,15.149-98.855,15.092-98.855,15.036z"/>
	<path fill-rule="evenodd" clip-rule="evenodd" fill="#E3E3E3" d="M-103.855,15.041c0.077-0.001,0.152-0.003,0.229-0.004
		c0.001,0.056,0.001,0.112,0.001,0.168c-0.077,0-0.155,0-0.231,0C-103.856,15.15-103.855,15.096-103.855,15.041z"/>
	<path fill-rule="evenodd" clip-rule="evenodd" fill="#777266" d="M-103.585,23.123c1.257,0,2.514,0.015,3.771-0.009
		c0.409-0.008,0.571,0.07,0.565,0.533c-0.03,1.847-0.021,3.695-0.004,5.543c0.002,0.365-0.068,0.515-0.479,0.511
		c-2.605-0.019-5.211-0.014-7.817-0.003c-0.325,0.001-0.452-0.072-0.45-0.425c0.016-1.923,0.015-3.845,0.001-5.767
		c-0.003-0.337,0.129-0.392,0.422-0.389C-106.246,23.131-104.915,23.123-103.585,23.123z"/>
	<path fill-rule="evenodd" clip-rule="evenodd" fill="#777266" d="M-90.258,23.123c1.256,0,2.513,0.015,3.77-0.009
		c0.41-0.008,0.572,0.07,0.564,0.533c-0.028,1.847-0.02,3.695-0.004,5.543c0.003,0.365-0.068,0.515-0.478,0.511
		c-2.606-0.019-5.212-0.014-7.819-0.003c-0.324,0.001-0.452-0.072-0.448-0.425c0.015-1.923,0.014-3.845,0-5.767
		c-0.002-0.337,0.129-0.392,0.422-0.389C-92.919,23.131-91.588,23.123-90.258,23.123z"/>
	<path fill-rule="evenodd" clip-rule="evenodd" fill="#777266" d="M-76.932,23.123c1.257,0,2.514,0.015,3.77-0.009
		c0.41-0.008,0.573,0.07,0.565,0.533c-0.028,1.847-0.02,3.695-0.004,5.543c0.003,0.365-0.067,0.515-0.478,0.511
		c-2.606-0.019-5.212-0.014-7.817-0.003c-0.326,0.001-0.453-0.072-0.45-0.425c0.015-1.923,0.015-3.845,0-5.767
		c-0.002-0.337,0.13-0.392,0.423-0.389C-79.593,23.131-78.262,23.123-76.932,23.123z"/>
	<path fill-rule="evenodd" clip-rule="evenodd" fill="#777266" d="M-103.585,31.55c1.257,0,2.514,0.015,3.771-0.009
		c0.409-0.008,0.571,0.07,0.565,0.533c-0.03,1.847-0.021,3.695-0.004,5.543c0.002,0.365-0.068,0.515-0.479,0.511
		c-2.605-0.019-5.211-0.014-7.817-0.003c-0.325,0.002-0.452-0.072-0.45-0.425c0.016-1.923,0.015-3.845,0.001-5.767
		c-0.003-0.336,0.129-0.392,0.422-0.389C-106.246,31.557-104.915,31.55-103.585,31.55z"/>
	<path fill-rule="evenodd" clip-rule="evenodd" fill="#777266" d="M-90.258,31.55c1.256,0,2.513,0.015,3.77-0.009
		c0.41-0.008,0.572,0.07,0.564,0.533c-0.028,1.847-0.02,3.695-0.004,5.543c0.003,0.365-0.068,0.515-0.478,0.511
		c-2.606-0.019-5.212-0.014-7.819-0.003c-0.324,0.002-0.452-0.072-0.448-0.425c0.015-1.923,0.014-3.845,0-5.767
		c-0.002-0.336,0.129-0.392,0.422-0.389C-92.919,31.557-91.588,31.55-90.258,31.55z"/>
	<path fill-rule="evenodd" clip-rule="evenodd" fill="#777266" d="M-76.932,31.55c1.257,0,2.514,0.015,3.77-0.009
		c0.41-0.008,0.573,0.07,0.565,0.533c-0.028,1.847-0.02,3.695-0.004,5.543c0.003,0.365-0.067,0.515-0.478,0.511
		c-2.606-0.019-5.212-0.014-7.817-0.003c-0.326,0.002-0.453-0.072-0.45-0.425c0.015-1.923,0.015-3.845,0-5.767
		c-0.002-0.336,0.13-0.392,0.423-0.389C-79.593,31.557-78.262,31.55-76.932,31.55z"/>
	
		<linearGradient id="SVGID_1_" gradientUnits="userSpaceOnUse" x1="224.5696" y1="-490.8289" x2="240.8831" y2="-490.8289" gradientTransform="matrix(1 0 0 -1 -290.1196 -419.6382)">
		<stop  offset="0" style="stop-color:#E6E6E6"/>
		<stop  offset="0.5398" style="stop-color:#FFFFFF"/>
		<stop  offset="1" style="stop-color:#C8C8C8"/>
	</linearGradient>
	<path fill="url(#SVGID_1_)" d="M-57.405,79.348c-4.504-0.011-8.152-3.665-8.146-8.164c0.007-4.509,3.676-8.168,8.173-8.15
		c4.508,0.018,8.153,3.677,8.141,8.171C-49.252,75.71-52.91,79.358-57.405,79.348z"/>
	<g>
		<g>
			
				<linearGradient id="SVGID_2_" gradientUnits="userSpaceOnUse" x1="209.9934" y1="-482.1262" x2="238.9768" y2="-482.1262" gradientTransform="matrix(1 0 0 -1 -290.1196 -419.6382)">
				<stop  offset="0" style="stop-color:#E6E6E6"/>
				<stop  offset="0.5398" style="stop-color:#FFFFFF"/>
				<stop  offset="1" style="stop-color:#C8C8C8"/>
			</linearGradient>
			<path fill="url(#SVGID_2_)" d="M-67.531,70.757c0.008-5.597,4.564-10.143,10.148-10.119c2.357,0.009,4.522,0.821,6.24,2.175
				V52.534c0-0.969-0.785-1.754-1.754-1.754h-25.475c-0.969,0-1.755,0.785-1.755,1.754v19.906c0,0.968,0.786,1.755,1.755,1.755
				h11.436C-67.322,73.12-67.533,71.963-67.531,70.757z"/>
			
				<linearGradient id="SVGID_3_" gradientUnits="userSpaceOnUse" x1="209.3372" y1="-482.1262" x2="239.634" y2="-482.1262" gradientTransform="matrix(1 0 0 -1 -290.1196 -419.6382)">
				<stop  offset="0" style="stop-color:#E6E6E6"/>
				<stop  offset="0.5398" style="stop-color:#FFFFFF"/>
				<stop  offset="1" style="stop-color:#C8C8C8"/>
			</linearGradient>
			<path fill="url(#SVGID_3_)" d="M-66,74.852h-12.372c-1.329,0-2.411-1.082-2.411-2.411V52.534c0-1.33,1.083-2.41,2.411-2.41
				h25.475c1.33,0,2.411,1.08,2.411,2.41v11.631l-1.064-0.838c-1.678-1.323-3.697-2.026-5.835-2.034
				c-5.242,0-9.483,4.245-9.49,9.464c-0.001,1.102,0.186,2.183,0.557,3.214L-66,74.852z M-78.372,51.437
				c-0.605,0-1.098,0.493-1.098,1.098v19.906c0,0.605,0.493,1.098,1.098,1.098h10.543c-0.241-0.905-0.361-1.836-0.359-2.783
				c0.009-5.941,4.838-10.774,10.766-10.774c2.034,0.008,3.947,0.549,5.624,1.575v-9.021c0-0.604-0.493-1.098-1.098-1.098H-78.372z"
				/>
		</g>
	</g>
	<path fill="#777266" d="M-67.531,70.757c0.008-5.597,4.564-10.143,10.148-10.119c2.357,0.009,4.522,0.821,6.24,2.175V52.534
		c0-0.969-0.785-1.754-1.754-1.754h-25.475c-0.969,0-1.755,0.785-1.755,1.754v19.906c0,0.968,0.786,1.755,1.755,1.755h11.436
		C-67.322,73.12-67.533,71.963-67.531,70.757z"/>
	<g>
		<g>
			
				<linearGradient id="SVGID_4_" gradientUnits="userSpaceOnUse" x1="223.6917" y1="-490.8289" x2="241.759" y2="-490.8289" gradientTransform="matrix(1 0 0 -1 -290.1196 -419.6382)">
				<stop  offset="0" style="stop-color:#E6E6E6"/>
				<stop  offset="0.5398" style="stop-color:#FFFFFF"/>
				<stop  offset="1" style="stop-color:#C8C8C8"/>
			</linearGradient>
			<path fill="url(#SVGID_4_)" d="M-57.386,80.224h-0.02c-4.982-0.009-9.028-4.065-9.022-9.04c0.008-4.977,4.052-9.026,9.018-9.026
				c5.021,0.02,9.062,4.079,9.049,9.049C-48.378,76.179-52.426,80.224-57.386,80.224z M-57.376,62.629
				c-4.738,0-8.571,3.838-8.578,8.555c-0.008,4.714,3.828,8.558,8.549,8.567l0.02,0.237v-0.237c4.701,0,8.537-3.834,8.552-8.548
				C-48.82,66.495-52.651,62.649-57.376,62.629z M-58.129,78.28c-0.075,0-0.146-0.016-0.208-0.03l-0.071-0.014
				c-1.146-0.179-2.183-0.594-3.082-1.234c-1.073-0.763-1.884-1.755-2.414-2.95c-0.286-0.645-0.479-1.351-0.571-2.1
				c-0.013-0.115,0.01-0.209,0.071-0.279c0.062-0.068,0.147-0.103,0.254-0.103l0.03,0.001c0.155,0.009,0.29-0.002,0.375-0.046
				c0.168-0.084,0.243-0.247,0.201-0.437c-0.029-0.142-0.203-0.266-0.39-0.277c-0.022,0-0.043,0.004-0.065,0.007
				c-0.243,0.028-0.386-0.077-0.429-0.146c-0.084-0.137-0.052-0.294-0.028-0.408c0.007-0.025,0.011-0.048,0.015-0.071
				c0.173-1.128,0.576-2.149,1.199-3.043c0.761-1.088,1.753-1.911,2.946-2.447c0.655-0.296,1.373-0.492,2.132-0.588l0.068-0.005
				c0.122,0,0.195,0.052,0.237,0.095c0.095,0.102,0.088,0.229,0.086,0.277c-0.01,0.155-0.004,0.273,0.046,0.369
				c0.085,0.162,0.257,0.238,0.439,0.195c0.138-0.033,0.256-0.203,0.273-0.386c0.001-0.021-0.003-0.044-0.005-0.066
				c-0.012-0.104-0.038-0.319,0.156-0.438c0.116-0.068,0.281-0.051,0.407-0.024c0.024,0.007,0.048,0.013,0.072,0.016
				c1.148,0.179,2.186,0.596,3.084,1.234c1.067,0.759,1.882,1.757,2.423,2.965c0.23,0.516,0.536,1.598,0.561,2.109
				c0.022,0.113-0.017,0.192-0.053,0.241c-0.089,0.117-0.227,0.117-0.272,0.117l-0.062-0.001c-0.067,0-0.133,0.001-0.198,0.011
				c-0.227,0.034-0.357,0.163-0.362,0.354c-0.004,0.203,0.132,0.347,0.36,0.389l0.028,0.239l0.031-0.233
				c0.023,0,0.044-0.004,0.063-0.005c0.238-0.029,0.374,0.076,0.417,0.146c0.084,0.135,0.049,0.293,0.025,0.408l-0.013,0.071
				c-0.171,1.124-0.575,2.146-1.198,3.041c-0.76,1.088-1.751,1.909-2.946,2.446c-0.653,0.296-1.371,0.493-2.134,0.587l-0.067,0.006
				c-0.121,0-0.195-0.05-0.236-0.095c-0.094-0.099-0.087-0.226-0.086-0.273c0.009-0.155,0.003-0.276-0.047-0.372
				c-0.084-0.164-0.256-0.239-0.438-0.195c-0.136,0.031-0.257,0.203-0.273,0.386c-0.001,0.02,0.003,0.044,0.007,0.066
				c0.011,0.103,0.037,0.316-0.157,0.438C-57.986,78.263-58.053,78.28-58.129,78.28z M-63.985,72.044
				c0.094,0.649,0.266,1.259,0.512,1.815c0.496,1.115,1.255,2.044,2.256,2.757c0.839,0.596,1.809,0.984,2.883,1.152
				c0.027,0.005,0.058,0.009,0.087,0.018c-0.002-0.035-0.003-0.07-0.001-0.103c0.035-0.395,0.296-0.727,0.634-0.807
				c0.387-0.09,0.782,0.085,0.966,0.436c0.082,0.153,0.102,0.312,0.104,0.466c0.666-0.095,1.287-0.271,1.854-0.527
				c1.116-0.502,2.042-1.271,2.752-2.288c0.58-0.834,0.958-1.789,1.119-2.842c0.004-0.025,0.009-0.052,0.014-0.08
				c-0.011,0.001-0.025,0.002-0.036,0.002l-0.151-0.016c-0.45-0.078-0.751-0.425-0.743-0.86c0.009-0.423,0.307-0.741,0.759-0.811
				c0.057-0.011,0.117-0.015,0.175-0.016c-0.06-0.469-0.304-1.346-0.509-1.804c-0.506-1.13-1.268-2.062-2.266-2.771
				c-0.838-0.598-1.808-0.985-2.883-1.154c-0.027-0.003-0.058-0.009-0.089-0.016c0.003,0.034,0.004,0.069,0.001,0.102
				c-0.034,0.393-0.294,0.724-0.634,0.807c-0.389,0.092-0.781-0.086-0.966-0.436c-0.08-0.154-0.101-0.313-0.103-0.468
				c-0.665,0.097-1.286,0.273-1.853,0.53c-1.115,0.501-2.041,1.27-2.753,2.288c-0.582,0.831-0.958,1.789-1.119,2.841
				c-0.003,0.025-0.01,0.053-0.016,0.081c0.019-0.001,0.038-0.002,0.055-0.002c0.433,0.028,0.777,0.3,0.852,0.647
				c0.086,0.4-0.089,0.777-0.449,0.959C-63.695,72.03-63.865,72.043-63.985,72.044z"/>
			<path fill="#777266" d="M-57.406,79.934c-4.828-0.011-8.739-3.93-8.732-8.75c0.008-4.833,3.941-8.757,8.763-8.737
				c4.832,0.019,8.739,3.941,8.726,8.759C-48.666,76.036-52.588,79.946-57.406,79.934z M-50.591,70.489
				c-0.013-0.446-0.309-1.521-0.538-2.03c-0.521-1.161-1.294-2.113-2.332-2.852c-0.891-0.634-1.885-1.017-2.963-1.186
				c-0.108-0.017-0.245-0.068-0.319-0.024c-0.094,0.059-0.029,0.21-0.039,0.32c-0.025,0.284-0.211,0.535-0.451,0.594
				c-0.283,0.066-0.561-0.055-0.698-0.313c-0.081-0.154-0.082-0.324-0.075-0.489c0.006-0.097-0.019-0.132-0.123-0.119
				c-0.712,0.088-1.397,0.271-2.052,0.564c-1.163,0.521-2.105,1.311-2.834,2.353c-0.614,0.882-0.988,1.863-1.15,2.924
				c-0.016,0.108-0.066,0.245-0.021,0.319c0.053,0.085,0.203,0.023,0.308,0.029c0.292,0.021,0.548,0.215,0.602,0.46
				c0.064,0.289-0.06,0.56-0.323,0.693c-0.154,0.077-0.323,0.078-0.491,0.07c-0.087-0.006-0.122,0.018-0.109,0.114
				c0.085,0.698,0.263,1.378,0.548,2.022c0.513,1.156,1.289,2.102,2.32,2.835c0.892,0.636,1.887,1.019,2.965,1.188
				c0.106,0.017,0.245,0.067,0.319,0.024c0.094-0.059,0.028-0.21,0.039-0.32c0.025-0.283,0.21-0.537,0.45-0.593
				c0.284-0.068,0.562,0.054,0.699,0.313c0.081,0.152,0.082,0.324,0.073,0.489c-0.004,0.096,0.018,0.132,0.125,0.119
				c0.712-0.089,1.397-0.271,2.052-0.565c1.161-0.52,2.103-1.311,2.831-2.354c0.616-0.88,0.991-1.86,1.153-2.924
				c0.016-0.107,0.066-0.243,0.021-0.317c-0.053-0.085-0.204-0.018-0.308-0.031c-0.024-0.003-0.046-0.003-0.068-0.01
				c-0.342-0.06-0.559-0.303-0.553-0.621c0.006-0.302,0.22-0.526,0.557-0.578c0.095-0.014,0.194-0.014,0.291-0.013
				C-50.612,70.58-50.573,70.565-50.591,70.489z"/>
		</g>
		<g>
			<path fill="#777266" d="M-54.291,74.906c-0.152,0.003-0.268-0.066-0.375-0.163c-0.832-0.745-1.666-1.487-2.496-2.234
				c-0.088-0.081-0.173-0.121-0.296-0.125c-0.478-0.014-0.916-0.342-1.064-0.778c-0.169-0.496-0.036-1.008,0.355-1.324
				c0.118-0.095,0.156-0.189,0.161-0.336c0.046-1.025,0.101-2.05,0.156-3.074c0.015-0.29,0.208-0.486,0.461-0.482
				c0.247,0.007,0.428,0.207,0.443,0.501c0.045,1.03,0.09,2.058,0.13,3.09c0.005,0.114,0.038,0.185,0.13,0.251
				c0.291,0.214,0.458,0.506,0.482,0.871c0.006,0.087,0.045,0.149,0.1,0.21c0.759,0.862,1.518,1.728,2.277,2.589
				c0.16,0.182,0.22,0.383,0.111,0.606C-53.83,74.745-54.017,74.892-54.291,74.906z"/>
			
				<linearGradient id="SVGID_5_" gradientUnits="userSpaceOnUse" x1="231.3069" y1="-490.2854" x2="236.6809" y2="-490.2854" gradientTransform="matrix(1 0 0 -1 -290.1196 -419.6382)">
				<stop  offset="0" style="stop-color:#E6E6E6"/>
				<stop  offset="0.5398" style="stop-color:#FFFFFF"/>
				<stop  offset="1" style="stop-color:#C8C8C8"/>
			</linearGradient>
			<path fill="url(#SVGID_5_)" d="M-54.303,75.123c-0.24,0-0.406-0.125-0.51-0.218l-0.934-0.837
				c-0.52-0.465-1.041-0.931-1.561-1.399c-0.056-0.049-0.092-0.064-0.155-0.065c-0.565-0.018-1.086-0.399-1.266-0.928
				c-0.2-0.594-0.036-1.194,0.428-1.565c0.057-0.046,0.077-0.077,0.081-0.173c0.045-1.026,0.1-2.047,0.155-3.07
				c0.022-0.407,0.303-0.697,0.669-0.697c0.382,0.011,0.652,0.302,0.67,0.709c0.046,1.032,0.091,2.062,0.13,3.092
				c0.002,0.053,0.01,0.06,0.043,0.084c0.348,0.257,0.543,0.615,0.57,1.034c0.001,0.018,0.004,0.033,0.044,0.078l2.278,2.59
				c0.295,0.334,0.241,0.645,0.144,0.846c-0.157,0.325-0.42,0.505-0.762,0.521L-54.303,75.123L-54.303,75.123z M-57.393,66.607
				c-0.137,0-0.228,0.109-0.236,0.275c-0.055,1.03-0.11,2.052-0.156,3.073c-0.009,0.216-0.081,0.366-0.243,0.496
				c-0.318,0.255-0.428,0.668-0.286,1.084c0.12,0.354,0.481,0.619,0.862,0.63c0.171,0.004,0.305,0.062,0.438,0.182
				c0.519,0.465,1.038,0.932,1.56,1.396l0.936,0.837c0.083,0.076,0.146,0.106,0.216,0.106v0.219l0.008-0.219
				c0.174-0.01,0.298-0.097,0.384-0.274c0.046-0.093,0.067-0.201-0.078-0.367l-2.277-2.589c-0.064-0.073-0.145-0.18-0.154-0.34
				c-0.018-0.296-0.146-0.527-0.392-0.71c-0.144-0.104-0.211-0.232-0.22-0.415c-0.04-1.032-0.083-2.062-0.13-3.094
				C-57.169,66.761-57.233,66.612-57.393,66.607z"/>
		</g>
	</g>
	<path opacity="0.6" fill="#C1BAAC" enable-background="new    " d="M-51.143,52.534c0-0.969-0.785-1.754-1.754-1.754h-25.475
		c-0.969,0-1.755,0.785-1.755,1.754v9.527C-80.126,63.031-51.143,52.534-51.143,52.534z"/>
	<path fill="#777266" d="M-60.331,48.703c0-0.97,0.788-1.755,1.757-1.755h0.902c0.969,0,1.755,0.785,1.755,1.755v4.153
		c0,0.97-0.787,1.756-1.755,1.756h-0.902c-0.97,0-1.757-0.786-1.757-1.756V48.703z"/>
	
		<linearGradient id="SVGID_6_" gradientUnits="userSpaceOnUse" x1="229.5676" y1="-470.4187" x2="234.4211" y2="-470.4187" gradientTransform="matrix(1 0 0 -1 -290.1196 -419.6382)">
		<stop  offset="0" style="stop-color:#E6E6E6"/>
		<stop  offset="0.5398" style="stop-color:#FFFFFF"/>
		<stop  offset="1" style="stop-color:#C8C8C8"/>
	</linearGradient>
	<path fill="url(#SVGID_6_)" d="M-57.674,54.831h-0.902c-1.089,0-1.977-0.886-1.977-1.975v-4.153c0-1.089,0.886-1.974,1.977-1.974
		h0.902c1.089,0,1.976,0.885,1.976,1.974v4.153C-55.698,53.946-56.584,54.831-57.674,54.831z M-58.575,47.167
		c-0.849,0-1.538,0.688-1.538,1.536v4.153c0,0.848,0.689,1.536,1.538,1.536h0.902c0.849,0,1.538-0.688,1.538-1.536v-4.153
		c0-0.848-0.688-1.536-1.538-1.536H-58.575z"/>
	<path fill="#777266" d="M-75.3,48.703c0-0.97,0.787-1.755,1.756-1.755h0.902c0.969,0,1.755,0.785,1.755,1.755v4.153
		c0,0.97-0.787,1.756-1.755,1.756h-0.902c-0.97,0-1.756-0.786-1.756-1.756V48.703z"/>
	
		<linearGradient id="SVGID_7_" gradientUnits="userSpaceOnUse" x1="214.6008" y1="-470.4187" x2="219.4524" y2="-470.4187" gradientTransform="matrix(1 0 0 -1 -290.1196 -419.6382)">
		<stop  offset="0" style="stop-color:#E6E6E6"/>
		<stop  offset="0.5398" style="stop-color:#FFFFFF"/>
		<stop  offset="1" style="stop-color:#C8C8C8"/>
	</linearGradient>
	<path fill="url(#SVGID_7_)" d="M-72.642,54.831h-0.903c-1.088,0-1.974-0.886-1.974-1.975v-4.153c0-1.089,0.884-1.974,1.974-1.974
		h0.903c1.088,0,1.975,0.885,1.975,1.974v4.153C-70.667,53.946-71.552,54.831-72.642,54.831z M-73.543,47.167
		c-0.848,0-1.537,0.688-1.537,1.536v4.153c0,0.848,0.689,1.536,1.537,1.536h0.902c0.847,0,1.537-0.688,1.537-1.536v-4.153
		c0-0.848-0.69-1.536-1.537-1.536H-73.543z"/>
	<path opacity="0.6" fill="#C1BAAC" enable-background="new    " d="M-72.769,48.786c0.653,0,1.243,0.272,1.663,0.708
		c0.18-1.767-0.661-2.297-1.573-2.347h-0.815c-0.876,0-1.586,0.709-1.586,1.585v2.364C-75.08,49.821-74.045,48.786-72.769,48.786z"
		/>
	<path opacity="0.6" fill="#C1BAAC" enable-background="new    " d="M-57.812,48.786c0.651,0,1.243,0.272,1.663,0.708
		c0.178-1.767-0.662-2.297-1.575-2.347h-0.812c-0.876,0-1.586,0.709-1.586,1.585v2.364C-60.123,49.821-59.089,48.786-57.812,48.786z
		"/>
	
		<linearGradient id="SVGID_8_" gradientUnits="userSpaceOnUse" x1="353.3665" y1="1467.9963" x2="376.8899" y2="1467.9963" gradientTransform="matrix(1 0 0 1 -431 -1411.543)">
		<stop  offset="0" style="stop-color:#FFFFFF"/>
		<stop  offset="1" style="stop-color:#C8C8C8"/>
	</linearGradient>
	<rect x="-77.634" y="55.847" fill="url(#SVGID_8_)" width="23.523" height="1.212"/>
	
		<linearGradient id="SVGID_9_" gradientUnits="userSpaceOnUse" x1="353.3665" y1="1470.3186" x2="376.8899" y2="1470.3186" gradientTransform="matrix(1 0 0 1 -431 -1411.543)">
		<stop  offset="0" style="stop-color:#FFFFFF"/>
		<stop  offset="1" style="stop-color:#C8C8C8"/>
	</linearGradient>
	<rect x="-77.634" y="58.169" fill="url(#SVGID_9_)" width="23.523" height="1.211"/>
	
		<linearGradient id="SVGID_10_" gradientUnits="userSpaceOnUse" x1="353.3665" y1="1472.6389" x2="364.7825" y2="1472.6389" gradientTransform="matrix(1 0 0 1 -431 -1411.543)">
		<stop  offset="0" style="stop-color:#FFFFFF"/>
		<stop  offset="1" style="stop-color:#C8C8C8"/>
	</linearGradient>
	<rect x="-77.634" y="60.49" fill="url(#SVGID_10_)" width="11.416" height="1.211"/>
	
		<linearGradient id="SVGID_11_" gradientUnits="userSpaceOnUse" x1="353.3665" y1="1474.9602" x2="362.4485" y2="1474.9602" gradientTransform="matrix(1 0 0 1 -431 -1411.543)">
		<stop  offset="0" style="stop-color:#FFFFFF"/>
		<stop  offset="1" style="stop-color:#C8C8C8"/>
	</linearGradient>
	<rect x="-77.634" y="62.811" fill="url(#SVGID_11_)" width="9.082" height="1.212"/>
	
		<linearGradient id="SVGID_12_" gradientUnits="userSpaceOnUse" x1="353.3665" y1="1477.2825" x2="359.0735" y2="1477.2825" gradientTransform="matrix(1 0 0 1 -431 -1411.543)">
		<stop  offset="0" style="stop-color:#FFFFFF"/>
		<stop  offset="1" style="stop-color:#C8C8C8"/>
	</linearGradient>
	<rect x="-77.634" y="65.133" fill="url(#SVGID_12_)" width="5.708" height="1.212"/>
	<path opacity="0.6" fill-rule="evenodd" clip-rule="evenodd" fill="#C1BAAC" enable-background="new    " d="M-107.973,29.347
		c0.016-1.922,0.015-3.843,0.001-5.766c-0.003-0.336,0.129-0.392,0.422-0.389c1.331,0.012,2.662,0.006,3.993,0.006
		c1.256,0,2.513,0.014,3.77-0.009"/>
	<path opacity="0.6" fill-rule="evenodd" clip-rule="evenodd" fill="#C1BAAC" enable-background="new    " d="M-94.675,29.347
		c0.016-1.922,0.016-3.843,0-5.766c-0.002-0.336,0.131-0.392,0.423-0.389c1.331,0.012,2.661,0.006,3.992,0.006
		c1.257,0,2.514,0.014,3.77-0.009"/>
	<path opacity="0.6" fill-rule="evenodd" clip-rule="evenodd" fill="#C1BAAC" enable-background="new    " d="M-81.345,29.347
		c0.016-1.922,0.015-3.843,0.001-5.766c-0.003-0.336,0.129-0.392,0.422-0.389c1.331,0.012,2.662,0.006,3.993,0.006
		c1.256,0,2.513,0.014,3.77-0.009"/>
	<path opacity="0.6" fill-rule="evenodd" clip-rule="evenodd" fill="#C1BAAC" enable-background="new    " d="M-107.986,37.773
		c0.015-1.922,0.015-3.843,0-5.765c-0.002-0.337,0.13-0.392,0.423-0.39c1.331,0.012,2.661,0.006,3.992,0.006
		c1.257,0,2.514,0.015,3.77-0.009"/>
	<path opacity="0.6" fill-rule="evenodd" clip-rule="evenodd" fill="#C1BAAC" enable-background="new    " d="M-94.687,37.773
		c0.016-1.922,0.016-3.843,0-5.765c-0.002-0.337,0.13-0.392,0.424-0.39c1.331,0.012,2.661,0.006,3.991,0.006
		c1.257,0,2.514,0.015,3.77-0.009"/>
	<path opacity="0.6" fill-rule="evenodd" clip-rule="evenodd" fill="#C1BAAC" enable-background="new    " d="M-81.358,37.773
		c0.017-1.922,0.015-3.843,0.001-5.765c-0.003-0.337,0.129-0.392,0.422-0.39c1.331,0.012,2.661,0.006,3.992,0.006
		c1.257,0,2.514,0.015,3.77-0.009"/>
	<path fill-rule="evenodd" clip-rule="evenodd" fill="#777266" d="M-64.059,22.153c0-0.443,0.006-0.894-0.067-1.329
		c-0.559-3.342-3.171-5.569-6.562-5.598c-2.017-0.019-4.034-0.015-6.052-0.021c-0.077,0-0.154,0-0.231,0c-1.518,0-3.035,0-4.552,0
		c-0.149,0-0.298,0-0.448,0c-1.885,0-3.77,0-5.655,0c-1.78,0-3.562,0-5.343,0c-1.885,0-3.77,0-5.655,0c-0.077,0-0.155,0-0.231,0
		c-1.589,0-3.179,0-4.768,0c-0.077,0-0.155,0-0.231,0c-1.961,0.006-3.924,0.014-5.885,0.017c-0.612,0.001-1.218,0.035-1.815,0.188
		c-3.085,0.797-4.982,3.331-4.983,6.687c-0.002,13.551,0.002,27.101-0.012,40.651c0,0.48,0.102,0.605,0.597,0.604
		c11.487-0.01,22.975-0.01,34.463-0.007V58.98c-1.277,0.002-2.555,0.002-3.833,0.006c-0.474,0.001-0.625-0.095-0.622-0.602
		c0.023-3.999,0.007-7.999,0.022-11.998c0.002-0.424-0.092-0.562-0.543-0.559c-2.555,0.023-5.109,0.023-7.664,0
		c-0.455-0.004-0.543,0.141-0.541,0.561c0.014,3.98,0.001,7.962,0.018,11.942c0.002,0.477-0.077,0.661-0.621,0.658
		c-5.442-0.023-10.885-0.021-16.328-0.004c-0.451,0.002-0.587-0.097-0.587-0.568c0.015-12.107,0.01-24.215,0.011-36.323
		c0.001-1.63,0.876-2.512,2.498-2.512c6.48-0.002,12.961-0.001,19.44-0.001c6.406,0,12.812,0,19.218,0
		c1.768,0,2.607,0.846,2.607,2.626c0,9.057-0.002,18.113,0.004,27.17h4.36C-64.055,40.302-64.056,31.227-64.059,22.153z"/>
	<g>
		<g>
			<polygon fill="#777266" points="-107.95,9.967 -106.695,7.454 -105.464,9.979 -102.685,10.397 -104.707,12.348 -104.245,15.119 
				-106.726,13.8 -109.219,15.095 -108.73,12.329 -110.732,10.358 			"/>
			
				<linearGradient id="SVGID_13_" gradientUnits="userSpaceOnUse" x1="-49.1243" y1="-176.0872" x2="-40.7747" y2="-176.0872" gradientTransform="matrix(0.8119 -0.5838 0.5838 0.8119 32.8298 128.7402)">
				<stop  offset="0" style="stop-color:#FFFFFF"/>
				<stop  offset="1" style="stop-color:#C8C8C8"/>
			</linearGradient>
			<path fill="url(#SVGID_13_)" d="M-104.153,15.249l-2.573-1.369l-2.586,1.344l0.507-2.871l-2.078-2.044l2.887-0.405l1.302-2.608
				l1.278,2.621l2.883,0.433l-2.098,2.024L-104.153,15.249z M-106.725,13.721l2.387,1.27l-0.444-2.667l1.946-1.878l-2.674-0.401
				l-1.185-2.431l-1.209,2.418l-2.677,0.376l1.927,1.896l-0.471,2.664L-106.725,13.721z"/>
		</g>
		<polyline fill="#BFB8AA" points="-108.657,12.289 -110.588,10.389 -107.906,10.012 -106.695,7.59 -105.508,10.024 		"/>
	</g>
	<g>
		<g>
			<polygon fill="#777266" points="-99.778,9.967 -98.522,7.454 -97.291,9.979 -94.512,10.397 -96.534,12.348 -96.073,15.119 
				-98.552,13.8 -101.046,15.095 -100.557,12.329 -102.559,10.358 			"/>
			
				<linearGradient id="SVGID_14_" gradientUnits="userSpaceOnUse" x1="-42.489" y1="-171.3152" x2="-34.1394" y2="-171.3152" gradientTransform="matrix(0.8119 -0.5838 0.5838 0.8119 32.8298 128.7402)">
				<stop  offset="0" style="stop-color:#FFFFFF"/>
				<stop  offset="1" style="stop-color:#C8C8C8"/>
			</linearGradient>
			<path fill="url(#SVGID_14_)" d="M-95.98,15.249l-2.573-1.369l-2.586,1.344l0.507-2.871l-2.078-2.044l2.887-0.405l1.302-2.608
				l1.278,2.621l2.883,0.433l-2.097,2.024L-95.98,15.249z M-98.552,13.721l2.387,1.27l-0.444-2.667l1.946-1.878l-2.674-0.401
				l-1.185-2.431l-1.209,2.418l-2.677,0.376l1.927,1.896l-0.471,2.664L-98.552,13.721z"/>
		</g>
		<polyline fill="#BFB8AA" points="-100.484,12.289 -102.415,10.389 -99.733,10.012 -98.522,7.59 -97.335,10.024 		"/>
	</g>
	<g>
		<g>
			<polygon fill="#777266" points="-91.731,9.967 -90.475,7.454 -89.244,9.979 -86.466,10.397 -88.486,12.348 -88.026,15.119 
				-90.506,13.8 -92.999,15.095 -92.511,12.329 -94.512,10.358 			"/>
			
				<linearGradient id="SVGID_15_" gradientUnits="userSpaceOnUse" x1="-35.9553" y1="-166.6165" x2="-27.6067" y2="-166.6165" gradientTransform="matrix(0.8119 -0.5838 0.5838 0.8119 32.8298 128.7402)">
				<stop  offset="0" style="stop-color:#FFFFFF"/>
				<stop  offset="1" style="stop-color:#C8C8C8"/>
			</linearGradient>
			<path fill="url(#SVGID_15_)" d="M-87.932,15.249l-2.573-1.369l-2.586,1.344l0.505-2.871l-2.076-2.044l2.886-0.405l1.303-2.608
				l1.277,2.621l2.882,0.433l-2.097,2.024L-87.932,15.249z M-90.506,13.721l2.388,1.27l-0.444-2.667l1.946-1.878l-2.674-0.401
				l-1.186-2.431l-1.208,2.418l-2.679,0.376l1.927,1.896l-0.469,2.664L-90.506,13.721z"/>
		</g>
		<polyline fill="#BFB8AA" points="-92.437,12.289 -94.367,10.389 -91.685,10.012 -90.475,7.59 -89.288,10.024 		"/>
	</g>
	<g>
		<g>
			<polygon fill="#777266" points="-83.557,9.967 -82.302,7.454 -81.072,9.979 -78.293,10.397 -80.313,12.348 -79.853,15.119 
				-82.333,13.8 -84.826,15.095 -84.338,12.329 -86.34,10.358 			"/>
			
				<linearGradient id="SVGID_16_" gradientUnits="userSpaceOnUse" x1="-29.3201" y1="-161.845" x2="-20.9709" y2="-161.845" gradientTransform="matrix(0.8119 -0.5838 0.5838 0.8119 32.8298 128.7402)">
				<stop  offset="0" style="stop-color:#FFFFFF"/>
				<stop  offset="1" style="stop-color:#C8C8C8"/>
			</linearGradient>
			<path fill="url(#SVGID_16_)" d="M-79.76,15.249l-2.573-1.369l-2.586,1.344l0.505-2.871l-2.076-2.044l2.886-0.405l1.303-2.608
				l1.277,2.621l2.883,0.433l-2.098,2.024L-79.76,15.249z M-82.332,13.721l2.387,1.27l-0.444-2.667l1.946-1.878l-2.674-0.401
				l-1.186-2.431l-1.208,2.418l-2.677,0.376l1.926,1.896l-0.47,2.664L-82.332,13.721z"/>
		</g>
		<polyline fill="#BFB8AA" points="-84.264,12.289 -86.194,10.389 -83.512,10.012 -82.302,7.59 -81.115,10.024 		"/>
	</g>
	<g>
		<g>
			<polygon fill="#777266" points="-75.497,9.967 -74.241,7.454 -73.01,9.979 -70.232,10.397 -72.254,12.348 -71.792,15.119 
				-74.272,13.8 -76.765,15.095 -76.277,12.329 -78.279,10.358 			"/>
			
				<linearGradient id="SVGID_17_" gradientUnits="userSpaceOnUse" x1="-22.7761" y1="-157.1384" x2="-14.4265" y2="-157.1384" gradientTransform="matrix(0.8119 -0.5838 0.5838 0.8119 32.8298 128.7402)">
				<stop  offset="0" style="stop-color:#FFFFFF"/>
				<stop  offset="1" style="stop-color:#C8C8C8"/>
			</linearGradient>
			<path fill="url(#SVGID_17_)" d="M-71.699,15.249l-2.573-1.369l-2.586,1.344l0.506-2.871l-2.077-2.044l2.887-0.406l1.303-2.607
				l1.277,2.621l2.883,0.433l-2.098,2.024L-71.699,15.249z M-74.272,13.721l2.388,1.27l-0.444-2.667l1.945-1.878l-2.674-0.401
				l-1.185-2.431l-1.209,2.418l-2.677,0.376l1.927,1.896l-0.47,2.663L-74.272,13.721z"/>
		</g>
		<polyline fill="#BFB8AA" points="-76.203,12.288 -78.134,10.389 -75.452,10.012 -74.241,7.59 -73.054,10.024 		"/>
	</g>
</g>
</svg>
