<?xml version="1.0" encoding="utf-8"?>
<!-- Generator: Adobe Illustrator 16.0.0, SVG Export Plug-In . SVG Version: 6.00 Build 0)  -->
<!DOCTYPE svg PUBLIC "-//W3C//DTD SVG 1.1//EN" "http://www.w3.org/Graphics/SVG/1.1/DTD/svg11.dtd">
<svg version="1.1" id="Layer_1" xmlns="http://www.w3.org/2000/svg" xmlns:xlink="http://www.w3.org/1999/xlink" x="0px" y="0px"
	 width="107.354px" height="84.559px" viewBox="0 0 107.354 84.559" enable-background="new 0 0 107.354 84.559"
	 xml:space="preserve">
<g>
	
		<linearGradient id="SVGID_1_" gradientUnits="userSpaceOnUse" x1="161.5647" y1="-304.4041" x2="241.4944" y2="-304.4041" gradientTransform="matrix(1 0 0 -1 -149.2949 -268.8726)">
		<stop  offset="0" style="stop-color:#E6E6E6"/>
		<stop  offset="0.5398" style="stop-color:#FFFFFF"/>
		<stop  offset="1" style="stop-color:#C8C8C8"/>
	</linearGradient>
	<path fill="url(#SVGID_1_)" d="M90.459,32.354c-1.585-2.575-5.663-5.209-7.898-6.526c0.853,0.09,1.923-0.012,1.923-0.012
		c2.197,0,3.014-1.52,3.014-2.859c0-1.938-2.763-2.015-2.763-2.015s-2.184,0-3.147,0c-1.798,0-1.597,0.892-1.465,1.799
		c-2.025-4.042-5.841-9.23-8.759-11.172c-0.817-0.54-1.857-0.556-1.857-0.556c-6.961-0.516-15.83-0.562-17.271-0.562
		c-1.443,0-10.312,0.046-17.27,0.562c0,0-1.043,0.01-1.858,0.556c-2.92,1.945-6.733,7.129-8.759,11.172
		c0.131-0.908,0.332-1.799-1.465-1.799c-0.969,0-3.146,0-3.146,0s-2.764,0.076-2.764,2.015c0,1.34,0.816,2.859,3.011,2.859
		c0,0,1.076,0.102,1.924,0.012c-2.233,1.312-6.312,3.947-7.896,6.526c-1.167,1.902-1.775,10.341-1.741,13.371
		c0.034,3.029,0.476,8.963,0.598,12.086c0.079,2.055,0.867,2.801,2.72,2.801h10.598c3.685,0,3.177-3.803,3.177-3.803
		c3.581-0.141,4.273,0.375,5.573,0.619c1.301,0.25,8.261,0.531,8.261,0.531l9.035,0.049l9.037-0.049c0,0,6.963-0.281,8.263-0.531
		c1.301-0.244,1.99-0.76,5.568-0.619c0,0-0.506,3.803,3.182,3.803H88.88c1.859,0,2.643-0.746,2.725-2.801
		c0.117-3.123,0.562-9.057,0.593-12.086C92.235,42.701,91.627,34.257,90.459,32.354z"/>
	<path fill="#777266" d="M89.6,32.453c-2.169-3.523-9.129-7.155-9.129-7.155h3.245c2.132,0,3.012-0.652,3.012-1.956
		c0-1.877-2.683-1.949-2.683-1.949s-1.107-0.007-2.049,0c-0.937,0.007-1.533,0.151-1.533,0.991c0,0.576,0,1.106,0,1.106
		c-0.018,0.353-0.537,0.359-0.537,0.359c-1.849-3.987-5.837-9.543-8.845-11.546c-0.793-0.529-1.804-0.54-1.804-0.54
		c-7.359-0.544-16.96-0.544-16.96-0.544c-0.021,0-0.058,0-0.084,0c-0.025,0-0.062,0-0.08,0c0,0-9.602,0-16.963,0.544
		c0,0-1.009,0.011-1.802,0.54c-3.012,2.003-6.997,7.554-8.845,11.546c0,0-0.52-0.011-0.537-0.359c0,0,0-0.53,0-1.106
		c0-0.839-0.598-0.983-1.535-0.991c-0.939-0.007-2.048,0-2.048,0s-2.681,0.072-2.681,1.949c0,1.304,0.877,1.956,3.008,1.956h3.248
		c0,0-6.96,3.632-9.132,7.155c-1.129,1.84-1.722,10.028-1.683,12.965c0.034,2.932,0.457,8.688,0.577,11.719
		c0.074,1.988,0.838,2.709,2.637,2.709h9.021c3.574,0,3.084-3.686,3.084-3.686c3.471-0.133,5.396,0.363,6.656,0.602
		c1.262,0.242,8.012,0.512,8.012,0.512l8.935,0.051h0.126h0.125l8.937-0.051c0,0,6.749-0.27,8.012-0.512
		c1.262-0.238,3.186-0.738,6.657-0.602c0,0-0.489,3.686,3.082,3.686h9.021c1.799,0,2.562-0.721,2.637-2.709
		c0.119-3.029,0.548-8.787,0.58-11.719C91.321,42.481,90.731,34.293,89.6,32.453z M28.252,21.889
		c0.545-1.092,4.763-7.85,6.674-8.477c0.923-0.307,4.985-0.468,8.931-0.559c0.143,0.274,0.396,0.58,0.826,0.599
		c0.777,0.028,2.392,0.093,2.392,0.093s0.224,0.483,0.825,0.566c0.604,0.083,2.178,0.342,2.342,0.425
		c0.158,0.079-0.022,0.438-0.022,0.438s-1.271,0.019-2.255,0.079c-0.508,0.036-0.588,1.47-0.523,1.671
		c0.062,0.202,0.28,0.162,0.28,0.162l2.618,0.119h1.177h1.181l2.612-0.119c0,0,0.225,0.04,0.281-0.162
		c0.063-0.202-0.013-1.635-0.522-1.671c-0.981-0.062-2.253-0.079-2.253-0.079s-0.181-0.359-0.019-0.438
		c0.163-0.083,1.737-0.343,2.341-0.425c0.601-0.083,0.827-0.566,0.827-0.566s1.613-0.064,2.389-0.093
		c0.445-0.019,0.704-0.351,0.842-0.627c4.337,0.079,9.327,0.245,10.366,0.587c1.907,0.627,6.126,7.385,6.671,8.477
		c0.776,1.578,0.596,2.281-0.765,2.219c-0.341-0.015-1.467-0.061-3.085-0.126c-0.227-0.267-0.661-0.728-1.052-0.836
		c-1.344-0.366-2.452-0.525-2.452-0.525s0.283-0.22,0.164-0.709c-0.119-0.49-0.771-3.182-0.943-3.975
		c-0.171-0.789-0.574-1.542-1.517-1.542s-3.123,0-3.123,0s-0.782,0-0.84,0.271c-0.441-0.04-0.598,0.411-0.598,0.411l-1.305,2.445
		c0,0-0.174,0.072-0.836,0.079c-0.663,0-0.744,0.718-0.879,1.044c-0.19,0.473-0.46,1.388-0.46,1.388l-3.447,0.177
		c0,0-0.026-0.706-1.055-0.717c-1.026-0.012-4.733,0.054-5.02,0.068c-0.286,0.004-0.75,0.126-0.86,0.383
		c-0.114,0.267-0.215,0.37-0.215,0.37s0-0.173-0.346-0.173c-0.35,0-2.779,0-2.779,0l-0.281-0.825c0,0-0.057-1.557-1.345-1.692
		c-0.605-0.058-1.104-0.075-1.104-0.075l-0.005-0.018c0,0-0.204-0.66-0.519-1.419c-0.317-0.757-0.494-1.409-1.431-1.431
		c-0.937-0.018-3.839-0.107-4.12,0.043c-0.279,0.151-0.436,0.347-0.436,0.347s-0.429,0.157-0.562,0.519
		c-0.731,1.978-1.232,3.444-1.191,5.159c0.006,0.255,0.111,0.284,0.164,0.284c-0.16,0.018-1.853,0.23-2.267,0.476
		c-0.213,0.126-0.447,0.338-0.632,0.515c-1.069,0.043-1.808,0.076-2.074,0.083C27.658,24.171,27.472,23.47,28.252,21.889z
		 M47.555,44.287c-2.27,0-4.077,0-6.096,0c-2.018,0-8.679-1.211-8.626-5.044c-2.089,0.004-8.142,0.123-11.948,0.259
		c-3.008,0.109-4.132-0.058-4.029-1.639c-2.653,0-1.843-3.148-1.329-4.933c0.513-1.791,3.902-0.685,5.675-0.155
		c1.778,0.53,9.454,2.58,10.106,2.754c0.658,0.177,1.142,0.255,1.417,0.771c0.254-1.257,0.681-2.475,4.398-2.475
		c1.521,0,6.094,0,8.97,0c2.875,0,4.137,0.154,4.662,1.344c0,0,0.58,2.389,0.58,5.177C51.331,43.141,49.824,44.287,47.555,44.287z
		 M52.238,32.914c-1.331,0-2.406-0.547-2.406-1.226c0-0.678,1.076-1.225,2.406-1.225c1.332,0,2.41,0.548,2.41,1.225
		C54.648,32.366,53.567,32.914,52.238,32.914z M87.619,37.866c0.104,1.582-1.02,1.745-4.029,1.636
		c-3.804-0.136-9.854-0.255-11.945-0.259c0.054,3.83-6.607,5.044-8.626,5.044c-2.018,0-3.826,0-6.098,0s-3.779-1.141-3.779-3.933
		c0-2.792,0.578-5.18,0.578-5.18c0.528-1.188,1.785-1.344,4.664-1.344c2.877,0,7.448,0,8.969,0c3.72,0,4.146,1.218,4.399,2.479
		c0.274-0.522,0.759-0.6,1.413-0.768c0.656-0.177,8.333-2.229,10.106-2.756c1.775-0.53,5.161-1.635,5.678,0.146
		C89.463,34.718,90.276,37.866,87.619,37.866z"/>
	
		<linearGradient id="SVGID_2_" gradientUnits="userSpaceOnUse" x1="164.2903" y1="-306.991" x2="200.6301" y2="-306.991" gradientTransform="matrix(1 0 0 -1 -149.2949 -268.8726)">
		<stop  offset="0" style="stop-color:#FFFFFF"/>
		<stop  offset="1" style="stop-color:#C8C8C8"/>
	</linearGradient>
	<path fill="url(#SVGID_2_)" d="M47.555,44.287c-2.27,0-4.077,0-6.096,0c-2.018,0-8.679-1.211-8.626-5.044
		c-2.089,0.004-8.142,0.123-11.948,0.259c-3.008,0.109-4.132-0.058-4.029-1.639c-2.653,0-1.843-3.148-1.329-4.933
		c0.513-1.791,3.902-0.685,5.675-0.155c1.778,0.53,9.454,2.58,10.106,2.754c0.658,0.177,1.142,0.255,1.417,0.771
		c0.254-1.257,0.681-2.475,4.398-2.475c1.521,0,6.094,0,8.97,0c2.875,0,4.137,0.154,4.662,1.344c0,0,0.58,2.389,0.58,5.177
		C51.331,43.141,49.824,44.287,47.555,44.287z"/>
	<ellipse opacity="0.1" fill="#A0A0A0" enable-background="new    " cx="52.238" cy="31.689" rx="2.41" ry="1.225"/>
	
		<linearGradient id="SVGID_3_" gradientUnits="userSpaceOnUse" x1="195.0852" y1="-306.9958" x2="231.4241" y2="-306.9958" gradientTransform="matrix(1 0 0 -1 -149.2949 -268.8726)">
		<stop  offset="0" style="stop-color:#FFFFFF"/>
		<stop  offset="1" style="stop-color:#C8C8C8"/>
	</linearGradient>
	<path fill="url(#SVGID_3_)" d="M87.619,37.866c0.104,1.582-1.02,1.745-4.029,1.636c-3.804-0.136-9.854-0.255-11.945-0.259
		c0.054,3.83-6.607,5.044-8.626,5.044c-2.018,0-3.826,0-6.098,0s-3.779-1.141-3.779-3.933c0-2.792,0.578-5.18,0.578-5.18
		c0.528-1.188,1.785-1.344,4.664-1.344c2.877,0,7.448,0,8.969,0c3.72,0,4.146,1.218,4.399,2.479c0.274-0.522,0.759-0.6,1.413-0.768
		c0.656-0.177,8.333-2.229,10.106-2.756c1.775-0.53,5.161-1.635,5.678,0.146C89.463,34.718,90.276,37.866,87.619,37.866z"/>
	<path opacity="0.6" fill="#C1BAAC" enable-background="new    " d="M14.875,32.453c3.632-2.908,10.066-2.908,14.863-2.908
		c0.798,0,4.536-3.631,5.23-3.754c-1.21,0.807-2.29,3.711-1.96,3.726c4.451,0.172,24.616-0.62,33.104-1.945
		c0.359-0.055,0.472-1.203-1.361-2.008c1.989,0.612,2.998,1.727,3.292,1.673c7.011-1.306,9.02-1.737,11.874-1.445
		c-3.87-0.915-14.473-1.671-26.778-1.671c-7.78,0-25.34,0.32-27.281,1.138c-1.942,0.814-4.054,1.161-5.82,2.447
		C18.27,28.99,15.378,31.104,14.875,32.453z"/>
	
		<linearGradient id="SVGID_4_" gradientUnits="userSpaceOnUse" x1="177.0881" y1="-287.3015" x2="225.9866" y2="-287.3015" gradientTransform="matrix(1 0 0 -1 -149.2949 -268.8726)">
		<stop  offset="0" style="stop-color:#FFFFFF"/>
		<stop  offset="1" style="stop-color:#C8C8C8"/>
	</linearGradient>
	<path opacity="0.3" fill="url(#SVGID_4_)" enable-background="new    " d="M28.252,21.889c0.545-1.092,4.763-7.85,6.674-8.477
		c1.905-0.623,17.188-0.667,17.188-0.667s0.048,0,0.126,0c0.085,0,0.132,0,0.132,0s15.279,0.036,17.188,0.667
		c1.908,0.627,6.129,7.385,6.672,8.477c0.777,1.578,0.596,2.281-0.765,2.219c-1.362-0.054-15.162-0.658-23.096-0.541
		c-0.044,0-0.084,0-0.128,0c-0.042,0-0.082,0-0.126,0c-7.938-0.118-21.732,0.487-23.095,0.541
		C27.658,24.171,27.472,23.47,28.252,21.889z"/>
	<path fill="#777266" d="M37.051,34.649c2.054,0.029,9.099,0.213,10.347,0.317c1.244,0.108,2.288,0.515,2.434,2.36
		c0.146,1.848,0.556,4.207-0.776,5.079c-1.333,0.868-6.256,0.67-8.207,0.461c-1.948-0.209-6.359-1.128-6.668-2.872
		c-0.307-1.743-0.512-3.179,0-3.999C34.694,35.173,35.519,34.628,37.051,34.649z"/>
	<path fill="#777266" d="M67.602,34.649c-2.051,0.029-9.099,0.213-10.344,0.317c-1.247,0.108-2.287,0.515-2.438,2.36
		c-0.146,1.848-0.555,4.207,0.779,5.079c1.333,0.868,6.258,0.67,8.205,0.461c1.949-0.209,6.359-1.128,6.668-2.872
		s0.515-3.179,0-3.999C69.96,35.173,69.137,34.628,67.602,34.649z"/>
	
		<linearGradient id="SVGID_5_" gradientUnits="userSpaceOnUse" x1="165.9729" y1="932.2932" x2="236.9739" y2="932.2932" gradientTransform="matrix(1 0 0 1 -149.2397 -883.291)">
		<stop  offset="0" style="stop-color:#FFFFFF"/>
		<stop  offset="1" style="stop-color:#C8C8C8"/>
	</linearGradient>
	<path fill="url(#SVGID_5_)" d="M85.061,45.184c-1.237,0.051-3.819,0.354-8.192,0.762c-4.37,0.408-7.503,0.863-8.228,2.238
		l-16.407,0.072l-16.407-0.072c-0.721-1.375-3.855-1.83-8.228-2.238c-4.371-0.408-6.954-0.711-8.189-0.762
		c-1.238-0.051-2.765-0.371-2.672,2.031c0.094,2.406,0.295,4.039,2.987,4.355c2.691,0.316,7.487,0.592,10.344,0.807
		c2.855,0.217,6.801,0.715,6.482-0.529c2.759-0.119,1.118,0.926,3.273,0.988c2.149,0.057,12.408,0,12.408,0s10.26,0.057,12.413,0
		c2.149-0.062,0.513-1.107,3.271-0.988c-0.319,1.244,3.622,0.746,6.481,0.529c2.859-0.215,7.65-0.49,10.344-0.807
		s2.897-1.949,2.989-4.355C87.823,44.813,86.296,45.133,85.061,45.184z"/>
</g>
<line fill="none" x1="45.736" y1="46.383" x2="45.736" y2="43.475"/>
<g>
	<path fill="#FFFFFF" d="M100.862,80.041H61.896c-1.687,0-3.06-1.373-3.06-3.061V46.533c0-1.686,1.373-3.059,3.06-3.059h38.968
		c1.688,0,3.061,1.373,3.061,3.059v30.447C103.922,78.668,102.549,80.041,100.862,80.041z M61.896,44.227
		c-1.271,0-2.31,1.035-2.31,2.309v30.447c0,1.271,1.036,2.309,2.31,2.309h38.966c1.273,0,2.312-1.035,2.312-2.309l0.001-30.447
		c0-1.271-1.036-2.309-2.311-2.309H61.896z"/>
	<path fill="#777266" d="M103.173,46.533c0-1.271-1.036-2.309-2.312-2.309H61.896c-1.271,0-2.31,1.035-2.31,2.309v30.447
		c0,1.273,1.036,2.311,2.31,2.311h38.966c1.273,0,2.312-1.035,2.312-2.311V46.533z"/>
	<path opacity="0.6" fill="#C1BAAC" enable-background="new    " d="M103.173,46.533c0-1.271-1.036-2.309-2.312-2.309H61.896
		c-1.271,0-2.31,1.035-2.31,2.309V64.09"/>
</g>
<linearGradient id="SVGID_6_" gradientUnits="userSpaceOnUse" x1="247.3401" y1="1116.012" x2="247.3401" y2="1136.6537" gradientTransform="matrix(1 0 0 1 -165.9595 -1061.623)">
	<stop  offset="0" style="stop-color:#FFFFFF"/>
	<stop  offset="1" style="stop-color:#D3D1D1"/>
</linearGradient>
<path fill="url(#SVGID_6_)" d="M63.709,54.106v21.143h35.342V54.106H63.709z M72.664,73.809H65.09v-6.271h7.574V73.809z
	 M72.664,66.629H65.09v-6.271h7.574V66.629z M80.998,73.809h-7.573v-6.271h7.572L80.998,73.809L80.998,73.809z M80.998,66.629
	h-7.573v-6.271h7.572L80.998,66.629L80.998,66.629z M89.334,73.809h-7.572v-6.271h7.572V73.809z M89.334,66.629h-7.572v-6.271h7.572
	V66.629z M97.67,73.809h-7.572v-6.271h7.572V73.809z M97.67,66.629h-7.572v-6.271h7.572V66.629z"/>
<g>
	
		<linearGradient id="SVGID_7_" gradientUnits="userSpaceOnUse" x1="234.804" y1="1116.7766" x2="234.804" y2="1120.9731" gradientTransform="matrix(1 0 0 1 -165.9595 -1061.623)">
		<stop  offset="0" style="stop-color:#FFFFFF"/>
		<stop  offset="1" style="stop-color:#9F9C9A"/>
	</linearGradient>
	<circle fill="url(#SVGID_7_)" stroke="#837D7C" stroke-miterlimit="10" cx="68.844" cy="57.243" r="2.149"/>
	<g>
		
			<linearGradient id="SVGID_8_" gradientUnits="userSpaceOnUse" x1="233.7297" y1="1116.7483" x2="233.7297" y2="1118.8461" gradientTransform="matrix(1 0 0 1 -165.9595 -1061.623)">
			<stop  offset="0" style="stop-color:#165EA9"/>
			<stop  offset="1" style="stop-color:#0C4D91"/>
		</linearGradient>
		<path fill="url(#SVGID_8_)" d="M66.695,57.242h2.149v-2.148C67.657,55.092,66.695,56.055,66.695,57.242z"/>
		
			<linearGradient id="SVGID_9_" gradientUnits="userSpaceOnUse" x1="235.8782" y1="1118.8948" x2="235.8782" y2="1120.9944" gradientTransform="matrix(1 0 0 1 -165.9595 -1061.623)">
			<stop  offset="0" style="stop-color:#165EA9"/>
			<stop  offset="1" style="stop-color:#0C4D91"/>
		</linearGradient>
		<path fill="url(#SVGID_9_)" d="M68.845,57.242v2.148c1.188,0,2.146-0.963,2.146-2.148H68.845z"/>
	</g>
	<circle fill="none" stroke="#9F9A99" stroke-miterlimit="10" cx="68.844" cy="57.243" r="2.149"/>
</g>
<g>
	<path fill="#FFFFFF" d="M80.78,61.213c0.018,0.057,0.021,0.096,0.021,0.113c0,0.033-0.021,0.055-0.062,0.062
		c-0.131,0.021-0.202,0.031-0.213,0.039c-0.127,0.031-0.312,0.148-0.559,0.35c-0.246,0.197-0.443,0.391-0.6,0.576
		c-0.285,0.354-0.57,0.812-0.859,1.379c-0.312,0.609-0.516,1.135-0.604,1.564c-0.006,0.029-0.027,0.227-0.074,0.586
		c-0.025,0.188-0.062,0.291-0.117,0.314c-0.18,0.08-0.312,0.119-0.404,0.119c-0.037,0-0.062-0.043-0.076-0.127
		c-0.021-0.148-0.047-0.256-0.068-0.318c-0.188-0.514-0.521-0.979-1.01-1.408c-0.229-0.199-0.402-0.334-0.521-0.395
		c-0.061-0.033-0.228-0.1-0.498-0.195c-0.077-0.025-0.116-0.082-0.116-0.16c0-0.041,0.014-0.072,0.043-0.102
		c0.069-0.086,0.188-0.225,0.346-0.414c0.099-0.111,0.188-0.207,0.28-0.283c0.049-0.041,0.09-0.061,0.125-0.061
		c0.021,0,0.068,0.018,0.145,0.053c0.232,0.113,0.482,0.291,0.75,0.535c0.266,0.244,0.443,0.471,0.541,0.674
		c0.057,0.127,0.104,0.189,0.148,0.189c0.053,0,0.113-0.098,0.191-0.281c0.068-0.176,0.254-0.482,0.547-0.922
		s0.537-0.771,0.73-0.998c0.693-0.799,1.201-1.301,1.521-1.502c0.033-0.021,0.066-0.033,0.096-0.033c0.057,0,0.105,0.064,0.16,0.199
		C80.675,60.842,80.72,60.99,80.78,61.213z"/>
</g>
<g>
	<path fill="#FFFFFF" d="M96.636,68.313c0.015,0.057,0.021,0.094,0.021,0.113c0,0.031-0.021,0.055-0.062,0.062
		c-0.131,0.021-0.2,0.033-0.213,0.039c-0.127,0.035-0.312,0.15-0.56,0.35c-0.246,0.197-0.442,0.393-0.598,0.576
		c-0.285,0.355-0.572,0.814-0.861,1.379c-0.312,0.609-0.514,1.135-0.603,1.566c-0.004,0.029-0.028,0.225-0.073,0.584
		c-0.025,0.188-0.063,0.293-0.117,0.314c-0.18,0.08-0.313,0.119-0.405,0.119c-0.037,0-0.062-0.043-0.076-0.127
		c-0.022-0.146-0.047-0.256-0.069-0.316c-0.187-0.516-0.521-0.98-1.009-1.408c-0.229-0.201-0.401-0.334-0.521-0.396
		c-0.061-0.029-0.227-0.1-0.498-0.191c-0.076-0.027-0.115-0.084-0.115-0.16c0-0.043,0.014-0.074,0.043-0.105
		c0.068-0.086,0.188-0.225,0.346-0.414c0.098-0.109,0.188-0.205,0.279-0.279c0.049-0.043,0.09-0.062,0.125-0.062
		c0.021,0,0.068,0.02,0.145,0.053c0.232,0.113,0.482,0.291,0.75,0.535c0.267,0.246,0.443,0.473,0.541,0.674
		c0.057,0.127,0.104,0.189,0.148,0.189c0.053,0,0.113-0.094,0.191-0.281c0.068-0.176,0.254-0.48,0.547-0.922
		c0.293-0.438,0.537-0.771,0.73-0.998c0.693-0.799,1.201-1.301,1.523-1.502c0.033-0.021,0.064-0.033,0.094-0.033
		c0.057,0,0.105,0.064,0.16,0.199C96.531,67.942,96.576,68.09,96.636,68.313z"/>
</g>
</svg>
