<?xml version="1.0" encoding="utf-8"?>
<!-- Generator: Adobe Illustrator 16.0.0, SVG Export Plug-In . SVG Version: 6.00 Build 0)  -->
<!DOCTYPE svg PUBLIC "-//W3C//DTD SVG 1.1//EN" "http://www.w3.org/Graphics/SVG/1.1/DTD/svg11.dtd">
<svg version="1.1" id="Layer_1" xmlns="http://www.w3.org/2000/svg" xmlns:xlink="http://www.w3.org/1999/xlink" x="0px" y="0px"
	 width="107.354px" height="84.559px" viewBox="0 0 107.354 84.559" enable-background="new 0 0 107.354 84.559"
	 xml:space="preserve">
<radialGradient id="SVGID_1_" cx="54.7366" cy="16.6389" r="13.1999" gradientUnits="userSpaceOnUse">
	<stop  offset="0" style="stop-color:#FFFFFF"/>
	<stop  offset="1" style="stop-color:#C8C8C8"/>
</radialGradient>
<path fill="#787366" stroke="url(#SVGID_1_)" stroke-width="2" stroke-miterlimit="10" d="M71.567,21.241L71.4,13.964
	c-0.396-1.369-1.847-2.151-3.237-1.748l-30.978,8.99"/>
<linearGradient id="SVGID_2_" gradientUnits="userSpaceOnUse" x1="38.3049" y1="18.7205" x2="67.3088" y2="18.7205" gradientTransform="matrix(0.9794 0.006 0.006 0.9983 3.5956 -0.5306)">
	<stop  offset="0" style="stop-color:#FFFFFF"/>
	<stop  offset="1" style="stop-color:#C8C8C8"/>
</linearGradient>
<path fill="#787366" stroke="url(#SVGID_2_)" stroke-miterlimit="10" d="M69.164,22.344l-0.171-5.995
	c-0.327-1.129-1.503-1.781-2.624-1.455l-24.986,7.251"/>
<g>
	<path fill="#787366" d="M75.125,70.43c0,1.362-1.289,2.467-2.878,2.467H36.503c-1.589,0-2.878-1.104-2.878-2.467V22.708
		c0-1.362,1.289-2.466,2.878-2.466h35.744c1.589,0,2.878,1.104,2.878,2.466V70.43z"/>
	
		<radialGradient id="SVGID_3_" cx="54.3752" cy="46.5686" r="23.7037" gradientTransform="matrix(1 0 0 0.9326 0 3.1387)" gradientUnits="userSpaceOnUse">
		<stop  offset="0" style="stop-color:#FFFFFF"/>
		<stop  offset="1" style="stop-color:#C8C8C8"/>
	</radialGradient>
	<path fill="url(#SVGID_3_)" d="M72.247,22.241c0.536,0,0.878,0.306,0.878,0.466V70.43c0,0.16-0.342,0.467-0.878,0.467H36.503
		c-0.536,0-0.878-0.307-0.878-0.467V22.708c0-0.16,0.342-0.466,0.878-0.466H72.247 M72.247,20.241H36.503
		c-1.589,0-2.878,1.104-2.878,2.466V70.43c0,1.362,1.289,2.467,2.878,2.467h35.744c1.589,0,2.878-1.104,2.878-2.467V22.708
		C75.125,21.346,73.836,20.241,72.247,20.241L72.247,20.241z"/>
</g>
<path opacity="0.6" fill="#C0B9AB" enable-background="new    " d="M35.653,48.076V23.002c0-0.434,0.654-0.787,1.464-0.787h34.547"
	/>
<g>
	
		<linearGradient id="SVGID_4_" gradientUnits="userSpaceOnUse" x1="52.2283" y1="81.343" x2="70.4593" y2="63.7259" gradientTransform="matrix(1 0 0 -1 -8.3599 108.6138)">
		<stop  offset="0" style="stop-color:#DFF4FF"/>
		<stop  offset="0.0984" style="stop-color:#D6EAF5"/>
		<stop  offset="0.2678" style="stop-color:#BFD0D9"/>
		<stop  offset="0.4879" style="stop-color:#98A5AC"/>
		<stop  offset="0.7469" style="stop-color:#646B6E"/>
		<stop  offset="1" style="stop-color:#2B2B2B"/>
	</linearGradient>
	<path fill="url(#SVGID_4_)" d="M53.718,28.197c-4.745,0-8.593,3.847-8.593,8.592c0,4.747,3.848,8.592,8.593,8.592
		s8.592-3.846,8.592-8.592C62.31,32.044,58.463,28.197,53.718,28.197z M53.718,44.951c-4.509,0-8.163-3.654-8.163-8.163
		c0-4.508,3.654-8.162,8.163-8.162c4.508,0,8.163,3.654,8.163,8.162C61.881,41.297,58.226,44.951,53.718,44.951z"/>
	<path fill="#333333" d="M61.943,36.789c0,4.542-3.683,8.225-8.225,8.225s-8.225-3.684-8.225-8.225c0-4.542,3.683-8.224,8.225-8.224
		S61.943,32.247,61.943,36.789z"/>
	
		<radialGradient id="SVGID_5_" cx="53.3777" cy="79.8479" r="12.2086" gradientTransform="matrix(1 0 0 -1 -8.3599 108.6138)" gradientUnits="userSpaceOnUse">
		<stop  offset="0" style="stop-color:#FFFFFF"/>
		<stop  offset="0.3064" style="stop-color:#A8A8A8"/>
		<stop  offset="0.6461" style="stop-color:#4F4F4F"/>
		<stop  offset="0.8853" style="stop-color:#161616"/>
		<stop  offset="1" style="stop-color:#000000"/>
	</radialGradient>
	<path fill="url(#SVGID_5_)" d="M61.881,36.789c0,4.508-3.655,8.163-8.163,8.163c-4.509,0-8.163-3.654-8.163-8.163
		c0-4.508,3.654-8.162,8.163-8.162C58.226,28.627,61.881,32.281,61.881,36.789z"/>
	
		<linearGradient id="SVGID_6_" gradientUnits="userSpaceOnUse" x1="374.9778" y1="-309.509" x2="386.5897" y2="-320.7299" gradientTransform="matrix(-1 0 0 1 434.9692 352.3604)">
		<stop  offset="0" style="stop-color:#DFF4FF"/>
		<stop  offset="0.0855" style="stop-color:#D6EAF5"/>
		<stop  offset="0.2327" style="stop-color:#BED0D9"/>
		<stop  offset="0.4239" style="stop-color:#96A4AC"/>
		<stop  offset="0.6516" style="stop-color:#5F686D"/>
		<stop  offset="0.9075" style="stop-color:#1A1D1E"/>
		<stop  offset="1" style="stop-color:#000000"/>
	</linearGradient>
	<path fill="url(#SVGID_6_)" d="M59.191,36.789c0,3.022-2.45,5.473-5.473,5.473s-5.473-2.451-5.473-5.473
		c0-3.022,2.45-5.472,5.473-5.472S59.191,33.766,59.191,36.789z"/>
	<polygon points="53.937,31.169 54.506,29.662 54.506,31.169 54.937,31.169 54.937,29.011 54.288,29.011 53.698,30.556 
		53.703,30.556 53.114,29.011 52.465,29.011 52.465,31.169 52.897,31.169 52.897,29.662 53.465,31.169 	"/>
	<polygon points="59.863,32.136 59.124,33.212 60.283,32.642 60.598,33.019 58.774,33.934 58.406,33.489 59.113,32.423 
		59.109,32.418 57.932,32.921 57.56,32.477 58.789,30.849 59.104,31.226 58.334,32.263 59.526,31.732 	"/>
	<path fill="#333333" d="M49.897,31.724c-0.175-0.169-0.442-0.22-0.694-0.063c0.048-0.125,0.028-0.252,0.003-0.322
		c-0.108-0.197-0.146-0.223-0.235-0.298c-0.29-0.242-0.595-0.035-0.812,0.225l-1.054,1.255l1.655,1.389l1.11-1.323
		C50.124,32.283,50.163,31.983,49.897,31.724z M47.755,32.33l0.632-0.754c0.074-0.088,0.239-0.084,0.346,0.006
		c0.117,0.098,0.117,0.237,0.039,0.331l-0.626,0.745L47.755,32.33z M49.5,32.455l-0.66,0.786l-0.413-0.348l0.664-0.792
		c0.076-0.089,0.243-0.115,0.356-0.021C49.574,32.188,49.587,32.35,49.5,32.455z"/>
	
		<radialGradient id="SVGID_7_" cx="51.1853" cy="81.092" r="29.3348" gradientTransform="matrix(1 0 0 -1 -8.3599 108.6138)" gradientUnits="userSpaceOnUse">
		<stop  offset="0" style="stop-color:#FFFFFF"/>
		<stop  offset="0.3102" style="stop-color:#FDFDFD"/>
		<stop  offset="0.4505" style="stop-color:#F6F6F6"/>
		<stop  offset="0.5567" style="stop-color:#E9E9E9"/>
		<stop  offset="0.6456" style="stop-color:#D7D7D7"/>
		<stop  offset="0.7238" style="stop-color:#BFBFBF"/>
		<stop  offset="0.7944" style="stop-color:#A2A2A2"/>
		<stop  offset="0.8593" style="stop-color:#808080"/>
		<stop  offset="0.9199" style="stop-color:#575757"/>
		<stop  offset="0.9746" style="stop-color:#2B2B2B"/>
		<stop  offset="1" style="stop-color:#141414"/>
	</radialGradient>
	<polygon fill="url(#SVGID_7_)" points="53.942,31.086 54.51,29.579 54.51,31.086 54.942,31.086 54.942,28.927 54.293,28.927 
		53.702,30.472 53.708,30.472 53.118,28.927 52.469,28.927 52.469,31.086 52.901,31.086 52.901,29.579 53.47,31.086 	"/>
	
		<radialGradient id="SVGID_8_" cx="51.1868" cy="81.0901" r="29.3322" gradientTransform="matrix(1 0 0 -1 -8.3599 108.6138)" gradientUnits="userSpaceOnUse">
		<stop  offset="0" style="stop-color:#FFFFFF"/>
		<stop  offset="0.3102" style="stop-color:#FDFDFD"/>
		<stop  offset="0.4505" style="stop-color:#F6F6F6"/>
		<stop  offset="0.5567" style="stop-color:#E9E9E9"/>
		<stop  offset="0.6456" style="stop-color:#D7D7D7"/>
		<stop  offset="0.7238" style="stop-color:#BFBFBF"/>
		<stop  offset="0.7944" style="stop-color:#A2A2A2"/>
		<stop  offset="0.8593" style="stop-color:#808080"/>
		<stop  offset="0.9199" style="stop-color:#575757"/>
		<stop  offset="0.9746" style="stop-color:#2B2B2B"/>
		<stop  offset="1" style="stop-color:#141414"/>
	</radialGradient>
	<polygon fill="url(#SVGID_8_)" points="59.866,31.992 59.129,33.067 60.287,32.497 60.602,32.875 58.779,33.79 58.41,33.344 
		59.116,32.278 59.113,32.272 57.937,32.776 57.565,32.333 58.794,30.705 59.109,31.082 58.338,32.119 59.53,31.587 	"/>
	
		<radialGradient id="SVGID_9_" cx="51.1814" cy="81.0989" r="29.3643" gradientTransform="matrix(1 0 0 -1 -8.3599 108.6138)" gradientUnits="userSpaceOnUse">
		<stop  offset="0" style="stop-color:#FFFFFF"/>
		<stop  offset="0.3102" style="stop-color:#FDFDFD"/>
		<stop  offset="0.4505" style="stop-color:#F6F6F6"/>
		<stop  offset="0.5567" style="stop-color:#E9E9E9"/>
		<stop  offset="0.6456" style="stop-color:#D7D7D7"/>
		<stop  offset="0.7238" style="stop-color:#BFBFBF"/>
		<stop  offset="0.7944" style="stop-color:#A2A2A2"/>
		<stop  offset="0.8593" style="stop-color:#808080"/>
		<stop  offset="0.9199" style="stop-color:#575757"/>
		<stop  offset="0.9746" style="stop-color:#2B2B2B"/>
		<stop  offset="1" style="stop-color:#141414"/>
	</radialGradient>
	<path fill="url(#SVGID_9_)" d="M49.819,31.681c-0.173-0.168-0.441-0.22-0.693-0.063c0.048-0.124,0.028-0.252,0.003-0.321
		c-0.109-0.198-0.146-0.223-0.236-0.298c-0.289-0.243-0.594-0.036-0.812,0.224l-1.054,1.255l1.655,1.389l1.111-1.323
		C50.046,32.241,50.086,31.941,49.819,31.681z M47.677,32.287l0.633-0.753c0.073-0.088,0.239-0.084,0.346,0.005
		c0.117,0.099,0.117,0.237,0.038,0.331l-0.625,0.745L47.677,32.287z M49.423,32.412l-0.659,0.786l-0.414-0.347l0.665-0.792
		c0.075-0.09,0.242-0.116,0.354-0.021C49.497,32.145,49.51,32.308,49.423,32.412z"/>
	
		<radialGradient id="SVGID_10_" cx="56.4387" cy="77.0256" r="7.9126" gradientTransform="matrix(1 0 0 -1 -8.3599 108.6138)" gradientUnits="userSpaceOnUse">
		<stop  offset="0" style="stop-color:#E6E6E6"/>
		<stop  offset="0.1045" style="stop-color:#D6D6D6"/>
		<stop  offset="0.3074" style="stop-color:#ADADAD"/>
		<stop  offset="0.5884" style="stop-color:#6C6C6C"/>
		<stop  offset="0.9335" style="stop-color:#121212"/>
		<stop  offset="1" style="stop-color:#000000"/>
	</radialGradient>
	<path fill="url(#SVGID_10_)" d="M48.427,36.79c0-2.922,2.369-5.291,5.291-5.291s5.29,2.369,5.29,5.291
		c0,2.921-2.368,5.291-5.29,5.291S48.427,39.711,48.427,36.79z"/>
	
		<radialGradient id="SVGID_11_" cx="58.6038" cy="75.9612" r="11.5066" gradientTransform="matrix(1 0 0 -1 -8.3599 108.6138)" gradientUnits="userSpaceOnUse">
		<stop  offset="0" style="stop-color:#FFFFFF"/>
		<stop  offset="0.3435" style="stop-color:#FDFDFD"/>
		<stop  offset="0.4814" style="stop-color:#F6F6F6"/>
		<stop  offset="0.5824" style="stop-color:#EAEAEA"/>
		<stop  offset="0.6654" style="stop-color:#D8D8D8"/>
		<stop  offset="0.7373" style="stop-color:#C2C2C2"/>
		<stop  offset="0.8016" style="stop-color:#A6A6A6"/>
		<stop  offset="0.8602" style="stop-color:#848484"/>
		<stop  offset="0.9126" style="stop-color:#5F5F5F"/>
		<stop  offset="0.9494" style="stop-color:#404040"/>
		<stop  offset="0.9566" style="stop-color:#404040"/>
		<stop  offset="1" style="stop-color:#404040"/>
		<stop  offset="1" style="stop-color:#000000"/>
	</radialGradient>
	<path fill="url(#SVGID_11_)" d="M48.579,36.79c0-2.838,2.301-5.139,5.139-5.139s5.139,2.301,5.139,5.139
		c0,2.837-2.301,5.138-5.139,5.138S48.579,39.627,48.579,36.79z"/>
	
		<radialGradient id="SVGID_12_" cx="55.2249" cy="80.3225" r="20.3791" gradientTransform="matrix(1 0 0 -1 -8.3599 108.6138)" gradientUnits="userSpaceOnUse">
		<stop  offset="0.1685" style="stop-color:#FFFFFF"/>
		<stop  offset="0.1957" style="stop-color:#E0EFF7"/>
		<stop  offset="0.2406" style="stop-color:#B2D9EC"/>
		<stop  offset="0.2872" style="stop-color:#8BC5E2"/>
		<stop  offset="0.335" style="stop-color:#6BB5DA"/>
		<stop  offset="0.3844" style="stop-color:#52A9D4"/>
		<stop  offset="0.4359" style="stop-color:#41A0CF"/>
		<stop  offset="0.4911" style="stop-color:#369BCD"/>
		<stop  offset="0.5562" style="stop-color:#3399CC"/>
		<stop  offset="0.606" style="stop-color:#3396C8"/>
		<stop  offset="0.6553" style="stop-color:#328EBC"/>
		<stop  offset="0.7045" style="stop-color:#3180A8"/>
		<stop  offset="0.7536" style="stop-color:#2F6D8C"/>
		<stop  offset="0.8027" style="stop-color:#2D5468"/>
		<stop  offset="0.8512" style="stop-color:#2A373D"/>
		<stop  offset="0.8708" style="stop-color:#292929"/>
	</radialGradient>
	<path fill="url(#SVGID_12_)" d="M48.572,36.79h5.146v-5.146C50.875,31.643,48.572,33.947,48.572,36.79z"/>
	
		<radialGradient id="SVGID_13_" cx="55.2249" cy="80.3225" r="20.3782" gradientTransform="matrix(1 0 0 -1 -8.3599 108.6138)" gradientUnits="userSpaceOnUse">
		<stop  offset="0.1685" style="stop-color:#FFFFFF"/>
		<stop  offset="0.1957" style="stop-color:#E0EFF7"/>
		<stop  offset="0.2406" style="stop-color:#B2D9EC"/>
		<stop  offset="0.2872" style="stop-color:#8BC5E2"/>
		<stop  offset="0.335" style="stop-color:#6BB5DA"/>
		<stop  offset="0.3844" style="stop-color:#52A9D4"/>
		<stop  offset="0.4359" style="stop-color:#41A0CF"/>
		<stop  offset="0.4911" style="stop-color:#369BCD"/>
		<stop  offset="0.5562" style="stop-color:#3399CC"/>
		<stop  offset="0.606" style="stop-color:#3396C8"/>
		<stop  offset="0.6553" style="stop-color:#328EBC"/>
		<stop  offset="0.7045" style="stop-color:#3180A8"/>
		<stop  offset="0.7536" style="stop-color:#2F6D8C"/>
		<stop  offset="0.8027" style="stop-color:#2D5468"/>
		<stop  offset="0.8512" style="stop-color:#2A373D"/>
		<stop  offset="0.8708" style="stop-color:#292929"/>
	</radialGradient>
	<path fill="url(#SVGID_13_)" d="M53.718,36.79v5.146c2.842,0,5.146-2.305,5.146-5.146H53.718L53.718,36.79z"/>
	
		<radialGradient id="SVGID_14_" cx="56.5471" cy="76.926" r="7.7606" gradientTransform="matrix(1 0 0 -1 -8.3599 108.6138)" gradientUnits="userSpaceOnUse">
		<stop  offset="0" style="stop-color:#E6E6E6"/>
		<stop  offset="0.1045" style="stop-color:#D6D6D6"/>
		<stop  offset="0.3074" style="stop-color:#ADADAD"/>
		<stop  offset="0.5884" style="stop-color:#6C6C6C"/>
		<stop  offset="0.9335" style="stop-color:#121212"/>
		<stop  offset="1" style="stop-color:#000000"/>
	</radialGradient>
	<polygon fill="url(#SVGID_14_)" points="58.906,36.698 53.809,36.698 53.809,31.6 53.626,31.6 53.626,36.698 48.529,36.698 
		48.529,36.881 53.626,36.881 53.626,41.979 53.809,41.979 53.809,36.881 58.906,36.881 	"/>
	
		<linearGradient id="SVGID_15_" gradientUnits="userSpaceOnUse" x1="61.0608" y1="78.8645" x2="68.629" y2="71.5511" gradientTransform="matrix(1 0 0 -1 -8.3599 108.6138)">
		<stop  offset="0" style="stop-color:#F0F4FF"/>
		<stop  offset="0.1086" style="stop-color:#EBEFF9"/>
		<stop  offset="0.2475" style="stop-color:#DCE0EA"/>
		<stop  offset="0.4028" style="stop-color:#C4C7CF"/>
		<stop  offset="0.5701" style="stop-color:#A2A4AB"/>
		<stop  offset="0.7469" style="stop-color:#76777C"/>
		<stop  offset="0.9291" style="stop-color:#414243"/>
		<stop  offset="1" style="stop-color:#2B2B2B"/>
	</linearGradient>
	<path fill="url(#SVGID_15_)" d="M53.809,31.745c2.715,0.048,4.905,2.238,4.954,4.953h0.091c-0.048-2.765-2.279-4.996-5.045-5.045
		V31.745L53.809,31.745z"/>
	<path fill="#C2D7E8" d="M48.664,36.697c0.048-2.718,2.241-4.911,4.96-4.96v-0.092c-2.77,0.049-5.003,2.283-5.052,5.052H48.664
		L48.664,36.697z"/>
	
		<linearGradient id="SVGID_16_" gradientUnits="userSpaceOnUse" x1="54.9172" y1="72.6897" x2="62.4865" y2="65.3753" gradientTransform="matrix(1 0 0 -1 -8.3599 108.6138)">
		<stop  offset="0" style="stop-color:#F0F4FF"/>
		<stop  offset="0.1086" style="stop-color:#EBEFF9"/>
		<stop  offset="0.2475" style="stop-color:#DCE0EA"/>
		<stop  offset="0.4028" style="stop-color:#C4C7CF"/>
		<stop  offset="0.5701" style="stop-color:#A2A4AB"/>
		<stop  offset="0.7469" style="stop-color:#76777C"/>
		<stop  offset="0.9291" style="stop-color:#414243"/>
		<stop  offset="1" style="stop-color:#2B2B2B"/>
	</linearGradient>
	<path fill="url(#SVGID_16_)" d="M53.626,41.834c-2.715-0.049-4.905-2.238-4.953-4.954h-0.092c0.049,2.764,2.28,4.997,5.045,5.045
		V41.834L53.626,41.834z"/>
	<path fill="#12404F" d="M58.763,36.881c-0.049,2.715-2.239,4.905-4.954,4.954v0.092c2.766-0.049,4.997-2.281,5.045-5.045H58.763z"
		/>
	
		<linearGradient id="SVGID_17_" gradientUnits="userSpaceOnUse" x1="58.5793" y1="75.2971" x2="62.5038" y2="71.5048" gradientTransform="matrix(1 0 0 -1 -8.3599 108.6138)">
		<stop  offset="0" style="stop-color:#C2D7E8"/>
		<stop  offset="0.1337" style="stop-color:#BACFE1"/>
		<stop  offset="0.3425" style="stop-color:#A4BACD"/>
		<stop  offset="0.6001" style="stop-color:#8098AC"/>
		<stop  offset="0.894" style="stop-color:#4E697F"/>
		<stop  offset="1" style="stop-color:#3A566D"/>
	</linearGradient>
	<polygon fill="url(#SVGID_17_)" points="53.529,31.645 53.529,36.597 48.577,36.597 48.577,36.696 53.529,36.696 53.626,36.696 
		53.626,36.597 53.626,31.645 	"/>
	
		<linearGradient id="SVGID_18_" gradientUnits="userSpaceOnUse" x1="56.6145" y1="74.3665" x2="64.105" y2="67.1281" gradientTransform="matrix(1 0 0 -1 -8.3599 108.6138)">
		<stop  offset="0" style="stop-color:#F0F4FF"/>
		<stop  offset="0.0973" style="stop-color:#E8EBF6"/>
		<stop  offset="0.2568" style="stop-color:#D1D4DD"/>
		<stop  offset="0.4587" style="stop-color:#ABAEB5"/>
		<stop  offset="0.6951" style="stop-color:#78797D"/>
		<stop  offset="0.9578" style="stop-color:#363637"/>
		<stop  offset="1" style="stop-color:#2B2B2B"/>
	</linearGradient>
	<polygon fill="url(#SVGID_18_)" points="53.521,41.877 53.521,36.985 48.618,36.985 48.618,36.888 53.521,36.888 53.617,36.888 
		53.617,36.985 53.617,41.877 	"/>
	
		<linearGradient id="SVGID_19_" gradientUnits="userSpaceOnUse" x1="62.136" y1="71.6819" x2="64.7638" y2="69.1425" gradientTransform="matrix(1 0 0 -1 -8.3599 108.6138)">
		<stop  offset="0" style="stop-color:#D9DEF0"/>
		<stop  offset="0.1229" style="stop-color:#D4DAEC"/>
		<stop  offset="0.2629" style="stop-color:#C7CFE2"/>
		<stop  offset="0.4114" style="stop-color:#B0BCD1"/>
		<stop  offset="0.5657" style="stop-color:#90A1B8"/>
		<stop  offset="0.7246" style="stop-color:#677F99"/>
		<stop  offset="0.8849" style="stop-color:#355674"/>
		<stop  offset="0.9719" style="stop-color:#173D5D"/>
	</linearGradient>
	<polygon fill="url(#SVGID_19_)" points="53.913,41.877 53.913,36.985 58.806,36.985 58.806,36.888 53.913,36.888 53.818,36.888 
		53.818,36.985 53.818,41.877 	"/>
	
		<linearGradient id="SVGID_20_" gradientUnits="userSpaceOnUse" x1="59.4475" y1="77.1165" x2="66.9318" y2="69.8841" gradientTransform="matrix(1 0 0 -1 -8.3599 108.6138)">
		<stop  offset="0" style="stop-color:#F0F4FF"/>
		<stop  offset="0.1086" style="stop-color:#EBEFF9"/>
		<stop  offset="0.2475" style="stop-color:#DCE0EA"/>
		<stop  offset="0.4028" style="stop-color:#C4C7CF"/>
		<stop  offset="0.5701" style="stop-color:#A2A4AB"/>
		<stop  offset="0.7469" style="stop-color:#76777C"/>
		<stop  offset="0.9291" style="stop-color:#414243"/>
		<stop  offset="1" style="stop-color:#2B2B2B"/>
	</linearGradient>
	<polygon fill="url(#SVGID_20_)" points="53.913,31.689 53.913,36.582 58.806,36.582 58.806,36.678 53.913,36.678 53.818,36.678 
		53.818,36.582 53.818,31.689 	"/>
</g>
<g>
	<radialGradient id="SVGID_21_" cx="43.3347" cy="59.5178" r="2.0994" gradientUnits="userSpaceOnUse">
		<stop  offset="0" style="stop-color:#FFFFFF"/>
		<stop  offset="1" style="stop-color:#C8C8C8"/>
	</radialGradient>
	<path fill="url(#SVGID_21_)" d="M41.411,61.78v-4.523h1.049l0.885,3.396l0.882-3.396h1.031v4.523h-0.806v-3.103l-0.785,3.103
		h-0.665l-0.785-3.103v3.103H41.411z"/>
	<radialGradient id="SVGID_22_" cx="47.429" cy="59.5178" r="2.0204" gradientUnits="userSpaceOnUse">
		<stop  offset="0" style="stop-color:#FFFFFF"/>
		<stop  offset="1" style="stop-color:#C8C8C8"/>
	</radialGradient>
	<path fill="url(#SVGID_22_)" d="M45.683,61.78l1.195-4.523h1.107l1.189,4.523h-0.858l-0.24-0.961H46.72l-0.234,0.961H45.683z
		 M46.896,60.118h1.008L47.4,58.082L46.896,60.118z"/>
	<radialGradient id="SVGID_23_" cx="50.9563" cy="59.5178" r="2.0081" gradientUnits="userSpaceOnUse">
		<stop  offset="0" style="stop-color:#FFFFFF"/>
		<stop  offset="1" style="stop-color:#C8C8C8"/>
	</radialGradient>
	<path fill="url(#SVGID_23_)" d="M50.921,61.87c-0.223,0-0.429-0.042-0.618-0.126s-0.354-0.219-0.494-0.404
		s-0.248-0.425-0.326-0.718s-0.117-0.649-0.117-1.069c0-0.393,0.038-0.737,0.114-1.035s0.187-0.547,0.329-0.748
		c0.145-0.199,0.32-0.351,0.529-0.452s0.445-0.152,0.709-0.152c0.299,0,0.554,0.051,0.765,0.152s0.374,0.263,0.491,0.481
		c0.115,0.221,0.195,0.469,0.238,0.746l-0.823,0.176c-0.037-0.197-0.091-0.359-0.159-0.486c-0.07-0.127-0.151-0.214-0.244-0.261
		s-0.188-0.07-0.288-0.07c-0.264,0-0.461,0.143-0.591,0.428s-0.194,0.698-0.194,1.239c0,0.537,0.068,0.932,0.205,1.184
		s0.33,0.378,0.58,0.378c0.094,0,0.182-0.016,0.265-0.047s0.156-0.081,0.217-0.147c0.062-0.068,0.11-0.153,0.146-0.257
		s0.053-0.228,0.053-0.372v-0.252h-0.498v-0.636h1.339v2.358h-0.548l-0.076-0.457c-0.109,0.178-0.247,0.313-0.411,0.407
		C51.346,61.823,51.15,61.87,50.921,61.87z"/>
	<radialGradient id="SVGID_24_" cx="54.6506" cy="59.5178" r="2.0204" gradientUnits="userSpaceOnUse">
		<stop  offset="0" style="stop-color:#FFFFFF"/>
		<stop  offset="1" style="stop-color:#C8C8C8"/>
	</radialGradient>
	<path fill="url(#SVGID_24_)" d="M52.905,61.78l1.195-4.523h1.107l1.189,4.523h-0.858l-0.24-0.961h-1.356l-0.234,0.961H52.905z
		 M54.117,60.118h1.008l-0.504-2.036L54.117,60.118z"/>
	<radialGradient id="SVGID_25_" cx="58.0208" cy="59.5178" r="1.8916" gradientUnits="userSpaceOnUse">
		<stop  offset="0" style="stop-color:#FFFFFF"/>
		<stop  offset="1" style="stop-color:#C8C8C8"/>
	</radialGradient>
	<path fill="url(#SVGID_25_)" d="M56.593,61.78v-0.697l1.866-3.105h-1.723v-0.721h2.643v0.694l-1.86,3.108h1.931v0.721H56.593z"/>
	<radialGradient id="SVGID_26_" cx="60.4622" cy="59.5178" r="1.6281" gradientUnits="userSpaceOnUse">
		<stop  offset="0" style="stop-color:#FFFFFF"/>
		<stop  offset="1" style="stop-color:#C8C8C8"/>
	</radialGradient>
	<path fill="url(#SVGID_26_)" d="M60.03,61.78v-4.523h0.864v4.523H60.03z"/>
	<radialGradient id="SVGID_27_" cx="63.176" cy="59.5178" r="1.9088" gradientUnits="userSpaceOnUse">
		<stop  offset="0" style="stop-color:#FFFFFF"/>
		<stop  offset="1" style="stop-color:#C8C8C8"/>
	</radialGradient>
	<path fill="url(#SVGID_27_)" d="M61.702,61.78v-4.523h0.87l1.236,3.029v-3.029h0.841v4.523h-0.87l-1.236-3.012v3.012H61.702z"/>
	<radialGradient id="SVGID_28_" cx="66.7961" cy="59.5178" r="1.8578" gradientUnits="userSpaceOnUse">
		<stop  offset="0" style="stop-color:#FFFFFF"/>
		<stop  offset="1" style="stop-color:#C8C8C8"/>
	</radialGradient>
	<path fill="url(#SVGID_28_)" d="M65.458,61.78v-4.523h2.593v0.721h-1.729v1.146h1.626v0.706h-1.626v1.23h1.811v0.721H65.458z"/>
</g>
</svg>
