<?xml version="1.0" encoding="utf-8"?>
<!-- Generator: Adobe Illustrator 16.0.0, SVG Export Plug-In . SVG Version: 6.00 Build 0)  -->
<!DOCTYPE svg PUBLIC "-//W3C//DTD SVG 1.1//EN" "http://www.w3.org/Graphics/SVG/1.1/DTD/svg11.dtd">
<svg version="1.1" id="Layer_1" xmlns="http://www.w3.org/2000/svg" xmlns:xlink="http://www.w3.org/1999/xlink" x="0px" y="0px"
	 width="107.354px" height="84.559px" viewBox="0 0 107.354 84.559" enable-background="new 0 0 107.354 84.559"
	 xml:space="preserve">
<linearGradient id="SVGID_1_" gradientUnits="userSpaceOnUse" x1="26.2039" y1="65.887" x2="98.1614" y2="65.887" gradientTransform="matrix(1 0 0 -1 -8.3599 108.6138)">
	<stop  offset="0" style="stop-color:#E6E6E6"/>
	<stop  offset="0.5398" style="stop-color:#FFFFFF"/>
	<stop  offset="1" style="stop-color:#C8C8C8"/>
</linearGradient>
<path fill="url(#SVGID_1_)" d="M84.311,16.196h-7.635v-1.099c0-2.221-1.842-4.674-4.062-4.674h-4.159
	c-2.223,0-4.021,2.453-4.021,4.674v1.432H42.927v-2.083c0-2.221-1.968-4.022-4.19-4.022h-3.759c-2.22,0-4.021,2.453-4.021,4.674
	v1.516h-8.83c-2.365,0-4.282,2.801-4.282,5.165v48.592c0,2.365,1.917,4.661,4.282,4.661h62.186c2.366,0,5.49-1.84,5.49-5.333v-47.92
	C89.802,19.413,88.176,16.196,84.311,16.196z"/>
<g>
	<g>
		<path fill="#777266" d="M88.176,69.104c0,2.309-1.868,4.179-4.176,4.179H23.352c-2.307,0-4.176-1.87-4.176-4.179V21.715
			c0-2.306,1.869-4.176,4.176-4.176H84c2.308,0,4.176,1.87,4.176,4.176V69.104z"/>
	</g>
</g>
<path fill="#FFFFFF" d="M26.175,33.5v32.902h55.004V33.5H26.175z M40.109,64.164H28.323v-9.762h11.785V64.164z M40.109,52.992
	H28.323V43.23h11.785V52.992z M53.083,64.164H41.297v-9.762h11.786V64.164z M53.083,52.992H41.297V43.23h11.786V52.992z
	 M66.057,64.164H54.271v-9.762h11.786V64.164z M66.057,52.992H54.271V43.23h11.786V52.992z M79.029,64.164H67.244v-9.762h11.784
	V64.164z M79.029,52.992H67.244V43.23h11.784V52.992z"/>
<g>
	<path fill="#FFFFFF" d="M52.742,44.562c0.021,0.086,0.033,0.146,0.033,0.179c0,0.052-0.032,0.084-0.102,0.099
		c-0.202,0.033-0.312,0.053-0.328,0.061c-0.197,0.055-0.486,0.234-0.868,0.543c-0.383,0.309-0.69,0.605-0.93,0.896
		c-0.445,0.555-0.894,1.271-1.34,2.146c-0.485,0.951-0.8,1.766-0.938,2.441c-0.007,0.043-0.046,0.346-0.116,0.908
		c-0.04,0.289-0.104,0.453-0.183,0.492c-0.278,0.125-0.489,0.188-0.636,0.188c-0.059,0-0.098-0.065-0.115-0.199
		c-0.038-0.23-0.075-0.396-0.111-0.496c-0.287-0.799-0.811-1.527-1.567-2.189c-0.357-0.314-0.627-0.521-0.808-0.619
		c-0.094-0.051-0.354-0.152-0.774-0.305c-0.123-0.043-0.184-0.127-0.184-0.248c0-0.064,0.021-0.117,0.064-0.158
		c0.111-0.135,0.291-0.351,0.538-0.646c0.147-0.176,0.294-0.32,0.438-0.439c0.073-0.064,0.139-0.097,0.191-0.097
		c0.038,0,0.111,0.026,0.225,0.079c0.365,0.18,0.754,0.455,1.166,0.837c0.413,0.38,0.693,0.729,0.843,1.048
		c0.088,0.193,0.165,0.295,0.232,0.295c0.082,0,0.182-0.146,0.301-0.438c0.109-0.271,0.396-0.752,0.853-1.436
		s0.838-1.201,1.142-1.554c1.079-1.243,1.869-2.022,2.37-2.339c0.055-0.031,0.104-0.051,0.146-0.051c0.085,0,0.169,0.104,0.249,0.31
		C52.581,43.982,52.65,44.215,52.742,44.562z"/>
</g>
<g>
	<path fill="#FFFFFF" d="M77.42,55.613c0.022,0.085,0.035,0.145,0.035,0.18c0,0.051-0.033,0.082-0.103,0.096
		c-0.203,0.033-0.312,0.055-0.33,0.062c-0.196,0.056-0.485,0.233-0.867,0.544c-0.383,0.309-0.69,0.605-0.93,0.896
		c-0.445,0.555-0.892,1.271-1.34,2.146c-0.486,0.947-0.8,1.764-0.938,2.438c-0.007,0.045-0.046,0.349-0.115,0.908
		c-0.041,0.291-0.104,0.455-0.185,0.492c-0.276,0.125-0.489,0.188-0.635,0.188c-0.058,0-0.097-0.064-0.117-0.196
		c-0.037-0.231-0.073-0.399-0.108-0.497c-0.289-0.799-0.812-1.527-1.567-2.191c-0.359-0.314-0.628-0.521-0.81-0.619
		c-0.093-0.051-0.353-0.151-0.774-0.303c-0.121-0.045-0.183-0.129-0.183-0.25c0-0.064,0.021-0.117,0.065-0.156
		c0.108-0.135,0.291-0.352,0.537-0.645c0.147-0.178,0.295-0.324,0.437-0.441c0.073-0.063,0.139-0.098,0.192-0.098
		c0.037,0,0.11,0.025,0.224,0.082c0.364,0.176,0.754,0.452,1.168,0.834c0.411,0.381,0.692,0.729,0.842,1.049
		c0.088,0.194,0.164,0.293,0.231,0.293c0.082,0,0.183-0.146,0.302-0.438c0.11-0.271,0.396-0.752,0.853-1.436
		c0.457-0.685,0.838-1.201,1.141-1.553c1.08-1.244,1.869-2.025,2.371-2.341c0.056-0.032,0.104-0.05,0.146-0.05
		c0.084,0,0.168,0.104,0.248,0.311C77.258,55.033,77.328,55.266,77.42,55.613z"/>
</g>
<path opacity="0.6" fill="#C1BAAC" enable-background="new    " d="M25.052,32.342h28.573l29.177-14.803h-59.45
	c-2.307,0-4.176,1.87-4.176,4.176v33.508l5.875-3.819L25.052,32.342L25.052,32.342z"/>
<g>
	<path fill="#777266" d="M41.826,24.482c0,2.166-1.758,3.924-3.925,3.924h-2.016c-2.165,0-3.923-1.758-3.923-3.924V15.2
		c0-2.166,1.758-3.925,3.923-3.925h2.016c2.167,0,3.925,1.759,3.925,3.925V24.482z"/>
	<path fill="#777266" d="M75.389,24.482c0,2.166-1.759,3.924-3.925,3.924h-2.017c-2.165,0-3.922-1.758-3.922-3.924V15.2
		c0-2.166,1.757-3.925,3.922-3.925h2.017c2.166,0,3.925,1.759,3.925,3.925V24.482z"/>
</g>
<path opacity="0.6" fill="#C1BAAC" enable-background="new    " d="M40.724,22.894c0,1.683-1.364,3.046-3.047,3.046h-1.565
	c-1.681,0-3.046-1.363-3.046-3.046v-7.207c0-1.682,1.365-3.047,3.046-3.047h1.565c1.683,0,3.047,1.365,3.047,3.047V22.894z"/>
<path opacity="0.6" fill="#C1BAAC" enable-background="new    " d="M74.288,22.894c0,1.683-1.363,3.046-3.047,3.046h-1.564
	c-1.682,0-3.047-1.363-3.047-3.046v-7.207c0-1.682,1.365-3.047,3.047-3.047h1.564c1.684,0,3.047,1.365,3.047,3.047V22.894z"/>
</svg>
