<?xml version="1.0" encoding="utf-8"?>
<!-- Generator: Adobe Illustrator 16.0.4, SVG Export Plug-In . SVG Version: 6.00 Build 0)  -->
<!DOCTYPE svg PUBLIC "-//W3C//DTD SVG 1.1//EN" "http://www.w3.org/Graphics/SVG/1.1/DTD/svg11.dtd">
<svg version="1.1" id="Layer_1" xmlns="http://www.w3.org/2000/svg" xmlns:xlink="http://www.w3.org/1999/xlink" x="0px" y="0px"
	 width="107.354px" height="84.559px" viewBox="0 0 107.354 84.559" enable-background="new 0 0 107.354 84.559"
	 xml:space="preserve">
<linearGradient id="SVGID_1_" gradientUnits="userSpaceOnUse" x1="54.4792" y1="28.2229" x2="89.5876" y2="28.2229">
	<stop  offset="0" style="stop-color:#E6E6E6"/>
	<stop  offset="0.5398" style="stop-color:#FFFFFF"/>
	<stop  offset="1" style="stop-color:#C8C8C8"/>
</linearGradient>
<path fill="url(#SVGID_1_)" d="M89.588,38.953c0,1.632-1.324,2.956-2.958,2.956H57.435c-1.633,0-2.956-1.324-2.956-2.956V17.492
	c0-1.632,1.324-2.956,2.956-2.956H86.63c1.635,0,2.958,1.324,2.958,2.956V38.953z"/>
<g>
	<path fill="#777266" d="M88.736,38.433c0,1.553-1.26,2.812-2.814,2.812H58.143c-1.554,0-2.812-1.26-2.812-2.812v-20.42
		c0-1.553,1.26-2.812,2.812-2.812h27.778c1.556,0,2.814,1.26,2.814,2.812V38.433z"/>
</g>
<path opacity="0.6" fill="#C1BAAC" d="M70.667,15.2H58.143c-1.553,0-2.812,1.26-2.812,2.812v14.624L70.667,15.2z"/>
<linearGradient id="SVGID_2_" gradientUnits="userSpaceOnUse" x1="58.8845" y1="28.2224" x2="85.1804" y2="28.2224">
	<stop  offset="0" style="stop-color:#FFFFFF"/>
	<stop  offset="1" style="stop-color:#C8C8C8"/>
</linearGradient>
<rect x="58.885" y="21.359" fill="url(#SVGID_2_)" width="26.296" height="13.728"/>
<g>
	<rect x="59.158" y="17.511" fill="#FFFFFF" width="1.992" height="1.993"/>
	<rect x="63.91" y="17.511" fill="#FFFFFF" width="1.992" height="1.993"/>
	<rect x="68.662" y="17.511" fill="#FFFFFF" width="1.992" height="1.993"/>
	<rect x="73.412" y="17.511" fill="#FFFFFF" width="1.994" height="1.993"/>
	<rect x="78.164" y="17.511" fill="#FFFFFF" width="1.992" height="1.993"/>
	<rect x="82.914" y="17.511" fill="#FFFFFF" width="1.994" height="1.993"/>
</g>
<polygon fill="#777266" points="69.658,23.962 76.291,28.223 69.658,32.483 "/>
<g>
	<rect x="59.158" y="37.107" fill="#FFFFFF" width="1.992" height="1.993"/>
	<rect x="63.91" y="37.107" fill="#FFFFFF" width="1.992" height="1.993"/>
	<rect x="68.662" y="37.107" fill="#FFFFFF" width="1.992" height="1.993"/>
	<rect x="73.412" y="37.107" fill="#FFFFFF" width="1.994" height="1.993"/>
	<rect x="78.164" y="37.107" fill="#FFFFFF" width="1.992" height="1.993"/>
	<rect x="82.914" y="37.107" fill="#FFFFFF" width="1.994" height="1.993"/>
</g>
<linearGradient id="SVGID_3_" gradientUnits="userSpaceOnUse" x1="17.531" y1="41.99" x2="46.6599" y2="41.99">
	<stop  offset="0" style="stop-color:#E6E6E6"/>
	<stop  offset="0.5398" style="stop-color:#FFFFFF"/>
	<stop  offset="1" style="stop-color:#C8C8C8"/>
</linearGradient>
<path fill="url(#SVGID_3_)" d="M46.66,57.09c0,1.678-1.361,3.038-3.041,3.038H20.571c-1.68,0-3.04-1.361-3.04-3.038V26.891
	c0-1.678,1.36-3.039,3.04-3.039h23.049c1.679,0,3.041,1.361,3.041,3.039V57.09z"/>
<g>
	<path fill="#777266" d="M45.573,55.963c0,1.553-1.26,2.812-2.813,2.812H21.43c-1.555,0-2.812-1.26-2.812-2.812V28.018
		c0-1.553,1.259-2.812,2.812-2.812H42.76c1.554,0,2.813,1.26,2.813,2.812V55.963z"/>
	<rect x="22.668" y="44.553" fill="#FFFFFF" width="18.854" height="1.654"/>
	<rect x="22.668" y="49.514" fill="#FFFFFF" width="18.854" height="1.654"/>
</g>
<path opacity="0.6" fill="#C1BAAC" d="M38.463,25.205H21.43c-1.554,0-2.812,1.26-2.812,2.812V49.51L38.463,25.205z"/>
<rect x="22.668" y="31.158" fill="#FFFFFF" width="4.631" height="4.631"/>
<rect x="22.668" y="39.592" fill="#FFFFFF" width="18.854" height="1.654"/>
<linearGradient id="SVGID_4_" gradientUnits="userSpaceOnUse" x1="30.5383" y1="51.1682" x2="80.1218" y2="51.1682">
	<stop  offset="0" style="stop-color:#E6E6E6"/>
	<stop  offset="0.5398" style="stop-color:#FFFFFF"/>
	<stop  offset="1" style="stop-color:#C8C8C8"/>
</linearGradient>
<path fill="url(#SVGID_4_)" d="M80.122,67.637c0,1.664-1.349,3.01-3.012,3.01H33.549c-1.663,0-3.011-1.347-3.011-3.01V34.701
	c0-1.664,1.348-3.012,3.011-3.012H77.11c1.664,0,3.012,1.348,3.012,3.012V67.637z"/>
<g>
	<g>
		<path fill="#777266" d="M78.482,66.547c0,1.555-1.26,2.812-2.812,2.812H34.99c-1.553,0-2.812-1.258-2.812-2.812V35.79
			c0-1.554,1.259-2.812,2.812-2.812h40.68c1.554,0,2.812,1.259,2.812,2.812V66.547z"/>
	</g>
</g>
<path opacity="0.6" fill="#C1BAAC" d="M57.677,32.978H34.99c-1.553,0-2.812,1.259-2.812,2.812v27.521L57.677,32.978z"/>
<linearGradient id="SVGID_5_" gradientUnits="userSpaceOnUse" x1="37.4705" y1="51.1682" x2="73.8523" y2="51.1682">
	<stop  offset="0" style="stop-color:#FFFFFF"/>
	<stop  offset="1" style="stop-color:#C8C8C8"/>
</linearGradient>
<rect x="37.47" y="38.435" fill="url(#SVGID_5_)" width="36.382" height="25.467"/>
<circle fill="#777266" cx="44.912" cy="45.168" r="4.134"/>
<polygon fill="#777266" points="39.29,61.871 41.935,56.578 44.913,60.383 54.007,49.137 59.135,55.504 65.916,43.018 
	72.033,56.578 72.033,61.871 "/>
</svg>
