<?xml version="1.0" encoding="utf-8"?>
<!-- Generator: Adobe Illustrator 16.0.0, SVG Export Plug-In . SVG Version: 6.00 Build 0)  -->
<!DOCTYPE svg PUBLIC "-//W3C//DTD SVG 1.1//EN" "http://www.w3.org/Graphics/SVG/1.1/DTD/svg11.dtd">
<svg version="1.1" id="Layer_1" xmlns="http://www.w3.org/2000/svg" xmlns:xlink="http://www.w3.org/1999/xlink" x="0px" y="0px"
	 width="110.5px" height="84.559px" viewBox="-139.198 0 110.5 84.559" enable-background="new -139.198 0 110.5 84.559"
	 xml:space="preserve">
<linearGradient id="SVGID_1_" gradientUnits="userSpaceOnUse" x1="-113.2898" y1="23.9084" x2="-48.8723" y2="23.9084">
	<stop  offset="0" style="stop-color:#E6E6E6"/>
	<stop  offset="0.5398" style="stop-color:#FFFFFF"/>
	<stop  offset="1" style="stop-color:#C8C8C8"/>
</linearGradient>
<path fill="url(#SVGID_1_)" d="M-52.22,36.787h3.348c0-0.629,0-1.258,0-1.888c-0.696-2.802-2.554-4.592-4.894-6.173
	c-8.637-5.836-17.54-11.27-26.079-17.251c-0.888-0.622-1.655-0.577-2.523,0.032c-9.051,6.347-18.385,12.267-27.616,18.342
	c-1.714,1.128-2.537,2.791-3.306,4.547c0,0.797,0,1.594,0,2.391H-52.22 M-52.079,35.462l-58.04-0.023
	c-0.187-1.959,0.656-3.379,2.23-4.474c8.562-5.952,17.492-11.35,26.068-17.281c0.512-0.354,0.854-0.291,1.335,0.029
	c8.614,5.723,17.244,11.421,25.856,17.146C-52.903,32.007-52.066,33.587-52.079,35.462"/>
<rect x="-110.233" y="13.57" fill-rule="evenodd" clip-rule="evenodd" fill="#777266" width="58.334" height="57.393"/>
<polyline opacity="0.6" fill-rule="evenodd" clip-rule="evenodd" fill="#BFB8AA" points="-110.271,42.495 -110.271,13.642 
	-51.936,13.642 "/>
<path fill-rule="evenodd" clip-rule="evenodd" fill="#777266" d="M-108.622,70.863c4.026-2.291,7.76-4.416,11.493-6.542
	c5.016-2.856,10.032-5.711,15.042-8.576c0.487-0.279,0.871-0.485,1.475-0.139c8.708,4.993,17.434,9.956,26.154,14.927
	c0.098,0.057,0.175,0.147,0.387,0.33C-72.226,70.863-90.24,70.863-108.622,70.863z"/>
<path fill-rule="evenodd" clip-rule="evenodd" fill="#777266" d="M-71.527,57.056c6.43-4.943,12.721-9.778,19.163-14.73
	c0,8.63,0,17.038,0,25.654C-58.758,64.335-65.084,60.729-71.527,57.056z"/>
<linearGradient id="SVGID_2_" gradientUnits="userSpaceOnUse" x1="-106.2517" y1="28.6262" x2="-89.3918" y2="28.6262">
	<stop  offset="0" style="stop-color:#E6E6E6"/>
	<stop  offset="0.5398" style="stop-color:#FFFFFF"/>
	<stop  offset="1" style="stop-color:#C8C8C8"/>
</linearGradient>
<rect x="-106.252" y="21.643" fill-rule="evenodd" clip-rule="evenodd" fill="url(#SVGID_2_)" width="16.86" height="13.966"/>
<linearGradient id="SVGID_3_" gradientUnits="userSpaceOnUse" x1="-86.1208" y1="24.9773" x2="-57.8118" y2="24.9773">
	<stop  offset="0" style="stop-color:#E6E6E6"/>
	<stop  offset="0.5398" style="stop-color:#FFFFFF"/>
	<stop  offset="1" style="stop-color:#C8C8C8"/>
</linearGradient>
<rect x="-86.121" y="24.159" fill-rule="evenodd" clip-rule="evenodd" fill="url(#SVGID_3_)" width="28.309" height="1.636"/>
<linearGradient id="SVGID_4_" gradientUnits="userSpaceOnUse" x1="-86.1208" y1="28.1228" x2="-57.8118" y2="28.1228">
	<stop  offset="0" style="stop-color:#E6E6E6"/>
	<stop  offset="0.5398" style="stop-color:#FFFFFF"/>
	<stop  offset="1" style="stop-color:#C8C8C8"/>
</linearGradient>
<rect x="-86.121" y="27.305" fill-rule="evenodd" clip-rule="evenodd" fill="url(#SVGID_4_)" width="28.309" height="1.636"/>
<linearGradient id="SVGID_5_" gradientUnits="userSpaceOnUse" x1="-86.0222" y1="31.1423" x2="-63.7527" y2="31.1423">
	<stop  offset="0" style="stop-color:#E6E6E6"/>
	<stop  offset="0.5398" style="stop-color:#FFFFFF"/>
	<stop  offset="1" style="stop-color:#C8C8C8"/>
</linearGradient>
<rect x="-86.022" y="30.324" fill-rule="evenodd" clip-rule="evenodd" fill="url(#SVGID_5_)" width="22.27" height="1.636"/>
<linearGradient id="SVGID_6_" gradientUnits="userSpaceOnUse" x1="-86.0222" y1="34.2878" x2="-68.6321" y2="34.2878">
	<stop  offset="0" style="stop-color:#E6E6E6"/>
	<stop  offset="0.5398" style="stop-color:#FFFFFF"/>
	<stop  offset="1" style="stop-color:#C8C8C8"/>
</linearGradient>
<rect x="-86.022" y="33.47" fill-rule="evenodd" clip-rule="evenodd" fill="url(#SVGID_6_)" width="17.39" height="1.636"/>
<path fill-rule="evenodd" clip-rule="evenodd" fill="#777266" d="M-110.137,67.986c0-8.617,0-17.025,0-25.663
	c6.443,4.954,12.734,9.79,19.165,14.732C-97.391,60.716-103.698,64.314-110.137,67.986z"/>
<linearGradient id="SVGID_7_" gradientUnits="userSpaceOnUse" x1="-113.4583" y1="55.3977" x2="-49.0398" y2="55.3977">
	<stop  offset="0" style="stop-color:#E6E6E6"/>
	<stop  offset="0.5398" style="stop-color:#FFFFFF"/>
	<stop  offset="1" style="stop-color:#C8C8C8"/>
</linearGradient>
<path fill="url(#SVGID_7_)" d="M-52.154,36.578c-0.003,0.415-0.047,0.843-0.132,1.285c-0.086,0.446-0.406,0.617-0.689,0.835
	c-6.97,5.367-13.953,10.719-20.91,16.104c-0.579,0.448-0.976,0.38-1.536,0.045c-1.581-0.943-3.224-1.785-4.777-2.77
	c-0.792-0.503-1.382-0.441-2.144,0.03c-1.563,0.97-3.202,1.819-4.78,2.766c-0.528,0.317-0.894,0.382-1.429-0.031
	c-6.994-5.404-13.997-10.799-21.033-16.148c-0.827-0.63-0.524-1.387-0.607-2.116h-3.267v36.613c0.551,0.783,1.287,1.028,2.253,1.026
	c19.971-0.024,39.942-0.024,59.913,0c0.966,0.002,1.702-0.243,2.253-1.026V36.578H-52.154z M-110.137,42.323
	c6.443,4.954,12.734,9.79,19.165,14.732c-6.419,3.661-12.726,7.259-19.165,10.931V42.323z M-108.622,70.863
	c4.026-2.291,7.76-4.416,11.493-6.542c5.016-2.856,10.032-5.711,15.042-8.576c0.487-0.279,0.871-0.485,1.475-0.139
	c8.708,4.993,17.434,9.956,26.154,14.927c0.098,0.057,0.175,0.147,0.387,0.33H-108.622z M-52.364,67.98
	c-6.394-3.645-12.72-7.251-19.163-10.924c6.43-4.943,12.721-9.778,19.163-14.73V67.98z"/>
<g>
	<path fill="#777266" d="M-95.986,33.276c-0.83,0.438-1.676,0.604-2.687,0.604c-2.477,0-4.575-1.812-4.575-4.711
		c0-3.11,2.159-5.797,5.51-5.797c2.627,0,4.394,1.842,4.394,4.363c0,2.265-1.268,3.593-2.688,3.593
		c-0.604,0-1.162-0.407-1.117-1.329h-0.06c-0.529,0.891-1.223,1.329-2.129,1.329c-0.875,0-1.63-0.709-1.63-1.902
		c0-1.872,1.479-3.578,3.578-3.578c0.649,0,1.223,0.136,1.615,0.317l-0.513,2.732c-0.227,1.147-0.045,1.676,0.453,1.691
		c0.77,0.016,1.63-1.011,1.63-2.763c0-2.189-1.313-3.759-3.653-3.759c-2.46,0-4.529,1.948-4.529,5.012
		c0,2.521,1.646,4.076,3.88,4.076c0.86,0,1.66-0.181,2.28-0.528L-95.986,33.276z M-96.816,26.754
		c-0.151-0.045-0.408-0.105-0.755-0.105c-1.329,0-2.401,1.253-2.401,2.718c0,0.664,0.333,1.147,0.997,1.147
		c0.875,0,1.676-1.117,1.842-2.053L-96.816,26.754z"/>
</g>
<path opacity="0.6" fill-rule="evenodd" clip-rule="evenodd" fill="#BFB8AA" d="M-110.137,68.229c0-8.618,0-17.025,0-25.663
	c6.443,4.953,12.734,9.789,19.165,14.732C-97.391,60.958-103.698,64.557-110.137,68.229z"/>
</svg>
