<?xml version="1.0" encoding="utf-8"?>
<!-- Generator: Adobe Illustrator 16.0.0, SVG Export Plug-In . SVG Version: 6.00 Build 0)  -->
<!DOCTYPE svg PUBLIC "-//W3C//DTD SVG 1.1//EN" "http://www.w3.org/Graphics/SVG/1.1/DTD/svg11.dtd">
<svg version="1.1" id="Layer_1" xmlns="http://www.w3.org/2000/svg" xmlns:xlink="http://www.w3.org/1999/xlink" x="0px" y="0px"
	 width="110.5px" height="84.559px" viewBox="0 0 110.5 84.559" enable-background="new 0 0 110.5 84.559" xml:space="preserve">
<g>
	<linearGradient id="SVGID_1_" gradientUnits="userSpaceOnUse" x1="13.3481" y1="45.2795" x2="97.1514" y2="45.2795">
		<stop  offset="0" style="stop-color:#FFFFFF"/>
		<stop  offset="1" style="stop-color:#C8C8C8"/>
	</linearGradient>
	<path fill="url(#SVGID_1_)" d="M97.008,29.795c-0.404-1.534-1.788-3.174-4.463-3.174c-1.06,0-2.228,0.269-3.472,0.796
		c-0.373,0.159-0.751,0.321-1.13,0.486c0.014-0.272-0.082-0.54-0.268-0.742c-0.98-1.066-2.621-1.703-4.387-1.703
		c-0.947,0-1.883,0.191-2.709,0.554c-1.268,0.557-3.75,1.658-6.598,2.986c-0.086-0.396-0.397-0.708-0.799-0.786
		c-1.184-0.231-2.3-0.344-3.412-0.344c-3.387,0-6.575,1.07-9.746,3.272c-0.247,0.172-0.397,0.439-0.43,0.728
		c-0.638-0.073-1.273-0.146-1.894-0.218c-1.722-0.198-3.35-0.386-4.647-0.525c-0.588-0.227-1.182-0.472-1.808-0.73
		c-2.64-1.092-5.632-2.328-8.919-2.328c-0.353,0-0.708,0.014-1.055,0.042c-6.189,0.503-10.699,3.155-13.787,8.11
		c-2.97,4.767-3.814,5.692-3.954,5.83c-0.207,0.157-0.349,0.389-0.392,0.649c-0.001,0.005,0,0.011-0.001,0.016l-2.1-2.122
		c-0.384-0.389-1.007-0.405-1.412-0.037l-5.947,5.41c-0.209,0.19-0.33,0.459-0.333,0.742s0.111,0.555,0.316,0.751l18.2,17.361
		c0.19,0.182,0.443,0.282,0.705,0.282c0.013,0,0.026,0,0.039-0.001c0.276-0.011,0.535-0.132,0.72-0.337l4.889-5.444
		c0.361-0.401,0.346-1.015-0.034-1.398l-2.593-2.622c0.072,0.016,0.145,0.026,0.219,0.026c0.13,0,0.261-0.025,0.386-0.077
		c0.072-0.028,7.216-2.921,14.545-2.921c2.039,0,3.917,0.226,5.581,0.67c0.016,0.005,0.031,0.008,0.047,0.012
		c0.588,0.127,1.174,0.191,1.742,0.191c0,0,0,0,0.001,0c1.948,0,3.468-0.726,4.937-1.427c0.562-0.268,1.092-0.521,1.647-0.736
		c2.607-1.012,27.987-15.07,30.267-16.359C96.668,33.713,97.51,31.704,97.008,29.795z"/>
	<path fill="#787367" d="M24.148,42.864l11.659,11.441c0,0,11.588-4.748,20.776-2.293c3.25,0.703,5.264-0.965,7.742-1.926
		c2.477-0.961,27.805-14.98,30.133-16.297c3.33-1.882,1.69-8.268-4.986-5.433c-6.908,2.933-14.809,6.907-15.767,7.215
		c1.027,2.037,0.636,6.049-3.976,6.411c-4.402,0.347-15.156-0.058-18.987-0.17c-3.076-0.09-4.968,2.054-4.968,2.054l-1.084-0.997
		c0,0,2.542-2.696,5.949-2.426s16.767,0.315,18.52,0.182c1.754-0.134,3.47-1.101,3.498-2.988c0.027-1.887-1.582-3.63-5.236-3.924
		c-3.653-0.293-10.717-1.172-14.607-1.588c-3.458-1.319-7.197-3.346-11.458-3c-4.261,0.347-9.372,1.807-13.004,7.633
		C24.722,42.585,24.148,42.864,24.148,42.864z"/>
	<path fill="#787367" d="M72.736,34.511c0,0-1.69-1.602-4.057-1.823c5.011-2.515,10.545-4.967,12.311-5.741
		c2.117-0.93,4.739-0.395,5.935,0.905C84.984,28.913,72.736,34.511,72.736,34.511z"/>
	<path fill="#787367" d="M60.607,31.979l5.869,0.502c0,0,5.357-2.63,6.512-3.268C69.064,28.447,65.024,28.911,60.607,31.979z"/>
	<path fill="#787367" d="M20.315,41.309l-5.947,5.41l18.2,17.362l4.889-5.443L20.315,41.309z"/>
	<polygon opacity="0.6" fill="#C0BAAB" points="20.675,52.736 29.282,50.373 20.315,41.309 14.368,46.719 	"/>
	<path fill="#C0BAAB" d="M71.094,40.973"/>
	<path opacity="0.6" fill="#C0BAAB" d="M53.009,36.518c6.585,0.557,17.528,0.649,18.363,0.835s0.197,2.567-1.569,3.185
		c1.508-0.298,2.83-1.244,2.855-2.9c0.027-1.887-1.582-3.63-5.236-3.924c-3.653-0.293-10.717-1.172-14.607-1.588
		c-3.458-1.319-7.197-3.346-11.458-3c-4.261,0.347-9.372,1.807-13.004,7.633c-3.631,5.827-4.205,6.105-4.205,6.105l5.455,5.353
		c1.538-1.706,8.208-8.987,11.07-10.214C43.92,36.611,46.424,35.962,53.009,36.518z"/>
	<path opacity="0.6" fill="#C0BAAB" d="M60.607,31.979l2.039,0.174c0.001,0,5.929-3.659,10.342-2.939
		C69.064,28.447,65.024,28.911,60.607,31.979z"/>
	<path opacity="0.6" fill="#C0BAAB" d="M85.941,27.113c-1.349-0.723-3.301-0.891-4.951-0.166c-1.766,0.774-7.3,3.227-12.311,5.741
		c0.928,0.087,1.75,0.387,2.408,0.719l0.006,0.001C71.094,33.407,83.253,26.633,85.941,27.113z"/>
	<path opacity="0.6" fill="#C0BAAB" d="M89.473,28.357c-6.908,2.933-14.809,6.907-15.767,7.215c0.312,0.619,0.491,1.42,0.464,2.245
		c0,0,15.888-7.101,17.637-7.636c3.029-0.928,4.482-0.237,4.225,1.534l0,0C96.635,29.263,94.457,26.24,89.473,28.357z"/>
</g>
</svg>
