<?xml version="1.0" encoding="utf-8"?>
<!-- Generator: Adobe Illustrator 16.0.0, SVG Export Plug-In . SVG Version: 6.00 Build 0)  -->
<!DOCTYPE svg PUBLIC "-//W3C//DTD SVG 1.1//EN" "http://www.w3.org/Graphics/SVG/1.1/DTD/svg11.dtd">
<svg version="1.1" id="Layer_1" xmlns="http://www.w3.org/2000/svg" xmlns:xlink="http://www.w3.org/1999/xlink" x="0px" y="0px"
	 width="679px" height="305px" viewBox="0 0 679 305" enable-background="new 0 0 679 305" xml:space="preserve">
<path fill="#292929" d="M668.625,2.112C519.844,2.108,371.062,2.109,222.281,2.109c-0.312,0-1.645,0-3.606,0
	c0.002,0.104,0.017,0.204,0.017,0.31c0,8.1-6.564,14.666-14.667,14.666c-8.101,0-14.667-6.566-14.667-14.666
	c0-0.104,0.014-0.205,0.017-0.309c-2.301,0-3.854,0-4.146,0c-58.312,0-116.625-0.003-174.938,0.003
	c-7.669,0.001-8.286,0.618-8.286,8.22C2,104.968,2,199.601,2.004,294.233c0,7.479,0.353,7.828,7.979,7.83
	c58.312,0.004,116.625,0.002,174.938,0.002c1.062,0,2.115,0,3.149,0c-0.021-0.332-0.05-0.662-0.05-1
	c0-8.101,6.565-14.666,14.667-14.666c8.103,0,14.667,6.565,14.667,14.666c0,0.338-0.027,0.668-0.051,1c1.507,0,3.107,0,4.715,0
	c149.115,0,298.23,0,447.343-0.004c7.447,0,7.592-0.147,7.592-7.56c0.005-94.633,0.005-189.269,0.003-283.901
	C676.954,2.318,676.76,2.112,668.625,2.112z M202.689,270.906c-2.669,0-4.833-2.164-4.833-4.832c0-2.67,2.164-4.834,4.833-4.834
	s4.833,2.164,4.833,4.834C207.522,268.742,205.358,270.906,202.689,270.906z M202.689,250.125c-2.669,0-4.833-2.164-4.833-4.832
	c0-2.67,2.164-4.834,4.833-4.834s4.833,2.164,4.833,4.834C207.522,247.961,205.358,250.125,202.689,250.125z M202.689,229.342
	c-2.669,0-4.833-2.164-4.833-4.832c0-2.67,2.164-4.834,4.833-4.834s4.833,2.164,4.833,4.834
	C207.522,227.178,205.357,229.342,202.689,229.342z M202.689,208.561c-2.669,0-4.833-2.164-4.833-4.832
	c-0.001-2.67,2.163-4.834,4.833-4.834c2.669,0,4.833,2.164,4.833,4.834C207.522,206.396,205.358,208.561,202.689,208.561z
	 M202.689,187.777c-2.669,0-4.833-2.164-4.833-4.832c0-2.67,2.164-4.834,4.833-4.834s4.833,2.164,4.833,4.834
	C207.522,185.613,205.358,187.777,202.689,187.777z M202.689,166.996c-2.669,0-4.833-2.164-4.833-4.832
	c0-2.67,2.164-4.834,4.833-4.834s4.833,2.164,4.833,4.834C207.522,164.832,205.358,166.996,202.689,166.996z M202.689,146.213
	c-2.669,0-4.833-2.164-4.833-4.832c0-2.67,2.164-4.834,4.833-4.834s4.833,2.164,4.833,4.834
	C207.522,144.049,205.357,146.213,202.689,146.213z M202.689,125.432c-2.669,0-4.833-2.164-4.833-4.832
	c-0.001-2.67,2.163-4.834,4.833-4.834c2.669,0,4.833,2.164,4.833,4.834C207.522,123.268,205.358,125.432,202.689,125.432z
	 M202.689,104.649c-2.669,0-4.833-2.164-4.833-4.832c0-2.67,2.164-4.834,4.833-4.834s4.833,2.164,4.833,4.834
	C207.522,102.485,205.357,104.649,202.689,104.649z M202.689,83.867c-2.669,0-4.833-2.164-4.833-4.832
	c-0.001-2.67,2.163-4.834,4.833-4.834c2.669,0,4.833,2.164,4.833,4.834C207.522,81.703,205.358,83.867,202.689,83.867z
	 M202.689,63.085c-2.669,0-4.833-2.164-4.833-4.832c0-2.67,2.164-4.834,4.833-4.834s4.833,2.164,4.833,4.834
	C207.522,60.921,205.358,63.085,202.689,63.085z M202.689,42.303c-2.669,0-4.833-2.164-4.833-4.833
	c-0.001-2.669,2.164-4.833,4.833-4.833s4.833,2.164,4.833,4.833C207.522,40.14,205.358,42.303,202.689,42.303z"/>
<rect x="317.536" y="130.646" fill="none" width="42.928" height="42.928"/>
<path fill="#909191" d="M338.785,134.938h0.429c0.474,0,0.859,0.385,0.859,0.859v6.868c0,0.474-0.386,0.859-0.859,0.859h-0.429
	c-0.475,0-0.858-0.385-0.858-0.859v-6.868C337.927,135.322,338.312,134.938,338.785,134.938z">
<animate  fill="remove" restart="always" calcMode="linear" additive="replace" attributeName="opacity" from="1" to="0" dur="1s" begin="0s" repeatCount="indefinite" accumulate="none">
		</animate>
</path>
<path fill="#909191" d="M347.399,137.131l0.372,0.215c0.411,0.237,0.551,0.762,0.314,1.173l-3.436,5.948
	c-0.236,0.411-0.762,0.552-1.173,0.314l-0.371-0.214c-0.411-0.237-0.552-0.762-0.313-1.173l3.434-5.948
	C346.464,137.035,346.989,136.895,347.399,137.131z">
<animate  fill="remove" restart="always" calcMode="linear" additive="replace" attributeName="opacity" from="1" to="0" dur="1s" begin="0.08333333333333333s" repeatCount="indefinite" accumulate="none">
		</animate>
</path>
<path fill="#909191" d="M353.764,143.338l0.214,0.372c0.237,0.411,0.098,0.936-0.312,1.173l-5.948,3.434
	c-0.411,0.237-0.937,0.097-1.174-0.314l-0.214-0.372c-0.237-0.411-0.098-0.936,0.313-1.173l5.948-3.435
	C353.001,142.786,353.526,142.927,353.764,143.338z">
<animate  fill="remove" restart="always" calcMode="linear" additive="replace" attributeName="opacity" from="1" to="0" dur="1s" begin="0.16666666666666666s" repeatCount="indefinite" accumulate="none">
		</animate>
</path>
<path fill="#909191" d="M356.171,151.895v0.429c0,0.474-0.384,0.859-0.858,0.859h-6.868c-0.475,0-0.857-0.385-0.857-0.859v-0.429
	c0-0.474,0.384-0.858,0.857-0.858h6.868C355.787,151.036,356.171,151.42,356.171,151.895z">
<animate  fill="remove" restart="always" calcMode="linear" additive="replace" attributeName="opacity" from="1" to="0" dur="1s" begin="0.25s" repeatCount="indefinite" accumulate="none">
		</animate>
</path>
<path fill="#909191" d="M353.978,160.508l-0.214,0.373c-0.237,0.41-0.763,0.551-1.173,0.313l-5.948-3.435
	c-0.411-0.237-0.552-0.762-0.313-1.174l0.214-0.371c0.237-0.41,0.763-0.551,1.174-0.313l5.948,3.435
	C354.074,159.573,354.215,160.099,353.978,160.508z">
<animate  fill="remove" restart="always" calcMode="linear" additive="replace" attributeName="opacity" from="1" to="0" dur="1s" begin="0.3333333333333333s" repeatCount="indefinite" accumulate="none">
		</animate>
</path>
<path fill="#909191" d="M347.771,166.873l-0.372,0.215c-0.41,0.236-0.936,0.097-1.173-0.313l-3.434-5.948
	c-0.237-0.41-0.098-0.937,0.313-1.174l0.371-0.214c0.411-0.237,0.937-0.097,1.173,0.313l3.436,5.948
	C348.322,166.11,348.183,166.635,347.771,166.873z">
<animate  fill="remove" restart="always" calcMode="linear" additive="replace" attributeName="opacity" from="1" to="0" dur="1s" begin="0.4166666666666667s" repeatCount="indefinite" accumulate="none">
		</animate>
</path>
<path fill="#909191" d="M339.214,169.28h-0.429c-0.475,0-0.858-0.384-0.858-0.858v-6.867c0-0.476,0.385-0.858,0.858-0.858h0.429
	c0.474,0,0.859,0.384,0.859,0.858v6.867C340.073,168.896,339.688,169.28,339.214,169.28z">
<animate  fill="remove" restart="always" calcMode="linear" additive="replace" attributeName="opacity" from="1" to="0" dur="1s" begin="0.5s" repeatCount="indefinite" accumulate="none">
		</animate>
</path>
<path fill="#909191" d="M330.6,167.088l-0.372-0.215c-0.411-0.236-0.551-0.763-0.313-1.173l3.435-5.948
	c0.237-0.41,0.762-0.552,1.173-0.313l0.372,0.214c0.411,0.237,0.551,0.764,0.314,1.174l-3.436,5.948
	C331.536,167.184,331.011,167.324,330.6,167.088z">
<animate  fill="remove" restart="always" calcMode="linear" additive="replace" attributeName="opacity" from="1" to="0" dur="1s" begin="0.5833333333333334s" repeatCount="indefinite" accumulate="none">
		</animate>
</path>
<path fill="#909191" d="M324.237,160.881l-0.215-0.373c-0.236-0.409-0.096-0.936,0.314-1.172l5.948-3.435
	c0.41-0.237,0.936-0.097,1.173,0.313l0.214,0.371c0.237,0.412,0.097,0.937-0.314,1.174l-5.947,3.435
	C324.999,161.432,324.474,161.293,324.237,160.881z">
<animate  fill="remove" restart="always" calcMode="linear" additive="replace" attributeName="opacity" from="1" to="0" dur="1s" begin="0.6666666666666666s" repeatCount="indefinite" accumulate="none">
		</animate>
</path>
<path fill="#909191" d="M321.829,152.323v-0.429c0-0.474,0.385-0.858,0.858-0.858h6.868c0.474,0,0.859,0.384,0.859,0.858v0.429
	c0,0.474-0.386,0.859-0.859,0.859h-6.868C322.213,153.183,321.829,152.797,321.829,152.323z">
<animate  fill="remove" restart="always" calcMode="linear" additive="replace" attributeName="opacity" from="1" to="0" dur="1s" begin="0.75s" repeatCount="indefinite" accumulate="none">
		</animate>
</path>
<path fill="#909191" d="M324.022,143.709l0.215-0.372c0.237-0.411,0.763-0.551,1.174-0.314l5.947,3.435
	c0.411,0.237,0.553,0.762,0.314,1.173l-0.214,0.372c-0.237,0.411-0.763,0.551-1.173,0.314l-5.948-3.434
	C323.926,144.646,323.785,144.12,324.022,143.709z">
<animate  fill="remove" restart="always" calcMode="linear" additive="replace" attributeName="opacity" from="1" to="0" dur="1s" begin="0.8333333333333334s" repeatCount="indefinite" accumulate="none">
		</animate>
</path>
<path fill="#909191" d="M330.229,137.346l0.372-0.215c0.411-0.237,0.937-0.096,1.173,0.314l3.436,5.948
	c0.236,0.411,0.096,0.936-0.314,1.173l-0.372,0.214c-0.411,0.237-0.936,0.097-1.173-0.314l-3.435-5.948
	C329.677,138.108,329.818,137.583,330.229,137.346z">
<animate  fill="remove" restart="always" calcMode="linear" additive="replace" attributeName="opacity" from="1" to="0" dur="1s" begin="0.9166666666666666s" repeatCount="indefinite" accumulate="none">
		</animate>
</path>
<rect x="0" y="0" fill="none" width="679" height="305"/>
</svg>
