<?xml version="1.0" encoding="utf-8"?>
<!-- Generator: Adobe Illustrator 16.0.0, SVG Export Plug-In . SVG Version: 6.00 Build 0)  -->
<!DOCTYPE svg PUBLIC "-//W3C//DTD SVG 1.1//EN" "http://www.w3.org/Graphics/SVG/1.1/DTD/svg11.dtd">
<svg version="1.1" id="Layer_1" xmlns="http://www.w3.org/2000/svg" xmlns:xlink="http://www.w3.org/1999/xlink" x="0px" y="0px"
	 width="110.5px" height="115.779px" viewBox="0 0 110.5 115.779" enable-background="new 0 0 110.5 115.779" xml:space="preserve">
<g>
	
		<linearGradient id="SVGID_1_" gradientUnits="userSpaceOnUse" x1="37.812" y1="-625.4016" x2="125.9609" y2="-625.4016" gradientTransform="matrix(1 0 0 -1 -25.0796 -568.4985)">
		<stop  offset="0" style="stop-color:#E6E6E6"/>
		<stop  offset="0.5398" style="stop-color:#FFFFFF"/>
		<stop  offset="1" style="stop-color:#C8C8C8"/>
	</linearGradient>
	<path fill="url(#SVGID_1_)" d="M56.807,100.977c-24.302,0-44.074-19.772-44.074-44.076c0-24.301,19.774-44.072,44.074-44.072
		c24.301,0,44.074,19.77,44.074,44.072C100.881,81.206,81.11,100.977,56.807,100.977z M56.807,14.559
		c-23.346,0-42.344,18.995-42.344,42.342c0,23.349,18.998,42.346,42.344,42.346c23.349,0,42.344-18.997,42.344-42.346
		C99.15,33.554,80.155,14.559,56.807,14.559z M56.807,97.122c-22.177,0-40.217-18.042-40.217-40.22
		c0-22.176,18.042-40.217,40.217-40.217c22.179,0,40.219,18.043,40.219,40.217C97.025,79.081,78.984,97.122,56.807,97.122z
		 M56.807,18.414c-21.223,0-38.487,17.266-38.487,38.485c0,21.223,17.266,38.489,38.487,38.489
		c21.225,0,38.487-17.267,38.487-38.489C95.294,35.679,78.03,18.414,56.807,18.414z"/>
	
		<linearGradient id="SVGID_2_" gradientUnits="userSpaceOnUse" x1="21.9575" y1="82.9304" x2="108.375" y2="82.9304" gradientTransform="matrix(1 0 0 -1 -8.3599 139.8335)">
		<stop  offset="0" style="stop-color:#FFFFFF"/>
		<stop  offset="1" style="stop-color:#C8C8C8"/>
	</linearGradient>
	<path fill="url(#SVGID_2_)" d="M56.807,13.694c-23.865,0-43.209,19.345-43.209,43.207c0,23.864,19.347,43.211,43.209,43.211
		c23.866,0,43.209-19.347,43.209-43.211C100.016,33.038,80.671,13.694,56.807,13.694z M56.807,96.256
		c-21.736,0-39.352-17.62-39.352-39.354c0-21.734,17.62-39.351,39.352-39.351c21.731,0,39.354,17.619,39.354,39.351
		C96.16,78.635,78.542,96.256,56.807,96.256z"/>
</g>
<line fill="none" x1="59.932" y1="69.749" x2="59.932" y2="67.546"/>
<g>
	<g>
		
			<linearGradient id="SVGID_3_" gradientUnits="userSpaceOnUse" x1="38.3794" y1="-607.8479" x2="57.376" y2="-607.8479" gradientTransform="matrix(1 0 0 -1 -25.0796 -568.4985)">
			<stop  offset="0" style="stop-color:#E6E6E6"/>
			<stop  offset="0.5398" style="stop-color:#FFFFFF"/>
			<stop  offset="1" style="stop-color:#C8C8C8"/>
		</linearGradient>
		<path fill="url(#SVGID_3_)" d="M20.819,47.912c-0.073,0-0.154-0.007-0.237-0.023c-0.457-0.084-0.905-0.258-1.34-0.514
			c-0.269-0.16-0.601-0.48-0.649-1.102c-0.023-0.244-0.034-0.493-0.036-0.74l-0.045-6.921c-0.001-0.119-0.014-0.236-0.036-0.352
			c-0.015-0.078-0.05-0.167-0.205-0.249l-0.627-0.32c-0.337-0.17-0.676-0.342-1.006-0.526c-0.591-0.327-1.178-0.665-1.75-1.03
			c-0.557-0.357-1.019-0.84-1.364-1.437c-0.271-0.471-0.246-0.883-0.177-1.144c0.145-0.554,0.629-0.951,1.233-1.004
			c0.526-0.047,1.038,0.052,1.466,0.144c0.454,0.099,0.893,0.274,1.435,0.566c0.697,0.374,1.386,0.756,2.076,1.137l0.671,0.369
			l-0.134,0.584l0.273-0.506l0.436,0.512l-0.271-0.506l6.813-3.694c0.254-0.138,0.647-0.324,1.114-0.364
			c0.609-0.053,1.155,0.158,1.642,0.613c0.083,0.08,0.167,0.169,0.244,0.257c0.455,0.514,0.437,1.13-0.047,1.61
			c-0.189,0.186-0.388,0.359-0.586,0.532l-3.289,2.894c-0.302,0.265-0.557,0.583-0.827,0.922l3.149,1.943l0.831-0.583
			c0.389-0.274,0.777-0.409,1.188-0.409c0.559,0.022,0.985,0.233,1.31,0.62c0.302,0.366,0.221,0.789,0.191,0.948
			c-0.031,0.175-0.099,0.359-0.195,0.526c-0.826,1.368-1.651,2.724-2.474,4.083c-0.107,0.18-0.167,0.281-0.233,0.383
			c-0.265,0.391-0.589,0.472-0.814,0.472c-0.148,0-0.302-0.034-0.465-0.109c-0.24-0.107-0.449-0.202-0.649-0.312
			c-0.454-0.259-0.688-0.701-0.646-1.22c0.037-0.45,0.079-0.895,0.125-1.343l-3.385-1.631c-0.062,0.098-0.12,0.208-0.175,0.323
			c-0.178,0.389-0.282,0.817-0.391,1.274l-0.21,0.882c-0.259,1.077-0.515,2.152-0.777,3.226c-0.04,0.174-0.102,0.35-0.168,0.518
			C21.623,47.656,21.265,47.912,20.819,47.912z M20.792,46.762l0.024,0.573v-0.577C20.812,46.759,20.802,46.761,20.792,46.762z
			 M14.861,33.695c-0.062,0-0.12,0.002-0.181,0.007c-0.111,0.01-0.196,0.069-0.217,0.146c-0.009,0.037-0.03,0.117,0.061,0.274
			c0.253,0.436,0.584,0.786,0.985,1.04c0.553,0.351,1.118,0.677,1.688,0.992c0.317,0.177,0.645,0.341,0.967,0.505l0.648,0.333
			c0.435,0.233,0.709,0.597,0.795,1.048c0.036,0.181,0.056,0.373,0.058,0.562l0.045,6.918c0.002,0.216,0.014,0.435,0.03,0.649
			c0.014,0.165,0.063,0.191,0.09,0.206c0.3,0.178,0.608,0.302,0.915,0.363c0.05-0.119,0.083-0.218,0.107-0.32
			c0.264-1.078,0.52-2.15,0.777-3.226l0.212-0.881c0.118-0.49,0.238-0.997,0.467-1.492c0.175-0.375,0.382-0.688,0.632-0.954
			l0.29-0.31l4.357,2.097c0.41,0.196,0.546,0.436,0.497,0.885c-0.055,0.513-0.104,1.012-0.145,1.512
			c-0.006,0.072,0.006,0.086,0.06,0.118c0.147,0.081,0.306,0.154,0.462,0.224c0.034-0.055,0.065-0.107,0.094-0.157
			c0.88-1.452,1.704-2.809,2.523-4.166c0.023-0.04,0.044-0.097,0.052-0.148c-0.055-0.133-0.178-0.195-0.338-0.203h-0.002
			c-0.194,0-0.36,0.063-0.552,0.196l-1.209,0.851l-0.264,0.03c-0.129,0-0.26-0.036-0.38-0.113l-4.476-2.809l0.726-0.908
			c0.318-0.403,0.633-0.797,1.03-1.146l3.291-2.896c0.182-0.16,0.362-0.315,0.537-0.487c-0.065-0.082-0.12-0.144-0.178-0.2
			c-0.223-0.211-0.44-0.31-0.676-0.31c-0.272,0.021-0.478,0.091-0.741,0.233l-6.818,3.696c-0.401,0.216-0.849,0.215-1.258-0.007
			l-0.818-0.453c-0.691-0.38-1.375-0.759-2.067-1.133c-0.442-0.239-0.794-0.377-1.133-0.454
			C15.496,33.76,15.17,33.695,14.861,33.695z"/>
	</g>
	<g>
		
			<linearGradient id="SVGID_4_" gradientUnits="userSpaceOnUse" x1="49.6011" y1="-645.7249" x2="53.6216" y2="-645.7249" gradientTransform="matrix(1 0 0 -1 -25.0796 -568.4985)">
			<stop  offset="0" style="stop-color:#E6E6E6"/>
			<stop  offset="0.5398" style="stop-color:#FFFFFF"/>
			<stop  offset="1" style="stop-color:#C8C8C8"/>
		</linearGradient>
		<path fill="url(#SVGID_4_)" d="M27.081,86.899h-0.003c-0.904,0-1.514-0.593-1.514-1.47v-5.725h-0.033
			c-0.119,0-0.472,0-0.738-0.266c-0.246-0.248-0.272-0.584-0.271-0.813c0.011-1.92,0.011-3.84,0.011-5.763l0.001-3.123
			c0.003-1.428,0.843-1.947,1.551-2.127c1.244-0.312,2.454,0.626,2.454,1.896l0.003,15.936
			C28.538,86.352,27.995,86.899,27.081,86.899z"/>
		<path fill="#777266" d="M27.961,77.447c0,2.666,0,5.327,0,7.991c0,0.597-0.291,0.888-0.882,0.888
			c-0.584,0.002-0.938-0.336-0.938-0.898c-0.002-1.931,0-3.865-0.002-5.793c0-0.509-0.003-0.537-0.527-0.505
			c-0.388,0.02-0.515-0.088-0.513-0.502c0.018-2.958,0.007-5.924,0.012-8.888c0.002-0.881,0.367-1.373,1.119-1.565
			c0.889-0.228,1.735,0.414,1.735,1.334C27.964,72.151,27.961,74.8,27.961,77.447z"/>
	</g>
	<g>
		
			<linearGradient id="SVGID_5_" gradientUnits="userSpaceOnUse" x1="42.8857" y1="-645.7703" x2="48.4526" y2="-645.7703" gradientTransform="matrix(1 0 0 -1 -25.0796 -568.4985)">
			<stop  offset="0" style="stop-color:#E6E6E6"/>
			<stop  offset="0.5398" style="stop-color:#FFFFFF"/>
			<stop  offset="1" style="stop-color:#C8C8C8"/>
		</linearGradient>
		<path fill="url(#SVGID_5_)" d="M20.605,86.985c-0.241,0-0.48-0.061-0.7-0.178c-0.36-0.184-0.789-0.569-0.787-1.346
			c0.005-1.195,0.005-2.393,0.002-3.589v-2.584c-0.002-1.158-0.005-2.312,0.007-3.47c0-0.106-0.009-0.14-0.009-0.143
			c-0.815-0.126-1.312-0.786-1.312-1.663v-0.603c-0.001-1.613-0.002-3.231,0.011-4.848c0.003-0.317,0.206-0.845,0.634-0.967
			l0.267-0.038c0.217,0,0.417,0.081,0.564,0.228c0.026,0.028,0.055,0.062,0.077,0.093c0.127-0.14,0.311-0.266,0.527-0.303
			c0.338-0.005,0.527,0.128,0.671,0.286c0.167-0.16,0.42-0.298,0.662-0.298h0.166l0.168,0.093c0.089,0.059,0.179,0.14,0.257,0.236
			c0.178-0.241,0.479-0.324,0.705-0.324l0.233,0.031c0.328,0.104,0.547,0.426,0.596,0.696c0.036,0.174,0.029,0.351,0.024,0.49
			l-0.003,0.123v5.055c0,0.927-0.422,1.513-1.255,1.743c0.004,3.28,0.003,6.479,0,9.686C22.111,86.285,21.451,86.985,20.605,86.985z
			 M18.96,73.111c0,0.1,0,0.198,0,0.298v0.601c0,0.506,0.3,0.572,0.399,0.596c0.933,0.217,0.924,0.976,0.922,1.225
			c-0.012,1.151-0.009,2.304-0.007,3.457v2.583c0.002,1.198,0.002,2.397-0.002,3.597c0,0.216,0.069,0.265,0.167,0.316
			c0.237,0.121,0.516-0.019,0.519-0.396c0.003-3.244,0.004-6.479-0.006-9.718c0-0.215-0.007-0.865,0.813-1.073
			c0.336-0.08,0.447-0.184,0.447-0.641v-0.85c-0.325,0.114-0.771,0.061-1.022-0.157c-0.16,0.142-0.368,0.215-0.626,0.215
			c-0.196-0.012-0.428-0.052-0.606-0.191c-0.186,0.148-0.416,0.189-0.59,0.194h-0.002C19.208,73.168,19.076,73.148,18.96,73.111z"/>
		<path fill="#777266" d="M19.698,80.563c0-1.582-0.007-3.159,0.006-4.741c0.005-0.36-0.071-0.561-0.472-0.653
			c-0.559-0.125-0.845-0.574-0.845-1.156c-0.002-1.812-0.006-3.629,0.009-5.449c0.003-0.146,0.112-0.387,0.216-0.414
			c0.299-0.078,0.361,0.142,0.36,0.402c-0.002,1.178,0,2.351,0,3.526c0,0.269-0.03,0.527,0.383,0.517
			c0.329-0.01,0.35-0.192,0.348-0.436c0-1.162,0-2.326,0-3.486c0-0.105-0.026-0.227,0.02-0.309c0.052-0.097,0.167-0.202,0.264-0.219
			c0.066-0.009,0.187,0.122,0.223,0.213c0.042,0.102,0.019,0.227,0.019,0.348c0.002,1.149,0,2.301,0.002,3.447
			c0,0.21-0.024,0.421,0.297,0.442c0.293,0.014,0.383-0.093,0.378-0.384c-0.012-1.188-0.004-2.379-0.002-3.564
			c0-0.121-0.022-0.265,0.038-0.346c0.069-0.083,0.262-0.184,0.312-0.153c0.105,0.07,0.215,0.225,0.217,0.351
			c0.017,1.126,0.009,2.243,0.012,3.371c0,0.119,0.005,0.234,0,0.354c-0.014,0.263,0.092,0.374,0.367,0.374
			c0.277,0,0.364-0.122,0.363-0.379c-0.005-1.201-0.002-2.401,0.002-3.605c0-0.124,0.001-0.277,0.067-0.372
			c0.05-0.069,0.217-0.11,0.31-0.082c0.085,0.026,0.175,0.155,0.195,0.25c0.032,0.165,0.012,0.339,0.012,0.505
			c0,1.686,0,3.369,0,5.055c0,0.667-0.242,1.039-0.885,1.199c-0.312,0.079-0.378,0.219-0.374,0.509
			c0.009,3.241,0.007,6.479,0.003,9.72c0,0.771-0.716,1.246-1.364,0.908c-0.333-0.174-0.478-0.457-0.476-0.834
			C19.703,83.828,19.698,82.197,19.698,80.563z"/>
	</g>
	<g>
		<g>
			
				<linearGradient id="SVGID_6_" gradientUnits="userSpaceOnUse" x1="74.8301" y1="-662.7161" x2="91.7656" y2="-662.7161" gradientTransform="matrix(1 0 0 -1 -25.0796 -568.4985)">
				<stop  offset="0" style="stop-color:#E6E6E6"/>
				<stop  offset="0.5398" style="stop-color:#FFFFFF"/>
				<stop  offset="1" style="stop-color:#C8C8C8"/>
			</linearGradient>
			<path fill="url(#SVGID_6_)" d="M63.122,102.719h-0.431l-0.06-0.062h-0.024l-1.008-0.002l-8.439,0.009l-0.11-0.025
				c-0.779-0.265-1.179-0.904-1.075-1.715c0.094-0.698,0.789-1.292,1.515-1.292c0.381,0.01,0.729,0.012,1.076,0.012l1.829-0.009
				l0.264,0.002c-0.012-1.553-0.007-3.066,0.002-4.584c0-0.076-0.009-0.121-0.087-0.219c-1.261-1.51-2.519-3.026-3.773-4.543
				l-2.816-3.407c-0.098-0.114-0.348-0.417-0.171-0.791c0.067-0.14,0.239-0.374,0.666-0.374l5.062-0.004l11.146,0.004l-0.13,0.686
				c-0.05,0.257-0.196,0.421-0.284,0.518c-2.184,2.695-4.331,5.351-6.48,8l-0.047,0.106c0.005,1.537,0.009,3.073-0.002,4.608
				l0.626-0.002c0.718,0,1.437,0.007,2.153,0.015l0.474,0.004c0.646,0.003,1.149,0.334,1.385,0.908
				c0.244,0.584,0.144,1.18-0.281,1.688c-0.195,0.236-0.442,0.311-0.588,0.357l-0.141,0.088L63.122,102.719z M62.758,101.498
				c0.108,0,0.203,0.021,0.282,0.045c0.043-0.014,0.082-0.024,0.117-0.036c0.229-0.212,0.223-0.352,0.157-0.508
				c-0.043-0.105-0.099-0.196-0.326-0.196l-0.476-0.006c-0.715-0.007-1.429-0.011-2.143-0.011l-0.847,0.002
				c-0.139,0-0.459,0-0.697-0.239c-0.217-0.217-0.238-0.498-0.238-0.687c0.016-1.61,0.009-3.221,0.005-4.833
				c-0.005-0.312,0.097-0.586,0.31-0.841c0.405-0.5,0.809-0.998,1.217-1.498c-0.214,0.09-0.448,0.142-0.696,0.144
				c-0.499,0-0.946-0.189-1.282-0.529c-0.338-0.343-0.519-0.796-0.514-1.28c0.009-1.007,0.771-1.771,1.771-1.771
				c0.493,0,0.946,0.187,1.282,0.522c0.332,0.333,0.515,0.79,0.513,1.274c0,0.12-0.015,0.241-0.033,0.354
				c1.225-1.51,2.447-3.021,3.674-4.536l-9.287-0.002l-4.067,0.004l2.218,2.682c1.259,1.514,2.517,3.033,3.778,4.545
				c0.244,0.299,0.354,0.602,0.35,0.962c-0.009,1.598-0.011,3.197,0.002,4.798c0.003,0.12,0.005,0.448-0.236,0.691
				c-0.239,0.239-0.559,0.239-0.666,0.239l-0.52-0.003l-1.827,0.01c-0.358,0-0.712-0.003-1.07-0.012l0,0
				c-0.176,0-0.361,0.181-0.377,0.291c-0.029,0.232,0.025,0.354,0.219,0.438l8.26-0.01l1.019,0.003L62.758,101.498z M59.392,90.406
				c-0.36,0-0.613,0.263-0.617,0.631c-0.003,0.174,0.062,0.336,0.18,0.457c0.119,0.12,0.276,0.188,0.446,0.188
				c0.361-0.005,0.633-0.277,0.636-0.633c0-0.183-0.062-0.341-0.177-0.458C59.74,90.474,59.574,90.406,59.392,90.406z"/>
			<path fill="#777266" d="M63.122,102.142c-0.064,0-0.123,0-0.186,0c-0.093-0.097-0.215-0.061-0.322-0.061
				c-0.607-0.005-1.223-0.003-1.832-0.003c-2.515,0.003-5.026,0.007-7.545,0.009c-0.525-0.172-0.758-0.553-0.688-1.087
				c0.054-0.409,0.5-0.802,0.965-0.794c1.129,0.029,2.255-0.007,3.385,0.004c0.274,0.005,0.348-0.073,0.346-0.347
				c-0.015-1.604-0.013-3.207-0.002-4.812c0.002-0.234-0.071-0.41-0.218-0.586c-1.461-1.752-2.908-3.5-4.363-5.251
				c-0.744-0.901-1.486-1.803-2.234-2.707c-0.104-0.123-0.181-0.225,0.075-0.218c1.68-0.002,3.356-0.004,5.035-0.004
				c3.483,0,6.963,0.002,10.449,0.004c-0.024,0.125-0.125,0.212-0.205,0.307c-2.146,2.652-4.294,5.307-6.445,7.957
				c-0.118,0.143-0.176,0.28-0.173,0.468c0.004,1.616,0.009,3.232-0.005,4.841c-0.002,0.281,0.086,0.347,0.355,0.342
				c1.158-0.009,2.317,0.005,3.476,0.014c0.401,0.003,0.701,0.179,0.856,0.555c0.164,0.395,0.094,0.76-0.189,1.098
				C63.51,102.048,63.292,102.036,63.122,102.142z M59.392,89.829c-0.676,0-1.188,0.517-1.194,1.203
				c-0.009,0.685,0.541,1.23,1.215,1.227c0.671-0.007,1.198-0.539,1.201-1.208C60.613,90.356,60.086,89.829,59.392,89.829z"/>
			<path opacity="0.6" fill="#C1BAAC" enable-background="new    " d="M52.662,89.218c0.484,0.581,0.967,1.162,1.451,1.746
				c2.824-2.335,6.871-3.858,11.418-4.047c0.084-0.109,0.17-0.214,0.258-0.316c0.075-0.094,0.178-0.178,0.204-0.309
				c-3.485-0.002-6.966-0.004-10.451-0.004c-1.676,0-3.355,0.002-5.033,0.004c-0.26-0.007-0.18,0.095-0.075,0.22
				C51.175,87.413,51.916,88.316,52.662,89.218z"/>
		</g>
	</g>
	<g>
		<g>
			
				<linearGradient id="SVGID_7_" gradientUnits="userSpaceOnUse" x1="104.4531" y1="-645.7625" x2="124.4775" y2="-645.7625" gradientTransform="matrix(1 0 0 -1 -25.0796 -568.4985)">
				<stop  offset="0" style="stop-color:#E6E6E6"/>
				<stop  offset="0.5398" style="stop-color:#FFFFFF"/>
				<stop  offset="1" style="stop-color:#C8C8C8"/>
			</linearGradient>
			<path fill="url(#SVGID_7_)" d="M95.083,87.346H83.657l0.022-0.598V74.863c-0.15,0.228-0.302,0.456-0.45,0.684
				c-0.403,0.61-0.842,0.328-1.017,0.223c-0.812-0.506-1.62-1.001-2.443-1.489c-0.078-0.045-0.314-0.188-0.381-0.482
				c-0.064-0.293,0.084-0.512,0.149-0.604c0.865-1.255,1.575-2.313,2.231-3.416c0.447-0.745,1.098-1.313,1.946-1.69
				c0.418-0.182,0.841-0.276,1.246-0.369c0.194-0.045,0.386-0.087,0.577-0.142c0.198-0.055,0.396-0.102,0.597-0.149
				c0.269-0.067,0.537-0.127,0.801-0.216l0.183-0.029h0.345l0.238,0.305c0.165,0.305,0.383,0.562,0.648,0.778
				c0.479,0.378,0.967,0.473,1.513,0.297c0.484-0.157,0.87-0.506,1.206-1.088l0.168-0.289h0.529l0.13,0.071l0.678,0.164
				c0.649,0.158,1.296,0.315,1.941,0.494c1.033,0.286,1.823,0.847,2.342,1.672c0.902,1.436,1.664,2.599,2.395,3.659
				c0.057,0.082,0.193,0.289,0.13,0.566l-0.055,0.243l-0.294,0.207c-0.836,0.504-1.67,1.016-2.509,1.528l-0.136,0.085l-0.261,0.036
				c-0.165,0-0.398-0.059-0.586-0.338c-0.158-0.238-0.312-0.476-0.471-0.71L95.083,87.346z M84.834,86.193h9.093l-0.005-12.974
				c-0.007-0.086-0.022-0.279,0.097-0.493l0.458-0.824l1.215,1.803c0.195,0.291,0.392,0.582,0.586,0.872
				c0.586-0.358,1.174-0.719,1.758-1.074c-0.658-0.973-1.354-2.036-2.157-3.313c-0.36-0.572-0.925-0.969-1.672-1.177
				c-0.631-0.173-1.27-0.329-1.903-0.482l-0.47-0.117c-0.44,0.622-0.97,1.029-1.613,1.233c-0.909,0.297-1.801,0.124-2.58-0.488
				c-0.273-0.217-0.512-0.466-0.713-0.747c-0.158,0.042-0.342,0.088-0.524,0.129c-0.186,0.043-0.367,0.086-0.552,0.138
				c-0.21,0.06-0.42,0.109-0.634,0.156c-0.371,0.083-0.722,0.167-1.034,0.305c-0.629,0.279-1.093,0.681-1.418,1.224
				c-0.612,1.028-1.267,2.013-2.039,3.141c0.593,0.355,1.179,0.714,1.759,1.074c0.235-0.355,0.472-0.707,0.709-1.062l0.82-1.225
				l0.602,0.286l0.224,0.204l-0.008,0.399L84.834,86.193z"/>
			<path fill="#777266" d="M94.506,86.77c-3.417,0-6.835,0-10.251,0c0-0.032,0.002-0.064,0.002-0.093c0-4.512,0-9.023-0.002-13.533
				c0-0.041,0.023-0.086-0.025-0.128c-0.033,0.055-0.072,0.102-0.105,0.151c-0.458,0.688-0.924,1.37-1.377,2.064
				c-0.072,0.107-0.121,0.117-0.23,0.049c-0.815-0.506-1.627-1.005-2.451-1.494c-0.153-0.09-0.136-0.144-0.052-0.268
				c0.779-1.129,1.55-2.268,2.251-3.443c0.405-0.676,0.978-1.142,1.681-1.458c0.557-0.246,1.165-0.318,1.747-0.484
				c0.473-0.131,0.958-0.218,1.423-0.372c0.023,0,0.049,0,0.073,0c0.2,0.372,0.469,0.695,0.8,0.953
				c0.613,0.484,1.301,0.638,2.048,0.396c0.697-0.227,1.173-0.728,1.526-1.35c0.024,0,0.053,0,0.074,0
				c0.016,0.013,0.025,0.027,0.04,0.029c0.889,0.22,1.79,0.428,2.674,0.672c0.837,0.231,1.541,0.683,2.008,1.426
				c0.781,1.238,1.575,2.47,2.408,3.678c0.059,0.086,0.073,0.127-0.033,0.192c-0.841,0.507-1.679,1.021-2.518,1.534
				c-0.095,0.061-0.14,0.047-0.204-0.048c-0.304-0.462-0.613-0.924-0.926-1.383c-0.188-0.279-0.375-0.561-0.571-0.853
				c-0.045,0.079-0.024,0.15-0.024,0.216c0,3.729,0,7.466,0,11.195C94.501,85.198,94.504,85.982,94.506,86.77z"/>
		</g>
	</g>
	<g>
		<g>
			
				<linearGradient id="SVGID_8_" gradientUnits="userSpaceOnUse" x1="69.667" y1="-586.0496" x2="94.1133" y2="-586.0496" gradientTransform="matrix(1 0 0 -1 -25.0796 -568.4985)">
				<stop  offset="0" style="stop-color:#E6E6E6"/>
				<stop  offset="0.5398" style="stop-color:#FFFFFF"/>
				<stop  offset="1" style="stop-color:#C8C8C8"/>
			</linearGradient>
			<path fill="url(#SVGID_8_)" d="M51.049,24.723h-0.043c-1.002-0.023-1.797-0.799-1.861-1.815
				c-0.192,0.009-0.385-0.017-0.573-0.071c-0.823-0.24-1.37-0.933-1.392-1.762c-0.014-0.601-0.014-1.205-0.008-1.802
				c-0.049,0-0.1,0-0.148,0l-0.625-0.003c-0.747-0.006-1.274-0.311-1.606-0.932l-0.206-0.039v-1.476l0.189-0.047
				c0.307-0.597,0.839-0.93,1.516-0.945c0.294-0.007,0.586-0.007,0.875-0.005c-0.003-0.562-0.003-1.123,0.003-1.681
				c0.013-1.115,0.84-1.955,1.925-1.955l0.049,0.001c0.081-1.037,0.87-1.806,1.891-1.814c1.104,0,1.927,0.85,1.932,1.981
				c0.004,1.158,0.009,2.318,0,3.478l3.68-0.004l3.674,0.004c-0.007-1.17-0.007-2.33-0.003-3.486c0.007-1.125,0.832-1.97,1.916-1.97
				l0.144,0.004c0.918,0.063,1.665,0.797,1.742,1.708c0.002,0.029,0.005,0.063,0.007,0.093c0.522-0.025,1.053,0.187,1.427,0.566
				c0.369,0.373,0.57,0.887,0.563,1.445c-0.003,0.326-0.003,0.651-0.003,0.976c0,0.219,0.003,0.437,0,0.656
				c0.108-0.001,0.215-0.001,0.317-0.001l0.764,0.002c0.838,0.001,1.395,0.36,1.701,1.098l0.138,0.097l-0.007,1.222l-0.178,0.061
				c-0.312,0.61-0.842,0.946-1.506,0.965c-0.409,0.009-0.82,0.012-1.227,0.005c0.007,0.562,0.004,1.127-0.005,1.69
				c-0.017,1.109-0.843,1.947-1.932,1.947l-0.057-0.001c-0.003,0.025-0.003,0.051-0.005,0.076c-0.083,0.991-0.899,1.74-1.898,1.74
				c-1.046-0.015-1.884-0.834-1.897-1.827c-0.019-1.21-0.016-2.42-0.009-3.629c-2.482,0.007-4.908,0.007-7.354,0
				c0.007,1.167,0.005,2.323,0,3.479C52.962,23.872,52.138,24.723,51.049,24.723z M50.293,21.244l-0.001,1.155
				c-0.001,0.143-0.003,0.275,0.003,0.409c0.02,0.429,0.329,0.748,0.738,0.757l0.02,0.577v-0.577c0.449,0,0.762-0.341,0.764-0.831
				c0.008-1.273,0.008-2.543-0.002-3.816c0-0.104-0.003-0.382,0.215-0.6c0.216-0.218,0.493-0.217,0.6-0.217
				c2.677,0.01,5.352,0.01,8.024,0c0.142,0.011,0.396,0,0.61,0.217c0.218,0.218,0.218,0.503,0.218,0.607
				c-0.009,1.315-0.015,2.628,0.007,3.945c0.005,0.373,0.331,0.683,0.729,0.688l0,0c0.411,0,0.728-0.287,0.759-0.683
				c0.016-0.174,0.016-0.354,0.016-0.529c0-0.592,0.412-0.739,0.636-0.739h0.131l0.205,0.085c0.059,0.026,0.115,0.044,0.169,0.047
				h0.002c0.513,0,0.825-0.326,0.832-0.808c0.011-0.676,0.011-1.352-0.005-2.028c0-0.096-0.004-0.374,0.212-0.592
				c0.214-0.217,0.489-0.217,0.581-0.217c0.563,0.012,1.053,0.016,1.569,0c0.259-0.006,0.407-0.115,0.524-0.373
				c0.009-0.041,0.021-0.079,0.034-0.116l-0.006-0.143c-0.13-0.401-0.265-0.498-0.679-0.499l-0.758-0.002
				c-0.228,0-0.457,0.001-0.687,0.006c0,0,0,0-0.002,0c-0.261,0-0.447-0.072-0.585-0.212c-0.209-0.213-0.207-0.482-0.205-0.57
				c0.005-0.345,0.005-0.69,0.003-1.034c0-0.33,0-0.66,0.002-0.989c0.002-0.252-0.076-0.465-0.23-0.62
				c-0.205-0.209-0.552-0.284-0.777-0.172l-0.12,0.06l-0.218,0.027c-0.216,0-0.629-0.146-0.629-0.702c0-0.195,0-0.391-0.019-0.586
				c-0.026-0.345-0.319-0.632-0.667-0.656c-0.003,0-0.005,0-0.007,0c-0.516,0-0.82,0.329-0.823,0.818
				c-0.008,1.274-0.008,2.545,0.005,3.817c0,0.094,0.002,0.385-0.215,0.605c-0.218,0.219-0.506,0.219-0.615,0.219l-4.003-0.005
				l-4.001,0.005c-0.125,0.003-0.399,0-0.616-0.22c-0.22-0.22-0.217-0.506-0.217-0.614c0.011-1.268,0.009-2.527,0.002-3.792
				c-0.002-0.491-0.312-0.834-0.759-0.834c-0.449,0.003-0.758,0.348-0.762,0.836v0.356v0.898l-0.692-0.14
				c-0.106-0.024-0.206-0.055-0.303-0.089c-0.05-0.019-0.116-0.042-0.142-0.042c-0.519,0-0.826,0.328-0.831,0.813
				c-0.008,0.684-0.006,1.371,0.001,2.056c0.004,0.231-0.067,0.42-0.204,0.56c-0.137,0.139-0.321,0.211-0.549,0.211
				c-0.462-0.009-0.842-0.01-1.253,0c-0.279,0.008-0.437,0.119-0.55,0.384c-0.007,0.04-0.021,0.073-0.031,0.111l0.014,0.194
				c0.14,0.342,0.279,0.438,0.648,0.44l0.617,0.004c0.165,0,0.33-0.002,0.494-0.009c0.229-0.005,0.466,0.072,0.605,0.214
				c0.213,0.216,0.209,0.495,0.208,0.585c-0.008,0.711-0.013,1.426,0.005,2.138c0.009,0.334,0.212,0.585,0.559,0.686
				c0.178,0.05,0.352,0.024,0.569-0.08L50.293,21.244z"/>
			<path fill="#777266" d="M68.453,17.825c-0.072,0.023-0.063,0.097-0.081,0.148c-0.203,0.45-0.548,0.7-1.039,0.712
				c-0.524,0.016-1.047,0.014-1.566,0c-0.169-0.002-0.229,0.029-0.228,0.218c0.014,0.684,0.014,1.366,0.002,2.047
				c-0.011,0.835-0.633,1.419-1.442,1.374c-0.137-0.009-0.268-0.046-0.392-0.106c-0.119-0.06-0.14-0.011-0.14,0.098
				c0,0.205,0.002,0.408-0.018,0.613c-0.062,0.702-0.635,1.223-1.342,1.211c-0.696-0.01-1.289-0.557-1.298-1.258
				c-0.022-1.321-0.015-2.638-0.008-3.958c0.002-0.207-0.054-0.247-0.251-0.246c-2.673,0.01-5.353,0.01-8.027,0
				c-0.186,0-0.235,0.044-0.233,0.234c0.011,1.274,0.011,2.547,0.003,3.822c-0.003,0.825-0.596,1.42-1.371,1.405
				c-0.712-0.016-1.271-0.575-1.302-1.314c-0.008-0.209-0.002-0.419-0.002-0.662c-0.329,0.161-0.648,0.213-0.985,0.116
				c-0.574-0.168-0.96-0.627-0.977-1.225c-0.018-0.72-0.013-1.441-0.004-2.16c0.002-0.172-0.046-0.217-0.217-0.215
				c-0.377,0.017-0.758,0.009-1.135,0.004c-0.603-0.003-0.954-0.241-1.182-0.803c-0.013-0.027-0.018-0.057-0.054-0.066
				c0-0.179,0-0.362,0-0.547c0.069-0.017,0.059-0.083,0.076-0.127c0.199-0.471,0.554-0.725,1.069-0.739
				c0.416-0.01,0.834-0.009,1.249,0c0.147,0.003,0.194-0.036,0.192-0.188c-0.008-0.69-0.01-1.379-0.002-2.069
				c0.01-0.851,0.634-1.437,1.454-1.381c0.177,0.015,0.327,0.104,0.511,0.141c0-0.192-0.002-0.373,0-0.552
				c0.009-0.805,0.57-1.399,1.325-1.408c0.766-0.006,1.345,0.592,1.35,1.409c0.005,1.265,0.007,2.528-0.005,3.797
				c0,0.208,0.053,0.258,0.26,0.257c2.668-0.006,5.336-0.006,8.004,0c0.194,0,0.256-0.035,0.254-0.244
				c-0.013-1.274-0.013-2.546-0.007-3.82c0.005-0.855,0.624-1.449,1.444-1.392c0.627,0.041,1.154,0.552,1.206,1.18
				c0.019,0.214,0.019,0.422,0.019,0.636c0,0.109,0.014,0.165,0.138,0.098c0.735-0.361,1.851,0.166,1.842,1.32
				c-0.007,0.674,0.004,1.349-0.005,2.023c-0.002,0.165,0.045,0.2,0.203,0.196c0.486-0.01,0.971-0.006,1.458-0.003
				c0.662,0.001,1.018,0.261,1.226,0.89c0.002,0.012,0.023,0.017,0.034,0.025C68.453,17.489,68.453,17.655,68.453,17.825z"/>
		</g>
	</g>
	<g>
		
			<linearGradient id="SVGID_9_" gradientUnits="userSpaceOnUse" x1="105.6758" y1="-605.6907" x2="122.4043" y2="-605.6907" gradientTransform="matrix(1 0 0 -1 -25.0796 -568.4985)">
			<stop  offset="0" style="stop-color:#E6E6E6"/>
			<stop  offset="0.5398" style="stop-color:#FFFFFF"/>
			<stop  offset="1" style="stop-color:#C8C8C8"/>
		</linearGradient>
		<path fill="url(#SVGID_9_)" d="M97.325,45.874H82.411l-0.06-0.121c-1.053-0.371-1.752-1.347-1.752-2.468l-0.003-4.059L80.6,31.11
			c0-1.207,0.858-2.27,2.042-2.529l0.067-0.071l12.157,0.025l0.045,0.529c0.009,0.093,0.016,0.149,0.016,0.207
			c0,0.509,0,1.022,0,1.534c0.003-0.007,0.007-0.011,0.01-0.016c0.094-0.111,0.266-0.243,0.561-0.243
			c0.291,0.011,0.446,0.019,0.643,0.001c0.392,0.011,0.817,0.2,0.817,0.775c-0.004,4.595-0.004,9.191-0.002,13.785
			c-0.002,0.01-0.002,0.017-0.002,0.025L97.325,45.874z M88.664,43.723l6.126,0.002c0-0.383,0-0.765,0-1.147
			c-0.132,0.177-0.35,0.276-0.627,0.276L83.479,42.85c-0.102,0-0.203,0-0.305,0.009c-0.185,0.017-0.288,0.086-0.36,0.253
			c-0.073,0.168-0.061,0.297,0.056,0.446c0.064,0.079,0.158,0.168,0.481,0.168L88.664,43.723z M83.035,29.691
			c-0.072,0.019-0.133,0.023-0.169,0.025c-0.631,0.138-1.108,0.729-1.108,1.398v8.116v3.425c0.002-0.002,0.002-0.004,0.004-0.007
			c0.239-0.553,0.71-0.89,1.323-0.938c0.133-0.01,0.264-0.011,0.395-0.011l10.301,0.003c-0.007-4.005-0.007-8.004-0.007-12.009
			l-1.382,0.001l-9.212-0.001C83.127,29.695,83.079,29.694,83.035,29.691z"/>
		<path fill="#777266" d="M82.968,29.088c0.013,0,0.024,0,0.031,0c0.052,0.06,0.12,0.026,0.175,0.026
			c3.071,0.001,6.144,0.001,9.215,0.001c0.647,0,1.296-0.002,1.948-0.002c0.004,0.053,0.014,0.107,0.014,0.159
			c0,4.274,0,8.544,0.007,12.817c0,0.161-0.046,0.187-0.194,0.187c-3.561-0.005-7.123-0.004-10.687-0.004
			c-0.115,0-0.229,0.002-0.347,0.011c-0.402,0.03-0.69,0.238-0.843,0.6c-0.162,0.359-0.117,0.712,0.126,1.029
			c0.237,0.31,0.567,0.392,0.938,0.392c3.939-0.002,7.883-0.002,11.824,0.001c0.151,0,0.189-0.033,0.189-0.189
			c-0.007-4.241-0.005-8.484-0.005-12.722c0-0.031,0.005-0.066,0-0.094c-0.023-0.127,0.024-0.176,0.16-0.169
			c0.219,0.013,0.446,0.019,0.665-0.001c0.169-0.014,0.193,0.046,0.193,0.201c-0.004,4.594-0.004,9.193-0.002,13.786
			c0,0.062-0.018,0.125,0.015,0.186c-4.54,0-9.073,0-13.614,0c-0.025-0.053-0.079-0.042-0.122-0.054
			c-0.89-0.265-1.474-1.034-1.474-1.957c0-4.059-0.002-8.116,0-12.175c0-0.943,0.667-1.764,1.587-1.967
			C82.835,29.131,82.914,29.149,82.968,29.088z"/>
	</g>
	<path fill="#777266" d="M24.739,37.765c0.029,0.024,0.059,0.041,0.084,0.061c1.287,0.793,2.572,1.585,3.862,2.378
		c0.064,0.039,0.102,0.035,0.161-0.005c0.352-0.251,0.704-0.498,1.06-0.746c0.271-0.19,0.563-0.312,0.904-0.3
		c0.333,0.012,0.605,0.157,0.816,0.409c0.118,0.139,0.102,0.312,0.071,0.467c-0.024,0.121-0.067,0.24-0.126,0.347
		c-0.818,1.359-1.644,2.715-2.467,4.07c-0.071,0.121-0.139,0.241-0.217,0.359c-0.156,0.227-0.312,0.273-0.568,0.164
		c-0.205-0.091-0.409-0.183-0.601-0.292c-0.256-0.144-0.374-0.375-0.352-0.666c0.041-0.504,0.091-1.006,0.144-1.509
		c0.024-0.223,0.029-0.222-0.168-0.317c-1.295-0.625-2.591-1.249-3.887-1.873c-0.029-0.015-0.059-0.025-0.092-0.043
		c-0.222,0.239-0.392,0.508-0.527,0.801c-0.23,0.5-0.345,1.035-0.472,1.567c-0.312,1.307-0.625,2.615-0.942,3.918
		c-0.033,0.149-0.085,0.295-0.145,0.437c-0.109,0.271-0.296,0.382-0.581,0.328c-0.409-0.073-0.794-0.231-1.153-0.444
		c-0.243-0.145-0.347-0.382-0.368-0.651c-0.021-0.229-0.031-0.462-0.034-0.696c-0.018-2.307-0.029-4.612-0.044-6.918
		c-0.001-0.153-0.019-0.311-0.046-0.458c-0.058-0.296-0.239-0.505-0.5-0.646c-0.542-0.285-1.091-0.548-1.624-0.843
		c-0.583-0.319-1.16-0.651-1.719-1.011c-0.491-0.312-0.885-0.737-1.176-1.238c-0.125-0.219-0.185-0.458-0.12-0.707
		c0.082-0.317,0.368-0.545,0.726-0.577c0.442-0.038,0.868,0.042,1.293,0.134c0.457,0.1,0.879,0.291,1.284,0.507
		c0.917,0.5,1.828,1.002,2.741,1.509c0.048,0.024,0.096,0.053,0.143,0.077c0.234,0.126,0.473,0.132,0.71,0.006
		c0.617-0.333,1.23-0.668,1.851-1c1.657-0.898,3.311-1.798,4.967-2.693c0.278-0.153,0.567-0.271,0.89-0.3
		c0.472-0.04,0.862,0.143,1.199,0.458c0.072,0.069,0.139,0.142,0.206,0.216c0.251,0.284,0.253,0.552-0.02,0.816
		c-0.241,0.235-0.499,0.454-0.748,0.674c-1.034,0.91-2.066,1.821-3.102,2.73c-0.359,0.313-0.648,0.683-0.941,1.051
		C24.979,37.464,24.86,37.613,24.739,37.765z"/>
	<path opacity="0.6" fill="#C1BAAC" enable-background="new    " d="M25.666,32.728c-1.004,0.544-2.008,1.087-3.013,1.634
		c-0.617,0.332-1.23,0.667-1.851,1c-0.237,0.126-0.476,0.121-0.71-0.006c-0.047-0.023-0.095-0.055-0.143-0.077
		c-0.914-0.506-1.824-1.009-2.741-1.508c-0.409-0.216-0.83-0.408-1.284-0.507c-0.426-0.092-0.852-0.172-1.293-0.134
		c-0.359,0.031-0.645,0.26-0.726,0.577c-0.068,0.252-0.008,0.488,0.12,0.707c0.291,0.505,0.685,0.928,1.176,1.238
		c0.559,0.359,1.136,0.692,1.718,1.011c0.534,0.298,1.083,0.558,1.625,0.843c0.26,0.139,0.442,0.351,0.5,0.647
		c0.028,0.152,0.045,0.308,0.046,0.457c0.017,2.307,0.026,4.612,0.045,6.918c0.002,0.233,0.016,0.464,0.034,0.696
		c0.024,0.27,0.125,0.507,0.368,0.651c0.098,0.058,0.202,0.099,0.303,0.147C20.337,41.635,22.438,36.71,25.666,32.728z"/>
</g>
<g opacity="0.6">
	<path fill="#C1BAAC" d="M64.043,15.517c0.502,0,0.999,0.008,1.494,0.022c0-0.451-0.003-0.901,0.004-1.352
		c0.012-1.155-1.106-1.681-1.842-1.321c-0.125,0.066-0.138,0.011-0.138-0.098c0-0.213,0-0.421-0.021-0.635
		c-0.053-0.629-0.58-1.139-1.203-1.18c-0.821-0.058-1.44,0.536-1.445,1.392c-0.005,1.088-0.003,2.181,0.005,3.272
		C61.934,15.552,62.982,15.517,64.043,15.517z"/>
	<path fill="#C1BAAC" d="M46.4,18.69c0.23,0.001,0.46-0.001,0.695-0.005c2.319-0.965,4.885-1.737,7.633-2.277
		c-0.695,0-1.388-0.002-2.085,0c-0.208,0.001-0.261-0.051-0.261-0.258c0.013-1.269,0.011-2.53,0.006-3.797
		c-0.006-0.817-0.584-1.415-1.351-1.409c-0.754,0.008-1.319,0.602-1.324,1.408c-0.002,0.179,0,0.359,0,0.552
		c-0.184-0.037-0.335-0.126-0.511-0.141c-0.82-0.055-1.445,0.531-1.454,1.381c-0.008,0.689-0.006,1.379,0.001,2.07
		c0.003,0.151-0.044,0.191-0.191,0.187c-0.416-0.009-0.833-0.01-1.25,0c-0.511,0.015-0.87,0.264-1.069,0.739
		c-0.021,0.045-0.011,0.114-0.076,0.127c0,0.182,0,0.365,0,0.547c0.036,0.009,0.042,0.036,0.054,0.066
		C45.446,18.45,45.795,18.685,46.4,18.69z"/>
</g>
<path opacity="0.6" fill="#C1BAAC" enable-background="new    " d="M19.231,75.166c0.402,0.092,0.477,0.295,0.471,0.655
	c0,0.016,0,0.029,0,0.043c0.847-1.487,1.888-2.83,3.087-3.993c0-0.989,0-1.979,0-2.966c0-0.168,0.023-0.343-0.011-0.505
	c-0.019-0.095-0.111-0.221-0.196-0.251c-0.09-0.023-0.259,0.017-0.308,0.083c-0.066,0.095-0.067,0.248-0.067,0.372
	c-0.007,1.203-0.009,2.404-0.005,3.605c0.003,0.257-0.084,0.379-0.362,0.379c-0.275,0-0.378-0.116-0.367-0.374
	c0.007-0.122,0-0.234,0-0.354c0-1.127,0.007-2.244-0.009-3.374c-0.002-0.119-0.113-0.276-0.217-0.347
	c-0.055-0.034-0.249,0.07-0.312,0.152c-0.061,0.081-0.041,0.226-0.041,0.345c-0.002,1.186-0.009,2.379,0.005,3.566
	c0.002,0.291-0.087,0.396-0.38,0.384c-0.32-0.021-0.298-0.232-0.298-0.445c0-1.144,0-2.295,0-3.444c0-0.121,0.024-0.246-0.019-0.349
	c-0.035-0.089-0.162-0.218-0.224-0.212c-0.099,0.016-0.212,0.122-0.264,0.219c-0.046,0.078-0.019,0.203-0.019,0.309
	c0,1.161-0.002,2.323,0,3.486c0,0.243-0.02,0.425-0.347,0.435c-0.417,0.012-0.385-0.249-0.385-0.516
	c0-1.178-0.002-2.351,0.002-3.526c0-0.261-0.064-0.48-0.36-0.402c-0.106,0.026-0.215,0.268-0.215,0.414
	c-0.016,1.816-0.012,3.632-0.011,5.449C18.384,74.591,18.671,75.04,19.231,75.166z"/>
<path opacity="0.6" fill="#C1BAAC" enable-background="new    " d="M27.961,71.123c0-0.541,0-1.082,0-1.617
	c0-0.921-0.842-1.563-1.735-1.334c-0.749,0.191-1.117,0.688-1.119,1.565c-0.002,1.467-0.006,2.927-0.006,4.393
	C25.93,72.991,26.893,71.986,27.961,71.123z"/>
<g>
	
		<linearGradient id="SVGID_10_" gradientUnits="userSpaceOnUse" x1="189.9736" y1="1109.9617" x2="238.2998" y2="1109.9617" gradientTransform="matrix(1 0 0 1 -157.6548 -1054.5977)">
		<stop  offset="0" style="stop-color:#E6E6E6"/>
		<stop  offset="0.5398" style="stop-color:#FFFFFF"/>
		<stop  offset="1" style="stop-color:#C8C8C8"/>
	</linearGradient>
	<path fill="url(#SVGID_10_)" d="M79.592,53.444c-0.956-1.557-3.422-3.15-4.774-3.947c0.517,0.055,1.162-0.007,1.162-0.007
		c1.329,0,1.822-0.919,1.822-1.729c0-1.172-1.67-1.218-1.67-1.218s-1.32,0-1.903,0c-1.087,0-0.965,0.54-0.885,1.088
		c-1.225-2.443-3.532-5.582-5.296-6.754c-0.494-0.328-1.124-0.335-1.124-0.335c-4.209-0.312-9.57-0.341-10.443-0.341
		c-0.871,0-6.234,0.029-10.44,0.341c0,0-0.631,0.004-1.124,0.335c-1.765,1.174-4.071,4.31-5.295,6.754
		c0.079-0.55,0.201-1.088-0.887-1.088c-0.585,0-1.901,0-1.901,0s-1.671,0.046-1.671,1.218c0,0.81,0.494,1.729,1.82,1.729
		c0,0,0.651,0.061,1.164,0.007c-1.351,0.794-3.817,2.387-4.775,3.947c-0.704,1.15-1.072,6.251-1.051,8.083
		c0.02,1.831,0.288,5.418,0.361,7.307c0.048,1.243,0.524,1.693,1.644,1.693h6.407c2.228,0,1.922-2.298,1.922-2.298
		c2.165-0.086,2.583,0.227,3.369,0.374c0.787,0.15,4.995,0.321,4.995,0.321l5.462,0.029l5.463-0.029c0,0,4.21-0.171,4.997-0.321
		c0.786-0.147,1.202-0.461,3.365-0.374c0,0-0.306,2.298,1.924,2.298h6.41c1.122,0,1.598-0.45,1.646-1.693
		c0.07-1.888,0.34-5.476,0.358-7.307C80.667,59.7,80.3,54.594,79.592,53.444z"/>
	<path fill="#777266" d="M79.074,53.503c-1.312-2.129-5.52-4.325-5.52-4.325h1.962c1.29,0,1.82-0.395,1.82-1.184
		c0-1.135-1.621-1.179-1.621-1.179s-0.67-0.003-1.24,0c-0.564,0.005-0.926,0.092-0.926,0.601c0,0.348,0,0.668,0,0.668
		c-0.012,0.213-0.325,0.218-0.325,0.218c-1.118-2.412-3.529-5.771-5.348-6.981c-0.479-0.32-1.091-0.327-1.091-0.327
		c-4.447-0.329-10.253-0.329-10.253-0.329c-0.014,0-0.035,0-0.052,0c-0.015,0-0.037,0-0.048,0c0,0-5.806,0-10.256,0.329
		c0,0-0.611,0.006-1.089,0.327c-1.821,1.21-4.231,4.566-5.348,6.981c0,0-0.313-0.007-0.324-0.218c0,0,0-0.32,0-0.668
		c0-0.508-0.361-0.594-0.929-0.601c-0.567-0.003-1.237,0-1.237,0s-1.621,0.044-1.621,1.179c0,0.789,0.53,1.184,1.819,1.184h1.963
		c0,0-4.208,2.195-5.521,4.325c-0.682,1.113-1.041,6.062-1.016,7.84c0.021,1.772,0.276,5.253,0.349,7.086
		c0.045,1.2,0.507,1.636,1.594,1.636h5.455c2.161,0,1.864-2.228,1.864-2.228c2.098-0.082,3.262,0.221,4.024,0.364
		c0.763,0.146,4.844,0.308,4.844,0.308l5.402,0.032h0.076h0.076l5.402-0.032c0,0,4.08-0.162,4.846-0.308
		c0.762-0.143,1.925-0.447,4.024-0.364c0,0-0.298,2.228,1.863,2.228h5.455c1.086,0,1.548-0.436,1.595-1.636
		c0.071-1.833,0.331-5.313,0.349-7.086C80.114,59.565,79.757,54.616,79.074,53.503z M41.983,47.116
		c0.33-0.66,2.879-4.746,4.035-5.125c0.558-0.185,3.014-0.282,5.4-0.336c0.085,0.166,0.238,0.349,0.499,0.361
		c0.47,0.018,1.446,0.056,1.446,0.056s0.135,0.293,0.499,0.344c0.366,0.05,1.316,0.206,1.416,0.257
		c0.096,0.048-0.014,0.265-0.014,0.265s-0.77,0.011-1.364,0.048c-0.307,0.021-0.355,0.888-0.316,1.009
		c0.037,0.122,0.169,0.099,0.169,0.099l1.583,0.072h0.711h0.715l1.579-0.072c0,0,0.137,0.023,0.17-0.099
		c0.038-0.122-0.008-0.988-0.316-1.009c-0.593-0.038-1.362-0.048-1.362-0.048s-0.108-0.217-0.011-0.265
		c0.099-0.051,1.051-0.208,1.415-0.257c0.362-0.05,0.5-0.344,0.5-0.344s0.975-0.038,1.445-0.056
		c0.269-0.012,0.425-0.212,0.508-0.379c2.623,0.047,5.641,0.147,6.27,0.355c1.151,0.38,3.703,4.464,4.032,5.125
		c0.468,0.954,0.36,1.379-0.462,1.341c-0.207-0.01-0.887-0.037-1.865-0.077c-0.137-0.16-0.399-0.439-0.636-0.505
		c-0.812-0.221-1.482-0.317-1.482-0.317s0.17-0.132,0.099-0.429c-0.071-0.297-0.466-1.923-0.569-2.404
		c-0.105-0.476-0.348-0.932-0.919-0.932c-0.567,0-1.886,0-1.886,0s-0.474,0-0.508,0.164c-0.269-0.024-0.363,0.249-0.363,0.249
		l-0.788,1.479c0,0-0.105,0.044-0.506,0.047c-0.401,0-0.45,0.434-0.531,0.631c-0.115,0.286-0.277,0.839-0.277,0.839l-2.084,0.106
		c0,0-0.017-0.426-0.639-0.433c-0.621-0.007-2.862,0.033-3.035,0.042c-0.173,0.002-0.454,0.076-0.521,0.231
		c-0.069,0.161-0.129,0.225-0.129,0.225s0-0.105-0.208-0.105c-0.212,0-1.681,0-1.681,0l-0.169-0.5c0,0-0.035-0.94-0.813-1.022
		c-0.366-0.036-0.667-0.045-0.667-0.045l-0.003-0.011c0,0-0.124-0.399-0.314-0.857c-0.192-0.458-0.298-0.852-0.865-0.866
		c-0.566-0.01-2.32-0.065-2.49,0.026c-0.168,0.092-0.264,0.209-0.264,0.209s-0.259,0.095-0.34,0.314
		c-0.442,1.196-0.746,2.083-0.721,3.119c0.003,0.155,0.067,0.172,0.099,0.172c-0.096,0.012-1.12,0.139-1.37,0.288
		c-0.129,0.077-0.271,0.204-0.382,0.311c-0.646,0.026-1.092,0.046-1.254,0.05C41.624,48.495,41.511,48.072,41.983,47.116z
		 M53.653,60.658c-1.372,0-2.465,0-3.686,0c-1.22,0-5.249-0.731-5.216-3.049c-1.263,0.002-4.923,0.075-7.224,0.156
		c-1.819,0.065-2.498-0.034-2.437-0.99c-1.603,0-1.114-1.904-0.803-2.983c0.31-1.082,2.359-0.414,3.432-0.093
		c1.075,0.32,5.715,1.56,6.109,1.665c0.399,0.107,0.69,0.155,0.856,0.466c0.154-0.759,0.413-1.496,2.661-1.496
		c0.919,0,3.684,0,5.423,0c1.737,0,2.501,0.094,2.819,0.813c0,0,0.35,1.444,0.35,3.129C55.936,59.965,55.025,60.658,53.653,60.658z
		 M56.484,53.782c-0.805,0-1.453-0.331-1.453-0.742c0-0.41,0.648-0.74,1.453-0.74c0.806,0,1.457,0.331,1.457,0.74
		C57.941,53.45,57.289,53.782,56.484,53.782z M77.877,56.776c0.062,0.957-0.617,1.054-2.435,0.989
		c-2.301-0.082-5.959-0.154-7.224-0.156c0.033,2.315-3.995,3.049-5.215,3.049c-1.219,0-2.314,0-3.688,0
		c-1.374,0-2.285-0.689-2.285-2.378c0-1.688,0.351-3.131,0.351-3.131c0.318-0.72,1.078-0.813,2.819-0.813c1.739,0,4.504,0,5.423,0
		c2.248,0,2.506,0.736,2.66,1.5c0.165-0.317,0.459-0.365,0.854-0.465c0.396-0.106,5.037-1.347,6.109-1.666
		c1.074-0.32,3.12-0.988,3.433,0.089C78.991,54.872,79.483,56.776,77.877,56.776z"/>
	
		<linearGradient id="SVGID_11_" gradientUnits="userSpaceOnUse" x1="191.6221" y1="1111.5261" x2="213.5918" y2="1111.5261" gradientTransform="matrix(1 0 0 1 -157.6548 -1054.5977)">
		<stop  offset="0" style="stop-color:#FFFFFF"/>
		<stop  offset="1" style="stop-color:#C8C8C8"/>
	</linearGradient>
	<path fill="url(#SVGID_11_)" d="M53.653,60.658c-1.372,0-2.465,0-3.686,0c-1.22,0-5.249-0.731-5.216-3.049
		c-1.263,0.002-4.923,0.075-7.224,0.156c-1.819,0.065-2.498-0.034-2.437-0.99c-1.603,0-1.114-1.904-0.803-2.983
		c0.31-1.082,2.359-0.414,3.432-0.093c1.075,0.32,5.715,1.56,6.109,1.665c0.399,0.107,0.69,0.155,0.856,0.466
		c0.154-0.759,0.413-1.496,2.661-1.496c0.919,0,3.684,0,5.423,0c1.737,0,2.501,0.094,2.819,0.813c0,0,0.35,1.444,0.35,3.129
		C55.936,59.965,55.025,60.658,53.653,60.658z"/>
	<ellipse opacity="0.1" fill="#A0A0A0" enable-background="new    " cx="56.484" cy="53.042" rx="1.457" ry="0.741"/>
	
		<linearGradient id="SVGID_12_" gradientUnits="userSpaceOnUse" x1="210.2402" y1="1111.53" x2="232.2129" y2="1111.53" gradientTransform="matrix(1 0 0 1 -157.6548 -1054.5977)">
		<stop  offset="0" style="stop-color:#FFFFFF"/>
		<stop  offset="1" style="stop-color:#C8C8C8"/>
	</linearGradient>
	<path fill="url(#SVGID_12_)" d="M77.877,56.776c0.062,0.957-0.617,1.054-2.435,0.989c-2.301-0.082-5.959-0.154-7.224-0.156
		c0.033,2.315-3.995,3.049-5.215,3.049c-1.219,0-2.314,0-3.688,0c-1.374,0-2.285-0.689-2.285-2.378c0-1.688,0.351-3.131,0.351-3.131
		c0.318-0.72,1.078-0.813,2.819-0.813c1.739,0,4.504,0,5.423,0c2.248,0,2.506,0.736,2.66,1.5c0.165-0.317,0.459-0.365,0.854-0.465
		c0.396-0.106,5.037-1.347,6.109-1.666c1.074-0.32,3.12-0.988,3.433,0.089C78.991,54.872,79.483,56.776,77.877,56.776z"/>
	<path opacity="0.6" fill="#C1BAAC" enable-background="new    " d="M33.895,53.503c2.196-1.757,6.085-1.757,8.986-1.757
		c0.483,0,2.742-2.195,3.163-2.27c-0.731,0.487-1.385,2.243-1.185,2.252c2.691,0.104,14.883-0.375,20.015-1.176
		c0.217-0.033,0.284-0.727-0.823-1.214c1.202,0.371,1.812,1.044,1.99,1.013c4.239-0.79,5.454-1.051,7.18-0.875
		c-2.341-0.553-8.75-1.01-16.19-1.01c-4.704,0-15.322,0.194-16.495,0.688c-1.174,0.492-2.451,0.702-3.519,1.48
		C35.947,51.409,34.199,52.688,33.895,53.503z"/>
	
		<linearGradient id="SVGID_13_" gradientUnits="userSpaceOnUse" x1="199.3604" y1="1099.6218" x2="228.9238" y2="1099.6218" gradientTransform="matrix(1 0 0 1 -157.6548 -1054.5977)">
		<stop  offset="0" style="stop-color:#FFFFFF"/>
		<stop  offset="1" style="stop-color:#C8C8C8"/>
	</linearGradient>
	<path opacity="0.3" fill="url(#SVGID_13_)" enable-background="new    " d="M41.983,47.116c0.33-0.66,2.879-4.746,4.035-5.125
		c1.151-0.375,10.392-0.402,10.392-0.402s0.028,0,0.076,0c0.052,0,0.08,0,0.08,0s9.236,0.022,10.393,0.402
		c1.154,0.38,3.706,4.465,4.035,5.125c0.467,0.954,0.359,1.379-0.463,1.341c-0.824-0.032-9.168-0.396-13.965-0.326
		c-0.025,0-0.051,0-0.076,0s-0.05,0-0.076,0c-4.8-0.071-13.141,0.295-13.964,0.326C41.624,48.495,41.511,48.072,41.983,47.116z"/>
	<path fill="#777266" d="M47.303,54.831c1.242,0.017,5.501,0.129,6.256,0.192c0.752,0.064,1.383,0.312,1.473,1.427
		c0.088,1.118,0.334,2.544-0.471,3.071c-0.806,0.525-3.782,0.406-4.962,0.278c-1.178-0.125-3.844-0.682-4.031-1.736
		c-0.185-1.053-0.31-1.921,0-2.417C45.877,55.147,46.376,54.817,47.303,54.831z"/>
	<path fill="#777266" d="M65.774,54.831c-1.24,0.017-5.502,0.129-6.254,0.192c-0.754,0.064-1.383,0.312-1.475,1.427
		c-0.088,1.118-0.334,2.544,0.473,3.071c0.805,0.525,3.783,0.406,4.961,0.278c1.179-0.125,3.845-0.682,4.032-1.736
		c0.185-1.053,0.309-1.921,0-2.417C67.199,55.147,66.702,54.817,65.774,54.831z"/>
	
		<linearGradient id="SVGID_14_" gradientUnits="userSpaceOnUse" x1="192.6182" y1="-806.9656" x2="235.5469" y2="-806.9656" gradientTransform="matrix(1 0 0 -1 -157.5996 -743.4575)">
		<stop  offset="0" style="stop-color:#FFFFFF"/>
		<stop  offset="1" style="stop-color:#C8C8C8"/>
	</linearGradient>
	<path fill="url(#SVGID_14_)" d="M76.329,61.201c-0.747,0.03-2.308,0.213-4.952,0.46c-2.643,0.247-4.536,0.521-4.975,1.354
		l-9.92,0.045l-9.919-0.045c-0.436-0.832-2.331-1.106-4.975-1.354c-2.643-0.247-4.205-0.43-4.952-0.46
		c-0.749-0.032-1.672-0.226-1.615,1.228c0.057,1.455,0.178,2.442,1.806,2.633c1.627,0.192,4.527,0.358,6.254,0.487
		c1.726,0.132,4.112,0.433,3.919-0.317c1.668-0.073,0.676,0.558,1.979,0.595c1.3,0.035,7.502,0,7.502,0s6.204,0.035,7.505,0
		c1.301-0.037,0.31-0.668,1.979-0.595c-0.193,0.75,2.19,0.449,3.918,0.317c1.73-0.129,4.627-0.295,6.255-0.487
		c1.628-0.19,1.751-1.178,1.808-2.633C78,60.975,77.076,61.169,76.329,61.201z"/>
</g>
</svg>
