<?xml version="1.0" encoding="utf-8"?>
<!-- Generator: Adobe Illustrator 16.0.0, SVG Export Plug-In . SVG Version: 6.00 Build 0)  -->
<!DOCTYPE svg PUBLIC "-//W3C//DTD SVG 1.1//EN" "http://www.w3.org/Graphics/SVG/1.1/DTD/svg11.dtd">
<svg version="1.1" id="Layer_1" xmlns="http://www.w3.org/2000/svg" xmlns:xlink="http://www.w3.org/1999/xlink" x="0px" y="0px"
	 width="110.5px" height="115.779px" viewBox="0 0 110.5 115.779" enable-background="new 0 0 110.5 115.779" xml:space="preserve">
<g>
	
		<linearGradient id="SVGID_1_" gradientUnits="userSpaceOnUse" x1="158.5977" y1="-289.8542" x2="238.5273" y2="-289.8542" gradientTransform="matrix(1 0 0 -1 -149.2949 -237.6528)">
		<stop  offset="0" style="stop-color:#E6E6E6"/>
		<stop  offset="0.5398" style="stop-color:#FFFFFF"/>
		<stop  offset="1" style="stop-color:#C8C8C8"/>
	</linearGradient>
	<path fill="url(#SVGID_1_)" d="M87.492,49.024c-1.585-2.575-5.663-5.209-7.898-6.526c0.853,0.09,1.923-0.012,1.923-0.012
		c2.197,0,3.014-1.52,3.014-2.859c0-1.938-2.763-2.015-2.763-2.015s-2.184,0-3.147,0c-1.798,0-1.597,0.892-1.465,1.799
		c-2.025-4.042-5.841-9.23-8.759-11.172c-0.817-0.54-1.857-0.556-1.857-0.556c-6.961-0.516-15.83-0.562-17.271-0.562
		c-1.443,0-10.312,0.046-17.27,0.562c0,0-1.043,0.01-1.858,0.556c-2.92,1.945-6.733,7.129-8.759,11.172
		c0.131-0.908,0.332-1.799-1.465-1.799c-0.969,0-3.146,0-3.146,0s-2.764,0.076-2.764,2.015c0,1.34,0.816,2.859,3.011,2.859
		c0,0,1.076,0.102,1.924,0.012c-2.233,1.312-6.312,3.947-7.896,6.526c-1.167,1.902-1.775,10.341-1.741,13.37
		s0.476,8.963,0.598,12.086c0.079,2.055,0.867,2.801,2.72,2.801h10.598c3.685,0,3.177-3.803,3.177-3.803
		c3.581-0.141,4.273,0.375,5.573,0.62c1.301,0.249,8.261,0.53,8.261,0.53l9.035,0.05l9.037-0.05c0,0,6.963-0.281,8.263-0.53
		c1.301-0.245,1.99-0.761,5.568-0.62c0,0-0.506,3.803,3.182,3.803h10.599c1.859,0,2.643-0.746,2.725-2.801
		c0.117-3.123,0.562-9.057,0.593-12.086C89.268,59.371,88.66,50.927,87.492,49.024z"/>
	<path fill="#777266" d="M86.633,49.123c-2.169-3.523-9.129-7.155-9.129-7.155h3.245c2.132,0,3.012-0.652,3.012-1.956
		c0-1.877-2.683-1.949-2.683-1.949s-1.107-0.007-2.049,0c-0.937,0.007-1.533,0.151-1.533,0.991c0,0.576,0,1.106,0,1.106
		c-0.018,0.353-0.537,0.359-0.537,0.359c-1.849-3.987-5.837-9.543-8.845-11.546c-0.793-0.529-1.804-0.54-1.804-0.54
		c-7.359-0.544-16.96-0.544-16.96-0.544c-0.021,0-0.058,0-0.084,0c-0.025,0-0.062,0-0.08,0c0,0-9.602,0-16.963,0.544
		c0,0-1.009,0.011-1.802,0.54c-3.012,2.003-6.997,7.554-8.845,11.546c0,0-0.52-0.011-0.537-0.359c0,0,0-0.53,0-1.106
		c0-0.839-0.598-0.983-1.535-0.991c-0.939-0.007-2.048,0-2.048,0s-2.681,0.072-2.681,1.949c0,1.304,0.877,1.956,3.008,1.956h3.248
		c0,0-6.96,3.632-9.132,7.155c-1.129,1.84-1.722,10.028-1.683,12.965c0.034,2.933,0.457,8.688,0.577,11.72
		c0.074,1.987,0.838,2.708,2.637,2.708h9.021c3.574,0,3.084-3.685,3.084-3.685c3.471-0.134,5.396,0.362,6.656,0.602
		c1.262,0.241,8.012,0.511,8.012,0.511l8.935,0.052h0.126h0.125l8.937-0.052c0,0,6.749-0.27,8.012-0.511
		c1.262-0.238,3.186-0.739,6.657-0.602c0,0-0.489,3.685,3.082,3.685H85.1c1.799,0,2.562-0.721,2.637-2.708
		c0.119-3.03,0.548-8.787,0.58-11.72C88.354,59.151,87.764,50.963,86.633,49.123z M25.285,38.559
		c0.545-1.092,4.763-7.85,6.674-8.477c0.923-0.307,4.985-0.468,8.931-0.559c0.143,0.274,0.396,0.58,0.826,0.599
		c0.777,0.028,2.392,0.093,2.392,0.093s0.224,0.483,0.825,0.566c0.604,0.083,2.178,0.342,2.342,0.425
		c0.158,0.079-0.022,0.438-0.022,0.438s-1.271,0.019-2.255,0.079c-0.508,0.036-0.588,1.47-0.523,1.671
		c0.062,0.202,0.28,0.162,0.28,0.162l2.618,0.119h1.177h1.181l2.612-0.119c0,0,0.225,0.04,0.281-0.162
		c0.063-0.202-0.013-1.635-0.522-1.671c-0.981-0.062-2.253-0.079-2.253-0.079s-0.181-0.359-0.019-0.438
		c0.163-0.083,1.737-0.343,2.341-0.425c0.601-0.083,0.827-0.566,0.827-0.566s1.613-0.064,2.389-0.093
		c0.445-0.019,0.704-0.351,0.842-0.627c4.337,0.079,9.327,0.245,10.366,0.587c1.907,0.627,6.126,7.385,6.671,8.477
		c0.776,1.578,0.596,2.281-0.765,2.219c-0.341-0.015-1.467-0.061-3.085-0.126c-0.227-0.267-0.661-0.728-1.052-0.836
		c-1.344-0.366-2.452-0.525-2.452-0.525s0.283-0.22,0.164-0.709c-0.119-0.49-0.771-3.182-0.943-3.975
		c-0.171-0.789-0.574-1.542-1.517-1.542s-3.123,0-3.123,0s-0.782,0-0.84,0.271c-0.441-0.04-0.598,0.411-0.598,0.411l-1.305,2.445
		c0,0-0.174,0.072-0.836,0.079c-0.663,0-0.744,0.718-0.879,1.044c-0.19,0.473-0.46,1.388-0.46,1.388l-3.447,0.177
		c0,0-0.026-0.706-1.055-0.717c-1.026-0.012-4.733,0.054-5.02,0.068c-0.286,0.004-0.75,0.126-0.86,0.383
		c-0.114,0.267-0.215,0.37-0.215,0.37s0-0.173-0.346-0.173c-0.35,0-2.779,0-2.779,0l-0.281-0.825c0,0-0.057-1.557-1.345-1.692
		c-0.605-0.058-1.104-0.075-1.104-0.075l-0.005-0.018c0,0-0.204-0.66-0.519-1.419c-0.317-0.757-0.494-1.409-1.431-1.431
		c-0.937-0.018-3.839-0.107-4.12,0.043c-0.279,0.151-0.436,0.347-0.436,0.347s-0.429,0.157-0.562,0.519
		c-0.731,1.978-1.232,3.444-1.191,5.159c0.006,0.255,0.111,0.284,0.164,0.284c-0.16,0.018-1.853,0.23-2.267,0.476
		c-0.213,0.126-0.447,0.338-0.632,0.515c-1.069,0.043-1.808,0.076-2.074,0.083C24.691,40.841,24.505,40.14,25.285,38.559z
		 M44.588,60.957c-2.27,0-4.077,0-6.096,0c-2.018,0-8.679-1.21-8.626-5.044c-2.089,0.004-8.142,0.123-11.948,0.259
		c-3.008,0.109-4.132-0.058-4.029-1.639c-2.653,0-1.843-3.148-1.329-4.933c0.513-1.791,3.902-0.685,5.675-0.155
		c1.778,0.53,9.454,2.58,10.106,2.754c0.658,0.177,1.142,0.255,1.417,0.771c0.254-1.257,0.681-2.475,4.398-2.475
		c1.521,0,6.094,0,8.97,0c2.875,0,4.137,0.154,4.662,1.344c0,0,0.58,2.389,0.58,5.177C48.364,59.81,46.857,60.957,44.588,60.957z
		 M49.271,49.584c-1.331,0-2.406-0.547-2.406-1.226c0-0.678,1.076-1.225,2.406-1.225c1.332,0,2.41,0.548,2.41,1.225
		C51.681,49.036,50.6,49.584,49.271,49.584z M84.652,54.536c0.104,1.582-1.02,1.745-4.029,1.636
		c-3.804-0.136-9.854-0.255-11.945-0.259c0.054,3.829-6.607,5.044-8.626,5.044c-2.018,0-3.826,0-6.098,0s-3.779-1.14-3.779-3.933
		c0-2.792,0.578-5.18,0.578-5.18c0.528-1.188,1.785-1.344,4.664-1.344c2.877,0,7.448,0,8.969,0c3.72,0,4.146,1.218,4.399,2.479
		c0.274-0.522,0.759-0.6,1.413-0.768c0.656-0.177,8.333-2.229,10.106-2.756c1.775-0.53,5.161-1.635,5.678,0.146
		C86.496,51.387,87.309,54.536,84.652,54.536z"/>
	
		<linearGradient id="SVGID_2_" gradientUnits="userSpaceOnUse" x1="161.3232" y1="-292.4407" x2="197.6631" y2="-292.4407" gradientTransform="matrix(1 0 0 -1 -149.2949 -237.6528)">
		<stop  offset="0" style="stop-color:#FFFFFF"/>
		<stop  offset="1" style="stop-color:#C8C8C8"/>
	</linearGradient>
	<path fill="url(#SVGID_2_)" d="M44.588,60.957c-2.27,0-4.077,0-6.096,0c-2.018,0-8.679-1.21-8.626-5.044
		c-2.089,0.004-8.142,0.123-11.948,0.259c-3.008,0.109-4.132-0.058-4.029-1.639c-2.653,0-1.843-3.148-1.329-4.933
		c0.513-1.791,3.902-0.685,5.675-0.155c1.778,0.53,9.454,2.58,10.106,2.754c0.658,0.177,1.142,0.255,1.417,0.771
		c0.254-1.257,0.681-2.475,4.398-2.475c1.521,0,6.094,0,8.97,0c2.875,0,4.137,0.154,4.662,1.344c0,0,0.58,2.389,0.58,5.177
		C48.364,59.81,46.857,60.957,44.588,60.957z"/>
	<ellipse opacity="0.1" fill="#A0A0A0" enable-background="new    " cx="49.271" cy="48.359" rx="2.41" ry="1.225"/>
	
		<linearGradient id="SVGID_3_" gradientUnits="userSpaceOnUse" x1="192.1182" y1="-292.4456" x2="228.458" y2="-292.4456" gradientTransform="matrix(1 0 0 -1 -149.2949 -237.6528)">
		<stop  offset="0" style="stop-color:#FFFFFF"/>
		<stop  offset="1" style="stop-color:#C8C8C8"/>
	</linearGradient>
	<path fill="url(#SVGID_3_)" d="M84.652,54.536c0.104,1.582-1.02,1.745-4.029,1.636c-3.804-0.136-9.854-0.255-11.945-0.259
		c0.054,3.829-6.607,5.044-8.626,5.044c-2.018,0-3.826,0-6.098,0s-3.779-1.14-3.779-3.933c0-2.792,0.578-5.18,0.578-5.18
		c0.528-1.188,1.785-1.344,4.664-1.344c2.877,0,7.448,0,8.969,0c3.72,0,4.146,1.218,4.399,2.479c0.274-0.522,0.759-0.6,1.413-0.768
		c0.656-0.177,8.333-2.229,10.106-2.756c1.775-0.53,5.161-1.635,5.678,0.146C86.496,51.387,87.309,54.536,84.652,54.536z"/>
	<path opacity="0.6" fill="#C1BAAC" enable-background="new    " d="M11.908,49.123c3.632-2.908,10.066-2.908,14.863-2.908
		c0.798,0,4.536-3.631,5.23-3.754c-1.21,0.807-2.29,3.711-1.96,3.726c4.451,0.172,24.616-0.62,33.104-1.945
		c0.359-0.055,0.472-1.203-1.361-2.008c1.989,0.612,2.998,1.727,3.292,1.673c7.011-1.306,9.02-1.737,11.874-1.445
		c-3.87-0.915-14.473-1.671-26.778-1.671c-7.78,0-25.34,0.32-27.281,1.138c-1.942,0.814-4.054,1.161-5.82,2.447
		C15.303,45.66,12.411,47.774,11.908,49.123z"/>
	
		<linearGradient id="SVGID_4_" gradientUnits="userSpaceOnUse" x1="174.1211" y1="-272.7517" x2="223.0195" y2="-272.7517" gradientTransform="matrix(1 0 0 -1 -149.2949 -237.6528)">
		<stop  offset="0" style="stop-color:#FFFFFF"/>
		<stop  offset="1" style="stop-color:#C8C8C8"/>
	</linearGradient>
	<path opacity="0.3" fill="url(#SVGID_4_)" enable-background="new    " d="M25.285,38.559c0.545-1.092,4.763-7.85,6.674-8.477
		c1.905-0.623,17.188-0.667,17.188-0.667s0.048,0,0.126,0c0.085,0,0.132,0,0.132,0s15.279,0.036,17.188,0.667
		c1.908,0.627,6.129,7.385,6.672,8.477c0.777,1.578,0.596,2.281-0.765,2.219c-1.362-0.054-15.162-0.658-23.096-0.541
		c-0.044,0-0.084,0-0.128,0c-0.042,0-0.082,0-0.126,0c-7.938-0.118-21.732,0.487-23.095,0.541
		C24.691,40.841,24.505,40.14,25.285,38.559z"/>
	<path fill="#777266" d="M34.084,51.319c2.054,0.029,9.099,0.213,10.347,0.317c1.244,0.108,2.288,0.515,2.434,2.36
		c0.146,1.848,0.556,4.207-0.776,5.079c-1.333,0.867-6.256,0.671-8.207,0.461c-1.948-0.209-6.359-1.128-6.668-2.871
		c-0.307-1.743-0.512-3.179,0-3.999C31.727,51.843,32.552,51.298,34.084,51.319z"/>
	<path fill="#777266" d="M64.635,51.319c-2.051,0.029-9.099,0.213-10.344,0.317c-1.247,0.108-2.287,0.515-2.438,2.36
		c-0.146,1.848-0.555,4.207,0.779,5.079c1.333,0.867,6.258,0.671,8.205,0.461c1.949-0.209,6.359-1.128,6.668-2.871
		s0.515-3.179,0-3.999C66.993,51.843,66.17,51.298,64.635,51.319z"/>
	
		<linearGradient id="SVGID_5_" gradientUnits="userSpaceOnUse" x1="163.0059" y1="948.9636" x2="234.0068" y2="948.9636" gradientTransform="matrix(1 0 0 1 -149.2397 -883.291)">
		<stop  offset="0" style="stop-color:#FFFFFF"/>
		<stop  offset="1" style="stop-color:#C8C8C8"/>
	</linearGradient>
	<path fill="url(#SVGID_5_)" d="M82.094,61.853c-1.237,0.051-3.819,0.354-8.192,0.762c-4.37,0.409-7.503,0.863-8.228,2.239
		l-16.407,0.072l-16.407-0.072c-0.721-1.376-3.855-1.83-8.228-2.239c-4.371-0.407-6.954-0.711-8.189-0.762
		c-1.238-0.051-2.765-0.371-2.672,2.031c0.094,2.407,0.295,4.04,2.987,4.355c2.691,0.316,7.487,0.592,10.344,0.808
		c2.855,0.216,6.801,0.714,6.482-0.529c2.759-0.119,1.118,0.926,3.273,0.987c2.149,0.058,12.408,0,12.408,0s10.26,0.058,12.413,0
		c2.149-0.062,0.513-1.106,3.271-0.987c-0.319,1.243,3.622,0.745,6.481,0.529s7.65-0.49,10.344-0.808
		c2.693-0.315,2.897-1.948,2.989-4.355C84.856,61.482,83.329,61.802,82.094,61.853z"/>
	<g>
		<linearGradient id="SVGID_6_" gradientUnits="userSpaceOnUse" x1="58.6172" y1="72.1179" x2="101.6973" y2="72.1179">
			<stop  offset="0" style="stop-color:#FFFFFF"/>
			<stop  offset="1" style="stop-color:#C8C8C8"/>
		</linearGradient>
		<path fill-rule="evenodd" clip-rule="evenodd" fill="#787367" stroke="url(#SVGID_6_)" stroke-miterlimit="10" d="M80.11,88.656
			c-6.298,0-12.593,0-18.891,0c-0.173,0-0.346-0.002-0.519-0.006c-0.824-0.019-1.588-0.845-1.584-1.673
			c0.025-9.885,0.025-19.771,0-29.655c-0.004-0.907,0.771-1.658,1.591-1.729c0.177-0.018,0.351-0.014,0.523-0.014
			c12.61-0.002,25.218-0.004,37.825,0.004c0.328,0,0.67,0.031,0.975,0.131c0.723,0.247,1.137,0.856,1.159,1.616
			c0,0.079,0,0.158,0,0.237c0,9.712-0.004,19.423,0.007,29.137c0,0.826-0.281,1.458-1.042,1.789
			c-0.305,0.134-0.673,0.156-1.012,0.156C92.801,88.66,86.453,88.656,80.11,88.656z M97.722,85.474c0-8.916,0-17.786,0-26.653
			c-11.734,0-23.436,0-35.14,0c0,8.901,0,17.768,0,26.653C74.305,85.474,85.99,85.474,97.722,85.474z M60.832,72.867
			c0.422,0,0.749-0.329,0.745-0.744c-0.004-0.383-0.339-0.725-0.719-0.739c-0.395-0.018-0.756,0.327-0.764,0.735
			C60.084,72.538,60.411,72.867,60.832,72.867z"/>
		
			<linearGradient id="SVGID_7_" gradientUnits="userSpaceOnUse" x1="57.6582" y1="34.5032" x2="84.3115" y2="34.5032" gradientTransform="matrix(0 1 -1 0 114.655 1.1628)">
			<stop  offset="0" style="stop-color:#E5E6E5"/>
			<stop  offset="0.5398" style="stop-color:#FFFFFF"/>
			<stop  offset="1" style="stop-color:#C8C8C8"/>
		</linearGradient>
		<path fill-rule="evenodd" clip-rule="evenodd" fill="url(#SVGID_7_)" d="M97.722,85.474c-11.731,0-23.417,0-35.14,0
			c0-8.886,0-17.752,0-26.653c11.704,0,23.405,0,35.14,0C97.722,67.688,97.722,76.558,97.722,85.474z"/>
		<path opacity="0.6" fill-rule="evenodd" clip-rule="evenodd" fill="#C0BAAB" enable-background="new    " d="M60.832,72.867
			c-0.421,0-0.748-0.329-0.737-0.748c0.008-0.408,0.369-0.753,0.764-0.735c0.38,0.015,0.715,0.356,0.719,0.739
			C61.581,72.538,61.254,72.867,60.832,72.867z"/>
		<path opacity="0.6" fill-rule="evenodd" clip-rule="evenodd" fill="#C0BAAB" enable-background="new    " d="M99.385,72.207
			c-0.207-0.004-0.369-0.163-0.361-0.37c0.004-0.205,0.181-0.376,0.38-0.365c0.185,0.008,0.35,0.177,0.354,0.365
			C99.757,72.044,99.595,72.207,99.385,72.207z"/>
	</g>
	<path fill="#777266" d="M80.134,81.875c-1.508,0-2.848-0.24-4.02-0.721s-2.16-1.148-2.965-2.004s-1.418-1.875-1.84-3.059
		s-0.633-2.479-0.633-3.885c0-1.453,0.25-2.781,0.75-3.984s1.203-2.242,2.109-3.117c0.961-0.922,2.018-1.58,3.17-1.975
		s2.385-0.592,3.697-0.592c1.422,0,2.703,0.229,3.844,0.686s2.109,1.078,2.906,1.863s1.41,1.699,1.84,2.742s0.645,2.15,0.645,3.322
		c0,1.039-0.146,1.953-0.439,2.742s-0.691,1.449-1.195,1.98s-1.092,0.932-1.764,1.201s-1.387,0.404-2.145,0.404
		c-0.328,0-0.617-0.02-0.867-0.059s-0.467-0.094-0.65-0.164s-0.342-0.152-0.475-0.246s-0.246-0.199-0.34-0.316
		c-0.109-0.133-0.205-0.289-0.287-0.469s-0.139-0.391-0.17-0.633c-0.461,0.484-0.867,0.859-1.219,1.125s-0.719,0.451-1.102,0.557
		s-0.77,0.158-1.16,0.158c-0.508,0-0.953-0.096-1.336-0.287s-0.703-0.455-0.961-0.791s-0.451-0.73-0.58-1.184
		s-0.193-0.945-0.193-1.477c0-0.68,0.088-1.373,0.264-2.08s0.41-1.328,0.703-1.863s0.588-0.967,0.885-1.295
		c0.414-0.453,0.887-0.811,1.418-1.072s1.121-0.393,1.77-0.393c0.688,0,1.232,0.117,1.635,0.352s0.705,0.527,0.908,0.879
		l0.199-0.891h2.66l-1.336,6.141c-0.07,0.281-0.105,0.609-0.105,0.984c0,0.281,0.068,0.516,0.205,0.703s0.381,0.281,0.732,0.281
		c0.633,0,1.168-0.211,1.605-0.633s0.74-0.971,0.908-1.646s0.252-1.354,0.252-2.033c0-0.914-0.182-1.791-0.545-2.631
		s-0.885-1.568-1.564-2.186s-1.479-1.068-2.396-1.354s-1.857-0.428-2.818-0.428c-1.023,0-1.973,0.18-2.848,0.539
		s-1.637,0.867-2.285,1.523c-0.68,0.672-1.211,1.488-1.594,2.449s-0.574,2.023-0.574,3.188c0,1.211,0.168,2.289,0.504,3.234
		s0.818,1.746,1.447,2.402s1.395,1.156,2.297,1.5s1.92,0.516,3.053,0.516c0.719,0,1.459-0.086,2.221-0.258s1.455-0.398,2.08-0.68
		l0.715,1.852c-0.828,0.352-1.645,0.619-2.449,0.803S81.04,81.875,80.134,81.875z M78.962,75.254c0.523,0,0.975-0.189,1.354-0.568
		s0.654-0.801,0.826-1.266s0.293-0.869,0.363-1.213c0.094-0.484,0.141-0.867,0.141-1.148c0-0.648-0.145-1.121-0.434-1.418
		c-0.117-0.133-0.264-0.238-0.439-0.316s-0.373-0.117-0.592-0.117c-0.273,0-0.533,0.064-0.779,0.193s-0.467,0.303-0.662,0.521
		c-0.25,0.266-0.461,0.592-0.633,0.979s-0.312,0.838-0.422,1.354c-0.078,0.344-0.117,0.711-0.117,1.102
		c0,0.609,0.115,1.078,0.346,1.406S78.493,75.254,78.962,75.254z"/>
</g>
</svg>
