<?xml version="1.0" encoding="utf-8"?>
<!-- Generator: Adobe Illustrator 16.0.0, SVG Export Plug-In . SVG Version: 6.00 Build 0)  -->
<!DOCTYPE svg PUBLIC "-//W3C//DTD SVG 1.1//EN" "http://www.w3.org/Graphics/SVG/1.1/DTD/svg11.dtd">
<svg version="1.1" id="Layer_1" xmlns="http://www.w3.org/2000/svg" xmlns:xlink="http://www.w3.org/1999/xlink" x="0px" y="0px"
	 width="110.5px" height="115.779px" viewBox="0 0 110.5 115.779" enable-background="new 0 0 110.5 115.779" xml:space="preserve">
<linearGradient id="SVGID_1_" gradientUnits="userSpaceOnUse" x1="160.8564" y1="-286.4304" x2="240.7871" y2="-286.4304" gradientTransform="matrix(1 0 0 -1 -149.2949 -237.6528)">
	<stop  offset="0" style="stop-color:#E6E6E6"/>
	<stop  offset="0.5398" style="stop-color:#FFFFFF"/>
	<stop  offset="1" style="stop-color:#C8C8C8"/>
</linearGradient>
<path fill="url(#SVGID_1_)" d="M89.752,45.6c-1.586-2.575-5.664-5.209-7.898-6.526c0.852,0.09,1.922-0.012,1.922-0.012
	c2.197,0,3.014-1.52,3.014-2.859c0-1.938-2.762-2.015-2.762-2.015s-2.184,0-3.148,0c-1.797,0-1.596,0.892-1.465,1.799
	c-2.025-4.042-5.84-9.23-8.758-11.172c-0.818-0.54-1.857-0.556-1.857-0.556c-6.961-0.516-15.831-0.562-17.272-0.562
	c-1.443,0-10.312,0.046-17.27,0.562c0,0-1.043,0.01-1.858,0.556c-2.92,1.945-6.733,7.129-8.759,11.172
	c0.131-0.908,0.332-1.799-1.465-1.799c-0.969,0-3.146,0-3.146,0s-2.764,0.076-2.764,2.015c0,1.34,0.816,2.859,3.011,2.859
	c0,0,1.076,0.102,1.924,0.012c-2.233,1.312-6.312,3.947-7.896,6.526c-1.167,1.902-1.775,10.341-1.741,13.37
	s0.476,8.963,0.598,12.086c0.079,2.055,0.867,2.801,2.72,2.801h10.598c3.685,0,3.177-3.803,3.177-3.803
	c3.581-0.141,4.273,0.375,5.573,0.62c1.301,0.249,8.261,0.53,8.261,0.53l9.035,0.05l9.037-0.05c0,0,6.963-0.281,8.264-0.53
	c1.301-0.245,1.99-0.761,5.568-0.62c0,0-0.506,3.803,3.182,3.803h10.598c1.859,0,2.643-0.746,2.725-2.801
	C91.014,67.933,91.459,62,91.49,58.97C91.527,55.947,90.92,47.503,89.752,45.6z"/>
<path fill="#777266" d="M88.893,45.699c-2.17-3.523-9.129-7.155-9.129-7.155h3.244c2.133,0,3.012-0.652,3.012-1.956
	c0-1.877-2.682-1.949-2.682-1.949s-1.107-0.007-2.049,0c-0.938,0.007-1.533,0.151-1.533,0.991c0,0.576,0,1.106,0,1.106
	c-0.018,0.353-0.537,0.359-0.537,0.359c-1.85-3.987-5.838-9.543-8.846-11.546c-0.793-0.529-1.803-0.54-1.803-0.54
	c-7.359-0.544-16.96-0.544-16.96-0.544c-0.021,0-0.058,0-0.084,0c-0.025,0-0.062,0-0.08,0c0,0-9.602,0-16.963,0.544
	c0,0-1.009,0.011-1.802,0.54c-3.012,2.003-6.997,7.554-8.845,11.546c0,0-0.52-0.011-0.537-0.359c0,0,0-0.53,0-1.106
	c0-0.839-0.598-0.983-1.535-0.991c-0.939-0.007-2.048,0-2.048,0s-2.681,0.072-2.681,1.949c0,1.304,0.877,1.956,3.008,1.956h3.248
	c0,0-6.96,3.632-9.132,7.155c-1.129,1.84-1.722,10.028-1.683,12.965c0.034,2.933,0.457,8.688,0.577,11.72
	c0.074,1.987,0.838,2.708,2.637,2.708h9.021c3.574,0,3.084-3.685,3.084-3.685c3.471-0.134,5.396,0.362,6.656,0.602
	c1.262,0.241,8.012,0.511,8.012,0.511l8.935,0.052h0.126h0.125l8.936-0.052c0,0,6.75-0.27,8.012-0.511
	c1.262-0.238,3.186-0.739,6.658-0.602c0,0-0.49,3.685,3.082,3.685h9.021c1.799,0,2.561-0.721,2.637-2.708
	c0.119-3.03,0.547-8.787,0.58-11.72C90.613,55.727,90.023,47.539,88.893,45.699z M27.544,35.135c0.545-1.092,4.763-7.85,6.674-8.477
	c0.923-0.307,4.985-0.468,8.931-0.559c0.143,0.274,0.396,0.58,0.826,0.599c0.777,0.028,2.392,0.093,2.392,0.093
	s0.224,0.483,0.825,0.566c0.604,0.083,2.178,0.342,2.342,0.425c0.158,0.079-0.022,0.438-0.022,0.438s-1.271,0.019-2.255,0.079
	c-0.508,0.036-0.588,1.47-0.523,1.671c0.062,0.202,0.28,0.162,0.28,0.162l2.618,0.119h1.177h1.181l2.612-0.119
	c0,0,0.225,0.04,0.281-0.162c0.063-0.202-0.013-1.635-0.522-1.671c-0.981-0.062-2.253-0.079-2.253-0.079s-0.181-0.359-0.019-0.438
	c0.163-0.083,1.737-0.343,2.341-0.425c0.601-0.083,0.827-0.566,0.827-0.566s1.613-0.064,2.388-0.093
	c0.445-0.019,0.705-0.351,0.842-0.627c4.338,0.079,9.328,0.245,10.367,0.587c1.906,0.627,6.125,7.385,6.67,8.477
	c0.777,1.578,0.596,2.281-0.764,2.219c-0.342-0.015-1.467-0.061-3.086-0.126c-0.227-0.267-0.66-0.728-1.051-0.836
	c-1.344-0.366-2.453-0.525-2.453-0.525s0.283-0.22,0.164-0.709c-0.119-0.49-0.771-3.182-0.943-3.975
	c-0.17-0.789-0.574-1.542-1.516-1.542c-0.943,0-3.123,0-3.123,0s-0.783,0-0.84,0.271c-0.441-0.04-0.598,0.411-0.598,0.411
	l-1.305,2.445c0,0-0.174,0.072-0.836,0.079c-0.664,0-0.744,0.718-0.879,1.044c-0.191,0.473-0.461,1.388-0.461,1.388l-3.447,0.177
	c0,0-0.026-0.706-1.055-0.717c-1.026-0.012-4.733,0.054-5.02,0.068c-0.286,0.004-0.75,0.126-0.86,0.383
	c-0.114,0.267-0.215,0.37-0.215,0.37s0-0.173-0.346-0.173c-0.35,0-2.779,0-2.779,0l-0.281-0.825c0,0-0.057-1.557-1.345-1.692
	c-0.605-0.058-1.104-0.075-1.104-0.075l-0.005-0.018c0,0-0.204-0.66-0.519-1.419c-0.317-0.757-0.494-1.409-1.431-1.431
	c-0.937-0.018-3.839-0.107-4.12,0.043c-0.279,0.151-0.436,0.347-0.436,0.347s-0.429,0.157-0.562,0.519
	c-0.731,1.978-1.232,3.444-1.191,5.159c0.006,0.255,0.111,0.284,0.164,0.284c-0.16,0.018-1.853,0.23-2.267,0.476
	c-0.213,0.126-0.447,0.338-0.632,0.515c-1.069,0.043-1.808,0.076-2.074,0.083C26.951,37.417,26.764,36.717,27.544,35.135z
	 M46.847,57.533c-2.27,0-4.077,0-6.096,0c-2.018,0-8.679-1.21-8.626-5.044c-2.089,0.004-8.142,0.123-11.948,0.259
	c-3.008,0.109-4.132-0.058-4.029-1.639c-2.653,0-1.843-3.148-1.329-4.933c0.513-1.791,3.902-0.685,5.675-0.155
	c1.778,0.53,9.454,2.58,10.106,2.754c0.658,0.177,1.142,0.255,1.417,0.771c0.254-1.257,0.681-2.475,4.398-2.475
	c1.521,0,6.094,0,8.97,0c2.875,0,4.137,0.154,4.662,1.344c0,0,0.58,2.389,0.58,5.177C50.624,56.386,49.117,57.533,46.847,57.533z
	 M51.53,46.16c-1.331,0-2.406-0.547-2.406-1.226c0-0.678,1.076-1.225,2.406-1.225c1.332,0,2.41,0.548,2.41,1.225
	C53.94,45.612,52.859,46.16,51.53,46.16z M86.912,51.112c0.104,1.582-1.02,1.745-4.029,1.636c-3.805-0.136-9.855-0.255-11.945-0.259
	c0.053,3.829-6.607,5.044-8.627,5.044c-2.018,0-3.826,0-6.098,0c-2.271,0-3.779-1.14-3.779-3.933c0-2.792,0.578-5.18,0.578-5.18
	c0.528-1.188,1.785-1.344,4.664-1.344c2.877,0,7.449,0,8.969,0c3.721,0,4.146,1.218,4.4,2.479c0.273-0.522,0.758-0.6,1.412-0.768
	c0.656-0.177,8.334-2.229,10.107-2.756c1.775-0.53,5.16-1.635,5.678,0.146C88.756,47.964,89.568,51.112,86.912,51.112z"/>
<linearGradient id="SVGID_2_" gradientUnits="userSpaceOnUse" x1="163.582" y1="-289.0168" x2="199.9219" y2="-289.0168" gradientTransform="matrix(1 0 0 -1 -149.2949 -237.6528)">
	<stop  offset="0" style="stop-color:#FFFFFF"/>
	<stop  offset="1" style="stop-color:#C8C8C8"/>
</linearGradient>
<path fill="url(#SVGID_2_)" d="M46.847,57.533c-2.27,0-4.077,0-6.096,0c-2.018,0-8.679-1.21-8.626-5.044
	c-2.089,0.004-8.142,0.123-11.948,0.259c-3.008,0.109-4.132-0.058-4.029-1.639c-2.653,0-1.843-3.148-1.329-4.933
	c0.513-1.791,3.902-0.685,5.675-0.155c1.778,0.53,9.454,2.58,10.106,2.754c0.658,0.177,1.142,0.255,1.417,0.771
	c0.254-1.257,0.681-2.475,4.398-2.475c1.521,0,6.094,0,8.97,0c2.875,0,4.137,0.154,4.662,1.344c0,0,0.58,2.389,0.58,5.177
	C50.624,56.386,49.117,57.533,46.847,57.533z"/>
<ellipse opacity="0.1" fill="#A0A0A0" enable-background="new    " cx="51.53" cy="44.935" rx="2.41" ry="1.225"/>
<linearGradient id="SVGID_3_" gradientUnits="userSpaceOnUse" x1="194.377" y1="-289.0217" x2="230.7178" y2="-289.0217" gradientTransform="matrix(1 0 0 -1 -149.2949 -237.6528)">
	<stop  offset="0" style="stop-color:#FFFFFF"/>
	<stop  offset="1" style="stop-color:#C8C8C8"/>
</linearGradient>
<path fill="url(#SVGID_3_)" d="M86.912,51.112c0.104,1.582-1.02,1.745-4.029,1.636c-3.805-0.136-9.855-0.255-11.945-0.259
	c0.053,3.829-6.607,5.044-8.627,5.044c-2.018,0-3.826,0-6.098,0c-2.271,0-3.779-1.14-3.779-3.933c0-2.792,0.578-5.18,0.578-5.18
	c0.528-1.188,1.785-1.344,4.664-1.344c2.877,0,7.449,0,8.969,0c3.721,0,4.146,1.218,4.4,2.479c0.273-0.522,0.758-0.6,1.412-0.768
	c0.656-0.177,8.334-2.229,10.107-2.756c1.775-0.53,5.16-1.635,5.678,0.146C88.756,47.964,89.568,51.112,86.912,51.112z"/>
<path opacity="0.6" fill="#C1BAAC" enable-background="new    " d="M14.167,45.699c3.632-2.908,10.066-2.908,14.863-2.908
	c0.798,0,4.536-3.631,5.23-3.754c-1.21,0.807-2.29,3.711-1.96,3.726c4.451,0.172,24.617-0.62,33.105-1.945
	c0.359-0.055,0.471-1.203-1.361-2.008c1.988,0.612,2.998,1.727,3.291,1.673c7.012-1.306,9.02-1.737,11.875-1.445
	c-3.871-0.915-14.473-1.671-26.779-1.671c-7.78,0-25.34,0.32-27.281,1.138c-1.942,0.814-4.054,1.161-5.82,2.447
	C17.562,42.236,14.67,44.35,14.167,45.699z"/>
<linearGradient id="SVGID_4_" gradientUnits="userSpaceOnUse" x1="176.3799" y1="-269.3279" x2="225.2793" y2="-269.3279" gradientTransform="matrix(1 0 0 -1 -149.2949 -237.6528)">
	<stop  offset="0" style="stop-color:#FFFFFF"/>
	<stop  offset="1" style="stop-color:#C8C8C8"/>
</linearGradient>
<path opacity="0.3" fill="url(#SVGID_4_)" enable-background="new    " d="M27.544,35.135c0.545-1.092,4.763-7.85,6.674-8.477
	c1.905-0.623,17.188-0.667,17.188-0.667s0.048,0,0.126,0c0.085,0,0.132,0,0.132,0s15.279,0.036,17.189,0.667
	c1.908,0.627,6.129,7.385,6.672,8.477c0.777,1.578,0.596,2.281-0.766,2.219c-1.361-0.054-15.162-0.658-23.095-0.541
	c-0.044,0-0.084,0-0.128,0c-0.042,0-0.082,0-0.126,0c-7.938-0.118-21.732,0.487-23.095,0.541
	C26.951,37.417,26.764,36.717,27.544,35.135z"/>
<path fill="#777266" d="M36.343,47.895c2.054,0.029,9.099,0.213,10.347,0.317c1.244,0.108,2.288,0.515,2.434,2.36
	c0.146,1.848,0.556,4.207-0.776,5.079c-1.333,0.867-6.256,0.671-8.207,0.461c-1.948-0.209-6.359-1.128-6.668-2.871
	c-0.307-1.743-0.512-3.179,0-3.999C33.986,48.419,34.811,47.874,36.343,47.895z"/>
<path fill="#777266" d="M66.895,47.895c-2.051,0.029-9.1,0.213-10.344,0.317c-1.248,0.108-2.288,0.515-2.438,2.36
	c-0.146,1.848-0.555,4.207,0.779,5.079c1.333,0.867,6.258,0.671,8.206,0.461c1.949-0.209,6.359-1.128,6.668-2.871
	s0.514-3.179,0-3.999C69.252,48.419,68.43,47.874,66.895,47.895z"/>
<linearGradient id="SVGID_5_" gradientUnits="userSpaceOnUse" x1="165.2656" y1="945.5398" x2="236.2666" y2="945.5398" gradientTransform="matrix(1 0 0 1 -149.2397 -883.291)">
	<stop  offset="0" style="stop-color:#FFFFFF"/>
	<stop  offset="1" style="stop-color:#C8C8C8"/>
</linearGradient>
<path fill="url(#SVGID_5_)" d="M84.354,58.429c-1.238,0.051-3.82,0.354-8.193,0.762c-4.369,0.409-7.502,0.863-8.227,2.239
	l-16.408,0.072L35.119,61.43c-0.721-1.376-3.855-1.83-8.228-2.239c-4.371-0.407-6.954-0.711-8.189-0.762
	c-1.238-0.051-2.765-0.371-2.672,2.031c0.094,2.407,0.295,4.04,2.987,4.355c2.691,0.316,7.487,0.592,10.344,0.808
	c2.855,0.216,6.801,0.714,6.482-0.529c2.759-0.119,1.118,0.926,3.273,0.987c2.149,0.058,12.408,0,12.408,0s10.26,0.058,12.413,0
	c2.15-0.062,0.514-1.106,3.271-0.987c-0.32,1.243,3.621,0.745,6.48,0.529s7.65-0.49,10.344-0.808
	c2.693-0.315,2.898-1.948,2.99-4.355C87.115,58.058,85.588,58.379,84.354,58.429z"/>
<linearGradient id="SVGID_6_" gradientUnits="userSpaceOnUse" x1="61.5684" y1="65.2126" x2="96.2051" y2="65.2126">
	<stop  offset="0" style="stop-color:#FFFFFF"/>
	<stop  offset="1" style="stop-color:#C8C8C8"/>
</linearGradient>
<rect x="61.568" y="52.603" fill="url(#SVGID_6_)" width="34.637" height="25.219"/>
<g>
	<g>
		<path fill="#787366" d="M98.998,50.488c0,0.516,0,0.812,0,1.107c0,9.455,0,18.91,0,28.365c0,0.996-0.164,1.229-1.125,1.254
			c-1.496,0.041-2.998-0.004-4.496,0.023c-0.734,0.014-0.682-0.613-0.832-1.012c-0.057-0.148,0.268-0.504,0.484-0.686
			c0.242-0.199,0.559-0.309,0.898-0.484c-0.18-0.355-0.328-0.658-0.568-1.143c0.539,0,0.961-0.041,1.371,0.01
			c0.771,0.098,1.02-0.164,1.016-0.973c-0.035-6.24-0.02-12.48-0.02-18.721c0-1.279-0.021-2.562,0.008-3.842
			c0.012-0.539-0.178-0.691-0.709-0.691c-10.52,0.016-21.035,0.018-31.553-0.004c-0.676,0-0.811,0.24-0.809,0.855
			c0.018,7.52,0.02,15.041-0.006,22.561c-0.002,0.67,0.217,0.826,0.844,0.822c3.516-0.027,7.031-0.014,10.545-0.016
			c0.209,0,0.418,0,0.771,0c-0.244,0.43-0.42,0.742-0.625,1.104c0.258,0.148,0.51,0.252,0.707,0.42
			c0.271,0.229,0.73,0.531,0.705,0.754c-0.07,0.58-0.305,1.074-1.137,1.066c-4.551-0.045-9.102-0.018-13.652-0.029
			c-1.156-0.002-1.391-0.252-1.391-1.375c-0.002-9.291-0.002-18.582,0-27.875c0-1.436,0.146-1.596,1.58-1.596
			c11.582-0.006,23.162-0.008,34.74-0.002C96.801,50.385,97.854,50.451,98.998,50.488z"/>
		
			<linearGradient id="SVGID_7_" gradientUnits="userSpaceOnUse" x1="67.4072" y1="74.0125" x2="107.7354" y2="74.0125" gradientTransform="matrix(1 0 0 -1 -8.3599 139.8335)">
			<stop  offset="0" style="stop-color:#FFFFFF"/>
			<stop  offset="1" style="stop-color:#C8C8C8"/>
		</linearGradient>
		<path fill="url(#SVGID_7_)" d="M74.488,81.638h-0.025c-2.439-0.023-4.852-0.027-7.094-0.027l-3.814,0.002
			c-0.914,0-1.826-0.002-2.738-0.004c-1.355-0.002-1.77-0.412-1.77-1.75V51.984c0-1.641,0.33-1.973,1.959-1.975
			c11.582-0.004,23.162-0.008,34.74,0c0.723,0,1.436,0.029,2.188,0.061c0.352,0.016,0.709,0.029,1.076,0.043l0.365,0.012v29.836
			c0,1.078-0.225,1.596-1.492,1.631c-0.52,0.016-1.041,0.02-1.561,0.02l-1.742-0.004c-0.396,0-0.797,0.002-1.193,0.01l0,0
			c-0.885,0-1.043-0.664-1.129-1.021c-0.02-0.082-0.037-0.162-0.066-0.234c-0.152-0.404,0.309-0.869,0.598-1.109
			c0.191-0.16,0.404-0.262,0.629-0.367l-0.666-1.346h0.607c0.172,0,0.332-0.004,0.484-0.01c0.363-0.01,0.678-0.01,0.934,0.021
			c0.084,0.012,0.162,0.018,0.23,0.018c0.092,0,0.211-0.012,0.258-0.059c0.039-0.041,0.104-0.166,0.102-0.557
			c-0.023-4.76-0.021-9.6-0.02-14.279v-4.439c0-0.379-0.002-0.756-0.004-1.133c-0.006-0.891-0.01-1.811,0.012-2.717
			c0.006-0.217-0.031-0.266-0.033-0.266c0,0-0.049-0.041-0.293-0.041c-10.529,0.014-21.043,0.018-31.561-0.004
			c-0.293,0-0.359,0.053-0.369,0.062c-0.02,0.02-0.062,0.098-0.062,0.414c0.02,8.25,0.018,15.631-0.004,22.562
			c-0.002,0.303,0.051,0.371,0.062,0.383c0.014,0.014,0.082,0.061,0.379,0.061c1.85-0.014,3.676-0.018,5.504-0.018l6.482,0.002
			l-0.754,1.332c0.148,0.08,0.297,0.166,0.434,0.279c0.051,0.041,0.107,0.086,0.168,0.133c0.352,0.279,0.715,0.566,0.67,0.957
			C75.867,81.17,75.365,81.638,74.488,81.638z M67.367,80.857c2.246,0,4.658,0.004,7.104,0.027l0.016,0.377v-0.377
			c0.471,0,0.662-0.172,0.736-0.672c-0.07-0.088-0.27-0.246-0.381-0.334c-0.066-0.051-0.129-0.104-0.186-0.15
			c-0.104-0.086-0.24-0.158-0.398-0.242c-0.082-0.043-0.168-0.088-0.254-0.139l-0.322-0.186l0.488-0.865l-5.189-0.002
			c-1.824,0-3.65,0.002-5.475,0.016c-0.002,0-0.002,0-0.002,0c-0.342,0-0.693-0.035-0.941-0.283
			c-0.252-0.254-0.283-0.625-0.281-0.918c0.021-6.93,0.023-14.307,0.004-22.559c0-0.344,0.033-0.699,0.283-0.947
			c0.25-0.252,0.613-0.283,0.9-0.283c10.525,0.02,21.039,0.018,31.557,0.002c0.271,0,0.607,0.031,0.84,0.27s0.252,0.574,0.248,0.809
			c-0.021,0.896-0.016,1.812-0.014,2.697c0.004,0.377,0.006,0.756,0.006,1.137l-0.002,4.439c-0.004,4.68-0.006,9.518,0.02,14.277
			c0.002,0.354-0.031,0.801-0.32,1.09c-0.242,0.244-0.582,0.326-1.119,0.258c-0.191-0.023-0.439-0.025-0.721-0.018l0.467,0.941
			l-0.33,0.17c-0.111,0.059-0.221,0.109-0.324,0.158c-0.203,0.094-0.377,0.176-0.506,0.283c-0.154,0.125-0.283,0.277-0.338,0.363
			c0.021,0.07,0.041,0.146,0.059,0.225c0.094,0.395,0.133,0.439,0.363,0.439c0.42-0.008,0.824-0.01,1.227-0.01l1.742,0.004
			c0.514,0,1.027-0.002,1.541-0.018c0.701-0.02,0.756-0.021,0.758-0.877V50.853c-0.244-0.01-0.48-0.02-0.719-0.027
			c-0.746-0.033-1.449-0.062-2.154-0.062c-11.58-0.006-23.16-0.002-34.74,0.002c-1.205,0-1.205,0-1.205,1.219v27.875
			c0,0.92,0.076,0.994,1.016,0.996c0.912,0.002,1.824,0.002,2.736,0.002H67.367z"/>
	</g>
	<g>
		<path fill="#787366" d="M92.105,76.82c-0.812,0.762-0.842,1.459,0.371,2.006c0,0.084,0.002,0.168,0.004,0.252
			c-0.24,0.129-0.561,0.203-0.699,0.404c-0.145,0.205-0.252,0.646-0.135,0.791c0.475,0.582,0.469,0.938-0.299,1.17
			c-0.168,0.053-0.303,0.211-0.477,0.338c0.098,0.277,0.256,0.531,0.252,0.783c-0.004,0.213-0.203,0.607-0.305,0.605
			c-1.014-0.037-0.982,0.604-0.912,1.297c0.008,0.074-0.043,0.152-0.104,0.344c-1.039-0.363-1.562,0.109-1.529,1.369
			c-1.133-0.725-1.719-0.258-2.082,0.844c-0.863-1.021-1.537-0.811-2.074,0.25c-0.375-0.412-0.66-0.725-1.021-1.125
			c-0.861,0.959-1.514,0.777-1.826-0.447c-0.322,0.088-0.568,0.123-0.789,0.217c-0.516,0.219-0.734-0.023-0.742-0.496
			c-0.01-0.633-0.285-0.816-0.879-0.66c-0.486,0.127-0.762-0.064-0.658-0.592c0.115-0.584,0.021-0.941-0.688-0.955
			c-0.461-0.008-0.707-0.256-0.459-0.764c0.094-0.191,0.125-0.414,0.209-0.707c-0.359-0.232-0.908-0.402-1.043-0.738
			c-0.104-0.262,0.311-0.73,0.697-1.291c-0.213-0.121-0.43-0.236-0.641-0.361c-0.188-0.109-0.367-0.229-0.66-0.414
			c0.521-0.398,0.861-0.66,1.223-0.938c-0.285-0.457-0.496-0.793-0.764-1.221c0.674-0.449,1.744-0.783,0.762-1.904
			c0.309-0.146,0.49-0.289,0.691-0.318c0.557-0.086,0.816-0.328,0.688-0.93c-0.115-0.549,0.225-0.607,0.684-0.609
			c0.262,0,0.68-0.133,0.758-0.32c0.436-1.031,0.406-1.043,1.486-0.615c0.09-0.102,0.238-0.199,0.289-0.332
			c0.283-0.785,0.664-1.062,1.361-0.365c0.082,0.08,0.463-0.018,0.605-0.146c0.217-0.191,0.344-0.482,0.602-0.869
			c0.672,1.111,1.322,1.459,2.098,0.443c0.176,0.217,0.354,0.342,0.395,0.504c0.178,0.688,0.498,0.9,1.166,0.51
			c0.439-0.258,0.66,0.049,0.709,0.459c0.076,0.633,0.344,0.922,1.023,0.742c0.57-0.146,0.572,0.26,0.498,0.637
			c-0.107,0.545,0.078,0.814,0.645,0.861c0.465,0.039,0.857,0.254,0.566,0.785c-0.357,0.648-0.146,0.936,0.488,1.113
			C91.754,76.474,91.883,76.646,92.105,76.82z"/>
		
			<linearGradient id="SVGID_8_" gradientUnits="userSpaceOnUse" x1="83.3193" y1="61.032" x2="101.2236" y2="61.032" gradientTransform="matrix(1 0 0 -1 -8.3599 139.8335)">
			<stop  offset="0" style="stop-color:#FFFFFF"/>
			<stop  offset="1" style="stop-color:#C8C8C8"/>
		</linearGradient>
		<path fill="url(#SVGID_8_)" d="M84.207,87.935l-1.127-1.24c-0.336,0.299-0.652,0.443-0.967,0.443c-0.35,0-0.805-0.18-1.1-0.986
			c-0.154,0.037-0.279,0.068-0.387,0.113c-0.178,0.074-0.336,0.111-0.484,0.111c-0.371,0-0.771-0.25-0.781-0.949
			c-0.006-0.34-0.074-0.34-0.152-0.34c-0.066,0-0.152,0.014-0.254,0.039c-0.127,0.035-0.248,0.051-0.357,0.051
			c-0.33,0-0.52-0.146-0.619-0.268c-0.164-0.199-0.213-0.473-0.146-0.812c0.066-0.338,0.018-0.418,0.006-0.432
			c-0.02-0.025-0.111-0.07-0.332-0.074c-0.484-0.01-0.713-0.219-0.818-0.393c-0.107-0.174-0.188-0.473,0.029-0.914
			c0.045-0.092,0.072-0.209,0.109-0.357c-0.031-0.016-0.062-0.031-0.094-0.047c-0.336-0.172-0.717-0.369-0.861-0.736
			c-0.16-0.396,0.129-0.797,0.496-1.305c-0.096-0.053-0.189-0.107-0.283-0.162c-0.127-0.076-0.254-0.156-0.414-0.258l-0.711-0.451
			l1.379-1.057l-0.775-1.242l0.305-0.203c0.105-0.07,0.221-0.137,0.338-0.207c0.289-0.172,0.619-0.367,0.65-0.553
			c0.02-0.129-0.088-0.336-0.303-0.582l-0.328-0.373l0.449-0.217c0.1-0.045,0.186-0.094,0.262-0.135
			c0.174-0.096,0.338-0.186,0.537-0.215c0.264-0.041,0.344-0.105,0.369-0.141c0.037-0.057,0.039-0.178,0.006-0.338
			c-0.066-0.314-0.023-0.572,0.129-0.76c0.225-0.277,0.594-0.303,0.922-0.303c0.156,0,0.359-0.072,0.426-0.121l0.021-0.047
			c0.262-0.623,0.434-1.035,0.951-1.035c0.207,0,0.432,0.076,0.76,0.203c0.012-0.012,0.021-0.021,0.025-0.031
			c0.086-0.24,0.363-1.004,1.021-1.004c0.273,0,0.559,0.139,0.865,0.42c0.066-0.014,0.15-0.045,0.184-0.07
			c0.1-0.09,0.191-0.242,0.307-0.436c0.066-0.109,0.141-0.23,0.227-0.359l0.33-0.496l0.309,0.508
			c0.455,0.754,0.744,0.867,0.877,0.867c0.166,0,0.371-0.158,0.596-0.455l0.293-0.381l0.303,0.371
			c0.055,0.066,0.107,0.123,0.156,0.174c0.129,0.135,0.262,0.271,0.312,0.475c0.041,0.156,0.125,0.42,0.236,0.42
			c0.049,0,0.16-0.02,0.373-0.143c0.166-0.1,0.328-0.146,0.484-0.146c0.33,0,0.711,0.232,0.789,0.885
			c0.057,0.465,0.186,0.465,0.297,0.465c0.072,0,0.16-0.014,0.258-0.041c0.447-0.115,0.727,0.049,0.844,0.191
			c0.213,0.26,0.17,0.627,0.121,0.883c-0.037,0.184-0.023,0.285,0.004,0.32c0.025,0.033,0.117,0.076,0.301,0.092
			c0.455,0.039,0.775,0.207,0.926,0.486c0.092,0.172,0.156,0.461-0.062,0.857c-0.156,0.285-0.121,0.375-0.121,0.379
			c0.006,0.01,0.049,0.094,0.383,0.188c0.195,0.055,0.332,0.182,0.467,0.305c0.053,0.047,0.111,0.1,0.178,0.154l0.348,0.271
			l-0.32,0.301c-0.328,0.305-0.488,0.58-0.457,0.771c0.033,0.201,0.291,0.418,0.723,0.613l0.217,0.098l0.016,0.721l-0.203,0.109
			c-0.082,0.045-0.174,0.082-0.264,0.121c-0.115,0.049-0.27,0.115-0.305,0.166c-0.068,0.1-0.117,0.291-0.117,0.383
			c0.23,0.287,0.461,0.66,0.344,1.053c-0.125,0.406-0.551,0.58-0.861,0.674c-0.027,0.008-0.08,0.049-0.131,0.092
			c0.086,0.199,0.18,0.424,0.176,0.674c-0.004,0.227-0.227,0.977-0.682,0.977l-0.082-0.002c-0.201,0-0.344,0.035-0.404,0.102
			c-0.117,0.129-0.078,0.523-0.051,0.783c0.014,0.133-0.027,0.238-0.064,0.34c-0.016,0.041-0.033,0.092-0.053,0.154l-0.117,0.373
			l-0.367-0.129c-0.186-0.064-0.35-0.098-0.484-0.098c-0.191,0-0.277,0.066-0.326,0.115c-0.152,0.16-0.23,0.51-0.219,0.986
			l0.018,0.709l-0.598-0.383c-0.299-0.191-0.553-0.287-0.75-0.287c-0.127,0-0.463,0-0.768,0.932l-0.211,0.645l-0.436-0.52
			c-0.293-0.342-0.559-0.533-0.758-0.533c-0.291,0-0.559,0.445-0.691,0.711L84.207,87.935z M83.092,85.588l0.963,1.059
			c0.555-0.77,1.281-0.877,2-0.291c0.215-0.426,0.598-0.898,1.264-0.898c0.191,0,0.393,0.041,0.605,0.123
			c0.059-0.398,0.189-0.701,0.402-0.92c0.283-0.289,0.691-0.4,1.188-0.312c-0.035-0.408-0.041-0.873,0.258-1.205
			c0.201-0.223,0.494-0.338,0.891-0.35c0.041-0.078,0.082-0.189,0.082-0.236c0.002-0.09-0.057-0.227-0.119-0.373
			c-0.041-0.09-0.08-0.182-0.111-0.277l-0.094-0.262l0.227-0.166c0.049-0.035,0.094-0.074,0.137-0.111
			c0.123-0.105,0.264-0.227,0.453-0.281c0.305-0.094,0.357-0.174,0.359-0.178l0,0c-0.002,0-0.002-0.104-0.24-0.396
			c-0.283-0.346-0.061-0.992,0.117-1.246c0.105-0.154,0.256-0.252,0.41-0.33c-0.418-0.268-0.66-0.584-0.721-0.941
			c-0.061-0.369,0.072-0.754,0.398-1.148c-0.031-0.025-0.059-0.047-0.074-0.055c-0.297-0.084-0.711-0.238-0.871-0.621
			c-0.121-0.287-0.07-0.625,0.154-1.035c0.057-0.104,0.055-0.15,0.055-0.15c-0.008,0-0.098-0.061-0.32-0.08
			c-0.395-0.031-0.67-0.16-0.842-0.389s-0.219-0.529-0.141-0.92c0.018-0.1,0.025-0.166,0.025-0.209
			c-0.016,0.002-0.035,0.006-0.059,0.012c-0.166,0.043-0.312,0.064-0.449,0.064c-0.414,0-0.934-0.197-1.045-1.129
			c-0.014-0.123-0.045-0.193-0.062-0.223c-0.01,0.01-0.039,0.02-0.082,0.045c-0.883,0.516-1.473,0.223-1.721-0.742
			c-0.002-0.006-0.014-0.018-0.025-0.033c-0.291,0.279-0.588,0.414-0.902,0.414c-0.488,0-0.883-0.344-1.186-0.73
			c-0.107,0.174-0.217,0.328-0.363,0.459c-0.189,0.17-0.527,0.27-0.746,0.27c-0.158,0-0.285-0.045-0.377-0.141
			c-0.281-0.279-0.412-0.287-0.426-0.287c-0.035,0-0.162,0.092-0.316,0.516c-0.064,0.18-0.197,0.301-0.291,0.389
			c-0.025,0.023-0.051,0.045-0.07,0.066l-0.176,0.195l-0.244-0.096c-0.322-0.129-0.602-0.238-0.707-0.238
			c-0.033,0.037-0.146,0.309-0.258,0.57l-0.033,0.08c-0.174,0.414-0.82,0.551-1.105,0.551c-0.201,0-0.291,0.018-0.33,0.029
			c0,0.02,0,0.061,0.014,0.123c0.082,0.383,0.041,0.686-0.123,0.924c-0.17,0.242-0.455,0.393-0.877,0.457
			c-0.045,0.006-0.107,0.035-0.184,0.074c0.176,0.291,0.24,0.561,0.197,0.822c-0.084,0.533-0.57,0.822-1,1.076l0.744,1.189
			l-1.066,0.818c0.066,0.041,0.129,0.08,0.193,0.117c0.146,0.09,0.297,0.172,0.445,0.254l0.547,0.309l-0.232,0.338
			c-0.082,0.119-0.166,0.234-0.244,0.342c-0.152,0.213-0.359,0.498-0.398,0.623c0.074,0.102,0.322,0.23,0.492,0.316
			c0.137,0.07,0.273,0.141,0.391,0.217l0.232,0.152l-0.076,0.268c-0.025,0.092-0.047,0.178-0.066,0.258
			c-0.043,0.178-0.084,0.346-0.164,0.51c-0.059,0.119-0.062,0.18-0.061,0.195c0.01,0,0.062,0.023,0.188,0.025
			c0.422,0.01,0.717,0.125,0.904,0.355c0.252,0.312,0.209,0.725,0.145,1.053c-0.018,0.092-0.016,0.15-0.01,0.178
			c0.006-0.002,0.018,0,0.035,0c0.031,0,0.086-0.004,0.168-0.025c0.166-0.045,0.311-0.064,0.443-0.064
			c0.332,0,0.895,0.141,0.908,1.084c0.002,0.141,0.027,0.207,0.039,0.219c0.008-0.014,0.07-0.02,0.18-0.064
			c0.176-0.074,0.355-0.117,0.547-0.162c0.09-0.021,0.186-0.043,0.289-0.07l0.369-0.1l0.096,0.369
			c0.121,0.48,0.305,0.777,0.479,0.777c0.078,0,0.305-0.049,0.701-0.488L83.092,85.588z"/>
	</g>
	<path fill="#787366" d="M79.021,64.385c-4.086-0.002-8.172-0.018-12.258,0.014c-0.715,0.004-0.955-0.189-0.932-0.918
		c0.055-1.578-0.094-1.342,1.369-1.344c8.062-0.006,16.127-0.006,24.189-0.004c0.963,0,0.916,0.01,0.979,1.25
		c0.037,0.789-0.217,1.025-1.008,1.018C87.246,64.367,83.133,64.385,79.021,64.385z"/>
	<path opacity="0.8" fill="#C0B9AB" enable-background="new    " d="M82.883,87.863c0.412,0.447,0.775,0.842,1.229,1.33
		c0.682-1.229,1.508-1.668,2.521-0.293c0.227-0.371,0.436-0.602,0.512-0.869c0.191-0.662,0.506-0.801,1.201-0.625
		c0.607,0.154,0.805,0.365,0.779,0.973c-0.041,1.031-0.018,2.066,0,3.1c0.014,0.646-0.27,0.746-0.814,0.533
		c-1.264-0.488-2.525-0.979-3.807-1.418c-0.273-0.096-0.645-0.07-0.926,0.031c-1.303,0.461-2.586,0.973-3.881,1.457
		c-0.145,0.053-0.312,0.039-0.584,0.07c0-1.457-0.049-2.857,0.051-4.25c0.018-0.225,0.693-0.445,1.094-0.576
		c0.141-0.045,0.439,0.139,0.545,0.299c0.234,0.354,0.396,0.758,0.615,1.203C81.918,88.498,82.363,88.205,82.883,87.863z"/>
	<path fill="#787366" d="M79.029,59.922c-1.957,0-3.918-0.014-5.875,0.01c-0.561,0.004-0.82-0.166-0.734-0.75
		c0.031-0.215,0.029-0.438,0.004-0.652c-0.066-0.592,0.166-0.834,0.777-0.832c3.918,0.012,7.834,0.002,11.754-0.014
		c0.541,0,0.824,0.195,0.797,0.762c-0.01,0.219-0.023,0.439,0.006,0.652c0.094,0.674-0.244,0.838-0.852,0.834
		C82.947,59.908,80.988,59.924,79.029,59.922z"/>
	<path opacity="0.6" fill="#C0B9AB" enable-background="new    " d="M77.057,82.451c0.094-0.191,0.123-0.412,0.207-0.705
		c-0.357-0.234-0.908-0.404-1.041-0.74c-0.105-0.26,0.311-0.729,0.695-1.289c-0.213-0.121-0.43-0.236-0.641-0.363
		c-0.186-0.109-0.367-0.229-0.658-0.414c0.52-0.398,0.859-0.66,1.221-0.938c-0.283-0.455-0.494-0.791-0.764-1.221
		c0.674-0.449,1.746-0.781,0.762-1.904c0.309-0.146,0.49-0.287,0.691-0.318c0.559-0.086,0.816-0.326,0.689-0.93
		c-0.117-0.549,0.225-0.607,0.682-0.607c0.262,0,0.682-0.133,0.76-0.32c0.436-1.031,0.406-1.043,1.484-0.615
		c0.09-0.104,0.24-0.201,0.289-0.334c0.285-0.785,0.664-1.062,1.363-0.365c0.08,0.082,0.461-0.018,0.605-0.145
		c0.215-0.193,0.342-0.482,0.598-0.871c0.674,1.111,1.324,1.461,2.098,0.443c0.178,0.217,0.355,0.344,0.396,0.504
		c0.178,0.689,0.498,0.9,1.166,0.51c0.439-0.258,0.66,0.049,0.709,0.459c0.076,0.635,0.344,0.922,1.023,0.744
		c0.568-0.146,0.572,0.26,0.498,0.637"/>
</g>
</svg>
